<?xml version="1.0" encoding="UTF-8" standalone="no"?>
<svg
   xmlns:dc="http://purl.org/dc/elements/1.1/"
   xmlns:cc="http://creativecommons.org/ns#"
   xmlns:rdf="http://www.w3.org/1999/02/22-rdf-syntax-ns#"
   xmlns:svg="http://www.w3.org/2000/svg"
   xmlns="http://www.w3.org/2000/svg"
   version="1.1"
   id="Layer_1"
   x="0px"
   y="0px"
   viewBox="0 0 117.74664 179.46809"
   xml:space="preserve"
   width="31.153799mm"
   height="47.484268mm"><metadata
   id="metadata33"><rdf:RDF><cc:Work
       rdf:about=""><dc:format>image/svg+xml</dc:format><dc:type
         rdf:resource="http://purl.org/dc/dcmitype/StillImage" /><dc:title></dc:title></cc:Work></rdf:RDF></metadata><defs
   id="defs31" />
<style
   type="text/css"
   id="style2">
	.st0{fill-rule:evenodd;clip-rule:evenodd;}
</style>
<g
   id="g22"
   style="fill:#000000;fill-opacity:1">
	<path
   style="fill:#000000;fill-opacity:1"
   d="M 66.505661,83.867615 H 64.825706 63.14576 61.465813 59.785866 58.105915 56.425968 54.746017 53.066071 v -0.82695 -0.82695 -0.826943 -0.82695 -0.826942 -0.82695 -0.82695 -0.826943 h 1.679946 1.679951 1.679947 1.679951 1.679947 1.679947 1.679946 1.679955 v 0.826943 0.82695 0.82695 0.826942 0.82695 0.826943 0.82695 z"
   id="polygon4" />
	<g
   id="g10"
   style="fill:#000000;fill-opacity:1">
		<path
   style="fill:#000000;fill-opacity:1"
   d="m 44.782272,115.28001 -0.863842,-0.0873 -0.805084,-0.25045 -0.728939,-0.39615 -0.635399,-0.52448 -0.524475,-0.6354 -0.396156,-0.72893 -0.250447,-0.80509 -0.08734,-0.86384 v -0.7194 -0.7194 -0.7194 -0.7194 -0.7194 -0.71939 -0.7194 -0.7194 l -4.183876,6.11528 -4.183876,6.11528 -4.183878,6.11528 -4.183876,6.11528 -4.183876,6.11528 -4.183875,6.11528 -4.183876,6.11528 -4.1838764,6.11528 -0.3764129,0.86485 0.00547,0.82564 0.3127799,0.72994 0.5455241,0.57771 0.7037024,0.36899 0.7873116,0.10374 0.7963533,-0.218 0.730829,-0.59625 4.345856,-5.1915 4.345855,-5.1915 4.345856,-5.1915 4.345855,-5.19149 4.345858,-5.1915 4.345855,-5.1915 4.345856,-5.1915 4.345856,-5.1915 h -0.06371 -0.06371 -0.06371 -0.06371 -0.06371 -0.06371 -0.06371 z"
   id="polygon6" />
		<path
   style="fill:#000000;fill-opacity:1"
   d="m 112.55217,154.15538 -4.18388,-6.11528 -4.18387,-6.11528 -4.18388,-6.11528 -4.183874,-6.11528 -4.183876,-6.11528 -4.183876,-6.11528 -4.183876,-6.11528 -4.183877,-6.11528 v 0.7194 0.7194 0.71939 0.7194 0.7194 0.7194 0.7194 0.7194 l -0.08735,0.86384 -0.250443,0.80509 -0.396156,0.72893 -0.524475,0.6354 -0.635407,0.52448 -0.728935,0.39615 -0.805084,0.25045 -0.863839,0.0873 h -0.06371 -0.06371 -0.06371 -0.06371 -0.06371 -0.06371 -0.06371 -0.06371 l 4.345856,5.1915 4.345855,5.1915 4.345856,5.1915 4.345856,5.1915 4.345856,5.19149 4.345849,5.1915 4.34586,5.1915 4.34586,5.1915 0.73082,0.59625 0.79636,0.218 0.78731,-0.10374 0.7037,-0.36899 0.54553,-0.57771 0.31277,-0.72994 0.005,-0.82564 z"
   id="polygon8" />
	</g>
	<g
   id="g18"
   style="fill:#000000;fill-opacity:1">
		<g
   id="g14"
   style="fill:#000000;fill-opacity:1">
			<path
   style="fill:#000000;fill-opacity:1"
   d="m 74.789474,87.144272 h -3.7509 -3.7509 -3.7509 -3.750901 -3.7509 -3.7509 -3.7509 -3.750901 l -0.260322,0.02625 -0.242462,0.07526 -0.21941,0.119095 -0.191166,0.157722 -0.157727,0.19117 -0.119094,0.219414 -0.07526,0.242462 -0.02624,0.260315 v 2.819046 2.819046 2.819046 2.819046 2.819046 2.81904 2.81905 2.81905 l 0.02624,0.26032 0.07526,0.24246 0.119094,0.21942 0.157727,0.19116 0.191166,0.15773 0.21941,0.11909 0.242462,0.0753 0.260322,0.0262 h 0.918122 0.918121 0.918121 0.918122 0.918121 0.918121 0.918122 0.918121 l -0.06117,-1.39919 -0.06117,-1.39919 -0.06117,-1.39919 -0.06117,-1.3992 -0.06117,-1.39919 -0.06117,-1.39919 -0.06117,-1.3992 -0.06117,-1.39919 0.0054,-0.88362 0.09274,-0.867377 0.178268,-0.846275 0.261967,-0.82032 0.343834,-0.78949 0.42387,-0.753815 0.502083,-0.713272 0.578457,-0.667869 0.642006,-0.607064 0.690628,-0.532737 0.73447,-0.456368 0.773541,-0.37796 0.807827,-0.297508 0.837337,-0.21502 0.862076,-0.130493 0.882034,-0.04392 h 2.3e-5 2.3e-5 2.3e-5 2.3e-5 2.3e-5 2.3e-5 2.2e-5 2.3e-5 v 7e-6 8e-6 8e-6 7e-6 8e-6 7e-6 8e-6 8e-6 l 0.0133,7.6e-5 0.0133,7.6e-5 0.0133,7.7e-5 0.0133,7.6e-5 0.0133,7.6e-5 0.0133,7.7e-5 0.0133,7.6e-5 0.0133,7.6e-5 0.880958,0.0546 0.85997,0.14077 0.834237,0.224838 0.803756,0.306801 0.768524,0.386688 0.728546,0.464462 0.683816,0.540154 0.634345,0.613739 0.570252,0.673714 0.493538,0.718193 0.415039,0.757804 0.33477,0.792527 0.252724,0.82238 0.168915,0.847351 0.08332,0.867436 -0.004,0.88266 -0.07547,1.38773 -0.07547,1.38773 -0.07547,1.38774 -0.07547,1.38773 -0.07547,1.38773 -0.07547,1.38774 -0.07547,1.38773 -0.07547,1.38773 h 0.815452 0.815453 0.815453 0.815452 0.815453 0.815452 0.815453 0.815452 l 0.260315,-0.0262 0.24247,-0.0753 0.219406,-0.11909 0.19117,-0.15773 0.157723,-0.19116 0.119094,-0.21942 0.07526,-0.24246 0.02624,-0.26032 v -2.81905 -2.81905 -2.81904 -2.819048 -2.819046 -2.819046 -2.819046 -2.819046 l -0.02624,-0.260315 -0.07526,-0.242462 -0.119094,-0.219414 -0.157723,-0.19117 -0.19117,-0.157722 -0.219406,-0.119095 -0.24247,-0.07526 z"
   id="polygon12" />
		</g>
		<path
   style="fill:#000000;fill-opacity:1"
   d="m 60.324448,95.083786 -0.0087,-8.4e-5 -0.0088,-8.4e-5 -0.0088,-7.6e-5 -0.0088,-6.1e-5 -0.0088,-4.6e-5 -0.0088,-3.8e-5 -0.0087,-3.1e-5 -0.0087,-7e-6 -1.165432,0.120834 -1.081527,0.345985 -0.973435,0.546151 -0.841144,0.721351 -0.684666,0.871575 -0.50399,0.996803 -0.299126,1.097077 -0.07006,1.172355 0.381196,8.71876 0.381195,8.71876 0.381195,8.71875 0.381195,8.71876 0.381195,8.71877 0.381195,8.71875 0.381195,8.71876 0.381195,8.71875 0.06829,0.49301 0.151039,0.42749 0.221962,0.36188 0.281047,0.29622 0.328309,0.2305 0.363742,0.1647 0.387349,0.0989 0.399124,0.033 0.396278,-0.0325 0.384674,-0.0975 0.361496,-0.16266 0.32676,-0.22781 0.280452,-0.29305 0.222592,-0.35832 0.153156,-0.42367 0.07216,-0.48909 0.473884,-8.71392 0.473885,-8.71391 0.473884,-8.71391 0.473885,-8.71391 0.473884,-8.71392 0.473885,-8.71391 0.473885,-8.71391 0.473884,-8.71392 -0.05732,-1.170773 -0.286484,-1.098709 -0.491982,-1.001343 -0.673813,-0.878677 -0.831962,-0.730698 -0.966442,-0.557426 -1.077244,-0.358849 z"
   id="polygon16" />
	</g>
	<path
   style="clip-rule:evenodd;fill:#000000;fill-opacity:1;fill-rule:evenodd"
   d="M 84.58812,22.973741 V 21.332689 19.691637 18.050585 16.409532 14.76848 13.127428 11.486376 9.8453236 H 78.407333 72.226547 66.045761 59.864975 53.684189 47.503403 41.322617 35.14183 v 1.6410524 1.641052 1.641052 1.641052 1.641053 1.641052 1.641052 1.641052 h 6.180787 6.180786 6.180786 6.180786 6.180786 6.180786 6.180786 z"
   id="polygon20" />
</g>
<path
   d="M 73.419601,26.736071 H 70.0112 66.602799 63.194397 59.785995 56.377594 52.969193 49.560791 46.152389 l -2.030952,0.204732 -1.891624,0.587185 -1.711781,0.929112 -1.491413,1.230516 -1.230526,1.4914 -0.929119,1.711758 -0.587185,1.891598 -0.204731,2.03091 v 3.408401 3.408402 3.408401 3.408402 3.408401 3.408402 3.408401 3.408398 l 0.204731,2.030914 0.587185,1.891594 0.929119,1.711762 1.230526,1.491394 1.491413,1.230522 1.711781,0.929108 1.891624,0.587181 2.030952,0.204735 h 3.408402 3.408401 3.408402 3.408401 3.408402 3.408401 3.408402 3.408401 l 2.030892,-0.204735 1.891579,-0.587181 1.711746,-0.929108 1.491394,-1.230522 1.230514,-1.491394 0.929108,-1.711762 0.587181,-1.891594 0.204735,-2.030914 v -3.408398 -3.408401 -3.408402 -3.408401 -3.408401 -3.408402 -3.408402 -3.408401 l -0.204735,-2.03091 -0.587181,-1.891598 -0.929108,-1.711758 -1.230514,-1.4914 -1.491394,-1.230516 -1.711746,-0.929112 -1.891579,-0.587184 -2.030892,-0.204733 z m -13.589847,39.982977 -3.246624,-0.328286 -3.025806,-0.941276 -2.739621,-1.488903 -2.38808,-1.97118 -1.971176,-2.388085 -1.488903,-2.739635 -0.941277,-3.025818 -0.328285,-3.246643 0.328285,-3.246628 0.941277,-3.025814 1.488903,-2.739632 1.971176,-2.388088 2.38808,-1.971188 2.739621,-1.488914 3.025806,-0.94128 3.246624,-0.328289 3.246605,0.328289 3.025791,0.94128 2.739616,1.488914 2.38807,1.971188 1.971168,2.388088 1.488907,2.739632 0.941277,3.025814 0.328277,3.246628 -0.328277,3.246643 -0.941277,3.025818 -1.488907,2.739635 -1.971168,2.388085 -2.38807,1.97118 -2.739616,1.488903 -3.025791,0.941276 -3.246605,0.328286 z"
   id="path24"
   style="fill:#000000;fill-opacity:1" />
<path
   d="m 55.816452,50.833851 -0.868782,-0.08758 -0.809189,-0.251182 -0.732262,-0.397454 -0.637992,-0.526386 -0.526398,-0.637993 -0.397461,-0.732262 -0.251186,-0.809196 -0.08758,-0.868797 0.08758,-0.868782 0.251186,-0.809189 0.397461,-0.732262 0.526398,-0.637993 0.637992,-0.526397 0.732262,-0.397461 0.809189,-0.251187 0.868782,-0.08758 0.868797,0.08758 0.809197,0.251187 0.732262,0.397461 0.637992,0.526397 0.526387,0.637993 0.397453,0.732262 0.251183,0.809189 0.08758,0.868782 -0.08758,0.868797 -0.251183,0.809197 -0.397453,0.732261 -0.526387,0.637993 -0.637992,0.526386 -0.732262,0.397454 -0.809197,0.251182 -0.868797,0.08758 z"
   id="path26"
   style="fill:#000000;fill-opacity:1" />
</svg>
