  0
SECTION
  2
HEADER
  9
$ACADVER
  1
AC1012
  9
$DWGCODEPAGE
  3
ansi_1252
  9
$INSBASE
 10
0.0
 20
0.0
 30
0.0
  9
$EXTMIN
 10
1.000000000000000E+20
 20
1.000000000000000E+20
 30
1.000000000000000E+20
  9
$EXTMAX
 10
-1.000000000000000E+20
 20
-1.000000000000000E+20
 30
-1.000000000000000E+20
  9
$LIMMIN
 10
0.0
 20
0.0
  9
$LIMMAX
 10
12.0
 20
9.0
  9
$ORTHOMODE
 70
     0
  9
$REGENMODE
 70
     1
  9
$FILLMODE
 70
     1
  9
$QTEXTMODE
 70
     0
  9
$MIRRTEXT
 70
     1
  9
$DRAGMODE
 70
     2
  9
$LTSCALE
 40
0.5
  9
$OSMODE
 70
    23
  9
$ATTMODE
 70
     1
  9
$TEXTSIZE
 40
0.12
  9
$TRACEWID
 40
0.05
  9
$TEXTSTYLE
  7
ONSHAPE-STANDARD
  9
$CLAYER
  8
0
  9
$CELTYPE
  6
BYLAYER
  9
$CECOLOR
 62
   256
  9
$CELTSCALE
 40
1.0
  9
$DELOBJ
 70
     1
  9
$DISPSILH
 70
     0
  9
$DIMSCALE
 40
1.0
  9
$DIMASZ
 40
0.18
  9
$DIMEXO
 40
0.0625
  9
$DIMDLI
 40
0.38
  9
$DIMRND
 40
0.0
  9
$DIMDLE
 40
0.0
  9
$DIMEXE
 40
0.08
  9
$DIMTP
 40
0.0
  9
$DIMTM
 40
0.0
  9
$DIMTXT
 40
0.12
  9
$DIMCEN
 40
0.09
  9
$DIMTSZ
 40
0.0
  9
$DIMTOL
 70
     0
  9
$DIMLIM
 70
     0
  9
$DIMTIH
 70
     1
  9
$DIMTOH
 70
     1
  9
$DIMSE1
 70
     0
  9
$DIMSE2
 70
     0
  9
$DIMTAD
 70
     0
  9
$DIMZIN
 70
    11
  9
$DIMBLK
  1

  9
$DIMASO
 70
     1
  9
$DIMSHO
 70
     1
  9
$DIMPOST
  1

  9
$DIMAPOST
  1

  9
$DIMALT
 70
     0
  9
$DIMALTD
 70
     3
  9
$DIMALTF
 40
25.4
  9
$DIMLFAC
 40
50.8
  9
$DIMTOFL
 70
     0
  9
$DIMTVP
 40
0.0
  9
$DIMTIX
 70
     0
  9
$DIMSOXD
 70
     0
  9
$DIMSAH
 70
     0
  9
$DIMBLK1
  1

  9
$DIMBLK2
  1

  9
$DIMSTYLE
  2
ONSHAPE-STANDARD
  9
$DIMCLRD
 70
     7
  9
$DIMCLRE
 70
     7
  9
$DIMCLRT
 70
     7
  9
$DIMTFAC
 40
1.0
  9
$DIMGAP
 40
0.09
  9
$DIMJUST
 70
     0
  9
$DIMSD1
 70
     0
  9
$DIMSD2
 70
     0
  9
$DIMTOLJ
 70
     1
  9
$DIMTZIN
 70
    11
  9
$DIMALTZ
 70
    11
  9
$DIMALTTZ
 70
     0
  9
$DIMFIT
 70
     3
  9
$DIMUPT
 70
     1
  9
$DIMUNIT
 70
     2
  9
$DIMDEC
 70
     2
  9
$DIMTDEC
 70
     2
  9
$DIMALTU
 70
     2
  9
$DIMALTTD
 70
     3
  9
$DIMTXSTY
  7
ONSHAPE-STANDARD-DIMENSION
  9
$DIMAUNIT
 70
     0
  9
$LUNITS
 70
     2
  9
$LUPREC
 70
     4
  9
$SKETCHINC
 40
0.1
  9
$FILLETRAD
 40
0.5
  9
$AUNITS
 70
     0
  9
$AUPREC
 70
     0
  9
$MENU
  1
.
  9
$ELEVATION
 40
0.0
  9
$PELEVATION
 40
0.0
  9
$THICKNESS
 40
0.0
  9
$LIMCHECK
 70
     0
  9
$CHAMFERA
 40
0.0
  9
$CHAMFERB
 40
0.0
  9
$CHAMFERC
 40
0.0
  9
$CHAMFERD
 40
0.0
  9
$SKPOLY
 70
     0
  9
$TDCREATE
 40
2459104.813165197
  9
$TDUPDATE
 40
2459104.813165532
  9
$TDINDWG
 40
0.0
  9
$TDUSRTIMER
 40
0.0
  9
$USRTIMER
 70
     1
  9
$ANGBASE
 50
0.0
  9
$ANGDIR
 70
     0
  9
$PDMODE
 70
    33
  9
$PDSIZE
 40
0.0393700787401575
  9
$PLINEWID
 40
0.0
  9
$COORDS
 70
     1
  9
$SPLFRAME
 70
     0
  9
$SPLINETYPE
 70
     6
  9
$SPLINESEGS
 70
     8
  9
$ATTDIA
 70
     0
  9
$ATTREQ
 70
     1
  9
$HANDLING
 70
     1
  9
$HANDSEED
  5
11A
  9
$SURFTAB1
 70
     6
  9
$SURFTAB2
 70
     6
  9
$SURFTYPE
 70
     6
  9
$SURFU
 70
     6
  9
$SURFV
 70
     6
  9
$UCSNAME
  2

  9
$UCSORG
 10
0.0
 20
0.0
 30
0.0
  9
$UCSXDIR
 10
1.0
 20
0.0
 30
0.0
  9
$UCSYDIR
 10
0.0
 20
1.0
 30
0.0
  9
$PUCSNAME
  2

  9
$PUCSORG
 10
0.0
 20
0.0
 30
0.0
  9
$PUCSXDIR
 10
1.0
 20
0.0
 30
0.0
  9
$PUCSYDIR
 10
0.0
 20
1.0
 30
0.0
  9
$USERI1
 70
     0
  9
$USERI2
 70
     0
  9
$USERI3
 70
     0
  9
$USERI4
 70
     0
  9
$USERI5
 70
     0
  9
$USERR1
 40
0.0
  9
$USERR2
 40
0.0
  9
$USERR3
 40
0.0
  9
$USERR4
 40
0.0
  9
$USERR5
 40
0.0
  9
$WORLDVIEW
 70
     1
  9
$SHADEDGE
 70
     3
  9
$SHADEDIF
 70
    70
  9
$TILEMODE
 70
     1
  9
$MAXACTVP
 70
    64
  9
$PINSBASE
 10
0.0
 20
0.0
 30
0.0
  9
$PLIMCHECK
 70
     0
  9
$PEXTMIN
 10
1.000000000000000E+20
 20
1.000000000000000E+20
 30
1.000000000000000E+20
  9
$PEXTMAX
 10
-1.000000000000000E+20
 20
-1.000000000000000E+20
 30
-1.000000000000000E+20
  9
$PLIMMIN
 10
0.0
 20
0.0
  9
$PLIMMAX
 10
12.0
 20
9.0
  9
$UNITMODE
 70
     0
  9
$VISRETAIN
 70
     1
  9
$PLINEGEN
 70
     0
  9
$PSLTSCALE
 70
     1
  9
$TREEDEPTH
 70
  3020
  9
$PICKSTYLE
 70
     1
  9
$CMLSTYLE
  2
STANDARD
  9
$CMLJUST
 70
     0
  9
$CMLSCALE
 40
1.0
  9
$SAVEIMAGES
 70
     1
  0
ENDSEC
  0
SECTION
  2
CLASSES
  0
CLASS
  1
ACDBDICTIONARYWDFLT
  2
AcDbDictionaryWithDefault
  3
ObjectDBX Classes
 90
    32768
280
     0
281
     0
  0
CLASS
  1
VISUALSTYLE
  2
AcDbVisualStyle
  3
ObjectDBX Classes
 90
     4095
280
     0
281
     0
  0
CLASS
  1
MATERIAL
  2
AcDbMaterial
  3
ObjectDBX Classes
 90
     1153
280
     0
281
     0
  0
CLASS
  1
SCALE
  2
AcDbScale
  3
ObjectDBX Classes
 90
     1153
280
     0
281
     0
  0
CLASS
  1
TABLESTYLE
  2
AcDbTableStyle
  3
ObjectDBX Classes
 90
     4095
280
     0
281
     0
  0
CLASS
  1
MLEADERSTYLE
  2
AcDbMLeaderStyle
  3
ACDB_MLEADERSTYLE_CLASS
 90
     4095
280
     0
281
     0
  0
CLASS
  1
SUN
  2
AcDbSun
  3
SCENEOE
 90
     1153
280
     0
281
     0
  0
CLASS
  1
DICTIONARYVAR
  2
AcDbDictionaryVar
  3
ObjectDBX Classes
 90
        0
280
     0
281
     0
  0
CLASS
  1
XRECORD
  2
AcDbXrecord
  3
ObjectDBX Classes
 90
    32768
280
     0
281
     0
  0
CLASS
  1
LWPOLYLINE
  2
AcDbPolyline
  3
ObjectDBX Classes
 90
    32768
280
     0
281
     1
  0
CLASS
  1
HATCH
  2
AcDbHatch
  3
ObjectDBX Classes
 90
    32768
280
     0
281
     1
  0
CLASS
  1
ACDBPLACEHOLDER
  2
AcDbPlaceHolder
  3
ObjectDBX Classes
 90
        0
280
     0
281
     0
  0
CLASS
  1
LAYOUT
  2
AcDbLayout
  3
ObjectDBX Classes
 90
        0
280
     0
281
     0
  0
ENDSEC
  0
SECTION
  2
TABLES
  0
TABLE
  2
VPORT
  5
8
330
0
100
AcDbSymbolTable
 70
     1
  0
VPORT
  5
29
330
8
100
AcDbSymbolTableRecord
100
AcDbViewportTableRecord
  2
*ACTIVE
 70
     0
 10
0.0
 20
0.0
 11
1.0
 21
1.0
 12
14.41393552790251
 22
5.662423411732418
 13
0.0
 23
0.0
 14
0.5
 24
0.5
 15
0.5
 25
0.5
 16
0.0
 26
0.0
 36
1.0
 17
0.0
 27
0.0
 37
0.0
 40
4.707473870289377
 41
0.6440405566015437
 42
50.0
 43
0.0
 44
0.0
 50
0.0
 51
0.0
 71
     0
 72
   100
 73
     1
 74
     3
 75
     0
 76
     0
 77
     0
 78
     0
  0
ENDTAB
  0
TABLE
  2
LTYPE
  5
5
330
0
100
AcDbSymbolTable
 70
     1
  0
LTYPE
  5
14
330
5
100
AcDbSymbolTableRecord
100
AcDbLinetypeTableRecord
  2
BYBLOCK
 70
     0
  3

 72
    65
 73
     0
 40
0.0
  0
LTYPE
  5
15
330
5
100
AcDbSymbolTableRecord
100
AcDbLinetypeTableRecord
  2
BYLAYER
 70
     0
  3

 72
    65
 73
     0
 40
0.0
  0
LTYPE
  5
16
330
5
100
AcDbSymbolTableRecord
100
AcDbLinetypeTableRecord
  2
CONTINUOUS
 70
     0
  3
Solid line
 72
    65
 73
     0
 40
0.0
  0
ENDTAB
  0
TABLE
  2
LAYER
  5
2
330
0
100
AcDbSymbolTable
 70
     3
  0
LAYER
  5
10
330
2
100
AcDbSymbolTableRecord
100
AcDbLayerTableRecord
  2
0
 70
     0
 62
     7
  6
CONTINUOUS
  0
LAYER
  5
73
330
2
100
AcDbSymbolTableRecord
100
AcDbLayerTableRecord
  2
VISIBLE
 70
     0
 62
     7
  6
CONTINUOUS
  0
LAYER
  5
75
330
2
100
AcDbSymbolTableRecord
100
AcDbLayerTableRecord
  2
TANGENT_LINES
 70
     0
 62
     7
  6
CONTINUOUS
  0
ENDTAB
  0
TABLE
  2
STYLE
  5
3
330
0
100
AcDbSymbolTable
 70
    27
  0
STYLE
  5
11
330
3
100
AcDbSymbolTableRecord
100
AcDbTextStyleTableRecord
  2
STANDARD
 70
     0
 40
0.0
 41
1.0
 50
0.0
 71
     0
 42
0.12
  3
txt
  4

  0
STYLE
  5
70
330
3
100
AcDbSymbolTableRecord
100
AcDbTextStyleTableRecord
  2
ONSHAPE-STANDARD
 70
     0
 40
0.0
 41
1.0
 50
0.0
 71
     0
 42
0.12
  3
NotoSans-Regular.ttf
  4

1001
ACAD
1000
Noto Sans
1071
        0
  0
STYLE
  5
72
330
3
100
AcDbSymbolTableRecord
100
AcDbTextStyleTableRecord
  2
ONSHAPE-STANDARD-DIMENSION
 70
     0
 40
0.0
 41
1.0
 50
0.0
 71
     0
 42
0.12
  3

  4

1001
ACAD
1000
Noto Sans
1071
        0
  0
STYLE
  5
CC
330
3
100
AcDbSymbolTableRecord
100
AcDbTextStyleTableRecord
  2
ONSHAPE-STANDARD-BOLD
 70
     0
 40
0.0
 41
1.0
 50
0.0
 71
     0
 42
0.12
  3
NotoSans-Bold.ttf
  4

1001
ACAD
1000
Noto Sans
1071
 33554432
  0
STYLE
  5
CD
330
3
100
AcDbSymbolTableRecord
100
AcDbTextStyleTableRecord
  2
ONSHAPE-STANDARD-FIELDS
 70
     0
 40
0.0
 41
1.0
 50
0.0
 71
     0
 42
0.12
  3

  4

1001
ACAD
1000
Noto Sans
1071
        0
  0
STYLE
  5
CE
330
3
100
AcDbSymbolTableRecord
100
AcDbTextStyleTableRecord
  2
ONSHAPE-STANDARD-TCFIELDS
 70
     0
 40
0.0
 41
1.0
 50
0.0
 71
     0
 42
0.12
  3
NotoSansTC-Regular.otf
  4

1001
ACAD
1000
Noto Sans TC
1071
        0
  0
STYLE
  5
CF
330
3
100
AcDbSymbolTableRecord
100
AcDbTextStyleTableRecord
  2
ONSHAPE-STANDARD-SCFIELDS
 70
     0
 40
0.0
 41
1.0
 50
0.0
 71
     0
 42
0.12
  3
NotoSansSC-Regular.otf
  4

1001
ACAD
1000
Noto Sans SC
1071
        0
  0
STYLE
  5
D0
330
3
100
AcDbSymbolTableRecord
100
AcDbTextStyleTableRecord
  2
ONSHAPE-STANDARD-KOREANFIE
 70
     0
 40
0.0
 41
1.0
 50
0.0
 71
     0
 42
0.12
  3
NotoSansKR-Regular.otf
  4

1001
ACAD
1000
Noto Sans KR
1071
        0
  0
STYLE
  5
D2
330
3
100
AcDbSymbolTableRecord
100
AcDbTextStyleTableRecord
  2
TTFSTYLE
 70
     0
 40
0.0
 41
1.0
 50
0.0
 71
     0
 42
0.12
  3
Verdana.ttf
  4

1001
ACAD
1000
Verdana
1071
       34
  0
STYLE
  5
D3
330
3
100
AcDbSymbolTableRecord
100
AcDbTextStyleTableRecord
  2
ONSHAPE-STANDARD-GTOLERANC
 70
     0
 40
0.0
 41
1.0
 50
0.0
 71
     0
 42
0.12
  3

  4

1001
ACAD
1000
Noto Sans
1071
        0
  0
STYLE
  5
D4
330
3
100
AcDbSymbolTableRecord
100
AcDbTextStyleTableRecord
  2
ONSHAPE-STANDARD-TABLE-DAT
 70
     0
 40
0.0
 41
1.0
 50
0.0
 71
     0
 42
0.12
  3
NotoSans-Regular.ttf
  4

1001
ACAD
1000
Noto Sans
1071
        0
  0
STYLE
  5
D5
330
3
100
AcDbSymbolTableRecord
100
AcDbTextStyleTableRecord
  2
ONSHAPE-STANDARD-TABLE-TIT
 70
     0
 40
0.0
 41
1.0
 50
0.0
 71
     0
 42
0.12
  3
NotoSans-Bold.ttf
  4

1001
ACAD
1000
Noto Sans
1071
 33554432
  0
STYLE
  5
D6
330
3
100
AcDbSymbolTableRecord
100
AcDbTextStyleTableRecord
  2
ONSHAPE-STANDARD-TABLE-HEA
 70
     0
 40
0.0
 41
1.0
 50
0.0
 71
     0
 42
0.12
  3
NotoSans-Bold.ttf
  4

1001
ACAD
1000
Noto Sans
1071
 33554432
  0
STYLE
  5
D7
330
3
100
AcDbSymbolTableRecord
100
AcDbTextStyleTableRecord
  2
ONSHAPE-STANDARD-BOMTABLE-
 70
     0
 40
0.0
 41
1.0
 50
0.0
 71
     0
 42
0.12
  3
NotoSans-Regular.ttf
  4

1001
ACAD
1000
Noto Sans
1071
        0
  0
STYLE
  5
D8
330
3
100
AcDbSymbolTableRecord
100
AcDbTextStyleTableRecord
  2
ONSHAPE-STANDARD-BOMTABLE0
 70
     0
 40
0.0
 41
1.0
 50
0.0
 71
     0
 42
0.12
  3
NotoSans-Bold.ttf
  4

1001
ACAD
1000
Noto Sans
1071
 33554432
  0
STYLE
  5
D9
330
3
100
AcDbSymbolTableRecord
100
AcDbTextStyleTableRecord
  2
ONSHAPE-STANDARD-BOMTABLE1
 70
     0
 40
0.0
 41
1.0
 50
0.0
 71
     0
 42
0.12
  3
NotoSans-Bold.ttf
  4

1001
ACAD
1000
Noto Sans
1071
 33554432
  0
STYLE
  5
DA
330
3
100
AcDbSymbolTableRecord
100
AcDbTextStyleTableRecord
  2
ONSHAPE-STANDARD-NOTESTYLE
 70
     0
 40
0.12
 41
1.0
 50
0.0
 71
     0
 42
0.12
  3
Noto Sans
  4

1001
ACAD
1000
Noto Sans
1071
        0
  0
STYLE
  5
DB
330
3
100
AcDbSymbolTableRecord
100
AcDbTextStyleTableRecord
  2
ONSHAPE-STANDARD-VIEW-LABE
 70
     0
 40
0.12
 41
1.0
 50
0.0
 71
     0
 42
0.12
  3
NotoSans-Regular.ttf
  4

1001
ACAD
1000
Noto Sans
1071
        0
  0
STYLE
  5
DC
330
3
100
AcDbSymbolTableRecord
100
AcDbTextStyleTableRecord
  2
ONSHAPE-STANDARD-HOLE-CALL
 70
     0
 40
0.12
 41
1.0
 50
0.0
 71
     0
 42
0.12
  3
Noto Sans
  4

1001
ACAD
1000
Noto Sans
1071
        0
  0
STYLE
  5
DD
330
3
100
AcDbSymbolTableRecord
100
AcDbTextStyleTableRecord
  2
ONSHAPE-STANDARD-HOLETABLE
 70
     0
 40
0.0
 41
1.0
 50
0.0
 71
     0
 42
0.12
  3
NotoSans-Regular.ttf
  4

1001
ACAD
1000
Noto Sans
1071
        0
  0
STYLE
  5
DE
330
3
100
AcDbSymbolTableRecord
100
AcDbTextStyleTableRecord
  2
ONSHAPE-STANDARD-HOLETABL0
 70
     0
 40
0.0
 41
1.0
 50
0.0
 71
     0
 42
0.12
  3
NotoSans-Bold.ttf
  4

1001
ACAD
1000
Noto Sans
1071
 33554432
  0
STYLE
  5
DF
330
3
100
AcDbSymbolTableRecord
100
AcDbTextStyleTableRecord
  2
ONSHAPE-STANDARD-HOLETABL1
 70
     0
 40
0.0
 41
1.0
 50
0.0
 71
     0
 42
0.12
  3
NotoSans-Bold.ttf
  4

1001
ACAD
1000
Noto Sans
1071
 33554432
  0
STYLE
  5
E0
330
3
100
AcDbSymbolTableRecord
100
AcDbTextStyleTableRecord
  2
ONSHAPE-STANDARD-HOLE-TAG
 70
     0
 40
0.12
 41
1.0
 50
0.0
 71
     0
 42
0.12
  3
Noto Sans
  4

1001
ACAD
1000
Noto Sans
1071
        0
  0
STYLE
  5
E1
330
3
100
AcDbSymbolTableRecord
100
AcDbTextStyleTableRecord
  2
ONSHAPE-STANDARD-REVISIONT
 70
     0
 40
0.0
 41
1.0
 50
0.0
 71
     0
 42
0.12
  3
NotoSans-Regular.ttf
  4

1001
ACAD
1000
Noto Sans
1071
        0
  0
STYLE
  5
E2
330
3
100
AcDbSymbolTableRecord
100
AcDbTextStyleTableRecord
  2
ONSHAPE-STANDARD-REVISION0
 70
     0
 40
0.0
 41
1.0
 50
0.0
 71
     0
 42
0.12
  3
NotoSans-Bold.ttf
  4

1001
ACAD
1000
Noto Sans
1071
 33554432
  0
STYLE
  5
E3
330
3
100
AcDbSymbolTableRecord
100
AcDbTextStyleTableRecord
  2
ONSHAPE-STANDARD-REVISION1
 70
     0
 40
0.0
 41
1.0
 50
0.0
 71
     0
 42
0.12
  3
NotoSans-Bold.ttf
  4

1001
ACAD
1000
Noto Sans
1071
 33554432
  0
STYLE
  5
E4
330
3
100
AcDbSymbolTableRecord
100
AcDbTextStyleTableRecord
  2
ONSHAPE-STANDARD-REVISION-
 70
     0
 40
0.12
 41
1.0
 50
0.0
 71
     0
 42
0.12
  3
Noto Sans
  4

1001
ACAD
1000
Noto Sans
1071
        0
  0
ENDTAB
  0
TABLE
  2
VIEW
  5
6
330
0
100
AcDbSymbolTable
 70
     0
  0
ENDTAB
  0
TABLE
  2
UCS
  5
7
330
0
100
AcDbSymbolTable
 70
     0
  0
ENDTAB
  0
TABLE
  2
APPID
  5
9
330
0
100
AcDbSymbolTable
 70
     2
  0
APPID
  5
12
330
9
100
AcDbSymbolTableRecord
100
AcDbRegAppTableRecord
  2
ACAD
 70
     0
  0
APPID
  5
119
330
9
100
AcDbSymbolTableRecord
100
AcDbRegAppTableRecord
  2
ACAD_MLEADERVER
 70
     0
  0
ENDTAB
  0
TABLE
  2
DIMSTYLE
  5
A
330
0
100
AcDbSymbolTable
 70
    17
  0
DIMSTYLE
105
27
330
A
100
AcDbSymbolTableRecord
100
AcDbDimStyleTableRecord
  2
STANDARD
 70
     0
  3

  4

  5

  6

  7

 40
1.0
 41
0.18
 42
0.0625
 43
0.38
 44
0.18
 45
0.0
 46
0.0
 47
0.0
 48
0.0
140
0.18
141
0.09
142
0.0
143
25.4
144
1.0
145
0.0
146
1.0
147
0.09
 71
     0
 72
     0
 73
     1
 74
     1
 75
     0
 76
     0
 77
     0
 78
     0
170
     0
171
     2
172
     0
173
     0
174
     0
175
     0
176
     0
177
     0
178
     0
270
     2
271
     4
272
     4
273
     2
274
     2
340
11
275
     0
280
     0
281
     0
282
     0
283
     1
284
     0
285
     0
286
     0
287
     3
288
     0
  0
DIMSTYLE
105
71
330
A
100
AcDbSymbolTableRecord
100
AcDbDimStyleTableRecord
  2
ONSHAPE-STANDARD
 70
     0
  3

  4

  5

  6

  7

 40
1.0
 41
0.18
 42
0.0625
 43
0.38
 44
0.08
 45
0.0
 46
0.0
 47
0.0
 48
0.0
140
0.12
141
0.09
142
0.0
143
0.0393700787401575
144
25.4
145
0.0
146
1.0
147
0.09
 71
     0
 72
     0
 73
     1
 74
     1
 75
     0
 76
     0
 77
     0
 78
    11
170
     0
171
     3
172
     0
173
     0
174
     0
175
     0
176
     7
177
     7
178
     7
179
     1
270
     2
271
     2
272
     2
273
     2
274
     3
340
72
275
     0
280
     0
281
     0
282
     0
283
     1
284
    11
285
    11
286
     0
287
     3
288
     1
  0
DIMSTYLE
105
E7
330
A
100
AcDbSymbolTableRecord
100
AcDbDimStyleTableRecord
  2
ANSI
 70
     0
  3

  4
mm
  5

  6

  7

 40
1.0
 41
0.12
 42
0.05
 43
0.5
 44
0.1
 45
0.0
 46
0.0
 47
0.1
 48
0.1
140
0.12
141
0.0
142
0.0
143
0.0393700787401575
144
25.4
145
0.0
146
0.71
147
0.06
 71
     0
 72
     0
 73
     1
 74
     1
 75
     0
 76
     0
 77
     0
 78
    11
170
     0
171
     3
172
     0
173
     0
174
     0
175
     0
176
     7
177
     7
178
     7
270
     2
271
     2
272
     3
273
     2
274
     3
340
11
275
     0
280
     0
281
     0
282
     0
283
     1
284
    11
285
    11
286
     0
287
     3
288
     1
  0
DIMSTYLE
105
E8
330
A
100
AcDbSymbolTableRecord
100
AcDbDimStyleTableRecord
  2
ANSI$3
 70
     0
  3

  4
mm
  5

  6

  7

 40
1.0
 41
0.12
 42
0.05
 43
0.5
 44
0.1
 45
0.0
 46
0.0
 47
0.1
 48
0.1
140
0.12
141
0.0
142
0.0
143
0.0393700787401575
144
25.4
145
0.0
146
0.71
147
0.06
 71
     0
 72
     0
 73
     1
 74
     1
 75
     0
 76
     0
 77
     0
 78
    11
170
     0
171
     3
172
     0
173
     0
174
     0
175
     0
176
     7
177
     7
178
     7
270
     2
271
     2
272
     3
273
     2
274
     3
340
11
275
     0
280
     0
281
     0
282
     0
283
     1
284
    11
285
    11
286
     0
288
     1
  0
DIMSTYLE
105
E9
330
A
100
AcDbSymbolTableRecord
100
AcDbDimStyleTableRecord
  2
ANSI$4
 70
     0
  3

  4
mm
  5

  6

  7

 40
1.0
 41
0.12
 42
0.05
 43
0.5
 44
0.1
 45
0.0
 46
0.0
 47
0.1
 48
0.1
140
0.12
141
0.0
142
0.0
143
0.0393700787401575
144
25.4
145
0.0
146
0.71
147
0.06
 71
     0
 72
     0
 73
     1
 74
     1
 75
     0
 76
     0
 77
     0
 78
    11
170
     0
171
     3
172
     0
173
     0
174
     0
175
     0
176
     7
177
     7
178
     7
270
     2
271
     2
272
     3
273
     2
274
     3
340
11
275
     0
280
     0
281
     0
282
     0
283
     1
284
    11
285
    11
286
     0
287
     3
288
     1
  0
DIMSTYLE
105
EA
330
A
100
AcDbSymbolTableRecord
100
AcDbDimStyleTableRecord
  2
ANSI$7
 70
     0
  3

  4
mm
  5

  6

  7

 40
1.0
 41
0.12
 42
0.05
 43
0.5
 44
0.1
 45
0.0
 46
0.0
 47
0.1
 48
0.1
140
0.12
141
0.0
142
0.0
143
0.0393700787401575
144
25.4
145
0.0
146
0.71
147
0.06
 71
     0
 72
     0
 73
     1
 74
     1
 75
     0
 76
     0
 77
     0
 78
    11
170
     0
171
     3
172
     0
173
     0
174
     0
175
     0
176
     7
177
     7
178
     7
270
     2
271
     2
272
     3
273
     2
274
     3
340
11
275
     0
280
     0
281
     0
282
     0
283
     1
284
    11
285
    11
286
     0
287
     3
288
     1
  0
DIMSTYLE
105
EB
330
A
100
AcDbSymbolTableRecord
100
AcDbDimStyleTableRecord
  2
ANSI$SF
 70
     0
  3

  4
mm
  5

  6

  7

 40
1.0
 41
0.12
 42
0.05
 43
0.5
 44
0.1
 45
0.0
 46
0.0
 47
0.1
 48
0.1
140
0.12
141
0.0
142
0.0
143
0.0393700787401575
144
25.4
145
0.0
146
0.71
147
0.06
 71
     0
 72
     0
 73
     1
 74
     1
 75
     1
 76
     1
 77
     0
 78
    11
170
     0
171
     3
172
     0
173
     0
174
     0
175
     0
176
     7
177
     7
178
     7
270
     2
271
     2
272
     3
273
     2
274
     3
340
11
275
     0
280
     0
281
     0
282
     0
283
     1
284
    11
285
    11
286
     0
287
     3
288
     1
  0
DIMSTYLE
105
EC
330
A
100
AcDbSymbolTableRecord
100
AcDbDimStyleTableRecord
  2
ANSI$SH
 70
     0
  3

  4
mm
  5

  6

  7

 40
1.0
 41
0.12
 42
0.05
 43
0.5
 44
0.1
 45
0.0
 46
0.0
 47
0.1
 48
0.1
140
0.12
141
0.0
142
0.0
143
0.0393700787401575
144
25.4
145
0.0
146
0.71
147
0.06
 71
     0
 72
     0
 73
     1
 74
     1
 75
     1
 76
     1
 77
     0
 78
    11
170
     0
171
     3
172
     0
173
     1
174
     0
175
     0
176
     7
177
     7
178
     7
270
     2
271
     2
272
     3
273
     2
274
     3
340
11
275
     0
280
     0
281
     0
282
     0
283
     1
284
    11
285
    11
286
     0
287
     3
288
     1
  0
DIMSTYLE
105
EF
330
A
100
AcDbSymbolTableRecord
100
AcDbDimStyleTableRecord
  2
ONSHAPE-STANDARD$0
 70
     0
  3

  4

  5

  6

  7

 40
1.0
 41
0.18
 42
0.0625
 43
0.38
 44
0.08
 45
0.0
 46
0.0
 47
0.0
 48
0.0
140
0.12
141
0.09
142
0.0
143
0.0393700787401575
144
25.4
145
0.0
146
1.0
147
0.09
 71
     0
 72
     0
 73
     1
 74
     1
 75
     0
 76
     0
 77
     0
 78
    11
170
     0
171
     3
172
     0
173
     0
174
     0
175
     0
176
     7
177
     7
178
     7
179
     1
270
     2
271
     2
272
     2
273
     2
274
     3
340
72
275
     0
280
     0
281
     0
282
     0
283
     1
284
    11
285
    11
286
     0
287
     3
288
     1
  0
DIMSTYLE
105
F0
330
A
100
AcDbSymbolTableRecord
100
AcDbDimStyleTableRecord
  2
ONSHAPE-STANDARD$2
 70
     0
  3

  4

  5

  6

  7

 40
1.0
 41
0.18
 42
0.0625
 43
0.38
 44
0.08
 45
0.0
 46
0.0
 47
0.0
 48
0.0
140
0.12
141
0.09
142
0.0
143
0.0393700787401575
144
25.4
145
0.0
146
1.0
147
0.09
 71
     0
 72
     0
 73
     1
 74
     1
 75
     0
 76
     0
 77
     0
 78
    11
170
     0
171
     3
172
     0
173
     0
174
     0
175
     0
176
     7
177
     7
178
     7
179
     1
270
     2
271
     2
272
     2
273
     2
274
     3
340
72
275
     0
280
     0
281
     0
282
     0
283
     1
284
    11
285
    11
286
     0
287
     3
288
     1
  0
DIMSTYLE
105
F1
330
A
100
AcDbSymbolTableRecord
100
AcDbDimStyleTableRecord
  2
ONSHAPE-STANDARD$3
 70
     0
  3

  4

  5

  6

  7

 40
1.0
 41
0.18
 42
0.0625
 43
0.38
 44
0.08
 45
0.0
 46
0.0
 47
0.0
 48
0.0
140
0.12
141
0.0
142
0.0
143
0.0393700787401575
144
25.4
145
0.0
146
1.0
147
0.09
 71
     0
 72
     0
 73
     1
 74
     1
 75
     0
 76
     0
 77
     0
 78
    11
170
     0
171
     3
172
     0
173
     0
174
     0
175
     0
176
     7
177
     7
178
     7
179
     1
270
     2
271
     2
272
     2
273
     2
274
     3
340
72
275
     0
280
     0
281
     0
282
     0
283
     1
284
    11
285
    11
286
     0
287
     3
288
     1
  0
DIMSTYLE
105
F2
330
A
100
AcDbSymbolTableRecord
100
AcDbDimStyleTableRecord
  2
ONSHAPE-STANDARD$4
 70
     0
  3

  4

  5

  6

  7

 40
1.0
 41
0.18
 42
0.0625
 43
0.38
 44
0.08
 45
0.0
 46
0.0
 47
0.0
 48
0.0
140
0.12
141
0.0
142
0.0
143
0.0393700787401575
144
25.4
145
0.0
146
1.0
147
0.09
 71
     0
 72
     0
 73
     1
 74
     1
 75
     0
 76
     0
 77
     0
 78
    11
170
     0
171
     3
172
     0
173
     0
174
     0
175
     0
176
     7
177
     7
178
     7
179
     1
270
     2
271
     2
272
     2
273
     2
274
     3
340
72
275
     0
280
     0
281
     0
282
     0
283
     1
284
    11
285
    11
286
     0
287
     3
288
     1
  0
DIMSTYLE
105
F3
330
A
100
AcDbSymbolTableRecord
100
AcDbDimStyleTableRecord
  2
ONSHAPE-STANDARD$6
 70
     0
  3

  4

  5

  6

  7

 40
1.0
 41
0.02
 42
0.0625
 43
0.38
 44
0.08
 45
0.0
 46
0.0
 47
0.0
 48
0.0
140
0.12
141
0.09
142
0.0
143
0.0393700787401575
144
25.4
145
0.0
146
1.0
147
0.09
 71
     0
 72
     0
 73
     1
 74
     1
 75
     0
 76
     0
 77
     0
 78
    11
170
     0
171
     3
172
     0
173
     0
174
     0
175
     0
176
     7
177
     7
178
     7
179
     1
270
     2
271
     2
272
     2
273
     2
274
     3
340
72
275
     0
280
     0
281
     0
282
     0
283
     1
284
    11
285
    11
286
     0
287
     3
288
     1
  0
DIMSTYLE
105
F4
330
A
100
AcDbSymbolTableRecord
100
AcDbDimStyleTableRecord
  2
ONSHAPE-STANDARD$7
 70
     0
  3

  4

  5

  6

  7

 40
1.0
 41
0.18
 42
0.0625
 43
0.38
 44
0.08
 45
0.0
 46
0.0
 47
0.0
 48
0.0
140
0.12
141
0.09
142
0.0
143
0.0393700787401575
144
25.4
145
0.0
146
1.0
147
0.09
 71
     0
 72
     0
 73
     1
 74
     1
 75
     0
 76
     0
 77
     0
 78
    11
170
     0
171
     3
172
     0
173
     0
174
     0
175
     0
176
     7
177
     7
178
     7
179
     1
270
     2
271
     2
272
     2
273
     2
274
     3
340
72
275
     0
280
     0
281
     0
282
     0
283
     1
284
    11
285
    11
286
     0
287
     3
288
     1
  0
DIMSTYLE
105
F5
330
A
100
AcDbSymbolTableRecord
100
AcDbDimStyleTableRecord
  2
ONSHAPE-STANDARD-GTOLERANC
 70
     0
  3

  4

  5

  6

  7

 40
1.0
 41
0.18
 42
0.0625
 43
0.38
 44
0.08
 45
0.0
 46
0.0
 47
0.0
 48
0.0
140
0.12
141
0.09
142
0.0
143
0.0393700787401575
144
25.4
145
0.0
146
1.0
147
0.09
 71
     0
 72
     0
 73
     1
 74
     1
 75
     0
 76
     0
 77
     0
 78
    11
170
     0
171
     3
172
     0
173
     0
174
     0
175
     0
176
     7
177
     7
178
     7
179
     1
270
     2
271
     2
272
     2
273
     2
274
     3
340
D3
275
     0
280
     0
281
     0
282
     0
283
     1
284
    11
285
    11
286
     0
287
     3
288
     1
  0
DIMSTYLE
105
F7
330
A
100
AcDbSymbolTableRecord
100
AcDbDimStyleTableRecord
  2
ONSHAPE-ORDINATESTYLE
 70
     0
  3

  4

  5

  6

  7

 40
1.0
 41
0.02
 42
0.0625
 43
0.38
 44
0.08
 45
0.0
 46
0.0
 47
0.0
 48
0.0
140
0.12
141
0.09
142
0.0
143
0.0393700787401575
144
25.4
145
0.0
146
1.0
147
0.09
 71
     0
 72
     0
 73
     1
 74
     1
 75
     0
 76
     0
 77
     0
 78
    11
170
     0
171
     3
172
     0
173
     0
174
     0
175
     0
176
     7
177
     7
178
     7
179
     1
270
     2
271
     2
272
     2
273
     2
274
     3
340
72
275
     0
280
     0
281
     0
282
     0
283
     1
284
    11
285
    11
286
     0
287
     3
288
     1
  0
DIMSTYLE
105
F8
330
A
100
AcDbSymbolTableRecord
100
AcDbDimStyleTableRecord
  2
ONSHAPE-CHAMFERDIMSTYLE
 70
     0
  3

  4

  5

  6

  7

 40
1.0
 41
0.18
 42
0.0625
 43
0.38
 44
0.08
 45
0.0
 46
0.0
 47
0.0
 48
0.0
140
0.12
141
0.09
142
0.0
143
0.0393700787401575
144
25.4
145
0.0
146
1.0
147
0.09
 71
     0
 72
     0
 73
     1
 74
     1
 75
     0
 76
     0
 77
     0
 78
    11
170
     0
171
     3
172
     0
173
     0
174
     0
175
     0
176
     7
177
     7
178
     7
179
     1
270
     2
271
     2
272
     2
273
     2
274
     3
340
72
275
     0
280
     0
281
     0
282
     0
283
     1
284
    11
285
    11
286
     0
287
     3
288
     1
  0
ENDTAB
  0
TABLE
  2
BLOCK_RECORD
  5
1
330
0
100
AcDbSymbolTable
 70
     0
  0
BLOCK_RECORD
  5
1F
330
1
100
AcDbSymbolTableRecord
100
AcDbBlockTableRecord
  2
*MODEL_SPACE
  0
BLOCK_RECORD
  5
1B
330
1
100
AcDbSymbolTableRecord
100
AcDbBlockTableRecord
  2
*PAPER_SPACE
  0
ENDTAB
  0
ENDSEC
  0
SECTION
  2
BLOCKS
  0
BLOCK
  5
20
330
1F
100
AcDbEntity
  8
0
100
AcDbBlockBegin
  2
*MODEL_SPACE
 70
     0
 10
0.0
 20
0.0
 30
0.0
  3
*MODEL_SPACE
  1

  0
ENDBLK
  5
21
330
1F
100
AcDbEntity
  8
0
100
AcDbBlockEnd
  0
BLOCK
  5
1C
330
1B
100
AcDbEntity
 67
     1
  8
0
100
AcDbBlockBegin
  2
*PAPER_SPACE
 70
     0
 10
0.0
 20
0.0
 30
0.0
  3
*PAPER_SPACE
  1

  0
ENDBLK
  5
1D
330
1B
100
AcDbEntity
 67
     1
  8
0
100
AcDbBlockEnd
  0
ENDSEC
  0
SECTION
  2
ENTITIES
  0
CIRCLE
  5
76
330
1F
100
AcDbEntity
  8
VISIBLE
100
AcDbCircle
 10
14.11393552790251
 20
5.908491334579253
 30
0.0
 40
0.0574803149606299
  0
CIRCLE
  5
77
330
1F
100
AcDbEntity
  8
VISIBLE
100
AcDbCircle
 10
14.11393552790251
 20
5.608491334579253
 30
0.0
 40
0.0574803149606299
  0
CIRCLE
  5
78
330
1F
100
AcDbEntity
  8
VISIBLE
100
AcDbCircle
 10
14.11393552790251
 20
5.308491334579253
 30
0.0
 40
0.0574803149606299
  0
CIRCLE
  5
79
330
1F
100
AcDbEntity
  8
VISIBLE
100
AcDbCircle
 10
14.71393552790251
 20
5.308491334579253
 30
0.0
 40
0.0580708661417323
  0
CIRCLE
  5
7A
330
1F
100
AcDbEntity
  8
VISIBLE
100
AcDbCircle
 10
14.71393552790251
 20
5.608491334579253
 30
0.0
 40
0.0574803149606299
  0
CIRCLE
  5
7B
330
1F
100
AcDbEntity
  8
VISIBLE
100
AcDbCircle
 10
14.71393552790251
 20
5.908491334579253
 30
0.0
 40
0.0574803149606299
  0
CIRCLE
  5
7C
330
1F
100
AcDbEntity
  8
VISIBLE
100
AcDbCircle
 10
15.47692765388676
 20
5.958491334579253
 30
0.0
 40
0.0574803149606299
  0
CIRCLE
  5
7D
330
1F
100
AcDbEntity
  8
VISIBLE
100
AcDbCircle
 10
13.35094340191826
 20
5.958491334579253
 30
0.0
 40
0.0574803149606299
  0
LINE
  5
7E
330
1F
100
AcDbEntity
  8
TANGENT_LINES
100
AcDbLine
 10
12.92775705162388
 20
5.608491334579253
 30
0.0
 11
12.93355626662252
 21
5.608491334579253
 31
0.0
  0
LINE
  5
7F
330
1F
100
AcDbEntity
  8
VISIBLE
100
AcDbLine
 10
15.4343774958902
 20
7.970008642266427
 30
0.0
 11
13.39349355991482
 21
7.970008642266427
 31
0.0
  0
LINE
  5
80
330
1F
100
AcDbEntity
  8
VISIBLE
100
AcDbLine
 10
13.00398265403397
 20
7.632160466626146
 30
0.0
 11
13.00847387671509
 21
7.626851950577131
 31
0.0
  0
LINE
  5
81
330
1F
100
AcDbEntity
  8
VISIBLE
100
AcDbLine
 10
13.32009528249134
 20
7.582450713055898
 30
0.0
 11
13.00847300711555
 21
7.626845877942788
 31
0.0
  0
LINE
  5
82
330
1F
100
AcDbEntity
  8
VISIBLE
100
AcDbLine
 10
15.59840826590309
 20
3.35483818119841
 30
0.0
 11
15.69471322230317
 21
3.35483818119841
 31
0.0
  0
LINE
  5
83
330
1F
100
AcDbEntity
  8
TANGENT_LINES
100
AcDbLine
 10
15.8943147891825
 20
5.608491334579253
 30
0.0
 11
15.64840169198292
 21
5.608491334579253
 31
0.0
  0
LINE
  5
84
330
1F
100
AcDbEntity
  8
VISIBLE
100
AcDbLine
 10
13.39800078635884
 20
7.590988994722658
 30
0.0
 11
15.4298702076118
 21
7.590988994722658
 31
0.0
  0
LINE
  5
85
330
1F
100
AcDbEntity
  8
VISIBLE
100
AcDbLine
 10
15.50777577331369
 20
7.582450713055832
 30
0.0
 11
15.81939804756073
 21
7.626845877781961
 31
0.0
  0
LINE
  5
86
330
1F
100
AcDbEntity
  8
VISIBLE
100
AcDbLine
 10
15.36984103971353
 20
5.218727555051694
 30
0.0
 11
14.85803001609148
 21
5.218727555051694
 31
0.0
  0
LINE
  5
87
330
1F
100
AcDbEntity
  8
VISIBLE
100
AcDbLine
 10
15.42987020373223
 20
3.35483818119841
 30
0.0
 11
15.59840826590309
 21
3.35483818119841
 31
0.0
  0
LINE
  5
88
330
1F
100
AcDbEntity
  8
TANGENT_LINES
100
AcDbLine
 10
13.39800085207279
 20
7.650044112832894
 30
0.0
 11
15.42987020373223
 21
7.650044112832894
 31
0.0
  0
LINE
  5
89
330
1F
100
AcDbEntity
  8
TANGENT_LINES
100
AcDbLine
 10
15.90011400418113
 20
5.608491334579253
 30
0.0
 11
15.8943147891825
 21
5.608491334579253
 31
0.0
  0
LINE
  5
8A
330
1F
100
AcDbEntity
  8
TANGENT_LINES
100
AcDbLine
 10
15.42987020373223
 20
3.35483818119841
 30
0.0
 11
15.42987020373223
 21
3.566938556325615
 31
0.0
  0
LINE
  5
8B
330
1F
100
AcDbEntity
  8
VISIBLE
100
AcDbLine
 10
13.39800085207279
 20
3.35483818119841
 30
0.0
 11
15.42987020373223
 21
3.35483818119841
 31
0.0
  0
LINE
  5
8C
330
1F
100
AcDbEntity
  8
VISIBLE
100
AcDbLine
 10
13.96984103971353
 20
5.218727555051694
 30
0.0
 11
13.45803001609148
 21
5.218727555051694
 31
0.0
  0
LINE
  5
8D
330
1F
100
AcDbEntity
  8
VISIBLE
100
AcDbLine
 10
15.42987020373223
 20
3.625993674435851
 30
0.0
 11
13.39800085207279
 21
3.625993674435851
 31
0.0
  0
LINE
  5
8E
330
1F
100
AcDbEntity
  8
VISIBLE
100
AcDbLine
 10
13.1228081818945
 20
3.354850681106853
 30
0.0
 11
13.13313932614673
 21
3.354856125619351
 31
0.0
  0
LINE
  5
8F
330
1F
100
AcDbEntity
  8
TANGENT_LINES
100
AcDbLine
 10
13.39800085207279
 20
7.650044112832894
 30
0.0
 11
13.39800085207279
 21
7.96481287724836
 31
0.0
  0
LINE
  5
90
330
1F
100
AcDbEntity
  8
VISIBLE
100
AcDbLine
 10
15.81939699088614
 20
7.626851923421973
 30
0.0
 11
15.82388892077416
 21
7.632160540660387
 31
0.0
  0
LINE
  5
91
330
1F
100
AcDbEntity
  8
VISIBLE
100
AcDbLine
 10
15.81939804834963
 20
3.590136791264158
 30
0.0
 11
15.50777577331368
 21
3.63453195610268
 31
0.0
  0
LINE
  5
92
330
1F
100
AcDbEntity
  8
TANGENT_LINES
100
AcDbLine
 10
15.42987020373223
 20
7.650044112832894
 30
0.0
 11
15.42987020373223
 21
7.96481287724836
 31
0.0
  0
LINE
  5
93
330
1F
100
AcDbEntity
  8
VISIBLE
100
AcDbLine
 10
15.36984103971353
 20
5.218727555051694
 30
0.0
 11
15.36984103971353
 21
5.998255114106811
 31
0.0
  0
LINE
  5
94
330
1F
100
AcDbEntity
  8
TANGENT_LINES
100
AcDbLine
 10
15.42987020373223
 20
3.566938556325615
 30
0.0
 11
13.39800085207279
 21
3.566938556325615
 31
0.0
  0
LINE
  5
95
330
1F
100
AcDbEntity
  8
VISIBLE
100
AcDbLine
 10
13.1331577858973
 20
3.35483818119841
 30
0.0
 11
13.22934160700325
 21
3.35483818119841
 31
0.0
  0
LINE
  5
96
330
1F
100
AcDbEntity
  8
VISIBLE
100
AcDbLine
 10
13.00847300840226
 20
3.590136791399028
 30
0.0
 11
13.32009528249134
 21
3.634531956102623
 31
0.0
  0
LINE
  5
97
330
1F
100
AcDbEntity
  8
VISIBLE
100
AcDbLine
 10
13.22934160700328
 20
3.35483818119841
 30
0.0
 11
13.39800085207279
 21
3.35483818119841
 31
0.0
  0
LINE
  5
98
330
1F
100
AcDbEntity
  8
VISIBLE
100
AcDbLine
 10
13.96984103971353
 20
5.218727555051694
 30
0.0
 11
13.96984103971353
 21
5.998255114106811
 31
0.0
  0
LINE
  5
99
330
1F
100
AcDbEntity
  8
VISIBLE
100
AcDbLine
 10
15.82388821499218
 20
3.584822229175865
 30
0.0
 11
15.81939774052445
 21
3.590130638802707
 31
0.0
  0
LINE
  5
9A
330
1F
100
AcDbEntity
  8
VISIBLE
100
AcDbLine
 10
13.96984103971353
 20
5.998255114106811
 30
0.0
 11
13.45803001609148
 21
5.998255114106811
 31
0.0
  0
LINE
  5
9B
330
1F
100
AcDbEntity
  8
VISIBLE
100
AcDbLine
 10
13.45803001609148
 20
5.218727555051694
 30
0.0
 11
13.45803001609148
 21
5.998255114106811
 31
0.0
  0
LINE
  5
9C
330
1F
100
AcDbEntity
  8
TANGENT_LINES
100
AcDbLine
 10
13.39800085207279
 20
3.35483818119841
 30
0.0
 11
13.39800085207279
 21
3.566938556325615
 31
0.0
  0
LINE
  5
9D
330
1F
100
AcDbEntity
  8
TANGENT_LINES
100
AcDbLine
 10
15.42987020373223
 20
7.964812877248355
 30
0.0
 11
13.39800085207279
 21
7.964812877248355
 31
0.0
  0
LINE
  5
9E
330
1F
100
AcDbEntity
  8
VISIBLE
100
AcDbLine
 10
15.36984103971353
 20
5.998255114106811
 30
0.0
 11
14.85803001609148
 21
5.998255114106811
 31
0.0
  0
LINE
  5
9F
330
1F
100
AcDbEntity
  8
TANGENT_LINES
100
AcDbLine
 10
13.1794693638221
 20
5.608491334579253
 30
0.0
 11
12.93355626662252
 21
5.608491334579253
 31
0.0
  0
LINE
  5
A0
330
1F
100
AcDbEntity
  8
VISIBLE
100
AcDbLine
 10
14.85803001609148
 20
5.218727555051694
 30
0.0
 11
14.85803001609148
 21
5.998255114106811
 31
0.0
  0
LINE
  5
A1
330
1F
100
AcDbEntity
  8
VISIBLE
100
AcDbLine
 10
15.69473022850584
 20
3.354856849800373
 30
0.0
 11
15.70506255879035
 21
3.354851560712993
 31
0.0
  0
LINE
  5
A2
330
1F
100
AcDbEntity
  8
VISIBLE
100
AcDbLine
 10
13.0084740645721
 20
3.590130745687068
 30
0.0
 11
13.00398213492538
 21
3.584822128483079
 31
0.0
  0
LINE
  5
A3
330
1F
100
AcDbEntity
  8
TANGENT_LINES
100
AcDbLine
 10
13.39800085207279
 20
7.964812877248355
 30
0.0
 11
13.39349355991482
 21
7.970008642266427
 31
0.0
  0
LINE
  5
A4
330
1F
100
AcDbEntity
  8
TANGENT_LINES
100
AcDbLine
 10
15.4343774958902
 20
7.970008642266427
 30
0.0
 11
15.42987020373223
 21
7.96481287724836
 31
0.0
  0
SPLINE
  5
A5
330
1F
100
AcDbEntity
  8
VISIBLE
100
AcDbSpline
210
0.0
220
0.0
230
1.0
 70
     8
 71
     3
 72
    19
 73
    15
 74
     0
 42
0.000000001
 43
0.0000000012689752
 40
0.0
 40
0.0
 40
0.0
 40
0.0
 40
0.083221801198104
 40
0.1663867188985041
 40
0.2500918756439839
 40
0.3336860650686998
 40
0.4168347988249664
 40
0.5001411586130042
 40
0.5835534839516566
 40
0.666681095581066
 40
0.7501206925031236
 40
0.8335640855766979
 40
0.9166579117839467
 40
1.0
 40
1.0
 40
1.0
 40
1.0
 10
15.82388772341288
 20
7.632165185552868
 30
0.0
 10
15.82115546848396
 20
7.647518016253961
 30
0.0
 10
15.81569282616823
 20
7.67821318373872
 30
0.0
 10
15.80059248024553
 20
7.722507673724523
 30
0.0
 10
15.78045699378794
 20
7.765318307460897
 30
0.0
 10
15.75550058959497
 20
7.805396413181953
 30
0.0
 10
15.72622492418972
 20
7.841834959319231
 30
0.0
 10
15.69263665968067
 20
7.874573553131958
 30
0.0
 10
15.65534681544511
 20
7.903228076803219
 30
0.0
 10
15.61517902366339
 20
7.927040223511209
 30
0.0
 10
15.57212776063616
 20
7.946039283409483
 30
0.0
 10
15.52716375770336
 20
7.959810951991718
 30
0.0
 10
15.48124099698144
 20
7.968423652738824
 30
0.0
 10
15.45001418927708
 20
7.969479787300676
 30
0.0
 10
15.4343774958902
 20
7.970008642266427
 30
0.0
  0
SPLINE
  5
A6
330
1F
100
AcDbEntity
  8
VISIBLE
100
AcDbSpline
210
0.0
220
0.0
230
1.0
 70
     8
 71
     3
 72
    19
 73
    15
 74
     0
 42
0.000000001
 43
0.0000000010917178
 40
0.0
 40
0.0
 40
0.0
 40
0.0
 40
0.0832209564459257
 40
0.1663849478998851
 40
0.2500888221054939
 40
0.3336824397437567
 40
0.4168288294112055
 40
0.5001309434130407
 40
0.5835437950016521
 40
0.6666700420053554
 40
0.7501071281922992
 40
0.8335498291426692
 40
0.9166482901868579
 40
1.0
 40
1.0
 40
1.0
 40
1.0
 10
13.39349355991482
 20
7.970008642266427
 30
0.0
 10
13.37790859350985
 20
7.969474135106436
 30
0.0
 10
13.34674932865573
 20
7.968405486658193
 30
0.0
 10
13.30076458617004
 20
7.959719933759954
 30
0.0
 10
13.25553695578847
 20
7.945841248760596
 30
0.0
 10
13.21233142011551
 20
7.926804501895515
 30
0.0
 10
13.17211906783538
 20
7.902978367390608
 30
0.0
 10
13.13496080334584
 20
7.874361814743859
 30
0.0
 10
13.10131855940817
 20
7.841498392355897
 30
0.0
 10
13.07206754436192
 20
7.805100461256426
 30
0.0
 10
13.04717745186459
 20
7.765166115932979
 30
0.0
 10
13.02719317663263
 20
7.722597207946411
 30
0.0
 10
13.01217770808142
 20
7.67834570549925
 30
0.0
 10
13.00671756010379
 20
7.647574298115429
 30
0.0
 10
13.00398333239213
 20
7.632165185552868
 30
0.0
  0
SPLINE
  5
A7
330
1F
100
AcDbEntity
  8
VISIBLE
100
AcDbSpline
210
0.0
220
0.0
230
1.0
 70
     8
 71
     3
 72
    13
 73
     9
 74
     0
 42
0.000000001
 43
0.0000000008036509
 40
0.0
 40
0.0
 40
0.0
 40
0.0
 40
0.1665365919980528
 40
0.333239883893989
 40
0.5000007622425394
 40
0.6668288784081107
 40
0.8335184838310365
 40
1.0
 40
1.0
 40
1.0
 40
1.0
 10
13.00398333239213
 20
3.584817483605643
 30
0.0
 10
13.00652807868051
 20
3.570408634263764
 30
0.0
 10
13.01162011849892
 20
3.541576512601337
 30
0.0
 10
13.02542266002959
 20
3.499705335951806
 30
0.0
 10
13.0434140200017
 20
3.459502520973543
 30
0.0
 10
13.06583195037623
 20
3.421545226758134
 30
0.0
 10
13.09200102065718
 20
3.386080211096536
 30
0.0
 10
13.11255120295343
 20
3.365248875209629
 30
0.0
 10
13.1228198765704
 20
3.354839712597615
 30
0.0
  0
SPLINE
  5
A8
330
1F
100
AcDbEntity
  8
VISIBLE
100
AcDbSpline
210
0.0
220
0.0
230
1.0
 70
     8
 71
     3
 72
    13
 73
     9
 74
     0
 42
0.000000001
 43
0.0000000010505222
 40
0.0
 40
0.0
 40
0.0
 40
0.0
 40
0.1664990608513639
 40
0.3332059850826481
 40
0.499996617653485
 40
0.6667951500007523
 40
0.8334810586853488
 40
1.0
 40
1.0
 40
1.0
 40
1.0
 10
15.70505117923261
 20
3.354839712597379
 30
0.0
 10
15.71532220858185
 20
3.365250277903239
 30
0.0
 10
15.73587709000056
 20
3.386084405436867
 30
0.0
 10
15.76204850290669
 20
3.421562422326999
 30
0.0
 10
15.78445568665966
 20
3.459499960569208
 30
0.0
 10
15.80245701110989
 20
3.499723029030929
 30
0.0
 10
15.81625027467526
 20
3.541584748022219
 30
0.0
 10
15.82134275777338
 20
3.570411386708475
 30
0.0
 10
15.82388772341288
 20
3.584817483605643
 30
0.0
  0
SPLINE
  5
A9
330
1F
100
AcDbEntity
  8
TANGENT_LINES
100
AcDbSpline
210
0.0
220
0.0
230
1.0
 70
     8
 71
     3
 72
    13
 73
     9
 74
     0
 42
0.000000001
 43
0.0000000012526698
 40
0.0
 40
0.0
 40
0.0
 40
0.0
 40
0.1666416411156815
 40
0.3333266097929479
 40
0.5000305341859786
 40
0.6667281588776341
 40
0.8333935004821806
 40
1.0
 40
1.0
 40
1.0
 40
1.0
 10
15.8943147891825
 20
5.608491334579253
 30
0.0
 10
15.89353815728124
 20
5.720418054872814
 30
0.0
 10
15.89198469155102
 20
5.944300596900815
 30
0.0
 10
15.87947045202277
 20
6.280081367333871
 30
0.0
 10
15.85962808011956
 20
6.615555426316345
 30
0.0
 10
15.8315962675728
 20
6.950418300099463
 30
0.0
 10
15.79633809874556
 20
7.284497285095306
 30
0.0
 10
15.7662650052288
 20
7.506266401604877
 30
0.0
 10
15.75123111330553
 20
7.617131382211663
 30
0.0
  0
SPLINE
  5
AA
330
1F
100
AcDbEntity
  8
TANGENT_LINES
100
AcDbSpline
210
0.0
220
0.0
230
1.0
 70
     8
 71
     3
 72
    13
 73
     9
 74
     0
 42
0.000000001
 43
0.0000000009084823
 40
0.0
 40
0.0
 40
0.0
 40
0.0
 40
0.1666416411156814
 40
0.3333266097929478
 40
0.5000305341859784
 40
0.6667281588776341
 40
0.8333935004821807
 40
1.0
 40
1.0
 40
1.0
 40
1.0
 10
12.93355626662252
 20
5.608491334579253
 30
0.0
 10
12.93433289852377
 20
5.49656461428569
 30
0.0
 10
12.935886364254
 20
5.272682072257689
 30
0.0
 10
12.94840060378224
 20
4.936901301824631
 30
0.0
 10
12.96824297568546
 20
4.601427242842155
 30
0.0
 10
12.99627478823221
 20
4.266564369059034
 30
0.0
 10
13.03153295705945
 20
3.932485384063188
 30
0.0
 10
13.06160605057622
 20
3.710716267553617
 30
0.0
 10
13.07663994249948
 20
3.599851286946831
 30
0.0
  0
SPLINE
  5
AB
330
1F
100
AcDbEntity
  8
TANGENT_LINES
100
AcDbSpline
210
0.0
220
0.0
230
1.0
 70
     8
 71
     3
 72
    13
 73
     9
 74
     0
 42
0.000000001
 43
0.000000001050284
 40
0.0
 40
0.0
 40
0.0
 40
0.0
 40
0.1665035008548729
 40
0.3325169015180048
 40
0.4991222890427258
 40
0.666072309988239
 40
0.8330800290069308
 40
1.0
 40
1.0
 40
1.0
 40
1.0
 10
15.69471201002122
 20
3.354838630347853
 30
0.0
 10
15.70550445445008
 20
3.365372240933366
 30
0.0
 10
15.72705757593321
 20
3.38640845660276
 30
0.0
 10
15.75433550035362
 20
3.422236982521524
 30
0.0
 10
15.77790400621932
 20
3.460920767513208
 30
0.0
 10
15.79684609431163
 20
3.50223729531173
 30
0.0
 10
15.81140565954745
 20
3.545416127429259
 30
0.0
 10
15.81673447186458
 20
3.575230436858795
 30
0.0
 10
15.81939817788241
 20
3.590133674338087
 30
0.0
  0
SPLINE
  5
AC
330
1F
100
AcDbEntity
  8
TANGENT_LINES
100
AcDbSpline
210
0.0
220
0.0
230
1.0
 70
     8
 71
     3
 72
    19
 73
    15
 74
     0
 42
0.000000001
 43
0.0000000012683013
 40
0.0
 40
0.0
 40
0.0
 40
0.0
 40
0.0833787082448958
 40
0.1665224049258069
 40
0.2499856963231092
 40
0.3332734541711996
 40
0.4164289093061573
 40
0.4999435245103153
 40
0.5831848055477054
 40
0.6663912782964622
 40
0.7499182798165754
 40
0.8331045141852718
 40
0.916348974923794
 40
1.0
 40
1.0
 40
1.0
 40
1.0
 10
15.81939742850857
 20
7.626848888157028
 30
0.0
 10
15.81662328519932
 20
7.642258610590028
 30
0.0
 10
15.81108281779237
 20
7.67303462155011
 30
0.0
 10
15.79593471946819
 20
7.717271271106613
 30
0.0
 10
15.77596747787598
 20
7.759874943408031
 30
0.0
 10
15.75113775391583
 20
7.799641750383374
 30
0.0
 10
15.72195379532977
 20
7.836122415014593
 30
0.0
 10
15.68824329178207
 20
7.869077976472426
 30
0.0
 10
15.65108843353669
 20
7.897564320517297
 30
0.0
 10
15.61090588122079
 20
7.921504738604184
 30
0.0
 10
15.56781505220652
 20
7.940672802053678
 30
0.0
 10
15.52312415512714
 20
7.95432924729049
 30
0.0
 10
15.47704751382403
 20
7.963104275720775
 30
0.0
 10
15.44562149212768
 20
7.964242419217515
 30
0.0
 10
15.42987020373223
 20
7.964812877248308
 30
0.0
  0
SPLINE
  5
AD
330
1F
100
AcDbEntity
  8
TANGENT_LINES
100
AcDbSpline
210
0.0
220
0.0
230
1.0
 70
     8
 71
     3
 72
    19
 73
    15
 74
     0
 42
0.000000001
 43
0.000000001091644
 40
0.0
 40
0.0
 40
0.0
 40
0.0
 40
0.0833720753981878
 40
0.1665108863862476
 40
0.2499704977782588
 40
0.3332553419007457
 40
0.4164089838872098
 40
0.4999229557413745
 40
0.5831644358233288
 40
0.6663718377395047
 40
0.7499016939269831
 40
0.8330924739841575
 40
0.916342874444065
 40
1.0
 40
1.0
 40
1.0
 40
1.0
 10
13.3980008520728
 20
7.964812877247973
 30
0.0
 10
13.38235604917124
 20
7.964240239610525
 30
0.0
 10
13.35111021552689
 20
7.963096566502545
 30
0.0
 10
13.30518285573031
 20
7.954343467980326
 30
0.0
 10
13.26019019065903
 20
7.940590480850974
 30
0.0
 10
13.21731816208
 20
7.921624477829795
 30
0.0
 10
13.17708306369504
 20
7.897884138239069
 30
0.0
 10
13.13969725119004
 20
7.869164504528696
 30
0.0
 10
13.1062499415216
 20
7.836401970059269
 30
0.0
 10
13.07687792055068
 20
7.799997304044432
 30
0.0
 10
13.05182376455636
 20
7.760035215354048
 30
0.0
 10
13.03200313270596
 20
7.717708995588641
 30
0.0
 10
13.01681908224611
 20
7.673321752647674
 30
0.0
 10
13.01125946103325
 20
7.642365059763482
 30
0.0
 10
13.00847287650378
 20
7.626848995238245
 30
0.0
  0
SPLINE
  5
AE
330
1F
100
AcDbEntity
  8
TANGENT_LINES
100
AcDbSpline
210
0.0
220
0.0
230
1.0
 70
     8
 71
     3
 72
    13
 73
     9
 74
     0
 42
0.000000001
 43
0.0000000008048041
 40
0.0
 40
0.0
 40
0.0
 40
0.0
 40
0.1665351618035376
 40
0.3325794331348357
 40
0.4992101196848472
 40
0.6661110048118867
 40
0.8330973539846573
 40
1.0
 40
1.0
 40
1.0
 40
1.0
 10
13.00847362804244
 20
3.590133781946516
 30
0.0
 10
13.01112848129802
 20
3.575282592838479
 30
0.0
 10
13.01643036218153
 20
3.545623991006657
 30
0.0
 10
13.0307725785489
 20
3.50292306189194
 30
0.0
 10
13.04956023949691
 20
3.461689370686305
 30
0.0
 10
13.07310378362266
 20
3.422843397004525
 30
0.0
 10
13.10065228024743
 20
3.386559828961686
 30
0.0
 10
13.12232235878996
 20
3.365411872098848
 30
0.0
 10
13.13315468180818
 20
3.354840544474715
 30
0.0
  0
SPLINE
  5
AF
330
1F
100
AcDbEntity
  8
TANGENT_LINES
100
AcDbSpline
210
0.0
220
0.0
230
1.0
 70
     8
 71
     3
 72
    13
 73
     9
 74
     0
 42
0.000000001
 43
0.0000000011417208
 40
0.0
 40
0.0
 40
0.0
 40
0.0
 40
0.1666064995178647
 40
0.3332718411224275
 40
0.4999694658140788
 40
0.6666733902070924
 40
0.8333583588843373
 40
1.0
 40
1.0
 40
1.0
 40
1.0
 10
15.75123111334836
 20
3.599851287247462
 30
0.0
 10
15.76626500526714
 20
3.71071626783791
 30
0.0
 10
15.79633809877493
 20
3.932485384314779
 30
0.0
 10
15.83159626759163
 20
4.266564369260894
 30
0.0
 10
15.85962808012998
 20
4.601427242993891
 30
0.0
 10
15.87947045202724
 20
4.936901301925923
 30
0.0
 10
15.89198469155172
 20
5.272682072308362
 30
0.0
 10
15.89353815728148
 20
5.49656461430258
 30
0.0
 10
15.8943147891825
 20
5.608491334579253
 30
0.0
  0
SPLINE
  5
B0
330
1F
100
AcDbEntity
  8
TANGENT_LINES
100
AcDbSpline
210
0.0
220
0.0
230
1.0
 70
     8
 71
     3
 72
    13
 73
     9
 74
     0
 42
0.000000001
 43
0.0000000010445072
 40
0.0
 40
0.0
 40
0.0
 40
0.0
 40
0.1666064995178189
 40
0.3332718411223651
 40
0.4999694658140207
 40
0.6666733902070513
 40
0.8333583588843181
 40
1.0
 40
1.0
 40
1.0
 40
1.0
 10
13.07663994249949
 20
7.617131382211682
 30
0.0
 10
13.06160605057622
 20
7.506266401604896
 30
0.0
 10
13.03153295705945
 20
7.284497285095325
 30
0.0
 10
12.99627478823221
 20
6.950418300099479
 30
0.0
 10
12.96824297568546
 20
6.615555426316357
 30
0.0
 10
12.94840060378225
 20
6.280081367333881
 30
0.0
 10
12.935886364254
 20
5.94430059690082
 30
0.0
 10
12.93433289852377
 20
5.720418054872816
 30
0.0
 10
12.93355626662252
 20
5.608491334579253
 30
0.0
  0
SPLINE
  5
B1
330
1F
100
AcDbEntity
  8
VISIBLE
100
AcDbSpline
210
0.0
220
0.0
230
1.0
 70
     8
 71
     3
 72
     8
 73
     4
 74
     0
 42
0.000000001
 43
0.0000000012531774
 40
0.0131980171834696
 40
0.0131980171834696
 40
0.0131980171834696
 40
0.0131980171834696
 40
5.136616540124701
 40
5.136616540124701
 40
5.136616540124701
 40
5.136616540124701
 10
15.75697293333358
 20
7.617945270856108
 30
0.0
 10
15.8524071958206
 20
6.948062826755294
 30
0.0
 10
15.90011400418113
 20
6.278276587961339
 30
0.0
 10
15.90011400418113
 20
5.608491334579253
 30
0.0
  0
SPLINE
  5
B2
330
1F
100
AcDbEntity
  8
VISIBLE
100
AcDbSpline
210
0.0
220
0.0
230
1.0
 70
     8
 71
     3
 72
     8
 73
     4
 74
     0
 42
0.000000001
 43
0.0000000011422234
 40
0.0
 40
0.0
 40
0.0
 40
0.0
 40
5.123418897107746
 40
5.123418897107746
 40
5.123418897107746
 40
5.123418897107746
 10
15.90011400418113
 20
5.608491334579253
 30
0.0
 10
15.90011400418113
 20
4.938706195873779
 30
0.0
 10
15.85240721215674
 20
4.268920071756773
 30
0.0
 10
15.75697298235262
 20
3.599037742382155
 30
0.0
  0
SPLINE
  5
B3
330
1F
100
AcDbEntity
  8
VISIBLE
100
AcDbSpline
210
0.0
220
0.0
230
1.0
 70
     8
 71
     3
 72
    20
 73
    16
 74
     0
 42
0.000000001
 43
0.0000000010621227
 40
-0.0000000000000009
 40
-0.0000000000000009
 40
-0.0000000000000009
 40
-0.0000000000000009
 40
0.418880326335567
 40
0.8377606526711341
 40
1.04720081583892
 40
1.46608114217449
 40
1.67552130534227
 40
2.09440163167784
 40
2.30384179484562
 40
2.72272212118119
 40
2.93216228434897
 40
3.35104261068454
 40
3.56048277385232
 40
4.188803263355671
 40
5.02656391602681
 40
5.02656391602681
 40
5.02656391602681
 40
5.02656391602681
 10
13.23852448193233
 20
5.608491334579253
 30
0.0
 10
13.23852448193233
 20
5.663228121420151
 30
0.0
 10
13.23917618820968
 20
5.772724086275674
 30
0.0
 10
13.24162123121747
 20
5.909620755976375
 30
0.0
 10
13.24528939580803
 20
6.046517824321717
 30
0.0
 10
13.24920156902227
 20
6.15602687419584
 30
0.0
 10
13.25531263748451
 20
6.292880855720457
 30
0.0
 10
13.26117803095469
 20
6.40233020193967
 30
0.0
 10
13.26972608140696
 20
6.53907871873426
 30
0.0
 10
13.27753577371142
 20
6.64841822201026
 30
0.0
 10
13.28850746767982
 20
6.784997102181603
 30
0.0
 10
13.29825078521138
 20
6.894174944967249
 30
0.0
 10
13.31430889474808
 20
7.057789243187768
 30
0.0
 10
13.33827519781778
 20
7.275649897120674
 30
0.0
 10
13.36311792164815
 20
7.465728685094646
 30
0.0
 10
13.37856007484927
 20
7.574121545657068
 30
0.0
  0
SPLINE
  5
B4
330
1F
100
AcDbEntity
  8
VISIBLE
100
AcDbSpline
210
0.0
220
0.0
230
1.0
 70
     8
 71
     3
 72
    20
 73
    16
 74
     0
 42
0.000000001
 43
0.0000000012260623
 40
0.0000000000000027
 40
0.0000000000000027
 40
0.0000000000000027
 40
0.0000000000000027
 40
0.418880326335555
 40
0.837760652671107
 40
1.04720081583888
 40
1.46608114217444
 40
1.67552130534221
 40
2.09440163167776
 40
2.30384179484554
 40
2.72272212118109
 40
2.93216228434887
 40
3.35104261068442
 40
3.5604827738522
 40
4.188803263355521
 40
5.02656391602663
 40
5.02656391602663
 40
5.02656391602663
 40
5.02656391602663
 10
15.44931098095575
 20
7.574121545657001
 30
0.0
 10
15.45703209216636
 20
7.519924872438041
 30
0.0
 10
15.47185182207739
 20
7.411419978265489
 30
0.0
 10
15.48880697186591
 20
7.275538225236028
 30
0.0
 10
15.50457583463292
 20
7.139487558808812
 30
0.0
 10
15.51623901406963
 20
7.030520655445072
 30
0.0
 10
15.52962011848101
 20
6.894175167129681
 30
0.0
 10
15.53936325321484
 20
6.784997044147588
 30
0.0
 10
15.55033515638468
 20
6.648418060868623
 30
0.0
 10
15.55814512550481
 20
6.539078577563343
 30
0.0
 10
15.56669336466345
 20
6.402330196340974
 30
0.0
 10
15.57255854185714
 20
6.292881095460265
 30
0.0
 10
15.57989096799907
 20
6.128656518607922
 30
0.0
 10
15.58706303820099
 20
5.909621165943958
 30
0.0
 10
15.58934657387268
 20
5.717964389428028
 30
0.0
 10
15.58934657387268
 20
5.608491334579253
 30
0.0
  0
SPLINE
  5
B5
330
1F
100
AcDbEntity
  8
VISIBLE
100
AcDbSpline
210
0.0
220
0.0
230
1.0
 70
     8
 71
     3
 72
     8
 73
     4
 74
     0
 42
0.000000001
 43
0.0000000010441776
 40
0.0
 40
0.0
 40
0.0
 40
0.0
 40
5.123418897107732
 40
5.123418897107732
 40
5.123418897107732
 40
5.123418897107732
 10
12.92775705162388
 20
5.608491334579253
 30
0.0
 10
12.92775705162388
 20
6.278276473284744
 30
0.0
 10
12.97546384364828
 20
6.948062597401766
 30
0.0
 10
13.0708980734524
 20
7.617944926776401
 30
0.0
  0
SPLINE
  5
B6
330
1F
100
AcDbEntity
  8
VISIBLE
100
AcDbSpline
210
0.0
220
0.0
230
1.0
 70
     8
 71
     3
 72
     8
 73
     4
 74
     0
 42
0.000000001
 43
0.0000000009080351
 40
0.0131980171833915
 40
0.0131980171833915
 40
0.0131980171833915
 40
0.0131980171833915
 40
5.136616540125011
 40
5.136616540125011
 40
5.136616540125011
 40
5.136616540125011
 10
13.07089812247144
 20
3.599037398302371
 30
0.0
 10
12.97546385998442
 20
4.268919842403194
 30
0.0
 10
12.92775705162388
 20
4.938706081197157
 30
0.0
 10
12.92775705162388
 20
5.608491334579253
 30
0.0
  0
SPLINE
  5
B7
330
1F
100
AcDbEntity
  8
VISIBLE
100
AcDbSpline
210
0.0
220
0.0
230
1.0
 70
     8
 71
     3
 72
    20
 73
    16
 74
     0
 42
0.000000001
 43
0.0000000011153956
 40
0.0
 40
0.0
 40
0.0
 40
0.0
 40
0.418880326335552
 40
0.837760652671104
 40
1.04720081583888
 40
1.46608114217443
 40
1.67552130534221
 40
2.09440163167776
 40
2.30384179484554
 40
2.72272212118109
 40
2.93216228434886
 40
3.35104261068442
 40
3.56048277385219
 40
4.188803263355521
 40
5.02656391602662
 40
5.02656391602662
 40
5.02656391602662
 40
5.02656391602662
 10
15.58934657387268
 20
5.608491334579253
 30
0.0
 10
15.58934657387268
 20
5.553754807154867
 30
0.0
 10
15.58869412004032
 20
5.444259178976745
 30
0.0
 10
15.58624830600446
 20
5.307361630566918
 30
0.0
 10
15.5825804996815
 20
5.170464415038859
 30
0.0
 10
15.57866889394592
 20
5.060955383646179
 30
0.0
 10
15.57255854233915
 20
4.924101574362953
 30
0.0
 10
15.56669336440175
 20
4.814652472440194
 30
0.0
 10
15.55814512545012
 20
4.677904091667693
 30
0.0
 10
15.55033515653547
 20
4.568564608234807
 30
0.0
 10
15.53936325213121
 20
4.43198562514401
 30
0.0
 10
15.52962012040139
 20
4.322807501800281
 30
0.0
 10
15.51356277856494
 20
4.159192917765815
 30
0.0
 10
15.48959765067536
 20
3.941332091432402
 30
0.0
 10
15.46475320337697
 20
3.751254469939426
 30
0.0
 10
15.44931098095575
 20
3.642861123501508
 30
0.0
  0
SPLINE
  5
B8
330
1F
100
AcDbEntity
  8
VISIBLE
100
AcDbSpline
210
0.0
220
0.0
230
1.0
 70
     8
 71
     3
 72
    34
 73
    30
 74
     0
 42
0.000000001
 43
0.0000000010176439
 40
0.0
 40
0.0
 40
0.0
 40
0.0
 40
0.0236781636134314
 40
0.0473563272268628
 40
0.0591954090335785
 40
0.0769540317436521
 40
0.08287357264701
 40
0.0947126544537257
 40
0.100632195357084
 40
0.118390818067157
 40
0.130229899873873
 40
0.153908063487304
 40
0.16574714529402
 40
0.180545997552415
 40
0.183505768004093
 40
0.189425308907451
 40
0.19238507935913
 40
0.201264390714167
 40
0.207183931617525
 40
0.219023013424241
 40
0.224942554327598
 40
0.236781636134314
 40
0.242701177037672
 40
0.251580488392709
 40
0.254540258844388
 40
0.260459799747746
 40
0.263419570199424
 40
0.272298881554461
 40
0.284137963361177
 40
0.284137963361177
 40
0.284137963361177
 40
0.284137963361177
 10
15.44931098095575
 20
3.642861123501508
 30
0.0
 10
15.44920991259169
 20
3.642151695939804
 30
0.0
 10
15.44890849450055
 20
3.640660019096989
 30
0.0
 10
15.44827339763817
 20
3.638741041561902
 30
0.0
 10
15.44754797459649
 20
3.637065537897052
 30
0.0
 10
15.44698922192998
 20
3.635999672386812
 30
0.0
 10
15.44638755232523
 20
3.634999510866658
 30
0.0
 10
15.44596669907684
 20
3.634367017524752
 30
0.0
 10
15.44532349178938
 20
3.633488174510603
 30
0.0
 10
15.44459120228615
 20
3.63260295090756
 30
0.0
 10
15.44336551924947
 20
3.631331580944824
 30
0.0
 10
15.44215056812638
 20
3.630276452127323
 30
0.0
 10
15.44077995873148
 20
3.629286269106536
 30
0.0
 10
15.43995458508629
 20
3.6287701879223
 30
0.0
 10
15.43929047466573
 20
3.628394995586363
 30
0.0
 10
15.43896010061022
 20
3.628218036004296
 30
0.0
 10
15.43845675874481
 20
3.627962914296457
 30
0.0
 10
15.43791519241943
 20
3.627708054484418
 30
0.0
 10
15.43711680165572
 20
3.627369134948509
 30
0.0
 10
15.43638631212657
 20
3.627096100683308
 30
0.0
 10
15.4354627378388
 20
3.626797430620674
 30
0.0
 10
15.4347093034112
 20
3.626590527053993
 30
0.0
 10
15.43385836722318
 20
3.626396788863524
 30
0.0
 10
15.43326800619966
 20
3.626285759589831
 30
0.0
 10
15.43270201857556
 20
3.62619685198604
 30
0.0
 10
15.43231053755494
 20
3.626144086776489
 30
0.0
 10
15.43172238407751
 20
3.626078357326076
 30
0.0
 10
15.43093163932153
 20
3.626013570265997
 30
0.0
 10
15.43024984999114
 20
3.625993674435851
 30
0.0
 10
15.42987020373223
 20
3.625993674435851
 30
0.0
  0
SPLINE
  5
B9
330
1F
100
AcDbEntity
  8
TANGENT_LINES
100
AcDbSpline
210
0.0
220
0.0
230
1.0
 70
     8
 71
     3
 72
    11
 73
     7
 74
     0
 42
0.000000001
 43
0.0000000012244222
 40
0.0
 40
0.0
 40
0.0
 40
0.0
 40
0.0811822752460512
 40
0.121773412869077
 40
0.202955688115128
 40
0.284137963361179
 40
0.284137963361179
 40
0.284137963361179
 40
0.284137963361179
 10
15.42987020373223
 20
7.650044112832894
 30
0.0
 10
15.44052404562803
 20
7.650044112832894
 30
0.0
 10
15.45665000908804
 20
7.646695246828705
 30
0.0
 10
15.48014887148045
 20
7.633512849409717
 30
0.0
 10
15.49887154321213
 20
7.61358307380493
 30
0.0
 10
15.50627314940181
 20
7.592998057201174
 30
0.0
 10
15.50777577331368
 20
7.582450713055832
 30
0.0
  0
SPLINE
  5
BA
330
1F
100
AcDbEntity
  8
TANGENT_LINES
100
AcDbSpline
210
0.0
220
0.0
230
1.0
 70
     8
 71
     3
 72
    11
 73
     7
 74
     0
 42
0.000000001
 43
0.0000000010688947
 40
0.0000000000000984
 40
0.0000000000000984
 40
0.0000000000000984
 40
0.0000000000000984
 40
0.0811822755931579
 40
0.121773413389688
 40
0.202955688982747
 40
0.284137964575807
 40
0.284137964575807
 40
0.284137964575807
 40
0.284137964575807
 10
13.32009528249134
 20
7.582450713055872
 30
0.0
 10
13.32159790640964
 20
7.592998057246296
 30
0.0
 10
13.32718735913506
 20
7.608491033800359
 30
0.0
 10
13.34355234867599
 20
7.629895615913268
 30
0.0
 10
13.36592333301303
 20
7.645620280602237
 30
0.0
 10
13.38734701013144
 20
7.650044112832894
 30
0.0
 10
13.39800085207279
 20
7.650044112832894
 30
0.0
  0
SPLINE
  5
BB
330
1F
100
AcDbEntity
  8
TANGENT_LINES
100
AcDbSpline
210
0.0
220
0.0
230
1.0
 70
     8
 71
     3
 72
    11
 73
     7
 74
     0
 42
0.000000001
 43
0.0000000010227787
 40
0.0
 40
0.0
 40
0.0
 40
0.0
 40
0.0405911376230253
 40
0.121773412869076
 40
0.202955688115126
 40
0.284137963361177
 40
0.284137963361177
 40
0.284137963361177
 40
0.284137963361177
 10
15.50777577331369
 20
3.634531956102678
 30
0.0
 10
15.50702446135775
 20
3.629258284030005
 30
0.0
 10
15.50313244536761
 20
3.613552213710131
 30
0.0
 10
15.48888134122194
 20
3.590298122197142
 30
0.0
 10
15.46201815786265
 20
3.571367545269052
 30
0.0
 10
15.44052404562803
 20
3.566938556325615
 30
0.0
 10
15.42987020373223
 20
3.566938556325615
 30
0.0
  0
SPLINE
  5
BC
330
1F
100
AcDbEntity
  8
TANGENT_LINES
100
AcDbSpline
210
0.0
220
0.0
230
1.0
 70
     8
 71
     3
 72
    11
 73
     7
 74
     0
 42
0.000000001
 43
0.0000000008303026
 40
0.0
 40
0.0
 40
0.0
 40
0.0
 40
0.040591137796544
 40
0.121773413389632
 40
0.20295568898272
 40
0.284137964575808
 40
0.284137964575808
 40
0.284137964575808
 40
0.284137964575808
 10
13.39800085207279
 20
3.566938556325615
 30
0.0
 10
13.39267393110211
 20
3.566938556325615
 30
0.0
 10
13.3765759055781
 20
3.568575989590079
 30
0.0
 10
13.35154427095742
 20
3.57940466034002
 30
0.0
 10
13.32901419005708
 20
3.603328802984863
 30
0.0
 10
13.32159790640964
 20
3.623984611912194
 30
0.0
 10
13.32009528249134
 20
3.634531956102627
 30
0.0
  0
SPLINE
  5
BD
330
1F
100
AcDbEntity
  8
VISIBLE
100
AcDbSpline
210
0.0
220
0.0
230
1.0
 70
     8
 71
     3
 72
    20
 73
    16
 74
     0
 42
0.000000001
 43
0.0000000009321927
 40
0.0000000000002112
 40
0.0000000000002112
 40
0.0000000000002112
 40
0.0000000000002112
 40
0.418880326335757
 40
0.8377606526713021
 40
1.04720081583907
 40
1.46608114217462
 40
1.67552130534239
 40
2.09440163167794
 40
2.30384179484571
 40
2.72272212118126
 40
2.93216228434903
 40
3.35104261068458
 40
3.56048277385235
 40
4.188803263355671
 40
5.026563916026761
 40
5.026563916026761
 40
5.026563916026761
 40
5.026563916026761
 10
13.37856007484926
 20
3.642861123501505
 30
0.0
 10
13.37083896825935
 20
3.697057764286509
 30
0.0
 10
13.35601938773888
 20
3.805562486926001
 30
0.0
 10
13.33906406685213
 20
3.941444690034666
 30
0.0
 10
13.32329510637994
 20
4.07749497629928
 30
0.0
 10
13.31163217648409
 20
4.18646194162991
 30
0.0
 10
13.29825096189458
 20
4.322807768625812
 30
0.0
 10
13.28850724543102
 20
4.431985842187991
 30
0.0
 10
13.27753487935875
 20
4.568564611249761
 30
0.0
 10
13.26972506801727
 20
4.677903805327107
 30
0.0
 10
13.26117751715538
 20
4.81465208785836
 30
0.0
 10
13.2553127156091
 20
4.924101643512944
 30
0.0
 10
13.24797933132785
 20
5.088326735289896
 30
0.0
 10
13.24080578143444
 20
5.307361813227607
 30
0.0
 10
13.23852448193233
 20
5.49901783500091
 30
0.0
 10
13.23852448193233
 20
5.608491334579253
 30
0.0
  0
SPLINE
  5
BE
330
1F
100
AcDbEntity
  8
VISIBLE
100
AcDbSpline
210
0.0
220
0.0
230
1.0
 70
     8
 71
     3
 72
    34
 73
    30
 74
     0
 42
0.000000001
 43
0.0000000008306675
 40
0.0
 40
0.0
 40
0.0
 40
0.0
 40
0.0236781637146445
 40
0.0473563274292891
 40
0.0591954092866113
 40
0.0769540320725947
 40
0.0828735730012558
 40
0.0947126548585781
 40
0.100632195787239
 40
0.118390818573223
 40
0.130229900430545
 40
0.153908064145189
 40
0.165747146002512
 40
0.180545998324165
 40
0.183505768788495
 40
0.189425309717156
 40
0.192385080181487
 40
0.201264391574478
 40
0.20718393250314
 40
0.219023014360462
 40
0.224942555289123
 40
0.236781637146445
 40
0.242701178075106
 40
0.251580489468098
 40
0.254540259932429
 40
0.26045980086109
 40
0.26341957132542
 40
0.272298882718412
 40
0.284137964575734
 40
0.284137964575734
 40
0.284137964575734
 40
0.284137964575734
 10
13.39800085207279
 20
3.625993674435851
 30
0.0
 10
13.39728426122278
 20
3.625993674435851
 30
0.0
 10
13.39576498319226
 20
3.626081692556481
 30
0.0
 10
13.39377561379404
 20
3.626439787172509
 30
0.0
 10
13.39201454480327
 20
3.626921644736143
 30
0.0
 10
13.39088052713836
 20
3.627324481715265
 30
0.0
 10
13.38980550356852
 20
3.62777907358941
 30
0.0
 10
13.3891199753282
 20
3.62810651271245
 30
0.0
 10
13.38815919883182
 20
3.628619337999174
 30
0.0
 10
13.38717954110267
 20
3.62921945524658
 30
0.0
 10
13.38574800924744
 20
3.630253571218772
 30
0.0
 10
13.38453207062743
 20
3.631307561218135
 30
0.0
 10
13.38335847439445
 20
3.632524813527548
 30
0.0
 10
13.38273114089207
 20
3.633269148203997
 30
0.0
 10
13.38226603244232
 20
3.633873702849296
 30
0.0
 10
13.38204424555723
 20
3.634175816057406
 30
0.0
 10
13.38172068233052
 20
3.634638144119839
 30
0.0
 10
13.38139198732552
 20
3.635138351280453
 30
0.0
 10
13.38094385018575
 20
3.635880959812989
 30
0.0
 10
13.38057051660759
 20
3.636565638256619
 30
0.0
 10
13.38014457071539
 20
3.637437855630359
 30
0.0
 10
13.37983347059792
 20
3.638154576752938
 30
0.0
 10
13.37952165255157
 20
3.638969681809899
 30
0.0
 10
13.37932846822457
 20
3.639538482052847
 30
0.0
 10
13.37916062216974
 20
3.640086272296985
 30
0.0
 10
13.37905316970236
 20
3.640466397975154
 30
0.0
 10
13.37890514379898
 20
3.641039401630442
 30
0.0
 10
13.37872947727254
 20
3.641813104350926
 30
0.0
 10
13.37861362037254
 20
3.642485272260851
 30
0.0
 10
13.37856007484926
 20
3.642861123501505
 30
0.0
  0
ARC
  5
BF
330
1F
100
AcDbEntity
  8
VISIBLE
100
AcDbCircle
 10
13.39792790394959
 20
7.571401435411764
 30
0.0
 40
0.0195524047333119
100
AcDbArc
 50
89.78661965009621
 51
172.0053977321821
  0
ARC
  5
C0
330
1F
100
AcDbEntity
  8
VISIBLE
100
AcDbCircle
 10
15.42990428120372
 20
7.571425221682793
 30
0.0
 40
0.0195593482103099
100
AcDbArc
 50
7.90991148563368
 51
90.09980147051692
  0
ELLIPSE
  5
C1
330
1F
100
AcDbEntity
  8
VISIBLE
100
AcDbEllipse
 10
20.33808986860959
 20
4.609311924508505
 30
0.0
 11
1.446740634059316
 21
-9.905951766036132
 31
0.0
210
0.0
220
0.0
230
-1.0
 40
0.7077467341158218
 41
1.575756334471326
 42
1.774296376083427
  0
ELLIPSE
  5
C2
330
1F
100
AcDbEntity
  8
VISIBLE
100
AcDbEllipse
 10
8.489781187205589
 20
6.607670744652426
 30
0.0
 11
1.446740634059526
 21
-9.90595176602918
 31
0.0
210
0.0
220
0.0
230
-1.0
 40
0.7077467341152678
 41
4.717348988061307
 42
4.915889029673542
  0
ELLIPSE
  5
C3
330
1F
100
AcDbEntity
  8
VISIBLE
100
AcDbEllipse
 10
20.33808986859384
 20
6.607670744649415
 30
0.0
 11
-1.446740634053729
 21
-9.90595176602555
 31
0.0
210
0.0
220
0.0
230
-1.0
 40
0.7077467341150716
 41
1.367296277506708
 42
1.565836319119032
  0
ELLIPSE
  5
C4
330
1F
100
AcDbEntity
  8
VISIBLE
100
AcDbEllipse
 10
8.489781187287438
 20
4.609311924509974
 30
0.0
 11
-1.446740634029312
 21
-9.905951765974445
 31
0.0
210
0.0
220
0.0
230
-1.0
 40
0.7077467341113709
 41
4.508888931097784
 42
4.707428972711164
  0
ENDSEC
  0
SECTION
  2
OBJECTS
  0
DICTIONARY
  5
C
330
0
100
AcDbDictionary
  3
ACAD_GROUP
350
D
  3
ACAD_LAYOUT
350
1A
  3
ACAD_MATERIAL
350
43
  3
ACAD_MLEADERSTYLE
350
6B
  3
ACAD_MLINESTYLE
350
17
  3
ACAD_PLOTSETTINGS
350
19
  3
ACAD_SCALELIST
350
47
  3
ACAD_VISUALSTYLE
350
2A
  3
ACDBVARIABLEDICTIONARY
350
6E
  3
ONSHAPE_DATA
350
C5
1001
ACAD
1000
TREAT_AS_HARD
1070
     0
  0
DICTIONARY
  5
D
102
{ACAD_REACTORS
330
C
102
}
330
C
100
AcDbDictionary
1001
ACAD
1000
TREAT_AS_HARD
1070
     0
  0
DICTIONARY
  5
1A
102
{ACAD_REACTORS
330
C
102
}
330
C
100
AcDbDictionary
1001
ACAD
1000
TREAT_AS_HARD
1070
     0
  0
DICTIONARY
  5
43
102
{ACAD_REACTORS
330
C
102
}
330
C
100
AcDbDictionary
  3
BYBLOCK
350
45
  3
BYLAYER
350
44
  3
GLOBAL
350
46
1001
ACAD
1000
TREAT_AS_HARD
1070
     0
  0
DICTIONARY
  5
6B
102
{ACAD_REACTORS
330
C
102
}
330
C
100
AcDbDictionary
  3
STANDARD
350
6C
1001
ACAD
1000
TREAT_AS_HARD
1070
     0
  0
DICTIONARY
  5
17
102
{ACAD_REACTORS
330
C
102
}
330
C
100
AcDbDictionary
  3
STANDARD
350
18
1001
ACAD
1000
TREAT_AS_HARD
1070
     0
  0
DICTIONARY
  5
19
102
{ACAD_REACTORS
330
C
102
}
330
C
100
AcDbDictionary
1001
ACAD
1000
TREAT_AS_HARD
1070
     0
  0
DICTIONARY
  5
47
102
{ACAD_REACTORS
330
C
102
}
330
C
100
AcDbDictionary
  3
A0
350
48
  3
A1
350
49
  3
A2
350
4A
  3
A3
350
4B
  3
A4
350
4C
  3
A5
350
4D
  3
A6
350
4E
  3
A7
350
4F
  3
A8
350
50
  3
A9
350
51
  3
B0
350
52
  3
B1
350
53
  3
B2
350
54
  3
B3
350
55
  3
B4
350
56
  3
B5
350
57
  3
B6
350
58
  3
B7
350
59
  3
B8
350
5A
  3
B9
350
5B
  3
C0
350
5C
  3
C1
350
5D
  3
C2
350
5E
  3
C3
350
5F
  3
C4
350
60
  3
C5
350
61
  3
C6
350
62
  3
C7
350
63
  3
C8
350
64
  3
C9
350
65
  3
D0
350
66
  3
D1
350
67
  3
D2
350
68
1001
ACAD
1000
TREAT_AS_HARD
1070
     0
  0
DICTIONARY
  5
2A
102
{ACAD_REACTORS
330
C
102
}
330
C
100
AcDbDictionary
  3
2DWIREFRAME
350
2F
  3
BASIC
350
32
  3
BRIGHTEN
350
36
  3
COLORCHANGE
350
3A
  3
CONCEPTUAL
350
34
  3
DIM
350
35
  3
EDGECOLOROFF
350
3D
  3
FACEPATTERN
350
39
  3
FLAT
350
2B
  3
FLATWITHEDGES
350
2C
  3
GOURAUD
350
2D
  3
GOURAUDWITHEDGES
350
2E
  3
HIDDEN
350
31
  3
JITTEROFF
350
3B
  3
LINEPATTERN
350
38
  3
OVERHANGOFF
350
3C
  3
REALISTIC
350
33
  3
SHADED
350
42
  3
SHADED_WITH_EDGES
350
41
  3
SHADES_OF_GRAY
350
3E
  3
SKETCHY
350
3F
  3
THICKEN
350
37
  3
WIREFRAME
350
30
  3
X-RAY
350
40
1001
ACAD
1000
TREAT_AS_HARD
1070
     0
  0
DICTIONARY
  5
6E
102
{ACAD_REACTORS
330
C
102
}
330
C
100
AcDbDictionary
  3
CANNOSCALE
350
111
  3
CMLEADERSTYLE
350
10C
  3
CTABLESTYLE
350
10B
  3
DIMASSOC
350
10F
  3
HIDETEXT
350
110
  3
MSLTSCALE
350
112
  3
OLEFRAME
350
6F
1001
ACAD
1000
TREAT_AS_HARD
1070
     0
  0
DICTIONARY
  5
C5
102
{ACAD_REACTORS
330
C
102
}
330
C
100
AcDbDictionary
  3
DIM_UNITS
360
C6
  3
ONSHAPE_ANG_TOL_PRECISION
360
C9
  3
ONSHAPE_VSHARP_EXTENSION
360
C8
  3
ONSHAPE_WELD_STANDARD
360
C7
1001
ACAD
1000
TREAT_AS_HARD
1070
     1
  0
MATERIAL
  5
45
102
{ACAD_REACTORS
330
43
102
}
102
{ACAD_XDICTIONARY
360
115
102
}
330
43
100
AcDbMaterial
  1
BYBLOCK
  0
MATERIAL
  5
44
102
{ACAD_REACTORS
330
43
102
}
102
{ACAD_XDICTIONARY
360
113
102
}
330
43
100
AcDbMaterial
  1
BYLAYER
  0
MATERIAL
  5
46
102
{ACAD_REACTORS
330
43
102
}
102
{ACAD_XDICTIONARY
360
117
102
}
330
43
100
AcDbMaterial
  1
GLOBAL
  0
ACAD_PROXY_OBJECT
  5
6C
102
{ACAD_REACTORS
330
6B
102
}
330
6B
100
AcDbZombieObject
 90
      499
 91
      505
 93
      610
310
40901902A4063FBFFFFFE056BD1B81E855B9FC0AD7A3703D0AD73F4214DD185B99185C9900AD7A3703D0AC73F90140501A02B5E8DC0F42B1CFC02B5E8DC0F42B1CFE5764000000000000300FC0
340
14
340
0
340
11
340
0
 94
        0
1001
ACAD_MLEADERVER
1070
     2
  0
MLINESTYLE
  5
18
102
{ACAD_REACTORS
330
17
102
}
330
17
100
AcDbMlineStyle
  2
Standard
 70
     0
  3

 62
   256
 51
90.0
 52
90.0
 71
     2
 49
0.5
 62
   256
  6
BYLAYER
 49
-0.5
 62
   256
  6
BYLAYER
  0
ACAD_PROXY_OBJECT
  5
48
102
{ACAD_REACTORS
330
47
102
}
330
47
100
AcDbZombieObject
 90
      499
 91
      503
 93
       41
310
903313A31580
  0
ACAD_PROXY_OBJECT
  5
49
102
{ACAD_REACTORS
330
47
102
}
330
47
100
AcDbZombieObject
 90
      499
 91
      503
 93
      105
310
903313A324000000000000004000
  0
ACAD_PROXY_OBJECT
  5
4A
102
{ACAD_REACTORS
330
47
102
}
330
47
100
AcDbZombieObject
 90
      499
 91
      503
 93
      105
310
903313A344000000000000104000
  0
ACAD_PROXY_OBJECT
  5
4B
102
{ACAD_REACTORS
330
47
102
}
330
47
100
AcDbZombieObject
 90
      499
 91
      503
 93
      105
310
903313A354000000000000144000
  0
ACAD_PROXY_OBJECT
  5
4C
102
{ACAD_REACTORS
330
47
102
}
330
47
100
AcDbZombieObject
 90
      499
 91
      503
 93
      105
310
903313A384000000000000204000
  0
ACAD_PROXY_OBJECT
  5
4D
102
{ACAD_REACTORS
330
47
102
}
330
47
100
AcDbZombieObject
 90
      499
 91
      503
 93
      113
310
904313A31304000000000000244000
  0
ACAD_PROXY_OBJECT
  5
4E
102
{ACAD_REACTORS
330
47
102
}
330
47
100
AcDbZombieObject
 90
      499
 91
      503
 93
      113
310
904313A31364000000000000304000
  0
ACAD_PROXY_OBJECT
  5
4F
102
{ACAD_REACTORS
330
47
102
}
330
47
100
AcDbZombieObject
 90
      499
 91
      503
 93
      113
310
904313A32304000000000000344000
  0
ACAD_PROXY_OBJECT
  5
50
102
{ACAD_REACTORS
330
47
102
}
330
47
100
AcDbZombieObject
 90
      499
 91
      503
 93
      113
310
904313A333040000000000003E4000
  0
ACAD_PROXY_OBJECT
  5
51
102
{ACAD_REACTORS
330
47
102
}
330
47
100
AcDbZombieObject
 90
      499
 91
      503
 93
      113
310
904313A34304000000000000444000
  0
ACAD_PROXY_OBJECT
  5
52
102
{ACAD_REACTORS
330
47
102
}
330
47
100
AcDbZombieObject
 90
      499
 91
      503
 93
      113
310
904313A35304000000000000494000
  0
ACAD_PROXY_OBJECT
  5
53
102
{ACAD_REACTORS
330
47
102
}
330
47
100
AcDbZombieObject
 90
      499
 91
      503
 93
      121
310
905313A3130304000000000000594000
  0
ACAD_PROXY_OBJECT
  5
54
102
{ACAD_REACTORS
330
47
102
}
330
47
100
AcDbZombieObject
 90
      499
 91
      503
 93
      105
310
903323A310000000000000010100
  0
ACAD_PROXY_OBJECT
  5
55
102
{ACAD_REACTORS
330
47
102
}
330
47
100
AcDbZombieObject
 90
      499
 91
      503
 93
      105
310
903343A310000000000000410100
  0
ACAD_PROXY_OBJECT
  5
56
102
{ACAD_REACTORS
330
47
102
}
330
47
100
AcDbZombieObject
 90
      499
 91
      503
 93
      105
310
903383A310000000000000810100
  0
ACAD_PROXY_OBJECT
  5
57
102
{ACAD_REACTORS
330
47
102
}
330
47
100
AcDbZombieObject
 90
      499
 91
      503
 93
      113
310
90431303A310000000000000910100
  0
ACAD_PROXY_OBJECT
  5
58
102
{ACAD_REACTORS
330
47
102
}
330
47
100
AcDbZombieObject
 90
      499
 91
      503
 93
      121
310
9053130303A310000000000001650100
  0
ACAD_PROXY_OBJECT
  5
59
102
{ACAD_REACTORS
330
47
102
}
330
47
100
AcDbZombieObject
 90
      499
 91
      503
 93
      257
310
90E312F31323822203D2031272D3022000000000000200FC000000000000284000
  0
ACAD_PROXY_OBJECT
  5
5A
102
{ACAD_REACTORS
330
47
102
}
330
47
100
AcDbZombieObject
 90
      499
 91
      503
 93
      249
310
90D312F363422203D2031272D3022000000000000240FC000000000000284000
  0
ACAD_PROXY_OBJECT
  5
5B
102
{ACAD_REACTORS
330
47
102
}
330
47
100
AcDbZombieObject
 90
      499
 91
      503
 93
      249
310
90D312F333222203D2031272D3022000000000000280FC000000000000284000
  0
ACAD_PROXY_OBJECT
  5
5C
102
{ACAD_REACTORS
330
47
102
}
330
47
100
AcDbZombieObject
 90
      499
 91
      503
 93
      249
310
90D312F313622203D2031272D30220000000000002C0FC000000000000284000
  0
ACAD_PROXY_OBJECT
  5
5D
102
{ACAD_REACTORS
330
47
102
}
330
47
100
AcDbZombieObject
 90
      499
 91
      503
 93
      249
310
90D332F333222203D2031272D30220000000000002E0FC000000000000284000
  0
ACAD_PROXY_OBJECT
  5
5E
102
{ACAD_REACTORS
330
47
102
}
330
47
100
AcDbZombieObject
 90
      499
 91
      503
 93
      241
310
90C312F3822203D2031272D3022000000000000300FC000000000000284000
  0
ACAD_PROXY_OBJECT
  5
5F
102
{ACAD_REACTORS
330
47
102
}
330
47
100
AcDbZombieObject
 90
      499
 91
      503
 93
      249
310
90D332F313622203D2031272D3022000000000000320FC000000000000284000
  0
ACAD_PROXY_OBJECT
  5
60
102
{ACAD_REACTORS
330
47
102
}
330
47
100
AcDbZombieObject
 90
      499
 91
      503
 93
      241
310
90C312F3422203D2031272D3022000000000000340FC000000000000284000
  0
ACAD_PROXY_OBJECT
  5
61
102
{ACAD_REACTORS
330
47
102
}
330
47
100
AcDbZombieObject
 90
      499
 91
      503
 93
      241
310
90C332F3822203D2031272D3022000000000000360FC000000000000284000
  0
ACAD_PROXY_OBJECT
  5
62
102
{ACAD_REACTORS
330
47
102
}
330
47
100
AcDbZombieObject
 90
      499
 91
      503
 93
      241
310
90C312F3222203D2031272D3022000000000000380FC000000000000284000
  0
ACAD_PROXY_OBJECT
  5
63
102
{ACAD_REACTORS
330
47
102
}
330
47
100
AcDbZombieObject
 90
      499
 91
      503
 93
      241
310
90C332F3422203D2031272D30220000000000003A0FC000000000000284000
  0
ACAD_PROXY_OBJECT
  5
64
102
{ACAD_REACTORS
330
47
102
}
330
47
100
AcDbZombieObject
 90
      499
 91
      503
 93
      161
310
90A3122203D2031272D30224000000000000284000
  0
ACAD_PROXY_OBJECT
  5
65
102
{ACAD_REACTORS
330
47
102
}
330
47
100
AcDbZombieObject
 90
      499
 91
      503
 93
      257
310
90E312D312F3222203D2031272D30220000000000003E0FC000000000000284000
  0
ACAD_PROXY_OBJECT
  5
66
102
{ACAD_REACTORS
330
47
102
}
330
47
100
AcDbZombieObject
 90
      499
 91
      503
 93
      225
310
90A3322203D2031272D302200000000000002100000000000000284000
  0
ACAD_PROXY_OBJECT
  5
67
102
{ACAD_REACTORS
330
47
102
}
330
47
100
AcDbZombieObject
 90
      499
 91
      503
 93
      225
310
90A3622203D2031272D302200000000000006100000000000000284000
  0
ACAD_PROXY_OBJECT
  5
68
102
{ACAD_REACTORS
330
47
102
}
330
47
100
AcDbZombieObject
 90
      499
 91
      503
 93
      249
310
90D31272D3022203D2031272D30220000000000000A100000000000000284000
  0
ACAD_PROXY_OBJECT
  5
2F
102
{ACAD_REACTORS
330
2A
102
}
330
2A
100
AcDbZombieObject
 90
      499
 91
      501
 93
      436
310
42CC9915DA5C99599C985B595049028333333333333E33F0000000000000F90107901411070040501600405405064090741402480A0340
1001
ACAD
1000
AcDbSavedByObjectVersion
1070
     0
  0
ACAD_PROXY_OBJECT
  5
32
102
{ACAD_REACTORS
330
2A
102
}
330
2A
100
AcDbZombieObject
 90
      499
 91
      501
 93
      388
310
4150985CDA58D07406404333333333333E33F0000000000000F90107A41107004050150841D405064090741402480A0350
1001
ACAD
1000
AcDbSavedByObjectVersion
1070
     0
  0
ACAD_PROXY_OBJECT
  5
36
102
{ACAD_REACTORS
330
2A
102
}
330
2A
100
AcDbZombieObject
 90
      499
 91
      501
 93
      428
310
42109C9A59DA1D195B90C409028333333333333E33F0000000000000F9010790141107004050150841D405064090741402480A029950
1001
ACAD
1000
AcDbSavedByObjectVersion
1070
     0
  0
ACAD_PROXY_OBJECT
  5
3A
102
{ACAD_REACTORS
330
2A
102
}
330
2A
100
AcDbZombieObject
 90
      499
 91
      501
 93
      452
310
42D0DBDB1BDC90DA185B99D95104090240C333333333333E33F0000000000000F90108901411070040501508421405064090741402480A0350
1001
ACAD
1000
AcDbSavedByObjectVersion
1070
     0
  0
ACAD_PROXY_OBJECT
  5
34
102
{ACAD_REACTORS
330
2A
102
}
330
2A
100
AcDbZombieObject
 90
      499
 91
      501
 93
      500
310
4290DBDB98D95C1D1D585B10940D028333333333333E33F0000000000000F90107902409070040501000000000018199010841D405064090740C02480A0340
1001
ACAD
1000
AcDbSavedByObjectVersion
1070
     0
  0
ACAD_PROXY_OBJECT
  5
35
102
{ACAD_REACTORS
330
2A
102
}
330
2A
100
AcDbZombieObject
 90
      499
 91
      501
 93
      412
310
40D11A5B50B409028333333333333E33F0000000000000F9010790141107004050150841D405064090741402480A02677FFFFFD0
1001
ACAD
1000
AcDbSavedByObjectVersion
1070
     0
  0
ACAD_PROXY_OBJECT
  5
3D
102
{ACAD_REACTORS
330
2A
102
}
330
2A
100
AcDbZombieObject
 90
      499
 91
      501
 93
      452
310
43115919D950DBDB1BDC93D999916409028333333333333E33F0000000000000F9010790141107004050150841D405064090741402480A0350
1001
ACAD
1000
AcDbSavedByObjectVersion
1070
     0
  0
ACAD_PROXY_OBJECT
  5
39
102
{ACAD_REACTORS
330
2A
102
}
330
2A
100
AcDbZombieObject
 90
      499
 91
      501
 93
      444
310
42D19858D95C185D1D195C9B90F409028333333333333E33F0000000000000F9010790141107004050150841D405064090741402480A0350
1001
ACAD
1000
AcDbSavedByObjectVersion
1070
     0
  0
ACAD_PROXY_OBJECT
  5
2B
102
{ACAD_REACTORS
330
2A
102
}
330
2A
100
AcDbZombieObject
 90
      499
 91
      501
 93
      380
310
41119B185D240901404333333333333E33F0000000000000F9010740A907004050150841D405064090741402480A1B50
1001
ACAD
1000
AcDbSavedByObjectVersion
1070
     0
  0
ACAD_PROXY_OBJECT
  5
2C
102
{ACAD_REACTORS
330
2A
102
}
330
2A
100
AcDbZombieObject
 90
      499
 91
      501
 93
      468
310
43519B185D15DA5D1A115919D95CD0140901404333333333333E33F0000000000000F90107409019070040501600405405064090741402480A1B50
1001
ACAD
1000
AcDbSavedByObjectVersion
1070
     0
  0
ACAD_PROXY_OBJECT
  5
2D
102
{ACAD_REACTORS
330
2A
102
}
330
2A
100
AcDbZombieObject
 90
      499
 91
      501
 93
      404
310
41D1DBDD5C985D5910240902404333333333333E33F0000000000000F9010740A9070040501641D405064090741402480A1B50
1001
ACAD
1000
AcDbSavedByObjectVersion
1070
     0
  0
ACAD_PROXY_OBJECT
  5
2E
102
{ACAD_REACTORS
330
2A
102
}
330
2A
100
AcDbZombieObject
 90
      499
 91
      501
 93
      492
310
4411DBDD5C985D5915DA5D1A115919D95CD0340902404333333333333E33F0000000000000F90107409019070040501600405405064090741402480A1B50
1001
ACAD
1000
AcDbSavedByObjectVersion
1070
     0
  0
ACAD_PROXY_OBJECT
  5
31
102
{ACAD_REACTORS
330
2A
102
}
330
2A
100
AcDbZombieObject
 90
      499
 91
      501
 93
      476
310
41921A5919195B90640502408333333333333E33F0000000000000F901079024090700405020000000000001110200405405064090740C02480A0340
1001
ACAD
1000
AcDbSavedByObjectVersion
1070
     0
  0
ACAD_PROXY_OBJECT
  5
3B
102
{ACAD_REACTORS
330
2A
102
}
330
2A
100
AcDbZombieObject
 90
      499
 91
      501
 93
      428
310
42529A5D1D195C93D999914409028333333333333E33F0000000000000F9010790141107004050150A41D405064090741402480A0350
1001
ACAD
1000
AcDbSavedByObjectVersion
1070
     0
  0
ACAD_PROXY_OBJECT
  5
38
102
{ACAD_REACTORS
330
2A
102
}
330
2A
100
AcDbZombieObject
 90
      499
 91
      501
 93
      444
310
42D31A5B995C185D1D195C9B90E409028333333333333E33F0000000000000F9010790141107004050750841D405064090741402483A0350
1001
ACAD
1000
AcDbSavedByObjectVersion
1070
     0
  0
ACAD_PROXY_OBJECT
  5
3C
102
{ACAD_REACTORS
330
2A
102
}
330
2A
100
AcDbZombieObject
 90
      499
 91
      501
 93
      444
310
42D3DD995C9A185B99D3D999915409028333333333333E33F0000000000000F9010790141107004050150941D405064090741402480A0350
1001
ACAD
1000
AcDbSavedByObjectVersion
1070
     0
  0
ACAD_PROXY_OBJECT
  5
33
102
{ACAD_REACTORS
330
2A
102
}
330
2A
100
AcDbZombieObject
 90
      499
 91
      501
 93
      428
310
425499585B1A5CDD1A58D08409038333333333333E33F0000000000000F9010740A907004050150800405405064090740C02480A1B40
1001
ACAD
1000
AcDbSavedByObjectVersion
1070
     0
  0
ACAD_PROXY_OBJECT
  5
42
102
{ACAD_REACTORS
330
2A
102
}
330
2A
100
AcDbZombieObject
 90
      499
 91
      501
 93
      420
310
4194DA1859195911B40902404333333333333E33F0000000000000F9010740A41107004050150800405405064090840C02480A0B40
1001
ACAD
1000
AcDbSavedByObjectVersion
1070
     0
  0
ACAD_PROXY_OBJECT
  5
41
102
{ACAD_REACTORS
330
2A
102
}
330
2A
100
AcDbZombieObject
 90
      499
 91
      501
 93
      516
310
4454DA18591959081DDA5D1A08195919D95CD1A40902404333333333333E33F0000000000000F901074090142907004050250800405405064090740C02480A0B40
1001
ACAD
1000
AcDbSavedByObjectVersion
1070
     0
  0
ACAD_PROXY_OBJECT
  5
3E
102
{ACAD_REACTORS
330
2A
102
}
330
2A
100
AcDbZombieObject
 90
      499
 91
      501
 93
      532
310
4394DA1859195CC81BD98811DC985E5174090240C333333333333E33F0000000000000F901079024090741D01000000000000111010841D405064090740C02480A0340
1001
ACAD
1000
AcDbSavedByObjectVersion
1070
     0
  0
ACAD_PROXY_OBJECT
  5
3F
102
{ACAD_REACTORS
330
2A
102
}
330
2A
100
AcDbZombieObject
 90
      499
 91
      501
 93
      476
310
41D4DAD95D18DA1E51840502408333333333333E33F0000000000000F901079024090741D01000000000000111010B41D405064090741802480A0340
1001
ACAD
1000
AcDbSavedByObjectVersion
1070
     0
  0
ACAD_PROXY_OBJECT
  5
37
102
{ACAD_REACTORS
330
2A
102
}
330
2A
100
AcDbZombieObject
 90
      499
 91
      501
 93
      412
310
41D51A1A58DAD95B90D409028333333333333E33F0000000000000F9010790141107004050150C41D405064090741402480A0350
1001
ACAD
1000
AcDbSavedByObjectVersion
1070
     0
  0
ACAD_PROXY_OBJECT
  5
30
102
{ACAD_REACTORS
330
2A
102
}
330
2A
100
AcDbZombieObject
 90
      499
 91
      501
 93
      420
310
4255DA5C99599C985B595059028333333333333E33F0000000000000F90107901411070040501600405405064090740C02480A0340
1001
ACAD
1000
AcDbSavedByObjectVersion
1070
     0
  0
ACAD_PROXY_OBJECT
  5
40
102
{ACAD_REACTORS
330
2A
102
}
330
2A
100
AcDbZombieObject
 90
      499
 91
      501
 93
      404
310
41560B54985E51940902404000000000000E03F0000000000000F9010740501907004050150841D405064090740C02480A1B40
1001
ACAD
1000
AcDbSavedByObjectVersion
1070
     0
  0
DICTIONARYVAR
  5
111
102
{ACAD_REACTORS
330
6E
102
}
330
6E
100
DictionaryVariables
280
     0
  1
1:1
  0
DICTIONARYVAR
  5
10C
102
{ACAD_REACTORS
330
6E
102
}
330
6E
100
DictionaryVariables
280
     0
  1
Standard
  0
DICTIONARYVAR
  5
10B
102
{ACAD_REACTORS
330
6E
102
}
330
6E
100
DictionaryVariables
280
     0
  1
Onshape-Standard
  0
DICTIONARYVAR
  5
10F
102
{ACAD_REACTORS
330
6E
102
}
330
6E
100
DictionaryVariables
280
     0
  1
2
  0
DICTIONARYVAR
  5
110
102
{ACAD_REACTORS
330
6E
102
}
330
6E
100
DictionaryVariables
280
     0
  1
1
  0
DICTIONARYVAR
  5
112
102
{ACAD_REACTORS
330
6E
102
}
330
6E
100
DictionaryVariables
280
     0
  1
1
  0
DICTIONARYVAR
  5
6F
102
{ACAD_REACTORS
330
6E
102
}
330
6E
100
DictionaryVariables
280
     0
  1
0
  0
XRECORD
  5
C6
102
{ACAD_REACTORS
330
C5
102
}
330
C5
100
AcDbXrecord
 70
     4
  0
XRECORD
  5
C9
102
{ACAD_REACTORS
330
C5
102
}
330
C5
100
AcDbXrecord
 90
        0
  0
XRECORD
  5
C8
102
{ACAD_REACTORS
330
C5
102
}
330
C5
100
AcDbXrecord
 90
        0
  0
XRECORD
  5
C7
102
{ACAD_REACTORS
330
C5
102
}
330
C5
100
AcDbXrecord
 90
        0
  0
DICTIONARY
  5
115
330
45
100
AcDbDictionary
  3
ACAD_XREC_ROUNDTRIP
360
116
1001
ACAD
1000
TREAT_AS_HARD
1070
     1
  0
DICTIONARY
  5
113
330
44
100
AcDbDictionary
  3
ACAD_XREC_ROUNDTRIP
360
114
1001
ACAD
1000
TREAT_AS_HARD
1070
     1
  0
DICTIONARY
  5
117
330
46
100
AcDbDictionary
  3
ACAD_XREC_ROUNDTRIP
360
118
1001
ACAD
1000
TREAT_AS_HARD
1070
     1
  0
XRECORD
  5
116
102
{ACAD_REACTORS
330
115
102
}
330
115
100
AcDbXrecord
102
MATERIAL
148
0.0
149
0.0
149
0.0
 93
        0
 94
      127
282
     0
 72
     1
 77
     1
171
     1
175
     1
179
     1
273
     0
  0
XRECORD
  5
114
102
{ACAD_REACTORS
330
113
102
}
330
113
100
AcDbXrecord
102
MATERIAL
148
0.0
149
0.0
149
0.0
 93
        0
 94
      127
282
     0
 72
     1
 77
     1
171
     1
175
     1
179
     1
273
     0
  0
XRECORD
  5
118
102
{ACAD_REACTORS
330
117
102
}
330
117
100
AcDbXrecord
102
MATERIAL
148
0.0
149
0.0
149
0.0
 93
        0
 94
      127
282
     0
 72
     1
 77
     1
171
     1
175
     1
179
     1
273
     0
  0
ENDSEC
  0
EOF
