  0
SECTION
  2
HEADER
  9
$ACADVER
  1
AC1012
  9
$DWGCODEPAGE
  3
ansi_1252
  9
$INSBASE
 10
0.0
 20
0.0
 30
0.0
  9
$EXTMIN
 10
1.000000000000000E+20
 20
1.000000000000000E+20
 30
1.000000000000000E+20
  9
$EXTMAX
 10
-1.000000000000000E+20
 20
-1.000000000000000E+20
 30
-1.000000000000000E+20
  9
$LIMMIN
 10
0.0
 20
0.0
  9
$LIMMAX
 10
12.0
 20
9.0
  9
$ORTHOMODE
 70
     0
  9
$REGENMODE
 70
     1
  9
$FILLMODE
 70
     1
  9
$QTEXTMODE
 70
     0
  9
$MIRRTEXT
 70
     1
  9
$DRAGMODE
 70
     2
  9
$LTSCALE
 40
0.5
  9
$OSMODE
 70
    23
  9
$ATTMODE
 70
     1
  9
$TEXTSIZE
 40
0.12
  9
$TRACEWID
 40
0.05
  9
$TEXTSTYLE
  7
ONSHAPE-STANDARD
  9
$CLAYER
  8
0
  9
$CELTYPE
  6
BYLAYER
  9
$CECOLOR
 62
   256
  9
$CELTSCALE
 40
1.0
  9
$DELOBJ
 70
     1
  9
$DISPSILH
 70
     0
  9
$DIMSCALE
 40
1.0
  9
$DIMASZ
 40
0.18
  9
$DIMEXO
 40
0.0625
  9
$DIMDLI
 40
0.38
  9
$DIMRND
 40
0.0
  9
$DIMDLE
 40
0.0
  9
$DIMEXE
 40
0.08
  9
$DIMTP
 40
0.0
  9
$DIMTM
 40
0.0
  9
$DIMTXT
 40
0.12
  9
$DIMCEN
 40
0.09
  9
$DIMTSZ
 40
0.0
  9
$DIMTOL
 70
     0
  9
$DIMLIM
 70
     0
  9
$DIMTIH
 70
     1
  9
$DIMTOH
 70
     1
  9
$DIMSE1
 70
     0
  9
$DIMSE2
 70
     0
  9
$DIMTAD
 70
     0
  9
$DIMZIN
 70
     7
  9
$DIMBLK
  1

  9
$DIMASO
 70
     1
  9
$DIMSHO
 70
     1
  9
$DIMPOST
  1

  9
$DIMAPOST
  1

  9
$DIMALT
 70
     0
  9
$DIMALTD
 70
     2
  9
$DIMALTF
 40
25.4
  9
$DIMLFAC
 40
1.0
  9
$DIMTOFL
 70
     0
  9
$DIMTVP
 40
0.0
  9
$DIMTIX
 70
     0
  9
$DIMSOXD
 70
     0
  9
$DIMSAH
 70
     0
  9
$DIMBLK1
  1

  9
$DIMBLK2
  1

  9
$DIMSTYLE
  2
ONSHAPE-STANDARD
  9
$DIMCLRD
 70
     7
  9
$DIMCLRE
 70
     7
  9
$DIMCLRT
 70
     7
  9
$DIMTFAC
 40
1.0
  9
$DIMGAP
 40
0.09
  9
$DIMJUST
 70
     0
  9
$DIMSD1
 70
     0
  9
$DIMSD2
 70
     0
  9
$DIMTOLJ
 70
     1
  9
$DIMTZIN
 70
     7
  9
$DIMALTZ
 70
     7
  9
$DIMALTTZ
 70
     0
  9
$DIMFIT
 70
     3
  9
$DIMUPT
 70
     1
  9
$DIMUNIT
 70
     2
  9
$DIMDEC
 70
     3
  9
$DIMTDEC
 70
     3
  9
$DIMALTU
 70
     2
  9
$DIMALTTD
 70
     2
  9
$DIMTXSTY
  7
ONSHAPE-STANDARD-DIMENSION
  9
$DIMAUNIT
 70
     0
  9
$LUNITS
 70
     2
  9
$LUPREC
 70
     4
  9
$SKETCHINC
 40
0.1
  9
$FILLETRAD
 40
0.5
  9
$AUNITS
 70
     0
  9
$AUPREC
 70
     0
  9
$MENU
  1
.
  9
$ELEVATION
 40
0.0
  9
$PELEVATION
 40
0.0
  9
$THICKNESS
 40
0.0
  9
$LIMCHECK
 70
     0
  9
$CHAMFERA
 40
0.0
  9
$CHAMFERB
 40
0.0
  9
$CHAMFERC
 40
0.0
  9
$CHAMFERD
 40
0.0
  9
$SKPOLY
 70
     0
  9
$TDCREATE
 40
2459107.1331275
  9
$TDUPDATE
 40
2459107.133127882
  9
$TDINDWG
 40
0.0
  9
$TDUSRTIMER
 40
0.0
  9
$USRTIMER
 70
     1
  9
$ANGBASE
 50
0.0
  9
$ANGDIR
 70
     0
  9
$PDMODE
 70
    33
  9
$PDSIZE
 40
0.0393700787401575
  9
$PLINEWID
 40
0.0
  9
$COORDS
 70
     1
  9
$SPLFRAME
 70
     0
  9
$SPLINETYPE
 70
     6
  9
$SPLINESEGS
 70
     8
  9
$ATTDIA
 70
     0
  9
$ATTREQ
 70
     1
  9
$HANDLING
 70
     1
  9
$HANDSEED
  5
11D
  9
$SURFTAB1
 70
     6
  9
$SURFTAB2
 70
     6
  9
$SURFTYPE
 70
     6
  9
$SURFU
 70
     6
  9
$SURFV
 70
     6
  9
$UCSNAME
  2

  9
$UCSORG
 10
0.0
 20
0.0
 30
0.0
  9
$UCSXDIR
 10
1.0
 20
0.0
 30
0.0
  9
$UCSYDIR
 10
0.0
 20
1.0
 30
0.0
  9
$PUCSNAME
  2

  9
$PUCSORG
 10
0.0
 20
0.0
 30
0.0
  9
$PUCSXDIR
 10
1.0
 20
0.0
 30
0.0
  9
$PUCSYDIR
 10
0.0
 20
1.0
 30
0.0
  9
$USERI1
 70
     0
  9
$USERI2
 70
     0
  9
$USERI3
 70
     0
  9
$USERI4
 70
     0
  9
$USERI5
 70
     0
  9
$USERR1
 40
0.0
  9
$USERR2
 40
0.0
  9
$USERR3
 40
0.0
  9
$USERR4
 40
0.0
  9
$USERR5
 40
0.0
  9
$WORLDVIEW
 70
     1
  9
$SHADEDGE
 70
     3
  9
$SHADEDIF
 70
    70
  9
$TILEMODE
 70
     1
  9
$MAXACTVP
 70
    64
  9
$PINSBASE
 10
0.0
 20
0.0
 30
0.0
  9
$PLIMCHECK
 70
     0
  9
$PEXTMIN
 10
1.000000000000000E+20
 20
1.000000000000000E+20
 30
1.000000000000000E+20
  9
$PEXTMAX
 10
-1.000000000000000E+20
 20
-1.000000000000000E+20
 30
-1.000000000000000E+20
  9
$PLIMMIN
 10
0.0
 20
0.0
  9
$PLIMMAX
 10
12.0
 20
9.0
  9
$UNITMODE
 70
     0
  9
$VISRETAIN
 70
     1
  9
$PLINEGEN
 70
     0
  9
$PSLTSCALE
 70
     1
  9
$TREEDEPTH
 70
  3020
  9
$PICKSTYLE
 70
     1
  9
$CMLSTYLE
  2
STANDARD
  9
$CMLJUST
 70
     0
  9
$CMLSCALE
 40
1.0
  9
$SAVEIMAGES
 70
     1
  0
ENDSEC
  0
SECTION
  2
CLASSES
  0
CLASS
  1
ACDBDICTIONARYWDFLT
  2
AcDbDictionaryWithDefault
  3
ObjectDBX Classes
 90
    32768
280
     0
281
     0
  0
CLASS
  1
VISUALSTYLE
  2
AcDbVisualStyle
  3
ObjectDBX Classes
 90
     4095
280
     0
281
     0
  0
CLASS
  1
MATERIAL
  2
AcDbMaterial
  3
ObjectDBX Classes
 90
     1153
280
     0
281
     0
  0
CLASS
  1
SCALE
  2
AcDbScale
  3
ObjectDBX Classes
 90
     1153
280
     0
281
     0
  0
CLASS
  1
TABLESTYLE
  2
AcDbTableStyle
  3
ObjectDBX Classes
 90
     4095
280
     0
281
     0
  0
CLASS
  1
MLEADERSTYLE
  2
AcDbMLeaderStyle
  3
ACDB_MLEADERSTYLE_CLASS
 90
     4095
280
     0
281
     0
  0
CLASS
  1
SUN
  2
AcDbSun
  3
SCENEOE
 90
     1153
280
     0
281
     0
  0
CLASS
  1
DICTIONARYVAR
  2
AcDbDictionaryVar
  3
ObjectDBX Classes
 90
        0
280
     0
281
     0
  0
CLASS
  1
XRECORD
  2
AcDbXrecord
  3
ObjectDBX Classes
 90
    32768
280
     0
281
     0
  0
CLASS
  1
LWPOLYLINE
  2
AcDbPolyline
  3
ObjectDBX Classes
 90
    32768
280
     0
281
     1
  0
CLASS
  1
HATCH
  2
AcDbHatch
  3
ObjectDBX Classes
 90
    32768
280
     0
281
     1
  0
CLASS
  1
ACDBPLACEHOLDER
  2
AcDbPlaceHolder
  3
ObjectDBX Classes
 90
        0
280
     0
281
     0
  0
CLASS
  1
LAYOUT
  2
AcDbLayout
  3
ObjectDBX Classes
 90
        0
280
     0
281
     0
  0
ENDSEC
  0
SECTION
  2
TABLES
  0
TABLE
  2
VPORT
  5
8
330
0
100
AcDbSymbolTable
 70
     1
  0
VPORT
  5
29
330
8
100
AcDbSymbolTableRecord
100
AcDbViewportTableRecord
  2
*ACTIVE
 70
     0
 10
0.0
 20
0.0
 11
1.0
 21
1.0
 12
5.929493374673608
 22
4.963401373117033
 13
0.0
 23
0.0
 14
0.5
 24
0.5
 15
0.5
 25
0.5
 16
0.0
 26
0.0
 36
1.0
 17
0.0
 27
0.0
 37
0.0
 40
4.708175035346097
 41
0.6439446428493977
 42
50.0
 43
0.0
 44
0.0
 50
0.0
 51
0.0
 71
     0
 72
   100
 73
     1
 74
     3
 75
     0
 76
     0
 77
     0
 78
     0
  0
ENDTAB
  0
TABLE
  2
LTYPE
  5
5
330
0
100
AcDbSymbolTable
 70
     1
  0
LTYPE
  5
14
330
5
100
AcDbSymbolTableRecord
100
AcDbLinetypeTableRecord
  2
BYBLOCK
 70
     0
  3

 72
    65
 73
     0
 40
0.0
  0
LTYPE
  5
15
330
5
100
AcDbSymbolTableRecord
100
AcDbLinetypeTableRecord
  2
BYLAYER
 70
     0
  3

 72
    65
 73
     0
 40
0.0
  0
LTYPE
  5
16
330
5
100
AcDbSymbolTableRecord
100
AcDbLinetypeTableRecord
  2
CONTINUOUS
 70
     0
  3
Solid line
 72
    65
 73
     0
 40
0.0
  0
ENDTAB
  0
TABLE
  2
LAYER
  5
2
330
0
100
AcDbSymbolTable
 70
     4
  0
LAYER
  5
10
330
2
100
AcDbSymbolTableRecord
100
AcDbLayerTableRecord
  2
0
 70
     0
 62
     7
  6
CONTINUOUS
  0
LAYER
  5
76
330
2
100
AcDbSymbolTableRecord
100
AcDbLayerTableRecord
  2
ANNOTATION_TEXT
 70
     0
 62
     7
  6
CONTINUOUS
  0
LAYER
  5
7A
330
2
100
AcDbSymbolTableRecord
100
AcDbLayerTableRecord
  2
VISIBLE
 70
     0
 62
     7
  6
CONTINUOUS
  0
LAYER
  5
7C
330
2
100
AcDbSymbolTableRecord
100
AcDbLayerTableRecord
  2
TANGENT_LINES
 70
     0
 62
     7
  6
CONTINUOUS
  0
ENDTAB
  0
TABLE
  2
STYLE
  5
3
330
0
100
AcDbSymbolTable
 70
    27
  0
STYLE
  5
11
330
3
100
AcDbSymbolTableRecord
100
AcDbTextStyleTableRecord
  2
STANDARD
 70
     0
 40
0.0
 41
1.0
 50
0.0
 71
     0
 42
0.12
  3
txt
  4

  0
STYLE
  5
70
330
3
100
AcDbSymbolTableRecord
100
AcDbTextStyleTableRecord
  2
ONSHAPE-STANDARD
 70
     0
 40
0.0
 41
1.0
 50
0.0
 71
     0
 42
0.12
  3
NotoSans-Regular.ttf
  4

1001
ACAD
1000
Noto Sans
1071
        0
  0
STYLE
  5
72
330
3
100
AcDbSymbolTableRecord
100
AcDbTextStyleTableRecord
  2
ONSHAPE-STANDARD-DIMENSION
 70
     0
 40
0.0
 41
1.0
 50
0.0
 71
     0
 42
0.12
  3

  4

1001
ACAD
1000
Noto Sans
1071
        0
  0
STYLE
  5
79
330
3
100
AcDbSymbolTableRecord
100
AcDbTextStyleTableRecord
  2
ONSHAPE-STANDARD-VIEW-LABE
 70
     0
 40
0.12
 41
1.0
 50
0.0
 71
     0
 42
0.12
  3
NotoSans-Regular.ttf
  4

1001
ACAD
1000
Noto Sans
1071
        0
  0
STYLE
  5
CF
330
3
100
AcDbSymbolTableRecord
100
AcDbTextStyleTableRecord
  2
ONSHAPE-STANDARD-BOLD
 70
     0
 40
0.0
 41
1.0
 50
0.0
 71
     0
 42
0.12
  3
NotoSans-Bold.ttf
  4

1001
ACAD
1000
Noto Sans
1071
 33554432
  0
STYLE
  5
D0
330
3
100
AcDbSymbolTableRecord
100
AcDbTextStyleTableRecord
  2
ONSHAPE-STANDARD-FIELDS
 70
     0
 40
0.0
 41
1.0
 50
0.0
 71
     0
 42
0.12
  3

  4

1001
ACAD
1000
Noto Sans
1071
        0
  0
STYLE
  5
D1
330
3
100
AcDbSymbolTableRecord
100
AcDbTextStyleTableRecord
  2
ONSHAPE-STANDARD-TCFIELDS
 70
     0
 40
0.0
 41
1.0
 50
0.0
 71
     0
 42
0.12
  3
NotoSansTC-Regular.otf
  4

1001
ACAD
1000
Noto Sans TC
1071
        0
  0
STYLE
  5
D2
330
3
100
AcDbSymbolTableRecord
100
AcDbTextStyleTableRecord
  2
ONSHAPE-STANDARD-SCFIELDS
 70
     0
 40
0.0
 41
1.0
 50
0.0
 71
     0
 42
0.12
  3
NotoSansSC-Regular.otf
  4

1001
ACAD
1000
Noto Sans SC
1071
        0
  0
STYLE
  5
D3
330
3
100
AcDbSymbolTableRecord
100
AcDbTextStyleTableRecord
  2
ONSHAPE-STANDARD-KOREANFIE
 70
     0
 40
0.0
 41
1.0
 50
0.0
 71
     0
 42
0.12
  3
NotoSansKR-Regular.otf
  4

1001
ACAD
1000
Noto Sans KR
1071
        0
  0
STYLE
  5
D5
330
3
100
AcDbSymbolTableRecord
100
AcDbTextStyleTableRecord
  2
TTFSTYLE
 70
     0
 40
0.0
 41
1.0
 50
0.0
 71
     0
 42
0.12
  3
Verdana.ttf
  4

1001
ACAD
1000
Verdana
1071
       34
  0
STYLE
  5
D6
330
3
100
AcDbSymbolTableRecord
100
AcDbTextStyleTableRecord
  2
ONSHAPE-STANDARD-GTOLERANC
 70
     0
 40
0.0
 41
1.0
 50
0.0
 71
     0
 42
0.12
  3

  4

1001
ACAD
1000
Noto Sans
1071
        0
  0
STYLE
  5
D7
330
3
100
AcDbSymbolTableRecord
100
AcDbTextStyleTableRecord
  2
ONSHAPE-STANDARD-TABLE-DAT
 70
     0
 40
0.0
 41
1.0
 50
0.0
 71
     0
 42
0.12
  3
NotoSans-Regular.ttf
  4

1001
ACAD
1000
Noto Sans
1071
        0
  0
STYLE
  5
D8
330
3
100
AcDbSymbolTableRecord
100
AcDbTextStyleTableRecord
  2
ONSHAPE-STANDARD-TABLE-TIT
 70
     0
 40
0.0
 41
1.0
 50
0.0
 71
     0
 42
0.12
  3
NotoSans-Bold.ttf
  4

1001
ACAD
1000
Noto Sans
1071
 33554432
  0
STYLE
  5
D9
330
3
100
AcDbSymbolTableRecord
100
AcDbTextStyleTableRecord
  2
ONSHAPE-STANDARD-TABLE-HEA
 70
     0
 40
0.0
 41
1.0
 50
0.0
 71
     0
 42
0.12
  3
NotoSans-Bold.ttf
  4

1001
ACAD
1000
Noto Sans
1071
 33554432
  0
STYLE
  5
DA
330
3
100
AcDbSymbolTableRecord
100
AcDbTextStyleTableRecord
  2
ONSHAPE-STANDARD-BOMTABLE-
 70
     0
 40
0.0
 41
1.0
 50
0.0
 71
     0
 42
0.12
  3
NotoSans-Regular.ttf
  4

1001
ACAD
1000
Noto Sans
1071
        0
  0
STYLE
  5
DB
330
3
100
AcDbSymbolTableRecord
100
AcDbTextStyleTableRecord
  2
ONSHAPE-STANDARD-BOMTABLE0
 70
     0
 40
0.0
 41
1.0
 50
0.0
 71
     0
 42
0.12
  3
NotoSans-Bold.ttf
  4

1001
ACAD
1000
Noto Sans
1071
 33554432
  0
STYLE
  5
DC
330
3
100
AcDbSymbolTableRecord
100
AcDbTextStyleTableRecord
  2
ONSHAPE-STANDARD-BOMTABLE1
 70
     0
 40
0.0
 41
1.0
 50
0.0
 71
     0
 42
0.12
  3
NotoSans-Bold.ttf
  4

1001
ACAD
1000
Noto Sans
1071
 33554432
  0
STYLE
  5
DD
330
3
100
AcDbSymbolTableRecord
100
AcDbTextStyleTableRecord
  2
ONSHAPE-STANDARD-NOTESTYLE
 70
     0
 40
0.12
 41
1.0
 50
0.0
 71
     0
 42
0.12
  3
Noto Sans
  4

1001
ACAD
1000
Noto Sans
1071
        0
  0
STYLE
  5
DF
330
3
100
AcDbSymbolTableRecord
100
AcDbTextStyleTableRecord
  2
ONSHAPE-STANDARD-HOLE-CALL
 70
     0
 40
0.12
 41
1.0
 50
0.0
 71
     0
 42
0.12
  3
Noto Sans
  4

1001
ACAD
1000
Noto Sans
1071
        0
  0
STYLE
  5
E0
330
3
100
AcDbSymbolTableRecord
100
AcDbTextStyleTableRecord
  2
ONSHAPE-STANDARD-HOLETABLE
 70
     0
 40
0.0
 41
1.0
 50
0.0
 71
     0
 42
0.12
  3
NotoSans-Regular.ttf
  4

1001
ACAD
1000
Noto Sans
1071
        0
  0
STYLE
  5
E1
330
3
100
AcDbSymbolTableRecord
100
AcDbTextStyleTableRecord
  2
ONSHAPE-STANDARD-HOLETABL0
 70
     0
 40
0.0
 41
1.0
 50
0.0
 71
     0
 42
0.12
  3
NotoSans-Bold.ttf
  4

1001
ACAD
1000
Noto Sans
1071
 33554432
  0
STYLE
  5
E2
330
3
100
AcDbSymbolTableRecord
100
AcDbTextStyleTableRecord
  2
ONSHAPE-STANDARD-HOLETABL1
 70
     0
 40
0.0
 41
1.0
 50
0.0
 71
     0
 42
0.12
  3
NotoSans-Bold.ttf
  4

1001
ACAD
1000
Noto Sans
1071
 33554432
  0
STYLE
  5
E3
330
3
100
AcDbSymbolTableRecord
100
AcDbTextStyleTableRecord
  2
ONSHAPE-STANDARD-HOLE-TAG
 70
     0
 40
0.12
 41
1.0
 50
0.0
 71
     0
 42
0.12
  3
Noto Sans
  4

1001
ACAD
1000
Noto Sans
1071
        0
  0
STYLE
  5
E4
330
3
100
AcDbSymbolTableRecord
100
AcDbTextStyleTableRecord
  2
ONSHAPE-STANDARD-REVISIONT
 70
     0
 40
0.0
 41
1.0
 50
0.0
 71
     0
 42
0.12
  3
NotoSans-Regular.ttf
  4

1001
ACAD
1000
Noto Sans
1071
        0
  0
STYLE
  5
E5
330
3
100
AcDbSymbolTableRecord
100
AcDbTextStyleTableRecord
  2
ONSHAPE-STANDARD-REVISION0
 70
     0
 40
0.0
 41
1.0
 50
0.0
 71
     0
 42
0.12
  3
NotoSans-Bold.ttf
  4

1001
ACAD
1000
Noto Sans
1071
 33554432
  0
STYLE
  5
E6
330
3
100
AcDbSymbolTableRecord
100
AcDbTextStyleTableRecord
  2
ONSHAPE-STANDARD-REVISION1
 70
     0
 40
0.0
 41
1.0
 50
0.0
 71
     0
 42
0.12
  3
NotoSans-Bold.ttf
  4

1001
ACAD
1000
Noto Sans
1071
 33554432
  0
STYLE
  5
E7
330
3
100
AcDbSymbolTableRecord
100
AcDbTextStyleTableRecord
  2
ONSHAPE-STANDARD-REVISION-
 70
     0
 40
0.12
 41
1.0
 50
0.0
 71
     0
 42
0.12
  3
Noto Sans
  4

1001
ACAD
1000
Noto Sans
1071
        0
  0
ENDTAB
  0
TABLE
  2
VIEW
  5
6
330
0
100
AcDbSymbolTable
 70
     0
  0
ENDTAB
  0
TABLE
  2
UCS
  5
7
330
0
100
AcDbSymbolTable
 70
     0
  0
ENDTAB
  0
TABLE
  2
APPID
  5
9
330
0
100
AcDbSymbolTable
 70
     2
  0
APPID
  5
12
330
9
100
AcDbSymbolTableRecord
100
AcDbRegAppTableRecord
  2
ACAD
 70
     0
  0
APPID
  5
11C
330
9
100
AcDbSymbolTableRecord
100
AcDbRegAppTableRecord
  2
ACAD_MLEADERVER
 70
     0
  0
ENDTAB
  0
TABLE
  2
DIMSTYLE
  5
A
330
0
100
AcDbSymbolTable
 70
    17
  0
DIMSTYLE
105
27
330
A
100
AcDbSymbolTableRecord
100
AcDbDimStyleTableRecord
  2
STANDARD
 70
     0
  3

  4

  5

  6

  7

 40
1.0
 41
0.18
 42
0.0625
 43
0.38
 44
0.18
 45
0.0
 46
0.0
 47
0.0
 48
0.0
140
0.18
141
0.09
142
0.0
143
25.4
144
1.0
145
0.0
146
1.0
147
0.09
 71
     0
 72
     0
 73
     1
 74
     1
 75
     0
 76
     0
 77
     0
 78
     0
170
     0
171
     2
172
     0
173
     0
174
     0
175
     0
176
     0
177
     0
178
     0
270
     2
271
     4
272
     4
273
     2
274
     2
340
11
275
     0
280
     0
281
     0
282
     0
283
     1
284
     0
285
     0
286
     0
287
     3
288
     0
  0
DIMSTYLE
105
71
330
A
100
AcDbSymbolTableRecord
100
AcDbDimStyleTableRecord
  2
ONSHAPE-STANDARD
 70
     0
  3

  4

  5

  6

  7

 40
1.0
 41
0.18
 42
0.0625
 43
0.38
 44
0.08
 45
0.0
 46
0.0
 47
0.0
 48
0.0
140
0.12
141
0.09
142
0.0
143
25.4
144
1.0
145
0.0
146
1.0
147
0.09
 71
     0
 72
     0
 73
     1
 74
     1
 75
     0
 76
     0
 77
     0
 78
     7
170
     0
171
     2
172
     0
173
     0
174
     0
175
     0
176
     7
177
     7
178
     7
179
     1
270
     2
271
     3
272
     3
273
     2
274
     2
340
72
275
     0
280
     0
281
     0
282
     0
283
     1
284
     7
285
     7
286
     0
287
     3
288
     1
  0
DIMSTYLE
105
EA
330
A
100
AcDbSymbolTableRecord
100
AcDbDimStyleTableRecord
  2
ANSI
 70
     0
  3

  4
mm
  5

  6

  7

 40
1.0
 41
0.12
 42
0.05
 43
0.5
 44
0.1
 45
0.0
 46
0.0
 47
0.1
 48
0.1
140
0.12
141
0.0
142
0.0
143
25.4
144
1.0
145
0.0
146
0.71
147
0.06
 71
     0
 72
     0
 73
     1
 74
     1
 75
     0
 76
     0
 77
     0
 78
     7
170
     0
171
     2
172
     0
173
     0
174
     0
175
     0
176
     7
177
     7
178
     7
270
     2
271
     3
272
     4
273
     2
274
     2
340
11
275
     0
280
     0
281
     0
282
     0
283
     1
284
     7
285
     7
286
     0
287
     3
288
     1
  0
DIMSTYLE
105
EB
330
A
100
AcDbSymbolTableRecord
100
AcDbDimStyleTableRecord
  2
ANSI$3
 70
     0
  3

  4
mm
  5

  6

  7

 40
1.0
 41
0.12
 42
0.05
 43
0.5
 44
0.1
 45
0.0
 46
0.0
 47
0.1
 48
0.1
140
0.12
141
0.0
142
0.0
143
25.4
144
1.0
145
0.0
146
0.71
147
0.06
 71
     0
 72
     0
 73
     1
 74
     1
 75
     0
 76
     0
 77
     0
 78
     7
170
     0
171
     2
172
     0
173
     0
174
     0
175
     0
176
     7
177
     7
178
     7
270
     2
271
     3
272
     4
273
     2
274
     2
340
11
275
     0
280
     0
281
     0
282
     0
283
     1
284
     7
285
     7
286
     0
288
     1
  0
DIMSTYLE
105
EC
330
A
100
AcDbSymbolTableRecord
100
AcDbDimStyleTableRecord
  2
ANSI$4
 70
     0
  3

  4
mm
  5

  6

  7

 40
1.0
 41
0.12
 42
0.05
 43
0.5
 44
0.1
 45
0.0
 46
0.0
 47
0.1
 48
0.1
140
0.12
141
0.0
142
0.0
143
25.4
144
1.0
145
0.0
146
0.71
147
0.06
 71
     0
 72
     0
 73
     1
 74
     1
 75
     0
 76
     0
 77
     0
 78
     7
170
     0
171
     2
172
     0
173
     0
174
     0
175
     0
176
     7
177
     7
178
     7
270
     2
271
     3
272
     4
273
     2
274
     2
340
11
275
     0
280
     0
281
     0
282
     0
283
     1
284
     7
285
     7
286
     0
287
     3
288
     1
  0
DIMSTYLE
105
ED
330
A
100
AcDbSymbolTableRecord
100
AcDbDimStyleTableRecord
  2
ANSI$7
 70
     0
  3

  4
mm
  5

  6

  7

 40
1.0
 41
0.12
 42
0.05
 43
0.5
 44
0.1
 45
0.0
 46
0.0
 47
0.1
 48
0.1
140
0.12
141
0.0
142
0.0
143
25.4
144
1.0
145
0.0
146
0.71
147
0.06
 71
     0
 72
     0
 73
     1
 74
     1
 75
     0
 76
     0
 77
     0
 78
     7
170
     0
171
     2
172
     0
173
     0
174
     0
175
     0
176
     7
177
     7
178
     7
270
     2
271
     3
272
     4
273
     2
274
     2
340
11
275
     0
280
     0
281
     0
282
     0
283
     1
284
     7
285
     7
286
     0
287
     3
288
     1
  0
DIMSTYLE
105
EE
330
A
100
AcDbSymbolTableRecord
100
AcDbDimStyleTableRecord
  2
ANSI$SF
 70
     0
  3

  4
mm
  5

  6

  7

 40
1.0
 41
0.12
 42
0.05
 43
0.5
 44
0.1
 45
0.0
 46
0.0
 47
0.1
 48
0.1
140
0.12
141
0.0
142
0.0
143
25.4
144
1.0
145
0.0
146
0.71
147
0.06
 71
     0
 72
     0
 73
     1
 74
     1
 75
     1
 76
     1
 77
     0
 78
     7
170
     0
171
     2
172
     0
173
     0
174
     0
175
     0
176
     7
177
     7
178
     7
270
     2
271
     3
272
     4
273
     2
274
     2
340
11
275
     0
280
     0
281
     0
282
     0
283
     1
284
     7
285
     7
286
     0
287
     3
288
     1
  0
DIMSTYLE
105
EF
330
A
100
AcDbSymbolTableRecord
100
AcDbDimStyleTableRecord
  2
ANSI$SH
 70
     0
  3

  4
mm
  5

  6

  7

 40
1.0
 41
0.12
 42
0.05
 43
0.5
 44
0.1
 45
0.0
 46
0.0
 47
0.1
 48
0.1
140
0.12
141
0.0
142
0.0
143
25.4
144
1.0
145
0.0
146
0.71
147
0.06
 71
     0
 72
     0
 73
     1
 74
     1
 75
     1
 76
     1
 77
     0
 78
     7
170
     0
171
     2
172
     0
173
     1
174
     0
175
     0
176
     7
177
     7
178
     7
270
     2
271
     3
272
     4
273
     2
274
     2
340
11
275
     0
280
     0
281
     0
282
     0
283
     1
284
     7
285
     7
286
     0
287
     3
288
     1
  0
DIMSTYLE
105
F2
330
A
100
AcDbSymbolTableRecord
100
AcDbDimStyleTableRecord
  2
ONSHAPE-STANDARD$0
 70
     0
  3

  4

  5

  6

  7

 40
1.0
 41
0.18
 42
0.0625
 43
0.38
 44
0.08
 45
0.0
 46
0.0
 47
0.0
 48
0.0
140
0.12
141
0.09
142
0.0
143
25.4
144
1.0
145
0.0
146
1.0
147
0.09
 71
     0
 72
     0
 73
     1
 74
     1
 75
     0
 76
     0
 77
     0
 78
     7
170
     0
171
     2
172
     0
173
     0
174
     0
175
     0
176
     7
177
     7
178
     7
179
     1
270
     2
271
     3
272
     3
273
     2
274
     2
340
72
275
     0
280
     0
281
     0
282
     0
283
     1
284
     7
285
     7
286
     0
287
     3
288
     1
  0
DIMSTYLE
105
F3
330
A
100
AcDbSymbolTableRecord
100
AcDbDimStyleTableRecord
  2
ONSHAPE-STANDARD$2
 70
     0
  3

  4

  5

  6

  7

 40
1.0
 41
0.18
 42
0.0625
 43
0.38
 44
0.08
 45
0.0
 46
0.0
 47
0.0
 48
0.0
140
0.12
141
0.09
142
0.0
143
25.4
144
1.0
145
0.0
146
1.0
147
0.09
 71
     0
 72
     0
 73
     1
 74
     1
 75
     0
 76
     0
 77
     0
 78
     7
170
     0
171
     2
172
     0
173
     0
174
     0
175
     0
176
     7
177
     7
178
     7
179
     1
270
     2
271
     3
272
     3
273
     2
274
     2
340
72
275
     0
280
     0
281
     0
282
     0
283
     1
284
     7
285
     7
286
     0
287
     3
288
     1
  0
DIMSTYLE
105
F4
330
A
100
AcDbSymbolTableRecord
100
AcDbDimStyleTableRecord
  2
ONSHAPE-STANDARD$3
 70
     0
  3

  4

  5

  6

  7

 40
1.0
 41
0.18
 42
0.0625
 43
0.38
 44
0.08
 45
0.0
 46
0.0
 47
0.0
 48
0.0
140
0.12
141
0.0
142
0.0
143
25.4
144
1.0
145
0.0
146
1.0
147
0.09
 71
     0
 72
     0
 73
     1
 74
     1
 75
     0
 76
     0
 77
     0
 78
     7
170
     0
171
     2
172
     0
173
     0
174
     0
175
     0
176
     7
177
     7
178
     7
179
     1
270
     2
271
     3
272
     3
273
     2
274
     2
340
72
275
     0
280
     0
281
     0
282
     0
283
     1
284
     7
285
     7
286
     0
287
     3
288
     1
  0
DIMSTYLE
105
F5
330
A
100
AcDbSymbolTableRecord
100
AcDbDimStyleTableRecord
  2
ONSHAPE-STANDARD$4
 70
     0
  3

  4

  5

  6

  7

 40
1.0
 41
0.18
 42
0.0625
 43
0.38
 44
0.08
 45
0.0
 46
0.0
 47
0.0
 48
0.0
140
0.12
141
0.0
142
0.0
143
25.4
144
1.0
145
0.0
146
1.0
147
0.09
 71
     0
 72
     0
 73
     1
 74
     1
 75
     0
 76
     0
 77
     0
 78
     7
170
     0
171
     2
172
     0
173
     0
174
     0
175
     0
176
     7
177
     7
178
     7
179
     1
270
     2
271
     3
272
     3
273
     2
274
     2
340
72
275
     0
280
     0
281
     0
282
     0
283
     1
284
     7
285
     7
286
     0
287
     3
288
     1
  0
DIMSTYLE
105
F6
330
A
100
AcDbSymbolTableRecord
100
AcDbDimStyleTableRecord
  2
ONSHAPE-STANDARD$6
 70
     0
  3

  4

  5

  6

  7

 40
1.0
 41
0.02
 42
0.0625
 43
0.38
 44
0.08
 45
0.0
 46
0.0
 47
0.0
 48
0.0
140
0.12
141
0.09
142
0.0
143
25.4
144
1.0
145
0.0
146
1.0
147
0.09
 71
     0
 72
     0
 73
     1
 74
     1
 75
     0
 76
     0
 77
     0
 78
     7
170
     0
171
     2
172
     0
173
     0
174
     0
175
     0
176
     7
177
     7
178
     7
179
     1
270
     2
271
     3
272
     3
273
     2
274
     2
340
72
275
     0
280
     0
281
     0
282
     0
283
     1
284
     7
285
     7
286
     0
287
     3
288
     1
  0
DIMSTYLE
105
F7
330
A
100
AcDbSymbolTableRecord
100
AcDbDimStyleTableRecord
  2
ONSHAPE-STANDARD$7
 70
     0
  3

  4

  5

  6

  7

 40
1.0
 41
0.18
 42
0.0625
 43
0.38
 44
0.08
 45
0.0
 46
0.0
 47
0.0
 48
0.0
140
0.12
141
0.09
142
0.0
143
25.4
144
1.0
145
0.0
146
1.0
147
0.09
 71
     0
 72
     0
 73
     1
 74
     1
 75
     0
 76
     0
 77
     0
 78
     7
170
     0
171
     2
172
     0
173
     0
174
     0
175
     0
176
     7
177
     7
178
     7
179
     1
270
     2
271
     3
272
     3
273
     2
274
     2
340
72
275
     0
280
     0
281
     0
282
     0
283
     1
284
     7
285
     7
286
     0
287
     3
288
     1
  0
DIMSTYLE
105
F8
330
A
100
AcDbSymbolTableRecord
100
AcDbDimStyleTableRecord
  2
ONSHAPE-STANDARD-GTOLERANC
 70
     0
  3

  4

  5

  6

  7

 40
1.0
 41
0.18
 42
0.0625
 43
0.38
 44
0.08
 45
0.0
 46
0.0
 47
0.0
 48
0.0
140
0.12
141
0.09
142
0.0
143
25.4
144
1.0
145
0.0
146
1.0
147
0.09
 71
     0
 72
     0
 73
     1
 74
     1
 75
     0
 76
     0
 77
     0
 78
     7
170
     0
171
     2
172
     0
173
     0
174
     0
175
     0
176
     7
177
     7
178
     7
179
     1
270
     2
271
     3
272
     3
273
     2
274
     2
340
D6
275
     0
280
     0
281
     0
282
     0
283
     1
284
     7
285
     7
286
     0
287
     3
288
     1
  0
DIMSTYLE
105
FA
330
A
100
AcDbSymbolTableRecord
100
AcDbDimStyleTableRecord
  2
ONSHAPE-ORDINATESTYLE
 70
     0
  3

  4

  5

  6

  7

 40
1.0
 41
0.02
 42
0.0625
 43
0.38
 44
0.08
 45
0.0
 46
0.0
 47
0.0
 48
0.0
140
0.12
141
0.09
142
0.0
143
25.4
144
1.0
145
0.0
146
1.0
147
0.09
 71
     0
 72
     0
 73
     1
 74
     1
 75
     0
 76
     0
 77
     0
 78
     7
170
     0
171
     2
172
     0
173
     0
174
     0
175
     0
176
     7
177
     7
178
     7
179
     1
270
     2
271
     3
272
     3
273
     2
274
     2
340
72
275
     0
280
     0
281
     0
282
     0
283
     1
284
     7
285
     7
286
     0
287
     3
288
     1
  0
DIMSTYLE
105
FB
330
A
100
AcDbSymbolTableRecord
100
AcDbDimStyleTableRecord
  2
ONSHAPE-CHAMFERDIMSTYLE
 70
     0
  3

  4

  5

  6

  7

 40
1.0
 41
0.18
 42
0.0625
 43
0.38
 44
0.08
 45
0.0
 46
0.0
 47
0.0
 48
0.0
140
0.12
141
0.09
142
0.0
143
25.4
144
1.0
145
0.0
146
1.0
147
0.09
 71
     0
 72
     0
 73
     1
 74
     1
 75
     0
 76
     0
 77
     0
 78
     7
170
     0
171
     2
172
     0
173
     0
174
     0
175
     0
176
     7
177
     7
178
     7
179
     1
270
     2
271
     3
272
     3
273
     2
274
     2
340
72
275
     0
280
     0
281
     0
282
     0
283
     1
284
     7
285
     7
286
     0
287
     3
288
     1
  0
ENDTAB
  0
TABLE
  2
BLOCK_RECORD
  5
1
330
0
100
AcDbSymbolTable
 70
     0
  0
BLOCK_RECORD
  5
1F
330
1
100
AcDbSymbolTableRecord
100
AcDbBlockTableRecord
  2
*MODEL_SPACE
  0
BLOCK_RECORD
  5
1B
330
1
100
AcDbSymbolTableRecord
100
AcDbBlockTableRecord
  2
*PAPER_SPACE
  0
ENDTAB
  0
ENDSEC
  0
SECTION
  2
BLOCKS
  0
BLOCK
  5
20
330
1F
100
AcDbEntity
  8
0
100
AcDbBlockBegin
  2
*MODEL_SPACE
 70
     0
 10
0.0
 20
0.0
 30
0.0
  3
*MODEL_SPACE
  1

  0
ENDBLK
  5
21
330
1F
100
AcDbEntity
  8
0
100
AcDbBlockEnd
  0
BLOCK
  5
1C
330
1B
100
AcDbEntity
 67
     1
  8
0
100
AcDbBlockBegin
  2
*PAPER_SPACE
 70
     0
 10
0.0
 20
0.0
 30
0.0
  3
*PAPER_SPACE
  1

  0
ENDBLK
  5
1D
330
1B
100
AcDbEntity
 67
     1
  8
0
100
AcDbBlockEnd
  0
ENDSEC
  0
SECTION
  2
ENTITIES
  0
MTEXT
  5
73
102
{ACAD_XDICTIONARY
360
74
102
}
330
1F
100
AcDbEntity
  8
ANNOTATION_TEXT
 62
     7
 60
     1
100
AcDbMText
 10
5.929493374673608
 20
2.364679540332373
 30
0.0
 40
0.12
 41
0.0
 71
     2
 72
     1
  1

  7
ONSHAPE-STANDARD-VIEW-LABE
1001
ACAD
1000
ACAD_MTEXT_DEFINED_HEIGHT_BEGIN
1070
    46
1040
0.12
1000
ACAD_MTEXT_DEFINED_HEIGHT_END
  0
CIRCLE
  5
7D
330
1F
100
AcDbEntity
  8
VISIBLE
100
AcDbCircle
 10
7.046584714869907
 20
4.909125587602722
 30
0.0
 40
0.1082677165354331
  0
CIRCLE
  5
7E
330
1F
100
AcDbEntity
  8
VISIBLE
100
AcDbCircle
 10
4.812402034477312
 20
4.909125587602734
 30
0.0
 40
0.1082677165354331
  0
CIRCLE
  5
7F
330
1F
100
AcDbEntity
  8
VISIBLE
100
AcDbCircle
 10
5.929499079438074
 20
4.909585947499141
 30
0.0
 40
0.1811023622047244
  0
CIRCLE
  5
80
330
1F
100
AcDbEntity
  8
VISIBLE
100
AcDbCircle
 10
4.812402034477312
 20
4.909125587602734
 30
0.0
 40
0.0590551181102362
  0
CIRCLE
  5
81
330
1F
100
AcDbEntity
  8
VISIBLE
100
AcDbCircle
 10
7.046584714869907
 20
4.909125587602722
 30
0.0
 40
0.0590551181102362
  0
LINE
  5
82
330
1F
100
AcDbEntity
  8
TANGENT_LINES
100
AcDbLine
 10
4.443314898394985
 20
4.90912558760273
 30
0.0
 11
4.449114113393619
 21
4.90912558760273
 31
0.0
  0
LINE
  5
83
330
1F
100
AcDbEntity
  8
TANGENT_LINES
100
AcDbLine
 10
7.415671850952233
 20
4.90912558760273
 30
0.0
 11
7.409872635953599
 21
4.90912558760273
 31
0.0
  0
LINE
  5
84
330
1F
100
AcDbEntity
  8
VISIBLE
100
AcDbLine
 10
4.908455185314894
 20
7.271330312012179
 30
0.0
 11
6.950531564032324
 21
7.271330312012179
 31
0.0
  0
LINE
  5
85
330
1F
100
AcDbEntity
  8
TANGENT_LINES
100
AcDbLine
 10
4.91355869884389
 20
7.265447130271832
 30
0.0
 11
4.908455185314894
 21
7.271330312012179
 31
0.0
  0
LINE
  5
86
330
1F
100
AcDbEntity
  8
VISIBLE
100
AcDbLine
 10
4.51894664804383
 20
6.933497029172699
 30
0.0
 11
4.524031010736332
 21
6.927486330240037
 31
0.0
  0
LINE
  5
87
330
1F
100
AcDbEntity
  8
VISIBLE
100
AcDbLine
 10
4.637039732103755
 20
2.655492478694008
 30
0.0
 11
4.648696902352036
 21
2.655490501733488
 31
0.0
  0
LINE
  5
88
330
1F
100
AcDbEntity
  8
VISIBLE
100
AcDbLine
 10
4.52403196618931
 20
2.89076498125889
 30
0.0
 11
4.518945742695045
 21
2.884754016886716
 31
0.0
  0
LINE
  5
89
330
1F
100
AcDbEntity
  8
TANGENT_LINES
100
AcDbLine
 10
6.950531564032324
 20
7.271330312012179
 30
0.0
 11
6.945428050503327
 21
7.265447130271832
 31
0.0
  0
LINE
  5
8A
330
1F
100
AcDbEntity
  8
VISIBLE
100
AcDbLine
 10
7.340040101562422
 20
2.884754145995815
 30
0.0
 11
7.334955737268634
 21
2.890764845156895
 31
0.0
  0
LINE
  5
8B
330
1F
100
AcDbEntity
  8
TANGENT_LINES
100
AcDbLine
 10
7.409872635953599
 20
4.90912558760273
 30
0.0
 11
7.16395953875402
 21
4.90912558760273
 31
0.0
  0
LINE
  5
8C
330
1F
100
AcDbEntity
  8
VISIBLE
100
AcDbLine
 10
4.524030855191662
 20
2.890771044425114
 30
0.0
 11
4.835653129262439
 21
2.9351662091261
 31
0.0
  0
LINE
  5
8D
330
1F
100
AcDbEntity
  8
TANGENT_LINES
100
AcDbLine
 10
6.945428050503327
 20
6.950678365856372
 30
0.0
 11
6.945428050503327
 21
7.265447130271836
 31
0.0
  0
LINE
  5
8E
330
1F
100
AcDbEntity
  8
TANGENT_LINES
100
AcDbLine
 10
4.91355869884389
 20
2.655472434221887
 30
0.0
 11
4.91355869884389
 21
2.867572809349092
 31
0.0
  0
LINE
  5
8F
330
1F
100
AcDbEntity
  8
TANGENT_LINES
100
AcDbLine
 10
4.695027210593198
 20
4.90912558760273
 30
0.0
 11
4.449114113393619
 21
4.90912558760273
 31
0.0
  0
LINE
  5
90
330
1F
100
AcDbEntity
  8
TANGENT_LINES
100
AcDbLine
 10
4.91355869884389
 20
6.950678365856372
 30
0.0
 11
6.945428050503327
 21
6.950678365856372
 31
0.0
  0
LINE
  5
91
330
1F
100
AcDbEntity
  8
VISIBLE
100
AcDbLine
 10
6.480602465747369
 20
6.479443435958203
 30
0.0
 11
6.480659226005747
 21
6.481820087354344
 31
0.0
  0
LINE
  5
92
330
1F
100
AcDbEntity
  8
VISIBLE
100
AcDbLine
 10
7.334955895107359
 20
2.890771044289537
 30
0.0
 11
7.023333620084788
 21
2.935166209126155
 31
0.0
  0
LINE
  5
93
330
1F
100
AcDbEntity
  8
VISIBLE
100
AcDbLine
 10
7.210288319489386
 20
2.655491205387582
 30
0.0
 11
7.221946662441351
 21
2.655493565636332
 31
0.0
  0
LINE
  5
94
330
1F
100
AcDbEntity
  8
VISIBLE
100
AcDbLine
 10
4.744899453774347
 20
2.655472434221887
 30
0.0
 11
4.91355869884389
 21
2.655472434221887
 31
0.0
  0
LINE
  5
95
330
1F
100
AcDbEntity
  8
TANGENT_LINES
100
AcDbLine
 10
4.91355869884389
 20
6.950678365856372
 30
0.0
 11
4.91355869884389
 21
7.265447130271836
 31
0.0
  0
LINE
  5
96
330
1F
100
AcDbEntity
  8
TANGENT_LINES
100
AcDbLine
 10
6.945428050503327
 20
2.655472434221887
 30
0.0
 11
6.945428050503327
 21
2.867572809349092
 31
0.0
  0
LINE
  5
97
330
1F
100
AcDbEntity
  8
VISIBLE
100
AcDbLine
 10
4.648715632668399
 20
2.655472434221887
 30
0.0
 11
4.744899453774347
 21
2.655472434221887
 31
0.0
  0
LINE
  5
98
330
1F
100
AcDbEntity
  8
VISIBLE
100
AcDbLine
 10
6.945428050503327
 20
2.655472434221887
 30
0.0
 11
7.113966112674563
 21
2.655472434221887
 31
0.0
  0
LINE
  5
99
330
1F
100
AcDbEntity
  8
TANGENT_LINES
100
AcDbLine
 10
6.945428050503327
 20
2.867572809349092
 30
0.0
 11
4.91355869884389
 21
2.867572809349092
 31
0.0
  0
LINE
  5
9A
330
1F
100
AcDbEntity
  8
TANGENT_LINES
100
AcDbLine
 10
6.945428050503327
 20
7.265447130271832
 30
0.0
 11
4.91355869884389
 21
7.265447130271832
 31
0.0
  0
LINE
  5
9B
330
1F
100
AcDbEntity
  8
VISIBLE
100
AcDbLine
 10
4.835653129262441
 20
6.883084966079372
 30
0.0
 11
4.524030854239861
 21
6.927480130915943
 31
0.0
  0
LINE
  5
9C
330
1F
100
AcDbEntity
  8
VISIBLE
100
AcDbLine
 10
4.91355869884389
 20
2.655472434221887
 30
0.0
 11
6.945428050503327
 21
2.655472434221887
 31
0.0
  0
LINE
  5
9D
330
1F
100
AcDbEntity
  8
VISIBLE
100
AcDbLine
 10
7.334954782762095
 20
6.927486193890112
 30
0.0
 11
7.340041006605887
 21
6.933497158312148
 31
0.0
  0
LINE
  5
9E
330
1F
100
AcDbEntity
  8
VISIBLE
100
AcDbLine
 10
7.113966112674563
 20
2.655472434221887
 30
0.0
 11
7.210271030194075
 21
2.655472434221887
 31
0.0
  0
LINE
  5
9F
330
1F
100
AcDbEntity
  8
VISIBLE
100
AcDbLine
 10
7.023333620084784
 20
6.883084966079309
 30
0.0
 11
7.334955894313572
 21
6.927480130802841
 31
0.0
  0
SPLINE
  5
A0
330
1F
100
AcDbEntity
  8
VISIBLE
100
AcDbSpline
210
0.0
220
0.0
230
1.0
 70
     8
 71
     3
 72
    19
 73
    15
 74
     0
 42
0.000000001
 43
0.0000000009076798
 40
0.0
 40
0.0
 40
0.0
 40
0.0
 40
0.0832053994073851
 40
0.1663164460884856
 40
0.2499300281015472
 40
0.3335423626778373
 40
0.4166483069271452
 40
0.4998488371008239
 40
0.583224174935483
 40
0.6666582960888976
 40
0.7499528300218735
 40
0.8334795582861944
 40
0.9166290518621296
 40
1.0
 40
1.0
 40
1.0
 40
1.0
 10
7.340039458476249
 20
6.933503192276865
 30
0.0
 10
7.337309209682659
 20
6.948850201941624
 30
0.0
 10
7.331851808125533
 20
6.979526818167347
 30
0.0
 10
7.316780357198724
 20
7.023771818493291
 30
0.0
 10
7.296693915072906
 20
7.066485092173014
 30
0.0
 10
7.271737409000862
 20
7.106585899277291
 30
0.0
 10
7.242521694314069
 20
7.142994403387914
 30
0.0
 10
7.209023621293142
 20
7.175694924099976
 30
0.0
 10
7.171780398372515
 20
7.204288419146646
 30
0.0
 10
7.13131932128494
 20
7.228314284239168
 30
0.0
 10
7.088473835474016
 20
7.247297453991535
 30
0.0
 10
7.043390532147886
 20
7.261106538953861
 30
0.0
 10
6.997431284355403
 20
7.269739639116013
 30
0.0
 10
6.966178658368214
 20
7.27079961782696
 30
0.0
 10
6.950531564032324
 20
7.271330312012179
 30
0.0
  0
SPLINE
  5
A1
330
1F
100
AcDbEntity
  8
VISIBLE
100
AcDbSpline
210
0.0
220
0.0
230
1.0
 70
     8
 71
     3
 72
    19
 73
    15
 74
     0
 42
0.000000001
 43
0.0000000007895021
 40
0.0
 40
0.0
 40
0.0
 40
0.0
 40
0.0833517182231281
 40
0.1664506902062755
 40
0.2498943696692774
 40
0.333330720900673
 40
0.4164570299060606
 40
0.4998707118870233
 40
0.5831724435087929
 40
0.6663188086884921
 40
0.7499127245694855
 40
0.8336159140070702
 40
0.9167794047311973
 40
1.0
 40
1.0
 40
1.0
 40
1.0
 10
4.518947290870969
 20
6.93350319227686
 30
0.0
 10
4.521682087193745
 20
6.948911725120111
 30
0.0
 10
4.527143387154965
 20
6.979682067729717
 30
0.0
 10
4.542160314617936
 20
7.023932105775986
 30
0.0
 10
4.562145923896406
 20
7.066500106622561
 30
0.0
 10
4.587036128413362
 20
7.106431768906559
 30
0.0
 10
4.616287493998536
 20
7.142827771034976
 30
0.0
 10
4.649930256363449
 20
7.175689964453266
 30
0.0
 10
4.68708768154313
 20
7.204304595266057
 30
0.0
 10
4.727299296341068
 20
7.228129238823566
 30
0.0
 10
4.770504140194879
 20
7.247164891147555
 30
0.0
 10
4.815729824112459
 20
7.261042438217268
 30
0.0
 10
4.861712764195166
 20
7.269727293826405
 30
0.0
 10
4.892870813698844
 20
7.270795850370785
 30
0.0
 10
4.908455185314894
 20
7.271330312012179
 30
0.0
  0
SPLINE
  5
A2
330
1F
100
AcDbEntity
  8
VISIBLE
100
AcDbSpline
210
0.0
220
0.0
230
1.0
 70
     8
 71
     3
 72
    13
 73
     9
 74
     0
 42
0.000000001
 43
0.0000000004034334
 40
0.0
 40
0.0
 40
0.0
 40
0.0
 40
0.1663891356609309
 40
0.3326947772242347
 40
0.4999635235638724
 40
0.6673657677747383
 40
0.8336997561446343
 40
1.0
 40
1.0
 40
1.0
 40
1.0
 10
4.518947290870969
 20
2.8847479829286
 30
0.0
 10
4.521468295620553
 20
2.870406828236101
 30
0.0
 10
4.526509040079093
 20
2.841731715245059
 30
0.0
 10
4.540127347188509
 20
2.80019328756038
 30
0.0
 10
4.55814249737919
 20
2.759904700127166
 30
0.0
 10
4.580556303162512
 20
2.721804006895825
 30
0.0
 10
4.60647174408829
 20
2.686593458313502
 30
0.0
 10
4.626863753655141
 20
2.66584669473416
 30
0.0
 10
4.637058724091532
 20
2.655474365285766
 30
0.0
  0
SPLINE
  5
A3
330
1F
100
AcDbEntity
  8
VISIBLE
100
AcDbSpline
210
0.0
220
0.0
230
1.0
 70
     8
 71
     3
 72
    13
 73
     9
 74
     0
 42
0.000000001
 43
0.0000000006151243
 40
0.0
 40
0.0
 40
0.0
 40
0.0
 40
0.1665318554364819
 40
0.333265764576143
 40
0.4999970326446299
 40
0.6668160974737719
 40
0.8335031888578628
 40
1.0
 40
1.0
 40
1.0
 40
1.0
 10
7.221928024913328
 20
2.6554743649599
 30
0.0
 10
7.232137020164026
 20
2.665874182501906
 30
0.0
 10
7.252567397276323
 20
2.686686435722199
 30
0.0
 10
7.278582242301342
 20
2.722088710027385
 30
0.0
 10
7.300829072381186
 20
2.759885700500194
 30
0.0
 10
7.318721773717948
 20
2.799985447680233
 30
0.0
 10
7.332435796673895
 20
2.841691512308723
 30
0.0
 10
7.337505869709532
 20
2.870401291409097
 30
0.0
 10
7.340039458476249
 20
2.8847479829286
 30
0.0
  0
SPLINE
  5
A4
330
1F
100
AcDbEntity
  8
TANGENT_LINES
100
AcDbSpline
210
0.0
220
0.0
230
1.0
 70
     8
 71
     3
 72
    13
 73
     9
 74
     0
 42
0.000000001
 43
0.0000000008838677
 40
0.0
 40
0.0
 40
0.0
 40
0.0
 40
0.166641641114883
 40
0.3333266097912262
 40
0.5000305341835318
 40
0.6667281588749986
 40
0.8333935004802421
 40
1.0
 40
1.0
 40
1.0
 40
1.0
 10
7.409872635953599
 20
4.90912558760273
 30
0.0
 10
7.409096004062347
 20
5.021052307175506
 30
0.0
 10
7.407542538352125
 20
5.244934847761662
 30
0.0
 10
7.395028298984599
 20
5.580715616034322
 30
0.0
 10
7.375185927335648
 20
5.916189672863986
 30
0.0
 10
7.34715411514735
 20
6.251052544507864
 30
0.0
 10
7.311895946770115
 20
6.585131527381275
 30
0.0
 10
7.281822853636363
 20
6.80690064249521
 30
0.0
 10
7.266788961904517
 20
6.917765622404714
 30
0.0
  0
SPLINE
  5
A5
330
1F
100
AcDbEntity
  8
TANGENT_LINES
100
AcDbSpline
210
0.0
220
0.0
230
1.0
 70
     8
 71
     3
 72
    19
 73
    15
 74
     0
 42
0.000000001
 43
0.0000000009069094
 40
0.0
 40
0.0
 40
0.0
 40
0.0
 40
0.083378403881642
 40
0.1665197316879284
 40
0.2499806657080044
 40
0.3332718382716352
 40
0.416426605308319
 40
0.4999405588514216
 40
0.5831848057032447
 40
0.6663902224891877
 40
0.7499180661490699
 40
0.8331065842795501
 40
0.9163493789266206
 40
1.0
 40
1.0
 40
1.0
 40
1.0
 10
7.334955222174635
 20
6.927483146254191
 30
0.0
 10
7.33218109186901
 20
6.94289283558906
 30
0.0
 10
7.326640719150725
 20
6.973668398732237
 30
0.0
 10
7.31149341849375
 20
7.017902860232224
 30
0.0
 10
7.291528049524713
 20
7.060504238798823
 30
0.0
 10
7.266696654798492
 20
7.100274642595337
 30
0.0
 10
7.237513270802792
 20
7.136754612395524
 30
0.0
 10
7.203803737479761
 20
7.169710091703063
 30
0.0
 10
7.166646213463329
 20
7.198198662627899
 30
0.0
 10
7.126464777703832
 20
7.222138339248698
 30
0.0
 10
7.083373166633613
 20
7.241307089659511
 30
0.0
 10
7.038679748932942
 20
7.254964042932009
 30
0.0
 10
6.992605011322731
 20
7.263738479689803
 30
0.0
 10
6.961179301754001
 20
7.264876652984781
 30
0.0
 10
6.945428050503327
 20
7.265447130271754
 30
0.0
  0
SPLINE
  5
A6
330
1F
100
AcDbEntity
  8
TANGENT_LINES
100
AcDbSpline
210
0.0
220
0.0
230
1.0
 70
     8
 71
     3
 72
    13
 73
     9
 74
     0
 42
0.000000001
 43
0.0000000005640834
 40
0.0
 40
0.0
 40
0.0
 40
0.0
 40
0.1666416411149013
 40
0.3333266097912659
 40
0.5000305341835883
 40
0.6667281588750597
 40
0.8333935004802868
 40
1.0
 40
1.0
 40
1.0
 40
1.0
 10
4.449114113393619
 20
4.90912558760273
 30
0.0
 10
4.449890745285106
 20
4.797198868013067
 30
0.0
 10
4.451444210995796
 20
4.573316327393128
 30
0.0
 10
4.463958450367089
 20
4.237535559069853
 30
0.0
 10
4.483800822021995
 20
3.902061502189747
 30
0.0
 10
4.511832634218692
 20
3.567198630495747
 30
0.0
 10
4.54709080260647
 20
3.233119647572607
 30
0.0
 10
4.5771638957492
 20
3.011350532425971
 30
0.0
 10
4.592197787485532
 20
2.900485552500128
 30
0.0
  0
SPLINE
  5
A7
330
1F
100
AcDbEntity
  8
TANGENT_LINES
100
AcDbSpline
210
0.0
220
0.0
230
1.0
 70
     8
 71
     3
 72
    13
 73
     9
 74
     0
 42
0.000000001
 43
0.0000000006149658
 40
0.0
 40
0.0
 40
0.0
 40
0.0
 40
0.1665033342033834
 40
0.3325194088453478
 40
0.4991297215333033
 40
0.6660766837615091
 40
0.8330821728073439
 40
1.0
 40
1.0
 40
1.0
 40
1.0
 10
7.210269797044056
 20
2.655472706048866
 30
0.0
 10
7.221062209078595
 20
2.666006268502421
 30
0.0
 10
7.242615449960589
 20
2.687042567726395
 30
0.0
 10
7.269894209088053
 20
2.722872066788988
 30
0.0
 10
7.293463850491414
 20
2.761558400761804
 30
0.0
 10
7.312404807421923
 20
2.802873533697855
 30
0.0
 10
7.326963952864006
 20
2.846051495009951
 30
0.0
 10
7.332292568192802
 20
2.87586503596418
 30
0.0
 10
7.334956176420725
 20
2.890767893102328
 30
0.0
  0
SPLINE
  5
A8
330
1F
100
AcDbEntity
  8
TANGENT_LINES
100
AcDbSpline
210
0.0
220
0.0
230
1.0
 70
     8
 71
     3
 72
    19
 73
    15
 74
     0
 42
0.000000001
 43
0.0000000007891486
 40
0.0
 40
0.0
 40
0.0
 40
0.0
 40
0.0833708052958997
 40
0.166506540569886
 40
0.2499632843065591
 40
0.3332510934990434
 40
0.4164038253103589
 40
0.4999170716439076
 40
0.5831615638608473
 40
0.6663681736268867
 40
0.7498992566540794
 40
0.8330928473714713
 40
0.9163423528109917
 40
1.0
 40
1.0
 40
1.0
 40
1.0
 10
4.913558698843898
 20
7.265447130271206
 30
0.0
 10
4.897914298941078
 20
7.264874527043968
 30
0.0
 10
4.866669609653681
 20
7.263730935085751
 30
0.0
 10
4.820745262747272
 20
7.254978681627206
 30
0.0
 10
4.77575558717397
 20
7.241227661737408
 30
0.0
 10
4.73288007463464
 20
7.222261033334984
 30
0.0
 10
4.692645751815579
 20
7.198521610347692
 30
0.0
 10
4.655259968521118
 20
7.16980326830274
 30
0.0
 10
4.621809747800533
 20
7.137038654354409
 30
0.0
 10
4.592438121273895
 20
7.100634985605348
 30
0.0
 10
4.567382657875159
 20
7.060672010373617
 30
0.0
 10
4.547560660227884
 20
7.018342930703778
 30
0.0
 10
4.532376988503153
 20
6.973956714184127
 30
0.0
 10
4.526817242171231
 20
6.942999659725066
 30
0.0
 10
4.524030571319973
 20
6.927483282510778
 30
0.0
  0
SPLINE
  5
A9
330
1F
100
AcDbEntity
  8
TANGENT_LINES
100
AcDbSpline
210
0.0
220
0.0
230
1.0
 70
     8
 71
     3
 72
    13
 73
     9
 74
     0
 42
0.000000001
 43
0.000000000404626
 40
0.0
 40
0.0
 40
0.0
 40
0.0
 40
0.1665354893132634
 40
0.3325757111949479
 40
0.4991995731083343
 40
0.6661050845676578
 40
0.8330942639871433
 40
1.0
 40
1.0
 40
1.0
 40
1.0
 10
4.524031527869195
 20
2.890768029889382
 30
0.0
 10
4.526686389374913
 20
2.875916712001602
 30
0.0
 10
4.531988216973515
 20
2.846258243232705
 30
0.0
 10
4.546329869783797
 20
2.803559117883126
 30
0.0
 10
4.565115415926291
 20
2.762328620853616
 30
0.0
 10
4.58865980858476
 20
2.723480019064404
 30
0.0
 10
4.6162088796563
 20
2.687195335177562
 30
0.0
 10
4.637879737224634
 20
2.666046496768546
 30
0.0
 10
4.648712458135611
 20
2.655474720208537
 30
0.0
  0
SPLINE
  5
AA
330
1F
100
AcDbEntity
  8
TANGENT_LINES
100
AcDbSpline
210
0.0
220
0.0
230
1.0
 70
     8
 71
     3
 72
    13
 73
     9
 74
     0
 42
0.000000001
 43
0.0000000007454862
 40
0.0
 40
0.0
 40
0.0
 40
0.0
 40
0.1666064995197578
 40
0.3332718411250012
 40
0.4999694658164681
 40
0.6666733902087737
 40
0.833358358885117
 40
1.0
 40
1.0
 40
1.0
 40
1.0
 10
4.592197787442709
 20
6.91776562240473
 30
0.0
 10
4.577163895710862
 20
6.806900642495225
 30
0.0
 10
4.547090802577104
 20
6.585131527381288
 30
0.0
 10
4.51183263419987
 20
6.251052544507877
 30
0.0
 10
4.48380082201157
 20
5.916189672863995
 30
0.0
 10
4.463958450362622
 20
5.580715616034327
 30
0.0
 10
4.451444210995094
 20
5.244934847761666
 30
0.0
 10
4.449890745284872
 20
5.021052307175506
 30
0.0
 10
4.449114113393619
 20
4.90912558760273
 30
0.0
  0
SPLINE
  5
AB
330
1F
100
AcDbEntity
  8
TANGENT_LINES
100
AcDbSpline
210
0.0
220
0.0
230
1.0
 70
     8
 71
     3
 72
    13
 73
     9
 74
     0
 42
0.000000001
 43
0.0000000007373346
 40
0.0
 40
0.0
 40
0.0
 40
0.0
 40
0.1666064995197574
 40
0.3332718411250008
 40
0.499969465816468
 40
0.6666733902087739
 40
0.8333583588851172
 40
1.0
 40
1.0
 40
1.0
 40
1.0
 10
7.266788961904513
 20
2.90048555280075
 30
0.0
 10
7.281822853636361
 20
3.011350532710253
 30
0.0
 10
7.311895946770117
 20
3.233119647824186
 30
0.0
 10
7.347154115147351
 20
3.567198630697596
 30
0.0
 10
7.375185927335647
 20
3.902061502341475
 30
0.0
 10
7.395028298984599
 20
4.237535559171141
 30
0.0
 10
7.407542538352125
 20
4.573316327443798
 30
0.0
 10
7.409096004062347
 20
4.797198868029955
 30
0.0
 10
7.409872635953599
 20
4.90912558760273
 30
0.0
  0
SPLINE
  5
AC
330
1F
100
AcDbEntity
  8
VISIBLE
100
AcDbSpline
210
0.0
220
0.0
230
1.0
 70
     8
 71
     3
 72
     8
 73
     4
 74
     0
 42
0.000000001
 43
0.0000000008842864
 40
0.0131980171834653
 40
0.0131980171834653
 40
0.0131980171834653
 40
0.0131980171834653
 40
5.13661654012476
 40
5.13661654012476
 40
5.13661654012476
 40
5.13661654012476
 10
7.272530780104678
 20
6.918579523879586
 30
0.0
 10
7.367965042591699
 20
6.248697079778774
 30
0.0
 10
7.415671850952233
 20
5.578910840984816
 30
0.0
 10
7.415671850952233
 20
4.90912558760273
 30
0.0
  0
SPLINE
  5
AD
330
1F
100
AcDbEntity
  8
VISIBLE
100
AcDbSpline
210
0.0
220
0.0
230
1.0
 70
     8
 71
     3
 72
     8
 73
     4
 74
     0
 42
0.000000001
 43
0.0000000005638197
 40
0.0131980171833901
 40
0.0131980171833901
 40
0.0131980171833901
 40
0.0131980171833901
 40
5.13661654012495
 40
5.13661654012495
 40
5.13661654012495
 40
5.13661654012495
 10
4.586455969242543
 20
2.899671651325848
 30
0.0
 10
4.491021706755521
 20
3.569554095426671
 30
0.0
 10
4.443314898394985
 20
4.239340334220635
 30
0.0
 10
4.443314898394985
 20
4.90912558760273
 30
0.0
  0
SPLINE
  5
AE
330
1F
100
AcDbEntity
  8
VISIBLE
100
AcDbSpline
210
0.0
220
0.0
230
1.0
 70
     8
 71
     3
 72
     8
 73
     4
 74
     0
 42
0.000000001
 43
0.0000000007377602
 40
0.0
 40
0.0
 40
0.0
 40
0.0
 40
5.1234188971077
 40
5.1234188971077
 40
5.1234188971077
 40
5.1234188971077
 10
7.415671850952233
 20
4.90912558760273
 30
0.0
 10
7.415671850952233
 20
4.239340448897255
 30
0.0
 10
7.367965058927844
 20
3.569554324780249
 30
0.0
 10
7.272530829123715
 20
2.89967199540563
 30
0.0
  0
SPLINE
  5
AF
330
1F
100
AcDbEntity
  8
TANGENT_LINES
100
AcDbSpline
210
0.0
220
0.0
230
1.0
 70
     8
 71
     3
 72
    11
 73
     7
 74
     0
 42
0.000000001
 43
0.0000000007602681
 40
0.0000000000000971
 40
0.0000000000000971
 40
0.0000000000000971
 40
0.0000000000000971
 40
0.0405911377966271
 40
0.121773413389687
 40
0.202955688982747
 40
0.284137964575807
 40
0.284137964575807
 40
0.284137964575807
 40
0.284137964575807
 10
4.835653129262438
 20
6.883084966079348
 30
0.0
 10
4.836404441221587
 20
6.888358638174561
 30
0.0
 10
4.840304898633654
 20
6.90411285545873
 30
0.0
 10
4.854623087200824
 20
6.927407545946876
 30
0.0
 10
4.881492409816418
 20
6.946271576614832
 30
0.0
 10
4.902904856902544
 20
6.950678365856372
 30
0.0
 10
4.91355869884389
 20
6.950678365856372
 30
0.0
  0
SPLINE
  5
B0
330
1F
100
AcDbEntity
  8
VISIBLE
100
AcDbSpline
210
0.0
220
0.0
230
1.0
 70
     8
 71
     3
 72
     8
 73
     4
 74
     0
 42
0.000000001
 43
0.0000000006903224
 40
0.278964626750687
 40
0.278964626750687
 40
0.278964626750687
 40
0.278964626750687
 40
0.378849627509323
 40
0.378849627509323
 40
0.378849627509323
 40
0.378849627509323
 10
5.51611325266642
 20
5.756042640412529
 30
0.0
 10
5.558373714813523
 20
5.694753335635279
 30
0.0
 10
5.614130219237599
 20
5.644670520292923
 30
0.0
 10
5.677291502565799
 20
5.608167124041535
 30
0.0
  0
SPLINE
  5
B1
330
1F
100
AcDbEntity
  8
VISIBLE
100
AcDbSpline
210
0.0
220
0.0
230
1.0
 70
     8
 71
     3
 72
     8
 73
     4
 74
     0
 42
0.000000001
 43
0.0000000007453623
 40
0.0
 40
0.0
 40
0.0
 40
0.0
 40
5.123418897107733
 40
5.123418897107733
 40
5.123418897107733
 40
5.123418897107733
 10
4.443314898394985
 20
4.90912558760273
 30
0.0
 10
4.443314898394985
 20
5.578910726308219
 30
0.0
 10
4.491021690419376
 20
6.248696850425242
 30
0.0
 10
4.586455920223504
 20
6.918579179799874
 30
0.0
  0
SPLINE
  5
B2
330
1F
100
AcDbEntity
  8
VISIBLE
100
AcDbSpline
210
0.0
220
0.0
230
1.0
 70
     8
 71
     3
 72
     8
 73
     4
 74
     0
 42
0.000000001
 43
0.000000000738007
 40
0.0
 40
0.0
 40
0.0
 40
0.0
 40
0.0025031218909785
 40
0.0025031218909785
 40
0.0025031218909785
 40
0.0025031218909785
 10
5.378318250676881
 20
6.484682636660687
 30
0.0
 10
5.378381150217677
 20
6.482000779343238
 30
0.0
 10
5.378444512517964
 20
6.479322166739777
 30
0.0
 10
5.378508409476059
 20
6.476646832884718
 30
0.0
  0
SPLINE
  5
B3
330
1F
100
AcDbEntity
  8
VISIBLE
100
AcDbSpline
210
0.0
220
0.0
230
1.0
 70
     8
 71
     3
 72
     8
 73
     4
 74
     0
 42
0.000000001
 43
0.0000000007295662
 40
0.500000480428251
 40
0.500000480428251
 40
0.500000480428251
 40
0.500000480428251
 40
0.703588824575892
 40
0.703588824575892
 40
0.703588824575892
 40
0.703588824575892
 10
5.929499079438076
 20
5.775727679782606
 30
0.0
 10
6.031643826809918
 20
5.775727855709407
 30
0.0
 10
6.1337878628457
 20
5.806308907196504
 30
0.0
 10
6.181703803847522
 20
5.894068469257462
 30
0.0
  0
SPLINE
  5
B4
330
1F
100
AcDbEntity
  8
VISIBLE
100
AcDbSpline
210
0.0
220
0.0
230
1.0
 70
     8
 71
     3
 72
     8
 73
     4
 74
     0
 42
0.000000001
 43
0.000000000743707
 40
0.0025031218909785
 40
0.0025031218909785
 40
0.0025031218909785
 40
0.0025031218909785
 40
0.278964626750687
 40
0.278964626750687
 40
0.278964626750687
 40
0.278964626750687
 10
5.378508409476059
 20
6.476646832884718
 30
0.0
 10
5.38556561642017
 20
6.181165088173419
 30
0.0
 10
5.399144830255465
 20
5.925679055307974
 30
0.0
 10
5.51611325266642
 20
5.756042640412529
 30
0.0
  0
SPLINE
  5
B5
330
1F
100
AcDbEntity
  8
TANGENT_LINES
100
AcDbSpline
210
0.0
220
0.0
230
1.0
 70
     8
 71
     3
 72
    11
 73
     7
 74
     0
 42
0.000000001
 43
0.0000000004254882
 40
0.0
 40
0.0
 40
0.0
 40
0.0
 40
0.0405911377965438
 40
0.121773413389631
 40
0.202955688982719
 40
0.284137964575806
 40
0.284137964575806
 40
0.284137964575806
 40
0.284137964575806
 10
4.91355869884389
 20
2.867572809349092
 30
0.0
 10
4.908231777873214
 20
2.867572809349092
 30
0.0
 10
4.892133752349201
 20
2.869210242613557
 30
0.0
 10
4.867102117728525
 20
2.880038913363498
 30
0.0
 10
4.844572036828182
 20
2.90396305600834
 30
0.0
 10
4.837155753180741
 20
2.924618864935671
 30
0.0
 10
4.835653129262438
 20
2.935166209126104
 30
0.0
  0
SPLINE
  5
B6
330
1F
100
AcDbEntity
  8
VISIBLE
100
AcDbSpline
210
0.0
220
0.0
230
1.0
 70
     8
 71
     3
 72
     8
 73
     4
 74
     0
 42
0.000000001
 43
0.0000000007529117
 40
0.0
 40
0.0
 40
0.0
 40
0.0
 40
0.0261243449550781
 40
0.0261243449550781
 40
0.0261243449550781
 40
0.0261243449550781
 10
5.693278606997129
 20
6.484389088927923
 30
0.0
 10
5.689703729376232
 20
6.465565762613695
 30
0.0
 10
5.686092905097071
 20
6.446467428707139
 30
0.0
 10
5.682528001016275
 20
6.427201304162741
 30
0.0
  0
SPLINE
  5
B7
330
1F
100
AcDbEntity
  8
VISIBLE
100
AcDbSpline
210
0.0
220
0.0
230
1.0
 70
     8
 71
     3
 72
     8
 73
     4
 74
     0
 42
0.000000001
 43
0.000000000715409
 40
0.296411192750576
 40
0.296411192750576
 40
0.296411192750576
 40
0.296411192750576
 40
0.500000480428251
 40
0.500000480428251
 40
0.500000480428251
 40
0.500000480428251
 10
5.677291502646625
 20
5.894068469257038
 30
0.0
 10
5.72520792657255
 20
5.806308486942322
 30
0.0
 10
5.827353858676722
 20
5.775727503854966
 30
0.0
 10
5.929499079438258
 20
5.775727679782612
 30
0.0
  0
SPLINE
  5
B8
330
1F
100
AcDbEntity
  8
VISIBLE
100
AcDbSpline
210
0.0
220
0.0
230
1.0
 70
     8
 71
     3
 72
     8
 73
     4
 74
     0
 42
0.000000001
 43
0.0000000007474619
 40
0.0261243449550781
 40
0.0261243449550781
 40
0.0261243449550781
 40
0.0261243449550781
 40
0.296411192750576
 40
0.296411192750576
 40
0.296411192750576
 40
0.296411192750576
 10
5.682528001016275
 20
6.427201304162741
 30
0.0
 10
5.645644906402811
 20
6.227870753241703
 30
0.0
 10
5.613677255903388
 20
6.010579358671096
 30
0.0
 10
5.677291502646625
 20
5.894068469257038
 30
0.0
  0
SPLINE
  5
B9
330
1F
100
AcDbEntity
  8
VISIBLE
100
AcDbSpline
210
0.0
220
0.0
230
1.0
 70
     8
 71
     3
 72
     8
 73
     4
 74
     0
 42
0.000000001
 43
0.0000000007066755
 40
0.500263752566034
 40
0.500263752566034
 40
0.500263752566034
 40
0.500263752566034
 40
0.621675087291099
 40
0.621675087291099
 40
0.621675087291099
 40
0.621675087291099
 10
5.929499079438074
 20
5.539507207341663
 30
0.0
 10
6.017213797546091
 20
5.539525830409697
 30
0.0
 10
6.104929416963983
 20
5.563869193232207
 30
0.0
 10
6.181703803923456
 20
5.608242170580169
 30
0.0
  0
SPLINE
  5
BA
330
1F
100
AcDbEntity
  8
VISIBLE
100
AcDbSpline
210
0.0
220
0.0
230
1.0
 70
     8
 71
     3
 72
     8
 73
     4
 74
     0
 42
0.000000001
 43
0.0000000006920441
 40
0.378849627509323
 40
0.378849627509323
 40
0.378849627509323
 40
0.378849627509323
 40
0.500263752566034
 40
0.500263752566034
 40
0.500263752566034
 40
0.500263752566034
 10
5.677291502565799
 20
5.608167124041535
 30
0.0
 10
5.75406651277262
 20
5.563795818201831
 30
0.0
 10
5.841782345429694
 20
5.539488583845626
 30
0.0
 10
5.929499079438074
 20
5.539507207341663
 30
0.0
  0
SPLINE
  5
BB
330
1F
100
AcDbEntity
  8
TANGENT_LINES
100
AcDbSpline
210
0.0
220
0.0
230
1.0
 70
     8
 71
     3
 72
    11
 73
     7
 74
     0
 42
0.000000001
 43
0.0000000008633992
 40
0.0
 40
0.0
 40
0.0
 40
0.0
 40
0.0811822752460502
 40
0.121773412869075
 40
0.202955688115125
 40
0.284137963361176
 40
0.284137963361176
 40
0.284137963361176
 40
0.284137963361176
 10
6.945428050503327
 20
6.950678365856372
 30
0.0
 10
6.956081892399134
 20
6.950678365856372
 30
0.0
 10
6.972207855859143
 20
6.947329499852183
 30
0.0
 10
6.995706718251548
 20
6.934147102433199
 30
0.0
 10
7.014429389983233
 20
6.914217326828407
 30
0.0
 10
7.021830996172914
 20
6.893632310224652
 30
0.0
 10
7.023333620084784
 20
6.883084966079309
 30
0.0
  0
SPLINE
  5
BC
330
1F
100
AcDbEntity
  8
VISIBLE
100
AcDbSpline
210
0.0
220
0.0
230
1.0
 70
     8
 71
     3
 72
     8
 73
     4
 74
     0
 42
0.000000001
 43
0.0000000007279607
 40
0.621675087291099
 40
0.621675087291099
 40
0.621675087291099
 40
0.621675087291099
 40
0.721562878381381
 40
0.721562878381381
 40
0.721562878381381
 40
0.721562878381381
 10
6.181703803923456
 20
5.608242170580169
 30
0.0
 10
6.244867790573124
 20
5.644748800718316
 30
0.0
 10
6.300625966695367
 20
5.694812909931755
 30
0.0
 10
6.342884906209727
 20
5.756042640412529
 30
0.0
  0
SPLINE
  5
BD
330
1F
100
AcDbEntity
  8
VISIBLE
100
AcDbSpline
210
0.0
220
0.0
230
1.0
 70
     8
 71
     3
 72
     8
 73
     4
 74
     0
 42
0.000000001
 43
0.0000000007429595
 40
0.721562878381381
 40
0.721562878381381
 40
0.721562878381381
 40
0.721562878381381
 40
0.7887369215551351
 40
0.7887369215551351
 40
0.7887369215551351
 40
0.7887369215551351
 10
6.342884906209727
 20
5.756042640412529
 30
0.0
 10
6.371303833051839
 20
5.797219329915205
 30
0.0
 10
6.39361773598554
 20
5.843445666799387
 30
0.0
 10
6.411217563133309
 20
5.89406846925736
 30
0.0
  0
SPLINE
  5
BE
330
1F
100
AcDbEntity
  8
VISIBLE
100
AcDbSpline
210
0.0
220
0.0
230
1.0
 70
     8
 71
     3
 72
     8
 73
     4
 74
     0
 42
0.000000001
 43
0.0000000007777544
 40
0.9738766298800301
 40
0.9738766298800301
 40
0.9738766298800301
 40
0.9738766298800301
 40
1.0
 40
1.0
 40
1.0
 40
1.0
 10
6.176469320083759
 20
6.427203467364998
 30
0.0
 10
6.172904690097308
 20
6.446468861449954
 30
0.0
 10
6.169294148543577
 20
6.465566473050337
 30
0.0
 10
6.165719551879018
 20
6.484389097105443
 30
0.0
  0
SPLINE
  5
BF
330
1F
100
AcDbEntity
  8
VISIBLE
100
AcDbSpline
210
0.0
220
0.0
230
1.0
 70
     8
 71
     3
 72
     8
 73
     4
 74
     0
 42
0.000000001
 43
0.0000000007940969
 40
0.7887369215551351
 40
0.7887369215551351
 40
0.7887369215551351
 40
0.7887369215551351
 40
0.999254117568405
 40
0.999254117568405
 40
0.999254117568405
 40
0.999254117568405
 10
6.411217563133309
 20
5.89406846925736
 30
0.0
 10
6.466373782506366
 20
6.052715618130336
 30
0.0
 10
6.47523130840252
 20
6.254542092331549
 30
0.0
 10
6.480602503497977
 20
6.479443435056628
 30
0.0
  0
SPLINE
  5
C0
330
1F
100
AcDbEntity
  8
TANGENT_LINES
100
AcDbSpline
210
0.0
220
0.0
230
1.0
 70
     8
 71
     3
 72
    11
 73
     7
 74
     0
 42
0.000000001
 43
0.0000000005903311
 40
0.0
 40
0.0
 40
0.0
 40
0.0
 40
0.0811822752460507
 40
0.162364550492101
 40
0.202955688115127
 40
0.284137963361178
 40
0.284137963361178
 40
0.284137963361178
 40
0.284137963361178
 10
7.023333620084788
 20
2.935166209126155
 30
0.0
 10
7.021830996172914
 20
2.924618864980813
 30
0.0
 10
7.014430034786253
 20
2.904032905836505
 30
0.0
 10
6.995707326440264
 20
2.884103517809998
 30
0.0
 10
6.972208659590926
 20
2.870920969136195
 30
0.0
 10
6.956081892399134
 20
2.867572809349092
 30
0.0
 10
6.945428050503327
 20
2.867572809349092
 30
0.0
  0
SPLINE
  5
C1
330
1F
100
AcDbEntity
  8
VISIBLE
100
AcDbSpline
210
0.0
220
0.0
230
1.0
 70
     8
 71
     3
 72
     8
 73
     4
 74
     0
 42
0.000000001
 43
0.0000000007767346
 40
0.703588824575892
 40
0.703588824575892
 40
0.703588824575892
 40
0.703588824575892
 40
0.9738766298800301
 40
0.9738766298800301
 40
0.9738766298800301
 40
0.9738766298800301
 10
6.181703803847522
 20
5.894068469257462
 30
0.0
 10
6.245317929630056
 20
6.010579753453124
 30
0.0
 10
6.21335108577229
 20
6.227872329704415
 30
0.0
 10
6.176469320083759
 20
6.427203467364998
 30
0.0
  0
ARC
  5
C2
330
1F
100
AcDbEntity
  8
VISIBLE
100
AcDbCircle
 10
6.323199866839649
 20
6.484389097105443
 30
0.0
 40
0.1574803149606299
100
AcDbArc
 50
359.065280345515
 51
180.0
  0
ARC
  5
C3
330
1F
100
AcDbEntity
  8
VISIBLE
100
AcDbCircle
 10
5.535798292000293
 20
6.484389083476278
 30
0.0
 40
0.1574803149606299
100
AcDbArc
 50
0.0
 51
179.8931970114625
  0
ELLIPSE
  5
C4
330
1F
100
AcDbEntity
  8
VISIBLE
100
AcDbEllipse
 10
0.0053390339557757
 20
5.908304997672187
 30
0.0
 11
1.446740634060774
 21
-9.905951766043579
 31
0.0
210
0.0
220
0.0
230
-1.0
 40
0.7077467341163675
 41
4.717348988061174
 42
4.915889029673117
  0
ELLIPSE
  5
C5
330
1F
100
AcDbEntity
  8
VISIBLE
100
AcDbEllipse
 10
11.8536477153624
 20
5.908304997672533
 30
0.0
 11
-1.446740634052462
 21
-9.905951766023843
 31
0.0
210
0.0
220
0.0
230
-1.0
 40
0.707746734114956
 41
1.367296277506814
 42
1.565836319119174
  0
ELLIPSE
  5
C6
330
1F
100
AcDbEntity
  8
VISIBLE
100
AcDbEllipse
 10
0.0053390339949178
 20
3.9099461775315
 30
0.0
 11
-1.446740634051379
 21
-9.905951766016898
 31
0.0
210
0.0
220
0.0
230
-1.0
 40
0.7077467341144346
 41
4.508888931096472
 42
4.707428972708966
  0
ELLIPSE
  5
C7
330
1F
100
AcDbEntity
  8
VISIBLE
100
AcDbEllipse
 10
11.85364771538017
 20
3.909946177532054
 30
0.0
 11
1.446740634059063
 21
-9.9059517660358
 31
0.0
210
0.0
220
0.0
230
-1.0
 40
0.7077467341157988
 41
1.575756334471298
 42
1.774296376083406
  0
ENDSEC
  0
SECTION
  2
OBJECTS
  0
DICTIONARY
  5
C
330
0
100
AcDbDictionary
  3
ACAD_GROUP
350
D
  3
ACAD_LAYOUT
350
1A
  3
ACAD_MATERIAL
350
43
  3
ACAD_MLEADERSTYLE
350
6B
  3
ACAD_MLINESTYLE
350
17
  3
ACAD_PLOTSETTINGS
350
19
  3
ACAD_SCALELIST
350
47
  3
ACAD_VISUALSTYLE
350
2A
  3
ACDBVARIABLEDICTIONARY
350
6E
  3
ONSHAPE_DATA
350
C8
1001
ACAD
1000
TREAT_AS_HARD
1070
     0
  0
DICTIONARY
  5
74
330
73
100
AcDbDictionary
  3
ONSHAPE_VIEW_ID
360
75
1001
ACAD
1000
TREAT_AS_HARD
1070
     1
  0
DICTIONARY
  5
D
102
{ACAD_REACTORS
330
C
102
}
330
C
100
AcDbDictionary
1001
ACAD
1000
TREAT_AS_HARD
1070
     0
  0
DICTIONARY
  5
1A
102
{ACAD_REACTORS
330
C
102
}
330
C
100
AcDbDictionary
1001
ACAD
1000
TREAT_AS_HARD
1070
     0
  0
DICTIONARY
  5
43
102
{ACAD_REACTORS
330
C
102
}
330
C
100
AcDbDictionary
  3
BYBLOCK
350
45
  3
BYLAYER
350
44
  3
GLOBAL
350
46
1001
ACAD
1000
TREAT_AS_HARD
1070
     0
  0
DICTIONARY
  5
6B
102
{ACAD_REACTORS
330
C
102
}
330
C
100
AcDbDictionary
  3
STANDARD
350
6C
1001
ACAD
1000
TREAT_AS_HARD
1070
     0
  0
DICTIONARY
  5
17
102
{ACAD_REACTORS
330
C
102
}
330
C
100
AcDbDictionary
  3
STANDARD
350
18
1001
ACAD
1000
TREAT_AS_HARD
1070
     0
  0
DICTIONARY
  5
19
102
{ACAD_REACTORS
330
C
102
}
330
C
100
AcDbDictionary
1001
ACAD
1000
TREAT_AS_HARD
1070
     0
  0
DICTIONARY
  5
47
102
{ACAD_REACTORS
330
C
102
}
330
C
100
AcDbDictionary
  3
A0
350
48
  3
A1
350
49
  3
A2
350
4A
  3
A3
350
4B
  3
A4
350
4C
  3
A5
350
4D
  3
A6
350
4E
  3
A7
350
4F
  3
A8
350
50
  3
A9
350
51
  3
B0
350
52
  3
B1
350
53
  3
B2
350
54
  3
B3
350
55
  3
B4
350
56
  3
B5
350
57
  3
B6
350
58
  3
B7
350
59
  3
B8
350
5A
  3
B9
350
5B
  3
C0
350
5C
  3
C1
350
5D
  3
C2
350
5E
  3
C3
350
5F
  3
C4
350
60
  3
C5
350
61
  3
C6
350
62
  3
C7
350
63
  3
C8
350
64
  3
C9
350
65
  3
D0
350
66
  3
D1
350
67
  3
D2
350
68
1001
ACAD
1000
TREAT_AS_HARD
1070
     0
  0
DICTIONARY
  5
2A
102
{ACAD_REACTORS
330
C
102
}
330
C
100
AcDbDictionary
  3
2DWIREFRAME
350
2F
  3
BASIC
350
32
  3
BRIGHTEN
350
36
  3
COLORCHANGE
350
3A
  3
CONCEPTUAL
350
34
  3
DIM
350
35
  3
EDGECOLOROFF
350
3D
  3
FACEPATTERN
350
39
  3
FLAT
350
2B
  3
FLATWITHEDGES
350
2C
  3
GOURAUD
350
2D
  3
GOURAUDWITHEDGES
350
2E
  3
HIDDEN
350
31
  3
JITTEROFF
350
3B
  3
LINEPATTERN
350
38
  3
OVERHANGOFF
350
3C
  3
REALISTIC
350
33
  3
SHADED
350
42
  3
SHADED_WITH_EDGES
350
41
  3
SHADES_OF_GRAY
350
3E
  3
SKETCHY
350
3F
  3
THICKEN
350
37
  3
WIREFRAME
350
30
  3
X-RAY
350
40
1001
ACAD
1000
TREAT_AS_HARD
1070
     0
  0
DICTIONARY
  5
6E
102
{ACAD_REACTORS
330
C
102
}
330
C
100
AcDbDictionary
  3
CANNOSCALE
350
114
  3
CMLEADERSTYLE
350
10F
  3
CTABLESTYLE
350
10E
  3
DIMASSOC
350
112
  3
HIDETEXT
350
113
  3
MSLTSCALE
350
115
  3
OLEFRAME
350
6F
1001
ACAD
1000
TREAT_AS_HARD
1070
     0
  0
DICTIONARY
  5
C8
102
{ACAD_REACTORS
330
C
102
}
330
C
100
AcDbDictionary
  3
DIM_UNITS
360
C9
  3
ONSHAPE_ANG_TOL_PRECISION
360
CC
  3
ONSHAPE_VSHARP_EXTENSION
360
CB
  3
ONSHAPE_WELD_STANDARD
360
CA
1001
ACAD
1000
TREAT_AS_HARD
1070
     1
  0
XRECORD
  5
75
102
{ACAD_REACTORS
330
74
102
}
330
74
100
AcDbXrecord
330
0
  0
MATERIAL
  5
45
102
{ACAD_REACTORS
330
43
102
}
102
{ACAD_XDICTIONARY
360
118
102
}
330
43
100
AcDbMaterial
  1
BYBLOCK
  0
MATERIAL
  5
44
102
{ACAD_REACTORS
330
43
102
}
102
{ACAD_XDICTIONARY
360
116
102
}
330
43
100
AcDbMaterial
  1
BYLAYER
  0
MATERIAL
  5
46
102
{ACAD_REACTORS
330
43
102
}
102
{ACAD_XDICTIONARY
360
11A
102
}
330
43
100
AcDbMaterial
  1
GLOBAL
  0
ACAD_PROXY_OBJECT
  5
6C
102
{ACAD_REACTORS
330
6B
102
}
330
6B
100
AcDbZombieObject
 90
      499
 91
      505
 93
      610
310
40901902A4063FBFFFFFE056BD1B81E855B9FC0AD7A3703D0AD73F4214DD185B99185C9900AD7A3703D0AC73F90140501A02B5E8DC0F42B1CFC02B5E8DC0F42B1CFE5764000000000000300FC0
340
14
340
0
340
11
340
0
 94
        0
1001
ACAD_MLEADERVER
1070
     2
  0
MLINESTYLE
  5
18
102
{ACAD_REACTORS
330
17
102
}
330
17
100
AcDbMlineStyle
  2
Standard
 70
     0
  3

 62
   256
 51
90.0
 52
90.0
 71
     2
 49
0.5
 62
   256
  6
BYLAYER
 49
-0.5
 62
   256
  6
BYLAYER
  0
ACAD_PROXY_OBJECT
  5
48
102
{ACAD_REACTORS
330
47
102
}
330
47
100
AcDbZombieObject
 90
      499
 91
      503
 93
       41
310
903313A31580
  0
ACAD_PROXY_OBJECT
  5
49
102
{ACAD_REACTORS
330
47
102
}
330
47
100
AcDbZombieObject
 90
      499
 91
      503
 93
      105
310
903313A324000000000000004000
  0
ACAD_PROXY_OBJECT
  5
4A
102
{ACAD_REACTORS
330
47
102
}
330
47
100
AcDbZombieObject
 90
      499
 91
      503
 93
      105
310
903313A344000000000000104000
  0
ACAD_PROXY_OBJECT
  5
4B
102
{ACAD_REACTORS
330
47
102
}
330
47
100
AcDbZombieObject
 90
      499
 91
      503
 93
      105
310
903313A354000000000000144000
  0
ACAD_PROXY_OBJECT
  5
4C
102
{ACAD_REACTORS
330
47
102
}
330
47
100
AcDbZombieObject
 90
      499
 91
      503
 93
      105
310
903313A384000000000000204000
  0
ACAD_PROXY_OBJECT
  5
4D
102
{ACAD_REACTORS
330
47
102
}
330
47
100
AcDbZombieObject
 90
      499
 91
      503
 93
      113
310
904313A31304000000000000244000
  0
ACAD_PROXY_OBJECT
  5
4E
102
{ACAD_REACTORS
330
47
102
}
330
47
100
AcDbZombieObject
 90
      499
 91
      503
 93
      113
310
904313A31364000000000000304000
  0
ACAD_PROXY_OBJECT
  5
4F
102
{ACAD_REACTORS
330
47
102
}
330
47
100
AcDbZombieObject
 90
      499
 91
      503
 93
      113
310
904313A32304000000000000344000
  0
ACAD_PROXY_OBJECT
  5
50
102
{ACAD_REACTORS
330
47
102
}
330
47
100
AcDbZombieObject
 90
      499
 91
      503
 93
      113
310
904313A333040000000000003E4000
  0
ACAD_PROXY_OBJECT
  5
51
102
{ACAD_REACTORS
330
47
102
}
330
47
100
AcDbZombieObject
 90
      499
 91
      503
 93
      113
310
904313A34304000000000000444000
  0
ACAD_PROXY_OBJECT
  5
52
102
{ACAD_REACTORS
330
47
102
}
330
47
100
AcDbZombieObject
 90
      499
 91
      503
 93
      113
310
904313A35304000000000000494000
  0
ACAD_PROXY_OBJECT
  5
53
102
{ACAD_REACTORS
330
47
102
}
330
47
100
AcDbZombieObject
 90
      499
 91
      503
 93
      121
310
905313A3130304000000000000594000
  0
ACAD_PROXY_OBJECT
  5
54
102
{ACAD_REACTORS
330
47
102
}
330
47
100
AcDbZombieObject
 90
      499
 91
      503
 93
      105
310
903323A310000000000000010100
  0
ACAD_PROXY_OBJECT
  5
55
102
{ACAD_REACTORS
330
47
102
}
330
47
100
AcDbZombieObject
 90
      499
 91
      503
 93
      105
310
903343A310000000000000410100
  0
ACAD_PROXY_OBJECT
  5
56
102
{ACAD_REACTORS
330
47
102
}
330
47
100
AcDbZombieObject
 90
      499
 91
      503
 93
      105
310
903383A310000000000000810100
  0
ACAD_PROXY_OBJECT
  5
57
102
{ACAD_REACTORS
330
47
102
}
330
47
100
AcDbZombieObject
 90
      499
 91
      503
 93
      113
310
90431303A310000000000000910100
  0
ACAD_PROXY_OBJECT
  5
58
102
{ACAD_REACTORS
330
47
102
}
330
47
100
AcDbZombieObject
 90
      499
 91
      503
 93
      121
310
9053130303A310000000000001650100
  0
ACAD_PROXY_OBJECT
  5
59
102
{ACAD_REACTORS
330
47
102
}
330
47
100
AcDbZombieObject
 90
      499
 91
      503
 93
      257
310
90E312F31323822203D2031272D3022000000000000200FC000000000000284000
  0
ACAD_PROXY_OBJECT
  5
5A
102
{ACAD_REACTORS
330
47
102
}
330
47
100
AcDbZombieObject
 90
      499
 91
      503
 93
      249
310
90D312F363422203D2031272D3022000000000000240FC000000000000284000
  0
ACAD_PROXY_OBJECT
  5
5B
102
{ACAD_REACTORS
330
47
102
}
330
47
100
AcDbZombieObject
 90
      499
 91
      503
 93
      249
310
90D312F333222203D2031272D3022000000000000280FC000000000000284000
  0
ACAD_PROXY_OBJECT
  5
5C
102
{ACAD_REACTORS
330
47
102
}
330
47
100
AcDbZombieObject
 90
      499
 91
      503
 93
      249
310
90D312F313622203D2031272D30220000000000002C0FC000000000000284000
  0
ACAD_PROXY_OBJECT
  5
5D
102
{ACAD_REACTORS
330
47
102
}
330
47
100
AcDbZombieObject
 90
      499
 91
      503
 93
      249
310
90D332F333222203D2031272D30220000000000002E0FC000000000000284000
  0
ACAD_PROXY_OBJECT
  5
5E
102
{ACAD_REACTORS
330
47
102
}
330
47
100
AcDbZombieObject
 90
      499
 91
      503
 93
      241
310
90C312F3822203D2031272D3022000000000000300FC000000000000284000
  0
ACAD_PROXY_OBJECT
  5
5F
102
{ACAD_REACTORS
330
47
102
}
330
47
100
AcDbZombieObject
 90
      499
 91
      503
 93
      249
310
90D332F313622203D2031272D3022000000000000320FC000000000000284000
  0
ACAD_PROXY_OBJECT
  5
60
102
{ACAD_REACTORS
330
47
102
}
330
47
100
AcDbZombieObject
 90
      499
 91
      503
 93
      241
310
90C312F3422203D2031272D3022000000000000340FC000000000000284000
  0
ACAD_PROXY_OBJECT
  5
61
102
{ACAD_REACTORS
330
47
102
}
330
47
100
AcDbZombieObject
 90
      499
 91
      503
 93
      241
310
90C332F3822203D2031272D3022000000000000360FC000000000000284000
  0
ACAD_PROXY_OBJECT
  5
62
102
{ACAD_REACTORS
330
47
102
}
330
47
100
AcDbZombieObject
 90
      499
 91
      503
 93
      241
310
90C312F3222203D2031272D3022000000000000380FC000000000000284000
  0
ACAD_PROXY_OBJECT
  5
63
102
{ACAD_REACTORS
330
47
102
}
330
47
100
AcDbZombieObject
 90
      499
 91
      503
 93
      241
310
90C332F3422203D2031272D30220000000000003A0FC000000000000284000
  0
ACAD_PROXY_OBJECT
  5
64
102
{ACAD_REACTORS
330
47
102
}
330
47
100
AcDbZombieObject
 90
      499
 91
      503
 93
      161
310
90A3122203D2031272D30224000000000000284000
  0
ACAD_PROXY_OBJECT
  5
65
102
{ACAD_REACTORS
330
47
102
}
330
47
100
AcDbZombieObject
 90
      499
 91
      503
 93
      257
310
90E312D312F3222203D2031272D30220000000000003E0FC000000000000284000
  0
ACAD_PROXY_OBJECT
  5
66
102
{ACAD_REACTORS
330
47
102
}
330
47
100
AcDbZombieObject
 90
      499
 91
      503
 93
      225
310
90A3322203D2031272D302200000000000002100000000000000284000
  0
ACAD_PROXY_OBJECT
  5
67
102
{ACAD_REACTORS
330
47
102
}
330
47
100
AcDbZombieObject
 90
      499
 91
      503
 93
      225
310
90A3622203D2031272D302200000000000006100000000000000284000
  0
ACAD_PROXY_OBJECT
  5
68
102
{ACAD_REACTORS
330
47
102
}
330
47
100
AcDbZombieObject
 90
      499
 91
      503
 93
      249
310
90D31272D3022203D2031272D30220000000000000A100000000000000284000
  0
ACAD_PROXY_OBJECT
  5
2F
102
{ACAD_REACTORS
330
2A
102
}
330
2A
100
AcDbZombieObject
 90
      499
 91
      501
 93
      436
310
42CC9915DA5C99599C985B595049028333333333333E33F0000000000000F90107901411070040501600405405064090741402480A0340
1001
ACAD
1000
AcDbSavedByObjectVersion
1070
     0
  0
ACAD_PROXY_OBJECT
  5
32
102
{ACAD_REACTORS
330
2A
102
}
330
2A
100
AcDbZombieObject
 90
      499
 91
      501
 93
      388
310
4150985CDA58D07406404333333333333E33F0000000000000F90107A41107004050150841D405064090741402480A0350
1001
ACAD
1000
AcDbSavedByObjectVersion
1070
     0
  0
ACAD_PROXY_OBJECT
  5
36
102
{ACAD_REACTORS
330
2A
102
}
330
2A
100
AcDbZombieObject
 90
      499
 91
      501
 93
      428
310
42109C9A59DA1D195B90C409028333333333333E33F0000000000000F9010790141107004050150841D405064090741402480A029950
1001
ACAD
1000
AcDbSavedByObjectVersion
1070
     0
  0
ACAD_PROXY_OBJECT
  5
3A
102
{ACAD_REACTORS
330
2A
102
}
330
2A
100
AcDbZombieObject
 90
      499
 91
      501
 93
      452
310
42D0DBDB1BDC90DA185B99D95104090240C333333333333E33F0000000000000F90108901411070040501508421405064090741402480A0350
1001
ACAD
1000
AcDbSavedByObjectVersion
1070
     0
  0
ACAD_PROXY_OBJECT
  5
34
102
{ACAD_REACTORS
330
2A
102
}
330
2A
100
AcDbZombieObject
 90
      499
 91
      501
 93
      500
310
4290DBDB98D95C1D1D585B10940D028333333333333E33F0000000000000F90107902409070040501000000000018199010841D405064090740C02480A0340
1001
ACAD
1000
AcDbSavedByObjectVersion
1070
     0
  0
ACAD_PROXY_OBJECT
  5
35
102
{ACAD_REACTORS
330
2A
102
}
330
2A
100
AcDbZombieObject
 90
      499
 91
      501
 93
      412
310
40D11A5B50B409028333333333333E33F0000000000000F9010790141107004050150841D405064090741402480A02677FFFFFD0
1001
ACAD
1000
AcDbSavedByObjectVersion
1070
     0
  0
ACAD_PROXY_OBJECT
  5
3D
102
{ACAD_REACTORS
330
2A
102
}
330
2A
100
AcDbZombieObject
 90
      499
 91
      501
 93
      452
310
43115919D950DBDB1BDC93D999916409028333333333333E33F0000000000000F9010790141107004050150841D405064090741402480A0350
1001
ACAD
1000
AcDbSavedByObjectVersion
1070
     0
  0
ACAD_PROXY_OBJECT
  5
39
102
{ACAD_REACTORS
330
2A
102
}
330
2A
100
AcDbZombieObject
 90
      499
 91
      501
 93
      444
310
42D19858D95C185D1D195C9B90F409028333333333333E33F0000000000000F9010790141107004050150841D405064090741402480A0350
1001
ACAD
1000
AcDbSavedByObjectVersion
1070
     0
  0
ACAD_PROXY_OBJECT
  5
2B
102
{ACAD_REACTORS
330
2A
102
}
330
2A
100
AcDbZombieObject
 90
      499
 91
      501
 93
      380
310
41119B185D240901404333333333333E33F0000000000000F9010740A907004050150841D405064090741402480A1B50
1001
ACAD
1000
AcDbSavedByObjectVersion
1070
     0
  0
ACAD_PROXY_OBJECT
  5
2C
102
{ACAD_REACTORS
330
2A
102
}
330
2A
100
AcDbZombieObject
 90
      499
 91
      501
 93
      468
310
43519B185D15DA5D1A115919D95CD0140901404333333333333E33F0000000000000F90107409019070040501600405405064090741402480A1B50
1001
ACAD
1000
AcDbSavedByObjectVersion
1070
     0
  0
ACAD_PROXY_OBJECT
  5
2D
102
{ACAD_REACTORS
330
2A
102
}
330
2A
100
AcDbZombieObject
 90
      499
 91
      501
 93
      404
310
41D1DBDD5C985D5910240902404333333333333E33F0000000000000F9010740A9070040501641D405064090741402480A1B50
1001
ACAD
1000
AcDbSavedByObjectVersion
1070
     0
  0
ACAD_PROXY_OBJECT
  5
2E
102
{ACAD_REACTORS
330
2A
102
}
330
2A
100
AcDbZombieObject
 90
      499
 91
      501
 93
      492
310
4411DBDD5C985D5915DA5D1A115919D95CD0340902404333333333333E33F0000000000000F90107409019070040501600405405064090741402480A1B50
1001
ACAD
1000
AcDbSavedByObjectVersion
1070
     0
  0
ACAD_PROXY_OBJECT
  5
31
102
{ACAD_REACTORS
330
2A
102
}
330
2A
100
AcDbZombieObject
 90
      499
 91
      501
 93
      476
310
41921A5919195B90640502408333333333333E33F0000000000000F901079024090700405020000000000001110200405405064090740C02480A0340
1001
ACAD
1000
AcDbSavedByObjectVersion
1070
     0
  0
ACAD_PROXY_OBJECT
  5
3B
102
{ACAD_REACTORS
330
2A
102
}
330
2A
100
AcDbZombieObject
 90
      499
 91
      501
 93
      428
310
42529A5D1D195C93D999914409028333333333333E33F0000000000000F9010790141107004050150A41D405064090741402480A0350
1001
ACAD
1000
AcDbSavedByObjectVersion
1070
     0
  0
ACAD_PROXY_OBJECT
  5
38
102
{ACAD_REACTORS
330
2A
102
}
330
2A
100
AcDbZombieObject
 90
      499
 91
      501
 93
      444
310
42D31A5B995C185D1D195C9B90E409028333333333333E33F0000000000000F9010790141107004050750841D405064090741402483A0350
1001
ACAD
1000
AcDbSavedByObjectVersion
1070
     0
  0
ACAD_PROXY_OBJECT
  5
3C
102
{ACAD_REACTORS
330
2A
102
}
330
2A
100
AcDbZombieObject
 90
      499
 91
      501
 93
      444
310
42D3DD995C9A185B99D3D999915409028333333333333E33F0000000000000F9010790141107004050150941D405064090741402480A0350
1001
ACAD
1000
AcDbSavedByObjectVersion
1070
     0
  0
ACAD_PROXY_OBJECT
  5
33
102
{ACAD_REACTORS
330
2A
102
}
330
2A
100
AcDbZombieObject
 90
      499
 91
      501
 93
      428
310
425499585B1A5CDD1A58D08409038333333333333E33F0000000000000F9010740A907004050150800405405064090740C02480A1B40
1001
ACAD
1000
AcDbSavedByObjectVersion
1070
     0
  0
ACAD_PROXY_OBJECT
  5
42
102
{ACAD_REACTORS
330
2A
102
}
330
2A
100
AcDbZombieObject
 90
      499
 91
      501
 93
      420
310
4194DA1859195911B40902404333333333333E33F0000000000000F9010740A41107004050150800405405064090840C02480A0B40
1001
ACAD
1000
AcDbSavedByObjectVersion
1070
     0
  0
ACAD_PROXY_OBJECT
  5
41
102
{ACAD_REACTORS
330
2A
102
}
330
2A
100
AcDbZombieObject
 90
      499
 91
      501
 93
      516
310
4454DA18591959081DDA5D1A08195919D95CD1A40902404333333333333E33F0000000000000F901074090142907004050250800405405064090740C02480A0B40
1001
ACAD
1000
AcDbSavedByObjectVersion
1070
     0
  0
ACAD_PROXY_OBJECT
  5
3E
102
{ACAD_REACTORS
330
2A
102
}
330
2A
100
AcDbZombieObject
 90
      499
 91
      501
 93
      532
310
4394DA1859195CC81BD98811DC985E5174090240C333333333333E33F0000000000000F901079024090741D01000000000000111010841D405064090740C02480A0340
1001
ACAD
1000
AcDbSavedByObjectVersion
1070
     0
  0
ACAD_PROXY_OBJECT
  5
3F
102
{ACAD_REACTORS
330
2A
102
}
330
2A
100
AcDbZombieObject
 90
      499
 91
      501
 93
      476
310
41D4DAD95D18DA1E51840502408333333333333E33F0000000000000F901079024090741D01000000000000111010B41D405064090741802480A0340
1001
ACAD
1000
AcDbSavedByObjectVersion
1070
     0
  0
ACAD_PROXY_OBJECT
  5
37
102
{ACAD_REACTORS
330
2A
102
}
330
2A
100
AcDbZombieObject
 90
      499
 91
      501
 93
      412
310
41D51A1A58DAD95B90D409028333333333333E33F0000000000000F9010790141107004050150C41D405064090741402480A0350
1001
ACAD
1000
AcDbSavedByObjectVersion
1070
     0
  0
ACAD_PROXY_OBJECT
  5
30
102
{ACAD_REACTORS
330
2A
102
}
330
2A
100
AcDbZombieObject
 90
      499
 91
      501
 93
      420
310
4255DA5C99599C985B595059028333333333333E33F0000000000000F90107901411070040501600405405064090740C02480A0340
1001
ACAD
1000
AcDbSavedByObjectVersion
1070
     0
  0
ACAD_PROXY_OBJECT
  5
40
102
{ACAD_REACTORS
330
2A
102
}
330
2A
100
AcDbZombieObject
 90
      499
 91
      501
 93
      404
310
41560B54985E51940902404000000000000E03F0000000000000F9010740501907004050150841D405064090740C02480A1B40
1001
ACAD
1000
AcDbSavedByObjectVersion
1070
     0
  0
DICTIONARYVAR
  5
114
102
{ACAD_REACTORS
330
6E
102
}
330
6E
100
DictionaryVariables
280
     0
  1
1:1
  0
DICTIONARYVAR
  5
10F
102
{ACAD_REACTORS
330
6E
102
}
330
6E
100
DictionaryVariables
280
     0
  1
Standard
  0
DICTIONARYVAR
  5
10E
102
{ACAD_REACTORS
330
6E
102
}
330
6E
100
DictionaryVariables
280
     0
  1
Onshape-Standard
  0
DICTIONARYVAR
  5
112
102
{ACAD_REACTORS
330
6E
102
}
330
6E
100
DictionaryVariables
280
     0
  1
2
  0
DICTIONARYVAR
  5
113
102
{ACAD_REACTORS
330
6E
102
}
330
6E
100
DictionaryVariables
280
     0
  1
1
  0
DICTIONARYVAR
  5
115
102
{ACAD_REACTORS
330
6E
102
}
330
6E
100
DictionaryVariables
280
     0
  1
1
  0
DICTIONARYVAR
  5
6F
102
{ACAD_REACTORS
330
6E
102
}
330
6E
100
DictionaryVariables
280
     0
  1
0
  0
XRECORD
  5
C9
102
{ACAD_REACTORS
330
C8
102
}
330
C8
100
AcDbXrecord
 70
     1
  0
XRECORD
  5
CC
102
{ACAD_REACTORS
330
C8
102
}
330
C8
100
AcDbXrecord
 90
        0
  0
XRECORD
  5
CB
102
{ACAD_REACTORS
330
C8
102
}
330
C8
100
AcDbXrecord
 90
        0
  0
XRECORD
  5
CA
102
{ACAD_REACTORS
330
C8
102
}
330
C8
100
AcDbXrecord
 90
        0
  0
DICTIONARY
  5
118
330
45
100
AcDbDictionary
  3
ACAD_XREC_ROUNDTRIP
360
119
1001
ACAD
1000
TREAT_AS_HARD
1070
     1
  0
DICTIONARY
  5
116
330
44
100
AcDbDictionary
  3
ACAD_XREC_ROUNDTRIP
360
117
1001
ACAD
1000
TREAT_AS_HARD
1070
     1
  0
DICTIONARY
  5
11A
330
46
100
AcDbDictionary
  3
ACAD_XREC_ROUNDTRIP
360
11B
1001
ACAD
1000
TREAT_AS_HARD
1070
     1
  0
XRECORD
  5
119
102
{ACAD_REACTORS
330
118
102
}
330
118
100
AcDbXrecord
102
MATERIAL
148
0.0
149
0.0
149
0.0
 93
        0
 94
      127
282
     0
 72
     1
 77
     1
171
     1
175
     1
179
     1
273
     0
  0
XRECORD
  5
117
102
{ACAD_REACTORS
330
116
102
}
330
116
100
AcDbXrecord
102
MATERIAL
148
0.0
149
0.0
149
0.0
 93
        0
 94
      127
282
     0
 72
     1
 77
     1
171
     1
175
     1
179
     1
273
     0
  0
XRECORD
  5
11B
102
{ACAD_REACTORS
330
11A
102
}
330
11A
100
AcDbXrecord
102
MATERIAL
148
0.0
149
0.0
149
0.0
 93
        0
 94
      127
282
     0
 72
     1
 77
     1
171
     1
175
     1
179
     1
273
     0
  0
ENDSEC
  0
EOF
