G04 EAGLE Gerber RS-274X export*
G75*
%MOMM*%
%FSLAX34Y34*%
%LPD*%
%INSolderpaste Bottom*%
%IPPOS*%
%AMOC8*
5,1,8,0,0,1.08239X$1,22.5*%
G01*
%ADD10R,0.550000X1.200000*%
%ADD11R,1.000000X1.100000*%
%ADD12R,1.100000X1.000000*%
%ADD13R,0.830000X0.630000*%
%ADD14R,1.500000X0.900000*%
%ADD15R,0.900000X1.500000*%
%ADD16R,6.000000X6.000000*%
%ADD17R,1.200000X0.600000*%
%ADD18R,0.660000X0.300000*%
%ADD19R,1.000000X0.300000*%
%ADD20R,1.000000X0.600000*%
%ADD21R,1.400000X1.800000*%
%ADD22R,1.900000X1.400000*%
%ADD23R,1.500000X0.800000*%
%ADD24R,0.630000X0.830000*%

G36*
X9002Y952552D02*
X9002Y952552D01*
X9004Y952551D01*
X10121Y952632D01*
X10127Y952637D01*
X10132Y952634D01*
X11204Y952961D01*
X11208Y952968D01*
X11214Y952966D01*
X12186Y953523D01*
X12189Y953531D01*
X12195Y953530D01*
X13018Y954290D01*
X13019Y954298D01*
X13025Y954298D01*
X13659Y955223D01*
X13658Y955231D01*
X13664Y955232D01*
X14076Y956274D01*
X14075Y956278D01*
X14078Y956280D01*
X14076Y956283D01*
X14079Y956285D01*
X14249Y957393D01*
X14245Y957399D01*
X14249Y957403D01*
X14181Y958511D01*
X14175Y958517D01*
X14179Y958522D01*
X13866Y959586D01*
X13859Y959591D01*
X13861Y959597D01*
X13319Y960565D01*
X13311Y960568D01*
X13312Y960574D01*
X12568Y961397D01*
X12560Y961399D01*
X12560Y961405D01*
X11651Y962042D01*
X11643Y962041D01*
X11642Y962047D01*
X10614Y962466D01*
X10606Y962464D01*
X10603Y962469D01*
X9508Y962649D01*
X9505Y962647D01*
X9502Y962647D01*
X9500Y962649D01*
X-2500Y962649D01*
X-2503Y962647D01*
X-2509Y962647D01*
X-2510Y962648D01*
X-3556Y962429D01*
X-3561Y962423D01*
X-3566Y962426D01*
X-4537Y961979D01*
X-4541Y961972D01*
X-4546Y961973D01*
X-5393Y961322D01*
X-5396Y961314D01*
X-5401Y961315D01*
X-6082Y960491D01*
X-6083Y960483D01*
X-6088Y960482D01*
X-6569Y959528D01*
X-6567Y959520D01*
X-6573Y959517D01*
X-6829Y958480D01*
X-6827Y958475D01*
X-6829Y958474D01*
X-6827Y958472D01*
X-6830Y958469D01*
X-6849Y957401D01*
X-6849Y957400D01*
X-6853Y956431D01*
X-6848Y956424D01*
X-6852Y956420D01*
X-6639Y955474D01*
X-6633Y955469D01*
X-6636Y955464D01*
X-6218Y954589D01*
X-6211Y954585D01*
X-6212Y954579D01*
X-5611Y953819D01*
X-5603Y953817D01*
X-5603Y953811D01*
X-4847Y953204D01*
X-4839Y953204D01*
X-4838Y953199D01*
X-3966Y952775D01*
X-3958Y952776D01*
X-3955Y952771D01*
X-3011Y952552D01*
X-3004Y952555D01*
X-3000Y952551D01*
X9000Y952551D01*
X9002Y952552D01*
G37*
G36*
X9503Y866153D02*
X9503Y866153D01*
X9506Y866151D01*
X10551Y866269D01*
X10557Y866275D01*
X10562Y866271D01*
X11556Y866619D01*
X11560Y866626D01*
X11565Y866624D01*
X12457Y867184D01*
X12460Y867191D01*
X12465Y867191D01*
X13209Y867935D01*
X13211Y867943D01*
X13216Y867943D01*
X13776Y868835D01*
X13776Y868842D01*
X13777Y868843D01*
X13781Y868844D01*
X14129Y869838D01*
X14126Y869846D01*
X14131Y869849D01*
X14249Y870895D01*
X14246Y870900D01*
X14249Y870903D01*
X14191Y872023D01*
X14185Y872029D01*
X14189Y872034D01*
X13882Y873113D01*
X13876Y873118D01*
X13878Y873123D01*
X13339Y874107D01*
X13332Y874110D01*
X13333Y874116D01*
X12589Y874955D01*
X12581Y874956D01*
X12581Y874962D01*
X11668Y875615D01*
X11660Y875615D01*
X11659Y875620D01*
X10624Y876053D01*
X10616Y876051D01*
X10614Y876056D01*
X9508Y876249D01*
X9505Y876247D01*
X9502Y876247D01*
X9500Y876249D01*
X-2500Y876249D01*
X-2503Y876247D01*
X-2509Y876247D01*
X-2511Y876248D01*
X-3566Y876017D01*
X-3571Y876010D01*
X-3577Y876013D01*
X-4554Y875552D01*
X-4558Y875545D01*
X-4564Y875546D01*
X-5414Y874880D01*
X-5416Y874872D01*
X-5422Y874872D01*
X-6103Y874033D01*
X-6103Y874025D01*
X-6109Y874024D01*
X-6586Y873054D01*
X-6584Y873046D01*
X-6590Y873044D01*
X-6839Y871992D01*
X-6836Y871985D01*
X-6840Y871981D01*
X-6849Y870900D01*
X-6848Y870898D01*
X-6849Y870897D01*
X-6781Y869890D01*
X-6775Y869884D01*
X-6779Y869879D01*
X-6488Y868914D01*
X-6482Y868909D01*
X-6484Y868903D01*
X-5986Y868026D01*
X-5978Y868023D01*
X-5979Y868017D01*
X-5298Y867273D01*
X-5290Y867272D01*
X-5290Y867266D01*
X-4461Y866692D01*
X-4453Y866692D01*
X-4451Y866687D01*
X-3515Y866312D01*
X-3507Y866314D01*
X-3504Y866309D01*
X-2508Y866151D01*
X-2503Y866154D01*
X-2500Y866151D01*
X9500Y866151D01*
X9503Y866153D01*
G37*
G36*
X-35799Y952552D02*
X-35799Y952552D01*
X-35798Y952551D01*
X-34643Y952602D01*
X-34637Y952607D01*
X-34632Y952604D01*
X-33518Y952911D01*
X-33513Y952917D01*
X-33508Y952915D01*
X-32489Y953462D01*
X-32486Y953469D01*
X-32480Y953468D01*
X-31609Y954228D01*
X-31608Y954236D01*
X-31602Y954236D01*
X-30922Y955171D01*
X-30922Y955179D01*
X-30917Y955181D01*
X-30462Y956243D01*
X-30464Y956251D01*
X-30459Y956254D01*
X-30252Y957391D01*
X-30256Y957400D01*
X-30251Y957405D01*
X-30357Y958542D01*
X-30362Y958548D01*
X-30359Y958553D01*
X-30715Y959638D01*
X-30722Y959643D01*
X-30719Y959648D01*
X-31308Y960627D01*
X-31316Y960630D01*
X-31315Y960636D01*
X-32107Y961459D01*
X-32115Y961460D01*
X-32115Y961466D01*
X-33070Y962093D01*
X-33078Y962092D01*
X-33080Y962098D01*
X-34150Y962496D01*
X-34158Y962494D01*
X-34161Y962499D01*
X-35294Y962649D01*
X-35297Y962647D01*
X-35298Y962647D01*
X-35300Y962649D01*
X-41300Y962649D01*
X-41302Y962647D01*
X-41304Y962649D01*
X-42387Y962561D01*
X-42393Y962555D01*
X-42398Y962559D01*
X-43434Y962232D01*
X-43439Y962225D01*
X-43444Y962227D01*
X-44382Y961678D01*
X-44385Y961670D01*
X-44390Y961671D01*
X-45182Y960927D01*
X-45183Y960919D01*
X-45189Y960919D01*
X-45796Y960017D01*
X-45795Y960009D01*
X-45801Y960007D01*
X-46191Y958993D01*
X-46189Y958985D01*
X-46194Y958983D01*
X-46349Y957907D01*
X-46346Y957901D01*
X-46349Y957899D01*
X-46315Y956798D01*
X-46310Y956792D01*
X-46314Y956787D01*
X-46036Y955722D01*
X-46030Y955717D01*
X-46032Y955712D01*
X-45524Y954735D01*
X-45517Y954731D01*
X-45518Y954726D01*
X-44805Y953887D01*
X-44797Y953885D01*
X-44797Y953879D01*
X-43916Y953219D01*
X-43908Y953219D01*
X-43906Y953214D01*
X-42900Y952767D01*
X-42892Y952769D01*
X-42890Y952764D01*
X-41809Y952552D01*
X-41803Y952555D01*
X-41800Y952551D01*
X-35800Y952551D01*
X-35799Y952552D01*
G37*
G36*
X-35296Y866154D02*
X-35296Y866154D01*
X-35294Y866151D01*
X-34161Y866301D01*
X-34155Y866307D01*
X-34150Y866304D01*
X-33080Y866702D01*
X-33076Y866709D01*
X-33070Y866707D01*
X-32115Y867334D01*
X-32112Y867342D01*
X-32107Y867341D01*
X-31315Y868164D01*
X-31314Y868172D01*
X-31308Y868173D01*
X-30719Y869152D01*
X-30720Y869160D01*
X-30715Y869162D01*
X-30359Y870247D01*
X-30362Y870255D01*
X-30357Y870258D01*
X-30251Y871395D01*
X-30255Y871402D01*
X-30251Y871407D01*
X-30396Y872494D01*
X-30402Y872500D01*
X-30399Y872505D01*
X-30783Y873533D01*
X-30789Y873538D01*
X-30788Y873543D01*
X-31390Y874460D01*
X-31398Y874463D01*
X-31397Y874469D01*
X-32189Y875229D01*
X-32197Y875230D01*
X-32198Y875236D01*
X-33139Y875800D01*
X-33147Y875799D01*
X-33149Y875805D01*
X-34192Y876146D01*
X-34200Y876144D01*
X-34203Y876148D01*
X-35296Y876249D01*
X-35298Y876247D01*
X-35300Y876249D01*
X-41300Y876249D01*
X-41303Y876247D01*
X-41305Y876249D01*
X-42397Y876148D01*
X-42403Y876143D01*
X-42408Y876146D01*
X-43451Y875805D01*
X-43456Y875798D01*
X-43461Y875800D01*
X-44402Y875236D01*
X-44405Y875228D01*
X-44411Y875229D01*
X-45203Y874469D01*
X-45204Y874461D01*
X-45210Y874460D01*
X-45813Y873543D01*
X-45812Y873535D01*
X-45818Y873533D01*
X-46201Y872505D01*
X-46199Y872497D01*
X-46204Y872494D01*
X-46349Y871407D01*
X-46345Y871399D01*
X-46349Y871395D01*
X-46243Y870258D01*
X-46238Y870252D01*
X-46241Y870247D01*
X-45885Y869162D01*
X-45878Y869157D01*
X-45881Y869152D01*
X-45292Y868173D01*
X-45284Y868170D01*
X-45285Y868164D01*
X-44493Y867341D01*
X-44485Y867340D01*
X-44485Y867334D01*
X-43530Y866707D01*
X-43522Y866708D01*
X-43520Y866702D01*
X-42450Y866304D01*
X-42442Y866306D01*
X-42439Y866301D01*
X-41306Y866151D01*
X-41302Y866154D01*
X-41300Y866151D01*
X-35300Y866151D01*
X-35296Y866154D01*
G37*
D10*
X66700Y1041701D03*
X76200Y1041701D03*
X85700Y1041701D03*
X85700Y1015699D03*
X66700Y1015699D03*
D11*
X50800Y1037200D03*
X50800Y1020200D03*
D12*
X84700Y1066800D03*
X67700Y1066800D03*
X84700Y993140D03*
X67700Y993140D03*
D13*
X139700Y991800D03*
X139700Y1014800D03*
D11*
X365760Y973700D03*
X365760Y956700D03*
D12*
X93100Y962660D03*
X110100Y962660D03*
D11*
X355600Y1011800D03*
X355600Y994800D03*
X381000Y973700D03*
X381000Y956700D03*
D14*
X336380Y1029500D03*
X336380Y1016800D03*
X336380Y1004100D03*
X336380Y991400D03*
X336380Y978700D03*
X336380Y966000D03*
X336380Y953300D03*
X336380Y940600D03*
X336380Y927900D03*
X336380Y915200D03*
X336380Y902500D03*
X336380Y889800D03*
X336380Y877100D03*
X336380Y864400D03*
D15*
X311150Y849500D03*
X298450Y849500D03*
X285750Y849500D03*
X273050Y849500D03*
X260350Y849500D03*
X247650Y849500D03*
X234950Y849500D03*
X222250Y849500D03*
X209550Y849500D03*
X196850Y849500D03*
D14*
X171620Y864400D03*
X171620Y877100D03*
X171620Y889800D03*
X171620Y902500D03*
X171620Y915200D03*
X171620Y927900D03*
X171620Y940600D03*
X171620Y953300D03*
X171620Y966000D03*
X171620Y978700D03*
X171620Y991400D03*
X171620Y1004100D03*
X171620Y1016800D03*
X171620Y1029500D03*
D16*
X254000Y952500D03*
D11*
X370840Y1011800D03*
X370840Y994800D03*
D17*
X129600Y946150D03*
X129600Y933450D03*
X129600Y920750D03*
X129600Y908050D03*
X129600Y895350D03*
X129600Y882650D03*
X129600Y869950D03*
X129600Y857250D03*
X73600Y857250D03*
X73600Y869950D03*
X73600Y882650D03*
X73600Y895350D03*
X73600Y908050D03*
X73600Y920750D03*
X73600Y933450D03*
X73600Y946150D03*
D12*
X29600Y876300D03*
X46600Y876300D03*
X46600Y927100D03*
X29600Y927100D03*
D18*
X47300Y908200D03*
X28900Y901700D03*
X28900Y895200D03*
X28900Y908200D03*
X47300Y901700D03*
X47300Y895200D03*
D19*
X9300Y921900D03*
X9300Y916900D03*
D20*
X9300Y946650D03*
X9300Y938900D03*
D19*
X9300Y931900D03*
X9300Y926900D03*
X9300Y906900D03*
X9300Y911900D03*
D20*
X9300Y882150D03*
X9300Y889900D03*
D19*
X9300Y896900D03*
X9300Y901900D03*
D12*
X-33900Y977900D03*
X-16900Y977900D03*
X-33900Y850900D03*
X-16900Y850900D03*
X93100Y977900D03*
X110100Y977900D03*
D21*
X397700Y938500D03*
X397700Y995500D03*
D22*
X529200Y1011500D03*
X539200Y880000D03*
D23*
X500700Y926600D03*
X496700Y937600D03*
X500700Y948600D03*
X502700Y959600D03*
X500700Y970600D03*
X502700Y981600D03*
X500700Y992600D03*
X500700Y1003600D03*
D12*
X453780Y863600D03*
X470780Y863600D03*
X416950Y863600D03*
X433950Y863600D03*
D24*
X49600Y850900D03*
X26600Y850900D03*
M02*
