G04 EAGLE Gerber RS-274X export*
G75*
%MOMM*%
%FSLAX34Y34*%
%LPD*%
%INSolderpaste Bottom*%
%IPPOS*%
%AMOC8*
5,1,8,0,0,1.08239X$1,22.5*%
G01*
%ADD10R,1.200000X2.000000*%
%ADD11R,0.600000X1.350000*%
%ADD12R,1.000000X1.100000*%
%ADD13R,1.100000X1.000000*%
%ADD14R,0.830000X0.630000*%
%ADD15R,1.500000X0.900000*%
%ADD16R,0.900000X1.500000*%
%ADD17R,6.000000X6.000000*%
%ADD18R,1.200000X0.600000*%
%ADD19R,0.660000X0.300000*%
%ADD20R,1.800000X1.400000*%
%ADD21R,1.400000X1.900000*%
%ADD22R,0.800000X1.500000*%
%ADD23R,0.250000X0.637500*%
%ADD24R,0.500000X0.640000*%
%ADD25R,0.260000X0.599000*%
%ADD26R,2.000000X1.000000*%


D10*
X282000Y11350D03*
X226000Y11350D03*
D11*
X269000Y48100D03*
X259000Y48100D03*
X249000Y48100D03*
X239000Y48100D03*
D12*
X50800Y1007500D03*
X50800Y1024500D03*
D13*
X84700Y1054100D03*
X67700Y1054100D03*
X84700Y980440D03*
X67700Y980440D03*
D14*
X139700Y979100D03*
X139700Y1002100D03*
D12*
X365760Y961000D03*
X365760Y944000D03*
D13*
X93100Y949960D03*
X110100Y949960D03*
D12*
X355600Y999100D03*
X355600Y982100D03*
X381000Y961000D03*
X381000Y944000D03*
D15*
X336380Y1016800D03*
X336380Y1004100D03*
X336380Y991400D03*
X336380Y978700D03*
X336380Y966000D03*
X336380Y953300D03*
X336380Y940600D03*
X336380Y927900D03*
X336380Y915200D03*
X336380Y902500D03*
X336380Y889800D03*
X336380Y877100D03*
X336380Y864400D03*
X336380Y851700D03*
D16*
X311150Y836800D03*
X298450Y836800D03*
X285750Y836800D03*
X273050Y836800D03*
X260350Y836800D03*
X247650Y836800D03*
X234950Y836800D03*
X222250Y836800D03*
X209550Y836800D03*
X196850Y836800D03*
D15*
X171620Y851700D03*
X171620Y864400D03*
X171620Y877100D03*
X171620Y889800D03*
X171620Y902500D03*
X171620Y915200D03*
X171620Y927900D03*
X171620Y940600D03*
X171620Y953300D03*
X171620Y966000D03*
X171620Y978700D03*
X171620Y991400D03*
X171620Y1004100D03*
X171620Y1016800D03*
D17*
X254000Y939800D03*
D12*
X370840Y999100D03*
X370840Y982100D03*
D18*
X129600Y933450D03*
X129600Y920750D03*
X129600Y908050D03*
X129600Y895350D03*
X129600Y882650D03*
X129600Y869950D03*
X129600Y857250D03*
X129600Y844550D03*
X73600Y844550D03*
X73600Y857250D03*
X73600Y869950D03*
X73600Y882650D03*
X73600Y895350D03*
X73600Y908050D03*
X73600Y920750D03*
X73600Y933450D03*
D13*
X29600Y863600D03*
X46600Y863600D03*
X46600Y914400D03*
X29600Y914400D03*
D19*
X47300Y895500D03*
X28900Y889000D03*
X28900Y882500D03*
X28900Y895500D03*
X47300Y889000D03*
X47300Y882500D03*
D13*
X93100Y965200D03*
X110100Y965200D03*
X416950Y850900D03*
X433950Y850900D03*
D20*
X438120Y152050D03*
X495120Y152050D03*
D21*
X511120Y20550D03*
X379620Y10550D03*
D22*
X426220Y49050D03*
X437220Y53050D03*
X448220Y49050D03*
X459220Y47050D03*
X470220Y49050D03*
X481220Y47050D03*
X492220Y49050D03*
X503220Y49050D03*
D23*
X121800Y1043913D03*
X116800Y1064288D03*
X121800Y1064288D03*
X111800Y1064288D03*
X106800Y1064288D03*
X116800Y1043913D03*
X111800Y1043913D03*
X106800Y1043913D03*
D24*
X110900Y1054100D03*
X117700Y1054100D03*
D13*
X84700Y1069340D03*
X67700Y1069340D03*
D25*
X76200Y1002005D03*
X81200Y1002005D03*
X86200Y1002005D03*
X71200Y1002005D03*
X66200Y1002005D03*
X66200Y1029995D03*
X71200Y1029995D03*
X76200Y1029995D03*
X81200Y1029995D03*
X86200Y1029995D03*
D26*
X76200Y1016000D03*
D13*
X33900Y1049020D03*
X16900Y1049020D03*
X33900Y1029970D03*
X16900Y1029970D03*
X33900Y1069340D03*
X16900Y1069340D03*
M02*
