M48
;GenerationSoftware,Autodesk,EAGLE,9.6.2*%
;CreationDate,2020-09-25T19:00:45Z*%
FMAT,2
ICI,OFF
METRIC,TZ,000.000
T7C0.305
T6C0.381
T5C0.400
T4C0.650
T3C0.850
T2C1.016
T1C3.200
%
G90
M71
T1
X-3099Y78346
X-3099Y28334
X53899Y78346
X53899Y28334
T2
X38100Y91440
X44450Y24130
X10160Y27940
X10160Y25400
X-6350Y34290
X1270Y6255
X3810Y6255
X6350Y6255
X10160Y22860
X10160Y20320
X44450Y16510
X46990Y16510
X52070Y16510
X-1270Y6255
X49530Y16510
X11430Y102870
X11430Y100330
X44450Y26670
X44450Y29210
X44450Y31750
X-6350Y31750
X29845Y6985
X32385Y6985
X6350Y108712
X8890Y108712
X38100Y88900
T3
X3810Y20550
X3810Y30250
X3810Y33250
X3810Y17550
T4
X28290Y3762
X22510Y3762
X39720Y3762
X33940Y3762
T5
X41148Y4292
X41148Y112
X32512Y112
X21082Y4292
X29718Y4292
X29718Y112
X32512Y4292
X21082Y112
T6
X27940Y6096
X22987Y6096
T7
X21336Y22606
X23495Y22606
X25527Y22606
X27686Y22606
X29718Y22606
X31877Y22606
X33909Y22606
X17018Y22606
X19050Y24638
X21209Y24638
X23368Y24638
X25400Y24638
X27559Y24638
X29591Y24638
X31750Y24638
X33782Y24638
X16891Y24638
X19050Y26670
X21209Y26670
X23368Y26670
X25400Y26670
X27559Y26670
X29591Y26670
X31750Y26670
X33782Y26670
X16891Y26670
X19050Y20574
X21209Y20574
X23368Y20574
X25400Y20574
X27559Y20574
X29591Y20574
X31750Y20574
X33782Y20574
X16891Y20574
X17272Y17526
X29337Y17526
X26289Y17526
X28321Y17526
X30480Y17526
X32512Y17526
X15621Y17526
X14097Y35687
X16256Y35687
X18288Y35687
X22606Y35814
X28194Y35814
X30226Y35814
X32131Y35814
X34290Y35941
X36322Y35941
X37465Y33528
X37084Y26797
X37084Y23876
X37084Y22479
X37084Y20955
X37211Y18669
X37465Y35306
X33782Y19304
X36195Y17272
X34544Y17272
X18542Y17526
X18415Y16383
X17653Y15494
X16891Y14732
X16002Y13716
X14986Y12954
X14224Y12065
X15240Y10922
X12954Y7144
X12065Y6890
X16510Y6890
X10668Y6890
X8763Y6890
X15113Y6890
X8509Y5493
X8509Y4096
X8509Y2699
X8509Y-95
X8509Y1302
X16256Y11684
X17145Y12700
X13843Y17399
X13843Y19431
X15367Y18923
X13970Y26670
X13970Y27813
X13208Y11176
X18034Y13462
X18923Y14478
X19812Y15367
X18161Y10922
X18034Y6890
X19431Y6763
X19304Y5493
X19304Y3969
X19304Y2826
X19304Y1302
X19304Y-95
X20447Y17907
X16891Y18923
X16764Y34417
X15494Y34417
X33909Y34417
X35433Y34544
X35560Y18923
X-5461Y43688
X24765Y51816
X13081Y8763
X15113Y8763
X48133Y96901
X34544Y53848
X23241Y53975
X22860Y61595
X34671Y61595
X21590Y95250
X21590Y96520
X29210Y96520
X29210Y95250
X27940Y90170
X26670Y90170
X25400Y90170
X24130Y90170
X22860Y90170
X21590Y90170
X21590Y97790
X22860Y97790
X24130Y97790
X25400Y97790
X26670Y97790
X27940Y97790
X31750Y32766
X29210Y90170
X24130Y96520
X24130Y95250
X25400Y95250
X25400Y96520
X26670Y96520
X26670Y95250
X49784Y2064
X40132Y6128
X15367Y101600
X35306Y101600
X30988Y101600
X18796Y101600
X31115Y85217
X31115Y82169
X35433Y11811
X31392Y39853
X8166Y27940
X9144Y39751
X15367Y99187
X16637Y38862
X11303Y107442
X7823Y30048
X7599Y40788
X31013Y41427
X36195Y11049
X15494Y95250
X18288Y40894
X12954Y106845
X23749Y35636
X23749Y42037
X11684Y38989
X19050Y42037
X34646Y55245
X50673Y38735
X56134Y38735
X40386Y39522
X44450Y41021
X34735Y46352
X25400Y15240
X24346Y38862
X19050Y38989
X22860Y15240
X21590Y38989
X2540Y16510
X0Y38100
X41618Y37910
X8890Y16510
X10922Y37084
X42926Y35687
X43434Y34290
X39548Y39853
X31090Y42283
X3429Y101600
X30467Y99314
X48260Y35560
X6604Y27940
X47371Y37465
X-559Y29210
X6350Y24130
X5715Y36068
X1016Y26670
X1016Y35814
X5842Y88265
X15113Y85217
X3641Y92625
X39370Y96139
X32258Y88900
X22860Y88900
X12065Y27940
X35306Y65786
X22860Y62865
X2540Y19050
X3175Y38697
X21082Y41910
X15494Y87757
X21590Y87630
X31369Y90297
X41656Y90297
X39916Y31438
X32258Y87033
X23622Y86995
X12065Y26670
X15494Y91567
X41298Y30048
X31855Y91672
X15494Y90297
X-3556Y39243
X16764Y41402
X15494Y86487
X45720Y40640
X10541Y35776
X5080Y19050
X5080Y40259
X20320Y40538
X20320Y88900
X15240Y88900
X19685Y50165
X22631Y58420
X32131Y97790
X9652Y99314
X9652Y107315
X36195Y3683
X39205Y29778
X31369Y80391
X11430Y80391
X37592Y5969
X39561Y30608
X31661Y79553
X11303Y79248
X34417Y6731
X39243Y6731
X36957Y6858
X13970Y73660
X13970Y98806
X30099Y73533
X31750Y38735
X54102Y43180
X24130Y15748
X37973Y9119
X45085Y37592
X15494Y93222
X42164Y29972
X31877Y92710
X15367Y100457
X40932Y30868
X30861Y100330
X42799Y37846
X31750Y95250
X41529Y33147
X31750Y94048
X29210Y40640
X10160Y76708
X43434Y76835
X29210Y97790
X28956Y76581
X46355Y2159
X26162Y44920
X29210Y38989
X26416Y42037
X33528Y5874
X48133Y2064
X4445Y2064
X21590Y14478
X24511Y11303
X28194Y7779
X21971Y6128
X2159Y94361
X2032Y84709
X12319Y95250
X11811Y93345
X19177Y28702
X21336Y28702
X23495Y28702
X25527Y28702
X27686Y28702
X29718Y28702
X31877Y28702
X33909Y28702
X17018Y28702
X19050Y30734
X21209Y30734
X23368Y30734
X25400Y30734
X27559Y30734
X29591Y30734
X31750Y30734
X33782Y30734
X16891Y30734
X19050Y32766
X21209Y32766
X23368Y32766
X25400Y32766
X27559Y32766
X29591Y32766
X33782Y32766
X16891Y32766
X19177Y22606
X16129Y42799
M30