M48
;GenerationSoftware,Autodesk,EAGLE,9.6.2*%
;CreationDate,2020-08-19T18:59:55Z*%
FMAT,2
ICI,OFF
METRIC,TZ,000.000
T4C0.400
T3C0.650
T2C1.016
T1C3.200
%
G90
M71
T1
X64059Y79616
X64059Y29604
X7061Y29604
X7061Y79616
T2
X40640Y13970
X50800Y22860
X50800Y25400
X50800Y27940
X50800Y30480
X50800Y33020
X60960Y34290
X60960Y36830
X63500Y34290
X63500Y36830
X66040Y34290
X66040Y36830
X38100Y13970
X50800Y35560
X43180Y13970
X45720Y13970
X48260Y13970
X50800Y13970
X34290Y105410
X34290Y102870
X20320Y38100
X17780Y38100
X50800Y17780
X50800Y20320
T3
X38450Y4905
X32670Y4905
T4
X31242Y1255
X39878Y1255
X39878Y5435
X31242Y5435
M30