G04 EAGLE Gerber RS-274X export*
G75*
%MOMM*%
%FSLAX34Y34*%
%LPD*%
%INSoldermask Top*%
%IPPOS*%
%AMOC8*
5,1,8,0,0,1.08239X$1,22.5*%
G01*
%ADD10C,0.838200*%
%ADD11R,1.403200X2.203200*%
%ADD12R,0.803200X1.553200*%
%ADD13R,1.303200X1.203200*%
%ADD14R,4.200000X1.700000*%
%ADD15C,0.505344*%
%ADD16R,0.833200X1.033200*%
%ADD17R,1.203200X1.303200*%
%ADD18R,1.403200X0.753200*%
%ADD19R,1.103200X1.053200*%
%ADD20R,0.803200X0.803200*%
%ADD21R,1.053200X1.723200*%
%ADD22R,1.723200X1.053200*%
%ADD23R,1.303200X1.303200*%
%ADD24R,0.503200X1.203200*%
%ADD25R,0.803200X1.203200*%
%ADD26C,0.853200*%
%ADD27R,0.453200X0.813200*%
%ADD28R,0.453200X0.763200*%
%ADD29R,1.353200X7.203200*%
%ADD30R,1.103200X2.403200*%
%ADD31R,0.620000X0.840000*%
%ADD32R,0.620000X0.560000*%
%ADD33R,0.640000X0.840000*%
%ADD34C,3.403600*%
%ADD35R,1.203200X4.803200*%
%ADD36R,1.803200X3.603200*%
%ADD37R,4.803200X1.203200*%
%ADD38R,3.603200X1.803200*%
%ADD39C,2.082800*%
%ADD40R,1.353200X1.203200*%
%ADD41C,1.053200*%
%ADD42R,0.965200X1.727200*%
%ADD43R,0.803200X1.903200*%
%ADD44R,1.203200X2.903200*%

G36*
X251242Y468263D02*
X251242Y468263D01*
X251286Y468266D01*
X251308Y468282D01*
X251334Y468290D01*
X251363Y468323D01*
X251398Y468349D01*
X251408Y468375D01*
X251426Y468395D01*
X251433Y468439D01*
X251448Y468479D01*
X251443Y468506D01*
X251447Y468533D01*
X251429Y468574D01*
X251420Y468616D01*
X251394Y468652D01*
X251390Y468661D01*
X251385Y468665D01*
X251376Y468676D01*
X227376Y492676D01*
X227338Y492697D01*
X227305Y492726D01*
X227278Y492730D01*
X227254Y492743D01*
X227210Y492740D01*
X227167Y492747D01*
X227142Y492736D01*
X227114Y492734D01*
X227079Y492708D01*
X227039Y492690D01*
X227024Y492667D01*
X227002Y492651D01*
X226986Y492610D01*
X226962Y492574D01*
X226955Y492530D01*
X226952Y492521D01*
X226953Y492514D01*
X226951Y492500D01*
X226951Y468500D01*
X226956Y468484D01*
X226953Y468467D01*
X226975Y468417D01*
X226990Y468366D01*
X227003Y468355D01*
X227010Y468339D01*
X227055Y468309D01*
X227095Y468274D01*
X227112Y468271D01*
X227127Y468262D01*
X227200Y468251D01*
X251200Y468251D01*
X251242Y468263D01*
G37*
G36*
X298484Y44153D02*
X298484Y44153D01*
X298490Y44159D01*
X298495Y44155D01*
X299725Y44520D01*
X299730Y44527D01*
X299735Y44525D01*
X300854Y45155D01*
X300857Y45162D01*
X300863Y45161D01*
X301813Y46024D01*
X301814Y46032D01*
X301820Y46032D01*
X302554Y47085D01*
X302554Y47093D01*
X302559Y47095D01*
X303041Y48285D01*
X303039Y48290D01*
X303043Y48293D01*
X303042Y48294D01*
X303044Y48295D01*
X303249Y49562D01*
X303246Y49567D01*
X303249Y49570D01*
X303249Y61570D01*
X303246Y61574D01*
X303249Y61577D01*
X303094Y62699D01*
X303089Y62704D01*
X303092Y62708D01*
X302721Y63779D01*
X302715Y63783D01*
X302717Y63788D01*
X302144Y64765D01*
X302138Y64768D01*
X302139Y64773D01*
X301386Y65620D01*
X301379Y65622D01*
X301379Y65627D01*
X300476Y66311D01*
X300469Y66311D01*
X300468Y66316D01*
X299449Y66811D01*
X299442Y66809D01*
X299440Y66814D01*
X298343Y67101D01*
X298337Y67098D01*
X298334Y67102D01*
X297203Y67169D01*
X297197Y67169D01*
X296066Y67102D01*
X296061Y67097D01*
X296057Y67101D01*
X294960Y66814D01*
X294956Y66808D01*
X294951Y66811D01*
X293932Y66316D01*
X293929Y66310D01*
X293924Y66311D01*
X293021Y65627D01*
X293019Y65620D01*
X293014Y65620D01*
X292261Y64773D01*
X292261Y64766D01*
X292256Y64765D01*
X291683Y63788D01*
X291684Y63785D01*
X291683Y63784D01*
X291684Y63783D01*
X291684Y63781D01*
X291679Y63779D01*
X291308Y62708D01*
X291310Y62703D01*
X291307Y62701D01*
X291307Y62700D01*
X291306Y62699D01*
X291151Y61577D01*
X291154Y61572D01*
X291151Y61570D01*
X291151Y49570D01*
X291154Y49565D01*
X291151Y49562D01*
X291356Y48295D01*
X291362Y48289D01*
X291359Y48285D01*
X291841Y47095D01*
X291848Y47091D01*
X291846Y47085D01*
X292580Y46032D01*
X292588Y46030D01*
X292587Y46024D01*
X293537Y45161D01*
X293546Y45160D01*
X293546Y45155D01*
X294665Y44525D01*
X294673Y44526D01*
X294675Y44520D01*
X295905Y44155D01*
X295913Y44158D01*
X295916Y44153D01*
X297197Y44071D01*
X297201Y44074D01*
X297203Y44071D01*
X298484Y44153D01*
G37*
G36*
X212084Y44153D02*
X212084Y44153D01*
X212090Y44159D01*
X212095Y44155D01*
X213325Y44520D01*
X213330Y44527D01*
X213335Y44525D01*
X214454Y45155D01*
X214457Y45162D01*
X214463Y45161D01*
X215413Y46024D01*
X215414Y46032D01*
X215420Y46032D01*
X216154Y47085D01*
X216154Y47093D01*
X216159Y47095D01*
X216641Y48285D01*
X216639Y48290D01*
X216643Y48293D01*
X216642Y48294D01*
X216644Y48295D01*
X216849Y49562D01*
X216846Y49567D01*
X216849Y49570D01*
X216849Y61570D01*
X216846Y61574D01*
X216849Y61577D01*
X216694Y62699D01*
X216689Y62704D01*
X216692Y62708D01*
X216321Y63779D01*
X216315Y63783D01*
X216317Y63788D01*
X215744Y64765D01*
X215738Y64768D01*
X215739Y64773D01*
X214986Y65620D01*
X214979Y65622D01*
X214979Y65627D01*
X214076Y66311D01*
X214069Y66311D01*
X214068Y66316D01*
X213049Y66811D01*
X213042Y66809D01*
X213040Y66814D01*
X211943Y67101D01*
X211937Y67098D01*
X211934Y67102D01*
X210803Y67169D01*
X210797Y67169D01*
X209666Y67102D01*
X209661Y67097D01*
X209657Y67101D01*
X208560Y66814D01*
X208556Y66808D01*
X208551Y66811D01*
X207532Y66316D01*
X207529Y66310D01*
X207524Y66311D01*
X206621Y65627D01*
X206619Y65620D01*
X206614Y65620D01*
X205861Y64773D01*
X205861Y64766D01*
X205856Y64765D01*
X205283Y63788D01*
X205284Y63785D01*
X205283Y63784D01*
X205284Y63783D01*
X205284Y63781D01*
X205279Y63779D01*
X204908Y62708D01*
X204910Y62703D01*
X204907Y62701D01*
X204907Y62700D01*
X204906Y62699D01*
X204751Y61577D01*
X204754Y61572D01*
X204751Y61570D01*
X204751Y49570D01*
X204754Y49565D01*
X204751Y49562D01*
X204956Y48295D01*
X204962Y48289D01*
X204959Y48285D01*
X205441Y47095D01*
X205448Y47091D01*
X205446Y47085D01*
X206180Y46032D01*
X206188Y46030D01*
X206187Y46024D01*
X207137Y45161D01*
X207146Y45160D01*
X207146Y45155D01*
X208265Y44525D01*
X208273Y44526D01*
X208275Y44520D01*
X209505Y44155D01*
X209513Y44158D01*
X209516Y44153D01*
X210797Y44071D01*
X210801Y44074D01*
X210803Y44071D01*
X212084Y44153D01*
G37*
G36*
X298371Y4881D02*
X298371Y4881D01*
X298376Y4886D01*
X298380Y4883D01*
X299503Y5218D01*
X299507Y5224D01*
X299511Y5222D01*
X300547Y5770D01*
X300550Y5776D01*
X300555Y5775D01*
X301463Y6514D01*
X301465Y6521D01*
X301470Y6521D01*
X302217Y7423D01*
X302217Y7431D01*
X302223Y7431D01*
X302779Y8462D01*
X302778Y8469D01*
X302783Y8471D01*
X303127Y9590D01*
X303125Y9597D01*
X303129Y9600D01*
X303249Y10765D01*
X303247Y10768D01*
X303249Y10770D01*
X303249Y16770D01*
X303247Y16773D01*
X303249Y16775D01*
X303138Y17951D01*
X303133Y17956D01*
X303136Y17960D01*
X302798Y19092D01*
X302792Y19096D01*
X302794Y19101D01*
X302242Y20145D01*
X302235Y20148D01*
X302237Y20153D01*
X301491Y21069D01*
X301484Y21070D01*
X301484Y21076D01*
X300575Y21829D01*
X300567Y21829D01*
X300567Y21834D01*
X299527Y22395D01*
X299520Y22394D01*
X299518Y22399D01*
X298389Y22746D01*
X298383Y22744D01*
X298380Y22748D01*
X297205Y22869D01*
X297198Y22865D01*
X297194Y22869D01*
X295854Y22712D01*
X295848Y22707D01*
X295843Y22710D01*
X294572Y22259D01*
X294567Y22252D01*
X294562Y22254D01*
X293423Y21532D01*
X293420Y21524D01*
X293414Y21525D01*
X292464Y20567D01*
X292463Y20559D01*
X292457Y20558D01*
X291744Y19413D01*
X291745Y19405D01*
X291739Y19403D01*
X291299Y18127D01*
X291301Y18120D01*
X291297Y18117D01*
X291151Y16775D01*
X291153Y16772D01*
X291151Y16770D01*
X291151Y10770D01*
X291153Y10767D01*
X291151Y10764D01*
X291306Y9435D01*
X291312Y9429D01*
X291309Y9425D01*
X291756Y8164D01*
X291763Y8159D01*
X291761Y8154D01*
X292478Y7024D01*
X292485Y7021D01*
X292484Y7015D01*
X293435Y6073D01*
X293443Y6072D01*
X293443Y6066D01*
X294579Y5359D01*
X294587Y5360D01*
X294589Y5354D01*
X295854Y4918D01*
X295859Y4919D01*
X295860Y4919D01*
X295863Y4919D01*
X295865Y4915D01*
X297195Y4771D01*
X297201Y4775D01*
X297205Y4771D01*
X298371Y4881D01*
G37*
G36*
X211971Y4881D02*
X211971Y4881D01*
X211976Y4886D01*
X211980Y4883D01*
X213103Y5218D01*
X213107Y5224D01*
X213111Y5222D01*
X214147Y5770D01*
X214150Y5776D01*
X214155Y5775D01*
X215063Y6514D01*
X215065Y6521D01*
X215070Y6521D01*
X215817Y7423D01*
X215817Y7431D01*
X215823Y7431D01*
X216379Y8462D01*
X216378Y8469D01*
X216383Y8471D01*
X216727Y9590D01*
X216725Y9597D01*
X216729Y9600D01*
X216849Y10765D01*
X216847Y10768D01*
X216849Y10770D01*
X216849Y16770D01*
X216847Y16773D01*
X216849Y16775D01*
X216738Y17951D01*
X216733Y17956D01*
X216736Y17960D01*
X216398Y19092D01*
X216392Y19096D01*
X216394Y19101D01*
X215842Y20145D01*
X215835Y20148D01*
X215837Y20153D01*
X215091Y21069D01*
X215084Y21070D01*
X215084Y21076D01*
X214175Y21829D01*
X214167Y21829D01*
X214167Y21834D01*
X213127Y22395D01*
X213120Y22394D01*
X213118Y22399D01*
X211989Y22746D01*
X211983Y22744D01*
X211980Y22748D01*
X210805Y22869D01*
X210798Y22865D01*
X210794Y22869D01*
X209454Y22712D01*
X209448Y22707D01*
X209443Y22710D01*
X208172Y22259D01*
X208167Y22252D01*
X208162Y22254D01*
X207023Y21532D01*
X207020Y21524D01*
X207014Y21525D01*
X206064Y20567D01*
X206063Y20559D01*
X206057Y20558D01*
X205344Y19413D01*
X205345Y19405D01*
X205339Y19403D01*
X204899Y18127D01*
X204901Y18120D01*
X204897Y18117D01*
X204751Y16775D01*
X204753Y16772D01*
X204751Y16770D01*
X204751Y10770D01*
X204753Y10767D01*
X204751Y10764D01*
X204906Y9435D01*
X204912Y9429D01*
X204909Y9425D01*
X205356Y8164D01*
X205363Y8159D01*
X205361Y8154D01*
X206078Y7024D01*
X206085Y7021D01*
X206084Y7015D01*
X207035Y6073D01*
X207043Y6072D01*
X207043Y6066D01*
X208179Y5359D01*
X208187Y5360D01*
X208189Y5354D01*
X209454Y4918D01*
X209459Y4919D01*
X209460Y4919D01*
X209463Y4919D01*
X209465Y4915D01*
X210795Y4771D01*
X210801Y4775D01*
X210805Y4771D01*
X211971Y4881D01*
G37*
D10*
X546100Y56200D03*
X-36300Y1065000D03*
D11*
X340300Y12780D03*
X396300Y12780D03*
D12*
X353300Y49530D03*
X363300Y49530D03*
X373300Y49530D03*
X383300Y49530D03*
D13*
X220100Y444500D03*
X237100Y444500D03*
D14*
X248000Y513800D03*
D15*
X183080Y542610D02*
X183080Y549590D01*
X190060Y549590D01*
X190060Y542610D01*
X183080Y542610D01*
X183080Y547410D02*
X190060Y547410D01*
X165540Y549590D02*
X165540Y542610D01*
X165540Y549590D02*
X172520Y549590D01*
X172520Y542610D01*
X165540Y542610D01*
X165540Y547410D02*
X172520Y547410D01*
D16*
X255200Y444500D03*
X278200Y444500D03*
D13*
X220100Y419100D03*
X237100Y419100D03*
X169300Y558800D03*
X186300Y558800D03*
D17*
X279400Y385200D03*
X279400Y402200D03*
X254000Y402200D03*
X254000Y385200D03*
D15*
X437080Y396560D02*
X437080Y403540D01*
X444060Y403540D01*
X444060Y396560D01*
X437080Y396560D01*
X437080Y401360D02*
X444060Y401360D01*
X419540Y403540D02*
X419540Y396560D01*
X419540Y403540D02*
X426520Y403540D01*
X426520Y396560D01*
X419540Y396560D01*
X419540Y401360D02*
X426520Y401360D01*
D13*
X423300Y412750D03*
X440300Y412750D03*
D18*
X355901Y384200D03*
X355901Y393700D03*
X355901Y403200D03*
X329899Y403200D03*
X329899Y384200D03*
D17*
X381000Y385200D03*
X381000Y402200D03*
X177800Y402200D03*
X177800Y385200D03*
X203200Y402200D03*
X203200Y385200D03*
D15*
X183080Y466410D02*
X183080Y473390D01*
X190060Y473390D01*
X190060Y466410D01*
X183080Y466410D01*
X183080Y471210D02*
X190060Y471210D01*
X165540Y473390D02*
X165540Y466410D01*
X165540Y473390D02*
X172520Y473390D01*
X172520Y466410D01*
X165540Y466410D01*
X165540Y471210D02*
X172520Y471210D01*
D13*
X169300Y482600D03*
X186300Y482600D03*
D19*
X215900Y181060D03*
X215900Y169460D03*
D13*
X234070Y181610D03*
X251070Y181610D03*
D17*
X228600Y402200D03*
X228600Y385200D03*
D20*
X194390Y181610D03*
X204390Y181610D03*
D21*
X182500Y204900D03*
X193500Y204900D03*
X204500Y204900D03*
X215500Y204900D03*
X226500Y204900D03*
X237500Y204900D03*
X248500Y204900D03*
X259500Y204900D03*
X270500Y204900D03*
X281500Y204900D03*
X292500Y204900D03*
X303500Y204900D03*
X314500Y204900D03*
X325500Y204900D03*
D22*
X353500Y213400D03*
X353500Y224400D03*
X353500Y235400D03*
X353500Y246400D03*
X353500Y257400D03*
X353500Y268400D03*
X353500Y279400D03*
X353500Y290400D03*
X353500Y301400D03*
X353500Y312400D03*
X353500Y323400D03*
X353500Y334400D03*
X353500Y345400D03*
D21*
X325500Y353900D03*
X314500Y353900D03*
X303500Y353900D03*
X292500Y353900D03*
X281500Y353900D03*
X270500Y353900D03*
X259500Y353900D03*
X248500Y353900D03*
X237500Y353900D03*
X226500Y353900D03*
X215500Y353900D03*
X204500Y353900D03*
X193500Y353900D03*
X182500Y353900D03*
D22*
X154500Y345400D03*
X154500Y334400D03*
X154500Y323400D03*
X154500Y312400D03*
X154500Y301400D03*
X154500Y290400D03*
X154500Y279400D03*
X154500Y268400D03*
X154500Y257400D03*
X154500Y246400D03*
X154500Y235400D03*
X154500Y224400D03*
X154500Y213400D03*
D23*
X243500Y268900D03*
X222500Y268900D03*
X201500Y268900D03*
X180500Y268900D03*
X243500Y248400D03*
X222500Y248400D03*
X201500Y248400D03*
X180500Y248400D03*
X243500Y227900D03*
X222500Y227900D03*
X201500Y227900D03*
X180500Y227900D03*
X243500Y330900D03*
X222500Y330900D03*
X201500Y330900D03*
X180500Y330900D03*
X243500Y310400D03*
X222500Y310400D03*
X201500Y310400D03*
X180500Y310400D03*
X243500Y289900D03*
X222500Y289900D03*
X201500Y289900D03*
X180500Y289900D03*
X264500Y289900D03*
X285500Y289900D03*
X306500Y289900D03*
X327500Y289900D03*
X264500Y310400D03*
X285500Y310400D03*
X306500Y310400D03*
X327500Y310400D03*
X264500Y330900D03*
X285500Y330900D03*
X306500Y330900D03*
X327500Y330900D03*
X264500Y227900D03*
X285500Y227900D03*
X306500Y227900D03*
X327500Y227900D03*
X264500Y248400D03*
X285500Y248400D03*
X306500Y248400D03*
X327500Y248400D03*
X264500Y268900D03*
X285500Y268900D03*
X306500Y268900D03*
X327500Y268900D03*
D13*
X313300Y101600D03*
X296300Y101600D03*
X194700Y101600D03*
X211700Y101600D03*
D24*
X261500Y61370D03*
X256500Y61370D03*
D25*
X286250Y61370D03*
X278500Y61370D03*
D24*
X271500Y61370D03*
X266500Y61370D03*
X246500Y61370D03*
X251500Y61370D03*
D25*
X221750Y61370D03*
X229500Y61370D03*
D24*
X236500Y61370D03*
X241500Y61370D03*
D26*
X225100Y50320D03*
X282900Y50320D03*
D17*
X304800Y385200D03*
X304800Y402200D03*
D13*
X258200Y419100D03*
X275200Y419100D03*
D27*
X236300Y148350D03*
D28*
X241300Y148100D03*
X246300Y148100D03*
X246300Y156700D03*
X241300Y156700D03*
X236300Y156700D03*
D29*
X181100Y38810D03*
D30*
X139700Y84810D03*
D29*
X98300Y38810D03*
D31*
X120100Y305500D03*
D32*
X120100Y313500D03*
X120100Y321500D03*
D31*
X133300Y305500D03*
D32*
X133300Y313500D03*
X133300Y321500D03*
D33*
X133200Y329500D03*
D31*
X120100Y329500D03*
X120100Y242000D03*
D32*
X120100Y250000D03*
X120100Y258000D03*
D31*
X133300Y242000D03*
D32*
X133300Y250000D03*
X133300Y258000D03*
D33*
X133200Y266000D03*
D31*
X120100Y266000D03*
D17*
X127000Y347100D03*
X127000Y364100D03*
D34*
X-30988Y296037D03*
X-30988Y796163D03*
X538988Y796163D03*
X538988Y296037D03*
D13*
X84700Y381000D03*
X67700Y381000D03*
D15*
X81480Y390210D02*
X81480Y397190D01*
X88460Y397190D01*
X88460Y390210D01*
X81480Y390210D01*
X81480Y395010D02*
X88460Y395010D01*
X63940Y397190D02*
X63940Y390210D01*
X63940Y397190D02*
X70920Y397190D01*
X70920Y390210D01*
X63940Y390210D01*
X63940Y395010D02*
X70920Y395010D01*
D35*
X561180Y481500D03*
X541180Y481500D03*
D36*
X585180Y429500D03*
X517180Y429500D03*
D15*
X437080Y390840D02*
X437080Y383860D01*
X437080Y390840D02*
X444060Y390840D01*
X444060Y383860D01*
X437080Y383860D01*
X437080Y388660D02*
X444060Y388660D01*
X419540Y390840D02*
X419540Y383860D01*
X419540Y390840D02*
X426520Y390840D01*
X426520Y383860D01*
X419540Y383860D01*
X419540Y388660D02*
X426520Y388660D01*
D13*
X423300Y374650D03*
X440300Y374650D03*
D37*
X75100Y1031400D03*
X75100Y1051400D03*
D38*
X23100Y1007400D03*
X23100Y1075400D03*
D39*
X114300Y1041400D03*
X114300Y1016000D03*
D13*
X326000Y635000D03*
X309000Y635000D03*
D15*
X322780Y625790D02*
X322780Y618810D01*
X322780Y625790D02*
X329760Y625790D01*
X329760Y618810D01*
X322780Y618810D01*
X322780Y623610D02*
X329760Y623610D01*
X305240Y625790D02*
X305240Y618810D01*
X305240Y625790D02*
X312220Y625790D01*
X312220Y618810D01*
X305240Y618810D01*
X305240Y623610D02*
X312220Y623610D01*
D13*
X326000Y558800D03*
X309000Y558800D03*
D15*
X322780Y549590D02*
X322780Y542610D01*
X322780Y549590D02*
X329760Y549590D01*
X329760Y542610D01*
X322780Y542610D01*
X322780Y547410D02*
X329760Y547410D01*
X305240Y549590D02*
X305240Y542610D01*
X305240Y549590D02*
X312220Y549590D01*
X312220Y542610D01*
X305240Y542610D01*
X305240Y547410D02*
X312220Y547410D01*
D13*
X326000Y482600D03*
X309000Y482600D03*
D15*
X322780Y473390D02*
X322780Y466410D01*
X322780Y473390D02*
X329760Y473390D01*
X329760Y466410D01*
X322780Y466410D01*
X322780Y471210D02*
X329760Y471210D01*
X305240Y473390D02*
X305240Y466410D01*
X305240Y473390D02*
X312220Y473390D01*
X312220Y466410D01*
X305240Y466410D01*
X305240Y471210D02*
X312220Y471210D01*
D35*
X-34450Y481500D03*
X-54450Y481500D03*
D36*
X-10450Y429500D03*
X-78450Y429500D03*
D40*
X66350Y178200D03*
X66350Y203200D03*
X66350Y228200D03*
X9850Y178200D03*
X9850Y203200D03*
X9850Y228200D03*
D41*
X38100Y188200D03*
X38100Y218200D03*
D40*
X66350Y305200D03*
X66350Y330200D03*
X66350Y355200D03*
X9850Y305200D03*
X9850Y330200D03*
X9850Y355200D03*
D41*
X38100Y315200D03*
X38100Y345200D03*
D42*
X552450Y1005840D03*
X552450Y949960D03*
X514350Y1005840D03*
X514350Y949960D03*
X552450Y891540D03*
X552450Y835660D03*
X514350Y891540D03*
X514350Y835660D03*
D26*
X-1750Y885500D03*
X-1750Y943300D03*
D43*
X6650Y48240D03*
D44*
X62650Y16240D03*
X-11850Y16240D03*
D43*
X19150Y48240D03*
X31650Y48240D03*
X44150Y48240D03*
X463850Y48240D03*
D44*
X519850Y16240D03*
X445350Y16240D03*
D43*
X476350Y48240D03*
X488850Y48240D03*
X501350Y48240D03*
D13*
X186300Y635000D03*
X169300Y635000D03*
D15*
X183080Y625790D02*
X183080Y618810D01*
X183080Y625790D02*
X190060Y625790D01*
X190060Y618810D01*
X183080Y618810D01*
X183080Y623610D02*
X190060Y623610D01*
X165540Y625790D02*
X165540Y618810D01*
X165540Y625790D02*
X172520Y625790D01*
X172520Y618810D01*
X165540Y618810D01*
X165540Y623610D02*
X172520Y623610D01*
D39*
X63500Y75250D03*
X38100Y75250D03*
X12700Y75250D03*
X-12700Y75250D03*
X520700Y75250D03*
X495300Y75250D03*
X469900Y75250D03*
X444500Y75250D03*
X101600Y215900D03*
X101600Y241300D03*
X101600Y266700D03*
X101600Y292100D03*
X444500Y254000D03*
X444500Y279400D03*
X444500Y304800D03*
X444500Y330200D03*
D31*
X399500Y280100D03*
D32*
X399500Y288100D03*
X399500Y296100D03*
D31*
X412700Y280100D03*
D32*
X412700Y288100D03*
X412700Y296100D03*
D33*
X412600Y304100D03*
D31*
X399500Y304100D03*
D39*
X378460Y850900D03*
X378460Y876300D03*
X378460Y901700D03*
X378460Y927100D03*
X-63500Y355600D03*
X-63500Y330200D03*
M02*
