G04 EAGLE Gerber RS-274X export*
G75*
%MOMM*%
%FSLAX34Y34*%
%LPD*%
%INSoldermask Bottom*%
%IPPOS*%
%AMOC8*
5,1,8,0,0,1.08239X$1,22.5*%
G01*
%ADD10R,1.403200X2.203200*%
%ADD11R,0.803200X1.553200*%
%ADD12C,0.838200*%
%ADD13C,0.853200*%
%ADD14C,3.403600*%
%ADD15R,1.203200X1.303200*%
%ADD16R,1.303200X1.203200*%
%ADD17C,2.082800*%
%ADD18R,1.033200X0.833200*%
%ADD19R,1.703200X1.103200*%
%ADD20R,1.103200X1.703200*%
%ADD21R,6.203200X6.203200*%
%ADD22R,1.403200X0.803200*%
%ADD23R,0.863200X0.503200*%
%ADD24R,2.003200X1.603200*%
%ADD25R,1.603200X2.103200*%
%ADD26R,1.003200X1.703200*%
%ADD27R,0.553200X1.003200*%
%ADD28R,2.703200X1.903200*%
%ADD29R,0.453200X0.698200*%
%ADD30R,0.453200X0.803200*%
%ADD31R,0.698200X0.453200*%
%ADD32R,0.803200X0.453200*%
%ADD33R,0.453000X0.104000*%
%ADD34R,0.104000X0.453000*%
%ADD35R,0.603200X0.953200*%
%ADD36R,0.853200X0.663200*%


D10*
X378000Y7950D03*
X322000Y7950D03*
D11*
X365000Y44700D03*
X355000Y44700D03*
X345000Y44700D03*
X335000Y44700D03*
D12*
X642100Y40100D03*
X59700Y1048900D03*
D13*
X321100Y44220D03*
X378900Y44220D03*
D14*
X65012Y279937D03*
X65012Y780063D03*
X634988Y780063D03*
X634988Y279937D03*
D15*
X146800Y1004100D03*
X146800Y1021100D03*
D16*
X180700Y1050700D03*
X163700Y1050700D03*
X180700Y977040D03*
X163700Y977040D03*
D17*
X210300Y1025300D03*
X210300Y999900D03*
D18*
X235700Y975700D03*
X235700Y998700D03*
D15*
X460000Y958500D03*
X460000Y941500D03*
X480000Y998500D03*
X480000Y981500D03*
X460000Y998500D03*
X460000Y981500D03*
X480000Y958500D03*
X480000Y941500D03*
D19*
X432380Y1013400D03*
X432380Y1000700D03*
X432380Y988000D03*
X432380Y975300D03*
X432380Y962600D03*
X432380Y949900D03*
X432380Y937200D03*
X432380Y924500D03*
X432380Y911800D03*
X432380Y899100D03*
X432380Y886400D03*
X432380Y873700D03*
X432380Y861000D03*
X432380Y848300D03*
D20*
X407150Y833400D03*
X394450Y833400D03*
X381750Y833400D03*
X369050Y833400D03*
X356350Y833400D03*
X343650Y833400D03*
X330950Y833400D03*
X318250Y833400D03*
X305550Y833400D03*
X292850Y833400D03*
D19*
X267620Y848300D03*
X267620Y861000D03*
X267620Y873700D03*
X267620Y886400D03*
X267620Y899100D03*
X267620Y911800D03*
X267620Y924500D03*
X267620Y937200D03*
X267620Y949900D03*
X267620Y962600D03*
X267620Y975300D03*
X267620Y988000D03*
X267620Y1000700D03*
X267620Y1013400D03*
D21*
X350000Y936400D03*
D16*
X181500Y960000D03*
X198500Y960000D03*
D22*
X218000Y924450D03*
X218000Y911750D03*
X218000Y899050D03*
X218000Y886350D03*
X218000Y873650D03*
X218000Y860950D03*
X218000Y848250D03*
X218000Y835550D03*
X162000Y835550D03*
X162000Y848250D03*
X162000Y860950D03*
X162000Y873650D03*
X162000Y886350D03*
X162000Y899050D03*
X162000Y911750D03*
X162000Y924450D03*
D16*
X121500Y850000D03*
X138500Y850000D03*
X138500Y910000D03*
X121500Y910000D03*
D23*
X139200Y886500D03*
X120800Y880000D03*
X120800Y873500D03*
X120800Y886500D03*
X139200Y880000D03*
X139200Y873500D03*
D13*
X435400Y44220D03*
X493200Y44220D03*
D16*
X181500Y940000D03*
X198500Y940000D03*
D17*
X159500Y69150D03*
X134100Y69150D03*
X108700Y69150D03*
X83300Y69150D03*
X616700Y171700D03*
X591300Y171700D03*
X565900Y171700D03*
X540500Y171700D03*
X540500Y237900D03*
X540500Y263300D03*
X540500Y288700D03*
X540500Y314100D03*
X32500Y339500D03*
X32500Y314100D03*
D16*
X461900Y900000D03*
X478900Y900000D03*
D24*
X534120Y148650D03*
X591120Y148650D03*
D25*
X607120Y17150D03*
X475620Y7150D03*
D26*
X522220Y45650D03*
X533220Y49650D03*
X544220Y45650D03*
X555220Y43650D03*
X566220Y45650D03*
X577220Y43650D03*
X588220Y45650D03*
X599220Y45650D03*
D17*
X394450Y76450D03*
X419850Y76450D03*
X159500Y1083720D03*
X184900Y1083720D03*
X635000Y977600D03*
X635000Y952200D03*
D27*
X172200Y998100D03*
X177200Y998100D03*
X182200Y998100D03*
X167200Y998100D03*
X162200Y998100D03*
X162200Y1027100D03*
X167200Y1027100D03*
X172200Y1027100D03*
X177200Y1027100D03*
X182200Y1027100D03*
D28*
X172200Y1012600D03*
D16*
X129900Y1045620D03*
X112900Y1045620D03*
X129900Y1026570D03*
X112900Y1026570D03*
X129900Y1065940D03*
X112900Y1065940D03*
D17*
X30000Y470000D03*
X55400Y470000D03*
X80800Y470000D03*
X106200Y470000D03*
D29*
X540000Y675525D03*
D30*
X544000Y675000D03*
X548000Y675000D03*
X552000Y675000D03*
X556000Y675000D03*
D29*
X560000Y675525D03*
D31*
X565525Y670000D03*
D32*
X565000Y666000D03*
X565000Y662000D03*
X565000Y658000D03*
X565000Y654000D03*
D31*
X565525Y650000D03*
D29*
X560000Y644475D03*
D30*
X556000Y645000D03*
X552000Y645000D03*
X548000Y645000D03*
X544000Y645000D03*
D29*
X540000Y644475D03*
D31*
X534475Y650000D03*
D32*
X535000Y654000D03*
X535000Y658000D03*
X535000Y662000D03*
X535000Y666000D03*
D31*
X534475Y670000D03*
D33*
X540005Y671510D03*
D34*
X561510Y669995D03*
D33*
X559995Y648490D03*
D34*
X538490Y650005D03*
X538490Y669995D03*
D33*
X559995Y671510D03*
D34*
X561510Y650005D03*
D33*
X540005Y648490D03*
D15*
X590000Y648500D03*
X590000Y631500D03*
D16*
X551500Y710000D03*
X568500Y710000D03*
D15*
X590000Y671500D03*
X590000Y688500D03*
D35*
X553500Y748250D03*
X560000Y748250D03*
X566500Y748250D03*
X566500Y731750D03*
X553500Y731750D03*
D16*
X551500Y770000D03*
X568500Y770000D03*
D36*
X491000Y665000D03*
X491000Y655000D03*
X479500Y660000D03*
D15*
X510000Y651500D03*
X510000Y668500D03*
D36*
X491000Y705000D03*
X491000Y695000D03*
X479500Y700000D03*
D15*
X510000Y691500D03*
X510000Y708500D03*
D36*
X629000Y635000D03*
X629000Y645000D03*
X640500Y640000D03*
D15*
X610000Y648500D03*
X610000Y631500D03*
X660000Y648500D03*
X660000Y631500D03*
D36*
X491000Y625000D03*
X491000Y615000D03*
X479500Y620000D03*
D15*
X510000Y611500D03*
X510000Y628500D03*
X460000Y628500D03*
X460000Y611500D03*
D36*
X629000Y675000D03*
X629000Y685000D03*
X640500Y680000D03*
D15*
X610000Y688500D03*
X610000Y671500D03*
X660000Y688500D03*
X660000Y671500D03*
D17*
X487488Y552606D03*
X552512Y552606D03*
X487488Y507394D03*
X552512Y507394D03*
X147488Y552606D03*
X212512Y552606D03*
X147488Y507394D03*
X212512Y507394D03*
X170000Y290000D03*
X170000Y264600D03*
X170000Y239200D03*
X170000Y213800D03*
X170000Y188400D03*
X620000Y380000D03*
X620000Y405400D03*
X620000Y430800D03*
X620000Y456200D03*
M02*
