G04 EAGLE Gerber RS-274X export*
G75*
%MOMM*%
%FSLAX34Y34*%
%LPD*%
%IN*%
%IPPOS*%
%AMOC8*
5,1,8,0,0,1.08239X$1,22.5*%
G01*
%ADD10C,0.203200*%
%ADD11C,0.000000*%
%ADD12C,0.600000*%
%ADD13C,0.152400*%
%ADD14C,0.076200*%
%ADD15C,0.254000*%


D10*
X121908Y1098650D02*
X578092Y1098650D01*
X64250Y561750D02*
X65023Y561741D01*
X65796Y561712D01*
X66568Y561665D01*
X67338Y561599D01*
X68107Y561515D01*
X68873Y561412D01*
X69636Y561290D01*
X70397Y561149D01*
X71153Y560990D01*
X71906Y560813D01*
X72654Y560618D01*
X73397Y560404D01*
X74135Y560172D01*
X74867Y559922D01*
X75592Y559655D01*
X76311Y559370D01*
X77022Y559068D01*
X77727Y558748D01*
X78423Y558411D01*
X79110Y558058D01*
X79789Y557688D01*
X80459Y557301D01*
X81119Y556898D01*
X81769Y556479D01*
X82408Y556045D01*
X83037Y555595D01*
X83655Y555130D01*
X84261Y554650D01*
X84855Y554155D01*
X85437Y553647D01*
X86007Y553124D01*
X86564Y552587D01*
X87107Y552037D01*
X87637Y551474D01*
X88153Y550898D01*
X88655Y550310D01*
X89142Y549709D01*
X89614Y549097D01*
X90072Y548474D01*
X90514Y547840D01*
X90941Y547195D01*
X91352Y546540D01*
X91746Y545875D01*
X92125Y545201D01*
X92487Y544517D01*
X92832Y543826D01*
X93160Y543125D01*
X93471Y542418D01*
X93765Y541702D01*
X94041Y540980D01*
X94299Y540251D01*
X94540Y539517D01*
X94763Y538776D01*
X94968Y538031D01*
X95154Y537280D01*
X95322Y536526D01*
X95472Y535767D01*
X95603Y535005D01*
X95716Y534240D01*
X95810Y533473D01*
X95885Y532703D01*
X95941Y531932D01*
X95979Y531160D01*
X95998Y530387D01*
X95998Y529613D01*
X95979Y528840D01*
X95941Y528068D01*
X95885Y527297D01*
X95810Y526527D01*
X95716Y525760D01*
X95603Y524995D01*
X95472Y524233D01*
X95322Y523474D01*
X95154Y522720D01*
X94968Y521969D01*
X94763Y521224D01*
X94540Y520483D01*
X94299Y519749D01*
X94041Y519020D01*
X93765Y518298D01*
X93471Y517582D01*
X93160Y516875D01*
X92832Y516174D01*
X92487Y515483D01*
X92125Y514799D01*
X91746Y514125D01*
X91352Y513460D01*
X90941Y512805D01*
X90514Y512160D01*
X90072Y511526D01*
X89614Y510903D01*
X89142Y510291D01*
X88655Y509690D01*
X88153Y509102D01*
X87637Y508526D01*
X87107Y507963D01*
X86564Y507413D01*
X86007Y506876D01*
X85437Y506353D01*
X84855Y505845D01*
X84261Y505350D01*
X83655Y504870D01*
X83037Y504405D01*
X82408Y503955D01*
X81769Y503521D01*
X81119Y503102D01*
X80459Y502699D01*
X79789Y502312D01*
X79110Y501942D01*
X78423Y501589D01*
X77727Y501252D01*
X77022Y500932D01*
X76311Y500630D01*
X75592Y500345D01*
X74867Y500078D01*
X74135Y499828D01*
X73397Y499596D01*
X72654Y499382D01*
X71906Y499187D01*
X71153Y499010D01*
X70397Y498851D01*
X69636Y498710D01*
X68873Y498588D01*
X68107Y498485D01*
X67338Y498401D01*
X66568Y498335D01*
X65796Y498288D01*
X65023Y498259D01*
X64250Y498250D01*
X635750Y498250D02*
X634977Y498259D01*
X634204Y498288D01*
X633432Y498335D01*
X632662Y498401D01*
X631893Y498485D01*
X631127Y498588D01*
X630364Y498710D01*
X629603Y498851D01*
X628847Y499010D01*
X628094Y499187D01*
X627346Y499382D01*
X626603Y499596D01*
X625865Y499828D01*
X625133Y500078D01*
X624408Y500345D01*
X623689Y500630D01*
X622978Y500932D01*
X622273Y501252D01*
X621577Y501589D01*
X620890Y501942D01*
X620211Y502312D01*
X619541Y502699D01*
X618881Y503102D01*
X618231Y503521D01*
X617592Y503955D01*
X616963Y504405D01*
X616345Y504870D01*
X615739Y505350D01*
X615145Y505845D01*
X614563Y506353D01*
X613993Y506876D01*
X613436Y507413D01*
X612893Y507963D01*
X612363Y508526D01*
X611847Y509102D01*
X611345Y509690D01*
X610858Y510291D01*
X610386Y510903D01*
X609928Y511526D01*
X609486Y512160D01*
X609059Y512805D01*
X608648Y513460D01*
X608254Y514125D01*
X607875Y514799D01*
X607513Y515483D01*
X607168Y516174D01*
X606840Y516875D01*
X606529Y517582D01*
X606235Y518298D01*
X605959Y519020D01*
X605701Y519749D01*
X605460Y520483D01*
X605237Y521224D01*
X605032Y521969D01*
X604846Y522720D01*
X604678Y523474D01*
X604528Y524233D01*
X604397Y524995D01*
X604284Y525760D01*
X604190Y526527D01*
X604115Y527297D01*
X604059Y528068D01*
X604021Y528840D01*
X604002Y529613D01*
X604002Y530387D01*
X604021Y531160D01*
X604059Y531932D01*
X604115Y532703D01*
X604190Y533473D01*
X604284Y534240D01*
X604397Y535005D01*
X604528Y535767D01*
X604678Y536526D01*
X604846Y537280D01*
X605032Y538031D01*
X605237Y538776D01*
X605460Y539517D01*
X605701Y540251D01*
X605959Y540980D01*
X606235Y541702D01*
X606529Y542418D01*
X606840Y543125D01*
X607168Y543826D01*
X607513Y544517D01*
X607875Y545201D01*
X608254Y545875D01*
X608648Y546540D01*
X609059Y547195D01*
X609486Y547840D01*
X609928Y548474D01*
X610386Y549097D01*
X610858Y549709D01*
X611345Y550310D01*
X611847Y550898D01*
X612363Y551474D01*
X612893Y552037D01*
X613436Y552587D01*
X613993Y553124D01*
X614563Y553647D01*
X615145Y554155D01*
X615739Y554650D01*
X616345Y555130D01*
X616963Y555595D01*
X617592Y556045D01*
X618231Y556479D01*
X618881Y556898D01*
X619541Y557301D01*
X620211Y557688D01*
X620890Y558058D01*
X621577Y558411D01*
X622273Y558748D01*
X622978Y559068D01*
X623689Y559370D01*
X624408Y559655D01*
X625133Y559922D01*
X625865Y560172D01*
X626603Y560404D01*
X627346Y560618D01*
X628094Y560813D01*
X628847Y560990D01*
X629603Y561149D01*
X630364Y561290D01*
X631127Y561412D01*
X631893Y561515D01*
X632662Y561599D01*
X633432Y561665D01*
X634204Y561712D01*
X634977Y561741D01*
X635750Y561750D01*
X640000Y-2750D02*
X60000Y-2750D01*
X60000Y30000D01*
X42500Y30000D01*
X640000Y30000D02*
X640000Y-2750D01*
X640000Y30000D02*
X657000Y30000D01*
X42500Y30000D02*
X33357Y90947D01*
X25591Y152085D01*
X19207Y213382D01*
X14207Y274808D01*
X10594Y336331D01*
X8370Y397920D01*
X690361Y352200D02*
X684739Y271389D01*
X677303Y190725D01*
X668055Y110248D01*
X657001Y30000D01*
X8370Y397920D02*
X8370Y498250D01*
X64250Y498250D01*
X8370Y561750D02*
X8370Y744630D01*
X8370Y745900D01*
X8370Y561750D02*
X64250Y561750D01*
X690360Y498250D02*
X690360Y352200D01*
X690360Y498250D02*
X635750Y498250D01*
X690360Y561750D02*
X690360Y758600D01*
X690360Y561750D02*
X635750Y561750D01*
X654800Y847500D02*
X685280Y847500D01*
X654800Y847500D02*
X654800Y1053240D01*
X653447Y1055258D01*
X652045Y1057242D01*
X650595Y1059192D01*
X649100Y1061107D01*
X647558Y1062985D01*
X645972Y1064825D01*
X644342Y1066627D01*
X642669Y1068389D01*
X640954Y1070110D01*
X639199Y1071789D01*
X637403Y1073426D01*
X635568Y1075019D01*
X633696Y1076567D01*
X631787Y1078070D01*
X629842Y1079526D01*
X627863Y1080935D01*
X625851Y1082297D01*
X623806Y1083609D01*
X621730Y1084872D01*
X619625Y1086084D01*
X617491Y1087245D01*
X615330Y1088355D01*
X613142Y1089413D01*
X610930Y1090417D01*
X608694Y1091368D01*
X606436Y1092265D01*
X604157Y1093107D01*
X601859Y1093894D01*
X599542Y1094625D01*
X597208Y1095301D01*
X594859Y1095920D01*
X592495Y1096483D01*
X590119Y1096988D01*
X587731Y1097436D01*
X585333Y1097827D01*
X582926Y1098159D01*
X580512Y1098434D01*
X578092Y1098650D01*
X45200Y847500D02*
X14720Y847500D01*
X45200Y847500D02*
X45200Y1053240D01*
X46553Y1055258D01*
X47955Y1057242D01*
X49405Y1059192D01*
X50900Y1061107D01*
X52442Y1062985D01*
X54028Y1064825D01*
X55658Y1066627D01*
X57331Y1068389D01*
X59046Y1070110D01*
X60801Y1071789D01*
X62597Y1073426D01*
X64432Y1075019D01*
X66304Y1076567D01*
X68213Y1078070D01*
X70158Y1079526D01*
X72137Y1080935D01*
X74149Y1082297D01*
X76194Y1083609D01*
X78270Y1084872D01*
X80375Y1086084D01*
X82509Y1087245D01*
X84670Y1088355D01*
X86858Y1089413D01*
X89070Y1090417D01*
X91306Y1091368D01*
X93564Y1092265D01*
X95843Y1093107D01*
X98141Y1093894D01*
X100458Y1094625D01*
X102792Y1095301D01*
X105141Y1095920D01*
X107505Y1096483D01*
X109881Y1096988D01*
X112269Y1097436D01*
X114667Y1097827D01*
X117074Y1098159D01*
X119488Y1098434D01*
X121908Y1098650D01*
X14720Y847500D02*
X8370Y744630D01*
X690360Y758600D02*
X685280Y847500D01*
D11*
X317850Y44220D02*
X317852Y44333D01*
X317858Y44447D01*
X317868Y44560D01*
X317882Y44672D01*
X317899Y44784D01*
X317921Y44896D01*
X317947Y45006D01*
X317976Y45116D01*
X318009Y45224D01*
X318046Y45332D01*
X318087Y45437D01*
X318131Y45542D01*
X318179Y45645D01*
X318230Y45746D01*
X318285Y45845D01*
X318344Y45942D01*
X318406Y46037D01*
X318471Y46130D01*
X318539Y46221D01*
X318610Y46309D01*
X318685Y46395D01*
X318762Y46478D01*
X318842Y46558D01*
X318925Y46635D01*
X319011Y46710D01*
X319099Y46781D01*
X319190Y46849D01*
X319283Y46914D01*
X319378Y46976D01*
X319475Y47035D01*
X319574Y47090D01*
X319675Y47141D01*
X319778Y47189D01*
X319883Y47233D01*
X319988Y47274D01*
X320096Y47311D01*
X320204Y47344D01*
X320314Y47373D01*
X320424Y47399D01*
X320536Y47421D01*
X320648Y47438D01*
X320760Y47452D01*
X320873Y47462D01*
X320987Y47468D01*
X321100Y47470D01*
X321213Y47468D01*
X321327Y47462D01*
X321440Y47452D01*
X321552Y47438D01*
X321664Y47421D01*
X321776Y47399D01*
X321886Y47373D01*
X321996Y47344D01*
X322104Y47311D01*
X322212Y47274D01*
X322317Y47233D01*
X322422Y47189D01*
X322525Y47141D01*
X322626Y47090D01*
X322725Y47035D01*
X322822Y46976D01*
X322917Y46914D01*
X323010Y46849D01*
X323101Y46781D01*
X323189Y46710D01*
X323275Y46635D01*
X323358Y46558D01*
X323438Y46478D01*
X323515Y46395D01*
X323590Y46309D01*
X323661Y46221D01*
X323729Y46130D01*
X323794Y46037D01*
X323856Y45942D01*
X323915Y45845D01*
X323970Y45746D01*
X324021Y45645D01*
X324069Y45542D01*
X324113Y45437D01*
X324154Y45332D01*
X324191Y45224D01*
X324224Y45116D01*
X324253Y45006D01*
X324279Y44896D01*
X324301Y44784D01*
X324318Y44672D01*
X324332Y44560D01*
X324342Y44447D01*
X324348Y44333D01*
X324350Y44220D01*
X324348Y44107D01*
X324342Y43993D01*
X324332Y43880D01*
X324318Y43768D01*
X324301Y43656D01*
X324279Y43544D01*
X324253Y43434D01*
X324224Y43324D01*
X324191Y43216D01*
X324154Y43108D01*
X324113Y43003D01*
X324069Y42898D01*
X324021Y42795D01*
X323970Y42694D01*
X323915Y42595D01*
X323856Y42498D01*
X323794Y42403D01*
X323729Y42310D01*
X323661Y42219D01*
X323590Y42131D01*
X323515Y42045D01*
X323438Y41962D01*
X323358Y41882D01*
X323275Y41805D01*
X323189Y41730D01*
X323101Y41659D01*
X323010Y41591D01*
X322917Y41526D01*
X322822Y41464D01*
X322725Y41405D01*
X322626Y41350D01*
X322525Y41299D01*
X322422Y41251D01*
X322317Y41207D01*
X322212Y41166D01*
X322104Y41129D01*
X321996Y41096D01*
X321886Y41067D01*
X321776Y41041D01*
X321664Y41019D01*
X321552Y41002D01*
X321440Y40988D01*
X321327Y40978D01*
X321213Y40972D01*
X321100Y40970D01*
X320987Y40972D01*
X320873Y40978D01*
X320760Y40988D01*
X320648Y41002D01*
X320536Y41019D01*
X320424Y41041D01*
X320314Y41067D01*
X320204Y41096D01*
X320096Y41129D01*
X319988Y41166D01*
X319883Y41207D01*
X319778Y41251D01*
X319675Y41299D01*
X319574Y41350D01*
X319475Y41405D01*
X319378Y41464D01*
X319283Y41526D01*
X319190Y41591D01*
X319099Y41659D01*
X319011Y41730D01*
X318925Y41805D01*
X318842Y41882D01*
X318762Y41962D01*
X318685Y42045D01*
X318610Y42131D01*
X318539Y42219D01*
X318471Y42310D01*
X318406Y42403D01*
X318344Y42498D01*
X318285Y42595D01*
X318230Y42694D01*
X318179Y42795D01*
X318131Y42898D01*
X318087Y43003D01*
X318046Y43108D01*
X318009Y43216D01*
X317976Y43324D01*
X317947Y43434D01*
X317921Y43544D01*
X317899Y43656D01*
X317882Y43768D01*
X317868Y43880D01*
X317858Y43993D01*
X317852Y44107D01*
X317850Y44220D01*
X375650Y44220D02*
X375652Y44333D01*
X375658Y44447D01*
X375668Y44560D01*
X375682Y44672D01*
X375699Y44784D01*
X375721Y44896D01*
X375747Y45006D01*
X375776Y45116D01*
X375809Y45224D01*
X375846Y45332D01*
X375887Y45437D01*
X375931Y45542D01*
X375979Y45645D01*
X376030Y45746D01*
X376085Y45845D01*
X376144Y45942D01*
X376206Y46037D01*
X376271Y46130D01*
X376339Y46221D01*
X376410Y46309D01*
X376485Y46395D01*
X376562Y46478D01*
X376642Y46558D01*
X376725Y46635D01*
X376811Y46710D01*
X376899Y46781D01*
X376990Y46849D01*
X377083Y46914D01*
X377178Y46976D01*
X377275Y47035D01*
X377374Y47090D01*
X377475Y47141D01*
X377578Y47189D01*
X377683Y47233D01*
X377788Y47274D01*
X377896Y47311D01*
X378004Y47344D01*
X378114Y47373D01*
X378224Y47399D01*
X378336Y47421D01*
X378448Y47438D01*
X378560Y47452D01*
X378673Y47462D01*
X378787Y47468D01*
X378900Y47470D01*
X379013Y47468D01*
X379127Y47462D01*
X379240Y47452D01*
X379352Y47438D01*
X379464Y47421D01*
X379576Y47399D01*
X379686Y47373D01*
X379796Y47344D01*
X379904Y47311D01*
X380012Y47274D01*
X380117Y47233D01*
X380222Y47189D01*
X380325Y47141D01*
X380426Y47090D01*
X380525Y47035D01*
X380622Y46976D01*
X380717Y46914D01*
X380810Y46849D01*
X380901Y46781D01*
X380989Y46710D01*
X381075Y46635D01*
X381158Y46558D01*
X381238Y46478D01*
X381315Y46395D01*
X381390Y46309D01*
X381461Y46221D01*
X381529Y46130D01*
X381594Y46037D01*
X381656Y45942D01*
X381715Y45845D01*
X381770Y45746D01*
X381821Y45645D01*
X381869Y45542D01*
X381913Y45437D01*
X381954Y45332D01*
X381991Y45224D01*
X382024Y45116D01*
X382053Y45006D01*
X382079Y44896D01*
X382101Y44784D01*
X382118Y44672D01*
X382132Y44560D01*
X382142Y44447D01*
X382148Y44333D01*
X382150Y44220D01*
X382148Y44107D01*
X382142Y43993D01*
X382132Y43880D01*
X382118Y43768D01*
X382101Y43656D01*
X382079Y43544D01*
X382053Y43434D01*
X382024Y43324D01*
X381991Y43216D01*
X381954Y43108D01*
X381913Y43003D01*
X381869Y42898D01*
X381821Y42795D01*
X381770Y42694D01*
X381715Y42595D01*
X381656Y42498D01*
X381594Y42403D01*
X381529Y42310D01*
X381461Y42219D01*
X381390Y42131D01*
X381315Y42045D01*
X381238Y41962D01*
X381158Y41882D01*
X381075Y41805D01*
X380989Y41730D01*
X380901Y41659D01*
X380810Y41591D01*
X380717Y41526D01*
X380622Y41464D01*
X380525Y41405D01*
X380426Y41350D01*
X380325Y41299D01*
X380222Y41251D01*
X380117Y41207D01*
X380012Y41166D01*
X379904Y41129D01*
X379796Y41096D01*
X379686Y41067D01*
X379576Y41041D01*
X379464Y41019D01*
X379352Y41002D01*
X379240Y40988D01*
X379127Y40978D01*
X379013Y40972D01*
X378900Y40970D01*
X378787Y40972D01*
X378673Y40978D01*
X378560Y40988D01*
X378448Y41002D01*
X378336Y41019D01*
X378224Y41041D01*
X378114Y41067D01*
X378004Y41096D01*
X377896Y41129D01*
X377788Y41166D01*
X377683Y41207D01*
X377578Y41251D01*
X377475Y41299D01*
X377374Y41350D01*
X377275Y41405D01*
X377178Y41464D01*
X377083Y41526D01*
X376990Y41591D01*
X376899Y41659D01*
X376811Y41730D01*
X376725Y41805D01*
X376642Y41882D01*
X376562Y41962D01*
X376485Y42045D01*
X376410Y42131D01*
X376339Y42219D01*
X376271Y42310D01*
X376206Y42403D01*
X376144Y42498D01*
X376085Y42595D01*
X376030Y42694D01*
X375979Y42795D01*
X375931Y42898D01*
X375887Y43003D01*
X375846Y43108D01*
X375809Y43216D01*
X375776Y43324D01*
X375747Y43434D01*
X375721Y43544D01*
X375699Y43656D01*
X375682Y43768D01*
X375668Y43880D01*
X375658Y43993D01*
X375652Y44107D01*
X375650Y44220D01*
D12*
X306820Y44020D02*
X306820Y55020D01*
X393180Y55020D02*
X393180Y44020D01*
X306820Y10870D02*
X306820Y4670D01*
X393180Y4670D02*
X393180Y10870D01*
D13*
X271700Y-2290D02*
X271700Y67710D01*
X271697Y67952D01*
X271688Y68193D01*
X271674Y68434D01*
X271653Y68675D01*
X271627Y68915D01*
X271595Y69155D01*
X271557Y69394D01*
X271514Y69631D01*
X271464Y69868D01*
X271409Y70103D01*
X271349Y70337D01*
X271282Y70569D01*
X271211Y70800D01*
X271133Y71029D01*
X271050Y71256D01*
X270962Y71481D01*
X270868Y71704D01*
X270769Y71924D01*
X270664Y72142D01*
X270555Y72357D01*
X270440Y72570D01*
X270320Y72780D01*
X270195Y72986D01*
X270065Y73190D01*
X269930Y73391D01*
X269790Y73588D01*
X269646Y73782D01*
X269497Y73972D01*
X269343Y74158D01*
X269185Y74341D01*
X269023Y74520D01*
X268856Y74695D01*
X268685Y74866D01*
X268510Y75033D01*
X268331Y75195D01*
X268148Y75353D01*
X267962Y75507D01*
X267772Y75656D01*
X267578Y75800D01*
X267381Y75940D01*
X267180Y76075D01*
X266976Y76205D01*
X266770Y76330D01*
X266560Y76450D01*
X266347Y76565D01*
X266132Y76674D01*
X265914Y76779D01*
X265694Y76878D01*
X265471Y76972D01*
X265246Y77060D01*
X265019Y77143D01*
X264790Y77221D01*
X264559Y77292D01*
X264327Y77359D01*
X264093Y77419D01*
X263858Y77474D01*
X263621Y77524D01*
X263384Y77567D01*
X263145Y77605D01*
X262905Y77637D01*
X262665Y77663D01*
X262424Y77684D01*
X262183Y77698D01*
X261942Y77707D01*
X261700Y77710D01*
X260700Y77710D01*
X260458Y77707D01*
X260217Y77698D01*
X259976Y77684D01*
X259735Y77663D01*
X259495Y77637D01*
X259255Y77605D01*
X259016Y77567D01*
X258779Y77524D01*
X258542Y77474D01*
X258307Y77419D01*
X258073Y77359D01*
X257841Y77292D01*
X257610Y77221D01*
X257381Y77143D01*
X257154Y77060D01*
X256929Y76972D01*
X256706Y76878D01*
X256486Y76779D01*
X256268Y76674D01*
X256053Y76565D01*
X255840Y76450D01*
X255630Y76330D01*
X255424Y76205D01*
X255220Y76075D01*
X255019Y75940D01*
X254822Y75800D01*
X254628Y75656D01*
X254438Y75507D01*
X254252Y75353D01*
X254069Y75195D01*
X253890Y75033D01*
X253715Y74866D01*
X253544Y74695D01*
X253377Y74520D01*
X253215Y74341D01*
X253057Y74158D01*
X252903Y73972D01*
X252754Y73782D01*
X252610Y73588D01*
X252470Y73391D01*
X252335Y73190D01*
X252205Y72986D01*
X252080Y72780D01*
X251960Y72570D01*
X251845Y72357D01*
X251736Y72142D01*
X251631Y71924D01*
X251532Y71704D01*
X251438Y71481D01*
X251350Y71256D01*
X251267Y71029D01*
X251189Y70800D01*
X251118Y70569D01*
X251051Y70337D01*
X250991Y70103D01*
X250936Y69868D01*
X250886Y69631D01*
X250843Y69394D01*
X250805Y69155D01*
X250773Y68915D01*
X250747Y68675D01*
X250726Y68434D01*
X250712Y68193D01*
X250703Y67952D01*
X250700Y67710D01*
X220700Y67710D01*
X199700Y67710D02*
X199700Y-2290D01*
D14*
X225339Y24261D02*
X225339Y28503D01*
X227459Y28503D01*
X228166Y27796D01*
X228166Y26382D01*
X227459Y25675D01*
X225339Y25675D01*
X226752Y25675D02*
X228166Y24261D01*
X230649Y24261D02*
X232063Y24261D01*
X232770Y24968D01*
X232770Y26382D01*
X232063Y27089D01*
X230649Y27089D01*
X229942Y26382D01*
X229942Y24968D01*
X230649Y24261D01*
X234546Y24968D02*
X234546Y27089D01*
X234546Y24968D02*
X235253Y24261D01*
X237374Y24261D01*
X237374Y27089D01*
X239857Y27796D02*
X239857Y24968D01*
X240564Y24261D01*
X240564Y27089D02*
X239150Y27089D01*
X242926Y24261D02*
X244340Y24261D01*
X242926Y24261D02*
X242220Y24968D01*
X242220Y26382D01*
X242926Y27089D01*
X244340Y27089D01*
X245047Y26382D01*
X245047Y25675D01*
X242220Y25675D01*
X232063Y21003D02*
X230649Y21003D01*
X229942Y20296D01*
X229942Y17468D01*
X230649Y16761D01*
X232063Y16761D01*
X232770Y17468D01*
X232770Y20296D01*
X232063Y21003D01*
X234546Y19589D02*
X234546Y17468D01*
X235253Y16761D01*
X237374Y16761D01*
X237374Y19589D01*
X239857Y20296D02*
X239857Y17468D01*
X240564Y16761D01*
X240564Y19589D02*
X239150Y19589D01*
D13*
X199700Y67910D02*
X199703Y68147D01*
X199711Y68383D01*
X199726Y68620D01*
X199746Y68856D01*
X199771Y69091D01*
X199803Y69326D01*
X199840Y69560D01*
X199883Y69793D01*
X199931Y70025D01*
X199985Y70255D01*
X200044Y70485D01*
X200109Y70712D01*
X200180Y70938D01*
X200256Y71163D01*
X200337Y71385D01*
X200423Y71606D01*
X200515Y71824D01*
X200613Y72040D01*
X200715Y72253D01*
X200823Y72464D01*
X200935Y72673D01*
X201053Y72878D01*
X201175Y73081D01*
X201303Y73281D01*
X201435Y73477D01*
X201572Y73670D01*
X201713Y73860D01*
X201859Y74047D01*
X202010Y74229D01*
X202165Y74409D01*
X202324Y74584D01*
X202487Y74755D01*
X202655Y74923D01*
X202826Y75086D01*
X203001Y75245D01*
X203181Y75400D01*
X203363Y75551D01*
X203550Y75697D01*
X203740Y75838D01*
X203933Y75975D01*
X204129Y76107D01*
X204329Y76235D01*
X204532Y76357D01*
X204737Y76475D01*
X204946Y76587D01*
X205157Y76695D01*
X205370Y76797D01*
X205586Y76895D01*
X205804Y76987D01*
X206025Y77073D01*
X206247Y77154D01*
X206472Y77230D01*
X206698Y77301D01*
X206925Y77366D01*
X207155Y77425D01*
X207385Y77479D01*
X207617Y77527D01*
X207850Y77570D01*
X208084Y77607D01*
X208319Y77639D01*
X208554Y77664D01*
X208790Y77684D01*
X209027Y77699D01*
X209263Y77707D01*
X209500Y77710D01*
X210700Y77710D01*
X210942Y77707D01*
X211183Y77698D01*
X211424Y77684D01*
X211665Y77663D01*
X211905Y77637D01*
X212145Y77605D01*
X212384Y77567D01*
X212621Y77524D01*
X212858Y77474D01*
X213093Y77419D01*
X213327Y77359D01*
X213559Y77292D01*
X213790Y77221D01*
X214019Y77143D01*
X214246Y77060D01*
X214471Y76972D01*
X214694Y76878D01*
X214914Y76779D01*
X215132Y76674D01*
X215347Y76565D01*
X215560Y76450D01*
X215770Y76330D01*
X215976Y76205D01*
X216180Y76075D01*
X216381Y75940D01*
X216578Y75800D01*
X216772Y75656D01*
X216962Y75507D01*
X217148Y75353D01*
X217331Y75195D01*
X217510Y75033D01*
X217685Y74866D01*
X217856Y74695D01*
X218023Y74520D01*
X218185Y74341D01*
X218343Y74158D01*
X218497Y73972D01*
X218646Y73782D01*
X218790Y73588D01*
X218930Y73391D01*
X219065Y73190D01*
X219195Y72986D01*
X219320Y72780D01*
X219440Y72570D01*
X219555Y72357D01*
X219664Y72142D01*
X219769Y71924D01*
X219868Y71704D01*
X219962Y71481D01*
X220050Y71256D01*
X220133Y71029D01*
X220211Y70800D01*
X220282Y70569D01*
X220349Y70337D01*
X220409Y70103D01*
X220464Y69868D01*
X220514Y69631D01*
X220557Y69394D01*
X220595Y69155D01*
X220627Y68915D01*
X220653Y68675D01*
X220674Y68434D01*
X220688Y68193D01*
X220697Y67952D01*
X220700Y67710D01*
D11*
X49010Y279937D02*
X49015Y280330D01*
X49029Y280722D01*
X49053Y281114D01*
X49087Y281505D01*
X49130Y281896D01*
X49183Y282285D01*
X49246Y282673D01*
X49317Y283059D01*
X49399Y283443D01*
X49490Y283825D01*
X49590Y284205D01*
X49699Y284582D01*
X49818Y284957D01*
X49945Y285328D01*
X50082Y285696D01*
X50228Y286061D01*
X50383Y286422D01*
X50546Y286779D01*
X50719Y287132D01*
X50899Y287480D01*
X51089Y287824D01*
X51287Y288164D01*
X51493Y288498D01*
X51707Y288827D01*
X51929Y289151D01*
X52159Y289469D01*
X52397Y289782D01*
X52642Y290089D01*
X52895Y290389D01*
X53155Y290683D01*
X53423Y290971D01*
X53697Y291252D01*
X53978Y291526D01*
X54266Y291794D01*
X54560Y292054D01*
X54860Y292307D01*
X55167Y292552D01*
X55480Y292790D01*
X55798Y293020D01*
X56122Y293242D01*
X56451Y293456D01*
X56785Y293662D01*
X57125Y293860D01*
X57469Y294050D01*
X57817Y294230D01*
X58170Y294403D01*
X58527Y294566D01*
X58888Y294721D01*
X59253Y294867D01*
X59621Y295004D01*
X59992Y295131D01*
X60367Y295250D01*
X60744Y295359D01*
X61124Y295459D01*
X61506Y295550D01*
X61890Y295632D01*
X62276Y295703D01*
X62664Y295766D01*
X63053Y295819D01*
X63444Y295862D01*
X63835Y295896D01*
X64227Y295920D01*
X64619Y295934D01*
X65012Y295939D01*
X65405Y295934D01*
X65797Y295920D01*
X66189Y295896D01*
X66580Y295862D01*
X66971Y295819D01*
X67360Y295766D01*
X67748Y295703D01*
X68134Y295632D01*
X68518Y295550D01*
X68900Y295459D01*
X69280Y295359D01*
X69657Y295250D01*
X70032Y295131D01*
X70403Y295004D01*
X70771Y294867D01*
X71136Y294721D01*
X71497Y294566D01*
X71854Y294403D01*
X72207Y294230D01*
X72555Y294050D01*
X72899Y293860D01*
X73239Y293662D01*
X73573Y293456D01*
X73902Y293242D01*
X74226Y293020D01*
X74544Y292790D01*
X74857Y292552D01*
X75164Y292307D01*
X75464Y292054D01*
X75758Y291794D01*
X76046Y291526D01*
X76327Y291252D01*
X76601Y290971D01*
X76869Y290683D01*
X77129Y290389D01*
X77382Y290089D01*
X77627Y289782D01*
X77865Y289469D01*
X78095Y289151D01*
X78317Y288827D01*
X78531Y288498D01*
X78737Y288164D01*
X78935Y287824D01*
X79125Y287480D01*
X79305Y287132D01*
X79478Y286779D01*
X79641Y286422D01*
X79796Y286061D01*
X79942Y285696D01*
X80079Y285328D01*
X80206Y284957D01*
X80325Y284582D01*
X80434Y284205D01*
X80534Y283825D01*
X80625Y283443D01*
X80707Y283059D01*
X80778Y282673D01*
X80841Y282285D01*
X80894Y281896D01*
X80937Y281505D01*
X80971Y281114D01*
X80995Y280722D01*
X81009Y280330D01*
X81014Y279937D01*
X81009Y279544D01*
X80995Y279152D01*
X80971Y278760D01*
X80937Y278369D01*
X80894Y277978D01*
X80841Y277589D01*
X80778Y277201D01*
X80707Y276815D01*
X80625Y276431D01*
X80534Y276049D01*
X80434Y275669D01*
X80325Y275292D01*
X80206Y274917D01*
X80079Y274546D01*
X79942Y274178D01*
X79796Y273813D01*
X79641Y273452D01*
X79478Y273095D01*
X79305Y272742D01*
X79125Y272394D01*
X78935Y272050D01*
X78737Y271710D01*
X78531Y271376D01*
X78317Y271047D01*
X78095Y270723D01*
X77865Y270405D01*
X77627Y270092D01*
X77382Y269785D01*
X77129Y269485D01*
X76869Y269191D01*
X76601Y268903D01*
X76327Y268622D01*
X76046Y268348D01*
X75758Y268080D01*
X75464Y267820D01*
X75164Y267567D01*
X74857Y267322D01*
X74544Y267084D01*
X74226Y266854D01*
X73902Y266632D01*
X73573Y266418D01*
X73239Y266212D01*
X72899Y266014D01*
X72555Y265824D01*
X72207Y265644D01*
X71854Y265471D01*
X71497Y265308D01*
X71136Y265153D01*
X70771Y265007D01*
X70403Y264870D01*
X70032Y264743D01*
X69657Y264624D01*
X69280Y264515D01*
X68900Y264415D01*
X68518Y264324D01*
X68134Y264242D01*
X67748Y264171D01*
X67360Y264108D01*
X66971Y264055D01*
X66580Y264012D01*
X66189Y263978D01*
X65797Y263954D01*
X65405Y263940D01*
X65012Y263935D01*
X64619Y263940D01*
X64227Y263954D01*
X63835Y263978D01*
X63444Y264012D01*
X63053Y264055D01*
X62664Y264108D01*
X62276Y264171D01*
X61890Y264242D01*
X61506Y264324D01*
X61124Y264415D01*
X60744Y264515D01*
X60367Y264624D01*
X59992Y264743D01*
X59621Y264870D01*
X59253Y265007D01*
X58888Y265153D01*
X58527Y265308D01*
X58170Y265471D01*
X57817Y265644D01*
X57469Y265824D01*
X57125Y266014D01*
X56785Y266212D01*
X56451Y266418D01*
X56122Y266632D01*
X55798Y266854D01*
X55480Y267084D01*
X55167Y267322D01*
X54860Y267567D01*
X54560Y267820D01*
X54266Y268080D01*
X53978Y268348D01*
X53697Y268622D01*
X53423Y268903D01*
X53155Y269191D01*
X52895Y269485D01*
X52642Y269785D01*
X52397Y270092D01*
X52159Y270405D01*
X51929Y270723D01*
X51707Y271047D01*
X51493Y271376D01*
X51287Y271710D01*
X51089Y272050D01*
X50899Y272394D01*
X50719Y272742D01*
X50546Y273095D01*
X50383Y273452D01*
X50228Y273813D01*
X50082Y274178D01*
X49945Y274546D01*
X49818Y274917D01*
X49699Y275292D01*
X49590Y275669D01*
X49490Y276049D01*
X49399Y276431D01*
X49317Y276815D01*
X49246Y277201D01*
X49183Y277589D01*
X49130Y277978D01*
X49087Y278369D01*
X49053Y278760D01*
X49029Y279152D01*
X49015Y279544D01*
X49010Y279937D01*
X49010Y780063D02*
X49015Y780456D01*
X49029Y780848D01*
X49053Y781240D01*
X49087Y781631D01*
X49130Y782022D01*
X49183Y782411D01*
X49246Y782799D01*
X49317Y783185D01*
X49399Y783569D01*
X49490Y783951D01*
X49590Y784331D01*
X49699Y784708D01*
X49818Y785083D01*
X49945Y785454D01*
X50082Y785822D01*
X50228Y786187D01*
X50383Y786548D01*
X50546Y786905D01*
X50719Y787258D01*
X50899Y787606D01*
X51089Y787950D01*
X51287Y788290D01*
X51493Y788624D01*
X51707Y788953D01*
X51929Y789277D01*
X52159Y789595D01*
X52397Y789908D01*
X52642Y790215D01*
X52895Y790515D01*
X53155Y790809D01*
X53423Y791097D01*
X53697Y791378D01*
X53978Y791652D01*
X54266Y791920D01*
X54560Y792180D01*
X54860Y792433D01*
X55167Y792678D01*
X55480Y792916D01*
X55798Y793146D01*
X56122Y793368D01*
X56451Y793582D01*
X56785Y793788D01*
X57125Y793986D01*
X57469Y794176D01*
X57817Y794356D01*
X58170Y794529D01*
X58527Y794692D01*
X58888Y794847D01*
X59253Y794993D01*
X59621Y795130D01*
X59992Y795257D01*
X60367Y795376D01*
X60744Y795485D01*
X61124Y795585D01*
X61506Y795676D01*
X61890Y795758D01*
X62276Y795829D01*
X62664Y795892D01*
X63053Y795945D01*
X63444Y795988D01*
X63835Y796022D01*
X64227Y796046D01*
X64619Y796060D01*
X65012Y796065D01*
X65405Y796060D01*
X65797Y796046D01*
X66189Y796022D01*
X66580Y795988D01*
X66971Y795945D01*
X67360Y795892D01*
X67748Y795829D01*
X68134Y795758D01*
X68518Y795676D01*
X68900Y795585D01*
X69280Y795485D01*
X69657Y795376D01*
X70032Y795257D01*
X70403Y795130D01*
X70771Y794993D01*
X71136Y794847D01*
X71497Y794692D01*
X71854Y794529D01*
X72207Y794356D01*
X72555Y794176D01*
X72899Y793986D01*
X73239Y793788D01*
X73573Y793582D01*
X73902Y793368D01*
X74226Y793146D01*
X74544Y792916D01*
X74857Y792678D01*
X75164Y792433D01*
X75464Y792180D01*
X75758Y791920D01*
X76046Y791652D01*
X76327Y791378D01*
X76601Y791097D01*
X76869Y790809D01*
X77129Y790515D01*
X77382Y790215D01*
X77627Y789908D01*
X77865Y789595D01*
X78095Y789277D01*
X78317Y788953D01*
X78531Y788624D01*
X78737Y788290D01*
X78935Y787950D01*
X79125Y787606D01*
X79305Y787258D01*
X79478Y786905D01*
X79641Y786548D01*
X79796Y786187D01*
X79942Y785822D01*
X80079Y785454D01*
X80206Y785083D01*
X80325Y784708D01*
X80434Y784331D01*
X80534Y783951D01*
X80625Y783569D01*
X80707Y783185D01*
X80778Y782799D01*
X80841Y782411D01*
X80894Y782022D01*
X80937Y781631D01*
X80971Y781240D01*
X80995Y780848D01*
X81009Y780456D01*
X81014Y780063D01*
X81009Y779670D01*
X80995Y779278D01*
X80971Y778886D01*
X80937Y778495D01*
X80894Y778104D01*
X80841Y777715D01*
X80778Y777327D01*
X80707Y776941D01*
X80625Y776557D01*
X80534Y776175D01*
X80434Y775795D01*
X80325Y775418D01*
X80206Y775043D01*
X80079Y774672D01*
X79942Y774304D01*
X79796Y773939D01*
X79641Y773578D01*
X79478Y773221D01*
X79305Y772868D01*
X79125Y772520D01*
X78935Y772176D01*
X78737Y771836D01*
X78531Y771502D01*
X78317Y771173D01*
X78095Y770849D01*
X77865Y770531D01*
X77627Y770218D01*
X77382Y769911D01*
X77129Y769611D01*
X76869Y769317D01*
X76601Y769029D01*
X76327Y768748D01*
X76046Y768474D01*
X75758Y768206D01*
X75464Y767946D01*
X75164Y767693D01*
X74857Y767448D01*
X74544Y767210D01*
X74226Y766980D01*
X73902Y766758D01*
X73573Y766544D01*
X73239Y766338D01*
X72899Y766140D01*
X72555Y765950D01*
X72207Y765770D01*
X71854Y765597D01*
X71497Y765434D01*
X71136Y765279D01*
X70771Y765133D01*
X70403Y764996D01*
X70032Y764869D01*
X69657Y764750D01*
X69280Y764641D01*
X68900Y764541D01*
X68518Y764450D01*
X68134Y764368D01*
X67748Y764297D01*
X67360Y764234D01*
X66971Y764181D01*
X66580Y764138D01*
X66189Y764104D01*
X65797Y764080D01*
X65405Y764066D01*
X65012Y764061D01*
X64619Y764066D01*
X64227Y764080D01*
X63835Y764104D01*
X63444Y764138D01*
X63053Y764181D01*
X62664Y764234D01*
X62276Y764297D01*
X61890Y764368D01*
X61506Y764450D01*
X61124Y764541D01*
X60744Y764641D01*
X60367Y764750D01*
X59992Y764869D01*
X59621Y764996D01*
X59253Y765133D01*
X58888Y765279D01*
X58527Y765434D01*
X58170Y765597D01*
X57817Y765770D01*
X57469Y765950D01*
X57125Y766140D01*
X56785Y766338D01*
X56451Y766544D01*
X56122Y766758D01*
X55798Y766980D01*
X55480Y767210D01*
X55167Y767448D01*
X54860Y767693D01*
X54560Y767946D01*
X54266Y768206D01*
X53978Y768474D01*
X53697Y768748D01*
X53423Y769029D01*
X53155Y769317D01*
X52895Y769611D01*
X52642Y769911D01*
X52397Y770218D01*
X52159Y770531D01*
X51929Y770849D01*
X51707Y771173D01*
X51493Y771502D01*
X51287Y771836D01*
X51089Y772176D01*
X50899Y772520D01*
X50719Y772868D01*
X50546Y773221D01*
X50383Y773578D01*
X50228Y773939D01*
X50082Y774304D01*
X49945Y774672D01*
X49818Y775043D01*
X49699Y775418D01*
X49590Y775795D01*
X49490Y776175D01*
X49399Y776557D01*
X49317Y776941D01*
X49246Y777327D01*
X49183Y777715D01*
X49130Y778104D01*
X49087Y778495D01*
X49053Y778886D01*
X49029Y779278D01*
X49015Y779670D01*
X49010Y780063D01*
X618986Y780063D02*
X618991Y780456D01*
X619005Y780848D01*
X619029Y781240D01*
X619063Y781631D01*
X619106Y782022D01*
X619159Y782411D01*
X619222Y782799D01*
X619293Y783185D01*
X619375Y783569D01*
X619466Y783951D01*
X619566Y784331D01*
X619675Y784708D01*
X619794Y785083D01*
X619921Y785454D01*
X620058Y785822D01*
X620204Y786187D01*
X620359Y786548D01*
X620522Y786905D01*
X620695Y787258D01*
X620875Y787606D01*
X621065Y787950D01*
X621263Y788290D01*
X621469Y788624D01*
X621683Y788953D01*
X621905Y789277D01*
X622135Y789595D01*
X622373Y789908D01*
X622618Y790215D01*
X622871Y790515D01*
X623131Y790809D01*
X623399Y791097D01*
X623673Y791378D01*
X623954Y791652D01*
X624242Y791920D01*
X624536Y792180D01*
X624836Y792433D01*
X625143Y792678D01*
X625456Y792916D01*
X625774Y793146D01*
X626098Y793368D01*
X626427Y793582D01*
X626761Y793788D01*
X627101Y793986D01*
X627445Y794176D01*
X627793Y794356D01*
X628146Y794529D01*
X628503Y794692D01*
X628864Y794847D01*
X629229Y794993D01*
X629597Y795130D01*
X629968Y795257D01*
X630343Y795376D01*
X630720Y795485D01*
X631100Y795585D01*
X631482Y795676D01*
X631866Y795758D01*
X632252Y795829D01*
X632640Y795892D01*
X633029Y795945D01*
X633420Y795988D01*
X633811Y796022D01*
X634203Y796046D01*
X634595Y796060D01*
X634988Y796065D01*
X635381Y796060D01*
X635773Y796046D01*
X636165Y796022D01*
X636556Y795988D01*
X636947Y795945D01*
X637336Y795892D01*
X637724Y795829D01*
X638110Y795758D01*
X638494Y795676D01*
X638876Y795585D01*
X639256Y795485D01*
X639633Y795376D01*
X640008Y795257D01*
X640379Y795130D01*
X640747Y794993D01*
X641112Y794847D01*
X641473Y794692D01*
X641830Y794529D01*
X642183Y794356D01*
X642531Y794176D01*
X642875Y793986D01*
X643215Y793788D01*
X643549Y793582D01*
X643878Y793368D01*
X644202Y793146D01*
X644520Y792916D01*
X644833Y792678D01*
X645140Y792433D01*
X645440Y792180D01*
X645734Y791920D01*
X646022Y791652D01*
X646303Y791378D01*
X646577Y791097D01*
X646845Y790809D01*
X647105Y790515D01*
X647358Y790215D01*
X647603Y789908D01*
X647841Y789595D01*
X648071Y789277D01*
X648293Y788953D01*
X648507Y788624D01*
X648713Y788290D01*
X648911Y787950D01*
X649101Y787606D01*
X649281Y787258D01*
X649454Y786905D01*
X649617Y786548D01*
X649772Y786187D01*
X649918Y785822D01*
X650055Y785454D01*
X650182Y785083D01*
X650301Y784708D01*
X650410Y784331D01*
X650510Y783951D01*
X650601Y783569D01*
X650683Y783185D01*
X650754Y782799D01*
X650817Y782411D01*
X650870Y782022D01*
X650913Y781631D01*
X650947Y781240D01*
X650971Y780848D01*
X650985Y780456D01*
X650990Y780063D01*
X650985Y779670D01*
X650971Y779278D01*
X650947Y778886D01*
X650913Y778495D01*
X650870Y778104D01*
X650817Y777715D01*
X650754Y777327D01*
X650683Y776941D01*
X650601Y776557D01*
X650510Y776175D01*
X650410Y775795D01*
X650301Y775418D01*
X650182Y775043D01*
X650055Y774672D01*
X649918Y774304D01*
X649772Y773939D01*
X649617Y773578D01*
X649454Y773221D01*
X649281Y772868D01*
X649101Y772520D01*
X648911Y772176D01*
X648713Y771836D01*
X648507Y771502D01*
X648293Y771173D01*
X648071Y770849D01*
X647841Y770531D01*
X647603Y770218D01*
X647358Y769911D01*
X647105Y769611D01*
X646845Y769317D01*
X646577Y769029D01*
X646303Y768748D01*
X646022Y768474D01*
X645734Y768206D01*
X645440Y767946D01*
X645140Y767693D01*
X644833Y767448D01*
X644520Y767210D01*
X644202Y766980D01*
X643878Y766758D01*
X643549Y766544D01*
X643215Y766338D01*
X642875Y766140D01*
X642531Y765950D01*
X642183Y765770D01*
X641830Y765597D01*
X641473Y765434D01*
X641112Y765279D01*
X640747Y765133D01*
X640379Y764996D01*
X640008Y764869D01*
X639633Y764750D01*
X639256Y764641D01*
X638876Y764541D01*
X638494Y764450D01*
X638110Y764368D01*
X637724Y764297D01*
X637336Y764234D01*
X636947Y764181D01*
X636556Y764138D01*
X636165Y764104D01*
X635773Y764080D01*
X635381Y764066D01*
X634988Y764061D01*
X634595Y764066D01*
X634203Y764080D01*
X633811Y764104D01*
X633420Y764138D01*
X633029Y764181D01*
X632640Y764234D01*
X632252Y764297D01*
X631866Y764368D01*
X631482Y764450D01*
X631100Y764541D01*
X630720Y764641D01*
X630343Y764750D01*
X629968Y764869D01*
X629597Y764996D01*
X629229Y765133D01*
X628864Y765279D01*
X628503Y765434D01*
X628146Y765597D01*
X627793Y765770D01*
X627445Y765950D01*
X627101Y766140D01*
X626761Y766338D01*
X626427Y766544D01*
X626098Y766758D01*
X625774Y766980D01*
X625456Y767210D01*
X625143Y767448D01*
X624836Y767693D01*
X624536Y767946D01*
X624242Y768206D01*
X623954Y768474D01*
X623673Y768748D01*
X623399Y769029D01*
X623131Y769317D01*
X622871Y769611D01*
X622618Y769911D01*
X622373Y770218D01*
X622135Y770531D01*
X621905Y770849D01*
X621683Y771173D01*
X621469Y771502D01*
X621263Y771836D01*
X621065Y772176D01*
X620875Y772520D01*
X620695Y772868D01*
X620522Y773221D01*
X620359Y773578D01*
X620204Y773939D01*
X620058Y774304D01*
X619921Y774672D01*
X619794Y775043D01*
X619675Y775418D01*
X619566Y775795D01*
X619466Y776175D01*
X619375Y776557D01*
X619293Y776941D01*
X619222Y777327D01*
X619159Y777715D01*
X619106Y778104D01*
X619063Y778495D01*
X619029Y778886D01*
X619005Y779278D01*
X618991Y779670D01*
X618986Y780063D01*
X618986Y279937D02*
X618991Y280330D01*
X619005Y280722D01*
X619029Y281114D01*
X619063Y281505D01*
X619106Y281896D01*
X619159Y282285D01*
X619222Y282673D01*
X619293Y283059D01*
X619375Y283443D01*
X619466Y283825D01*
X619566Y284205D01*
X619675Y284582D01*
X619794Y284957D01*
X619921Y285328D01*
X620058Y285696D01*
X620204Y286061D01*
X620359Y286422D01*
X620522Y286779D01*
X620695Y287132D01*
X620875Y287480D01*
X621065Y287824D01*
X621263Y288164D01*
X621469Y288498D01*
X621683Y288827D01*
X621905Y289151D01*
X622135Y289469D01*
X622373Y289782D01*
X622618Y290089D01*
X622871Y290389D01*
X623131Y290683D01*
X623399Y290971D01*
X623673Y291252D01*
X623954Y291526D01*
X624242Y291794D01*
X624536Y292054D01*
X624836Y292307D01*
X625143Y292552D01*
X625456Y292790D01*
X625774Y293020D01*
X626098Y293242D01*
X626427Y293456D01*
X626761Y293662D01*
X627101Y293860D01*
X627445Y294050D01*
X627793Y294230D01*
X628146Y294403D01*
X628503Y294566D01*
X628864Y294721D01*
X629229Y294867D01*
X629597Y295004D01*
X629968Y295131D01*
X630343Y295250D01*
X630720Y295359D01*
X631100Y295459D01*
X631482Y295550D01*
X631866Y295632D01*
X632252Y295703D01*
X632640Y295766D01*
X633029Y295819D01*
X633420Y295862D01*
X633811Y295896D01*
X634203Y295920D01*
X634595Y295934D01*
X634988Y295939D01*
X635381Y295934D01*
X635773Y295920D01*
X636165Y295896D01*
X636556Y295862D01*
X636947Y295819D01*
X637336Y295766D01*
X637724Y295703D01*
X638110Y295632D01*
X638494Y295550D01*
X638876Y295459D01*
X639256Y295359D01*
X639633Y295250D01*
X640008Y295131D01*
X640379Y295004D01*
X640747Y294867D01*
X641112Y294721D01*
X641473Y294566D01*
X641830Y294403D01*
X642183Y294230D01*
X642531Y294050D01*
X642875Y293860D01*
X643215Y293662D01*
X643549Y293456D01*
X643878Y293242D01*
X644202Y293020D01*
X644520Y292790D01*
X644833Y292552D01*
X645140Y292307D01*
X645440Y292054D01*
X645734Y291794D01*
X646022Y291526D01*
X646303Y291252D01*
X646577Y290971D01*
X646845Y290683D01*
X647105Y290389D01*
X647358Y290089D01*
X647603Y289782D01*
X647841Y289469D01*
X648071Y289151D01*
X648293Y288827D01*
X648507Y288498D01*
X648713Y288164D01*
X648911Y287824D01*
X649101Y287480D01*
X649281Y287132D01*
X649454Y286779D01*
X649617Y286422D01*
X649772Y286061D01*
X649918Y285696D01*
X650055Y285328D01*
X650182Y284957D01*
X650301Y284582D01*
X650410Y284205D01*
X650510Y283825D01*
X650601Y283443D01*
X650683Y283059D01*
X650754Y282673D01*
X650817Y282285D01*
X650870Y281896D01*
X650913Y281505D01*
X650947Y281114D01*
X650971Y280722D01*
X650985Y280330D01*
X650990Y279937D01*
X650985Y279544D01*
X650971Y279152D01*
X650947Y278760D01*
X650913Y278369D01*
X650870Y277978D01*
X650817Y277589D01*
X650754Y277201D01*
X650683Y276815D01*
X650601Y276431D01*
X650510Y276049D01*
X650410Y275669D01*
X650301Y275292D01*
X650182Y274917D01*
X650055Y274546D01*
X649918Y274178D01*
X649772Y273813D01*
X649617Y273452D01*
X649454Y273095D01*
X649281Y272742D01*
X649101Y272394D01*
X648911Y272050D01*
X648713Y271710D01*
X648507Y271376D01*
X648293Y271047D01*
X648071Y270723D01*
X647841Y270405D01*
X647603Y270092D01*
X647358Y269785D01*
X647105Y269485D01*
X646845Y269191D01*
X646577Y268903D01*
X646303Y268622D01*
X646022Y268348D01*
X645734Y268080D01*
X645440Y267820D01*
X645140Y267567D01*
X644833Y267322D01*
X644520Y267084D01*
X644202Y266854D01*
X643878Y266632D01*
X643549Y266418D01*
X643215Y266212D01*
X642875Y266014D01*
X642531Y265824D01*
X642183Y265644D01*
X641830Y265471D01*
X641473Y265308D01*
X641112Y265153D01*
X640747Y265007D01*
X640379Y264870D01*
X640008Y264743D01*
X639633Y264624D01*
X639256Y264515D01*
X638876Y264415D01*
X638494Y264324D01*
X638110Y264242D01*
X637724Y264171D01*
X637336Y264108D01*
X636947Y264055D01*
X636556Y264012D01*
X636165Y263978D01*
X635773Y263954D01*
X635381Y263940D01*
X634988Y263935D01*
X634595Y263940D01*
X634203Y263954D01*
X633811Y263978D01*
X633420Y264012D01*
X633029Y264055D01*
X632640Y264108D01*
X632252Y264171D01*
X631866Y264242D01*
X631482Y264324D01*
X631100Y264415D01*
X630720Y264515D01*
X630343Y264624D01*
X629968Y264743D01*
X629597Y264870D01*
X629229Y265007D01*
X628864Y265153D01*
X628503Y265308D01*
X628146Y265471D01*
X627793Y265644D01*
X627445Y265824D01*
X627101Y266014D01*
X626761Y266212D01*
X626427Y266418D01*
X626098Y266632D01*
X625774Y266854D01*
X625456Y267084D01*
X625143Y267322D01*
X624836Y267567D01*
X624536Y267820D01*
X624242Y268080D01*
X623954Y268348D01*
X623673Y268622D01*
X623399Y268903D01*
X623131Y269191D01*
X622871Y269485D01*
X622618Y269785D01*
X622373Y270092D01*
X622135Y270405D01*
X621905Y270723D01*
X621683Y271047D01*
X621469Y271376D01*
X621263Y271710D01*
X621065Y272050D01*
X620875Y272394D01*
X620695Y272742D01*
X620522Y273095D01*
X620359Y273452D01*
X620204Y273813D01*
X620058Y274178D01*
X619921Y274546D01*
X619794Y274917D01*
X619675Y275292D01*
X619566Y275669D01*
X619466Y276049D01*
X619375Y276431D01*
X619293Y276815D01*
X619222Y277201D01*
X619159Y277589D01*
X619106Y277978D01*
X619063Y278369D01*
X619029Y278760D01*
X619005Y279152D01*
X618991Y279544D01*
X618986Y279937D01*
X432150Y44220D02*
X432152Y44333D01*
X432158Y44447D01*
X432168Y44560D01*
X432182Y44672D01*
X432199Y44784D01*
X432221Y44896D01*
X432247Y45006D01*
X432276Y45116D01*
X432309Y45224D01*
X432346Y45332D01*
X432387Y45437D01*
X432431Y45542D01*
X432479Y45645D01*
X432530Y45746D01*
X432585Y45845D01*
X432644Y45942D01*
X432706Y46037D01*
X432771Y46130D01*
X432839Y46221D01*
X432910Y46309D01*
X432985Y46395D01*
X433062Y46478D01*
X433142Y46558D01*
X433225Y46635D01*
X433311Y46710D01*
X433399Y46781D01*
X433490Y46849D01*
X433583Y46914D01*
X433678Y46976D01*
X433775Y47035D01*
X433874Y47090D01*
X433975Y47141D01*
X434078Y47189D01*
X434183Y47233D01*
X434288Y47274D01*
X434396Y47311D01*
X434504Y47344D01*
X434614Y47373D01*
X434724Y47399D01*
X434836Y47421D01*
X434948Y47438D01*
X435060Y47452D01*
X435173Y47462D01*
X435287Y47468D01*
X435400Y47470D01*
X435513Y47468D01*
X435627Y47462D01*
X435740Y47452D01*
X435852Y47438D01*
X435964Y47421D01*
X436076Y47399D01*
X436186Y47373D01*
X436296Y47344D01*
X436404Y47311D01*
X436512Y47274D01*
X436617Y47233D01*
X436722Y47189D01*
X436825Y47141D01*
X436926Y47090D01*
X437025Y47035D01*
X437122Y46976D01*
X437217Y46914D01*
X437310Y46849D01*
X437401Y46781D01*
X437489Y46710D01*
X437575Y46635D01*
X437658Y46558D01*
X437738Y46478D01*
X437815Y46395D01*
X437890Y46309D01*
X437961Y46221D01*
X438029Y46130D01*
X438094Y46037D01*
X438156Y45942D01*
X438215Y45845D01*
X438270Y45746D01*
X438321Y45645D01*
X438369Y45542D01*
X438413Y45437D01*
X438454Y45332D01*
X438491Y45224D01*
X438524Y45116D01*
X438553Y45006D01*
X438579Y44896D01*
X438601Y44784D01*
X438618Y44672D01*
X438632Y44560D01*
X438642Y44447D01*
X438648Y44333D01*
X438650Y44220D01*
X438648Y44107D01*
X438642Y43993D01*
X438632Y43880D01*
X438618Y43768D01*
X438601Y43656D01*
X438579Y43544D01*
X438553Y43434D01*
X438524Y43324D01*
X438491Y43216D01*
X438454Y43108D01*
X438413Y43003D01*
X438369Y42898D01*
X438321Y42795D01*
X438270Y42694D01*
X438215Y42595D01*
X438156Y42498D01*
X438094Y42403D01*
X438029Y42310D01*
X437961Y42219D01*
X437890Y42131D01*
X437815Y42045D01*
X437738Y41962D01*
X437658Y41882D01*
X437575Y41805D01*
X437489Y41730D01*
X437401Y41659D01*
X437310Y41591D01*
X437217Y41526D01*
X437122Y41464D01*
X437025Y41405D01*
X436926Y41350D01*
X436825Y41299D01*
X436722Y41251D01*
X436617Y41207D01*
X436512Y41166D01*
X436404Y41129D01*
X436296Y41096D01*
X436186Y41067D01*
X436076Y41041D01*
X435964Y41019D01*
X435852Y41002D01*
X435740Y40988D01*
X435627Y40978D01*
X435513Y40972D01*
X435400Y40970D01*
X435287Y40972D01*
X435173Y40978D01*
X435060Y40988D01*
X434948Y41002D01*
X434836Y41019D01*
X434724Y41041D01*
X434614Y41067D01*
X434504Y41096D01*
X434396Y41129D01*
X434288Y41166D01*
X434183Y41207D01*
X434078Y41251D01*
X433975Y41299D01*
X433874Y41350D01*
X433775Y41405D01*
X433678Y41464D01*
X433583Y41526D01*
X433490Y41591D01*
X433399Y41659D01*
X433311Y41730D01*
X433225Y41805D01*
X433142Y41882D01*
X433062Y41962D01*
X432985Y42045D01*
X432910Y42131D01*
X432839Y42219D01*
X432771Y42310D01*
X432706Y42403D01*
X432644Y42498D01*
X432585Y42595D01*
X432530Y42694D01*
X432479Y42795D01*
X432431Y42898D01*
X432387Y43003D01*
X432346Y43108D01*
X432309Y43216D01*
X432276Y43324D01*
X432247Y43434D01*
X432221Y43544D01*
X432199Y43656D01*
X432182Y43768D01*
X432168Y43880D01*
X432158Y43993D01*
X432152Y44107D01*
X432150Y44220D01*
X489950Y44220D02*
X489952Y44333D01*
X489958Y44447D01*
X489968Y44560D01*
X489982Y44672D01*
X489999Y44784D01*
X490021Y44896D01*
X490047Y45006D01*
X490076Y45116D01*
X490109Y45224D01*
X490146Y45332D01*
X490187Y45437D01*
X490231Y45542D01*
X490279Y45645D01*
X490330Y45746D01*
X490385Y45845D01*
X490444Y45942D01*
X490506Y46037D01*
X490571Y46130D01*
X490639Y46221D01*
X490710Y46309D01*
X490785Y46395D01*
X490862Y46478D01*
X490942Y46558D01*
X491025Y46635D01*
X491111Y46710D01*
X491199Y46781D01*
X491290Y46849D01*
X491383Y46914D01*
X491478Y46976D01*
X491575Y47035D01*
X491674Y47090D01*
X491775Y47141D01*
X491878Y47189D01*
X491983Y47233D01*
X492088Y47274D01*
X492196Y47311D01*
X492304Y47344D01*
X492414Y47373D01*
X492524Y47399D01*
X492636Y47421D01*
X492748Y47438D01*
X492860Y47452D01*
X492973Y47462D01*
X493087Y47468D01*
X493200Y47470D01*
X493313Y47468D01*
X493427Y47462D01*
X493540Y47452D01*
X493652Y47438D01*
X493764Y47421D01*
X493876Y47399D01*
X493986Y47373D01*
X494096Y47344D01*
X494204Y47311D01*
X494312Y47274D01*
X494417Y47233D01*
X494522Y47189D01*
X494625Y47141D01*
X494726Y47090D01*
X494825Y47035D01*
X494922Y46976D01*
X495017Y46914D01*
X495110Y46849D01*
X495201Y46781D01*
X495289Y46710D01*
X495375Y46635D01*
X495458Y46558D01*
X495538Y46478D01*
X495615Y46395D01*
X495690Y46309D01*
X495761Y46221D01*
X495829Y46130D01*
X495894Y46037D01*
X495956Y45942D01*
X496015Y45845D01*
X496070Y45746D01*
X496121Y45645D01*
X496169Y45542D01*
X496213Y45437D01*
X496254Y45332D01*
X496291Y45224D01*
X496324Y45116D01*
X496353Y45006D01*
X496379Y44896D01*
X496401Y44784D01*
X496418Y44672D01*
X496432Y44560D01*
X496442Y44447D01*
X496448Y44333D01*
X496450Y44220D01*
X496448Y44107D01*
X496442Y43993D01*
X496432Y43880D01*
X496418Y43768D01*
X496401Y43656D01*
X496379Y43544D01*
X496353Y43434D01*
X496324Y43324D01*
X496291Y43216D01*
X496254Y43108D01*
X496213Y43003D01*
X496169Y42898D01*
X496121Y42795D01*
X496070Y42694D01*
X496015Y42595D01*
X495956Y42498D01*
X495894Y42403D01*
X495829Y42310D01*
X495761Y42219D01*
X495690Y42131D01*
X495615Y42045D01*
X495538Y41962D01*
X495458Y41882D01*
X495375Y41805D01*
X495289Y41730D01*
X495201Y41659D01*
X495110Y41591D01*
X495017Y41526D01*
X494922Y41464D01*
X494825Y41405D01*
X494726Y41350D01*
X494625Y41299D01*
X494522Y41251D01*
X494417Y41207D01*
X494312Y41166D01*
X494204Y41129D01*
X494096Y41096D01*
X493986Y41067D01*
X493876Y41041D01*
X493764Y41019D01*
X493652Y41002D01*
X493540Y40988D01*
X493427Y40978D01*
X493313Y40972D01*
X493200Y40970D01*
X493087Y40972D01*
X492973Y40978D01*
X492860Y40988D01*
X492748Y41002D01*
X492636Y41019D01*
X492524Y41041D01*
X492414Y41067D01*
X492304Y41096D01*
X492196Y41129D01*
X492088Y41166D01*
X491983Y41207D01*
X491878Y41251D01*
X491775Y41299D01*
X491674Y41350D01*
X491575Y41405D01*
X491478Y41464D01*
X491383Y41526D01*
X491290Y41591D01*
X491199Y41659D01*
X491111Y41730D01*
X491025Y41805D01*
X490942Y41882D01*
X490862Y41962D01*
X490785Y42045D01*
X490710Y42131D01*
X490639Y42219D01*
X490571Y42310D01*
X490506Y42403D01*
X490444Y42498D01*
X490385Y42595D01*
X490330Y42694D01*
X490279Y42795D01*
X490231Y42898D01*
X490187Y43003D01*
X490146Y43108D01*
X490109Y43216D01*
X490076Y43324D01*
X490047Y43434D01*
X490021Y43544D01*
X489999Y43656D01*
X489982Y43768D01*
X489968Y43880D01*
X489958Y43993D01*
X489952Y44107D01*
X489950Y44220D01*
D12*
X421120Y44020D02*
X421120Y55020D01*
X507480Y55020D02*
X507480Y44020D01*
X421120Y10870D02*
X421120Y4670D01*
X507480Y4670D02*
X507480Y10870D01*
D15*
X8370Y397920D02*
X14789Y266665D01*
X42500Y30000D01*
X60000Y30000D01*
X60000Y-2750D01*
X640000Y-2750D01*
X640000Y30000D01*
X657000Y30000D01*
X658397Y39446D01*
X690360Y352200D01*
X690360Y498250D01*
X635750Y498250D01*
X632983Y498371D01*
X630237Y498732D01*
X627533Y499332D01*
X624891Y500165D01*
X622332Y501225D01*
X619875Y502504D01*
X617539Y503992D01*
X615342Y505678D01*
X613299Y507549D01*
X611428Y509592D01*
X609742Y511789D01*
X608254Y514125D01*
X606975Y516582D01*
X605915Y519141D01*
X605082Y521783D01*
X604482Y524487D01*
X604121Y527233D01*
X604000Y530000D01*
X604121Y532767D01*
X604482Y535513D01*
X605082Y538218D01*
X605915Y540859D01*
X606975Y543418D01*
X608254Y545875D01*
X609742Y548211D01*
X611428Y550409D01*
X613299Y552451D01*
X615342Y554322D01*
X617539Y556008D01*
X619875Y557496D01*
X622332Y558775D01*
X624891Y559835D01*
X627533Y560668D01*
X630237Y561268D01*
X632983Y561629D01*
X635750Y561750D01*
X690360Y561750D01*
X690360Y758600D01*
X685280Y847500D01*
X654800Y847500D01*
X654800Y1053240D01*
X652407Y1056738D01*
X646977Y1063669D01*
X640962Y1070102D01*
X634410Y1075985D01*
X627370Y1081275D01*
X619896Y1085931D01*
X612044Y1089919D01*
X603875Y1093206D01*
X595450Y1095770D01*
X586834Y1097589D01*
X578092Y1098650D01*
X121908Y1098650D01*
X117691Y1098235D01*
X109001Y1096807D01*
X100469Y1094628D01*
X92159Y1091714D01*
X84135Y1088086D01*
X76458Y1083773D01*
X69186Y1078807D01*
X62374Y1073226D01*
X56074Y1067073D01*
X50335Y1060394D01*
X45200Y1053240D01*
X45200Y847500D01*
X14720Y847500D01*
X8370Y744630D01*
X8370Y561750D01*
X64250Y561750D01*
X67017Y561629D01*
X69763Y561268D01*
X72468Y560668D01*
X75109Y559835D01*
X77668Y558775D01*
X80125Y557496D01*
X82461Y556008D01*
X84659Y554322D01*
X86701Y552451D01*
X88572Y550409D01*
X90258Y548211D01*
X91746Y545875D01*
X93025Y543418D01*
X94085Y540859D01*
X94918Y538218D01*
X95518Y535513D01*
X95879Y532767D01*
X96000Y530000D01*
X95879Y527233D01*
X95518Y524487D01*
X94918Y521783D01*
X94085Y519141D01*
X93025Y516582D01*
X91746Y514125D01*
X90258Y511789D01*
X88572Y509592D01*
X86701Y507549D01*
X84659Y505678D01*
X82461Y503992D01*
X80125Y502504D01*
X77668Y501225D01*
X75109Y500165D01*
X72468Y499332D01*
X69763Y498732D01*
X67017Y498371D01*
X64250Y498250D01*
X8370Y498250D01*
X8370Y397920D01*
X324350Y44007D02*
X324294Y43585D01*
X324184Y43173D01*
X324021Y42779D01*
X323808Y42411D01*
X323549Y42073D01*
X323247Y41771D01*
X322909Y41512D01*
X322541Y41299D01*
X322147Y41136D01*
X321735Y41026D01*
X321313Y40970D01*
X320887Y40970D01*
X320465Y41026D01*
X320053Y41136D01*
X319659Y41299D01*
X319291Y41512D01*
X318953Y41771D01*
X318651Y42073D01*
X318392Y42411D01*
X318179Y42779D01*
X318016Y43173D01*
X317906Y43585D01*
X317850Y44007D01*
X317850Y44433D01*
X317906Y44855D01*
X318016Y45267D01*
X318179Y45661D01*
X318392Y46029D01*
X318651Y46367D01*
X318953Y46669D01*
X319291Y46928D01*
X319659Y47141D01*
X320053Y47304D01*
X320465Y47414D01*
X320887Y47470D01*
X321313Y47470D01*
X321735Y47414D01*
X322147Y47304D01*
X322541Y47141D01*
X322909Y46928D01*
X323247Y46669D01*
X323549Y46367D01*
X323808Y46029D01*
X324021Y45661D01*
X324184Y45267D01*
X324294Y44855D01*
X324350Y44433D01*
X324350Y44007D01*
X382150Y44007D02*
X382094Y43585D01*
X381984Y43173D01*
X381821Y42779D01*
X381608Y42411D01*
X381349Y42073D01*
X381047Y41771D01*
X380709Y41512D01*
X380341Y41299D01*
X379947Y41136D01*
X379535Y41026D01*
X379113Y40970D01*
X378687Y40970D01*
X378265Y41026D01*
X377853Y41136D01*
X377459Y41299D01*
X377091Y41512D01*
X376753Y41771D01*
X376451Y42073D01*
X376192Y42411D01*
X375979Y42779D01*
X375816Y43173D01*
X375706Y43585D01*
X375650Y44007D01*
X375650Y44433D01*
X375706Y44855D01*
X375816Y45267D01*
X375979Y45661D01*
X376192Y46029D01*
X376451Y46367D01*
X376753Y46669D01*
X377091Y46928D01*
X377459Y47141D01*
X377853Y47304D01*
X378265Y47414D01*
X378687Y47470D01*
X379113Y47470D01*
X379535Y47414D01*
X379947Y47304D01*
X380341Y47141D01*
X380709Y46928D01*
X381047Y46669D01*
X381349Y46367D01*
X381608Y46029D01*
X381821Y45661D01*
X381984Y45267D01*
X382094Y44855D01*
X382150Y44433D01*
X382150Y44007D01*
X65536Y295939D02*
X66581Y295870D01*
X67620Y295734D01*
X68648Y295529D01*
X69660Y295258D01*
X70652Y294921D01*
X71620Y294520D01*
X72559Y294057D01*
X73467Y293533D01*
X74338Y292951D01*
X75169Y292313D01*
X75957Y291623D01*
X76698Y290882D01*
X77388Y290094D01*
X78026Y289263D01*
X78608Y288392D01*
X79132Y287484D01*
X79595Y286545D01*
X79996Y285577D01*
X80333Y284585D01*
X80604Y283573D01*
X80809Y282545D01*
X80945Y281506D01*
X81014Y280461D01*
X81014Y279413D01*
X80945Y278368D01*
X80809Y277329D01*
X80604Y276301D01*
X80333Y275289D01*
X79996Y274297D01*
X79595Y273329D01*
X79132Y272390D01*
X78608Y271482D01*
X78026Y270611D01*
X77388Y269780D01*
X76698Y268992D01*
X75957Y268251D01*
X75169Y267561D01*
X74338Y266923D01*
X73467Y266341D01*
X72559Y265817D01*
X71620Y265354D01*
X70652Y264953D01*
X69660Y264616D01*
X68648Y264345D01*
X67620Y264140D01*
X66581Y264004D01*
X65536Y263935D01*
X64488Y263935D01*
X63443Y264004D01*
X62404Y264140D01*
X61376Y264345D01*
X60364Y264616D01*
X59372Y264953D01*
X58404Y265354D01*
X57465Y265817D01*
X56557Y266341D01*
X55686Y266923D01*
X54855Y267561D01*
X54067Y268251D01*
X53326Y268992D01*
X52636Y269780D01*
X51998Y270611D01*
X51416Y271482D01*
X50892Y272390D01*
X50429Y273329D01*
X50028Y274297D01*
X49691Y275289D01*
X49420Y276301D01*
X49215Y277329D01*
X49079Y278368D01*
X49010Y279413D01*
X49010Y280461D01*
X49079Y281506D01*
X49215Y282545D01*
X49420Y283573D01*
X49691Y284585D01*
X50028Y285577D01*
X50429Y286545D01*
X50892Y287484D01*
X51416Y288392D01*
X51998Y289263D01*
X52636Y290094D01*
X53326Y290882D01*
X54067Y291623D01*
X54855Y292313D01*
X55686Y292951D01*
X56557Y293533D01*
X57465Y294057D01*
X58404Y294520D01*
X59372Y294921D01*
X60364Y295258D01*
X61376Y295529D01*
X62404Y295734D01*
X63443Y295870D01*
X64488Y295939D01*
X65536Y295939D01*
X65536Y796065D02*
X66581Y795996D01*
X67620Y795860D01*
X68648Y795655D01*
X69660Y795384D01*
X70652Y795047D01*
X71620Y794646D01*
X72559Y794183D01*
X73467Y793659D01*
X74338Y793077D01*
X75169Y792439D01*
X75957Y791749D01*
X76698Y791008D01*
X77388Y790220D01*
X78026Y789389D01*
X78608Y788518D01*
X79132Y787610D01*
X79595Y786671D01*
X79996Y785703D01*
X80333Y784711D01*
X80604Y783699D01*
X80809Y782671D01*
X80945Y781632D01*
X81014Y780587D01*
X81014Y779539D01*
X80945Y778494D01*
X80809Y777455D01*
X80604Y776427D01*
X80333Y775415D01*
X79996Y774423D01*
X79595Y773455D01*
X79132Y772516D01*
X78608Y771608D01*
X78026Y770737D01*
X77388Y769906D01*
X76698Y769118D01*
X75957Y768377D01*
X75169Y767687D01*
X74338Y767049D01*
X73467Y766467D01*
X72559Y765943D01*
X71620Y765480D01*
X70652Y765079D01*
X69660Y764742D01*
X68648Y764471D01*
X67620Y764266D01*
X66581Y764130D01*
X65536Y764061D01*
X64488Y764061D01*
X63443Y764130D01*
X62404Y764266D01*
X61376Y764471D01*
X60364Y764742D01*
X59372Y765079D01*
X58404Y765480D01*
X57465Y765943D01*
X56557Y766467D01*
X55686Y767049D01*
X54855Y767687D01*
X54067Y768377D01*
X53326Y769118D01*
X52636Y769906D01*
X51998Y770737D01*
X51416Y771608D01*
X50892Y772516D01*
X50429Y773455D01*
X50028Y774423D01*
X49691Y775415D01*
X49420Y776427D01*
X49215Y777455D01*
X49079Y778494D01*
X49010Y779539D01*
X49010Y780587D01*
X49079Y781632D01*
X49215Y782671D01*
X49420Y783699D01*
X49691Y784711D01*
X50028Y785703D01*
X50429Y786671D01*
X50892Y787610D01*
X51416Y788518D01*
X51998Y789389D01*
X52636Y790220D01*
X53326Y791008D01*
X54067Y791749D01*
X54855Y792439D01*
X55686Y793077D01*
X56557Y793659D01*
X57465Y794183D01*
X58404Y794646D01*
X59372Y795047D01*
X60364Y795384D01*
X61376Y795655D01*
X62404Y795860D01*
X63443Y795996D01*
X64488Y796065D01*
X65536Y796065D01*
X635512Y796065D02*
X636557Y795996D01*
X637596Y795860D01*
X638624Y795655D01*
X639636Y795384D01*
X640628Y795047D01*
X641596Y794646D01*
X642535Y794183D01*
X643443Y793659D01*
X644314Y793077D01*
X645145Y792439D01*
X645933Y791749D01*
X646674Y791008D01*
X647364Y790220D01*
X648002Y789389D01*
X648584Y788518D01*
X649108Y787610D01*
X649571Y786671D01*
X649972Y785703D01*
X650309Y784711D01*
X650580Y783699D01*
X650785Y782671D01*
X650921Y781632D01*
X650990Y780587D01*
X650990Y779539D01*
X650921Y778494D01*
X650785Y777455D01*
X650580Y776427D01*
X650309Y775415D01*
X649972Y774423D01*
X649571Y773455D01*
X649108Y772516D01*
X648584Y771608D01*
X648002Y770737D01*
X647364Y769906D01*
X646674Y769118D01*
X645933Y768377D01*
X645145Y767687D01*
X644314Y767049D01*
X643443Y766467D01*
X642535Y765943D01*
X641596Y765480D01*
X640628Y765079D01*
X639636Y764742D01*
X638624Y764471D01*
X637596Y764266D01*
X636557Y764130D01*
X635512Y764061D01*
X634464Y764061D01*
X633419Y764130D01*
X632380Y764266D01*
X631352Y764471D01*
X630340Y764742D01*
X629348Y765079D01*
X628380Y765480D01*
X627441Y765943D01*
X626533Y766467D01*
X625662Y767049D01*
X624831Y767687D01*
X624043Y768377D01*
X623302Y769118D01*
X622612Y769906D01*
X621974Y770737D01*
X621392Y771608D01*
X620868Y772516D01*
X620405Y773455D01*
X620004Y774423D01*
X619667Y775415D01*
X619396Y776427D01*
X619191Y777455D01*
X619055Y778494D01*
X618986Y779539D01*
X618986Y780587D01*
X619055Y781632D01*
X619191Y782671D01*
X619396Y783699D01*
X619667Y784711D01*
X620004Y785703D01*
X620405Y786671D01*
X620868Y787610D01*
X621392Y788518D01*
X621974Y789389D01*
X622612Y790220D01*
X623302Y791008D01*
X624043Y791749D01*
X624831Y792439D01*
X625662Y793077D01*
X626533Y793659D01*
X627441Y794183D01*
X628380Y794646D01*
X629348Y795047D01*
X630340Y795384D01*
X631352Y795655D01*
X632380Y795860D01*
X633419Y795996D01*
X634464Y796065D01*
X635512Y796065D01*
X635512Y295939D02*
X636557Y295870D01*
X637596Y295734D01*
X638624Y295529D01*
X639636Y295258D01*
X640628Y294921D01*
X641596Y294520D01*
X642535Y294057D01*
X643443Y293533D01*
X644314Y292951D01*
X645145Y292313D01*
X645933Y291623D01*
X646674Y290882D01*
X647364Y290094D01*
X648002Y289263D01*
X648584Y288392D01*
X649108Y287484D01*
X649571Y286545D01*
X649972Y285577D01*
X650309Y284585D01*
X650580Y283573D01*
X650785Y282545D01*
X650921Y281506D01*
X650990Y280461D01*
X650990Y279413D01*
X650921Y278368D01*
X650785Y277329D01*
X650580Y276301D01*
X650309Y275289D01*
X649972Y274297D01*
X649571Y273329D01*
X649108Y272390D01*
X648584Y271482D01*
X648002Y270611D01*
X647364Y269780D01*
X646674Y268992D01*
X645933Y268251D01*
X645145Y267561D01*
X644314Y266923D01*
X643443Y266341D01*
X642535Y265817D01*
X641596Y265354D01*
X640628Y264953D01*
X639636Y264616D01*
X638624Y264345D01*
X637596Y264140D01*
X636557Y264004D01*
X635512Y263935D01*
X634464Y263935D01*
X633419Y264004D01*
X632380Y264140D01*
X631352Y264345D01*
X630340Y264616D01*
X629348Y264953D01*
X628380Y265354D01*
X627441Y265817D01*
X626533Y266341D01*
X625662Y266923D01*
X624831Y267561D01*
X624043Y268251D01*
X623302Y268992D01*
X622612Y269780D01*
X621974Y270611D01*
X621392Y271482D01*
X620868Y272390D01*
X620405Y273329D01*
X620004Y274297D01*
X619667Y275289D01*
X619396Y276301D01*
X619191Y277329D01*
X619055Y278368D01*
X618986Y279413D01*
X618986Y280461D01*
X619055Y281506D01*
X619191Y282545D01*
X619396Y283573D01*
X619667Y284585D01*
X620004Y285577D01*
X620405Y286545D01*
X620868Y287484D01*
X621392Y288392D01*
X621974Y289263D01*
X622612Y290094D01*
X623302Y290882D01*
X624043Y291623D01*
X624831Y292313D01*
X625662Y292951D01*
X626533Y293533D01*
X627441Y294057D01*
X628380Y294520D01*
X629348Y294921D01*
X630340Y295258D01*
X631352Y295529D01*
X632380Y295734D01*
X633419Y295870D01*
X634464Y295939D01*
X635512Y295939D01*
X438650Y44007D02*
X438594Y43585D01*
X438484Y43173D01*
X438321Y42779D01*
X438108Y42411D01*
X437849Y42073D01*
X437547Y41771D01*
X437209Y41512D01*
X436841Y41299D01*
X436447Y41136D01*
X436035Y41026D01*
X435613Y40970D01*
X435187Y40970D01*
X434765Y41026D01*
X434353Y41136D01*
X433959Y41299D01*
X433591Y41512D01*
X433253Y41771D01*
X432951Y42073D01*
X432692Y42411D01*
X432479Y42779D01*
X432316Y43173D01*
X432206Y43585D01*
X432150Y44007D01*
X432150Y44433D01*
X432206Y44855D01*
X432316Y45267D01*
X432479Y45661D01*
X432692Y46029D01*
X432951Y46367D01*
X433253Y46669D01*
X433591Y46928D01*
X433959Y47141D01*
X434353Y47304D01*
X434765Y47414D01*
X435187Y47470D01*
X435613Y47470D01*
X436035Y47414D01*
X436447Y47304D01*
X436841Y47141D01*
X437209Y46928D01*
X437547Y46669D01*
X437849Y46367D01*
X438108Y46029D01*
X438321Y45661D01*
X438484Y45267D01*
X438594Y44855D01*
X438650Y44433D01*
X438650Y44007D01*
X496450Y44007D02*
X496394Y43585D01*
X496284Y43173D01*
X496121Y42779D01*
X495908Y42411D01*
X495649Y42073D01*
X495347Y41771D01*
X495009Y41512D01*
X494641Y41299D01*
X494247Y41136D01*
X493835Y41026D01*
X493413Y40970D01*
X492987Y40970D01*
X492565Y41026D01*
X492153Y41136D01*
X491759Y41299D01*
X491391Y41512D01*
X491053Y41771D01*
X490751Y42073D01*
X490492Y42411D01*
X490279Y42779D01*
X490116Y43173D01*
X490006Y43585D01*
X489950Y44007D01*
X489950Y44433D01*
X490006Y44855D01*
X490116Y45267D01*
X490279Y45661D01*
X490492Y46029D01*
X490751Y46367D01*
X491053Y46669D01*
X491391Y46928D01*
X491759Y47141D01*
X492153Y47304D01*
X492565Y47414D01*
X492987Y47470D01*
X493413Y47470D01*
X493835Y47414D01*
X494247Y47304D01*
X494641Y47141D01*
X495009Y46928D01*
X495347Y46669D01*
X495649Y46367D01*
X495908Y46029D01*
X496121Y45661D01*
X496284Y45267D01*
X496394Y44855D01*
X496450Y44433D01*
X496450Y44007D01*
M02*
