G04 EAGLE Gerber RS-274X export*
G75*
%MOMM*%
%FSLAX34Y34*%
%LPD*%
%IN*%
%IPPOS*%
%AMOC8*
5,1,8,0,0,1.08239X$1,22.5*%
G01*
%ADD10C,0.254000*%
%ADD11C,0.152400*%
%ADD12C,0.000000*%
%ADD13C,0.600000*%
%ADD14C,0.076200*%
%ADD15C,0.203200*%


D10*
X12700Y635000D02*
X165100Y635000D01*
X165100Y406400D01*
X12700Y406400D01*
X12700Y635000D01*
X368300Y635000D02*
X520700Y635000D01*
X520700Y406400D01*
X368300Y406400D01*
X368300Y635000D01*
D11*
X67833Y532645D02*
X67833Y524002D01*
X67833Y532645D02*
X72155Y532645D01*
X73595Y531205D01*
X73595Y528324D01*
X72155Y526883D01*
X67833Y526883D01*
X70714Y526883D02*
X73595Y524002D01*
X78629Y524002D02*
X81510Y524002D01*
X82951Y525443D01*
X82951Y528324D01*
X81510Y529764D01*
X78629Y529764D01*
X77188Y528324D01*
X77188Y525443D01*
X78629Y524002D01*
X86544Y525443D02*
X86544Y529764D01*
X86544Y525443D02*
X87984Y524002D01*
X92306Y524002D01*
X92306Y529764D01*
X97339Y531205D02*
X97339Y525443D01*
X98780Y524002D01*
X98780Y529764D02*
X95899Y529764D01*
X103576Y524002D02*
X106457Y524002D01*
X103576Y524002D02*
X102136Y525443D01*
X102136Y528324D01*
X103576Y529764D01*
X106457Y529764D01*
X107898Y528324D01*
X107898Y526883D01*
X102136Y526883D01*
X81510Y517405D02*
X78629Y517405D01*
X77188Y515965D01*
X77188Y510203D01*
X78629Y508762D01*
X81510Y508762D01*
X82951Y510203D01*
X82951Y515965D01*
X81510Y517405D01*
X86544Y514524D02*
X86544Y510203D01*
X87984Y508762D01*
X92306Y508762D01*
X92306Y514524D01*
X97339Y515965D02*
X97339Y510203D01*
X98780Y508762D01*
X98780Y514524D02*
X95899Y514524D01*
X423433Y524002D02*
X423433Y532645D01*
X427755Y532645D01*
X429195Y531205D01*
X429195Y528324D01*
X427755Y526883D01*
X423433Y526883D01*
X426314Y526883D02*
X429195Y524002D01*
X434229Y524002D02*
X437110Y524002D01*
X438551Y525443D01*
X438551Y528324D01*
X437110Y529764D01*
X434229Y529764D01*
X432788Y528324D01*
X432788Y525443D01*
X434229Y524002D01*
X442144Y525443D02*
X442144Y529764D01*
X442144Y525443D02*
X443584Y524002D01*
X447906Y524002D01*
X447906Y529764D01*
X452939Y531205D02*
X452939Y525443D01*
X454380Y524002D01*
X454380Y529764D02*
X451499Y529764D01*
X459176Y524002D02*
X462057Y524002D01*
X459176Y524002D02*
X457736Y525443D01*
X457736Y528324D01*
X459176Y529764D01*
X462057Y529764D01*
X463498Y528324D01*
X463498Y526883D01*
X457736Y526883D01*
X437110Y517405D02*
X434229Y517405D01*
X432788Y515965D01*
X432788Y510203D01*
X434229Y508762D01*
X437110Y508762D01*
X438551Y510203D01*
X438551Y515965D01*
X437110Y517405D01*
X442144Y514524D02*
X442144Y510203D01*
X443584Y508762D01*
X447906Y508762D01*
X447906Y514524D01*
X452939Y515965D02*
X452939Y510203D01*
X454380Y508762D01*
X454380Y514524D02*
X451499Y514524D01*
D12*
X234550Y46510D02*
X234552Y46623D01*
X234558Y46737D01*
X234568Y46850D01*
X234582Y46962D01*
X234599Y47074D01*
X234621Y47186D01*
X234647Y47296D01*
X234676Y47406D01*
X234709Y47514D01*
X234746Y47622D01*
X234787Y47727D01*
X234831Y47832D01*
X234879Y47935D01*
X234930Y48036D01*
X234985Y48135D01*
X235044Y48232D01*
X235106Y48327D01*
X235171Y48420D01*
X235239Y48511D01*
X235310Y48599D01*
X235385Y48685D01*
X235462Y48768D01*
X235542Y48848D01*
X235625Y48925D01*
X235711Y49000D01*
X235799Y49071D01*
X235890Y49139D01*
X235983Y49204D01*
X236078Y49266D01*
X236175Y49325D01*
X236274Y49380D01*
X236375Y49431D01*
X236478Y49479D01*
X236583Y49523D01*
X236688Y49564D01*
X236796Y49601D01*
X236904Y49634D01*
X237014Y49663D01*
X237124Y49689D01*
X237236Y49711D01*
X237348Y49728D01*
X237460Y49742D01*
X237573Y49752D01*
X237687Y49758D01*
X237800Y49760D01*
X237913Y49758D01*
X238027Y49752D01*
X238140Y49742D01*
X238252Y49728D01*
X238364Y49711D01*
X238476Y49689D01*
X238586Y49663D01*
X238696Y49634D01*
X238804Y49601D01*
X238912Y49564D01*
X239017Y49523D01*
X239122Y49479D01*
X239225Y49431D01*
X239326Y49380D01*
X239425Y49325D01*
X239522Y49266D01*
X239617Y49204D01*
X239710Y49139D01*
X239801Y49071D01*
X239889Y49000D01*
X239975Y48925D01*
X240058Y48848D01*
X240138Y48768D01*
X240215Y48685D01*
X240290Y48599D01*
X240361Y48511D01*
X240429Y48420D01*
X240494Y48327D01*
X240556Y48232D01*
X240615Y48135D01*
X240670Y48036D01*
X240721Y47935D01*
X240769Y47832D01*
X240813Y47727D01*
X240854Y47622D01*
X240891Y47514D01*
X240924Y47406D01*
X240953Y47296D01*
X240979Y47186D01*
X241001Y47074D01*
X241018Y46962D01*
X241032Y46850D01*
X241042Y46737D01*
X241048Y46623D01*
X241050Y46510D01*
X241048Y46397D01*
X241042Y46283D01*
X241032Y46170D01*
X241018Y46058D01*
X241001Y45946D01*
X240979Y45834D01*
X240953Y45724D01*
X240924Y45614D01*
X240891Y45506D01*
X240854Y45398D01*
X240813Y45293D01*
X240769Y45188D01*
X240721Y45085D01*
X240670Y44984D01*
X240615Y44885D01*
X240556Y44788D01*
X240494Y44693D01*
X240429Y44600D01*
X240361Y44509D01*
X240290Y44421D01*
X240215Y44335D01*
X240138Y44252D01*
X240058Y44172D01*
X239975Y44095D01*
X239889Y44020D01*
X239801Y43949D01*
X239710Y43881D01*
X239617Y43816D01*
X239522Y43754D01*
X239425Y43695D01*
X239326Y43640D01*
X239225Y43589D01*
X239122Y43541D01*
X239017Y43497D01*
X238912Y43456D01*
X238804Y43419D01*
X238696Y43386D01*
X238586Y43357D01*
X238476Y43331D01*
X238364Y43309D01*
X238252Y43292D01*
X238140Y43278D01*
X238027Y43268D01*
X237913Y43262D01*
X237800Y43260D01*
X237687Y43262D01*
X237573Y43268D01*
X237460Y43278D01*
X237348Y43292D01*
X237236Y43309D01*
X237124Y43331D01*
X237014Y43357D01*
X236904Y43386D01*
X236796Y43419D01*
X236688Y43456D01*
X236583Y43497D01*
X236478Y43541D01*
X236375Y43589D01*
X236274Y43640D01*
X236175Y43695D01*
X236078Y43754D01*
X235983Y43816D01*
X235890Y43881D01*
X235799Y43949D01*
X235711Y44020D01*
X235625Y44095D01*
X235542Y44172D01*
X235462Y44252D01*
X235385Y44335D01*
X235310Y44421D01*
X235239Y44509D01*
X235171Y44600D01*
X235106Y44693D01*
X235044Y44788D01*
X234985Y44885D01*
X234930Y44984D01*
X234879Y45085D01*
X234831Y45188D01*
X234787Y45293D01*
X234746Y45398D01*
X234709Y45506D01*
X234676Y45614D01*
X234647Y45724D01*
X234621Y45834D01*
X234599Y45946D01*
X234582Y46058D01*
X234568Y46170D01*
X234558Y46283D01*
X234552Y46397D01*
X234550Y46510D01*
X292350Y46510D02*
X292352Y46623D01*
X292358Y46737D01*
X292368Y46850D01*
X292382Y46962D01*
X292399Y47074D01*
X292421Y47186D01*
X292447Y47296D01*
X292476Y47406D01*
X292509Y47514D01*
X292546Y47622D01*
X292587Y47727D01*
X292631Y47832D01*
X292679Y47935D01*
X292730Y48036D01*
X292785Y48135D01*
X292844Y48232D01*
X292906Y48327D01*
X292971Y48420D01*
X293039Y48511D01*
X293110Y48599D01*
X293185Y48685D01*
X293262Y48768D01*
X293342Y48848D01*
X293425Y48925D01*
X293511Y49000D01*
X293599Y49071D01*
X293690Y49139D01*
X293783Y49204D01*
X293878Y49266D01*
X293975Y49325D01*
X294074Y49380D01*
X294175Y49431D01*
X294278Y49479D01*
X294383Y49523D01*
X294488Y49564D01*
X294596Y49601D01*
X294704Y49634D01*
X294814Y49663D01*
X294924Y49689D01*
X295036Y49711D01*
X295148Y49728D01*
X295260Y49742D01*
X295373Y49752D01*
X295487Y49758D01*
X295600Y49760D01*
X295713Y49758D01*
X295827Y49752D01*
X295940Y49742D01*
X296052Y49728D01*
X296164Y49711D01*
X296276Y49689D01*
X296386Y49663D01*
X296496Y49634D01*
X296604Y49601D01*
X296712Y49564D01*
X296817Y49523D01*
X296922Y49479D01*
X297025Y49431D01*
X297126Y49380D01*
X297225Y49325D01*
X297322Y49266D01*
X297417Y49204D01*
X297510Y49139D01*
X297601Y49071D01*
X297689Y49000D01*
X297775Y48925D01*
X297858Y48848D01*
X297938Y48768D01*
X298015Y48685D01*
X298090Y48599D01*
X298161Y48511D01*
X298229Y48420D01*
X298294Y48327D01*
X298356Y48232D01*
X298415Y48135D01*
X298470Y48036D01*
X298521Y47935D01*
X298569Y47832D01*
X298613Y47727D01*
X298654Y47622D01*
X298691Y47514D01*
X298724Y47406D01*
X298753Y47296D01*
X298779Y47186D01*
X298801Y47074D01*
X298818Y46962D01*
X298832Y46850D01*
X298842Y46737D01*
X298848Y46623D01*
X298850Y46510D01*
X298848Y46397D01*
X298842Y46283D01*
X298832Y46170D01*
X298818Y46058D01*
X298801Y45946D01*
X298779Y45834D01*
X298753Y45724D01*
X298724Y45614D01*
X298691Y45506D01*
X298654Y45398D01*
X298613Y45293D01*
X298569Y45188D01*
X298521Y45085D01*
X298470Y44984D01*
X298415Y44885D01*
X298356Y44788D01*
X298294Y44693D01*
X298229Y44600D01*
X298161Y44509D01*
X298090Y44421D01*
X298015Y44335D01*
X297938Y44252D01*
X297858Y44172D01*
X297775Y44095D01*
X297689Y44020D01*
X297601Y43949D01*
X297510Y43881D01*
X297417Y43816D01*
X297322Y43754D01*
X297225Y43695D01*
X297126Y43640D01*
X297025Y43589D01*
X296922Y43541D01*
X296817Y43497D01*
X296712Y43456D01*
X296604Y43419D01*
X296496Y43386D01*
X296386Y43357D01*
X296276Y43331D01*
X296164Y43309D01*
X296052Y43292D01*
X295940Y43278D01*
X295827Y43268D01*
X295713Y43262D01*
X295600Y43260D01*
X295487Y43262D01*
X295373Y43268D01*
X295260Y43278D01*
X295148Y43292D01*
X295036Y43309D01*
X294924Y43331D01*
X294814Y43357D01*
X294704Y43386D01*
X294596Y43419D01*
X294488Y43456D01*
X294383Y43497D01*
X294278Y43541D01*
X294175Y43589D01*
X294074Y43640D01*
X293975Y43695D01*
X293878Y43754D01*
X293783Y43816D01*
X293690Y43881D01*
X293599Y43949D01*
X293511Y44020D01*
X293425Y44095D01*
X293342Y44172D01*
X293262Y44252D01*
X293185Y44335D01*
X293110Y44421D01*
X293039Y44509D01*
X292971Y44600D01*
X292906Y44693D01*
X292844Y44788D01*
X292785Y44885D01*
X292730Y44984D01*
X292679Y45085D01*
X292631Y45188D01*
X292587Y45293D01*
X292546Y45398D01*
X292509Y45506D01*
X292476Y45614D01*
X292447Y45724D01*
X292421Y45834D01*
X292399Y45946D01*
X292382Y46058D01*
X292368Y46170D01*
X292358Y46283D01*
X292352Y46397D01*
X292350Y46510D01*
D13*
X223520Y46310D02*
X223520Y57310D01*
X309880Y57310D02*
X309880Y46310D01*
X223520Y13160D02*
X223520Y6960D01*
X309880Y6960D02*
X309880Y13160D01*
D11*
X194250Y0D02*
X194250Y70000D01*
X123250Y70000D01*
X123250Y0D01*
D14*
X148389Y31631D02*
X148389Y35873D01*
X150509Y35873D01*
X151216Y35166D01*
X151216Y33752D01*
X150509Y33045D01*
X148389Y33045D01*
X149802Y33045D02*
X151216Y31631D01*
X153699Y31631D02*
X155113Y31631D01*
X155820Y32338D01*
X155820Y33752D01*
X155113Y34459D01*
X153699Y34459D01*
X152992Y33752D01*
X152992Y32338D01*
X153699Y31631D01*
X157596Y32338D02*
X157596Y34459D01*
X157596Y32338D02*
X158303Y31631D01*
X160424Y31631D01*
X160424Y34459D01*
X162907Y35166D02*
X162907Y32338D01*
X163614Y31631D01*
X163614Y34459D02*
X162200Y34459D01*
X165976Y31631D02*
X167390Y31631D01*
X165976Y31631D02*
X165270Y32338D01*
X165270Y33752D01*
X165976Y34459D01*
X167390Y34459D01*
X168097Y33752D01*
X168097Y33045D01*
X165270Y33045D01*
X155113Y28373D02*
X153699Y28373D01*
X152992Y27666D01*
X152992Y24838D01*
X153699Y24131D01*
X155113Y24131D01*
X155820Y24838D01*
X155820Y27666D01*
X155113Y28373D01*
X157596Y26959D02*
X157596Y24838D01*
X158303Y24131D01*
X160424Y24131D01*
X160424Y26959D01*
X162907Y27666D02*
X162907Y24838D01*
X163614Y24131D01*
X163614Y26959D02*
X162200Y26959D01*
D15*
X-37592Y-2050D02*
X570992Y-2050D01*
X494792Y1089350D02*
X38608Y1089350D01*
D12*
X-34290Y270637D02*
X-34285Y271030D01*
X-34271Y271422D01*
X-34247Y271814D01*
X-34213Y272205D01*
X-34170Y272596D01*
X-34117Y272985D01*
X-34054Y273373D01*
X-33983Y273759D01*
X-33901Y274143D01*
X-33810Y274525D01*
X-33710Y274905D01*
X-33601Y275282D01*
X-33482Y275657D01*
X-33355Y276028D01*
X-33218Y276396D01*
X-33072Y276761D01*
X-32917Y277122D01*
X-32754Y277479D01*
X-32581Y277832D01*
X-32401Y278180D01*
X-32211Y278524D01*
X-32013Y278864D01*
X-31807Y279198D01*
X-31593Y279527D01*
X-31371Y279851D01*
X-31141Y280169D01*
X-30903Y280482D01*
X-30658Y280789D01*
X-30405Y281089D01*
X-30145Y281383D01*
X-29877Y281671D01*
X-29603Y281952D01*
X-29322Y282226D01*
X-29034Y282494D01*
X-28740Y282754D01*
X-28440Y283007D01*
X-28133Y283252D01*
X-27820Y283490D01*
X-27502Y283720D01*
X-27178Y283942D01*
X-26849Y284156D01*
X-26515Y284362D01*
X-26175Y284560D01*
X-25831Y284750D01*
X-25483Y284930D01*
X-25130Y285103D01*
X-24773Y285266D01*
X-24412Y285421D01*
X-24047Y285567D01*
X-23679Y285704D01*
X-23308Y285831D01*
X-22933Y285950D01*
X-22556Y286059D01*
X-22176Y286159D01*
X-21794Y286250D01*
X-21410Y286332D01*
X-21024Y286403D01*
X-20636Y286466D01*
X-20247Y286519D01*
X-19856Y286562D01*
X-19465Y286596D01*
X-19073Y286620D01*
X-18681Y286634D01*
X-18288Y286639D01*
X-17895Y286634D01*
X-17503Y286620D01*
X-17111Y286596D01*
X-16720Y286562D01*
X-16329Y286519D01*
X-15940Y286466D01*
X-15552Y286403D01*
X-15166Y286332D01*
X-14782Y286250D01*
X-14400Y286159D01*
X-14020Y286059D01*
X-13643Y285950D01*
X-13268Y285831D01*
X-12897Y285704D01*
X-12529Y285567D01*
X-12164Y285421D01*
X-11803Y285266D01*
X-11446Y285103D01*
X-11093Y284930D01*
X-10745Y284750D01*
X-10401Y284560D01*
X-10061Y284362D01*
X-9727Y284156D01*
X-9398Y283942D01*
X-9074Y283720D01*
X-8756Y283490D01*
X-8443Y283252D01*
X-8136Y283007D01*
X-7836Y282754D01*
X-7542Y282494D01*
X-7254Y282226D01*
X-6973Y281952D01*
X-6699Y281671D01*
X-6431Y281383D01*
X-6171Y281089D01*
X-5918Y280789D01*
X-5673Y280482D01*
X-5435Y280169D01*
X-5205Y279851D01*
X-4983Y279527D01*
X-4769Y279198D01*
X-4563Y278864D01*
X-4365Y278524D01*
X-4175Y278180D01*
X-3995Y277832D01*
X-3822Y277479D01*
X-3659Y277122D01*
X-3504Y276761D01*
X-3358Y276396D01*
X-3221Y276028D01*
X-3094Y275657D01*
X-2975Y275282D01*
X-2866Y274905D01*
X-2766Y274525D01*
X-2675Y274143D01*
X-2593Y273759D01*
X-2522Y273373D01*
X-2459Y272985D01*
X-2406Y272596D01*
X-2363Y272205D01*
X-2329Y271814D01*
X-2305Y271422D01*
X-2291Y271030D01*
X-2286Y270637D01*
X-2291Y270244D01*
X-2305Y269852D01*
X-2329Y269460D01*
X-2363Y269069D01*
X-2406Y268678D01*
X-2459Y268289D01*
X-2522Y267901D01*
X-2593Y267515D01*
X-2675Y267131D01*
X-2766Y266749D01*
X-2866Y266369D01*
X-2975Y265992D01*
X-3094Y265617D01*
X-3221Y265246D01*
X-3358Y264878D01*
X-3504Y264513D01*
X-3659Y264152D01*
X-3822Y263795D01*
X-3995Y263442D01*
X-4175Y263094D01*
X-4365Y262750D01*
X-4563Y262410D01*
X-4769Y262076D01*
X-4983Y261747D01*
X-5205Y261423D01*
X-5435Y261105D01*
X-5673Y260792D01*
X-5918Y260485D01*
X-6171Y260185D01*
X-6431Y259891D01*
X-6699Y259603D01*
X-6973Y259322D01*
X-7254Y259048D01*
X-7542Y258780D01*
X-7836Y258520D01*
X-8136Y258267D01*
X-8443Y258022D01*
X-8756Y257784D01*
X-9074Y257554D01*
X-9398Y257332D01*
X-9727Y257118D01*
X-10061Y256912D01*
X-10401Y256714D01*
X-10745Y256524D01*
X-11093Y256344D01*
X-11446Y256171D01*
X-11803Y256008D01*
X-12164Y255853D01*
X-12529Y255707D01*
X-12897Y255570D01*
X-13268Y255443D01*
X-13643Y255324D01*
X-14020Y255215D01*
X-14400Y255115D01*
X-14782Y255024D01*
X-15166Y254942D01*
X-15552Y254871D01*
X-15940Y254808D01*
X-16329Y254755D01*
X-16720Y254712D01*
X-17111Y254678D01*
X-17503Y254654D01*
X-17895Y254640D01*
X-18288Y254635D01*
X-18681Y254640D01*
X-19073Y254654D01*
X-19465Y254678D01*
X-19856Y254712D01*
X-20247Y254755D01*
X-20636Y254808D01*
X-21024Y254871D01*
X-21410Y254942D01*
X-21794Y255024D01*
X-22176Y255115D01*
X-22556Y255215D01*
X-22933Y255324D01*
X-23308Y255443D01*
X-23679Y255570D01*
X-24047Y255707D01*
X-24412Y255853D01*
X-24773Y256008D01*
X-25130Y256171D01*
X-25483Y256344D01*
X-25831Y256524D01*
X-26175Y256714D01*
X-26515Y256912D01*
X-26849Y257118D01*
X-27178Y257332D01*
X-27502Y257554D01*
X-27820Y257784D01*
X-28133Y258022D01*
X-28440Y258267D01*
X-28740Y258520D01*
X-29034Y258780D01*
X-29322Y259048D01*
X-29603Y259322D01*
X-29877Y259603D01*
X-30145Y259891D01*
X-30405Y260185D01*
X-30658Y260485D01*
X-30903Y260792D01*
X-31141Y261105D01*
X-31371Y261423D01*
X-31593Y261747D01*
X-31807Y262076D01*
X-32013Y262410D01*
X-32211Y262750D01*
X-32401Y263094D01*
X-32581Y263442D01*
X-32754Y263795D01*
X-32917Y264152D01*
X-33072Y264513D01*
X-33218Y264878D01*
X-33355Y265246D01*
X-33482Y265617D01*
X-33601Y265992D01*
X-33710Y266369D01*
X-33810Y266749D01*
X-33901Y267131D01*
X-33983Y267515D01*
X-34054Y267901D01*
X-34117Y268289D01*
X-34170Y268678D01*
X-34213Y269069D01*
X-34247Y269460D01*
X-34271Y269852D01*
X-34285Y270244D01*
X-34290Y270637D01*
X-34290Y770763D02*
X-34285Y771156D01*
X-34271Y771548D01*
X-34247Y771940D01*
X-34213Y772331D01*
X-34170Y772722D01*
X-34117Y773111D01*
X-34054Y773499D01*
X-33983Y773885D01*
X-33901Y774269D01*
X-33810Y774651D01*
X-33710Y775031D01*
X-33601Y775408D01*
X-33482Y775783D01*
X-33355Y776154D01*
X-33218Y776522D01*
X-33072Y776887D01*
X-32917Y777248D01*
X-32754Y777605D01*
X-32581Y777958D01*
X-32401Y778306D01*
X-32211Y778650D01*
X-32013Y778990D01*
X-31807Y779324D01*
X-31593Y779653D01*
X-31371Y779977D01*
X-31141Y780295D01*
X-30903Y780608D01*
X-30658Y780915D01*
X-30405Y781215D01*
X-30145Y781509D01*
X-29877Y781797D01*
X-29603Y782078D01*
X-29322Y782352D01*
X-29034Y782620D01*
X-28740Y782880D01*
X-28440Y783133D01*
X-28133Y783378D01*
X-27820Y783616D01*
X-27502Y783846D01*
X-27178Y784068D01*
X-26849Y784282D01*
X-26515Y784488D01*
X-26175Y784686D01*
X-25831Y784876D01*
X-25483Y785056D01*
X-25130Y785229D01*
X-24773Y785392D01*
X-24412Y785547D01*
X-24047Y785693D01*
X-23679Y785830D01*
X-23308Y785957D01*
X-22933Y786076D01*
X-22556Y786185D01*
X-22176Y786285D01*
X-21794Y786376D01*
X-21410Y786458D01*
X-21024Y786529D01*
X-20636Y786592D01*
X-20247Y786645D01*
X-19856Y786688D01*
X-19465Y786722D01*
X-19073Y786746D01*
X-18681Y786760D01*
X-18288Y786765D01*
X-17895Y786760D01*
X-17503Y786746D01*
X-17111Y786722D01*
X-16720Y786688D01*
X-16329Y786645D01*
X-15940Y786592D01*
X-15552Y786529D01*
X-15166Y786458D01*
X-14782Y786376D01*
X-14400Y786285D01*
X-14020Y786185D01*
X-13643Y786076D01*
X-13268Y785957D01*
X-12897Y785830D01*
X-12529Y785693D01*
X-12164Y785547D01*
X-11803Y785392D01*
X-11446Y785229D01*
X-11093Y785056D01*
X-10745Y784876D01*
X-10401Y784686D01*
X-10061Y784488D01*
X-9727Y784282D01*
X-9398Y784068D01*
X-9074Y783846D01*
X-8756Y783616D01*
X-8443Y783378D01*
X-8136Y783133D01*
X-7836Y782880D01*
X-7542Y782620D01*
X-7254Y782352D01*
X-6973Y782078D01*
X-6699Y781797D01*
X-6431Y781509D01*
X-6171Y781215D01*
X-5918Y780915D01*
X-5673Y780608D01*
X-5435Y780295D01*
X-5205Y779977D01*
X-4983Y779653D01*
X-4769Y779324D01*
X-4563Y778990D01*
X-4365Y778650D01*
X-4175Y778306D01*
X-3995Y777958D01*
X-3822Y777605D01*
X-3659Y777248D01*
X-3504Y776887D01*
X-3358Y776522D01*
X-3221Y776154D01*
X-3094Y775783D01*
X-2975Y775408D01*
X-2866Y775031D01*
X-2766Y774651D01*
X-2675Y774269D01*
X-2593Y773885D01*
X-2522Y773499D01*
X-2459Y773111D01*
X-2406Y772722D01*
X-2363Y772331D01*
X-2329Y771940D01*
X-2305Y771548D01*
X-2291Y771156D01*
X-2286Y770763D01*
X-2291Y770370D01*
X-2305Y769978D01*
X-2329Y769586D01*
X-2363Y769195D01*
X-2406Y768804D01*
X-2459Y768415D01*
X-2522Y768027D01*
X-2593Y767641D01*
X-2675Y767257D01*
X-2766Y766875D01*
X-2866Y766495D01*
X-2975Y766118D01*
X-3094Y765743D01*
X-3221Y765372D01*
X-3358Y765004D01*
X-3504Y764639D01*
X-3659Y764278D01*
X-3822Y763921D01*
X-3995Y763568D01*
X-4175Y763220D01*
X-4365Y762876D01*
X-4563Y762536D01*
X-4769Y762202D01*
X-4983Y761873D01*
X-5205Y761549D01*
X-5435Y761231D01*
X-5673Y760918D01*
X-5918Y760611D01*
X-6171Y760311D01*
X-6431Y760017D01*
X-6699Y759729D01*
X-6973Y759448D01*
X-7254Y759174D01*
X-7542Y758906D01*
X-7836Y758646D01*
X-8136Y758393D01*
X-8443Y758148D01*
X-8756Y757910D01*
X-9074Y757680D01*
X-9398Y757458D01*
X-9727Y757244D01*
X-10061Y757038D01*
X-10401Y756840D01*
X-10745Y756650D01*
X-11093Y756470D01*
X-11446Y756297D01*
X-11803Y756134D01*
X-12164Y755979D01*
X-12529Y755833D01*
X-12897Y755696D01*
X-13268Y755569D01*
X-13643Y755450D01*
X-14020Y755341D01*
X-14400Y755241D01*
X-14782Y755150D01*
X-15166Y755068D01*
X-15552Y754997D01*
X-15940Y754934D01*
X-16329Y754881D01*
X-16720Y754838D01*
X-17111Y754804D01*
X-17503Y754780D01*
X-17895Y754766D01*
X-18288Y754761D01*
X-18681Y754766D01*
X-19073Y754780D01*
X-19465Y754804D01*
X-19856Y754838D01*
X-20247Y754881D01*
X-20636Y754934D01*
X-21024Y754997D01*
X-21410Y755068D01*
X-21794Y755150D01*
X-22176Y755241D01*
X-22556Y755341D01*
X-22933Y755450D01*
X-23308Y755569D01*
X-23679Y755696D01*
X-24047Y755833D01*
X-24412Y755979D01*
X-24773Y756134D01*
X-25130Y756297D01*
X-25483Y756470D01*
X-25831Y756650D01*
X-26175Y756840D01*
X-26515Y757038D01*
X-26849Y757244D01*
X-27178Y757458D01*
X-27502Y757680D01*
X-27820Y757910D01*
X-28133Y758148D01*
X-28440Y758393D01*
X-28740Y758646D01*
X-29034Y758906D01*
X-29322Y759174D01*
X-29603Y759448D01*
X-29877Y759729D01*
X-30145Y760017D01*
X-30405Y760311D01*
X-30658Y760611D01*
X-30903Y760918D01*
X-31141Y761231D01*
X-31371Y761549D01*
X-31593Y761873D01*
X-31807Y762202D01*
X-32013Y762536D01*
X-32211Y762876D01*
X-32401Y763220D01*
X-32581Y763568D01*
X-32754Y763921D01*
X-32917Y764278D01*
X-33072Y764639D01*
X-33218Y765004D01*
X-33355Y765372D01*
X-33482Y765743D01*
X-33601Y766118D01*
X-33710Y766495D01*
X-33810Y766875D01*
X-33901Y767257D01*
X-33983Y767641D01*
X-34054Y768027D01*
X-34117Y768415D01*
X-34170Y768804D01*
X-34213Y769195D01*
X-34247Y769586D01*
X-34271Y769978D01*
X-34285Y770370D01*
X-34290Y770763D01*
X535686Y770763D02*
X535691Y771156D01*
X535705Y771548D01*
X535729Y771940D01*
X535763Y772331D01*
X535806Y772722D01*
X535859Y773111D01*
X535922Y773499D01*
X535993Y773885D01*
X536075Y774269D01*
X536166Y774651D01*
X536266Y775031D01*
X536375Y775408D01*
X536494Y775783D01*
X536621Y776154D01*
X536758Y776522D01*
X536904Y776887D01*
X537059Y777248D01*
X537222Y777605D01*
X537395Y777958D01*
X537575Y778306D01*
X537765Y778650D01*
X537963Y778990D01*
X538169Y779324D01*
X538383Y779653D01*
X538605Y779977D01*
X538835Y780295D01*
X539073Y780608D01*
X539318Y780915D01*
X539571Y781215D01*
X539831Y781509D01*
X540099Y781797D01*
X540373Y782078D01*
X540654Y782352D01*
X540942Y782620D01*
X541236Y782880D01*
X541536Y783133D01*
X541843Y783378D01*
X542156Y783616D01*
X542474Y783846D01*
X542798Y784068D01*
X543127Y784282D01*
X543461Y784488D01*
X543801Y784686D01*
X544145Y784876D01*
X544493Y785056D01*
X544846Y785229D01*
X545203Y785392D01*
X545564Y785547D01*
X545929Y785693D01*
X546297Y785830D01*
X546668Y785957D01*
X547043Y786076D01*
X547420Y786185D01*
X547800Y786285D01*
X548182Y786376D01*
X548566Y786458D01*
X548952Y786529D01*
X549340Y786592D01*
X549729Y786645D01*
X550120Y786688D01*
X550511Y786722D01*
X550903Y786746D01*
X551295Y786760D01*
X551688Y786765D01*
X552081Y786760D01*
X552473Y786746D01*
X552865Y786722D01*
X553256Y786688D01*
X553647Y786645D01*
X554036Y786592D01*
X554424Y786529D01*
X554810Y786458D01*
X555194Y786376D01*
X555576Y786285D01*
X555956Y786185D01*
X556333Y786076D01*
X556708Y785957D01*
X557079Y785830D01*
X557447Y785693D01*
X557812Y785547D01*
X558173Y785392D01*
X558530Y785229D01*
X558883Y785056D01*
X559231Y784876D01*
X559575Y784686D01*
X559915Y784488D01*
X560249Y784282D01*
X560578Y784068D01*
X560902Y783846D01*
X561220Y783616D01*
X561533Y783378D01*
X561840Y783133D01*
X562140Y782880D01*
X562434Y782620D01*
X562722Y782352D01*
X563003Y782078D01*
X563277Y781797D01*
X563545Y781509D01*
X563805Y781215D01*
X564058Y780915D01*
X564303Y780608D01*
X564541Y780295D01*
X564771Y779977D01*
X564993Y779653D01*
X565207Y779324D01*
X565413Y778990D01*
X565611Y778650D01*
X565801Y778306D01*
X565981Y777958D01*
X566154Y777605D01*
X566317Y777248D01*
X566472Y776887D01*
X566618Y776522D01*
X566755Y776154D01*
X566882Y775783D01*
X567001Y775408D01*
X567110Y775031D01*
X567210Y774651D01*
X567301Y774269D01*
X567383Y773885D01*
X567454Y773499D01*
X567517Y773111D01*
X567570Y772722D01*
X567613Y772331D01*
X567647Y771940D01*
X567671Y771548D01*
X567685Y771156D01*
X567690Y770763D01*
X567685Y770370D01*
X567671Y769978D01*
X567647Y769586D01*
X567613Y769195D01*
X567570Y768804D01*
X567517Y768415D01*
X567454Y768027D01*
X567383Y767641D01*
X567301Y767257D01*
X567210Y766875D01*
X567110Y766495D01*
X567001Y766118D01*
X566882Y765743D01*
X566755Y765372D01*
X566618Y765004D01*
X566472Y764639D01*
X566317Y764278D01*
X566154Y763921D01*
X565981Y763568D01*
X565801Y763220D01*
X565611Y762876D01*
X565413Y762536D01*
X565207Y762202D01*
X564993Y761873D01*
X564771Y761549D01*
X564541Y761231D01*
X564303Y760918D01*
X564058Y760611D01*
X563805Y760311D01*
X563545Y760017D01*
X563277Y759729D01*
X563003Y759448D01*
X562722Y759174D01*
X562434Y758906D01*
X562140Y758646D01*
X561840Y758393D01*
X561533Y758148D01*
X561220Y757910D01*
X560902Y757680D01*
X560578Y757458D01*
X560249Y757244D01*
X559915Y757038D01*
X559575Y756840D01*
X559231Y756650D01*
X558883Y756470D01*
X558530Y756297D01*
X558173Y756134D01*
X557812Y755979D01*
X557447Y755833D01*
X557079Y755696D01*
X556708Y755569D01*
X556333Y755450D01*
X555956Y755341D01*
X555576Y755241D01*
X555194Y755150D01*
X554810Y755068D01*
X554424Y754997D01*
X554036Y754934D01*
X553647Y754881D01*
X553256Y754838D01*
X552865Y754804D01*
X552473Y754780D01*
X552081Y754766D01*
X551688Y754761D01*
X551295Y754766D01*
X550903Y754780D01*
X550511Y754804D01*
X550120Y754838D01*
X549729Y754881D01*
X549340Y754934D01*
X548952Y754997D01*
X548566Y755068D01*
X548182Y755150D01*
X547800Y755241D01*
X547420Y755341D01*
X547043Y755450D01*
X546668Y755569D01*
X546297Y755696D01*
X545929Y755833D01*
X545564Y755979D01*
X545203Y756134D01*
X544846Y756297D01*
X544493Y756470D01*
X544145Y756650D01*
X543801Y756840D01*
X543461Y757038D01*
X543127Y757244D01*
X542798Y757458D01*
X542474Y757680D01*
X542156Y757910D01*
X541843Y758148D01*
X541536Y758393D01*
X541236Y758646D01*
X540942Y758906D01*
X540654Y759174D01*
X540373Y759448D01*
X540099Y759729D01*
X539831Y760017D01*
X539571Y760311D01*
X539318Y760611D01*
X539073Y760918D01*
X538835Y761231D01*
X538605Y761549D01*
X538383Y761873D01*
X538169Y762202D01*
X537963Y762536D01*
X537765Y762876D01*
X537575Y763220D01*
X537395Y763568D01*
X537222Y763921D01*
X537059Y764278D01*
X536904Y764639D01*
X536758Y765004D01*
X536621Y765372D01*
X536494Y765743D01*
X536375Y766118D01*
X536266Y766495D01*
X536166Y766875D01*
X536075Y767257D01*
X535993Y767641D01*
X535922Y768027D01*
X535859Y768415D01*
X535806Y768804D01*
X535763Y769195D01*
X535729Y769586D01*
X535705Y769978D01*
X535691Y770370D01*
X535686Y770763D01*
X535686Y270637D02*
X535691Y271030D01*
X535705Y271422D01*
X535729Y271814D01*
X535763Y272205D01*
X535806Y272596D01*
X535859Y272985D01*
X535922Y273373D01*
X535993Y273759D01*
X536075Y274143D01*
X536166Y274525D01*
X536266Y274905D01*
X536375Y275282D01*
X536494Y275657D01*
X536621Y276028D01*
X536758Y276396D01*
X536904Y276761D01*
X537059Y277122D01*
X537222Y277479D01*
X537395Y277832D01*
X537575Y278180D01*
X537765Y278524D01*
X537963Y278864D01*
X538169Y279198D01*
X538383Y279527D01*
X538605Y279851D01*
X538835Y280169D01*
X539073Y280482D01*
X539318Y280789D01*
X539571Y281089D01*
X539831Y281383D01*
X540099Y281671D01*
X540373Y281952D01*
X540654Y282226D01*
X540942Y282494D01*
X541236Y282754D01*
X541536Y283007D01*
X541843Y283252D01*
X542156Y283490D01*
X542474Y283720D01*
X542798Y283942D01*
X543127Y284156D01*
X543461Y284362D01*
X543801Y284560D01*
X544145Y284750D01*
X544493Y284930D01*
X544846Y285103D01*
X545203Y285266D01*
X545564Y285421D01*
X545929Y285567D01*
X546297Y285704D01*
X546668Y285831D01*
X547043Y285950D01*
X547420Y286059D01*
X547800Y286159D01*
X548182Y286250D01*
X548566Y286332D01*
X548952Y286403D01*
X549340Y286466D01*
X549729Y286519D01*
X550120Y286562D01*
X550511Y286596D01*
X550903Y286620D01*
X551295Y286634D01*
X551688Y286639D01*
X552081Y286634D01*
X552473Y286620D01*
X552865Y286596D01*
X553256Y286562D01*
X553647Y286519D01*
X554036Y286466D01*
X554424Y286403D01*
X554810Y286332D01*
X555194Y286250D01*
X555576Y286159D01*
X555956Y286059D01*
X556333Y285950D01*
X556708Y285831D01*
X557079Y285704D01*
X557447Y285567D01*
X557812Y285421D01*
X558173Y285266D01*
X558530Y285103D01*
X558883Y284930D01*
X559231Y284750D01*
X559575Y284560D01*
X559915Y284362D01*
X560249Y284156D01*
X560578Y283942D01*
X560902Y283720D01*
X561220Y283490D01*
X561533Y283252D01*
X561840Y283007D01*
X562140Y282754D01*
X562434Y282494D01*
X562722Y282226D01*
X563003Y281952D01*
X563277Y281671D01*
X563545Y281383D01*
X563805Y281089D01*
X564058Y280789D01*
X564303Y280482D01*
X564541Y280169D01*
X564771Y279851D01*
X564993Y279527D01*
X565207Y279198D01*
X565413Y278864D01*
X565611Y278524D01*
X565801Y278180D01*
X565981Y277832D01*
X566154Y277479D01*
X566317Y277122D01*
X566472Y276761D01*
X566618Y276396D01*
X566755Y276028D01*
X566882Y275657D01*
X567001Y275282D01*
X567110Y274905D01*
X567210Y274525D01*
X567301Y274143D01*
X567383Y273759D01*
X567454Y273373D01*
X567517Y272985D01*
X567570Y272596D01*
X567613Y272205D01*
X567647Y271814D01*
X567671Y271422D01*
X567685Y271030D01*
X567690Y270637D01*
X567685Y270244D01*
X567671Y269852D01*
X567647Y269460D01*
X567613Y269069D01*
X567570Y268678D01*
X567517Y268289D01*
X567454Y267901D01*
X567383Y267515D01*
X567301Y267131D01*
X567210Y266749D01*
X567110Y266369D01*
X567001Y265992D01*
X566882Y265617D01*
X566755Y265246D01*
X566618Y264878D01*
X566472Y264513D01*
X566317Y264152D01*
X566154Y263795D01*
X565981Y263442D01*
X565801Y263094D01*
X565611Y262750D01*
X565413Y262410D01*
X565207Y262076D01*
X564993Y261747D01*
X564771Y261423D01*
X564541Y261105D01*
X564303Y260792D01*
X564058Y260485D01*
X563805Y260185D01*
X563545Y259891D01*
X563277Y259603D01*
X563003Y259322D01*
X562722Y259048D01*
X562434Y258780D01*
X562140Y258520D01*
X561840Y258267D01*
X561533Y258022D01*
X561220Y257784D01*
X560902Y257554D01*
X560578Y257332D01*
X560249Y257118D01*
X559915Y256912D01*
X559575Y256714D01*
X559231Y256524D01*
X558883Y256344D01*
X558530Y256171D01*
X558173Y256008D01*
X557812Y255853D01*
X557447Y255707D01*
X557079Y255570D01*
X556708Y255443D01*
X556333Y255324D01*
X555956Y255215D01*
X555576Y255115D01*
X555194Y255024D01*
X554810Y254942D01*
X554424Y254871D01*
X554036Y254808D01*
X553647Y254755D01*
X553256Y254712D01*
X552865Y254678D01*
X552473Y254654D01*
X552081Y254640D01*
X551688Y254635D01*
X551295Y254640D01*
X550903Y254654D01*
X550511Y254678D01*
X550120Y254712D01*
X549729Y254755D01*
X549340Y254808D01*
X548952Y254871D01*
X548566Y254942D01*
X548182Y255024D01*
X547800Y255115D01*
X547420Y255215D01*
X547043Y255324D01*
X546668Y255443D01*
X546297Y255570D01*
X545929Y255707D01*
X545564Y255853D01*
X545203Y256008D01*
X544846Y256171D01*
X544493Y256344D01*
X544145Y256524D01*
X543801Y256714D01*
X543461Y256912D01*
X543127Y257118D01*
X542798Y257332D01*
X542474Y257554D01*
X542156Y257784D01*
X541843Y258022D01*
X541536Y258267D01*
X541236Y258520D01*
X540942Y258780D01*
X540654Y259048D01*
X540373Y259322D01*
X540099Y259603D01*
X539831Y259891D01*
X539571Y260185D01*
X539318Y260485D01*
X539073Y260792D01*
X538835Y261105D01*
X538605Y261423D01*
X538383Y261747D01*
X538169Y262076D01*
X537963Y262410D01*
X537765Y262750D01*
X537575Y263094D01*
X537395Y263442D01*
X537222Y263795D01*
X537059Y264152D01*
X536904Y264513D01*
X536758Y264878D01*
X536621Y265246D01*
X536494Y265617D01*
X536375Y265992D01*
X536266Y266369D01*
X536166Y266749D01*
X536075Y267131D01*
X535993Y267515D01*
X535922Y267901D01*
X535859Y268289D01*
X535806Y268678D01*
X535763Y269069D01*
X535729Y269460D01*
X535705Y269852D01*
X535691Y270244D01*
X535686Y270637D01*
D15*
X-19050Y489077D02*
X-78392Y489077D01*
X-78392Y552323D02*
X-19050Y552323D01*
X-78392Y489077D02*
X-76227Y406908D01*
X-72204Y324809D01*
X-66326Y242821D01*
X-58595Y160988D01*
X-49015Y79350D01*
X-37592Y-2050D01*
X-19050Y489077D02*
X-18280Y489086D01*
X-17510Y489115D01*
X-16742Y489161D01*
X-15974Y489227D01*
X-15209Y489311D01*
X-14446Y489414D01*
X-13685Y489535D01*
X-12928Y489675D01*
X-12174Y489834D01*
X-11425Y490010D01*
X-10680Y490205D01*
X-9939Y490418D01*
X-9205Y490649D01*
X-8476Y490897D01*
X-7753Y491164D01*
X-7037Y491447D01*
X-6329Y491749D01*
X-5627Y492067D01*
X-4934Y492402D01*
X-4249Y492754D01*
X-3573Y493123D01*
X-2906Y493508D01*
X-2249Y493909D01*
X-1601Y494326D01*
X-964Y494759D01*
X-338Y495207D01*
X277Y495671D01*
X881Y496149D01*
X1473Y496641D01*
X2053Y497148D01*
X2620Y497669D01*
X3174Y498203D01*
X3716Y498751D01*
X4243Y499312D01*
X4757Y499886D01*
X5257Y500472D01*
X5742Y501070D01*
X6213Y501679D01*
X6669Y502300D01*
X7109Y502932D01*
X7534Y503574D01*
X7943Y504226D01*
X8336Y504889D01*
X8713Y505560D01*
X9074Y506241D01*
X9417Y506930D01*
X9744Y507627D01*
X10054Y508332D01*
X10347Y509044D01*
X10622Y509764D01*
X10879Y510490D01*
X11119Y511221D01*
X11341Y511959D01*
X11545Y512701D01*
X11730Y513449D01*
X11898Y514201D01*
X12047Y514956D01*
X12178Y515715D01*
X12290Y516477D01*
X12383Y517241D01*
X12458Y518008D01*
X12514Y518776D01*
X12552Y519545D01*
X12571Y520315D01*
X12571Y521085D01*
X12552Y521855D01*
X12514Y522624D01*
X12458Y523392D01*
X12383Y524159D01*
X12290Y524923D01*
X12178Y525685D01*
X12047Y526444D01*
X11898Y527199D01*
X11730Y527951D01*
X11545Y528699D01*
X11341Y529441D01*
X11119Y530179D01*
X10879Y530910D01*
X10622Y531636D01*
X10347Y532356D01*
X10054Y533068D01*
X9744Y533773D01*
X9417Y534470D01*
X9074Y535159D01*
X8713Y535840D01*
X8336Y536512D01*
X7943Y537174D01*
X7534Y537826D01*
X7109Y538468D01*
X6669Y539100D01*
X6213Y539721D01*
X5742Y540330D01*
X5257Y540928D01*
X4757Y541514D01*
X4243Y542088D01*
X3716Y542649D01*
X3174Y543197D01*
X2620Y543731D01*
X2053Y544252D01*
X1473Y544759D01*
X881Y545251D01*
X277Y545729D01*
X-338Y546193D01*
X-964Y546641D01*
X-1601Y547074D01*
X-2249Y547491D01*
X-2906Y547892D01*
X-3573Y548277D01*
X-4249Y548646D01*
X-4934Y548998D01*
X-5627Y549333D01*
X-6329Y549651D01*
X-7037Y549953D01*
X-7753Y550236D01*
X-8476Y550503D01*
X-9205Y550751D01*
X-9939Y550982D01*
X-10680Y551195D01*
X-11425Y551390D01*
X-12174Y551566D01*
X-12928Y551725D01*
X-13685Y551865D01*
X-14446Y551986D01*
X-15209Y552089D01*
X-15974Y552173D01*
X-16742Y552239D01*
X-17510Y552285D01*
X-18280Y552314D01*
X-19050Y552323D01*
X552450Y489077D02*
X611792Y489077D01*
X611792Y552323D02*
X552450Y552323D01*
X611792Y489077D02*
X609627Y406908D01*
X605604Y324809D01*
X599726Y242821D01*
X591995Y160988D01*
X582415Y79350D01*
X570992Y-2050D01*
X583819Y1016000D02*
X583198Y1018289D01*
X582521Y1020562D01*
X581790Y1022818D01*
X581005Y1025055D01*
X580166Y1027273D01*
X579273Y1029470D01*
X578327Y1031645D01*
X577330Y1033796D01*
X576280Y1035923D01*
X575179Y1038023D01*
X574028Y1040096D01*
X572827Y1042141D01*
X571577Y1044157D01*
X570279Y1046141D01*
X568933Y1048093D01*
X567540Y1050013D01*
X566102Y1051898D01*
X564618Y1053748D01*
X563089Y1055561D01*
X561518Y1057337D01*
X559904Y1059074D01*
X558248Y1060772D01*
X556552Y1062429D01*
X554816Y1064045D01*
X553042Y1065618D01*
X551230Y1067148D01*
X549382Y1068634D01*
X547498Y1070074D01*
X545580Y1071469D01*
X543629Y1072817D01*
X541645Y1074117D01*
X539631Y1075369D01*
X537588Y1076572D01*
X535516Y1077725D01*
X533416Y1078828D01*
X531291Y1079879D01*
X529140Y1080879D01*
X526966Y1081827D01*
X524770Y1082721D01*
X522553Y1083563D01*
X520316Y1084350D01*
X518061Y1085084D01*
X515789Y1085762D01*
X513501Y1086385D01*
X511198Y1086953D01*
X508883Y1087465D01*
X506556Y1087921D01*
X504218Y1088320D01*
X501872Y1088663D01*
X499517Y1088949D01*
X497157Y1089178D01*
X494792Y1089350D01*
X583818Y1016000D02*
X593159Y939079D01*
X600633Y861954D01*
X606236Y784670D01*
X609965Y707273D01*
X611817Y629809D01*
X611791Y552323D01*
X552450Y552323D02*
X551680Y552314D01*
X550910Y552285D01*
X550142Y552239D01*
X549374Y552173D01*
X548609Y552089D01*
X547846Y551986D01*
X547085Y551865D01*
X546328Y551725D01*
X545574Y551566D01*
X544825Y551390D01*
X544080Y551195D01*
X543339Y550982D01*
X542605Y550751D01*
X541876Y550503D01*
X541153Y550236D01*
X540437Y549953D01*
X539729Y549651D01*
X539027Y549333D01*
X538334Y548998D01*
X537649Y548646D01*
X536973Y548277D01*
X536306Y547892D01*
X535649Y547491D01*
X535001Y547074D01*
X534364Y546641D01*
X533738Y546193D01*
X533123Y545729D01*
X532519Y545251D01*
X531927Y544759D01*
X531347Y544252D01*
X530780Y543731D01*
X530226Y543197D01*
X529684Y542649D01*
X529157Y542088D01*
X528643Y541514D01*
X528143Y540928D01*
X527658Y540330D01*
X527187Y539721D01*
X526731Y539100D01*
X526291Y538468D01*
X525866Y537826D01*
X525457Y537174D01*
X525064Y536512D01*
X524687Y535840D01*
X524326Y535159D01*
X523983Y534470D01*
X523656Y533773D01*
X523346Y533068D01*
X523053Y532356D01*
X522778Y531636D01*
X522521Y530910D01*
X522281Y530179D01*
X522059Y529441D01*
X521855Y528699D01*
X521670Y527951D01*
X521502Y527199D01*
X521353Y526444D01*
X521222Y525685D01*
X521110Y524923D01*
X521017Y524159D01*
X520942Y523392D01*
X520886Y522624D01*
X520848Y521855D01*
X520829Y521085D01*
X520829Y520315D01*
X520848Y519545D01*
X520886Y518776D01*
X520942Y518008D01*
X521017Y517241D01*
X521110Y516477D01*
X521222Y515715D01*
X521353Y514956D01*
X521502Y514201D01*
X521670Y513449D01*
X521855Y512701D01*
X522059Y511959D01*
X522281Y511221D01*
X522521Y510490D01*
X522778Y509764D01*
X523053Y509044D01*
X523346Y508332D01*
X523656Y507627D01*
X523983Y506930D01*
X524326Y506241D01*
X524687Y505560D01*
X525064Y504888D01*
X525457Y504226D01*
X525866Y503574D01*
X526291Y502932D01*
X526731Y502300D01*
X527187Y501679D01*
X527658Y501070D01*
X528143Y500472D01*
X528643Y499886D01*
X529157Y499312D01*
X529684Y498751D01*
X530226Y498203D01*
X530780Y497669D01*
X531347Y497148D01*
X531927Y496641D01*
X532519Y496149D01*
X533123Y495671D01*
X533738Y495207D01*
X534364Y494759D01*
X535001Y494326D01*
X535649Y493909D01*
X536306Y493508D01*
X536973Y493123D01*
X537649Y492754D01*
X538334Y492402D01*
X539027Y492067D01*
X539729Y491749D01*
X540437Y491447D01*
X541153Y491164D01*
X541876Y490897D01*
X542605Y490649D01*
X543339Y490418D01*
X544080Y490205D01*
X544825Y490010D01*
X545574Y489834D01*
X546328Y489675D01*
X547085Y489535D01*
X547846Y489414D01*
X548609Y489311D01*
X549374Y489227D01*
X550142Y489161D01*
X550910Y489115D01*
X551680Y489086D01*
X552450Y489077D01*
X-38100Y838200D02*
X-68580Y838200D01*
X-38100Y838200D02*
X-38100Y1043940D01*
X-68579Y838200D02*
X-73635Y766872D01*
X-77015Y695444D01*
X-78717Y623957D01*
X-78739Y552450D01*
X-38100Y1043940D02*
X-36747Y1045958D01*
X-35345Y1047942D01*
X-33895Y1049892D01*
X-32400Y1051807D01*
X-30858Y1053685D01*
X-29272Y1055525D01*
X-27642Y1057327D01*
X-25969Y1059089D01*
X-24254Y1060810D01*
X-22499Y1062489D01*
X-20703Y1064126D01*
X-18868Y1065719D01*
X-16996Y1067267D01*
X-15087Y1068770D01*
X-13142Y1070226D01*
X-11163Y1071635D01*
X-9151Y1072997D01*
X-7106Y1074309D01*
X-5030Y1075572D01*
X-2925Y1076784D01*
X-791Y1077945D01*
X1370Y1079055D01*
X3558Y1080113D01*
X5770Y1081117D01*
X8006Y1082068D01*
X10264Y1082965D01*
X12543Y1083807D01*
X14841Y1084594D01*
X17158Y1085325D01*
X19492Y1086001D01*
X21841Y1086620D01*
X24205Y1087183D01*
X26581Y1087688D01*
X28969Y1088136D01*
X31367Y1088527D01*
X33774Y1088859D01*
X36188Y1089134D01*
X38608Y1089350D01*
D12*
X46550Y162800D02*
X46552Y162930D01*
X46558Y163060D01*
X46568Y163190D01*
X46582Y163320D01*
X46600Y163449D01*
X46622Y163577D01*
X46647Y163705D01*
X46677Y163832D01*
X46711Y163958D01*
X46748Y164082D01*
X46789Y164206D01*
X46834Y164328D01*
X46883Y164449D01*
X46935Y164568D01*
X46991Y164686D01*
X47051Y164802D01*
X47114Y164916D01*
X47181Y165028D01*
X47251Y165137D01*
X47324Y165245D01*
X47400Y165350D01*
X47480Y165453D01*
X47563Y165554D01*
X47649Y165652D01*
X47738Y165747D01*
X47830Y165840D01*
X47924Y165929D01*
X48021Y166016D01*
X48121Y166099D01*
X48224Y166180D01*
X48328Y166257D01*
X48435Y166331D01*
X48545Y166402D01*
X48656Y166470D01*
X48770Y166534D01*
X48885Y166594D01*
X49002Y166651D01*
X49121Y166704D01*
X49242Y166754D01*
X49363Y166800D01*
X49487Y166842D01*
X49611Y166880D01*
X49737Y166915D01*
X49863Y166946D01*
X49991Y166972D01*
X50119Y166995D01*
X50248Y167014D01*
X50377Y167029D01*
X50507Y167040D01*
X50637Y167047D01*
X50767Y167050D01*
X50898Y167049D01*
X51028Y167044D01*
X51158Y167035D01*
X51287Y167022D01*
X51417Y167005D01*
X51545Y166984D01*
X51673Y166959D01*
X51800Y166931D01*
X51926Y166898D01*
X52051Y166862D01*
X52175Y166821D01*
X52298Y166777D01*
X52419Y166730D01*
X52539Y166678D01*
X52657Y166623D01*
X52773Y166564D01*
X52887Y166502D01*
X53000Y166436D01*
X53110Y166367D01*
X53218Y166295D01*
X53324Y166219D01*
X53428Y166140D01*
X53529Y166058D01*
X53628Y165973D01*
X53724Y165885D01*
X53817Y165794D01*
X53907Y165700D01*
X53994Y165603D01*
X54079Y165504D01*
X54160Y165402D01*
X54238Y165298D01*
X54313Y165192D01*
X54385Y165083D01*
X54453Y164972D01*
X54518Y164859D01*
X54579Y164744D01*
X54637Y164627D01*
X54691Y164509D01*
X54742Y164389D01*
X54789Y164267D01*
X54832Y164144D01*
X54871Y164020D01*
X54907Y163895D01*
X54938Y163768D01*
X54966Y163641D01*
X54990Y163513D01*
X55010Y163384D01*
X55026Y163255D01*
X55038Y163125D01*
X55046Y162995D01*
X55050Y162865D01*
X55050Y162735D01*
X55046Y162605D01*
X55038Y162475D01*
X55026Y162345D01*
X55010Y162216D01*
X54990Y162087D01*
X54966Y161959D01*
X54938Y161832D01*
X54907Y161705D01*
X54871Y161580D01*
X54832Y161456D01*
X54789Y161333D01*
X54742Y161211D01*
X54691Y161091D01*
X54637Y160973D01*
X54579Y160856D01*
X54518Y160741D01*
X54453Y160628D01*
X54385Y160517D01*
X54313Y160408D01*
X54238Y160302D01*
X54160Y160198D01*
X54079Y160096D01*
X53994Y159997D01*
X53907Y159900D01*
X53817Y159806D01*
X53724Y159715D01*
X53628Y159627D01*
X53529Y159542D01*
X53428Y159460D01*
X53324Y159381D01*
X53218Y159305D01*
X53110Y159233D01*
X53000Y159164D01*
X52887Y159098D01*
X52773Y159036D01*
X52657Y158977D01*
X52539Y158922D01*
X52419Y158870D01*
X52298Y158823D01*
X52175Y158779D01*
X52051Y158738D01*
X51926Y158702D01*
X51800Y158669D01*
X51673Y158641D01*
X51545Y158616D01*
X51417Y158595D01*
X51287Y158578D01*
X51158Y158565D01*
X51028Y158556D01*
X50898Y158551D01*
X50767Y158550D01*
X50637Y158553D01*
X50507Y158560D01*
X50377Y158571D01*
X50248Y158586D01*
X50119Y158605D01*
X49991Y158628D01*
X49863Y158654D01*
X49737Y158685D01*
X49611Y158720D01*
X49487Y158758D01*
X49363Y158800D01*
X49242Y158846D01*
X49121Y158896D01*
X49002Y158949D01*
X48885Y159006D01*
X48770Y159066D01*
X48656Y159130D01*
X48545Y159198D01*
X48435Y159269D01*
X48328Y159343D01*
X48224Y159420D01*
X48121Y159501D01*
X48021Y159584D01*
X47924Y159671D01*
X47830Y159760D01*
X47738Y159853D01*
X47649Y159948D01*
X47563Y160046D01*
X47480Y160147D01*
X47400Y160250D01*
X47324Y160355D01*
X47251Y160463D01*
X47181Y160572D01*
X47114Y160684D01*
X47051Y160798D01*
X46991Y160914D01*
X46935Y161032D01*
X46883Y161151D01*
X46834Y161272D01*
X46789Y161394D01*
X46748Y161518D01*
X46711Y161642D01*
X46677Y161768D01*
X46647Y161895D01*
X46622Y162023D01*
X46600Y162151D01*
X46582Y162280D01*
X46568Y162410D01*
X46558Y162540D01*
X46552Y162670D01*
X46550Y162800D01*
X46550Y192800D02*
X46552Y192930D01*
X46558Y193060D01*
X46568Y193190D01*
X46582Y193320D01*
X46600Y193449D01*
X46622Y193577D01*
X46647Y193705D01*
X46677Y193832D01*
X46711Y193958D01*
X46748Y194082D01*
X46789Y194206D01*
X46834Y194328D01*
X46883Y194449D01*
X46935Y194568D01*
X46991Y194686D01*
X47051Y194802D01*
X47114Y194916D01*
X47181Y195028D01*
X47251Y195137D01*
X47324Y195245D01*
X47400Y195350D01*
X47480Y195453D01*
X47563Y195554D01*
X47649Y195652D01*
X47738Y195747D01*
X47830Y195840D01*
X47924Y195929D01*
X48021Y196016D01*
X48121Y196099D01*
X48224Y196180D01*
X48328Y196257D01*
X48435Y196331D01*
X48545Y196402D01*
X48656Y196470D01*
X48770Y196534D01*
X48885Y196594D01*
X49002Y196651D01*
X49121Y196704D01*
X49242Y196754D01*
X49363Y196800D01*
X49487Y196842D01*
X49611Y196880D01*
X49737Y196915D01*
X49863Y196946D01*
X49991Y196972D01*
X50119Y196995D01*
X50248Y197014D01*
X50377Y197029D01*
X50507Y197040D01*
X50637Y197047D01*
X50767Y197050D01*
X50898Y197049D01*
X51028Y197044D01*
X51158Y197035D01*
X51287Y197022D01*
X51417Y197005D01*
X51545Y196984D01*
X51673Y196959D01*
X51800Y196931D01*
X51926Y196898D01*
X52051Y196862D01*
X52175Y196821D01*
X52298Y196777D01*
X52419Y196730D01*
X52539Y196678D01*
X52657Y196623D01*
X52773Y196564D01*
X52887Y196502D01*
X53000Y196436D01*
X53110Y196367D01*
X53218Y196295D01*
X53324Y196219D01*
X53428Y196140D01*
X53529Y196058D01*
X53628Y195973D01*
X53724Y195885D01*
X53817Y195794D01*
X53907Y195700D01*
X53994Y195603D01*
X54079Y195504D01*
X54160Y195402D01*
X54238Y195298D01*
X54313Y195192D01*
X54385Y195083D01*
X54453Y194972D01*
X54518Y194859D01*
X54579Y194744D01*
X54637Y194627D01*
X54691Y194509D01*
X54742Y194389D01*
X54789Y194267D01*
X54832Y194144D01*
X54871Y194020D01*
X54907Y193895D01*
X54938Y193768D01*
X54966Y193641D01*
X54990Y193513D01*
X55010Y193384D01*
X55026Y193255D01*
X55038Y193125D01*
X55046Y192995D01*
X55050Y192865D01*
X55050Y192735D01*
X55046Y192605D01*
X55038Y192475D01*
X55026Y192345D01*
X55010Y192216D01*
X54990Y192087D01*
X54966Y191959D01*
X54938Y191832D01*
X54907Y191705D01*
X54871Y191580D01*
X54832Y191456D01*
X54789Y191333D01*
X54742Y191211D01*
X54691Y191091D01*
X54637Y190973D01*
X54579Y190856D01*
X54518Y190741D01*
X54453Y190628D01*
X54385Y190517D01*
X54313Y190408D01*
X54238Y190302D01*
X54160Y190198D01*
X54079Y190096D01*
X53994Y189997D01*
X53907Y189900D01*
X53817Y189806D01*
X53724Y189715D01*
X53628Y189627D01*
X53529Y189542D01*
X53428Y189460D01*
X53324Y189381D01*
X53218Y189305D01*
X53110Y189233D01*
X53000Y189164D01*
X52887Y189098D01*
X52773Y189036D01*
X52657Y188977D01*
X52539Y188922D01*
X52419Y188870D01*
X52298Y188823D01*
X52175Y188779D01*
X52051Y188738D01*
X51926Y188702D01*
X51800Y188669D01*
X51673Y188641D01*
X51545Y188616D01*
X51417Y188595D01*
X51287Y188578D01*
X51158Y188565D01*
X51028Y188556D01*
X50898Y188551D01*
X50767Y188550D01*
X50637Y188553D01*
X50507Y188560D01*
X50377Y188571D01*
X50248Y188586D01*
X50119Y188605D01*
X49991Y188628D01*
X49863Y188654D01*
X49737Y188685D01*
X49611Y188720D01*
X49487Y188758D01*
X49363Y188800D01*
X49242Y188846D01*
X49121Y188896D01*
X49002Y188949D01*
X48885Y189006D01*
X48770Y189066D01*
X48656Y189130D01*
X48545Y189198D01*
X48435Y189269D01*
X48328Y189343D01*
X48224Y189420D01*
X48121Y189501D01*
X48021Y189584D01*
X47924Y189671D01*
X47830Y189760D01*
X47738Y189853D01*
X47649Y189948D01*
X47563Y190046D01*
X47480Y190147D01*
X47400Y190250D01*
X47324Y190355D01*
X47251Y190463D01*
X47181Y190572D01*
X47114Y190684D01*
X47051Y190798D01*
X46991Y190914D01*
X46935Y191032D01*
X46883Y191151D01*
X46834Y191272D01*
X46789Y191394D01*
X46748Y191518D01*
X46711Y191642D01*
X46677Y191768D01*
X46647Y191895D01*
X46622Y192023D01*
X46600Y192151D01*
X46582Y192280D01*
X46568Y192410D01*
X46558Y192540D01*
X46552Y192670D01*
X46550Y192800D01*
X46550Y319800D02*
X46552Y319930D01*
X46558Y320060D01*
X46568Y320190D01*
X46582Y320320D01*
X46600Y320449D01*
X46622Y320577D01*
X46647Y320705D01*
X46677Y320832D01*
X46711Y320958D01*
X46748Y321082D01*
X46789Y321206D01*
X46834Y321328D01*
X46883Y321449D01*
X46935Y321568D01*
X46991Y321686D01*
X47051Y321802D01*
X47114Y321916D01*
X47181Y322028D01*
X47251Y322137D01*
X47324Y322245D01*
X47400Y322350D01*
X47480Y322453D01*
X47563Y322554D01*
X47649Y322652D01*
X47738Y322747D01*
X47830Y322840D01*
X47924Y322929D01*
X48021Y323016D01*
X48121Y323099D01*
X48224Y323180D01*
X48328Y323257D01*
X48435Y323331D01*
X48545Y323402D01*
X48656Y323470D01*
X48770Y323534D01*
X48885Y323594D01*
X49002Y323651D01*
X49121Y323704D01*
X49242Y323754D01*
X49363Y323800D01*
X49487Y323842D01*
X49611Y323880D01*
X49737Y323915D01*
X49863Y323946D01*
X49991Y323972D01*
X50119Y323995D01*
X50248Y324014D01*
X50377Y324029D01*
X50507Y324040D01*
X50637Y324047D01*
X50767Y324050D01*
X50898Y324049D01*
X51028Y324044D01*
X51158Y324035D01*
X51287Y324022D01*
X51417Y324005D01*
X51545Y323984D01*
X51673Y323959D01*
X51800Y323931D01*
X51926Y323898D01*
X52051Y323862D01*
X52175Y323821D01*
X52298Y323777D01*
X52419Y323730D01*
X52539Y323678D01*
X52657Y323623D01*
X52773Y323564D01*
X52887Y323502D01*
X53000Y323436D01*
X53110Y323367D01*
X53218Y323295D01*
X53324Y323219D01*
X53428Y323140D01*
X53529Y323058D01*
X53628Y322973D01*
X53724Y322885D01*
X53817Y322794D01*
X53907Y322700D01*
X53994Y322603D01*
X54079Y322504D01*
X54160Y322402D01*
X54238Y322298D01*
X54313Y322192D01*
X54385Y322083D01*
X54453Y321972D01*
X54518Y321859D01*
X54579Y321744D01*
X54637Y321627D01*
X54691Y321509D01*
X54742Y321389D01*
X54789Y321267D01*
X54832Y321144D01*
X54871Y321020D01*
X54907Y320895D01*
X54938Y320768D01*
X54966Y320641D01*
X54990Y320513D01*
X55010Y320384D01*
X55026Y320255D01*
X55038Y320125D01*
X55046Y319995D01*
X55050Y319865D01*
X55050Y319735D01*
X55046Y319605D01*
X55038Y319475D01*
X55026Y319345D01*
X55010Y319216D01*
X54990Y319087D01*
X54966Y318959D01*
X54938Y318832D01*
X54907Y318705D01*
X54871Y318580D01*
X54832Y318456D01*
X54789Y318333D01*
X54742Y318211D01*
X54691Y318091D01*
X54637Y317973D01*
X54579Y317856D01*
X54518Y317741D01*
X54453Y317628D01*
X54385Y317517D01*
X54313Y317408D01*
X54238Y317302D01*
X54160Y317198D01*
X54079Y317096D01*
X53994Y316997D01*
X53907Y316900D01*
X53817Y316806D01*
X53724Y316715D01*
X53628Y316627D01*
X53529Y316542D01*
X53428Y316460D01*
X53324Y316381D01*
X53218Y316305D01*
X53110Y316233D01*
X53000Y316164D01*
X52887Y316098D01*
X52773Y316036D01*
X52657Y315977D01*
X52539Y315922D01*
X52419Y315870D01*
X52298Y315823D01*
X52175Y315779D01*
X52051Y315738D01*
X51926Y315702D01*
X51800Y315669D01*
X51673Y315641D01*
X51545Y315616D01*
X51417Y315595D01*
X51287Y315578D01*
X51158Y315565D01*
X51028Y315556D01*
X50898Y315551D01*
X50767Y315550D01*
X50637Y315553D01*
X50507Y315560D01*
X50377Y315571D01*
X50248Y315586D01*
X50119Y315605D01*
X49991Y315628D01*
X49863Y315654D01*
X49737Y315685D01*
X49611Y315720D01*
X49487Y315758D01*
X49363Y315800D01*
X49242Y315846D01*
X49121Y315896D01*
X49002Y315949D01*
X48885Y316006D01*
X48770Y316066D01*
X48656Y316130D01*
X48545Y316198D01*
X48435Y316269D01*
X48328Y316343D01*
X48224Y316420D01*
X48121Y316501D01*
X48021Y316584D01*
X47924Y316671D01*
X47830Y316760D01*
X47738Y316853D01*
X47649Y316948D01*
X47563Y317046D01*
X47480Y317147D01*
X47400Y317250D01*
X47324Y317355D01*
X47251Y317463D01*
X47181Y317572D01*
X47114Y317684D01*
X47051Y317798D01*
X46991Y317914D01*
X46935Y318032D01*
X46883Y318151D01*
X46834Y318272D01*
X46789Y318394D01*
X46748Y318518D01*
X46711Y318642D01*
X46677Y318768D01*
X46647Y318895D01*
X46622Y319023D01*
X46600Y319151D01*
X46582Y319280D01*
X46568Y319410D01*
X46558Y319540D01*
X46552Y319670D01*
X46550Y319800D01*
X46550Y289800D02*
X46552Y289930D01*
X46558Y290060D01*
X46568Y290190D01*
X46582Y290320D01*
X46600Y290449D01*
X46622Y290577D01*
X46647Y290705D01*
X46677Y290832D01*
X46711Y290958D01*
X46748Y291082D01*
X46789Y291206D01*
X46834Y291328D01*
X46883Y291449D01*
X46935Y291568D01*
X46991Y291686D01*
X47051Y291802D01*
X47114Y291916D01*
X47181Y292028D01*
X47251Y292137D01*
X47324Y292245D01*
X47400Y292350D01*
X47480Y292453D01*
X47563Y292554D01*
X47649Y292652D01*
X47738Y292747D01*
X47830Y292840D01*
X47924Y292929D01*
X48021Y293016D01*
X48121Y293099D01*
X48224Y293180D01*
X48328Y293257D01*
X48435Y293331D01*
X48545Y293402D01*
X48656Y293470D01*
X48770Y293534D01*
X48885Y293594D01*
X49002Y293651D01*
X49121Y293704D01*
X49242Y293754D01*
X49363Y293800D01*
X49487Y293842D01*
X49611Y293880D01*
X49737Y293915D01*
X49863Y293946D01*
X49991Y293972D01*
X50119Y293995D01*
X50248Y294014D01*
X50377Y294029D01*
X50507Y294040D01*
X50637Y294047D01*
X50767Y294050D01*
X50898Y294049D01*
X51028Y294044D01*
X51158Y294035D01*
X51287Y294022D01*
X51417Y294005D01*
X51545Y293984D01*
X51673Y293959D01*
X51800Y293931D01*
X51926Y293898D01*
X52051Y293862D01*
X52175Y293821D01*
X52298Y293777D01*
X52419Y293730D01*
X52539Y293678D01*
X52657Y293623D01*
X52773Y293564D01*
X52887Y293502D01*
X53000Y293436D01*
X53110Y293367D01*
X53218Y293295D01*
X53324Y293219D01*
X53428Y293140D01*
X53529Y293058D01*
X53628Y292973D01*
X53724Y292885D01*
X53817Y292794D01*
X53907Y292700D01*
X53994Y292603D01*
X54079Y292504D01*
X54160Y292402D01*
X54238Y292298D01*
X54313Y292192D01*
X54385Y292083D01*
X54453Y291972D01*
X54518Y291859D01*
X54579Y291744D01*
X54637Y291627D01*
X54691Y291509D01*
X54742Y291389D01*
X54789Y291267D01*
X54832Y291144D01*
X54871Y291020D01*
X54907Y290895D01*
X54938Y290768D01*
X54966Y290641D01*
X54990Y290513D01*
X55010Y290384D01*
X55026Y290255D01*
X55038Y290125D01*
X55046Y289995D01*
X55050Y289865D01*
X55050Y289735D01*
X55046Y289605D01*
X55038Y289475D01*
X55026Y289345D01*
X55010Y289216D01*
X54990Y289087D01*
X54966Y288959D01*
X54938Y288832D01*
X54907Y288705D01*
X54871Y288580D01*
X54832Y288456D01*
X54789Y288333D01*
X54742Y288211D01*
X54691Y288091D01*
X54637Y287973D01*
X54579Y287856D01*
X54518Y287741D01*
X54453Y287628D01*
X54385Y287517D01*
X54313Y287408D01*
X54238Y287302D01*
X54160Y287198D01*
X54079Y287096D01*
X53994Y286997D01*
X53907Y286900D01*
X53817Y286806D01*
X53724Y286715D01*
X53628Y286627D01*
X53529Y286542D01*
X53428Y286460D01*
X53324Y286381D01*
X53218Y286305D01*
X53110Y286233D01*
X53000Y286164D01*
X52887Y286098D01*
X52773Y286036D01*
X52657Y285977D01*
X52539Y285922D01*
X52419Y285870D01*
X52298Y285823D01*
X52175Y285779D01*
X52051Y285738D01*
X51926Y285702D01*
X51800Y285669D01*
X51673Y285641D01*
X51545Y285616D01*
X51417Y285595D01*
X51287Y285578D01*
X51158Y285565D01*
X51028Y285556D01*
X50898Y285551D01*
X50767Y285550D01*
X50637Y285553D01*
X50507Y285560D01*
X50377Y285571D01*
X50248Y285586D01*
X50119Y285605D01*
X49991Y285628D01*
X49863Y285654D01*
X49737Y285685D01*
X49611Y285720D01*
X49487Y285758D01*
X49363Y285800D01*
X49242Y285846D01*
X49121Y285896D01*
X49002Y285949D01*
X48885Y286006D01*
X48770Y286066D01*
X48656Y286130D01*
X48545Y286198D01*
X48435Y286269D01*
X48328Y286343D01*
X48224Y286420D01*
X48121Y286501D01*
X48021Y286584D01*
X47924Y286671D01*
X47830Y286760D01*
X47738Y286853D01*
X47649Y286948D01*
X47563Y287046D01*
X47480Y287147D01*
X47400Y287250D01*
X47324Y287355D01*
X47251Y287463D01*
X47181Y287572D01*
X47114Y287684D01*
X47051Y287798D01*
X46991Y287914D01*
X46935Y288032D01*
X46883Y288151D01*
X46834Y288272D01*
X46789Y288394D01*
X46748Y288518D01*
X46711Y288642D01*
X46677Y288768D01*
X46647Y288895D01*
X46622Y289023D01*
X46600Y289151D01*
X46582Y289280D01*
X46568Y289410D01*
X46558Y289540D01*
X46552Y289670D01*
X46550Y289800D01*
X7700Y860100D02*
X7702Y860213D01*
X7708Y860327D01*
X7718Y860440D01*
X7732Y860552D01*
X7749Y860664D01*
X7771Y860776D01*
X7797Y860886D01*
X7826Y860996D01*
X7859Y861104D01*
X7896Y861212D01*
X7937Y861317D01*
X7981Y861422D01*
X8029Y861525D01*
X8080Y861626D01*
X8135Y861725D01*
X8194Y861822D01*
X8256Y861917D01*
X8321Y862010D01*
X8389Y862101D01*
X8460Y862189D01*
X8535Y862275D01*
X8612Y862358D01*
X8692Y862438D01*
X8775Y862515D01*
X8861Y862590D01*
X8949Y862661D01*
X9040Y862729D01*
X9133Y862794D01*
X9228Y862856D01*
X9325Y862915D01*
X9424Y862970D01*
X9525Y863021D01*
X9628Y863069D01*
X9733Y863113D01*
X9838Y863154D01*
X9946Y863191D01*
X10054Y863224D01*
X10164Y863253D01*
X10274Y863279D01*
X10386Y863301D01*
X10498Y863318D01*
X10610Y863332D01*
X10723Y863342D01*
X10837Y863348D01*
X10950Y863350D01*
X11063Y863348D01*
X11177Y863342D01*
X11290Y863332D01*
X11402Y863318D01*
X11514Y863301D01*
X11626Y863279D01*
X11736Y863253D01*
X11846Y863224D01*
X11954Y863191D01*
X12062Y863154D01*
X12167Y863113D01*
X12272Y863069D01*
X12375Y863021D01*
X12476Y862970D01*
X12575Y862915D01*
X12672Y862856D01*
X12767Y862794D01*
X12860Y862729D01*
X12951Y862661D01*
X13039Y862590D01*
X13125Y862515D01*
X13208Y862438D01*
X13288Y862358D01*
X13365Y862275D01*
X13440Y862189D01*
X13511Y862101D01*
X13579Y862010D01*
X13644Y861917D01*
X13706Y861822D01*
X13765Y861725D01*
X13820Y861626D01*
X13871Y861525D01*
X13919Y861422D01*
X13963Y861317D01*
X14004Y861212D01*
X14041Y861104D01*
X14074Y860996D01*
X14103Y860886D01*
X14129Y860776D01*
X14151Y860664D01*
X14168Y860552D01*
X14182Y860440D01*
X14192Y860327D01*
X14198Y860213D01*
X14200Y860100D01*
X14198Y859987D01*
X14192Y859873D01*
X14182Y859760D01*
X14168Y859648D01*
X14151Y859536D01*
X14129Y859424D01*
X14103Y859314D01*
X14074Y859204D01*
X14041Y859096D01*
X14004Y858988D01*
X13963Y858883D01*
X13919Y858778D01*
X13871Y858675D01*
X13820Y858574D01*
X13765Y858475D01*
X13706Y858378D01*
X13644Y858283D01*
X13579Y858190D01*
X13511Y858099D01*
X13440Y858011D01*
X13365Y857925D01*
X13288Y857842D01*
X13208Y857762D01*
X13125Y857685D01*
X13039Y857610D01*
X12951Y857539D01*
X12860Y857471D01*
X12767Y857406D01*
X12672Y857344D01*
X12575Y857285D01*
X12476Y857230D01*
X12375Y857179D01*
X12272Y857131D01*
X12167Y857087D01*
X12062Y857046D01*
X11954Y857009D01*
X11846Y856976D01*
X11736Y856947D01*
X11626Y856921D01*
X11514Y856899D01*
X11402Y856882D01*
X11290Y856868D01*
X11177Y856858D01*
X11063Y856852D01*
X10950Y856850D01*
X10837Y856852D01*
X10723Y856858D01*
X10610Y856868D01*
X10498Y856882D01*
X10386Y856899D01*
X10274Y856921D01*
X10164Y856947D01*
X10054Y856976D01*
X9946Y857009D01*
X9838Y857046D01*
X9733Y857087D01*
X9628Y857131D01*
X9525Y857179D01*
X9424Y857230D01*
X9325Y857285D01*
X9228Y857344D01*
X9133Y857406D01*
X9040Y857471D01*
X8949Y857539D01*
X8861Y857610D01*
X8775Y857685D01*
X8692Y857762D01*
X8612Y857842D01*
X8535Y857925D01*
X8460Y858011D01*
X8389Y858099D01*
X8321Y858190D01*
X8256Y858283D01*
X8194Y858378D01*
X8135Y858475D01*
X8080Y858574D01*
X8029Y858675D01*
X7981Y858778D01*
X7937Y858883D01*
X7896Y858988D01*
X7859Y859096D01*
X7826Y859204D01*
X7797Y859314D01*
X7771Y859424D01*
X7749Y859536D01*
X7732Y859648D01*
X7718Y859760D01*
X7708Y859873D01*
X7702Y859987D01*
X7700Y860100D01*
X7700Y917900D02*
X7702Y918013D01*
X7708Y918127D01*
X7718Y918240D01*
X7732Y918352D01*
X7749Y918464D01*
X7771Y918576D01*
X7797Y918686D01*
X7826Y918796D01*
X7859Y918904D01*
X7896Y919012D01*
X7937Y919117D01*
X7981Y919222D01*
X8029Y919325D01*
X8080Y919426D01*
X8135Y919525D01*
X8194Y919622D01*
X8256Y919717D01*
X8321Y919810D01*
X8389Y919901D01*
X8460Y919989D01*
X8535Y920075D01*
X8612Y920158D01*
X8692Y920238D01*
X8775Y920315D01*
X8861Y920390D01*
X8949Y920461D01*
X9040Y920529D01*
X9133Y920594D01*
X9228Y920656D01*
X9325Y920715D01*
X9424Y920770D01*
X9525Y920821D01*
X9628Y920869D01*
X9733Y920913D01*
X9838Y920954D01*
X9946Y920991D01*
X10054Y921024D01*
X10164Y921053D01*
X10274Y921079D01*
X10386Y921101D01*
X10498Y921118D01*
X10610Y921132D01*
X10723Y921142D01*
X10837Y921148D01*
X10950Y921150D01*
X11063Y921148D01*
X11177Y921142D01*
X11290Y921132D01*
X11402Y921118D01*
X11514Y921101D01*
X11626Y921079D01*
X11736Y921053D01*
X11846Y921024D01*
X11954Y920991D01*
X12062Y920954D01*
X12167Y920913D01*
X12272Y920869D01*
X12375Y920821D01*
X12476Y920770D01*
X12575Y920715D01*
X12672Y920656D01*
X12767Y920594D01*
X12860Y920529D01*
X12951Y920461D01*
X13039Y920390D01*
X13125Y920315D01*
X13208Y920238D01*
X13288Y920158D01*
X13365Y920075D01*
X13440Y919989D01*
X13511Y919901D01*
X13579Y919810D01*
X13644Y919717D01*
X13706Y919622D01*
X13765Y919525D01*
X13820Y919426D01*
X13871Y919325D01*
X13919Y919222D01*
X13963Y919117D01*
X14004Y919012D01*
X14041Y918904D01*
X14074Y918796D01*
X14103Y918686D01*
X14129Y918576D01*
X14151Y918464D01*
X14168Y918352D01*
X14182Y918240D01*
X14192Y918127D01*
X14198Y918013D01*
X14200Y917900D01*
X14198Y917787D01*
X14192Y917673D01*
X14182Y917560D01*
X14168Y917448D01*
X14151Y917336D01*
X14129Y917224D01*
X14103Y917114D01*
X14074Y917004D01*
X14041Y916896D01*
X14004Y916788D01*
X13963Y916683D01*
X13919Y916578D01*
X13871Y916475D01*
X13820Y916374D01*
X13765Y916275D01*
X13706Y916178D01*
X13644Y916083D01*
X13579Y915990D01*
X13511Y915899D01*
X13440Y915811D01*
X13365Y915725D01*
X13288Y915642D01*
X13208Y915562D01*
X13125Y915485D01*
X13039Y915410D01*
X12951Y915339D01*
X12860Y915271D01*
X12767Y915206D01*
X12672Y915144D01*
X12575Y915085D01*
X12476Y915030D01*
X12375Y914979D01*
X12272Y914931D01*
X12167Y914887D01*
X12062Y914846D01*
X11954Y914809D01*
X11846Y914776D01*
X11736Y914747D01*
X11626Y914721D01*
X11514Y914699D01*
X11402Y914682D01*
X11290Y914668D01*
X11177Y914658D01*
X11063Y914652D01*
X10950Y914650D01*
X10837Y914652D01*
X10723Y914658D01*
X10610Y914668D01*
X10498Y914682D01*
X10386Y914699D01*
X10274Y914721D01*
X10164Y914747D01*
X10054Y914776D01*
X9946Y914809D01*
X9838Y914846D01*
X9733Y914887D01*
X9628Y914931D01*
X9525Y914979D01*
X9424Y915030D01*
X9325Y915085D01*
X9228Y915144D01*
X9133Y915206D01*
X9040Y915271D01*
X8949Y915339D01*
X8861Y915410D01*
X8775Y915485D01*
X8692Y915562D01*
X8612Y915642D01*
X8535Y915725D01*
X8460Y915811D01*
X8389Y915899D01*
X8321Y915990D01*
X8256Y916083D01*
X8194Y916178D01*
X8135Y916275D01*
X8080Y916374D01*
X8029Y916475D01*
X7981Y916578D01*
X7937Y916683D01*
X7896Y916788D01*
X7859Y916896D01*
X7826Y917004D01*
X7797Y917114D01*
X7771Y917224D01*
X7749Y917336D01*
X7732Y917448D01*
X7718Y917560D01*
X7708Y917673D01*
X7702Y917787D01*
X7700Y917900D01*
D13*
X10750Y845820D02*
X21750Y845820D01*
X21750Y932180D02*
X10750Y932180D01*
X-22400Y845820D02*
X-28600Y845820D01*
X-28600Y932180D02*
X-22400Y932180D01*
M02*
