G04 EAGLE Gerber RS-274X export*
G75*
%MOMM*%
%FSLAX34Y34*%
%LPD*%
%INInner Layer 15*%
%IPPOS*%
%AMOC8*
5,1,8,0,0,1.08239X$1,22.5*%
G01*
%ADD10C,0.755600*%
%ADD11C,1.524000*%
%ADD12C,0.660400*%
%ADD13C,0.558800*%
%ADD14C,0.177800*%

G36*
X568001Y759D02*
X568001Y759D01*
X568090Y765D01*
X568122Y779D01*
X568157Y784D01*
X568235Y826D01*
X568317Y860D01*
X568343Y883D01*
X568375Y900D01*
X568435Y964D01*
X568502Y1022D01*
X568520Y1052D01*
X568544Y1078D01*
X568581Y1158D01*
X568626Y1234D01*
X568637Y1278D01*
X568648Y1301D01*
X568649Y1316D01*
X568650Y1318D01*
X568652Y1336D01*
X568668Y1397D01*
X575298Y47136D01*
X575298Y47142D01*
X575300Y47152D01*
X587448Y144940D01*
X587447Y144948D01*
X587450Y144960D01*
X596940Y243042D01*
X596939Y243050D01*
X596941Y243063D01*
X603766Y341366D01*
X603765Y341374D01*
X603767Y341387D01*
X607922Y439839D01*
X607921Y439845D01*
X607922Y439854D01*
X608919Y485504D01*
X608915Y485532D01*
X608918Y485560D01*
X608898Y485654D01*
X608884Y485748D01*
X608872Y485773D01*
X608866Y485801D01*
X608817Y485883D01*
X608774Y485968D01*
X608754Y485988D01*
X608739Y486012D01*
X608667Y486074D01*
X608599Y486141D01*
X608574Y486153D01*
X608553Y486172D01*
X608464Y486208D01*
X608379Y486249D01*
X608351Y486253D01*
X608324Y486264D01*
X608158Y486282D01*
X546999Y486282D01*
X536630Y489651D01*
X527810Y496060D01*
X525126Y499754D01*
X525120Y499759D01*
X525116Y499766D01*
X525033Y499845D01*
X524951Y499927D01*
X524944Y499930D01*
X524938Y499936D01*
X524833Y499984D01*
X524730Y500035D01*
X524722Y500036D01*
X524715Y500039D01*
X524601Y500052D01*
X524486Y500067D01*
X524478Y500065D01*
X524471Y500066D01*
X524358Y500042D01*
X524245Y500020D01*
X524238Y500016D01*
X524230Y500014D01*
X524132Y499955D01*
X524031Y499898D01*
X524026Y499892D01*
X524019Y499888D01*
X523944Y499800D01*
X523867Y499714D01*
X523864Y499707D01*
X523859Y499701D01*
X523816Y499594D01*
X523771Y499488D01*
X523770Y499480D01*
X523767Y499473D01*
X523749Y499306D01*
X523749Y405137D01*
X521963Y403351D01*
X460382Y403351D01*
X460311Y403340D01*
X460239Y403338D01*
X460190Y403320D01*
X460139Y403312D01*
X460076Y403278D01*
X460008Y403253D01*
X459968Y403221D01*
X459922Y403196D01*
X459872Y403144D01*
X459816Y403100D01*
X459788Y403056D01*
X459752Y403018D01*
X459722Y402953D01*
X459683Y402893D01*
X459671Y402842D01*
X459649Y402795D01*
X459641Y402724D01*
X459623Y402654D01*
X459627Y402602D01*
X459622Y402551D01*
X459637Y402480D01*
X459642Y402409D01*
X459663Y402361D01*
X459674Y402310D01*
X459711Y402249D01*
X459739Y402183D01*
X459783Y402127D01*
X459800Y402099D01*
X459818Y402084D01*
X459843Y402052D01*
X462281Y399615D01*
X462281Y395405D01*
X460091Y393215D01*
X460038Y393142D01*
X459978Y393072D01*
X459966Y393042D01*
X459947Y393016D01*
X459920Y392929D01*
X459886Y392844D01*
X459882Y392803D01*
X459875Y392781D01*
X459876Y392748D01*
X459868Y392677D01*
X459868Y351133D01*
X446121Y337386D01*
X446068Y337313D01*
X446008Y337243D01*
X445996Y337213D01*
X445977Y337187D01*
X445950Y337100D01*
X445916Y337015D01*
X445912Y336974D01*
X445905Y336952D01*
X445906Y336919D01*
X445898Y336848D01*
X445898Y294790D01*
X445912Y294700D01*
X445920Y294609D01*
X445932Y294580D01*
X445937Y294548D01*
X445980Y294467D01*
X446016Y294383D01*
X446042Y294351D01*
X446053Y294330D01*
X446076Y294308D01*
X446121Y294252D01*
X452315Y288058D01*
X452409Y287990D01*
X452503Y287920D01*
X452509Y287918D01*
X452514Y287915D01*
X452625Y287880D01*
X452737Y287844D01*
X452743Y287844D01*
X452749Y287842D01*
X452866Y287845D01*
X452983Y287846D01*
X452990Y287848D01*
X452995Y287849D01*
X453013Y287855D01*
X453144Y287893D01*
X455330Y288799D01*
X459070Y288799D01*
X462524Y287368D01*
X465168Y284724D01*
X466599Y281270D01*
X466599Y277530D01*
X465168Y274076D01*
X462524Y271432D01*
X459070Y270001D01*
X455330Y270001D01*
X451876Y271432D01*
X449232Y274076D01*
X447801Y277530D01*
X447801Y281270D01*
X448707Y283456D01*
X448734Y283569D01*
X448762Y283683D01*
X448762Y283689D01*
X448763Y283695D01*
X448752Y283812D01*
X448743Y283928D01*
X448741Y283934D01*
X448740Y283940D01*
X448692Y284048D01*
X448647Y284154D01*
X448642Y284160D01*
X448640Y284165D01*
X448627Y284179D01*
X448542Y284285D01*
X442348Y290479D01*
X440562Y292265D01*
X440562Y339374D01*
X454309Y353121D01*
X454362Y353194D01*
X454422Y353264D01*
X454434Y353294D01*
X454453Y353320D01*
X454480Y353407D01*
X454514Y353492D01*
X454518Y353533D01*
X454525Y353555D01*
X454524Y353588D01*
X454532Y353659D01*
X454532Y392677D01*
X454518Y392767D01*
X454510Y392858D01*
X454498Y392888D01*
X454493Y392920D01*
X454450Y393001D01*
X454414Y393084D01*
X454388Y393117D01*
X454377Y393137D01*
X454354Y393159D01*
X454309Y393215D01*
X452119Y395405D01*
X452119Y399615D01*
X454557Y402052D01*
X454598Y402110D01*
X454648Y402162D01*
X454670Y402209D01*
X454700Y402251D01*
X454721Y402320D01*
X454751Y402385D01*
X454757Y402437D01*
X454772Y402487D01*
X454771Y402558D01*
X454778Y402629D01*
X454767Y402680D01*
X454766Y402732D01*
X454741Y402800D01*
X454726Y402870D01*
X454699Y402915D01*
X454682Y402963D01*
X454637Y403019D01*
X454600Y403081D01*
X454560Y403115D01*
X454528Y403155D01*
X454468Y403194D01*
X454413Y403241D01*
X454365Y403260D01*
X454321Y403288D01*
X454252Y403306D01*
X454185Y403333D01*
X454114Y403341D01*
X454082Y403349D01*
X454059Y403347D01*
X454018Y403351D01*
X372701Y403351D01*
X372630Y403340D01*
X372558Y403338D01*
X372509Y403320D01*
X372458Y403312D01*
X372395Y403278D01*
X372327Y403253D01*
X372287Y403221D01*
X372241Y403196D01*
X372191Y403144D01*
X372135Y403100D01*
X372107Y403056D01*
X372071Y403018D01*
X372041Y402953D01*
X372002Y402893D01*
X371990Y402842D01*
X371968Y402795D01*
X371960Y402724D01*
X371942Y402654D01*
X371946Y402602D01*
X371941Y402551D01*
X371956Y402480D01*
X371961Y402409D01*
X371982Y402361D01*
X371993Y402310D01*
X372030Y402249D01*
X372058Y402183D01*
X372102Y402127D01*
X372119Y402099D01*
X372137Y402084D01*
X372162Y402052D01*
X379955Y394259D01*
X381741Y392474D01*
X381741Y391548D01*
X381752Y391477D01*
X381754Y391405D01*
X381772Y391356D01*
X381780Y391305D01*
X381814Y391242D01*
X381838Y391174D01*
X381871Y391134D01*
X381895Y391088D01*
X381947Y391038D01*
X381992Y390982D01*
X382036Y390954D01*
X382074Y390918D01*
X382139Y390888D01*
X382199Y390849D01*
X382250Y390837D01*
X382297Y390815D01*
X382368Y390807D01*
X382438Y390789D01*
X382490Y390793D01*
X382541Y390788D01*
X382611Y390803D01*
X382683Y390808D01*
X382731Y390829D01*
X382782Y390840D01*
X382843Y390877D01*
X382909Y390905D01*
X382912Y390907D01*
X387146Y390907D01*
X390123Y387931D01*
X390123Y384833D01*
X390137Y384743D01*
X390144Y384652D01*
X390157Y384623D01*
X390162Y384591D01*
X390205Y384510D01*
X390241Y384426D01*
X390266Y384394D01*
X390277Y384373D01*
X390301Y384351D01*
X390346Y384295D01*
X410338Y364303D01*
X410338Y113195D01*
X395194Y98051D01*
X395141Y97977D01*
X395081Y97908D01*
X395069Y97877D01*
X395050Y97851D01*
X395023Y97764D01*
X394989Y97679D01*
X394985Y97638D01*
X394978Y97616D01*
X394979Y97584D01*
X394971Y97513D01*
X394971Y94415D01*
X394057Y93502D01*
X394016Y93444D01*
X393966Y93392D01*
X393944Y93345D01*
X393914Y93303D01*
X393893Y93234D01*
X393863Y93169D01*
X393857Y93117D01*
X393842Y93067D01*
X393843Y92996D01*
X393836Y92925D01*
X393847Y92874D01*
X393848Y92822D01*
X393873Y92754D01*
X393888Y92684D01*
X393915Y92639D01*
X393932Y92591D01*
X393977Y92535D01*
X394014Y92473D01*
X394054Y92439D01*
X394086Y92399D01*
X394146Y92360D01*
X394201Y92313D01*
X394249Y92294D01*
X394293Y92266D01*
X394363Y92248D01*
X394429Y92221D01*
X394500Y92213D01*
X394532Y92205D01*
X394555Y92207D01*
X394596Y92203D01*
X415621Y92203D01*
X415711Y92217D01*
X415802Y92225D01*
X415831Y92237D01*
X415863Y92242D01*
X415944Y92285D01*
X416028Y92321D01*
X416060Y92347D01*
X416081Y92358D01*
X416103Y92381D01*
X416159Y92426D01*
X515904Y192171D01*
X515957Y192245D01*
X516017Y192315D01*
X516029Y192345D01*
X516048Y192371D01*
X516075Y192458D01*
X516109Y192543D01*
X516113Y192584D01*
X516120Y192606D01*
X516119Y192638D01*
X516127Y192709D01*
X516127Y347041D01*
X516113Y347131D01*
X516105Y347222D01*
X516093Y347251D01*
X516088Y347283D01*
X516045Y347364D01*
X516009Y347448D01*
X515983Y347480D01*
X515972Y347501D01*
X515949Y347523D01*
X515904Y347579D01*
X494137Y369346D01*
X494063Y369399D01*
X493993Y369459D01*
X493963Y369471D01*
X493937Y369490D01*
X493850Y369517D01*
X493765Y369551D01*
X493724Y369555D01*
X493702Y369562D01*
X493670Y369561D01*
X493599Y369569D01*
X493195Y369569D01*
X490219Y372545D01*
X490219Y376755D01*
X493195Y379731D01*
X497405Y379731D01*
X500381Y376755D01*
X500381Y376351D01*
X500395Y376261D01*
X500403Y376170D01*
X500415Y376141D01*
X500420Y376109D01*
X500463Y376028D01*
X500499Y375944D01*
X500525Y375912D01*
X500536Y375891D01*
X500559Y375869D01*
X500604Y375813D01*
X525273Y351144D01*
X525273Y188606D01*
X419724Y83057D01*
X247904Y83057D01*
X247884Y83054D01*
X247865Y83056D01*
X247763Y83034D01*
X247661Y83018D01*
X247644Y83008D01*
X247624Y83004D01*
X247535Y82951D01*
X247444Y82902D01*
X247430Y82888D01*
X247413Y82878D01*
X247346Y82799D01*
X247274Y82724D01*
X247266Y82706D01*
X247253Y82691D01*
X247214Y82595D01*
X247171Y82501D01*
X247169Y82481D01*
X247161Y82463D01*
X247143Y82296D01*
X247143Y71508D01*
X247158Y71418D01*
X247165Y71327D01*
X247177Y71297D01*
X247182Y71265D01*
X247225Y71184D01*
X247261Y71101D01*
X247287Y71068D01*
X247298Y71048D01*
X247321Y71026D01*
X247366Y70970D01*
X247651Y70685D01*
X247651Y66475D01*
X244675Y63499D01*
X240465Y63499D01*
X237489Y66475D01*
X237489Y70685D01*
X237774Y70970D01*
X237827Y71043D01*
X237887Y71113D01*
X237899Y71143D01*
X237918Y71169D01*
X237945Y71256D01*
X237979Y71341D01*
X237983Y71382D01*
X237990Y71404D01*
X237989Y71437D01*
X237997Y71508D01*
X237997Y82296D01*
X237994Y82316D01*
X237996Y82335D01*
X237974Y82437D01*
X237958Y82539D01*
X237948Y82556D01*
X237944Y82576D01*
X237891Y82665D01*
X237842Y82756D01*
X237828Y82770D01*
X237818Y82787D01*
X237739Y82854D01*
X237664Y82926D01*
X237646Y82934D01*
X237631Y82947D01*
X237535Y82986D01*
X237441Y83029D01*
X237421Y83031D01*
X237403Y83039D01*
X237236Y83057D01*
X19989Y83057D01*
X19899Y83043D01*
X19808Y83035D01*
X19779Y83023D01*
X19747Y83018D01*
X19666Y82975D01*
X19582Y82939D01*
X19550Y82913D01*
X19529Y82902D01*
X19507Y82879D01*
X19451Y82834D01*
X9447Y72830D01*
X9401Y72766D01*
X9383Y72747D01*
X9375Y72730D01*
X9309Y72642D01*
X9307Y72636D01*
X9304Y72631D01*
X9269Y72519D01*
X9233Y72408D01*
X9233Y72402D01*
X9231Y72396D01*
X9234Y72279D01*
X9235Y72162D01*
X9238Y72155D01*
X9238Y72150D01*
X9244Y72132D01*
X9282Y72001D01*
X9399Y71720D01*
X9399Y67980D01*
X7968Y64526D01*
X5324Y61882D01*
X1870Y60451D01*
X-1870Y60451D01*
X-5324Y61882D01*
X-7968Y64526D01*
X-9399Y67980D01*
X-9399Y71720D01*
X-7968Y75174D01*
X-5324Y77818D01*
X-1870Y79249D01*
X1870Y79249D01*
X2151Y79132D01*
X2265Y79106D01*
X2378Y79077D01*
X2384Y79077D01*
X2390Y79076D01*
X2507Y79087D01*
X2623Y79096D01*
X2629Y79099D01*
X2635Y79099D01*
X2743Y79147D01*
X2849Y79192D01*
X2855Y79197D01*
X2860Y79199D01*
X2874Y79212D01*
X2980Y79297D01*
X15886Y92203D01*
X248666Y92203D01*
X248686Y92206D01*
X248705Y92204D01*
X248807Y92226D01*
X248909Y92242D01*
X248926Y92252D01*
X248946Y92256D01*
X249035Y92309D01*
X249126Y92358D01*
X249140Y92372D01*
X249157Y92382D01*
X249224Y92461D01*
X249296Y92536D01*
X249304Y92554D01*
X249317Y92569D01*
X249356Y92665D01*
X249399Y92759D01*
X249401Y92779D01*
X249409Y92797D01*
X249427Y92964D01*
X249427Y141852D01*
X249413Y141942D01*
X249405Y142033D01*
X249393Y142063D01*
X249388Y142095D01*
X249345Y142176D01*
X249309Y142259D01*
X249283Y142292D01*
X249272Y142312D01*
X249249Y142334D01*
X249204Y142390D01*
X248919Y142675D01*
X248919Y146885D01*
X251895Y149861D01*
X256104Y149861D01*
X256383Y149582D01*
X256441Y149541D01*
X256493Y149491D01*
X256540Y149469D01*
X256582Y149439D01*
X256651Y149418D01*
X256716Y149388D01*
X256768Y149382D01*
X256818Y149367D01*
X256889Y149368D01*
X256960Y149361D01*
X257011Y149372D01*
X257063Y149373D01*
X257131Y149398D01*
X257201Y149413D01*
X257246Y149440D01*
X257294Y149457D01*
X257350Y149502D01*
X257412Y149539D01*
X257446Y149579D01*
X257486Y149611D01*
X257525Y149671D01*
X257572Y149726D01*
X257591Y149774D01*
X257619Y149818D01*
X257637Y149887D01*
X257664Y149954D01*
X257672Y150025D01*
X257680Y150057D01*
X257678Y150080D01*
X257682Y150121D01*
X257682Y370078D01*
X257679Y370098D01*
X257681Y370117D01*
X257659Y370219D01*
X257643Y370321D01*
X257633Y370338D01*
X257629Y370358D01*
X257576Y370447D01*
X257527Y370538D01*
X257513Y370552D01*
X257503Y370569D01*
X257424Y370636D01*
X257349Y370708D01*
X257331Y370716D01*
X257316Y370729D01*
X257220Y370768D01*
X257126Y370811D01*
X257106Y370813D01*
X257088Y370821D01*
X256921Y370839D01*
X254022Y370839D01*
X254000Y370850D01*
X253958Y370880D01*
X253889Y370901D01*
X253824Y370931D01*
X253772Y370937D01*
X253723Y370952D01*
X253651Y370951D01*
X253580Y370958D01*
X253529Y370947D01*
X253477Y370946D01*
X253409Y370921D01*
X253339Y370906D01*
X253294Y370879D01*
X253246Y370862D01*
X253190Y370817D01*
X253128Y370780D01*
X253094Y370740D01*
X253054Y370708D01*
X253015Y370648D01*
X252968Y370593D01*
X252949Y370545D01*
X252921Y370501D01*
X252903Y370432D01*
X252876Y370365D01*
X252868Y370294D01*
X252860Y370263D01*
X252862Y370239D01*
X252858Y370198D01*
X252858Y348495D01*
X252872Y348405D01*
X252880Y348314D01*
X252892Y348284D01*
X252897Y348252D01*
X252940Y348171D01*
X252976Y348088D01*
X253002Y348055D01*
X253013Y348035D01*
X253036Y348013D01*
X253081Y347957D01*
X255271Y345767D01*
X255271Y341557D01*
X252295Y338581D01*
X248085Y338581D01*
X245109Y341557D01*
X245109Y345767D01*
X247299Y347957D01*
X247352Y348030D01*
X247412Y348100D01*
X247424Y348130D01*
X247443Y348156D01*
X247470Y348243D01*
X247504Y348328D01*
X247508Y348369D01*
X247515Y348391D01*
X247514Y348424D01*
X247522Y348495D01*
X247522Y402837D01*
X247508Y402927D01*
X247500Y403018D01*
X247488Y403048D01*
X247483Y403080D01*
X247440Y403161D01*
X247404Y403244D01*
X247378Y403277D01*
X247367Y403297D01*
X247344Y403319D01*
X247299Y403375D01*
X245109Y405565D01*
X245109Y409775D01*
X248085Y412751D01*
X252295Y412751D01*
X255271Y409775D01*
X255271Y405565D01*
X253081Y403375D01*
X253028Y403302D01*
X252968Y403232D01*
X252956Y403202D01*
X252937Y403176D01*
X252910Y403089D01*
X252876Y403004D01*
X252872Y402963D01*
X252865Y402941D01*
X252866Y402908D01*
X252858Y402837D01*
X252858Y381642D01*
X252869Y381571D01*
X252871Y381499D01*
X252889Y381450D01*
X252897Y381399D01*
X252931Y381336D01*
X252956Y381268D01*
X252988Y381228D01*
X253013Y381182D01*
X253064Y381132D01*
X253109Y381076D01*
X253153Y381048D01*
X253191Y381012D01*
X253256Y380982D01*
X253316Y380943D01*
X253367Y380931D01*
X253414Y380909D01*
X253485Y380901D01*
X253555Y380883D01*
X253607Y380887D01*
X253658Y380882D01*
X253729Y380897D01*
X253800Y380902D01*
X253848Y380923D01*
X253899Y380934D01*
X253960Y380971D01*
X254026Y380999D01*
X254029Y381001D01*
X258264Y381001D01*
X261240Y378025D01*
X261240Y374927D01*
X261254Y374837D01*
X261262Y374746D01*
X261274Y374717D01*
X261279Y374685D01*
X261322Y374604D01*
X261358Y374520D01*
X261384Y374488D01*
X261395Y374467D01*
X261418Y374445D01*
X261463Y374389D01*
X263018Y372834D01*
X263018Y147470D01*
X263032Y147380D01*
X263040Y147289D01*
X263052Y147260D01*
X263057Y147228D01*
X263100Y147147D01*
X263136Y147063D01*
X263162Y147031D01*
X263173Y147010D01*
X263196Y146988D01*
X263241Y146932D01*
X265169Y145004D01*
X265243Y144951D01*
X265312Y144891D01*
X265343Y144879D01*
X265369Y144860D01*
X265456Y144833D01*
X265541Y144799D01*
X265582Y144795D01*
X265604Y144788D01*
X265636Y144789D01*
X265707Y144781D01*
X268805Y144781D01*
X271781Y141805D01*
X271781Y137595D01*
X268805Y134619D01*
X264595Y134619D01*
X261619Y137595D01*
X261619Y140693D01*
X261605Y140783D01*
X261597Y140874D01*
X261585Y140903D01*
X261580Y140935D01*
X261537Y141016D01*
X261501Y141100D01*
X261475Y141132D01*
X261464Y141153D01*
X261441Y141175D01*
X261396Y141231D01*
X260055Y142573D01*
X260038Y142584D01*
X260026Y142600D01*
X259939Y142656D01*
X259855Y142716D01*
X259836Y142722D01*
X259819Y142733D01*
X259719Y142758D01*
X259620Y142789D01*
X259600Y142788D01*
X259580Y142793D01*
X259478Y142785D01*
X259374Y142782D01*
X259355Y142775D01*
X259335Y142774D01*
X259240Y142733D01*
X259143Y142698D01*
X259127Y142685D01*
X259109Y142678D01*
X258978Y142573D01*
X258796Y142390D01*
X258743Y142317D01*
X258683Y142247D01*
X258671Y142217D01*
X258652Y142191D01*
X258625Y142104D01*
X258591Y142019D01*
X258587Y141978D01*
X258580Y141956D01*
X258581Y141923D01*
X258573Y141852D01*
X258573Y92964D01*
X258576Y92944D01*
X258574Y92925D01*
X258596Y92823D01*
X258612Y92721D01*
X258622Y92704D01*
X258626Y92684D01*
X258679Y92595D01*
X258728Y92504D01*
X258742Y92490D01*
X258752Y92473D01*
X258831Y92406D01*
X258906Y92334D01*
X258924Y92326D01*
X258939Y92313D01*
X259035Y92274D01*
X259129Y92231D01*
X259149Y92229D01*
X259167Y92221D01*
X259334Y92203D01*
X375024Y92203D01*
X375095Y92214D01*
X375167Y92216D01*
X375216Y92234D01*
X375267Y92242D01*
X375330Y92276D01*
X375398Y92301D01*
X375438Y92333D01*
X375484Y92358D01*
X375534Y92410D01*
X375590Y92454D01*
X375618Y92498D01*
X375654Y92536D01*
X375684Y92601D01*
X375723Y92661D01*
X375735Y92712D01*
X375757Y92759D01*
X375765Y92830D01*
X375783Y92900D01*
X375779Y92952D01*
X375784Y93003D01*
X375769Y93074D01*
X375764Y93145D01*
X375743Y93193D01*
X375732Y93244D01*
X375695Y93305D01*
X375667Y93371D01*
X375623Y93427D01*
X375606Y93455D01*
X375588Y93470D01*
X375563Y93502D01*
X374649Y94415D01*
X374649Y98625D01*
X377625Y101601D01*
X380723Y101601D01*
X380813Y101615D01*
X380904Y101623D01*
X380933Y101635D01*
X380965Y101640D01*
X381046Y101683D01*
X381130Y101719D01*
X381162Y101745D01*
X381183Y101756D01*
X381205Y101779D01*
X381261Y101824D01*
X401223Y121786D01*
X401276Y121860D01*
X401336Y121929D01*
X401348Y121960D01*
X401367Y121986D01*
X401394Y122073D01*
X401428Y122158D01*
X401432Y122199D01*
X401439Y122221D01*
X401438Y122253D01*
X401446Y122324D01*
X401446Y356892D01*
X401432Y356982D01*
X401424Y357073D01*
X401412Y357103D01*
X401407Y357135D01*
X401364Y357215D01*
X401328Y357299D01*
X401302Y357331D01*
X401291Y357352D01*
X401268Y357374D01*
X401223Y357430D01*
X378191Y380463D01*
X376405Y382248D01*
X376405Y389948D01*
X376390Y390038D01*
X376383Y390129D01*
X376371Y390159D01*
X376365Y390191D01*
X376323Y390272D01*
X376287Y390356D01*
X376261Y390388D01*
X376250Y390408D01*
X376227Y390431D01*
X376182Y390487D01*
X369890Y396778D01*
X369817Y396831D01*
X369747Y396891D01*
X369717Y396903D01*
X369691Y396922D01*
X369604Y396949D01*
X369519Y396983D01*
X369478Y396987D01*
X369456Y396994D01*
X369423Y396993D01*
X369352Y397001D01*
X344812Y397001D01*
X344722Y396987D01*
X344631Y396979D01*
X344601Y396967D01*
X344569Y396962D01*
X344488Y396919D01*
X344405Y396883D01*
X344372Y396857D01*
X344352Y396846D01*
X344330Y396823D01*
X344274Y396778D01*
X343989Y396493D01*
X339779Y396493D01*
X336803Y399469D01*
X336803Y403679D01*
X339779Y406655D01*
X343989Y406655D01*
X346965Y403679D01*
X346965Y403098D01*
X346968Y403078D01*
X346966Y403059D01*
X346988Y402957D01*
X347004Y402855D01*
X347014Y402838D01*
X347018Y402818D01*
X347071Y402729D01*
X347120Y402638D01*
X347134Y402624D01*
X347144Y402607D01*
X347223Y402540D01*
X347298Y402468D01*
X347316Y402460D01*
X347331Y402447D01*
X347427Y402408D01*
X347521Y402365D01*
X347541Y402363D01*
X347559Y402355D01*
X347726Y402337D01*
X366214Y402337D01*
X366285Y402348D01*
X366356Y402350D01*
X366405Y402368D01*
X366457Y402376D01*
X366520Y402410D01*
X366587Y402435D01*
X366628Y402467D01*
X366674Y402492D01*
X366723Y402544D01*
X366779Y402588D01*
X366808Y402632D01*
X366843Y402670D01*
X366874Y402735D01*
X366912Y402795D01*
X366925Y402846D01*
X366947Y402893D01*
X366955Y402964D01*
X366972Y403034D01*
X366968Y403086D01*
X366974Y403137D01*
X366959Y403208D01*
X366953Y403279D01*
X366933Y403327D01*
X366922Y403378D01*
X366885Y403439D01*
X366857Y403505D01*
X366812Y403561D01*
X366796Y403589D01*
X366778Y403604D01*
X366752Y403636D01*
X365251Y405137D01*
X365251Y636263D01*
X367037Y638049D01*
X521963Y638049D01*
X523749Y636263D01*
X523749Y542094D01*
X523750Y542086D01*
X523749Y542078D01*
X523770Y541965D01*
X523788Y541851D01*
X523792Y541844D01*
X523794Y541836D01*
X523850Y541735D01*
X523904Y541634D01*
X523909Y541628D01*
X523913Y541621D01*
X523999Y541543D01*
X524082Y541464D01*
X524089Y541461D01*
X524095Y541456D01*
X524201Y541409D01*
X524305Y541361D01*
X524313Y541360D01*
X524320Y541357D01*
X524435Y541346D01*
X524549Y541334D01*
X524557Y541335D01*
X524565Y541335D01*
X524677Y541361D01*
X524790Y541386D01*
X524797Y541390D01*
X524804Y541392D01*
X524902Y541453D01*
X525001Y541512D01*
X525006Y541518D01*
X525013Y541522D01*
X525126Y541646D01*
X527810Y545340D01*
X536630Y551749D01*
X546999Y555118D01*
X608254Y555118D01*
X608272Y555121D01*
X608290Y555119D01*
X608393Y555140D01*
X608497Y555157D01*
X608513Y555166D01*
X608531Y555170D01*
X608622Y555223D01*
X608715Y555273D01*
X608727Y555286D01*
X608742Y555295D01*
X608811Y555375D01*
X608884Y555451D01*
X608892Y555467D01*
X608903Y555481D01*
X608943Y555578D01*
X608988Y555674D01*
X608990Y555692D01*
X608996Y555708D01*
X609016Y555875D01*
X609238Y598804D01*
X609237Y598810D01*
X609238Y598820D01*
X607693Y691686D01*
X607692Y691695D01*
X607693Y691709D01*
X603448Y784491D01*
X603446Y784499D01*
X603447Y784513D01*
X596506Y877132D01*
X596504Y877141D01*
X596504Y877154D01*
X586873Y969533D01*
X586872Y969539D01*
X586871Y969550D01*
X582127Y1007095D01*
X582100Y1007187D01*
X582080Y1007280D01*
X582066Y1007304D01*
X582057Y1007331D01*
X582003Y1007409D01*
X581954Y1007491D01*
X581932Y1007509D01*
X581916Y1007533D01*
X581839Y1007589D01*
X581767Y1007651D01*
X581741Y1007661D01*
X581718Y1007678D01*
X581627Y1007707D01*
X581539Y1007743D01*
X581503Y1007747D01*
X581484Y1007753D01*
X581451Y1007753D01*
X581372Y1007761D01*
X131821Y1007761D01*
X131757Y1007751D01*
X131691Y1007750D01*
X131611Y1007727D01*
X131579Y1007722D01*
X131561Y1007712D01*
X131530Y1007703D01*
X128870Y1006601D01*
X125130Y1006601D01*
X122470Y1007703D01*
X122406Y1007718D01*
X122345Y1007743D01*
X122262Y1007752D01*
X122230Y1007759D01*
X122211Y1007758D01*
X122179Y1007761D01*
X68580Y1007761D01*
X68560Y1007758D01*
X68541Y1007760D01*
X68439Y1007738D01*
X68337Y1007722D01*
X68320Y1007712D01*
X68300Y1007708D01*
X68211Y1007655D01*
X68120Y1007606D01*
X68106Y1007592D01*
X68089Y1007582D01*
X68022Y1007503D01*
X67950Y1007428D01*
X67942Y1007410D01*
X67929Y1007395D01*
X67890Y1007299D01*
X67847Y1007205D01*
X67845Y1007185D01*
X67837Y1007167D01*
X67819Y1007000D01*
X67819Y875672D01*
X67830Y875601D01*
X67832Y875529D01*
X67850Y875480D01*
X67858Y875429D01*
X67892Y875366D01*
X67917Y875298D01*
X67949Y875258D01*
X67974Y875212D01*
X68025Y875162D01*
X68070Y875106D01*
X68114Y875078D01*
X68152Y875042D01*
X68217Y875012D01*
X68277Y874973D01*
X68328Y874961D01*
X68375Y874939D01*
X68446Y874931D01*
X68516Y874913D01*
X68568Y874917D01*
X68619Y874912D01*
X68690Y874927D01*
X68761Y874932D01*
X68809Y874953D01*
X68860Y874964D01*
X68921Y875001D01*
X68987Y875029D01*
X68990Y875031D01*
X73225Y875031D01*
X76201Y872055D01*
X76201Y867845D01*
X73225Y864869D01*
X70739Y864869D01*
X70719Y864866D01*
X70700Y864868D01*
X70598Y864846D01*
X70496Y864830D01*
X70479Y864820D01*
X70459Y864816D01*
X70370Y864763D01*
X70279Y864714D01*
X70265Y864700D01*
X70248Y864690D01*
X70181Y864611D01*
X70109Y864536D01*
X70101Y864518D01*
X70088Y864503D01*
X70049Y864407D01*
X70006Y864313D01*
X70004Y864293D01*
X69996Y864275D01*
X69978Y864108D01*
X69978Y788931D01*
X69989Y788860D01*
X69991Y788788D01*
X70009Y788739D01*
X70017Y788688D01*
X70051Y788625D01*
X70076Y788557D01*
X70108Y788517D01*
X70133Y788471D01*
X70185Y788421D01*
X70229Y788365D01*
X70273Y788337D01*
X70311Y788301D01*
X70376Y788271D01*
X70436Y788232D01*
X70487Y788220D01*
X70534Y788198D01*
X70605Y788190D01*
X70675Y788172D01*
X70727Y788176D01*
X70778Y788171D01*
X70849Y788186D01*
X70920Y788191D01*
X70968Y788212D01*
X71019Y788223D01*
X71080Y788260D01*
X71146Y788288D01*
X71202Y788332D01*
X71230Y788349D01*
X71245Y788367D01*
X71277Y788392D01*
X72825Y789941D01*
X73229Y789941D01*
X73319Y789955D01*
X73410Y789963D01*
X73439Y789975D01*
X73471Y789980D01*
X73552Y790023D01*
X73636Y790059D01*
X73668Y790085D01*
X73689Y790096D01*
X73711Y790119D01*
X73767Y790164D01*
X85628Y802025D01*
X85681Y802099D01*
X85741Y802169D01*
X85753Y802199D01*
X85772Y802225D01*
X85799Y802312D01*
X85833Y802397D01*
X85837Y802438D01*
X85844Y802460D01*
X85843Y802492D01*
X85851Y802563D01*
X85851Y936618D01*
X85837Y936708D01*
X85829Y936799D01*
X85817Y936829D01*
X85812Y936861D01*
X85769Y936942D01*
X85733Y937025D01*
X85707Y937058D01*
X85696Y937078D01*
X85673Y937100D01*
X85628Y937156D01*
X85089Y937695D01*
X85089Y941905D01*
X88065Y944881D01*
X92275Y944881D01*
X95251Y941905D01*
X95251Y937695D01*
X95220Y937664D01*
X95167Y937591D01*
X95107Y937521D01*
X95095Y937491D01*
X95076Y937465D01*
X95049Y937378D01*
X95015Y937293D01*
X95011Y937252D01*
X95004Y937230D01*
X95005Y937197D01*
X94997Y937126D01*
X94997Y798460D01*
X80234Y783697D01*
X80181Y783623D01*
X80121Y783553D01*
X80109Y783523D01*
X80090Y783497D01*
X80063Y783410D01*
X80029Y783325D01*
X80025Y783284D01*
X80018Y783262D01*
X80019Y783230D01*
X80011Y783159D01*
X80011Y782755D01*
X77035Y779779D01*
X72825Y779779D01*
X71277Y781328D01*
X71219Y781369D01*
X71167Y781419D01*
X71120Y781441D01*
X71078Y781471D01*
X71009Y781492D01*
X70944Y781522D01*
X70892Y781528D01*
X70842Y781543D01*
X70771Y781542D01*
X70700Y781549D01*
X70649Y781538D01*
X70597Y781537D01*
X70529Y781512D01*
X70459Y781497D01*
X70414Y781470D01*
X70366Y781453D01*
X70310Y781408D01*
X70248Y781371D01*
X70214Y781331D01*
X70174Y781299D01*
X70135Y781239D01*
X70088Y781184D01*
X70069Y781136D01*
X70041Y781092D01*
X70023Y781023D01*
X69996Y780956D01*
X69988Y780885D01*
X69980Y780853D01*
X69982Y780830D01*
X69978Y780789D01*
X69978Y700793D01*
X69992Y700703D01*
X70000Y700612D01*
X70012Y700582D01*
X70017Y700550D01*
X70060Y700469D01*
X70096Y700385D01*
X70122Y700353D01*
X70133Y700333D01*
X70156Y700311D01*
X70201Y700255D01*
X72391Y698065D01*
X72391Y693855D01*
X69415Y690879D01*
X65205Y690879D01*
X62229Y693855D01*
X62229Y698065D01*
X64419Y700255D01*
X64472Y700329D01*
X64532Y700398D01*
X64544Y700428D01*
X64563Y700454D01*
X64590Y700541D01*
X64624Y700626D01*
X64628Y700667D01*
X64635Y700689D01*
X64634Y700722D01*
X64642Y700793D01*
X64642Y863898D01*
X64628Y863988D01*
X64620Y864079D01*
X64608Y864109D01*
X64603Y864141D01*
X64560Y864222D01*
X64524Y864305D01*
X64498Y864338D01*
X64487Y864358D01*
X64464Y864380D01*
X64419Y864436D01*
X62483Y866372D01*
X62483Y1007000D01*
X62480Y1007020D01*
X62482Y1007039D01*
X62460Y1007141D01*
X62444Y1007243D01*
X62434Y1007260D01*
X62430Y1007280D01*
X62377Y1007369D01*
X62328Y1007460D01*
X62314Y1007474D01*
X62304Y1007491D01*
X62225Y1007558D01*
X62150Y1007630D01*
X62132Y1007638D01*
X62117Y1007651D01*
X62021Y1007690D01*
X61927Y1007733D01*
X61907Y1007735D01*
X61889Y1007743D01*
X61722Y1007761D01*
X-34544Y1007761D01*
X-34564Y1007758D01*
X-34583Y1007760D01*
X-34685Y1007738D01*
X-34787Y1007722D01*
X-34804Y1007712D01*
X-34824Y1007708D01*
X-34913Y1007655D01*
X-35004Y1007606D01*
X-35018Y1007592D01*
X-35035Y1007582D01*
X-35102Y1007503D01*
X-35174Y1007428D01*
X-35182Y1007410D01*
X-35195Y1007395D01*
X-35234Y1007299D01*
X-35277Y1007205D01*
X-35279Y1007185D01*
X-35287Y1007167D01*
X-35305Y1007000D01*
X-35305Y837042D01*
X-36942Y835405D01*
X-65280Y835405D01*
X-65392Y835387D01*
X-65506Y835371D01*
X-65514Y835367D01*
X-65523Y835366D01*
X-65624Y835312D01*
X-65726Y835261D01*
X-65733Y835255D01*
X-65740Y835250D01*
X-65819Y835168D01*
X-65900Y835086D01*
X-65904Y835078D01*
X-65910Y835072D01*
X-65958Y834968D01*
X-66008Y834866D01*
X-66010Y834855D01*
X-66013Y834849D01*
X-66016Y834826D01*
X-66039Y834701D01*
X-69348Y790480D01*
X-69347Y790473D01*
X-69349Y790462D01*
X-74222Y695357D01*
X-74221Y695348D01*
X-74223Y695333D01*
X-76116Y600122D01*
X-76115Y600115D01*
X-76117Y600104D01*
X-75958Y555876D01*
X-75955Y555858D01*
X-75957Y555840D01*
X-75934Y555737D01*
X-75917Y555634D01*
X-75908Y555617D01*
X-75904Y555599D01*
X-75851Y555509D01*
X-75801Y555417D01*
X-75788Y555404D01*
X-75778Y555388D01*
X-75699Y555320D01*
X-75622Y555248D01*
X-75605Y555240D01*
X-75591Y555228D01*
X-75494Y555189D01*
X-75399Y555145D01*
X-75380Y555143D01*
X-75363Y555136D01*
X-75196Y555118D01*
X-13599Y555118D01*
X-3230Y551749D01*
X5590Y545340D01*
X8274Y541646D01*
X8280Y541641D01*
X8284Y541634D01*
X8367Y541555D01*
X8449Y541473D01*
X8456Y541470D01*
X8462Y541464D01*
X8566Y541416D01*
X8670Y541365D01*
X8678Y541364D01*
X8685Y541361D01*
X8799Y541348D01*
X8914Y541333D01*
X8922Y541335D01*
X8929Y541334D01*
X9042Y541358D01*
X9155Y541380D01*
X9162Y541384D01*
X9170Y541386D01*
X9268Y541445D01*
X9369Y541502D01*
X9374Y541508D01*
X9381Y541512D01*
X9456Y541600D01*
X9533Y541686D01*
X9536Y541693D01*
X9541Y541699D01*
X9584Y541806D01*
X9629Y541912D01*
X9630Y541920D01*
X9633Y541927D01*
X9651Y542094D01*
X9651Y636263D01*
X11437Y638049D01*
X166363Y638049D01*
X168149Y636263D01*
X168149Y405137D01*
X166363Y403351D01*
X11437Y403351D01*
X9651Y405137D01*
X9651Y499306D01*
X9650Y499314D01*
X9651Y499322D01*
X9630Y499435D01*
X9612Y499549D01*
X9608Y499556D01*
X9606Y499564D01*
X9550Y499665D01*
X9496Y499766D01*
X9491Y499772D01*
X9487Y499779D01*
X9402Y499856D01*
X9318Y499936D01*
X9311Y499939D01*
X9305Y499944D01*
X9200Y499990D01*
X9095Y500039D01*
X9087Y500040D01*
X9080Y500043D01*
X8965Y500054D01*
X8851Y500066D01*
X8843Y500065D01*
X8835Y500065D01*
X8723Y500039D01*
X8610Y500014D01*
X8603Y500010D01*
X8596Y500008D01*
X8498Y499947D01*
X8399Y499888D01*
X8394Y499882D01*
X8387Y499878D01*
X8274Y499754D01*
X5590Y496060D01*
X-3230Y489651D01*
X-13599Y486282D01*
X-74758Y486282D01*
X-74786Y486278D01*
X-74814Y486280D01*
X-74906Y486258D01*
X-75000Y486243D01*
X-75025Y486229D01*
X-75053Y486223D01*
X-75134Y486172D01*
X-75218Y486127D01*
X-75237Y486107D01*
X-75261Y486092D01*
X-75322Y486018D01*
X-75387Y485949D01*
X-75399Y485923D01*
X-75417Y485902D01*
X-75451Y485813D01*
X-75491Y485726D01*
X-75494Y485698D01*
X-75504Y485671D01*
X-75519Y485504D01*
X-74522Y439855D01*
X-74521Y439848D01*
X-74522Y439839D01*
X-70367Y341387D01*
X-70366Y341379D01*
X-70366Y341366D01*
X-63541Y243063D01*
X-63539Y243055D01*
X-63540Y243042D01*
X-54050Y144960D01*
X-54048Y144952D01*
X-54048Y144940D01*
X-41900Y47152D01*
X-41898Y47146D01*
X-41898Y47136D01*
X-35268Y1397D01*
X-35241Y1313D01*
X-35222Y1226D01*
X-35204Y1196D01*
X-35194Y1162D01*
X-35142Y1091D01*
X-35096Y1015D01*
X-35069Y992D01*
X-35049Y964D01*
X-34977Y913D01*
X-34909Y855D01*
X-34876Y842D01*
X-34848Y822D01*
X-34763Y796D01*
X-34681Y763D01*
X-34636Y758D01*
X-34612Y751D01*
X-34581Y752D01*
X-34514Y745D01*
X567914Y745D01*
X568001Y759D01*
G37*
G36*
X161310Y409452D02*
X161310Y409452D01*
X161329Y409450D01*
X161431Y409472D01*
X161533Y409488D01*
X161550Y409498D01*
X161570Y409502D01*
X161659Y409555D01*
X161750Y409604D01*
X161764Y409618D01*
X161781Y409628D01*
X161848Y409707D01*
X161920Y409782D01*
X161928Y409800D01*
X161941Y409815D01*
X161980Y409911D01*
X162023Y410005D01*
X162025Y410025D01*
X162033Y410043D01*
X162051Y410210D01*
X162051Y631190D01*
X162048Y631210D01*
X162050Y631229D01*
X162028Y631331D01*
X162012Y631433D01*
X162002Y631450D01*
X161998Y631470D01*
X161945Y631559D01*
X161896Y631650D01*
X161882Y631664D01*
X161872Y631681D01*
X161793Y631748D01*
X161718Y631820D01*
X161700Y631828D01*
X161685Y631841D01*
X161589Y631880D01*
X161495Y631923D01*
X161475Y631925D01*
X161457Y631933D01*
X161290Y631951D01*
X16510Y631951D01*
X16490Y631948D01*
X16471Y631950D01*
X16369Y631928D01*
X16267Y631912D01*
X16250Y631902D01*
X16230Y631898D01*
X16141Y631845D01*
X16050Y631796D01*
X16036Y631782D01*
X16019Y631772D01*
X15952Y631693D01*
X15880Y631618D01*
X15872Y631600D01*
X15859Y631585D01*
X15820Y631489D01*
X15777Y631395D01*
X15775Y631375D01*
X15767Y631357D01*
X15749Y631190D01*
X15749Y410210D01*
X15752Y410190D01*
X15750Y410171D01*
X15772Y410069D01*
X15788Y409967D01*
X15798Y409950D01*
X15802Y409930D01*
X15855Y409841D01*
X15904Y409750D01*
X15918Y409736D01*
X15928Y409719D01*
X16007Y409652D01*
X16082Y409580D01*
X16100Y409572D01*
X16115Y409559D01*
X16211Y409520D01*
X16305Y409477D01*
X16325Y409475D01*
X16343Y409467D01*
X16510Y409449D01*
X161290Y409449D01*
X161310Y409452D01*
G37*
G36*
X516910Y409452D02*
X516910Y409452D01*
X516929Y409450D01*
X517031Y409472D01*
X517133Y409488D01*
X517150Y409498D01*
X517170Y409502D01*
X517259Y409555D01*
X517350Y409604D01*
X517364Y409618D01*
X517381Y409628D01*
X517448Y409707D01*
X517520Y409782D01*
X517528Y409800D01*
X517541Y409815D01*
X517580Y409911D01*
X517623Y410005D01*
X517625Y410025D01*
X517633Y410043D01*
X517651Y410210D01*
X517651Y631190D01*
X517648Y631210D01*
X517650Y631229D01*
X517628Y631331D01*
X517612Y631433D01*
X517602Y631450D01*
X517598Y631470D01*
X517545Y631559D01*
X517496Y631650D01*
X517482Y631664D01*
X517472Y631681D01*
X517393Y631748D01*
X517318Y631820D01*
X517300Y631828D01*
X517285Y631841D01*
X517189Y631880D01*
X517095Y631923D01*
X517075Y631925D01*
X517057Y631933D01*
X516890Y631951D01*
X372110Y631951D01*
X372090Y631948D01*
X372071Y631950D01*
X371969Y631928D01*
X371867Y631912D01*
X371850Y631902D01*
X371830Y631898D01*
X371741Y631845D01*
X371650Y631796D01*
X371636Y631782D01*
X371619Y631772D01*
X371552Y631693D01*
X371480Y631618D01*
X371472Y631600D01*
X371459Y631585D01*
X371420Y631489D01*
X371377Y631395D01*
X371375Y631375D01*
X371367Y631357D01*
X371349Y631190D01*
X371349Y410210D01*
X371352Y410190D01*
X371350Y410171D01*
X371372Y410069D01*
X371388Y409967D01*
X371398Y409950D01*
X371402Y409930D01*
X371455Y409841D01*
X371504Y409750D01*
X371518Y409736D01*
X371528Y409719D01*
X371607Y409652D01*
X371682Y409580D01*
X371700Y409572D01*
X371715Y409559D01*
X371811Y409520D01*
X371905Y409477D01*
X371925Y409475D01*
X371943Y409467D01*
X372110Y409449D01*
X516890Y409449D01*
X516910Y409452D01*
G37*
G36*
X-41424Y-749D02*
X-41424Y-749D01*
X-41347Y-746D01*
X-41303Y-729D01*
X-41257Y-722D01*
X-41189Y-685D01*
X-41117Y-658D01*
X-41081Y-628D01*
X-41040Y-606D01*
X-40987Y-551D01*
X-40927Y-501D01*
X-40903Y-462D01*
X-40871Y-428D01*
X-40838Y-358D01*
X-40797Y-293D01*
X-40787Y-247D01*
X-40767Y-205D01*
X-40759Y-128D01*
X-40741Y-53D01*
X-40743Y9D01*
X-40740Y39D01*
X-40746Y65D01*
X-40748Y114D01*
X-47767Y46332D01*
X-59937Y144299D01*
X-69445Y242562D01*
X-76282Y341047D01*
X-80444Y439680D01*
X-81165Y487593D01*
X-81180Y487678D01*
X-81187Y487764D01*
X-81187Y489051D01*
X-81187Y489055D01*
X-81187Y489062D01*
X-81204Y490217D01*
X-80387Y491035D01*
X-80384Y491038D01*
X-80379Y491043D01*
X-79574Y491872D01*
X-78418Y491872D01*
X-78414Y491872D01*
X-78407Y491872D01*
X-77119Y491891D01*
X-77117Y491890D01*
X-77068Y491885D01*
X-77043Y491877D01*
X-77012Y491879D01*
X-76950Y491872D01*
X-19050Y491872D01*
X-19028Y491875D01*
X-18990Y491874D01*
X-14600Y492220D01*
X-14594Y492221D01*
X-14588Y492221D01*
X-14424Y492255D01*
X-6073Y494968D01*
X-6041Y494985D01*
X-6006Y494993D01*
X-5860Y495076D01*
X1244Y500238D01*
X1269Y500263D01*
X1299Y500282D01*
X1412Y500406D01*
X6574Y507510D01*
X6590Y507542D01*
X6613Y507570D01*
X6682Y507723D01*
X9395Y516074D01*
X9401Y516109D01*
X9414Y516143D01*
X9433Y516309D01*
X9433Y525091D01*
X9427Y525126D01*
X9429Y525162D01*
X9395Y525326D01*
X6682Y533677D01*
X6665Y533709D01*
X6657Y533744D01*
X6574Y533890D01*
X1412Y540994D01*
X1387Y541019D01*
X1368Y541049D01*
X1244Y541162D01*
X-5860Y546324D01*
X-5892Y546340D01*
X-5920Y546363D01*
X-6073Y546432D01*
X-14424Y549145D01*
X-14430Y549146D01*
X-14435Y549149D01*
X-14600Y549180D01*
X-18990Y549526D01*
X-19012Y549524D01*
X-19050Y549528D01*
X-79582Y549528D01*
X-79590Y549535D01*
X-79616Y549545D01*
X-79639Y549561D01*
X-79730Y549590D01*
X-79819Y549624D01*
X-79850Y549627D01*
X-81521Y551261D01*
X-81535Y552418D01*
X-82080Y600135D01*
X-80182Y695557D01*
X-75298Y790872D01*
X-71377Y838284D01*
X-71379Y838307D01*
X-71375Y838347D01*
X-71375Y839396D01*
X-71372Y839402D01*
X-71335Y839454D01*
X-71317Y839511D01*
X-71290Y839565D01*
X-71289Y839567D01*
X-70499Y840237D01*
X-70484Y840255D01*
X-70452Y840280D01*
X-69710Y841022D01*
X-69704Y841024D01*
X-69641Y841034D01*
X-69588Y841063D01*
X-69531Y841082D01*
X-69529Y841083D01*
X-68496Y840997D01*
X-68473Y840999D01*
X-68433Y840995D01*
X-41656Y840995D01*
X-41636Y840998D01*
X-41617Y840996D01*
X-41515Y841018D01*
X-41413Y841034D01*
X-41396Y841044D01*
X-41376Y841048D01*
X-41287Y841101D01*
X-41196Y841150D01*
X-41182Y841164D01*
X-41165Y841174D01*
X-41098Y841253D01*
X-41026Y841328D01*
X-41018Y841346D01*
X-41005Y841361D01*
X-40966Y841457D01*
X-40923Y841551D01*
X-40921Y841571D01*
X-40913Y841589D01*
X-40895Y841756D01*
X-40895Y1007000D01*
X-40898Y1007020D01*
X-40896Y1007039D01*
X-40918Y1007141D01*
X-40934Y1007243D01*
X-40944Y1007260D01*
X-40948Y1007280D01*
X-41001Y1007369D01*
X-41050Y1007460D01*
X-41064Y1007474D01*
X-41074Y1007491D01*
X-41153Y1007558D01*
X-41228Y1007630D01*
X-41246Y1007638D01*
X-41261Y1007651D01*
X-41357Y1007690D01*
X-41451Y1007733D01*
X-41471Y1007735D01*
X-41489Y1007743D01*
X-41656Y1007761D01*
X-88900Y1007761D01*
X-88920Y1007758D01*
X-88939Y1007760D01*
X-89041Y1007738D01*
X-89143Y1007722D01*
X-89160Y1007712D01*
X-89180Y1007708D01*
X-89269Y1007655D01*
X-89360Y1007606D01*
X-89374Y1007592D01*
X-89391Y1007582D01*
X-89458Y1007503D01*
X-89530Y1007428D01*
X-89538Y1007410D01*
X-89551Y1007395D01*
X-89590Y1007299D01*
X-89633Y1007205D01*
X-89635Y1007185D01*
X-89643Y1007167D01*
X-89661Y1007000D01*
X-89661Y0D01*
X-89658Y-20D01*
X-89660Y-39D01*
X-89638Y-141D01*
X-89622Y-243D01*
X-89612Y-260D01*
X-89608Y-280D01*
X-89555Y-369D01*
X-89506Y-460D01*
X-89492Y-474D01*
X-89482Y-491D01*
X-89403Y-558D01*
X-89328Y-630D01*
X-89310Y-638D01*
X-89295Y-651D01*
X-89199Y-690D01*
X-89105Y-733D01*
X-89085Y-735D01*
X-89067Y-743D01*
X-88900Y-761D01*
X-41500Y-761D01*
X-41424Y-749D01*
G37*
G36*
X622320Y-758D02*
X622320Y-758D01*
X622339Y-760D01*
X622441Y-738D01*
X622543Y-722D01*
X622560Y-712D01*
X622580Y-708D01*
X622669Y-655D01*
X622760Y-606D01*
X622774Y-592D01*
X622791Y-582D01*
X622858Y-503D01*
X622930Y-428D01*
X622938Y-410D01*
X622951Y-395D01*
X622990Y-299D01*
X623033Y-205D01*
X623035Y-185D01*
X623043Y-167D01*
X623061Y0D01*
X623061Y1007000D01*
X623058Y1007020D01*
X623060Y1007039D01*
X623038Y1007141D01*
X623022Y1007243D01*
X623012Y1007260D01*
X623008Y1007280D01*
X622955Y1007369D01*
X622906Y1007460D01*
X622892Y1007474D01*
X622882Y1007491D01*
X622803Y1007558D01*
X622728Y1007630D01*
X622710Y1007638D01*
X622695Y1007651D01*
X622599Y1007690D01*
X622505Y1007733D01*
X622485Y1007735D01*
X622467Y1007743D01*
X622300Y1007761D01*
X588610Y1007761D01*
X588541Y1007750D01*
X588470Y1007748D01*
X588420Y1007730D01*
X588368Y1007722D01*
X588305Y1007689D01*
X588239Y1007665D01*
X588197Y1007631D01*
X588150Y1007606D01*
X588102Y1007555D01*
X588047Y1007512D01*
X588018Y1007467D01*
X587981Y1007428D01*
X587951Y1007364D01*
X587913Y1007305D01*
X587900Y1007253D01*
X587877Y1007205D01*
X587870Y1007135D01*
X587852Y1007067D01*
X587854Y1006993D01*
X587850Y1006961D01*
X587855Y1006938D01*
X587856Y1006899D01*
X592758Y970245D01*
X602409Y877672D01*
X609364Y784859D01*
X613618Y691882D01*
X615166Y598821D01*
X614587Y552310D01*
X614587Y552307D01*
X614587Y552301D01*
X614587Y551145D01*
X613759Y550338D01*
X613757Y550334D01*
X613752Y550331D01*
X612935Y549514D01*
X611779Y549528D01*
X611776Y549528D01*
X611770Y549528D01*
X552450Y549528D01*
X552428Y549525D01*
X552390Y549526D01*
X548000Y549180D01*
X547994Y549179D01*
X547988Y549179D01*
X547824Y549145D01*
X539473Y546432D01*
X539441Y546415D01*
X539406Y546407D01*
X539260Y546324D01*
X532156Y541162D01*
X532131Y541137D01*
X532101Y541118D01*
X531988Y540994D01*
X526826Y533890D01*
X526810Y533858D01*
X526787Y533830D01*
X526718Y533677D01*
X524005Y525326D01*
X523999Y525291D01*
X523986Y525257D01*
X523967Y525091D01*
X523967Y516309D01*
X523973Y516274D01*
X523971Y516238D01*
X524005Y516074D01*
X526718Y507723D01*
X526735Y507691D01*
X526743Y507656D01*
X526826Y507510D01*
X531988Y500406D01*
X532013Y500381D01*
X532032Y500351D01*
X532156Y500238D01*
X539260Y495076D01*
X539292Y495060D01*
X539320Y495037D01*
X539473Y494968D01*
X547824Y492255D01*
X547830Y492254D01*
X547835Y492251D01*
X548000Y492220D01*
X552390Y491874D01*
X552412Y491876D01*
X552450Y491872D01*
X610350Y491872D01*
X610435Y491886D01*
X610520Y491891D01*
X610521Y491891D01*
X611807Y491872D01*
X611812Y491872D01*
X611819Y491872D01*
X612974Y491872D01*
X613779Y491043D01*
X613783Y491040D01*
X613787Y491034D01*
X614604Y490217D01*
X614587Y489062D01*
X614587Y489057D01*
X614587Y489050D01*
X614587Y487762D01*
X614586Y487760D01*
X614580Y487711D01*
X614572Y487686D01*
X614573Y487655D01*
X614565Y487593D01*
X613844Y439680D01*
X609682Y341047D01*
X602845Y242562D01*
X593337Y144299D01*
X581167Y46332D01*
X574147Y114D01*
X574148Y37D01*
X574140Y-39D01*
X574150Y-85D01*
X574150Y-132D01*
X574176Y-204D01*
X574192Y-280D01*
X574216Y-320D01*
X574231Y-364D01*
X574279Y-425D01*
X574318Y-491D01*
X574354Y-521D01*
X574382Y-558D01*
X574447Y-601D01*
X574505Y-651D01*
X574549Y-668D01*
X574587Y-694D01*
X574662Y-714D01*
X574733Y-743D01*
X574796Y-750D01*
X574825Y-758D01*
X574851Y-756D01*
X574900Y-761D01*
X622300Y-761D01*
X622320Y-758D01*
G37*
%LPC*%
G36*
X213795Y387603D02*
X213795Y387603D01*
X210819Y390579D01*
X210819Y394789D01*
X213009Y396979D01*
X213062Y397052D01*
X213122Y397122D01*
X213134Y397152D01*
X213153Y397178D01*
X213180Y397265D01*
X213214Y397350D01*
X213218Y397391D01*
X213225Y397413D01*
X213224Y397446D01*
X213232Y397517D01*
X213232Y871467D01*
X213218Y871557D01*
X213210Y871648D01*
X213198Y871678D01*
X213193Y871710D01*
X213150Y871791D01*
X213114Y871874D01*
X213088Y871907D01*
X213077Y871927D01*
X213054Y871949D01*
X213009Y872005D01*
X210819Y874195D01*
X210819Y878405D01*
X213795Y881381D01*
X218005Y881381D01*
X220981Y878405D01*
X220981Y874195D01*
X218791Y872005D01*
X218738Y871932D01*
X218678Y871862D01*
X218666Y871832D01*
X218647Y871806D01*
X218620Y871719D01*
X218586Y871634D01*
X218582Y871593D01*
X218575Y871571D01*
X218576Y871538D01*
X218568Y871467D01*
X218568Y410471D01*
X218579Y410400D01*
X218581Y410328D01*
X218599Y410279D01*
X218607Y410228D01*
X218641Y410165D01*
X218666Y410097D01*
X218698Y410057D01*
X218723Y410011D01*
X218775Y409961D01*
X218819Y409905D01*
X218863Y409877D01*
X218901Y409841D01*
X218966Y409811D01*
X219026Y409772D01*
X219077Y409760D01*
X219124Y409738D01*
X219195Y409730D01*
X219265Y409712D01*
X219317Y409716D01*
X219368Y409711D01*
X219439Y409726D01*
X219510Y409731D01*
X219558Y409752D01*
X219609Y409763D01*
X219670Y409800D01*
X219736Y409828D01*
X219792Y409872D01*
X219820Y409889D01*
X219835Y409907D01*
X219867Y409932D01*
X220629Y410695D01*
X220682Y410769D01*
X220742Y410838D01*
X220754Y410868D01*
X220773Y410894D01*
X220800Y410981D01*
X220834Y411066D01*
X220838Y411107D01*
X220845Y411129D01*
X220844Y411162D01*
X220852Y411233D01*
X220852Y681825D01*
X225709Y686682D01*
X225762Y686756D01*
X225822Y686825D01*
X225834Y686856D01*
X225853Y686882D01*
X225880Y686969D01*
X225914Y687054D01*
X225918Y687095D01*
X225925Y687117D01*
X225924Y687149D01*
X225932Y687220D01*
X225932Y858767D01*
X225918Y858857D01*
X225910Y858948D01*
X225898Y858978D01*
X225893Y859010D01*
X225850Y859091D01*
X225814Y859174D01*
X225788Y859207D01*
X225777Y859227D01*
X225754Y859249D01*
X225709Y859305D01*
X223519Y861495D01*
X223519Y865705D01*
X226495Y868681D01*
X230705Y868681D01*
X233681Y865705D01*
X233681Y861495D01*
X231491Y859305D01*
X231438Y859232D01*
X231378Y859162D01*
X231366Y859132D01*
X231347Y859106D01*
X231320Y859019D01*
X231286Y858934D01*
X231282Y858893D01*
X231275Y858871D01*
X231276Y858838D01*
X231268Y858767D01*
X231268Y684695D01*
X226411Y679838D01*
X226358Y679764D01*
X226298Y679695D01*
X226286Y679664D01*
X226267Y679638D01*
X226240Y679551D01*
X226206Y679466D01*
X226202Y679425D01*
X226195Y679403D01*
X226196Y679371D01*
X226188Y679300D01*
X226188Y411233D01*
X226202Y411143D01*
X226210Y411052D01*
X226222Y411022D01*
X226227Y410990D01*
X226270Y410909D01*
X226306Y410826D01*
X226332Y410793D01*
X226343Y410773D01*
X226366Y410751D01*
X226411Y410695D01*
X228601Y408505D01*
X228601Y404295D01*
X225625Y401319D01*
X221415Y401319D01*
X219867Y402868D01*
X219809Y402909D01*
X219757Y402959D01*
X219710Y402981D01*
X219668Y403011D01*
X219599Y403032D01*
X219534Y403062D01*
X219482Y403068D01*
X219432Y403083D01*
X219361Y403082D01*
X219290Y403089D01*
X219239Y403078D01*
X219187Y403077D01*
X219119Y403052D01*
X219049Y403037D01*
X219004Y403010D01*
X218956Y402993D01*
X218900Y402948D01*
X218838Y402911D01*
X218804Y402871D01*
X218764Y402839D01*
X218725Y402779D01*
X218678Y402724D01*
X218659Y402676D01*
X218631Y402632D01*
X218613Y402563D01*
X218586Y402496D01*
X218578Y402425D01*
X218570Y402393D01*
X218572Y402370D01*
X218568Y402329D01*
X218568Y397517D01*
X218582Y397427D01*
X218590Y397336D01*
X218602Y397306D01*
X218607Y397274D01*
X218650Y397193D01*
X218686Y397110D01*
X218712Y397077D01*
X218723Y397057D01*
X218746Y397035D01*
X218791Y396979D01*
X220981Y394789D01*
X220981Y390579D01*
X218005Y387603D01*
X213795Y387603D01*
G37*
%LPD*%
%LPC*%
G36*
X178235Y396239D02*
X178235Y396239D01*
X175259Y399215D01*
X175259Y403425D01*
X177449Y405615D01*
X177502Y405688D01*
X177562Y405758D01*
X177574Y405788D01*
X177593Y405814D01*
X177620Y405901D01*
X177654Y405986D01*
X177658Y406027D01*
X177665Y406049D01*
X177664Y406082D01*
X177672Y406153D01*
X177672Y743248D01*
X177658Y743338D01*
X177650Y743429D01*
X177638Y743459D01*
X177633Y743491D01*
X177590Y743572D01*
X177554Y743655D01*
X177528Y743688D01*
X177517Y743708D01*
X177494Y743730D01*
X177449Y743786D01*
X173489Y747747D01*
X171607Y749629D01*
X171549Y749670D01*
X171497Y749720D01*
X171450Y749742D01*
X171408Y749772D01*
X171339Y749793D01*
X171274Y749823D01*
X171222Y749829D01*
X171172Y749844D01*
X171101Y749843D01*
X171030Y749850D01*
X170979Y749839D01*
X170927Y749838D01*
X170859Y749813D01*
X170789Y749798D01*
X170744Y749771D01*
X170696Y749754D01*
X170640Y749709D01*
X170578Y749672D01*
X170544Y749632D01*
X170504Y749600D01*
X170465Y749540D01*
X170418Y749485D01*
X170399Y749437D01*
X170371Y749393D01*
X170353Y749324D01*
X170326Y749257D01*
X170318Y749186D01*
X170310Y749154D01*
X170312Y749131D01*
X170308Y749090D01*
X170308Y714763D01*
X170322Y714673D01*
X170330Y714582D01*
X170342Y714552D01*
X170347Y714520D01*
X170390Y714439D01*
X170426Y714356D01*
X170452Y714323D01*
X170463Y714303D01*
X170486Y714281D01*
X170531Y714225D01*
X172721Y712035D01*
X172721Y707825D01*
X169745Y704849D01*
X165535Y704849D01*
X162559Y707825D01*
X162559Y712035D01*
X164749Y714225D01*
X164802Y714298D01*
X164862Y714368D01*
X164874Y714398D01*
X164893Y714424D01*
X164920Y714511D01*
X164954Y714596D01*
X164958Y714637D01*
X164965Y714659D01*
X164964Y714692D01*
X164972Y714763D01*
X164972Y833628D01*
X164969Y833648D01*
X164971Y833667D01*
X164949Y833769D01*
X164933Y833871D01*
X164923Y833888D01*
X164919Y833908D01*
X164866Y833997D01*
X164817Y834088D01*
X164803Y834102D01*
X164793Y834119D01*
X164714Y834186D01*
X164639Y834258D01*
X164621Y834266D01*
X164606Y834279D01*
X164510Y834318D01*
X164416Y834361D01*
X164396Y834363D01*
X164378Y834371D01*
X164211Y834389D01*
X161725Y834389D01*
X158749Y837365D01*
X158749Y841575D01*
X161725Y844551D01*
X162426Y844551D01*
X162497Y844562D01*
X162569Y844564D01*
X162618Y844582D01*
X162669Y844590D01*
X162732Y844624D01*
X162800Y844649D01*
X162840Y844681D01*
X162886Y844706D01*
X162936Y844758D01*
X162992Y844802D01*
X163020Y844846D01*
X163056Y844884D01*
X163086Y844949D01*
X163125Y845009D01*
X163137Y845060D01*
X163159Y845107D01*
X163167Y845178D01*
X163185Y845248D01*
X163181Y845300D01*
X163186Y845351D01*
X163171Y845422D01*
X163166Y845493D01*
X163145Y845541D01*
X163134Y845592D01*
X163097Y845653D01*
X163069Y845719D01*
X163025Y845775D01*
X163008Y845803D01*
X162990Y845818D01*
X162965Y845850D01*
X160019Y848795D01*
X160019Y853005D01*
X162995Y855981D01*
X167205Y855981D01*
X170181Y853005D01*
X170181Y849907D01*
X170196Y849816D01*
X170203Y849724D01*
X170217Y849687D01*
X170220Y849665D01*
X170236Y849636D01*
X170261Y849567D01*
X170303Y849510D01*
X170336Y849447D01*
X170374Y849411D01*
X170405Y849367D01*
X170463Y849326D01*
X170514Y849278D01*
X170562Y849255D01*
X170605Y849224D01*
X170673Y849204D01*
X170737Y849174D01*
X170790Y849168D01*
X170841Y849153D01*
X170911Y849155D01*
X170981Y849147D01*
X171033Y849158D01*
X171087Y849160D01*
X171153Y849184D01*
X171222Y849199D01*
X171267Y849227D01*
X171317Y849245D01*
X171372Y849289D01*
X171433Y849325D01*
X171467Y849366D01*
X171509Y849399D01*
X171547Y849459D01*
X171593Y849512D01*
X171613Y849562D01*
X171641Y849606D01*
X171658Y849675D01*
X171685Y849741D01*
X171693Y849814D01*
X171701Y849845D01*
X171699Y849868D01*
X171703Y849907D01*
X171703Y859910D01*
X171692Y859981D01*
X171690Y860053D01*
X171672Y860102D01*
X171664Y860153D01*
X171630Y860216D01*
X171605Y860284D01*
X171573Y860324D01*
X171548Y860370D01*
X171496Y860420D01*
X171452Y860476D01*
X171408Y860504D01*
X171370Y860540D01*
X171305Y860570D01*
X171245Y860609D01*
X171194Y860621D01*
X171147Y860643D01*
X171076Y860651D01*
X171006Y860669D01*
X170954Y860665D01*
X170903Y860670D01*
X170832Y860655D01*
X170761Y860650D01*
X170713Y860629D01*
X170662Y860618D01*
X170601Y860581D01*
X170535Y860553D01*
X170479Y860509D01*
X170451Y860492D01*
X170436Y860474D01*
X170404Y860449D01*
X169745Y859789D01*
X165535Y859789D01*
X162559Y862765D01*
X162559Y866975D01*
X165505Y869920D01*
X165546Y869978D01*
X165596Y870030D01*
X165618Y870077D01*
X165648Y870119D01*
X165669Y870188D01*
X165699Y870253D01*
X165705Y870305D01*
X165720Y870355D01*
X165719Y870426D01*
X165726Y870497D01*
X165715Y870548D01*
X165714Y870600D01*
X165689Y870668D01*
X165674Y870738D01*
X165647Y870783D01*
X165630Y870831D01*
X165585Y870887D01*
X165548Y870949D01*
X165508Y870983D01*
X165476Y871023D01*
X165416Y871062D01*
X165361Y871109D01*
X165313Y871128D01*
X165269Y871156D01*
X165200Y871174D01*
X165133Y871201D01*
X165062Y871209D01*
X165030Y871217D01*
X165007Y871215D01*
X164966Y871219D01*
X162995Y871219D01*
X160019Y874195D01*
X160019Y878405D01*
X162995Y881381D01*
X167205Y881381D01*
X170181Y878405D01*
X170181Y874195D01*
X167235Y871250D01*
X167194Y871192D01*
X167144Y871140D01*
X167122Y871093D01*
X167092Y871051D01*
X167071Y870982D01*
X167041Y870917D01*
X167035Y870865D01*
X167020Y870815D01*
X167021Y870744D01*
X167014Y870673D01*
X167025Y870622D01*
X167026Y870570D01*
X167051Y870502D01*
X167066Y870432D01*
X167093Y870387D01*
X167110Y870339D01*
X167155Y870283D01*
X167192Y870221D01*
X167232Y870187D01*
X167264Y870147D01*
X167324Y870108D01*
X167379Y870061D01*
X167427Y870042D01*
X167471Y870014D01*
X167540Y869996D01*
X167607Y869969D01*
X167678Y869961D01*
X167710Y869953D01*
X167733Y869955D01*
X167774Y869951D01*
X169745Y869951D01*
X170404Y869291D01*
X170462Y869250D01*
X170514Y869200D01*
X170561Y869178D01*
X170603Y869148D01*
X170672Y869127D01*
X170737Y869097D01*
X170789Y869091D01*
X170839Y869076D01*
X170910Y869077D01*
X170981Y869070D01*
X171032Y869081D01*
X171084Y869082D01*
X171152Y869107D01*
X171222Y869122D01*
X171267Y869149D01*
X171315Y869166D01*
X171371Y869211D01*
X171433Y869248D01*
X171467Y869288D01*
X171507Y869320D01*
X171546Y869380D01*
X171593Y869435D01*
X171612Y869483D01*
X171640Y869527D01*
X171658Y869597D01*
X171685Y869663D01*
X171693Y869734D01*
X171701Y869766D01*
X171699Y869789D01*
X171703Y869830D01*
X171703Y882119D01*
X171689Y882209D01*
X171681Y882300D01*
X171669Y882329D01*
X171664Y882361D01*
X171621Y882442D01*
X171585Y882526D01*
X171559Y882558D01*
X171548Y882579D01*
X171525Y882601D01*
X171480Y882657D01*
X169171Y884966D01*
X169097Y885019D01*
X169028Y885079D01*
X168997Y885091D01*
X168971Y885110D01*
X168884Y885137D01*
X168799Y885171D01*
X168758Y885175D01*
X168736Y885182D01*
X168704Y885181D01*
X168633Y885189D01*
X165535Y885189D01*
X162559Y888165D01*
X162559Y892375D01*
X165535Y895351D01*
X169745Y895351D01*
X172721Y892375D01*
X172721Y889277D01*
X172735Y889187D01*
X172743Y889096D01*
X172755Y889067D01*
X172760Y889035D01*
X172803Y888954D01*
X172839Y888870D01*
X172865Y888838D01*
X172876Y888817D01*
X172899Y888795D01*
X172944Y888739D01*
X177039Y884644D01*
X177039Y758832D01*
X177050Y758761D01*
X177052Y758689D01*
X177070Y758640D01*
X177078Y758589D01*
X177112Y758526D01*
X177137Y758458D01*
X177169Y758418D01*
X177194Y758372D01*
X177245Y758322D01*
X177290Y758266D01*
X177334Y758238D01*
X177372Y758202D01*
X177437Y758172D01*
X177497Y758133D01*
X177548Y758121D01*
X177595Y758099D01*
X177666Y758091D01*
X177736Y758073D01*
X177788Y758077D01*
X177839Y758072D01*
X177910Y758087D01*
X177981Y758092D01*
X178029Y758113D01*
X178080Y758124D01*
X178141Y758161D01*
X178207Y758189D01*
X178210Y758191D01*
X182445Y758191D01*
X185421Y755215D01*
X185421Y751005D01*
X182422Y748006D01*
X182398Y747998D01*
X182347Y747990D01*
X182284Y747956D01*
X182216Y747931D01*
X182176Y747899D01*
X182130Y747874D01*
X182080Y747822D01*
X182024Y747778D01*
X181996Y747734D01*
X181960Y747696D01*
X181930Y747631D01*
X181891Y747571D01*
X181879Y747520D01*
X181857Y747473D01*
X181849Y747402D01*
X181831Y747332D01*
X181835Y747280D01*
X181830Y747229D01*
X181845Y747158D01*
X181850Y747087D01*
X181871Y747039D01*
X181882Y746988D01*
X181919Y746927D01*
X181947Y746861D01*
X181991Y746805D01*
X182008Y746777D01*
X182026Y746762D01*
X182051Y746730D01*
X183008Y745774D01*
X183008Y406153D01*
X183022Y406063D01*
X183030Y405972D01*
X183042Y405942D01*
X183047Y405910D01*
X183090Y405829D01*
X183126Y405746D01*
X183152Y405713D01*
X183163Y405693D01*
X183186Y405671D01*
X183231Y405615D01*
X185421Y403425D01*
X185421Y399215D01*
X182445Y396239D01*
X178235Y396239D01*
G37*
%LPD*%
%LPC*%
G36*
X99495Y147319D02*
X99495Y147319D01*
X96519Y150295D01*
X96519Y154505D01*
X98709Y156695D01*
X98762Y156768D01*
X98822Y156838D01*
X98834Y156868D01*
X98853Y156894D01*
X98880Y156981D01*
X98914Y157066D01*
X98918Y157107D01*
X98925Y157129D01*
X98924Y157162D01*
X98932Y157233D01*
X98932Y262248D01*
X98921Y262319D01*
X98919Y262391D01*
X98901Y262440D01*
X98893Y262491D01*
X98859Y262554D01*
X98834Y262622D01*
X98802Y262662D01*
X98777Y262708D01*
X98725Y262758D01*
X98681Y262814D01*
X98637Y262842D01*
X98599Y262878D01*
X98534Y262908D01*
X98474Y262947D01*
X98423Y262959D01*
X98376Y262981D01*
X98305Y262989D01*
X98235Y263007D01*
X98183Y263003D01*
X98132Y263008D01*
X98061Y262993D01*
X97990Y262988D01*
X97942Y262967D01*
X97891Y262956D01*
X97830Y262919D01*
X97764Y262891D01*
X97708Y262847D01*
X97680Y262830D01*
X97665Y262812D01*
X97633Y262787D01*
X96466Y261619D01*
X92256Y261619D01*
X89280Y264595D01*
X89280Y268805D01*
X92256Y271781D01*
X96466Y271781D01*
X97633Y270613D01*
X97691Y270572D01*
X97743Y270522D01*
X97790Y270500D01*
X97832Y270470D01*
X97901Y270449D01*
X97966Y270419D01*
X98018Y270413D01*
X98068Y270398D01*
X98139Y270399D01*
X98210Y270392D01*
X98261Y270403D01*
X98313Y270404D01*
X98381Y270429D01*
X98451Y270444D01*
X98496Y270471D01*
X98544Y270488D01*
X98600Y270533D01*
X98662Y270570D01*
X98696Y270610D01*
X98736Y270642D01*
X98775Y270702D01*
X98822Y270757D01*
X98841Y270805D01*
X98869Y270849D01*
X98887Y270918D01*
X98914Y270985D01*
X98922Y271056D01*
X98930Y271088D01*
X98928Y271111D01*
X98932Y271152D01*
X98932Y317239D01*
X98921Y317310D01*
X98919Y317382D01*
X98901Y317431D01*
X98893Y317482D01*
X98859Y317545D01*
X98834Y317613D01*
X98802Y317653D01*
X98777Y317699D01*
X98725Y317749D01*
X98681Y317805D01*
X98637Y317833D01*
X98599Y317869D01*
X98534Y317899D01*
X98474Y317938D01*
X98423Y317950D01*
X98376Y317972D01*
X98305Y317980D01*
X98235Y317998D01*
X98183Y317994D01*
X98132Y317999D01*
X98061Y317984D01*
X97990Y317979D01*
X97942Y317958D01*
X97891Y317947D01*
X97830Y317910D01*
X97764Y317882D01*
X97708Y317838D01*
X97680Y317821D01*
X97665Y317803D01*
X97633Y317778D01*
X96085Y316229D01*
X91875Y316229D01*
X88899Y319205D01*
X88899Y323415D01*
X91875Y326391D01*
X96085Y326391D01*
X97633Y324842D01*
X97691Y324801D01*
X97743Y324751D01*
X97790Y324729D01*
X97832Y324699D01*
X97901Y324678D01*
X97966Y324648D01*
X98018Y324642D01*
X98068Y324627D01*
X98139Y324628D01*
X98210Y324621D01*
X98261Y324632D01*
X98313Y324633D01*
X98381Y324658D01*
X98451Y324673D01*
X98496Y324700D01*
X98544Y324717D01*
X98600Y324762D01*
X98662Y324799D01*
X98696Y324839D01*
X98736Y324871D01*
X98775Y324931D01*
X98822Y324986D01*
X98841Y325034D01*
X98869Y325078D01*
X98887Y325147D01*
X98914Y325214D01*
X98922Y325285D01*
X98930Y325317D01*
X98928Y325340D01*
X98932Y325381D01*
X98932Y352298D01*
X98929Y352318D01*
X98931Y352337D01*
X98909Y352439D01*
X98893Y352541D01*
X98883Y352558D01*
X98879Y352578D01*
X98826Y352667D01*
X98777Y352758D01*
X98763Y352772D01*
X98753Y352789D01*
X98674Y352856D01*
X98599Y352928D01*
X98581Y352936D01*
X98566Y352949D01*
X98470Y352988D01*
X98376Y353031D01*
X98356Y353033D01*
X98338Y353041D01*
X98171Y353059D01*
X95685Y353059D01*
X92709Y356035D01*
X92709Y360245D01*
X95685Y363221D01*
X99895Y363221D01*
X102871Y360245D01*
X102871Y357147D01*
X102885Y357057D01*
X102893Y356966D01*
X102905Y356937D01*
X102910Y356905D01*
X102953Y356824D01*
X102989Y356740D01*
X103015Y356708D01*
X103026Y356687D01*
X103049Y356665D01*
X103094Y356609D01*
X104268Y355435D01*
X104268Y270867D01*
X104283Y270771D01*
X104293Y270674D01*
X104303Y270650D01*
X104307Y270624D01*
X104353Y270538D01*
X104393Y270449D01*
X104410Y270430D01*
X104423Y270407D01*
X104493Y270340D01*
X104559Y270268D01*
X104582Y270256D01*
X104601Y270238D01*
X104689Y270197D01*
X104775Y270150D01*
X104800Y270145D01*
X104824Y270134D01*
X104921Y270123D01*
X105017Y270106D01*
X105043Y270110D01*
X105068Y270107D01*
X105164Y270128D01*
X105260Y270142D01*
X105283Y270154D01*
X105309Y270159D01*
X105392Y270209D01*
X105479Y270253D01*
X105498Y270272D01*
X105520Y270285D01*
X105583Y270359D01*
X105651Y270429D01*
X105667Y270457D01*
X105680Y270472D01*
X105692Y270503D01*
X105732Y270576D01*
X106332Y272024D01*
X108976Y274668D01*
X112430Y276099D01*
X116170Y276099D01*
X119624Y274668D01*
X120620Y273672D01*
X120678Y273630D01*
X120730Y273581D01*
X120777Y273559D01*
X120819Y273529D01*
X120888Y273507D01*
X120953Y273477D01*
X121005Y273472D01*
X121055Y273456D01*
X121126Y273458D01*
X121197Y273450D01*
X121248Y273461D01*
X121300Y273463D01*
X121368Y273487D01*
X121438Y273502D01*
X121483Y273529D01*
X121531Y273547D01*
X121587Y273592D01*
X121649Y273629D01*
X121683Y273668D01*
X121723Y273701D01*
X121762Y273761D01*
X121809Y273815D01*
X121828Y273864D01*
X121856Y273908D01*
X121874Y273977D01*
X121901Y274044D01*
X121909Y274115D01*
X121917Y274146D01*
X121915Y274169D01*
X121919Y274210D01*
X121919Y373342D01*
X124236Y375659D01*
X124289Y375733D01*
X124349Y375802D01*
X124361Y375833D01*
X124380Y375859D01*
X124407Y375946D01*
X124441Y376031D01*
X124445Y376072D01*
X124452Y376094D01*
X124451Y376126D01*
X124459Y376197D01*
X124459Y379295D01*
X127435Y382271D01*
X131645Y382271D01*
X134621Y379295D01*
X134621Y375085D01*
X131645Y372109D01*
X128547Y372109D01*
X128457Y372095D01*
X128366Y372087D01*
X128337Y372075D01*
X128305Y372070D01*
X128224Y372027D01*
X128140Y371991D01*
X128108Y371965D01*
X128087Y371954D01*
X128065Y371931D01*
X128009Y371886D01*
X127478Y371355D01*
X127425Y371281D01*
X127365Y371212D01*
X127353Y371181D01*
X127334Y371155D01*
X127307Y371068D01*
X127273Y370983D01*
X127269Y370942D01*
X127262Y370920D01*
X127263Y370888D01*
X127255Y370817D01*
X127255Y210534D01*
X125469Y208748D01*
X117293Y200573D01*
X117266Y200535D01*
X117233Y200504D01*
X117195Y200436D01*
X117150Y200373D01*
X117136Y200329D01*
X117114Y200289D01*
X117100Y200212D01*
X117077Y200138D01*
X117079Y200092D01*
X117070Y200047D01*
X117082Y199970D01*
X117084Y199892D01*
X117100Y199849D01*
X117106Y199803D01*
X117141Y199734D01*
X117168Y199661D01*
X117197Y199625D01*
X117218Y199584D01*
X117273Y199530D01*
X117322Y199469D01*
X117361Y199444D01*
X117393Y199412D01*
X117513Y199346D01*
X117529Y199336D01*
X117534Y199335D01*
X117540Y199331D01*
X119624Y198468D01*
X122268Y195824D01*
X123699Y192370D01*
X123699Y188630D01*
X122268Y185176D01*
X119624Y182532D01*
X116170Y181101D01*
X112430Y181101D01*
X108976Y182532D01*
X106332Y185176D01*
X105732Y186624D01*
X105681Y186707D01*
X105635Y186793D01*
X105617Y186811D01*
X105603Y186833D01*
X105527Y186896D01*
X105457Y186962D01*
X105433Y186973D01*
X105413Y186990D01*
X105322Y187025D01*
X105234Y187066D01*
X105208Y187069D01*
X105184Y187078D01*
X105086Y187082D01*
X104990Y187093D01*
X104964Y187088D01*
X104938Y187089D01*
X104844Y187062D01*
X104749Y187041D01*
X104727Y187027D01*
X104702Y187020D01*
X104622Y186965D01*
X104538Y186915D01*
X104521Y186895D01*
X104500Y186880D01*
X104441Y186802D01*
X104378Y186728D01*
X104368Y186704D01*
X104353Y186683D01*
X104323Y186590D01*
X104286Y186500D01*
X104283Y186467D01*
X104277Y186449D01*
X104277Y186416D01*
X104268Y186333D01*
X104268Y157233D01*
X104282Y157143D01*
X104290Y157052D01*
X104302Y157022D01*
X104307Y156990D01*
X104350Y156909D01*
X104386Y156826D01*
X104412Y156793D01*
X104423Y156773D01*
X104446Y156751D01*
X104491Y156695D01*
X106681Y154505D01*
X106681Y150295D01*
X103705Y147319D01*
X99495Y147319D01*
G37*
%LPD*%
%LPC*%
G36*
X328095Y369569D02*
X328095Y369569D01*
X325119Y372545D01*
X325119Y376755D01*
X325404Y377040D01*
X325453Y377107D01*
X325496Y377152D01*
X325502Y377165D01*
X325517Y377183D01*
X325529Y377213D01*
X325548Y377239D01*
X325571Y377314D01*
X325599Y377375D01*
X325601Y377392D01*
X325609Y377411D01*
X325613Y377452D01*
X325620Y377474D01*
X325619Y377507D01*
X325627Y377578D01*
X325627Y464175D01*
X325613Y464265D01*
X325605Y464356D01*
X325593Y464386D01*
X325588Y464418D01*
X325545Y464498D01*
X325509Y464582D01*
X325483Y464614D01*
X325472Y464635D01*
X325449Y464657D01*
X325404Y464713D01*
X325373Y464744D01*
X325373Y475056D01*
X325404Y475087D01*
X325457Y475161D01*
X325517Y475230D01*
X325529Y475260D01*
X325548Y475286D01*
X325575Y475373D01*
X325609Y475458D01*
X325613Y475499D01*
X325620Y475522D01*
X325619Y475554D01*
X325627Y475625D01*
X325627Y700394D01*
X350296Y725063D01*
X350349Y725137D01*
X350409Y725207D01*
X350421Y725237D01*
X350440Y725263D01*
X350467Y725350D01*
X350501Y725435D01*
X350505Y725476D01*
X350512Y725498D01*
X350511Y725530D01*
X350519Y725601D01*
X350519Y726005D01*
X353495Y728981D01*
X357705Y728981D01*
X360681Y726005D01*
X360681Y721795D01*
X357705Y718819D01*
X357301Y718819D01*
X357211Y718805D01*
X357120Y718797D01*
X357091Y718785D01*
X357059Y718780D01*
X356978Y718737D01*
X356894Y718701D01*
X356862Y718675D01*
X356841Y718664D01*
X356819Y718641D01*
X356763Y718596D01*
X334996Y696829D01*
X334943Y696755D01*
X334883Y696685D01*
X334871Y696655D01*
X334852Y696629D01*
X334825Y696542D01*
X334791Y696457D01*
X334787Y696416D01*
X334780Y696394D01*
X334781Y696362D01*
X334773Y696291D01*
X334773Y627006D01*
X334784Y626935D01*
X334786Y626863D01*
X334804Y626814D01*
X334812Y626763D01*
X334846Y626700D01*
X334871Y626632D01*
X334903Y626592D01*
X334928Y626546D01*
X334980Y626496D01*
X335024Y626440D01*
X335068Y626412D01*
X335106Y626376D01*
X335171Y626346D01*
X335231Y626307D01*
X335282Y626295D01*
X335329Y626273D01*
X335400Y626265D01*
X335470Y626247D01*
X335522Y626251D01*
X335573Y626246D01*
X335644Y626261D01*
X335715Y626266D01*
X335763Y626287D01*
X335814Y626298D01*
X335875Y626335D01*
X335941Y626363D01*
X335997Y626407D01*
X336025Y626424D01*
X336040Y626442D01*
X336072Y626467D01*
X336985Y627381D01*
X341195Y627381D01*
X344171Y624405D01*
X344171Y620195D01*
X341195Y617219D01*
X336985Y617219D01*
X336072Y618133D01*
X336014Y618174D01*
X335962Y618224D01*
X335915Y618246D01*
X335873Y618276D01*
X335804Y618297D01*
X335739Y618327D01*
X335687Y618333D01*
X335637Y618348D01*
X335566Y618347D01*
X335495Y618354D01*
X335444Y618343D01*
X335392Y618342D01*
X335324Y618317D01*
X335254Y618302D01*
X335209Y618275D01*
X335161Y618258D01*
X335105Y618213D01*
X335043Y618176D01*
X335009Y618136D01*
X334969Y618104D01*
X334930Y618044D01*
X334883Y617989D01*
X334864Y617941D01*
X334836Y617897D01*
X334818Y617827D01*
X334791Y617761D01*
X334783Y617690D01*
X334775Y617658D01*
X334777Y617635D01*
X334773Y617594D01*
X334773Y550806D01*
X334784Y550735D01*
X334786Y550663D01*
X334804Y550614D01*
X334812Y550563D01*
X334846Y550500D01*
X334871Y550432D01*
X334903Y550392D01*
X334928Y550346D01*
X334980Y550296D01*
X335024Y550240D01*
X335068Y550212D01*
X335106Y550176D01*
X335171Y550146D01*
X335231Y550107D01*
X335282Y550095D01*
X335329Y550073D01*
X335400Y550065D01*
X335470Y550047D01*
X335522Y550051D01*
X335573Y550046D01*
X335644Y550061D01*
X335715Y550066D01*
X335763Y550087D01*
X335814Y550098D01*
X335875Y550135D01*
X335941Y550163D01*
X335997Y550207D01*
X336025Y550224D01*
X336040Y550242D01*
X336072Y550267D01*
X336985Y551181D01*
X341195Y551181D01*
X344171Y548205D01*
X344171Y543995D01*
X341195Y541019D01*
X336985Y541019D01*
X336072Y541933D01*
X336014Y541974D01*
X335962Y542024D01*
X335915Y542046D01*
X335873Y542076D01*
X335804Y542097D01*
X335739Y542127D01*
X335687Y542133D01*
X335637Y542148D01*
X335566Y542147D01*
X335495Y542154D01*
X335444Y542143D01*
X335392Y542142D01*
X335324Y542117D01*
X335254Y542102D01*
X335209Y542075D01*
X335161Y542058D01*
X335105Y542013D01*
X335043Y541976D01*
X335009Y541936D01*
X334969Y541904D01*
X334930Y541844D01*
X334883Y541789D01*
X334864Y541741D01*
X334836Y541697D01*
X334818Y541627D01*
X334791Y541561D01*
X334783Y541490D01*
X334775Y541458D01*
X334777Y541435D01*
X334773Y541394D01*
X334773Y475742D01*
X334776Y475722D01*
X334774Y475703D01*
X334796Y475601D01*
X334812Y475499D01*
X334822Y475482D01*
X334826Y475462D01*
X334879Y475373D01*
X334928Y475282D01*
X334942Y475268D01*
X334952Y475251D01*
X335031Y475184D01*
X335106Y475112D01*
X335124Y475104D01*
X335139Y475091D01*
X335235Y475052D01*
X335329Y475009D01*
X335349Y475007D01*
X335367Y474999D01*
X335534Y474981D01*
X339925Y474981D01*
X342901Y472005D01*
X342901Y467795D01*
X339925Y464819D01*
X335534Y464819D01*
X335514Y464816D01*
X335495Y464818D01*
X335393Y464796D01*
X335291Y464780D01*
X335274Y464770D01*
X335254Y464766D01*
X335165Y464713D01*
X335074Y464664D01*
X335060Y464650D01*
X335043Y464640D01*
X334976Y464561D01*
X334904Y464486D01*
X334896Y464468D01*
X334883Y464453D01*
X334844Y464357D01*
X334801Y464263D01*
X334799Y464243D01*
X334791Y464225D01*
X334773Y464058D01*
X334773Y377578D01*
X334776Y377559D01*
X334774Y377541D01*
X334789Y377472D01*
X334795Y377397D01*
X334807Y377367D01*
X334812Y377335D01*
X334823Y377316D01*
X334826Y377300D01*
X334860Y377244D01*
X334891Y377171D01*
X334917Y377138D01*
X334928Y377118D01*
X334945Y377101D01*
X334952Y377089D01*
X334964Y377079D01*
X334996Y377040D01*
X335281Y376755D01*
X335281Y372545D01*
X332305Y369569D01*
X328095Y369569D01*
G37*
%LPD*%
%LPC*%
G36*
X406835Y745489D02*
X406835Y745489D01*
X403859Y748465D01*
X403859Y752675D01*
X404144Y752960D01*
X404197Y753033D01*
X404257Y753103D01*
X404269Y753133D01*
X404288Y753159D01*
X404315Y753246D01*
X404349Y753331D01*
X404353Y753372D01*
X404360Y753394D01*
X404359Y753427D01*
X404367Y753498D01*
X404367Y822866D01*
X404352Y822962D01*
X404342Y823059D01*
X404332Y823083D01*
X404328Y823109D01*
X404282Y823195D01*
X404242Y823284D01*
X404225Y823303D01*
X404212Y823326D01*
X404142Y823393D01*
X404076Y823465D01*
X404053Y823477D01*
X404034Y823495D01*
X403946Y823536D01*
X403860Y823583D01*
X403835Y823588D01*
X403811Y823599D01*
X403714Y823610D01*
X403618Y823627D01*
X403592Y823623D01*
X403567Y823626D01*
X403471Y823605D01*
X403375Y823591D01*
X403352Y823579D01*
X403326Y823574D01*
X403243Y823524D01*
X403156Y823480D01*
X403137Y823461D01*
X403115Y823448D01*
X403052Y823374D01*
X402984Y823304D01*
X402968Y823276D01*
X402955Y823261D01*
X402943Y823230D01*
X402903Y823157D01*
X401668Y820176D01*
X399024Y817532D01*
X395570Y816101D01*
X391830Y816101D01*
X388376Y817532D01*
X385732Y820176D01*
X384301Y823630D01*
X384301Y827370D01*
X385732Y830824D01*
X388376Y833468D01*
X391830Y834899D01*
X395570Y834899D01*
X399024Y833468D01*
X401668Y830824D01*
X402903Y827843D01*
X402954Y827760D01*
X403000Y827674D01*
X403018Y827656D01*
X403032Y827634D01*
X403108Y827571D01*
X403178Y827505D01*
X403202Y827494D01*
X403222Y827477D01*
X403313Y827442D01*
X403401Y827401D01*
X403427Y827398D01*
X403451Y827389D01*
X403549Y827385D01*
X403645Y827374D01*
X403671Y827379D01*
X403697Y827378D01*
X403791Y827405D01*
X403886Y827426D01*
X403908Y827440D01*
X403933Y827447D01*
X404013Y827502D01*
X404097Y827552D01*
X404114Y827572D01*
X404135Y827587D01*
X404194Y827665D01*
X404257Y827739D01*
X404267Y827763D01*
X404282Y827784D01*
X404312Y827877D01*
X404349Y827967D01*
X404352Y828000D01*
X404358Y828018D01*
X404358Y828051D01*
X404367Y828134D01*
X404367Y848266D01*
X404352Y848362D01*
X404342Y848459D01*
X404332Y848483D01*
X404328Y848509D01*
X404282Y848595D01*
X404242Y848684D01*
X404225Y848703D01*
X404212Y848726D01*
X404142Y848793D01*
X404076Y848865D01*
X404053Y848877D01*
X404034Y848895D01*
X403946Y848936D01*
X403860Y848983D01*
X403835Y848988D01*
X403811Y848999D01*
X403714Y849010D01*
X403618Y849027D01*
X403592Y849023D01*
X403567Y849026D01*
X403471Y849005D01*
X403375Y848991D01*
X403352Y848979D01*
X403326Y848974D01*
X403243Y848924D01*
X403156Y848880D01*
X403137Y848861D01*
X403115Y848848D01*
X403052Y848774D01*
X402984Y848704D01*
X402968Y848676D01*
X402955Y848661D01*
X402943Y848630D01*
X402903Y848557D01*
X401668Y845576D01*
X399024Y842932D01*
X395570Y841501D01*
X391830Y841501D01*
X388376Y842932D01*
X385732Y845576D01*
X384301Y849030D01*
X384301Y852770D01*
X385732Y856224D01*
X388376Y858868D01*
X391830Y860299D01*
X395570Y860299D01*
X399024Y858868D01*
X401668Y856224D01*
X402903Y853243D01*
X402954Y853160D01*
X403000Y853074D01*
X403018Y853056D01*
X403032Y853034D01*
X403108Y852971D01*
X403178Y852905D01*
X403202Y852894D01*
X403222Y852877D01*
X403313Y852842D01*
X403401Y852801D01*
X403427Y852798D01*
X403451Y852789D01*
X403549Y852785D01*
X403645Y852774D01*
X403671Y852779D01*
X403697Y852778D01*
X403791Y852805D01*
X403886Y852826D01*
X403908Y852840D01*
X403933Y852847D01*
X404013Y852902D01*
X404097Y852952D01*
X404114Y852972D01*
X404135Y852987D01*
X404194Y853065D01*
X404257Y853139D01*
X404267Y853163D01*
X404282Y853184D01*
X404312Y853277D01*
X404349Y853367D01*
X404352Y853400D01*
X404358Y853418D01*
X404358Y853451D01*
X404367Y853534D01*
X404367Y873666D01*
X404352Y873762D01*
X404342Y873859D01*
X404332Y873883D01*
X404328Y873909D01*
X404282Y873995D01*
X404242Y874084D01*
X404225Y874103D01*
X404212Y874126D01*
X404142Y874193D01*
X404076Y874265D01*
X404053Y874277D01*
X404034Y874295D01*
X403946Y874336D01*
X403860Y874383D01*
X403835Y874388D01*
X403811Y874399D01*
X403714Y874410D01*
X403618Y874427D01*
X403592Y874423D01*
X403567Y874426D01*
X403471Y874405D01*
X403375Y874391D01*
X403352Y874379D01*
X403326Y874374D01*
X403243Y874324D01*
X403156Y874280D01*
X403137Y874261D01*
X403115Y874248D01*
X403052Y874174D01*
X402984Y874104D01*
X402968Y874076D01*
X402955Y874061D01*
X402943Y874030D01*
X402903Y873957D01*
X401668Y870976D01*
X399024Y868332D01*
X395570Y866901D01*
X391830Y866901D01*
X388376Y868332D01*
X385732Y870976D01*
X384301Y874430D01*
X384301Y878170D01*
X385732Y881624D01*
X388376Y884268D01*
X391830Y885699D01*
X395570Y885699D01*
X399024Y884268D01*
X401668Y881624D01*
X402903Y878643D01*
X402954Y878560D01*
X403000Y878474D01*
X403018Y878456D01*
X403032Y878434D01*
X403108Y878371D01*
X403178Y878305D01*
X403202Y878294D01*
X403222Y878277D01*
X403313Y878242D01*
X403401Y878201D01*
X403427Y878198D01*
X403451Y878189D01*
X403549Y878185D01*
X403645Y878174D01*
X403671Y878179D01*
X403697Y878178D01*
X403791Y878205D01*
X403886Y878226D01*
X403908Y878240D01*
X403933Y878247D01*
X404013Y878302D01*
X404097Y878352D01*
X404114Y878372D01*
X404135Y878387D01*
X404194Y878465D01*
X404257Y878539D01*
X404267Y878563D01*
X404282Y878584D01*
X404312Y878677D01*
X404349Y878767D01*
X404352Y878800D01*
X404358Y878818D01*
X404358Y878851D01*
X404367Y878934D01*
X404367Y899066D01*
X404366Y899074D01*
X404366Y899076D01*
X404364Y899086D01*
X404352Y899162D01*
X404342Y899259D01*
X404332Y899283D01*
X404328Y899309D01*
X404282Y899395D01*
X404242Y899484D01*
X404225Y899503D01*
X404212Y899526D01*
X404142Y899593D01*
X404076Y899665D01*
X404053Y899677D01*
X404034Y899695D01*
X403946Y899736D01*
X403860Y899783D01*
X403835Y899788D01*
X403811Y899799D01*
X403714Y899810D01*
X403618Y899827D01*
X403592Y899823D01*
X403567Y899826D01*
X403471Y899805D01*
X403375Y899791D01*
X403352Y899779D01*
X403326Y899774D01*
X403243Y899724D01*
X403156Y899680D01*
X403137Y899661D01*
X403115Y899648D01*
X403052Y899574D01*
X402984Y899504D01*
X402968Y899476D01*
X402955Y899461D01*
X402943Y899430D01*
X402903Y899357D01*
X401668Y896376D01*
X399024Y893732D01*
X395570Y892301D01*
X391830Y892301D01*
X388376Y893732D01*
X385732Y896376D01*
X384301Y899830D01*
X384301Y903570D01*
X385732Y907024D01*
X388376Y909668D01*
X391830Y911099D01*
X395570Y911099D01*
X399024Y909668D01*
X401668Y907024D01*
X402903Y904043D01*
X402954Y903960D01*
X403000Y903874D01*
X403018Y903856D01*
X403032Y903834D01*
X403108Y903771D01*
X403178Y903705D01*
X403202Y903694D01*
X403222Y903677D01*
X403313Y903642D01*
X403401Y903601D01*
X403427Y903598D01*
X403451Y903589D01*
X403549Y903585D01*
X403645Y903574D01*
X403671Y903579D01*
X403697Y903578D01*
X403791Y903605D01*
X403886Y903626D01*
X403908Y903640D01*
X403933Y903647D01*
X404013Y903702D01*
X404097Y903752D01*
X404114Y903772D01*
X404135Y903787D01*
X404194Y903865D01*
X404257Y903939D01*
X404267Y903963D01*
X404282Y903984D01*
X404312Y904077D01*
X404349Y904167D01*
X404352Y904200D01*
X404358Y904218D01*
X404358Y904251D01*
X404367Y904334D01*
X404367Y986144D01*
X406176Y987953D01*
X406229Y988027D01*
X406289Y988097D01*
X406301Y988127D01*
X406320Y988153D01*
X406347Y988240D01*
X406381Y988325D01*
X406385Y988366D01*
X406392Y988388D01*
X406391Y988420D01*
X406399Y988491D01*
X406399Y988895D01*
X409375Y991871D01*
X413585Y991871D01*
X416561Y988895D01*
X416561Y984685D01*
X413736Y981860D01*
X413683Y981787D01*
X413623Y981717D01*
X413611Y981687D01*
X413592Y981661D01*
X413565Y981574D01*
X413531Y981489D01*
X413527Y981448D01*
X413520Y981426D01*
X413521Y981393D01*
X413513Y981322D01*
X413513Y753498D01*
X413527Y753408D01*
X413535Y753317D01*
X413547Y753287D01*
X413552Y753255D01*
X413595Y753174D01*
X413631Y753091D01*
X413657Y753058D01*
X413668Y753038D01*
X413691Y753016D01*
X413736Y752960D01*
X414021Y752675D01*
X414021Y748465D01*
X411045Y745489D01*
X406835Y745489D01*
G37*
%LPD*%
%LPC*%
G36*
X302695Y388619D02*
X302695Y388619D01*
X299719Y391595D01*
X299719Y395805D01*
X300004Y396090D01*
X300049Y396151D01*
X300079Y396183D01*
X300084Y396195D01*
X300117Y396233D01*
X300129Y396263D01*
X300148Y396289D01*
X300175Y396376D01*
X300209Y396461D01*
X300213Y396502D01*
X300220Y396524D01*
X300219Y396557D01*
X300227Y396628D01*
X300227Y747642D01*
X300213Y747732D01*
X300205Y747823D01*
X300193Y747853D01*
X300188Y747885D01*
X300145Y747966D01*
X300109Y748049D01*
X300083Y748082D01*
X300072Y748102D01*
X300049Y748124D01*
X300004Y748180D01*
X297179Y751005D01*
X297179Y755215D01*
X300155Y758191D01*
X304365Y758191D01*
X307341Y755215D01*
X307341Y754811D01*
X307355Y754721D01*
X307363Y754630D01*
X307375Y754601D01*
X307380Y754569D01*
X307423Y754488D01*
X307459Y754404D01*
X307485Y754372D01*
X307496Y754351D01*
X307519Y754329D01*
X307564Y754273D01*
X309373Y752464D01*
X309373Y396628D01*
X309387Y396538D01*
X309395Y396447D01*
X309407Y396417D01*
X309412Y396385D01*
X309455Y396304D01*
X309491Y396221D01*
X309517Y396188D01*
X309528Y396168D01*
X309551Y396146D01*
X309562Y396132D01*
X309569Y396120D01*
X309576Y396114D01*
X309596Y396090D01*
X309881Y395805D01*
X309881Y391595D01*
X306905Y388619D01*
X302695Y388619D01*
G37*
%LPD*%
%LPC*%
G36*
X35995Y172719D02*
X35995Y172719D01*
X33019Y175695D01*
X33019Y179905D01*
X35995Y182881D01*
X39093Y182881D01*
X39183Y182895D01*
X39274Y182903D01*
X39303Y182915D01*
X39335Y182920D01*
X39416Y182963D01*
X39500Y182999D01*
X39532Y183025D01*
X39553Y183036D01*
X39575Y183059D01*
X39631Y183104D01*
X40992Y184465D01*
X41037Y184527D01*
X41064Y184556D01*
X41069Y184567D01*
X41105Y184608D01*
X41117Y184639D01*
X41136Y184665D01*
X41163Y184752D01*
X41197Y184837D01*
X41201Y184878D01*
X41208Y184900D01*
X41207Y184932D01*
X41215Y185003D01*
X41215Y370003D01*
X41201Y370093D01*
X41193Y370184D01*
X41181Y370214D01*
X41176Y370246D01*
X41133Y370327D01*
X41097Y370410D01*
X41071Y370443D01*
X41060Y370463D01*
X41037Y370485D01*
X40992Y370541D01*
X39369Y372164D01*
X39369Y376374D01*
X42345Y379350D01*
X46555Y379350D01*
X49531Y376374D01*
X49531Y372164D01*
X46774Y369407D01*
X46721Y369334D01*
X46661Y369264D01*
X46649Y369234D01*
X46630Y369208D01*
X46603Y369121D01*
X46569Y369036D01*
X46565Y368995D01*
X46558Y368973D01*
X46559Y368940D01*
X46551Y368869D01*
X46551Y325705D01*
X46558Y325659D01*
X46556Y325613D01*
X46578Y325539D01*
X46590Y325462D01*
X46612Y325421D01*
X46625Y325377D01*
X46669Y325313D01*
X46706Y325245D01*
X46739Y325213D01*
X46765Y325175D01*
X46828Y325129D01*
X46884Y325075D01*
X46926Y325056D01*
X46962Y325028D01*
X47036Y325004D01*
X47107Y324972D01*
X47153Y324966D01*
X47196Y324952D01*
X47274Y324953D01*
X47351Y324944D01*
X47396Y324954D01*
X47442Y324955D01*
X47574Y324993D01*
X47592Y324997D01*
X47596Y324999D01*
X47603Y325001D01*
X49601Y325829D01*
X51999Y325829D01*
X54215Y324911D01*
X55911Y323215D01*
X56829Y320999D01*
X56829Y318601D01*
X55911Y316385D01*
X54215Y314689D01*
X51999Y313771D01*
X49601Y313771D01*
X47603Y314599D01*
X47559Y314609D01*
X47517Y314628D01*
X47440Y314637D01*
X47364Y314655D01*
X47318Y314651D01*
X47273Y314656D01*
X47196Y314639D01*
X47119Y314632D01*
X47077Y314613D01*
X47032Y314603D01*
X46965Y314563D01*
X46894Y314532D01*
X46860Y314501D01*
X46821Y314477D01*
X46770Y314418D01*
X46713Y314365D01*
X46691Y314325D01*
X46661Y314290D01*
X46632Y314218D01*
X46595Y314150D01*
X46586Y314105D01*
X46569Y314062D01*
X46554Y313926D01*
X46551Y313908D01*
X46552Y313903D01*
X46551Y313895D01*
X46551Y295705D01*
X46558Y295659D01*
X46556Y295613D01*
X46578Y295539D01*
X46590Y295462D01*
X46612Y295421D01*
X46625Y295377D01*
X46669Y295313D01*
X46706Y295245D01*
X46739Y295213D01*
X46765Y295175D01*
X46828Y295129D01*
X46884Y295075D01*
X46926Y295056D01*
X46962Y295028D01*
X47036Y295004D01*
X47107Y294972D01*
X47153Y294966D01*
X47196Y294952D01*
X47274Y294953D01*
X47351Y294944D01*
X47396Y294954D01*
X47442Y294955D01*
X47574Y294993D01*
X47592Y294997D01*
X47596Y294999D01*
X47603Y295001D01*
X49601Y295829D01*
X51999Y295829D01*
X54215Y294911D01*
X55911Y293215D01*
X56829Y290999D01*
X56829Y288601D01*
X55911Y286385D01*
X54215Y284689D01*
X51999Y283771D01*
X49601Y283771D01*
X47603Y284599D01*
X47559Y284609D01*
X47517Y284628D01*
X47440Y284637D01*
X47364Y284655D01*
X47318Y284651D01*
X47273Y284656D01*
X47196Y284639D01*
X47119Y284632D01*
X47077Y284613D01*
X47032Y284603D01*
X46965Y284563D01*
X46894Y284532D01*
X46860Y284501D01*
X46821Y284477D01*
X46770Y284418D01*
X46713Y284365D01*
X46691Y284325D01*
X46661Y284290D01*
X46632Y284218D01*
X46595Y284150D01*
X46586Y284105D01*
X46569Y284062D01*
X46554Y283926D01*
X46551Y283908D01*
X46552Y283903D01*
X46551Y283895D01*
X46551Y198705D01*
X46558Y198659D01*
X46556Y198613D01*
X46578Y198539D01*
X46590Y198462D01*
X46612Y198421D01*
X46625Y198377D01*
X46669Y198313D01*
X46706Y198245D01*
X46739Y198213D01*
X46765Y198175D01*
X46828Y198129D01*
X46884Y198075D01*
X46926Y198056D01*
X46962Y198028D01*
X47036Y198004D01*
X47107Y197972D01*
X47153Y197966D01*
X47196Y197952D01*
X47274Y197953D01*
X47351Y197944D01*
X47396Y197954D01*
X47442Y197955D01*
X47574Y197993D01*
X47592Y197997D01*
X47596Y197999D01*
X47603Y198001D01*
X49601Y198829D01*
X51999Y198829D01*
X54215Y197911D01*
X55911Y196215D01*
X56829Y193999D01*
X56829Y191601D01*
X55911Y189385D01*
X54215Y187689D01*
X51999Y186771D01*
X49601Y186771D01*
X47603Y187599D01*
X47559Y187609D01*
X47517Y187628D01*
X47440Y187637D01*
X47364Y187655D01*
X47318Y187651D01*
X47273Y187656D01*
X47196Y187639D01*
X47119Y187632D01*
X47077Y187613D01*
X47032Y187603D01*
X46965Y187563D01*
X46894Y187532D01*
X46860Y187501D01*
X46821Y187477D01*
X46770Y187418D01*
X46713Y187365D01*
X46691Y187325D01*
X46661Y187290D01*
X46632Y187218D01*
X46595Y187150D01*
X46586Y187105D01*
X46569Y187062D01*
X46554Y186926D01*
X46551Y186908D01*
X46552Y186903D01*
X46551Y186895D01*
X46551Y182478D01*
X43404Y179331D01*
X43351Y179257D01*
X43291Y179188D01*
X43279Y179157D01*
X43260Y179131D01*
X43233Y179044D01*
X43199Y178959D01*
X43195Y178918D01*
X43188Y178896D01*
X43189Y178864D01*
X43181Y178793D01*
X43181Y175695D01*
X40205Y172719D01*
X35995Y172719D01*
G37*
%LPD*%
%LPC*%
G36*
X35995Y147319D02*
X35995Y147319D01*
X33805Y149509D01*
X33732Y149562D01*
X33662Y149622D01*
X33632Y149634D01*
X33606Y149653D01*
X33519Y149680D01*
X33434Y149714D01*
X33393Y149718D01*
X33371Y149725D01*
X33338Y149724D01*
X33267Y149732D01*
X28553Y149732D01*
X10413Y167872D01*
X10413Y274440D01*
X10402Y274511D01*
X10400Y274583D01*
X10382Y274632D01*
X10374Y274683D01*
X10340Y274746D01*
X10315Y274814D01*
X10283Y274854D01*
X10258Y274900D01*
X10206Y274950D01*
X10162Y275006D01*
X10118Y275034D01*
X10080Y275070D01*
X10015Y275100D01*
X9955Y275139D01*
X9904Y275151D01*
X9857Y275173D01*
X9786Y275181D01*
X9716Y275199D01*
X9664Y275195D01*
X9613Y275200D01*
X9542Y275185D01*
X9471Y275180D01*
X9423Y275159D01*
X9372Y275148D01*
X9311Y275111D01*
X9245Y275083D01*
X9189Y275039D01*
X9161Y275022D01*
X9146Y275004D01*
X9114Y274979D01*
X8455Y274319D01*
X4245Y274319D01*
X1269Y277295D01*
X1269Y281505D01*
X4245Y284481D01*
X8455Y284481D01*
X9114Y283821D01*
X9172Y283780D01*
X9224Y283730D01*
X9271Y283708D01*
X9313Y283678D01*
X9382Y283657D01*
X9447Y283627D01*
X9499Y283621D01*
X9549Y283606D01*
X9620Y283607D01*
X9691Y283600D01*
X9742Y283611D01*
X9794Y283612D01*
X9862Y283637D01*
X9932Y283652D01*
X9977Y283679D01*
X10025Y283696D01*
X10081Y283741D01*
X10143Y283778D01*
X10177Y283818D01*
X10217Y283850D01*
X10256Y283910D01*
X10303Y283965D01*
X10322Y284013D01*
X10350Y284057D01*
X10368Y284127D01*
X10395Y284193D01*
X10403Y284264D01*
X10411Y284296D01*
X10409Y284319D01*
X10413Y284360D01*
X10413Y363086D01*
X10399Y363176D01*
X10391Y363267D01*
X10379Y363297D01*
X10374Y363329D01*
X10331Y363410D01*
X10295Y363493D01*
X10269Y363526D01*
X10258Y363546D01*
X10235Y363568D01*
X10190Y363624D01*
X7619Y366195D01*
X7619Y370405D01*
X10595Y373381D01*
X14805Y373381D01*
X17781Y370405D01*
X17781Y366195D01*
X15972Y364386D01*
X15925Y364322D01*
X15910Y364306D01*
X15906Y364298D01*
X15859Y364243D01*
X15847Y364213D01*
X15828Y364187D01*
X15801Y364100D01*
X15767Y364015D01*
X15763Y363974D01*
X15756Y363952D01*
X15757Y363919D01*
X15749Y363848D01*
X15749Y170398D01*
X15763Y170308D01*
X15771Y170217D01*
X15783Y170187D01*
X15788Y170155D01*
X15831Y170074D01*
X15867Y169991D01*
X15893Y169958D01*
X15904Y169938D01*
X15927Y169916D01*
X15972Y169860D01*
X30541Y155291D01*
X30614Y155238D01*
X30684Y155178D01*
X30714Y155166D01*
X30740Y155147D01*
X30827Y155120D01*
X30912Y155086D01*
X30953Y155082D01*
X30975Y155075D01*
X31008Y155076D01*
X31079Y155068D01*
X33267Y155068D01*
X33357Y155082D01*
X33448Y155090D01*
X33478Y155102D01*
X33510Y155107D01*
X33591Y155150D01*
X33674Y155186D01*
X33707Y155212D01*
X33727Y155223D01*
X33749Y155246D01*
X33805Y155291D01*
X35995Y157481D01*
X40205Y157481D01*
X43181Y154505D01*
X43181Y150295D01*
X40205Y147319D01*
X35995Y147319D01*
G37*
%LPD*%
%LPC*%
G36*
X239195Y134619D02*
X239195Y134619D01*
X236219Y137595D01*
X236219Y140693D01*
X236205Y140783D01*
X236197Y140874D01*
X236185Y140903D01*
X236180Y140935D01*
X236137Y141016D01*
X236101Y141100D01*
X236075Y141132D01*
X236064Y141153D01*
X236041Y141175D01*
X235996Y141231D01*
X229742Y147485D01*
X229742Y371348D01*
X229739Y371368D01*
X229741Y371387D01*
X229719Y371489D01*
X229703Y371591D01*
X229693Y371608D01*
X229689Y371628D01*
X229636Y371717D01*
X229587Y371808D01*
X229573Y371822D01*
X229563Y371839D01*
X229484Y371906D01*
X229409Y371978D01*
X229391Y371986D01*
X229376Y371999D01*
X229280Y372038D01*
X229186Y372081D01*
X229166Y372083D01*
X229148Y372091D01*
X228981Y372109D01*
X226495Y372109D01*
X223519Y375085D01*
X223519Y379295D01*
X226495Y382271D01*
X230705Y382271D01*
X233681Y379295D01*
X233681Y376197D01*
X233695Y376107D01*
X233703Y376016D01*
X233715Y375987D01*
X233720Y375955D01*
X233763Y375874D01*
X233799Y375790D01*
X233825Y375758D01*
X233836Y375737D01*
X233859Y375715D01*
X233904Y375659D01*
X235078Y374485D01*
X235078Y150010D01*
X235092Y149920D01*
X235100Y149829D01*
X235112Y149800D01*
X235117Y149768D01*
X235160Y149687D01*
X235196Y149603D01*
X235222Y149571D01*
X235233Y149550D01*
X235256Y149528D01*
X235301Y149472D01*
X239769Y145004D01*
X239843Y144951D01*
X239912Y144891D01*
X239943Y144879D01*
X239969Y144860D01*
X240056Y144833D01*
X240141Y144799D01*
X240182Y144795D01*
X240204Y144788D01*
X240236Y144789D01*
X240307Y144781D01*
X243405Y144781D01*
X246381Y141805D01*
X246381Y137595D01*
X243405Y134619D01*
X239195Y134619D01*
G37*
%LPD*%
%LPC*%
G36*
X48695Y820419D02*
X48695Y820419D01*
X45719Y823395D01*
X45719Y823799D01*
X45705Y823889D01*
X45697Y823980D01*
X45685Y824009D01*
X45680Y824041D01*
X45637Y824122D01*
X45601Y824206D01*
X45575Y824238D01*
X45564Y824259D01*
X45541Y824281D01*
X45496Y824337D01*
X23868Y845965D01*
X23810Y846007D01*
X23758Y846056D01*
X23711Y846078D01*
X23669Y846108D01*
X23600Y846130D01*
X23535Y846160D01*
X23483Y846166D01*
X23433Y846181D01*
X23362Y846179D01*
X23291Y846187D01*
X23240Y846176D01*
X23188Y846174D01*
X23120Y846150D01*
X23050Y846135D01*
X23005Y846108D01*
X22957Y846090D01*
X22901Y846045D01*
X22839Y846008D01*
X22805Y845969D01*
X22765Y845936D01*
X22726Y845876D01*
X22679Y845822D01*
X22660Y845773D01*
X22632Y845729D01*
X22614Y845660D01*
X22587Y845593D01*
X22579Y845522D01*
X22571Y845491D01*
X22573Y845468D01*
X22569Y845427D01*
X22569Y845198D01*
X22326Y843977D01*
X21850Y842827D01*
X21158Y841792D01*
X20278Y840912D01*
X19243Y840220D01*
X18093Y839744D01*
X17249Y839576D01*
X17249Y845582D01*
X17246Y845601D01*
X17248Y845621D01*
X17226Y845723D01*
X17210Y845825D01*
X17209Y845826D01*
X17221Y845853D01*
X17223Y845873D01*
X17231Y845891D01*
X17249Y846058D01*
X17249Y852064D01*
X17377Y852038D01*
X17472Y852035D01*
X17565Y852025D01*
X17594Y852031D01*
X17623Y852030D01*
X17714Y852057D01*
X17806Y852077D01*
X17831Y852092D01*
X17859Y852100D01*
X17936Y852155D01*
X18017Y852203D01*
X18036Y852225D01*
X18060Y852242D01*
X18116Y852318D01*
X18177Y852390D01*
X18188Y852417D01*
X18205Y852441D01*
X18233Y852531D01*
X18269Y852618D01*
X18273Y852655D01*
X18279Y852675D01*
X18279Y852708D01*
X18287Y852785D01*
X18287Y901054D01*
X21189Y903956D01*
X35336Y918103D01*
X35389Y918177D01*
X35449Y918247D01*
X35461Y918277D01*
X35480Y918303D01*
X35507Y918390D01*
X35541Y918475D01*
X35545Y918516D01*
X35552Y918538D01*
X35551Y918570D01*
X35559Y918641D01*
X35559Y919045D01*
X38535Y922021D01*
X42745Y922021D01*
X45744Y919022D01*
X45752Y918998D01*
X45760Y918947D01*
X45794Y918884D01*
X45819Y918816D01*
X45851Y918776D01*
X45876Y918730D01*
X45927Y918680D01*
X45972Y918624D01*
X46016Y918596D01*
X46054Y918560D01*
X46119Y918530D01*
X46179Y918491D01*
X46230Y918479D01*
X46277Y918457D01*
X46348Y918449D01*
X46418Y918431D01*
X46470Y918435D01*
X46521Y918430D01*
X46592Y918445D01*
X46663Y918450D01*
X46711Y918471D01*
X46762Y918482D01*
X46823Y918519D01*
X46889Y918547D01*
X46945Y918591D01*
X46973Y918608D01*
X46988Y918626D01*
X46998Y918634D01*
X51212Y918634D01*
X54188Y915658D01*
X54188Y911448D01*
X51212Y908472D01*
X47002Y908472D01*
X44003Y911471D01*
X43995Y911495D01*
X43987Y911546D01*
X43953Y911609D01*
X43928Y911677D01*
X43896Y911717D01*
X43871Y911763D01*
X43820Y911813D01*
X43775Y911869D01*
X43731Y911897D01*
X43693Y911933D01*
X43628Y911963D01*
X43568Y912002D01*
X43517Y912014D01*
X43470Y912036D01*
X43399Y912044D01*
X43329Y912062D01*
X43277Y912058D01*
X43226Y912063D01*
X43155Y912048D01*
X43084Y912043D01*
X43036Y912022D01*
X42985Y912011D01*
X42924Y911974D01*
X42858Y911946D01*
X42802Y911902D01*
X42774Y911885D01*
X42759Y911867D01*
X42749Y911859D01*
X42341Y911859D01*
X42251Y911845D01*
X42160Y911837D01*
X42131Y911825D01*
X42099Y911820D01*
X42018Y911777D01*
X41934Y911741D01*
X41902Y911715D01*
X41881Y911704D01*
X41859Y911681D01*
X41803Y911636D01*
X27656Y897489D01*
X27603Y897415D01*
X27543Y897345D01*
X27531Y897315D01*
X27512Y897289D01*
X27485Y897202D01*
X27451Y897117D01*
X27447Y897076D01*
X27440Y897054D01*
X27441Y897022D01*
X27433Y896951D01*
X27433Y889947D01*
X27444Y889876D01*
X27446Y889804D01*
X27464Y889755D01*
X27472Y889704D01*
X27506Y889641D01*
X27531Y889573D01*
X27563Y889533D01*
X27588Y889487D01*
X27640Y889437D01*
X27684Y889381D01*
X27728Y889353D01*
X27766Y889317D01*
X27831Y889287D01*
X27891Y889248D01*
X27942Y889236D01*
X27989Y889214D01*
X28060Y889206D01*
X28130Y889188D01*
X28182Y889192D01*
X28233Y889187D01*
X28304Y889202D01*
X28375Y889207D01*
X28423Y889228D01*
X28474Y889239D01*
X28535Y889276D01*
X28601Y889304D01*
X28657Y889348D01*
X28685Y889365D01*
X28700Y889383D01*
X28732Y889408D01*
X29975Y890652D01*
X34185Y890652D01*
X37161Y887676D01*
X37161Y883466D01*
X34185Y880490D01*
X29975Y880490D01*
X28732Y881734D01*
X28674Y881775D01*
X28622Y881825D01*
X28575Y881847D01*
X28533Y881877D01*
X28464Y881898D01*
X28399Y881928D01*
X28347Y881934D01*
X28297Y881949D01*
X28226Y881948D01*
X28155Y881955D01*
X28104Y881944D01*
X28052Y881943D01*
X27984Y881918D01*
X27914Y881903D01*
X27869Y881876D01*
X27821Y881859D01*
X27765Y881814D01*
X27703Y881777D01*
X27669Y881737D01*
X27629Y881705D01*
X27590Y881645D01*
X27543Y881590D01*
X27524Y881542D01*
X27496Y881498D01*
X27478Y881429D01*
X27451Y881362D01*
X27443Y881291D01*
X27435Y881259D01*
X27437Y881236D01*
X27433Y881195D01*
X27433Y870204D01*
X27436Y870184D01*
X27434Y870165D01*
X27456Y870063D01*
X27472Y869961D01*
X27482Y869944D01*
X27486Y869924D01*
X27539Y869835D01*
X27588Y869744D01*
X27602Y869730D01*
X27612Y869713D01*
X27691Y869646D01*
X27766Y869574D01*
X27784Y869566D01*
X27799Y869553D01*
X27895Y869514D01*
X27989Y869471D01*
X28009Y869469D01*
X28027Y869461D01*
X28194Y869443D01*
X30092Y869443D01*
X30182Y869457D01*
X30273Y869465D01*
X30303Y869477D01*
X30335Y869482D01*
X30416Y869525D01*
X30499Y869561D01*
X30532Y869587D01*
X30552Y869598D01*
X30574Y869621D01*
X30630Y869666D01*
X30915Y869951D01*
X35125Y869951D01*
X38101Y866975D01*
X38101Y862765D01*
X35125Y859789D01*
X30915Y859789D01*
X30630Y860074D01*
X30557Y860127D01*
X30487Y860187D01*
X30457Y860199D01*
X30431Y860218D01*
X30344Y860245D01*
X30259Y860279D01*
X30218Y860283D01*
X30196Y860290D01*
X30163Y860289D01*
X30092Y860297D01*
X28194Y860297D01*
X28174Y860294D01*
X28155Y860296D01*
X28053Y860274D01*
X27951Y860258D01*
X27934Y860248D01*
X27914Y860244D01*
X27825Y860191D01*
X27734Y860142D01*
X27720Y860128D01*
X27703Y860118D01*
X27636Y860039D01*
X27564Y859964D01*
X27556Y859946D01*
X27543Y859931D01*
X27504Y859835D01*
X27461Y859741D01*
X27459Y859721D01*
X27451Y859703D01*
X27433Y859536D01*
X27433Y855649D01*
X27439Y855612D01*
X27438Y855606D01*
X27445Y855573D01*
X27447Y855559D01*
X27455Y855468D01*
X27467Y855439D01*
X27472Y855407D01*
X27488Y855378D01*
X27490Y855365D01*
X27518Y855318D01*
X27551Y855242D01*
X27577Y855210D01*
X27588Y855189D01*
X27606Y855172D01*
X27617Y855154D01*
X27632Y855141D01*
X27656Y855111D01*
X51963Y830804D01*
X52037Y830751D01*
X52107Y830691D01*
X52137Y830679D01*
X52163Y830660D01*
X52250Y830633D01*
X52335Y830599D01*
X52376Y830595D01*
X52398Y830588D01*
X52430Y830589D01*
X52501Y830581D01*
X52905Y830581D01*
X55881Y827605D01*
X55881Y823395D01*
X52905Y820419D01*
X48695Y820419D01*
G37*
%LPD*%
%LPC*%
G36*
X61395Y172719D02*
X61395Y172719D01*
X58419Y175695D01*
X58419Y179905D01*
X60609Y182095D01*
X60662Y182168D01*
X60722Y182238D01*
X60734Y182268D01*
X60753Y182294D01*
X60780Y182381D01*
X60814Y182466D01*
X60818Y182507D01*
X60825Y182529D01*
X60824Y182562D01*
X60832Y182633D01*
X60832Y385057D01*
X60818Y385147D01*
X60810Y385238D01*
X60798Y385268D01*
X60793Y385300D01*
X60750Y385381D01*
X60714Y385464D01*
X60688Y385497D01*
X60677Y385517D01*
X60654Y385539D01*
X60609Y385595D01*
X58419Y387785D01*
X58419Y391995D01*
X61395Y394971D01*
X65605Y394971D01*
X68581Y391995D01*
X68581Y387785D01*
X66391Y385595D01*
X66338Y385522D01*
X66278Y385452D01*
X66266Y385422D01*
X66247Y385396D01*
X66220Y385309D01*
X66186Y385224D01*
X66182Y385183D01*
X66175Y385161D01*
X66176Y385128D01*
X66168Y385057D01*
X66168Y182633D01*
X66182Y182543D01*
X66190Y182452D01*
X66202Y182422D01*
X66207Y182390D01*
X66250Y182309D01*
X66286Y182226D01*
X66312Y182193D01*
X66323Y182173D01*
X66346Y182151D01*
X66391Y182095D01*
X68581Y179905D01*
X68581Y175695D01*
X65605Y172719D01*
X61395Y172719D01*
G37*
%LPD*%
%LPC*%
G36*
X455330Y295401D02*
X455330Y295401D01*
X451876Y296832D01*
X449232Y299476D01*
X447801Y302930D01*
X447801Y306670D01*
X449232Y310124D01*
X451876Y312768D01*
X455330Y314199D01*
X459070Y314199D01*
X459351Y314082D01*
X459464Y314056D01*
X459578Y314027D01*
X459584Y314027D01*
X459590Y314026D01*
X459707Y314037D01*
X459823Y314046D01*
X459829Y314049D01*
X459835Y314049D01*
X459943Y314097D01*
X460049Y314142D01*
X460055Y314147D01*
X460060Y314149D01*
X460074Y314162D01*
X460180Y314247D01*
X465104Y319171D01*
X465157Y319245D01*
X465217Y319315D01*
X465229Y319345D01*
X465248Y319371D01*
X465275Y319458D01*
X465309Y319543D01*
X465313Y319584D01*
X465320Y319606D01*
X465319Y319638D01*
X465327Y319709D01*
X465327Y390772D01*
X465313Y390862D01*
X465305Y390953D01*
X465293Y390983D01*
X465288Y391015D01*
X465245Y391096D01*
X465209Y391180D01*
X465183Y391212D01*
X465172Y391232D01*
X465149Y391254D01*
X465104Y391311D01*
X464819Y391596D01*
X464819Y395805D01*
X467795Y398781D01*
X472005Y398781D01*
X474981Y395805D01*
X474981Y391596D01*
X474696Y391311D01*
X474642Y391236D01*
X474583Y391167D01*
X474571Y391137D01*
X474552Y391111D01*
X474525Y391024D01*
X474491Y390939D01*
X474487Y390898D01*
X474480Y390876D01*
X474481Y390843D01*
X474473Y390772D01*
X474473Y315606D01*
X466647Y307780D01*
X466579Y307686D01*
X466509Y307592D01*
X466507Y307586D01*
X466504Y307581D01*
X466469Y307469D01*
X466433Y307358D01*
X466433Y307352D01*
X466431Y307346D01*
X466434Y307229D01*
X466435Y307112D01*
X466438Y307105D01*
X466438Y307100D01*
X466444Y307082D01*
X466482Y306951D01*
X466599Y306670D01*
X466599Y302930D01*
X465168Y299476D01*
X462524Y296832D01*
X459070Y295401D01*
X455330Y295401D01*
G37*
%LPD*%
%LPC*%
G36*
X548151Y252856D02*
X548151Y252856D01*
X541616Y255563D01*
X536614Y260565D01*
X533907Y267100D01*
X533907Y274174D01*
X536614Y280709D01*
X541616Y285711D01*
X548151Y288418D01*
X555225Y288418D01*
X561760Y285711D01*
X566762Y280709D01*
X569469Y274174D01*
X569469Y267100D01*
X566762Y260565D01*
X561760Y255563D01*
X555225Y252856D01*
X548151Y252856D01*
G37*
%LPD*%
%LPC*%
G36*
X548151Y752982D02*
X548151Y752982D01*
X541616Y755689D01*
X536614Y760691D01*
X533907Y767226D01*
X533907Y774300D01*
X536614Y780835D01*
X541616Y785837D01*
X548151Y788544D01*
X555225Y788544D01*
X561760Y785837D01*
X566762Y780835D01*
X569469Y774300D01*
X569469Y767226D01*
X566762Y760691D01*
X561760Y755689D01*
X555225Y752982D01*
X548151Y752982D01*
G37*
%LPD*%
%LPC*%
G36*
X-21825Y252856D02*
X-21825Y252856D01*
X-28360Y255563D01*
X-33362Y260565D01*
X-36069Y267100D01*
X-36069Y274174D01*
X-33362Y280709D01*
X-28360Y285711D01*
X-21825Y288418D01*
X-14751Y288418D01*
X-8216Y285711D01*
X-3214Y280709D01*
X-507Y274174D01*
X-507Y267100D01*
X-3214Y260565D01*
X-8216Y255563D01*
X-14751Y252856D01*
X-21825Y252856D01*
G37*
%LPD*%
%LPC*%
G36*
X-21825Y752982D02*
X-21825Y752982D01*
X-28360Y755689D01*
X-33362Y760691D01*
X-36069Y767226D01*
X-36069Y774300D01*
X-33362Y780835D01*
X-28360Y785837D01*
X-21825Y788544D01*
X-14751Y788544D01*
X-8216Y785837D01*
X-3214Y780835D01*
X-507Y774300D01*
X-507Y767226D01*
X-3214Y760691D01*
X-8216Y755689D01*
X-14751Y752982D01*
X-21825Y752982D01*
G37*
%LPD*%
%LPC*%
G36*
X442395Y684529D02*
X442395Y684529D01*
X439419Y687505D01*
X439419Y691715D01*
X439704Y692000D01*
X439757Y692073D01*
X439817Y692143D01*
X439829Y692173D01*
X439848Y692199D01*
X439875Y692286D01*
X439909Y692371D01*
X439913Y692412D01*
X439920Y692434D01*
X439919Y692467D01*
X439927Y692538D01*
X439927Y781932D01*
X439913Y782022D01*
X439905Y782113D01*
X439893Y782143D01*
X439888Y782175D01*
X439845Y782256D01*
X439809Y782339D01*
X439783Y782372D01*
X439772Y782392D01*
X439749Y782414D01*
X439704Y782470D01*
X439419Y782755D01*
X439419Y786965D01*
X442395Y789941D01*
X446605Y789941D01*
X449581Y786965D01*
X449581Y782755D01*
X449296Y782470D01*
X449243Y782397D01*
X449183Y782327D01*
X449171Y782297D01*
X449152Y782271D01*
X449125Y782184D01*
X449091Y782099D01*
X449087Y782058D01*
X449080Y782036D01*
X449081Y782003D01*
X449073Y781932D01*
X449073Y692538D01*
X449087Y692448D01*
X449095Y692357D01*
X449107Y692327D01*
X449112Y692295D01*
X449155Y692214D01*
X449191Y692131D01*
X449217Y692098D01*
X449228Y692078D01*
X449251Y692056D01*
X449296Y692000D01*
X449581Y691715D01*
X449581Y687505D01*
X446605Y684529D01*
X442395Y684529D01*
G37*
%LPD*%
%LPC*%
G36*
X77577Y506221D02*
X77577Y506221D01*
X74648Y509150D01*
X74648Y517017D01*
X76359Y518729D01*
X77796Y520165D01*
X77807Y520182D01*
X77823Y520194D01*
X77852Y520239D01*
X77878Y520267D01*
X77896Y520305D01*
X77939Y520365D01*
X77945Y520384D01*
X77956Y520401D01*
X77974Y520473D01*
X77982Y520490D01*
X77984Y520511D01*
X78012Y520600D01*
X78011Y520620D01*
X78016Y520639D01*
X78009Y520732D01*
X78009Y520734D01*
X78008Y520738D01*
X78008Y520742D01*
X78005Y520846D01*
X77999Y520865D01*
X77997Y520885D01*
X77957Y520980D01*
X77921Y521077D01*
X77908Y521093D01*
X77901Y521111D01*
X77796Y521242D01*
X76650Y522387D01*
X76634Y522399D01*
X76622Y522415D01*
X76535Y522471D01*
X76451Y522531D01*
X76432Y522537D01*
X76415Y522548D01*
X76315Y522573D01*
X76216Y522603D01*
X76196Y522603D01*
X76176Y522608D01*
X76073Y522600D01*
X75970Y522597D01*
X75951Y522590D01*
X75931Y522588D01*
X75836Y522548D01*
X75739Y522512D01*
X75723Y522500D01*
X75705Y522492D01*
X75574Y522387D01*
X74648Y521461D01*
X72543Y521461D01*
X71253Y522752D01*
X71236Y522763D01*
X71224Y522779D01*
X71137Y522835D01*
X71053Y522895D01*
X71034Y522901D01*
X71017Y522912D01*
X70917Y522937D01*
X70818Y522968D01*
X70798Y522967D01*
X70779Y522972D01*
X70676Y522964D01*
X70572Y522961D01*
X70553Y522954D01*
X70533Y522953D01*
X70438Y522912D01*
X70341Y522877D01*
X70325Y522864D01*
X70307Y522857D01*
X70176Y522752D01*
X68886Y521461D01*
X66781Y521461D01*
X65292Y522950D01*
X65292Y533698D01*
X66781Y535186D01*
X73207Y535186D01*
X74425Y533969D01*
X76294Y532099D01*
X76310Y532088D01*
X76323Y532072D01*
X76410Y532016D01*
X76494Y531956D01*
X76513Y531950D01*
X76530Y531939D01*
X76630Y531914D01*
X76729Y531883D01*
X76749Y531884D01*
X76768Y531879D01*
X76871Y531887D01*
X76975Y531890D01*
X76994Y531897D01*
X77013Y531898D01*
X77108Y531938D01*
X77206Y531974D01*
X77222Y531987D01*
X77240Y531994D01*
X77371Y532099D01*
X77577Y532305D01*
X82563Y532305D01*
X83489Y531379D01*
X83505Y531367D01*
X83517Y531352D01*
X83604Y531296D01*
X83688Y531235D01*
X83707Y531230D01*
X83724Y531219D01*
X83825Y531193D01*
X83923Y531163D01*
X83943Y531164D01*
X83963Y531159D01*
X84066Y531167D01*
X84169Y531169D01*
X84188Y531176D01*
X84208Y531178D01*
X84303Y531218D01*
X84400Y531254D01*
X84416Y531266D01*
X84434Y531274D01*
X84565Y531379D01*
X85491Y532305D01*
X87596Y532305D01*
X88886Y531015D01*
X88903Y531003D01*
X88915Y530987D01*
X89002Y530931D01*
X89086Y530871D01*
X89105Y530865D01*
X89122Y530854D01*
X89222Y530829D01*
X89321Y530799D01*
X89341Y530799D01*
X89360Y530794D01*
X89463Y530802D01*
X89567Y530805D01*
X89586Y530812D01*
X89606Y530813D01*
X89701Y530854D01*
X89798Y530889D01*
X89814Y530902D01*
X89832Y530910D01*
X89963Y531015D01*
X91253Y532305D01*
X93358Y532305D01*
X93564Y532099D01*
X93580Y532088D01*
X93593Y532072D01*
X93680Y532016D01*
X93764Y531956D01*
X93783Y531950D01*
X93800Y531939D01*
X93900Y531914D01*
X93999Y531883D01*
X94019Y531884D01*
X94038Y531879D01*
X94141Y531887D01*
X94245Y531890D01*
X94263Y531897D01*
X94283Y531898D01*
X94378Y531938D01*
X94476Y531974D01*
X94491Y531987D01*
X94510Y531994D01*
X94641Y532099D01*
X96287Y533746D01*
X98392Y533746D01*
X99609Y532528D01*
X100640Y531498D01*
X100656Y531486D01*
X100668Y531470D01*
X100755Y531414D01*
X100839Y531354D01*
X100859Y531348D01*
X100875Y531337D01*
X100976Y531312D01*
X101075Y531282D01*
X101094Y531282D01*
X101114Y531277D01*
X101217Y531285D01*
X101320Y531288D01*
X101339Y531295D01*
X101359Y531296D01*
X101454Y531337D01*
X101551Y531372D01*
X101567Y531385D01*
X101585Y531393D01*
X101716Y531498D01*
X102524Y532305D01*
X107510Y532305D01*
X110439Y529376D01*
X110439Y525831D01*
X109221Y524613D01*
X109168Y524539D01*
X109108Y524470D01*
X109096Y524440D01*
X109077Y524413D01*
X109051Y524326D01*
X109016Y524242D01*
X109012Y524201D01*
X109005Y524178D01*
X109006Y524146D01*
X108998Y524075D01*
X108998Y522950D01*
X107510Y521461D01*
X102524Y521461D01*
X101716Y522269D01*
X101700Y522280D01*
X101688Y522296D01*
X101601Y522352D01*
X101517Y522412D01*
X101498Y522418D01*
X101481Y522429D01*
X101380Y522454D01*
X101281Y522485D01*
X101262Y522484D01*
X101242Y522489D01*
X101139Y522481D01*
X101036Y522478D01*
X101017Y522471D01*
X100997Y522470D01*
X100902Y522429D01*
X100805Y522394D01*
X100789Y522381D01*
X100771Y522374D01*
X100640Y522269D01*
X99832Y521461D01*
X97727Y521461D01*
X96081Y523108D01*
X96065Y523119D01*
X96053Y523135D01*
X95965Y523191D01*
X95881Y523251D01*
X95862Y523257D01*
X95846Y523268D01*
X95745Y523293D01*
X95646Y523324D01*
X95626Y523323D01*
X95607Y523328D01*
X95504Y523320D01*
X95400Y523317D01*
X95382Y523310D01*
X95362Y523309D01*
X95267Y523268D01*
X95169Y523233D01*
X95154Y523220D01*
X95136Y523212D01*
X95005Y523108D01*
X93358Y521461D01*
X86932Y521461D01*
X85285Y523108D01*
X85269Y523119D01*
X85257Y523135D01*
X85169Y523191D01*
X85086Y523251D01*
X85067Y523257D01*
X85050Y523268D01*
X84949Y523293D01*
X84851Y523324D01*
X84831Y523323D01*
X84811Y523328D01*
X84708Y523320D01*
X84605Y523317D01*
X84586Y523310D01*
X84566Y523309D01*
X84471Y523268D01*
X84374Y523233D01*
X84358Y523220D01*
X84340Y523212D01*
X84209Y523108D01*
X83780Y522679D01*
X82343Y521242D01*
X82332Y521226D01*
X82316Y521213D01*
X82260Y521126D01*
X82200Y521042D01*
X82194Y521023D01*
X82183Y521006D01*
X82158Y520906D01*
X82127Y520807D01*
X82128Y520787D01*
X82123Y520768D01*
X82131Y520665D01*
X82130Y520656D01*
X82131Y520649D01*
X82134Y520561D01*
X82141Y520542D01*
X82142Y520523D01*
X82176Y520442D01*
X82182Y520415D01*
X82195Y520394D01*
X82218Y520330D01*
X82231Y520315D01*
X82238Y520296D01*
X82297Y520223D01*
X82308Y520204D01*
X82321Y520194D01*
X82343Y520165D01*
X85221Y517288D01*
X85295Y517235D01*
X85364Y517175D01*
X85394Y517163D01*
X85420Y517144D01*
X85508Y517118D01*
X85592Y517083D01*
X85633Y517079D01*
X85655Y517072D01*
X85688Y517073D01*
X85759Y517065D01*
X87596Y517065D01*
X88886Y515775D01*
X88903Y515763D01*
X88915Y515747D01*
X89002Y515691D01*
X89086Y515631D01*
X89105Y515625D01*
X89122Y515614D01*
X89222Y515589D01*
X89321Y515559D01*
X89341Y515559D01*
X89360Y515554D01*
X89463Y515562D01*
X89567Y515565D01*
X89586Y515572D01*
X89606Y515573D01*
X89701Y515614D01*
X89798Y515649D01*
X89814Y515662D01*
X89832Y515670D01*
X89963Y515775D01*
X91253Y517065D01*
X93358Y517065D01*
X93564Y516859D01*
X93580Y516848D01*
X93593Y516832D01*
X93680Y516776D01*
X93764Y516716D01*
X93783Y516710D01*
X93800Y516699D01*
X93900Y516674D01*
X93999Y516643D01*
X94019Y516644D01*
X94038Y516639D01*
X94141Y516647D01*
X94245Y516650D01*
X94263Y516657D01*
X94283Y516658D01*
X94378Y516698D01*
X94476Y516734D01*
X94491Y516747D01*
X94510Y516754D01*
X94641Y516859D01*
X96287Y518506D01*
X98392Y518506D01*
X101321Y515577D01*
X101321Y513472D01*
X100103Y512254D01*
X100050Y512180D01*
X99990Y512111D01*
X99978Y512081D01*
X99960Y512054D01*
X99933Y511968D01*
X99899Y511883D01*
X99894Y511842D01*
X99887Y511819D01*
X99888Y511787D01*
X99880Y511716D01*
X99880Y511570D01*
X99895Y511480D01*
X99902Y511389D01*
X99915Y511360D01*
X99920Y511328D01*
X99943Y511284D01*
X99944Y511280D01*
X99955Y511262D01*
X99963Y511247D01*
X99998Y511163D01*
X100024Y511131D01*
X100035Y511110D01*
X100058Y511088D01*
X100059Y511087D01*
X100070Y511069D01*
X100081Y511059D01*
X100103Y511032D01*
X101321Y509814D01*
X101321Y507710D01*
X99832Y506221D01*
X97727Y506221D01*
X96081Y507868D01*
X96065Y507879D01*
X96053Y507895D01*
X95965Y507951D01*
X95881Y508011D01*
X95862Y508017D01*
X95846Y508028D01*
X95745Y508053D01*
X95646Y508084D01*
X95626Y508083D01*
X95607Y508088D01*
X95504Y508080D01*
X95400Y508077D01*
X95382Y508070D01*
X95362Y508069D01*
X95267Y508028D01*
X95169Y507993D01*
X95154Y507980D01*
X95136Y507972D01*
X95005Y507868D01*
X93358Y506221D01*
X86932Y506221D01*
X85285Y507868D01*
X85269Y507879D01*
X85257Y507895D01*
X85169Y507951D01*
X85086Y508011D01*
X85067Y508017D01*
X85050Y508028D01*
X84949Y508053D01*
X84851Y508084D01*
X84831Y508083D01*
X84811Y508088D01*
X84708Y508080D01*
X84605Y508077D01*
X84586Y508070D01*
X84566Y508069D01*
X84471Y508028D01*
X84374Y507993D01*
X84358Y507980D01*
X84340Y507972D01*
X84209Y507868D01*
X83780Y507439D01*
X82563Y506221D01*
X77577Y506221D01*
G37*
%LPD*%
%LPC*%
G36*
X433177Y506221D02*
X433177Y506221D01*
X430248Y509150D01*
X430248Y517017D01*
X431959Y518729D01*
X433396Y520165D01*
X433407Y520182D01*
X433423Y520194D01*
X433452Y520239D01*
X433478Y520267D01*
X433496Y520305D01*
X433539Y520365D01*
X433545Y520384D01*
X433556Y520401D01*
X433574Y520473D01*
X433582Y520490D01*
X433584Y520511D01*
X433612Y520600D01*
X433611Y520620D01*
X433616Y520639D01*
X433609Y520732D01*
X433609Y520734D01*
X433608Y520738D01*
X433608Y520742D01*
X433605Y520846D01*
X433599Y520865D01*
X433597Y520885D01*
X433557Y520980D01*
X433521Y521077D01*
X433508Y521093D01*
X433501Y521111D01*
X433396Y521242D01*
X432250Y522387D01*
X432234Y522399D01*
X432222Y522415D01*
X432135Y522471D01*
X432051Y522531D01*
X432032Y522537D01*
X432015Y522548D01*
X431915Y522573D01*
X431816Y522603D01*
X431796Y522603D01*
X431776Y522608D01*
X431673Y522600D01*
X431570Y522597D01*
X431551Y522590D01*
X431531Y522588D01*
X431436Y522548D01*
X431339Y522512D01*
X431323Y522500D01*
X431305Y522492D01*
X431174Y522387D01*
X430248Y521461D01*
X428143Y521461D01*
X426853Y522752D01*
X426836Y522763D01*
X426824Y522779D01*
X426737Y522835D01*
X426653Y522895D01*
X426634Y522901D01*
X426617Y522912D01*
X426517Y522937D01*
X426418Y522968D01*
X426398Y522967D01*
X426379Y522972D01*
X426276Y522964D01*
X426172Y522961D01*
X426153Y522954D01*
X426133Y522953D01*
X426038Y522912D01*
X425941Y522877D01*
X425925Y522864D01*
X425907Y522857D01*
X425776Y522752D01*
X424486Y521461D01*
X422381Y521461D01*
X420892Y522950D01*
X420892Y533698D01*
X422381Y535186D01*
X428807Y535186D01*
X430025Y533969D01*
X431894Y532099D01*
X431910Y532088D01*
X431923Y532072D01*
X432010Y532016D01*
X432094Y531956D01*
X432113Y531950D01*
X432130Y531939D01*
X432230Y531914D01*
X432329Y531883D01*
X432349Y531884D01*
X432368Y531879D01*
X432471Y531887D01*
X432575Y531890D01*
X432594Y531897D01*
X432613Y531898D01*
X432708Y531938D01*
X432806Y531974D01*
X432822Y531987D01*
X432840Y531994D01*
X432971Y532099D01*
X433177Y532305D01*
X438163Y532305D01*
X439089Y531379D01*
X439105Y531367D01*
X439117Y531352D01*
X439204Y531296D01*
X439288Y531235D01*
X439307Y531230D01*
X439324Y531219D01*
X439425Y531193D01*
X439523Y531163D01*
X439543Y531164D01*
X439563Y531159D01*
X439666Y531167D01*
X439769Y531169D01*
X439788Y531176D01*
X439808Y531178D01*
X439903Y531218D01*
X440000Y531254D01*
X440016Y531266D01*
X440034Y531274D01*
X440165Y531379D01*
X441091Y532305D01*
X443196Y532305D01*
X444486Y531015D01*
X444503Y531003D01*
X444515Y530987D01*
X444602Y530931D01*
X444686Y530871D01*
X444705Y530865D01*
X444722Y530854D01*
X444822Y530829D01*
X444921Y530799D01*
X444941Y530799D01*
X444960Y530794D01*
X445063Y530802D01*
X445167Y530805D01*
X445186Y530812D01*
X445206Y530813D01*
X445301Y530854D01*
X445398Y530889D01*
X445414Y530902D01*
X445432Y530910D01*
X445563Y531015D01*
X446853Y532305D01*
X448958Y532305D01*
X449164Y532099D01*
X449180Y532088D01*
X449193Y532072D01*
X449280Y532016D01*
X449364Y531956D01*
X449383Y531950D01*
X449400Y531939D01*
X449500Y531914D01*
X449599Y531883D01*
X449619Y531884D01*
X449638Y531879D01*
X449741Y531887D01*
X449845Y531890D01*
X449863Y531897D01*
X449883Y531898D01*
X449978Y531938D01*
X450076Y531974D01*
X450091Y531987D01*
X450110Y531994D01*
X450241Y532099D01*
X451887Y533746D01*
X453992Y533746D01*
X455703Y532034D01*
X456240Y531498D01*
X456256Y531486D01*
X456268Y531470D01*
X456356Y531414D01*
X456439Y531354D01*
X456458Y531348D01*
X456475Y531337D01*
X456576Y531312D01*
X456675Y531282D01*
X456694Y531282D01*
X456714Y531277D01*
X456817Y531285D01*
X456920Y531288D01*
X456939Y531295D01*
X456959Y531296D01*
X457054Y531337D01*
X457151Y531372D01*
X457167Y531385D01*
X457185Y531393D01*
X457316Y531498D01*
X458124Y532305D01*
X463110Y532305D01*
X466039Y529376D01*
X466039Y525831D01*
X464821Y524613D01*
X464768Y524539D01*
X464708Y524470D01*
X464696Y524440D01*
X464677Y524413D01*
X464651Y524326D01*
X464616Y524242D01*
X464612Y524201D01*
X464605Y524178D01*
X464606Y524146D01*
X464598Y524075D01*
X464598Y522950D01*
X463110Y521461D01*
X458124Y521461D01*
X457316Y522269D01*
X457300Y522280D01*
X457288Y522296D01*
X457201Y522352D01*
X457117Y522412D01*
X457098Y522418D01*
X457081Y522429D01*
X456980Y522454D01*
X456881Y522485D01*
X456862Y522484D01*
X456842Y522489D01*
X456739Y522481D01*
X456636Y522478D01*
X456617Y522471D01*
X456597Y522470D01*
X456502Y522429D01*
X456405Y522394D01*
X456389Y522381D01*
X456371Y522374D01*
X456240Y522269D01*
X455432Y521461D01*
X453327Y521461D01*
X452110Y522679D01*
X451681Y523108D01*
X451665Y523119D01*
X451653Y523135D01*
X451565Y523191D01*
X451481Y523251D01*
X451462Y523257D01*
X451446Y523268D01*
X451345Y523293D01*
X451246Y523324D01*
X451226Y523323D01*
X451207Y523328D01*
X451104Y523320D01*
X451000Y523317D01*
X450982Y523310D01*
X450962Y523309D01*
X450867Y523268D01*
X450769Y523233D01*
X450754Y523220D01*
X450736Y523212D01*
X450605Y523108D01*
X448958Y521461D01*
X442532Y521461D01*
X440885Y523108D01*
X440869Y523119D01*
X440857Y523135D01*
X440769Y523191D01*
X440686Y523251D01*
X440667Y523257D01*
X440650Y523268D01*
X440549Y523293D01*
X440451Y523324D01*
X440431Y523323D01*
X440411Y523328D01*
X440308Y523320D01*
X440205Y523317D01*
X440186Y523310D01*
X440166Y523309D01*
X440071Y523268D01*
X439974Y523233D01*
X439958Y523220D01*
X439940Y523212D01*
X439809Y523108D01*
X439380Y522679D01*
X437943Y521242D01*
X437932Y521226D01*
X437916Y521213D01*
X437860Y521126D01*
X437800Y521042D01*
X437794Y521023D01*
X437783Y521006D01*
X437758Y520906D01*
X437727Y520807D01*
X437728Y520787D01*
X437723Y520768D01*
X437731Y520665D01*
X437730Y520656D01*
X437731Y520649D01*
X437734Y520561D01*
X437741Y520542D01*
X437742Y520523D01*
X437776Y520442D01*
X437782Y520415D01*
X437795Y520394D01*
X437818Y520330D01*
X437831Y520315D01*
X437838Y520296D01*
X437897Y520223D01*
X437908Y520204D01*
X437921Y520194D01*
X437943Y520165D01*
X440821Y517288D01*
X440895Y517235D01*
X440964Y517175D01*
X440994Y517163D01*
X441020Y517144D01*
X441108Y517118D01*
X441192Y517083D01*
X441233Y517079D01*
X441255Y517072D01*
X441288Y517073D01*
X441359Y517065D01*
X443196Y517065D01*
X444486Y515775D01*
X444503Y515763D01*
X444515Y515747D01*
X444602Y515691D01*
X444686Y515631D01*
X444705Y515625D01*
X444722Y515614D01*
X444822Y515589D01*
X444921Y515559D01*
X444941Y515559D01*
X444960Y515554D01*
X445063Y515562D01*
X445167Y515565D01*
X445186Y515572D01*
X445206Y515573D01*
X445301Y515614D01*
X445398Y515649D01*
X445414Y515662D01*
X445432Y515670D01*
X445563Y515775D01*
X446853Y517065D01*
X448958Y517065D01*
X449164Y516859D01*
X449180Y516848D01*
X449193Y516832D01*
X449280Y516776D01*
X449364Y516716D01*
X449383Y516710D01*
X449400Y516699D01*
X449500Y516674D01*
X449599Y516643D01*
X449619Y516644D01*
X449638Y516639D01*
X449741Y516647D01*
X449845Y516650D01*
X449863Y516657D01*
X449883Y516658D01*
X449978Y516698D01*
X450076Y516734D01*
X450091Y516747D01*
X450110Y516754D01*
X450241Y516859D01*
X451887Y518506D01*
X453992Y518506D01*
X456921Y515577D01*
X456921Y513472D01*
X455703Y512254D01*
X455650Y512180D01*
X455590Y512111D01*
X455578Y512081D01*
X455560Y512054D01*
X455533Y511968D01*
X455499Y511883D01*
X455494Y511842D01*
X455487Y511819D01*
X455488Y511787D01*
X455480Y511716D01*
X455480Y511570D01*
X455495Y511480D01*
X455502Y511389D01*
X455515Y511360D01*
X455520Y511328D01*
X455543Y511284D01*
X455544Y511280D01*
X455555Y511262D01*
X455563Y511247D01*
X455598Y511163D01*
X455624Y511131D01*
X455635Y511110D01*
X455658Y511088D01*
X455659Y511087D01*
X455670Y511069D01*
X455681Y511059D01*
X455703Y511032D01*
X456921Y509814D01*
X456921Y507710D01*
X455432Y506221D01*
X453327Y506221D01*
X451681Y507868D01*
X451665Y507879D01*
X451653Y507895D01*
X451565Y507951D01*
X451481Y508011D01*
X451462Y508017D01*
X451446Y508028D01*
X451345Y508053D01*
X451246Y508084D01*
X451226Y508083D01*
X451207Y508088D01*
X451104Y508080D01*
X451000Y508077D01*
X450982Y508070D01*
X450962Y508069D01*
X450867Y508028D01*
X450769Y507993D01*
X450754Y507980D01*
X450736Y507972D01*
X450605Y507868D01*
X448958Y506221D01*
X442532Y506221D01*
X440885Y507868D01*
X440869Y507879D01*
X440857Y507895D01*
X440769Y507951D01*
X440686Y508011D01*
X440667Y508017D01*
X440650Y508028D01*
X440549Y508053D01*
X440451Y508084D01*
X440431Y508083D01*
X440411Y508088D01*
X440308Y508080D01*
X440205Y508077D01*
X440186Y508070D01*
X440166Y508069D01*
X440071Y508028D01*
X439974Y507993D01*
X439958Y507980D01*
X439940Y507972D01*
X439809Y507868D01*
X439380Y507439D01*
X438163Y506221D01*
X433177Y506221D01*
G37*
%LPD*%
%LPC*%
G36*
X-52670Y320801D02*
X-52670Y320801D01*
X-56124Y322232D01*
X-58768Y324876D01*
X-60199Y328330D01*
X-60199Y332070D01*
X-58768Y335524D01*
X-56124Y338168D01*
X-52670Y339599D01*
X-48930Y339599D01*
X-45476Y338168D01*
X-42832Y335524D01*
X-41401Y332070D01*
X-41401Y328330D01*
X-42832Y324876D01*
X-45476Y322232D01*
X-48930Y320801D01*
X-52670Y320801D01*
G37*
%LPD*%
%LPC*%
G36*
X-52670Y295401D02*
X-52670Y295401D01*
X-56124Y296832D01*
X-58768Y299476D01*
X-60199Y302930D01*
X-60199Y306670D01*
X-58768Y310124D01*
X-56124Y312768D01*
X-52670Y314199D01*
X-48930Y314199D01*
X-45476Y312768D01*
X-42832Y310124D01*
X-41401Y306670D01*
X-41401Y302930D01*
X-42832Y299476D01*
X-45476Y296832D01*
X-48930Y295401D01*
X-52670Y295401D01*
G37*
%LPD*%
%LPC*%
G36*
X455330Y244601D02*
X455330Y244601D01*
X451876Y246032D01*
X449232Y248676D01*
X447801Y252130D01*
X447801Y255870D01*
X449232Y259324D01*
X451876Y261968D01*
X455330Y263399D01*
X459070Y263399D01*
X462524Y261968D01*
X465168Y259324D01*
X466599Y255870D01*
X466599Y252130D01*
X465168Y248676D01*
X462524Y246032D01*
X459070Y244601D01*
X455330Y244601D01*
G37*
%LPD*%
%LPC*%
G36*
X48930Y60451D02*
X48930Y60451D01*
X45476Y61882D01*
X42832Y64526D01*
X41401Y67980D01*
X41401Y71720D01*
X42832Y75174D01*
X45476Y77818D01*
X48930Y79249D01*
X52670Y79249D01*
X56124Y77818D01*
X58768Y75174D01*
X60199Y71720D01*
X60199Y67980D01*
X58768Y64526D01*
X56124Y61882D01*
X52670Y60451D01*
X48930Y60451D01*
G37*
%LPD*%
%LPC*%
G36*
X23530Y60451D02*
X23530Y60451D01*
X20076Y61882D01*
X17432Y64526D01*
X16001Y67980D01*
X16001Y71720D01*
X17432Y75174D01*
X20076Y77818D01*
X23530Y79249D01*
X27270Y79249D01*
X30724Y77818D01*
X33368Y75174D01*
X34799Y71720D01*
X34799Y67980D01*
X33368Y64526D01*
X30724Y61882D01*
X27270Y60451D01*
X23530Y60451D01*
G37*
%LPD*%
%LPC*%
G36*
X506130Y60451D02*
X506130Y60451D01*
X502676Y61882D01*
X500032Y64526D01*
X498601Y67980D01*
X498601Y71720D01*
X500032Y75174D01*
X502676Y77818D01*
X506130Y79249D01*
X509870Y79249D01*
X513324Y77818D01*
X515968Y75174D01*
X517399Y71720D01*
X517399Y67980D01*
X515968Y64526D01*
X513324Y61882D01*
X509870Y60451D01*
X506130Y60451D01*
G37*
%LPD*%
%LPC*%
G36*
X480730Y60451D02*
X480730Y60451D01*
X477276Y61882D01*
X474632Y64526D01*
X473201Y67980D01*
X473201Y71720D01*
X474632Y75174D01*
X477276Y77818D01*
X480730Y79249D01*
X484470Y79249D01*
X487924Y77818D01*
X490568Y75174D01*
X491999Y71720D01*
X491999Y67980D01*
X490568Y64526D01*
X487924Y61882D01*
X484470Y60451D01*
X480730Y60451D01*
G37*
%LPD*%
%LPC*%
G36*
X455330Y60451D02*
X455330Y60451D01*
X451876Y61882D01*
X449232Y64526D01*
X447801Y67980D01*
X447801Y71720D01*
X449232Y75174D01*
X451876Y77818D01*
X455330Y79249D01*
X459070Y79249D01*
X462524Y77818D01*
X465168Y75174D01*
X466599Y71720D01*
X466599Y67980D01*
X465168Y64526D01*
X462524Y61882D01*
X459070Y60451D01*
X455330Y60451D01*
G37*
%LPD*%
G36*
X105043Y244710D02*
X105043Y244710D01*
X105068Y244707D01*
X105164Y244728D01*
X105260Y244742D01*
X105283Y244754D01*
X105309Y244759D01*
X105392Y244809D01*
X105479Y244853D01*
X105498Y244872D01*
X105520Y244885D01*
X105583Y244959D01*
X105651Y245029D01*
X105667Y245057D01*
X105680Y245072D01*
X105692Y245103D01*
X105732Y245176D01*
X106332Y246624D01*
X108976Y249268D01*
X112430Y250699D01*
X116170Y250699D01*
X119624Y249268D01*
X120620Y248272D01*
X120678Y248230D01*
X120730Y248181D01*
X120777Y248159D01*
X120819Y248129D01*
X120888Y248107D01*
X120953Y248077D01*
X121005Y248072D01*
X121055Y248056D01*
X121126Y248058D01*
X121197Y248050D01*
X121248Y248061D01*
X121300Y248063D01*
X121368Y248087D01*
X121438Y248102D01*
X121483Y248129D01*
X121531Y248147D01*
X121587Y248192D01*
X121649Y248229D01*
X121683Y248268D01*
X121723Y248301D01*
X121762Y248361D01*
X121809Y248415D01*
X121828Y248464D01*
X121856Y248508D01*
X121874Y248577D01*
X121901Y248644D01*
X121909Y248715D01*
X121917Y248746D01*
X121915Y248769D01*
X121919Y248810D01*
X121919Y259190D01*
X121908Y259260D01*
X121906Y259332D01*
X121888Y259381D01*
X121880Y259432D01*
X121846Y259496D01*
X121821Y259563D01*
X121789Y259604D01*
X121764Y259650D01*
X121712Y259699D01*
X121668Y259755D01*
X121624Y259783D01*
X121586Y259819D01*
X121521Y259849D01*
X121461Y259888D01*
X121410Y259901D01*
X121363Y259923D01*
X121292Y259931D01*
X121222Y259948D01*
X121170Y259944D01*
X121119Y259950D01*
X121048Y259935D01*
X120977Y259929D01*
X120929Y259909D01*
X120878Y259898D01*
X120817Y259861D01*
X120751Y259833D01*
X120695Y259788D01*
X120667Y259771D01*
X120652Y259754D01*
X120620Y259728D01*
X119624Y258732D01*
X116170Y257301D01*
X112430Y257301D01*
X108976Y258732D01*
X106332Y261376D01*
X105732Y262824D01*
X105681Y262907D01*
X105635Y262993D01*
X105617Y263011D01*
X105603Y263033D01*
X105527Y263096D01*
X105457Y263162D01*
X105433Y263173D01*
X105413Y263190D01*
X105322Y263225D01*
X105234Y263266D01*
X105208Y263269D01*
X105184Y263278D01*
X105086Y263282D01*
X104990Y263293D01*
X104964Y263288D01*
X104938Y263289D01*
X104844Y263262D01*
X104749Y263241D01*
X104727Y263227D01*
X104702Y263220D01*
X104622Y263165D01*
X104538Y263115D01*
X104521Y263095D01*
X104500Y263080D01*
X104441Y263002D01*
X104378Y262928D01*
X104368Y262904D01*
X104353Y262883D01*
X104323Y262790D01*
X104286Y262700D01*
X104283Y262667D01*
X104277Y262649D01*
X104277Y262616D01*
X104268Y262533D01*
X104268Y245467D01*
X104283Y245371D01*
X104293Y245274D01*
X104303Y245250D01*
X104307Y245224D01*
X104353Y245138D01*
X104393Y245049D01*
X104410Y245030D01*
X104423Y245007D01*
X104493Y244940D01*
X104559Y244868D01*
X104582Y244856D01*
X104601Y244838D01*
X104689Y244797D01*
X104775Y244750D01*
X104800Y244745D01*
X104824Y244734D01*
X104921Y244723D01*
X105017Y244706D01*
X105043Y244710D01*
G37*
G36*
X105043Y219310D02*
X105043Y219310D01*
X105068Y219307D01*
X105164Y219328D01*
X105260Y219342D01*
X105283Y219354D01*
X105309Y219359D01*
X105392Y219409D01*
X105479Y219453D01*
X105498Y219472D01*
X105520Y219485D01*
X105583Y219559D01*
X105651Y219629D01*
X105667Y219657D01*
X105680Y219672D01*
X105692Y219703D01*
X105732Y219776D01*
X106332Y221224D01*
X108976Y223868D01*
X112430Y225299D01*
X116170Y225299D01*
X119624Y223868D01*
X120620Y222872D01*
X120678Y222830D01*
X120730Y222781D01*
X120777Y222759D01*
X120819Y222729D01*
X120888Y222707D01*
X120953Y222677D01*
X121005Y222672D01*
X121055Y222656D01*
X121126Y222658D01*
X121197Y222650D01*
X121248Y222661D01*
X121300Y222663D01*
X121368Y222687D01*
X121438Y222702D01*
X121483Y222729D01*
X121531Y222747D01*
X121587Y222792D01*
X121649Y222829D01*
X121683Y222868D01*
X121723Y222901D01*
X121762Y222961D01*
X121809Y223015D01*
X121828Y223064D01*
X121856Y223108D01*
X121874Y223177D01*
X121901Y223244D01*
X121909Y223315D01*
X121917Y223346D01*
X121915Y223369D01*
X121919Y223410D01*
X121919Y233790D01*
X121908Y233860D01*
X121906Y233932D01*
X121888Y233981D01*
X121880Y234032D01*
X121846Y234096D01*
X121821Y234163D01*
X121789Y234204D01*
X121764Y234250D01*
X121712Y234299D01*
X121668Y234355D01*
X121624Y234383D01*
X121586Y234419D01*
X121521Y234449D01*
X121461Y234488D01*
X121410Y234501D01*
X121363Y234523D01*
X121292Y234531D01*
X121222Y234548D01*
X121170Y234544D01*
X121119Y234550D01*
X121048Y234535D01*
X120977Y234529D01*
X120929Y234509D01*
X120878Y234498D01*
X120817Y234461D01*
X120751Y234433D01*
X120695Y234388D01*
X120667Y234371D01*
X120652Y234354D01*
X120620Y234328D01*
X119624Y233332D01*
X116170Y231901D01*
X112430Y231901D01*
X108976Y233332D01*
X106332Y235976D01*
X105732Y237424D01*
X105681Y237507D01*
X105635Y237593D01*
X105617Y237611D01*
X105603Y237633D01*
X105527Y237696D01*
X105457Y237762D01*
X105433Y237773D01*
X105413Y237790D01*
X105322Y237825D01*
X105234Y237866D01*
X105208Y237869D01*
X105184Y237878D01*
X105086Y237882D01*
X104990Y237893D01*
X104964Y237888D01*
X104938Y237889D01*
X104844Y237862D01*
X104749Y237841D01*
X104727Y237827D01*
X104702Y237820D01*
X104622Y237765D01*
X104538Y237715D01*
X104521Y237695D01*
X104500Y237680D01*
X104441Y237602D01*
X104378Y237528D01*
X104368Y237504D01*
X104353Y237483D01*
X104323Y237390D01*
X104286Y237300D01*
X104283Y237267D01*
X104277Y237249D01*
X104277Y237216D01*
X104268Y237133D01*
X104268Y220067D01*
X104283Y219971D01*
X104293Y219874D01*
X104303Y219850D01*
X104307Y219824D01*
X104353Y219738D01*
X104393Y219649D01*
X104410Y219630D01*
X104423Y219607D01*
X104493Y219540D01*
X104559Y219468D01*
X104582Y219456D01*
X104601Y219438D01*
X104689Y219397D01*
X104775Y219350D01*
X104800Y219345D01*
X104824Y219334D01*
X104921Y219323D01*
X105017Y219306D01*
X105043Y219310D01*
G37*
%LPC*%
G36*
X49601Y156771D02*
X49601Y156771D01*
X47385Y157689D01*
X45689Y159385D01*
X44771Y161601D01*
X44771Y163999D01*
X45689Y166215D01*
X47385Y167911D01*
X49601Y168829D01*
X51999Y168829D01*
X54215Y167911D01*
X55911Y166215D01*
X56829Y163999D01*
X56829Y161601D01*
X55911Y159385D01*
X54215Y157689D01*
X51999Y156771D01*
X49601Y156771D01*
G37*
%LPD*%
G36*
X105043Y193910D02*
X105043Y193910D01*
X105068Y193907D01*
X105164Y193928D01*
X105260Y193942D01*
X105283Y193954D01*
X105309Y193959D01*
X105392Y194009D01*
X105479Y194053D01*
X105498Y194072D01*
X105520Y194085D01*
X105583Y194159D01*
X105651Y194229D01*
X105667Y194257D01*
X105680Y194272D01*
X105692Y194303D01*
X105732Y194376D01*
X106332Y195824D01*
X108976Y198468D01*
X111162Y199373D01*
X111262Y199435D01*
X111362Y199495D01*
X111366Y199500D01*
X111371Y199503D01*
X111446Y199594D01*
X111522Y199682D01*
X111524Y199688D01*
X111528Y199693D01*
X111570Y199801D01*
X111614Y199910D01*
X111615Y199918D01*
X111616Y199922D01*
X111617Y199940D01*
X111632Y200077D01*
X111632Y202457D01*
X114377Y205202D01*
X114419Y205260D01*
X114468Y205312D01*
X114490Y205359D01*
X114521Y205401D01*
X114542Y205470D01*
X114572Y205535D01*
X114578Y205587D01*
X114593Y205637D01*
X114591Y205708D01*
X114599Y205779D01*
X114588Y205830D01*
X114587Y205882D01*
X114562Y205950D01*
X114547Y206020D01*
X114520Y206065D01*
X114502Y206113D01*
X114457Y206169D01*
X114421Y206231D01*
X114381Y206265D01*
X114348Y206305D01*
X114288Y206344D01*
X114234Y206391D01*
X114185Y206410D01*
X114142Y206438D01*
X114072Y206456D01*
X114006Y206483D01*
X113934Y206491D01*
X113903Y206499D01*
X113880Y206497D01*
X113839Y206501D01*
X112430Y206501D01*
X108976Y207932D01*
X106332Y210576D01*
X105732Y212024D01*
X105681Y212107D01*
X105635Y212193D01*
X105617Y212211D01*
X105603Y212233D01*
X105527Y212296D01*
X105457Y212362D01*
X105433Y212373D01*
X105413Y212390D01*
X105322Y212425D01*
X105234Y212466D01*
X105208Y212469D01*
X105184Y212478D01*
X105086Y212482D01*
X104990Y212493D01*
X104964Y212488D01*
X104938Y212489D01*
X104844Y212462D01*
X104749Y212441D01*
X104727Y212427D01*
X104702Y212420D01*
X104622Y212365D01*
X104538Y212315D01*
X104521Y212295D01*
X104500Y212280D01*
X104441Y212202D01*
X104378Y212128D01*
X104368Y212104D01*
X104353Y212083D01*
X104323Y211990D01*
X104286Y211900D01*
X104283Y211867D01*
X104277Y211849D01*
X104277Y211816D01*
X104268Y211733D01*
X104268Y194667D01*
X104283Y194571D01*
X104293Y194474D01*
X104303Y194450D01*
X104307Y194424D01*
X104353Y194338D01*
X104393Y194249D01*
X104410Y194230D01*
X104423Y194207D01*
X104493Y194140D01*
X104559Y194068D01*
X104582Y194056D01*
X104601Y194038D01*
X104689Y193997D01*
X104775Y193950D01*
X104800Y193945D01*
X104824Y193934D01*
X104921Y193923D01*
X105017Y193906D01*
X105043Y193910D01*
G37*
%LPC*%
G36*
X201095Y845819D02*
X201095Y845819D01*
X198119Y848795D01*
X198119Y853005D01*
X201095Y855981D01*
X205305Y855981D01*
X208281Y853005D01*
X208281Y848795D01*
X205305Y845819D01*
X201095Y845819D01*
G37*
%LPD*%
%LPC*%
G36*
X366195Y845819D02*
X366195Y845819D01*
X363219Y848795D01*
X363219Y853005D01*
X366195Y855981D01*
X370405Y855981D01*
X373381Y853005D01*
X373381Y848795D01*
X370405Y845819D01*
X366195Y845819D01*
G37*
%LPD*%
%LPC*%
G36*
X22025Y353059D02*
X22025Y353059D01*
X19049Y356035D01*
X19049Y360245D01*
X22025Y363221D01*
X26235Y363221D01*
X29211Y360245D01*
X29211Y356035D01*
X26235Y353059D01*
X22025Y353059D01*
G37*
%LPD*%
%LPC*%
G36*
X76635Y354329D02*
X76635Y354329D01*
X73659Y357305D01*
X73659Y361515D01*
X76635Y364491D01*
X80845Y364491D01*
X83821Y361515D01*
X83821Y357305D01*
X80845Y354329D01*
X76635Y354329D01*
G37*
%LPD*%
%LPC*%
G36*
X484305Y356869D02*
X484305Y356869D01*
X481329Y359845D01*
X481329Y364055D01*
X484305Y367031D01*
X488515Y367031D01*
X491491Y364055D01*
X491491Y359845D01*
X488515Y356869D01*
X484305Y356869D01*
G37*
%LPD*%
%LPC*%
G36*
X537645Y834389D02*
X537645Y834389D01*
X534669Y837365D01*
X534669Y841575D01*
X537645Y844551D01*
X541855Y844551D01*
X544831Y841575D01*
X544831Y837365D01*
X541855Y834389D01*
X537645Y834389D01*
G37*
%LPD*%
%LPC*%
G36*
X150295Y718819D02*
X150295Y718819D01*
X147319Y721795D01*
X147319Y726005D01*
X150295Y728981D01*
X154505Y728981D01*
X157481Y726005D01*
X157481Y721795D01*
X154505Y718819D01*
X150295Y718819D01*
G37*
%LPD*%
%LPC*%
G36*
X-31315Y704849D02*
X-31315Y704849D01*
X-34291Y707825D01*
X-34291Y712035D01*
X-31315Y715011D01*
X-27105Y715011D01*
X-24129Y712035D01*
X-24129Y707825D01*
X-27105Y704849D01*
X-31315Y704849D01*
G37*
%LPD*%
%LPC*%
G36*
X366195Y934719D02*
X366195Y934719D01*
X363219Y937695D01*
X363219Y941905D01*
X366195Y944881D01*
X370405Y944881D01*
X373381Y941905D01*
X373381Y937695D01*
X370405Y934719D01*
X366195Y934719D01*
G37*
%LPD*%
%LPC*%
G36*
X540185Y584199D02*
X540185Y584199D01*
X537209Y587175D01*
X537209Y591385D01*
X540185Y594361D01*
X544395Y594361D01*
X547371Y591385D01*
X547371Y587175D01*
X544395Y584199D01*
X540185Y584199D01*
G37*
%LPD*%
%LPC*%
G36*
X197285Y541019D02*
X197285Y541019D01*
X194309Y543995D01*
X194309Y548205D01*
X197285Y551181D01*
X201495Y551181D01*
X204471Y548205D01*
X204471Y543995D01*
X201495Y541019D01*
X197285Y541019D01*
G37*
%LPD*%
%LPC*%
G36*
X194745Y425449D02*
X194745Y425449D01*
X191769Y428425D01*
X191769Y432635D01*
X194745Y435611D01*
X198955Y435611D01*
X201931Y432635D01*
X201931Y428425D01*
X198955Y425449D01*
X194745Y425449D01*
G37*
%LPD*%
%LPC*%
G36*
X551615Y414019D02*
X551615Y414019D01*
X548639Y416995D01*
X548639Y421205D01*
X551615Y424181D01*
X555825Y424181D01*
X558801Y421205D01*
X558801Y416995D01*
X555825Y414019D01*
X551615Y414019D01*
G37*
%LPD*%
%LPC*%
G36*
X201095Y402589D02*
X201095Y402589D01*
X198119Y405565D01*
X198119Y409775D01*
X201095Y412751D01*
X205305Y412751D01*
X208281Y409775D01*
X208281Y405565D01*
X205305Y402589D01*
X201095Y402589D01*
G37*
%LPD*%
%LPC*%
G36*
X120873Y390101D02*
X120873Y390101D01*
X117897Y393077D01*
X117897Y397287D01*
X120873Y400263D01*
X125083Y400263D01*
X128059Y397287D01*
X128059Y393077D01*
X125083Y390101D01*
X120873Y390101D01*
G37*
%LPD*%
%LPC*%
G36*
X541455Y693419D02*
X541455Y693419D01*
X538479Y696395D01*
X538479Y700605D01*
X541455Y703581D01*
X545665Y703581D01*
X548641Y700605D01*
X548641Y696395D01*
X545665Y693419D01*
X541455Y693419D01*
G37*
%LPD*%
%LPC*%
G36*
X102035Y379729D02*
X102035Y379729D01*
X99059Y382705D01*
X99059Y386915D01*
X102035Y389891D01*
X106245Y389891D01*
X109221Y386915D01*
X109221Y382705D01*
X106245Y379729D01*
X102035Y379729D01*
G37*
%LPD*%
%LPC*%
G36*
X-24965Y374649D02*
X-24965Y374649D01*
X-27941Y377625D01*
X-27941Y381835D01*
X-24965Y384811D01*
X-20755Y384811D01*
X-17779Y381835D01*
X-17779Y377625D01*
X-20755Y374649D01*
X-24965Y374649D01*
G37*
%LPD*%
%LPC*%
G36*
X537645Y947419D02*
X537645Y947419D01*
X534669Y950395D01*
X534669Y954605D01*
X537645Y957581D01*
X541855Y957581D01*
X544831Y954605D01*
X544831Y950395D01*
X541855Y947419D01*
X537645Y947419D01*
G37*
%LPD*%
%LPC*%
G36*
X201095Y372109D02*
X201095Y372109D01*
X198119Y375085D01*
X198119Y379295D01*
X201095Y382271D01*
X205305Y382271D01*
X208281Y379295D01*
X208281Y375085D01*
X205305Y372109D01*
X201095Y372109D01*
G37*
%LPD*%
%LPC*%
G36*
X76945Y251769D02*
X76945Y251769D01*
X73969Y254745D01*
X73969Y258955D01*
X76945Y261931D01*
X81155Y261931D01*
X84131Y258955D01*
X84131Y254745D01*
X81155Y251769D01*
X76945Y251769D01*
G37*
%LPD*%
%LPC*%
G36*
X150295Y947419D02*
X150295Y947419D01*
X147319Y950395D01*
X147319Y954605D01*
X150295Y957581D01*
X154505Y957581D01*
X157481Y954605D01*
X157481Y950395D01*
X154505Y947419D01*
X150295Y947419D01*
G37*
%LPD*%
%LPC*%
G36*
X74095Y223519D02*
X74095Y223519D01*
X71119Y226495D01*
X71119Y230705D01*
X74095Y233681D01*
X78305Y233681D01*
X81281Y230705D01*
X81281Y226495D01*
X78305Y223519D01*
X74095Y223519D01*
G37*
%LPD*%
%LPC*%
G36*
X88827Y282701D02*
X88827Y282701D01*
X85851Y285677D01*
X85851Y289887D01*
X88827Y292863D01*
X93037Y292863D01*
X96013Y289887D01*
X96013Y285677D01*
X93037Y282701D01*
X88827Y282701D01*
G37*
%LPD*%
%LPC*%
G36*
X493195Y337819D02*
X493195Y337819D01*
X490219Y340795D01*
X490219Y345005D01*
X493195Y347981D01*
X497405Y347981D01*
X500381Y345005D01*
X500381Y340795D01*
X497405Y337819D01*
X493195Y337819D01*
G37*
%LPD*%
%LPC*%
G36*
X429695Y361695D02*
X429695Y361695D01*
X426719Y364671D01*
X426719Y368881D01*
X429695Y371857D01*
X433905Y371857D01*
X436881Y368881D01*
X436881Y364671D01*
X433905Y361695D01*
X429695Y361695D01*
G37*
%LPD*%
%LPC*%
G36*
X437315Y350519D02*
X437315Y350519D01*
X434339Y353495D01*
X434339Y357705D01*
X437315Y360681D01*
X441525Y360681D01*
X444501Y357705D01*
X444501Y353495D01*
X441525Y350519D01*
X437315Y350519D01*
G37*
%LPD*%
%LPC*%
G36*
X8055Y886459D02*
X8055Y886459D01*
X5079Y889435D01*
X5079Y893645D01*
X8055Y896621D01*
X12265Y896621D01*
X15241Y893645D01*
X15241Y889435D01*
X12265Y886459D01*
X8055Y886459D01*
G37*
%LPD*%
%LPC*%
G36*
X124895Y864869D02*
X124895Y864869D01*
X121919Y867845D01*
X121919Y872055D01*
X124895Y875031D01*
X129105Y875031D01*
X132081Y872055D01*
X132081Y867845D01*
X129105Y864869D01*
X124895Y864869D01*
G37*
%LPD*%
%LPC*%
G36*
X124895Y852169D02*
X124895Y852169D01*
X121919Y855145D01*
X121919Y859355D01*
X124895Y862331D01*
X129105Y862331D01*
X132081Y859355D01*
X132081Y855145D01*
X129105Y852169D01*
X124895Y852169D01*
G37*
%LPD*%
%LPC*%
G36*
X288725Y63499D02*
X288725Y63499D01*
X285749Y66475D01*
X285749Y70685D01*
X288725Y73661D01*
X292935Y73661D01*
X295911Y70685D01*
X295911Y66475D01*
X292935Y63499D01*
X288725Y63499D01*
G37*
%LPD*%
%LPC*%
G36*
X8867Y855071D02*
X8867Y855071D01*
X5921Y858017D01*
X5921Y862183D01*
X8867Y865129D01*
X13033Y865129D01*
X15979Y862183D01*
X15979Y858017D01*
X13033Y855071D01*
X8867Y855071D01*
G37*
%LPD*%
%LPC*%
G36*
X8867Y912871D02*
X8867Y912871D01*
X5921Y915817D01*
X5921Y919983D01*
X8867Y922929D01*
X13033Y922929D01*
X15979Y919983D01*
X15979Y915817D01*
X13033Y912871D01*
X8867Y912871D01*
G37*
%LPD*%
%LPC*%
G36*
X293517Y41481D02*
X293517Y41481D01*
X290571Y44427D01*
X290571Y48593D01*
X293517Y51539D01*
X297683Y51539D01*
X300629Y48593D01*
X300629Y44427D01*
X297683Y41481D01*
X293517Y41481D01*
G37*
%LPD*%
%LPC*%
G36*
X235717Y41481D02*
X235717Y41481D01*
X232771Y44427D01*
X232771Y48593D01*
X235717Y51539D01*
X239883Y51539D01*
X242829Y48593D01*
X242829Y44427D01*
X239883Y41481D01*
X235717Y41481D01*
G37*
%LPD*%
%LPC*%
G36*
X128523Y992123D02*
X128523Y992123D01*
X128523Y1000646D01*
X129379Y1000511D01*
X130900Y1000016D01*
X132325Y999290D01*
X133619Y998350D01*
X134750Y997219D01*
X135690Y995925D01*
X136416Y994500D01*
X136911Y992979D01*
X137046Y992123D01*
X128523Y992123D01*
G37*
%LPD*%
%LPC*%
G36*
X77723Y71373D02*
X77723Y71373D01*
X77723Y79896D01*
X78579Y79761D01*
X80100Y79266D01*
X81525Y78540D01*
X82819Y77600D01*
X83950Y76469D01*
X84890Y75175D01*
X85616Y73750D01*
X86111Y72229D01*
X86246Y71373D01*
X77723Y71373D01*
G37*
%LPD*%
%LPC*%
G36*
X534923Y71373D02*
X534923Y71373D01*
X534923Y79896D01*
X535779Y79761D01*
X537300Y79266D01*
X538725Y78540D01*
X540019Y77600D01*
X541150Y76469D01*
X542090Y75175D01*
X542816Y73750D01*
X543311Y72229D01*
X543446Y71373D01*
X534923Y71373D01*
G37*
%LPD*%
%LPC*%
G36*
X458723Y230123D02*
X458723Y230123D01*
X458723Y238646D01*
X459579Y238511D01*
X461100Y238016D01*
X462525Y237290D01*
X463819Y236350D01*
X464950Y235219D01*
X465890Y233925D01*
X466616Y232500D01*
X467111Y230979D01*
X467246Y230123D01*
X458723Y230123D01*
G37*
%LPD*%
%LPC*%
G36*
X458723Y227077D02*
X458723Y227077D01*
X467246Y227077D01*
X467111Y226221D01*
X466616Y224700D01*
X465890Y223275D01*
X464950Y221981D01*
X463819Y220850D01*
X462525Y219910D01*
X461100Y219184D01*
X459579Y218689D01*
X458723Y218554D01*
X458723Y227077D01*
G37*
%LPD*%
%LPC*%
G36*
X128523Y989077D02*
X128523Y989077D01*
X137046Y989077D01*
X136911Y988221D01*
X136416Y986700D01*
X135690Y985275D01*
X134750Y983981D01*
X133619Y982850D01*
X132325Y981910D01*
X130900Y981184D01*
X129379Y980689D01*
X128523Y980554D01*
X128523Y989077D01*
G37*
%LPD*%
%LPC*%
G36*
X66154Y71373D02*
X66154Y71373D01*
X66289Y72229D01*
X66784Y73750D01*
X67510Y75175D01*
X68450Y76469D01*
X69581Y77600D01*
X70875Y78540D01*
X72300Y79266D01*
X73821Y79761D01*
X74677Y79896D01*
X74677Y71373D01*
X66154Y71373D01*
G37*
%LPD*%
%LPC*%
G36*
X523354Y71373D02*
X523354Y71373D01*
X523489Y72229D01*
X523984Y73750D01*
X524710Y75175D01*
X525650Y76469D01*
X526781Y77600D01*
X528075Y78540D01*
X529500Y79266D01*
X531021Y79761D01*
X531877Y79896D01*
X531877Y71373D01*
X523354Y71373D01*
G37*
%LPD*%
%LPC*%
G36*
X116954Y992123D02*
X116954Y992123D01*
X117089Y992979D01*
X117584Y994500D01*
X118310Y995925D01*
X119250Y997219D01*
X120381Y998350D01*
X121675Y999290D01*
X123100Y1000016D01*
X124621Y1000511D01*
X125477Y1000646D01*
X125477Y992123D01*
X116954Y992123D01*
G37*
%LPD*%
%LPC*%
G36*
X447154Y230123D02*
X447154Y230123D01*
X447289Y230979D01*
X447784Y232500D01*
X448510Y233925D01*
X449450Y235219D01*
X450581Y236350D01*
X451875Y237290D01*
X453300Y238016D01*
X454821Y238511D01*
X455677Y238646D01*
X455677Y230123D01*
X447154Y230123D01*
G37*
%LPD*%
%LPC*%
G36*
X534923Y68327D02*
X534923Y68327D01*
X543446Y68327D01*
X543311Y67471D01*
X542816Y65950D01*
X542090Y64525D01*
X541150Y63231D01*
X540019Y62100D01*
X538725Y61160D01*
X537300Y60434D01*
X535779Y59939D01*
X534923Y59804D01*
X534923Y68327D01*
G37*
%LPD*%
%LPC*%
G36*
X77723Y68327D02*
X77723Y68327D01*
X86246Y68327D01*
X86111Y67471D01*
X85616Y65950D01*
X84890Y64525D01*
X83950Y63231D01*
X82819Y62100D01*
X81525Y61160D01*
X80100Y60434D01*
X78579Y59939D01*
X77723Y59804D01*
X77723Y68327D01*
G37*
%LPD*%
%LPC*%
G36*
X454821Y218689D02*
X454821Y218689D01*
X453300Y219184D01*
X451875Y219910D01*
X450581Y220850D01*
X449450Y221981D01*
X448510Y223275D01*
X447784Y224700D01*
X447289Y226221D01*
X447154Y227077D01*
X455677Y227077D01*
X455677Y218554D01*
X454821Y218689D01*
G37*
%LPD*%
%LPC*%
G36*
X124621Y980689D02*
X124621Y980689D01*
X123100Y981184D01*
X121675Y981910D01*
X120381Y982850D01*
X119250Y983981D01*
X118310Y985275D01*
X117584Y986700D01*
X117089Y988221D01*
X116954Y989077D01*
X125477Y989077D01*
X125477Y980554D01*
X124621Y980689D01*
G37*
%LPD*%
%LPC*%
G36*
X531021Y59939D02*
X531021Y59939D01*
X529500Y60434D01*
X528075Y61160D01*
X526781Y62100D01*
X525650Y63231D01*
X524710Y64525D01*
X523984Y65950D01*
X523489Y67471D01*
X523354Y68327D01*
X531877Y68327D01*
X531877Y59804D01*
X531021Y59939D01*
G37*
%LPD*%
%LPC*%
G36*
X73821Y59939D02*
X73821Y59939D01*
X72300Y60434D01*
X70875Y61160D01*
X69581Y62100D01*
X68450Y63231D01*
X67510Y64525D01*
X66784Y65950D01*
X66289Y67471D01*
X66154Y68327D01*
X74677Y68327D01*
X74677Y59804D01*
X73821Y59939D01*
G37*
%LPD*%
G36*
X390973Y101615D02*
X390973Y101615D01*
X391064Y101623D01*
X391093Y101635D01*
X391125Y101640D01*
X391206Y101683D01*
X391290Y101719D01*
X391322Y101745D01*
X391343Y101756D01*
X391365Y101779D01*
X391421Y101824D01*
X404779Y115182D01*
X404823Y115242D01*
X404860Y115282D01*
X404867Y115296D01*
X404892Y115325D01*
X404904Y115356D01*
X404923Y115382D01*
X404950Y115469D01*
X404984Y115554D01*
X404988Y115595D01*
X404995Y115617D01*
X404994Y115649D01*
X405002Y115720D01*
X405002Y116182D01*
X404991Y116252D01*
X404989Y116324D01*
X404971Y116373D01*
X404963Y116424D01*
X404929Y116488D01*
X404904Y116555D01*
X404872Y116596D01*
X404847Y116642D01*
X404796Y116691D01*
X404751Y116747D01*
X404707Y116775D01*
X404669Y116811D01*
X404604Y116841D01*
X404544Y116880D01*
X404493Y116893D01*
X404446Y116915D01*
X404375Y116923D01*
X404305Y116940D01*
X404253Y116936D01*
X404202Y116942D01*
X404131Y116927D01*
X404060Y116921D01*
X404012Y116901D01*
X403961Y116890D01*
X403900Y116853D01*
X403834Y116825D01*
X403778Y116780D01*
X403750Y116764D01*
X403735Y116746D01*
X403703Y116720D01*
X389883Y102900D01*
X389841Y102842D01*
X389792Y102790D01*
X389770Y102743D01*
X389739Y102701D01*
X389718Y102632D01*
X389688Y102567D01*
X389682Y102515D01*
X389667Y102465D01*
X389669Y102394D01*
X389661Y102323D01*
X389672Y102272D01*
X389673Y102220D01*
X389698Y102152D01*
X389713Y102082D01*
X389740Y102038D01*
X389758Y101989D01*
X389803Y101933D01*
X389839Y101871D01*
X389879Y101837D01*
X389912Y101797D01*
X389972Y101758D01*
X390026Y101711D01*
X390075Y101692D01*
X390119Y101664D01*
X390188Y101646D01*
X390255Y101619D01*
X390326Y101611D01*
X390357Y101603D01*
X390380Y101605D01*
X390421Y101601D01*
X390883Y101601D01*
X390973Y101615D01*
G37*
%LPC*%
G36*
X-31794Y846819D02*
X-31794Y846819D01*
X-31626Y847663D01*
X-31150Y848813D01*
X-30458Y849848D01*
X-29578Y850728D01*
X-28543Y851420D01*
X-27393Y851896D01*
X-26549Y852064D01*
X-26549Y846819D01*
X-31794Y846819D01*
G37*
%LPD*%
%LPC*%
G36*
X224519Y52809D02*
X224519Y52809D01*
X224519Y58054D01*
X225363Y57886D01*
X226513Y57410D01*
X227548Y56718D01*
X228428Y55838D01*
X229120Y54803D01*
X229596Y53653D01*
X229764Y52809D01*
X224519Y52809D01*
G37*
%LPD*%
%LPC*%
G36*
X310879Y52809D02*
X310879Y52809D01*
X310879Y58054D01*
X311723Y57886D01*
X312873Y57410D01*
X313908Y56718D01*
X314788Y55838D01*
X315480Y54803D01*
X315956Y53653D01*
X316124Y52809D01*
X310879Y52809D01*
G37*
%LPD*%
%LPC*%
G36*
X-31794Y933179D02*
X-31794Y933179D01*
X-31626Y934023D01*
X-31150Y935173D01*
X-30458Y936208D01*
X-29578Y937088D01*
X-28543Y937780D01*
X-27393Y938256D01*
X-26549Y938424D01*
X-26549Y933179D01*
X-31794Y933179D01*
G37*
%LPD*%
%LPC*%
G36*
X17249Y933179D02*
X17249Y933179D01*
X17249Y938424D01*
X18093Y938256D01*
X19243Y937780D01*
X20278Y937088D01*
X21158Y936208D01*
X21850Y935173D01*
X22326Y934023D01*
X22494Y933179D01*
X17249Y933179D01*
G37*
%LPD*%
%LPC*%
G36*
X224519Y11009D02*
X224519Y11009D01*
X224519Y16254D01*
X225363Y16086D01*
X226513Y15610D01*
X227548Y14918D01*
X228428Y14038D01*
X229120Y13003D01*
X229596Y11853D01*
X229764Y11009D01*
X224519Y11009D01*
G37*
%LPD*%
%LPC*%
G36*
X310879Y11009D02*
X310879Y11009D01*
X310879Y16254D01*
X311723Y16086D01*
X312873Y15610D01*
X313908Y14918D01*
X314788Y14038D01*
X315480Y13003D01*
X315956Y11853D01*
X316124Y11009D01*
X310879Y11009D01*
G37*
%LPD*%
%LPC*%
G36*
X-27393Y926104D02*
X-27393Y926104D01*
X-28543Y926580D01*
X-29578Y927272D01*
X-30458Y928152D01*
X-31150Y929187D01*
X-31626Y930337D01*
X-31794Y931181D01*
X-26549Y931181D01*
X-26549Y925936D01*
X-27393Y926104D01*
G37*
%LPD*%
%LPC*%
G36*
X17249Y931181D02*
X17249Y931181D01*
X22494Y931181D01*
X22326Y930337D01*
X21850Y929187D01*
X21158Y928152D01*
X20278Y927272D01*
X19243Y926580D01*
X18093Y926104D01*
X17249Y925936D01*
X17249Y931181D01*
G37*
%LPD*%
%LPC*%
G36*
X-24551Y933179D02*
X-24551Y933179D01*
X-24551Y938424D01*
X-23707Y938256D01*
X-22557Y937780D01*
X-21522Y937088D01*
X-20642Y936208D01*
X-19950Y935173D01*
X-19474Y934023D01*
X-19306Y933179D01*
X-24551Y933179D01*
G37*
%LPD*%
%LPC*%
G36*
X-27393Y839744D02*
X-27393Y839744D01*
X-28543Y840220D01*
X-29578Y840912D01*
X-30458Y841792D01*
X-31150Y842827D01*
X-31626Y843977D01*
X-31794Y844821D01*
X-26549Y844821D01*
X-26549Y839576D01*
X-27393Y839744D01*
G37*
%LPD*%
%LPC*%
G36*
X217276Y52809D02*
X217276Y52809D01*
X217444Y53653D01*
X217920Y54803D01*
X218612Y55838D01*
X219492Y56718D01*
X220527Y57410D01*
X221677Y57886D01*
X222521Y58054D01*
X222521Y52809D01*
X217276Y52809D01*
G37*
%LPD*%
%LPC*%
G36*
X303636Y52809D02*
X303636Y52809D01*
X303804Y53653D01*
X304280Y54803D01*
X304972Y55838D01*
X305852Y56718D01*
X306887Y57410D01*
X308037Y57886D01*
X308881Y58054D01*
X308881Y52809D01*
X303636Y52809D01*
G37*
%LPD*%
%LPC*%
G36*
X10006Y846819D02*
X10006Y846819D01*
X10174Y847663D01*
X10650Y848813D01*
X11342Y849848D01*
X12222Y850728D01*
X13257Y851420D01*
X14407Y851896D01*
X15251Y852064D01*
X15251Y846819D01*
X10006Y846819D01*
G37*
%LPD*%
%LPC*%
G36*
X-24551Y846819D02*
X-24551Y846819D01*
X-24551Y852064D01*
X-23707Y851896D01*
X-22557Y851420D01*
X-21522Y850728D01*
X-20642Y849848D01*
X-19950Y848813D01*
X-19474Y847663D01*
X-19306Y846819D01*
X-24551Y846819D01*
G37*
%LPD*%
%LPC*%
G36*
X310879Y50811D02*
X310879Y50811D01*
X316124Y50811D01*
X315956Y49967D01*
X315480Y48817D01*
X314788Y47782D01*
X313908Y46902D01*
X312873Y46210D01*
X311723Y45734D01*
X310879Y45566D01*
X310879Y50811D01*
G37*
%LPD*%
%LPC*%
G36*
X224519Y50811D02*
X224519Y50811D01*
X229764Y50811D01*
X229596Y49967D01*
X229120Y48817D01*
X228428Y47782D01*
X227548Y46902D01*
X226513Y46210D01*
X225363Y45734D01*
X224519Y45566D01*
X224519Y50811D01*
G37*
%LPD*%
%LPC*%
G36*
X10006Y933179D02*
X10006Y933179D01*
X10174Y934023D01*
X10650Y935173D01*
X11342Y936208D01*
X12222Y937088D01*
X13257Y937780D01*
X14407Y938256D01*
X15251Y938424D01*
X15251Y933179D01*
X10006Y933179D01*
G37*
%LPD*%
%LPC*%
G36*
X217276Y11009D02*
X217276Y11009D01*
X217444Y11853D01*
X217920Y13003D01*
X218612Y14038D01*
X219492Y14918D01*
X220527Y15610D01*
X221677Y16086D01*
X222521Y16254D01*
X222521Y11009D01*
X217276Y11009D01*
G37*
%LPD*%
%LPC*%
G36*
X303636Y11009D02*
X303636Y11009D01*
X303804Y11853D01*
X304280Y13003D01*
X304972Y14038D01*
X305852Y14918D01*
X306887Y15610D01*
X308037Y16086D01*
X308881Y16254D01*
X308881Y11009D01*
X303636Y11009D01*
G37*
%LPD*%
%LPC*%
G36*
X310879Y9011D02*
X310879Y9011D01*
X316124Y9011D01*
X315956Y8167D01*
X315480Y7017D01*
X314788Y5982D01*
X313908Y5102D01*
X312873Y4410D01*
X311723Y3934D01*
X310879Y3766D01*
X310879Y9011D01*
G37*
%LPD*%
%LPC*%
G36*
X224519Y9011D02*
X224519Y9011D01*
X229764Y9011D01*
X229596Y8167D01*
X229120Y7017D01*
X228428Y5982D01*
X227548Y5102D01*
X226513Y4410D01*
X225363Y3934D01*
X224519Y3766D01*
X224519Y9011D01*
G37*
%LPD*%
%LPC*%
G36*
X14407Y926104D02*
X14407Y926104D01*
X13257Y926580D01*
X12222Y927272D01*
X11342Y928152D01*
X10650Y929187D01*
X10174Y930337D01*
X10006Y931181D01*
X15251Y931181D01*
X15251Y925936D01*
X14407Y926104D01*
G37*
%LPD*%
%LPC*%
G36*
X-24551Y844821D02*
X-24551Y844821D01*
X-19306Y844821D01*
X-19474Y843977D01*
X-19950Y842827D01*
X-20642Y841792D01*
X-21522Y840912D01*
X-22557Y840220D01*
X-23707Y839744D01*
X-24551Y839576D01*
X-24551Y844821D01*
G37*
%LPD*%
%LPC*%
G36*
X14407Y839744D02*
X14407Y839744D01*
X13257Y840220D01*
X12222Y840912D01*
X11342Y841792D01*
X10650Y842827D01*
X10174Y843977D01*
X10006Y844821D01*
X15251Y844821D01*
X15251Y839576D01*
X14407Y839744D01*
G37*
%LPD*%
%LPC*%
G36*
X308037Y45734D02*
X308037Y45734D01*
X306887Y46210D01*
X305852Y46902D01*
X304972Y47782D01*
X304280Y48817D01*
X303804Y49967D01*
X303636Y50811D01*
X308881Y50811D01*
X308881Y45566D01*
X308037Y45734D01*
G37*
%LPD*%
%LPC*%
G36*
X221677Y45734D02*
X221677Y45734D01*
X220527Y46210D01*
X219492Y46902D01*
X218612Y47782D01*
X217920Y48817D01*
X217444Y49967D01*
X217276Y50811D01*
X222521Y50811D01*
X222521Y45566D01*
X221677Y45734D01*
G37*
%LPD*%
%LPC*%
G36*
X-24551Y931181D02*
X-24551Y931181D01*
X-19306Y931181D01*
X-19474Y930337D01*
X-19950Y929187D01*
X-20642Y928152D01*
X-21522Y927272D01*
X-22557Y926580D01*
X-23707Y926104D01*
X-24551Y925936D01*
X-24551Y931181D01*
G37*
%LPD*%
%LPC*%
G36*
X308037Y3934D02*
X308037Y3934D01*
X306887Y4410D01*
X305852Y5102D01*
X304972Y5982D01*
X304280Y7017D01*
X303804Y8167D01*
X303636Y9011D01*
X308881Y9011D01*
X308881Y3766D01*
X308037Y3934D01*
G37*
%LPD*%
%LPC*%
G36*
X221677Y3934D02*
X221677Y3934D01*
X220527Y4410D01*
X219492Y5102D01*
X218612Y5982D01*
X217920Y7017D01*
X217444Y8167D01*
X217276Y9011D01*
X222521Y9011D01*
X222521Y3766D01*
X221677Y3934D01*
G37*
%LPD*%
G36*
X385255Y92214D02*
X385255Y92214D01*
X385327Y92216D01*
X385376Y92234D01*
X385427Y92242D01*
X385490Y92276D01*
X385558Y92301D01*
X385598Y92333D01*
X385644Y92358D01*
X385694Y92409D01*
X385750Y92454D01*
X385778Y92498D01*
X385814Y92536D01*
X385844Y92601D01*
X385883Y92661D01*
X385895Y92712D01*
X385917Y92759D01*
X385925Y92830D01*
X385943Y92900D01*
X385939Y92952D01*
X385944Y93003D01*
X385929Y93074D01*
X385924Y93145D01*
X385903Y93193D01*
X385892Y93244D01*
X385855Y93305D01*
X385827Y93371D01*
X385783Y93427D01*
X385766Y93455D01*
X385748Y93470D01*
X385722Y93502D01*
X385348Y93877D01*
X385332Y93888D01*
X385320Y93904D01*
X385233Y93960D01*
X385149Y94020D01*
X385129Y94026D01*
X385113Y94037D01*
X385012Y94062D01*
X384913Y94092D01*
X384894Y94092D01*
X384874Y94097D01*
X384771Y94089D01*
X384668Y94086D01*
X384649Y94079D01*
X384629Y94078D01*
X384534Y94037D01*
X384437Y94002D01*
X384421Y93989D01*
X384403Y93981D01*
X384272Y93876D01*
X383897Y93502D01*
X383856Y93444D01*
X383806Y93392D01*
X383784Y93345D01*
X383754Y93303D01*
X383733Y93234D01*
X383703Y93169D01*
X383697Y93117D01*
X383682Y93067D01*
X383683Y92996D01*
X383676Y92925D01*
X383687Y92874D01*
X383688Y92822D01*
X383713Y92754D01*
X383728Y92684D01*
X383754Y92640D01*
X383772Y92591D01*
X383817Y92535D01*
X383854Y92473D01*
X383894Y92439D01*
X383926Y92399D01*
X383986Y92360D01*
X384041Y92313D01*
X384089Y92294D01*
X384133Y92266D01*
X384202Y92248D01*
X384269Y92221D01*
X384340Y92213D01*
X384372Y92205D01*
X384395Y92207D01*
X384436Y92203D01*
X385184Y92203D01*
X385255Y92214D01*
G37*
%LPC*%
G36*
X457199Y228599D02*
X457199Y228599D01*
X457199Y228601D01*
X457201Y228601D01*
X457201Y228599D01*
X457199Y228599D01*
G37*
%LPD*%
%LPC*%
G36*
X76199Y69849D02*
X76199Y69849D01*
X76199Y69851D01*
X76201Y69851D01*
X76201Y69849D01*
X76199Y69849D01*
G37*
%LPD*%
%LPC*%
G36*
X533399Y69849D02*
X533399Y69849D01*
X533399Y69851D01*
X533401Y69851D01*
X533401Y69849D01*
X533399Y69849D01*
G37*
%LPD*%
%LPC*%
G36*
X126999Y990599D02*
X126999Y990599D01*
X126999Y990601D01*
X127001Y990601D01*
X127001Y990599D01*
X126999Y990599D01*
G37*
%LPD*%
D10*
X223520Y10010D03*
X309880Y10010D03*
X309880Y51810D03*
X223520Y51810D03*
D11*
X127000Y1016000D03*
X127000Y990600D03*
D10*
X-25550Y845820D03*
X-25550Y932180D03*
X16250Y932180D03*
X16250Y845820D03*
D11*
X76200Y69850D03*
X50800Y69850D03*
X25400Y69850D03*
X0Y69850D03*
X533400Y69850D03*
X508000Y69850D03*
X482600Y69850D03*
X457200Y69850D03*
X114300Y190500D03*
X114300Y215900D03*
X114300Y241300D03*
X114300Y266700D03*
X457200Y228600D03*
X457200Y254000D03*
X457200Y279400D03*
X457200Y304800D03*
X393700Y825500D03*
X393700Y850900D03*
X393700Y876300D03*
X393700Y901700D03*
X-50800Y330200D03*
X-50800Y304800D03*
D12*
X469900Y393700D03*
X304800Y393700D03*
X180340Y753110D03*
X408940Y750570D03*
D13*
X408940Y984250D01*
X411480Y986790D01*
D12*
X411480Y986790D03*
D13*
X304800Y750570D02*
X304800Y393700D01*
X304800Y750570D02*
X302260Y753110D01*
D12*
X302260Y753110D03*
D13*
X469900Y317500D02*
X457200Y304800D01*
X469900Y317500D02*
X469900Y393700D01*
D12*
X274320Y436499D03*
X304800Y377190D03*
X276860Y407670D03*
X342900Y431800D03*
X339090Y508000D03*
X195580Y508000D03*
X196850Y584200D03*
X339090Y584200D03*
X359410Y33020D03*
X514350Y30480D03*
X57150Y27940D03*
X-26670Y594360D03*
X228600Y132080D03*
X266700Y96520D03*
X300990Y69850D03*
X229870Y69850D03*
X34290Y930910D03*
X30480Y831850D03*
X135890Y939800D03*
X130810Y920750D03*
X204470Y274320D03*
X226060Y274320D03*
X247650Y274320D03*
X267970Y274320D03*
X289560Y274320D03*
X309880Y274320D03*
X331470Y274320D03*
X351790Y274320D03*
X182880Y274320D03*
X203200Y294640D03*
X224790Y294640D03*
X246380Y294640D03*
X266700Y294640D03*
X288290Y294640D03*
X308610Y294640D03*
X330200Y294640D03*
X350520Y294640D03*
X181610Y294640D03*
X203200Y314960D03*
X224790Y314960D03*
X246380Y314960D03*
X266700Y314960D03*
X288290Y314960D03*
X308610Y314960D03*
X330200Y314960D03*
X350520Y314960D03*
X181610Y314960D03*
X204470Y213360D03*
X226060Y213360D03*
X247650Y213360D03*
X267970Y213360D03*
X289560Y213360D03*
X309880Y213360D03*
X331470Y213360D03*
X351790Y213360D03*
X182880Y213360D03*
X203200Y233680D03*
X224790Y233680D03*
X246380Y233680D03*
X266700Y233680D03*
X288290Y233680D03*
X308610Y233680D03*
X330200Y233680D03*
X350520Y233680D03*
X181610Y233680D03*
X203200Y254000D03*
X224790Y254000D03*
X246380Y254000D03*
X266700Y254000D03*
X288290Y254000D03*
X308610Y254000D03*
X330200Y254000D03*
X350520Y254000D03*
X181610Y254000D03*
X203200Y193040D03*
X224790Y193040D03*
X246380Y193040D03*
X266700Y193040D03*
X288290Y193040D03*
X308610Y193040D03*
X330200Y193040D03*
X350520Y193040D03*
X181610Y193040D03*
X185420Y162560D03*
X306070Y162560D03*
X275590Y162560D03*
X295910Y162560D03*
X317500Y162560D03*
X337820Y162560D03*
X168910Y162560D03*
X153670Y344170D03*
X175260Y344170D03*
X195580Y344170D03*
X238760Y345440D03*
X294640Y345440D03*
X314960Y345440D03*
X334010Y345440D03*
X355600Y346710D03*
X375920Y346710D03*
X387350Y322580D03*
X383540Y255270D03*
X383540Y226060D03*
X383540Y212090D03*
X383540Y196850D03*
X384810Y173990D03*
X387350Y340360D03*
X350520Y180340D03*
X374650Y160020D03*
X358140Y160020D03*
X198120Y162560D03*
X196850Y151130D03*
X189230Y142240D03*
X181610Y134620D03*
X172720Y124460D03*
X162560Y116840D03*
X154940Y107950D03*
X168910Y96520D03*
X148590Y78740D03*
X139700Y76200D03*
X184150Y76200D03*
X125730Y76200D03*
X106680Y76200D03*
X170180Y76200D03*
X104140Y62230D03*
X104140Y48260D03*
X104140Y34290D03*
X104140Y6350D03*
X104140Y20320D03*
X175260Y104140D03*
X184150Y114300D03*
X151130Y161290D03*
X151130Y181610D03*
X166370Y176530D03*
X152400Y254000D03*
X152400Y265430D03*
X148590Y96520D03*
X193040Y121920D03*
X201930Y132080D03*
X210820Y140970D03*
X194310Y96520D03*
X199390Y76200D03*
X213360Y74930D03*
X212090Y62230D03*
X212090Y46990D03*
X212090Y35560D03*
X212090Y20320D03*
X212090Y6350D03*
X217170Y166370D03*
X181610Y176530D03*
X180340Y331470D03*
X167640Y331470D03*
X351790Y331470D03*
X367030Y332740D03*
X368300Y176530D03*
X-41910Y424180D03*
X260350Y505460D03*
X389890Y96520D03*
D14*
X407670Y114300D02*
X407670Y363198D01*
X407670Y114300D02*
X389890Y96520D01*
X407670Y363198D02*
X385042Y385826D01*
D12*
X385042Y385826D03*
X94361Y266700D03*
X104140Y384810D03*
X90932Y287782D03*
X122978Y395182D03*
X341884Y401574D03*
D14*
X343789Y399669D01*
X370773Y399669D01*
X379073Y383354D02*
X404114Y358312D01*
X379073Y391369D02*
X370773Y399669D01*
X379073Y391369D02*
X379073Y383354D01*
X404114Y120904D02*
X379730Y96520D01*
D12*
X379730Y96520D03*
D14*
X404114Y120904D02*
X404114Y358312D01*
D12*
X250190Y343662D03*
D14*
X250190Y407670D01*
D12*
X250190Y407670D03*
D14*
X114300Y201352D02*
X114300Y190500D01*
X114300Y201352D02*
X124587Y211639D01*
X124587Y372237D02*
X129540Y377190D01*
D12*
X129540Y377190D03*
X203200Y407670D03*
D14*
X124587Y372237D02*
X124587Y211639D01*
D12*
X199390Y546100D03*
X242570Y68580D03*
X290830Y68580D03*
D13*
X417830Y87630D02*
X520700Y190500D01*
X520700Y349250D01*
X495300Y374650D01*
D12*
X495300Y374650D03*
D13*
X254000Y87630D02*
X242570Y87630D01*
X254000Y87630D02*
X417830Y87630D01*
X242570Y87630D02*
X242570Y68580D01*
D12*
X254000Y144780D03*
D13*
X254000Y87630D01*
D12*
X90170Y939800D03*
X74930Y784860D03*
D13*
X90424Y939546D02*
X90170Y939800D01*
X90424Y939546D02*
X90424Y800354D01*
X74930Y784860D01*
D12*
X444500Y784860D03*
D13*
X444500Y689610D01*
D12*
X444500Y689610D03*
D13*
X242570Y87630D02*
X17780Y87630D01*
X0Y69850D01*
D12*
X196850Y430530D03*
X457200Y397510D03*
D14*
X443230Y293370D02*
X457200Y279400D01*
X443230Y338269D02*
X457200Y352239D01*
X443230Y338269D02*
X443230Y293370D01*
X457200Y352239D02*
X457200Y397510D01*
D12*
X266700Y139700D03*
D14*
X260350Y146050D02*
X260350Y371729D01*
X260350Y146050D02*
X266700Y139700D01*
X260350Y371729D02*
X256159Y375920D01*
D12*
X256159Y375920D03*
X203200Y377190D03*
X241300Y139700D03*
D14*
X232410Y148590D02*
X232410Y373380D01*
X232410Y148590D02*
X241300Y139700D01*
X232410Y373380D02*
X228600Y377190D01*
D12*
X228600Y377190D03*
X38100Y152400D03*
X12700Y368300D03*
D14*
X29659Y152400D02*
X38100Y152400D01*
X29659Y152400D02*
X13081Y168978D01*
X13081Y367919D02*
X12700Y368300D01*
X13081Y367919D02*
X13081Y168978D01*
D12*
X431800Y366776D03*
X101600Y152400D03*
D14*
X101600Y354330D02*
X97790Y358140D01*
X101600Y354330D02*
X101600Y152400D01*
D12*
X97790Y358140D03*
X439420Y355600D03*
X542290Y589280D03*
X543560Y698500D03*
X67310Y695960D03*
X54610Y1024890D03*
D14*
X67310Y865319D02*
X67310Y695960D01*
X67310Y865319D02*
X65151Y867478D01*
X65151Y1014349D02*
X54610Y1024890D01*
X65151Y1014349D02*
X65151Y867478D01*
D12*
X152400Y723900D03*
X152400Y952500D03*
X355600Y723900D03*
D13*
X330200Y698500D01*
D12*
X330200Y374650D03*
D13*
X330200Y473416D02*
X330200Y698500D01*
X330200Y473416D02*
X329946Y473162D01*
X329946Y466638D01*
X330200Y466384D01*
X330200Y374650D01*
D12*
X553720Y419100D03*
X24130Y358140D03*
X495300Y342900D03*
X93980Y321310D03*
X78740Y359410D03*
X486410Y361950D03*
X76200Y228600D03*
X6350Y279400D03*
X79050Y256850D03*
X71120Y869950D03*
X163830Y839470D03*
X539750Y839470D03*
X539750Y952500D03*
X49107Y913553D03*
X203200Y850900D03*
X368300Y850900D03*
X339090Y622300D03*
X38100Y177800D03*
D14*
X43883Y183583D02*
X43883Y373702D01*
X43883Y183583D02*
X38100Y177800D01*
X43883Y373702D02*
X44450Y374269D01*
D12*
X44450Y374269D03*
X223520Y406400D03*
D14*
X223520Y680720D01*
X228600Y685800D01*
D12*
X167640Y864870D03*
X228600Y863600D03*
D14*
X228600Y685800D01*
D12*
X167640Y890270D03*
X-22860Y379730D03*
X180340Y401320D03*
D14*
X180340Y744669D01*
X174371Y750638D01*
X174371Y883539D02*
X167640Y890270D01*
X174371Y883539D02*
X174371Y750638D01*
D12*
X-29210Y709930D03*
X167640Y709930D03*
X165100Y850900D03*
D14*
X167640Y834839D02*
X167640Y709930D01*
X167640Y834839D02*
X169799Y836998D01*
X169799Y846201D01*
X165100Y850900D01*
D12*
X63500Y177800D03*
D14*
X63500Y389890D01*
D12*
X63500Y389890D03*
X215900Y392684D03*
X215900Y876300D03*
X165100Y876300D03*
D14*
X215900Y876300D02*
X215900Y392684D01*
D12*
X337820Y469900D03*
X339090Y546100D03*
X368300Y939800D03*
X127000Y857250D03*
X32080Y885571D03*
X127000Y869950D03*
X10160Y891540D03*
X40640Y916940D03*
D13*
X22860Y899160D01*
X22860Y853440D02*
X50800Y825500D01*
D12*
X50800Y825500D03*
D13*
X22860Y863600D02*
X22860Y899160D01*
X22860Y863600D02*
X22860Y853440D01*
D12*
X33020Y864870D03*
D13*
X24130Y864870D01*
X22860Y863600D01*
M02*
