G04 EAGLE Gerber RS-274X export*
G75*
%MOMM*%
%FSLAX34Y34*%
%LPD*%
%IN*%
%IPPOS*%
%AMOC8*
5,1,8,0,0,1.08239X$1,22.5*%
G01*
%ADD10C,0.254000*%
%ADD11C,0.152400*%
%ADD12C,0.000000*%
%ADD13C,0.600000*%
%ADD14C,0.076200*%
%ADD15C,0.203200*%
%ADD16C,0.254000*%


D10*
X101600Y660400D02*
X254000Y660400D01*
X254000Y431800D01*
X101600Y431800D01*
X101600Y660400D01*
X457200Y660400D02*
X609600Y660400D01*
X609600Y431800D01*
X457200Y431800D01*
X457200Y660400D01*
D11*
X156733Y558045D02*
X156733Y549402D01*
X156733Y558045D02*
X161055Y558045D01*
X162495Y556605D01*
X162495Y553724D01*
X161055Y552283D01*
X156733Y552283D01*
X159614Y552283D02*
X162495Y549402D01*
X167529Y549402D02*
X170410Y549402D01*
X171851Y550843D01*
X171851Y553724D01*
X170410Y555164D01*
X167529Y555164D01*
X166088Y553724D01*
X166088Y550843D01*
X167529Y549402D01*
X175444Y550843D02*
X175444Y555164D01*
X175444Y550843D02*
X176884Y549402D01*
X181206Y549402D01*
X181206Y555164D01*
X186239Y556605D02*
X186239Y550843D01*
X187680Y549402D01*
X187680Y555164D02*
X184799Y555164D01*
X192476Y549402D02*
X195357Y549402D01*
X192476Y549402D02*
X191036Y550843D01*
X191036Y553724D01*
X192476Y555164D01*
X195357Y555164D01*
X196798Y553724D01*
X196798Y552283D01*
X191036Y552283D01*
X170410Y542805D02*
X167529Y542805D01*
X166088Y541365D01*
X166088Y535603D01*
X167529Y534162D01*
X170410Y534162D01*
X171851Y535603D01*
X171851Y541365D01*
X170410Y542805D01*
X175444Y539924D02*
X175444Y535603D01*
X176884Y534162D01*
X181206Y534162D01*
X181206Y539924D01*
X186239Y541365D02*
X186239Y535603D01*
X187680Y534162D01*
X187680Y539924D02*
X184799Y539924D01*
X512333Y549402D02*
X512333Y558045D01*
X516655Y558045D01*
X518095Y556605D01*
X518095Y553724D01*
X516655Y552283D01*
X512333Y552283D01*
X515214Y552283D02*
X518095Y549402D01*
X523129Y549402D02*
X526010Y549402D01*
X527451Y550843D01*
X527451Y553724D01*
X526010Y555164D01*
X523129Y555164D01*
X521688Y553724D01*
X521688Y550843D01*
X523129Y549402D01*
X531044Y550843D02*
X531044Y555164D01*
X531044Y550843D02*
X532484Y549402D01*
X536806Y549402D01*
X536806Y555164D01*
X541839Y556605D02*
X541839Y550843D01*
X543280Y549402D01*
X543280Y555164D02*
X540399Y555164D01*
X548076Y549402D02*
X550957Y549402D01*
X548076Y549402D02*
X546636Y550843D01*
X546636Y553724D01*
X548076Y555164D01*
X550957Y555164D01*
X552398Y553724D01*
X552398Y552283D01*
X546636Y552283D01*
X526010Y542805D02*
X523129Y542805D01*
X521688Y541365D01*
X521688Y535603D01*
X523129Y534162D01*
X526010Y534162D01*
X527451Y535603D01*
X527451Y541365D01*
X526010Y542805D01*
X531044Y539924D02*
X531044Y535603D01*
X532484Y534162D01*
X536806Y534162D01*
X536806Y539924D01*
X541839Y541365D02*
X541839Y535603D01*
X543280Y534162D01*
X543280Y539924D02*
X540399Y539924D01*
D12*
X323450Y49050D02*
X323452Y49163D01*
X323458Y49277D01*
X323468Y49390D01*
X323482Y49502D01*
X323499Y49614D01*
X323521Y49726D01*
X323547Y49836D01*
X323576Y49946D01*
X323609Y50054D01*
X323646Y50162D01*
X323687Y50267D01*
X323731Y50372D01*
X323779Y50475D01*
X323830Y50576D01*
X323885Y50675D01*
X323944Y50772D01*
X324006Y50867D01*
X324071Y50960D01*
X324139Y51051D01*
X324210Y51139D01*
X324285Y51225D01*
X324362Y51308D01*
X324442Y51388D01*
X324525Y51465D01*
X324611Y51540D01*
X324699Y51611D01*
X324790Y51679D01*
X324883Y51744D01*
X324978Y51806D01*
X325075Y51865D01*
X325174Y51920D01*
X325275Y51971D01*
X325378Y52019D01*
X325483Y52063D01*
X325588Y52104D01*
X325696Y52141D01*
X325804Y52174D01*
X325914Y52203D01*
X326024Y52229D01*
X326136Y52251D01*
X326248Y52268D01*
X326360Y52282D01*
X326473Y52292D01*
X326587Y52298D01*
X326700Y52300D01*
X326813Y52298D01*
X326927Y52292D01*
X327040Y52282D01*
X327152Y52268D01*
X327264Y52251D01*
X327376Y52229D01*
X327486Y52203D01*
X327596Y52174D01*
X327704Y52141D01*
X327812Y52104D01*
X327917Y52063D01*
X328022Y52019D01*
X328125Y51971D01*
X328226Y51920D01*
X328325Y51865D01*
X328422Y51806D01*
X328517Y51744D01*
X328610Y51679D01*
X328701Y51611D01*
X328789Y51540D01*
X328875Y51465D01*
X328958Y51388D01*
X329038Y51308D01*
X329115Y51225D01*
X329190Y51139D01*
X329261Y51051D01*
X329329Y50960D01*
X329394Y50867D01*
X329456Y50772D01*
X329515Y50675D01*
X329570Y50576D01*
X329621Y50475D01*
X329669Y50372D01*
X329713Y50267D01*
X329754Y50162D01*
X329791Y50054D01*
X329824Y49946D01*
X329853Y49836D01*
X329879Y49726D01*
X329901Y49614D01*
X329918Y49502D01*
X329932Y49390D01*
X329942Y49277D01*
X329948Y49163D01*
X329950Y49050D01*
X329948Y48937D01*
X329942Y48823D01*
X329932Y48710D01*
X329918Y48598D01*
X329901Y48486D01*
X329879Y48374D01*
X329853Y48264D01*
X329824Y48154D01*
X329791Y48046D01*
X329754Y47938D01*
X329713Y47833D01*
X329669Y47728D01*
X329621Y47625D01*
X329570Y47524D01*
X329515Y47425D01*
X329456Y47328D01*
X329394Y47233D01*
X329329Y47140D01*
X329261Y47049D01*
X329190Y46961D01*
X329115Y46875D01*
X329038Y46792D01*
X328958Y46712D01*
X328875Y46635D01*
X328789Y46560D01*
X328701Y46489D01*
X328610Y46421D01*
X328517Y46356D01*
X328422Y46294D01*
X328325Y46235D01*
X328226Y46180D01*
X328125Y46129D01*
X328022Y46081D01*
X327917Y46037D01*
X327812Y45996D01*
X327704Y45959D01*
X327596Y45926D01*
X327486Y45897D01*
X327376Y45871D01*
X327264Y45849D01*
X327152Y45832D01*
X327040Y45818D01*
X326927Y45808D01*
X326813Y45802D01*
X326700Y45800D01*
X326587Y45802D01*
X326473Y45808D01*
X326360Y45818D01*
X326248Y45832D01*
X326136Y45849D01*
X326024Y45871D01*
X325914Y45897D01*
X325804Y45926D01*
X325696Y45959D01*
X325588Y45996D01*
X325483Y46037D01*
X325378Y46081D01*
X325275Y46129D01*
X325174Y46180D01*
X325075Y46235D01*
X324978Y46294D01*
X324883Y46356D01*
X324790Y46421D01*
X324699Y46489D01*
X324611Y46560D01*
X324525Y46635D01*
X324442Y46712D01*
X324362Y46792D01*
X324285Y46875D01*
X324210Y46961D01*
X324139Y47049D01*
X324071Y47140D01*
X324006Y47233D01*
X323944Y47328D01*
X323885Y47425D01*
X323830Y47524D01*
X323779Y47625D01*
X323731Y47728D01*
X323687Y47833D01*
X323646Y47938D01*
X323609Y48046D01*
X323576Y48154D01*
X323547Y48264D01*
X323521Y48374D01*
X323499Y48486D01*
X323482Y48598D01*
X323468Y48710D01*
X323458Y48823D01*
X323452Y48937D01*
X323450Y49050D01*
X381250Y49050D02*
X381252Y49163D01*
X381258Y49277D01*
X381268Y49390D01*
X381282Y49502D01*
X381299Y49614D01*
X381321Y49726D01*
X381347Y49836D01*
X381376Y49946D01*
X381409Y50054D01*
X381446Y50162D01*
X381487Y50267D01*
X381531Y50372D01*
X381579Y50475D01*
X381630Y50576D01*
X381685Y50675D01*
X381744Y50772D01*
X381806Y50867D01*
X381871Y50960D01*
X381939Y51051D01*
X382010Y51139D01*
X382085Y51225D01*
X382162Y51308D01*
X382242Y51388D01*
X382325Y51465D01*
X382411Y51540D01*
X382499Y51611D01*
X382590Y51679D01*
X382683Y51744D01*
X382778Y51806D01*
X382875Y51865D01*
X382974Y51920D01*
X383075Y51971D01*
X383178Y52019D01*
X383283Y52063D01*
X383388Y52104D01*
X383496Y52141D01*
X383604Y52174D01*
X383714Y52203D01*
X383824Y52229D01*
X383936Y52251D01*
X384048Y52268D01*
X384160Y52282D01*
X384273Y52292D01*
X384387Y52298D01*
X384500Y52300D01*
X384613Y52298D01*
X384727Y52292D01*
X384840Y52282D01*
X384952Y52268D01*
X385064Y52251D01*
X385176Y52229D01*
X385286Y52203D01*
X385396Y52174D01*
X385504Y52141D01*
X385612Y52104D01*
X385717Y52063D01*
X385822Y52019D01*
X385925Y51971D01*
X386026Y51920D01*
X386125Y51865D01*
X386222Y51806D01*
X386317Y51744D01*
X386410Y51679D01*
X386501Y51611D01*
X386589Y51540D01*
X386675Y51465D01*
X386758Y51388D01*
X386838Y51308D01*
X386915Y51225D01*
X386990Y51139D01*
X387061Y51051D01*
X387129Y50960D01*
X387194Y50867D01*
X387256Y50772D01*
X387315Y50675D01*
X387370Y50576D01*
X387421Y50475D01*
X387469Y50372D01*
X387513Y50267D01*
X387554Y50162D01*
X387591Y50054D01*
X387624Y49946D01*
X387653Y49836D01*
X387679Y49726D01*
X387701Y49614D01*
X387718Y49502D01*
X387732Y49390D01*
X387742Y49277D01*
X387748Y49163D01*
X387750Y49050D01*
X387748Y48937D01*
X387742Y48823D01*
X387732Y48710D01*
X387718Y48598D01*
X387701Y48486D01*
X387679Y48374D01*
X387653Y48264D01*
X387624Y48154D01*
X387591Y48046D01*
X387554Y47938D01*
X387513Y47833D01*
X387469Y47728D01*
X387421Y47625D01*
X387370Y47524D01*
X387315Y47425D01*
X387256Y47328D01*
X387194Y47233D01*
X387129Y47140D01*
X387061Y47049D01*
X386990Y46961D01*
X386915Y46875D01*
X386838Y46792D01*
X386758Y46712D01*
X386675Y46635D01*
X386589Y46560D01*
X386501Y46489D01*
X386410Y46421D01*
X386317Y46356D01*
X386222Y46294D01*
X386125Y46235D01*
X386026Y46180D01*
X385925Y46129D01*
X385822Y46081D01*
X385717Y46037D01*
X385612Y45996D01*
X385504Y45959D01*
X385396Y45926D01*
X385286Y45897D01*
X385176Y45871D01*
X385064Y45849D01*
X384952Y45832D01*
X384840Y45818D01*
X384727Y45808D01*
X384613Y45802D01*
X384500Y45800D01*
X384387Y45802D01*
X384273Y45808D01*
X384160Y45818D01*
X384048Y45832D01*
X383936Y45849D01*
X383824Y45871D01*
X383714Y45897D01*
X383604Y45926D01*
X383496Y45959D01*
X383388Y45996D01*
X383283Y46037D01*
X383178Y46081D01*
X383075Y46129D01*
X382974Y46180D01*
X382875Y46235D01*
X382778Y46294D01*
X382683Y46356D01*
X382590Y46421D01*
X382499Y46489D01*
X382411Y46560D01*
X382325Y46635D01*
X382242Y46712D01*
X382162Y46792D01*
X382085Y46875D01*
X382010Y46961D01*
X381939Y47049D01*
X381871Y47140D01*
X381806Y47233D01*
X381744Y47328D01*
X381685Y47425D01*
X381630Y47524D01*
X381579Y47625D01*
X381531Y47728D01*
X381487Y47833D01*
X381446Y47938D01*
X381409Y48046D01*
X381376Y48154D01*
X381347Y48264D01*
X381321Y48374D01*
X381299Y48486D01*
X381282Y48598D01*
X381268Y48710D01*
X381258Y48823D01*
X381252Y48937D01*
X381250Y49050D01*
D13*
X312420Y48850D02*
X312420Y59850D01*
X398780Y59850D02*
X398780Y48850D01*
X312420Y15700D02*
X312420Y9500D01*
X398780Y9500D02*
X398780Y15700D01*
D11*
X283150Y0D02*
X283150Y70000D01*
X212150Y70000D01*
X212150Y0D01*
D14*
X237289Y31631D02*
X237289Y35873D01*
X239409Y35873D01*
X240116Y35166D01*
X240116Y33752D01*
X239409Y33045D01*
X237289Y33045D01*
X238702Y33045D02*
X240116Y31631D01*
X242599Y31631D02*
X244013Y31631D01*
X244720Y32338D01*
X244720Y33752D01*
X244013Y34459D01*
X242599Y34459D01*
X241892Y33752D01*
X241892Y32338D01*
X242599Y31631D01*
X246496Y32338D02*
X246496Y34459D01*
X246496Y32338D02*
X247203Y31631D01*
X249324Y31631D01*
X249324Y34459D01*
X251807Y35166D02*
X251807Y32338D01*
X252514Y31631D01*
X252514Y34459D02*
X251100Y34459D01*
X254876Y31631D02*
X256290Y31631D01*
X254876Y31631D02*
X254170Y32338D01*
X254170Y33752D01*
X254876Y34459D01*
X256290Y34459D01*
X256997Y33752D01*
X256997Y33045D01*
X254170Y33045D01*
X244013Y28373D02*
X242599Y28373D01*
X241892Y27666D01*
X241892Y24838D01*
X242599Y24131D01*
X244013Y24131D01*
X244720Y24838D01*
X244720Y27666D01*
X244013Y28373D01*
X246496Y26959D02*
X246496Y24838D01*
X247203Y24131D01*
X249324Y24131D01*
X249324Y26959D01*
X251807Y27666D02*
X251807Y24838D01*
X252514Y24131D01*
X252514Y26959D02*
X251100Y26959D01*
D15*
X51308Y381D02*
X659892Y381D01*
X621792Y1091819D02*
X89408Y1091819D01*
D12*
X54610Y296037D02*
X54615Y296430D01*
X54629Y296822D01*
X54653Y297214D01*
X54687Y297605D01*
X54730Y297996D01*
X54783Y298385D01*
X54846Y298773D01*
X54917Y299159D01*
X54999Y299543D01*
X55090Y299925D01*
X55190Y300305D01*
X55299Y300682D01*
X55418Y301057D01*
X55545Y301428D01*
X55682Y301796D01*
X55828Y302161D01*
X55983Y302522D01*
X56146Y302879D01*
X56319Y303232D01*
X56499Y303580D01*
X56689Y303924D01*
X56887Y304264D01*
X57093Y304598D01*
X57307Y304927D01*
X57529Y305251D01*
X57759Y305569D01*
X57997Y305882D01*
X58242Y306189D01*
X58495Y306489D01*
X58755Y306783D01*
X59023Y307071D01*
X59297Y307352D01*
X59578Y307626D01*
X59866Y307894D01*
X60160Y308154D01*
X60460Y308407D01*
X60767Y308652D01*
X61080Y308890D01*
X61398Y309120D01*
X61722Y309342D01*
X62051Y309556D01*
X62385Y309762D01*
X62725Y309960D01*
X63069Y310150D01*
X63417Y310330D01*
X63770Y310503D01*
X64127Y310666D01*
X64488Y310821D01*
X64853Y310967D01*
X65221Y311104D01*
X65592Y311231D01*
X65967Y311350D01*
X66344Y311459D01*
X66724Y311559D01*
X67106Y311650D01*
X67490Y311732D01*
X67876Y311803D01*
X68264Y311866D01*
X68653Y311919D01*
X69044Y311962D01*
X69435Y311996D01*
X69827Y312020D01*
X70219Y312034D01*
X70612Y312039D01*
X71005Y312034D01*
X71397Y312020D01*
X71789Y311996D01*
X72180Y311962D01*
X72571Y311919D01*
X72960Y311866D01*
X73348Y311803D01*
X73734Y311732D01*
X74118Y311650D01*
X74500Y311559D01*
X74880Y311459D01*
X75257Y311350D01*
X75632Y311231D01*
X76003Y311104D01*
X76371Y310967D01*
X76736Y310821D01*
X77097Y310666D01*
X77454Y310503D01*
X77807Y310330D01*
X78155Y310150D01*
X78499Y309960D01*
X78839Y309762D01*
X79173Y309556D01*
X79502Y309342D01*
X79826Y309120D01*
X80144Y308890D01*
X80457Y308652D01*
X80764Y308407D01*
X81064Y308154D01*
X81358Y307894D01*
X81646Y307626D01*
X81927Y307352D01*
X82201Y307071D01*
X82469Y306783D01*
X82729Y306489D01*
X82982Y306189D01*
X83227Y305882D01*
X83465Y305569D01*
X83695Y305251D01*
X83917Y304927D01*
X84131Y304598D01*
X84337Y304264D01*
X84535Y303924D01*
X84725Y303580D01*
X84905Y303232D01*
X85078Y302879D01*
X85241Y302522D01*
X85396Y302161D01*
X85542Y301796D01*
X85679Y301428D01*
X85806Y301057D01*
X85925Y300682D01*
X86034Y300305D01*
X86134Y299925D01*
X86225Y299543D01*
X86307Y299159D01*
X86378Y298773D01*
X86441Y298385D01*
X86494Y297996D01*
X86537Y297605D01*
X86571Y297214D01*
X86595Y296822D01*
X86609Y296430D01*
X86614Y296037D01*
X86609Y295644D01*
X86595Y295252D01*
X86571Y294860D01*
X86537Y294469D01*
X86494Y294078D01*
X86441Y293689D01*
X86378Y293301D01*
X86307Y292915D01*
X86225Y292531D01*
X86134Y292149D01*
X86034Y291769D01*
X85925Y291392D01*
X85806Y291017D01*
X85679Y290646D01*
X85542Y290278D01*
X85396Y289913D01*
X85241Y289552D01*
X85078Y289195D01*
X84905Y288842D01*
X84725Y288494D01*
X84535Y288150D01*
X84337Y287810D01*
X84131Y287476D01*
X83917Y287147D01*
X83695Y286823D01*
X83465Y286505D01*
X83227Y286192D01*
X82982Y285885D01*
X82729Y285585D01*
X82469Y285291D01*
X82201Y285003D01*
X81927Y284722D01*
X81646Y284448D01*
X81358Y284180D01*
X81064Y283920D01*
X80764Y283667D01*
X80457Y283422D01*
X80144Y283184D01*
X79826Y282954D01*
X79502Y282732D01*
X79173Y282518D01*
X78839Y282312D01*
X78499Y282114D01*
X78155Y281924D01*
X77807Y281744D01*
X77454Y281571D01*
X77097Y281408D01*
X76736Y281253D01*
X76371Y281107D01*
X76003Y280970D01*
X75632Y280843D01*
X75257Y280724D01*
X74880Y280615D01*
X74500Y280515D01*
X74118Y280424D01*
X73734Y280342D01*
X73348Y280271D01*
X72960Y280208D01*
X72571Y280155D01*
X72180Y280112D01*
X71789Y280078D01*
X71397Y280054D01*
X71005Y280040D01*
X70612Y280035D01*
X70219Y280040D01*
X69827Y280054D01*
X69435Y280078D01*
X69044Y280112D01*
X68653Y280155D01*
X68264Y280208D01*
X67876Y280271D01*
X67490Y280342D01*
X67106Y280424D01*
X66724Y280515D01*
X66344Y280615D01*
X65967Y280724D01*
X65592Y280843D01*
X65221Y280970D01*
X64853Y281107D01*
X64488Y281253D01*
X64127Y281408D01*
X63770Y281571D01*
X63417Y281744D01*
X63069Y281924D01*
X62725Y282114D01*
X62385Y282312D01*
X62051Y282518D01*
X61722Y282732D01*
X61398Y282954D01*
X61080Y283184D01*
X60767Y283422D01*
X60460Y283667D01*
X60160Y283920D01*
X59866Y284180D01*
X59578Y284448D01*
X59297Y284722D01*
X59023Y285003D01*
X58755Y285291D01*
X58495Y285585D01*
X58242Y285885D01*
X57997Y286192D01*
X57759Y286505D01*
X57529Y286823D01*
X57307Y287147D01*
X57093Y287476D01*
X56887Y287810D01*
X56689Y288150D01*
X56499Y288494D01*
X56319Y288842D01*
X56146Y289195D01*
X55983Y289552D01*
X55828Y289913D01*
X55682Y290278D01*
X55545Y290646D01*
X55418Y291017D01*
X55299Y291392D01*
X55190Y291769D01*
X55090Y292149D01*
X54999Y292531D01*
X54917Y292915D01*
X54846Y293301D01*
X54783Y293689D01*
X54730Y294078D01*
X54687Y294469D01*
X54653Y294860D01*
X54629Y295252D01*
X54615Y295644D01*
X54610Y296037D01*
X54610Y796163D02*
X54615Y796556D01*
X54629Y796948D01*
X54653Y797340D01*
X54687Y797731D01*
X54730Y798122D01*
X54783Y798511D01*
X54846Y798899D01*
X54917Y799285D01*
X54999Y799669D01*
X55090Y800051D01*
X55190Y800431D01*
X55299Y800808D01*
X55418Y801183D01*
X55545Y801554D01*
X55682Y801922D01*
X55828Y802287D01*
X55983Y802648D01*
X56146Y803005D01*
X56319Y803358D01*
X56499Y803706D01*
X56689Y804050D01*
X56887Y804390D01*
X57093Y804724D01*
X57307Y805053D01*
X57529Y805377D01*
X57759Y805695D01*
X57997Y806008D01*
X58242Y806315D01*
X58495Y806615D01*
X58755Y806909D01*
X59023Y807197D01*
X59297Y807478D01*
X59578Y807752D01*
X59866Y808020D01*
X60160Y808280D01*
X60460Y808533D01*
X60767Y808778D01*
X61080Y809016D01*
X61398Y809246D01*
X61722Y809468D01*
X62051Y809682D01*
X62385Y809888D01*
X62725Y810086D01*
X63069Y810276D01*
X63417Y810456D01*
X63770Y810629D01*
X64127Y810792D01*
X64488Y810947D01*
X64853Y811093D01*
X65221Y811230D01*
X65592Y811357D01*
X65967Y811476D01*
X66344Y811585D01*
X66724Y811685D01*
X67106Y811776D01*
X67490Y811858D01*
X67876Y811929D01*
X68264Y811992D01*
X68653Y812045D01*
X69044Y812088D01*
X69435Y812122D01*
X69827Y812146D01*
X70219Y812160D01*
X70612Y812165D01*
X71005Y812160D01*
X71397Y812146D01*
X71789Y812122D01*
X72180Y812088D01*
X72571Y812045D01*
X72960Y811992D01*
X73348Y811929D01*
X73734Y811858D01*
X74118Y811776D01*
X74500Y811685D01*
X74880Y811585D01*
X75257Y811476D01*
X75632Y811357D01*
X76003Y811230D01*
X76371Y811093D01*
X76736Y810947D01*
X77097Y810792D01*
X77454Y810629D01*
X77807Y810456D01*
X78155Y810276D01*
X78499Y810086D01*
X78839Y809888D01*
X79173Y809682D01*
X79502Y809468D01*
X79826Y809246D01*
X80144Y809016D01*
X80457Y808778D01*
X80764Y808533D01*
X81064Y808280D01*
X81358Y808020D01*
X81646Y807752D01*
X81927Y807478D01*
X82201Y807197D01*
X82469Y806909D01*
X82729Y806615D01*
X82982Y806315D01*
X83227Y806008D01*
X83465Y805695D01*
X83695Y805377D01*
X83917Y805053D01*
X84131Y804724D01*
X84337Y804390D01*
X84535Y804050D01*
X84725Y803706D01*
X84905Y803358D01*
X85078Y803005D01*
X85241Y802648D01*
X85396Y802287D01*
X85542Y801922D01*
X85679Y801554D01*
X85806Y801183D01*
X85925Y800808D01*
X86034Y800431D01*
X86134Y800051D01*
X86225Y799669D01*
X86307Y799285D01*
X86378Y798899D01*
X86441Y798511D01*
X86494Y798122D01*
X86537Y797731D01*
X86571Y797340D01*
X86595Y796948D01*
X86609Y796556D01*
X86614Y796163D01*
X86609Y795770D01*
X86595Y795378D01*
X86571Y794986D01*
X86537Y794595D01*
X86494Y794204D01*
X86441Y793815D01*
X86378Y793427D01*
X86307Y793041D01*
X86225Y792657D01*
X86134Y792275D01*
X86034Y791895D01*
X85925Y791518D01*
X85806Y791143D01*
X85679Y790772D01*
X85542Y790404D01*
X85396Y790039D01*
X85241Y789678D01*
X85078Y789321D01*
X84905Y788968D01*
X84725Y788620D01*
X84535Y788276D01*
X84337Y787936D01*
X84131Y787602D01*
X83917Y787273D01*
X83695Y786949D01*
X83465Y786631D01*
X83227Y786318D01*
X82982Y786011D01*
X82729Y785711D01*
X82469Y785417D01*
X82201Y785129D01*
X81927Y784848D01*
X81646Y784574D01*
X81358Y784306D01*
X81064Y784046D01*
X80764Y783793D01*
X80457Y783548D01*
X80144Y783310D01*
X79826Y783080D01*
X79502Y782858D01*
X79173Y782644D01*
X78839Y782438D01*
X78499Y782240D01*
X78155Y782050D01*
X77807Y781870D01*
X77454Y781697D01*
X77097Y781534D01*
X76736Y781379D01*
X76371Y781233D01*
X76003Y781096D01*
X75632Y780969D01*
X75257Y780850D01*
X74880Y780741D01*
X74500Y780641D01*
X74118Y780550D01*
X73734Y780468D01*
X73348Y780397D01*
X72960Y780334D01*
X72571Y780281D01*
X72180Y780238D01*
X71789Y780204D01*
X71397Y780180D01*
X71005Y780166D01*
X70612Y780161D01*
X70219Y780166D01*
X69827Y780180D01*
X69435Y780204D01*
X69044Y780238D01*
X68653Y780281D01*
X68264Y780334D01*
X67876Y780397D01*
X67490Y780468D01*
X67106Y780550D01*
X66724Y780641D01*
X66344Y780741D01*
X65967Y780850D01*
X65592Y780969D01*
X65221Y781096D01*
X64853Y781233D01*
X64488Y781379D01*
X64127Y781534D01*
X63770Y781697D01*
X63417Y781870D01*
X63069Y782050D01*
X62725Y782240D01*
X62385Y782438D01*
X62051Y782644D01*
X61722Y782858D01*
X61398Y783080D01*
X61080Y783310D01*
X60767Y783548D01*
X60460Y783793D01*
X60160Y784046D01*
X59866Y784306D01*
X59578Y784574D01*
X59297Y784848D01*
X59023Y785129D01*
X58755Y785417D01*
X58495Y785711D01*
X58242Y786011D01*
X57997Y786318D01*
X57759Y786631D01*
X57529Y786949D01*
X57307Y787273D01*
X57093Y787602D01*
X56887Y787936D01*
X56689Y788276D01*
X56499Y788620D01*
X56319Y788968D01*
X56146Y789321D01*
X55983Y789678D01*
X55828Y790039D01*
X55682Y790404D01*
X55545Y790772D01*
X55418Y791143D01*
X55299Y791518D01*
X55190Y791895D01*
X55090Y792275D01*
X54999Y792657D01*
X54917Y793041D01*
X54846Y793427D01*
X54783Y793815D01*
X54730Y794204D01*
X54687Y794595D01*
X54653Y794986D01*
X54629Y795378D01*
X54615Y795770D01*
X54610Y796163D01*
X624586Y796163D02*
X624591Y796556D01*
X624605Y796948D01*
X624629Y797340D01*
X624663Y797731D01*
X624706Y798122D01*
X624759Y798511D01*
X624822Y798899D01*
X624893Y799285D01*
X624975Y799669D01*
X625066Y800051D01*
X625166Y800431D01*
X625275Y800808D01*
X625394Y801183D01*
X625521Y801554D01*
X625658Y801922D01*
X625804Y802287D01*
X625959Y802648D01*
X626122Y803005D01*
X626295Y803358D01*
X626475Y803706D01*
X626665Y804050D01*
X626863Y804390D01*
X627069Y804724D01*
X627283Y805053D01*
X627505Y805377D01*
X627735Y805695D01*
X627973Y806008D01*
X628218Y806315D01*
X628471Y806615D01*
X628731Y806909D01*
X628999Y807197D01*
X629273Y807478D01*
X629554Y807752D01*
X629842Y808020D01*
X630136Y808280D01*
X630436Y808533D01*
X630743Y808778D01*
X631056Y809016D01*
X631374Y809246D01*
X631698Y809468D01*
X632027Y809682D01*
X632361Y809888D01*
X632701Y810086D01*
X633045Y810276D01*
X633393Y810456D01*
X633746Y810629D01*
X634103Y810792D01*
X634464Y810947D01*
X634829Y811093D01*
X635197Y811230D01*
X635568Y811357D01*
X635943Y811476D01*
X636320Y811585D01*
X636700Y811685D01*
X637082Y811776D01*
X637466Y811858D01*
X637852Y811929D01*
X638240Y811992D01*
X638629Y812045D01*
X639020Y812088D01*
X639411Y812122D01*
X639803Y812146D01*
X640195Y812160D01*
X640588Y812165D01*
X640981Y812160D01*
X641373Y812146D01*
X641765Y812122D01*
X642156Y812088D01*
X642547Y812045D01*
X642936Y811992D01*
X643324Y811929D01*
X643710Y811858D01*
X644094Y811776D01*
X644476Y811685D01*
X644856Y811585D01*
X645233Y811476D01*
X645608Y811357D01*
X645979Y811230D01*
X646347Y811093D01*
X646712Y810947D01*
X647073Y810792D01*
X647430Y810629D01*
X647783Y810456D01*
X648131Y810276D01*
X648475Y810086D01*
X648815Y809888D01*
X649149Y809682D01*
X649478Y809468D01*
X649802Y809246D01*
X650120Y809016D01*
X650433Y808778D01*
X650740Y808533D01*
X651040Y808280D01*
X651334Y808020D01*
X651622Y807752D01*
X651903Y807478D01*
X652177Y807197D01*
X652445Y806909D01*
X652705Y806615D01*
X652958Y806315D01*
X653203Y806008D01*
X653441Y805695D01*
X653671Y805377D01*
X653893Y805053D01*
X654107Y804724D01*
X654313Y804390D01*
X654511Y804050D01*
X654701Y803706D01*
X654881Y803358D01*
X655054Y803005D01*
X655217Y802648D01*
X655372Y802287D01*
X655518Y801922D01*
X655655Y801554D01*
X655782Y801183D01*
X655901Y800808D01*
X656010Y800431D01*
X656110Y800051D01*
X656201Y799669D01*
X656283Y799285D01*
X656354Y798899D01*
X656417Y798511D01*
X656470Y798122D01*
X656513Y797731D01*
X656547Y797340D01*
X656571Y796948D01*
X656585Y796556D01*
X656590Y796163D01*
X656585Y795770D01*
X656571Y795378D01*
X656547Y794986D01*
X656513Y794595D01*
X656470Y794204D01*
X656417Y793815D01*
X656354Y793427D01*
X656283Y793041D01*
X656201Y792657D01*
X656110Y792275D01*
X656010Y791895D01*
X655901Y791518D01*
X655782Y791143D01*
X655655Y790772D01*
X655518Y790404D01*
X655372Y790039D01*
X655217Y789678D01*
X655054Y789321D01*
X654881Y788968D01*
X654701Y788620D01*
X654511Y788276D01*
X654313Y787936D01*
X654107Y787602D01*
X653893Y787273D01*
X653671Y786949D01*
X653441Y786631D01*
X653203Y786318D01*
X652958Y786011D01*
X652705Y785711D01*
X652445Y785417D01*
X652177Y785129D01*
X651903Y784848D01*
X651622Y784574D01*
X651334Y784306D01*
X651040Y784046D01*
X650740Y783793D01*
X650433Y783548D01*
X650120Y783310D01*
X649802Y783080D01*
X649478Y782858D01*
X649149Y782644D01*
X648815Y782438D01*
X648475Y782240D01*
X648131Y782050D01*
X647783Y781870D01*
X647430Y781697D01*
X647073Y781534D01*
X646712Y781379D01*
X646347Y781233D01*
X645979Y781096D01*
X645608Y780969D01*
X645233Y780850D01*
X644856Y780741D01*
X644476Y780641D01*
X644094Y780550D01*
X643710Y780468D01*
X643324Y780397D01*
X642936Y780334D01*
X642547Y780281D01*
X642156Y780238D01*
X641765Y780204D01*
X641373Y780180D01*
X640981Y780166D01*
X640588Y780161D01*
X640195Y780166D01*
X639803Y780180D01*
X639411Y780204D01*
X639020Y780238D01*
X638629Y780281D01*
X638240Y780334D01*
X637852Y780397D01*
X637466Y780468D01*
X637082Y780550D01*
X636700Y780641D01*
X636320Y780741D01*
X635943Y780850D01*
X635568Y780969D01*
X635197Y781096D01*
X634829Y781233D01*
X634464Y781379D01*
X634103Y781534D01*
X633746Y781697D01*
X633393Y781870D01*
X633045Y782050D01*
X632701Y782240D01*
X632361Y782438D01*
X632027Y782644D01*
X631698Y782858D01*
X631374Y783080D01*
X631056Y783310D01*
X630743Y783548D01*
X630436Y783793D01*
X630136Y784046D01*
X629842Y784306D01*
X629554Y784574D01*
X629273Y784848D01*
X628999Y785129D01*
X628731Y785417D01*
X628471Y785711D01*
X628218Y786011D01*
X627973Y786318D01*
X627735Y786631D01*
X627505Y786949D01*
X627283Y787273D01*
X627069Y787602D01*
X626863Y787936D01*
X626665Y788276D01*
X626475Y788620D01*
X626295Y788968D01*
X626122Y789321D01*
X625959Y789678D01*
X625804Y790039D01*
X625658Y790404D01*
X625521Y790772D01*
X625394Y791143D01*
X625275Y791518D01*
X625166Y791895D01*
X625066Y792275D01*
X624975Y792657D01*
X624893Y793041D01*
X624822Y793427D01*
X624759Y793815D01*
X624706Y794204D01*
X624663Y794595D01*
X624629Y794986D01*
X624605Y795378D01*
X624591Y795770D01*
X624586Y796163D01*
X624586Y296037D02*
X624591Y296430D01*
X624605Y296822D01*
X624629Y297214D01*
X624663Y297605D01*
X624706Y297996D01*
X624759Y298385D01*
X624822Y298773D01*
X624893Y299159D01*
X624975Y299543D01*
X625066Y299925D01*
X625166Y300305D01*
X625275Y300682D01*
X625394Y301057D01*
X625521Y301428D01*
X625658Y301796D01*
X625804Y302161D01*
X625959Y302522D01*
X626122Y302879D01*
X626295Y303232D01*
X626475Y303580D01*
X626665Y303924D01*
X626863Y304264D01*
X627069Y304598D01*
X627283Y304927D01*
X627505Y305251D01*
X627735Y305569D01*
X627973Y305882D01*
X628218Y306189D01*
X628471Y306489D01*
X628731Y306783D01*
X628999Y307071D01*
X629273Y307352D01*
X629554Y307626D01*
X629842Y307894D01*
X630136Y308154D01*
X630436Y308407D01*
X630743Y308652D01*
X631056Y308890D01*
X631374Y309120D01*
X631698Y309342D01*
X632027Y309556D01*
X632361Y309762D01*
X632701Y309960D01*
X633045Y310150D01*
X633393Y310330D01*
X633746Y310503D01*
X634103Y310666D01*
X634464Y310821D01*
X634829Y310967D01*
X635197Y311104D01*
X635568Y311231D01*
X635943Y311350D01*
X636320Y311459D01*
X636700Y311559D01*
X637082Y311650D01*
X637466Y311732D01*
X637852Y311803D01*
X638240Y311866D01*
X638629Y311919D01*
X639020Y311962D01*
X639411Y311996D01*
X639803Y312020D01*
X640195Y312034D01*
X640588Y312039D01*
X640981Y312034D01*
X641373Y312020D01*
X641765Y311996D01*
X642156Y311962D01*
X642547Y311919D01*
X642936Y311866D01*
X643324Y311803D01*
X643710Y311732D01*
X644094Y311650D01*
X644476Y311559D01*
X644856Y311459D01*
X645233Y311350D01*
X645608Y311231D01*
X645979Y311104D01*
X646347Y310967D01*
X646712Y310821D01*
X647073Y310666D01*
X647430Y310503D01*
X647783Y310330D01*
X648131Y310150D01*
X648475Y309960D01*
X648815Y309762D01*
X649149Y309556D01*
X649478Y309342D01*
X649802Y309120D01*
X650120Y308890D01*
X650433Y308652D01*
X650740Y308407D01*
X651040Y308154D01*
X651334Y307894D01*
X651622Y307626D01*
X651903Y307352D01*
X652177Y307071D01*
X652445Y306783D01*
X652705Y306489D01*
X652958Y306189D01*
X653203Y305882D01*
X653441Y305569D01*
X653671Y305251D01*
X653893Y304927D01*
X654107Y304598D01*
X654313Y304264D01*
X654511Y303924D01*
X654701Y303580D01*
X654881Y303232D01*
X655054Y302879D01*
X655217Y302522D01*
X655372Y302161D01*
X655518Y301796D01*
X655655Y301428D01*
X655782Y301057D01*
X655901Y300682D01*
X656010Y300305D01*
X656110Y299925D01*
X656201Y299543D01*
X656283Y299159D01*
X656354Y298773D01*
X656417Y298385D01*
X656470Y297996D01*
X656513Y297605D01*
X656547Y297214D01*
X656571Y296822D01*
X656585Y296430D01*
X656590Y296037D01*
X656585Y295644D01*
X656571Y295252D01*
X656547Y294860D01*
X656513Y294469D01*
X656470Y294078D01*
X656417Y293689D01*
X656354Y293301D01*
X656283Y292915D01*
X656201Y292531D01*
X656110Y292149D01*
X656010Y291769D01*
X655901Y291392D01*
X655782Y291017D01*
X655655Y290646D01*
X655518Y290278D01*
X655372Y289913D01*
X655217Y289552D01*
X655054Y289195D01*
X654881Y288842D01*
X654701Y288494D01*
X654511Y288150D01*
X654313Y287810D01*
X654107Y287476D01*
X653893Y287147D01*
X653671Y286823D01*
X653441Y286505D01*
X653203Y286192D01*
X652958Y285885D01*
X652705Y285585D01*
X652445Y285291D01*
X652177Y285003D01*
X651903Y284722D01*
X651622Y284448D01*
X651334Y284180D01*
X651040Y283920D01*
X650740Y283667D01*
X650433Y283422D01*
X650120Y283184D01*
X649802Y282954D01*
X649478Y282732D01*
X649149Y282518D01*
X648815Y282312D01*
X648475Y282114D01*
X648131Y281924D01*
X647783Y281744D01*
X647430Y281571D01*
X647073Y281408D01*
X646712Y281253D01*
X646347Y281107D01*
X645979Y280970D01*
X645608Y280843D01*
X645233Y280724D01*
X644856Y280615D01*
X644476Y280515D01*
X644094Y280424D01*
X643710Y280342D01*
X643324Y280271D01*
X642936Y280208D01*
X642547Y280155D01*
X642156Y280112D01*
X641765Y280078D01*
X641373Y280054D01*
X640981Y280040D01*
X640588Y280035D01*
X640195Y280040D01*
X639803Y280054D01*
X639411Y280078D01*
X639020Y280112D01*
X638629Y280155D01*
X638240Y280208D01*
X637852Y280271D01*
X637466Y280342D01*
X637082Y280424D01*
X636700Y280515D01*
X636320Y280615D01*
X635943Y280724D01*
X635568Y280843D01*
X635197Y280970D01*
X634829Y281107D01*
X634464Y281253D01*
X634103Y281408D01*
X633746Y281571D01*
X633393Y281744D01*
X633045Y281924D01*
X632701Y282114D01*
X632361Y282312D01*
X632027Y282518D01*
X631698Y282732D01*
X631374Y282954D01*
X631056Y283184D01*
X630743Y283422D01*
X630436Y283667D01*
X630136Y283920D01*
X629842Y284180D01*
X629554Y284448D01*
X629273Y284722D01*
X628999Y285003D01*
X628731Y285291D01*
X628471Y285585D01*
X628218Y285885D01*
X627973Y286192D01*
X627735Y286505D01*
X627505Y286823D01*
X627283Y287147D01*
X627069Y287476D01*
X626863Y287810D01*
X626665Y288150D01*
X626475Y288494D01*
X626295Y288842D01*
X626122Y289195D01*
X625959Y289552D01*
X625804Y289913D01*
X625658Y290278D01*
X625521Y290646D01*
X625394Y291017D01*
X625275Y291392D01*
X625166Y291769D01*
X625066Y292149D01*
X624975Y292531D01*
X624893Y292915D01*
X624822Y293301D01*
X624759Y293689D01*
X624706Y294078D01*
X624663Y294469D01*
X624629Y294860D01*
X624605Y295252D01*
X624591Y295644D01*
X624586Y296037D01*
D15*
X69850Y514477D02*
X508Y514477D01*
X508Y577723D02*
X69850Y577723D01*
X508Y577723D02*
X508Y584200D01*
X508Y514477D02*
X4122Y428388D01*
X9682Y342404D01*
X17185Y256567D01*
X26627Y170921D01*
X38003Y85511D01*
X51308Y381D01*
X38481Y1041400D02*
X38735Y1042851D01*
X39025Y1044295D01*
X39350Y1045732D01*
X39709Y1047161D01*
X40103Y1048581D01*
X40531Y1049990D01*
X40993Y1051389D01*
X41488Y1052777D01*
X42017Y1054152D01*
X42579Y1055514D01*
X43174Y1056862D01*
X43801Y1058195D01*
X44460Y1059512D01*
X45151Y1060813D01*
X45874Y1062098D01*
X46627Y1063364D01*
X47410Y1064611D01*
X48223Y1065840D01*
X49066Y1067048D01*
X49938Y1068236D01*
X50838Y1069402D01*
X51767Y1070546D01*
X52722Y1071668D01*
X53705Y1072765D01*
X54713Y1073839D01*
X55748Y1074888D01*
X56807Y1075912D01*
X57891Y1076910D01*
X58999Y1077881D01*
X60129Y1078826D01*
X61283Y1079742D01*
X62458Y1080631D01*
X63654Y1081491D01*
X64871Y1082321D01*
X66107Y1083122D01*
X67363Y1083893D01*
X68637Y1084634D01*
X69928Y1085343D01*
X71236Y1086021D01*
X72560Y1086667D01*
X73899Y1087281D01*
X75253Y1087862D01*
X76621Y1088410D01*
X78001Y1088925D01*
X79393Y1089407D01*
X80797Y1089855D01*
X82211Y1090269D01*
X83634Y1090648D01*
X85067Y1090993D01*
X86507Y1091303D01*
X87954Y1091578D01*
X89408Y1091819D01*
X38481Y1041400D02*
X27540Y965658D01*
X18439Y889674D01*
X11181Y813491D01*
X5771Y737154D01*
X2213Y660709D01*
X508Y584200D01*
X69850Y577723D02*
X70620Y577714D01*
X71390Y577685D01*
X72158Y577639D01*
X72926Y577573D01*
X73691Y577489D01*
X74454Y577386D01*
X75215Y577265D01*
X75972Y577125D01*
X76726Y576966D01*
X77475Y576790D01*
X78220Y576595D01*
X78961Y576382D01*
X79695Y576151D01*
X80424Y575903D01*
X81147Y575636D01*
X81863Y575353D01*
X82571Y575051D01*
X83273Y574733D01*
X83966Y574398D01*
X84651Y574046D01*
X85327Y573677D01*
X85994Y573292D01*
X86651Y572891D01*
X87299Y572474D01*
X87936Y572041D01*
X88562Y571593D01*
X89177Y571129D01*
X89781Y570651D01*
X90373Y570159D01*
X90953Y569652D01*
X91520Y569131D01*
X92074Y568597D01*
X92616Y568049D01*
X93143Y567488D01*
X93657Y566914D01*
X94157Y566328D01*
X94642Y565730D01*
X95113Y565121D01*
X95569Y564500D01*
X96009Y563868D01*
X96434Y563226D01*
X96843Y562574D01*
X97236Y561912D01*
X97613Y561240D01*
X97974Y560559D01*
X98317Y559870D01*
X98644Y559173D01*
X98954Y558468D01*
X99247Y557756D01*
X99522Y557036D01*
X99779Y556310D01*
X100019Y555579D01*
X100241Y554841D01*
X100445Y554099D01*
X100630Y553351D01*
X100798Y552599D01*
X100947Y551844D01*
X101078Y551085D01*
X101190Y550323D01*
X101283Y549559D01*
X101358Y548792D01*
X101414Y548024D01*
X101452Y547255D01*
X101471Y546485D01*
X101471Y545715D01*
X101452Y544945D01*
X101414Y544176D01*
X101358Y543408D01*
X101283Y542641D01*
X101190Y541877D01*
X101078Y541115D01*
X100947Y540356D01*
X100798Y539601D01*
X100630Y538849D01*
X100445Y538101D01*
X100241Y537359D01*
X100019Y536621D01*
X99779Y535890D01*
X99522Y535164D01*
X99247Y534444D01*
X98954Y533732D01*
X98644Y533027D01*
X98317Y532330D01*
X97974Y531641D01*
X97613Y530960D01*
X97236Y530289D01*
X96843Y529626D01*
X96434Y528974D01*
X96009Y528332D01*
X95569Y527700D01*
X95113Y527079D01*
X94642Y526470D01*
X94157Y525872D01*
X93657Y525286D01*
X93143Y524712D01*
X92616Y524151D01*
X92074Y523603D01*
X91520Y523069D01*
X90953Y522548D01*
X90373Y522041D01*
X89781Y521549D01*
X89177Y521071D01*
X88562Y520607D01*
X87936Y520159D01*
X87299Y519726D01*
X86651Y519309D01*
X85994Y518908D01*
X85327Y518523D01*
X84651Y518154D01*
X83966Y517802D01*
X83273Y517467D01*
X82571Y517149D01*
X81863Y516847D01*
X81147Y516564D01*
X80424Y516297D01*
X79695Y516049D01*
X78961Y515818D01*
X78220Y515605D01*
X77475Y515410D01*
X76726Y515234D01*
X75972Y515075D01*
X75215Y514935D01*
X74454Y514814D01*
X73691Y514711D01*
X72926Y514627D01*
X72158Y514561D01*
X71390Y514515D01*
X70620Y514486D01*
X69850Y514477D01*
X641350Y514477D02*
X710692Y514477D01*
X710692Y577723D02*
X641350Y577723D01*
X710692Y577723D02*
X710692Y584200D01*
X710692Y514477D02*
X707078Y428388D01*
X701518Y342404D01*
X694015Y256567D01*
X684573Y170921D01*
X673197Y85511D01*
X659892Y381D01*
X672718Y1041400D02*
X672538Y1042796D01*
X672324Y1044187D01*
X672075Y1045572D01*
X671793Y1046950D01*
X671477Y1048322D01*
X671128Y1049685D01*
X670745Y1051039D01*
X670329Y1052383D01*
X669880Y1053717D01*
X669399Y1055039D01*
X668886Y1056349D01*
X668340Y1057646D01*
X667763Y1058930D01*
X667154Y1060198D01*
X666515Y1061452D01*
X665845Y1062689D01*
X665145Y1063910D01*
X664415Y1065113D01*
X663656Y1066298D01*
X662868Y1067464D01*
X662052Y1068610D01*
X661208Y1069736D01*
X660337Y1070841D01*
X659439Y1071924D01*
X658514Y1072985D01*
X657564Y1074023D01*
X656588Y1075037D01*
X655588Y1076027D01*
X654564Y1076992D01*
X653517Y1077932D01*
X652447Y1078846D01*
X651355Y1079733D01*
X650241Y1080594D01*
X649107Y1081426D01*
X647953Y1082231D01*
X646779Y1083007D01*
X645586Y1083754D01*
X644376Y1084472D01*
X643148Y1085160D01*
X641904Y1085817D01*
X640644Y1086444D01*
X639370Y1087040D01*
X638080Y1087604D01*
X636778Y1088136D01*
X635463Y1088637D01*
X634136Y1089105D01*
X632798Y1089540D01*
X631449Y1089943D01*
X630091Y1090312D01*
X628725Y1090648D01*
X627351Y1090950D01*
X625969Y1091218D01*
X624582Y1091453D01*
X623189Y1091653D01*
X621792Y1091819D01*
X672719Y1041400D02*
X683660Y965658D01*
X692761Y889674D01*
X700019Y813491D01*
X705429Y737154D01*
X708987Y660709D01*
X710692Y584200D01*
X641350Y577723D02*
X640580Y577714D01*
X639810Y577685D01*
X639042Y577639D01*
X638274Y577573D01*
X637509Y577489D01*
X636746Y577386D01*
X635985Y577265D01*
X635228Y577125D01*
X634474Y576966D01*
X633725Y576790D01*
X632980Y576595D01*
X632239Y576382D01*
X631505Y576151D01*
X630776Y575903D01*
X630053Y575636D01*
X629337Y575353D01*
X628629Y575051D01*
X627927Y574733D01*
X627234Y574398D01*
X626549Y574046D01*
X625873Y573677D01*
X625206Y573292D01*
X624549Y572891D01*
X623901Y572474D01*
X623264Y572041D01*
X622638Y571593D01*
X622023Y571129D01*
X621419Y570651D01*
X620827Y570159D01*
X620247Y569652D01*
X619680Y569131D01*
X619126Y568597D01*
X618584Y568049D01*
X618057Y567488D01*
X617543Y566914D01*
X617043Y566328D01*
X616558Y565730D01*
X616087Y565121D01*
X615631Y564500D01*
X615191Y563868D01*
X614766Y563226D01*
X614357Y562574D01*
X613964Y561912D01*
X613587Y561240D01*
X613226Y560559D01*
X612883Y559870D01*
X612556Y559173D01*
X612246Y558468D01*
X611953Y557756D01*
X611678Y557036D01*
X611421Y556310D01*
X611181Y555579D01*
X610959Y554841D01*
X610755Y554099D01*
X610570Y553351D01*
X610402Y552599D01*
X610253Y551844D01*
X610122Y551085D01*
X610010Y550323D01*
X609917Y549559D01*
X609842Y548792D01*
X609786Y548024D01*
X609748Y547255D01*
X609729Y546485D01*
X609729Y545715D01*
X609748Y544945D01*
X609786Y544176D01*
X609842Y543408D01*
X609917Y542641D01*
X610010Y541877D01*
X610122Y541115D01*
X610253Y540356D01*
X610402Y539601D01*
X610570Y538849D01*
X610755Y538101D01*
X610959Y537359D01*
X611181Y536621D01*
X611421Y535890D01*
X611678Y535164D01*
X611953Y534444D01*
X612246Y533732D01*
X612556Y533027D01*
X612883Y532330D01*
X613226Y531641D01*
X613587Y530960D01*
X613964Y530288D01*
X614357Y529626D01*
X614766Y528974D01*
X615191Y528332D01*
X615631Y527700D01*
X616087Y527079D01*
X616558Y526470D01*
X617043Y525872D01*
X617543Y525286D01*
X618057Y524712D01*
X618584Y524151D01*
X619126Y523603D01*
X619680Y523069D01*
X620247Y522548D01*
X620827Y522041D01*
X621419Y521549D01*
X622023Y521071D01*
X622638Y520607D01*
X623264Y520159D01*
X623901Y519726D01*
X624549Y519309D01*
X625206Y518908D01*
X625873Y518523D01*
X626549Y518154D01*
X627234Y517802D01*
X627927Y517467D01*
X628629Y517149D01*
X629337Y516847D01*
X630053Y516564D01*
X630776Y516297D01*
X631505Y516049D01*
X632239Y515818D01*
X632980Y515605D01*
X633725Y515410D01*
X634474Y515234D01*
X635228Y515075D01*
X635985Y514935D01*
X636746Y514814D01*
X637509Y514711D01*
X638274Y514627D01*
X639042Y514561D01*
X639810Y514515D01*
X640580Y514486D01*
X641350Y514477D01*
D16*
X508Y514477D02*
X25174Y183017D01*
X51308Y381D01*
X659892Y381D01*
X700575Y330259D01*
X710692Y514477D01*
X641350Y514477D01*
X638594Y514597D01*
X635859Y514957D01*
X633165Y515555D01*
X630534Y516384D01*
X627986Y517440D01*
X625539Y518714D01*
X623212Y520196D01*
X621023Y521875D01*
X618989Y523739D01*
X617125Y525773D01*
X615446Y527962D01*
X613964Y530289D01*
X612690Y532736D01*
X611634Y535284D01*
X610805Y537915D01*
X610207Y540609D01*
X609847Y543344D01*
X609727Y546100D01*
X609847Y548856D01*
X610207Y551591D01*
X610805Y554285D01*
X611634Y556916D01*
X612690Y559464D01*
X613964Y561912D01*
X615446Y564238D01*
X617125Y566427D01*
X618989Y568461D01*
X621023Y570325D01*
X623212Y572004D01*
X625539Y573486D01*
X627986Y574760D01*
X630534Y575816D01*
X633165Y576645D01*
X635859Y577243D01*
X638594Y577603D01*
X641350Y577723D01*
X710692Y577723D01*
X710692Y584200D01*
X695880Y859286D01*
X672719Y1041400D01*
X671922Y1046343D01*
X670698Y1051198D01*
X669055Y1055928D01*
X667007Y1060496D01*
X664567Y1064869D01*
X661757Y1069012D01*
X658595Y1072894D01*
X655107Y1076487D01*
X651320Y1079761D01*
X647261Y1082693D01*
X642963Y1085260D01*
X638457Y1087443D01*
X633778Y1089225D01*
X628961Y1090592D01*
X624044Y1091534D01*
X621792Y1091819D01*
X89408Y1091819D01*
X84194Y1090788D01*
X79089Y1089306D01*
X74134Y1087384D01*
X69364Y1085038D01*
X64817Y1082286D01*
X60527Y1079147D01*
X56528Y1075647D01*
X52848Y1071811D01*
X49517Y1067670D01*
X46559Y1063253D01*
X43998Y1058596D01*
X41852Y1053733D01*
X40138Y1048702D01*
X38869Y1043540D01*
X38481Y1041400D01*
X7708Y767639D01*
X508Y584200D01*
X508Y577723D01*
X69850Y577723D01*
X72606Y577603D01*
X75341Y577243D01*
X78035Y576645D01*
X80666Y575816D01*
X83214Y574760D01*
X85662Y573486D01*
X87988Y572004D01*
X90177Y570325D01*
X92211Y568461D01*
X94075Y566427D01*
X95754Y564238D01*
X97236Y561912D01*
X98510Y559464D01*
X99566Y556916D01*
X100395Y554285D01*
X100993Y551591D01*
X101353Y548856D01*
X101473Y546100D01*
X101353Y543344D01*
X100993Y540609D01*
X100395Y537915D01*
X99566Y535284D01*
X98510Y532736D01*
X97236Y530289D01*
X95754Y527962D01*
X94075Y525773D01*
X92211Y523739D01*
X90177Y521875D01*
X87988Y520196D01*
X85662Y518714D01*
X83214Y517440D01*
X80666Y516384D01*
X78035Y515555D01*
X75341Y514957D01*
X72606Y514597D01*
X69850Y514477D01*
X508Y514477D01*
X101600Y431800D02*
X254000Y431800D01*
X254000Y660400D01*
X101600Y660400D01*
X101600Y431800D01*
X457200Y431800D02*
X609600Y431800D01*
X609600Y660400D01*
X457200Y660400D01*
X457200Y431800D01*
X329950Y48837D02*
X329894Y48415D01*
X329784Y48003D01*
X329621Y47609D01*
X329408Y47241D01*
X329149Y46903D01*
X328847Y46601D01*
X328509Y46342D01*
X328141Y46129D01*
X327747Y45966D01*
X327335Y45856D01*
X326913Y45800D01*
X326487Y45800D01*
X326065Y45856D01*
X325653Y45966D01*
X325259Y46129D01*
X324891Y46342D01*
X324553Y46601D01*
X324251Y46903D01*
X323992Y47241D01*
X323779Y47609D01*
X323616Y48003D01*
X323506Y48415D01*
X323450Y48837D01*
X323450Y49263D01*
X323506Y49685D01*
X323616Y50097D01*
X323779Y50491D01*
X323992Y50859D01*
X324251Y51197D01*
X324553Y51499D01*
X324891Y51758D01*
X325259Y51971D01*
X325653Y52134D01*
X326065Y52244D01*
X326487Y52300D01*
X326913Y52300D01*
X327335Y52244D01*
X327747Y52134D01*
X328141Y51971D01*
X328509Y51758D01*
X328847Y51499D01*
X329149Y51197D01*
X329408Y50859D01*
X329621Y50491D01*
X329784Y50097D01*
X329894Y49685D01*
X329950Y49263D01*
X329950Y48837D01*
X387750Y48837D02*
X387694Y48415D01*
X387584Y48003D01*
X387421Y47609D01*
X387208Y47241D01*
X386949Y46903D01*
X386647Y46601D01*
X386309Y46342D01*
X385941Y46129D01*
X385547Y45966D01*
X385135Y45856D01*
X384713Y45800D01*
X384287Y45800D01*
X383865Y45856D01*
X383453Y45966D01*
X383059Y46129D01*
X382691Y46342D01*
X382353Y46601D01*
X382051Y46903D01*
X381792Y47241D01*
X381579Y47609D01*
X381416Y48003D01*
X381306Y48415D01*
X381250Y48837D01*
X381250Y49263D01*
X381306Y49685D01*
X381416Y50097D01*
X381579Y50491D01*
X381792Y50859D01*
X382051Y51197D01*
X382353Y51499D01*
X382691Y51758D01*
X383059Y51971D01*
X383453Y52134D01*
X383865Y52244D01*
X384287Y52300D01*
X384713Y52300D01*
X385135Y52244D01*
X385547Y52134D01*
X385941Y51971D01*
X386309Y51758D01*
X386647Y51499D01*
X386949Y51197D01*
X387208Y50859D01*
X387421Y50491D01*
X387584Y50097D01*
X387694Y49685D01*
X387750Y49263D01*
X387750Y48837D01*
X71136Y312039D02*
X72181Y311970D01*
X73220Y311834D01*
X74248Y311629D01*
X75260Y311358D01*
X76252Y311021D01*
X77220Y310620D01*
X78159Y310157D01*
X79067Y309633D01*
X79938Y309051D01*
X80769Y308413D01*
X81557Y307723D01*
X82298Y306982D01*
X82988Y306194D01*
X83626Y305363D01*
X84208Y304492D01*
X84732Y303584D01*
X85195Y302645D01*
X85596Y301677D01*
X85933Y300685D01*
X86204Y299673D01*
X86409Y298645D01*
X86545Y297606D01*
X86614Y296561D01*
X86614Y295513D01*
X86545Y294468D01*
X86409Y293429D01*
X86204Y292401D01*
X85933Y291389D01*
X85596Y290397D01*
X85195Y289429D01*
X84732Y288490D01*
X84208Y287582D01*
X83626Y286711D01*
X82988Y285880D01*
X82298Y285092D01*
X81557Y284351D01*
X80769Y283661D01*
X79938Y283023D01*
X79067Y282441D01*
X78159Y281917D01*
X77220Y281454D01*
X76252Y281053D01*
X75260Y280716D01*
X74248Y280445D01*
X73220Y280240D01*
X72181Y280104D01*
X71136Y280035D01*
X70088Y280035D01*
X69043Y280104D01*
X68004Y280240D01*
X66976Y280445D01*
X65964Y280716D01*
X64972Y281053D01*
X64004Y281454D01*
X63065Y281917D01*
X62157Y282441D01*
X61286Y283023D01*
X60455Y283661D01*
X59667Y284351D01*
X58926Y285092D01*
X58236Y285880D01*
X57598Y286711D01*
X57016Y287582D01*
X56492Y288490D01*
X56029Y289429D01*
X55628Y290397D01*
X55291Y291389D01*
X55020Y292401D01*
X54815Y293429D01*
X54679Y294468D01*
X54610Y295513D01*
X54610Y296561D01*
X54679Y297606D01*
X54815Y298645D01*
X55020Y299673D01*
X55291Y300685D01*
X55628Y301677D01*
X56029Y302645D01*
X56492Y303584D01*
X57016Y304492D01*
X57598Y305363D01*
X58236Y306194D01*
X58926Y306982D01*
X59667Y307723D01*
X60455Y308413D01*
X61286Y309051D01*
X62157Y309633D01*
X63065Y310157D01*
X64004Y310620D01*
X64972Y311021D01*
X65964Y311358D01*
X66976Y311629D01*
X68004Y311834D01*
X69043Y311970D01*
X70088Y312039D01*
X71136Y312039D01*
X71136Y812165D02*
X72181Y812096D01*
X73220Y811960D01*
X74248Y811755D01*
X75260Y811484D01*
X76252Y811147D01*
X77220Y810746D01*
X78159Y810283D01*
X79067Y809759D01*
X79938Y809177D01*
X80769Y808539D01*
X81557Y807849D01*
X82298Y807108D01*
X82988Y806320D01*
X83626Y805489D01*
X84208Y804618D01*
X84732Y803710D01*
X85195Y802771D01*
X85596Y801803D01*
X85933Y800811D01*
X86204Y799799D01*
X86409Y798771D01*
X86545Y797732D01*
X86614Y796687D01*
X86614Y795639D01*
X86545Y794594D01*
X86409Y793555D01*
X86204Y792527D01*
X85933Y791515D01*
X85596Y790523D01*
X85195Y789555D01*
X84732Y788616D01*
X84208Y787708D01*
X83626Y786837D01*
X82988Y786006D01*
X82298Y785218D01*
X81557Y784477D01*
X80769Y783787D01*
X79938Y783149D01*
X79067Y782567D01*
X78159Y782043D01*
X77220Y781580D01*
X76252Y781179D01*
X75260Y780842D01*
X74248Y780571D01*
X73220Y780366D01*
X72181Y780230D01*
X71136Y780161D01*
X70088Y780161D01*
X69043Y780230D01*
X68004Y780366D01*
X66976Y780571D01*
X65964Y780842D01*
X64972Y781179D01*
X64004Y781580D01*
X63065Y782043D01*
X62157Y782567D01*
X61286Y783149D01*
X60455Y783787D01*
X59667Y784477D01*
X58926Y785218D01*
X58236Y786006D01*
X57598Y786837D01*
X57016Y787708D01*
X56492Y788616D01*
X56029Y789555D01*
X55628Y790523D01*
X55291Y791515D01*
X55020Y792527D01*
X54815Y793555D01*
X54679Y794594D01*
X54610Y795639D01*
X54610Y796687D01*
X54679Y797732D01*
X54815Y798771D01*
X55020Y799799D01*
X55291Y800811D01*
X55628Y801803D01*
X56029Y802771D01*
X56492Y803710D01*
X57016Y804618D01*
X57598Y805489D01*
X58236Y806320D01*
X58926Y807108D01*
X59667Y807849D01*
X60455Y808539D01*
X61286Y809177D01*
X62157Y809759D01*
X63065Y810283D01*
X64004Y810746D01*
X64972Y811147D01*
X65964Y811484D01*
X66976Y811755D01*
X68004Y811960D01*
X69043Y812096D01*
X70088Y812165D01*
X71136Y812165D01*
X641112Y812165D02*
X642157Y812096D01*
X643196Y811960D01*
X644224Y811755D01*
X645236Y811484D01*
X646228Y811147D01*
X647196Y810746D01*
X648135Y810283D01*
X649043Y809759D01*
X649914Y809177D01*
X650745Y808539D01*
X651533Y807849D01*
X652274Y807108D01*
X652964Y806320D01*
X653602Y805489D01*
X654184Y804618D01*
X654708Y803710D01*
X655171Y802771D01*
X655572Y801803D01*
X655909Y800811D01*
X656180Y799799D01*
X656385Y798771D01*
X656521Y797732D01*
X656590Y796687D01*
X656590Y795639D01*
X656521Y794594D01*
X656385Y793555D01*
X656180Y792527D01*
X655909Y791515D01*
X655572Y790523D01*
X655171Y789555D01*
X654708Y788616D01*
X654184Y787708D01*
X653602Y786837D01*
X652964Y786006D01*
X652274Y785218D01*
X651533Y784477D01*
X650745Y783787D01*
X649914Y783149D01*
X649043Y782567D01*
X648135Y782043D01*
X647196Y781580D01*
X646228Y781179D01*
X645236Y780842D01*
X644224Y780571D01*
X643196Y780366D01*
X642157Y780230D01*
X641112Y780161D01*
X640064Y780161D01*
X639019Y780230D01*
X637980Y780366D01*
X636952Y780571D01*
X635940Y780842D01*
X634948Y781179D01*
X633980Y781580D01*
X633041Y782043D01*
X632133Y782567D01*
X631262Y783149D01*
X630431Y783787D01*
X629643Y784477D01*
X628902Y785218D01*
X628212Y786006D01*
X627574Y786837D01*
X626992Y787708D01*
X626468Y788616D01*
X626005Y789555D01*
X625604Y790523D01*
X625267Y791515D01*
X624996Y792527D01*
X624791Y793555D01*
X624655Y794594D01*
X624586Y795639D01*
X624586Y796687D01*
X624655Y797732D01*
X624791Y798771D01*
X624996Y799799D01*
X625267Y800811D01*
X625604Y801803D01*
X626005Y802771D01*
X626468Y803710D01*
X626992Y804618D01*
X627574Y805489D01*
X628212Y806320D01*
X628902Y807108D01*
X629643Y807849D01*
X630431Y808539D01*
X631262Y809177D01*
X632133Y809759D01*
X633041Y810283D01*
X633980Y810746D01*
X634948Y811147D01*
X635940Y811484D01*
X636952Y811755D01*
X637980Y811960D01*
X639019Y812096D01*
X640064Y812165D01*
X641112Y812165D01*
X641112Y312039D02*
X642157Y311970D01*
X643196Y311834D01*
X644224Y311629D01*
X645236Y311358D01*
X646228Y311021D01*
X647196Y310620D01*
X648135Y310157D01*
X649043Y309633D01*
X649914Y309051D01*
X650745Y308413D01*
X651533Y307723D01*
X652274Y306982D01*
X652964Y306194D01*
X653602Y305363D01*
X654184Y304492D01*
X654708Y303584D01*
X655171Y302645D01*
X655572Y301677D01*
X655909Y300685D01*
X656180Y299673D01*
X656385Y298645D01*
X656521Y297606D01*
X656590Y296561D01*
X656590Y295513D01*
X656521Y294468D01*
X656385Y293429D01*
X656180Y292401D01*
X655909Y291389D01*
X655572Y290397D01*
X655171Y289429D01*
X654708Y288490D01*
X654184Y287582D01*
X653602Y286711D01*
X652964Y285880D01*
X652274Y285092D01*
X651533Y284351D01*
X650745Y283661D01*
X649914Y283023D01*
X649043Y282441D01*
X648135Y281917D01*
X647196Y281454D01*
X646228Y281053D01*
X645236Y280716D01*
X644224Y280445D01*
X643196Y280240D01*
X642157Y280104D01*
X641112Y280035D01*
X640064Y280035D01*
X639019Y280104D01*
X637980Y280240D01*
X636952Y280445D01*
X635940Y280716D01*
X634948Y281053D01*
X633980Y281454D01*
X633041Y281917D01*
X632133Y282441D01*
X631262Y283023D01*
X630431Y283661D01*
X629643Y284351D01*
X628902Y285092D01*
X628212Y285880D01*
X627574Y286711D01*
X626992Y287582D01*
X626468Y288490D01*
X626005Y289429D01*
X625604Y290397D01*
X625267Y291389D01*
X624996Y292401D01*
X624791Y293429D01*
X624655Y294468D01*
X624586Y295513D01*
X624586Y296561D01*
X624655Y297606D01*
X624791Y298645D01*
X624996Y299673D01*
X625267Y300685D01*
X625604Y301677D01*
X626005Y302645D01*
X626468Y303584D01*
X626992Y304492D01*
X627574Y305363D01*
X628212Y306194D01*
X628902Y306982D01*
X629643Y307723D01*
X630431Y308413D01*
X631262Y309051D01*
X632133Y309633D01*
X633041Y310157D01*
X633980Y310620D01*
X634948Y311021D01*
X635940Y311358D01*
X636952Y311629D01*
X637980Y311834D01*
X639019Y311970D01*
X640064Y312039D01*
X641112Y312039D01*
M02*
