G04 EAGLE Gerber RS-274X export*
G75*
%MOMM*%
%FSLAX34Y34*%
%LPD*%
%INSolderpaste Top*%
%IPPOS*%
%AMOC8*
5,1,8,0,0,1.08239X$1,22.5*%
G01*
%ADD10R,1.200000X2.000000*%
%ADD11R,0.600000X1.350000*%
%ADD12R,1.100000X1.000000*%
%ADD13R,4.200000X1.700000*%
%ADD14C,0.300000*%
%ADD15R,0.630000X0.830000*%
%ADD16R,1.000000X1.100000*%
%ADD17R,1.200000X0.550000*%
%ADD18R,0.900000X0.850000*%
%ADD19R,0.600000X0.600000*%
%ADD20R,0.850000X1.520000*%
%ADD21R,1.520000X0.850000*%
%ADD22R,0.900000X0.900000*%
%ADD23R,0.300000X1.000000*%
%ADD24R,0.600000X1.000000*%
%ADD25R,0.250000X0.610000*%
%ADD26R,0.250000X0.560000*%
%ADD27R,1.150000X7.000000*%
%ADD28R,0.900000X2.200000*%
%ADD29R,0.550000X0.800000*%
%ADD30R,0.550000X0.500000*%
%ADD31R,1.000000X4.600000*%
%ADD32R,1.600000X3.400000*%
%ADD33R,4.600000X1.000000*%
%ADD34R,3.400000X1.600000*%
%ADD35R,1.150000X1.000000*%
%ADD36R,0.762000X1.524000*%
%ADD37R,0.600000X1.700000*%
%ADD38R,1.000000X2.700000*%

G36*
X251242Y468263D02*
X251242Y468263D01*
X251286Y468266D01*
X251308Y468282D01*
X251334Y468290D01*
X251363Y468323D01*
X251398Y468349D01*
X251408Y468375D01*
X251426Y468395D01*
X251433Y468439D01*
X251448Y468479D01*
X251443Y468506D01*
X251447Y468533D01*
X251429Y468574D01*
X251420Y468616D01*
X251394Y468652D01*
X251390Y468661D01*
X251385Y468665D01*
X251376Y468676D01*
X227376Y492676D01*
X227338Y492697D01*
X227305Y492726D01*
X227278Y492730D01*
X227254Y492743D01*
X227210Y492740D01*
X227167Y492747D01*
X227142Y492736D01*
X227114Y492734D01*
X227079Y492708D01*
X227039Y492690D01*
X227024Y492667D01*
X227002Y492651D01*
X226986Y492610D01*
X226962Y492574D01*
X226955Y492530D01*
X226952Y492521D01*
X226953Y492514D01*
X226951Y492500D01*
X226951Y468500D01*
X226956Y468484D01*
X226953Y468467D01*
X226975Y468417D01*
X226990Y468366D01*
X227003Y468355D01*
X227010Y468339D01*
X227055Y468309D01*
X227095Y468274D01*
X227112Y468271D01*
X227127Y468262D01*
X227200Y468251D01*
X251200Y468251D01*
X251242Y468263D01*
G37*
G36*
X297000Y45221D02*
X297000Y45221D01*
X297001Y45221D01*
X298069Y45240D01*
X298076Y45245D01*
X298080Y45241D01*
X299117Y45497D01*
X299122Y45504D01*
X299128Y45501D01*
X300082Y45982D01*
X300086Y45989D01*
X300091Y45988D01*
X300915Y46669D01*
X300916Y46677D01*
X300922Y46677D01*
X301573Y47524D01*
X301573Y47532D01*
X301579Y47533D01*
X302026Y48504D01*
X302024Y48512D01*
X302029Y48514D01*
X302248Y49560D01*
X302245Y49567D01*
X302249Y49570D01*
X302249Y61570D01*
X302246Y61575D01*
X302249Y61578D01*
X302069Y62673D01*
X302063Y62679D01*
X302066Y62684D01*
X301647Y63712D01*
X301640Y63716D01*
X301642Y63721D01*
X301005Y64630D01*
X300997Y64633D01*
X300997Y64638D01*
X300174Y65382D01*
X300166Y65383D01*
X300165Y65389D01*
X299197Y65931D01*
X299188Y65930D01*
X299186Y65936D01*
X298122Y66249D01*
X298117Y66247D01*
X298113Y66247D01*
X298111Y66251D01*
X297003Y66319D01*
X296997Y66315D01*
X296993Y66319D01*
X295885Y66149D01*
X295879Y66143D01*
X295874Y66146D01*
X294832Y65734D01*
X294828Y65727D01*
X294823Y65729D01*
X293898Y65095D01*
X293896Y65087D01*
X293890Y65088D01*
X293130Y64265D01*
X293129Y64256D01*
X293123Y64256D01*
X292566Y63284D01*
X292567Y63276D01*
X292561Y63274D01*
X292234Y62202D01*
X292237Y62194D01*
X292232Y62191D01*
X292151Y61074D01*
X292152Y61071D01*
X292151Y61070D01*
X292151Y49070D01*
X292156Y49063D01*
X292152Y49059D01*
X292371Y48115D01*
X292377Y48109D01*
X292375Y48104D01*
X292799Y47232D01*
X292806Y47229D01*
X292804Y47223D01*
X293411Y46467D01*
X293419Y46465D01*
X293419Y46459D01*
X294179Y45858D01*
X294188Y45858D01*
X294189Y45852D01*
X295064Y45434D01*
X295072Y45436D01*
X295074Y45431D01*
X296020Y45219D01*
X296027Y45222D01*
X296031Y45217D01*
X297000Y45221D01*
G37*
G36*
X211581Y45230D02*
X211581Y45230D01*
X211588Y45235D01*
X211592Y45231D01*
X212644Y45481D01*
X212649Y45487D01*
X212654Y45484D01*
X213624Y45961D01*
X213627Y45969D01*
X213633Y45967D01*
X214472Y46648D01*
X214474Y46656D01*
X214480Y46656D01*
X215146Y47507D01*
X215147Y47515D01*
X215152Y47516D01*
X215613Y48493D01*
X215611Y48501D01*
X215617Y48504D01*
X215848Y49559D01*
X215845Y49567D01*
X215849Y49570D01*
X215849Y61570D01*
X215845Y61575D01*
X215849Y61578D01*
X215656Y62684D01*
X215650Y62689D01*
X215653Y62694D01*
X215220Y63729D01*
X215213Y63733D01*
X215215Y63738D01*
X214562Y64651D01*
X214554Y64653D01*
X214555Y64659D01*
X213716Y65403D01*
X213707Y65404D01*
X213707Y65409D01*
X212723Y65948D01*
X212715Y65947D01*
X212713Y65952D01*
X211634Y66259D01*
X211626Y66256D01*
X211623Y66261D01*
X210503Y66319D01*
X210498Y66316D01*
X210495Y66319D01*
X209449Y66201D01*
X209443Y66195D01*
X209438Y66199D01*
X208444Y65851D01*
X208440Y65844D01*
X208435Y65846D01*
X207543Y65286D01*
X207541Y65279D01*
X207535Y65279D01*
X206791Y64535D01*
X206789Y64527D01*
X206784Y64527D01*
X206224Y63635D01*
X206224Y63627D01*
X206219Y63626D01*
X205871Y62632D01*
X205874Y62624D01*
X205869Y62621D01*
X205751Y61576D01*
X205753Y61572D01*
X205751Y61570D01*
X205751Y49570D01*
X205754Y49565D01*
X205751Y49562D01*
X205909Y48566D01*
X205915Y48560D01*
X205912Y48555D01*
X206287Y47619D01*
X206294Y47615D01*
X206292Y47609D01*
X206866Y46780D01*
X206874Y46777D01*
X206873Y46772D01*
X207617Y46091D01*
X207626Y46090D01*
X207626Y46084D01*
X208503Y45586D01*
X208512Y45587D01*
X208514Y45582D01*
X209479Y45291D01*
X209487Y45294D01*
X209490Y45289D01*
X210497Y45221D01*
X210499Y45222D01*
X210500Y45221D01*
X211581Y45230D01*
G37*
G36*
X297504Y5725D02*
X297504Y5725D01*
X297507Y5721D01*
X298583Y5876D01*
X298588Y5882D01*
X298593Y5879D01*
X299607Y6269D01*
X299611Y6276D01*
X299617Y6275D01*
X300519Y6881D01*
X300521Y6889D01*
X300527Y6888D01*
X301271Y7680D01*
X301272Y7688D01*
X301278Y7688D01*
X301827Y8626D01*
X301826Y8634D01*
X301832Y8636D01*
X302159Y9672D01*
X302156Y9680D01*
X302161Y9683D01*
X302249Y10766D01*
X302247Y10769D01*
X302249Y10770D01*
X302249Y16770D01*
X302246Y16774D01*
X302249Y16776D01*
X302099Y17909D01*
X302093Y17915D01*
X302096Y17920D01*
X301698Y18990D01*
X301691Y18994D01*
X301693Y19000D01*
X301066Y19955D01*
X301058Y19958D01*
X301059Y19963D01*
X300236Y20755D01*
X300228Y20756D01*
X300227Y20762D01*
X299248Y21351D01*
X299240Y21350D01*
X299238Y21355D01*
X298153Y21711D01*
X298145Y21709D01*
X298142Y21713D01*
X297005Y21819D01*
X296996Y21814D01*
X296991Y21818D01*
X295854Y21611D01*
X295848Y21605D01*
X295843Y21608D01*
X294781Y21153D01*
X294777Y21146D01*
X294771Y21148D01*
X293836Y20468D01*
X293834Y20460D01*
X293828Y20461D01*
X293068Y19590D01*
X293068Y19582D01*
X293062Y19581D01*
X292515Y18562D01*
X292516Y18554D01*
X292511Y18552D01*
X292507Y18539D01*
X292494Y18490D01*
X292493Y18490D01*
X292494Y18490D01*
X292480Y18441D01*
X292466Y18391D01*
X292453Y18342D01*
X292439Y18293D01*
X292426Y18244D01*
X292412Y18194D01*
X292399Y18145D01*
X292385Y18096D01*
X292371Y18047D01*
X292358Y17997D01*
X292344Y17948D01*
X292331Y17899D01*
X292317Y17850D01*
X292304Y17800D01*
X292290Y17751D01*
X292277Y17702D01*
X292276Y17702D01*
X292263Y17653D01*
X292249Y17603D01*
X292204Y17438D01*
X292207Y17430D01*
X292202Y17427D01*
X292151Y16272D01*
X292152Y16271D01*
X292151Y16270D01*
X292151Y10270D01*
X292155Y10264D01*
X292152Y10261D01*
X292364Y9180D01*
X292370Y9175D01*
X292367Y9170D01*
X292814Y8164D01*
X292821Y8160D01*
X292819Y8154D01*
X293479Y7273D01*
X293487Y7270D01*
X293487Y7265D01*
X294326Y6552D01*
X294334Y6552D01*
X294335Y6546D01*
X295312Y6038D01*
X295320Y6039D01*
X295322Y6034D01*
X296387Y5756D01*
X296395Y5759D01*
X296398Y5755D01*
X297499Y5721D01*
X297504Y5725D01*
G37*
G36*
X211002Y5725D02*
X211002Y5725D01*
X211007Y5721D01*
X212094Y5866D01*
X212100Y5872D01*
X212105Y5869D01*
X213133Y6253D01*
X213138Y6259D01*
X213143Y6258D01*
X214060Y6860D01*
X214063Y6868D01*
X214069Y6867D01*
X214829Y7659D01*
X214830Y7667D01*
X214836Y7668D01*
X215400Y8609D01*
X215400Y8612D01*
X215401Y8613D01*
X215400Y8615D01*
X215399Y8617D01*
X215405Y8619D01*
X215746Y9662D01*
X215744Y9670D01*
X215748Y9673D01*
X215849Y10766D01*
X215847Y10768D01*
X215849Y10770D01*
X215849Y16770D01*
X215847Y16773D01*
X215849Y16775D01*
X215748Y17867D01*
X215743Y17873D01*
X215746Y17878D01*
X215405Y18921D01*
X215398Y18926D01*
X215400Y18931D01*
X214836Y19872D01*
X214828Y19875D01*
X214829Y19881D01*
X214069Y20673D01*
X214061Y20674D01*
X214060Y20680D01*
X213143Y21283D01*
X213135Y21282D01*
X213133Y21288D01*
X212105Y21671D01*
X212097Y21669D01*
X212094Y21674D01*
X211007Y21819D01*
X210999Y21815D01*
X210995Y21819D01*
X209858Y21713D01*
X209852Y21708D01*
X209847Y21711D01*
X208762Y21355D01*
X208757Y21348D01*
X208752Y21351D01*
X207773Y20762D01*
X207770Y20754D01*
X207764Y20755D01*
X206941Y19963D01*
X206940Y19955D01*
X206934Y19955D01*
X206307Y19000D01*
X206308Y18992D01*
X206302Y18990D01*
X205904Y17920D01*
X205906Y17912D01*
X205901Y17909D01*
X205751Y16776D01*
X205754Y16772D01*
X205751Y16770D01*
X205751Y10770D01*
X205754Y10766D01*
X205751Y10764D01*
X205901Y9631D01*
X205907Y9625D01*
X205904Y9620D01*
X206302Y8550D01*
X206309Y8546D01*
X206307Y8540D01*
X206934Y7585D01*
X206942Y7582D01*
X206941Y7577D01*
X207764Y6785D01*
X207772Y6784D01*
X207773Y6778D01*
X208752Y6189D01*
X208760Y6190D01*
X208762Y6185D01*
X209847Y5829D01*
X209855Y5832D01*
X209858Y5827D01*
X210995Y5721D01*
X211002Y5725D01*
G37*
D10*
X340300Y12780D03*
X396300Y12780D03*
D11*
X353300Y49530D03*
X363300Y49530D03*
X373300Y49530D03*
X383300Y49530D03*
D12*
X220100Y444500D03*
X237100Y444500D03*
D13*
X248000Y513800D03*
D14*
X183070Y542600D02*
X183070Y549600D01*
X190070Y549600D01*
X190070Y542600D01*
X183070Y542600D01*
X183070Y545450D02*
X190070Y545450D01*
X190070Y548300D02*
X183070Y548300D01*
X165530Y549600D02*
X165530Y542600D01*
X165530Y549600D02*
X172530Y549600D01*
X172530Y542600D01*
X165530Y542600D01*
X165530Y545450D02*
X172530Y545450D01*
X172530Y548300D02*
X165530Y548300D01*
D15*
X255200Y444500D03*
X278200Y444500D03*
D12*
X220100Y419100D03*
X237100Y419100D03*
X169300Y558800D03*
X186300Y558800D03*
D16*
X279400Y385200D03*
X279400Y402200D03*
X254000Y402200D03*
X254000Y385200D03*
D14*
X437070Y396550D02*
X437070Y403550D01*
X444070Y403550D01*
X444070Y396550D01*
X437070Y396550D01*
X437070Y399400D02*
X444070Y399400D01*
X444070Y402250D02*
X437070Y402250D01*
X419530Y403550D02*
X419530Y396550D01*
X419530Y403550D02*
X426530Y403550D01*
X426530Y396550D01*
X419530Y396550D01*
X419530Y399400D02*
X426530Y399400D01*
X426530Y402250D02*
X419530Y402250D01*
D12*
X423300Y412750D03*
X440300Y412750D03*
D17*
X355901Y384200D03*
X355901Y393700D03*
X355901Y403200D03*
X329899Y403200D03*
X329899Y384200D03*
D16*
X381000Y385200D03*
X381000Y402200D03*
X177800Y402200D03*
X177800Y385200D03*
X203200Y402200D03*
X203200Y385200D03*
D14*
X183070Y466400D02*
X183070Y473400D01*
X190070Y473400D01*
X190070Y466400D01*
X183070Y466400D01*
X183070Y469250D02*
X190070Y469250D01*
X190070Y472100D02*
X183070Y472100D01*
X165530Y473400D02*
X165530Y466400D01*
X165530Y473400D02*
X172530Y473400D01*
X172530Y466400D01*
X165530Y466400D01*
X165530Y469250D02*
X172530Y469250D01*
X172530Y472100D02*
X165530Y472100D01*
D12*
X169300Y482600D03*
X186300Y482600D03*
D18*
X215900Y181060D03*
X215900Y169460D03*
D12*
X234070Y181610D03*
X251070Y181610D03*
D16*
X228600Y402200D03*
X228600Y385200D03*
D19*
X194390Y181610D03*
X204390Y181610D03*
D20*
X182500Y204900D03*
X193500Y204900D03*
X204500Y204900D03*
X215500Y204900D03*
X226500Y204900D03*
X237500Y204900D03*
X248500Y204900D03*
X259500Y204900D03*
X270500Y204900D03*
X281500Y204900D03*
X292500Y204900D03*
X303500Y204900D03*
X314500Y204900D03*
X325500Y204900D03*
D21*
X353500Y213400D03*
X353500Y224400D03*
X353500Y235400D03*
X353500Y246400D03*
X353500Y257400D03*
X353500Y268400D03*
X353500Y279400D03*
X353500Y290400D03*
X353500Y301400D03*
X353500Y312400D03*
X353500Y323400D03*
X353500Y334400D03*
X353500Y345400D03*
D20*
X325500Y353900D03*
X314500Y353900D03*
X303500Y353900D03*
X292500Y353900D03*
X281500Y353900D03*
X270500Y353900D03*
X259500Y353900D03*
X248500Y353900D03*
X237500Y353900D03*
X226500Y353900D03*
X215500Y353900D03*
X204500Y353900D03*
X193500Y353900D03*
X182500Y353900D03*
D21*
X154500Y345400D03*
X154500Y334400D03*
X154500Y323400D03*
X154500Y312400D03*
X154500Y301400D03*
X154500Y290400D03*
X154500Y279400D03*
X154500Y268400D03*
X154500Y257400D03*
X154500Y246400D03*
X154500Y235400D03*
X154500Y224400D03*
X154500Y213400D03*
D22*
X243500Y289900D03*
X222500Y289900D03*
X201500Y289900D03*
X180500Y289900D03*
X243500Y310400D03*
X222500Y310400D03*
X201500Y310400D03*
X180500Y310400D03*
X243500Y330900D03*
X222500Y330900D03*
X201500Y330900D03*
X180500Y330900D03*
X243500Y227900D03*
X222500Y227900D03*
X201500Y227900D03*
X180500Y227900D03*
X243500Y248400D03*
X222500Y248400D03*
X201500Y248400D03*
X180500Y248400D03*
X243500Y268900D03*
X222500Y268900D03*
X201500Y268900D03*
X180500Y268900D03*
X327500Y289900D03*
X306500Y289900D03*
X285500Y289900D03*
X264500Y289900D03*
X327500Y310400D03*
X306500Y310400D03*
X285500Y310400D03*
X264500Y310400D03*
X327500Y330900D03*
X306500Y330900D03*
X285500Y330900D03*
X264500Y330900D03*
X327500Y227900D03*
X306500Y227900D03*
X285500Y227900D03*
X264500Y227900D03*
X327500Y248400D03*
X306500Y248400D03*
X285500Y248400D03*
X264500Y248400D03*
X327500Y268900D03*
X306500Y268900D03*
X285500Y268900D03*
X264500Y268900D03*
D12*
X313300Y101600D03*
X296300Y101600D03*
X194700Y101600D03*
X211700Y101600D03*
D23*
X261500Y61370D03*
X256500Y61370D03*
D24*
X286250Y61370D03*
X278500Y61370D03*
D23*
X271500Y61370D03*
X266500Y61370D03*
X246500Y61370D03*
X251500Y61370D03*
D24*
X221750Y61370D03*
X229500Y61370D03*
D23*
X236500Y61370D03*
X241500Y61370D03*
D16*
X304800Y385200D03*
X304800Y402200D03*
D12*
X258200Y419100D03*
X275200Y419100D03*
D25*
X236300Y148350D03*
D26*
X241300Y148100D03*
X246300Y148100D03*
X246300Y156700D03*
X241300Y156700D03*
X236300Y156700D03*
D27*
X181100Y38810D03*
D28*
X139700Y84810D03*
D27*
X98300Y38810D03*
D29*
X133200Y305500D03*
D30*
X133200Y313500D03*
X133200Y321500D03*
D29*
X133200Y329500D03*
X120200Y329500D03*
D30*
X120200Y321500D03*
X120200Y313500D03*
D29*
X120200Y305500D03*
X133200Y242000D03*
D30*
X133200Y250000D03*
X133200Y258000D03*
D29*
X133200Y266000D03*
X120200Y266000D03*
D30*
X120200Y258000D03*
X120200Y250000D03*
D29*
X120200Y242000D03*
D16*
X127000Y347100D03*
X127000Y364100D03*
D12*
X84700Y381000D03*
X67700Y381000D03*
D14*
X81470Y390200D02*
X81470Y397200D01*
X88470Y397200D01*
X88470Y390200D01*
X81470Y390200D01*
X81470Y393050D02*
X88470Y393050D01*
X88470Y395900D02*
X81470Y395900D01*
X63930Y397200D02*
X63930Y390200D01*
X63930Y397200D02*
X70930Y397200D01*
X70930Y390200D01*
X63930Y390200D01*
X63930Y393050D02*
X70930Y393050D01*
X70930Y395900D02*
X63930Y395900D01*
D31*
X561180Y481500D03*
X541180Y481500D03*
D32*
X585180Y429500D03*
X517180Y429500D03*
D14*
X437070Y390850D02*
X437070Y383850D01*
X437070Y390850D02*
X444070Y390850D01*
X444070Y383850D01*
X437070Y383850D01*
X437070Y386700D02*
X444070Y386700D01*
X444070Y389550D02*
X437070Y389550D01*
X419530Y390850D02*
X419530Y383850D01*
X419530Y390850D02*
X426530Y390850D01*
X426530Y383850D01*
X419530Y383850D01*
X419530Y386700D02*
X426530Y386700D01*
X426530Y389550D02*
X419530Y389550D01*
D12*
X423300Y374650D03*
X440300Y374650D03*
D33*
X75100Y1031400D03*
X75100Y1051400D03*
D34*
X23100Y1007400D03*
X23100Y1075400D03*
D12*
X326000Y635000D03*
X309000Y635000D03*
D14*
X322770Y625800D02*
X322770Y618800D01*
X322770Y625800D02*
X329770Y625800D01*
X329770Y618800D01*
X322770Y618800D01*
X322770Y621650D02*
X329770Y621650D01*
X329770Y624500D02*
X322770Y624500D01*
X305230Y625800D02*
X305230Y618800D01*
X305230Y625800D02*
X312230Y625800D01*
X312230Y618800D01*
X305230Y618800D01*
X305230Y621650D02*
X312230Y621650D01*
X312230Y624500D02*
X305230Y624500D01*
D12*
X326000Y558800D03*
X309000Y558800D03*
D14*
X322770Y549600D02*
X322770Y542600D01*
X322770Y549600D02*
X329770Y549600D01*
X329770Y542600D01*
X322770Y542600D01*
X322770Y545450D02*
X329770Y545450D01*
X329770Y548300D02*
X322770Y548300D01*
X305230Y549600D02*
X305230Y542600D01*
X305230Y549600D02*
X312230Y549600D01*
X312230Y542600D01*
X305230Y542600D01*
X305230Y545450D02*
X312230Y545450D01*
X312230Y548300D02*
X305230Y548300D01*
D12*
X326000Y482600D03*
X309000Y482600D03*
D14*
X322770Y473400D02*
X322770Y466400D01*
X322770Y473400D02*
X329770Y473400D01*
X329770Y466400D01*
X322770Y466400D01*
X322770Y469250D02*
X329770Y469250D01*
X329770Y472100D02*
X322770Y472100D01*
X305230Y473400D02*
X305230Y466400D01*
X305230Y473400D02*
X312230Y473400D01*
X312230Y466400D01*
X305230Y466400D01*
X305230Y469250D02*
X312230Y469250D01*
X312230Y472100D02*
X305230Y472100D01*
D31*
X-34450Y481500D03*
X-54450Y481500D03*
D32*
X-10450Y429500D03*
X-78450Y429500D03*
D35*
X66350Y178200D03*
X66350Y203200D03*
X66350Y228200D03*
X9850Y178200D03*
X9850Y203200D03*
X9850Y228200D03*
X66350Y305200D03*
X66350Y330200D03*
X66350Y355200D03*
X9850Y305200D03*
X9850Y330200D03*
X9850Y355200D03*
D36*
X552450Y1005840D03*
X552450Y949960D03*
X514350Y1005840D03*
X514350Y949960D03*
X552450Y891540D03*
X552450Y835660D03*
X514350Y891540D03*
X514350Y835660D03*
D37*
X6650Y48240D03*
D38*
X62650Y16240D03*
X-11850Y16240D03*
D37*
X19150Y48240D03*
X31650Y48240D03*
X44150Y48240D03*
X463850Y48240D03*
D38*
X519850Y16240D03*
X445350Y16240D03*
D37*
X476350Y48240D03*
X488850Y48240D03*
X501350Y48240D03*
D12*
X186300Y635000D03*
X169300Y635000D03*
D14*
X183070Y625800D02*
X183070Y618800D01*
X183070Y625800D02*
X190070Y625800D01*
X190070Y618800D01*
X183070Y618800D01*
X183070Y621650D02*
X190070Y621650D01*
X190070Y624500D02*
X183070Y624500D01*
X165530Y625800D02*
X165530Y618800D01*
X165530Y625800D02*
X172530Y625800D01*
X172530Y618800D01*
X165530Y618800D01*
X165530Y621650D02*
X172530Y621650D01*
X172530Y624500D02*
X165530Y624500D01*
D29*
X412600Y280100D03*
D30*
X412600Y288100D03*
X412600Y296100D03*
D29*
X412600Y304100D03*
X399600Y304100D03*
D30*
X399600Y296100D03*
X399600Y288100D03*
D29*
X399600Y280100D03*
M02*
