G04 EAGLE Gerber RS-274X export*
G75*
%MOMM*%
%FSLAX34Y34*%
%LPD*%
%INBottom Copper*%
%IPPOS*%
%AMOC8*
5,1,8,0,0,1.08239X$1,22.5*%
G01*
%ADD10C,0.635000*%
%ADD11C,0.704800*%
%ADD12C,1.879600*%
%ADD13R,1.524000X0.762000*%

G36*
X453156Y431042D02*
X453156Y431042D01*
X453175Y431040D01*
X453277Y431062D01*
X453379Y431079D01*
X453396Y431088D01*
X453416Y431092D01*
X453505Y431145D01*
X453596Y431194D01*
X453610Y431208D01*
X453627Y431218D01*
X453694Y431297D01*
X453766Y431372D01*
X453774Y431390D01*
X453787Y431405D01*
X453826Y431501D01*
X453869Y431595D01*
X453871Y431615D01*
X453879Y431633D01*
X453897Y431800D01*
X453897Y661768D01*
X455832Y663703D01*
X457200Y663703D01*
X457220Y663706D01*
X457239Y663704D01*
X457341Y663726D01*
X457443Y663742D01*
X457460Y663752D01*
X457480Y663756D01*
X457569Y663809D01*
X457660Y663858D01*
X457674Y663872D01*
X457691Y663882D01*
X457758Y663961D01*
X457830Y664036D01*
X457838Y664054D01*
X457851Y664069D01*
X457890Y664165D01*
X457933Y664259D01*
X457935Y664279D01*
X457943Y664297D01*
X457961Y664464D01*
X457961Y681300D01*
X457958Y681320D01*
X457960Y681339D01*
X457938Y681441D01*
X457922Y681543D01*
X457912Y681560D01*
X457908Y681580D01*
X457855Y681669D01*
X457806Y681760D01*
X457792Y681774D01*
X457782Y681791D01*
X457703Y681858D01*
X457628Y681930D01*
X457610Y681938D01*
X457595Y681951D01*
X457499Y681990D01*
X457405Y682033D01*
X457385Y682035D01*
X457367Y682043D01*
X457200Y682061D01*
X258500Y682061D01*
X258480Y682058D01*
X258461Y682060D01*
X258359Y682038D01*
X258257Y682022D01*
X258240Y682012D01*
X258220Y682008D01*
X258131Y681955D01*
X258040Y681906D01*
X258026Y681892D01*
X258009Y681882D01*
X257942Y681803D01*
X257871Y681728D01*
X257862Y681710D01*
X257849Y681695D01*
X257810Y681599D01*
X257767Y681505D01*
X257765Y681485D01*
X257757Y681467D01*
X257739Y681300D01*
X257739Y431800D01*
X257742Y431780D01*
X257740Y431761D01*
X257762Y431659D01*
X257779Y431557D01*
X257788Y431540D01*
X257792Y431520D01*
X257845Y431431D01*
X257894Y431340D01*
X257908Y431326D01*
X257918Y431309D01*
X257997Y431242D01*
X258072Y431171D01*
X258090Y431162D01*
X258105Y431149D01*
X258201Y431110D01*
X258295Y431067D01*
X258315Y431065D01*
X258333Y431057D01*
X258500Y431039D01*
X453136Y431039D01*
X453156Y431042D01*
G37*
G36*
X399898Y43926D02*
X399898Y43926D01*
X399904Y43932D01*
X399909Y43929D01*
X400966Y44299D01*
X400970Y44306D01*
X400976Y44303D01*
X401924Y44899D01*
X401927Y44907D01*
X401932Y44906D01*
X402724Y45698D01*
X402725Y45706D01*
X402731Y45706D01*
X403327Y46654D01*
X403326Y46663D01*
X403331Y46664D01*
X403701Y47721D01*
X403700Y47725D01*
X403702Y47727D01*
X403700Y47730D01*
X403704Y47732D01*
X403829Y48845D01*
X403827Y48848D01*
X403829Y48850D01*
X403829Y59850D01*
X403827Y59853D01*
X403829Y59856D01*
X403704Y60968D01*
X403698Y60974D01*
X403701Y60979D01*
X403331Y62036D01*
X403325Y62040D01*
X403327Y62046D01*
X402731Y62994D01*
X402723Y62997D01*
X402724Y63002D01*
X401932Y63794D01*
X401924Y63795D01*
X401924Y63801D01*
X400976Y64397D01*
X400967Y64396D01*
X400966Y64401D01*
X399909Y64771D01*
X399901Y64769D01*
X399898Y64774D01*
X398786Y64899D01*
X398778Y64895D01*
X398775Y64899D01*
X397662Y64774D01*
X397656Y64768D01*
X397651Y64771D01*
X396594Y64401D01*
X396590Y64395D01*
X396584Y64397D01*
X395636Y63801D01*
X395633Y63793D01*
X395628Y63794D01*
X394836Y63002D01*
X394835Y62994D01*
X394829Y62994D01*
X394233Y62046D01*
X394234Y62039D01*
X394230Y62037D01*
X394230Y62036D01*
X394229Y62036D01*
X393859Y60979D01*
X393861Y60971D01*
X393856Y60968D01*
X393731Y59856D01*
X393733Y59852D01*
X393731Y59850D01*
X393731Y48850D01*
X393733Y48847D01*
X393731Y48845D01*
X393856Y47732D01*
X393862Y47726D01*
X393859Y47721D01*
X394229Y46664D01*
X394236Y46660D01*
X394233Y46654D01*
X394829Y45706D01*
X394837Y45703D01*
X394836Y45698D01*
X395628Y44906D01*
X395636Y44905D01*
X395636Y44899D01*
X396584Y44303D01*
X396593Y44304D01*
X396594Y44299D01*
X397651Y43929D01*
X397659Y43931D01*
X397662Y43926D01*
X398775Y43801D01*
X398782Y43805D01*
X398786Y43801D01*
X399898Y43926D01*
G37*
G36*
X313538Y43926D02*
X313538Y43926D01*
X313544Y43932D01*
X313549Y43929D01*
X314606Y44299D01*
X314610Y44306D01*
X314616Y44303D01*
X315564Y44899D01*
X315567Y44907D01*
X315572Y44906D01*
X316364Y45698D01*
X316365Y45706D01*
X316371Y45706D01*
X316967Y46654D01*
X316966Y46663D01*
X316971Y46664D01*
X317341Y47721D01*
X317340Y47725D01*
X317342Y47727D01*
X317340Y47730D01*
X317344Y47732D01*
X317469Y48845D01*
X317467Y48848D01*
X317469Y48850D01*
X317469Y59850D01*
X317467Y59853D01*
X317469Y59856D01*
X317344Y60968D01*
X317338Y60974D01*
X317341Y60979D01*
X316971Y62036D01*
X316965Y62040D01*
X316967Y62046D01*
X316371Y62994D01*
X316363Y62997D01*
X316364Y63002D01*
X315572Y63794D01*
X315564Y63795D01*
X315564Y63801D01*
X314616Y64397D01*
X314607Y64396D01*
X314606Y64401D01*
X313549Y64771D01*
X313541Y64769D01*
X313538Y64774D01*
X312426Y64899D01*
X312418Y64895D01*
X312415Y64899D01*
X311302Y64774D01*
X311296Y64768D01*
X311291Y64771D01*
X310234Y64401D01*
X310230Y64395D01*
X310224Y64397D01*
X309276Y63801D01*
X309273Y63793D01*
X309268Y63794D01*
X308476Y63002D01*
X308475Y62994D01*
X308469Y62994D01*
X307873Y62046D01*
X307874Y62039D01*
X307870Y62037D01*
X307870Y62036D01*
X307869Y62036D01*
X307499Y60979D01*
X307501Y60971D01*
X307496Y60968D01*
X307371Y59856D01*
X307373Y59852D01*
X307371Y59850D01*
X307371Y48850D01*
X307373Y48847D01*
X307371Y48845D01*
X307496Y47732D01*
X307502Y47726D01*
X307499Y47721D01*
X307869Y46664D01*
X307876Y46660D01*
X307873Y46654D01*
X308469Y45706D01*
X308477Y45703D01*
X308476Y45698D01*
X309268Y44906D01*
X309276Y44905D01*
X309276Y44899D01*
X310224Y44303D01*
X310233Y44304D01*
X310234Y44299D01*
X311291Y43929D01*
X311299Y43931D01*
X311302Y43926D01*
X312415Y43801D01*
X312422Y43805D01*
X312426Y43801D01*
X313538Y43926D01*
G37*
G36*
X313538Y4626D02*
X313538Y4626D01*
X313544Y4632D01*
X313549Y4629D01*
X314606Y4999D01*
X314610Y5006D01*
X314616Y5003D01*
X315564Y5599D01*
X315567Y5607D01*
X315572Y5606D01*
X316364Y6398D01*
X316365Y6406D01*
X316371Y6406D01*
X316967Y7354D01*
X316966Y7363D01*
X316971Y7364D01*
X317341Y8421D01*
X317340Y8425D01*
X317342Y8427D01*
X317340Y8430D01*
X317344Y8432D01*
X317469Y9545D01*
X317467Y9548D01*
X317469Y9550D01*
X317469Y15550D01*
X317467Y15553D01*
X317469Y15556D01*
X317344Y16668D01*
X317338Y16674D01*
X317341Y16679D01*
X316971Y17736D01*
X316965Y17740D01*
X316967Y17746D01*
X316371Y18694D01*
X316363Y18697D01*
X316364Y18702D01*
X315572Y19494D01*
X315564Y19495D01*
X315564Y19501D01*
X314616Y20097D01*
X314607Y20096D01*
X314606Y20101D01*
X313549Y20471D01*
X313541Y20469D01*
X313538Y20474D01*
X312426Y20599D01*
X312418Y20595D01*
X312415Y20599D01*
X311302Y20474D01*
X311296Y20468D01*
X311291Y20471D01*
X310234Y20101D01*
X310230Y20095D01*
X310224Y20097D01*
X309276Y19501D01*
X309273Y19493D01*
X309268Y19494D01*
X308476Y18702D01*
X308475Y18694D01*
X308469Y18694D01*
X307873Y17746D01*
X307874Y17737D01*
X307869Y17736D01*
X307499Y16679D01*
X307501Y16671D01*
X307496Y16668D01*
X307371Y15556D01*
X307373Y15552D01*
X307371Y15550D01*
X307371Y9550D01*
X307373Y9547D01*
X307371Y9545D01*
X307496Y8432D01*
X307502Y8426D01*
X307499Y8421D01*
X307869Y7364D01*
X307876Y7360D01*
X307873Y7354D01*
X308469Y6406D01*
X308477Y6403D01*
X308476Y6398D01*
X309268Y5606D01*
X309276Y5605D01*
X309276Y5599D01*
X310224Y5003D01*
X310233Y5004D01*
X310234Y4999D01*
X311291Y4629D01*
X311299Y4631D01*
X311302Y4626D01*
X312415Y4501D01*
X312422Y4505D01*
X312426Y4501D01*
X313538Y4626D01*
G37*
G36*
X399898Y4626D02*
X399898Y4626D01*
X399904Y4632D01*
X399909Y4629D01*
X400966Y4999D01*
X400970Y5006D01*
X400976Y5003D01*
X401924Y5599D01*
X401927Y5607D01*
X401932Y5606D01*
X402724Y6398D01*
X402725Y6406D01*
X402731Y6406D01*
X403327Y7354D01*
X403326Y7363D01*
X403331Y7364D01*
X403701Y8421D01*
X403700Y8425D01*
X403702Y8427D01*
X403700Y8430D01*
X403704Y8432D01*
X403829Y9545D01*
X403827Y9548D01*
X403829Y9550D01*
X403829Y15550D01*
X403827Y15553D01*
X403829Y15556D01*
X403704Y16668D01*
X403698Y16674D01*
X403701Y16679D01*
X403331Y17736D01*
X403325Y17740D01*
X403327Y17746D01*
X402731Y18694D01*
X402723Y18697D01*
X402724Y18702D01*
X401932Y19494D01*
X401924Y19495D01*
X401924Y19501D01*
X400976Y20097D01*
X400967Y20096D01*
X400966Y20101D01*
X399909Y20471D01*
X399901Y20469D01*
X399898Y20474D01*
X398786Y20599D01*
X398778Y20595D01*
X398775Y20599D01*
X397662Y20474D01*
X397656Y20468D01*
X397651Y20471D01*
X396594Y20101D01*
X396590Y20095D01*
X396584Y20097D01*
X395636Y19501D01*
X395633Y19493D01*
X395628Y19494D01*
X394836Y18702D01*
X394835Y18694D01*
X394829Y18694D01*
X394233Y17746D01*
X394234Y17737D01*
X394229Y17736D01*
X393859Y16679D01*
X393861Y16671D01*
X393856Y16668D01*
X393731Y15556D01*
X393733Y15552D01*
X393731Y15550D01*
X393731Y9550D01*
X393733Y9547D01*
X393731Y9545D01*
X393856Y8432D01*
X393862Y8426D01*
X393859Y8421D01*
X394229Y7364D01*
X394236Y7360D01*
X394233Y7354D01*
X394829Y6406D01*
X394837Y6403D01*
X394836Y6398D01*
X395628Y5606D01*
X395636Y5605D01*
X395636Y5599D01*
X396584Y5003D01*
X396593Y5004D01*
X396594Y4999D01*
X397651Y4629D01*
X397659Y4631D01*
X397662Y4626D01*
X398775Y4501D01*
X398782Y4505D01*
X398786Y4501D01*
X399898Y4626D01*
G37*
D10*
X660400Y50800D03*
X65300Y1065000D03*
D11*
X312420Y16074D02*
X312420Y9026D01*
X398780Y9026D02*
X398780Y16074D01*
X398780Y50826D02*
X398780Y57874D01*
X312420Y57874D02*
X312420Y50826D01*
D12*
X609600Y342900D03*
X609600Y368300D03*
X635000Y342900D03*
X635000Y368300D03*
X660400Y342900D03*
X660400Y368300D03*
D13*
X675640Y476250D03*
X619760Y476250D03*
X675640Y438150D03*
X619760Y438150D03*
D12*
X381000Y139700D03*
X406400Y139700D03*
X431800Y139700D03*
X457200Y139700D03*
X482600Y139700D03*
X508000Y139700D03*
X342900Y1054100D03*
X342900Y1028700D03*
X203200Y381000D03*
X177800Y381000D03*
X508000Y177800D03*
X508000Y203200D03*
X508000Y228600D03*
X508000Y254000D03*
X508000Y279400D03*
X508000Y304800D03*
X508000Y330200D03*
X508000Y355600D03*
M02*
