G04 EAGLE Gerber RS-274X export*
G75*
%MOMM*%
%FSLAX34Y34*%
%LPD*%
%INSilkscreen Bottom*%
%IPPOS*%
%AMOC8*
5,1,8,0,0,1.08239X$1,22.5*%
G01*
%ADD10C,0.203200*%
%ADD11C,0.254000*%
%ADD12C,0.152400*%
%ADD13C,0.254000*%
%ADD14C,0.508000*%
%ADD15C,0.177800*%

G36*
X-6385Y328392D02*
X-6385Y328392D01*
X-6375Y328388D01*
X-5875Y328688D01*
X-5867Y328707D01*
X-5860Y328712D01*
X-5863Y328716D01*
X-5861Y328722D01*
X-5851Y328730D01*
X-5851Y373430D01*
X-5854Y373434D01*
X-5851Y373437D01*
X-5951Y374137D01*
X-5956Y374142D01*
X-5953Y374146D01*
X-6153Y374745D01*
X-6353Y375444D01*
X-6358Y375448D01*
X-6356Y375452D01*
X-6956Y376652D01*
X-6963Y376655D01*
X-6962Y376661D01*
X-7360Y377159D01*
X-7759Y377757D01*
X-7769Y377761D01*
X-7769Y377768D01*
X-8269Y378168D01*
X-8273Y378169D01*
X-8273Y378171D01*
X-9473Y378971D01*
X-9477Y378971D01*
X-9478Y378974D01*
X-10078Y379274D01*
X-10083Y379273D01*
X-10084Y379277D01*
X-10684Y379477D01*
X-10686Y379476D01*
X-10686Y379477D01*
X-11386Y379677D01*
X-11390Y379676D01*
X-11392Y379679D01*
X-11992Y379779D01*
X-11997Y379776D01*
X-12000Y379779D01*
X-13400Y379779D01*
X-13404Y379776D01*
X-13407Y379779D01*
X-14107Y379679D01*
X-14112Y379674D01*
X-14116Y379677D01*
X-14715Y379477D01*
X-15414Y379277D01*
X-15418Y379272D01*
X-15422Y379274D01*
X-16022Y378974D01*
X-16025Y378967D01*
X-16031Y378968D01*
X-16529Y378570D01*
X-17127Y378171D01*
X-17130Y378164D01*
X-17135Y378165D01*
X-17635Y377665D01*
X-17635Y377661D01*
X-17638Y377661D01*
X-18438Y376661D01*
X-18439Y376653D01*
X-18444Y376652D01*
X-19044Y375452D01*
X-19043Y375445D01*
X-19047Y375444D01*
X-19080Y375329D01*
X-19122Y375182D01*
X-19136Y375132D01*
X-19178Y374985D01*
X-19179Y374985D01*
X-19178Y374985D01*
X-19221Y374837D01*
X-19235Y374788D01*
X-19247Y374745D01*
X-19447Y374146D01*
X-19445Y374139D01*
X-19449Y374137D01*
X-19549Y373437D01*
X-19546Y373432D01*
X-19549Y373430D01*
X-19549Y328930D01*
X-19538Y328915D01*
X-19542Y328905D01*
X-19242Y328405D01*
X-19208Y328391D01*
X-19200Y328381D01*
X-6400Y328381D01*
X-6385Y328392D01*
G37*
G36*
X92525Y221754D02*
X92525Y221754D01*
X92528Y221751D01*
X93128Y221851D01*
X93169Y221895D01*
X93166Y221898D01*
X93169Y221900D01*
X93169Y235400D01*
X93133Y235447D01*
X93126Y235442D01*
X93120Y235449D01*
X47020Y235449D01*
X46995Y235430D01*
X46982Y235431D01*
X46582Y234931D01*
X46581Y234923D01*
X46576Y234922D01*
X43576Y228922D01*
X43578Y228910D01*
X43573Y228905D01*
X43574Y228903D01*
X43571Y228900D01*
X43571Y228300D01*
X43581Y228287D01*
X43576Y228278D01*
X46676Y222178D01*
X46686Y222173D01*
X46685Y222165D01*
X47085Y221765D01*
X47112Y221762D01*
X47120Y221751D01*
X92520Y221751D01*
X92525Y221754D01*
G37*
G36*
X92841Y247167D02*
X92841Y247167D01*
X92855Y247165D01*
X93155Y247465D01*
X93157Y247477D01*
X93163Y247482D01*
X93158Y247489D01*
X93159Y247492D01*
X93169Y247500D01*
X93169Y260400D01*
X93156Y260418D01*
X93159Y260430D01*
X92859Y260830D01*
X92828Y260839D01*
X92820Y260849D01*
X57220Y260849D01*
X57211Y260842D01*
X57208Y260842D01*
X57204Y260839D01*
X57195Y260842D01*
X56695Y260542D01*
X56687Y260524D01*
X56676Y260522D01*
X53676Y254522D01*
X53677Y254517D01*
X53673Y254516D01*
X53473Y253916D01*
X53475Y253912D01*
X53474Y253911D01*
X53476Y253909D01*
X53482Y253890D01*
X53476Y253878D01*
X56476Y247778D01*
X56776Y247178D01*
X56813Y247160D01*
X56820Y247151D01*
X92820Y247151D01*
X92841Y247167D01*
G37*
G36*
X92738Y196364D02*
X92738Y196364D01*
X92750Y196361D01*
X93150Y196661D01*
X93154Y196677D01*
X93161Y196682D01*
X93157Y196688D01*
X93159Y196692D01*
X93169Y196700D01*
X93169Y209600D01*
X93156Y209618D01*
X93159Y209630D01*
X92859Y210030D01*
X92828Y210039D01*
X92820Y210049D01*
X55220Y210049D01*
X55216Y210046D01*
X55211Y210048D01*
X55206Y210039D01*
X55173Y210013D01*
X55177Y210007D01*
X55176Y210006D01*
X55184Y209995D01*
X55176Y209978D01*
X55476Y209378D01*
X58467Y203396D01*
X58274Y202819D01*
X55276Y196722D01*
X55278Y196711D01*
X55276Y196709D01*
X55279Y196704D01*
X55283Y196684D01*
X55279Y196673D01*
X55479Y196373D01*
X55512Y196361D01*
X55520Y196351D01*
X92720Y196351D01*
X92738Y196364D01*
G37*
G36*
X92958Y272580D02*
X92958Y272580D01*
X92966Y272582D01*
X93166Y273082D01*
X93162Y273095D01*
X93169Y273100D01*
X93169Y285900D01*
X93150Y285926D01*
X93150Y285939D01*
X92750Y286239D01*
X92732Y286239D01*
X92729Y286242D01*
X92725Y286242D01*
X92720Y286249D01*
X57220Y286249D01*
X57219Y286248D01*
X57218Y286249D01*
X57215Y286246D01*
X57173Y286213D01*
X57177Y286208D01*
X57175Y286206D01*
X57182Y286197D01*
X57173Y286184D01*
X57373Y285584D01*
X57378Y285581D01*
X57376Y285578D01*
X60467Y279496D01*
X60274Y278919D01*
X57276Y272822D01*
X57278Y272811D01*
X57277Y272810D01*
X57278Y272809D01*
X57287Y272763D01*
X57292Y272764D01*
X57293Y272759D01*
X57593Y272559D01*
X57613Y272560D01*
X57620Y272551D01*
X92920Y272551D01*
X92958Y272580D01*
G37*
G36*
X267270Y50727D02*
X267270Y50727D01*
X267272Y50727D01*
X267800Y50750D01*
X267802Y50751D01*
X267804Y50750D01*
X268858Y50856D01*
X268862Y50859D01*
X268870Y50858D01*
X269883Y51167D01*
X269885Y51170D01*
X269890Y51170D01*
X270373Y51379D01*
X270375Y51381D01*
X270379Y51382D01*
X271300Y51902D01*
X271303Y51907D01*
X271310Y51908D01*
X272127Y52583D01*
X272128Y52587D01*
X272135Y52590D01*
X272821Y53395D01*
X272821Y53399D01*
X272825Y53401D01*
X273122Y53837D01*
X273122Y53840D01*
X273125Y53843D01*
X273619Y54779D01*
X273620Y54779D01*
X273619Y54784D01*
X273624Y54789D01*
X273938Y55801D01*
X273937Y55805D01*
X273940Y55810D01*
X274023Y56331D01*
X274023Y56332D01*
X274024Y56334D01*
X274077Y56861D01*
X274076Y56863D01*
X274077Y56864D01*
X274106Y57391D01*
X274104Y57395D01*
X274106Y57401D01*
X273999Y58455D01*
X273997Y58459D01*
X273998Y58464D01*
X273867Y58976D01*
X273865Y58977D01*
X273866Y58979D01*
X273709Y59484D01*
X273707Y59486D01*
X273707Y59489D01*
X273517Y59980D01*
X273514Y59983D01*
X273514Y59988D01*
X273008Y60919D01*
X273004Y60922D01*
X273002Y60929D01*
X272329Y61747D01*
X272328Y61748D01*
X272327Y61749D01*
X272325Y61750D01*
X272324Y61753D01*
X271942Y62116D01*
X271940Y62117D01*
X271939Y62119D01*
X271530Y62456D01*
X271528Y62457D01*
X271527Y62458D01*
X271103Y62772D01*
X271099Y62772D01*
X271095Y62776D01*
X270164Y63282D01*
X270159Y63281D01*
X270153Y63286D01*
X269145Y63609D01*
X269142Y63608D01*
X269138Y63610D01*
X268621Y63714D01*
X268619Y63713D01*
X268615Y63715D01*
X267561Y63820D01*
X267558Y63818D01*
X267555Y63820D01*
X240539Y63820D01*
X240537Y63818D01*
X240533Y63820D01*
X240344Y63801D01*
X239290Y63694D01*
X239285Y63691D01*
X239278Y63692D01*
X238264Y63391D01*
X238262Y63388D01*
X238257Y63388D01*
X237771Y63186D01*
X237769Y63183D01*
X237764Y63183D01*
X236839Y62668D01*
X236837Y62664D01*
X236830Y62662D01*
X236013Y61988D01*
X236011Y61984D01*
X236006Y61981D01*
X235652Y61590D01*
X235652Y61588D01*
X235650Y61588D01*
X235313Y61179D01*
X235312Y61177D01*
X235310Y61175D01*
X235007Y60743D01*
X235007Y60740D01*
X235004Y60737D01*
X234503Y59804D01*
X234503Y59798D01*
X234498Y59793D01*
X234184Y58781D01*
X234185Y58777D01*
X234182Y58773D01*
X234091Y58254D01*
X234092Y58251D01*
X234091Y58248D01*
X234001Y57194D01*
X234004Y57189D01*
X234002Y57182D01*
X234108Y56128D01*
X234110Y56125D01*
X234109Y56120D01*
X234233Y55607D01*
X234235Y55606D01*
X234234Y55603D01*
X234391Y55098D01*
X234392Y55097D01*
X234392Y55094D01*
X234576Y54600D01*
X234579Y54597D01*
X234579Y54591D01*
X235085Y53660D01*
X235089Y53658D01*
X235091Y53651D01*
X235758Y52828D01*
X235761Y52827D01*
X235763Y52823D01*
X236140Y52455D01*
X236143Y52454D01*
X236145Y52450D01*
X236974Y51794D01*
X236979Y51793D01*
X236983Y51788D01*
X237914Y51283D01*
X237919Y51283D01*
X237925Y51278D01*
X238930Y50949D01*
X238933Y50950D01*
X238937Y50948D01*
X239452Y50836D01*
X239455Y50838D01*
X239459Y50835D01*
X240513Y50729D01*
X240515Y50730D01*
X240519Y50729D01*
X263097Y50727D01*
X263115Y50738D01*
X263136Y50740D01*
X263145Y50758D01*
X263154Y50764D01*
X263153Y50773D01*
X263160Y50786D01*
X263169Y50976D01*
X263169Y50978D01*
X263170Y50979D01*
X263189Y60607D01*
X263190Y60607D01*
X263189Y60614D01*
X263192Y60615D01*
X263191Y60622D01*
X263197Y60637D01*
X263193Y60883D01*
X265493Y60883D01*
X265504Y60657D01*
X265504Y60052D01*
X265508Y60046D01*
X265505Y60039D01*
X265525Y60019D01*
X265540Y59995D01*
X265548Y59996D01*
X265554Y59991D01*
X265604Y60002D01*
X265848Y60187D01*
X265848Y60188D01*
X265850Y60189D01*
X266255Y60518D01*
X266713Y60755D01*
X267208Y60904D01*
X267723Y60960D01*
X268242Y60927D01*
X268754Y60839D01*
X269247Y60680D01*
X269700Y60428D01*
X270100Y60101D01*
X270443Y59713D01*
X270724Y59278D01*
X270940Y58806D01*
X271072Y58302D01*
X271155Y57786D01*
X271195Y57265D01*
X271159Y56744D01*
X271086Y56226D01*
X270961Y55720D01*
X270754Y55244D01*
X270489Y54798D01*
X270164Y54394D01*
X269778Y54049D01*
X269329Y53792D01*
X268845Y53607D01*
X268340Y53489D01*
X267822Y53441D01*
X267305Y53475D01*
X266802Y53595D01*
X266337Y53817D01*
X265926Y54132D01*
X265609Y54430D01*
X265598Y54432D01*
X265592Y54441D01*
X265567Y54437D01*
X265542Y54442D01*
X265536Y54433D01*
X265525Y54431D01*
X265506Y54390D01*
X265504Y54386D01*
X265504Y54385D01*
X265504Y54384D01*
X265504Y51205D01*
X265504Y51204D01*
X265516Y50788D01*
X265528Y50770D01*
X265531Y50748D01*
X265548Y50740D01*
X265554Y50732D01*
X265564Y50733D01*
X265578Y50727D01*
X267269Y50727D01*
X267270Y50727D01*
G37*
G36*
X-56753Y351027D02*
X-56753Y351027D01*
X-56755Y351030D01*
X-56751Y351032D01*
X-56651Y351632D01*
X-56654Y351637D01*
X-56651Y351640D01*
X-56651Y383440D01*
X-56653Y383443D01*
X-56651Y383445D01*
X-56658Y383449D01*
X-56687Y383487D01*
X-56702Y383476D01*
X-56718Y383486D01*
X-57218Y383286D01*
X-57220Y383283D01*
X-57222Y383284D01*
X-63308Y380291D01*
X-63885Y380387D01*
X-69878Y383384D01*
X-69902Y383380D01*
X-69912Y383388D01*
X-70312Y383288D01*
X-70349Y383241D01*
X-70348Y383241D01*
X-70349Y383240D01*
X-70349Y351040D01*
X-70313Y350993D01*
X-70306Y350998D01*
X-70300Y350991D01*
X-56800Y350991D01*
X-56753Y351027D01*
G37*
G36*
X-63390Y278182D02*
X-63390Y278182D01*
X-63378Y278176D01*
X-56678Y281476D01*
X-56669Y281494D01*
X-56653Y281506D01*
X-56659Y281514D01*
X-56651Y281520D01*
X-56651Y308620D01*
X-56664Y308638D01*
X-56661Y308650D01*
X-56961Y309050D01*
X-56992Y309059D01*
X-57000Y309069D01*
X-69800Y309069D01*
X-69811Y309061D01*
X-69818Y309066D01*
X-70318Y308866D01*
X-70343Y308825D01*
X-70349Y308820D01*
X-70349Y281920D01*
X-70338Y281905D01*
X-70342Y281895D01*
X-70042Y281395D01*
X-70024Y281387D01*
X-70022Y281376D01*
X-64022Y278376D01*
X-64017Y278377D01*
X-64016Y278373D01*
X-63416Y278173D01*
X-63390Y278182D01*
G37*
G36*
X233323Y521563D02*
X233323Y521563D01*
X233336Y521558D01*
X234636Y522358D01*
X234643Y522378D01*
X234655Y522381D01*
X234955Y523081D01*
X236353Y526376D01*
X237636Y528251D01*
X241002Y528251D01*
X242161Y527865D01*
X242161Y524400D01*
X242165Y524395D01*
X242162Y524391D01*
X242462Y522791D01*
X242478Y522776D01*
X242477Y522763D01*
X243477Y521863D01*
X243499Y521862D01*
X243505Y521851D01*
X245605Y521651D01*
X245617Y521658D01*
X245624Y521653D01*
X247324Y522153D01*
X247341Y522175D01*
X247354Y522178D01*
X247954Y523378D01*
X247951Y523392D01*
X247959Y523397D01*
X248059Y525197D01*
X248058Y525199D01*
X248059Y525200D01*
X248059Y543900D01*
X248049Y543914D01*
X248053Y543923D01*
X247353Y545223D01*
X247327Y545235D01*
X247321Y545248D01*
X245621Y545648D01*
X245614Y545645D01*
X245610Y545649D01*
X238610Y545649D01*
X238608Y545648D01*
X238607Y545649D01*
X237007Y545549D01*
X237002Y545545D01*
X236998Y545548D01*
X235398Y545148D01*
X235393Y545141D01*
X235387Y545143D01*
X233887Y544343D01*
X233885Y544340D01*
X233883Y544341D01*
X232383Y543341D01*
X232380Y543333D01*
X232374Y543333D01*
X231274Y542133D01*
X231273Y542128D01*
X231269Y542127D01*
X230269Y540627D01*
X230270Y540617D01*
X230263Y540615D01*
X229763Y539015D01*
X229765Y539010D01*
X229762Y539009D01*
X229462Y537309D01*
X229465Y537301D01*
X229461Y537297D01*
X229561Y535597D01*
X229565Y535592D01*
X229562Y535589D01*
X229962Y533889D01*
X229968Y533884D01*
X229965Y533879D01*
X230665Y532379D01*
X230674Y532375D01*
X230672Y532368D01*
X231757Y531086D01*
X231562Y530014D01*
X230965Y528519D01*
X230165Y526720D01*
X230166Y526716D01*
X230163Y526716D01*
X229863Y525816D01*
X229864Y525814D01*
X229863Y525814D01*
X229363Y524114D01*
X229371Y524092D01*
X229365Y524081D01*
X229865Y522881D01*
X229884Y522870D01*
X229886Y522857D01*
X231686Y521857D01*
X231697Y521859D01*
X231701Y521852D01*
X233301Y521552D01*
X233323Y521563D01*
G37*
G36*
X-55814Y739008D02*
X-55814Y739008D01*
X-55748Y739013D01*
X-55730Y739024D01*
X-55709Y739029D01*
X-55624Y739089D01*
X-55600Y739103D01*
X-55597Y739108D01*
X-55592Y739112D01*
X-53392Y741412D01*
X-53384Y741425D01*
X-53371Y741435D01*
X-53340Y741499D01*
X-53304Y741561D01*
X-53303Y741577D01*
X-53296Y741591D01*
X-53297Y741662D01*
X-53291Y741733D01*
X-53298Y741748D01*
X-53298Y741764D01*
X-53355Y741889D01*
X-53357Y741893D01*
X-53357Y741894D01*
X-55226Y744509D01*
X-55223Y744520D01*
X-55214Y744533D01*
X-55203Y744591D01*
X-55194Y744612D01*
X-55194Y744634D01*
X-55188Y744667D01*
X-55187Y744672D01*
X-55187Y744673D01*
X-55187Y744674D01*
X-55187Y744684D01*
X-55154Y744749D01*
X-55098Y744806D01*
X-55087Y744824D01*
X-55075Y744833D01*
X-55067Y744852D01*
X-55027Y744904D01*
X-54954Y745049D01*
X-54898Y745106D01*
X-54858Y745170D01*
X-54814Y745233D01*
X-54812Y745245D01*
X-54807Y745253D01*
X-54803Y745288D01*
X-54787Y745374D01*
X-54787Y745423D01*
X-54758Y745470D01*
X-54714Y745533D01*
X-54712Y745545D01*
X-54707Y745553D01*
X-54703Y745588D01*
X-54687Y745674D01*
X-54687Y745784D01*
X-54654Y745849D01*
X-54598Y745906D01*
X-54558Y745970D01*
X-54514Y746033D01*
X-54512Y746045D01*
X-54507Y746053D01*
X-54503Y746088D01*
X-54497Y746121D01*
X-54494Y746129D01*
X-54494Y746137D01*
X-54487Y746174D01*
X-54487Y746223D01*
X-54458Y746270D01*
X-54414Y746333D01*
X-54412Y746345D01*
X-54407Y746353D01*
X-54403Y746388D01*
X-54387Y746474D01*
X-54387Y746584D01*
X-54358Y746642D01*
X-51102Y747200D01*
X-51084Y747207D01*
X-51065Y747208D01*
X-51005Y747241D01*
X-50943Y747267D01*
X-50930Y747282D01*
X-50913Y747291D01*
X-50874Y747347D01*
X-50830Y747398D01*
X-50825Y747417D01*
X-50814Y747433D01*
X-50792Y747544D01*
X-50787Y747566D01*
X-50788Y747570D01*
X-50787Y747574D01*
X-50787Y750774D01*
X-50791Y750793D01*
X-50789Y750812D01*
X-50800Y750846D01*
X-50801Y750853D01*
X-50806Y750863D01*
X-50811Y750876D01*
X-50826Y750942D01*
X-50839Y750957D01*
X-50845Y750975D01*
X-50893Y751023D01*
X-50936Y751076D01*
X-50954Y751083D01*
X-50968Y751097D01*
X-51074Y751137D01*
X-51094Y751146D01*
X-51098Y751146D01*
X-51102Y751148D01*
X-54314Y751698D01*
X-54325Y751737D01*
X-54326Y751742D01*
X-54327Y751743D01*
X-54387Y751863D01*
X-54387Y751874D01*
X-54390Y751889D01*
X-54388Y751905D01*
X-54408Y751975D01*
X-54408Y751990D01*
X-54416Y752004D01*
X-54425Y752037D01*
X-54426Y752042D01*
X-54427Y752043D01*
X-54487Y752163D01*
X-54487Y752174D01*
X-54490Y752189D01*
X-54488Y752205D01*
X-54525Y752337D01*
X-54526Y752342D01*
X-54527Y752343D01*
X-54687Y752663D01*
X-54687Y752674D01*
X-54690Y752689D01*
X-54688Y752705D01*
X-54725Y752837D01*
X-54726Y752842D01*
X-54727Y752843D01*
X-54827Y753043D01*
X-54850Y753071D01*
X-54887Y753125D01*
X-54887Y753174D01*
X-54904Y753248D01*
X-54918Y753323D01*
X-54924Y753333D01*
X-54926Y753342D01*
X-54949Y753370D01*
X-54998Y753442D01*
X-55054Y753498D01*
X-55127Y753643D01*
X-55150Y753671D01*
X-55187Y753725D01*
X-55187Y753774D01*
X-55204Y753848D01*
X-55208Y753870D01*
X-53354Y756558D01*
X-53348Y756574D01*
X-53336Y756587D01*
X-53316Y756654D01*
X-53291Y756719D01*
X-53292Y756737D01*
X-53287Y756753D01*
X-53300Y756822D01*
X-53306Y756892D01*
X-53315Y756906D01*
X-53318Y756923D01*
X-53389Y757029D01*
X-53396Y757040D01*
X-53397Y757040D01*
X-53398Y757042D01*
X-55598Y759242D01*
X-55612Y759251D01*
X-55623Y759265D01*
X-55685Y759296D01*
X-55745Y759333D01*
X-55762Y759335D01*
X-55777Y759342D01*
X-55848Y759343D01*
X-55917Y759349D01*
X-55933Y759343D01*
X-55950Y759343D01*
X-56068Y759292D01*
X-56079Y759288D01*
X-56080Y759287D01*
X-56081Y759286D01*
X-58780Y757424D01*
X-58798Y757442D01*
X-58863Y757482D01*
X-58925Y757526D01*
X-58937Y757528D01*
X-58945Y757533D01*
X-58980Y757536D01*
X-59066Y757553D01*
X-59116Y757553D01*
X-59128Y757561D01*
X-59196Y757613D01*
X-59341Y757685D01*
X-59398Y757742D01*
X-59463Y757782D01*
X-59525Y757826D01*
X-59537Y757828D01*
X-59545Y757833D01*
X-59580Y757836D01*
X-59666Y757853D01*
X-59716Y757853D01*
X-59728Y757861D01*
X-59796Y757913D01*
X-59996Y758013D01*
X-60012Y758017D01*
X-60025Y758026D01*
X-60159Y758052D01*
X-60165Y758053D01*
X-60166Y758053D01*
X-60176Y758053D01*
X-60296Y758113D01*
X-60312Y758117D01*
X-60325Y758126D01*
X-60459Y758152D01*
X-60465Y758153D01*
X-60466Y758153D01*
X-60516Y758153D01*
X-60563Y758182D01*
X-60625Y758226D01*
X-60637Y758228D01*
X-60645Y758233D01*
X-60680Y758236D01*
X-60766Y758253D01*
X-60876Y758253D01*
X-60934Y758282D01*
X-61492Y761538D01*
X-61500Y761556D01*
X-61501Y761575D01*
X-61533Y761634D01*
X-61560Y761697D01*
X-61574Y761710D01*
X-61584Y761727D01*
X-61639Y761766D01*
X-61691Y761810D01*
X-61710Y761815D01*
X-61725Y761826D01*
X-61836Y761847D01*
X-61858Y761853D01*
X-61862Y761852D01*
X-61866Y761853D01*
X-65066Y761853D01*
X-65085Y761849D01*
X-65104Y761851D01*
X-65168Y761829D01*
X-65234Y761813D01*
X-65249Y761801D01*
X-65268Y761795D01*
X-65316Y761747D01*
X-65368Y761703D01*
X-65376Y761686D01*
X-65389Y761672D01*
X-65429Y761566D01*
X-65438Y761545D01*
X-65438Y761542D01*
X-65440Y761538D01*
X-65990Y758326D01*
X-66029Y758315D01*
X-66034Y758313D01*
X-66035Y758313D01*
X-66036Y758313D01*
X-66156Y758253D01*
X-66166Y758253D01*
X-66182Y758249D01*
X-66198Y758252D01*
X-66329Y758215D01*
X-66334Y758213D01*
X-66335Y758213D01*
X-66336Y758213D01*
X-66456Y758153D01*
X-66466Y758153D01*
X-66482Y758149D01*
X-66498Y758152D01*
X-66629Y758115D01*
X-66634Y758113D01*
X-66635Y758113D01*
X-66636Y758113D01*
X-66756Y758053D01*
X-66866Y758053D01*
X-66940Y758036D01*
X-67016Y758022D01*
X-67025Y758016D01*
X-67034Y758013D01*
X-67062Y757991D01*
X-67134Y757942D01*
X-67191Y757885D01*
X-67256Y757853D01*
X-67266Y757853D01*
X-67282Y757849D01*
X-67298Y757852D01*
X-67429Y757815D01*
X-67434Y757813D01*
X-67435Y757813D01*
X-67436Y757813D01*
X-67636Y757713D01*
X-67663Y757690D01*
X-67734Y757642D01*
X-67791Y757585D01*
X-67856Y757553D01*
X-67866Y757553D01*
X-67882Y757549D01*
X-67898Y757552D01*
X-68029Y757515D01*
X-68034Y757513D01*
X-68035Y757513D01*
X-68036Y757513D01*
X-68177Y757442D01*
X-70851Y759286D01*
X-70863Y759291D01*
X-70872Y759300D01*
X-70943Y759322D01*
X-71012Y759349D01*
X-71025Y759348D01*
X-71037Y759352D01*
X-71110Y759340D01*
X-71184Y759334D01*
X-71195Y759327D01*
X-71208Y759325D01*
X-71328Y759248D01*
X-73628Y757048D01*
X-73642Y757026D01*
X-73662Y757010D01*
X-73689Y756954D01*
X-73723Y756903D01*
X-73726Y756877D01*
X-73737Y756854D01*
X-73736Y756792D01*
X-73743Y756731D01*
X-73734Y756707D01*
X-73734Y756681D01*
X-73696Y756601D01*
X-73685Y756568D01*
X-73678Y756562D01*
X-73673Y756551D01*
X-71738Y753878D01*
X-71778Y753798D01*
X-71834Y753742D01*
X-71874Y753677D01*
X-71918Y753614D01*
X-71920Y753603D01*
X-71925Y753595D01*
X-71929Y753560D01*
X-71945Y753474D01*
X-71945Y753424D01*
X-71953Y753411D01*
X-72005Y753343D01*
X-72078Y753198D01*
X-72134Y753142D01*
X-72174Y753077D01*
X-72218Y753014D01*
X-72220Y753003D01*
X-72225Y752995D01*
X-72229Y752960D01*
X-72245Y752874D01*
X-72245Y752824D01*
X-72274Y752777D01*
X-72318Y752714D01*
X-72320Y752703D01*
X-72325Y752695D01*
X-72329Y752660D01*
X-72345Y752574D01*
X-72345Y752463D01*
X-72378Y752398D01*
X-72434Y752342D01*
X-72474Y752277D01*
X-72518Y752214D01*
X-72520Y752203D01*
X-72525Y752195D01*
X-72529Y752160D01*
X-72545Y752074D01*
X-72545Y752024D01*
X-72574Y751977D01*
X-72618Y751914D01*
X-72620Y751903D01*
X-72625Y751895D01*
X-72629Y751860D01*
X-72645Y751774D01*
X-72645Y751695D01*
X-75928Y751148D01*
X-75947Y751140D01*
X-75967Y751139D01*
X-76026Y751107D01*
X-76088Y751081D01*
X-76101Y751066D01*
X-76119Y751056D01*
X-76158Y751001D01*
X-76202Y750951D01*
X-76207Y750931D01*
X-76218Y750914D01*
X-76234Y750833D01*
X-76238Y750823D01*
X-76238Y750812D01*
X-76239Y750808D01*
X-76245Y750783D01*
X-76244Y750779D01*
X-76245Y750774D01*
X-76245Y747574D01*
X-76241Y747555D01*
X-76243Y747536D01*
X-76221Y747471D01*
X-76206Y747405D01*
X-76193Y747390D01*
X-76187Y747372D01*
X-76139Y747324D01*
X-76096Y747272D01*
X-76078Y747264D01*
X-76064Y747250D01*
X-75958Y747210D01*
X-75938Y747201D01*
X-75934Y747201D01*
X-75930Y747200D01*
X-72642Y746636D01*
X-72607Y746511D01*
X-72606Y746505D01*
X-72605Y746505D01*
X-72605Y746504D01*
X-72545Y746384D01*
X-72545Y746374D01*
X-72542Y746358D01*
X-72544Y746342D01*
X-72507Y746211D01*
X-72506Y746205D01*
X-72505Y746205D01*
X-72505Y746204D01*
X-72445Y746084D01*
X-72445Y746074D01*
X-72442Y746058D01*
X-72444Y746042D01*
X-72407Y745911D01*
X-72406Y745905D01*
X-72405Y745905D01*
X-72405Y745904D01*
X-72245Y745584D01*
X-72245Y745574D01*
X-72242Y745558D01*
X-72244Y745542D01*
X-72207Y745411D01*
X-72206Y745405D01*
X-72205Y745405D01*
X-72205Y745404D01*
X-72105Y745204D01*
X-72082Y745176D01*
X-72034Y745106D01*
X-71978Y745049D01*
X-71945Y744984D01*
X-71945Y744974D01*
X-71942Y744958D01*
X-71944Y744942D01*
X-71907Y744811D01*
X-71906Y744805D01*
X-71905Y744805D01*
X-71905Y744804D01*
X-71805Y744604D01*
X-71782Y744576D01*
X-71734Y744506D01*
X-71724Y744495D01*
X-73669Y741901D01*
X-73679Y741879D01*
X-73696Y741860D01*
X-73714Y741800D01*
X-73739Y741743D01*
X-73738Y741718D01*
X-73745Y741694D01*
X-73734Y741633D01*
X-73731Y741570D01*
X-73719Y741548D01*
X-73714Y741524D01*
X-73663Y741449D01*
X-73647Y741419D01*
X-73640Y741414D01*
X-73634Y741406D01*
X-71334Y739106D01*
X-71320Y739097D01*
X-71309Y739083D01*
X-71247Y739051D01*
X-71187Y739014D01*
X-71170Y739013D01*
X-71155Y739005D01*
X-71085Y739005D01*
X-71015Y738998D01*
X-70999Y739004D01*
X-70982Y739004D01*
X-70864Y739056D01*
X-70853Y739060D01*
X-70852Y739061D01*
X-70851Y739061D01*
X-68152Y740923D01*
X-68134Y740906D01*
X-68069Y740865D01*
X-68007Y740821D01*
X-67995Y740819D01*
X-67987Y740814D01*
X-67952Y740811D01*
X-67937Y740808D01*
X-67934Y740806D01*
X-67869Y740765D01*
X-67807Y740721D01*
X-67795Y740719D01*
X-67787Y740714D01*
X-67752Y740711D01*
X-67666Y740694D01*
X-67616Y740694D01*
X-67569Y740665D01*
X-67507Y740621D01*
X-67495Y740619D01*
X-67487Y740614D01*
X-67452Y740611D01*
X-67437Y740608D01*
X-67434Y740606D01*
X-67369Y740565D01*
X-67307Y740521D01*
X-67295Y740519D01*
X-67287Y740514D01*
X-67252Y740511D01*
X-67237Y740508D01*
X-67234Y740506D01*
X-67169Y740465D01*
X-67107Y740421D01*
X-67095Y740419D01*
X-67087Y740414D01*
X-67052Y740411D01*
X-67023Y740405D01*
X-66996Y740372D01*
X-66977Y740364D01*
X-66962Y740349D01*
X-66899Y740329D01*
X-66838Y740301D01*
X-66817Y740302D01*
X-66798Y740296D01*
X-66732Y740306D01*
X-66665Y740308D01*
X-66647Y740318D01*
X-66627Y740321D01*
X-66572Y740359D01*
X-66513Y740391D01*
X-66501Y740408D01*
X-66485Y740420D01*
X-66428Y740512D01*
X-66414Y740533D01*
X-66413Y740538D01*
X-66410Y740542D01*
X-64410Y745942D01*
X-64407Y745973D01*
X-64394Y746001D01*
X-64396Y746057D01*
X-64389Y746114D01*
X-64399Y746143D01*
X-64400Y746174D01*
X-64427Y746224D01*
X-64446Y746277D01*
X-64468Y746299D01*
X-64483Y746326D01*
X-64543Y746372D01*
X-64570Y746398D01*
X-64583Y746402D01*
X-64596Y746413D01*
X-65141Y746685D01*
X-65298Y746842D01*
X-65328Y746861D01*
X-65396Y746913D01*
X-65541Y746985D01*
X-65854Y747298D01*
X-65927Y747443D01*
X-65950Y747471D01*
X-65998Y747542D01*
X-66154Y747698D01*
X-66215Y747819D01*
X-66306Y748094D01*
X-66318Y748113D01*
X-66327Y748143D01*
X-66387Y748263D01*
X-66387Y748374D01*
X-66395Y748409D01*
X-66406Y748494D01*
X-66487Y748735D01*
X-66487Y749512D01*
X-66406Y749754D01*
X-66403Y749790D01*
X-66387Y749874D01*
X-66387Y750059D01*
X-66250Y750263D01*
X-66237Y750298D01*
X-66206Y750354D01*
X-66122Y750606D01*
X-65771Y751132D01*
X-65425Y751479D01*
X-64898Y751830D01*
X-64646Y751914D01*
X-64628Y751925D01*
X-64614Y751928D01*
X-64601Y751939D01*
X-64556Y751958D01*
X-64351Y752094D01*
X-64166Y752094D01*
X-64131Y752103D01*
X-64046Y752114D01*
X-63804Y752194D01*
X-63213Y752194D01*
X-62858Y752106D01*
X-62822Y752105D01*
X-62766Y752094D01*
X-62581Y752094D01*
X-62376Y751958D01*
X-62341Y751945D01*
X-62292Y751917D01*
X-62290Y751916D01*
X-62289Y751916D01*
X-62286Y751914D01*
X-62034Y751830D01*
X-61808Y751679D01*
X-61634Y751506D01*
X-61608Y751489D01*
X-61576Y751458D01*
X-61308Y751279D01*
X-61161Y751132D01*
X-60810Y750606D01*
X-60445Y749512D01*
X-60445Y749035D01*
X-60526Y748794D01*
X-60529Y748758D01*
X-60545Y748674D01*
X-60545Y748463D01*
X-60705Y748143D01*
X-60711Y748121D01*
X-60726Y748094D01*
X-60817Y747819D01*
X-60978Y747498D01*
X-61134Y747342D01*
X-61153Y747311D01*
X-61205Y747243D01*
X-61278Y747098D01*
X-61391Y746985D01*
X-61536Y746913D01*
X-61563Y746890D01*
X-61634Y746842D01*
X-61791Y746685D01*
X-62112Y746525D01*
X-62386Y746433D01*
X-62435Y746403D01*
X-62488Y746381D01*
X-62508Y746359D01*
X-62533Y746343D01*
X-62564Y746294D01*
X-62601Y746251D01*
X-62609Y746222D01*
X-62625Y746196D01*
X-62631Y746139D01*
X-62645Y746083D01*
X-62639Y746049D01*
X-62642Y746024D01*
X-62630Y745992D01*
X-62622Y745942D01*
X-60622Y740542D01*
X-60596Y740504D01*
X-60580Y740461D01*
X-60549Y740433D01*
X-60526Y740398D01*
X-60486Y740375D01*
X-60453Y740344D01*
X-60413Y740332D01*
X-60376Y740311D01*
X-60331Y740308D01*
X-60287Y740295D01*
X-60246Y740302D01*
X-60204Y740300D01*
X-60161Y740317D01*
X-60116Y740325D01*
X-60075Y740353D01*
X-60044Y740366D01*
X-60027Y740386D01*
X-60014Y740394D01*
X-59966Y740394D01*
X-59892Y740412D01*
X-59816Y740425D01*
X-59807Y740432D01*
X-59798Y740434D01*
X-59770Y740457D01*
X-59698Y740506D01*
X-59691Y740512D01*
X-59616Y740525D01*
X-59607Y740532D01*
X-59598Y740534D01*
X-59570Y740557D01*
X-59498Y740606D01*
X-59491Y740612D01*
X-59416Y740625D01*
X-59407Y740632D01*
X-59398Y740634D01*
X-59370Y740657D01*
X-59298Y740706D01*
X-59291Y740712D01*
X-59216Y740725D01*
X-59207Y740732D01*
X-59198Y740734D01*
X-59170Y740757D01*
X-59098Y740806D01*
X-59091Y740812D01*
X-59016Y740825D01*
X-59007Y740832D01*
X-58998Y740834D01*
X-58970Y740857D01*
X-58898Y740906D01*
X-58891Y740912D01*
X-58816Y740925D01*
X-58807Y740932D01*
X-58798Y740934D01*
X-58797Y740934D01*
X-56081Y739061D01*
X-56061Y739054D01*
X-56045Y739040D01*
X-55982Y739022D01*
X-55920Y738998D01*
X-55899Y739000D01*
X-55878Y738995D01*
X-55814Y739008D01*
G37*
G36*
X317614Y521553D02*
X317614Y521553D01*
X317616Y521551D01*
X319316Y521751D01*
X319319Y521754D01*
X319322Y521752D01*
X320922Y522152D01*
X320926Y522158D01*
X320931Y522155D01*
X322431Y522855D01*
X322433Y522860D01*
X322437Y522859D01*
X323837Y523759D01*
X323838Y523763D01*
X323842Y523762D01*
X325142Y524862D01*
X325143Y524867D01*
X325146Y524867D01*
X326346Y526167D01*
X326347Y526173D01*
X326351Y526173D01*
X327251Y527573D01*
X327251Y527576D01*
X327253Y527577D01*
X328053Y529077D01*
X328052Y529084D01*
X328057Y529085D01*
X328557Y530685D01*
X328556Y530689D01*
X328558Y530691D01*
X328858Y532291D01*
X328856Y532295D01*
X328859Y532297D01*
X328959Y534097D01*
X328957Y534101D01*
X328959Y534103D01*
X328859Y535803D01*
X328855Y535808D01*
X328858Y535811D01*
X328458Y537511D01*
X328455Y537513D01*
X328457Y537516D01*
X327957Y539016D01*
X327952Y539019D01*
X327953Y539023D01*
X327153Y540523D01*
X327148Y540526D01*
X327149Y540530D01*
X326149Y541830D01*
X326144Y541831D01*
X326145Y541835D01*
X324845Y543135D01*
X324839Y543136D01*
X324839Y543140D01*
X323439Y544140D01*
X323435Y544140D01*
X323434Y544143D01*
X322034Y544943D01*
X322029Y544942D01*
X322027Y544946D01*
X320427Y545546D01*
X320423Y545545D01*
X320422Y545548D01*
X318822Y545948D01*
X318818Y545946D01*
X318816Y545949D01*
X317116Y546149D01*
X317110Y546146D01*
X317107Y546149D01*
X315407Y546049D01*
X315404Y546046D01*
X315401Y546048D01*
X313801Y545748D01*
X313798Y545745D01*
X313795Y545747D01*
X312195Y545247D01*
X312191Y545241D01*
X312187Y545243D01*
X310687Y544443D01*
X310685Y544440D01*
X310683Y544441D01*
X309183Y543441D01*
X309176Y543422D01*
X309165Y543419D01*
X308565Y542019D01*
X308569Y542004D01*
X308567Y542003D01*
X308570Y542000D01*
X308572Y541992D01*
X308565Y541980D01*
X309265Y540380D01*
X309276Y540374D01*
X309275Y540365D01*
X310675Y538965D01*
X310694Y538963D01*
X310698Y538952D01*
X311898Y538652D01*
X311919Y538661D01*
X311930Y538655D01*
X313530Y539355D01*
X313530Y539356D01*
X313531Y539355D01*
X315024Y540052D01*
X316711Y540251D01*
X318499Y540151D01*
X319986Y539557D01*
X321375Y538564D01*
X322367Y537275D01*
X322962Y535788D01*
X323160Y534001D01*
X322862Y532213D01*
X322267Y530725D01*
X321274Y529434D01*
X319883Y528242D01*
X318396Y527548D01*
X316810Y527350D01*
X315123Y527548D01*
X313759Y528133D01*
X313759Y531451D01*
X315310Y531451D01*
X315312Y531452D01*
X315313Y531451D01*
X317213Y531551D01*
X317232Y531567D01*
X317245Y531565D01*
X318245Y532565D01*
X318249Y532592D01*
X318259Y532600D01*
X318259Y534400D01*
X318252Y534409D01*
X318257Y534416D01*
X317757Y535916D01*
X317727Y535936D01*
X317722Y535948D01*
X316122Y536348D01*
X316114Y536344D01*
X316110Y536349D01*
X311010Y536349D01*
X311005Y536346D01*
X311002Y536349D01*
X309102Y536049D01*
X309087Y536033D01*
X309075Y536035D01*
X308075Y535035D01*
X308073Y535017D01*
X308062Y535009D01*
X308064Y535007D01*
X308061Y535006D01*
X307861Y533306D01*
X307863Y533302D01*
X307861Y533300D01*
X307861Y526500D01*
X307866Y526493D01*
X307862Y526488D01*
X308262Y524888D01*
X308278Y524876D01*
X308277Y524864D01*
X309477Y523764D01*
X309480Y523763D01*
X309480Y523761D01*
X310680Y522861D01*
X310690Y522861D01*
X310692Y522854D01*
X312192Y522254D01*
X312195Y522255D01*
X312195Y522253D01*
X313795Y521753D01*
X313802Y521755D01*
X313805Y521751D01*
X315705Y521551D01*
X315708Y521553D01*
X315710Y521551D01*
X317610Y521551D01*
X317614Y521553D01*
G37*
G36*
X300016Y521557D02*
X300016Y521557D01*
X300021Y521552D01*
X301721Y521952D01*
X301741Y521975D01*
X301754Y521978D01*
X302354Y523178D01*
X302351Y523194D01*
X302359Y523200D01*
X302359Y543500D01*
X302352Y543510D01*
X302356Y543517D01*
X301856Y544917D01*
X301830Y544934D01*
X301826Y544947D01*
X300326Y545447D01*
X300315Y545443D01*
X300310Y545449D01*
X291710Y545449D01*
X291703Y545444D01*
X291698Y545448D01*
X290098Y545048D01*
X290095Y545044D01*
X290092Y545046D01*
X288592Y544446D01*
X288587Y544438D01*
X288581Y544440D01*
X287081Y543340D01*
X287080Y543336D01*
X287077Y543336D01*
X285877Y542236D01*
X285875Y542229D01*
X285870Y542229D01*
X284870Y540829D01*
X284870Y540824D01*
X284867Y540823D01*
X284067Y539323D01*
X284067Y539319D01*
X284064Y539318D01*
X283864Y538818D01*
X283868Y538806D01*
X283863Y538802D01*
X283863Y538801D01*
X283861Y538800D01*
X283861Y537100D01*
X283862Y537098D01*
X283861Y537097D01*
X283961Y535397D01*
X283964Y535394D01*
X283962Y535391D01*
X284262Y533791D01*
X284270Y533784D01*
X284267Y533777D01*
X285067Y532277D01*
X285071Y532275D01*
X285070Y532271D01*
X286070Y530871D01*
X286079Y530869D01*
X286078Y530862D01*
X287378Y529762D01*
X287386Y529762D01*
X287387Y529757D01*
X288887Y528957D01*
X288892Y528957D01*
X288893Y528954D01*
X290493Y528354D01*
X290501Y528356D01*
X290504Y528351D01*
X292104Y528151D01*
X292108Y528153D01*
X292110Y528151D01*
X295398Y528151D01*
X296561Y527570D01*
X296561Y524200D01*
X296564Y524196D01*
X296561Y524194D01*
X296761Y522594D01*
X296779Y522575D01*
X296779Y522562D01*
X297879Y521662D01*
X297901Y521661D01*
X297908Y521651D01*
X300008Y521551D01*
X300016Y521557D01*
G37*
G36*
X182522Y521852D02*
X182522Y521852D01*
X182533Y521866D01*
X182544Y521864D01*
X183944Y523164D01*
X183944Y523168D01*
X183947Y523167D01*
X190571Y530681D01*
X190661Y529598D01*
X190661Y524500D01*
X190665Y524495D01*
X190662Y524491D01*
X190962Y522891D01*
X190981Y522874D01*
X190981Y522860D01*
X192081Y522060D01*
X192099Y522061D01*
X192105Y522051D01*
X194205Y521851D01*
X194217Y521858D01*
X194224Y521853D01*
X195924Y522353D01*
X195942Y522377D01*
X195955Y522380D01*
X196455Y523480D01*
X196452Y523492D01*
X196459Y523497D01*
X196559Y525297D01*
X196558Y525299D01*
X196559Y525300D01*
X196559Y543900D01*
X196550Y543912D01*
X196555Y543921D01*
X195955Y545221D01*
X195930Y545234D01*
X195926Y545247D01*
X194426Y545747D01*
X194413Y545743D01*
X194408Y545749D01*
X192208Y545649D01*
X192193Y545637D01*
X192183Y545641D01*
X190983Y544841D01*
X190976Y544820D01*
X190962Y544810D01*
X190662Y543310D01*
X190665Y543303D01*
X190661Y543300D01*
X190661Y538102D01*
X190570Y536920D01*
X186947Y541033D01*
X183947Y544433D01*
X183945Y544433D01*
X183945Y544435D01*
X182645Y545735D01*
X182629Y545737D01*
X182626Y545747D01*
X181426Y546147D01*
X181399Y546138D01*
X181387Y546143D01*
X179887Y545343D01*
X179882Y545334D01*
X179875Y545335D01*
X178475Y543935D01*
X178474Y543924D01*
X178473Y543924D01*
X178474Y543923D01*
X178472Y543913D01*
X178461Y543908D01*
X178261Y542608D01*
X178273Y542587D01*
X178268Y542575D01*
X179168Y541075D01*
X179172Y541073D01*
X179172Y541069D01*
X179972Y540069D01*
X179976Y540068D01*
X179975Y540065D01*
X181074Y538966D01*
X182174Y537767D01*
X182177Y537766D01*
X182177Y537764D01*
X183576Y536464D01*
X185075Y534965D01*
X185077Y534965D01*
X185077Y534964D01*
X186239Y533898D01*
X182075Y529735D01*
X182075Y529734D01*
X182074Y529734D01*
X179274Y526734D01*
X179273Y526727D01*
X179268Y526726D01*
X178268Y525126D01*
X178269Y525115D01*
X178263Y525110D01*
X178268Y525103D01*
X178261Y525096D01*
X178361Y523796D01*
X178377Y523778D01*
X178375Y523765D01*
X179775Y522365D01*
X179786Y522364D01*
X179787Y522357D01*
X181287Y521557D01*
X181312Y521561D01*
X181322Y521552D01*
X182522Y521852D01*
G37*
G36*
X331462Y497422D02*
X331462Y497422D01*
X331463Y497421D01*
X333163Y497521D01*
X333170Y497527D01*
X333175Y497523D01*
X334775Y498023D01*
X334780Y498030D01*
X334785Y498028D01*
X336285Y498928D01*
X336287Y498932D01*
X336290Y498931D01*
X337690Y500031D01*
X337692Y500037D01*
X337696Y500037D01*
X338696Y501137D01*
X338697Y501146D01*
X338703Y501147D01*
X339503Y502647D01*
X339500Y502671D01*
X339508Y502681D01*
X339208Y503981D01*
X339194Y503993D01*
X339196Y504004D01*
X337896Y505404D01*
X337879Y505407D01*
X337876Y505417D01*
X336376Y505917D01*
X336353Y505909D01*
X336342Y505916D01*
X335042Y505416D01*
X335036Y505406D01*
X335028Y505407D01*
X333530Y504109D01*
X332043Y503118D01*
X330366Y502920D01*
X328794Y503510D01*
X328113Y504678D01*
X328503Y506238D01*
X329877Y507023D01*
X331569Y507322D01*
X331570Y507323D01*
X331572Y507322D01*
X333172Y507722D01*
X333175Y507726D01*
X333179Y507724D01*
X334879Y508424D01*
X334880Y508427D01*
X334882Y508426D01*
X336282Y509126D01*
X336285Y509132D01*
X336290Y509131D01*
X337590Y510131D01*
X337594Y510144D01*
X337602Y510145D01*
X338502Y511645D01*
X338502Y511651D01*
X338506Y511652D01*
X339106Y513152D01*
X339103Y513163D01*
X339109Y513167D01*
X339209Y514967D01*
X339205Y514973D01*
X339209Y514976D01*
X339009Y516576D01*
X339002Y516583D01*
X339006Y516588D01*
X338406Y518088D01*
X338398Y518093D01*
X338400Y518099D01*
X337400Y519499D01*
X337393Y519501D01*
X337393Y519506D01*
X336193Y520606D01*
X336185Y520607D01*
X336184Y520613D01*
X334784Y521413D01*
X334775Y521411D01*
X334772Y521418D01*
X333172Y521818D01*
X333167Y521816D01*
X333165Y521819D01*
X331365Y522019D01*
X331360Y522016D01*
X331357Y522019D01*
X329557Y521919D01*
X329554Y521916D01*
X329551Y521918D01*
X327951Y521618D01*
X327946Y521613D01*
X327942Y521616D01*
X326142Y520916D01*
X326138Y520909D01*
X326133Y520911D01*
X324933Y520111D01*
X324930Y520103D01*
X324924Y520103D01*
X323724Y518803D01*
X323721Y518778D01*
X323711Y518770D01*
X323711Y517470D01*
X323723Y517454D01*
X323719Y517443D01*
X324819Y515743D01*
X324833Y515738D01*
X324833Y515729D01*
X326233Y514829D01*
X326260Y514831D01*
X326270Y514822D01*
X327670Y515122D01*
X327679Y515132D01*
X327687Y515129D01*
X329182Y516125D01*
X330665Y516620D01*
X332335Y516423D01*
X333306Y515258D01*
X332917Y513702D01*
X331541Y512916D01*
X328247Y512018D01*
X328247Y512017D01*
X328246Y512017D01*
X326546Y511517D01*
X326544Y511514D01*
X326542Y511516D01*
X325042Y510916D01*
X325036Y510906D01*
X325028Y510908D01*
X323828Y509908D01*
X323826Y509899D01*
X323820Y509899D01*
X322820Y508499D01*
X322820Y508487D01*
X322813Y508485D01*
X322313Y506885D01*
X322316Y506876D01*
X322311Y506873D01*
X322211Y505073D01*
X322214Y505067D01*
X322211Y505064D01*
X322411Y503364D01*
X322416Y503359D01*
X322413Y503354D01*
X322913Y501854D01*
X322920Y501850D01*
X322918Y501845D01*
X323818Y500345D01*
X323827Y500341D01*
X323827Y500334D01*
X325027Y499234D01*
X325034Y499233D01*
X325035Y499228D01*
X326535Y498328D01*
X326541Y498328D01*
X326542Y498324D01*
X328042Y497724D01*
X328049Y497726D01*
X328051Y497722D01*
X329751Y497422D01*
X329757Y497424D01*
X329760Y497421D01*
X331460Y497421D01*
X331462Y497422D01*
G37*
G36*
X271212Y521552D02*
X271212Y521552D01*
X271213Y521551D01*
X272913Y521651D01*
X272919Y521656D01*
X272924Y521653D01*
X274624Y522153D01*
X274630Y522161D01*
X274637Y522159D01*
X276037Y523059D01*
X276037Y523061D01*
X276039Y523060D01*
X277539Y524160D01*
X277541Y524167D01*
X277546Y524167D01*
X278546Y525267D01*
X278547Y525276D01*
X278553Y525277D01*
X279353Y526777D01*
X279350Y526801D01*
X279358Y526811D01*
X279058Y528111D01*
X279044Y528123D01*
X279046Y528134D01*
X277746Y529534D01*
X277728Y529537D01*
X277725Y529547D01*
X276125Y530047D01*
X276103Y530039D01*
X276092Y530046D01*
X274792Y529546D01*
X274785Y529535D01*
X274777Y529536D01*
X273379Y528239D01*
X271893Y527248D01*
X270116Y527050D01*
X268544Y527640D01*
X267863Y528808D01*
X268252Y530367D01*
X269727Y531153D01*
X271319Y531452D01*
X271320Y531453D01*
X271321Y531452D01*
X273021Y531852D01*
X273026Y531857D01*
X273030Y531855D01*
X274630Y532555D01*
X274630Y532556D01*
X274631Y532555D01*
X276131Y533255D01*
X276135Y533264D01*
X276142Y533262D01*
X277342Y534262D01*
X277344Y534272D01*
X277351Y534273D01*
X278351Y535773D01*
X278350Y535782D01*
X278357Y535784D01*
X278857Y537284D01*
X278854Y537292D01*
X278859Y537295D01*
X279059Y539095D01*
X279055Y539102D01*
X279059Y539106D01*
X278859Y540706D01*
X278852Y540713D01*
X278856Y540718D01*
X278256Y542218D01*
X278248Y542223D01*
X278250Y542229D01*
X277250Y543629D01*
X277243Y543631D01*
X277243Y543636D01*
X276043Y544736D01*
X276035Y544737D01*
X276034Y544743D01*
X274634Y545543D01*
X274625Y545541D01*
X274622Y545548D01*
X273022Y545948D01*
X273017Y545946D01*
X273015Y545949D01*
X271115Y546149D01*
X271110Y546146D01*
X271107Y546149D01*
X269307Y546049D01*
X269304Y546046D01*
X269301Y546048D01*
X267701Y545748D01*
X267696Y545743D01*
X267691Y545746D01*
X265991Y545046D01*
X265988Y545039D01*
X265983Y545041D01*
X264783Y544241D01*
X264780Y544234D01*
X264775Y544235D01*
X263475Y542935D01*
X263471Y542905D01*
X263461Y542896D01*
X263561Y541596D01*
X263572Y541583D01*
X263569Y541573D01*
X264669Y539873D01*
X264682Y539869D01*
X264682Y539860D01*
X265982Y538960D01*
X266010Y538961D01*
X266020Y538952D01*
X267420Y539252D01*
X267429Y539262D01*
X267437Y539259D01*
X268932Y540255D01*
X270415Y540750D01*
X272185Y540553D01*
X273156Y539388D01*
X272768Y537833D01*
X271291Y537046D01*
X268097Y536147D01*
X268096Y536147D01*
X266396Y535647D01*
X266394Y535644D01*
X266392Y535646D01*
X264892Y535046D01*
X264887Y535037D01*
X264880Y535039D01*
X263580Y534039D01*
X263577Y534027D01*
X263569Y534027D01*
X262669Y532627D01*
X262669Y532617D01*
X262663Y532615D01*
X262163Y531015D01*
X262165Y531008D01*
X262161Y531005D01*
X261961Y529205D01*
X261965Y529198D01*
X261964Y529198D01*
X261965Y529198D01*
X261961Y529194D01*
X262161Y527494D01*
X262168Y527487D01*
X262164Y527482D01*
X262764Y525982D01*
X262769Y525979D01*
X262768Y525975D01*
X263668Y524475D01*
X263677Y524471D01*
X263677Y524464D01*
X264877Y523364D01*
X264883Y523363D01*
X264883Y523359D01*
X266283Y522459D01*
X266291Y522459D01*
X266293Y522454D01*
X267893Y521854D01*
X267899Y521856D01*
X267901Y521852D01*
X269501Y521552D01*
X269507Y521555D01*
X269510Y521551D01*
X271210Y521551D01*
X271212Y521552D01*
G37*
G36*
X245140Y572231D02*
X245140Y572231D01*
X245191Y572233D01*
X245223Y572251D01*
X245259Y572259D01*
X245298Y572292D01*
X245343Y572316D01*
X245364Y572346D01*
X245392Y572369D01*
X245413Y572416D01*
X245443Y572458D01*
X245451Y572500D01*
X245463Y572528D01*
X245462Y572558D01*
X245470Y572600D01*
X245470Y585400D01*
X245466Y585418D01*
X245468Y585442D01*
X245268Y587242D01*
X245257Y587273D01*
X245251Y587320D01*
X245051Y587920D01*
X245038Y587940D01*
X245030Y587970D01*
X244730Y588570D01*
X244722Y588580D01*
X244716Y588596D01*
X244416Y589096D01*
X244402Y589110D01*
X244393Y589129D01*
X244316Y589199D01*
X244295Y589220D01*
X244290Y589222D01*
X244286Y589226D01*
X243802Y589516D01*
X243418Y589804D01*
X243383Y589819D01*
X243331Y589853D01*
X242331Y590253D01*
X242298Y590258D01*
X242253Y590275D01*
X241653Y590375D01*
X241626Y590373D01*
X241590Y590380D01*
X240790Y590380D01*
X240754Y590372D01*
X240698Y590369D01*
X240343Y590280D01*
X240190Y590280D01*
X240175Y590277D01*
X240160Y590279D01*
X240028Y590242D01*
X240021Y590241D01*
X240021Y590240D01*
X240020Y590240D01*
X239820Y590140D01*
X239801Y590124D01*
X239777Y590115D01*
X239735Y590069D01*
X239687Y590029D01*
X239677Y590007D01*
X239660Y589988D01*
X239642Y589928D01*
X239616Y589871D01*
X239618Y589846D01*
X239610Y589822D01*
X239621Y589760D01*
X239624Y589698D01*
X239636Y589676D01*
X239640Y589651D01*
X239689Y589578D01*
X239707Y589546D01*
X239715Y589541D01*
X239721Y589531D01*
X239821Y589431D01*
X239853Y589411D01*
X239920Y589360D01*
X240320Y589160D01*
X240343Y589154D01*
X240370Y589139D01*
X240585Y589068D01*
X240895Y588758D01*
X241045Y588532D01*
X241110Y588338D01*
X241110Y588162D01*
X241038Y587946D01*
X240878Y587625D01*
X240648Y587396D01*
X240412Y587238D01*
X239981Y587066D01*
X239552Y586980D01*
X238837Y586980D01*
X238146Y587153D01*
X237650Y587484D01*
X237329Y587885D01*
X237170Y588362D01*
X237170Y588922D01*
X237416Y589495D01*
X238076Y590249D01*
X238874Y591147D01*
X238875Y591149D01*
X238876Y591150D01*
X239576Y591950D01*
X239592Y591979D01*
X239622Y592015D01*
X240122Y592915D01*
X240133Y592953D01*
X240161Y593018D01*
X240361Y593918D01*
X240361Y593951D01*
X240370Y594000D01*
X240370Y594800D01*
X240362Y594837D01*
X240351Y594920D01*
X240051Y595820D01*
X240030Y595854D01*
X239999Y595921D01*
X239499Y596621D01*
X239473Y596644D01*
X239443Y596684D01*
X238543Y597484D01*
X238512Y597501D01*
X238472Y597534D01*
X237372Y598134D01*
X237336Y598144D01*
X237258Y598174D01*
X236158Y598374D01*
X236129Y598373D01*
X236090Y598380D01*
X235090Y598380D01*
X235053Y598372D01*
X234970Y598361D01*
X234070Y598061D01*
X234064Y598057D01*
X234057Y598056D01*
X233257Y597756D01*
X233242Y597746D01*
X233220Y597740D01*
X233054Y597657D01*
X232620Y597440D01*
X232598Y597422D01*
X232562Y597404D01*
X232162Y597104D01*
X232147Y597086D01*
X232121Y597069D01*
X232021Y596969D01*
X232008Y596947D01*
X231988Y596931D01*
X231962Y596874D01*
X231930Y596822D01*
X231927Y596796D01*
X231917Y596772D01*
X231919Y596711D01*
X231913Y596649D01*
X231922Y596625D01*
X231923Y596599D01*
X231953Y596545D01*
X231975Y596487D01*
X231994Y596470D01*
X232006Y596447D01*
X232057Y596412D01*
X232102Y596370D01*
X232127Y596362D01*
X232148Y596347D01*
X232232Y596331D01*
X232268Y596320D01*
X232278Y596322D01*
X232290Y596320D01*
X232590Y596320D01*
X232627Y596328D01*
X232710Y596339D01*
X232952Y596420D01*
X233143Y596420D01*
X233498Y596331D01*
X233506Y596331D01*
X233515Y596327D01*
X233966Y596237D01*
X234289Y596075D01*
X234610Y595835D01*
X234745Y595632D01*
X234829Y595380D01*
X234842Y595360D01*
X234850Y595330D01*
X234938Y595154D01*
X234989Y595000D01*
X234929Y594820D01*
X234928Y594807D01*
X234921Y594792D01*
X234837Y594456D01*
X234674Y594211D01*
X234666Y594191D01*
X234650Y594170D01*
X234478Y593825D01*
X234248Y593596D01*
X233979Y593416D01*
X233972Y593409D01*
X233962Y593404D01*
X233570Y593111D01*
X233299Y592930D01*
X232867Y592714D01*
X232600Y592580D01*
X232052Y592580D01*
X231859Y592645D01*
X231710Y592744D01*
X231570Y593162D01*
X231570Y593900D01*
X231558Y593950D01*
X231558Y593971D01*
X231557Y593995D01*
X231556Y594002D01*
X231539Y594034D01*
X231531Y594069D01*
X231498Y594109D01*
X231473Y594154D01*
X231443Y594175D01*
X231421Y594202D01*
X231373Y594224D01*
X231331Y594253D01*
X231295Y594259D01*
X231262Y594273D01*
X231211Y594271D01*
X231160Y594279D01*
X231119Y594268D01*
X231089Y594267D01*
X231062Y594252D01*
X231020Y594240D01*
X231009Y594235D01*
X230249Y593855D01*
X230220Y593840D01*
X230216Y593837D01*
X230106Y593753D01*
X229306Y592853D01*
X229291Y592825D01*
X229262Y592792D01*
X228562Y591592D01*
X228553Y591563D01*
X228532Y591528D01*
X228032Y590128D01*
X228029Y590102D01*
X228016Y590070D01*
X227716Y588470D01*
X227718Y588434D01*
X227710Y588379D01*
X227810Y586579D01*
X227820Y586547D01*
X227824Y586498D01*
X228324Y584698D01*
X228341Y584667D01*
X228358Y584615D01*
X229358Y582815D01*
X229375Y582797D01*
X229390Y582767D01*
X230090Y581867D01*
X230097Y581861D01*
X230101Y581853D01*
X230111Y581847D01*
X230121Y581831D01*
X230921Y581031D01*
X230931Y581025D01*
X230940Y581014D01*
X231740Y580314D01*
X231765Y580300D01*
X231794Y580274D01*
X232794Y579674D01*
X232819Y579666D01*
X232849Y579647D01*
X233849Y579247D01*
X233868Y579244D01*
X233890Y579233D01*
X234990Y578933D01*
X235007Y578933D01*
X235028Y578925D01*
X236228Y578725D01*
X236254Y578727D01*
X236290Y578720D01*
X238159Y578720D01*
X238656Y578637D01*
X239072Y578387D01*
X240022Y577627D01*
X240498Y577057D01*
X240510Y577047D01*
X240521Y577031D01*
X241799Y575754D01*
X242281Y575079D01*
X242301Y575061D01*
X242321Y575031D01*
X242909Y574443D01*
X243398Y573857D01*
X243410Y573847D01*
X243421Y573831D01*
X243902Y573350D01*
X244186Y572972D01*
X244204Y572957D01*
X244221Y572931D01*
X244495Y572658D01*
X244674Y572389D01*
X244693Y572371D01*
X244706Y572347D01*
X244756Y572312D01*
X244800Y572271D01*
X244826Y572263D01*
X244848Y572247D01*
X244929Y572232D01*
X244966Y572221D01*
X244977Y572222D01*
X244990Y572220D01*
X245090Y572220D01*
X245140Y572231D01*
G37*
G36*
X197965Y497425D02*
X197965Y497425D01*
X197969Y497422D01*
X199569Y497722D01*
X199573Y497726D01*
X199576Y497724D01*
X201276Y498324D01*
X201281Y498331D01*
X201287Y498329D01*
X202687Y499229D01*
X202688Y499233D01*
X202692Y499232D01*
X203992Y500332D01*
X203994Y500341D01*
X204000Y500341D01*
X205000Y501741D01*
X205000Y501746D01*
X205003Y501747D01*
X205803Y503247D01*
X205802Y503256D01*
X205808Y503258D01*
X206208Y504858D01*
X206205Y504864D01*
X206209Y504867D01*
X206309Y506667D01*
X206308Y506669D01*
X206309Y506670D01*
X206309Y510270D01*
X206292Y510293D01*
X206293Y510306D01*
X203793Y512606D01*
X203790Y512607D01*
X203790Y512609D01*
X202390Y513709D01*
X202384Y513709D01*
X202383Y513713D01*
X200883Y514513D01*
X200876Y514512D01*
X200875Y514517D01*
X199275Y515017D01*
X199268Y515015D01*
X199266Y515019D01*
X197666Y515219D01*
X197660Y515216D01*
X197657Y515219D01*
X195857Y515119D01*
X195852Y515115D01*
X195848Y515118D01*
X194248Y514718D01*
X194244Y514712D01*
X194239Y514715D01*
X192739Y514015D01*
X192736Y514009D01*
X192731Y514010D01*
X191331Y513010D01*
X191330Y513004D01*
X191325Y513005D01*
X190125Y511805D01*
X190124Y511795D01*
X190117Y511794D01*
X189317Y510394D01*
X189318Y510389D01*
X189316Y510388D01*
X189314Y510387D01*
X188714Y508787D01*
X188716Y508781D01*
X188712Y508779D01*
X188412Y507079D01*
X188415Y507071D01*
X188411Y507067D01*
X188511Y505267D01*
X188514Y505264D01*
X188512Y505261D01*
X188812Y503561D01*
X188818Y503555D01*
X188815Y503549D01*
X189515Y502049D01*
X189520Y502047D01*
X189519Y502043D01*
X190419Y500643D01*
X190426Y500641D01*
X190425Y500635D01*
X191625Y499435D01*
X191631Y499434D01*
X191631Y499430D01*
X193031Y498430D01*
X193041Y498430D01*
X193043Y498424D01*
X194643Y497824D01*
X194647Y497825D01*
X194649Y497822D01*
X196349Y497422D01*
X196356Y497425D01*
X196360Y497421D01*
X197960Y497421D01*
X197965Y497425D01*
G37*
G36*
X290829Y546731D02*
X290829Y546731D01*
X290891Y546733D01*
X290913Y546746D01*
X290939Y546750D01*
X291010Y546798D01*
X291043Y546816D01*
X291049Y546824D01*
X291059Y546831D01*
X291944Y547716D01*
X293428Y548903D01*
X293439Y548918D01*
X293459Y548931D01*
X294344Y549816D01*
X294828Y550203D01*
X294834Y550211D01*
X294843Y550216D01*
X294887Y550279D01*
X294935Y550339D01*
X294937Y550349D01*
X294943Y550358D01*
X294958Y550439D01*
X294963Y550450D01*
X294963Y550462D01*
X294970Y550500D01*
X294970Y569000D01*
X294969Y569004D01*
X294970Y569009D01*
X294950Y569089D01*
X294931Y569169D01*
X294928Y569172D01*
X294927Y569177D01*
X294873Y569239D01*
X294821Y569302D01*
X294816Y569304D01*
X294814Y569308D01*
X294682Y569369D01*
X294282Y569469D01*
X294274Y569469D01*
X294265Y569473D01*
X293765Y569573D01*
X293733Y569572D01*
X293690Y569580D01*
X293237Y569580D01*
X292882Y569669D01*
X292874Y569669D01*
X292865Y569673D01*
X292373Y569771D01*
X291982Y569869D01*
X291974Y569869D01*
X291965Y569873D01*
X290965Y570073D01*
X290963Y570073D01*
X290962Y570073D01*
X290878Y570070D01*
X290791Y570067D01*
X290790Y570067D01*
X290789Y570067D01*
X290715Y570026D01*
X290639Y569985D01*
X290638Y569984D01*
X290637Y569984D01*
X290589Y569915D01*
X290538Y569844D01*
X290538Y569843D01*
X290537Y569842D01*
X290510Y569700D01*
X290510Y568918D01*
X290359Y569069D01*
X290343Y569079D01*
X290328Y569097D01*
X289828Y569497D01*
X289807Y569507D01*
X289786Y569526D01*
X288786Y570126D01*
X288773Y570130D01*
X288653Y570175D01*
X287453Y570375D01*
X287426Y570373D01*
X287390Y570380D01*
X286690Y570380D01*
X286679Y570378D01*
X286665Y570379D01*
X285165Y570279D01*
X285128Y570268D01*
X285062Y570258D01*
X283662Y569758D01*
X283633Y569739D01*
X283586Y569721D01*
X282486Y569021D01*
X282459Y568993D01*
X282407Y568954D01*
X281507Y567954D01*
X281494Y567931D01*
X281469Y567904D01*
X280769Y566804D01*
X280757Y566768D01*
X280727Y566712D01*
X280327Y565412D01*
X280326Y565397D01*
X280318Y565380D01*
X280018Y563980D01*
X280019Y563956D01*
X280011Y563925D01*
X279911Y562425D01*
X279914Y562403D01*
X279911Y562373D01*
X280011Y560973D01*
X280018Y560949D01*
X280020Y560915D01*
X280320Y559615D01*
X280332Y559590D01*
X280339Y559554D01*
X280839Y558354D01*
X280849Y558339D01*
X280856Y558318D01*
X281456Y557218D01*
X281482Y557189D01*
X281521Y557131D01*
X282421Y556231D01*
X282443Y556218D01*
X282466Y556192D01*
X283566Y555392D01*
X283602Y555377D01*
X283670Y555339D01*
X284870Y554939D01*
X284900Y554936D01*
X284940Y554923D01*
X286440Y554723D01*
X286479Y554727D01*
X286553Y554725D01*
X288353Y555025D01*
X288389Y555040D01*
X288460Y555060D01*
X288590Y555125D01*
X289060Y555360D01*
X289070Y555368D01*
X289086Y555374D01*
X290086Y555974D01*
X290106Y555994D01*
X290187Y556062D01*
X290410Y556341D01*
X290410Y547100D01*
X290416Y547075D01*
X290413Y547049D01*
X290435Y546992D01*
X290449Y546931D01*
X290466Y546911D01*
X290475Y546887D01*
X290520Y546845D01*
X290559Y546798D01*
X290583Y546787D01*
X290602Y546770D01*
X290661Y546752D01*
X290718Y546727D01*
X290743Y546728D01*
X290768Y546720D01*
X290829Y546731D01*
G37*
G36*
X244265Y497425D02*
X244265Y497425D01*
X244269Y497422D01*
X245969Y497722D01*
X245974Y497727D01*
X245978Y497724D01*
X247478Y498324D01*
X247481Y498329D01*
X247485Y498328D01*
X248985Y499228D01*
X248989Y499237D01*
X248996Y499237D01*
X250096Y500437D01*
X250097Y500444D01*
X250102Y500445D01*
X251002Y501945D01*
X251002Y501951D01*
X251006Y501953D01*
X251606Y503553D01*
X251605Y503557D01*
X251608Y503558D01*
X252008Y505158D01*
X252004Y505166D01*
X252009Y505170D01*
X252009Y506970D01*
X252005Y506975D01*
X252009Y506979D01*
X251709Y508679D01*
X251705Y508682D01*
X251707Y508685D01*
X251207Y510285D01*
X251201Y510289D01*
X251203Y510294D01*
X250403Y511694D01*
X250394Y511698D01*
X250395Y511705D01*
X249195Y512905D01*
X249190Y512905D01*
X249190Y512909D01*
X247890Y513909D01*
X247882Y513909D01*
X247881Y513915D01*
X246381Y514615D01*
X246374Y514613D01*
X246372Y514618D01*
X244772Y515018D01*
X244767Y515016D01*
X244765Y515019D01*
X242965Y515219D01*
X242960Y515216D01*
X242957Y515219D01*
X241157Y515119D01*
X241152Y515115D01*
X241149Y515118D01*
X239449Y514718D01*
X239444Y514712D01*
X239439Y514715D01*
X237939Y514015D01*
X237934Y514005D01*
X237927Y514006D01*
X236727Y512906D01*
X236725Y512899D01*
X236720Y512899D01*
X235720Y511499D01*
X235720Y511488D01*
X235713Y511486D01*
X235213Y509986D01*
X235216Y509978D01*
X235211Y509976D01*
X235011Y508276D01*
X235013Y508272D01*
X235011Y508270D01*
X235011Y506370D01*
X235027Y506349D01*
X235025Y506335D01*
X236225Y505135D01*
X236239Y505133D01*
X236242Y505124D01*
X237742Y504524D01*
X237755Y504528D01*
X237760Y504521D01*
X244553Y504521D01*
X245771Y504146D01*
X244633Y502913D01*
X243053Y502419D01*
X241265Y502419D01*
X239772Y502718D01*
X238175Y503217D01*
X238151Y503209D01*
X238139Y503215D01*
X236839Y502615D01*
X236829Y502594D01*
X236816Y502592D01*
X235916Y500792D01*
X235917Y500786D01*
X235913Y500783D01*
X235918Y500776D01*
X235911Y500770D01*
X235911Y499570D01*
X235924Y499552D01*
X235921Y499540D01*
X236621Y498640D01*
X236635Y498636D01*
X236637Y498627D01*
X237937Y497927D01*
X237947Y497928D01*
X237950Y497922D01*
X239850Y497522D01*
X239855Y497524D01*
X239858Y497521D01*
X242258Y497421D01*
X242259Y497422D01*
X242260Y497421D01*
X244260Y497421D01*
X244265Y497425D01*
G37*
G36*
X224573Y490623D02*
X224573Y490623D01*
X224581Y490633D01*
X224589Y490630D01*
X226089Y491730D01*
X226095Y491751D01*
X226107Y491754D01*
X226407Y492654D01*
X226402Y492667D01*
X226404Y492668D01*
X226401Y492673D01*
X226408Y492682D01*
X226208Y493482D01*
X226203Y493485D01*
X226205Y493489D01*
X225705Y494689D01*
X225705Y494690D01*
X224905Y496490D01*
X224903Y496491D01*
X224904Y496492D01*
X223809Y498683D01*
X223710Y500658D01*
X229603Y510845D01*
X229602Y510850D01*
X229605Y510850D01*
X230305Y512450D01*
X230301Y512466D01*
X230303Y512467D01*
X230300Y512471D01*
X230299Y512477D01*
X230305Y512489D01*
X229805Y513689D01*
X229788Y513699D01*
X229787Y513711D01*
X227987Y514911D01*
X227974Y514910D01*
X227970Y514918D01*
X226470Y515218D01*
X226447Y515207D01*
X226434Y515212D01*
X225134Y514412D01*
X225128Y514396D01*
X225118Y514395D01*
X223418Y511495D01*
X222518Y509995D01*
X222518Y509994D01*
X222517Y509994D01*
X220822Y507003D01*
X220380Y506649D01*
X219905Y507789D01*
X219905Y507790D01*
X219005Y509790D01*
X217905Y512290D01*
X217903Y512291D01*
X217904Y512292D01*
X217204Y513692D01*
X217198Y513695D01*
X217199Y513700D01*
X216599Y514500D01*
X216584Y514504D01*
X216582Y514514D01*
X215182Y515214D01*
X215156Y515209D01*
X215145Y515217D01*
X213545Y514717D01*
X213539Y514708D01*
X213532Y514711D01*
X211932Y513611D01*
X211924Y513587D01*
X211922Y513585D01*
X211912Y513580D01*
X211612Y512180D01*
X211621Y512160D01*
X211615Y512149D01*
X212315Y510650D01*
X220515Y492150D01*
X220517Y492149D01*
X220517Y492147D01*
X221317Y490647D01*
X221339Y490636D01*
X221343Y490624D01*
X222743Y490124D01*
X222763Y490130D01*
X222773Y490123D01*
X224573Y490623D01*
G37*
G36*
X215129Y521565D02*
X215129Y521565D01*
X215142Y521562D01*
X216342Y522562D01*
X216347Y522587D01*
X216359Y522594D01*
X216559Y524194D01*
X216557Y524197D01*
X216557Y524198D01*
X216559Y524200D01*
X216559Y539587D01*
X217139Y540651D01*
X222210Y540651D01*
X222212Y540652D01*
X222213Y540651D01*
X224013Y540751D01*
X224033Y540768D01*
X224046Y540767D01*
X225046Y541867D01*
X225047Y541876D01*
X225049Y541878D01*
X225048Y541880D01*
X225049Y541890D01*
X225059Y541897D01*
X225159Y543697D01*
X225149Y543712D01*
X225154Y543722D01*
X224454Y545122D01*
X224425Y545137D01*
X224419Y545149D01*
X222719Y545449D01*
X222713Y545446D01*
X222710Y545449D01*
X203910Y545449D01*
X203895Y545438D01*
X203884Y545442D01*
X202584Y544642D01*
X202577Y544624D01*
X202563Y544613D01*
X202566Y544609D01*
X202561Y544606D01*
X202361Y542906D01*
X202367Y542896D01*
X202362Y542891D01*
X202662Y541291D01*
X202687Y541268D01*
X202691Y541255D01*
X204091Y540655D01*
X204104Y540658D01*
X204110Y540651D01*
X209407Y540651D01*
X210861Y540457D01*
X210861Y523400D01*
X210872Y523386D01*
X210867Y523376D01*
X211667Y521976D01*
X211692Y521965D01*
X211697Y521952D01*
X213197Y521552D01*
X213206Y521556D01*
X213210Y521551D01*
X215110Y521551D01*
X215129Y521565D01*
G37*
G36*
X310766Y497521D02*
X310766Y497521D01*
X310772Y497527D01*
X310777Y497524D01*
X312377Y498124D01*
X312382Y498131D01*
X312388Y498130D01*
X313688Y499030D01*
X313691Y499037D01*
X313696Y499037D01*
X314896Y500337D01*
X314897Y500343D01*
X314901Y500343D01*
X315801Y501743D01*
X315801Y501753D01*
X315807Y501755D01*
X316307Y503355D01*
X316306Y503359D01*
X316308Y503361D01*
X316608Y504961D01*
X316606Y504965D01*
X316609Y504967D01*
X316709Y506767D01*
X316708Y506769D01*
X316709Y506770D01*
X316709Y511970D01*
X316706Y511974D01*
X316709Y511977D01*
X316509Y513477D01*
X316492Y513494D01*
X316493Y513507D01*
X315493Y514407D01*
X315471Y514408D01*
X315470Y514411D01*
X315468Y514411D01*
X315462Y514419D01*
X313262Y514519D01*
X313252Y514512D01*
X313245Y514517D01*
X311645Y514017D01*
X311629Y513994D01*
X311627Y513992D01*
X311615Y513989D01*
X311115Y512789D01*
X311118Y512777D01*
X311111Y512773D01*
X311011Y510873D01*
X311012Y510871D01*
X311011Y510870D01*
X311011Y505778D01*
X310518Y504202D01*
X309146Y503319D01*
X307373Y503319D01*
X305999Y504105D01*
X305409Y505481D01*
X305309Y507272D01*
X305309Y512470D01*
X305303Y512478D01*
X305307Y512484D01*
X304907Y513884D01*
X304883Y513902D01*
X304879Y513915D01*
X303479Y514515D01*
X303466Y514512D01*
X303460Y514519D01*
X301260Y514519D01*
X301246Y514509D01*
X301237Y514513D01*
X299937Y513813D01*
X299928Y513795D01*
X299913Y513784D01*
X299913Y513783D01*
X299912Y513783D01*
X299512Y512283D01*
X299516Y512274D01*
X299511Y512270D01*
X299511Y500270D01*
X299514Y500266D01*
X299511Y500264D01*
X299711Y498664D01*
X299727Y498648D01*
X299725Y498635D01*
X300725Y497635D01*
X300748Y497632D01*
X300755Y497621D01*
X302755Y497421D01*
X302765Y497427D01*
X302771Y497422D01*
X304571Y497822D01*
X304588Y497842D01*
X304602Y497844D01*
X305279Y498908D01*
X305938Y498626D01*
X307435Y497728D01*
X307445Y497729D01*
X307448Y497722D01*
X309048Y497322D01*
X309060Y497327D01*
X309066Y497321D01*
X310766Y497521D01*
G37*
G36*
X274820Y554727D02*
X274820Y554727D01*
X274865Y554727D01*
X275328Y554820D01*
X275790Y554820D01*
X275826Y554828D01*
X275882Y554831D01*
X276282Y554931D01*
X276302Y554941D01*
X276331Y554947D01*
X276831Y555147D01*
X276843Y555155D01*
X276860Y555160D01*
X277260Y555360D01*
X277276Y555373D01*
X277301Y555384D01*
X277581Y555571D01*
X277960Y555760D01*
X277989Y555784D01*
X278059Y555831D01*
X278359Y556131D01*
X278375Y556158D01*
X278406Y556189D01*
X278601Y556480D01*
X278894Y556872D01*
X278898Y556881D01*
X278906Y556889D01*
X279106Y557189D01*
X279107Y557190D01*
X279108Y557191D01*
X279163Y557325D01*
X279253Y557776D01*
X279430Y558130D01*
X279434Y558145D01*
X279443Y558158D01*
X279469Y558292D01*
X279470Y558299D01*
X279470Y558300D01*
X279470Y558762D01*
X279563Y559225D01*
X279563Y559235D01*
X279564Y559368D01*
X279364Y560468D01*
X279355Y560490D01*
X279351Y560520D01*
X279051Y561420D01*
X279034Y561447D01*
X279020Y561489D01*
X278620Y562189D01*
X278597Y562213D01*
X278537Y562289D01*
X277837Y562889D01*
X277811Y562903D01*
X277779Y562930D01*
X277079Y563330D01*
X277053Y563338D01*
X277024Y563356D01*
X276224Y563656D01*
X276205Y563659D01*
X276182Y563669D01*
X275382Y563869D01*
X275360Y563869D01*
X275332Y563878D01*
X274432Y563978D01*
X272638Y564177D01*
X271969Y564273D01*
X271303Y564463D01*
X270750Y564648D01*
X270350Y564888D01*
X270170Y565127D01*
X270170Y566010D01*
X270403Y566475D01*
X270459Y566531D01*
X270479Y566563D01*
X270530Y566630D01*
X270573Y566717D01*
X270980Y566920D01*
X271090Y566920D01*
X271105Y566923D01*
X271120Y566921D01*
X271252Y566958D01*
X271259Y566959D01*
X271259Y566960D01*
X271260Y566960D01*
X271380Y567020D01*
X273000Y567020D01*
X273865Y566588D01*
X274178Y566275D01*
X274238Y566154D01*
X274329Y565880D01*
X274342Y565860D01*
X274350Y565830D01*
X274410Y565710D01*
X274410Y565300D01*
X274421Y565250D01*
X274423Y565199D01*
X274441Y565167D01*
X274449Y565131D01*
X274482Y565092D01*
X274506Y565047D01*
X274536Y565026D01*
X274559Y564998D01*
X274606Y564977D01*
X274648Y564947D01*
X274690Y564939D01*
X274718Y564927D01*
X274748Y564928D01*
X274790Y564920D01*
X278690Y564920D01*
X278770Y564938D01*
X278850Y564955D01*
X278854Y564958D01*
X278859Y564959D01*
X278922Y565012D01*
X278986Y565062D01*
X278988Y565066D01*
X278992Y565069D01*
X279026Y565144D01*
X279061Y565218D01*
X279061Y565223D01*
X279063Y565228D01*
X279062Y565255D01*
X279065Y565363D01*
X278865Y566563D01*
X278855Y566586D01*
X278855Y566588D01*
X278854Y566608D01*
X278852Y566613D01*
X278851Y566620D01*
X278651Y567220D01*
X278631Y567252D01*
X278594Y567328D01*
X278306Y567712D01*
X278016Y568196D01*
X278004Y568208D01*
X277994Y568228D01*
X277694Y568628D01*
X277669Y568649D01*
X277662Y568662D01*
X277647Y568673D01*
X277618Y568704D01*
X277218Y569004D01*
X277202Y569011D01*
X277186Y569026D01*
X276186Y569626D01*
X276161Y569634D01*
X276131Y569653D01*
X275631Y569853D01*
X275602Y569857D01*
X275565Y569873D01*
X275088Y569968D01*
X274510Y570161D01*
X274485Y570163D01*
X274453Y570175D01*
X273859Y570274D01*
X273365Y570373D01*
X273333Y570372D01*
X273290Y570380D01*
X270990Y570380D01*
X270960Y570373D01*
X270915Y570373D01*
X270452Y570280D01*
X269890Y570280D01*
X269860Y570273D01*
X269815Y570273D01*
X269315Y570173D01*
X269289Y570161D01*
X269249Y570153D01*
X268781Y569966D01*
X268315Y569873D01*
X268289Y569861D01*
X268249Y569853D01*
X267749Y569653D01*
X267718Y569631D01*
X267662Y569604D01*
X266462Y568704D01*
X266437Y568674D01*
X266386Y568628D01*
X266086Y568228D01*
X266074Y568202D01*
X266050Y568170D01*
X265850Y567770D01*
X265847Y567756D01*
X265837Y567741D01*
X265637Y567241D01*
X265633Y567212D01*
X265617Y567175D01*
X265517Y566675D01*
X265518Y566643D01*
X265510Y566600D01*
X265510Y557990D01*
X265450Y557870D01*
X265446Y557855D01*
X265437Y557842D01*
X265411Y557708D01*
X265410Y557702D01*
X265410Y557701D01*
X265410Y557700D01*
X265410Y556890D01*
X265350Y556770D01*
X265346Y556755D01*
X265337Y556742D01*
X265328Y556696D01*
X265327Y556693D01*
X265327Y556691D01*
X265311Y556608D01*
X265310Y556602D01*
X265310Y556601D01*
X265310Y556600D01*
X265310Y556490D01*
X265250Y556370D01*
X265246Y556355D01*
X265237Y556342D01*
X265211Y556208D01*
X265210Y556202D01*
X265210Y556201D01*
X265210Y556200D01*
X265210Y555990D01*
X265178Y555925D01*
X265121Y555869D01*
X265081Y555804D01*
X265037Y555742D01*
X265035Y555730D01*
X265030Y555722D01*
X265026Y555685D01*
X265010Y555600D01*
X265010Y555500D01*
X265021Y555450D01*
X265023Y555399D01*
X265041Y555367D01*
X265049Y555331D01*
X265082Y555292D01*
X265106Y555247D01*
X265136Y555226D01*
X265159Y555198D01*
X265206Y555177D01*
X265248Y555147D01*
X265290Y555139D01*
X265318Y555127D01*
X265348Y555128D01*
X265390Y555120D01*
X269290Y555120D01*
X269340Y555131D01*
X269391Y555133D01*
X269423Y555151D01*
X269459Y555159D01*
X269498Y555192D01*
X269543Y555216D01*
X269564Y555246D01*
X269592Y555269D01*
X269613Y555316D01*
X269643Y555358D01*
X269651Y555400D01*
X269663Y555428D01*
X269663Y555438D01*
X269699Y555496D01*
X269743Y555558D01*
X269745Y555570D01*
X269750Y555578D01*
X269754Y555615D01*
X269756Y555629D01*
X269759Y555631D01*
X269799Y555696D01*
X269843Y555758D01*
X269845Y555770D01*
X269850Y555778D01*
X269854Y555815D01*
X269870Y555900D01*
X269870Y556049D01*
X269883Y556070D01*
X270021Y555931D01*
X270048Y555915D01*
X270079Y555884D01*
X270379Y555684D01*
X270415Y555670D01*
X270470Y555639D01*
X270722Y555555D01*
X270979Y555384D01*
X271015Y555370D01*
X271070Y555339D01*
X272270Y554939D01*
X272307Y554936D01*
X272390Y554920D01*
X272628Y554920D01*
X272870Y554839D01*
X272907Y554836D01*
X272990Y554820D01*
X273328Y554820D01*
X273570Y554739D01*
X273607Y554736D01*
X273690Y554720D01*
X274790Y554720D01*
X274820Y554727D01*
G37*
G36*
X268075Y497433D02*
X268075Y497433D01*
X268087Y497429D01*
X269487Y498329D01*
X269492Y498344D01*
X269503Y498345D01*
X276303Y509945D01*
X276302Y509948D01*
X276304Y509948D01*
X277104Y511548D01*
X277101Y511566D01*
X277109Y511574D01*
X277009Y512974D01*
X276993Y512992D01*
X276995Y513005D01*
X275795Y514205D01*
X275783Y514207D01*
X275781Y514215D01*
X274081Y515015D01*
X274060Y515010D01*
X274050Y515018D01*
X272550Y514718D01*
X272533Y514699D01*
X272520Y514698D01*
X271620Y513398D01*
X271620Y513393D01*
X271616Y513393D01*
X267728Y505915D01*
X267088Y505824D01*
X263204Y513293D01*
X263198Y513296D01*
X263199Y513300D01*
X262199Y514600D01*
X262178Y514606D01*
X262174Y514617D01*
X260774Y515017D01*
X260754Y515010D01*
X260744Y515016D01*
X259044Y514416D01*
X259036Y514404D01*
X259027Y514406D01*
X257627Y513106D01*
X257623Y513084D01*
X257611Y513078D01*
X257411Y511778D01*
X257421Y511759D01*
X257416Y511748D01*
X258216Y510148D01*
X258218Y510147D01*
X258217Y510145D01*
X264117Y499945D01*
X264917Y498546D01*
X264931Y498540D01*
X264931Y498530D01*
X266331Y497530D01*
X266351Y497530D01*
X266357Y497521D01*
X268057Y497421D01*
X268075Y497433D01*
G37*
G36*
X243822Y555127D02*
X243822Y555127D01*
X243856Y555125D01*
X243906Y555147D01*
X243959Y555159D01*
X243984Y555180D01*
X244015Y555193D01*
X244062Y555245D01*
X244092Y555269D01*
X244099Y555285D01*
X244113Y555300D01*
X247769Y561206D01*
X248810Y560235D01*
X248810Y555500D01*
X248821Y555450D01*
X248823Y555399D01*
X248841Y555367D01*
X248849Y555331D01*
X248882Y555292D01*
X248906Y555247D01*
X248936Y555226D01*
X248959Y555198D01*
X249006Y555177D01*
X249048Y555147D01*
X249090Y555139D01*
X249118Y555127D01*
X249148Y555128D01*
X249190Y555120D01*
X253090Y555120D01*
X253140Y555131D01*
X253191Y555133D01*
X253223Y555151D01*
X253259Y555159D01*
X253298Y555192D01*
X253343Y555216D01*
X253364Y555246D01*
X253392Y555269D01*
X253413Y555316D01*
X253443Y555358D01*
X253451Y555400D01*
X253463Y555428D01*
X253462Y555458D01*
X253470Y555500D01*
X253470Y572900D01*
X253460Y572943D01*
X253460Y572988D01*
X253441Y573027D01*
X253431Y573069D01*
X253402Y573103D01*
X253382Y573143D01*
X253343Y573176D01*
X253321Y573202D01*
X253297Y573213D01*
X253270Y573235D01*
X249370Y575335D01*
X249315Y575350D01*
X249262Y575373D01*
X249232Y575372D01*
X249203Y575380D01*
X249147Y575369D01*
X249089Y575367D01*
X249063Y575352D01*
X249033Y575346D01*
X248988Y575311D01*
X248937Y575284D01*
X248920Y575259D01*
X248896Y575241D01*
X248870Y575189D01*
X248837Y575142D01*
X248831Y575108D01*
X248819Y575085D01*
X248820Y575050D01*
X248810Y575000D01*
X248810Y565545D01*
X244564Y569963D01*
X244497Y570007D01*
X244432Y570053D01*
X244424Y570054D01*
X244419Y570058D01*
X244386Y570062D01*
X244290Y570080D01*
X239690Y570080D01*
X239663Y570074D01*
X239636Y570076D01*
X239580Y570054D01*
X239521Y570041D01*
X239500Y570023D01*
X239474Y570013D01*
X239434Y569969D01*
X239388Y569931D01*
X239376Y569905D01*
X239358Y569885D01*
X239341Y569827D01*
X239317Y569772D01*
X239318Y569745D01*
X239310Y569718D01*
X239321Y569659D01*
X239323Y569599D01*
X239337Y569575D01*
X239342Y569548D01*
X239388Y569481D01*
X239406Y569447D01*
X239416Y569440D01*
X239424Y569429D01*
X244501Y564447D01*
X238772Y555708D01*
X238747Y555639D01*
X238717Y555572D01*
X238717Y555559D01*
X238713Y555546D01*
X238721Y555473D01*
X238723Y555399D01*
X238730Y555387D01*
X238731Y555374D01*
X238771Y555312D01*
X238806Y555247D01*
X238817Y555239D01*
X238825Y555228D01*
X238888Y555190D01*
X238948Y555147D01*
X238963Y555144D01*
X238973Y555138D01*
X239012Y555135D01*
X239090Y555120D01*
X243790Y555120D01*
X243822Y555127D01*
G37*
G36*
X204340Y555131D02*
X204340Y555131D01*
X204391Y555133D01*
X204423Y555151D01*
X204459Y555159D01*
X204498Y555192D01*
X204543Y555216D01*
X204564Y555246D01*
X204592Y555269D01*
X204613Y555316D01*
X204643Y555358D01*
X204651Y555400D01*
X204663Y555428D01*
X204662Y555458D01*
X204670Y555500D01*
X204670Y563476D01*
X204767Y564249D01*
X204866Y564943D01*
X204953Y565466D01*
X205206Y565888D01*
X205450Y566212D01*
X205829Y566440D01*
X206259Y566526D01*
X206798Y566616D01*
X207535Y566524D01*
X208056Y566437D01*
X208436Y566209D01*
X208777Y565782D01*
X209051Y565326D01*
X209318Y564702D01*
X209410Y563879D01*
X209410Y555500D01*
X209421Y555450D01*
X209423Y555399D01*
X209441Y555367D01*
X209449Y555331D01*
X209482Y555292D01*
X209506Y555247D01*
X209536Y555226D01*
X209559Y555198D01*
X209606Y555177D01*
X209648Y555147D01*
X209690Y555139D01*
X209718Y555127D01*
X209748Y555128D01*
X209790Y555120D01*
X213690Y555120D01*
X213740Y555131D01*
X213791Y555133D01*
X213823Y555151D01*
X213859Y555159D01*
X213898Y555192D01*
X213943Y555216D01*
X213964Y555246D01*
X213992Y555269D01*
X214013Y555316D01*
X214043Y555358D01*
X214051Y555400D01*
X214063Y555428D01*
X214062Y555458D01*
X214070Y555500D01*
X214070Y569700D01*
X214059Y569750D01*
X214057Y569801D01*
X214039Y569833D01*
X214031Y569869D01*
X213998Y569908D01*
X213974Y569953D01*
X213944Y569974D01*
X213921Y570002D01*
X213874Y570023D01*
X213832Y570053D01*
X213790Y570061D01*
X213762Y570073D01*
X213732Y570072D01*
X213690Y570080D01*
X209990Y570080D01*
X209940Y570069D01*
X209889Y570067D01*
X209857Y570049D01*
X209821Y570041D01*
X209782Y570008D01*
X209737Y569984D01*
X209716Y569954D01*
X209688Y569931D01*
X209667Y569884D01*
X209637Y569842D01*
X209629Y569800D01*
X209617Y569772D01*
X209618Y569742D01*
X209610Y569700D01*
X209610Y568718D01*
X209359Y568969D01*
X209343Y568979D01*
X209328Y568997D01*
X208828Y569397D01*
X208814Y569403D01*
X208801Y569416D01*
X208201Y569816D01*
X208165Y569830D01*
X208110Y569861D01*
X206910Y570261D01*
X206885Y570263D01*
X206853Y570275D01*
X206253Y570375D01*
X206226Y570373D01*
X206190Y570380D01*
X205590Y570380D01*
X205578Y570377D01*
X205563Y570379D01*
X204163Y570279D01*
X204133Y570270D01*
X204090Y570267D01*
X202990Y569967D01*
X202958Y569950D01*
X202905Y569932D01*
X202005Y569432D01*
X201977Y569406D01*
X201921Y569369D01*
X201221Y568669D01*
X201203Y568639D01*
X201168Y568602D01*
X200668Y567802D01*
X200655Y567765D01*
X200626Y567709D01*
X200326Y566709D01*
X200325Y566690D01*
X200316Y566668D01*
X200116Y565568D01*
X200117Y565551D01*
X200111Y565529D01*
X200011Y564229D01*
X200013Y564216D01*
X200010Y564200D01*
X200010Y555500D01*
X200021Y555450D01*
X200023Y555399D01*
X200041Y555367D01*
X200049Y555331D01*
X200082Y555292D01*
X200106Y555247D01*
X200136Y555226D01*
X200159Y555198D01*
X200206Y555177D01*
X200248Y555147D01*
X200290Y555139D01*
X200318Y555127D01*
X200348Y555128D01*
X200390Y555120D01*
X204290Y555120D01*
X204340Y555131D01*
G37*
G36*
X225317Y554821D02*
X225317Y554821D01*
X225354Y554832D01*
X225420Y554843D01*
X226520Y555243D01*
X226542Y555257D01*
X226575Y555268D01*
X227475Y555768D01*
X227498Y555789D01*
X227537Y555811D01*
X228237Y556411D01*
X228254Y556434D01*
X228322Y556515D01*
X228822Y557415D01*
X228832Y557448D01*
X228854Y557491D01*
X229154Y558491D01*
X229155Y558510D01*
X229164Y558532D01*
X229364Y559632D01*
X229363Y559661D01*
X229370Y559700D01*
X229370Y569700D01*
X229359Y569750D01*
X229357Y569801D01*
X229339Y569833D01*
X229331Y569869D01*
X229298Y569908D01*
X229274Y569953D01*
X229244Y569974D01*
X229221Y570002D01*
X229174Y570023D01*
X229132Y570053D01*
X229090Y570061D01*
X229062Y570073D01*
X229032Y570072D01*
X228990Y570080D01*
X225190Y570080D01*
X225140Y570069D01*
X225089Y570067D01*
X225057Y570049D01*
X225021Y570041D01*
X224982Y570008D01*
X224937Y569984D01*
X224916Y569954D01*
X224888Y569931D01*
X224867Y569884D01*
X224837Y569842D01*
X224829Y569800D01*
X224817Y569772D01*
X224818Y569742D01*
X224810Y569700D01*
X224810Y561724D01*
X224614Y560155D01*
X224530Y559654D01*
X224031Y558988D01*
X223651Y558760D01*
X223221Y558674D01*
X222682Y558584D01*
X221945Y558676D01*
X221424Y558763D01*
X221026Y559002D01*
X220703Y559325D01*
X220435Y559860D01*
X220161Y560500D01*
X220070Y561224D01*
X220070Y569700D01*
X220059Y569750D01*
X220057Y569801D01*
X220039Y569833D01*
X220031Y569869D01*
X219998Y569908D01*
X219974Y569953D01*
X219944Y569974D01*
X219921Y570002D01*
X219874Y570023D01*
X219832Y570053D01*
X219790Y570061D01*
X219762Y570073D01*
X219732Y570072D01*
X219690Y570080D01*
X215790Y570080D01*
X215740Y570069D01*
X215689Y570067D01*
X215657Y570049D01*
X215621Y570041D01*
X215582Y570008D01*
X215537Y569984D01*
X215516Y569954D01*
X215488Y569931D01*
X215467Y569884D01*
X215437Y569842D01*
X215429Y569800D01*
X215417Y569772D01*
X215418Y569742D01*
X215410Y569700D01*
X215410Y555500D01*
X215421Y555450D01*
X215423Y555399D01*
X215441Y555367D01*
X215449Y555331D01*
X215482Y555292D01*
X215506Y555247D01*
X215536Y555226D01*
X215559Y555198D01*
X215606Y555177D01*
X215648Y555147D01*
X215690Y555139D01*
X215718Y555127D01*
X215748Y555128D01*
X215790Y555120D01*
X219490Y555120D01*
X219540Y555131D01*
X219591Y555133D01*
X219623Y555151D01*
X219659Y555159D01*
X219698Y555192D01*
X219743Y555216D01*
X219764Y555246D01*
X219792Y555269D01*
X219813Y555316D01*
X219843Y555358D01*
X219851Y555400D01*
X219863Y555428D01*
X219862Y555458D01*
X219870Y555500D01*
X219870Y556441D01*
X220093Y556162D01*
X220120Y556141D01*
X220152Y556103D01*
X220652Y555703D01*
X220682Y555689D01*
X220720Y555660D01*
X221320Y555360D01*
X221334Y555357D01*
X221349Y555347D01*
X221849Y555147D01*
X221859Y555145D01*
X221870Y555139D01*
X222470Y554939D01*
X222499Y554937D01*
X222536Y554924D01*
X223233Y554824D01*
X223828Y554725D01*
X223863Y554727D01*
X223917Y554721D01*
X225317Y554821D01*
G37*
G36*
X303922Y554821D02*
X303922Y554821D01*
X303935Y554825D01*
X303953Y554825D01*
X305153Y555025D01*
X305168Y555032D01*
X305190Y555033D01*
X306290Y555333D01*
X306318Y555348D01*
X306360Y555360D01*
X306680Y555520D01*
X307360Y555860D01*
X307389Y555884D01*
X307440Y555914D01*
X308240Y556614D01*
X308258Y556639D01*
X308290Y556667D01*
X308990Y557567D01*
X309006Y557602D01*
X309043Y557659D01*
X309443Y558659D01*
X309448Y558693D01*
X309466Y558742D01*
X309666Y560042D01*
X309660Y560122D01*
X309657Y560201D01*
X309653Y560207D01*
X309652Y560215D01*
X309612Y560283D01*
X309574Y560353D01*
X309568Y560357D01*
X309564Y560364D01*
X309497Y560407D01*
X309432Y560453D01*
X309424Y560454D01*
X309418Y560458D01*
X309385Y560462D01*
X309290Y560480D01*
X305590Y560480D01*
X305540Y560469D01*
X305489Y560467D01*
X305457Y560449D01*
X305421Y560441D01*
X305382Y560408D01*
X305337Y560384D01*
X305316Y560354D01*
X305288Y560331D01*
X305267Y560284D01*
X305237Y560242D01*
X305229Y560200D01*
X305217Y560172D01*
X305218Y560142D01*
X305210Y560100D01*
X305210Y559573D01*
X305056Y559188D01*
X304818Y558872D01*
X304136Y558360D01*
X303628Y558275D01*
X303622Y558273D01*
X303615Y558273D01*
X303121Y558174D01*
X302606Y558088D01*
X302282Y558169D01*
X302246Y558169D01*
X302190Y558180D01*
X301837Y558180D01*
X301523Y558259D01*
X301191Y558425D01*
X300840Y558688D01*
X300633Y558894D01*
X300482Y559500D01*
X300549Y559767D01*
X300690Y560050D01*
X301002Y560284D01*
X301450Y560552D01*
X301996Y560735D01*
X303573Y561129D01*
X304565Y561327D01*
X304568Y561329D01*
X304573Y561329D01*
X305473Y561529D01*
X305493Y561539D01*
X305524Y561544D01*
X306324Y561844D01*
X306330Y561848D01*
X306340Y561851D01*
X307040Y562151D01*
X307055Y562162D01*
X307079Y562170D01*
X307779Y562570D01*
X307787Y562578D01*
X307801Y562584D01*
X308401Y562984D01*
X308402Y562985D01*
X308405Y562986D01*
X308506Y563089D01*
X308906Y563689D01*
X308917Y563717D01*
X308940Y563750D01*
X309240Y564450D01*
X309246Y564489D01*
X309252Y564508D01*
X309264Y564534D01*
X309264Y564544D01*
X309268Y564558D01*
X309368Y565458D01*
X309364Y565489D01*
X309369Y565532D01*
X309269Y566732D01*
X309257Y566769D01*
X309243Y566841D01*
X308843Y567841D01*
X308823Y567870D01*
X308776Y567950D01*
X308076Y568750D01*
X308057Y568764D01*
X308037Y568789D01*
X307337Y569389D01*
X307305Y569406D01*
X307260Y569440D01*
X306260Y569940D01*
X306223Y569949D01*
X306165Y569973D01*
X305165Y570173D01*
X305162Y570173D01*
X305158Y570174D01*
X304058Y570374D01*
X304029Y570373D01*
X303990Y570380D01*
X301690Y570380D01*
X301662Y570374D01*
X301622Y570374D01*
X300522Y570174D01*
X300505Y570167D01*
X300481Y570164D01*
X299481Y569864D01*
X299462Y569854D01*
X299436Y569847D01*
X298536Y569447D01*
X298508Y569427D01*
X298462Y569404D01*
X297662Y568804D01*
X297637Y568774D01*
X297586Y568728D01*
X296986Y567928D01*
X296974Y567902D01*
X296950Y567870D01*
X296450Y566870D01*
X296441Y566832D01*
X296415Y566763D01*
X296215Y565563D01*
X296220Y565481D01*
X296223Y565399D01*
X296226Y565395D01*
X296226Y565390D01*
X296267Y565319D01*
X296306Y565247D01*
X296310Y565244D01*
X296313Y565240D01*
X296381Y565194D01*
X296448Y565147D01*
X296453Y565146D01*
X296457Y565144D01*
X296485Y565140D01*
X296590Y565120D01*
X300290Y565120D01*
X300303Y565123D01*
X300317Y565121D01*
X300387Y565142D01*
X300459Y565159D01*
X300469Y565168D01*
X300482Y565172D01*
X300536Y565223D01*
X300592Y565269D01*
X300598Y565282D01*
X300608Y565291D01*
X300663Y565425D01*
X300756Y565891D01*
X300928Y566322D01*
X301064Y566526D01*
X301281Y566671D01*
X301646Y566853D01*
X302063Y567020D01*
X303628Y567020D01*
X303870Y566939D01*
X303883Y566938D01*
X303898Y566931D01*
X304284Y566835D01*
X304446Y566781D01*
X304710Y566385D01*
X304710Y566147D01*
X304640Y565867D01*
X304418Y565572D01*
X304089Y565325D01*
X303544Y565052D01*
X303005Y564873D01*
X302243Y564777D01*
X302224Y564770D01*
X302198Y564769D01*
X299802Y564170D01*
X298908Y563971D01*
X298872Y563954D01*
X298801Y563930D01*
X297401Y563130D01*
X297381Y563111D01*
X297347Y563092D01*
X296747Y562592D01*
X296723Y562561D01*
X296718Y562556D01*
X296717Y562555D01*
X296674Y562511D01*
X296274Y561911D01*
X296263Y561883D01*
X296241Y561850D01*
X295941Y561150D01*
X295934Y561111D01*
X295912Y561042D01*
X295812Y560142D01*
X295817Y560104D01*
X295814Y560042D01*
X296014Y558742D01*
X296026Y558713D01*
X296033Y558670D01*
X296433Y557570D01*
X296454Y557537D01*
X296486Y557472D01*
X297086Y556672D01*
X297111Y556651D01*
X297140Y556614D01*
X297940Y555914D01*
X297973Y555896D01*
X298020Y555860D01*
X299020Y555360D01*
X299050Y555353D01*
X299090Y555333D01*
X300190Y555033D01*
X300207Y555033D01*
X300228Y555025D01*
X301428Y554825D01*
X301442Y554826D01*
X301458Y554821D01*
X302658Y554721D01*
X302685Y554725D01*
X302722Y554721D01*
X303922Y554821D01*
G37*
G36*
X292064Y497426D02*
X292064Y497426D01*
X292069Y497422D01*
X293669Y497722D01*
X293688Y497743D01*
X293702Y497744D01*
X294502Y499044D01*
X294500Y499063D01*
X294509Y499070D01*
X294509Y512670D01*
X294501Y512680D01*
X294506Y512688D01*
X294006Y513988D01*
X293980Y514004D01*
X293976Y514017D01*
X292476Y514517D01*
X292463Y514513D01*
X292458Y514519D01*
X290258Y514419D01*
X290249Y514412D01*
X290243Y514408D01*
X290234Y514412D01*
X289134Y513712D01*
X289132Y513707D01*
X289128Y513708D01*
X288557Y513232D01*
X287288Y514111D01*
X287278Y514110D01*
X287276Y514116D01*
X285576Y514716D01*
X285563Y514712D01*
X285557Y514719D01*
X283957Y514619D01*
X283952Y514615D01*
X283949Y514618D01*
X282249Y514218D01*
X282232Y514197D01*
X282218Y514196D01*
X281418Y512896D01*
X281420Y512875D01*
X281411Y512867D01*
X281511Y511167D01*
X281519Y511158D01*
X281514Y511151D01*
X282214Y509451D01*
X282231Y509441D01*
X282232Y509430D01*
X283532Y508530D01*
X283561Y508531D01*
X283572Y508522D01*
X285171Y508922D01*
X286752Y509218D01*
X288221Y508435D01*
X288811Y506961D01*
X288811Y500170D01*
X288812Y500168D01*
X288811Y500167D01*
X288911Y498667D01*
X288928Y498647D01*
X288927Y498634D01*
X290027Y497634D01*
X290049Y497632D01*
X290055Y497621D01*
X292055Y497421D01*
X292064Y497426D01*
G37*
G36*
X180464Y497426D02*
X180464Y497426D01*
X180469Y497422D01*
X182169Y497722D01*
X182190Y497745D01*
X182203Y497747D01*
X182903Y499047D01*
X182901Y499064D01*
X182909Y499070D01*
X182909Y512670D01*
X182901Y512680D01*
X182906Y512688D01*
X182406Y513988D01*
X182381Y514003D01*
X182377Y514016D01*
X180977Y514516D01*
X180964Y514512D01*
X180958Y514519D01*
X178658Y514419D01*
X178649Y514412D01*
X178643Y514408D01*
X178634Y514412D01*
X177534Y513712D01*
X177532Y513707D01*
X177528Y513708D01*
X176957Y513232D01*
X175688Y514111D01*
X175678Y514110D01*
X175676Y514116D01*
X173976Y514716D01*
X173963Y514712D01*
X173957Y514719D01*
X172357Y514619D01*
X172352Y514615D01*
X172349Y514618D01*
X170649Y514218D01*
X170632Y514197D01*
X170618Y514196D01*
X169818Y512896D01*
X169820Y512875D01*
X169811Y512867D01*
X169911Y511167D01*
X169919Y511158D01*
X169914Y511151D01*
X170614Y509451D01*
X170631Y509441D01*
X170632Y509430D01*
X171932Y508530D01*
X171961Y508531D01*
X171972Y508522D01*
X173571Y508922D01*
X175152Y509218D01*
X176621Y508435D01*
X177211Y506961D01*
X177211Y500170D01*
X177214Y500166D01*
X177211Y500164D01*
X177411Y498664D01*
X177427Y498648D01*
X177425Y498635D01*
X178425Y497635D01*
X178448Y497632D01*
X178455Y497621D01*
X180455Y497421D01*
X180464Y497426D01*
G37*
G36*
X236740Y555131D02*
X236740Y555131D01*
X236791Y555133D01*
X236823Y555151D01*
X236859Y555159D01*
X236898Y555192D01*
X236943Y555216D01*
X236964Y555246D01*
X236992Y555269D01*
X237013Y555316D01*
X237043Y555358D01*
X237051Y555400D01*
X237063Y555428D01*
X237062Y555458D01*
X237070Y555500D01*
X237070Y566720D01*
X240590Y566720D01*
X240641Y566732D01*
X240694Y566734D01*
X240724Y566751D01*
X240759Y566759D01*
X240799Y566793D01*
X240845Y566818D01*
X240865Y566847D01*
X240892Y566869D01*
X240914Y566917D01*
X240944Y566961D01*
X240949Y566995D01*
X240963Y567028D01*
X240961Y567080D01*
X240969Y567132D01*
X240958Y567165D01*
X240957Y567201D01*
X240932Y567247D01*
X240915Y567297D01*
X240888Y567327D01*
X240874Y567353D01*
X240848Y567371D01*
X240818Y567404D01*
X240440Y567688D01*
X238859Y569269D01*
X238839Y569281D01*
X238818Y569304D01*
X238462Y569572D01*
X238194Y569928D01*
X238182Y569939D01*
X238174Y569953D01*
X238116Y569994D01*
X238061Y570039D01*
X238046Y570043D01*
X238032Y570053D01*
X237905Y570077D01*
X237893Y570080D01*
X237892Y570080D01*
X237890Y570080D01*
X237070Y570080D01*
X237070Y571700D01*
X237064Y571726D01*
X237046Y571834D01*
X236746Y572634D01*
X236742Y572640D01*
X236740Y572650D01*
X236440Y573350D01*
X236416Y573381D01*
X236382Y573443D01*
X235882Y574043D01*
X235852Y574066D01*
X235811Y574109D01*
X235111Y574609D01*
X235087Y574619D01*
X235060Y574640D01*
X234260Y575040D01*
X234233Y575047D01*
X234199Y575064D01*
X233199Y575364D01*
X233160Y575367D01*
X233090Y575380D01*
X230190Y575380D01*
X230175Y575377D01*
X230160Y575379D01*
X230028Y575342D01*
X230021Y575341D01*
X230021Y575340D01*
X230020Y575340D01*
X229820Y575240D01*
X229781Y575208D01*
X229737Y575184D01*
X229716Y575153D01*
X229687Y575129D01*
X229666Y575083D01*
X229637Y575042D01*
X229629Y574999D01*
X229616Y574971D01*
X229617Y574955D01*
X229618Y574941D01*
X229610Y574900D01*
X229610Y572100D01*
X229621Y572050D01*
X229623Y571999D01*
X229641Y571967D01*
X229649Y571931D01*
X229682Y571892D01*
X229706Y571847D01*
X229736Y571826D01*
X229759Y571798D01*
X229806Y571777D01*
X229848Y571747D01*
X229890Y571739D01*
X229918Y571727D01*
X229948Y571728D01*
X229990Y571720D01*
X231643Y571720D01*
X231957Y571641D01*
X232230Y571505D01*
X232361Y571309D01*
X232410Y571210D01*
X232410Y570900D01*
X232418Y570864D01*
X232421Y570808D01*
X232510Y570453D01*
X232510Y570080D01*
X230190Y570080D01*
X230140Y570069D01*
X230089Y570067D01*
X230057Y570049D01*
X230021Y570041D01*
X229982Y570008D01*
X229937Y569984D01*
X229916Y569954D01*
X229888Y569931D01*
X229867Y569884D01*
X229837Y569842D01*
X229829Y569800D01*
X229817Y569772D01*
X229818Y569742D01*
X229810Y569700D01*
X229810Y567100D01*
X229821Y567050D01*
X229823Y566999D01*
X229841Y566967D01*
X229849Y566931D01*
X229882Y566892D01*
X229906Y566847D01*
X229936Y566826D01*
X229959Y566798D01*
X230006Y566777D01*
X230048Y566747D01*
X230090Y566739D01*
X230118Y566727D01*
X230148Y566728D01*
X230190Y566720D01*
X232510Y566720D01*
X232510Y555500D01*
X232521Y555450D01*
X232523Y555399D01*
X232541Y555367D01*
X232549Y555331D01*
X232582Y555292D01*
X232606Y555247D01*
X232636Y555226D01*
X232659Y555198D01*
X232706Y555177D01*
X232748Y555147D01*
X232790Y555139D01*
X232818Y555127D01*
X232848Y555128D01*
X232890Y555120D01*
X236690Y555120D01*
X236740Y555131D01*
G37*
G36*
X263740Y555131D02*
X263740Y555131D01*
X263791Y555133D01*
X263823Y555151D01*
X263859Y555159D01*
X263898Y555192D01*
X263943Y555216D01*
X263964Y555246D01*
X263992Y555269D01*
X264013Y555316D01*
X264043Y555358D01*
X264051Y555400D01*
X264063Y555428D01*
X264062Y555458D01*
X264070Y555500D01*
X264070Y569000D01*
X264067Y569013D01*
X264069Y569027D01*
X264048Y569097D01*
X264031Y569169D01*
X264022Y569179D01*
X264018Y569192D01*
X263967Y569246D01*
X263921Y569302D01*
X263908Y569308D01*
X263899Y569318D01*
X263765Y569373D01*
X263273Y569471D01*
X262882Y569569D01*
X262846Y569569D01*
X262790Y569580D01*
X262328Y569580D01*
X261873Y569671D01*
X261482Y569769D01*
X261474Y569769D01*
X261465Y569773D01*
X260473Y569971D01*
X260082Y570069D01*
X260072Y570069D01*
X260062Y570073D01*
X259986Y570070D01*
X259909Y570072D01*
X259900Y570067D01*
X259889Y570067D01*
X259822Y570030D01*
X259753Y569997D01*
X259746Y569989D01*
X259737Y569984D01*
X259693Y569921D01*
X259645Y569861D01*
X259643Y569851D01*
X259637Y569842D01*
X259610Y569700D01*
X259610Y568284D01*
X259487Y568438D01*
X259484Y568440D01*
X259482Y568443D01*
X258982Y569043D01*
X258967Y569055D01*
X258963Y569062D01*
X258949Y569071D01*
X258928Y569097D01*
X258428Y569497D01*
X258404Y569508D01*
X258379Y569530D01*
X257679Y569930D01*
X257649Y569939D01*
X257610Y569961D01*
X257010Y570161D01*
X257003Y570161D01*
X256994Y570166D01*
X256294Y570366D01*
X256256Y570368D01*
X256190Y570380D01*
X254790Y570380D01*
X254716Y570363D01*
X254641Y570350D01*
X254631Y570343D01*
X254621Y570341D01*
X254592Y570317D01*
X254521Y570269D01*
X254520Y570268D01*
X254489Y570267D01*
X254457Y570249D01*
X254421Y570241D01*
X254382Y570208D01*
X254337Y570184D01*
X254316Y570154D01*
X254288Y570131D01*
X254267Y570084D01*
X254237Y570042D01*
X254229Y570000D01*
X254217Y569972D01*
X254218Y569942D01*
X254210Y569900D01*
X254210Y566300D01*
X254221Y566250D01*
X254223Y566199D01*
X254241Y566167D01*
X254249Y566131D01*
X254282Y566092D01*
X254306Y566047D01*
X254336Y566026D01*
X254359Y565998D01*
X254406Y565977D01*
X254448Y565947D01*
X254490Y565939D01*
X254518Y565927D01*
X254548Y565928D01*
X254590Y565920D01*
X254690Y565920D01*
X254705Y565923D01*
X254720Y565921D01*
X254852Y565958D01*
X254859Y565959D01*
X254859Y565960D01*
X254860Y565960D01*
X254980Y566020D01*
X255971Y566020D01*
X256925Y565924D01*
X257647Y565744D01*
X258242Y565404D01*
X258676Y564882D01*
X259037Y564251D01*
X259221Y563606D01*
X259410Y562758D01*
X259410Y555500D01*
X259421Y555450D01*
X259423Y555399D01*
X259441Y555367D01*
X259449Y555331D01*
X259482Y555292D01*
X259506Y555247D01*
X259536Y555226D01*
X259559Y555198D01*
X259606Y555177D01*
X259648Y555147D01*
X259690Y555139D01*
X259718Y555127D01*
X259748Y555128D01*
X259790Y555120D01*
X263690Y555120D01*
X263740Y555131D01*
G37*
%LPC*%
G36*
X70028Y274749D02*
X70028Y274749D01*
X69455Y274940D01*
X69169Y275512D01*
X69169Y282300D01*
X69133Y282347D01*
X69126Y282342D01*
X69120Y282349D01*
X66432Y282349D01*
X65865Y282633D01*
X65770Y283299D01*
X65864Y283867D01*
X66432Y284151D01*
X74112Y284151D01*
X74676Y283963D01*
X74771Y283392D01*
X74815Y283351D01*
X74819Y283355D01*
X74823Y283351D01*
X76623Y283451D01*
X76656Y283479D01*
X76666Y283482D01*
X76857Y283961D01*
X77428Y284151D01*
X78102Y284151D01*
X78771Y283577D01*
X78771Y278700D01*
X78779Y278689D01*
X78777Y278676D01*
X78790Y278674D01*
X78807Y278653D01*
X78818Y278661D01*
X78820Y278658D01*
X78827Y278658D01*
X78840Y278667D01*
X78855Y278665D01*
X79055Y278865D01*
X79056Y278870D01*
X79059Y278870D01*
X79359Y279270D01*
X82459Y283370D01*
X82459Y283373D01*
X82461Y283373D01*
X82851Y283958D01*
X83527Y284151D01*
X84203Y284151D01*
X84675Y283773D01*
X84771Y283196D01*
X84771Y275704D01*
X84674Y275124D01*
X84300Y274749D01*
X83428Y274749D01*
X82857Y274940D01*
X82669Y275409D01*
X82669Y280000D01*
X82659Y280013D01*
X82660Y280029D01*
X82647Y280030D01*
X82633Y280047D01*
X82619Y280037D01*
X82610Y280037D01*
X82601Y280030D01*
X82581Y280030D01*
X78883Y275233D01*
X78400Y274749D01*
X77623Y274749D01*
X76950Y274845D01*
X76667Y275317D01*
X76569Y275904D01*
X76569Y282697D01*
X76669Y283393D01*
X76640Y283445D01*
X76627Y283438D01*
X76617Y283449D01*
X74817Y283349D01*
X74772Y283311D01*
X74773Y283309D01*
X74771Y283308D01*
X74675Y282727D01*
X74203Y282349D01*
X71520Y282349D01*
X71473Y282313D01*
X71475Y282310D01*
X71471Y282308D01*
X71371Y281708D01*
X71374Y281703D01*
X71371Y281700D01*
X71371Y275604D01*
X71276Y275033D01*
X70708Y274749D01*
X70028Y274749D01*
G37*
%LPD*%
G36*
X526084Y62924D02*
X526084Y62924D01*
X526087Y62921D01*
X526787Y63021D01*
X526792Y63026D01*
X526796Y63023D01*
X527396Y63223D01*
X527399Y63228D01*
X527402Y63226D01*
X528602Y63826D01*
X528607Y63836D01*
X528615Y63835D01*
X529615Y64835D01*
X529616Y64844D01*
X529622Y64845D01*
X529922Y65345D01*
X529922Y65348D01*
X529924Y65348D01*
X530224Y65948D01*
X530223Y65955D01*
X530227Y65956D01*
X530243Y66010D01*
X530257Y66059D01*
X530299Y66207D01*
X530341Y66355D01*
X530355Y66404D01*
X530397Y66552D01*
X530398Y66552D01*
X530397Y66552D01*
X530427Y66656D01*
X530426Y66660D01*
X530429Y66662D01*
X530529Y67262D01*
X530526Y67267D01*
X530529Y67270D01*
X530529Y70070D01*
X530526Y70074D01*
X530529Y70077D01*
X530429Y70777D01*
X530416Y70789D01*
X530419Y70800D01*
X530119Y71200D01*
X530094Y71207D01*
X530087Y71219D01*
X529387Y71319D01*
X529382Y71316D01*
X529380Y71319D01*
X521880Y71319D01*
X521871Y71312D01*
X521864Y71317D01*
X521264Y71117D01*
X521251Y71097D01*
X521238Y71095D01*
X520938Y70595D01*
X520940Y70577D01*
X520931Y70570D01*
X520931Y67370D01*
X520934Y67366D01*
X520931Y67363D01*
X521031Y66663D01*
X521036Y66658D01*
X521033Y66654D01*
X521233Y66054D01*
X521238Y66051D01*
X521236Y66048D01*
X521836Y64848D01*
X521846Y64843D01*
X521845Y64835D01*
X522845Y63835D01*
X522857Y63834D01*
X522858Y63826D01*
X523457Y63527D01*
X523955Y63228D01*
X523964Y63229D01*
X523966Y63223D01*
X524666Y63023D01*
X524671Y63025D01*
X524673Y63021D01*
X525373Y62921D01*
X525378Y62924D01*
X525380Y62921D01*
X526080Y62921D01*
X526084Y62924D01*
G37*
G36*
X-41815Y335164D02*
X-41815Y335164D01*
X-41812Y335161D01*
X-41212Y335261D01*
X-41191Y335283D01*
X-41178Y335285D01*
X-40878Y335785D01*
X-40878Y335788D01*
X-40880Y335803D01*
X-40871Y335810D01*
X-40871Y339010D01*
X-40874Y339014D01*
X-40871Y339017D01*
X-40971Y339717D01*
X-40976Y339722D01*
X-40973Y339726D01*
X-41173Y340326D01*
X-41178Y340329D01*
X-41176Y340332D01*
X-41776Y341532D01*
X-41786Y341537D01*
X-41785Y341545D01*
X-42785Y342545D01*
X-42792Y342546D01*
X-42793Y342551D01*
X-43393Y342951D01*
X-43400Y342951D01*
X-43402Y342956D01*
X-43902Y343156D01*
X-43905Y343155D01*
X-43906Y343157D01*
X-44606Y343357D01*
X-44611Y343356D01*
X-44613Y343359D01*
X-45313Y343459D01*
X-45318Y343456D01*
X-45320Y343459D01*
X-46020Y343459D01*
X-46024Y343456D01*
X-46027Y343459D01*
X-46727Y343359D01*
X-46732Y343354D01*
X-46736Y343357D01*
X-47936Y342957D01*
X-47941Y342949D01*
X-47947Y342951D01*
X-48547Y342551D01*
X-48548Y342548D01*
X-48551Y342548D01*
X-49051Y342148D01*
X-49053Y342141D01*
X-49058Y342142D01*
X-49558Y341542D01*
X-49558Y341536D01*
X-49562Y341535D01*
X-49862Y341035D01*
X-49862Y341032D01*
X-49864Y341032D01*
X-50164Y340432D01*
X-50163Y340427D01*
X-50167Y340426D01*
X-50367Y339826D01*
X-50365Y339819D01*
X-50369Y339817D01*
X-50469Y339117D01*
X-50467Y339114D01*
X-50466Y339113D01*
X-50466Y339112D01*
X-50469Y339110D01*
X-50469Y336410D01*
X-50466Y336406D01*
X-50469Y336404D01*
X-50369Y335604D01*
X-50356Y335591D01*
X-50359Y335580D01*
X-50059Y335180D01*
X-50028Y335172D01*
X-50020Y335161D01*
X-41820Y335161D01*
X-41815Y335164D01*
G37*
G36*
X-41916Y325664D02*
X-41916Y325664D01*
X-41913Y325661D01*
X-41213Y325761D01*
X-41191Y325783D01*
X-41178Y325785D01*
X-40878Y326285D01*
X-40878Y326288D01*
X-40880Y326303D01*
X-40871Y326310D01*
X-40871Y332510D01*
X-40882Y332525D01*
X-40878Y332535D01*
X-41178Y333035D01*
X-41206Y333047D01*
X-41213Y333059D01*
X-41913Y333159D01*
X-41921Y333154D01*
X-41925Y333159D01*
X-42825Y333059D01*
X-42846Y333040D01*
X-42859Y333040D01*
X-43159Y332640D01*
X-43159Y332625D01*
X-43168Y332618D01*
X-43169Y332618D01*
X-43269Y332018D01*
X-43266Y332013D01*
X-43269Y332010D01*
X-43269Y328614D01*
X-43362Y328059D01*
X-44015Y328059D01*
X-44471Y328150D01*
X-44471Y330810D01*
X-44478Y330819D01*
X-44473Y330826D01*
X-44673Y331426D01*
X-44693Y331439D01*
X-44695Y331452D01*
X-45195Y331752D01*
X-45213Y331750D01*
X-45220Y331759D01*
X-46120Y331759D01*
X-46135Y331748D01*
X-46145Y331752D01*
X-46645Y331452D01*
X-46654Y331430D01*
X-46667Y331426D01*
X-46867Y330826D01*
X-46865Y330819D01*
X-46869Y330817D01*
X-46969Y330117D01*
X-46966Y330112D01*
X-46969Y330110D01*
X-46969Y328059D01*
X-48071Y328059D01*
X-48071Y332110D01*
X-48074Y332115D01*
X-48071Y332118D01*
X-48171Y332718D01*
X-48193Y332739D01*
X-48195Y332752D01*
X-48695Y333052D01*
X-48709Y333051D01*
X-48714Y333059D01*
X-49514Y333159D01*
X-49526Y333152D01*
X-49534Y333157D01*
X-50234Y332957D01*
X-50253Y332932D01*
X-50266Y332928D01*
X-50466Y332428D01*
X-50464Y332424D01*
X-50467Y332421D01*
X-50463Y332415D01*
X-50469Y332410D01*
X-50469Y326210D01*
X-50453Y326189D01*
X-50455Y326175D01*
X-50055Y325775D01*
X-50034Y325772D01*
X-50028Y325761D01*
X-49428Y325661D01*
X-49423Y325664D01*
X-49420Y325661D01*
X-41920Y325661D01*
X-41916Y325664D01*
G37*
%LPC*%
G36*
X252614Y53533D02*
X252614Y53533D01*
X252285Y53540D01*
X249726Y60615D01*
X249635Y60877D01*
X249819Y60883D01*
X251893Y60883D01*
X251995Y60544D01*
X253395Y55921D01*
X253409Y55908D01*
X253415Y55891D01*
X253433Y55888D01*
X253447Y55877D01*
X253464Y55885D01*
X253482Y55882D01*
X253498Y55900D01*
X253508Y55906D01*
X253510Y55915D01*
X253516Y55922D01*
X253614Y56278D01*
X254963Y60885D01*
X255365Y60883D01*
X256953Y60883D01*
X257250Y60874D01*
X258590Y56136D01*
X258597Y56129D01*
X258597Y56119D01*
X258640Y56092D01*
X258641Y56091D01*
X258790Y56070D01*
X258806Y56077D01*
X258825Y56075D01*
X258840Y56093D01*
X258851Y56098D01*
X258851Y56106D01*
X258859Y56114D01*
X260208Y60687D01*
X260265Y60883D01*
X262601Y60883D01*
X262529Y60692D01*
X262534Y60666D01*
X259942Y53538D01*
X259581Y53533D01*
X257994Y53533D01*
X257608Y53552D01*
X256335Y57633D01*
X256334Y57634D01*
X256335Y57635D01*
X256177Y58072D01*
X256164Y58082D01*
X256160Y58098D01*
X256139Y58101D01*
X256123Y58113D01*
X256109Y58106D01*
X256093Y58108D01*
X256074Y58087D01*
X256063Y58081D01*
X256063Y58074D01*
X256058Y58069D01*
X254666Y53556D01*
X254200Y53533D01*
X252614Y53533D01*
G37*
%LPD*%
G36*
X529485Y110924D02*
X529485Y110924D01*
X529488Y110921D01*
X530088Y111021D01*
X530103Y111037D01*
X530115Y111035D01*
X530515Y111435D01*
X530516Y111447D01*
X530520Y111449D01*
X530517Y111453D01*
X530519Y111462D01*
X530529Y111470D01*
X530529Y112270D01*
X530526Y112274D01*
X530529Y112277D01*
X530429Y112977D01*
X530399Y113006D01*
X530396Y113017D01*
X529796Y113217D01*
X529790Y113215D01*
X529788Y113219D01*
X529188Y113319D01*
X529183Y113316D01*
X529180Y113319D01*
X527183Y113319D01*
X526403Y113417D01*
X526032Y113787D01*
X526125Y114440D01*
X526594Y114721D01*
X529280Y114721D01*
X529284Y114724D01*
X529287Y114721D01*
X529987Y114821D01*
X529999Y114834D01*
X530010Y114831D01*
X530410Y115131D01*
X530417Y115157D01*
X530429Y115164D01*
X530529Y115964D01*
X530524Y115972D01*
X530529Y115976D01*
X530429Y116776D01*
X530410Y116796D01*
X530410Y116809D01*
X530010Y117109D01*
X529988Y117109D01*
X529980Y117119D01*
X527283Y117119D01*
X526503Y117217D01*
X526126Y117594D01*
X526033Y118153D01*
X526403Y118523D01*
X527184Y118621D01*
X529882Y118721D01*
X529895Y118732D01*
X529905Y118728D01*
X530405Y119028D01*
X530417Y119056D01*
X530429Y119062D01*
X530529Y119662D01*
X530524Y119671D01*
X530529Y119675D01*
X530429Y120575D01*
X530410Y120596D01*
X530410Y120609D01*
X530010Y120909D01*
X529993Y120909D01*
X529988Y120919D01*
X529388Y121019D01*
X529385Y121017D01*
X529382Y121017D01*
X529380Y121019D01*
X524580Y121019D01*
X524577Y121017D01*
X524573Y121017D01*
X524569Y121014D01*
X524564Y121017D01*
X523964Y120817D01*
X523951Y120797D01*
X523938Y120795D01*
X523638Y120295D01*
X523638Y120292D01*
X523638Y120291D01*
X523640Y120277D01*
X523631Y120270D01*
X523631Y119470D01*
X523642Y119455D01*
X523638Y119445D01*
X523938Y118945D01*
X523956Y118937D01*
X523958Y118926D01*
X524491Y118660D01*
X523948Y118208D01*
X523946Y118196D01*
X523938Y118195D01*
X523638Y117695D01*
X523639Y117686D01*
X523633Y117681D01*
X523637Y117675D01*
X523631Y117670D01*
X523631Y116970D01*
X523638Y116961D01*
X523633Y116954D01*
X523833Y116354D01*
X523838Y116351D01*
X523836Y116348D01*
X524136Y115748D01*
X524149Y115741D01*
X524149Y115732D01*
X524616Y115358D01*
X524340Y114898D01*
X523942Y114401D01*
X523941Y114391D01*
X523935Y114389D01*
X523635Y113689D01*
X523638Y113676D01*
X523631Y113670D01*
X523631Y113070D01*
X523637Y113062D01*
X523633Y113056D01*
X523833Y112356D01*
X523844Y112348D01*
X523842Y112339D01*
X524242Y111839D01*
X524246Y111838D01*
X524245Y111835D01*
X524645Y111435D01*
X524654Y111434D01*
X524655Y111428D01*
X525155Y111128D01*
X525169Y111129D01*
X525173Y111121D01*
X526573Y110921D01*
X526578Y110924D01*
X526580Y110921D01*
X529480Y110921D01*
X529485Y110924D01*
G37*
%LPC*%
G36*
X52724Y222549D02*
X52724Y222549D01*
X52151Y222645D01*
X51868Y223116D01*
X51771Y223991D01*
X52056Y224561D01*
X52529Y224751D01*
X56620Y224751D01*
X56650Y224773D01*
X56662Y224775D01*
X56962Y225275D01*
X56962Y225281D01*
X56965Y225283D01*
X56961Y225290D01*
X56960Y225293D01*
X56969Y225300D01*
X56969Y225900D01*
X56940Y225938D01*
X56938Y225946D01*
X56438Y226146D01*
X56425Y226142D01*
X56420Y226149D01*
X54324Y226149D01*
X53744Y226246D01*
X53367Y226623D01*
X53270Y227400D01*
X53365Y228070D01*
X53834Y228351D01*
X56520Y228351D01*
X56538Y228364D01*
X56550Y228361D01*
X56950Y228661D01*
X56954Y228677D01*
X56961Y228682D01*
X56957Y228687D01*
X56959Y228692D01*
X56969Y228700D01*
X56969Y229400D01*
X56953Y229421D01*
X56955Y229435D01*
X56555Y229835D01*
X56528Y229839D01*
X56520Y229849D01*
X52429Y229849D01*
X51960Y230037D01*
X51770Y230605D01*
X51867Y231481D01*
X52150Y231857D01*
X52827Y232051D01*
X57517Y232051D01*
X58313Y231951D01*
X58885Y231856D01*
X59072Y231388D01*
X59171Y230597D01*
X59171Y223903D01*
X59072Y223115D01*
X58886Y222741D01*
X58213Y222549D01*
X52724Y222549D01*
G37*
%LPD*%
%LPC*%
G36*
X-60480Y297866D02*
X-60480Y297866D01*
X-60975Y298162D01*
X-60980Y298162D01*
X-60981Y298165D01*
X-62181Y298665D01*
X-62201Y298660D01*
X-62210Y298668D01*
X-62710Y298568D01*
X-62719Y298558D01*
X-62727Y298561D01*
X-63322Y298165D01*
X-63916Y297967D01*
X-64508Y297769D01*
X-65197Y297769D01*
X-65885Y297868D01*
X-66475Y298163D01*
X-67066Y298557D01*
X-67460Y299049D01*
X-67857Y299645D01*
X-68154Y300239D01*
X-68351Y300828D01*
X-68351Y304292D01*
X-66053Y302796D01*
X-66149Y302127D01*
X-66146Y302122D01*
X-66149Y302120D01*
X-66149Y301520D01*
X-66146Y301516D01*
X-66149Y301513D01*
X-66049Y300813D01*
X-66036Y300800D01*
X-66038Y300789D01*
X-65638Y300289D01*
X-65624Y300286D01*
X-65622Y300276D01*
X-65022Y299976D01*
X-65002Y299980D01*
X-64993Y299971D01*
X-64293Y300071D01*
X-64275Y300090D01*
X-64262Y300089D01*
X-63862Y300589D01*
X-63861Y300608D01*
X-63851Y300613D01*
X-63751Y301313D01*
X-63754Y301318D01*
X-63751Y301320D01*
X-63751Y302620D01*
X-63767Y302641D01*
X-63765Y302655D01*
X-63965Y302855D01*
X-63992Y302859D01*
X-64000Y302869D01*
X-65985Y302869D01*
X-68324Y304392D01*
X-68159Y304887D01*
X-68115Y304873D01*
X-68093Y304881D01*
X-68082Y304874D01*
X-67591Y305071D01*
X-60103Y305071D01*
X-59415Y304972D01*
X-59041Y304786D01*
X-58850Y304116D01*
X-58947Y303247D01*
X-59320Y302967D01*
X-60003Y302869D01*
X-61300Y302869D01*
X-61343Y302837D01*
X-61347Y302836D01*
X-61547Y302236D01*
X-61543Y302225D01*
X-61549Y302220D01*
X-61549Y300920D01*
X-61527Y300891D01*
X-61526Y300878D01*
X-60726Y300378D01*
X-60721Y300379D01*
X-60720Y300375D01*
X-59134Y299681D01*
X-58852Y299210D01*
X-58947Y298637D01*
X-59336Y297956D01*
X-59807Y297673D01*
X-60480Y297866D01*
G37*
%LPD*%
%LPC*%
G36*
X50729Y233349D02*
X50729Y233349D01*
X50269Y233533D01*
X50269Y234191D01*
X50453Y234651D01*
X89199Y234651D01*
X88395Y233349D01*
X50729Y233349D01*
G37*
%LPD*%
G36*
X-41812Y315669D02*
X-41812Y315669D01*
X-41804Y315663D01*
X-41204Y315863D01*
X-41191Y315883D01*
X-41178Y315885D01*
X-40878Y316385D01*
X-40880Y316403D01*
X-40871Y316410D01*
X-40871Y321810D01*
X-40874Y321814D01*
X-40871Y321817D01*
X-40971Y322517D01*
X-40984Y322530D01*
X-40982Y322541D01*
X-41382Y323041D01*
X-41401Y323046D01*
X-41404Y323057D01*
X-42004Y323257D01*
X-42020Y323252D01*
X-42027Y323259D01*
X-42727Y323159D01*
X-42739Y323147D01*
X-42749Y323150D01*
X-48087Y319196D01*
X-48171Y319615D01*
X-48171Y322310D01*
X-48174Y322314D01*
X-48171Y322317D01*
X-48271Y323017D01*
X-48290Y323035D01*
X-48289Y323048D01*
X-48789Y323448D01*
X-48812Y323449D01*
X-48820Y323459D01*
X-49520Y323459D01*
X-49529Y323452D01*
X-49536Y323457D01*
X-50136Y323257D01*
X-50149Y323237D01*
X-50162Y323235D01*
X-50462Y322735D01*
X-50461Y322722D01*
X-50467Y322717D01*
X-50465Y322713D01*
X-50469Y322710D01*
X-50469Y316610D01*
X-50460Y316597D01*
X-50464Y316588D01*
X-50164Y315988D01*
X-50144Y315978D01*
X-50142Y315966D01*
X-49542Y315666D01*
X-49522Y315670D01*
X-49513Y315661D01*
X-48813Y315761D01*
X-48801Y315773D01*
X-48791Y315770D01*
X-43419Y319650D01*
X-43169Y319484D01*
X-43169Y316110D01*
X-43150Y316084D01*
X-43150Y316071D01*
X-42750Y315771D01*
X-42731Y315771D01*
X-42725Y315761D01*
X-41825Y315661D01*
X-41812Y315669D01*
G37*
%LPC*%
G36*
X-60671Y356581D02*
X-60671Y356581D01*
X-61165Y357075D01*
X-61167Y357075D01*
X-61167Y357076D01*
X-63667Y359376D01*
X-63679Y359377D01*
X-63687Y359387D01*
X-63698Y359379D01*
X-63726Y359382D01*
X-63728Y359356D01*
X-63749Y359340D01*
X-63749Y359262D01*
X-66828Y356581D01*
X-67402Y356294D01*
X-67870Y356481D01*
X-68357Y357066D01*
X-68548Y357542D01*
X-68358Y358111D01*
X-67768Y358602D01*
X-67768Y358604D01*
X-67767Y358603D01*
X-65767Y360403D01*
X-65767Y360405D01*
X-65765Y360405D01*
X-65365Y360805D01*
X-65363Y360820D01*
X-65353Y360827D01*
X-65361Y360837D01*
X-65357Y360864D01*
X-65368Y360866D01*
X-65367Y360877D01*
X-67866Y363076D01*
X-68455Y363664D01*
X-68549Y364137D01*
X-68357Y364713D01*
X-67776Y365295D01*
X-67310Y365388D01*
X-66730Y365001D01*
X-64233Y362803D01*
X-64231Y362803D01*
X-64231Y362802D01*
X-63731Y362402D01*
X-63671Y362400D01*
X-63671Y362405D01*
X-63667Y362404D01*
X-61168Y364703D01*
X-60576Y365196D01*
X-60002Y365388D01*
X-59528Y365198D01*
X-58946Y364616D01*
X-58851Y364045D01*
X-59041Y363570D01*
X-59632Y363078D01*
X-59632Y363077D01*
X-61732Y361277D01*
X-61733Y361275D01*
X-61735Y361275D01*
X-62135Y360875D01*
X-62137Y360862D01*
X-62147Y360854D01*
X-62139Y360844D01*
X-62143Y360816D01*
X-62132Y360814D01*
X-62132Y360803D01*
X-59042Y358112D01*
X-58852Y357542D01*
X-59042Y357068D01*
X-59628Y356482D01*
X-60098Y356294D01*
X-60671Y356581D01*
G37*
%LPD*%
%LPC*%
G36*
X-67871Y286962D02*
X-67871Y286962D01*
X-68356Y287544D01*
X-68548Y288118D01*
X-68359Y288590D01*
X-67768Y289082D01*
X-67768Y289084D01*
X-67767Y289083D01*
X-65767Y290883D01*
X-65767Y290885D01*
X-65765Y290885D01*
X-65265Y291385D01*
X-65263Y291398D01*
X-65254Y291406D01*
X-65261Y291415D01*
X-65257Y291444D01*
X-65269Y291446D01*
X-65268Y291458D01*
X-67867Y293656D01*
X-68358Y294148D01*
X-68548Y294622D01*
X-68357Y295193D01*
X-67776Y295775D01*
X-67307Y295868D01*
X-66728Y295579D01*
X-64233Y293284D01*
X-64231Y293284D01*
X-64231Y293282D01*
X-63731Y292882D01*
X-63671Y292880D01*
X-63671Y292885D01*
X-63667Y292884D01*
X-61168Y295183D01*
X-60576Y295676D01*
X-60002Y295868D01*
X-59530Y295679D01*
X-59043Y295094D01*
X-58852Y294618D01*
X-59042Y294049D01*
X-59632Y293558D01*
X-61731Y291858D01*
X-61733Y291851D01*
X-61738Y291851D01*
X-62138Y291351D01*
X-62139Y291340D01*
X-62147Y291334D01*
X-62139Y291323D01*
X-62140Y291291D01*
X-62132Y291291D01*
X-62132Y291283D01*
X-59041Y288591D01*
X-58852Y288118D01*
X-59043Y287547D01*
X-59628Y286962D01*
X-60098Y286774D01*
X-60671Y287061D01*
X-61165Y287555D01*
X-61167Y287555D01*
X-61167Y287556D01*
X-63667Y289856D01*
X-63726Y289862D01*
X-63727Y289854D01*
X-63735Y289855D01*
X-64234Y289356D01*
X-66728Y287061D01*
X-67304Y286773D01*
X-67871Y286962D01*
G37*
%LPD*%
G36*
X527482Y73426D02*
X527482Y73426D01*
X527487Y73421D01*
X528187Y73521D01*
X528192Y73526D01*
X528196Y73523D01*
X528796Y73723D01*
X528801Y73731D01*
X528807Y73729D01*
X529407Y74129D01*
X529410Y74136D01*
X529415Y74135D01*
X529815Y74535D01*
X529816Y74547D01*
X529824Y74548D01*
X530424Y75748D01*
X530422Y75759D01*
X530429Y75763D01*
X530529Y76463D01*
X530526Y76468D01*
X530529Y76470D01*
X530529Y77870D01*
X530522Y77879D01*
X530527Y77886D01*
X530327Y78486D01*
X530319Y78491D01*
X530321Y78497D01*
X529521Y79697D01*
X529514Y79700D01*
X529515Y79705D01*
X529115Y80105D01*
X529102Y80107D01*
X529099Y80115D01*
X528399Y80415D01*
X528392Y80414D01*
X528375Y80414D01*
X528370Y80418D01*
X527870Y80318D01*
X527859Y80305D01*
X527848Y80308D01*
X527248Y79808D01*
X527245Y79793D01*
X527237Y79787D01*
X527241Y79782D01*
X527231Y79777D01*
X527131Y79077D01*
X527140Y79061D01*
X527134Y79052D01*
X527334Y78552D01*
X527344Y78546D01*
X527342Y78538D01*
X527841Y77940D01*
X528233Y77352D01*
X528329Y76678D01*
X528042Y76105D01*
X527574Y75824D01*
X527015Y76010D01*
X526727Y76585D01*
X526629Y77178D01*
X526625Y77181D01*
X526627Y77184D01*
X526427Y77884D01*
X526422Y77888D01*
X526424Y77892D01*
X525824Y79092D01*
X525817Y79095D01*
X525818Y79101D01*
X525418Y79601D01*
X525411Y79603D01*
X525411Y79608D01*
X524911Y80008D01*
X524897Y80009D01*
X524894Y80017D01*
X524194Y80217D01*
X524189Y80216D01*
X524187Y80219D01*
X523487Y80319D01*
X523482Y80316D01*
X523475Y80316D01*
X523472Y80319D01*
X522872Y80219D01*
X522868Y80214D01*
X522864Y80217D01*
X522264Y80017D01*
X522259Y80009D01*
X522253Y80011D01*
X521653Y79611D01*
X521649Y79601D01*
X521642Y79601D01*
X521242Y79101D01*
X521241Y79093D01*
X521236Y79092D01*
X520936Y78492D01*
X520937Y78487D01*
X520933Y78486D01*
X520733Y77886D01*
X520736Y77879D01*
X520731Y77876D01*
X520631Y77076D01*
X520636Y77068D01*
X520631Y77063D01*
X520731Y76363D01*
X520732Y76362D01*
X520731Y76362D01*
X520831Y75762D01*
X520835Y75759D01*
X520833Y75756D01*
X521033Y75056D01*
X521044Y75048D01*
X521042Y75039D01*
X521442Y74539D01*
X521446Y74538D01*
X521445Y74535D01*
X521945Y74035D01*
X521972Y74032D01*
X521980Y74021D01*
X522480Y74021D01*
X522497Y74034D01*
X522509Y74030D01*
X523209Y74530D01*
X523213Y74544D01*
X523222Y74545D01*
X523522Y75045D01*
X523520Y75063D01*
X523529Y75070D01*
X523529Y75670D01*
X523515Y75689D01*
X523518Y75702D01*
X523024Y76294D01*
X522830Y76875D01*
X522926Y77544D01*
X523390Y77915D01*
X523948Y77729D01*
X524334Y77150D01*
X524632Y75859D01*
X524634Y75858D01*
X524633Y75856D01*
X524833Y75156D01*
X524838Y75152D01*
X524836Y75148D01*
X525136Y74548D01*
X525143Y74545D01*
X525142Y74539D01*
X525542Y74039D01*
X525554Y74036D01*
X525555Y74028D01*
X526055Y73728D01*
X526063Y73729D01*
X526064Y73723D01*
X526664Y73523D01*
X526671Y73526D01*
X526674Y73521D01*
X527474Y73421D01*
X527482Y73426D01*
G37*
%LPC*%
G36*
X-12651Y353732D02*
X-12651Y353732D01*
X-12688Y353778D01*
X-12695Y353773D01*
X-12700Y353779D01*
X-16692Y353779D01*
X-17265Y353970D01*
X-17551Y354542D01*
X-17551Y355218D01*
X-17265Y355790D01*
X-16692Y355981D01*
X-12600Y355981D01*
X-12596Y355984D01*
X-12593Y355981D01*
X-11893Y356081D01*
X-11888Y356086D01*
X-11884Y356083D01*
X-11284Y356283D01*
X-11279Y356291D01*
X-11273Y356289D01*
X-10673Y356689D01*
X-10668Y356704D01*
X-10658Y356705D01*
X-10358Y357205D01*
X-10359Y357219D01*
X-10351Y357223D01*
X-10251Y357923D01*
X-10256Y357932D01*
X-10251Y357937D01*
X-10351Y358637D01*
X-10359Y358645D01*
X-10356Y358652D01*
X-10656Y359252D01*
X-10676Y359262D01*
X-10678Y359274D01*
X-11278Y359574D01*
X-11283Y359573D01*
X-11284Y359577D01*
X-11884Y359777D01*
X-11891Y359775D01*
X-11893Y359779D01*
X-12593Y359879D01*
X-12598Y359876D01*
X-12600Y359879D01*
X-16696Y359879D01*
X-17267Y359974D01*
X-17551Y360542D01*
X-17551Y361227D01*
X-17456Y361893D01*
X-16892Y362081D01*
X-12103Y362081D01*
X-11411Y361982D01*
X-10819Y361784D01*
X-9629Y361189D01*
X-9137Y360697D01*
X-8740Y360201D01*
X-8345Y359608D01*
X-8148Y359019D01*
X-8049Y358327D01*
X-8049Y357634D01*
X-8148Y357041D01*
X-8171Y356959D01*
X-8172Y356959D01*
X-8171Y356959D01*
X-8214Y356811D01*
X-8228Y356762D01*
X-8270Y356614D01*
X-8312Y356467D01*
X-8326Y356417D01*
X-8346Y356348D01*
X-8642Y355757D01*
X-9037Y355263D01*
X-9531Y354768D01*
X-10122Y354375D01*
X-10716Y354177D01*
X-10719Y354172D01*
X-10722Y354174D01*
X-11315Y353878D01*
X-12003Y353779D01*
X-12600Y353779D01*
X-12647Y353743D01*
X-12641Y353735D01*
X-12649Y353728D01*
X-12538Y350504D01*
X-12539Y350503D01*
X-12651Y353732D01*
G37*
%LPD*%
%LPC*%
G36*
X-13392Y364279D02*
X-13392Y364279D01*
X-13989Y364378D01*
X-14682Y364576D01*
X-15273Y364872D01*
X-15767Y365267D01*
X-16263Y365763D01*
X-16660Y366259D01*
X-17055Y366852D01*
X-17252Y367441D01*
X-17451Y368833D01*
X-17451Y370828D01*
X-17353Y372004D01*
X-16980Y372283D01*
X-16396Y372381D01*
X-8908Y372381D01*
X-8333Y372189D01*
X-8049Y371716D01*
X-8049Y371545D01*
X-10413Y370179D01*
X-15100Y370179D01*
X-15147Y370143D01*
X-15145Y370140D01*
X-15149Y370138D01*
X-15249Y369538D01*
X-15246Y369533D01*
X-15249Y369530D01*
X-15249Y368830D01*
X-15246Y368825D01*
X-15249Y368822D01*
X-15149Y368222D01*
X-15141Y368215D01*
X-15144Y368208D01*
X-14844Y367608D01*
X-14840Y367606D01*
X-14841Y367603D01*
X-14441Y367003D01*
X-14424Y366997D01*
X-14422Y366986D01*
X-13822Y366686D01*
X-13817Y366687D01*
X-13816Y366683D01*
X-13216Y366483D01*
X-13209Y366485D01*
X-13207Y366481D01*
X-12507Y366381D01*
X-12494Y366388D01*
X-12486Y366383D01*
X-11786Y366583D01*
X-11781Y366590D01*
X-11775Y366588D01*
X-11275Y366888D01*
X-11271Y366896D01*
X-11265Y366895D01*
X-10291Y367870D01*
X-8469Y366911D01*
X-8742Y366456D01*
X-9138Y365861D01*
X-9633Y365367D01*
X-10127Y364972D01*
X-10722Y364674D01*
X-11315Y364378D01*
X-12007Y364279D01*
X-12700Y364180D01*
X-13392Y364279D01*
G37*
%LPD*%
%LPC*%
G36*
X82541Y248145D02*
X82541Y248145D01*
X81960Y248533D01*
X81773Y249000D01*
X82266Y250282D01*
X82765Y251481D01*
X82758Y251510D01*
X82764Y251522D01*
X82264Y252522D01*
X81968Y253115D01*
X81869Y253803D01*
X81869Y254492D01*
X82066Y255082D01*
X82363Y255774D01*
X82757Y256267D01*
X83249Y256759D01*
X83798Y257034D01*
X84758Y255114D01*
X84289Y254738D01*
X84284Y254719D01*
X84273Y254716D01*
X84073Y254116D01*
X84075Y254109D01*
X84074Y254108D01*
X84077Y254104D01*
X84080Y254096D01*
X84073Y254086D01*
X84273Y253386D01*
X84290Y253374D01*
X84289Y253362D01*
X84789Y252962D01*
X84808Y252961D01*
X84813Y252951D01*
X85513Y252851D01*
X85518Y252854D01*
X85520Y252851D01*
X86820Y252851D01*
X86863Y252883D01*
X86867Y252884D01*
X86967Y253184D01*
X86964Y253193D01*
X86967Y253195D01*
X86966Y253197D01*
X86969Y253200D01*
X86969Y254600D01*
X86966Y254605D01*
X86969Y254608D01*
X86871Y255192D01*
X88041Y257451D01*
X88506Y257451D01*
X88979Y257167D01*
X89171Y256592D01*
X89171Y249203D01*
X89073Y248520D01*
X88793Y248146D01*
X88020Y248050D01*
X87250Y248146D01*
X86969Y248614D01*
X86969Y250600D01*
X86933Y250647D01*
X86926Y250642D01*
X86920Y250649D01*
X84920Y250649D01*
X84885Y250623D01*
X84875Y250620D01*
X83876Y248421D01*
X83783Y248237D01*
X83215Y247953D01*
X82541Y248145D01*
G37*
%LPD*%
%LPC*%
G36*
X75828Y247949D02*
X75828Y247949D01*
X75239Y248146D01*
X74049Y248741D01*
X73561Y249229D01*
X73266Y249818D01*
X73069Y250507D01*
X73069Y251197D01*
X73168Y251889D01*
X73363Y252473D01*
X73853Y252963D01*
X74344Y253356D01*
X74935Y253553D01*
X75634Y253753D01*
X75635Y253754D01*
X75636Y253753D01*
X76235Y253953D01*
X76934Y254153D01*
X76942Y254164D01*
X76951Y254162D01*
X77451Y254562D01*
X77458Y254592D01*
X77469Y254600D01*
X77469Y255200D01*
X77450Y255225D01*
X77451Y255238D01*
X76951Y255638D01*
X76928Y255639D01*
X76920Y255649D01*
X76120Y255649D01*
X76102Y255635D01*
X76089Y255638D01*
X75593Y255242D01*
X75012Y254951D01*
X74444Y255046D01*
X73961Y255529D01*
X73672Y256107D01*
X73765Y256573D01*
X74349Y257060D01*
X74840Y257354D01*
X75530Y257552D01*
X76223Y257651D01*
X76917Y257651D01*
X77609Y257552D01*
X78198Y257355D01*
X78786Y256963D01*
X79182Y256469D01*
X79573Y255980D01*
X79671Y255293D01*
X79770Y254603D01*
X79769Y254601D01*
X79727Y254453D01*
X79713Y254404D01*
X79671Y254256D01*
X79628Y254108D01*
X79614Y254059D01*
X79573Y253915D01*
X79377Y253327D01*
X78890Y252839D01*
X78397Y252543D01*
X77802Y252246D01*
X77106Y252047D01*
X77105Y252046D01*
X77104Y252047D01*
X76505Y251847D01*
X75806Y251647D01*
X75798Y251636D01*
X75789Y251638D01*
X75289Y251238D01*
X75282Y251208D01*
X75274Y251203D01*
X75278Y251198D01*
X75271Y251192D01*
X75371Y250592D01*
X75387Y250577D01*
X75385Y250565D01*
X75785Y250165D01*
X75808Y250162D01*
X75814Y250151D01*
X76614Y250051D01*
X76623Y250057D01*
X76631Y250057D01*
X76636Y250053D01*
X77236Y250253D01*
X77243Y250264D01*
X77252Y250262D01*
X77850Y250761D01*
X78439Y251154D01*
X78907Y251247D01*
X79485Y250765D01*
X79868Y250286D01*
X79773Y249720D01*
X79483Y249332D01*
X79087Y248937D01*
X78493Y248442D01*
X77905Y248148D01*
X77213Y248049D01*
X76517Y247949D01*
X75828Y247949D01*
G37*
%LPD*%
G36*
X527384Y82424D02*
X527384Y82424D01*
X527387Y82421D01*
X528087Y82521D01*
X528095Y82529D01*
X528102Y82526D01*
X528702Y82826D01*
X528704Y82830D01*
X528707Y82829D01*
X529307Y83229D01*
X529310Y83236D01*
X529315Y83235D01*
X529715Y83635D01*
X529716Y83642D01*
X529721Y83643D01*
X530121Y84243D01*
X530121Y84247D01*
X530124Y84248D01*
X530424Y84848D01*
X530422Y84859D01*
X530429Y84863D01*
X530529Y85563D01*
X530526Y85568D01*
X530529Y85570D01*
X530529Y86170D01*
X530526Y86174D01*
X530529Y86177D01*
X530429Y86877D01*
X530424Y86882D01*
X530427Y86886D01*
X530227Y87486D01*
X530183Y87515D01*
X530204Y87527D01*
X530228Y87581D01*
X530215Y87587D01*
X530218Y87601D01*
X529418Y88601D01*
X529408Y88603D01*
X529407Y88611D01*
X528807Y89011D01*
X528803Y89011D01*
X528802Y89014D01*
X528202Y89314D01*
X528195Y89313D01*
X528194Y89317D01*
X527494Y89517D01*
X527490Y89516D01*
X527488Y89519D01*
X526888Y89619D01*
X526883Y89616D01*
X526880Y89619D01*
X525380Y89619D01*
X525356Y89601D01*
X525342Y89601D01*
X524443Y88503D01*
X523945Y88005D01*
X523944Y87993D01*
X523936Y87992D01*
X523636Y87392D01*
X523637Y87387D01*
X523633Y87386D01*
X523433Y86786D01*
X523435Y86779D01*
X523431Y86777D01*
X523331Y86077D01*
X523336Y86068D01*
X523331Y86063D01*
X523431Y85363D01*
X523432Y85362D01*
X523431Y85362D01*
X523531Y84762D01*
X523539Y84755D01*
X523536Y84748D01*
X523836Y84148D01*
X523840Y84146D01*
X523839Y84143D01*
X524239Y83543D01*
X524246Y83540D01*
X524245Y83535D01*
X524745Y83035D01*
X524757Y83034D01*
X524758Y83026D01*
X525358Y82726D01*
X525363Y82727D01*
X525364Y82723D01*
X525964Y82523D01*
X525971Y82525D01*
X525973Y82521D01*
X526673Y82421D01*
X526678Y82424D01*
X526680Y82421D01*
X527380Y82421D01*
X527384Y82424D01*
G37*
%LPC*%
G36*
X85428Y222549D02*
X85428Y222549D01*
X84836Y222747D01*
X84834Y222746D01*
X84834Y222747D01*
X84143Y222945D01*
X83651Y223338D01*
X83157Y223734D01*
X82765Y224321D01*
X82569Y225007D01*
X82569Y225697D01*
X82668Y226389D01*
X82865Y226978D01*
X83255Y227563D01*
X83743Y227857D01*
X84338Y228154D01*
X85030Y228352D01*
X85727Y228451D01*
X85732Y228456D01*
X85736Y228453D01*
X86336Y228653D01*
X86343Y228664D01*
X86351Y228662D01*
X86851Y229062D01*
X86857Y229086D01*
X86869Y229092D01*
X86969Y229692D01*
X86953Y229722D01*
X86955Y229735D01*
X86455Y230235D01*
X86428Y230239D01*
X86420Y230249D01*
X85720Y230249D01*
X85705Y230238D01*
X85695Y230242D01*
X85195Y229943D01*
X84507Y229549D01*
X84038Y229549D01*
X83459Y230031D01*
X83169Y230612D01*
X83169Y231177D01*
X83749Y231660D01*
X84240Y231954D01*
X84930Y232152D01*
X85623Y232251D01*
X86317Y232251D01*
X87009Y232152D01*
X87601Y231954D01*
X88191Y231659D01*
X88679Y231171D01*
X88974Y230581D01*
X89171Y229992D01*
X89171Y229303D01*
X89072Y228611D01*
X88876Y228024D01*
X88486Y227537D01*
X87895Y227143D01*
X87301Y226846D01*
X86707Y226648D01*
X85409Y226348D01*
X85401Y226338D01*
X85393Y226341D01*
X84793Y225941D01*
X84781Y225908D01*
X84771Y225900D01*
X84771Y225200D01*
X84787Y225179D01*
X84785Y225165D01*
X85185Y224765D01*
X85208Y224762D01*
X85214Y224751D01*
X86014Y224651D01*
X86023Y224657D01*
X86031Y224657D01*
X86036Y224653D01*
X86636Y224853D01*
X86642Y224863D01*
X86650Y224861D01*
X87841Y225754D01*
X88310Y225848D01*
X88885Y225465D01*
X89271Y224885D01*
X89271Y224416D01*
X88981Y224030D01*
X88586Y223537D01*
X87995Y223143D01*
X87401Y222846D01*
X86809Y222648D01*
X86117Y222549D01*
X85428Y222549D01*
G37*
%LPD*%
%LPC*%
G36*
X66823Y198549D02*
X66823Y198549D01*
X66131Y198648D01*
X65539Y198846D01*
X64949Y199141D01*
X64457Y199633D01*
X64064Y200124D01*
X63868Y200711D01*
X63769Y201403D01*
X63769Y202192D01*
X63966Y202781D01*
X64259Y203368D01*
X64747Y203758D01*
X65338Y204054D01*
X66032Y204252D01*
X67331Y204552D01*
X67337Y204559D01*
X67342Y204556D01*
X67942Y204856D01*
X67954Y204880D01*
X67967Y204884D01*
X68167Y205484D01*
X68157Y205513D01*
X68162Y205525D01*
X67862Y206025D01*
X67838Y206035D01*
X67834Y206047D01*
X67134Y206247D01*
X67114Y206240D01*
X67104Y206247D01*
X66504Y206047D01*
X66499Y206039D01*
X66493Y206041D01*
X65898Y205645D01*
X65330Y205455D01*
X64855Y205835D01*
X64366Y206422D01*
X64273Y206887D01*
X64753Y207462D01*
X65242Y207756D01*
X65934Y208052D01*
X66528Y208151D01*
X67220Y208250D01*
X68009Y208152D01*
X68604Y207953D01*
X69193Y207757D01*
X69683Y207267D01*
X70076Y206776D01*
X70272Y206189D01*
X70371Y205497D01*
X70371Y204808D01*
X70175Y204222D01*
X69783Y203634D01*
X69293Y203242D01*
X68698Y202944D01*
X68102Y202646D01*
X67410Y202448D01*
X66713Y202349D01*
X66705Y202341D01*
X66698Y202344D01*
X66098Y202044D01*
X66083Y202014D01*
X66071Y202008D01*
X65971Y201408D01*
X65980Y201391D01*
X65974Y201382D01*
X66174Y200882D01*
X66197Y200868D01*
X66201Y200855D01*
X66901Y200555D01*
X66919Y200559D01*
X66927Y200551D01*
X67627Y200651D01*
X67638Y200662D01*
X67647Y200659D01*
X68247Y201059D01*
X68249Y201063D01*
X68252Y201062D01*
X68846Y201557D01*
X69325Y201749D01*
X69894Y201654D01*
X70374Y201078D01*
X70469Y200605D01*
X70178Y199928D01*
X69391Y199141D01*
X68802Y198846D01*
X68110Y198648D01*
X67417Y198549D01*
X66823Y198549D01*
G37*
%LPD*%
%LPC*%
G36*
X286760Y558574D02*
X286760Y558574D01*
X286067Y558748D01*
X285563Y559168D01*
X285219Y559597D01*
X284943Y560242D01*
X284662Y560992D01*
X284570Y561724D01*
X284570Y563376D01*
X284662Y564108D01*
X284943Y564858D01*
X285218Y565499D01*
X285647Y566014D01*
X286172Y566364D01*
X286788Y566628D01*
X287587Y566717D01*
X288298Y566628D01*
X289000Y566365D01*
X289422Y566027D01*
X289862Y565499D01*
X290137Y564858D01*
X290418Y564108D01*
X290510Y563376D01*
X290510Y561747D01*
X290128Y560222D01*
X289869Y559617D01*
X289433Y559181D01*
X288908Y558744D01*
X288316Y558574D01*
X287493Y558483D01*
X286760Y558574D01*
G37*
%LPD*%
%LPC*%
G36*
X66843Y222647D02*
X66843Y222647D01*
X66469Y223020D01*
X66469Y225700D01*
X66456Y225718D01*
X66459Y225730D01*
X66159Y226130D01*
X66128Y226139D01*
X66120Y226149D01*
X63336Y226149D01*
X62963Y226430D01*
X62770Y227104D01*
X62867Y227881D01*
X63147Y228254D01*
X63823Y228351D01*
X65820Y228351D01*
X65829Y228358D01*
X65836Y228353D01*
X66436Y228553D01*
X66455Y228582D01*
X66457Y228583D01*
X66456Y228584D01*
X66466Y228597D01*
X66469Y228600D01*
X66469Y229200D01*
X66462Y229209D01*
X66467Y229216D01*
X66267Y229816D01*
X66223Y229846D01*
X66220Y229849D01*
X62124Y229849D01*
X61553Y229944D01*
X61269Y230512D01*
X61269Y231286D01*
X61553Y231759D01*
X62131Y231952D01*
X63022Y232051D01*
X67815Y231951D01*
X68385Y231856D01*
X68572Y231388D01*
X68671Y230597D01*
X68671Y223803D01*
X68572Y223115D01*
X68386Y222742D01*
X67617Y222550D01*
X66843Y222647D01*
G37*
%LPD*%
%LPC*%
G36*
X60545Y258749D02*
X60545Y258749D01*
X60269Y259116D01*
X60269Y259775D01*
X60636Y260051D01*
X89277Y260051D01*
X88603Y258749D01*
X60545Y258749D01*
G37*
%LPD*%
%LPC*%
G36*
X72135Y222647D02*
X72135Y222647D01*
X71355Y223038D01*
X71074Y223506D01*
X71266Y224081D01*
X74761Y231471D01*
X75247Y231957D01*
X75820Y232148D01*
X76393Y231957D01*
X76879Y231471D01*
X79394Y226227D01*
X76655Y226644D01*
X76466Y227118D01*
X76465Y227119D01*
X75965Y228319D01*
X75914Y228349D01*
X75908Y228339D01*
X75898Y228344D01*
X75698Y228244D01*
X75688Y228224D01*
X75685Y228222D01*
X75675Y228219D01*
X75175Y227019D01*
X75178Y227006D01*
X75171Y227000D01*
X75171Y226600D01*
X75207Y226553D01*
X75214Y226558D01*
X75220Y226551D01*
X76490Y226551D01*
X77438Y224749D01*
X74120Y224749D01*
X74090Y224727D01*
X74078Y224725D01*
X73778Y224225D01*
X73778Y224221D01*
X73775Y224221D01*
X73180Y222931D01*
X72706Y222552D01*
X72135Y222647D01*
G37*
%LPD*%
%LPC*%
G36*
X291527Y533949D02*
X291527Y533949D01*
X290646Y534634D01*
X289760Y535914D01*
X289858Y537683D01*
X290743Y538960D01*
X292320Y539651D01*
X295593Y539651D01*
X296561Y538876D01*
X296561Y533949D01*
X291527Y533949D01*
G37*
%LPD*%
%LPC*%
G36*
X237918Y534149D02*
X237918Y534149D01*
X236440Y534642D01*
X235459Y535917D01*
X235459Y537786D01*
X236252Y539074D01*
X236250Y539092D01*
X236274Y539067D01*
X236328Y539057D01*
X236331Y539055D01*
X237821Y539751D01*
X241196Y539751D01*
X242161Y539172D01*
X242161Y534149D01*
X237918Y534149D01*
G37*
%LPD*%
%LPC*%
G36*
X-9390Y342579D02*
X-9390Y342579D01*
X-10080Y342875D01*
X-16775Y346173D01*
X-17359Y346562D01*
X-17549Y347134D01*
X-17454Y347709D01*
X-17068Y348191D01*
X-12633Y350349D01*
X-12550Y347960D01*
X-13722Y347374D01*
X-13741Y347337D01*
X-13749Y347330D01*
X-13749Y347230D01*
X-13724Y347197D01*
X-13722Y347186D01*
X-12522Y346586D01*
X-12513Y346588D01*
X-12510Y346582D01*
X-12010Y346482D01*
X-11956Y346508D01*
X-11963Y346521D01*
X-11951Y346530D01*
X-11951Y347794D01*
X-10149Y348363D01*
X-10149Y345730D01*
X-10135Y345712D01*
X-10138Y345699D01*
X-9738Y345199D01*
X-9724Y345196D01*
X-9722Y345186D01*
X-8527Y344588D01*
X-8049Y344206D01*
X-8049Y343642D01*
X-8438Y342865D01*
X-8914Y342579D01*
X-9390Y342579D01*
G37*
%LPD*%
%LPC*%
G36*
X-68063Y367584D02*
X-68063Y367584D01*
X-68251Y368148D01*
X-68251Y375926D01*
X-67970Y376395D01*
X-67301Y376490D01*
X-66733Y376396D01*
X-66449Y375828D01*
X-66449Y373140D01*
X-66413Y373093D01*
X-66406Y373098D01*
X-66400Y373091D01*
X-59608Y373091D01*
X-59039Y372901D01*
X-58849Y372332D01*
X-58849Y371652D01*
X-59135Y371080D01*
X-59708Y370889D01*
X-66400Y370889D01*
X-66447Y370853D01*
X-66447Y370852D01*
X-66442Y370845D01*
X-66449Y370840D01*
X-66449Y368054D01*
X-66730Y367585D01*
X-67400Y367490D01*
X-68063Y367584D01*
G37*
%LPD*%
%LPC*%
G36*
X66137Y247949D02*
X66137Y247949D01*
X65662Y248329D01*
X65469Y248908D01*
X65469Y255000D01*
X65466Y255005D01*
X65469Y255008D01*
X65369Y255608D01*
X65325Y255649D01*
X65323Y255646D01*
X65320Y255649D01*
X62540Y255649D01*
X62166Y256023D01*
X62070Y256695D01*
X62259Y257261D01*
X62828Y257451D01*
X69617Y257451D01*
X70504Y257352D01*
X70975Y257070D01*
X71070Y256405D01*
X70881Y255839D01*
X70312Y255649D01*
X68320Y255649D01*
X68316Y255646D01*
X68313Y255649D01*
X67613Y255549D01*
X67571Y255506D01*
X67575Y255503D01*
X67571Y255500D01*
X67571Y248708D01*
X67381Y248139D01*
X66812Y247949D01*
X66137Y247949D01*
G37*
%LPD*%
%LPC*%
G36*
X197070Y503219D02*
X197070Y503219D01*
X195490Y503910D01*
X194507Y505090D01*
X194310Y506864D01*
X194901Y508439D01*
X196277Y509422D01*
X197851Y509520D01*
X199328Y508830D01*
X200312Y507552D01*
X200410Y505680D01*
X199720Y504202D01*
X198443Y503219D01*
X197070Y503219D01*
G37*
%LPD*%
G36*
X529598Y98924D02*
X529598Y98924D01*
X529607Y98939D01*
X529618Y98938D01*
X530118Y99538D01*
X530118Y99547D01*
X530124Y99548D01*
X530424Y100148D01*
X530422Y100159D01*
X530429Y100163D01*
X530529Y100863D01*
X530526Y100868D01*
X530529Y100870D01*
X530529Y101570D01*
X530526Y101574D01*
X530529Y101577D01*
X530429Y102277D01*
X530424Y102282D01*
X530427Y102286D01*
X530227Y102886D01*
X530219Y102891D01*
X530221Y102897D01*
X529821Y103497D01*
X529814Y103500D01*
X529815Y103505D01*
X529315Y104005D01*
X529311Y104005D01*
X529311Y104008D01*
X528811Y104408D01*
X528803Y104409D01*
X528802Y104414D01*
X528202Y104714D01*
X528191Y104712D01*
X528187Y104719D01*
X526787Y104919D01*
X526778Y104914D01*
X526773Y104919D01*
X526073Y104819D01*
X526065Y104811D01*
X526058Y104814D01*
X524858Y104214D01*
X524853Y104204D01*
X524845Y104205D01*
X524345Y103705D01*
X524344Y103698D01*
X524339Y103697D01*
X523939Y103097D01*
X523940Y103088D01*
X523933Y103086D01*
X523733Y102486D01*
X523734Y102484D01*
X523733Y102484D01*
X523731Y102477D01*
X523717Y102428D01*
X523675Y102280D01*
X523632Y102132D01*
X523618Y102083D01*
X523576Y101935D01*
X523534Y101788D01*
X523533Y101784D01*
X523536Y101774D01*
X523531Y101770D01*
X523531Y101170D01*
X523534Y101166D01*
X523531Y101163D01*
X523631Y100463D01*
X523635Y100459D01*
X523633Y100456D01*
X523833Y99756D01*
X523842Y99750D01*
X523839Y99743D01*
X524239Y99143D01*
X524254Y99138D01*
X524255Y99128D01*
X524755Y98828D01*
X524779Y98830D01*
X524788Y98821D01*
X525388Y98921D01*
X525397Y98931D01*
X525404Y98927D01*
X526104Y99327D01*
X526111Y99343D01*
X526122Y99345D01*
X526422Y99845D01*
X526419Y99877D01*
X526426Y99888D01*
X526226Y100388D01*
X526225Y100389D01*
X525929Y101080D01*
X525929Y101753D01*
X526312Y102231D01*
X526892Y102521D01*
X527557Y102521D01*
X528034Y101949D01*
X528130Y101373D01*
X528093Y101246D01*
X528079Y101197D01*
X528037Y101049D01*
X527995Y100901D01*
X527981Y100852D01*
X527939Y100704D01*
X527934Y100688D01*
X527636Y100092D01*
X527641Y100064D01*
X527640Y100064D01*
X527641Y100063D01*
X527634Y100052D01*
X527834Y99552D01*
X527849Y99543D01*
X527848Y99532D01*
X528448Y99032D01*
X528457Y99032D01*
X528458Y99026D01*
X529058Y98726D01*
X529087Y98731D01*
X529098Y98724D01*
X529598Y98924D01*
G37*
%LPC*%
G36*
X-9283Y333379D02*
X-9283Y333379D01*
X-9754Y333756D01*
X-9851Y334433D01*
X-9851Y337830D01*
X-9887Y337877D01*
X-9894Y337872D01*
X-9900Y337879D01*
X-16496Y337879D01*
X-17070Y337975D01*
X-17352Y338446D01*
X-17450Y339225D01*
X-17259Y339797D01*
X-16786Y340081D01*
X-9303Y340081D01*
X-8613Y339982D01*
X-8145Y339795D01*
X-8049Y339127D01*
X-8049Y334333D01*
X-8145Y333660D01*
X-8614Y333379D01*
X-9283Y333379D01*
G37*
%LPD*%
%LPC*%
G36*
X87728Y198549D02*
X87728Y198549D01*
X87157Y198740D01*
X86969Y199209D01*
X86969Y200600D01*
X86961Y200611D01*
X86966Y200618D01*
X86766Y201118D01*
X86725Y201143D01*
X86720Y201149D01*
X84728Y201149D01*
X84139Y201346D01*
X83591Y201620D01*
X84743Y203444D01*
X85108Y203352D01*
X85116Y203356D01*
X85120Y203351D01*
X86520Y203351D01*
X86538Y203364D01*
X86550Y203361D01*
X86950Y203661D01*
X86959Y203692D01*
X86969Y203700D01*
X86969Y205685D01*
X88405Y207890D01*
X88697Y207853D01*
X89074Y207476D01*
X89171Y206896D01*
X89171Y199404D01*
X89075Y198831D01*
X88606Y198549D01*
X87728Y198549D01*
G37*
%LPD*%
%LPC*%
G36*
X73947Y201742D02*
X73947Y201742D01*
X73453Y202137D01*
X72961Y202629D01*
X72666Y203218D01*
X72469Y203907D01*
X72469Y205200D01*
X72433Y205247D01*
X72430Y205245D01*
X72427Y205249D01*
X72406Y205252D01*
X72415Y205251D01*
X72462Y205280D01*
X72465Y205281D01*
X72765Y205979D01*
X73059Y206568D01*
X73551Y206962D01*
X73552Y206962D01*
X74147Y207459D01*
X74739Y207754D01*
X75328Y207951D01*
X78717Y207951D01*
X79394Y207854D01*
X79771Y207383D01*
X79771Y205197D01*
X77554Y205249D01*
X77366Y205718D01*
X77325Y205743D01*
X77320Y205749D01*
X76020Y205749D01*
X76016Y205746D01*
X76013Y205749D01*
X75313Y205649D01*
X75298Y205633D01*
X75285Y205635D01*
X74785Y205135D01*
X74782Y205114D01*
X74771Y205108D01*
X74671Y204508D01*
X74679Y204494D01*
X74673Y204486D01*
X74873Y203786D01*
X74890Y203774D01*
X74889Y203762D01*
X75359Y203385D01*
X74496Y201467D01*
X73947Y201742D01*
G37*
%LPD*%
G36*
X524991Y91329D02*
X524991Y91329D01*
X524999Y91325D01*
X525699Y91625D01*
X525708Y91640D01*
X525718Y91639D01*
X526118Y92139D01*
X526119Y92173D01*
X526127Y92184D01*
X525928Y92881D01*
X525831Y93462D01*
X526117Y94033D01*
X526692Y94321D01*
X530080Y94321D01*
X530106Y94340D01*
X530119Y94340D01*
X530419Y94740D01*
X530419Y94750D01*
X530426Y94755D01*
X530422Y94760D01*
X530429Y94764D01*
X530529Y95564D01*
X530524Y95572D01*
X530529Y95577D01*
X530429Y96277D01*
X530407Y96299D01*
X530405Y96312D01*
X529905Y96612D01*
X529887Y96610D01*
X529880Y96619D01*
X524480Y96619D01*
X524471Y96612D01*
X524464Y96617D01*
X523864Y96417D01*
X523846Y96390D01*
X523833Y96386D01*
X523633Y95786D01*
X523637Y95775D01*
X523631Y95770D01*
X523631Y94870D01*
X523644Y94852D01*
X523641Y94840D01*
X523941Y94440D01*
X523946Y94439D01*
X523945Y94435D01*
X524214Y94166D01*
X523842Y93701D01*
X523841Y93691D01*
X523835Y93689D01*
X523535Y92989D01*
X523539Y92970D01*
X523531Y92962D01*
X523631Y92362D01*
X523731Y91663D01*
X523756Y91639D01*
X523758Y91626D01*
X524358Y91326D01*
X524374Y91329D01*
X524380Y91321D01*
X524980Y91321D01*
X524991Y91329D01*
G37*
%LPC*%
G36*
X87250Y274845D02*
X87250Y274845D01*
X86969Y275314D01*
X86969Y283491D01*
X87157Y283959D01*
X87824Y284150D01*
X88614Y284051D01*
X88657Y284076D01*
X88664Y284077D01*
X88679Y284106D01*
X88688Y284063D01*
X88690Y284064D01*
X88690Y284061D01*
X89075Y283772D01*
X89171Y283196D01*
X89171Y275803D01*
X89074Y275123D01*
X88797Y274847D01*
X87921Y274750D01*
X87250Y274845D01*
G37*
%LPD*%
%LPC*%
G36*
X239146Y55280D02*
X239146Y55280D01*
X239388Y55317D01*
X239389Y55318D01*
X239389Y55317D01*
X239909Y55408D01*
X239916Y55414D01*
X239929Y55415D01*
X240381Y55668D01*
X240385Y55677D01*
X240399Y55683D01*
X240726Y56085D01*
X240727Y56093D01*
X240733Y56097D01*
X240733Y56099D01*
X240736Y56101D01*
X240931Y56586D01*
X240930Y56593D01*
X240935Y56601D01*
X241012Y57125D01*
X241009Y57131D01*
X241012Y57141D01*
X240950Y57665D01*
X240946Y57670D01*
X240947Y57677D01*
X240785Y58174D01*
X240779Y58178D01*
X240777Y58190D01*
X240483Y58619D01*
X240474Y58623D01*
X240467Y58635D01*
X240036Y58933D01*
X240026Y58933D01*
X240014Y58943D01*
X239496Y59055D01*
X239489Y59052D01*
X239477Y59056D01*
X239146Y59026D01*
X239146Y60545D01*
X239146Y60546D01*
X239141Y60946D01*
X239676Y60945D01*
X240712Y60764D01*
X241207Y60639D01*
X242086Y60076D01*
X242364Y59810D01*
X242364Y59807D01*
X243016Y58851D01*
X243158Y58363D01*
X243339Y57330D01*
X243304Y56820D01*
X243121Y55789D01*
X242894Y55335D01*
X242321Y54465D01*
X241440Y53908D01*
X240981Y53690D01*
X239947Y53512D01*
X239424Y53453D01*
X239422Y53453D01*
X239146Y53412D01*
X239146Y55280D01*
G37*
%LPD*%
%LPC*%
G36*
X78232Y198549D02*
X78232Y198549D01*
X77664Y198833D01*
X77569Y199404D01*
X77569Y200700D01*
X77556Y200718D01*
X77559Y200730D01*
X77259Y201130D01*
X77228Y201139D01*
X77220Y201149D01*
X75824Y201149D01*
X75232Y201248D01*
X74685Y201430D01*
X75453Y203351D01*
X77220Y203351D01*
X77246Y203370D01*
X77259Y203370D01*
X77559Y203770D01*
X77559Y203792D01*
X77569Y203800D01*
X77569Y205150D01*
X79771Y205098D01*
X79771Y199308D01*
X79581Y198739D01*
X79012Y198549D01*
X78232Y198549D01*
G37*
%LPD*%
%LPC*%
G36*
X82953Y202037D02*
X82953Y202037D01*
X82461Y202529D01*
X82166Y203119D01*
X81968Y203711D01*
X81869Y204403D01*
X81869Y205093D01*
X81900Y205202D01*
X81901Y205202D01*
X81900Y205202D01*
X81943Y205350D01*
X81957Y205399D01*
X81999Y205547D01*
X82041Y205695D01*
X82055Y205744D01*
X82065Y205779D01*
X82461Y206373D01*
X82856Y206965D01*
X83445Y207357D01*
X84039Y207654D01*
X84632Y207852D01*
X85224Y207951D01*
X87917Y207951D01*
X88296Y207903D01*
X86893Y205749D01*
X85520Y205749D01*
X85515Y205746D01*
X85512Y205749D01*
X84912Y205649D01*
X84902Y205638D01*
X84893Y205641D01*
X84293Y205241D01*
X84285Y205220D01*
X84273Y205216D01*
X84073Y204616D01*
X84078Y204600D01*
X84071Y204593D01*
X84171Y203893D01*
X84190Y203875D01*
X84189Y203862D01*
X84654Y203490D01*
X83409Y201672D01*
X82953Y202037D01*
G37*
%LPD*%
%LPC*%
G36*
X243989Y53533D02*
X243989Y53533D01*
X243935Y53533D01*
X243935Y60599D01*
X243934Y60600D01*
X243935Y60602D01*
X243928Y60612D01*
X243927Y60883D01*
X246249Y60883D01*
X246245Y60742D01*
X246246Y60741D01*
X246256Y53543D01*
X246105Y53533D01*
X243989Y53533D01*
G37*
%LPD*%
%LPC*%
G36*
X247176Y53533D02*
X247176Y53533D01*
X246878Y53539D01*
X246888Y60832D01*
X246888Y60835D01*
X246883Y60883D01*
X248757Y60883D01*
X249133Y60863D01*
X249135Y60864D01*
X249139Y60863D01*
X249199Y60864D01*
X249199Y53561D01*
X248762Y53533D01*
X247176Y53533D01*
G37*
%LPD*%
G36*
X529791Y106629D02*
X529791Y106629D01*
X529798Y106624D01*
X530298Y106824D01*
X530313Y106848D01*
X530320Y106853D01*
X530327Y106856D01*
X530369Y107001D01*
X530383Y107051D01*
X530425Y107198D01*
X530467Y107346D01*
X530481Y107395D01*
X530524Y107543D01*
X530527Y107556D01*
X530524Y107566D01*
X530529Y107570D01*
X530529Y108470D01*
X530513Y108491D01*
X530515Y108505D01*
X530115Y108905D01*
X530088Y108909D01*
X530080Y108919D01*
X524180Y108919D01*
X524159Y108903D01*
X524145Y108905D01*
X523745Y108505D01*
X523742Y108482D01*
X523731Y108476D01*
X523631Y107676D01*
X523635Y107669D01*
X523635Y107668D01*
X523636Y107667D01*
X523631Y107663D01*
X523731Y106963D01*
X523753Y106941D01*
X523755Y106928D01*
X524255Y106628D01*
X524273Y106630D01*
X524280Y106621D01*
X529780Y106621D01*
X529791Y106629D01*
G37*
%LPC*%
G36*
X525095Y65418D02*
X525095Y65418D01*
X524505Y65713D01*
X523917Y66105D01*
X523624Y66592D01*
X523329Y67280D01*
X523329Y68554D01*
X523605Y68921D01*
X527671Y68921D01*
X528131Y68737D01*
X528131Y66790D01*
X527945Y66605D01*
X527945Y66601D01*
X527942Y66601D01*
X527546Y66107D01*
X526955Y65713D01*
X526365Y65417D01*
X525779Y65320D01*
X525095Y65418D01*
G37*
%LPD*%
%LPC*%
G36*
X-47615Y337559D02*
X-47615Y337559D01*
X-48071Y337650D01*
X-48071Y339590D01*
X-47885Y339775D01*
X-47885Y339779D01*
X-47882Y339779D01*
X-47485Y340275D01*
X-46896Y340766D01*
X-46308Y340962D01*
X-45719Y341060D01*
X-45031Y340962D01*
X-44444Y340766D01*
X-43858Y340277D01*
X-43563Y339787D01*
X-43269Y339198D01*
X-43269Y337830D01*
X-43540Y337559D01*
X-47615Y337559D01*
G37*
%LPD*%
%LPC*%
G36*
X272928Y558080D02*
X272928Y558080D01*
X272465Y558173D01*
X272433Y558172D01*
X272390Y558180D01*
X271980Y558180D01*
X271660Y558340D01*
X271627Y558348D01*
X271582Y558369D01*
X271246Y558453D01*
X271032Y558596D01*
X270886Y558742D01*
X270706Y559011D01*
X270684Y559032D01*
X270659Y559069D01*
X270522Y559205D01*
X270351Y559720D01*
X270338Y559740D01*
X270330Y559770D01*
X270242Y559946D01*
X270170Y560162D01*
X270170Y561785D01*
X270420Y561660D01*
X270435Y561656D01*
X270448Y561647D01*
X270582Y561621D01*
X270589Y561620D01*
X270590Y561620D01*
X270700Y561620D01*
X270820Y561560D01*
X270835Y561556D01*
X270848Y561547D01*
X270982Y561521D01*
X270989Y561520D01*
X270990Y561520D01*
X271300Y561520D01*
X271420Y561460D01*
X271435Y561456D01*
X271448Y561447D01*
X271582Y561421D01*
X271589Y561420D01*
X271590Y561420D01*
X271728Y561420D01*
X271970Y561339D01*
X272007Y561336D01*
X272090Y561320D01*
X272428Y561320D01*
X272670Y561239D01*
X272707Y561236D01*
X272790Y561220D01*
X273100Y561220D01*
X273220Y561160D01*
X273235Y561156D01*
X273248Y561147D01*
X273382Y561121D01*
X273389Y561120D01*
X273390Y561120D01*
X273528Y561120D01*
X273744Y561048D01*
X273865Y560988D01*
X273921Y560931D01*
X273953Y560911D01*
X274020Y560860D01*
X274365Y560688D01*
X274421Y560631D01*
X274453Y560611D01*
X274520Y560560D01*
X274607Y560517D01*
X274810Y560110D01*
X274810Y560000D01*
X274813Y559985D01*
X274811Y559970D01*
X274848Y559838D01*
X274849Y559831D01*
X274850Y559831D01*
X274850Y559830D01*
X274910Y559710D01*
X274910Y559362D01*
X274829Y559120D01*
X274826Y559083D01*
X274810Y559000D01*
X274810Y558890D01*
X274778Y558825D01*
X274721Y558769D01*
X274713Y558755D01*
X274710Y558753D01*
X274707Y558745D01*
X274701Y558737D01*
X274650Y558670D01*
X274607Y558583D01*
X274520Y558540D01*
X274491Y558516D01*
X274421Y558469D01*
X274365Y558413D01*
X274100Y558280D01*
X273990Y558280D01*
X273975Y558277D01*
X273960Y558279D01*
X273828Y558242D01*
X273821Y558241D01*
X273821Y558240D01*
X273820Y558240D01*
X273700Y558180D01*
X273590Y558180D01*
X273575Y558177D01*
X273560Y558179D01*
X273428Y558142D01*
X273421Y558141D01*
X273421Y558140D01*
X273420Y558140D01*
X273345Y558103D01*
X273300Y558080D01*
X272928Y558080D01*
G37*
%LPD*%
%LPC*%
G36*
X-12352Y347979D02*
X-12352Y347979D01*
X-12437Y350444D01*
X-9681Y351784D01*
X-9102Y351978D01*
X-8632Y351790D01*
X-8147Y351111D01*
X-8051Y350538D01*
X-8337Y349967D01*
X-10122Y349074D01*
X-10141Y349037D01*
X-10149Y349030D01*
X-10149Y348468D01*
X-12006Y347979D01*
X-12352Y347979D01*
G37*
%LPD*%
G36*
X267546Y55322D02*
X267546Y55322D01*
X267553Y55327D01*
X267565Y55326D01*
X268037Y55523D01*
X268042Y55530D01*
X268055Y55534D01*
X268438Y55879D01*
X268440Y55888D01*
X268451Y55895D01*
X268706Y56352D01*
X268706Y56361D01*
X268713Y56372D01*
X268805Y56885D01*
X268803Y56890D01*
X268806Y56896D01*
X268812Y57413D01*
X268809Y57417D01*
X268811Y57423D01*
X268731Y57941D01*
X268725Y57948D01*
X268724Y57962D01*
X268469Y58419D01*
X268462Y58423D01*
X268458Y58434D01*
X268086Y58789D01*
X268077Y58791D01*
X268069Y58801D01*
X267603Y59012D01*
X267595Y59011D01*
X267585Y59017D01*
X267072Y59080D01*
X267064Y59076D01*
X267052Y59079D01*
X266539Y58973D01*
X266532Y58966D01*
X266515Y58963D01*
X266090Y58664D01*
X266087Y58656D01*
X266075Y58649D01*
X265775Y58231D01*
X265775Y58224D01*
X265767Y58216D01*
X265589Y57732D01*
X265591Y57727D01*
X265586Y57720D01*
X265507Y57203D01*
X265511Y57196D01*
X265507Y57184D01*
X265581Y56667D01*
X265584Y56663D01*
X265583Y56655D01*
X265750Y56168D01*
X265755Y56163D01*
X265757Y56153D01*
X266046Y55725D01*
X266054Y55722D01*
X266060Y55710D01*
X266478Y55395D01*
X266488Y55394D01*
X266503Y55383D01*
X267015Y55276D01*
X267023Y55279D01*
X267034Y55275D01*
X267546Y55322D01*
G37*
%LPC*%
G36*
X245183Y507414D02*
X245183Y507414D01*
X245169Y507407D01*
X245160Y507419D01*
X241776Y507419D01*
X240720Y508187D01*
X241296Y509628D01*
X242860Y510019D01*
X244335Y509626D01*
X245602Y508358D01*
X245214Y507388D01*
X245215Y507385D01*
X245212Y507383D01*
X245213Y507382D01*
X245212Y507382D01*
X245207Y507362D01*
X245183Y507414D01*
G37*
%LPD*%
%LPC*%
G36*
X78559Y222932D02*
X78559Y222932D01*
X77964Y224122D01*
X77960Y224124D01*
X77961Y224127D01*
X77563Y224724D01*
X76704Y226537D01*
X79445Y226119D01*
X80374Y224182D01*
X80566Y223606D01*
X80283Y223134D01*
X79601Y222647D01*
X79034Y222552D01*
X78559Y222932D01*
G37*
%LPD*%
%LPC*%
G36*
X-10251Y367961D02*
X-10251Y367961D01*
X-10251Y370102D01*
X-8049Y371403D01*
X-8049Y368234D01*
X-8147Y367645D01*
X-8423Y367095D01*
X-10251Y367961D01*
G37*
%LPD*%
%LPC*%
G36*
X83886Y257078D02*
X83886Y257078D01*
X84435Y257353D01*
X85024Y257451D01*
X87930Y257451D01*
X86790Y255249D01*
X85520Y255249D01*
X85516Y255246D01*
X85513Y255249D01*
X84848Y255154D01*
X83886Y257078D01*
G37*
%LPD*%
G36*
X521989Y106628D02*
X521989Y106628D01*
X521996Y106623D01*
X522596Y106823D01*
X522611Y106845D01*
X522624Y106848D01*
X522724Y107048D01*
X522724Y107050D01*
X522724Y107051D01*
X522723Y107052D01*
X522722Y107059D01*
X522729Y107062D01*
X522829Y107662D01*
X522824Y107671D01*
X522829Y107676D01*
X522729Y108476D01*
X522710Y108495D01*
X522711Y108508D01*
X522211Y108908D01*
X522188Y108909D01*
X522180Y108919D01*
X521480Y108919D01*
X521475Y108916D01*
X521472Y108919D01*
X520872Y108819D01*
X520854Y108800D01*
X520841Y108800D01*
X520541Y108400D01*
X520541Y108381D01*
X520531Y108375D01*
X520431Y107475D01*
X520439Y107462D01*
X520433Y107454D01*
X520633Y106854D01*
X520660Y106836D01*
X520664Y106823D01*
X521264Y106623D01*
X521275Y106627D01*
X521280Y106621D01*
X521980Y106621D01*
X521989Y106628D01*
G37*
%LPC*%
G36*
X526688Y84819D02*
X526688Y84819D01*
X526109Y85012D01*
X525729Y85487D01*
X525729Y86158D01*
X526019Y86738D01*
X526497Y87121D01*
X527172Y87121D01*
X527751Y86928D01*
X528142Y86439D01*
X528184Y86428D01*
X528156Y86413D01*
X528142Y86381D01*
X528133Y86374D01*
X528134Y86372D01*
X528131Y86370D01*
X528131Y85878D01*
X527937Y85297D01*
X527460Y84819D01*
X526688Y84819D01*
G37*
%LPD*%
%LPC*%
G36*
X88511Y233349D02*
X88511Y233349D01*
X89315Y234651D01*
X89671Y234651D01*
X89671Y233625D01*
X89304Y233349D01*
X88511Y233349D01*
G37*
%LPD*%
%LPC*%
G36*
X88713Y258749D02*
X88713Y258749D01*
X89387Y260051D01*
X89671Y260051D01*
X89671Y259304D01*
X89578Y258749D01*
X88713Y258749D01*
G37*
%LPD*%
%LPC*%
G36*
X530169Y87508D02*
X530169Y87508D01*
X530170Y87508D01*
X530169Y87507D01*
X530169Y87508D01*
G37*
%LPD*%
D10*
X269000Y-7900D02*
X239000Y-7900D01*
X284000Y18100D02*
X284000Y34600D01*
X231500Y34600D02*
X224000Y34600D01*
X224000Y18100D01*
X276500Y34600D02*
X284000Y34600D01*
X277984Y41100D02*
X277986Y41163D01*
X277992Y41226D01*
X278002Y41289D01*
X278015Y41350D01*
X278033Y41411D01*
X278054Y41470D01*
X278079Y41529D01*
X278107Y41585D01*
X278139Y41640D01*
X278174Y41692D01*
X278213Y41742D01*
X278254Y41790D01*
X278299Y41835D01*
X278346Y41877D01*
X278395Y41916D01*
X278447Y41952D01*
X278501Y41985D01*
X278557Y42014D01*
X278615Y42040D01*
X278674Y42062D01*
X278734Y42081D01*
X278796Y42095D01*
X278858Y42106D01*
X278921Y42113D01*
X278984Y42116D01*
X279047Y42115D01*
X279110Y42110D01*
X279173Y42101D01*
X279235Y42088D01*
X279296Y42072D01*
X279356Y42052D01*
X279414Y42028D01*
X279471Y42000D01*
X279526Y41969D01*
X279579Y41935D01*
X279630Y41897D01*
X279678Y41856D01*
X279724Y41813D01*
X279767Y41766D01*
X279807Y41717D01*
X279844Y41666D01*
X279877Y41613D01*
X279907Y41557D01*
X279934Y41500D01*
X279957Y41441D01*
X279976Y41381D01*
X279992Y41319D01*
X280004Y41257D01*
X280012Y41195D01*
X280016Y41132D01*
X280016Y41068D01*
X280012Y41005D01*
X280004Y40943D01*
X279992Y40881D01*
X279976Y40819D01*
X279957Y40759D01*
X279934Y40700D01*
X279907Y40643D01*
X279877Y40587D01*
X279844Y40534D01*
X279807Y40483D01*
X279767Y40434D01*
X279724Y40387D01*
X279678Y40344D01*
X279630Y40303D01*
X279579Y40265D01*
X279526Y40231D01*
X279471Y40200D01*
X279414Y40172D01*
X279356Y40148D01*
X279296Y40128D01*
X279235Y40112D01*
X279173Y40099D01*
X279110Y40090D01*
X279047Y40085D01*
X278984Y40084D01*
X278921Y40087D01*
X278858Y40094D01*
X278796Y40105D01*
X278734Y40119D01*
X278674Y40138D01*
X278615Y40160D01*
X278557Y40186D01*
X278501Y40215D01*
X278447Y40248D01*
X278395Y40284D01*
X278346Y40323D01*
X278299Y40365D01*
X278254Y40410D01*
X278213Y40458D01*
X278174Y40508D01*
X278139Y40560D01*
X278107Y40615D01*
X278079Y40671D01*
X278054Y40730D01*
X278033Y40789D01*
X278015Y40850D01*
X278002Y40911D01*
X277992Y40974D01*
X277986Y41037D01*
X277984Y41100D01*
D11*
X60198Y1026160D03*
D10*
X88900Y1020294D02*
X88900Y1011706D01*
X63500Y1011706D02*
X63500Y1020294D01*
X73516Y1008912D02*
X78884Y1008912D01*
X133450Y972900D02*
X145950Y972900D01*
X145950Y981600D02*
X145950Y999600D01*
X133450Y999600D02*
X133450Y981600D01*
D12*
X-2540Y326136D02*
X-2540Y308864D01*
X-20320Y306324D02*
X-20420Y306326D01*
X-20519Y306332D01*
X-20619Y306342D01*
X-20717Y306355D01*
X-20816Y306373D01*
X-20913Y306394D01*
X-21009Y306419D01*
X-21105Y306448D01*
X-21199Y306481D01*
X-21292Y306517D01*
X-21383Y306557D01*
X-21473Y306601D01*
X-21561Y306648D01*
X-21647Y306698D01*
X-21731Y306752D01*
X-21813Y306809D01*
X-21892Y306869D01*
X-21970Y306933D01*
X-22044Y306999D01*
X-22116Y307068D01*
X-22185Y307140D01*
X-22251Y307214D01*
X-22315Y307292D01*
X-22375Y307371D01*
X-22432Y307453D01*
X-22486Y307537D01*
X-22536Y307623D01*
X-22583Y307711D01*
X-22627Y307801D01*
X-22667Y307892D01*
X-22703Y307985D01*
X-22736Y308079D01*
X-22765Y308175D01*
X-22790Y308271D01*
X-22811Y308368D01*
X-22829Y308467D01*
X-22842Y308565D01*
X-22852Y308665D01*
X-22858Y308764D01*
X-22860Y308864D01*
X-22860Y326136D02*
X-22858Y326236D01*
X-22852Y326335D01*
X-22842Y326435D01*
X-22829Y326533D01*
X-22811Y326632D01*
X-22790Y326729D01*
X-22765Y326825D01*
X-22736Y326921D01*
X-22703Y327015D01*
X-22667Y327108D01*
X-22627Y327199D01*
X-22583Y327289D01*
X-22536Y327377D01*
X-22486Y327463D01*
X-22432Y327547D01*
X-22375Y327629D01*
X-22315Y327708D01*
X-22251Y327786D01*
X-22185Y327860D01*
X-22116Y327932D01*
X-22044Y328001D01*
X-21970Y328067D01*
X-21892Y328131D01*
X-21813Y328191D01*
X-21731Y328248D01*
X-21647Y328302D01*
X-21561Y328352D01*
X-21473Y328399D01*
X-21383Y328443D01*
X-21292Y328483D01*
X-21199Y328519D01*
X-21105Y328552D01*
X-21009Y328581D01*
X-20913Y328606D01*
X-20816Y328627D01*
X-20717Y328645D01*
X-20619Y328658D01*
X-20519Y328668D01*
X-20420Y328674D01*
X-20320Y328676D01*
X-5080Y328676D02*
X-4980Y328674D01*
X-4881Y328668D01*
X-4781Y328658D01*
X-4683Y328645D01*
X-4584Y328627D01*
X-4487Y328606D01*
X-4391Y328581D01*
X-4295Y328552D01*
X-4201Y328519D01*
X-4108Y328483D01*
X-4017Y328443D01*
X-3927Y328399D01*
X-3839Y328352D01*
X-3753Y328302D01*
X-3669Y328248D01*
X-3587Y328191D01*
X-3508Y328131D01*
X-3430Y328067D01*
X-3356Y328001D01*
X-3284Y327932D01*
X-3215Y327860D01*
X-3149Y327786D01*
X-3085Y327708D01*
X-3025Y327629D01*
X-2968Y327547D01*
X-2914Y327463D01*
X-2864Y327377D01*
X-2817Y327289D01*
X-2773Y327199D01*
X-2733Y327108D01*
X-2697Y327015D01*
X-2664Y326921D01*
X-2635Y326825D01*
X-2610Y326729D01*
X-2589Y326632D01*
X-2571Y326533D01*
X-2558Y326435D01*
X-2548Y326335D01*
X-2542Y326236D01*
X-2540Y326136D01*
X-2540Y308864D02*
X-2542Y308764D01*
X-2548Y308665D01*
X-2558Y308565D01*
X-2571Y308467D01*
X-2589Y308368D01*
X-2610Y308271D01*
X-2635Y308175D01*
X-2664Y308079D01*
X-2697Y307985D01*
X-2733Y307892D01*
X-2773Y307801D01*
X-2817Y307711D01*
X-2864Y307623D01*
X-2914Y307537D01*
X-2968Y307453D01*
X-3025Y307371D01*
X-3085Y307292D01*
X-3149Y307214D01*
X-3215Y307140D01*
X-3284Y307068D01*
X-3356Y306999D01*
X-3430Y306933D01*
X-3508Y306869D01*
X-3587Y306809D01*
X-3669Y306752D01*
X-3753Y306698D01*
X-3839Y306648D01*
X-3927Y306601D01*
X-4017Y306557D01*
X-4108Y306517D01*
X-4201Y306481D01*
X-4295Y306448D01*
X-4391Y306419D01*
X-4487Y306394D01*
X-4584Y306373D01*
X-4683Y306355D01*
X-4781Y306342D01*
X-4881Y306332D01*
X-4980Y306326D01*
X-5080Y306324D01*
X-20320Y306324D01*
X-20320Y328676D02*
X-5080Y328676D01*
X-22860Y326136D02*
X-22860Y308864D01*
D10*
X317500Y835530D02*
X345270Y835530D01*
X345270Y845800D01*
X190500Y835530D02*
X162730Y835530D01*
X162730Y845800D01*
X345270Y1022910D02*
X345270Y1093070D01*
X162730Y1093070D02*
X162730Y1022910D01*
X162730Y1093070D02*
X345270Y1093070D01*
X82137Y937768D02*
X82137Y840232D01*
X117253Y836422D02*
X117366Y836406D01*
X117480Y836395D01*
X117594Y836388D01*
X117708Y836384D01*
X117823Y836385D01*
X117937Y836389D01*
X118051Y836397D01*
X118165Y836409D01*
X118278Y836425D01*
X118390Y836445D01*
X118502Y836469D01*
X118613Y836496D01*
X118723Y836528D01*
X118832Y836563D01*
X118940Y836601D01*
X119046Y836644D01*
X119150Y836690D01*
X119254Y836739D01*
X119355Y836792D01*
X119454Y836848D01*
X119552Y836908D01*
X119647Y836971D01*
X119740Y837038D01*
X119831Y837107D01*
X119919Y837179D01*
X120005Y837255D01*
X120089Y837333D01*
X120169Y837414D01*
X120247Y837498D01*
X120322Y837585D01*
X120393Y837674D01*
X120462Y837765D01*
X120528Y837859D01*
X120590Y837954D01*
X120649Y838052D01*
X120705Y838152D01*
X120757Y838254D01*
X120806Y838357D01*
X120851Y838462D01*
X120892Y838569D01*
X120930Y838677D01*
X120965Y838786D01*
X120995Y838896D01*
X121022Y839007D01*
X121044Y839119D01*
X121063Y839232D01*
X82137Y937768D02*
X82154Y937898D01*
X82175Y938027D01*
X82200Y938156D01*
X82228Y938284D01*
X82261Y938411D01*
X82297Y938537D01*
X82338Y938662D01*
X82382Y938785D01*
X82429Y938907D01*
X82481Y939028D01*
X82535Y939147D01*
X82594Y939264D01*
X82656Y939379D01*
X82721Y939493D01*
X82790Y939605D01*
X82863Y939714D01*
X82938Y939821D01*
X83017Y939926D01*
X83099Y940028D01*
X83184Y940128D01*
X83271Y940225D01*
X83362Y940320D01*
X83456Y940412D01*
X83552Y940501D01*
X83651Y940587D01*
X83752Y940669D01*
X83856Y940749D01*
X83963Y940826D01*
X84071Y940899D01*
X84182Y940969D01*
X84295Y941036D01*
X84410Y941099D01*
X84526Y941159D01*
X84645Y941215D01*
X84765Y941268D01*
X84886Y941317D01*
X85009Y941362D01*
X85134Y941404D01*
X85259Y941442D01*
X85386Y941475D01*
X85513Y941506D01*
X85642Y941532D01*
X85771Y941554D01*
X85901Y941573D01*
X86031Y941587D01*
X86162Y941598D01*
X86293Y941604D01*
X86424Y941607D01*
X86555Y941606D01*
X86686Y941600D01*
X86816Y941591D01*
X86947Y941578D01*
X82137Y840232D02*
X82139Y840110D01*
X82145Y839988D01*
X82155Y839866D01*
X82168Y839745D01*
X82186Y839624D01*
X82207Y839504D01*
X82232Y839384D01*
X82261Y839265D01*
X82294Y839148D01*
X82331Y839031D01*
X82371Y838916D01*
X82415Y838802D01*
X82463Y838690D01*
X82514Y838579D01*
X82569Y838470D01*
X82627Y838362D01*
X82689Y838257D01*
X82754Y838153D01*
X82822Y838052D01*
X82893Y837953D01*
X82968Y837856D01*
X83046Y837762D01*
X83126Y837670D01*
X83210Y837581D01*
X83296Y837495D01*
X83385Y837411D01*
X83477Y837331D01*
X83571Y837253D01*
X83668Y837178D01*
X83767Y837107D01*
X83868Y837039D01*
X83972Y836974D01*
X84077Y836912D01*
X84185Y836854D01*
X84294Y836799D01*
X84405Y836748D01*
X84517Y836700D01*
X84631Y836656D01*
X84746Y836616D01*
X84863Y836579D01*
X84980Y836546D01*
X85099Y836517D01*
X85219Y836492D01*
X85339Y836471D01*
X85460Y836453D01*
X85581Y836440D01*
X85703Y836430D01*
X85825Y836424D01*
X85947Y836422D01*
X121063Y937767D02*
X121078Y937881D01*
X121090Y937995D01*
X121097Y938109D01*
X121101Y938223D01*
X121100Y938337D01*
X121096Y938452D01*
X121088Y938566D01*
X121076Y938679D01*
X121060Y938792D01*
X121040Y938905D01*
X121016Y939017D01*
X120989Y939128D01*
X120958Y939238D01*
X120923Y939347D01*
X120884Y939454D01*
X120842Y939561D01*
X120796Y939665D01*
X120746Y939768D01*
X120693Y939870D01*
X120637Y939969D01*
X120577Y940067D01*
X120514Y940162D01*
X120448Y940255D01*
X120378Y940346D01*
X120306Y940434D01*
X120230Y940520D01*
X120152Y940603D01*
X120071Y940684D01*
X119987Y940762D01*
X119901Y940836D01*
X119812Y940908D01*
X119720Y940977D01*
X119627Y941043D01*
X119531Y941105D01*
X119433Y941164D01*
X119333Y941220D01*
X119231Y941272D01*
X119128Y941320D01*
X119023Y941366D01*
X118916Y941407D01*
X118808Y941445D01*
X118699Y941479D01*
X118589Y941509D01*
X118478Y941536D01*
X118366Y941559D01*
X118253Y941578D01*
X121063Y937768D02*
X121063Y839232D01*
X117253Y836422D02*
X85947Y836422D01*
X95504Y941070D02*
X95506Y940912D01*
X95512Y940753D01*
X95522Y940595D01*
X95536Y940438D01*
X95553Y940280D01*
X95575Y940124D01*
X95600Y939967D01*
X95630Y939812D01*
X95663Y939657D01*
X95700Y939503D01*
X95741Y939350D01*
X95786Y939198D01*
X95835Y939048D01*
X95887Y938898D01*
X95943Y938750D01*
X96003Y938603D01*
X96066Y938458D01*
X96133Y938315D01*
X96203Y938173D01*
X96277Y938033D01*
X96355Y937895D01*
X96436Y937759D01*
X96520Y937625D01*
X96607Y937493D01*
X96698Y937363D01*
X96792Y937236D01*
X96889Y937111D01*
X96990Y936988D01*
X97093Y936868D01*
X97199Y936751D01*
X97308Y936636D01*
X97420Y936524D01*
X97535Y936415D01*
X97652Y936309D01*
X97772Y936206D01*
X97895Y936105D01*
X98020Y936008D01*
X98147Y935914D01*
X98277Y935823D01*
X98409Y935736D01*
X98543Y935652D01*
X98679Y935571D01*
X98817Y935493D01*
X98957Y935419D01*
X99099Y935349D01*
X99242Y935282D01*
X99387Y935219D01*
X99534Y935159D01*
X99682Y935103D01*
X99832Y935051D01*
X99982Y935002D01*
X100134Y934957D01*
X100287Y934916D01*
X100441Y934879D01*
X100596Y934846D01*
X100751Y934816D01*
X100908Y934791D01*
X101064Y934769D01*
X101222Y934752D01*
X101379Y934738D01*
X101537Y934728D01*
X101696Y934722D01*
X101854Y934720D01*
X102012Y934722D01*
X102171Y934728D01*
X102329Y934738D01*
X102486Y934752D01*
X102644Y934769D01*
X102800Y934791D01*
X102957Y934816D01*
X103112Y934846D01*
X103267Y934879D01*
X103421Y934916D01*
X103574Y934957D01*
X103726Y935002D01*
X103876Y935051D01*
X104026Y935103D01*
X104174Y935159D01*
X104321Y935219D01*
X104466Y935282D01*
X104609Y935349D01*
X104751Y935419D01*
X104891Y935493D01*
X105029Y935571D01*
X105165Y935652D01*
X105299Y935736D01*
X105431Y935823D01*
X105561Y935914D01*
X105688Y936008D01*
X105813Y936105D01*
X105936Y936206D01*
X106056Y936309D01*
X106173Y936415D01*
X106288Y936524D01*
X106400Y936636D01*
X106509Y936751D01*
X106615Y936868D01*
X106718Y936988D01*
X106819Y937111D01*
X106916Y937236D01*
X107010Y937363D01*
X107101Y937493D01*
X107188Y937625D01*
X107272Y937759D01*
X107353Y937895D01*
X107431Y938033D01*
X107505Y938173D01*
X107575Y938315D01*
X107642Y938458D01*
X107705Y938603D01*
X107765Y938750D01*
X107821Y938898D01*
X107873Y939048D01*
X107922Y939198D01*
X107967Y939350D01*
X108008Y939503D01*
X108045Y939657D01*
X108078Y939812D01*
X108108Y939967D01*
X108133Y940124D01*
X108155Y940280D01*
X108172Y940438D01*
X108186Y940595D01*
X108196Y940753D01*
X108202Y940912D01*
X108204Y941070D01*
X95504Y941578D02*
X87074Y941578D01*
X108204Y941578D02*
X118253Y941578D01*
D13*
X125730Y946150D02*
X125732Y946221D01*
X125738Y946292D01*
X125748Y946363D01*
X125762Y946433D01*
X125780Y946502D01*
X125801Y946569D01*
X125827Y946636D01*
X125856Y946701D01*
X125888Y946764D01*
X125925Y946826D01*
X125964Y946885D01*
X126007Y946942D01*
X126053Y946996D01*
X126102Y947048D01*
X126154Y947097D01*
X126208Y947143D01*
X126265Y947186D01*
X126324Y947225D01*
X126386Y947262D01*
X126449Y947294D01*
X126514Y947323D01*
X126581Y947349D01*
X126648Y947370D01*
X126717Y947388D01*
X126787Y947402D01*
X126858Y947412D01*
X126929Y947418D01*
X127000Y947420D01*
X127071Y947418D01*
X127142Y947412D01*
X127213Y947402D01*
X127283Y947388D01*
X127352Y947370D01*
X127419Y947349D01*
X127486Y947323D01*
X127551Y947294D01*
X127614Y947262D01*
X127676Y947225D01*
X127735Y947186D01*
X127792Y947143D01*
X127846Y947097D01*
X127898Y947048D01*
X127947Y946996D01*
X127993Y946942D01*
X128036Y946885D01*
X128075Y946826D01*
X128112Y946764D01*
X128144Y946701D01*
X128173Y946636D01*
X128199Y946569D01*
X128220Y946502D01*
X128238Y946433D01*
X128252Y946363D01*
X128262Y946292D01*
X128268Y946221D01*
X128270Y946150D01*
X128268Y946079D01*
X128262Y946008D01*
X128252Y945937D01*
X128238Y945867D01*
X128220Y945798D01*
X128199Y945731D01*
X128173Y945664D01*
X128144Y945599D01*
X128112Y945536D01*
X128075Y945474D01*
X128036Y945415D01*
X127993Y945358D01*
X127947Y945304D01*
X127898Y945252D01*
X127846Y945203D01*
X127792Y945157D01*
X127735Y945114D01*
X127676Y945075D01*
X127614Y945038D01*
X127551Y945006D01*
X127486Y944977D01*
X127419Y944951D01*
X127352Y944930D01*
X127283Y944912D01*
X127213Y944898D01*
X127142Y944888D01*
X127071Y944882D01*
X127000Y944880D01*
X126929Y944882D01*
X126858Y944888D01*
X126787Y944898D01*
X126717Y944912D01*
X126648Y944930D01*
X126581Y944951D01*
X126514Y944977D01*
X126449Y945006D01*
X126386Y945038D01*
X126324Y945075D01*
X126265Y945114D01*
X126208Y945157D01*
X126154Y945203D01*
X126102Y945252D01*
X126053Y945304D01*
X126007Y945358D01*
X125964Y945415D01*
X125925Y945474D01*
X125888Y945536D01*
X125856Y945599D01*
X125827Y945664D01*
X125801Y945731D01*
X125780Y945798D01*
X125762Y945867D01*
X125748Y945937D01*
X125738Y946008D01*
X125732Y946079D01*
X125730Y946150D01*
D14*
X27940Y875665D03*
D10*
X31877Y877824D02*
X45593Y877824D01*
X45593Y900176D02*
X30607Y900176D01*
X45593Y879221D02*
X45593Y877824D01*
X45593Y898779D02*
X45593Y900176D01*
X30607Y879221D02*
X31877Y877824D01*
X30607Y898779D02*
X30607Y900176D01*
X375620Y146050D02*
X375620Y14050D01*
X515620Y25050D02*
X515620Y146050D01*
X398620Y-6950D02*
X390620Y-6950D01*
X415620Y10050D02*
X499620Y10050D01*
X424620Y146050D02*
X375620Y146050D01*
X451620Y146050D02*
X481620Y146050D01*
X508620Y146050D02*
X515620Y146050D01*
X405620Y50D02*
X405630Y-110D01*
X405637Y-271D01*
X405639Y-431D01*
X405637Y-592D01*
X405632Y-752D01*
X405623Y-913D01*
X405609Y-1073D01*
X405592Y-1232D01*
X405571Y-1391D01*
X405546Y-1550D01*
X405516Y-1708D01*
X405484Y-1865D01*
X405447Y-2022D01*
X405406Y-2177D01*
X405362Y-2331D01*
X405313Y-2484D01*
X405261Y-2636D01*
X405206Y-2787D01*
X405146Y-2936D01*
X405083Y-3084D01*
X405017Y-3230D01*
X404946Y-3374D01*
X404873Y-3517D01*
X404795Y-3658D01*
X404715Y-3796D01*
X404630Y-3933D01*
X404543Y-4068D01*
X404452Y-4200D01*
X404358Y-4331D01*
X404261Y-4458D01*
X404161Y-4584D01*
X404057Y-4707D01*
X403951Y-4827D01*
X403842Y-4945D01*
X403730Y-5060D01*
X403615Y-5172D01*
X403497Y-5281D01*
X403377Y-5387D01*
X403254Y-5491D01*
X403128Y-5591D01*
X403001Y-5688D01*
X402870Y-5782D01*
X402738Y-5873D01*
X402603Y-5960D01*
X402466Y-6045D01*
X402328Y-6125D01*
X402187Y-6203D01*
X402044Y-6276D01*
X401900Y-6347D01*
X401754Y-6413D01*
X401606Y-6476D01*
X401457Y-6536D01*
X401306Y-6591D01*
X401154Y-6643D01*
X401001Y-6692D01*
X400847Y-6736D01*
X400692Y-6777D01*
X400535Y-6814D01*
X400378Y-6846D01*
X400220Y-6876D01*
X400061Y-6901D01*
X399902Y-6922D01*
X399743Y-6939D01*
X399583Y-6953D01*
X399422Y-6962D01*
X399262Y-6967D01*
X399101Y-6969D01*
X398941Y-6967D01*
X398780Y-6960D01*
X398620Y-6950D01*
X405620Y50D02*
X405629Y298D01*
X405644Y545D01*
X405665Y792D01*
X405692Y1038D01*
X405725Y1283D01*
X405764Y1528D01*
X405808Y1772D01*
X405859Y2014D01*
X405915Y2255D01*
X405978Y2495D01*
X406046Y2733D01*
X406119Y2970D01*
X406199Y3204D01*
X406284Y3437D01*
X406374Y3667D01*
X406471Y3896D01*
X406572Y4122D01*
X406679Y4345D01*
X406792Y4566D01*
X406910Y4784D01*
X407033Y4999D01*
X407161Y5210D01*
X407294Y5419D01*
X407432Y5625D01*
X407575Y5827D01*
X407723Y6026D01*
X407876Y6221D01*
X408034Y6412D01*
X408196Y6599D01*
X408362Y6783D01*
X408533Y6962D01*
X408708Y7137D01*
X408887Y7308D01*
X409071Y7474D01*
X409258Y7636D01*
X409449Y7794D01*
X409644Y7947D01*
X409843Y8095D01*
X410045Y8238D01*
X410251Y8376D01*
X410460Y8509D01*
X410671Y8637D01*
X410886Y8760D01*
X411104Y8878D01*
X411325Y8991D01*
X411548Y9098D01*
X411774Y9199D01*
X412003Y9296D01*
X412233Y9386D01*
X412466Y9471D01*
X412700Y9551D01*
X412937Y9624D01*
X413175Y9692D01*
X413415Y9755D01*
X413656Y9811D01*
X413898Y9862D01*
X414142Y9906D01*
X414387Y9945D01*
X414632Y9978D01*
X414878Y10005D01*
X415125Y10026D01*
X415372Y10041D01*
X415620Y10050D01*
D15*
X125491Y1044900D02*
X125493Y1044953D01*
X125499Y1045005D01*
X125509Y1045057D01*
X125522Y1045108D01*
X125540Y1045158D01*
X125561Y1045207D01*
X125586Y1045254D01*
X125614Y1045298D01*
X125645Y1045341D01*
X125680Y1045381D01*
X125717Y1045418D01*
X125757Y1045453D01*
X125800Y1045484D01*
X125845Y1045512D01*
X125891Y1045537D01*
X125940Y1045558D01*
X125990Y1045576D01*
X126041Y1045589D01*
X126093Y1045599D01*
X126145Y1045605D01*
X126198Y1045607D01*
X126251Y1045605D01*
X126303Y1045599D01*
X126355Y1045589D01*
X126406Y1045576D01*
X126456Y1045558D01*
X126505Y1045537D01*
X126552Y1045512D01*
X126596Y1045484D01*
X126639Y1045453D01*
X126679Y1045418D01*
X126716Y1045381D01*
X126751Y1045341D01*
X126782Y1045298D01*
X126810Y1045253D01*
X126835Y1045207D01*
X126856Y1045158D01*
X126874Y1045108D01*
X126887Y1045057D01*
X126897Y1045005D01*
X126903Y1044953D01*
X126905Y1044900D01*
X126903Y1044847D01*
X126897Y1044795D01*
X126887Y1044743D01*
X126874Y1044692D01*
X126856Y1044642D01*
X126835Y1044593D01*
X126810Y1044546D01*
X126782Y1044502D01*
X126751Y1044459D01*
X126716Y1044419D01*
X126679Y1044382D01*
X126639Y1044347D01*
X126596Y1044316D01*
X126551Y1044288D01*
X126505Y1044263D01*
X126456Y1044242D01*
X126406Y1044224D01*
X126355Y1044211D01*
X126303Y1044201D01*
X126251Y1044195D01*
X126198Y1044193D01*
X126145Y1044195D01*
X126093Y1044201D01*
X126041Y1044211D01*
X125990Y1044224D01*
X125940Y1044242D01*
X125891Y1044263D01*
X125844Y1044288D01*
X125800Y1044316D01*
X125757Y1044347D01*
X125717Y1044382D01*
X125680Y1044419D01*
X125645Y1044459D01*
X125614Y1044502D01*
X125586Y1044547D01*
X125561Y1044593D01*
X125540Y1044642D01*
X125522Y1044692D01*
X125509Y1044743D01*
X125499Y1044795D01*
X125493Y1044847D01*
X125491Y1044900D01*
M02*
