M48
;GenerationSoftware,Autodesk,EAGLE,9.5.2*%
;CreationDate,2020-08-29T03:07:21Z*%
FMAT,2
ICI,OFF
METRIC,TZ,000.000
T6C0.305
T5C0.400
T4C0.650
T3C0.850
T2C1.016
T1C3.200
%
G90
M71
T1
X-1829Y77076
X-1829Y27064
X55169Y27064
X55169Y77076
T2
X-5080Y30480
X48260Y6985
X45720Y6985
X53340Y6985
X11430Y19050
X11430Y21590
X11430Y24130
X11430Y26670
X45720Y22860
X45720Y25400
X45720Y27940
X39370Y82550
X39370Y85090
X12700Y101600
X12700Y99060
X39370Y87630
X39370Y90170
X-5080Y33020
X45720Y30480
X7620Y6985
X5080Y6985
X2540Y6985
X0Y6985
X50800Y6985
T3
X5080Y16280
X5080Y31980
X5080Y28980
X5080Y19280
T4
X23780Y4651
X29560Y4651
X1095Y86010
X1095Y91790
T5
X22352Y1001
X30988Y1001
X30988Y5181
X22352Y5181
X-2555Y84582
X-2555Y93218
X1625Y93218
X1625Y84582
T6
X20320Y31496
X22479Y31496
X24638Y31496
X26670Y31496
X28829Y31496
X30861Y31496
X33020Y31496
X35052Y31496
X18161Y31496
X20447Y21336
X22606Y21336
X24765Y21336
X26797Y21336
X28956Y21336
X30988Y21336
X33147Y21336
X35179Y21336
X18288Y21336
X20320Y23368
X22479Y23368
X24638Y23368
X26670Y23368
X28829Y23368
X30861Y23368
X33020Y23368
X35052Y23368
X18161Y23368
X20320Y25400
X22479Y25400
X24638Y25400
X26670Y25400
X28829Y25400
X30861Y25400
X33020Y25400
X35052Y25400
X18161Y25400
X20320Y19304
X22479Y19304
X24638Y19304
X26670Y19304
X28829Y19304
X30861Y19304
X33020Y19304
X35052Y19304
X18161Y19304
X18542Y16256
X30607Y16256
X27559Y16256
X29591Y16256
X31750Y16256
X33782Y16256
X16891Y16256
X15367Y34417
X17526Y34417
X19558Y34417
X23876Y34544
X29464Y34544
X31496Y34544
X33401Y34544
X35560Y34671
X37592Y34671
X38735Y32258
X38354Y25527
X38354Y22606
X38354Y21209
X38354Y19685
X38481Y17399
X38735Y34036
X35052Y18034
X37465Y16002
X35814Y16002
X19812Y16256
X19685Y15113
X18923Y14224
X18161Y13462
X17272Y12446
X16256Y11684
X15494Y10795
X16891Y9652
X14859Y7874
X13970Y7620
X18415Y7620
X12573Y7620
X10668Y7620
X17018Y7620
X10414Y6223
X10414Y4826
X10414Y3429
X10414Y635
X10414Y2032
X17526Y10414
X18415Y11430
X15113Y16129
X15113Y18161
X16637Y17653
X15240Y25400
X15240Y26543
X14859Y9652
X19304Y12192
X20193Y13208
X21082Y14097
X22479Y29464
X19939Y7620
X21336Y7493
X21209Y6223
X21209Y4699
X21209Y3556
X21209Y2032
X21209Y635
X21717Y16637
X18161Y17653
X18034Y33147
X16764Y33147
X35179Y33147
X36703Y33274
X36830Y17653
X-4191Y42418
X26035Y50546
X38989Y9652
X38504Y38583
X9436Y26670
X10414Y38481
X9093Y28778
X12298Y39518
X34188Y40157
X37973Y9652
X25019Y34366
X25019Y40767
X12954Y37719
X20320Y40767
X19939Y54610
X24257Y6858
X29083Y6858
X49530Y37465
X25400Y14478
X9017Y93980
X7493Y78486
X44450Y78486
X44450Y68961
X19685Y43053
X45720Y39751
X26670Y13970
X25616Y37592
X20320Y37719
X24130Y13970
X22860Y37719
X3810Y15240
X1270Y36830
X43180Y36678
X10160Y15240
X9779Y35814
X43942Y35560
X54229Y58928
X54356Y69850
X6731Y69596
X5461Y102489
X15240Y72390
X15240Y95250
X35560Y72390
X33020Y37465
X55372Y41910
X2413Y35814
X49530Y34290
X9398Y32131
X7874Y35941
X48641Y36195
X7620Y22860
X635Y27940
X7905Y25685
X7112Y86995
X16383Y83947
X53975Y83947
X53975Y95250
X4911Y91355
X46990Y39370
X36830Y85090
X33909Y62230
X3810Y17780
X4445Y37427
X22352Y40640
X16764Y86487
X22860Y86360
X16764Y89027
X-2286Y37973
X18034Y40132
X-2921Y70993
X16764Y70993
X16510Y85090
X6350Y17780
X6350Y38989
X21590Y39268
X21590Y87630
X16510Y87630
X33782Y46990
X33909Y54610
X36830Y93980
X12700Y85725
X3208Y88557
X12700Y86995
X1016Y89154
X4064Y91694
X5080Y82550
X3302Y86487
X30480Y39370
X18034Y75311
X40894Y75057
X41148Y98679
X30226Y75311
X27432Y43650
X30480Y37719
X19431Y9652
X27686Y40767
X34290Y43180
X33909Y50800
X19558Y50800
X19685Y58420
X33909Y58420
X35941Y3302
X51435Y3048
X5715Y2794
X-2667Y59436
X22860Y13208
X26670Y9652
X30099Y6985
X22987Y6985
X3429Y93091
X3048Y83185
X13589Y93980
X13081Y92075
X20447Y27432
X22606Y27432
X24765Y27432
X26797Y27432
X28956Y27432
X30988Y27432
X33147Y27432
X35179Y27432
X18288Y27432
X20320Y29464
X24638Y29464
X26670Y29464
X28829Y29464
X30861Y29464
X33020Y29464
X35052Y29464
X18161Y29464
X20320Y85090
M30