G04 EAGLE Gerber RS-274X export*
G75*
%MOMM*%
%FSLAX34Y34*%
%LPD*%
%INInner Layer 2*%
%IPPOS*%
%AMOC8*
5,1,8,0,0,1.08239X$1,22.5*%
G01*
%ADD10C,0.755600*%
%ADD11C,1.524000*%
%ADD12C,0.660400*%
%ADD13C,0.558800*%
%ADD14C,0.177800*%
%ADD15C,0.254000*%

G36*
X177058Y423041D02*
X177058Y423041D01*
X177077Y423039D01*
X177179Y423061D01*
X177281Y423077D01*
X177298Y423087D01*
X177318Y423091D01*
X177407Y423144D01*
X177498Y423193D01*
X177512Y423207D01*
X177529Y423217D01*
X177596Y423296D01*
X177668Y423371D01*
X177676Y423389D01*
X177689Y423404D01*
X177728Y423500D01*
X177771Y423594D01*
X177773Y423614D01*
X177781Y423632D01*
X177792Y423738D01*
X180775Y426721D01*
X184985Y426721D01*
X187966Y423739D01*
X187984Y423658D01*
X188000Y423556D01*
X188010Y423539D01*
X188014Y423519D01*
X188067Y423430D01*
X188116Y423339D01*
X188130Y423325D01*
X188140Y423308D01*
X188219Y423241D01*
X188294Y423169D01*
X188312Y423161D01*
X188327Y423148D01*
X188423Y423109D01*
X188517Y423066D01*
X188537Y423064D01*
X188555Y423056D01*
X188722Y423038D01*
X195624Y423038D01*
X195714Y423052D01*
X195805Y423060D01*
X195835Y423072D01*
X195867Y423077D01*
X195948Y423120D01*
X196031Y423156D01*
X196064Y423182D01*
X196084Y423193D01*
X196106Y423216D01*
X196162Y423261D01*
X200638Y427737D01*
X205860Y427737D01*
X205931Y427748D01*
X206003Y427750D01*
X206052Y427768D01*
X206103Y427776D01*
X206166Y427810D01*
X206234Y427835D01*
X206274Y427867D01*
X206320Y427892D01*
X206370Y427944D01*
X206426Y427988D01*
X206454Y428032D01*
X206490Y428070D01*
X206520Y428135D01*
X206559Y428195D01*
X206571Y428246D01*
X206593Y428293D01*
X206601Y428364D01*
X206619Y428434D01*
X206615Y428486D01*
X206620Y428537D01*
X206605Y428608D01*
X206600Y428679D01*
X206579Y428727D01*
X206568Y428778D01*
X206531Y428839D01*
X206503Y428905D01*
X206459Y428961D01*
X206442Y428989D01*
X206424Y429004D01*
X206399Y429036D01*
X205739Y429695D01*
X205739Y433905D01*
X208715Y436881D01*
X212925Y436881D01*
X215901Y433905D01*
X215901Y429695D01*
X215241Y429036D01*
X215200Y428978D01*
X215150Y428926D01*
X215128Y428879D01*
X215098Y428837D01*
X215077Y428768D01*
X215047Y428703D01*
X215041Y428651D01*
X215026Y428601D01*
X215027Y428530D01*
X215020Y428459D01*
X215031Y428408D01*
X215032Y428356D01*
X215057Y428288D01*
X215072Y428218D01*
X215099Y428173D01*
X215116Y428125D01*
X215161Y428069D01*
X215198Y428007D01*
X215238Y427973D01*
X215270Y427933D01*
X215330Y427894D01*
X215385Y427847D01*
X215433Y427828D01*
X215477Y427800D01*
X215547Y427782D01*
X215613Y427755D01*
X215684Y427747D01*
X215716Y427739D01*
X215739Y427741D01*
X215780Y427737D01*
X233800Y427737D01*
X233871Y427748D01*
X233943Y427750D01*
X233992Y427768D01*
X234043Y427776D01*
X234106Y427810D01*
X234174Y427835D01*
X234214Y427867D01*
X234260Y427892D01*
X234310Y427944D01*
X234366Y427988D01*
X234394Y428032D01*
X234430Y428070D01*
X234460Y428135D01*
X234499Y428195D01*
X234511Y428246D01*
X234533Y428293D01*
X234541Y428364D01*
X234559Y428434D01*
X234555Y428486D01*
X234560Y428537D01*
X234545Y428608D01*
X234540Y428679D01*
X234519Y428727D01*
X234508Y428778D01*
X234471Y428839D01*
X234443Y428905D01*
X234399Y428961D01*
X234382Y428989D01*
X234364Y429004D01*
X234339Y429036D01*
X232409Y430965D01*
X232409Y435175D01*
X235385Y438151D01*
X239595Y438151D01*
X242571Y435175D01*
X242571Y430965D01*
X240641Y429036D01*
X240600Y428978D01*
X240550Y428926D01*
X240528Y428879D01*
X240498Y428837D01*
X240477Y428768D01*
X240447Y428703D01*
X240441Y428651D01*
X240426Y428601D01*
X240427Y428530D01*
X240420Y428459D01*
X240431Y428408D01*
X240432Y428356D01*
X240457Y428288D01*
X240472Y428218D01*
X240499Y428173D01*
X240516Y428125D01*
X240561Y428069D01*
X240598Y428007D01*
X240638Y427973D01*
X240670Y427933D01*
X240730Y427894D01*
X240785Y427847D01*
X240833Y427828D01*
X240877Y427800D01*
X240946Y427782D01*
X241013Y427755D01*
X241084Y427747D01*
X241116Y427739D01*
X241139Y427741D01*
X241180Y427737D01*
X323342Y427737D01*
X323362Y427740D01*
X323381Y427738D01*
X323483Y427760D01*
X323585Y427776D01*
X323602Y427786D01*
X323622Y427790D01*
X323711Y427843D01*
X323802Y427892D01*
X323816Y427906D01*
X323833Y427916D01*
X323900Y427995D01*
X323972Y428070D01*
X323980Y428088D01*
X323993Y428103D01*
X324032Y428199D01*
X324075Y428293D01*
X324077Y428313D01*
X324085Y428331D01*
X324103Y428498D01*
X324103Y429079D01*
X327079Y432055D01*
X327914Y432055D01*
X327934Y432058D01*
X327953Y432056D01*
X328055Y432078D01*
X328157Y432094D01*
X328174Y432104D01*
X328194Y432108D01*
X328283Y432161D01*
X328374Y432210D01*
X328388Y432224D01*
X328405Y432234D01*
X328472Y432313D01*
X328544Y432388D01*
X328552Y432406D01*
X328565Y432421D01*
X328604Y432517D01*
X328647Y432611D01*
X328649Y432631D01*
X328657Y432649D01*
X328675Y432816D01*
X328675Y436361D01*
X331651Y439337D01*
X332242Y439337D01*
X332312Y439348D01*
X332384Y439350D01*
X332433Y439368D01*
X332484Y439376D01*
X332548Y439410D01*
X332615Y439435D01*
X332656Y439467D01*
X332702Y439492D01*
X332751Y439543D01*
X332807Y439588D01*
X332835Y439632D01*
X332871Y439670D01*
X332901Y439735D01*
X332940Y439795D01*
X332953Y439846D01*
X332975Y439893D01*
X332983Y439964D01*
X333000Y440034D01*
X332996Y440086D01*
X333002Y440137D01*
X332987Y440208D01*
X332981Y440279D01*
X332961Y440327D01*
X332950Y440378D01*
X332913Y440439D01*
X332885Y440505D01*
X332840Y440561D01*
X332824Y440589D01*
X332806Y440604D01*
X332780Y440636D01*
X320377Y453039D01*
X320303Y453092D01*
X320234Y453152D01*
X320203Y453164D01*
X320177Y453183D01*
X320090Y453210D01*
X320005Y453244D01*
X319964Y453248D01*
X319942Y453255D01*
X319910Y453254D01*
X319839Y453262D01*
X188983Y453262D01*
X188893Y453248D01*
X188802Y453240D01*
X188772Y453228D01*
X188740Y453223D01*
X188659Y453180D01*
X188576Y453144D01*
X188543Y453118D01*
X188523Y453107D01*
X188501Y453084D01*
X188445Y453039D01*
X186255Y450849D01*
X182045Y450849D01*
X179069Y453825D01*
X179069Y458035D01*
X182045Y461011D01*
X186255Y461011D01*
X188445Y458821D01*
X188518Y458768D01*
X188588Y458708D01*
X188618Y458696D01*
X188644Y458677D01*
X188731Y458650D01*
X188816Y458616D01*
X188857Y458612D01*
X188879Y458605D01*
X188912Y458606D01*
X188983Y458598D01*
X322364Y458598D01*
X324150Y456812D01*
X351252Y429710D01*
X351310Y429668D01*
X351362Y429619D01*
X351409Y429597D01*
X351451Y429566D01*
X351520Y429545D01*
X351585Y429515D01*
X351637Y429509D01*
X351687Y429494D01*
X351758Y429496D01*
X351829Y429488D01*
X351880Y429499D01*
X351932Y429500D01*
X352000Y429525D01*
X352070Y429540D01*
X352114Y429567D01*
X352163Y429585D01*
X352219Y429630D01*
X352281Y429666D01*
X352315Y429706D01*
X352355Y429739D01*
X352394Y429799D01*
X352441Y429853D01*
X352460Y429902D01*
X352488Y429946D01*
X352506Y430015D01*
X352533Y430082D01*
X352541Y430153D01*
X352549Y430184D01*
X352547Y430207D01*
X352551Y430248D01*
X352551Y661663D01*
X354337Y663449D01*
X509263Y663449D01*
X511049Y661663D01*
X511049Y567494D01*
X511050Y567486D01*
X511049Y567478D01*
X511070Y567364D01*
X511088Y567251D01*
X511092Y567244D01*
X511094Y567236D01*
X511150Y567135D01*
X511204Y567034D01*
X511209Y567028D01*
X511213Y567021D01*
X511299Y566943D01*
X511382Y566864D01*
X511389Y566861D01*
X511395Y566856D01*
X511501Y566809D01*
X511605Y566761D01*
X511613Y566760D01*
X511620Y566757D01*
X511735Y566746D01*
X511849Y566734D01*
X511857Y566735D01*
X511865Y566735D01*
X511977Y566761D01*
X512090Y566786D01*
X512097Y566790D01*
X512104Y566792D01*
X512202Y566853D01*
X512301Y566912D01*
X512306Y566918D01*
X512313Y566922D01*
X512426Y567046D01*
X515110Y570740D01*
X523930Y577149D01*
X534299Y580518D01*
X595553Y580518D01*
X595571Y580521D01*
X595589Y580519D01*
X595692Y580540D01*
X595796Y580557D01*
X595812Y580566D01*
X595830Y580570D01*
X595921Y580623D01*
X596013Y580673D01*
X596026Y580686D01*
X596041Y580695D01*
X596110Y580775D01*
X596183Y580851D01*
X596190Y580867D01*
X596202Y580881D01*
X596242Y580978D01*
X596286Y581074D01*
X596288Y581092D01*
X596295Y581109D01*
X596315Y581275D01*
X596527Y625399D01*
X596526Y625406D01*
X596527Y625417D01*
X594750Y720669D01*
X594748Y720678D01*
X594749Y720693D01*
X589991Y815842D01*
X589990Y815847D01*
X589991Y815851D01*
X589990Y815854D01*
X589990Y815860D01*
X586735Y860100D01*
X586709Y860211D01*
X586684Y860324D01*
X586680Y860331D01*
X586678Y860339D01*
X586617Y860436D01*
X586558Y860535D01*
X586552Y860540D01*
X586547Y860547D01*
X586459Y860620D01*
X586371Y860695D01*
X586363Y860698D01*
X586357Y860703D01*
X586250Y860743D01*
X586143Y860787D01*
X586133Y860788D01*
X586127Y860790D01*
X586105Y860791D01*
X585976Y860805D01*
X557642Y860805D01*
X556005Y862442D01*
X556005Y1032400D01*
X556002Y1032420D01*
X556004Y1032439D01*
X555982Y1032541D01*
X555966Y1032643D01*
X555956Y1032660D01*
X555952Y1032680D01*
X555899Y1032769D01*
X555850Y1032860D01*
X555836Y1032874D01*
X555826Y1032891D01*
X555747Y1032958D01*
X555672Y1033030D01*
X555654Y1033038D01*
X555639Y1033051D01*
X555543Y1033090D01*
X555449Y1033133D01*
X555429Y1033135D01*
X555411Y1033143D01*
X555244Y1033161D01*
X119121Y1033161D01*
X119057Y1033151D01*
X118991Y1033150D01*
X118911Y1033127D01*
X118879Y1033122D01*
X118861Y1033112D01*
X118830Y1033103D01*
X116170Y1032001D01*
X112430Y1032001D01*
X109770Y1033103D01*
X109706Y1033118D01*
X109645Y1033143D01*
X109562Y1033152D01*
X109530Y1033159D01*
X109511Y1033158D01*
X109479Y1033161D01*
X38852Y1033161D01*
X38781Y1033150D01*
X38709Y1033148D01*
X38660Y1033130D01*
X38609Y1033122D01*
X38546Y1033088D01*
X38478Y1033063D01*
X38438Y1033031D01*
X38392Y1033006D01*
X38342Y1032955D01*
X38286Y1032910D01*
X38258Y1032866D01*
X38222Y1032828D01*
X38192Y1032763D01*
X38153Y1032703D01*
X38141Y1032652D01*
X38119Y1032605D01*
X38111Y1032534D01*
X38093Y1032464D01*
X38097Y1032412D01*
X38092Y1032361D01*
X38107Y1032290D01*
X38112Y1032219D01*
X38133Y1032171D01*
X38144Y1032120D01*
X38181Y1032059D01*
X38209Y1031993D01*
X38253Y1031937D01*
X38270Y1031909D01*
X38288Y1031894D01*
X38314Y1031862D01*
X39371Y1030805D01*
X39371Y1029716D01*
X39374Y1029699D01*
X39372Y1029683D01*
X39372Y1029681D01*
X39372Y1029677D01*
X39394Y1029575D01*
X39410Y1029473D01*
X39420Y1029456D01*
X39424Y1029436D01*
X39477Y1029347D01*
X39526Y1029256D01*
X39540Y1029242D01*
X39550Y1029225D01*
X39629Y1029158D01*
X39704Y1029086D01*
X39722Y1029078D01*
X39737Y1029065D01*
X39833Y1029026D01*
X39927Y1028983D01*
X39947Y1028981D01*
X39965Y1028973D01*
X40132Y1028955D01*
X119666Y1028955D01*
X120840Y1027781D01*
X120914Y1027728D01*
X120984Y1027668D01*
X121014Y1027656D01*
X121040Y1027637D01*
X121127Y1027610D01*
X121212Y1027576D01*
X121253Y1027572D01*
X121275Y1027565D01*
X121307Y1027566D01*
X121378Y1027558D01*
X392677Y1027558D01*
X392767Y1027572D01*
X392858Y1027580D01*
X392888Y1027592D01*
X392920Y1027597D01*
X393001Y1027640D01*
X393084Y1027676D01*
X393117Y1027702D01*
X393137Y1027713D01*
X393159Y1027736D01*
X393215Y1027781D01*
X395405Y1029971D01*
X399615Y1029971D01*
X402591Y1026995D01*
X402591Y1022785D01*
X401423Y1021618D01*
X401382Y1021560D01*
X401332Y1021508D01*
X401310Y1021461D01*
X401280Y1021419D01*
X401259Y1021350D01*
X401229Y1021285D01*
X401223Y1021233D01*
X401208Y1021183D01*
X401209Y1021112D01*
X401202Y1021041D01*
X401213Y1020990D01*
X401214Y1020938D01*
X401239Y1020870D01*
X401254Y1020800D01*
X401281Y1020755D01*
X401298Y1020707D01*
X401343Y1020651D01*
X401380Y1020589D01*
X401420Y1020555D01*
X401452Y1020515D01*
X401512Y1020476D01*
X401567Y1020429D01*
X401615Y1020410D01*
X401659Y1020382D01*
X401728Y1020364D01*
X401795Y1020337D01*
X401866Y1020329D01*
X401898Y1020321D01*
X401921Y1020323D01*
X401962Y1020319D01*
X437508Y1020319D01*
X437598Y1020333D01*
X437689Y1020341D01*
X437719Y1020353D01*
X437751Y1020358D01*
X437832Y1020401D01*
X437915Y1020437D01*
X437948Y1020463D01*
X437968Y1020474D01*
X437990Y1020497D01*
X438046Y1020542D01*
X441125Y1023621D01*
X445335Y1023621D01*
X448311Y1020645D01*
X448311Y1016435D01*
X445335Y1013459D01*
X441125Y1013459D01*
X440586Y1013998D01*
X440513Y1014051D01*
X440443Y1014111D01*
X440413Y1014123D01*
X440387Y1014142D01*
X440300Y1014169D01*
X440215Y1014203D01*
X440174Y1014207D01*
X440152Y1014214D01*
X440119Y1014213D01*
X440048Y1014221D01*
X158122Y1014221D01*
X158032Y1014207D01*
X157941Y1014199D01*
X157911Y1014187D01*
X157879Y1014182D01*
X157798Y1014139D01*
X157715Y1014103D01*
X157682Y1014077D01*
X157662Y1014066D01*
X157640Y1014043D01*
X157584Y1013998D01*
X155775Y1012189D01*
X151565Y1012189D01*
X148589Y1015165D01*
X148589Y1019375D01*
X150138Y1020923D01*
X150179Y1020981D01*
X150229Y1021033D01*
X150251Y1021080D01*
X150281Y1021122D01*
X150302Y1021191D01*
X150332Y1021256D01*
X150338Y1021308D01*
X150353Y1021358D01*
X150352Y1021429D01*
X150359Y1021500D01*
X150348Y1021551D01*
X150347Y1021603D01*
X150322Y1021671D01*
X150307Y1021741D01*
X150280Y1021786D01*
X150263Y1021834D01*
X150218Y1021890D01*
X150181Y1021952D01*
X150141Y1021986D01*
X150109Y1022026D01*
X150049Y1022065D01*
X149994Y1022112D01*
X149946Y1022131D01*
X149902Y1022159D01*
X149833Y1022177D01*
X149766Y1022204D01*
X149695Y1022212D01*
X149663Y1022220D01*
X149640Y1022218D01*
X149599Y1022222D01*
X123775Y1022222D01*
X123701Y1022210D01*
X123625Y1022207D01*
X123580Y1022190D01*
X123533Y1022183D01*
X123466Y1022147D01*
X123395Y1022120D01*
X123358Y1022090D01*
X123315Y1022067D01*
X123263Y1022013D01*
X123205Y1021965D01*
X123179Y1021924D01*
X123146Y1021889D01*
X123114Y1021820D01*
X123074Y1021756D01*
X123063Y1021710D01*
X123042Y1021666D01*
X123034Y1021591D01*
X123016Y1021517D01*
X123021Y1021469D01*
X123015Y1021422D01*
X123031Y1021348D01*
X123038Y1021272D01*
X123061Y1021212D01*
X123068Y1021181D01*
X123081Y1021159D01*
X123097Y1021115D01*
X123716Y1019900D01*
X124211Y1018379D01*
X124346Y1017523D01*
X115062Y1017523D01*
X115042Y1017520D01*
X115023Y1017522D01*
X114921Y1017500D01*
X114819Y1017483D01*
X114802Y1017474D01*
X114782Y1017470D01*
X114693Y1017417D01*
X114602Y1017368D01*
X114588Y1017354D01*
X114571Y1017344D01*
X114504Y1017265D01*
X114433Y1017190D01*
X114424Y1017172D01*
X114411Y1017157D01*
X114373Y1017061D01*
X114329Y1016967D01*
X114327Y1016947D01*
X114319Y1016929D01*
X114301Y1016762D01*
X114301Y1015999D01*
X114299Y1015999D01*
X114299Y1016762D01*
X114296Y1016782D01*
X114298Y1016801D01*
X114276Y1016903D01*
X114259Y1017005D01*
X114250Y1017022D01*
X114246Y1017042D01*
X114193Y1017131D01*
X114144Y1017222D01*
X114130Y1017236D01*
X114120Y1017253D01*
X114041Y1017320D01*
X113966Y1017391D01*
X113948Y1017400D01*
X113933Y1017413D01*
X113837Y1017452D01*
X113743Y1017495D01*
X113723Y1017497D01*
X113705Y1017505D01*
X113538Y1017523D01*
X104254Y1017523D01*
X104389Y1018379D01*
X104884Y1019900D01*
X105610Y1021325D01*
X106398Y1022411D01*
X106404Y1022421D01*
X106412Y1022430D01*
X106459Y1022530D01*
X106509Y1022630D01*
X106510Y1022642D01*
X106515Y1022653D01*
X106528Y1022763D01*
X106543Y1022874D01*
X106541Y1022886D01*
X106543Y1022897D01*
X106519Y1023006D01*
X106499Y1023116D01*
X106493Y1023126D01*
X106490Y1023138D01*
X106433Y1023233D01*
X106379Y1023331D01*
X106370Y1023339D01*
X106364Y1023349D01*
X106280Y1023421D01*
X106197Y1023496D01*
X106186Y1023501D01*
X106177Y1023509D01*
X106073Y1023551D01*
X105972Y1023595D01*
X105960Y1023596D01*
X105949Y1023601D01*
X105782Y1023619D01*
X32185Y1023619D01*
X29209Y1026595D01*
X29209Y1030805D01*
X30266Y1031862D01*
X30308Y1031920D01*
X30358Y1031972D01*
X30380Y1032019D01*
X30410Y1032061D01*
X30431Y1032130D01*
X30461Y1032195D01*
X30467Y1032247D01*
X30482Y1032297D01*
X30481Y1032368D01*
X30488Y1032439D01*
X30477Y1032490D01*
X30476Y1032542D01*
X30451Y1032610D01*
X30436Y1032680D01*
X30409Y1032724D01*
X30392Y1032773D01*
X30347Y1032829D01*
X30310Y1032891D01*
X30270Y1032925D01*
X30238Y1032965D01*
X30178Y1033004D01*
X30123Y1033051D01*
X30075Y1033070D01*
X30031Y1033098D01*
X29961Y1033116D01*
X29895Y1033143D01*
X29824Y1033151D01*
X29792Y1033159D01*
X29769Y1033157D01*
X29728Y1033161D01*
X-47244Y1033161D01*
X-47264Y1033158D01*
X-47283Y1033160D01*
X-47385Y1033138D01*
X-47487Y1033122D01*
X-47504Y1033112D01*
X-47524Y1033108D01*
X-47613Y1033055D01*
X-47704Y1033006D01*
X-47718Y1032992D01*
X-47735Y1032982D01*
X-47802Y1032903D01*
X-47874Y1032828D01*
X-47882Y1032810D01*
X-47895Y1032795D01*
X-47934Y1032699D01*
X-47977Y1032605D01*
X-47979Y1032585D01*
X-47987Y1032567D01*
X-48005Y1032400D01*
X-48005Y862442D01*
X-49642Y860805D01*
X-77976Y860805D01*
X-78089Y860787D01*
X-78203Y860771D01*
X-78211Y860767D01*
X-78219Y860766D01*
X-78320Y860712D01*
X-78423Y860660D01*
X-78429Y860654D01*
X-78436Y860650D01*
X-78515Y860567D01*
X-78596Y860486D01*
X-78600Y860478D01*
X-78606Y860472D01*
X-78654Y860368D01*
X-78705Y860265D01*
X-78707Y860255D01*
X-78709Y860249D01*
X-78712Y860227D01*
X-78735Y860100D01*
X-81990Y815860D01*
X-81990Y815853D01*
X-81991Y815842D01*
X-86749Y720693D01*
X-86748Y720683D01*
X-86750Y720669D01*
X-88527Y625417D01*
X-88526Y625410D01*
X-88527Y625399D01*
X-88315Y581275D01*
X-88312Y581257D01*
X-88313Y581240D01*
X-88291Y581137D01*
X-88274Y581033D01*
X-88265Y581017D01*
X-88261Y580999D01*
X-88207Y580909D01*
X-88157Y580816D01*
X-88144Y580804D01*
X-88135Y580788D01*
X-88055Y580720D01*
X-87978Y580647D01*
X-87962Y580640D01*
X-87948Y580628D01*
X-87850Y580589D01*
X-87755Y580545D01*
X-87737Y580543D01*
X-87720Y580536D01*
X-87553Y580518D01*
X-26299Y580518D01*
X-15930Y577149D01*
X-7110Y570740D01*
X-4426Y567046D01*
X-4420Y567041D01*
X-4416Y567034D01*
X-4333Y566955D01*
X-4251Y566873D01*
X-4244Y566870D01*
X-4238Y566864D01*
X-4133Y566816D01*
X-4030Y566765D01*
X-4022Y566764D01*
X-4015Y566761D01*
X-3901Y566748D01*
X-3786Y566733D01*
X-3778Y566735D01*
X-3771Y566734D01*
X-3658Y566758D01*
X-3545Y566780D01*
X-3538Y566784D01*
X-3530Y566786D01*
X-3432Y566845D01*
X-3331Y566902D01*
X-3326Y566908D01*
X-3319Y566912D01*
X-3244Y567000D01*
X-3167Y567086D01*
X-3164Y567093D01*
X-3159Y567099D01*
X-3116Y567206D01*
X-3071Y567312D01*
X-3070Y567320D01*
X-3067Y567327D01*
X-3049Y567494D01*
X-3049Y661663D01*
X-1263Y663449D01*
X153663Y663449D01*
X155449Y661663D01*
X155449Y443872D01*
X155460Y443801D01*
X155462Y443729D01*
X155480Y443680D01*
X155488Y443629D01*
X155522Y443566D01*
X155547Y443498D01*
X155579Y443458D01*
X155604Y443412D01*
X155656Y443362D01*
X155700Y443306D01*
X155744Y443278D01*
X155782Y443242D01*
X155847Y443212D01*
X155907Y443173D01*
X155958Y443161D01*
X156005Y443139D01*
X156076Y443131D01*
X156146Y443113D01*
X156198Y443117D01*
X156249Y443112D01*
X156320Y443127D01*
X156391Y443132D01*
X156439Y443153D01*
X156490Y443164D01*
X156551Y443201D01*
X156617Y443229D01*
X156673Y443273D01*
X156701Y443290D01*
X156716Y443308D01*
X156748Y443333D01*
X159185Y445771D01*
X163395Y445771D01*
X166371Y442795D01*
X166371Y438585D01*
X163395Y435609D01*
X159185Y435609D01*
X156748Y438047D01*
X156690Y438088D01*
X156638Y438138D01*
X156591Y438160D01*
X156549Y438190D01*
X156480Y438211D01*
X156415Y438241D01*
X156363Y438247D01*
X156313Y438262D01*
X156242Y438261D01*
X156171Y438268D01*
X156120Y438257D01*
X156068Y438256D01*
X156000Y438231D01*
X155930Y438216D01*
X155885Y438189D01*
X155837Y438172D01*
X155781Y438127D01*
X155719Y438090D01*
X155685Y438050D01*
X155645Y438018D01*
X155606Y437958D01*
X155559Y437903D01*
X155540Y437855D01*
X155512Y437811D01*
X155494Y437742D01*
X155467Y437675D01*
X155459Y437604D01*
X155451Y437572D01*
X155453Y437549D01*
X155449Y437508D01*
X155449Y430466D01*
X155434Y430419D01*
X155404Y430354D01*
X155398Y430302D01*
X155383Y430253D01*
X155385Y430181D01*
X155377Y430110D01*
X155388Y430059D01*
X155389Y430007D01*
X155414Y429939D01*
X155429Y429869D01*
X155456Y429824D01*
X155474Y429776D01*
X155518Y429720D01*
X155555Y429658D01*
X155595Y429624D01*
X155627Y429584D01*
X155688Y429545D01*
X155742Y429498D01*
X155790Y429479D01*
X155834Y429451D01*
X155904Y429433D01*
X155970Y429406D01*
X156042Y429398D01*
X156073Y429390D01*
X156096Y429392D01*
X156137Y429388D01*
X162807Y429388D01*
X162897Y429402D01*
X162988Y429410D01*
X163018Y429422D01*
X163050Y429427D01*
X163131Y429470D01*
X163214Y429506D01*
X163247Y429532D01*
X163267Y429543D01*
X163289Y429566D01*
X163345Y429611D01*
X165535Y431801D01*
X169745Y431801D01*
X172721Y428825D01*
X172721Y424616D01*
X172442Y424337D01*
X172401Y424279D01*
X172351Y424227D01*
X172329Y424180D01*
X172299Y424138D01*
X172278Y424069D01*
X172248Y424004D01*
X172242Y423952D01*
X172227Y423902D01*
X172228Y423831D01*
X172221Y423760D01*
X172232Y423709D01*
X172233Y423657D01*
X172258Y423589D01*
X172273Y423519D01*
X172300Y423474D01*
X172317Y423426D01*
X172362Y423370D01*
X172399Y423308D01*
X172439Y423274D01*
X172471Y423234D01*
X172531Y423195D01*
X172586Y423148D01*
X172634Y423129D01*
X172678Y423101D01*
X172747Y423083D01*
X172814Y423056D01*
X172885Y423048D01*
X172917Y423040D01*
X172940Y423042D01*
X172981Y423038D01*
X177038Y423038D01*
X177058Y423041D01*
G37*
G36*
X209337Y6153D02*
X209337Y6153D01*
X209386Y6151D01*
X209457Y6172D01*
X209531Y6184D01*
X209574Y6207D01*
X209621Y6221D01*
X209683Y6265D01*
X209749Y6300D01*
X209782Y6335D01*
X209822Y6363D01*
X209866Y6424D01*
X209918Y6478D01*
X209939Y6522D01*
X209967Y6562D01*
X209990Y6633D01*
X210022Y6701D01*
X210027Y6750D01*
X210042Y6796D01*
X210040Y6871D01*
X210049Y6945D01*
X210038Y6993D01*
X210037Y7042D01*
X210012Y7113D01*
X209996Y7186D01*
X209971Y7228D01*
X209955Y7274D01*
X209908Y7333D01*
X209870Y7397D01*
X209833Y7429D01*
X209803Y7467D01*
X209740Y7508D01*
X209683Y7557D01*
X209638Y7575D01*
X209597Y7602D01*
X209477Y7640D01*
X209455Y7649D01*
X209446Y7650D01*
X209437Y7653D01*
X208977Y7744D01*
X207827Y8220D01*
X206792Y8912D01*
X205912Y9792D01*
X205220Y10827D01*
X204744Y11977D01*
X204576Y12821D01*
X210582Y12821D01*
X210601Y12824D01*
X210621Y12822D01*
X210723Y12844D01*
X210825Y12860D01*
X210826Y12861D01*
X210853Y12849D01*
X210873Y12847D01*
X210891Y12839D01*
X211058Y12821D01*
X217064Y12821D01*
X216896Y11977D01*
X216420Y10827D01*
X215728Y9792D01*
X214848Y8912D01*
X213813Y8220D01*
X212663Y7744D01*
X212203Y7653D01*
X212157Y7635D01*
X212109Y7627D01*
X212043Y7593D01*
X211973Y7566D01*
X211935Y7535D01*
X211891Y7512D01*
X211840Y7458D01*
X211782Y7411D01*
X211756Y7370D01*
X211722Y7334D01*
X211691Y7266D01*
X211651Y7203D01*
X211639Y7155D01*
X211618Y7111D01*
X211610Y7037D01*
X211593Y6964D01*
X211597Y6915D01*
X211591Y6867D01*
X211607Y6794D01*
X211614Y6719D01*
X211633Y6674D01*
X211644Y6626D01*
X211682Y6562D01*
X211712Y6493D01*
X211745Y6457D01*
X211770Y6415D01*
X211827Y6366D01*
X211877Y6311D01*
X211919Y6287D01*
X211957Y6255D01*
X212026Y6227D01*
X212091Y6191D01*
X212139Y6182D01*
X212185Y6163D01*
X212309Y6149D01*
X212333Y6145D01*
X212342Y6146D01*
X212352Y6145D01*
X295648Y6145D01*
X295697Y6153D01*
X295746Y6151D01*
X295817Y6172D01*
X295891Y6184D01*
X295934Y6207D01*
X295981Y6221D01*
X296043Y6265D01*
X296109Y6300D01*
X296142Y6335D01*
X296182Y6363D01*
X296226Y6424D01*
X296278Y6478D01*
X296299Y6522D01*
X296327Y6562D01*
X296350Y6633D01*
X296382Y6701D01*
X296387Y6750D01*
X296402Y6796D01*
X296400Y6871D01*
X296409Y6945D01*
X296398Y6993D01*
X296397Y7042D01*
X296372Y7113D01*
X296356Y7186D01*
X296331Y7228D01*
X296315Y7274D01*
X296268Y7333D01*
X296230Y7397D01*
X296193Y7429D01*
X296163Y7467D01*
X296100Y7508D01*
X296043Y7557D01*
X295998Y7575D01*
X295957Y7602D01*
X295837Y7640D01*
X295815Y7649D01*
X295806Y7650D01*
X295797Y7653D01*
X295337Y7744D01*
X294187Y8220D01*
X293152Y8912D01*
X292272Y9792D01*
X291580Y10827D01*
X291104Y11977D01*
X290936Y12821D01*
X296942Y12821D01*
X296961Y12824D01*
X296981Y12822D01*
X297083Y12844D01*
X297185Y12860D01*
X297186Y12861D01*
X297213Y12849D01*
X297233Y12847D01*
X297251Y12839D01*
X297418Y12821D01*
X303424Y12821D01*
X303256Y11977D01*
X302780Y10827D01*
X302088Y9792D01*
X301208Y8912D01*
X300173Y8220D01*
X299023Y7744D01*
X298563Y7653D01*
X298517Y7635D01*
X298469Y7627D01*
X298403Y7593D01*
X298333Y7566D01*
X298295Y7535D01*
X298251Y7512D01*
X298200Y7458D01*
X298142Y7411D01*
X298116Y7370D01*
X298082Y7334D01*
X298051Y7266D01*
X298011Y7203D01*
X297999Y7155D01*
X297978Y7111D01*
X297970Y7037D01*
X297953Y6964D01*
X297957Y6915D01*
X297951Y6867D01*
X297967Y6794D01*
X297974Y6719D01*
X297993Y6674D01*
X298004Y6626D01*
X298042Y6562D01*
X298072Y6493D01*
X298105Y6457D01*
X298130Y6415D01*
X298187Y6366D01*
X298237Y6311D01*
X298279Y6287D01*
X298317Y6255D01*
X298386Y6227D01*
X298451Y6191D01*
X298499Y6182D01*
X298545Y6163D01*
X298669Y6149D01*
X298693Y6145D01*
X298702Y6146D01*
X298712Y6145D01*
X540444Y6145D01*
X540464Y6148D01*
X540483Y6146D01*
X540585Y6168D01*
X540687Y6184D01*
X540704Y6194D01*
X540724Y6198D01*
X540813Y6251D01*
X540904Y6300D01*
X540918Y6314D01*
X540935Y6324D01*
X541002Y6403D01*
X541074Y6478D01*
X541082Y6496D01*
X541095Y6511D01*
X541134Y6607D01*
X541177Y6701D01*
X541179Y6721D01*
X541187Y6739D01*
X541205Y6906D01*
X541205Y47258D01*
X542842Y48895D01*
X557917Y48895D01*
X558004Y48909D01*
X558093Y48916D01*
X558125Y48929D01*
X558159Y48934D01*
X558238Y48976D01*
X558320Y49011D01*
X558346Y49033D01*
X558377Y49050D01*
X558438Y49114D01*
X558505Y49173D01*
X558522Y49203D01*
X558546Y49228D01*
X558584Y49309D01*
X558628Y49386D01*
X558639Y49429D01*
X558650Y49451D01*
X558653Y49482D01*
X558670Y49548D01*
X564889Y93026D01*
X564889Y93032D01*
X564891Y93041D01*
X576303Y186303D01*
X576303Y186311D01*
X576306Y186323D01*
X585189Y279860D01*
X585188Y279868D01*
X585191Y279880D01*
X591538Y373623D01*
X591537Y373631D01*
X591539Y373644D01*
X595347Y467524D01*
X595346Y467530D01*
X595347Y467539D01*
X596225Y510906D01*
X596221Y510933D01*
X596224Y510960D01*
X596203Y511054D01*
X596190Y511149D01*
X596177Y511174D01*
X596171Y511201D01*
X596122Y511283D01*
X596079Y511369D01*
X596059Y511388D01*
X596045Y511412D01*
X595972Y511474D01*
X595904Y511542D01*
X595879Y511554D01*
X595858Y511572D01*
X595769Y511608D01*
X595683Y511650D01*
X595656Y511653D01*
X595630Y511664D01*
X595463Y511682D01*
X534299Y511682D01*
X523930Y515051D01*
X515110Y521460D01*
X512426Y525154D01*
X512420Y525159D01*
X512416Y525166D01*
X512333Y525245D01*
X512251Y525327D01*
X512244Y525330D01*
X512238Y525336D01*
X512133Y525384D01*
X512030Y525435D01*
X512022Y525436D01*
X512015Y525439D01*
X511901Y525452D01*
X511786Y525467D01*
X511778Y525465D01*
X511771Y525466D01*
X511658Y525442D01*
X511545Y525420D01*
X511538Y525416D01*
X511530Y525414D01*
X511432Y525355D01*
X511331Y525298D01*
X511326Y525292D01*
X511319Y525288D01*
X511244Y525200D01*
X511167Y525114D01*
X511164Y525107D01*
X511159Y525101D01*
X511116Y524994D01*
X511071Y524888D01*
X511070Y524880D01*
X511067Y524873D01*
X511049Y524706D01*
X511049Y430537D01*
X509263Y428751D01*
X447682Y428751D01*
X447611Y428740D01*
X447539Y428738D01*
X447490Y428720D01*
X447439Y428712D01*
X447376Y428678D01*
X447308Y428653D01*
X447268Y428621D01*
X447222Y428596D01*
X447172Y428544D01*
X447116Y428500D01*
X447088Y428456D01*
X447052Y428418D01*
X447022Y428353D01*
X446983Y428293D01*
X446971Y428242D01*
X446949Y428195D01*
X446941Y428124D01*
X446923Y428054D01*
X446927Y428002D01*
X446922Y427951D01*
X446937Y427880D01*
X446942Y427809D01*
X446963Y427761D01*
X446974Y427710D01*
X447011Y427649D01*
X447039Y427583D01*
X447083Y427527D01*
X447100Y427499D01*
X447118Y427484D01*
X447143Y427452D01*
X449581Y425015D01*
X449581Y420805D01*
X446605Y417829D01*
X442395Y417829D01*
X439419Y420805D01*
X439419Y421361D01*
X439416Y421380D01*
X439418Y421400D01*
X439396Y421501D01*
X439380Y421603D01*
X439370Y421621D01*
X439366Y421640D01*
X439313Y421729D01*
X439264Y421821D01*
X439250Y421834D01*
X439240Y421851D01*
X439161Y421919D01*
X439086Y421990D01*
X439068Y421998D01*
X439053Y422011D01*
X438957Y422050D01*
X438863Y422094D01*
X438843Y422096D01*
X438825Y422103D01*
X438658Y422122D01*
X351501Y422122D01*
X351430Y422110D01*
X351358Y422108D01*
X351309Y422090D01*
X351258Y422082D01*
X351195Y422048D01*
X351127Y422024D01*
X351087Y421991D01*
X351041Y421967D01*
X350991Y421915D01*
X350935Y421870D01*
X350907Y421826D01*
X350871Y421789D01*
X350841Y421724D01*
X350802Y421663D01*
X350790Y421613D01*
X350768Y421566D01*
X350760Y421494D01*
X350742Y421425D01*
X350746Y421373D01*
X350741Y421321D01*
X350756Y421251D01*
X350761Y421180D01*
X350782Y421132D01*
X350793Y421081D01*
X350830Y421019D01*
X350858Y420953D01*
X350902Y420897D01*
X350919Y420870D01*
X350937Y420854D01*
X350962Y420822D01*
X351699Y420086D01*
X351773Y420033D01*
X351842Y419973D01*
X351873Y419961D01*
X351899Y419942D01*
X351986Y419915D01*
X352071Y419881D01*
X352112Y419877D01*
X352134Y419870D01*
X352166Y419871D01*
X352237Y419863D01*
X375919Y419863D01*
X381665Y414117D01*
X381739Y414064D01*
X381809Y414004D01*
X381839Y413992D01*
X381865Y413973D01*
X381952Y413946D01*
X382037Y413912D01*
X382078Y413908D01*
X382100Y413901D01*
X382132Y413902D01*
X382204Y413894D01*
X390645Y413894D01*
X390735Y413908D01*
X390826Y413916D01*
X390856Y413928D01*
X390888Y413933D01*
X390969Y413976D01*
X391052Y414012D01*
X391085Y414038D01*
X391105Y414049D01*
X391127Y414072D01*
X391183Y414117D01*
X393373Y416307D01*
X397583Y416307D01*
X400782Y413108D01*
X400798Y413096D01*
X400810Y413080D01*
X400854Y413052D01*
X400892Y413016D01*
X400939Y412994D01*
X400981Y412964D01*
X401000Y412958D01*
X401017Y412947D01*
X401068Y412935D01*
X401115Y412913D01*
X401167Y412907D01*
X401217Y412892D01*
X401236Y412892D01*
X401256Y412887D01*
X401308Y412891D01*
X401359Y412886D01*
X401411Y412897D01*
X401462Y412898D01*
X401481Y412905D01*
X401501Y412906D01*
X401549Y412927D01*
X401600Y412938D01*
X401645Y412965D01*
X401693Y412982D01*
X401709Y412995D01*
X401727Y413003D01*
X401730Y413005D01*
X405964Y413005D01*
X406340Y412629D01*
X406398Y412588D01*
X406450Y412538D01*
X406497Y412516D01*
X406539Y412486D01*
X406608Y412465D01*
X406673Y412435D01*
X406725Y412429D01*
X406775Y412414D01*
X406846Y412415D01*
X406917Y412408D01*
X406968Y412419D01*
X407020Y412420D01*
X407088Y412445D01*
X407158Y412460D01*
X407203Y412487D01*
X407251Y412504D01*
X407307Y412549D01*
X407369Y412586D01*
X407403Y412626D01*
X407443Y412658D01*
X407482Y412718D01*
X407529Y412773D01*
X407548Y412821D01*
X407576Y412865D01*
X407594Y412935D01*
X407621Y413001D01*
X407629Y413072D01*
X407637Y413104D01*
X407635Y413127D01*
X407639Y413168D01*
X407639Y413331D01*
X410615Y416307D01*
X414825Y416307D01*
X417801Y413331D01*
X417801Y409121D01*
X414825Y406145D01*
X413943Y406145D01*
X413874Y406134D01*
X413803Y406132D01*
X413753Y406114D01*
X413701Y406106D01*
X413638Y406073D01*
X413572Y406048D01*
X413530Y406015D01*
X413483Y405990D01*
X413435Y405939D01*
X413379Y405895D01*
X413350Y405851D01*
X413314Y405812D01*
X413284Y405748D01*
X413246Y405689D01*
X413233Y405637D01*
X413210Y405589D01*
X413202Y405519D01*
X413185Y405450D01*
X413189Y405397D01*
X413183Y405345D01*
X413198Y405275D01*
X413203Y405205D01*
X413224Y405156D01*
X413235Y405104D01*
X413272Y405044D01*
X413299Y404978D01*
X413334Y404939D01*
X413362Y404893D01*
X413415Y404847D01*
X413462Y404794D01*
X413524Y404754D01*
X413548Y404733D01*
X413549Y404733D01*
X413570Y404725D01*
X413603Y404703D01*
X413691Y404676D01*
X413777Y404641D01*
X413816Y404637D01*
X413838Y404630D01*
X413870Y404631D01*
X413943Y404623D01*
X503802Y404623D01*
X503892Y404637D01*
X503983Y404645D01*
X504013Y404657D01*
X504045Y404662D01*
X504126Y404705D01*
X504209Y404741D01*
X504242Y404767D01*
X504262Y404778D01*
X504284Y404801D01*
X504340Y404846D01*
X504625Y405131D01*
X508835Y405131D01*
X509120Y404846D01*
X509193Y404793D01*
X509263Y404733D01*
X509293Y404721D01*
X509319Y404702D01*
X509406Y404675D01*
X509491Y404641D01*
X509532Y404637D01*
X509554Y404630D01*
X509587Y404631D01*
X509658Y404623D01*
X558412Y404623D01*
X558502Y404637D01*
X558593Y404645D01*
X558623Y404657D01*
X558655Y404662D01*
X558736Y404705D01*
X558819Y404741D01*
X558852Y404767D01*
X558872Y404778D01*
X558894Y404801D01*
X558950Y404846D01*
X559235Y405131D01*
X563445Y405131D01*
X566421Y402155D01*
X566421Y397945D01*
X563445Y394969D01*
X559235Y394969D01*
X558950Y395254D01*
X558877Y395307D01*
X558807Y395367D01*
X558777Y395379D01*
X558751Y395398D01*
X558664Y395425D01*
X558579Y395459D01*
X558538Y395463D01*
X558516Y395470D01*
X558483Y395469D01*
X558412Y395477D01*
X509658Y395477D01*
X509568Y395463D01*
X509477Y395455D01*
X509447Y395443D01*
X509415Y395438D01*
X509334Y395395D01*
X509251Y395359D01*
X509218Y395333D01*
X509198Y395322D01*
X509176Y395299D01*
X509120Y395254D01*
X508835Y394969D01*
X504625Y394969D01*
X504340Y395254D01*
X504267Y395307D01*
X504197Y395367D01*
X504167Y395379D01*
X504141Y395398D01*
X504054Y395425D01*
X503969Y395459D01*
X503928Y395463D01*
X503906Y395470D01*
X503873Y395469D01*
X503802Y395477D01*
X409840Y395477D01*
X402697Y402620D01*
X402623Y402673D01*
X402553Y402733D01*
X402523Y402745D01*
X402497Y402764D01*
X402410Y402791D01*
X402325Y402825D01*
X402284Y402829D01*
X402262Y402836D01*
X402230Y402835D01*
X402159Y402843D01*
X401755Y402843D01*
X398556Y406042D01*
X398540Y406054D01*
X398528Y406070D01*
X398484Y406098D01*
X398446Y406134D01*
X398425Y406143D01*
X398420Y406148D01*
X398395Y406158D01*
X398357Y406186D01*
X398338Y406192D01*
X398321Y406203D01*
X398270Y406215D01*
X398223Y406237D01*
X398171Y406243D01*
X398121Y406258D01*
X398102Y406258D01*
X398082Y406263D01*
X398030Y406259D01*
X397979Y406264D01*
X397927Y406253D01*
X397876Y406252D01*
X397857Y406245D01*
X397837Y406244D01*
X397789Y406223D01*
X397773Y406220D01*
X397769Y406219D01*
X397768Y406219D01*
X397738Y406212D01*
X397693Y406185D01*
X397645Y406168D01*
X397629Y406155D01*
X397611Y406147D01*
X397608Y406145D01*
X393373Y406145D01*
X391183Y408335D01*
X391110Y408388D01*
X391040Y408448D01*
X391010Y408460D01*
X390984Y408479D01*
X390897Y408506D01*
X390812Y408540D01*
X390771Y408544D01*
X390749Y408551D01*
X390716Y408550D01*
X390645Y408558D01*
X379678Y408558D01*
X378722Y409515D01*
X378664Y409556D01*
X378612Y409606D01*
X378565Y409628D01*
X378522Y409658D01*
X378454Y409679D01*
X378389Y409709D01*
X378337Y409715D01*
X378287Y409730D01*
X378216Y409729D01*
X378144Y409736D01*
X378093Y409725D01*
X378041Y409724D01*
X377974Y409699D01*
X377904Y409684D01*
X377859Y409657D01*
X377810Y409640D01*
X377754Y409595D01*
X377693Y409558D01*
X377659Y409518D01*
X377618Y409486D01*
X377580Y409426D01*
X377533Y409371D01*
X377513Y409323D01*
X377485Y409279D01*
X377468Y409209D01*
X377441Y409143D01*
X377441Y409140D01*
X374446Y406145D01*
X370237Y406145D01*
X368047Y408335D01*
X367973Y408388D01*
X367904Y408448D01*
X367874Y408460D01*
X367848Y408479D01*
X367761Y408506D01*
X367676Y408540D01*
X367635Y408544D01*
X367612Y408551D01*
X367580Y408550D01*
X367509Y408558D01*
X241831Y408558D01*
X241761Y408547D01*
X241689Y408545D01*
X241640Y408527D01*
X241589Y408519D01*
X241525Y408485D01*
X241458Y408460D01*
X241417Y408428D01*
X241371Y408403D01*
X241322Y408352D01*
X241266Y408307D01*
X241238Y408263D01*
X241202Y408225D01*
X241172Y408160D01*
X241133Y408100D01*
X241120Y408049D01*
X241098Y408002D01*
X241090Y407931D01*
X241073Y407861D01*
X241077Y407809D01*
X241071Y407758D01*
X241086Y407687D01*
X241092Y407616D01*
X241112Y407568D01*
X241123Y407517D01*
X241160Y407456D01*
X241188Y407390D01*
X241233Y407334D01*
X241249Y407306D01*
X241263Y407295D01*
X241265Y407290D01*
X241273Y407284D01*
X241293Y407259D01*
X241928Y406624D01*
X242002Y406570D01*
X242071Y406511D01*
X242102Y406499D01*
X242128Y406480D01*
X242215Y406453D01*
X242300Y406419D01*
X242341Y406415D01*
X242363Y406408D01*
X242395Y406409D01*
X242466Y406401D01*
X245564Y406401D01*
X248540Y403425D01*
X248540Y399215D01*
X246991Y397667D01*
X246950Y397609D01*
X246900Y397557D01*
X246878Y397510D01*
X246848Y397468D01*
X246827Y397399D01*
X246797Y397334D01*
X246791Y397282D01*
X246776Y397232D01*
X246777Y397161D01*
X246770Y397090D01*
X246781Y397039D01*
X246782Y396987D01*
X246807Y396919D01*
X246822Y396849D01*
X246849Y396804D01*
X246866Y396756D01*
X246911Y396700D01*
X246948Y396638D01*
X246988Y396604D01*
X247020Y396564D01*
X247080Y396525D01*
X247135Y396478D01*
X247183Y396459D01*
X247227Y396431D01*
X247296Y396413D01*
X247363Y396386D01*
X247434Y396378D01*
X247466Y396370D01*
X247489Y396372D01*
X247530Y396368D01*
X312159Y396368D01*
X312230Y396379D01*
X312302Y396381D01*
X312351Y396399D01*
X312402Y396407D01*
X312465Y396441D01*
X312533Y396466D01*
X312573Y396498D01*
X312619Y396523D01*
X312669Y396575D01*
X312725Y396619D01*
X312753Y396663D01*
X312789Y396701D01*
X312819Y396766D01*
X312858Y396826D01*
X312870Y396877D01*
X312892Y396924D01*
X312900Y396995D01*
X312918Y397065D01*
X312914Y397117D01*
X312919Y397168D01*
X312904Y397239D01*
X312899Y397310D01*
X312878Y397358D01*
X312867Y397409D01*
X312830Y397470D01*
X312802Y397536D01*
X312757Y397592D01*
X312741Y397620D01*
X312723Y397635D01*
X312698Y397667D01*
X312419Y397946D01*
X312419Y402155D01*
X315395Y405131D01*
X319605Y405131D01*
X322581Y402155D01*
X322581Y397946D01*
X322302Y397667D01*
X322261Y397609D01*
X322211Y397557D01*
X322189Y397510D01*
X322159Y397468D01*
X322138Y397399D01*
X322108Y397334D01*
X322102Y397282D01*
X322087Y397232D01*
X322088Y397161D01*
X322081Y397090D01*
X322092Y397039D01*
X322093Y396987D01*
X322118Y396919D01*
X322133Y396849D01*
X322160Y396804D01*
X322177Y396756D01*
X322222Y396700D01*
X322259Y396638D01*
X322299Y396604D01*
X322331Y396564D01*
X322391Y396525D01*
X322446Y396478D01*
X322494Y396459D01*
X322538Y396431D01*
X322607Y396413D01*
X322674Y396386D01*
X322745Y396378D01*
X322777Y396370D01*
X322800Y396372D01*
X322841Y396368D01*
X399256Y396368D01*
X403224Y392400D01*
X403298Y392347D01*
X403367Y392287D01*
X403398Y392275D01*
X403424Y392256D01*
X403511Y392229D01*
X403596Y392195D01*
X403636Y392191D01*
X403659Y392184D01*
X403691Y392185D01*
X403762Y392177D01*
X407235Y392177D01*
X410211Y389201D01*
X410211Y385826D01*
X410214Y385806D01*
X410212Y385787D01*
X410234Y385685D01*
X410250Y385583D01*
X410260Y385566D01*
X410264Y385546D01*
X410317Y385457D01*
X410366Y385366D01*
X410380Y385352D01*
X410390Y385335D01*
X410469Y385268D01*
X410544Y385196D01*
X410562Y385188D01*
X410577Y385175D01*
X410673Y385136D01*
X410767Y385093D01*
X410787Y385091D01*
X410805Y385083D01*
X410972Y385065D01*
X467868Y385065D01*
X467888Y385068D01*
X467907Y385066D01*
X468009Y385088D01*
X468111Y385104D01*
X468128Y385114D01*
X468148Y385118D01*
X468237Y385171D01*
X468328Y385220D01*
X468342Y385234D01*
X468359Y385244D01*
X468426Y385323D01*
X468498Y385398D01*
X468506Y385416D01*
X468519Y385431D01*
X468558Y385527D01*
X468601Y385621D01*
X468603Y385641D01*
X468611Y385659D01*
X468629Y385826D01*
X468629Y389455D01*
X471605Y392431D01*
X475815Y392431D01*
X478791Y389455D01*
X478791Y385245D01*
X475815Y382269D01*
X473793Y382269D01*
X473703Y382255D01*
X473612Y382247D01*
X473582Y382235D01*
X473550Y382230D01*
X473469Y382187D01*
X473386Y382151D01*
X473353Y382125D01*
X473333Y382114D01*
X473311Y382091D01*
X473255Y382046D01*
X470938Y379729D01*
X416694Y379729D01*
X416623Y379718D01*
X416551Y379716D01*
X416502Y379698D01*
X416451Y379690D01*
X416388Y379656D01*
X416320Y379631D01*
X416280Y379599D01*
X416234Y379574D01*
X416184Y379523D01*
X416128Y379478D01*
X416100Y379434D01*
X416064Y379396D01*
X416034Y379331D01*
X415995Y379271D01*
X415983Y379220D01*
X415961Y379173D01*
X415953Y379102D01*
X415935Y379032D01*
X415939Y378980D01*
X415934Y378929D01*
X415949Y378858D01*
X415954Y378787D01*
X415975Y378739D01*
X415986Y378688D01*
X416023Y378627D01*
X416051Y378561D01*
X416096Y378505D01*
X416112Y378477D01*
X416130Y378462D01*
X416155Y378430D01*
X416561Y378024D01*
X416561Y373815D01*
X414123Y371378D01*
X414082Y371320D01*
X414032Y371268D01*
X414010Y371221D01*
X413980Y371179D01*
X413959Y371110D01*
X413929Y371045D01*
X413923Y370993D01*
X413908Y370943D01*
X413909Y370872D01*
X413902Y370801D01*
X413913Y370750D01*
X413914Y370698D01*
X413939Y370630D01*
X413954Y370560D01*
X413981Y370515D01*
X413998Y370467D01*
X414043Y370411D01*
X414080Y370349D01*
X414120Y370315D01*
X414152Y370275D01*
X414212Y370236D01*
X414267Y370189D01*
X414315Y370170D01*
X414359Y370142D01*
X414428Y370124D01*
X414495Y370097D01*
X414566Y370089D01*
X414598Y370081D01*
X414621Y370083D01*
X414662Y370079D01*
X476878Y370079D01*
X476968Y370093D01*
X477059Y370101D01*
X477089Y370113D01*
X477121Y370118D01*
X477202Y370161D01*
X477286Y370197D01*
X477318Y370223D01*
X477338Y370234D01*
X477360Y370257D01*
X477416Y370302D01*
X480495Y373381D01*
X484705Y373381D01*
X487681Y370405D01*
X487681Y366195D01*
X484705Y363219D01*
X480495Y363219D01*
X479194Y364520D01*
X479120Y364573D01*
X479051Y364633D01*
X479021Y364645D01*
X478995Y364664D01*
X478908Y364691D01*
X478823Y364725D01*
X478782Y364729D01*
X478760Y364736D01*
X478727Y364735D01*
X478656Y364743D01*
X434220Y364743D01*
X434149Y364732D01*
X434077Y364730D01*
X434028Y364712D01*
X433977Y364704D01*
X433914Y364670D01*
X433846Y364645D01*
X433806Y364613D01*
X433760Y364588D01*
X433710Y364536D01*
X433654Y364492D01*
X433626Y364448D01*
X433590Y364410D01*
X433560Y364345D01*
X433521Y364285D01*
X433509Y364234D01*
X433487Y364187D01*
X433479Y364116D01*
X433461Y364046D01*
X433465Y363994D01*
X433460Y363943D01*
X433475Y363872D01*
X433480Y363801D01*
X433501Y363753D01*
X433512Y363702D01*
X433549Y363641D01*
X433577Y363575D01*
X433621Y363519D01*
X433638Y363491D01*
X433656Y363476D01*
X433681Y363444D01*
X434341Y362785D01*
X434341Y358575D01*
X431365Y355599D01*
X427155Y355599D01*
X424179Y358575D01*
X424179Y362785D01*
X424839Y363444D01*
X424880Y363502D01*
X424930Y363554D01*
X424952Y363601D01*
X424982Y363643D01*
X425003Y363712D01*
X425033Y363777D01*
X425039Y363829D01*
X425054Y363879D01*
X425053Y363950D01*
X425060Y364021D01*
X425049Y364072D01*
X425048Y364124D01*
X425023Y364192D01*
X425008Y364262D01*
X424981Y364307D01*
X424964Y364355D01*
X424919Y364411D01*
X424882Y364473D01*
X424842Y364507D01*
X424810Y364547D01*
X424750Y364586D01*
X424695Y364633D01*
X424647Y364652D01*
X424603Y364680D01*
X424533Y364698D01*
X424467Y364725D01*
X424396Y364733D01*
X424364Y364741D01*
X424341Y364739D01*
X424300Y364743D01*
X403644Y364743D01*
X401858Y366529D01*
X392818Y375569D01*
X392744Y375622D01*
X392675Y375682D01*
X392644Y375694D01*
X392618Y375713D01*
X392531Y375740D01*
X392446Y375774D01*
X392405Y375778D01*
X392383Y375785D01*
X392351Y375784D01*
X392280Y375792D01*
X116542Y375792D01*
X116452Y375778D01*
X116361Y375770D01*
X116331Y375758D01*
X116299Y375753D01*
X116218Y375710D01*
X116135Y375674D01*
X116102Y375648D01*
X116082Y375637D01*
X116060Y375614D01*
X116004Y375569D01*
X115338Y374903D01*
X109989Y374903D01*
X109918Y374892D01*
X109846Y374890D01*
X109797Y374872D01*
X109746Y374864D01*
X109683Y374830D01*
X109615Y374805D01*
X109575Y374773D01*
X109529Y374748D01*
X109479Y374696D01*
X109423Y374652D01*
X109395Y374608D01*
X109359Y374570D01*
X109329Y374505D01*
X109290Y374445D01*
X109278Y374394D01*
X109256Y374347D01*
X109248Y374276D01*
X109230Y374206D01*
X109234Y374154D01*
X109229Y374103D01*
X109244Y374032D01*
X109249Y373961D01*
X109270Y373913D01*
X109281Y373862D01*
X109318Y373801D01*
X109346Y373735D01*
X109390Y373679D01*
X109407Y373651D01*
X109425Y373636D01*
X109450Y373604D01*
X110491Y372564D01*
X110491Y368354D01*
X107515Y365378D01*
X103305Y365378D01*
X100329Y368354D01*
X100329Y372564D01*
X101878Y374112D01*
X101919Y374170D01*
X101969Y374222D01*
X101991Y374269D01*
X102021Y374311D01*
X102042Y374380D01*
X102072Y374445D01*
X102078Y374497D01*
X102093Y374547D01*
X102092Y374618D01*
X102099Y374689D01*
X102088Y374740D01*
X102087Y374792D01*
X102062Y374860D01*
X102047Y374930D01*
X102020Y374975D01*
X102003Y375023D01*
X101958Y375079D01*
X101921Y375141D01*
X101881Y375175D01*
X101849Y375215D01*
X101789Y375254D01*
X101734Y375301D01*
X101686Y375320D01*
X101642Y375348D01*
X101573Y375366D01*
X101506Y375393D01*
X101435Y375401D01*
X101403Y375409D01*
X101380Y375407D01*
X101339Y375411D01*
X90320Y375411D01*
X90230Y375397D01*
X90139Y375389D01*
X90110Y375377D01*
X90078Y375372D01*
X89997Y375329D01*
X89913Y375293D01*
X89881Y375267D01*
X89860Y375256D01*
X89838Y375233D01*
X89782Y375188D01*
X68931Y354337D01*
X68878Y354263D01*
X68818Y354194D01*
X68806Y354163D01*
X68787Y354137D01*
X68760Y354050D01*
X68726Y353965D01*
X68722Y353924D01*
X68715Y353902D01*
X68716Y353870D01*
X68708Y353799D01*
X68708Y296933D01*
X68722Y296843D01*
X68730Y296752D01*
X68742Y296722D01*
X68747Y296690D01*
X68790Y296609D01*
X68826Y296526D01*
X68852Y296493D01*
X68863Y296473D01*
X68886Y296451D01*
X68931Y296395D01*
X71121Y294205D01*
X71121Y289995D01*
X68145Y287019D01*
X63935Y287019D01*
X60959Y289995D01*
X60959Y294205D01*
X63149Y296395D01*
X63202Y296468D01*
X63262Y296538D01*
X63274Y296568D01*
X63293Y296594D01*
X63320Y296681D01*
X63354Y296766D01*
X63358Y296807D01*
X63365Y296829D01*
X63364Y296862D01*
X63372Y296933D01*
X63372Y356324D01*
X65158Y358110D01*
X68968Y361920D01*
X69010Y361978D01*
X69059Y362030D01*
X69081Y362077D01*
X69112Y362119D01*
X69133Y362188D01*
X69163Y362253D01*
X69169Y362305D01*
X69184Y362355D01*
X69182Y362426D01*
X69190Y362497D01*
X69179Y362548D01*
X69178Y362600D01*
X69153Y362668D01*
X69138Y362738D01*
X69111Y362783D01*
X69093Y362831D01*
X69048Y362887D01*
X69012Y362949D01*
X68972Y362983D01*
X68939Y363023D01*
X68879Y363062D01*
X68825Y363109D01*
X68776Y363128D01*
X68732Y363156D01*
X68663Y363174D01*
X68596Y363201D01*
X68525Y363209D01*
X68494Y363217D01*
X68471Y363215D01*
X68430Y363219D01*
X63935Y363219D01*
X60959Y366195D01*
X60959Y370405D01*
X63935Y373381D01*
X68145Y373381D01*
X71121Y370405D01*
X71121Y365910D01*
X71124Y365891D01*
X71122Y365873D01*
X71133Y365822D01*
X71134Y365768D01*
X71152Y365719D01*
X71160Y365668D01*
X71171Y365648D01*
X71174Y365633D01*
X71199Y365592D01*
X71219Y365537D01*
X71251Y365496D01*
X71276Y365450D01*
X71293Y365433D01*
X71300Y365422D01*
X71334Y365393D01*
X71372Y365345D01*
X71416Y365317D01*
X71454Y365281D01*
X71478Y365270D01*
X71487Y365262D01*
X71526Y365246D01*
X71579Y365212D01*
X71630Y365199D01*
X71677Y365177D01*
X71704Y365174D01*
X71715Y365170D01*
X71771Y365164D01*
X71818Y365152D01*
X71853Y365154D01*
X71882Y365151D01*
X71884Y365151D01*
X71895Y365153D01*
X71921Y365150D01*
X71992Y365165D01*
X72063Y365171D01*
X72100Y365187D01*
X72127Y365191D01*
X72139Y365197D01*
X72162Y365202D01*
X72223Y365239D01*
X72289Y365267D01*
X72325Y365296D01*
X72344Y365306D01*
X72356Y365318D01*
X72373Y365328D01*
X72388Y365346D01*
X72420Y365372D01*
X86009Y378961D01*
X87795Y380747D01*
X103378Y380747D01*
X103398Y380750D01*
X103417Y380748D01*
X103519Y380770D01*
X103621Y380786D01*
X103638Y380796D01*
X103658Y380800D01*
X103747Y380853D01*
X103838Y380902D01*
X103852Y380916D01*
X103869Y380926D01*
X103936Y381005D01*
X104008Y381080D01*
X104016Y381098D01*
X104029Y381113D01*
X104068Y381209D01*
X104111Y381303D01*
X104113Y381323D01*
X104121Y381341D01*
X104139Y381508D01*
X104139Y385644D01*
X104418Y385923D01*
X104459Y385981D01*
X104509Y386033D01*
X104531Y386080D01*
X104561Y386122D01*
X104582Y386191D01*
X104612Y386256D01*
X104618Y386308D01*
X104633Y386358D01*
X104632Y386429D01*
X104639Y386500D01*
X104628Y386551D01*
X104627Y386603D01*
X104602Y386671D01*
X104587Y386741D01*
X104560Y386786D01*
X104543Y386834D01*
X104498Y386890D01*
X104461Y386952D01*
X104421Y386986D01*
X104389Y387026D01*
X104329Y387065D01*
X104274Y387112D01*
X104226Y387131D01*
X104182Y387159D01*
X104113Y387177D01*
X104046Y387204D01*
X103975Y387212D01*
X103943Y387220D01*
X103920Y387218D01*
X103879Y387222D01*
X6500Y387222D01*
X6410Y387208D01*
X6319Y387200D01*
X6290Y387188D01*
X6258Y387183D01*
X6177Y387140D01*
X6093Y387104D01*
X6061Y387078D01*
X6040Y387067D01*
X6018Y387044D01*
X5962Y386999D01*
X-2697Y378340D01*
X-2750Y378266D01*
X-2810Y378197D01*
X-2822Y378166D01*
X-2841Y378140D01*
X-2868Y378053D01*
X-2902Y377968D01*
X-2906Y377927D01*
X-2913Y377905D01*
X-2912Y377873D01*
X-2920Y377802D01*
X-2920Y309633D01*
X-2906Y309543D01*
X-2898Y309452D01*
X-2886Y309422D01*
X-2881Y309390D01*
X-2838Y309310D01*
X-2802Y309226D01*
X-2776Y309193D01*
X-2765Y309173D01*
X-2742Y309151D01*
X-2697Y309095D01*
X-507Y306905D01*
X-507Y302695D01*
X-3483Y299719D01*
X-7693Y299719D01*
X-10669Y302695D01*
X-10669Y306905D01*
X-8479Y309095D01*
X-8426Y309168D01*
X-8366Y309238D01*
X-8354Y309268D01*
X-8335Y309294D01*
X-8308Y309381D01*
X-8274Y309466D01*
X-8270Y309507D01*
X-8263Y309529D01*
X-8264Y309562D01*
X-8256Y309633D01*
X-8256Y380327D01*
X-1263Y387320D01*
X-1221Y387378D01*
X-1172Y387430D01*
X-1150Y387477D01*
X-1119Y387519D01*
X-1098Y387588D01*
X-1068Y387653D01*
X-1062Y387705D01*
X-1047Y387755D01*
X-1049Y387826D01*
X-1041Y387897D01*
X-1052Y387948D01*
X-1053Y388000D01*
X-1078Y388068D01*
X-1093Y388138D01*
X-1120Y388183D01*
X-1138Y388231D01*
X-1183Y388287D01*
X-1219Y388349D01*
X-1259Y388383D01*
X-1292Y388423D01*
X-1352Y388462D01*
X-1406Y388509D01*
X-1455Y388528D01*
X-1499Y388556D01*
X-1568Y388574D01*
X-1635Y388601D01*
X-1706Y388609D01*
X-1737Y388617D01*
X-1760Y388615D01*
X-1801Y388619D01*
X-2105Y388619D01*
X-5081Y391595D01*
X-5081Y395805D01*
X-2105Y398781D01*
X2105Y398781D01*
X4295Y396591D01*
X4368Y396538D01*
X4438Y396478D01*
X4468Y396466D01*
X4494Y396447D01*
X4581Y396420D01*
X4666Y396386D01*
X4707Y396382D01*
X4729Y396375D01*
X4762Y396376D01*
X4833Y396368D01*
X26028Y396368D01*
X26099Y396379D01*
X26171Y396381D01*
X26220Y396399D01*
X26271Y396407D01*
X26334Y396441D01*
X26402Y396466D01*
X26442Y396498D01*
X26488Y396523D01*
X26538Y396574D01*
X26594Y396619D01*
X26622Y396663D01*
X26658Y396701D01*
X26688Y396766D01*
X26727Y396826D01*
X26739Y396877D01*
X26761Y396924D01*
X26769Y396995D01*
X26787Y397065D01*
X26783Y397117D01*
X26788Y397168D01*
X26773Y397239D01*
X26768Y397310D01*
X26747Y397358D01*
X26736Y397409D01*
X26699Y397470D01*
X26671Y397536D01*
X26669Y397539D01*
X26669Y401774D01*
X29645Y404750D01*
X33855Y404750D01*
X36831Y401774D01*
X36831Y397532D01*
X36820Y397510D01*
X36790Y397468D01*
X36769Y397399D01*
X36739Y397334D01*
X36733Y397282D01*
X36718Y397233D01*
X36719Y397161D01*
X36712Y397090D01*
X36723Y397039D01*
X36724Y396987D01*
X36749Y396919D01*
X36764Y396849D01*
X36791Y396804D01*
X36808Y396756D01*
X36853Y396700D01*
X36890Y396638D01*
X36930Y396604D01*
X36962Y396564D01*
X37022Y396525D01*
X37077Y396478D01*
X37125Y396459D01*
X37169Y396431D01*
X37238Y396413D01*
X37305Y396386D01*
X37376Y396378D01*
X37407Y396370D01*
X37431Y396372D01*
X37472Y396368D01*
X114039Y396368D01*
X114110Y396379D01*
X114182Y396381D01*
X114231Y396399D01*
X114282Y396407D01*
X114345Y396441D01*
X114413Y396466D01*
X114453Y396498D01*
X114499Y396523D01*
X114549Y396575D01*
X114605Y396619D01*
X114633Y396663D01*
X114669Y396701D01*
X114699Y396766D01*
X114738Y396826D01*
X114750Y396877D01*
X114772Y396924D01*
X114780Y396995D01*
X114798Y397065D01*
X114794Y397117D01*
X114799Y397168D01*
X114784Y397239D01*
X114779Y397310D01*
X114758Y397358D01*
X114747Y397409D01*
X114710Y397470D01*
X114682Y397536D01*
X114638Y397592D01*
X114621Y397620D01*
X114603Y397635D01*
X114578Y397667D01*
X111759Y400485D01*
X111759Y404695D01*
X114735Y407671D01*
X118945Y407671D01*
X121921Y404695D01*
X121921Y400485D01*
X119102Y397667D01*
X119061Y397609D01*
X119011Y397557D01*
X118989Y397510D01*
X118959Y397468D01*
X118938Y397399D01*
X118908Y397334D01*
X118902Y397282D01*
X118887Y397232D01*
X118888Y397161D01*
X118881Y397090D01*
X118892Y397039D01*
X118893Y396987D01*
X118918Y396919D01*
X118933Y396849D01*
X118960Y396804D01*
X118977Y396756D01*
X119022Y396700D01*
X119059Y396638D01*
X119099Y396604D01*
X119131Y396564D01*
X119191Y396525D01*
X119246Y396478D01*
X119294Y396459D01*
X119338Y396431D01*
X119407Y396413D01*
X119474Y396386D01*
X119545Y396378D01*
X119577Y396370D01*
X119600Y396372D01*
X119641Y396368D01*
X162299Y396368D01*
X162370Y396379D01*
X162442Y396381D01*
X162491Y396399D01*
X162542Y396407D01*
X162605Y396441D01*
X162673Y396466D01*
X162713Y396498D01*
X162759Y396523D01*
X162809Y396575D01*
X162865Y396619D01*
X162893Y396663D01*
X162929Y396701D01*
X162959Y396766D01*
X162998Y396826D01*
X163010Y396877D01*
X163032Y396924D01*
X163040Y396995D01*
X163058Y397065D01*
X163054Y397117D01*
X163059Y397168D01*
X163044Y397239D01*
X163039Y397310D01*
X163018Y397358D01*
X163007Y397409D01*
X162970Y397470D01*
X162942Y397536D01*
X162898Y397592D01*
X162881Y397620D01*
X162863Y397635D01*
X162838Y397667D01*
X161289Y399215D01*
X161289Y403425D01*
X163479Y405615D01*
X163532Y405688D01*
X163592Y405758D01*
X163604Y405788D01*
X163623Y405814D01*
X163650Y405901D01*
X163684Y405986D01*
X163688Y406027D01*
X163695Y406049D01*
X163694Y406082D01*
X163702Y406153D01*
X163702Y408686D01*
X163699Y408706D01*
X163701Y408725D01*
X163679Y408827D01*
X163663Y408929D01*
X163653Y408946D01*
X163649Y408966D01*
X163596Y409055D01*
X163547Y409146D01*
X163533Y409160D01*
X163523Y409177D01*
X163444Y409244D01*
X163369Y409316D01*
X163351Y409324D01*
X163336Y409337D01*
X163240Y409376D01*
X163146Y409419D01*
X163126Y409421D01*
X163108Y409429D01*
X162941Y409447D01*
X97282Y409447D01*
X97262Y409444D01*
X97243Y409446D01*
X97141Y409424D01*
X97039Y409408D01*
X97022Y409398D01*
X97002Y409394D01*
X96913Y409341D01*
X96822Y409292D01*
X96808Y409278D01*
X96791Y409268D01*
X96724Y409189D01*
X96652Y409114D01*
X96644Y409096D01*
X96631Y409081D01*
X96592Y408985D01*
X96549Y408891D01*
X96547Y408871D01*
X96539Y408853D01*
X96521Y408686D01*
X96521Y408105D01*
X93545Y405129D01*
X89335Y405129D01*
X86359Y408105D01*
X86359Y411184D01*
X86356Y411204D01*
X86358Y411223D01*
X86336Y411325D01*
X86320Y411427D01*
X86310Y411444D01*
X86306Y411464D01*
X86253Y411553D01*
X86204Y411644D01*
X86190Y411658D01*
X86180Y411675D01*
X86101Y411742D01*
X86026Y411814D01*
X86008Y411822D01*
X85993Y411835D01*
X85897Y411874D01*
X85803Y411917D01*
X85783Y411919D01*
X85765Y411927D01*
X85598Y411945D01*
X72410Y411945D01*
X71956Y412399D01*
X71883Y412452D01*
X71813Y412512D01*
X71783Y412524D01*
X71757Y412543D01*
X71670Y412570D01*
X71585Y412604D01*
X71544Y412608D01*
X71522Y412615D01*
X71489Y412614D01*
X71418Y412622D01*
X55633Y412622D01*
X55543Y412608D01*
X55452Y412600D01*
X55422Y412588D01*
X55390Y412583D01*
X55309Y412540D01*
X55226Y412504D01*
X55193Y412478D01*
X55173Y412467D01*
X55151Y412444D01*
X55095Y412399D01*
X52905Y410209D01*
X48695Y410209D01*
X45719Y413185D01*
X45719Y417395D01*
X48695Y420371D01*
X52905Y420371D01*
X55095Y418181D01*
X55168Y418128D01*
X55238Y418068D01*
X55268Y418056D01*
X55294Y418037D01*
X55381Y418010D01*
X55466Y417976D01*
X55507Y417972D01*
X55529Y417965D01*
X55562Y417966D01*
X55633Y417958D01*
X70146Y417958D01*
X70166Y417961D01*
X70185Y417959D01*
X70287Y417981D01*
X70389Y417997D01*
X70406Y418007D01*
X70426Y418011D01*
X70515Y418064D01*
X70606Y418113D01*
X70620Y418127D01*
X70637Y418137D01*
X70704Y418216D01*
X70776Y418291D01*
X70784Y418309D01*
X70797Y418324D01*
X70836Y418420D01*
X70879Y418514D01*
X70881Y418534D01*
X70889Y418552D01*
X70907Y418719D01*
X70907Y422686D01*
X70973Y422753D01*
X71015Y422811D01*
X71065Y422863D01*
X71087Y422910D01*
X71117Y422952D01*
X71138Y423021D01*
X71168Y423086D01*
X71174Y423138D01*
X71189Y423188D01*
X71188Y423259D01*
X71195Y423330D01*
X71184Y423381D01*
X71183Y423433D01*
X71158Y423501D01*
X71143Y423571D01*
X71116Y423616D01*
X71099Y423664D01*
X71054Y423720D01*
X71017Y423782D01*
X70977Y423816D01*
X70945Y423856D01*
X70885Y423895D01*
X70830Y423942D01*
X70782Y423961D01*
X70738Y423989D01*
X70669Y424007D01*
X70602Y424034D01*
X70531Y424042D01*
X70500Y424050D01*
X70476Y424048D01*
X70435Y424052D01*
X-12550Y424052D01*
X-12640Y424038D01*
X-12731Y424030D01*
X-12760Y424018D01*
X-12792Y424013D01*
X-12873Y423970D01*
X-12957Y423934D01*
X-12989Y423908D01*
X-13010Y423897D01*
X-13032Y423874D01*
X-13088Y423829D01*
X-30256Y406661D01*
X-30309Y406587D01*
X-30369Y406518D01*
X-30381Y406487D01*
X-30400Y406461D01*
X-30427Y406374D01*
X-30461Y406289D01*
X-30465Y406248D01*
X-30472Y406226D01*
X-30471Y406194D01*
X-30479Y406123D01*
X-30479Y403025D01*
X-33455Y400049D01*
X-37665Y400049D01*
X-40641Y403025D01*
X-40641Y407235D01*
X-37665Y410211D01*
X-34567Y410211D01*
X-34477Y410225D01*
X-34386Y410233D01*
X-34357Y410245D01*
X-34325Y410250D01*
X-34244Y410293D01*
X-34160Y410329D01*
X-34128Y410355D01*
X-34107Y410366D01*
X-34085Y410389D01*
X-34029Y410434D01*
X-15075Y429388D01*
X-3737Y429388D01*
X-3666Y429399D01*
X-3595Y429401D01*
X-3546Y429419D01*
X-3494Y429427D01*
X-3431Y429461D01*
X-3364Y429486D01*
X-3323Y429518D01*
X-3277Y429543D01*
X-3228Y429595D01*
X-3172Y429639D01*
X-3143Y429683D01*
X-3108Y429721D01*
X-3077Y429786D01*
X-3039Y429846D01*
X-3026Y429897D01*
X-3004Y429944D01*
X-2996Y430015D01*
X-2979Y430085D01*
X-2983Y430137D01*
X-2977Y430188D01*
X-2992Y430259D01*
X-2998Y430330D01*
X-3018Y430378D01*
X-3029Y430429D01*
X-3049Y430462D01*
X-3049Y524706D01*
X-3050Y524714D01*
X-3049Y524722D01*
X-3070Y524835D01*
X-3088Y524949D01*
X-3092Y524956D01*
X-3094Y524964D01*
X-3150Y525065D01*
X-3204Y525166D01*
X-3209Y525172D01*
X-3213Y525179D01*
X-3298Y525256D01*
X-3382Y525336D01*
X-3389Y525339D01*
X-3395Y525344D01*
X-3500Y525390D01*
X-3605Y525439D01*
X-3613Y525440D01*
X-3620Y525443D01*
X-3735Y525454D01*
X-3849Y525466D01*
X-3857Y525465D01*
X-3865Y525465D01*
X-3977Y525439D01*
X-4090Y525414D01*
X-4097Y525410D01*
X-4104Y525408D01*
X-4202Y525347D01*
X-4301Y525288D01*
X-4306Y525282D01*
X-4313Y525278D01*
X-4426Y525154D01*
X-7110Y521460D01*
X-15930Y515051D01*
X-26299Y511682D01*
X-87467Y511682D01*
X-87494Y511678D01*
X-87521Y511680D01*
X-87615Y511658D01*
X-87710Y511643D01*
X-87734Y511630D01*
X-87761Y511623D01*
X-87842Y511572D01*
X-87927Y511527D01*
X-87946Y511508D01*
X-87969Y511493D01*
X-88030Y511419D01*
X-88097Y511349D01*
X-88108Y511324D01*
X-88126Y511303D01*
X-88160Y511213D01*
X-88200Y511126D01*
X-88203Y511099D01*
X-88213Y511073D01*
X-88228Y510906D01*
X-87397Y467539D01*
X-87396Y467533D01*
X-87397Y467524D01*
X-83689Y373648D01*
X-83687Y373640D01*
X-83688Y373627D01*
X-77440Y279886D01*
X-77438Y279878D01*
X-77439Y279865D01*
X-68655Y186328D01*
X-68653Y186320D01*
X-68653Y186307D01*
X-57341Y93041D01*
X-57339Y93035D01*
X-57339Y93026D01*
X-51167Y49549D01*
X-51140Y49464D01*
X-51121Y49376D01*
X-51104Y49347D01*
X-51093Y49314D01*
X-51041Y49242D01*
X-50995Y49165D01*
X-50969Y49143D01*
X-50949Y49115D01*
X-50876Y49063D01*
X-50808Y49005D01*
X-50776Y48992D01*
X-50749Y48973D01*
X-50663Y48947D01*
X-50580Y48913D01*
X-50537Y48908D01*
X-50513Y48901D01*
X-50482Y48902D01*
X-50413Y48895D01*
X-34842Y48895D01*
X-33205Y47258D01*
X-33205Y6906D01*
X-33202Y6886D01*
X-33204Y6867D01*
X-33182Y6765D01*
X-33166Y6663D01*
X-33156Y6646D01*
X-33152Y6626D01*
X-33099Y6537D01*
X-33050Y6446D01*
X-33036Y6432D01*
X-33026Y6415D01*
X-32947Y6348D01*
X-32872Y6276D01*
X-32854Y6268D01*
X-32839Y6255D01*
X-32743Y6216D01*
X-32649Y6173D01*
X-32629Y6171D01*
X-32611Y6163D01*
X-32444Y6145D01*
X209288Y6145D01*
X209337Y6153D01*
G37*
G36*
X504210Y434852D02*
X504210Y434852D01*
X504229Y434850D01*
X504331Y434872D01*
X504433Y434888D01*
X504450Y434898D01*
X504470Y434902D01*
X504559Y434955D01*
X504650Y435004D01*
X504664Y435018D01*
X504681Y435028D01*
X504748Y435107D01*
X504820Y435182D01*
X504828Y435200D01*
X504841Y435215D01*
X504880Y435311D01*
X504923Y435405D01*
X504925Y435425D01*
X504933Y435443D01*
X504951Y435610D01*
X504951Y656590D01*
X504948Y656610D01*
X504950Y656629D01*
X504928Y656731D01*
X504912Y656833D01*
X504902Y656850D01*
X504898Y656870D01*
X504845Y656959D01*
X504796Y657050D01*
X504782Y657064D01*
X504772Y657081D01*
X504693Y657148D01*
X504618Y657220D01*
X504600Y657228D01*
X504585Y657241D01*
X504489Y657280D01*
X504395Y657323D01*
X504375Y657325D01*
X504357Y657333D01*
X504190Y657351D01*
X359410Y657351D01*
X359390Y657348D01*
X359371Y657350D01*
X359269Y657328D01*
X359167Y657312D01*
X359150Y657302D01*
X359130Y657298D01*
X359041Y657245D01*
X358950Y657196D01*
X358936Y657182D01*
X358919Y657172D01*
X358852Y657093D01*
X358780Y657018D01*
X358772Y657000D01*
X358759Y656985D01*
X358720Y656889D01*
X358677Y656795D01*
X358675Y656775D01*
X358667Y656757D01*
X358649Y656590D01*
X358649Y435610D01*
X358652Y435590D01*
X358650Y435571D01*
X358672Y435469D01*
X358688Y435367D01*
X358698Y435350D01*
X358702Y435330D01*
X358755Y435241D01*
X358804Y435150D01*
X358818Y435136D01*
X358828Y435119D01*
X358907Y435052D01*
X358982Y434980D01*
X359000Y434972D01*
X359015Y434959D01*
X359111Y434920D01*
X359205Y434877D01*
X359225Y434875D01*
X359243Y434867D01*
X359410Y434849D01*
X504190Y434849D01*
X504210Y434852D01*
G37*
G36*
X148610Y434852D02*
X148610Y434852D01*
X148629Y434850D01*
X148731Y434872D01*
X148833Y434888D01*
X148850Y434898D01*
X148870Y434902D01*
X148959Y434955D01*
X149050Y435004D01*
X149064Y435018D01*
X149081Y435028D01*
X149148Y435107D01*
X149220Y435182D01*
X149228Y435200D01*
X149241Y435215D01*
X149280Y435311D01*
X149323Y435405D01*
X149325Y435425D01*
X149333Y435443D01*
X149351Y435610D01*
X149351Y656590D01*
X149348Y656610D01*
X149350Y656629D01*
X149328Y656731D01*
X149312Y656833D01*
X149302Y656850D01*
X149298Y656870D01*
X149245Y656959D01*
X149196Y657050D01*
X149182Y657064D01*
X149172Y657081D01*
X149093Y657148D01*
X149018Y657220D01*
X149000Y657228D01*
X148985Y657241D01*
X148889Y657280D01*
X148795Y657323D01*
X148775Y657325D01*
X148757Y657333D01*
X148590Y657351D01*
X3810Y657351D01*
X3790Y657348D01*
X3771Y657350D01*
X3669Y657328D01*
X3567Y657312D01*
X3550Y657302D01*
X3530Y657298D01*
X3441Y657245D01*
X3350Y657196D01*
X3336Y657182D01*
X3319Y657172D01*
X3252Y657093D01*
X3180Y657018D01*
X3172Y657000D01*
X3159Y656985D01*
X3120Y656889D01*
X3077Y656795D01*
X3075Y656775D01*
X3067Y656757D01*
X3049Y656590D01*
X3049Y435610D01*
X3052Y435590D01*
X3050Y435571D01*
X3072Y435469D01*
X3088Y435367D01*
X3098Y435350D01*
X3102Y435330D01*
X3155Y435241D01*
X3204Y435150D01*
X3218Y435136D01*
X3228Y435119D01*
X3307Y435052D01*
X3382Y434980D01*
X3400Y434972D01*
X3415Y434959D01*
X3511Y434920D01*
X3605Y434877D01*
X3625Y434875D01*
X3643Y434867D01*
X3810Y434849D01*
X148590Y434849D01*
X148610Y434852D01*
G37*
G36*
X609620Y4322D02*
X609620Y4322D01*
X609639Y4320D01*
X609741Y4342D01*
X609843Y4359D01*
X609860Y4368D01*
X609880Y4372D01*
X609969Y4425D01*
X610060Y4474D01*
X610074Y4488D01*
X610091Y4498D01*
X610158Y4577D01*
X610230Y4652D01*
X610238Y4670D01*
X610251Y4685D01*
X610290Y4781D01*
X610333Y4875D01*
X610335Y4895D01*
X610343Y4913D01*
X610361Y5080D01*
X610361Y1032400D01*
X610358Y1032420D01*
X610360Y1032439D01*
X610338Y1032541D01*
X610322Y1032643D01*
X610312Y1032660D01*
X610308Y1032680D01*
X610255Y1032769D01*
X610206Y1032860D01*
X610192Y1032874D01*
X610182Y1032891D01*
X610103Y1032958D01*
X610028Y1033030D01*
X610010Y1033038D01*
X609995Y1033051D01*
X609899Y1033090D01*
X609805Y1033133D01*
X609785Y1033135D01*
X609767Y1033143D01*
X609600Y1033161D01*
X562356Y1033161D01*
X562336Y1033158D01*
X562317Y1033160D01*
X562215Y1033138D01*
X562113Y1033122D01*
X562096Y1033112D01*
X562076Y1033108D01*
X561987Y1033055D01*
X561896Y1033006D01*
X561882Y1032992D01*
X561865Y1032982D01*
X561798Y1032903D01*
X561726Y1032828D01*
X561718Y1032810D01*
X561705Y1032795D01*
X561666Y1032699D01*
X561623Y1032605D01*
X561621Y1032585D01*
X561613Y1032567D01*
X561595Y1032400D01*
X561595Y867156D01*
X561598Y867136D01*
X561596Y867117D01*
X561618Y867015D01*
X561634Y866913D01*
X561644Y866896D01*
X561648Y866876D01*
X561701Y866787D01*
X561750Y866696D01*
X561764Y866682D01*
X561774Y866665D01*
X561853Y866598D01*
X561928Y866526D01*
X561946Y866518D01*
X561961Y866505D01*
X562057Y866466D01*
X562151Y866423D01*
X562171Y866421D01*
X562189Y866413D01*
X562356Y866395D01*
X589135Y866395D01*
X589158Y866398D01*
X589197Y866397D01*
X590247Y866483D01*
X590250Y866482D01*
X590304Y866449D01*
X590363Y866436D01*
X590419Y866414D01*
X591154Y865678D01*
X591172Y865665D01*
X591199Y865637D01*
X592002Y864955D01*
X592004Y864952D01*
X592019Y864890D01*
X592051Y864839D01*
X592075Y864784D01*
X592075Y863744D01*
X592076Y863735D01*
X592076Y863731D01*
X592078Y863719D01*
X592077Y863683D01*
X595941Y816245D01*
X600709Y720885D01*
X602491Y625423D01*
X601887Y577710D01*
X601887Y577707D01*
X601887Y577701D01*
X601887Y576545D01*
X601060Y575738D01*
X601057Y575735D01*
X601053Y575731D01*
X600235Y574914D01*
X599079Y574928D01*
X599076Y574928D01*
X599070Y574928D01*
X539750Y574928D01*
X539728Y574925D01*
X539690Y574926D01*
X535300Y574580D01*
X535294Y574579D01*
X535288Y574579D01*
X535124Y574545D01*
X526773Y571832D01*
X526741Y571815D01*
X526706Y571807D01*
X526560Y571724D01*
X519456Y566562D01*
X519431Y566537D01*
X519401Y566518D01*
X519288Y566394D01*
X514126Y559290D01*
X514110Y559258D01*
X514087Y559230D01*
X514018Y559077D01*
X511305Y550726D01*
X511299Y550691D01*
X511286Y550657D01*
X511267Y550491D01*
X511267Y541709D01*
X511273Y541674D01*
X511271Y541638D01*
X511305Y541474D01*
X514018Y533123D01*
X514024Y533112D01*
X514025Y533108D01*
X514034Y533092D01*
X514035Y533091D01*
X514043Y533056D01*
X514126Y532910D01*
X519288Y525806D01*
X519313Y525781D01*
X519332Y525751D01*
X519456Y525638D01*
X526560Y520476D01*
X526592Y520460D01*
X526620Y520437D01*
X526773Y520368D01*
X535124Y517655D01*
X535130Y517654D01*
X535135Y517651D01*
X535300Y517620D01*
X539690Y517274D01*
X539712Y517276D01*
X539750Y517272D01*
X597647Y517272D01*
X597732Y517286D01*
X597791Y517289D01*
X599105Y517272D01*
X599109Y517272D01*
X599115Y517272D01*
X600272Y517272D01*
X601077Y516444D01*
X601080Y516442D01*
X601084Y516437D01*
X601902Y515619D01*
X601887Y514463D01*
X601887Y514459D01*
X601887Y514453D01*
X601887Y513153D01*
X601882Y513113D01*
X601874Y513088D01*
X601875Y513058D01*
X601867Y512995D01*
X601253Y467374D01*
X597438Y373314D01*
X591078Y279392D01*
X582178Y185675D01*
X570744Y92234D01*
X563803Y45948D01*
X563804Y45915D01*
X563795Y45835D01*
X563795Y44939D01*
X563784Y44924D01*
X563758Y44901D01*
X563713Y44825D01*
X563661Y44753D01*
X563651Y44719D01*
X563633Y44689D01*
X563594Y44542D01*
X562875Y44010D01*
X562852Y43987D01*
X562789Y43936D01*
X562155Y43303D01*
X562137Y43300D01*
X562102Y43302D01*
X562016Y43280D01*
X561929Y43266D01*
X561898Y43249D01*
X561864Y43240D01*
X561733Y43164D01*
X560848Y43297D01*
X560815Y43296D01*
X560735Y43305D01*
X547556Y43305D01*
X547536Y43302D01*
X547517Y43304D01*
X547415Y43282D01*
X547313Y43266D01*
X547296Y43256D01*
X547276Y43252D01*
X547187Y43199D01*
X547096Y43150D01*
X547082Y43136D01*
X547065Y43126D01*
X546998Y43047D01*
X546926Y42972D01*
X546918Y42954D01*
X546905Y42939D01*
X546866Y42843D01*
X546823Y42749D01*
X546821Y42729D01*
X546813Y42711D01*
X546795Y42544D01*
X546795Y5080D01*
X546798Y5060D01*
X546796Y5041D01*
X546818Y4939D01*
X546834Y4837D01*
X546844Y4820D01*
X546848Y4800D01*
X546901Y4711D01*
X546950Y4620D01*
X546964Y4606D01*
X546974Y4589D01*
X547053Y4522D01*
X547128Y4451D01*
X547146Y4442D01*
X547161Y4429D01*
X547257Y4390D01*
X547351Y4347D01*
X547371Y4345D01*
X547389Y4337D01*
X547556Y4319D01*
X609600Y4319D01*
X609620Y4322D01*
G37*
G36*
X-39536Y4322D02*
X-39536Y4322D01*
X-39517Y4320D01*
X-39415Y4342D01*
X-39313Y4359D01*
X-39296Y4368D01*
X-39276Y4372D01*
X-39187Y4425D01*
X-39096Y4474D01*
X-39082Y4488D01*
X-39065Y4498D01*
X-38998Y4577D01*
X-38926Y4652D01*
X-38918Y4670D01*
X-38905Y4685D01*
X-38866Y4781D01*
X-38823Y4875D01*
X-38821Y4895D01*
X-38813Y4913D01*
X-38795Y5080D01*
X-38795Y42544D01*
X-38798Y42564D01*
X-38796Y42583D01*
X-38818Y42685D01*
X-38834Y42787D01*
X-38844Y42804D01*
X-38848Y42824D01*
X-38901Y42913D01*
X-38950Y43004D01*
X-38964Y43018D01*
X-38974Y43035D01*
X-39053Y43102D01*
X-39128Y43174D01*
X-39146Y43182D01*
X-39161Y43195D01*
X-39257Y43234D01*
X-39351Y43277D01*
X-39371Y43279D01*
X-39389Y43287D01*
X-39556Y43305D01*
X-53237Y43305D01*
X-53269Y43300D01*
X-53349Y43297D01*
X-54238Y43165D01*
X-54252Y43172D01*
X-54279Y43195D01*
X-54361Y43228D01*
X-54439Y43268D01*
X-54474Y43274D01*
X-54507Y43287D01*
X-54656Y43303D01*
X-55290Y43938D01*
X-55317Y43957D01*
X-55375Y44011D01*
X-56097Y44546D01*
X-56102Y44561D01*
X-56105Y44597D01*
X-56140Y44678D01*
X-56166Y44762D01*
X-56187Y44790D01*
X-56201Y44823D01*
X-56295Y44940D01*
X-56295Y45837D01*
X-56300Y45869D01*
X-56303Y45949D01*
X-63194Y92240D01*
X-74529Y185687D01*
X-83329Y279403D01*
X-89588Y373324D01*
X-93303Y467381D01*
X-93869Y512995D01*
X-93884Y513081D01*
X-93887Y513120D01*
X-93887Y514455D01*
X-93887Y514459D01*
X-93887Y514465D01*
X-93901Y515620D01*
X-93084Y516437D01*
X-93082Y516440D01*
X-93078Y516444D01*
X-92270Y517272D01*
X-91115Y517272D01*
X-91111Y517272D01*
X-91106Y517272D01*
X-89792Y517288D01*
X-89764Y517285D01*
X-89739Y517278D01*
X-89708Y517279D01*
X-89645Y517272D01*
X-31750Y517272D01*
X-31728Y517275D01*
X-31690Y517274D01*
X-27300Y517620D01*
X-27294Y517621D01*
X-27288Y517621D01*
X-27124Y517655D01*
X-18773Y520368D01*
X-18741Y520385D01*
X-18706Y520393D01*
X-18560Y520476D01*
X-11456Y525638D01*
X-11431Y525663D01*
X-11401Y525682D01*
X-11288Y525806D01*
X-6126Y532910D01*
X-6110Y532942D01*
X-6087Y532970D01*
X-6018Y533123D01*
X-3305Y541474D01*
X-3299Y541509D01*
X-3286Y541543D01*
X-3267Y541709D01*
X-3267Y550491D01*
X-3273Y550526D01*
X-3271Y550562D01*
X-3305Y550726D01*
X-6018Y559077D01*
X-6035Y559109D01*
X-6043Y559144D01*
X-6126Y559290D01*
X-11288Y566394D01*
X-11313Y566419D01*
X-11332Y566449D01*
X-11456Y566562D01*
X-18560Y571724D01*
X-18592Y571740D01*
X-18620Y571763D01*
X-18773Y571832D01*
X-27124Y574545D01*
X-27130Y574546D01*
X-27135Y574549D01*
X-27300Y574580D01*
X-31690Y574926D01*
X-31712Y574924D01*
X-31750Y574928D01*
X-91069Y574928D01*
X-91073Y574928D01*
X-91079Y574928D01*
X-92235Y574914D01*
X-93052Y575731D01*
X-93056Y575733D01*
X-93059Y575738D01*
X-93887Y576545D01*
X-93887Y577700D01*
X-93887Y577704D01*
X-93887Y577710D01*
X-94491Y625423D01*
X-92709Y720885D01*
X-87941Y816245D01*
X-84077Y863683D01*
X-84079Y863705D01*
X-84075Y863744D01*
X-84075Y864798D01*
X-84073Y864801D01*
X-84036Y864852D01*
X-84019Y864910D01*
X-83992Y864963D01*
X-83199Y865636D01*
X-83185Y865654D01*
X-83154Y865678D01*
X-82409Y866423D01*
X-82406Y866424D01*
X-82344Y866434D01*
X-82290Y866463D01*
X-82233Y866482D01*
X-81197Y866397D01*
X-81175Y866399D01*
X-81135Y866395D01*
X-54356Y866395D01*
X-54336Y866398D01*
X-54317Y866396D01*
X-54215Y866418D01*
X-54113Y866434D01*
X-54096Y866444D01*
X-54076Y866448D01*
X-53987Y866501D01*
X-53896Y866550D01*
X-53882Y866564D01*
X-53865Y866574D01*
X-53798Y866653D01*
X-53726Y866728D01*
X-53718Y866746D01*
X-53705Y866761D01*
X-53666Y866857D01*
X-53623Y866951D01*
X-53621Y866971D01*
X-53613Y866989D01*
X-53595Y867156D01*
X-53595Y1032400D01*
X-53598Y1032420D01*
X-53596Y1032439D01*
X-53618Y1032541D01*
X-53634Y1032643D01*
X-53644Y1032660D01*
X-53648Y1032680D01*
X-53701Y1032769D01*
X-53750Y1032860D01*
X-53764Y1032874D01*
X-53774Y1032891D01*
X-53853Y1032958D01*
X-53928Y1033030D01*
X-53946Y1033038D01*
X-53961Y1033051D01*
X-54057Y1033090D01*
X-54151Y1033133D01*
X-54171Y1033135D01*
X-54189Y1033143D01*
X-54356Y1033161D01*
X-101600Y1033161D01*
X-101620Y1033158D01*
X-101639Y1033160D01*
X-101741Y1033138D01*
X-101843Y1033122D01*
X-101860Y1033112D01*
X-101880Y1033108D01*
X-101969Y1033055D01*
X-102060Y1033006D01*
X-102074Y1032992D01*
X-102091Y1032982D01*
X-102158Y1032903D01*
X-102230Y1032828D01*
X-102238Y1032810D01*
X-102251Y1032795D01*
X-102290Y1032699D01*
X-102333Y1032605D01*
X-102335Y1032585D01*
X-102343Y1032567D01*
X-102361Y1032400D01*
X-102361Y5080D01*
X-102358Y5060D01*
X-102360Y5041D01*
X-102338Y4939D01*
X-102322Y4837D01*
X-102312Y4820D01*
X-102308Y4800D01*
X-102255Y4711D01*
X-102206Y4620D01*
X-102192Y4606D01*
X-102182Y4589D01*
X-102103Y4522D01*
X-102028Y4451D01*
X-102010Y4442D01*
X-101995Y4429D01*
X-101899Y4390D01*
X-101805Y4347D01*
X-101785Y4345D01*
X-101767Y4337D01*
X-101600Y4319D01*
X-39556Y4319D01*
X-39536Y4322D01*
G37*
%LPC*%
G36*
X149025Y859789D02*
X149025Y859789D01*
X146454Y862360D01*
X146381Y862413D01*
X146311Y862473D01*
X146281Y862485D01*
X146255Y862504D01*
X146168Y862531D01*
X146083Y862565D01*
X146042Y862569D01*
X146020Y862576D01*
X145987Y862575D01*
X145916Y862583D01*
X87414Y862583D01*
X59951Y890046D01*
X59877Y890099D01*
X59808Y890159D01*
X59777Y890171D01*
X59751Y890190D01*
X59664Y890217D01*
X59579Y890251D01*
X59538Y890255D01*
X59516Y890262D01*
X59484Y890261D01*
X59413Y890269D01*
X56315Y890269D01*
X53339Y893245D01*
X53339Y897455D01*
X56315Y900431D01*
X60525Y900431D01*
X63501Y897455D01*
X63501Y894357D01*
X63515Y894267D01*
X63523Y894176D01*
X63535Y894147D01*
X63540Y894115D01*
X63583Y894034D01*
X63619Y893950D01*
X63645Y893918D01*
X63656Y893897D01*
X63679Y893875D01*
X63724Y893819D01*
X89401Y868142D01*
X89475Y868089D01*
X89544Y868029D01*
X89575Y868017D01*
X89601Y867998D01*
X89688Y867971D01*
X89773Y867937D01*
X89814Y867933D01*
X89836Y867926D01*
X89868Y867927D01*
X89939Y867919D01*
X146678Y867919D01*
X146768Y867933D01*
X146859Y867941D01*
X146889Y867953D01*
X146921Y867958D01*
X147002Y868001D01*
X147085Y868037D01*
X147118Y868063D01*
X147138Y868074D01*
X147160Y868097D01*
X147216Y868142D01*
X149025Y869951D01*
X153235Y869951D01*
X155425Y867761D01*
X155498Y867708D01*
X155568Y867648D01*
X155598Y867636D01*
X155624Y867617D01*
X155711Y867590D01*
X155796Y867556D01*
X155837Y867552D01*
X155859Y867545D01*
X155892Y867546D01*
X155963Y867538D01*
X372093Y867538D01*
X372163Y867549D01*
X372235Y867551D01*
X372284Y867569D01*
X372335Y867577D01*
X372399Y867611D01*
X372466Y867636D01*
X372507Y867668D01*
X372553Y867693D01*
X372602Y867745D01*
X372658Y867789D01*
X372686Y867833D01*
X372722Y867871D01*
X372752Y867936D01*
X372791Y867996D01*
X372804Y868047D01*
X372826Y868094D01*
X372834Y868165D01*
X372851Y868235D01*
X372847Y868287D01*
X372853Y868338D01*
X372838Y868409D01*
X372832Y868480D01*
X372812Y868528D01*
X372801Y868579D01*
X372764Y868640D01*
X372736Y868706D01*
X372691Y868762D01*
X372674Y868790D01*
X372657Y868805D01*
X372631Y868837D01*
X370492Y870976D01*
X369061Y874430D01*
X369061Y878170D01*
X370492Y881624D01*
X373136Y884268D01*
X374584Y884868D01*
X374667Y884919D01*
X374753Y884965D01*
X374771Y884983D01*
X374793Y884997D01*
X374856Y885073D01*
X374922Y885143D01*
X374933Y885167D01*
X374950Y885187D01*
X374985Y885278D01*
X375026Y885366D01*
X375029Y885392D01*
X375038Y885416D01*
X375042Y885514D01*
X375053Y885610D01*
X375048Y885636D01*
X375049Y885662D01*
X375022Y885756D01*
X375001Y885851D01*
X374987Y885873D01*
X374980Y885898D01*
X374925Y885978D01*
X374875Y886062D01*
X374855Y886079D01*
X374840Y886100D01*
X374762Y886159D01*
X374688Y886222D01*
X374664Y886232D01*
X374643Y886247D01*
X374550Y886277D01*
X374460Y886314D01*
X374427Y886317D01*
X374409Y886323D01*
X374376Y886323D01*
X374293Y886332D01*
X324492Y886332D01*
X324421Y886321D01*
X324349Y886319D01*
X324300Y886301D01*
X324249Y886293D01*
X324186Y886259D01*
X324118Y886234D01*
X324078Y886202D01*
X324032Y886177D01*
X323982Y886126D01*
X323926Y886081D01*
X323898Y886037D01*
X323862Y885999D01*
X323832Y885934D01*
X323793Y885874D01*
X323781Y885823D01*
X323759Y885776D01*
X323751Y885705D01*
X323733Y885635D01*
X323737Y885583D01*
X323732Y885532D01*
X323747Y885461D01*
X323752Y885390D01*
X323773Y885342D01*
X323784Y885291D01*
X323821Y885230D01*
X323849Y885164D01*
X323851Y885161D01*
X323851Y880926D01*
X323191Y880267D01*
X323150Y880209D01*
X323100Y880157D01*
X323078Y880110D01*
X323048Y880068D01*
X323027Y879999D01*
X322997Y879934D01*
X322991Y879882D01*
X322976Y879832D01*
X322977Y879761D01*
X322970Y879690D01*
X322981Y879639D01*
X322982Y879587D01*
X323007Y879519D01*
X323022Y879449D01*
X323049Y879404D01*
X323066Y879356D01*
X323111Y879300D01*
X323148Y879238D01*
X323188Y879204D01*
X323220Y879164D01*
X323280Y879125D01*
X323335Y879078D01*
X323383Y879059D01*
X323427Y879031D01*
X323497Y879013D01*
X323563Y878986D01*
X323634Y878978D01*
X323666Y878970D01*
X323689Y878972D01*
X323730Y878968D01*
X350767Y878968D01*
X350857Y878982D01*
X350948Y878990D01*
X350978Y879002D01*
X351010Y879007D01*
X351091Y879050D01*
X351174Y879086D01*
X351207Y879112D01*
X351227Y879123D01*
X351249Y879146D01*
X351254Y879150D01*
X351255Y879150D01*
X351305Y879191D01*
X353495Y881381D01*
X357705Y881381D01*
X360681Y878405D01*
X360681Y874195D01*
X357705Y871219D01*
X353495Y871219D01*
X351305Y873409D01*
X351232Y873462D01*
X351162Y873522D01*
X351132Y873534D01*
X351106Y873553D01*
X351019Y873580D01*
X350934Y873614D01*
X350893Y873618D01*
X350871Y873625D01*
X350838Y873624D01*
X350767Y873632D01*
X195333Y873632D01*
X195243Y873618D01*
X195152Y873610D01*
X195122Y873598D01*
X195090Y873593D01*
X195009Y873550D01*
X194926Y873514D01*
X194893Y873488D01*
X194873Y873477D01*
X194851Y873454D01*
X194795Y873409D01*
X192605Y871219D01*
X188395Y871219D01*
X185419Y874195D01*
X185419Y878405D01*
X188395Y881381D01*
X192605Y881381D01*
X194795Y879191D01*
X194868Y879138D01*
X194938Y879078D01*
X194968Y879066D01*
X194994Y879047D01*
X195081Y879020D01*
X195166Y878986D01*
X195207Y878982D01*
X195229Y878975D01*
X195262Y878976D01*
X195333Y878968D01*
X230879Y878968D01*
X230950Y878979D01*
X231022Y878981D01*
X231071Y878999D01*
X231122Y879007D01*
X231185Y879041D01*
X231253Y879066D01*
X231293Y879098D01*
X231339Y879123D01*
X231389Y879175D01*
X231445Y879219D01*
X231473Y879263D01*
X231509Y879301D01*
X231539Y879366D01*
X231578Y879426D01*
X231590Y879477D01*
X231612Y879524D01*
X231620Y879595D01*
X231638Y879665D01*
X231634Y879717D01*
X231639Y879768D01*
X231624Y879839D01*
X231619Y879910D01*
X231598Y879958D01*
X231587Y880009D01*
X231550Y880070D01*
X231522Y880136D01*
X231477Y880192D01*
X231461Y880220D01*
X231443Y880235D01*
X231434Y880247D01*
X231433Y880247D01*
X231418Y880267D01*
X231139Y880546D01*
X231139Y884754D01*
X231418Y885033D01*
X231459Y885091D01*
X231509Y885143D01*
X231531Y885190D01*
X231561Y885232D01*
X231582Y885301D01*
X231612Y885366D01*
X231618Y885418D01*
X231633Y885468D01*
X231632Y885539D01*
X231639Y885610D01*
X231628Y885661D01*
X231627Y885713D01*
X231602Y885781D01*
X231587Y885851D01*
X231560Y885896D01*
X231543Y885944D01*
X231498Y886000D01*
X231461Y886062D01*
X231421Y886096D01*
X231389Y886136D01*
X231329Y886175D01*
X231274Y886222D01*
X231226Y886241D01*
X231182Y886269D01*
X231113Y886287D01*
X231046Y886314D01*
X230975Y886322D01*
X230943Y886330D01*
X230920Y886328D01*
X230879Y886332D01*
X230035Y886332D01*
X190888Y925479D01*
X190814Y925532D01*
X190745Y925592D01*
X190714Y925604D01*
X190688Y925623D01*
X190601Y925650D01*
X190516Y925684D01*
X190475Y925688D01*
X190453Y925695D01*
X190421Y925694D01*
X190350Y925702D01*
X159773Y925702D01*
X159683Y925688D01*
X159592Y925680D01*
X159562Y925668D01*
X159530Y925663D01*
X159449Y925620D01*
X159366Y925584D01*
X159333Y925558D01*
X159313Y925547D01*
X159291Y925524D01*
X159235Y925479D01*
X157045Y923289D01*
X152835Y923289D01*
X149859Y926265D01*
X149859Y930475D01*
X152835Y933451D01*
X157045Y933451D01*
X159235Y931261D01*
X159308Y931208D01*
X159378Y931148D01*
X159408Y931136D01*
X159434Y931117D01*
X159521Y931090D01*
X159606Y931056D01*
X159647Y931052D01*
X159669Y931045D01*
X159702Y931046D01*
X159773Y931038D01*
X192875Y931038D01*
X222220Y901693D01*
X222278Y901651D01*
X222330Y901602D01*
X222377Y901580D01*
X222419Y901549D01*
X222488Y901528D01*
X222553Y901498D01*
X222605Y901492D01*
X222655Y901477D01*
X222726Y901479D01*
X222797Y901471D01*
X222848Y901482D01*
X222900Y901483D01*
X222968Y901508D01*
X223038Y901523D01*
X223083Y901550D01*
X223131Y901568D01*
X223187Y901613D01*
X223249Y901649D01*
X223283Y901689D01*
X223323Y901722D01*
X223362Y901782D01*
X223409Y901836D01*
X223428Y901885D01*
X223456Y901929D01*
X223474Y901998D01*
X223501Y902065D01*
X223509Y902136D01*
X223517Y902167D01*
X223515Y902190D01*
X223519Y902231D01*
X223519Y903805D01*
X226495Y906781D01*
X230705Y906781D01*
X232895Y904591D01*
X232968Y904538D01*
X233038Y904478D01*
X233068Y904466D01*
X233094Y904447D01*
X233181Y904420D01*
X233266Y904386D01*
X233307Y904382D01*
X233329Y904375D01*
X233362Y904376D01*
X233433Y904368D01*
X313937Y904368D01*
X314027Y904382D01*
X314118Y904390D01*
X314148Y904402D01*
X314180Y904407D01*
X314261Y904450D01*
X314344Y904486D01*
X314377Y904512D01*
X314397Y904523D01*
X314419Y904546D01*
X314475Y904591D01*
X316665Y906781D01*
X320875Y906781D01*
X323851Y903805D01*
X323851Y899595D01*
X320875Y896619D01*
X316665Y896619D01*
X314475Y898809D01*
X314402Y898862D01*
X314332Y898922D01*
X314302Y898934D01*
X314276Y898953D01*
X314189Y898980D01*
X314104Y899014D01*
X314063Y899018D01*
X314041Y899025D01*
X314008Y899024D01*
X313937Y899032D01*
X233433Y899032D01*
X233343Y899018D01*
X233252Y899010D01*
X233222Y898998D01*
X233190Y898993D01*
X233109Y898950D01*
X233026Y898914D01*
X232993Y898888D01*
X232973Y898877D01*
X232951Y898854D01*
X232895Y898809D01*
X230705Y896619D01*
X229131Y896619D01*
X229061Y896608D01*
X228989Y896606D01*
X228940Y896588D01*
X228889Y896580D01*
X228825Y896546D01*
X228758Y896521D01*
X228717Y896489D01*
X228671Y896464D01*
X228622Y896412D01*
X228566Y896368D01*
X228538Y896324D01*
X228502Y896286D01*
X228472Y896221D01*
X228433Y896161D01*
X228420Y896110D01*
X228398Y896063D01*
X228390Y895992D01*
X228373Y895922D01*
X228377Y895870D01*
X228371Y895819D01*
X228386Y895748D01*
X228392Y895677D01*
X228412Y895629D01*
X228423Y895578D01*
X228460Y895517D01*
X228488Y895451D01*
X228533Y895395D01*
X228549Y895367D01*
X228567Y895352D01*
X228593Y895320D01*
X232022Y891891D01*
X232096Y891838D01*
X232165Y891778D01*
X232196Y891766D01*
X232222Y891747D01*
X232309Y891720D01*
X232394Y891686D01*
X232435Y891682D01*
X232457Y891675D01*
X232489Y891676D01*
X232560Y891668D01*
X374293Y891668D01*
X374389Y891683D01*
X374486Y891693D01*
X374510Y891703D01*
X374536Y891707D01*
X374622Y891753D01*
X374711Y891793D01*
X374730Y891810D01*
X374753Y891823D01*
X374820Y891893D01*
X374892Y891959D01*
X374904Y891982D01*
X374922Y892001D01*
X374963Y892089D01*
X375010Y892175D01*
X375015Y892200D01*
X375026Y892224D01*
X375037Y892321D01*
X375054Y892417D01*
X375050Y892443D01*
X375053Y892468D01*
X375032Y892564D01*
X375018Y892660D01*
X375006Y892683D01*
X375001Y892709D01*
X374951Y892792D01*
X374907Y892879D01*
X374888Y892898D01*
X374875Y892920D01*
X374801Y892983D01*
X374731Y893051D01*
X374703Y893067D01*
X374688Y893080D01*
X374657Y893092D01*
X374584Y893132D01*
X373136Y893732D01*
X370492Y896376D01*
X369061Y899830D01*
X369061Y903570D01*
X370492Y907024D01*
X373136Y909668D01*
X376590Y911099D01*
X380330Y911099D01*
X383784Y909668D01*
X386428Y907024D01*
X387859Y903570D01*
X387859Y899830D01*
X386428Y896376D01*
X383784Y893732D01*
X382336Y893132D01*
X382253Y893081D01*
X382167Y893035D01*
X382149Y893017D01*
X382127Y893003D01*
X382064Y892927D01*
X381998Y892857D01*
X381987Y892833D01*
X381970Y892813D01*
X381935Y892722D01*
X381894Y892634D01*
X381891Y892608D01*
X381882Y892584D01*
X381878Y892486D01*
X381867Y892390D01*
X381872Y892364D01*
X381871Y892338D01*
X381898Y892244D01*
X381919Y892149D01*
X381933Y892127D01*
X381940Y892102D01*
X381995Y892022D01*
X382045Y891938D01*
X382065Y891921D01*
X382080Y891900D01*
X382158Y891841D01*
X382232Y891778D01*
X382256Y891768D01*
X382277Y891753D01*
X382370Y891723D01*
X382460Y891686D01*
X382493Y891683D01*
X382511Y891677D01*
X382544Y891677D01*
X382627Y891668D01*
X519280Y891668D01*
X519370Y891682D01*
X519461Y891690D01*
X519490Y891702D01*
X519522Y891707D01*
X519603Y891750D01*
X519687Y891786D01*
X519719Y891812D01*
X519740Y891823D01*
X519762Y891846D01*
X519818Y891891D01*
X528096Y900169D01*
X528149Y900243D01*
X528209Y900312D01*
X528221Y900343D01*
X528240Y900369D01*
X528267Y900456D01*
X528301Y900541D01*
X528305Y900582D01*
X528312Y900604D01*
X528311Y900636D01*
X528319Y900707D01*
X528319Y903805D01*
X531295Y906781D01*
X535505Y906781D01*
X538481Y903805D01*
X538481Y899595D01*
X535505Y896619D01*
X532407Y896619D01*
X532317Y896605D01*
X532226Y896597D01*
X532197Y896585D01*
X532165Y896580D01*
X532084Y896537D01*
X532000Y896501D01*
X531968Y896475D01*
X531947Y896464D01*
X531925Y896441D01*
X531869Y896396D01*
X521805Y886332D01*
X382627Y886332D01*
X382531Y886317D01*
X382434Y886307D01*
X382410Y886297D01*
X382384Y886293D01*
X382298Y886247D01*
X382209Y886207D01*
X382190Y886190D01*
X382167Y886177D01*
X382100Y886107D01*
X382028Y886041D01*
X382016Y886018D01*
X381998Y885999D01*
X381957Y885911D01*
X381910Y885825D01*
X381905Y885800D01*
X381894Y885776D01*
X381883Y885679D01*
X381866Y885583D01*
X381870Y885557D01*
X381867Y885532D01*
X381888Y885436D01*
X381902Y885340D01*
X381914Y885317D01*
X381919Y885291D01*
X381969Y885208D01*
X382013Y885121D01*
X382032Y885102D01*
X382045Y885080D01*
X382119Y885017D01*
X382189Y884949D01*
X382217Y884933D01*
X382232Y884920D01*
X382263Y884908D01*
X382336Y884868D01*
X383784Y884268D01*
X386428Y881624D01*
X387859Y878170D01*
X387859Y874430D01*
X386428Y870976D01*
X384289Y868837D01*
X384247Y868779D01*
X384198Y868727D01*
X384176Y868680D01*
X384146Y868638D01*
X384124Y868569D01*
X384094Y868504D01*
X384089Y868452D01*
X384073Y868402D01*
X384075Y868331D01*
X384067Y868260D01*
X384078Y868209D01*
X384080Y868157D01*
X384104Y868089D01*
X384119Y868019D01*
X384146Y867974D01*
X384164Y867926D01*
X384209Y867870D01*
X384246Y867808D01*
X384285Y867774D01*
X384318Y867734D01*
X384378Y867695D01*
X384432Y867648D01*
X384481Y867629D01*
X384525Y867601D01*
X384594Y867583D01*
X384661Y867556D01*
X384732Y867548D01*
X384763Y867540D01*
X384786Y867542D01*
X384827Y867538D01*
X522217Y867538D01*
X522307Y867552D01*
X522398Y867560D01*
X522428Y867572D01*
X522460Y867577D01*
X522541Y867620D01*
X522624Y867656D01*
X522657Y867682D01*
X522677Y867693D01*
X522699Y867716D01*
X522755Y867761D01*
X524945Y869951D01*
X529155Y869951D01*
X532131Y866975D01*
X532131Y862765D01*
X529155Y859789D01*
X524945Y859789D01*
X522755Y861979D01*
X522682Y862032D01*
X522612Y862092D01*
X522582Y862104D01*
X522556Y862123D01*
X522469Y862150D01*
X522384Y862184D01*
X522343Y862188D01*
X522321Y862195D01*
X522288Y862194D01*
X522217Y862202D01*
X155963Y862202D01*
X155873Y862188D01*
X155782Y862180D01*
X155752Y862168D01*
X155720Y862163D01*
X155639Y862120D01*
X155556Y862084D01*
X155523Y862058D01*
X155503Y862047D01*
X155481Y862024D01*
X155425Y861979D01*
X153235Y859789D01*
X149025Y859789D01*
G37*
%LPD*%
%LPC*%
G36*
X316665Y910589D02*
X316665Y910589D01*
X313689Y913565D01*
X313689Y917775D01*
X316665Y920751D01*
X320875Y920751D01*
X323065Y918561D01*
X323138Y918508D01*
X323208Y918448D01*
X323238Y918436D01*
X323264Y918417D01*
X323351Y918390D01*
X323436Y918356D01*
X323477Y918352D01*
X323499Y918345D01*
X323532Y918346D01*
X323603Y918338D01*
X372093Y918338D01*
X372163Y918349D01*
X372235Y918351D01*
X372284Y918369D01*
X372335Y918377D01*
X372399Y918411D01*
X372466Y918436D01*
X372507Y918468D01*
X372553Y918493D01*
X372602Y918545D01*
X372658Y918589D01*
X372686Y918633D01*
X372722Y918671D01*
X372752Y918736D01*
X372791Y918796D01*
X372804Y918847D01*
X372826Y918894D01*
X372834Y918965D01*
X372851Y919035D01*
X372847Y919087D01*
X372853Y919138D01*
X372838Y919209D01*
X372832Y919280D01*
X372812Y919328D01*
X372801Y919379D01*
X372764Y919440D01*
X372736Y919506D01*
X372691Y919562D01*
X372674Y919590D01*
X372657Y919605D01*
X372631Y919637D01*
X370492Y921776D01*
X369061Y925230D01*
X369061Y928970D01*
X370492Y932424D01*
X373136Y935068D01*
X374278Y935541D01*
X374361Y935592D01*
X374446Y935638D01*
X374464Y935657D01*
X374487Y935670D01*
X374549Y935745D01*
X374616Y935816D01*
X374627Y935840D01*
X374644Y935860D01*
X374678Y935951D01*
X374719Y936039D01*
X374722Y936065D01*
X374732Y936089D01*
X374736Y936187D01*
X374747Y936283D01*
X374741Y936309D01*
X374742Y936335D01*
X374715Y936429D01*
X374694Y936524D01*
X374681Y936546D01*
X374674Y936571D01*
X374618Y936651D01*
X374568Y936735D01*
X374548Y936752D01*
X374533Y936773D01*
X374455Y936832D01*
X374381Y936895D01*
X374357Y936905D01*
X374336Y936920D01*
X374243Y936950D01*
X374153Y936987D01*
X374121Y936990D01*
X374102Y936996D01*
X374069Y936996D01*
X373986Y937005D01*
X365329Y937005D01*
X363544Y938791D01*
X361573Y940761D01*
X361499Y940814D01*
X361430Y940874D01*
X361400Y940886D01*
X361374Y940905D01*
X361287Y940932D01*
X361202Y940966D01*
X361161Y940970D01*
X361139Y940977D01*
X361106Y940976D01*
X361035Y940984D01*
X158503Y940984D01*
X158413Y940970D01*
X158322Y940962D01*
X158292Y940950D01*
X158260Y940945D01*
X158179Y940902D01*
X158095Y940866D01*
X158063Y940840D01*
X158043Y940829D01*
X158021Y940806D01*
X157965Y940761D01*
X157045Y939841D01*
X152835Y939841D01*
X149836Y942840D01*
X149828Y942864D01*
X149820Y942915D01*
X149786Y942978D01*
X149761Y943046D01*
X149729Y943086D01*
X149704Y943132D01*
X149652Y943182D01*
X149608Y943238D01*
X149564Y943266D01*
X149526Y943302D01*
X149461Y943332D01*
X149401Y943371D01*
X149350Y943383D01*
X149303Y943405D01*
X149232Y943413D01*
X149162Y943431D01*
X149110Y943427D01*
X149059Y943432D01*
X148988Y943417D01*
X148917Y943412D01*
X148869Y943391D01*
X148818Y943380D01*
X148757Y943343D01*
X148691Y943315D01*
X148635Y943271D01*
X148607Y943254D01*
X148592Y943236D01*
X148560Y943211D01*
X141635Y936285D01*
X41240Y936285D01*
X41150Y936271D01*
X41059Y936263D01*
X41029Y936251D01*
X40997Y936246D01*
X40916Y936203D01*
X40832Y936167D01*
X40800Y936141D01*
X40780Y936130D01*
X40758Y936107D01*
X40702Y936062D01*
X38512Y933872D01*
X34302Y933872D01*
X31303Y936871D01*
X31295Y936895D01*
X31287Y936946D01*
X31253Y937009D01*
X31228Y937077D01*
X31196Y937117D01*
X31171Y937163D01*
X31120Y937213D01*
X31075Y937269D01*
X31031Y937297D01*
X30993Y937333D01*
X30928Y937363D01*
X30868Y937402D01*
X30817Y937414D01*
X30770Y937436D01*
X30699Y937444D01*
X30629Y937462D01*
X30577Y937458D01*
X30526Y937463D01*
X30455Y937448D01*
X30384Y937443D01*
X30336Y937422D01*
X30285Y937411D01*
X30224Y937374D01*
X30158Y937346D01*
X30102Y937302D01*
X30074Y937285D01*
X30059Y937267D01*
X30049Y937259D01*
X25835Y937259D01*
X22859Y940235D01*
X22859Y944445D01*
X25835Y947421D01*
X30045Y947421D01*
X33044Y944422D01*
X33052Y944398D01*
X33060Y944347D01*
X33094Y944284D01*
X33119Y944216D01*
X33151Y944176D01*
X33176Y944130D01*
X33227Y944080D01*
X33272Y944024D01*
X33316Y943996D01*
X33354Y943960D01*
X33419Y943930D01*
X33479Y943891D01*
X33530Y943879D01*
X33577Y943857D01*
X33648Y943849D01*
X33718Y943831D01*
X33770Y943835D01*
X33821Y943830D01*
X33892Y943845D01*
X33963Y943850D01*
X34011Y943871D01*
X34062Y943882D01*
X34123Y943919D01*
X34189Y943947D01*
X34245Y943991D01*
X34273Y944008D01*
X34288Y944026D01*
X34298Y944034D01*
X38512Y944034D01*
X40702Y941844D01*
X40776Y941791D01*
X40845Y941731D01*
X40875Y941719D01*
X40901Y941700D01*
X40988Y941673D01*
X41073Y941639D01*
X41114Y941635D01*
X41136Y941628D01*
X41169Y941629D01*
X41240Y941621D01*
X139109Y941621D01*
X139199Y941635D01*
X139290Y941643D01*
X139320Y941655D01*
X139352Y941660D01*
X139433Y941703D01*
X139516Y941739D01*
X139549Y941765D01*
X139569Y941776D01*
X139591Y941799D01*
X139647Y941844D01*
X151362Y953559D01*
X158518Y953559D01*
X161978Y950099D01*
X162052Y950046D01*
X162121Y949986D01*
X162151Y949974D01*
X162177Y949955D01*
X162264Y949928D01*
X162349Y949894D01*
X162390Y949890D01*
X162412Y949883D01*
X162445Y949884D01*
X162516Y949876D01*
X344502Y949876D01*
X344573Y949887D01*
X344645Y949889D01*
X344694Y949907D01*
X344745Y949915D01*
X344808Y949949D01*
X344876Y949974D01*
X344916Y950006D01*
X344962Y950031D01*
X345012Y950083D01*
X345068Y950127D01*
X345096Y950171D01*
X345132Y950209D01*
X345162Y950274D01*
X345201Y950334D01*
X345213Y950385D01*
X345235Y950432D01*
X345243Y950503D01*
X345261Y950573D01*
X345257Y950625D01*
X345262Y950676D01*
X345247Y950747D01*
X345242Y950818D01*
X345221Y950866D01*
X345210Y950917D01*
X345173Y950978D01*
X345145Y951044D01*
X345101Y951100D01*
X345084Y951128D01*
X345066Y951143D01*
X345041Y951175D01*
X344550Y951665D01*
X344550Y955875D01*
X347526Y958851D01*
X351736Y958851D01*
X354712Y955875D01*
X354712Y953412D01*
X354723Y953342D01*
X354725Y953270D01*
X354743Y953221D01*
X354751Y953170D01*
X354785Y953106D01*
X354810Y953039D01*
X354842Y952998D01*
X354867Y952952D01*
X354919Y952903D01*
X354963Y952847D01*
X355007Y952819D01*
X355045Y952783D01*
X355110Y952753D01*
X355170Y952714D01*
X355221Y952701D01*
X355268Y952679D01*
X355339Y952671D01*
X355409Y952654D01*
X355461Y952658D01*
X355512Y952652D01*
X355583Y952667D01*
X355654Y952673D01*
X355702Y952693D01*
X355753Y952704D01*
X355814Y952741D01*
X355880Y952769D01*
X355936Y952814D01*
X355964Y952830D01*
X355979Y952848D01*
X356011Y952874D01*
X378109Y974972D01*
X379895Y976758D01*
X388867Y976758D01*
X388957Y976772D01*
X389048Y976780D01*
X389078Y976792D01*
X389110Y976797D01*
X389191Y976840D01*
X389275Y976876D01*
X389307Y976902D01*
X389327Y976913D01*
X389349Y976936D01*
X389405Y976981D01*
X391595Y979171D01*
X395805Y979171D01*
X398781Y976195D01*
X398781Y971985D01*
X395805Y969009D01*
X391595Y969009D01*
X389405Y971199D01*
X389331Y971252D01*
X389262Y971312D01*
X389232Y971324D01*
X389206Y971343D01*
X389119Y971370D01*
X389034Y971404D01*
X388993Y971408D01*
X388971Y971415D01*
X388938Y971414D01*
X388867Y971422D01*
X382420Y971422D01*
X382330Y971408D01*
X382239Y971400D01*
X382210Y971388D01*
X382178Y971383D01*
X382097Y971340D01*
X382013Y971304D01*
X381981Y971278D01*
X381960Y971267D01*
X381938Y971244D01*
X381882Y971199D01*
X358302Y947619D01*
X358260Y947561D01*
X358211Y947509D01*
X358189Y947462D01*
X358158Y947420D01*
X358137Y947351D01*
X358107Y947286D01*
X358101Y947234D01*
X358086Y947184D01*
X358088Y947113D01*
X358080Y947042D01*
X358091Y946991D01*
X358092Y946939D01*
X358117Y946871D01*
X358132Y946801D01*
X358159Y946756D01*
X358177Y946708D01*
X358222Y946652D01*
X358258Y946590D01*
X358298Y946556D01*
X358331Y946516D01*
X358391Y946477D01*
X358445Y946430D01*
X358494Y946411D01*
X358538Y946383D01*
X358607Y946365D01*
X358674Y946338D01*
X358745Y946330D01*
X358776Y946322D01*
X358799Y946324D01*
X358840Y946320D01*
X363065Y946320D01*
X363085Y946323D01*
X363104Y946321D01*
X363206Y946343D01*
X363308Y946359D01*
X363325Y946369D01*
X363345Y946373D01*
X363434Y946426D01*
X363525Y946475D01*
X363539Y946489D01*
X363556Y946499D01*
X363623Y946578D01*
X363695Y946653D01*
X363703Y946671D01*
X363716Y946686D01*
X363755Y946782D01*
X363798Y946876D01*
X363800Y946896D01*
X363808Y946914D01*
X363826Y947081D01*
X363826Y947747D01*
X366802Y950723D01*
X371012Y950723D01*
X371297Y950438D01*
X371370Y950385D01*
X371440Y950325D01*
X371470Y950313D01*
X371496Y950294D01*
X371583Y950267D01*
X371668Y950233D01*
X371709Y950229D01*
X371731Y950222D01*
X371764Y950223D01*
X371835Y950215D01*
X430514Y950215D01*
X430604Y950229D01*
X430695Y950237D01*
X430725Y950249D01*
X430757Y950254D01*
X430838Y950297D01*
X430921Y950333D01*
X430954Y950359D01*
X430974Y950370D01*
X430996Y950393D01*
X431052Y950438D01*
X431845Y951231D01*
X436055Y951231D01*
X436850Y950435D01*
X436908Y950394D01*
X436960Y950344D01*
X437007Y950322D01*
X437049Y950292D01*
X437118Y950271D01*
X437183Y950241D01*
X437235Y950235D01*
X437285Y950220D01*
X437356Y950221D01*
X437427Y950214D01*
X437478Y950225D01*
X437530Y950226D01*
X437598Y950251D01*
X437668Y950266D01*
X437713Y950293D01*
X437761Y950310D01*
X437817Y950355D01*
X437879Y950392D01*
X437913Y950432D01*
X437953Y950464D01*
X437992Y950524D01*
X438039Y950579D01*
X438058Y950627D01*
X438086Y950671D01*
X438104Y950741D01*
X438131Y950807D01*
X438139Y950878D01*
X438147Y950910D01*
X438145Y950933D01*
X438149Y950974D01*
X438149Y952065D01*
X441125Y955041D01*
X445335Y955041D01*
X448311Y952065D01*
X448311Y947855D01*
X445335Y944879D01*
X441125Y944879D01*
X440330Y945675D01*
X440272Y945716D01*
X440220Y945766D01*
X440173Y945788D01*
X440131Y945818D01*
X440062Y945839D01*
X439997Y945869D01*
X439945Y945875D01*
X439895Y945890D01*
X439824Y945889D01*
X439753Y945896D01*
X439702Y945885D01*
X439650Y945884D01*
X439582Y945859D01*
X439512Y945844D01*
X439467Y945817D01*
X439419Y945800D01*
X439363Y945755D01*
X439301Y945718D01*
X439267Y945678D01*
X439227Y945646D01*
X439188Y945586D01*
X439141Y945531D01*
X439122Y945483D01*
X439094Y945439D01*
X439076Y945369D01*
X439049Y945303D01*
X439041Y945232D01*
X439033Y945200D01*
X439035Y945177D01*
X439031Y945136D01*
X439031Y944046D01*
X438625Y943640D01*
X438584Y943582D01*
X438534Y943530D01*
X438512Y943483D01*
X438482Y943441D01*
X438461Y943372D01*
X438431Y943307D01*
X438425Y943255D01*
X438410Y943205D01*
X438411Y943134D01*
X438404Y943063D01*
X438415Y943012D01*
X438416Y942960D01*
X438441Y942892D01*
X438456Y942822D01*
X438483Y942777D01*
X438500Y942729D01*
X438545Y942673D01*
X438582Y942611D01*
X438622Y942577D01*
X438654Y942537D01*
X438714Y942498D01*
X438769Y942451D01*
X438817Y942432D01*
X438861Y942404D01*
X438931Y942386D01*
X438997Y942359D01*
X439068Y942351D01*
X439100Y942343D01*
X439123Y942345D01*
X439164Y942341D01*
X477243Y942341D01*
X477333Y942355D01*
X477424Y942363D01*
X477453Y942375D01*
X477485Y942380D01*
X477566Y942423D01*
X477650Y942459D01*
X477682Y942485D01*
X477703Y942496D01*
X477725Y942519D01*
X477781Y942564D01*
X525556Y990339D01*
X525609Y990413D01*
X525669Y990482D01*
X525681Y990513D01*
X525700Y990539D01*
X525727Y990626D01*
X525761Y990711D01*
X525765Y990752D01*
X525772Y990774D01*
X525771Y990806D01*
X525779Y990877D01*
X525779Y993975D01*
X528755Y996951D01*
X532965Y996951D01*
X535941Y993975D01*
X535941Y989765D01*
X532965Y986789D01*
X529867Y986789D01*
X529777Y986775D01*
X529686Y986767D01*
X529657Y986755D01*
X529625Y986750D01*
X529544Y986707D01*
X529460Y986671D01*
X529428Y986645D01*
X529407Y986634D01*
X529385Y986611D01*
X529329Y986566D01*
X479768Y937005D01*
X382934Y937005D01*
X382838Y936990D01*
X382741Y936980D01*
X382717Y936970D01*
X382691Y936966D01*
X382605Y936920D01*
X382516Y936880D01*
X382497Y936863D01*
X382474Y936850D01*
X382407Y936780D01*
X382335Y936714D01*
X382322Y936691D01*
X382304Y936672D01*
X382263Y936584D01*
X382216Y936498D01*
X382212Y936473D01*
X382201Y936449D01*
X382190Y936352D01*
X382173Y936256D01*
X382176Y936230D01*
X382173Y936205D01*
X382194Y936109D01*
X382208Y936013D01*
X382220Y935990D01*
X382226Y935964D01*
X382276Y935881D01*
X382320Y935794D01*
X382338Y935775D01*
X382352Y935753D01*
X382426Y935690D01*
X382495Y935622D01*
X382524Y935606D01*
X382539Y935593D01*
X382570Y935581D01*
X382642Y935541D01*
X383784Y935068D01*
X386428Y932424D01*
X387859Y928970D01*
X387859Y925230D01*
X386428Y921776D01*
X384289Y919637D01*
X384247Y919579D01*
X384198Y919527D01*
X384176Y919480D01*
X384146Y919438D01*
X384124Y919369D01*
X384094Y919304D01*
X384089Y919252D01*
X384073Y919202D01*
X384075Y919131D01*
X384067Y919060D01*
X384078Y919009D01*
X384080Y918957D01*
X384104Y918889D01*
X384119Y918819D01*
X384146Y918774D01*
X384164Y918726D01*
X384209Y918670D01*
X384246Y918608D01*
X384285Y918574D01*
X384318Y918534D01*
X384378Y918495D01*
X384432Y918448D01*
X384481Y918429D01*
X384525Y918401D01*
X384594Y918383D01*
X384661Y918356D01*
X384732Y918348D01*
X384763Y918340D01*
X384786Y918342D01*
X384827Y918338D01*
X411727Y918338D01*
X411817Y918352D01*
X411908Y918360D01*
X411938Y918372D01*
X411970Y918377D01*
X412051Y918420D01*
X412134Y918456D01*
X412167Y918482D01*
X412187Y918493D01*
X412209Y918516D01*
X412265Y918561D01*
X414455Y920751D01*
X418665Y920751D01*
X420855Y918561D01*
X420928Y918508D01*
X420998Y918448D01*
X421028Y918436D01*
X421054Y918417D01*
X421141Y918390D01*
X421226Y918356D01*
X421267Y918352D01*
X421289Y918345D01*
X421322Y918346D01*
X421393Y918338D01*
X520947Y918338D01*
X521037Y918352D01*
X521128Y918360D01*
X521158Y918372D01*
X521190Y918377D01*
X521271Y918420D01*
X521354Y918456D01*
X521387Y918482D01*
X521407Y918493D01*
X521429Y918516D01*
X521485Y918561D01*
X523675Y920751D01*
X527885Y920751D01*
X530861Y917775D01*
X530861Y913565D01*
X527885Y910589D01*
X523675Y910589D01*
X521485Y912779D01*
X521412Y912832D01*
X521342Y912892D01*
X521312Y912904D01*
X521286Y912923D01*
X521199Y912950D01*
X521114Y912984D01*
X521073Y912988D01*
X521051Y912995D01*
X521018Y912994D01*
X520947Y913002D01*
X421393Y913002D01*
X421303Y912988D01*
X421212Y912980D01*
X421182Y912968D01*
X421150Y912963D01*
X421069Y912920D01*
X420986Y912884D01*
X420953Y912858D01*
X420933Y912847D01*
X420911Y912824D01*
X420855Y912779D01*
X418665Y910589D01*
X414455Y910589D01*
X412265Y912779D01*
X412192Y912832D01*
X412122Y912892D01*
X412092Y912904D01*
X412066Y912923D01*
X411979Y912950D01*
X411894Y912984D01*
X411853Y912988D01*
X411831Y912995D01*
X411798Y912994D01*
X411727Y913002D01*
X323603Y913002D01*
X323513Y912988D01*
X323422Y912980D01*
X323392Y912968D01*
X323360Y912963D01*
X323279Y912920D01*
X323196Y912884D01*
X323163Y912858D01*
X323143Y912847D01*
X323121Y912824D01*
X323065Y912779D01*
X320875Y910589D01*
X316665Y910589D01*
G37*
%LPD*%
%LPC*%
G36*
X287455Y773429D02*
X287455Y773429D01*
X285900Y774984D01*
X285827Y775037D01*
X285757Y775097D01*
X285727Y775109D01*
X285701Y775128D01*
X285614Y775155D01*
X285529Y775189D01*
X285488Y775193D01*
X285466Y775200D01*
X285433Y775199D01*
X285362Y775207D01*
X104528Y775207D01*
X104438Y775193D01*
X104347Y775185D01*
X104317Y775173D01*
X104285Y775168D01*
X104204Y775125D01*
X104121Y775089D01*
X104088Y775063D01*
X104068Y775052D01*
X104046Y775029D01*
X103990Y774984D01*
X103705Y774699D01*
X99495Y774699D01*
X96519Y777675D01*
X96519Y781885D01*
X99495Y784861D01*
X103705Y784861D01*
X103990Y784576D01*
X104063Y784523D01*
X104133Y784463D01*
X104163Y784451D01*
X104189Y784432D01*
X104276Y784405D01*
X104361Y784371D01*
X104402Y784367D01*
X104424Y784360D01*
X104457Y784361D01*
X104528Y784353D01*
X290184Y784353D01*
X290723Y783814D01*
X290797Y783761D01*
X290867Y783701D01*
X290897Y783689D01*
X290923Y783670D01*
X291010Y783643D01*
X291095Y783609D01*
X291136Y783605D01*
X291158Y783598D01*
X291190Y783599D01*
X291261Y783591D01*
X291665Y783591D01*
X291950Y783306D01*
X292023Y783253D01*
X292093Y783193D01*
X292123Y783181D01*
X292149Y783162D01*
X292236Y783135D01*
X292321Y783101D01*
X292362Y783097D01*
X292384Y783090D01*
X292417Y783091D01*
X292488Y783083D01*
X428872Y783083D01*
X428962Y783097D01*
X429053Y783105D01*
X429083Y783117D01*
X429115Y783122D01*
X429196Y783165D01*
X429279Y783201D01*
X429312Y783227D01*
X429332Y783238D01*
X429354Y783261D01*
X429410Y783306D01*
X432235Y786131D01*
X436445Y786131D01*
X439421Y783155D01*
X439421Y778945D01*
X436445Y775969D01*
X436041Y775969D01*
X435951Y775955D01*
X435860Y775947D01*
X435831Y775935D01*
X435799Y775930D01*
X435718Y775887D01*
X435634Y775851D01*
X435602Y775825D01*
X435581Y775814D01*
X435559Y775791D01*
X435503Y775746D01*
X433694Y773937D01*
X292488Y773937D01*
X292398Y773923D01*
X292307Y773915D01*
X292277Y773903D01*
X292245Y773898D01*
X292164Y773855D01*
X292081Y773819D01*
X292048Y773793D01*
X292028Y773782D01*
X292006Y773759D01*
X291950Y773714D01*
X291665Y773429D01*
X287455Y773429D01*
G37*
%LPD*%
%LPC*%
G36*
X315395Y742949D02*
X315395Y742949D01*
X315110Y743234D01*
X315037Y743287D01*
X314967Y743347D01*
X314937Y743359D01*
X314911Y743378D01*
X314824Y743405D01*
X314739Y743439D01*
X314698Y743443D01*
X314676Y743450D01*
X314643Y743449D01*
X314572Y743457D01*
X139076Y743457D01*
X138537Y743996D01*
X138463Y744049D01*
X138393Y744109D01*
X138363Y744121D01*
X138337Y744140D01*
X138250Y744167D01*
X138165Y744201D01*
X138124Y744205D01*
X138102Y744212D01*
X138070Y744211D01*
X137999Y744219D01*
X137595Y744219D01*
X134619Y747195D01*
X134619Y751405D01*
X137595Y754381D01*
X141805Y754381D01*
X143360Y752826D01*
X143433Y752773D01*
X143503Y752713D01*
X143533Y752701D01*
X143559Y752682D01*
X143646Y752655D01*
X143731Y752621D01*
X143772Y752617D01*
X143794Y752610D01*
X143827Y752611D01*
X143898Y752603D01*
X314572Y752603D01*
X314662Y752617D01*
X314753Y752625D01*
X314783Y752637D01*
X314815Y752642D01*
X314896Y752685D01*
X314979Y752721D01*
X315012Y752747D01*
X315032Y752758D01*
X315054Y752781D01*
X315055Y752781D01*
X315057Y752782D01*
X315060Y752785D01*
X315110Y752826D01*
X315395Y753111D01*
X319605Y753111D01*
X322581Y750135D01*
X322581Y745925D01*
X319605Y742949D01*
X315395Y742949D01*
G37*
%LPD*%
%LPC*%
G36*
X535451Y278256D02*
X535451Y278256D01*
X528916Y280963D01*
X523914Y285965D01*
X521207Y292500D01*
X521207Y299574D01*
X523914Y306109D01*
X528916Y311111D01*
X535451Y313818D01*
X542525Y313818D01*
X549060Y311111D01*
X554062Y306109D01*
X556769Y299574D01*
X556769Y292500D01*
X554062Y285965D01*
X549060Y280963D01*
X542525Y278256D01*
X535451Y278256D01*
G37*
%LPD*%
%LPC*%
G36*
X-34525Y778382D02*
X-34525Y778382D01*
X-41060Y781089D01*
X-46062Y786091D01*
X-48769Y792626D01*
X-48769Y799700D01*
X-46062Y806235D01*
X-41060Y811237D01*
X-34525Y813944D01*
X-27451Y813944D01*
X-20916Y811237D01*
X-15914Y806235D01*
X-13207Y799700D01*
X-13207Y792626D01*
X-15914Y786091D01*
X-20916Y781089D01*
X-27451Y778382D01*
X-34525Y778382D01*
G37*
%LPD*%
%LPC*%
G36*
X535451Y778382D02*
X535451Y778382D01*
X528916Y781089D01*
X523914Y786091D01*
X521207Y792626D01*
X521207Y799700D01*
X523914Y806235D01*
X528916Y811237D01*
X535451Y813944D01*
X542525Y813944D01*
X549060Y811237D01*
X554062Y806235D01*
X556769Y799700D01*
X556769Y792626D01*
X554062Y786091D01*
X549060Y781089D01*
X542525Y778382D01*
X535451Y778382D01*
G37*
%LPD*%
%LPC*%
G36*
X-34525Y278256D02*
X-34525Y278256D01*
X-41060Y280963D01*
X-46062Y285965D01*
X-48769Y292500D01*
X-48769Y299574D01*
X-46062Y306109D01*
X-41060Y311111D01*
X-34525Y313818D01*
X-27451Y313818D01*
X-20916Y311111D01*
X-15914Y306109D01*
X-13207Y299574D01*
X-13207Y292500D01*
X-15914Y285965D01*
X-20916Y280963D01*
X-27451Y278256D01*
X-34525Y278256D01*
G37*
%LPD*%
%LPC*%
G36*
X213795Y883919D02*
X213795Y883919D01*
X210814Y886901D01*
X210796Y886982D01*
X210780Y887084D01*
X210770Y887101D01*
X210766Y887121D01*
X210713Y887210D01*
X210664Y887301D01*
X210650Y887315D01*
X210640Y887332D01*
X210561Y887399D01*
X210486Y887471D01*
X210468Y887479D01*
X210453Y887492D01*
X210357Y887531D01*
X210263Y887574D01*
X210243Y887576D01*
X210225Y887584D01*
X210058Y887602D01*
X159773Y887602D01*
X159683Y887588D01*
X159592Y887580D01*
X159562Y887568D01*
X159530Y887563D01*
X159449Y887520D01*
X159366Y887484D01*
X159333Y887458D01*
X159313Y887447D01*
X159291Y887424D01*
X159235Y887379D01*
X157045Y885189D01*
X152835Y885189D01*
X149859Y888165D01*
X149859Y892375D01*
X152805Y895320D01*
X152846Y895378D01*
X152896Y895430D01*
X152918Y895477D01*
X152948Y895519D01*
X152969Y895588D01*
X152999Y895653D01*
X153005Y895705D01*
X153020Y895755D01*
X153019Y895826D01*
X153026Y895897D01*
X153015Y895948D01*
X153014Y896000D01*
X152989Y896068D01*
X152974Y896138D01*
X152947Y896183D01*
X152930Y896231D01*
X152885Y896287D01*
X152848Y896349D01*
X152808Y896383D01*
X152776Y896423D01*
X152716Y896462D01*
X152661Y896509D01*
X152613Y896528D01*
X152569Y896556D01*
X152500Y896574D01*
X152433Y896601D01*
X152362Y896609D01*
X152330Y896617D01*
X152307Y896615D01*
X152266Y896619D01*
X150295Y896619D01*
X147319Y899595D01*
X147319Y903805D01*
X150295Y906781D01*
X154505Y906781D01*
X156695Y904591D01*
X156768Y904538D01*
X156838Y904478D01*
X156868Y904466D01*
X156894Y904447D01*
X156981Y904420D01*
X157066Y904386D01*
X157107Y904382D01*
X157129Y904375D01*
X157162Y904376D01*
X157233Y904368D01*
X198367Y904368D01*
X198457Y904382D01*
X198548Y904390D01*
X198578Y904402D01*
X198610Y904407D01*
X198691Y904450D01*
X198774Y904486D01*
X198807Y904512D01*
X198827Y904523D01*
X198849Y904546D01*
X198905Y904591D01*
X201095Y906781D01*
X205305Y906781D01*
X208281Y903805D01*
X208281Y899595D01*
X205305Y896619D01*
X201095Y896619D01*
X198905Y898809D01*
X198832Y898862D01*
X198762Y898922D01*
X198732Y898934D01*
X198706Y898953D01*
X198619Y898980D01*
X198534Y899014D01*
X198493Y899018D01*
X198471Y899025D01*
X198438Y899024D01*
X198367Y899032D01*
X157233Y899032D01*
X157143Y899018D01*
X157052Y899010D01*
X157022Y898998D01*
X156990Y898993D01*
X156910Y898950D01*
X156826Y898914D01*
X156793Y898888D01*
X156773Y898877D01*
X156751Y898854D01*
X156695Y898809D01*
X154535Y896650D01*
X154494Y896592D01*
X154444Y896540D01*
X154422Y896493D01*
X154392Y896451D01*
X154371Y896382D01*
X154341Y896317D01*
X154335Y896265D01*
X154320Y896215D01*
X154321Y896144D01*
X154314Y896073D01*
X154325Y896022D01*
X154326Y895970D01*
X154351Y895902D01*
X154366Y895832D01*
X154393Y895787D01*
X154410Y895739D01*
X154455Y895683D01*
X154492Y895621D01*
X154532Y895587D01*
X154564Y895547D01*
X154624Y895508D01*
X154679Y895461D01*
X154727Y895442D01*
X154771Y895414D01*
X154840Y895396D01*
X154907Y895369D01*
X154978Y895361D01*
X155010Y895353D01*
X155033Y895355D01*
X155074Y895351D01*
X157045Y895351D01*
X159235Y893161D01*
X159308Y893108D01*
X159378Y893048D01*
X159408Y893036D01*
X159434Y893017D01*
X159521Y892990D01*
X159606Y892956D01*
X159647Y892952D01*
X159669Y892945D01*
X159702Y892946D01*
X159773Y892938D01*
X212337Y892938D01*
X212427Y892952D01*
X212518Y892960D01*
X212548Y892972D01*
X212580Y892977D01*
X212661Y893020D01*
X212744Y893056D01*
X212777Y893082D01*
X212797Y893093D01*
X212819Y893116D01*
X212875Y893161D01*
X213795Y894081D01*
X218005Y894081D01*
X220981Y891105D01*
X220981Y886895D01*
X218005Y883919D01*
X213795Y883919D01*
G37*
%LPD*%
%LPC*%
G36*
X64877Y531621D02*
X64877Y531621D01*
X61948Y534550D01*
X61948Y542417D01*
X63659Y544129D01*
X65096Y545565D01*
X65107Y545582D01*
X65123Y545594D01*
X65179Y545681D01*
X65239Y545765D01*
X65245Y545784D01*
X65256Y545801D01*
X65281Y545901D01*
X65312Y546000D01*
X65311Y546020D01*
X65316Y546039D01*
X65308Y546142D01*
X65305Y546246D01*
X65299Y546265D01*
X65297Y546285D01*
X65257Y546380D01*
X65221Y546477D01*
X65208Y546493D01*
X65201Y546511D01*
X65096Y546642D01*
X63950Y547787D01*
X63934Y547799D01*
X63922Y547815D01*
X63835Y547871D01*
X63751Y547931D01*
X63732Y547937D01*
X63715Y547948D01*
X63615Y547973D01*
X63516Y548003D01*
X63496Y548003D01*
X63476Y548008D01*
X63373Y548000D01*
X63270Y547997D01*
X63251Y547990D01*
X63231Y547988D01*
X63136Y547948D01*
X63039Y547912D01*
X63023Y547900D01*
X63005Y547892D01*
X62874Y547787D01*
X61948Y546861D01*
X59843Y546861D01*
X58553Y548152D01*
X58536Y548163D01*
X58524Y548179D01*
X58437Y548235D01*
X58353Y548295D01*
X58334Y548301D01*
X58317Y548312D01*
X58217Y548337D01*
X58118Y548368D01*
X58098Y548367D01*
X58079Y548372D01*
X57976Y548364D01*
X57872Y548361D01*
X57853Y548354D01*
X57833Y548353D01*
X57738Y548312D01*
X57641Y548277D01*
X57625Y548264D01*
X57607Y548257D01*
X57476Y548152D01*
X56186Y546861D01*
X54081Y546861D01*
X52592Y548350D01*
X52592Y559098D01*
X54081Y560586D01*
X60507Y560586D01*
X61725Y559369D01*
X63594Y557499D01*
X63610Y557488D01*
X63623Y557472D01*
X63710Y557416D01*
X63794Y557356D01*
X63813Y557350D01*
X63830Y557339D01*
X63930Y557314D01*
X64029Y557283D01*
X64049Y557284D01*
X64068Y557279D01*
X64171Y557287D01*
X64275Y557290D01*
X64294Y557297D01*
X64313Y557298D01*
X64408Y557338D01*
X64506Y557374D01*
X64522Y557387D01*
X64540Y557394D01*
X64671Y557499D01*
X64877Y557705D01*
X69863Y557705D01*
X70789Y556779D01*
X70805Y556767D01*
X70817Y556752D01*
X70904Y556696D01*
X70988Y556635D01*
X71007Y556630D01*
X71024Y556619D01*
X71125Y556593D01*
X71223Y556563D01*
X71243Y556564D01*
X71263Y556559D01*
X71366Y556567D01*
X71469Y556569D01*
X71488Y556576D01*
X71508Y556578D01*
X71603Y556618D01*
X71700Y556654D01*
X71716Y556666D01*
X71734Y556674D01*
X71865Y556779D01*
X72791Y557705D01*
X74896Y557705D01*
X76186Y556415D01*
X76203Y556403D01*
X76215Y556387D01*
X76302Y556331D01*
X76386Y556271D01*
X76405Y556265D01*
X76422Y556254D01*
X76522Y556229D01*
X76621Y556199D01*
X76641Y556199D01*
X76660Y556194D01*
X76763Y556202D01*
X76867Y556205D01*
X76886Y556212D01*
X76906Y556213D01*
X77001Y556254D01*
X77098Y556289D01*
X77114Y556302D01*
X77132Y556310D01*
X77263Y556415D01*
X78553Y557705D01*
X80658Y557705D01*
X80864Y557499D01*
X80880Y557488D01*
X80893Y557472D01*
X80980Y557416D01*
X81064Y557356D01*
X81083Y557350D01*
X81100Y557339D01*
X81200Y557314D01*
X81299Y557283D01*
X81319Y557284D01*
X81338Y557279D01*
X81441Y557287D01*
X81545Y557290D01*
X81563Y557297D01*
X81583Y557298D01*
X81678Y557338D01*
X81776Y557374D01*
X81791Y557387D01*
X81810Y557394D01*
X81941Y557499D01*
X83587Y559146D01*
X85692Y559146D01*
X86909Y557928D01*
X87940Y556898D01*
X87956Y556886D01*
X87968Y556870D01*
X88055Y556814D01*
X88139Y556754D01*
X88159Y556748D01*
X88175Y556737D01*
X88276Y556712D01*
X88375Y556682D01*
X88394Y556682D01*
X88414Y556677D01*
X88517Y556685D01*
X88620Y556688D01*
X88639Y556695D01*
X88659Y556696D01*
X88754Y556737D01*
X88851Y556772D01*
X88867Y556785D01*
X88885Y556793D01*
X89016Y556898D01*
X89824Y557705D01*
X94810Y557705D01*
X97739Y554776D01*
X97739Y551231D01*
X96521Y550013D01*
X96468Y549939D01*
X96408Y549870D01*
X96396Y549840D01*
X96377Y549813D01*
X96351Y549726D01*
X96316Y549642D01*
X96312Y549601D01*
X96305Y549578D01*
X96306Y549546D01*
X96298Y549475D01*
X96298Y548350D01*
X94810Y546861D01*
X89824Y546861D01*
X89016Y547669D01*
X89000Y547680D01*
X88988Y547696D01*
X88901Y547752D01*
X88817Y547812D01*
X88798Y547818D01*
X88781Y547829D01*
X88680Y547854D01*
X88581Y547885D01*
X88562Y547884D01*
X88542Y547889D01*
X88439Y547881D01*
X88336Y547878D01*
X88317Y547871D01*
X88297Y547870D01*
X88202Y547829D01*
X88105Y547794D01*
X88089Y547781D01*
X88071Y547774D01*
X87940Y547669D01*
X87132Y546861D01*
X85027Y546861D01*
X83381Y548508D01*
X83365Y548519D01*
X83353Y548535D01*
X83265Y548591D01*
X83181Y548651D01*
X83162Y548657D01*
X83146Y548668D01*
X83045Y548693D01*
X82946Y548724D01*
X82926Y548723D01*
X82907Y548728D01*
X82804Y548720D01*
X82700Y548717D01*
X82682Y548710D01*
X82662Y548709D01*
X82567Y548668D01*
X82469Y548633D01*
X82454Y548620D01*
X82436Y548612D01*
X82305Y548508D01*
X80658Y546861D01*
X74232Y546861D01*
X72585Y548508D01*
X72569Y548519D01*
X72557Y548535D01*
X72469Y548591D01*
X72386Y548651D01*
X72367Y548657D01*
X72350Y548668D01*
X72249Y548693D01*
X72151Y548724D01*
X72131Y548723D01*
X72111Y548728D01*
X72008Y548720D01*
X71905Y548717D01*
X71886Y548710D01*
X71866Y548709D01*
X71771Y548668D01*
X71674Y548633D01*
X71658Y548620D01*
X71640Y548612D01*
X71509Y548508D01*
X71080Y548079D01*
X69643Y546642D01*
X69632Y546626D01*
X69616Y546613D01*
X69560Y546526D01*
X69500Y546442D01*
X69494Y546423D01*
X69483Y546406D01*
X69458Y546306D01*
X69427Y546207D01*
X69428Y546187D01*
X69423Y546168D01*
X69431Y546065D01*
X69434Y545961D01*
X69441Y545942D01*
X69442Y545923D01*
X69482Y545828D01*
X69518Y545730D01*
X69531Y545715D01*
X69538Y545696D01*
X69643Y545565D01*
X72521Y542688D01*
X72595Y542635D01*
X72664Y542575D01*
X72694Y542563D01*
X72720Y542544D01*
X72808Y542518D01*
X72892Y542483D01*
X72933Y542479D01*
X72955Y542472D01*
X72988Y542473D01*
X73059Y542465D01*
X74896Y542465D01*
X76186Y541175D01*
X76203Y541163D01*
X76215Y541147D01*
X76302Y541091D01*
X76386Y541031D01*
X76405Y541025D01*
X76422Y541014D01*
X76522Y540989D01*
X76621Y540959D01*
X76641Y540959D01*
X76660Y540954D01*
X76763Y540962D01*
X76867Y540965D01*
X76886Y540972D01*
X76906Y540973D01*
X77001Y541014D01*
X77098Y541049D01*
X77114Y541062D01*
X77132Y541070D01*
X77263Y541175D01*
X78553Y542465D01*
X80658Y542465D01*
X80864Y542259D01*
X80880Y542248D01*
X80893Y542232D01*
X80980Y542176D01*
X81064Y542116D01*
X81083Y542110D01*
X81100Y542099D01*
X81200Y542074D01*
X81299Y542043D01*
X81319Y542044D01*
X81338Y542039D01*
X81441Y542047D01*
X81545Y542050D01*
X81563Y542057D01*
X81583Y542058D01*
X81678Y542098D01*
X81776Y542134D01*
X81791Y542147D01*
X81810Y542154D01*
X81941Y542259D01*
X83587Y543906D01*
X85692Y543906D01*
X88621Y540977D01*
X88621Y538872D01*
X87403Y537654D01*
X87350Y537580D01*
X87290Y537511D01*
X87278Y537481D01*
X87260Y537454D01*
X87233Y537368D01*
X87199Y537283D01*
X87194Y537242D01*
X87187Y537219D01*
X87188Y537187D01*
X87180Y537116D01*
X87180Y536970D01*
X87195Y536880D01*
X87202Y536789D01*
X87215Y536760D01*
X87220Y536728D01*
X87263Y536647D01*
X87298Y536563D01*
X87324Y536531D01*
X87335Y536510D01*
X87358Y536488D01*
X87403Y536432D01*
X88621Y535214D01*
X88621Y533110D01*
X87132Y531621D01*
X85027Y531621D01*
X83381Y533268D01*
X83365Y533279D01*
X83353Y533295D01*
X83265Y533351D01*
X83181Y533411D01*
X83162Y533417D01*
X83146Y533428D01*
X83045Y533453D01*
X82946Y533484D01*
X82926Y533483D01*
X82907Y533488D01*
X82804Y533480D01*
X82700Y533477D01*
X82682Y533470D01*
X82662Y533469D01*
X82567Y533428D01*
X82469Y533393D01*
X82454Y533380D01*
X82436Y533372D01*
X82305Y533268D01*
X80658Y531621D01*
X74232Y531621D01*
X72585Y533268D01*
X72569Y533279D01*
X72557Y533295D01*
X72469Y533351D01*
X72386Y533411D01*
X72367Y533417D01*
X72350Y533428D01*
X72249Y533453D01*
X72151Y533484D01*
X72131Y533483D01*
X72111Y533488D01*
X72008Y533480D01*
X71905Y533477D01*
X71886Y533470D01*
X71866Y533469D01*
X71771Y533428D01*
X71674Y533393D01*
X71658Y533380D01*
X71640Y533372D01*
X71509Y533268D01*
X71080Y532839D01*
X69863Y531621D01*
X64877Y531621D01*
G37*
%LPD*%
%LPC*%
G36*
X420477Y531621D02*
X420477Y531621D01*
X417548Y534550D01*
X417548Y542417D01*
X419259Y544129D01*
X420696Y545565D01*
X420707Y545582D01*
X420723Y545594D01*
X420779Y545681D01*
X420839Y545765D01*
X420845Y545784D01*
X420856Y545801D01*
X420881Y545901D01*
X420912Y546000D01*
X420911Y546020D01*
X420916Y546039D01*
X420908Y546142D01*
X420905Y546246D01*
X420899Y546265D01*
X420897Y546285D01*
X420857Y546380D01*
X420821Y546477D01*
X420808Y546493D01*
X420801Y546511D01*
X420696Y546642D01*
X419550Y547787D01*
X419534Y547799D01*
X419522Y547815D01*
X419435Y547871D01*
X419351Y547931D01*
X419332Y547937D01*
X419315Y547948D01*
X419215Y547973D01*
X419116Y548003D01*
X419096Y548003D01*
X419076Y548008D01*
X418973Y548000D01*
X418870Y547997D01*
X418851Y547990D01*
X418831Y547988D01*
X418736Y547948D01*
X418639Y547912D01*
X418623Y547900D01*
X418605Y547892D01*
X418474Y547787D01*
X417548Y546861D01*
X415443Y546861D01*
X414153Y548152D01*
X414136Y548163D01*
X414124Y548179D01*
X414037Y548235D01*
X413953Y548295D01*
X413934Y548301D01*
X413917Y548312D01*
X413817Y548337D01*
X413718Y548368D01*
X413698Y548367D01*
X413679Y548372D01*
X413576Y548364D01*
X413472Y548361D01*
X413453Y548354D01*
X413433Y548353D01*
X413338Y548312D01*
X413241Y548277D01*
X413225Y548264D01*
X413207Y548257D01*
X413076Y548152D01*
X411786Y546861D01*
X409681Y546861D01*
X408192Y548350D01*
X408192Y559098D01*
X409681Y560586D01*
X416107Y560586D01*
X417325Y559369D01*
X419194Y557499D01*
X419210Y557488D01*
X419223Y557472D01*
X419310Y557416D01*
X419394Y557356D01*
X419413Y557350D01*
X419430Y557339D01*
X419530Y557314D01*
X419629Y557283D01*
X419649Y557284D01*
X419668Y557279D01*
X419771Y557287D01*
X419875Y557290D01*
X419894Y557297D01*
X419913Y557298D01*
X420008Y557338D01*
X420106Y557374D01*
X420122Y557387D01*
X420140Y557394D01*
X420271Y557499D01*
X420477Y557705D01*
X425463Y557705D01*
X426389Y556779D01*
X426405Y556767D01*
X426417Y556752D01*
X426504Y556696D01*
X426588Y556635D01*
X426607Y556630D01*
X426624Y556619D01*
X426725Y556593D01*
X426823Y556563D01*
X426843Y556564D01*
X426863Y556559D01*
X426966Y556567D01*
X427069Y556569D01*
X427088Y556576D01*
X427108Y556578D01*
X427203Y556618D01*
X427300Y556654D01*
X427316Y556666D01*
X427334Y556674D01*
X427465Y556779D01*
X428391Y557705D01*
X430496Y557705D01*
X431786Y556415D01*
X431803Y556403D01*
X431815Y556387D01*
X431902Y556331D01*
X431986Y556271D01*
X432005Y556265D01*
X432022Y556254D01*
X432122Y556229D01*
X432221Y556199D01*
X432241Y556199D01*
X432260Y556194D01*
X432363Y556202D01*
X432467Y556205D01*
X432486Y556212D01*
X432506Y556213D01*
X432601Y556254D01*
X432698Y556289D01*
X432714Y556302D01*
X432732Y556310D01*
X432863Y556415D01*
X434153Y557705D01*
X436258Y557705D01*
X436464Y557499D01*
X436480Y557488D01*
X436493Y557472D01*
X436580Y557416D01*
X436664Y557356D01*
X436683Y557350D01*
X436700Y557339D01*
X436800Y557314D01*
X436899Y557283D01*
X436919Y557284D01*
X436938Y557279D01*
X437041Y557287D01*
X437145Y557290D01*
X437163Y557297D01*
X437183Y557298D01*
X437278Y557338D01*
X437376Y557374D01*
X437391Y557387D01*
X437410Y557394D01*
X437541Y557499D01*
X439187Y559146D01*
X441292Y559146D01*
X443003Y557434D01*
X443540Y556898D01*
X443556Y556886D01*
X443568Y556870D01*
X443656Y556814D01*
X443739Y556754D01*
X443758Y556748D01*
X443775Y556737D01*
X443876Y556712D01*
X443975Y556682D01*
X443994Y556682D01*
X444014Y556677D01*
X444117Y556685D01*
X444220Y556688D01*
X444239Y556695D01*
X444259Y556696D01*
X444354Y556737D01*
X444451Y556772D01*
X444467Y556785D01*
X444485Y556793D01*
X444616Y556898D01*
X445424Y557705D01*
X450410Y557705D01*
X453339Y554776D01*
X453339Y551231D01*
X452121Y550013D01*
X452068Y549939D01*
X452008Y549870D01*
X451996Y549840D01*
X451977Y549813D01*
X451951Y549726D01*
X451916Y549642D01*
X451912Y549601D01*
X451905Y549578D01*
X451906Y549546D01*
X451898Y549475D01*
X451898Y548350D01*
X450410Y546861D01*
X445424Y546861D01*
X444616Y547669D01*
X444600Y547680D01*
X444588Y547696D01*
X444501Y547752D01*
X444417Y547812D01*
X444398Y547818D01*
X444381Y547829D01*
X444280Y547854D01*
X444181Y547885D01*
X444162Y547884D01*
X444142Y547889D01*
X444039Y547881D01*
X443936Y547878D01*
X443917Y547871D01*
X443897Y547870D01*
X443802Y547829D01*
X443705Y547794D01*
X443689Y547781D01*
X443671Y547774D01*
X443540Y547669D01*
X442732Y546861D01*
X440627Y546861D01*
X439410Y548079D01*
X438981Y548508D01*
X438965Y548519D01*
X438953Y548535D01*
X438865Y548591D01*
X438781Y548651D01*
X438762Y548657D01*
X438746Y548668D01*
X438645Y548693D01*
X438546Y548724D01*
X438526Y548723D01*
X438507Y548728D01*
X438404Y548720D01*
X438300Y548717D01*
X438282Y548710D01*
X438262Y548709D01*
X438167Y548668D01*
X438069Y548633D01*
X438054Y548620D01*
X438036Y548612D01*
X437905Y548508D01*
X436258Y546861D01*
X429832Y546861D01*
X428185Y548508D01*
X428169Y548519D01*
X428157Y548535D01*
X428069Y548591D01*
X427986Y548651D01*
X427967Y548657D01*
X427950Y548668D01*
X427849Y548693D01*
X427751Y548724D01*
X427731Y548723D01*
X427711Y548728D01*
X427608Y548720D01*
X427505Y548717D01*
X427486Y548710D01*
X427466Y548709D01*
X427371Y548668D01*
X427274Y548633D01*
X427258Y548620D01*
X427240Y548612D01*
X427109Y548508D01*
X426680Y548079D01*
X425243Y546642D01*
X425232Y546626D01*
X425216Y546613D01*
X425160Y546526D01*
X425100Y546442D01*
X425094Y546423D01*
X425083Y546406D01*
X425058Y546306D01*
X425027Y546207D01*
X425028Y546187D01*
X425023Y546168D01*
X425031Y546065D01*
X425034Y545961D01*
X425041Y545942D01*
X425042Y545923D01*
X425082Y545828D01*
X425118Y545730D01*
X425131Y545715D01*
X425138Y545696D01*
X425243Y545565D01*
X428121Y542688D01*
X428195Y542635D01*
X428264Y542575D01*
X428294Y542563D01*
X428320Y542544D01*
X428408Y542518D01*
X428492Y542483D01*
X428533Y542479D01*
X428555Y542472D01*
X428588Y542473D01*
X428659Y542465D01*
X430496Y542465D01*
X431786Y541175D01*
X431803Y541163D01*
X431815Y541147D01*
X431902Y541091D01*
X431986Y541031D01*
X432005Y541025D01*
X432022Y541014D01*
X432122Y540989D01*
X432221Y540959D01*
X432241Y540959D01*
X432260Y540954D01*
X432363Y540962D01*
X432467Y540965D01*
X432486Y540972D01*
X432506Y540973D01*
X432601Y541014D01*
X432698Y541049D01*
X432714Y541062D01*
X432732Y541070D01*
X432863Y541175D01*
X434153Y542465D01*
X436258Y542465D01*
X436464Y542259D01*
X436480Y542248D01*
X436493Y542232D01*
X436580Y542176D01*
X436664Y542116D01*
X436683Y542110D01*
X436700Y542099D01*
X436800Y542074D01*
X436899Y542043D01*
X436919Y542044D01*
X436938Y542039D01*
X437041Y542047D01*
X437145Y542050D01*
X437163Y542057D01*
X437183Y542058D01*
X437278Y542098D01*
X437376Y542134D01*
X437391Y542147D01*
X437410Y542154D01*
X437541Y542259D01*
X439187Y543906D01*
X441292Y543906D01*
X444221Y540977D01*
X444221Y538872D01*
X443003Y537654D01*
X442950Y537580D01*
X442890Y537511D01*
X442878Y537481D01*
X442860Y537454D01*
X442833Y537368D01*
X442799Y537283D01*
X442794Y537242D01*
X442787Y537219D01*
X442788Y537187D01*
X442780Y537116D01*
X442780Y536970D01*
X442795Y536880D01*
X442802Y536789D01*
X442815Y536760D01*
X442820Y536728D01*
X442863Y536647D01*
X442898Y536563D01*
X442924Y536531D01*
X442935Y536510D01*
X442958Y536488D01*
X443003Y536432D01*
X444221Y535214D01*
X444221Y533110D01*
X442732Y531621D01*
X440627Y531621D01*
X438981Y533268D01*
X438965Y533279D01*
X438953Y533295D01*
X438865Y533351D01*
X438781Y533411D01*
X438762Y533417D01*
X438746Y533428D01*
X438645Y533453D01*
X438546Y533484D01*
X438526Y533483D01*
X438507Y533488D01*
X438404Y533480D01*
X438300Y533477D01*
X438282Y533470D01*
X438262Y533469D01*
X438167Y533428D01*
X438069Y533393D01*
X438054Y533380D01*
X438036Y533372D01*
X437905Y533268D01*
X436258Y531621D01*
X429832Y531621D01*
X428185Y533268D01*
X428169Y533279D01*
X428157Y533295D01*
X428069Y533351D01*
X427986Y533411D01*
X427967Y533417D01*
X427950Y533428D01*
X427849Y533453D01*
X427751Y533484D01*
X427731Y533483D01*
X427711Y533488D01*
X427608Y533480D01*
X427505Y533477D01*
X427486Y533470D01*
X427466Y533469D01*
X427371Y533428D01*
X427274Y533393D01*
X427258Y533380D01*
X427240Y533372D01*
X427109Y533268D01*
X426680Y532839D01*
X425463Y531621D01*
X420477Y531621D01*
G37*
%LPD*%
G36*
X288354Y413905D02*
X288354Y413905D01*
X288426Y413907D01*
X288475Y413925D01*
X288526Y413933D01*
X288589Y413967D01*
X288657Y413992D01*
X288697Y414024D01*
X288743Y414049D01*
X288793Y414101D01*
X288849Y414145D01*
X288877Y414189D01*
X288913Y414227D01*
X288943Y414292D01*
X288982Y414352D01*
X288994Y414403D01*
X289016Y414450D01*
X289024Y414521D01*
X289042Y414591D01*
X289038Y414643D01*
X289043Y414694D01*
X289028Y414765D01*
X289023Y414836D01*
X289002Y414884D01*
X288991Y414935D01*
X288954Y414996D01*
X288926Y415062D01*
X288882Y415118D01*
X288865Y415146D01*
X288847Y415161D01*
X288822Y415193D01*
X287019Y416995D01*
X287019Y421237D01*
X287030Y421259D01*
X287060Y421301D01*
X287081Y421370D01*
X287111Y421435D01*
X287117Y421487D01*
X287132Y421536D01*
X287131Y421608D01*
X287138Y421679D01*
X287127Y421730D01*
X287126Y421782D01*
X287101Y421850D01*
X287086Y421920D01*
X287059Y421965D01*
X287042Y422013D01*
X286997Y422069D01*
X286960Y422131D01*
X286920Y422165D01*
X286888Y422205D01*
X286828Y422244D01*
X286773Y422291D01*
X286725Y422310D01*
X286681Y422338D01*
X286612Y422356D01*
X286545Y422383D01*
X286474Y422391D01*
X286443Y422399D01*
X286419Y422397D01*
X286378Y422401D01*
X207906Y422401D01*
X207835Y422390D01*
X207763Y422388D01*
X207714Y422370D01*
X207663Y422362D01*
X207600Y422328D01*
X207532Y422303D01*
X207492Y422271D01*
X207446Y422246D01*
X207396Y422194D01*
X207340Y422150D01*
X207312Y422106D01*
X207276Y422068D01*
X207246Y422003D01*
X207207Y421943D01*
X207195Y421892D01*
X207173Y421845D01*
X207165Y421774D01*
X207147Y421704D01*
X207151Y421652D01*
X207146Y421601D01*
X207161Y421530D01*
X207166Y421459D01*
X207187Y421411D01*
X207198Y421360D01*
X207235Y421299D01*
X207263Y421233D01*
X207307Y421177D01*
X207324Y421149D01*
X207342Y421134D01*
X207367Y421102D01*
X208281Y420189D01*
X208281Y415947D01*
X208270Y415925D01*
X208240Y415883D01*
X208219Y415814D01*
X208189Y415749D01*
X208183Y415697D01*
X208168Y415648D01*
X208169Y415576D01*
X208162Y415505D01*
X208173Y415454D01*
X208174Y415402D01*
X208199Y415334D01*
X208214Y415264D01*
X208241Y415219D01*
X208258Y415171D01*
X208303Y415115D01*
X208340Y415053D01*
X208380Y415019D01*
X208412Y414979D01*
X208472Y414940D01*
X208527Y414893D01*
X208575Y414874D01*
X208619Y414846D01*
X208688Y414828D01*
X208755Y414801D01*
X208826Y414793D01*
X208857Y414785D01*
X208881Y414787D01*
X208922Y414783D01*
X238798Y414783D01*
X239464Y414117D01*
X239538Y414064D01*
X239607Y414004D01*
X239638Y413992D01*
X239664Y413973D01*
X239751Y413946D01*
X239836Y413912D01*
X239877Y413908D01*
X239899Y413901D01*
X239931Y413902D01*
X240002Y413894D01*
X288283Y413894D01*
X288354Y413905D01*
G37*
G36*
X393129Y1020330D02*
X393129Y1020330D01*
X393201Y1020332D01*
X393250Y1020350D01*
X393301Y1020358D01*
X393364Y1020392D01*
X393432Y1020417D01*
X393472Y1020449D01*
X393518Y1020474D01*
X393568Y1020525D01*
X393624Y1020570D01*
X393652Y1020614D01*
X393688Y1020652D01*
X393718Y1020717D01*
X393757Y1020777D01*
X393769Y1020828D01*
X393791Y1020875D01*
X393799Y1020946D01*
X393817Y1021016D01*
X393813Y1021068D01*
X393818Y1021119D01*
X393803Y1021190D01*
X393798Y1021261D01*
X393777Y1021309D01*
X393766Y1021360D01*
X393729Y1021421D01*
X393701Y1021487D01*
X393657Y1021543D01*
X393640Y1021571D01*
X393622Y1021586D01*
X393596Y1021618D01*
X393215Y1021999D01*
X393141Y1022053D01*
X393072Y1022112D01*
X393042Y1022124D01*
X393016Y1022143D01*
X392929Y1022170D01*
X392844Y1022204D01*
X392803Y1022208D01*
X392781Y1022215D01*
X392748Y1022214D01*
X392677Y1022222D01*
X157741Y1022222D01*
X157670Y1022211D01*
X157598Y1022209D01*
X157549Y1022191D01*
X157498Y1022183D01*
X157435Y1022149D01*
X157367Y1022124D01*
X157327Y1022092D01*
X157281Y1022067D01*
X157231Y1022016D01*
X157175Y1021971D01*
X157147Y1021927D01*
X157111Y1021889D01*
X157081Y1021824D01*
X157042Y1021764D01*
X157030Y1021713D01*
X157008Y1021666D01*
X157000Y1021595D01*
X156982Y1021525D01*
X156986Y1021473D01*
X156981Y1021422D01*
X156996Y1021351D01*
X157001Y1021280D01*
X157022Y1021232D01*
X157033Y1021181D01*
X157070Y1021120D01*
X157098Y1021054D01*
X157142Y1020998D01*
X157159Y1020970D01*
X157177Y1020955D01*
X157203Y1020923D01*
X157584Y1020542D01*
X157658Y1020488D01*
X157727Y1020429D01*
X157757Y1020417D01*
X157783Y1020398D01*
X157870Y1020371D01*
X157955Y1020337D01*
X157996Y1020333D01*
X158018Y1020326D01*
X158051Y1020327D01*
X158122Y1020319D01*
X393058Y1020319D01*
X393129Y1020330D01*
G37*
G36*
X348578Y413905D02*
X348578Y413905D01*
X348650Y413907D01*
X348699Y413925D01*
X348750Y413933D01*
X348814Y413967D01*
X348881Y413992D01*
X348922Y414024D01*
X348968Y414049D01*
X349017Y414101D01*
X349073Y414145D01*
X349101Y414189D01*
X349137Y414227D01*
X349167Y414292D01*
X349206Y414352D01*
X349219Y414403D01*
X349241Y414450D01*
X349249Y414521D01*
X349266Y414591D01*
X349262Y414643D01*
X349268Y414694D01*
X349253Y414765D01*
X349247Y414836D01*
X349227Y414884D01*
X349216Y414935D01*
X349179Y414996D01*
X349151Y415062D01*
X349106Y415118D01*
X349090Y415146D01*
X349072Y415161D01*
X349046Y415193D01*
X347926Y416313D01*
X335564Y428675D01*
X335506Y428717D01*
X335454Y428766D01*
X335407Y428788D01*
X335365Y428819D01*
X335296Y428840D01*
X335231Y428870D01*
X335179Y428876D01*
X335129Y428891D01*
X335058Y428889D01*
X334987Y428897D01*
X334936Y428886D01*
X334884Y428885D01*
X334816Y428860D01*
X334746Y428845D01*
X334701Y428818D01*
X334653Y428800D01*
X334597Y428755D01*
X334535Y428719D01*
X334501Y428679D01*
X334461Y428646D01*
X334422Y428586D01*
X334375Y428532D01*
X334356Y428483D01*
X334328Y428439D01*
X334310Y428370D01*
X334283Y428303D01*
X334275Y428232D01*
X334267Y428201D01*
X334269Y428178D01*
X334265Y428137D01*
X334265Y424869D01*
X331289Y421893D01*
X327080Y421893D01*
X326795Y422178D01*
X326720Y422232D01*
X326651Y422291D01*
X326621Y422303D01*
X326595Y422322D01*
X326508Y422349D01*
X326423Y422383D01*
X326382Y422387D01*
X326360Y422394D01*
X326327Y422393D01*
X326256Y422401D01*
X297822Y422401D01*
X297751Y422390D01*
X297679Y422388D01*
X297630Y422370D01*
X297579Y422362D01*
X297516Y422328D01*
X297448Y422303D01*
X297408Y422271D01*
X297362Y422246D01*
X297312Y422195D01*
X297256Y422150D01*
X297228Y422106D01*
X297192Y422068D01*
X297162Y422003D01*
X297123Y421943D01*
X297111Y421892D01*
X297089Y421845D01*
X297081Y421774D01*
X297063Y421704D01*
X297067Y421652D01*
X297062Y421601D01*
X297077Y421530D01*
X297082Y421459D01*
X297103Y421411D01*
X297114Y421360D01*
X297151Y421299D01*
X297179Y421233D01*
X297181Y421230D01*
X297181Y416995D01*
X295378Y415193D01*
X295337Y415135D01*
X295287Y415083D01*
X295265Y415036D01*
X295235Y414994D01*
X295214Y414925D01*
X295184Y414860D01*
X295178Y414808D01*
X295163Y414758D01*
X295164Y414687D01*
X295157Y414616D01*
X295168Y414565D01*
X295169Y414513D01*
X295194Y414445D01*
X295209Y414375D01*
X295236Y414330D01*
X295253Y414282D01*
X295298Y414226D01*
X295335Y414164D01*
X295375Y414130D01*
X295407Y414090D01*
X295467Y414051D01*
X295522Y414004D01*
X295570Y413985D01*
X295614Y413957D01*
X295683Y413939D01*
X295750Y413912D01*
X295821Y413904D01*
X295853Y413896D01*
X295876Y413898D01*
X295917Y413894D01*
X348508Y413894D01*
X348578Y413905D01*
G37*
%LPC*%
G36*
X99730Y231901D02*
X99730Y231901D01*
X96276Y233332D01*
X93632Y235976D01*
X92201Y239430D01*
X92201Y243170D01*
X93632Y246624D01*
X96276Y249268D01*
X99730Y250699D01*
X103470Y250699D01*
X106924Y249268D01*
X109568Y246624D01*
X110999Y243170D01*
X110999Y239430D01*
X109568Y235976D01*
X106924Y233332D01*
X103470Y231901D01*
X99730Y231901D01*
G37*
%LPD*%
%LPC*%
G36*
X442630Y295401D02*
X442630Y295401D01*
X439176Y296832D01*
X436532Y299476D01*
X435101Y302930D01*
X435101Y306670D01*
X436532Y310124D01*
X439176Y312768D01*
X442630Y314199D01*
X446370Y314199D01*
X449824Y312768D01*
X452468Y310124D01*
X453899Y306670D01*
X453899Y302930D01*
X452468Y299476D01*
X449824Y296832D01*
X446370Y295401D01*
X442630Y295401D01*
G37*
%LPD*%
%LPC*%
G36*
X99730Y257301D02*
X99730Y257301D01*
X96276Y258732D01*
X93632Y261376D01*
X92201Y264830D01*
X92201Y268570D01*
X93632Y272024D01*
X96276Y274668D01*
X99730Y276099D01*
X103470Y276099D01*
X106924Y274668D01*
X109568Y272024D01*
X110999Y268570D01*
X110999Y264830D01*
X109568Y261376D01*
X106924Y258732D01*
X103470Y257301D01*
X99730Y257301D01*
G37*
%LPD*%
%LPC*%
G36*
X376590Y841501D02*
X376590Y841501D01*
X373136Y842932D01*
X370492Y845576D01*
X369061Y849030D01*
X369061Y852770D01*
X370492Y856224D01*
X373136Y858868D01*
X376590Y860299D01*
X380330Y860299D01*
X383784Y858868D01*
X386428Y856224D01*
X387859Y852770D01*
X387859Y849030D01*
X386428Y845576D01*
X383784Y842932D01*
X380330Y841501D01*
X376590Y841501D01*
G37*
%LPD*%
%LPC*%
G36*
X442630Y270001D02*
X442630Y270001D01*
X439176Y271432D01*
X436532Y274076D01*
X435101Y277530D01*
X435101Y281270D01*
X436532Y284724D01*
X439176Y287368D01*
X442630Y288799D01*
X446370Y288799D01*
X449824Y287368D01*
X452468Y284724D01*
X453899Y281270D01*
X453899Y277530D01*
X452468Y274076D01*
X449824Y271432D01*
X446370Y270001D01*
X442630Y270001D01*
G37*
%LPD*%
%LPC*%
G36*
X-65370Y320801D02*
X-65370Y320801D01*
X-68824Y322232D01*
X-71468Y324876D01*
X-72899Y328330D01*
X-72899Y332070D01*
X-71468Y335524D01*
X-68824Y338168D01*
X-65370Y339599D01*
X-61630Y339599D01*
X-58176Y338168D01*
X-55532Y335524D01*
X-54101Y332070D01*
X-54101Y328330D01*
X-55532Y324876D01*
X-58176Y322232D01*
X-61630Y320801D01*
X-65370Y320801D01*
G37*
%LPD*%
%LPC*%
G36*
X99730Y282701D02*
X99730Y282701D01*
X96276Y284132D01*
X93632Y286776D01*
X92201Y290230D01*
X92201Y293970D01*
X93632Y297424D01*
X96276Y300068D01*
X99730Y301499D01*
X103470Y301499D01*
X106924Y300068D01*
X109568Y297424D01*
X110999Y293970D01*
X110999Y290230D01*
X109568Y286776D01*
X106924Y284132D01*
X103470Y282701D01*
X99730Y282701D01*
G37*
%LPD*%
%LPC*%
G36*
X-65370Y346201D02*
X-65370Y346201D01*
X-68824Y347632D01*
X-71468Y350276D01*
X-72899Y353730D01*
X-72899Y357470D01*
X-71468Y360924D01*
X-68824Y363568D01*
X-65370Y364999D01*
X-61630Y364999D01*
X-58176Y363568D01*
X-55532Y360924D01*
X-54101Y357470D01*
X-54101Y353730D01*
X-55532Y350276D01*
X-58176Y347632D01*
X-61630Y346201D01*
X-65370Y346201D01*
G37*
%LPD*%
%LPC*%
G36*
X442630Y320801D02*
X442630Y320801D01*
X439176Y322232D01*
X436532Y324876D01*
X435101Y328330D01*
X435101Y332070D01*
X436532Y335524D01*
X439176Y338168D01*
X442630Y339599D01*
X446370Y339599D01*
X449824Y338168D01*
X452468Y335524D01*
X453899Y332070D01*
X453899Y328330D01*
X452468Y324876D01*
X449824Y322232D01*
X446370Y320801D01*
X442630Y320801D01*
G37*
%LPD*%
%LPC*%
G36*
X493430Y65851D02*
X493430Y65851D01*
X489976Y67282D01*
X487332Y69926D01*
X485901Y73380D01*
X485901Y77120D01*
X487332Y80574D01*
X489976Y83218D01*
X493430Y84649D01*
X497170Y84649D01*
X500624Y83218D01*
X503268Y80574D01*
X504699Y77120D01*
X504699Y73380D01*
X503268Y69926D01*
X500624Y67282D01*
X497170Y65851D01*
X493430Y65851D01*
G37*
%LPD*%
%LPC*%
G36*
X99730Y206501D02*
X99730Y206501D01*
X96276Y207932D01*
X93632Y210576D01*
X92201Y214030D01*
X92201Y217770D01*
X93632Y221224D01*
X96276Y223868D01*
X99730Y225299D01*
X103470Y225299D01*
X106924Y223868D01*
X109568Y221224D01*
X110999Y217770D01*
X110999Y214030D01*
X109568Y210576D01*
X106924Y207932D01*
X103470Y206501D01*
X99730Y206501D01*
G37*
%LPD*%
%LPC*%
G36*
X-14570Y65851D02*
X-14570Y65851D01*
X-18024Y67282D01*
X-20668Y69926D01*
X-22099Y73380D01*
X-22099Y77120D01*
X-20668Y80574D01*
X-18024Y83218D01*
X-14570Y84649D01*
X-10830Y84649D01*
X-7376Y83218D01*
X-4732Y80574D01*
X-3301Y77120D01*
X-3301Y73380D01*
X-4732Y69926D01*
X-7376Y67282D01*
X-10830Y65851D01*
X-14570Y65851D01*
G37*
%LPD*%
%LPC*%
G36*
X468030Y65851D02*
X468030Y65851D01*
X464576Y67282D01*
X461932Y69926D01*
X460501Y73380D01*
X460501Y77120D01*
X461932Y80574D01*
X464576Y83218D01*
X468030Y84649D01*
X471770Y84649D01*
X475224Y83218D01*
X477868Y80574D01*
X479299Y77120D01*
X479299Y73380D01*
X477868Y69926D01*
X475224Y67282D01*
X471770Y65851D01*
X468030Y65851D01*
G37*
%LPD*%
%LPC*%
G36*
X442630Y65851D02*
X442630Y65851D01*
X439176Y67282D01*
X436532Y69926D01*
X435101Y73380D01*
X435101Y77120D01*
X436532Y80574D01*
X439176Y83218D01*
X442630Y84649D01*
X446370Y84649D01*
X449824Y83218D01*
X452468Y80574D01*
X453899Y77120D01*
X453899Y73380D01*
X452468Y69926D01*
X449824Y67282D01*
X446370Y65851D01*
X442630Y65851D01*
G37*
%LPD*%
%LPC*%
G36*
X36230Y65851D02*
X36230Y65851D01*
X32776Y67282D01*
X30132Y69926D01*
X28701Y73380D01*
X28701Y77120D01*
X30132Y80574D01*
X32776Y83218D01*
X36230Y84649D01*
X39970Y84649D01*
X43424Y83218D01*
X46068Y80574D01*
X47499Y77120D01*
X47499Y73380D01*
X46068Y69926D01*
X43424Y67282D01*
X39970Y65851D01*
X36230Y65851D01*
G37*
%LPD*%
%LPC*%
G36*
X10830Y65851D02*
X10830Y65851D01*
X7376Y67282D01*
X4732Y69926D01*
X3301Y73380D01*
X3301Y77120D01*
X4732Y80574D01*
X7376Y83218D01*
X10830Y84649D01*
X14570Y84649D01*
X18024Y83218D01*
X20668Y80574D01*
X22099Y77120D01*
X22099Y73380D01*
X20668Y69926D01*
X18024Y67282D01*
X14570Y65851D01*
X10830Y65851D01*
G37*
%LPD*%
G36*
X187770Y396379D02*
X187770Y396379D01*
X187842Y396381D01*
X187891Y396399D01*
X187942Y396407D01*
X188005Y396441D01*
X188073Y396466D01*
X188113Y396498D01*
X188159Y396523D01*
X188209Y396575D01*
X188265Y396619D01*
X188293Y396663D01*
X188329Y396701D01*
X188359Y396766D01*
X188398Y396826D01*
X188410Y396877D01*
X188432Y396924D01*
X188440Y396995D01*
X188458Y397065D01*
X188454Y397117D01*
X188459Y397168D01*
X188444Y397239D01*
X188439Y397310D01*
X188418Y397358D01*
X188407Y397409D01*
X188370Y397470D01*
X188342Y397536D01*
X188298Y397592D01*
X188281Y397620D01*
X188263Y397635D01*
X188238Y397667D01*
X185419Y400485D01*
X185419Y404695D01*
X188395Y407671D01*
X190223Y407671D01*
X190313Y407685D01*
X190404Y407693D01*
X190433Y407705D01*
X190465Y407710D01*
X190546Y407753D01*
X190630Y407789D01*
X190662Y407815D01*
X190683Y407826D01*
X190705Y407849D01*
X190761Y407894D01*
X191015Y408148D01*
X191057Y408206D01*
X191106Y408258D01*
X191128Y408305D01*
X191159Y408347D01*
X191180Y408416D01*
X191210Y408481D01*
X191216Y408533D01*
X191231Y408583D01*
X191229Y408654D01*
X191237Y408725D01*
X191226Y408776D01*
X191225Y408828D01*
X191200Y408896D01*
X191185Y408966D01*
X191158Y409011D01*
X191140Y409059D01*
X191095Y409115D01*
X191059Y409177D01*
X191019Y409211D01*
X190986Y409251D01*
X190926Y409290D01*
X190872Y409337D01*
X190823Y409356D01*
X190780Y409384D01*
X190710Y409402D01*
X190643Y409429D01*
X190572Y409437D01*
X190541Y409445D01*
X190518Y409443D01*
X190477Y409447D01*
X169799Y409447D01*
X169779Y409444D01*
X169760Y409446D01*
X169658Y409424D01*
X169556Y409408D01*
X169539Y409398D01*
X169519Y409394D01*
X169430Y409341D01*
X169339Y409292D01*
X169325Y409278D01*
X169308Y409268D01*
X169241Y409189D01*
X169169Y409114D01*
X169161Y409096D01*
X169148Y409081D01*
X169109Y408985D01*
X169066Y408891D01*
X169064Y408871D01*
X169056Y408853D01*
X169038Y408686D01*
X169038Y406153D01*
X169052Y406063D01*
X169060Y405972D01*
X169072Y405942D01*
X169077Y405910D01*
X169120Y405829D01*
X169156Y405746D01*
X169182Y405713D01*
X169193Y405693D01*
X169216Y405671D01*
X169261Y405615D01*
X171451Y403425D01*
X171451Y399215D01*
X169902Y397667D01*
X169861Y397609D01*
X169811Y397557D01*
X169789Y397510D01*
X169759Y397468D01*
X169738Y397399D01*
X169708Y397334D01*
X169702Y397282D01*
X169687Y397232D01*
X169688Y397161D01*
X169681Y397090D01*
X169692Y397039D01*
X169693Y396987D01*
X169718Y396919D01*
X169733Y396849D01*
X169760Y396804D01*
X169777Y396756D01*
X169822Y396700D01*
X169859Y396638D01*
X169899Y396604D01*
X169931Y396564D01*
X169991Y396525D01*
X170046Y396478D01*
X170094Y396459D01*
X170138Y396431D01*
X170207Y396413D01*
X170274Y396386D01*
X170345Y396378D01*
X170377Y396370D01*
X170400Y396372D01*
X170441Y396368D01*
X187699Y396368D01*
X187770Y396379D01*
G37*
G36*
X239459Y396379D02*
X239459Y396379D01*
X239531Y396381D01*
X239580Y396399D01*
X239631Y396407D01*
X239694Y396441D01*
X239762Y396466D01*
X239802Y396498D01*
X239848Y396523D01*
X239898Y396575D01*
X239954Y396619D01*
X239982Y396663D01*
X240018Y396701D01*
X240048Y396766D01*
X240087Y396826D01*
X240099Y396877D01*
X240121Y396924D01*
X240129Y396995D01*
X240147Y397065D01*
X240143Y397117D01*
X240148Y397168D01*
X240133Y397239D01*
X240128Y397310D01*
X240107Y397358D01*
X240096Y397409D01*
X240059Y397470D01*
X240031Y397536D01*
X239987Y397592D01*
X239970Y397620D01*
X239952Y397635D01*
X239927Y397667D01*
X238378Y399215D01*
X238378Y402313D01*
X238364Y402403D01*
X238356Y402494D01*
X238344Y402523D01*
X238339Y402555D01*
X238296Y402636D01*
X238260Y402720D01*
X238234Y402752D01*
X238223Y402773D01*
X238200Y402795D01*
X238155Y402851D01*
X235338Y405668D01*
X235264Y405721D01*
X235195Y405781D01*
X235164Y405793D01*
X235138Y405812D01*
X235051Y405839D01*
X234966Y405873D01*
X234925Y405877D01*
X234903Y405884D01*
X234871Y405883D01*
X234800Y405891D01*
X221622Y405891D01*
X221551Y405880D01*
X221479Y405878D01*
X221430Y405860D01*
X221379Y405852D01*
X221316Y405818D01*
X221248Y405793D01*
X221208Y405761D01*
X221162Y405736D01*
X221112Y405685D01*
X221056Y405640D01*
X221028Y405596D01*
X220992Y405558D01*
X220962Y405493D01*
X220923Y405433D01*
X220911Y405382D01*
X220889Y405335D01*
X220881Y405264D01*
X220863Y405194D01*
X220867Y405142D01*
X220862Y405091D01*
X220877Y405020D01*
X220882Y404949D01*
X220903Y404901D01*
X220914Y404850D01*
X220951Y404789D01*
X220979Y404723D01*
X220981Y404720D01*
X220981Y400485D01*
X218162Y397667D01*
X218121Y397609D01*
X218071Y397557D01*
X218049Y397510D01*
X218019Y397468D01*
X217998Y397399D01*
X217968Y397334D01*
X217962Y397282D01*
X217947Y397232D01*
X217948Y397161D01*
X217941Y397090D01*
X217952Y397039D01*
X217953Y396987D01*
X217978Y396919D01*
X217993Y396849D01*
X218020Y396804D01*
X218037Y396756D01*
X218082Y396700D01*
X218119Y396638D01*
X218159Y396604D01*
X218191Y396564D01*
X218251Y396525D01*
X218306Y396478D01*
X218354Y396459D01*
X218398Y396431D01*
X218467Y396413D01*
X218534Y396386D01*
X218605Y396378D01*
X218637Y396370D01*
X218660Y396372D01*
X218701Y396368D01*
X239388Y396368D01*
X239459Y396379D01*
G37*
%LPC*%
G36*
X371275Y118109D02*
X371275Y118109D01*
X368299Y121085D01*
X368299Y125295D01*
X371275Y128271D01*
X375485Y128271D01*
X377922Y125834D01*
X377938Y125822D01*
X377950Y125806D01*
X378038Y125750D01*
X378121Y125690D01*
X378140Y125684D01*
X378157Y125673D01*
X378258Y125648D01*
X378357Y125618D01*
X378376Y125618D01*
X378396Y125613D01*
X378499Y125621D01*
X378602Y125624D01*
X378621Y125631D01*
X378641Y125632D01*
X378736Y125673D01*
X378833Y125708D01*
X378849Y125721D01*
X378867Y125729D01*
X378998Y125834D01*
X381435Y128271D01*
X385645Y128271D01*
X388621Y125295D01*
X388621Y121085D01*
X385645Y118109D01*
X381435Y118109D01*
X378998Y120546D01*
X378982Y120558D01*
X378970Y120574D01*
X378882Y120630D01*
X378799Y120690D01*
X378780Y120696D01*
X378763Y120707D01*
X378662Y120732D01*
X378563Y120762D01*
X378544Y120762D01*
X378524Y120767D01*
X378421Y120759D01*
X378318Y120756D01*
X378299Y120749D01*
X378279Y120748D01*
X378184Y120707D01*
X378087Y120672D01*
X378071Y120659D01*
X378053Y120651D01*
X377922Y120546D01*
X375485Y118109D01*
X371275Y118109D01*
G37*
%LPD*%
G36*
X213170Y396379D02*
X213170Y396379D01*
X213242Y396381D01*
X213291Y396399D01*
X213342Y396407D01*
X213405Y396441D01*
X213473Y396466D01*
X213513Y396498D01*
X213559Y396523D01*
X213609Y396575D01*
X213665Y396619D01*
X213693Y396663D01*
X213729Y396701D01*
X213759Y396766D01*
X213798Y396826D01*
X213810Y396877D01*
X213832Y396924D01*
X213840Y396995D01*
X213858Y397065D01*
X213854Y397117D01*
X213859Y397168D01*
X213844Y397239D01*
X213839Y397310D01*
X213818Y397358D01*
X213807Y397409D01*
X213770Y397470D01*
X213742Y397536D01*
X213698Y397592D01*
X213681Y397620D01*
X213663Y397635D01*
X213638Y397667D01*
X210819Y400485D01*
X210819Y404241D01*
X210816Y404261D01*
X210818Y404280D01*
X210796Y404382D01*
X210780Y404484D01*
X210770Y404501D01*
X210766Y404521D01*
X210713Y404610D01*
X210664Y404701D01*
X210650Y404715D01*
X210640Y404732D01*
X210561Y404799D01*
X210486Y404871D01*
X210468Y404879D01*
X210453Y404892D01*
X210357Y404931D01*
X210263Y404974D01*
X210243Y404976D01*
X210225Y404984D01*
X210058Y405002D01*
X196342Y405002D01*
X196322Y404999D01*
X196303Y405001D01*
X196201Y404979D01*
X196099Y404963D01*
X196082Y404953D01*
X196062Y404949D01*
X195973Y404896D01*
X195882Y404847D01*
X195868Y404833D01*
X195851Y404823D01*
X195784Y404744D01*
X195712Y404669D01*
X195704Y404651D01*
X195691Y404636D01*
X195652Y404540D01*
X195609Y404446D01*
X195607Y404426D01*
X195599Y404408D01*
X195581Y404241D01*
X195581Y400485D01*
X192762Y397667D01*
X192721Y397609D01*
X192671Y397557D01*
X192649Y397510D01*
X192619Y397468D01*
X192598Y397399D01*
X192568Y397334D01*
X192562Y397282D01*
X192547Y397232D01*
X192548Y397161D01*
X192541Y397090D01*
X192552Y397039D01*
X192553Y396987D01*
X192578Y396919D01*
X192593Y396849D01*
X192620Y396804D01*
X192637Y396756D01*
X192682Y396700D01*
X192719Y396638D01*
X192759Y396604D01*
X192791Y396564D01*
X192851Y396525D01*
X192906Y396478D01*
X192954Y396459D01*
X192998Y396431D01*
X193067Y396413D01*
X193134Y396386D01*
X193205Y396378D01*
X193237Y396370D01*
X193260Y396372D01*
X193301Y396368D01*
X213099Y396368D01*
X213170Y396379D01*
G37*
%LPC*%
G36*
X36901Y309171D02*
X36901Y309171D01*
X34685Y310089D01*
X32989Y311785D01*
X32071Y314001D01*
X32071Y316399D01*
X32989Y318615D01*
X34685Y320311D01*
X36901Y321229D01*
X39299Y321229D01*
X41515Y320311D01*
X43211Y318615D01*
X44129Y316399D01*
X44129Y314001D01*
X43211Y311785D01*
X41515Y310089D01*
X39299Y309171D01*
X36901Y309171D01*
G37*
%LPD*%
%LPC*%
G36*
X36901Y212171D02*
X36901Y212171D01*
X34685Y213089D01*
X32989Y214785D01*
X32071Y217001D01*
X32071Y219399D01*
X32989Y221615D01*
X34685Y223311D01*
X36901Y224229D01*
X39299Y224229D01*
X41515Y223311D01*
X43211Y221615D01*
X44129Y219399D01*
X44129Y217001D01*
X43211Y214785D01*
X41515Y213089D01*
X39299Y212171D01*
X36901Y212171D01*
G37*
%LPD*%
%LPC*%
G36*
X36901Y182171D02*
X36901Y182171D01*
X34685Y183089D01*
X32989Y184785D01*
X32071Y187001D01*
X32071Y189399D01*
X32989Y191615D01*
X34685Y193311D01*
X36901Y194229D01*
X39299Y194229D01*
X41515Y193311D01*
X43211Y191615D01*
X44129Y189399D01*
X44129Y187001D01*
X43211Y184785D01*
X41515Y183089D01*
X39299Y182171D01*
X36901Y182171D01*
G37*
%LPD*%
%LPC*%
G36*
X36901Y339171D02*
X36901Y339171D01*
X34685Y340089D01*
X32989Y341785D01*
X32071Y344001D01*
X32071Y346399D01*
X32989Y348615D01*
X34685Y350311D01*
X36901Y351229D01*
X39299Y351229D01*
X41515Y350311D01*
X43211Y348615D01*
X44129Y346399D01*
X44129Y344001D01*
X43211Y341785D01*
X41515Y340089D01*
X39299Y339171D01*
X36901Y339171D01*
G37*
%LPD*%
%LPC*%
G36*
X324285Y566419D02*
X324285Y566419D01*
X321309Y569395D01*
X321309Y573605D01*
X324285Y576581D01*
X328495Y576581D01*
X331471Y573605D01*
X331471Y569395D01*
X328495Y566419D01*
X324285Y566419D01*
G37*
%LPD*%
%LPC*%
G36*
X353495Y960119D02*
X353495Y960119D01*
X350519Y963095D01*
X350519Y967305D01*
X353495Y970281D01*
X357705Y970281D01*
X360681Y967305D01*
X360681Y963095D01*
X357705Y960119D01*
X353495Y960119D01*
G37*
%LPD*%
%LPC*%
G36*
X152835Y960119D02*
X152835Y960119D01*
X149859Y963095D01*
X149859Y967305D01*
X152835Y970281D01*
X157045Y970281D01*
X160021Y967305D01*
X160021Y963095D01*
X157045Y960119D01*
X152835Y960119D01*
G37*
%LPD*%
%LPC*%
G36*
X118545Y274319D02*
X118545Y274319D01*
X115569Y277295D01*
X115569Y281505D01*
X118545Y284481D01*
X122755Y284481D01*
X125731Y281505D01*
X125731Y277295D01*
X122755Y274319D01*
X118545Y274319D01*
G37*
%LPD*%
%LPC*%
G36*
X8055Y274319D02*
X8055Y274319D01*
X5079Y277295D01*
X5079Y281505D01*
X8055Y284481D01*
X12265Y284481D01*
X15241Y281505D01*
X15241Y277295D01*
X12265Y274319D01*
X8055Y274319D01*
G37*
%LPD*%
%LPC*%
G36*
X323015Y490219D02*
X323015Y490219D01*
X320039Y493195D01*
X320039Y497405D01*
X323015Y500381D01*
X327225Y500381D01*
X330201Y497405D01*
X330201Y493195D01*
X327225Y490219D01*
X323015Y490219D01*
G37*
%LPD*%
%LPC*%
G36*
X538915Y439419D02*
X538915Y439419D01*
X535939Y442395D01*
X535939Y446605D01*
X538915Y449581D01*
X543125Y449581D01*
X546101Y446605D01*
X546101Y442395D01*
X543125Y439419D01*
X538915Y439419D01*
G37*
%LPD*%
%LPC*%
G36*
X188395Y427989D02*
X188395Y427989D01*
X185419Y430965D01*
X185419Y435175D01*
X188395Y438151D01*
X192605Y438151D01*
X195581Y435175D01*
X195581Y430965D01*
X192605Y427989D01*
X188395Y427989D01*
G37*
%LPD*%
%LPC*%
G36*
X184585Y566419D02*
X184585Y566419D01*
X181609Y569395D01*
X181609Y573605D01*
X184585Y576581D01*
X188795Y576581D01*
X191771Y573605D01*
X191771Y569395D01*
X188795Y566419D01*
X184585Y566419D01*
G37*
%LPD*%
%LPC*%
G36*
X455095Y414019D02*
X455095Y414019D01*
X452119Y416995D01*
X452119Y421205D01*
X455095Y424181D01*
X459305Y424181D01*
X462281Y421205D01*
X462281Y416995D01*
X459305Y414019D01*
X455095Y414019D01*
G37*
%LPD*%
%LPC*%
G36*
X118545Y287019D02*
X118545Y287019D01*
X115569Y289995D01*
X115569Y294205D01*
X118545Y297181D01*
X122755Y297181D01*
X125731Y294205D01*
X125731Y289995D01*
X122755Y287019D01*
X118545Y287019D01*
G37*
%LPD*%
%LPC*%
G36*
X79556Y287019D02*
X79556Y287019D01*
X76580Y289995D01*
X76580Y294205D01*
X79556Y297181D01*
X83766Y297181D01*
X86742Y294205D01*
X86742Y289995D01*
X83766Y287019D01*
X79556Y287019D01*
G37*
%LPD*%
%LPC*%
G36*
X528755Y938529D02*
X528755Y938529D01*
X525779Y941505D01*
X525779Y945715D01*
X528755Y948691D01*
X532965Y948691D01*
X535941Y945715D01*
X535941Y941505D01*
X532965Y938529D01*
X528755Y938529D01*
G37*
%LPD*%
%LPC*%
G36*
X324285Y642619D02*
X324285Y642619D01*
X321309Y645595D01*
X321309Y649805D01*
X324285Y652781D01*
X328495Y652781D01*
X331471Y649805D01*
X331471Y645595D01*
X328495Y642619D01*
X324285Y642619D01*
G37*
%LPD*%
%LPC*%
G36*
X8055Y365759D02*
X8055Y365759D01*
X5079Y368735D01*
X5079Y372945D01*
X8055Y375921D01*
X12265Y375921D01*
X15241Y372945D01*
X15241Y368735D01*
X12265Y365759D01*
X8055Y365759D01*
G37*
%LPD*%
%LPC*%
G36*
X235385Y363981D02*
X235385Y363981D01*
X232409Y366957D01*
X232409Y371167D01*
X235385Y374143D01*
X239595Y374143D01*
X242571Y371167D01*
X242571Y366957D01*
X239595Y363981D01*
X235385Y363981D01*
G37*
%LPD*%
%LPC*%
G36*
X152835Y910589D02*
X152835Y910589D01*
X149859Y913565D01*
X149859Y917775D01*
X152835Y920751D01*
X157045Y920751D01*
X160021Y917775D01*
X160021Y913565D01*
X157045Y910589D01*
X152835Y910589D01*
G37*
%LPD*%
%LPC*%
G36*
X17275Y905890D02*
X17275Y905890D01*
X14299Y908866D01*
X14299Y913076D01*
X17275Y916052D01*
X21485Y916052D01*
X24461Y913076D01*
X24461Y908866D01*
X21485Y905890D01*
X17275Y905890D01*
G37*
%LPD*%
%LPC*%
G36*
X112195Y890269D02*
X112195Y890269D01*
X109219Y893245D01*
X109219Y897455D01*
X112195Y900431D01*
X116405Y900431D01*
X119381Y897455D01*
X119381Y893245D01*
X116405Y890269D01*
X112195Y890269D01*
G37*
%LPD*%
%LPC*%
G36*
X48695Y198119D02*
X48695Y198119D01*
X45719Y201095D01*
X45719Y205305D01*
X48695Y208281D01*
X52905Y208281D01*
X55881Y205305D01*
X55881Y201095D01*
X52905Y198119D01*
X48695Y198119D01*
G37*
%LPD*%
%LPC*%
G36*
X23295Y198119D02*
X23295Y198119D01*
X20319Y201095D01*
X20319Y205305D01*
X23295Y208281D01*
X27505Y208281D01*
X30481Y205305D01*
X30481Y201095D01*
X27505Y198119D01*
X23295Y198119D01*
G37*
%LPD*%
%LPC*%
G36*
X18215Y885189D02*
X18215Y885189D01*
X15239Y888165D01*
X15239Y892375D01*
X18215Y895351D01*
X22425Y895351D01*
X25401Y892375D01*
X25401Y888165D01*
X22425Y885189D01*
X18215Y885189D01*
G37*
%LPD*%
%LPC*%
G36*
X23295Y172719D02*
X23295Y172719D01*
X20319Y175695D01*
X20319Y179905D01*
X23295Y182881D01*
X27505Y182881D01*
X30481Y179905D01*
X30481Y175695D01*
X27505Y172719D01*
X23295Y172719D01*
G37*
%LPD*%
%LPC*%
G36*
X86795Y172719D02*
X86795Y172719D01*
X83819Y175695D01*
X83819Y179905D01*
X86795Y182881D01*
X91005Y182881D01*
X93981Y179905D01*
X93981Y175695D01*
X91005Y172719D01*
X86795Y172719D01*
G37*
%LPD*%
%LPC*%
G36*
X239195Y165099D02*
X239195Y165099D01*
X236219Y168075D01*
X236219Y172285D01*
X239195Y175261D01*
X243405Y175261D01*
X246381Y172285D01*
X246381Y168075D01*
X243405Y165099D01*
X239195Y165099D01*
G37*
%LPD*%
%LPC*%
G36*
X226495Y160019D02*
X226495Y160019D01*
X223519Y162995D01*
X223519Y167205D01*
X226495Y170181D01*
X230705Y170181D01*
X233681Y167205D01*
X233681Y162995D01*
X230705Y160019D01*
X226495Y160019D01*
G37*
%LPD*%
%LPC*%
G36*
X251895Y160019D02*
X251895Y160019D01*
X248919Y162995D01*
X248919Y167205D01*
X251895Y170181D01*
X256105Y170181D01*
X259081Y167205D01*
X259081Y162995D01*
X256105Y160019D01*
X251895Y160019D01*
G37*
%LPD*%
%LPC*%
G36*
X112195Y877569D02*
X112195Y877569D01*
X109219Y880545D01*
X109219Y884755D01*
X112195Y887731D01*
X116405Y887731D01*
X119381Y884755D01*
X119381Y880545D01*
X116405Y877569D01*
X112195Y877569D01*
G37*
%LPD*%
%LPC*%
G36*
X152835Y872489D02*
X152835Y872489D01*
X149859Y875465D01*
X149859Y879675D01*
X152835Y882651D01*
X157045Y882651D01*
X160021Y879675D01*
X160021Y875465D01*
X157045Y872489D01*
X152835Y872489D01*
G37*
%LPD*%
%LPC*%
G36*
X76127Y308101D02*
X76127Y308101D01*
X73151Y311077D01*
X73151Y315287D01*
X76127Y318263D01*
X80337Y318263D01*
X83313Y315287D01*
X83313Y311077D01*
X80337Y308101D01*
X76127Y308101D01*
G37*
%LPD*%
%LPC*%
G36*
X10595Y845819D02*
X10595Y845819D01*
X7619Y848795D01*
X7619Y853005D01*
X10595Y855981D01*
X14805Y855981D01*
X17781Y853005D01*
X17781Y848795D01*
X14805Y845819D01*
X10595Y845819D01*
G37*
%LPD*%
%LPC*%
G36*
X61395Y248919D02*
X61395Y248919D01*
X58419Y251895D01*
X58419Y256105D01*
X61395Y259081D01*
X65605Y259081D01*
X68581Y256105D01*
X68581Y251895D01*
X65605Y248919D01*
X61395Y248919D01*
G37*
%LPD*%
%LPC*%
G36*
X151565Y999489D02*
X151565Y999489D01*
X148589Y1002465D01*
X148589Y1006675D01*
X151565Y1009651D01*
X155775Y1009651D01*
X158751Y1006675D01*
X158751Y1002465D01*
X155775Y999489D01*
X151565Y999489D01*
G37*
%LPD*%
%LPC*%
G36*
X137595Y995679D02*
X137595Y995679D01*
X134619Y998655D01*
X134619Y1002865D01*
X137595Y1005841D01*
X141805Y1005841D01*
X144781Y1002865D01*
X144781Y998655D01*
X141805Y995679D01*
X137595Y995679D01*
G37*
%LPD*%
%LPC*%
G36*
X275364Y69849D02*
X275364Y69849D01*
X272388Y72825D01*
X272388Y77035D01*
X275364Y80011D01*
X279574Y80011D01*
X282550Y77035D01*
X282550Y72825D01*
X279574Y69849D01*
X275364Y69849D01*
G37*
%LPD*%
%LPC*%
G36*
X227765Y69849D02*
X227765Y69849D01*
X224789Y72825D01*
X224789Y77035D01*
X227765Y80011D01*
X231975Y80011D01*
X234951Y77035D01*
X234951Y72825D01*
X231975Y69849D01*
X227765Y69849D01*
G37*
%LPD*%
%LPC*%
G36*
X-4645Y911859D02*
X-4645Y911859D01*
X-7621Y914835D01*
X-7621Y919045D01*
X-4645Y922021D01*
X-435Y922021D01*
X2541Y919045D01*
X2541Y914835D01*
X-435Y911859D01*
X-4645Y911859D01*
G37*
%LPD*%
%LPC*%
G36*
X223017Y45291D02*
X223017Y45291D01*
X220071Y48237D01*
X220071Y52403D01*
X223017Y55349D01*
X227183Y55349D01*
X230129Y52403D01*
X230129Y48237D01*
X227183Y45291D01*
X223017Y45291D01*
G37*
%LPD*%
%LPC*%
G36*
X280817Y45291D02*
X280817Y45291D01*
X277871Y48237D01*
X277871Y52403D01*
X280817Y55349D01*
X284983Y55349D01*
X287929Y52403D01*
X287929Y48237D01*
X284983Y45291D01*
X280817Y45291D01*
G37*
%LPD*%
%LPC*%
G36*
X-3833Y938271D02*
X-3833Y938271D01*
X-6779Y941217D01*
X-6779Y945383D01*
X-3833Y948329D01*
X333Y948329D01*
X3279Y945383D01*
X3279Y941217D01*
X333Y938271D01*
X-3833Y938271D01*
G37*
%LPD*%
%LPC*%
G36*
X-3833Y880471D02*
X-3833Y880471D01*
X-6779Y883417D01*
X-6779Y887583D01*
X-3833Y890529D01*
X333Y890529D01*
X3279Y887583D01*
X3279Y883417D01*
X333Y880471D01*
X-3833Y880471D01*
G37*
%LPD*%
%LPC*%
G36*
X522223Y76773D02*
X522223Y76773D01*
X522223Y85296D01*
X523079Y85161D01*
X524600Y84666D01*
X526025Y83940D01*
X527319Y83000D01*
X528450Y81869D01*
X529390Y80575D01*
X530116Y79150D01*
X530611Y77629D01*
X530746Y76773D01*
X522223Y76773D01*
G37*
%LPD*%
%LPC*%
G36*
X446023Y255523D02*
X446023Y255523D01*
X446023Y264046D01*
X446879Y263911D01*
X448400Y263416D01*
X449825Y262690D01*
X451119Y261750D01*
X452250Y260619D01*
X453190Y259325D01*
X453916Y257900D01*
X454411Y256379D01*
X454546Y255523D01*
X446023Y255523D01*
G37*
%LPD*%
%LPC*%
G36*
X65023Y76773D02*
X65023Y76773D01*
X65023Y85296D01*
X65879Y85161D01*
X67400Y84666D01*
X68825Y83940D01*
X70119Y83000D01*
X71250Y81869D01*
X72190Y80575D01*
X72916Y79150D01*
X73411Y77629D01*
X73546Y76773D01*
X65023Y76773D01*
G37*
%LPD*%
%LPC*%
G36*
X522223Y73727D02*
X522223Y73727D01*
X530746Y73727D01*
X530611Y72871D01*
X530116Y71350D01*
X529390Y69925D01*
X528450Y68631D01*
X527319Y67500D01*
X526025Y66560D01*
X524600Y65834D01*
X523079Y65339D01*
X522223Y65204D01*
X522223Y73727D01*
G37*
%LPD*%
%LPC*%
G36*
X65023Y73727D02*
X65023Y73727D01*
X73546Y73727D01*
X73411Y72871D01*
X72916Y71350D01*
X72190Y69925D01*
X71250Y68631D01*
X70119Y67500D01*
X68825Y66560D01*
X67400Y65834D01*
X65879Y65339D01*
X65023Y65204D01*
X65023Y73727D01*
G37*
%LPD*%
%LPC*%
G36*
X434454Y255523D02*
X434454Y255523D01*
X434589Y256379D01*
X435084Y257900D01*
X435810Y259325D01*
X436750Y260619D01*
X437881Y261750D01*
X439175Y262690D01*
X440600Y263416D01*
X442121Y263911D01*
X442977Y264046D01*
X442977Y255523D01*
X434454Y255523D01*
G37*
%LPD*%
%LPC*%
G36*
X115823Y1014477D02*
X115823Y1014477D01*
X124346Y1014477D01*
X124211Y1013621D01*
X123716Y1012100D01*
X122990Y1010675D01*
X122050Y1009381D01*
X120919Y1008250D01*
X119625Y1007310D01*
X118200Y1006584D01*
X116679Y1006089D01*
X115823Y1005954D01*
X115823Y1014477D01*
G37*
%LPD*%
%LPC*%
G36*
X53454Y76773D02*
X53454Y76773D01*
X53589Y77629D01*
X54084Y79150D01*
X54810Y80575D01*
X55750Y81869D01*
X56881Y83000D01*
X58175Y83940D01*
X59600Y84666D01*
X61121Y85161D01*
X61977Y85296D01*
X61977Y76773D01*
X53454Y76773D01*
G37*
%LPD*%
%LPC*%
G36*
X510654Y76773D02*
X510654Y76773D01*
X510789Y77629D01*
X511284Y79150D01*
X512010Y80575D01*
X512950Y81869D01*
X514081Y83000D01*
X515375Y83940D01*
X516800Y84666D01*
X518321Y85161D01*
X519177Y85296D01*
X519177Y76773D01*
X510654Y76773D01*
G37*
%LPD*%
%LPC*%
G36*
X446023Y252477D02*
X446023Y252477D01*
X454546Y252477D01*
X454411Y251621D01*
X453916Y250100D01*
X453190Y248675D01*
X452250Y247381D01*
X451119Y246250D01*
X449825Y245310D01*
X448400Y244584D01*
X446879Y244089D01*
X446023Y243954D01*
X446023Y252477D01*
G37*
%LPD*%
%LPC*%
G36*
X61121Y65339D02*
X61121Y65339D01*
X59600Y65834D01*
X58175Y66560D01*
X56881Y67500D01*
X55750Y68631D01*
X54810Y69925D01*
X54084Y71350D01*
X53589Y72871D01*
X53454Y73727D01*
X61977Y73727D01*
X61977Y65204D01*
X61121Y65339D01*
G37*
%LPD*%
%LPC*%
G36*
X518321Y65339D02*
X518321Y65339D01*
X516800Y65834D01*
X515375Y66560D01*
X514081Y67500D01*
X512950Y68631D01*
X512010Y69925D01*
X511284Y71350D01*
X510789Y72871D01*
X510654Y73727D01*
X519177Y73727D01*
X519177Y65204D01*
X518321Y65339D01*
G37*
%LPD*%
%LPC*%
G36*
X442121Y244089D02*
X442121Y244089D01*
X440600Y244584D01*
X439175Y245310D01*
X437881Y246250D01*
X436750Y247381D01*
X435810Y248675D01*
X435084Y250100D01*
X434589Y251621D01*
X434454Y252477D01*
X442977Y252477D01*
X442977Y243954D01*
X442121Y244089D01*
G37*
%LPD*%
%LPC*%
G36*
X111921Y1006089D02*
X111921Y1006089D01*
X110400Y1006584D01*
X108975Y1007310D01*
X107681Y1008250D01*
X106550Y1009381D01*
X105610Y1010675D01*
X104884Y1012100D01*
X104389Y1013621D01*
X104254Y1014477D01*
X112777Y1014477D01*
X112777Y1005954D01*
X111921Y1006089D01*
G37*
%LPD*%
%LPC*%
G36*
X211819Y56619D02*
X211819Y56619D01*
X211819Y61864D01*
X212663Y61696D01*
X213813Y61220D01*
X214848Y60528D01*
X215728Y59648D01*
X216420Y58613D01*
X216896Y57463D01*
X217064Y56619D01*
X211819Y56619D01*
G37*
%LPD*%
%LPC*%
G36*
X298179Y56619D02*
X298179Y56619D01*
X298179Y61864D01*
X299023Y61696D01*
X300173Y61220D01*
X301208Y60528D01*
X302088Y59648D01*
X302780Y58613D01*
X303256Y57463D01*
X303424Y56619D01*
X298179Y56619D01*
G37*
%LPD*%
%LPC*%
G36*
X4549Y958579D02*
X4549Y958579D01*
X4549Y963824D01*
X5393Y963656D01*
X6543Y963180D01*
X7578Y962488D01*
X8458Y961608D01*
X9150Y960573D01*
X9626Y959423D01*
X9794Y958579D01*
X4549Y958579D01*
G37*
%LPD*%
%LPC*%
G36*
X-44494Y872219D02*
X-44494Y872219D01*
X-44326Y873063D01*
X-43850Y874213D01*
X-43158Y875248D01*
X-42278Y876128D01*
X-41243Y876820D01*
X-40093Y877296D01*
X-39249Y877464D01*
X-39249Y872219D01*
X-44494Y872219D01*
G37*
%LPD*%
%LPC*%
G36*
X4549Y872219D02*
X4549Y872219D01*
X4549Y877464D01*
X5393Y877296D01*
X6543Y876820D01*
X7578Y876128D01*
X8458Y875248D01*
X9150Y874213D01*
X9626Y873063D01*
X9794Y872219D01*
X4549Y872219D01*
G37*
%LPD*%
%LPC*%
G36*
X-44494Y958579D02*
X-44494Y958579D01*
X-44326Y959423D01*
X-43850Y960573D01*
X-43158Y961608D01*
X-42278Y962488D01*
X-41243Y963180D01*
X-40093Y963656D01*
X-39249Y963824D01*
X-39249Y958579D01*
X-44494Y958579D01*
G37*
%LPD*%
%LPC*%
G36*
X211819Y14819D02*
X211819Y14819D01*
X211819Y20064D01*
X212663Y19896D01*
X213813Y19420D01*
X214848Y18728D01*
X215728Y17848D01*
X216420Y16813D01*
X216896Y15663D01*
X217064Y14819D01*
X211819Y14819D01*
G37*
%LPD*%
%LPC*%
G36*
X298179Y14819D02*
X298179Y14819D01*
X298179Y20064D01*
X299023Y19896D01*
X300173Y19420D01*
X301208Y18728D01*
X302088Y17848D01*
X302780Y16813D01*
X303256Y15663D01*
X303424Y14819D01*
X298179Y14819D01*
G37*
%LPD*%
%LPC*%
G36*
X4549Y956581D02*
X4549Y956581D01*
X9794Y956581D01*
X9626Y955737D01*
X9150Y954587D01*
X8458Y953552D01*
X7578Y952672D01*
X6543Y951980D01*
X5393Y951504D01*
X4549Y951336D01*
X4549Y956581D01*
G37*
%LPD*%
%LPC*%
G36*
X-40093Y951504D02*
X-40093Y951504D01*
X-41243Y951980D01*
X-42278Y952672D01*
X-43158Y953552D01*
X-43850Y954587D01*
X-44326Y955737D01*
X-44494Y956581D01*
X-39249Y956581D01*
X-39249Y951336D01*
X-40093Y951504D01*
G37*
%LPD*%
%LPC*%
G36*
X-37251Y958579D02*
X-37251Y958579D01*
X-37251Y963824D01*
X-36407Y963656D01*
X-35257Y963180D01*
X-34222Y962488D01*
X-33342Y961608D01*
X-32650Y960573D01*
X-32174Y959423D01*
X-32006Y958579D01*
X-37251Y958579D01*
G37*
%LPD*%
%LPC*%
G36*
X4549Y870221D02*
X4549Y870221D01*
X9794Y870221D01*
X9626Y869377D01*
X9150Y868227D01*
X8458Y867192D01*
X7578Y866312D01*
X6543Y865620D01*
X5393Y865144D01*
X4549Y864976D01*
X4549Y870221D01*
G37*
%LPD*%
%LPC*%
G36*
X204576Y56619D02*
X204576Y56619D01*
X204744Y57463D01*
X205220Y58613D01*
X205912Y59648D01*
X206792Y60528D01*
X207827Y61220D01*
X208977Y61696D01*
X209821Y61864D01*
X209821Y56619D01*
X204576Y56619D01*
G37*
%LPD*%
%LPC*%
G36*
X290936Y56619D02*
X290936Y56619D01*
X291104Y57463D01*
X291580Y58613D01*
X292272Y59648D01*
X293152Y60528D01*
X294187Y61220D01*
X295337Y61696D01*
X296181Y61864D01*
X296181Y56619D01*
X290936Y56619D01*
G37*
%LPD*%
%LPC*%
G36*
X298179Y54621D02*
X298179Y54621D01*
X303424Y54621D01*
X303256Y53777D01*
X302780Y52627D01*
X302088Y51592D01*
X301208Y50712D01*
X300173Y50020D01*
X299023Y49544D01*
X298179Y49376D01*
X298179Y54621D01*
G37*
%LPD*%
%LPC*%
G36*
X211819Y54621D02*
X211819Y54621D01*
X217064Y54621D01*
X216896Y53777D01*
X216420Y52627D01*
X215728Y51592D01*
X214848Y50712D01*
X213813Y50020D01*
X212663Y49544D01*
X211819Y49376D01*
X211819Y54621D01*
G37*
%LPD*%
%LPC*%
G36*
X-40093Y865144D02*
X-40093Y865144D01*
X-41243Y865620D01*
X-42278Y866312D01*
X-43158Y867192D01*
X-43850Y868227D01*
X-44326Y869377D01*
X-44494Y870221D01*
X-39249Y870221D01*
X-39249Y864976D01*
X-40093Y865144D01*
G37*
%LPD*%
%LPC*%
G36*
X-37251Y872219D02*
X-37251Y872219D01*
X-37251Y877464D01*
X-36407Y877296D01*
X-35257Y876820D01*
X-34222Y876128D01*
X-33342Y875248D01*
X-32650Y874213D01*
X-32174Y873063D01*
X-32006Y872219D01*
X-37251Y872219D01*
G37*
%LPD*%
%LPC*%
G36*
X204576Y14819D02*
X204576Y14819D01*
X204744Y15663D01*
X205220Y16813D01*
X205912Y17848D01*
X206792Y18728D01*
X207827Y19420D01*
X208977Y19896D01*
X209821Y20064D01*
X209821Y14819D01*
X204576Y14819D01*
G37*
%LPD*%
%LPC*%
G36*
X290936Y14819D02*
X290936Y14819D01*
X291104Y15663D01*
X291580Y16813D01*
X292272Y17848D01*
X293152Y18728D01*
X294187Y19420D01*
X295337Y19896D01*
X296181Y20064D01*
X296181Y14819D01*
X290936Y14819D01*
G37*
%LPD*%
%LPC*%
G36*
X-2694Y958579D02*
X-2694Y958579D01*
X-2526Y959423D01*
X-2050Y960573D01*
X-1358Y961608D01*
X-478Y962488D01*
X557Y963180D01*
X1707Y963656D01*
X2551Y963824D01*
X2551Y958579D01*
X-2694Y958579D01*
G37*
%LPD*%
%LPC*%
G36*
X-2694Y872219D02*
X-2694Y872219D01*
X-2526Y873063D01*
X-2050Y874213D01*
X-1358Y875248D01*
X-478Y876128D01*
X557Y876820D01*
X1707Y877296D01*
X2551Y877464D01*
X2551Y872219D01*
X-2694Y872219D01*
G37*
%LPD*%
%LPC*%
G36*
X295337Y49544D02*
X295337Y49544D01*
X294187Y50020D01*
X293152Y50712D01*
X292272Y51592D01*
X291580Y52627D01*
X291104Y53777D01*
X290936Y54621D01*
X296181Y54621D01*
X296181Y49376D01*
X295337Y49544D01*
G37*
%LPD*%
%LPC*%
G36*
X208977Y49544D02*
X208977Y49544D01*
X207827Y50020D01*
X206792Y50712D01*
X205912Y51592D01*
X205220Y52627D01*
X204744Y53777D01*
X204576Y54621D01*
X209821Y54621D01*
X209821Y49376D01*
X208977Y49544D01*
G37*
%LPD*%
%LPC*%
G36*
X-37251Y956581D02*
X-37251Y956581D01*
X-32006Y956581D01*
X-32174Y955737D01*
X-32650Y954587D01*
X-33342Y953552D01*
X-34222Y952672D01*
X-35257Y951980D01*
X-36407Y951504D01*
X-37251Y951336D01*
X-37251Y956581D01*
G37*
%LPD*%
%LPC*%
G36*
X-37251Y870221D02*
X-37251Y870221D01*
X-32006Y870221D01*
X-32174Y869377D01*
X-32650Y868227D01*
X-33342Y867192D01*
X-34222Y866312D01*
X-35257Y865620D01*
X-36407Y865144D01*
X-37251Y864976D01*
X-37251Y870221D01*
G37*
%LPD*%
%LPC*%
G36*
X1707Y865144D02*
X1707Y865144D01*
X557Y865620D01*
X-478Y866312D01*
X-1358Y867192D01*
X-2050Y868227D01*
X-2526Y869377D01*
X-2694Y870221D01*
X2551Y870221D01*
X2551Y864976D01*
X1707Y865144D01*
G37*
%LPD*%
%LPC*%
G36*
X1707Y951504D02*
X1707Y951504D01*
X557Y951980D01*
X-478Y952672D01*
X-1358Y953552D01*
X-2050Y954587D01*
X-2526Y955737D01*
X-2694Y956581D01*
X2551Y956581D01*
X2551Y951336D01*
X1707Y951504D01*
G37*
%LPD*%
G36*
X408369Y370090D02*
X408369Y370090D01*
X408441Y370092D01*
X408490Y370110D01*
X408541Y370118D01*
X408604Y370152D01*
X408672Y370177D01*
X408712Y370209D01*
X408758Y370234D01*
X408808Y370286D01*
X408864Y370330D01*
X408892Y370374D01*
X408928Y370412D01*
X408958Y370477D01*
X408997Y370537D01*
X409009Y370588D01*
X409031Y370635D01*
X409039Y370706D01*
X409057Y370776D01*
X409053Y370828D01*
X409058Y370879D01*
X409043Y370950D01*
X409038Y371021D01*
X409017Y371069D01*
X409006Y371120D01*
X408969Y371181D01*
X408941Y371247D01*
X408897Y371303D01*
X408880Y371331D01*
X408862Y371346D01*
X408837Y371378D01*
X407185Y373029D01*
X407111Y373082D01*
X407042Y373142D01*
X407012Y373154D01*
X406986Y373173D01*
X406899Y373200D01*
X406814Y373234D01*
X406773Y373238D01*
X406751Y373245D01*
X406718Y373244D01*
X406647Y373252D01*
X404518Y373252D01*
X404448Y373241D01*
X404376Y373239D01*
X404327Y373221D01*
X404276Y373213D01*
X404212Y373179D01*
X404145Y373154D01*
X404104Y373122D01*
X404058Y373097D01*
X404009Y373046D01*
X403953Y373001D01*
X403925Y372957D01*
X403889Y372919D01*
X403859Y372854D01*
X403820Y372794D01*
X403807Y372743D01*
X403785Y372696D01*
X403777Y372625D01*
X403760Y372555D01*
X403764Y372503D01*
X403758Y372452D01*
X403773Y372381D01*
X403779Y372310D01*
X403799Y372262D01*
X403810Y372211D01*
X403847Y372150D01*
X403875Y372084D01*
X403920Y372028D01*
X403936Y372000D01*
X403954Y371985D01*
X403980Y371953D01*
X405631Y370302D01*
X405705Y370249D01*
X405774Y370189D01*
X405805Y370177D01*
X405831Y370158D01*
X405918Y370131D01*
X406003Y370097D01*
X406044Y370093D01*
X406066Y370086D01*
X406098Y370087D01*
X406169Y370079D01*
X408298Y370079D01*
X408369Y370090D01*
G37*
%LPC*%
G36*
X520699Y75249D02*
X520699Y75249D01*
X520699Y75251D01*
X520701Y75251D01*
X520701Y75249D01*
X520699Y75249D01*
G37*
%LPD*%
%LPC*%
G36*
X63499Y75249D02*
X63499Y75249D01*
X63499Y75251D01*
X63501Y75251D01*
X63501Y75249D01*
X63499Y75249D01*
G37*
%LPD*%
%LPC*%
G36*
X444499Y253999D02*
X444499Y253999D01*
X444499Y254001D01*
X444501Y254001D01*
X444501Y253999D01*
X444499Y253999D01*
G37*
%LPD*%
D10*
X210820Y13820D03*
X297180Y13820D03*
X297180Y55620D03*
X210820Y55620D03*
D11*
X114300Y1041400D03*
X114300Y1016000D03*
D10*
X-38250Y871220D03*
X-38250Y957580D03*
X3550Y957580D03*
X3550Y871220D03*
D11*
X63500Y75250D03*
X38100Y75250D03*
X12700Y75250D03*
X-12700Y75250D03*
X520700Y75250D03*
X495300Y75250D03*
X469900Y75250D03*
X444500Y75250D03*
X101600Y215900D03*
X101600Y241300D03*
X101600Y266700D03*
X101600Y292100D03*
X444500Y254000D03*
X444500Y279400D03*
X444500Y304800D03*
X444500Y330200D03*
X378460Y850900D03*
X378460Y876300D03*
X378460Y901700D03*
X378460Y927100D03*
X-63500Y355600D03*
X-63500Y330200D03*
D12*
X457200Y419100D03*
X292100Y419100D03*
X101600Y779780D03*
D13*
X288290Y779780D02*
X289560Y778510D01*
X288290Y779780D02*
X101600Y779780D01*
X289560Y778510D02*
X431800Y778510D01*
X434340Y781050D01*
D12*
X434340Y781050D03*
X289560Y778510D03*
X368907Y945642D03*
D13*
X433442Y945642D01*
X433950Y946150D01*
D12*
X433950Y946150D03*
X261620Y461899D03*
X292100Y402590D03*
X264160Y433070D03*
X330200Y457200D03*
X326390Y533400D03*
X182880Y533400D03*
X184150Y609600D03*
X326390Y609600D03*
X346710Y34610D03*
X501650Y30800D03*
X44450Y33340D03*
X215900Y157480D03*
X245110Y125730D03*
X288290Y75250D03*
X217170Y75250D03*
X21590Y956310D03*
X20320Y859790D03*
X123190Y965200D03*
X118110Y946150D03*
X191770Y299720D03*
X213360Y299720D03*
X234950Y299720D03*
X255270Y299720D03*
X276860Y299720D03*
X297180Y299720D03*
X318770Y299720D03*
X339090Y299720D03*
X170180Y299720D03*
X190500Y320040D03*
X212090Y320040D03*
X233680Y320040D03*
X254000Y320040D03*
X275590Y320040D03*
X295910Y320040D03*
X317500Y320040D03*
X337820Y320040D03*
X168910Y320040D03*
X190500Y340360D03*
X212090Y340360D03*
X233680Y340360D03*
X254000Y340360D03*
X275590Y340360D03*
X295910Y340360D03*
X317500Y340360D03*
X337820Y340360D03*
X168910Y340360D03*
X191770Y238760D03*
X213360Y238760D03*
X234950Y238760D03*
X255270Y238760D03*
X276860Y238760D03*
X297180Y238760D03*
X318770Y238760D03*
X339090Y238760D03*
X170180Y238760D03*
X190500Y259080D03*
X212090Y259080D03*
X233680Y259080D03*
X254000Y259080D03*
X275590Y259080D03*
X295910Y259080D03*
X317500Y259080D03*
X337820Y259080D03*
X168910Y259080D03*
X190500Y279400D03*
X212090Y279400D03*
X233680Y279400D03*
X254000Y279400D03*
X275590Y279400D03*
X295910Y279400D03*
X317500Y279400D03*
X337820Y279400D03*
X168910Y279400D03*
X190500Y218440D03*
X212090Y218440D03*
X233680Y218440D03*
X254000Y218440D03*
X275590Y218440D03*
X295910Y218440D03*
X317500Y218440D03*
X337820Y218440D03*
X168910Y218440D03*
X172720Y187960D03*
X293370Y187960D03*
X262890Y187960D03*
X283210Y187960D03*
X304800Y187960D03*
X325120Y187960D03*
X156210Y187960D03*
X140970Y369570D03*
X162560Y369570D03*
X182880Y369570D03*
X226060Y370840D03*
X281940Y370840D03*
X302260Y370840D03*
X321310Y370840D03*
X342900Y372110D03*
X363220Y372110D03*
X374650Y347980D03*
X370840Y280670D03*
X370840Y251460D03*
X370840Y237490D03*
X370840Y222250D03*
X372110Y199390D03*
X374650Y365760D03*
X337820Y205740D03*
X361950Y185420D03*
X345440Y185420D03*
X185420Y187960D03*
X184150Y176530D03*
X176530Y167640D03*
X168910Y160020D03*
X160020Y149860D03*
X149860Y142240D03*
X142240Y133350D03*
X152400Y121920D03*
X129540Y84140D03*
X120650Y81600D03*
X165100Y81600D03*
X106680Y81600D03*
X87630Y81600D03*
X151130Y81600D03*
X85090Y67630D03*
X85090Y53660D03*
X85090Y39690D03*
X85090Y11750D03*
X85090Y25720D03*
X162560Y129540D03*
X171450Y139700D03*
X138430Y186690D03*
X138430Y207010D03*
X153670Y201930D03*
X139700Y279400D03*
X139700Y290830D03*
X132080Y124460D03*
X180340Y147320D03*
X189230Y157480D03*
X198120Y166370D03*
X181610Y121920D03*
X180340Y81600D03*
X194310Y80330D03*
X193040Y67630D03*
X193040Y52390D03*
X193040Y40960D03*
X193040Y25720D03*
X193040Y11750D03*
X204470Y191770D03*
X168910Y201930D03*
X167640Y356870D03*
X154940Y356870D03*
X339090Y356870D03*
X354330Y358140D03*
X355600Y201930D03*
X-54610Y449580D03*
X247650Y530860D03*
X130810Y100330D03*
X151130Y100330D03*
X481330Y981710D03*
X383540Y123190D03*
X372342Y411226D03*
X81661Y292100D03*
D14*
X238582Y411226D02*
X372342Y411226D01*
X238582Y411226D02*
X237693Y412115D01*
X166370Y412115D01*
D12*
X91440Y410210D03*
D14*
X93345Y412115D02*
X166370Y412115D01*
X93345Y412115D02*
X91440Y410210D01*
D12*
X153670Y1004570D03*
X166370Y401320D03*
D14*
X166370Y412115D01*
D12*
X78232Y313182D03*
X75988Y420582D03*
X329184Y426974D03*
X373380Y123190D03*
D14*
X164798Y420582D02*
X75988Y420582D01*
X164798Y420582D02*
X165010Y420370D01*
X327279Y425069D02*
X329184Y426974D01*
X182880Y420370D02*
X165010Y420370D01*
X182880Y420370D02*
X197045Y420370D01*
X201744Y425069D01*
X327279Y425069D01*
D12*
X154940Y965200D03*
X182880Y421640D03*
D14*
X182880Y420370D01*
D12*
X237490Y369062D03*
X237490Y433070D03*
X116840Y402590D03*
X190500Y433070D03*
X186690Y571500D03*
X506730Y400050D03*
X561340Y400050D03*
D13*
X411734Y400050D01*
X403860Y407924D01*
D12*
X403860Y407924D03*
X184150Y455930D03*
D14*
X321259Y455930D01*
X352400Y424790D01*
X442621Y424790D01*
X444500Y422910D01*
D12*
X444500Y422910D03*
X254000Y165100D03*
X243459Y401320D03*
D14*
X213428Y408559D02*
X212539Y407670D01*
X194310Y407670D01*
X236220Y408559D02*
X243459Y401320D01*
X236220Y408559D02*
X213428Y408559D01*
X194310Y407670D02*
X190500Y403860D01*
X190500Y402590D01*
D12*
X190500Y402590D03*
X228600Y165100D03*
X215900Y402590D03*
X25400Y177800D03*
X0Y393700D03*
D14*
X398151Y393700D01*
D12*
X405130Y387096D03*
D14*
X404755Y387096D01*
X398151Y393700D01*
D12*
X88900Y177800D03*
X109220Y383540D03*
X411480Y375920D03*
D14*
X402063Y375920D01*
X394443Y383540D01*
X109220Y383540D01*
D12*
X429260Y360680D03*
X395478Y411226D03*
X333756Y434256D03*
D14*
X380783Y411226D02*
X395478Y411226D01*
X380783Y411226D02*
X374814Y417195D01*
X350817Y417195D02*
X333756Y434256D01*
X350817Y417195D02*
X374814Y417195D01*
D12*
X397510Y1024890D03*
X34290Y1028700D03*
D14*
X119958Y1024890D02*
X397510Y1024890D01*
X119958Y1024890D02*
X118561Y1026287D01*
X36703Y1026287D02*
X34290Y1028700D01*
X36703Y1026287D02*
X118561Y1026287D01*
D12*
X482600Y368300D03*
D14*
X88900Y378079D02*
X66040Y355219D01*
X66040Y292100D01*
D12*
X66040Y292100D03*
D14*
X393700Y378460D02*
X404749Y367411D01*
X393700Y378460D02*
X115122Y378460D01*
X114233Y377571D01*
X106748Y377571D01*
X106240Y378079D01*
X88900Y378079D01*
X481711Y367411D02*
X482600Y368300D01*
X481711Y367411D02*
X404749Y367411D01*
D12*
X473710Y387350D03*
D14*
X473710Y386275D01*
X469833Y382397D01*
X401885Y381127D02*
X393122Y389890D01*
D12*
X-5588Y304800D03*
D14*
X-5588Y379222D01*
X5080Y389890D02*
X393122Y389890D01*
X5080Y389890D02*
X-5588Y379222D01*
X408873Y382397D02*
X469833Y382397D01*
X408873Y382397D02*
X407603Y381127D01*
X401885Y381127D01*
D12*
X63500Y254000D03*
X66040Y368300D03*
X10160Y279400D03*
X10160Y370840D03*
X58420Y895350D03*
X151130Y864870D03*
D14*
X88519Y865251D02*
X58420Y895350D01*
X88519Y865251D02*
X150749Y865251D01*
X151130Y864870D01*
X527050Y864870D01*
D12*
X527050Y864870D03*
X36407Y938953D03*
X393700Y974090D03*
D14*
X157413Y950891D02*
X152468Y950891D01*
X157413Y950891D02*
X161096Y947208D01*
X140530Y938953D02*
X36407Y938953D01*
X140530Y938953D02*
X152468Y950891D01*
X161096Y947208D02*
X354118Y947208D01*
X381000Y974090D01*
X393700Y974090D01*
D12*
X318770Y901700D03*
D14*
X228600Y901700D01*
D12*
X228600Y901700D03*
X120650Y292100D03*
X190500Y876300D03*
D14*
X355600Y876300D01*
D12*
X355600Y876300D03*
X326390Y647700D03*
X25400Y203200D03*
X31750Y399669D03*
X210820Y431800D03*
X154940Y890270D03*
D14*
X214630Y890270D01*
X215900Y889000D01*
D12*
X215900Y889000D03*
X318770Y915670D03*
D14*
X416560Y915670D01*
D12*
X525780Y915670D03*
D14*
X416560Y915670D01*
D12*
X416560Y915670D03*
X318770Y883031D03*
D14*
X236601Y883031D01*
X236220Y882650D01*
D12*
X236220Y882650D03*
X120650Y279400D03*
X154940Y944922D03*
X530860Y943610D03*
X530860Y991870D03*
D14*
X158353Y944922D02*
X154940Y944922D01*
X158353Y944922D02*
X159623Y943652D01*
X362456Y943652D02*
X366435Y939673D01*
X478663Y939673D01*
X530860Y991870D01*
X362456Y943652D02*
X159623Y943652D01*
D12*
X154940Y928370D03*
D14*
X191770Y928370D01*
X231140Y889000D01*
X520700Y889000D01*
X533400Y901700D01*
D12*
X533400Y901700D03*
X154940Y915670D03*
X-35560Y405130D03*
D14*
X-13970Y426720D01*
X167640Y426720D01*
D12*
X167640Y426720D03*
X153670Y1017270D03*
D15*
X441960Y1017270D01*
X443230Y1018540D01*
D12*
X443230Y1018540D03*
X443230Y949960D03*
X154940Y877570D03*
X161290Y440690D03*
X105410Y370459D03*
X50800Y203200D03*
X50800Y415290D03*
X203200Y418084D03*
D14*
X200787Y415671D01*
X106240Y416179D02*
X88968Y416179D01*
X106240Y416179D02*
X106748Y415671D01*
X200787Y415671D01*
D12*
X203200Y901700D03*
D14*
X152400Y901700D01*
D12*
X152400Y901700D03*
D14*
X72839Y415290D02*
X50800Y415290D01*
X72839Y415290D02*
X73516Y414613D01*
X87402Y414613D01*
X88968Y416179D01*
D12*
X325120Y495300D03*
X326390Y571500D03*
X355600Y965200D03*
X349631Y953770D03*
X114300Y882650D03*
X19380Y910971D03*
X114300Y895350D03*
X-2540Y916940D03*
X27940Y942340D03*
X12700Y850900D03*
X20320Y890270D03*
X139700Y749300D03*
X139700Y1000760D03*
D13*
X140970Y748030D02*
X317500Y748030D01*
X140970Y748030D02*
X139700Y749300D01*
D12*
X317500Y748030D03*
X317500Y400050D03*
X541020Y444500D03*
X229870Y74930D03*
X277469Y74930D03*
X241300Y170180D03*
X412720Y411226D03*
M02*
