G04 EAGLE Gerber RS-274X export*
G75*
%MOMM*%
%FSLAX34Y34*%
%LPD*%
%INSoldermask Top*%
%IPPOS*%
%AMOC8*
5,1,8,0,0,1.08239X$1,22.5*%
G01*
%ADD10C,0.838200*%
%ADD11R,1.403200X2.203200*%
%ADD12R,0.803200X1.553200*%
%ADD13R,1.303200X1.203200*%
%ADD14R,4.200000X1.700000*%
%ADD15C,0.505344*%
%ADD16R,0.833200X1.033200*%
%ADD17R,1.203200X1.303200*%
%ADD18R,1.403200X0.753200*%
%ADD19R,1.103200X1.053200*%
%ADD20R,0.803200X0.803200*%
%ADD21R,1.053200X1.723200*%
%ADD22R,1.723200X1.053200*%
%ADD23R,1.303200X1.303200*%
%ADD24R,0.503200X1.203200*%
%ADD25R,0.803200X1.203200*%
%ADD26C,0.853200*%
%ADD27R,0.453200X0.813200*%
%ADD28R,0.453200X0.763200*%
%ADD29R,1.353200X7.203200*%
%ADD30R,1.103200X2.403200*%
%ADD31R,0.620000X0.840000*%
%ADD32R,0.620000X0.560000*%
%ADD33R,0.640000X0.840000*%
%ADD34C,3.403600*%
%ADD35R,1.203200X4.803200*%
%ADD36R,1.803200X3.603200*%
%ADD37R,4.803200X1.203200*%
%ADD38R,3.603200X1.803200*%
%ADD39C,2.082800*%
%ADD40R,1.353200X1.203200*%
%ADD41C,1.053200*%
%ADD42R,0.965200X1.727200*%
%ADD43R,0.803200X1.903200*%
%ADD44R,1.203200X2.903200*%

G36*
X263942Y442863D02*
X263942Y442863D01*
X263986Y442866D01*
X264008Y442882D01*
X264034Y442890D01*
X264063Y442923D01*
X264098Y442949D01*
X264108Y442975D01*
X264126Y442995D01*
X264133Y443039D01*
X264148Y443079D01*
X264143Y443106D01*
X264147Y443133D01*
X264129Y443174D01*
X264120Y443216D01*
X264094Y443252D01*
X264090Y443261D01*
X264085Y443265D01*
X264076Y443276D01*
X240076Y467276D01*
X240038Y467297D01*
X240005Y467326D01*
X239978Y467330D01*
X239954Y467343D01*
X239910Y467340D01*
X239867Y467347D01*
X239842Y467336D01*
X239814Y467334D01*
X239779Y467308D01*
X239739Y467290D01*
X239724Y467267D01*
X239702Y467251D01*
X239686Y467210D01*
X239662Y467174D01*
X239655Y467130D01*
X239652Y467121D01*
X239653Y467114D01*
X239651Y467100D01*
X239651Y443100D01*
X239656Y443084D01*
X239653Y443067D01*
X239675Y443017D01*
X239690Y442966D01*
X239703Y442955D01*
X239710Y442939D01*
X239755Y442909D01*
X239795Y442874D01*
X239812Y442871D01*
X239827Y442862D01*
X239900Y442851D01*
X263900Y442851D01*
X263942Y442863D01*
G37*
G36*
X311184Y40343D02*
X311184Y40343D01*
X311190Y40349D01*
X311195Y40345D01*
X312425Y40710D01*
X312430Y40717D01*
X312435Y40715D01*
X313554Y41345D01*
X313557Y41352D01*
X313563Y41351D01*
X314513Y42214D01*
X314514Y42222D01*
X314520Y42222D01*
X315254Y43275D01*
X315254Y43283D01*
X315259Y43285D01*
X315741Y44475D01*
X315739Y44480D01*
X315743Y44483D01*
X315742Y44484D01*
X315744Y44485D01*
X315949Y45752D01*
X315946Y45757D01*
X315949Y45760D01*
X315949Y57760D01*
X315946Y57764D01*
X315949Y57767D01*
X315794Y58889D01*
X315789Y58894D01*
X315792Y58898D01*
X315421Y59969D01*
X315415Y59973D01*
X315417Y59978D01*
X314844Y60955D01*
X314838Y60958D01*
X314839Y60963D01*
X314086Y61810D01*
X314079Y61812D01*
X314079Y61817D01*
X313176Y62501D01*
X313169Y62501D01*
X313168Y62506D01*
X312149Y63001D01*
X312142Y62999D01*
X312140Y63004D01*
X311043Y63291D01*
X311037Y63288D01*
X311034Y63292D01*
X309903Y63359D01*
X309897Y63359D01*
X308766Y63292D01*
X308761Y63287D01*
X308757Y63291D01*
X307660Y63004D01*
X307656Y62998D01*
X307651Y63001D01*
X306632Y62506D01*
X306629Y62500D01*
X306624Y62501D01*
X305721Y61817D01*
X305719Y61810D01*
X305714Y61810D01*
X304961Y60963D01*
X304961Y60956D01*
X304956Y60955D01*
X304383Y59978D01*
X304384Y59975D01*
X304383Y59974D01*
X304384Y59973D01*
X304384Y59971D01*
X304379Y59969D01*
X304008Y58898D01*
X304010Y58893D01*
X304007Y58891D01*
X304007Y58890D01*
X304006Y58889D01*
X303851Y57767D01*
X303854Y57762D01*
X303851Y57760D01*
X303851Y45760D01*
X303854Y45755D01*
X303851Y45752D01*
X304056Y44485D01*
X304062Y44479D01*
X304059Y44475D01*
X304541Y43285D01*
X304548Y43281D01*
X304546Y43275D01*
X305280Y42222D01*
X305288Y42220D01*
X305287Y42214D01*
X306237Y41351D01*
X306246Y41350D01*
X306246Y41345D01*
X307365Y40715D01*
X307373Y40716D01*
X307375Y40710D01*
X308605Y40345D01*
X308613Y40348D01*
X308616Y40343D01*
X309897Y40261D01*
X309901Y40264D01*
X309903Y40261D01*
X311184Y40343D01*
G37*
G36*
X224784Y40343D02*
X224784Y40343D01*
X224790Y40349D01*
X224795Y40345D01*
X226025Y40710D01*
X226030Y40717D01*
X226035Y40715D01*
X227154Y41345D01*
X227157Y41352D01*
X227163Y41351D01*
X228113Y42214D01*
X228114Y42222D01*
X228120Y42222D01*
X228854Y43275D01*
X228854Y43283D01*
X228859Y43285D01*
X229341Y44475D01*
X229339Y44480D01*
X229343Y44483D01*
X229342Y44484D01*
X229344Y44485D01*
X229549Y45752D01*
X229546Y45757D01*
X229549Y45760D01*
X229549Y57760D01*
X229546Y57764D01*
X229549Y57767D01*
X229394Y58889D01*
X229389Y58894D01*
X229392Y58898D01*
X229021Y59969D01*
X229015Y59973D01*
X229017Y59978D01*
X228444Y60955D01*
X228438Y60958D01*
X228439Y60963D01*
X227686Y61810D01*
X227679Y61812D01*
X227679Y61817D01*
X226776Y62501D01*
X226769Y62501D01*
X226768Y62506D01*
X225749Y63001D01*
X225742Y62999D01*
X225740Y63004D01*
X224643Y63291D01*
X224637Y63288D01*
X224634Y63292D01*
X223503Y63359D01*
X223497Y63359D01*
X222366Y63292D01*
X222361Y63287D01*
X222357Y63291D01*
X221260Y63004D01*
X221256Y62998D01*
X221251Y63001D01*
X220232Y62506D01*
X220229Y62500D01*
X220224Y62501D01*
X219321Y61817D01*
X219319Y61810D01*
X219314Y61810D01*
X218561Y60963D01*
X218561Y60956D01*
X218556Y60955D01*
X217983Y59978D01*
X217984Y59975D01*
X217983Y59974D01*
X217984Y59973D01*
X217984Y59971D01*
X217979Y59969D01*
X217608Y58898D01*
X217610Y58893D01*
X217607Y58891D01*
X217607Y58890D01*
X217606Y58889D01*
X217451Y57767D01*
X217454Y57762D01*
X217451Y57760D01*
X217451Y45760D01*
X217454Y45755D01*
X217451Y45752D01*
X217656Y44485D01*
X217662Y44479D01*
X217659Y44475D01*
X218141Y43285D01*
X218148Y43281D01*
X218146Y43275D01*
X218880Y42222D01*
X218888Y42220D01*
X218887Y42214D01*
X219837Y41351D01*
X219846Y41350D01*
X219846Y41345D01*
X220965Y40715D01*
X220973Y40716D01*
X220975Y40710D01*
X222205Y40345D01*
X222213Y40348D01*
X222216Y40343D01*
X223497Y40261D01*
X223501Y40264D01*
X223503Y40261D01*
X224784Y40343D01*
G37*
G36*
X311071Y1071D02*
X311071Y1071D01*
X311076Y1076D01*
X311080Y1073D01*
X312203Y1408D01*
X312207Y1414D01*
X312211Y1412D01*
X313247Y1960D01*
X313250Y1966D01*
X313255Y1965D01*
X314163Y2704D01*
X314165Y2711D01*
X314170Y2711D01*
X314917Y3613D01*
X314917Y3621D01*
X314923Y3621D01*
X315479Y4652D01*
X315478Y4659D01*
X315483Y4661D01*
X315827Y5780D01*
X315825Y5787D01*
X315829Y5790D01*
X315949Y6955D01*
X315947Y6958D01*
X315949Y6960D01*
X315949Y12960D01*
X315947Y12963D01*
X315949Y12965D01*
X315838Y14141D01*
X315833Y14146D01*
X315836Y14150D01*
X315498Y15282D01*
X315492Y15286D01*
X315494Y15291D01*
X314942Y16335D01*
X314935Y16338D01*
X314937Y16343D01*
X314191Y17259D01*
X314184Y17260D01*
X314184Y17266D01*
X313275Y18019D01*
X313267Y18019D01*
X313267Y18024D01*
X312227Y18585D01*
X312220Y18584D01*
X312218Y18589D01*
X311089Y18936D01*
X311083Y18934D01*
X311080Y18938D01*
X309905Y19059D01*
X309898Y19055D01*
X309894Y19059D01*
X308554Y18902D01*
X308548Y18897D01*
X308543Y18900D01*
X307272Y18449D01*
X307267Y18442D01*
X307262Y18444D01*
X306123Y17722D01*
X306120Y17714D01*
X306114Y17715D01*
X305164Y16757D01*
X305163Y16749D01*
X305157Y16748D01*
X304444Y15603D01*
X304445Y15595D01*
X304439Y15593D01*
X303999Y14317D01*
X304001Y14310D01*
X303997Y14307D01*
X303851Y12965D01*
X303853Y12962D01*
X303851Y12960D01*
X303851Y6960D01*
X303853Y6957D01*
X303851Y6954D01*
X304006Y5625D01*
X304012Y5619D01*
X304009Y5615D01*
X304456Y4354D01*
X304463Y4349D01*
X304461Y4344D01*
X305178Y3214D01*
X305185Y3211D01*
X305184Y3205D01*
X306135Y2263D01*
X306143Y2262D01*
X306143Y2256D01*
X307279Y1549D01*
X307287Y1550D01*
X307289Y1544D01*
X308554Y1108D01*
X308559Y1109D01*
X308560Y1108D01*
X308563Y1108D01*
X308565Y1105D01*
X309895Y961D01*
X309901Y965D01*
X309905Y961D01*
X311071Y1071D01*
G37*
G36*
X224671Y1071D02*
X224671Y1071D01*
X224676Y1076D01*
X224680Y1073D01*
X225803Y1408D01*
X225807Y1414D01*
X225811Y1412D01*
X226847Y1960D01*
X226850Y1966D01*
X226855Y1965D01*
X227763Y2704D01*
X227765Y2711D01*
X227770Y2711D01*
X228517Y3613D01*
X228517Y3621D01*
X228523Y3621D01*
X229079Y4652D01*
X229078Y4659D01*
X229083Y4661D01*
X229427Y5780D01*
X229425Y5787D01*
X229429Y5790D01*
X229549Y6955D01*
X229547Y6958D01*
X229549Y6960D01*
X229549Y12960D01*
X229547Y12963D01*
X229549Y12965D01*
X229438Y14141D01*
X229433Y14146D01*
X229436Y14150D01*
X229098Y15282D01*
X229092Y15286D01*
X229094Y15291D01*
X228542Y16335D01*
X228535Y16338D01*
X228537Y16343D01*
X227791Y17259D01*
X227784Y17260D01*
X227784Y17266D01*
X226875Y18019D01*
X226867Y18019D01*
X226867Y18024D01*
X225827Y18585D01*
X225820Y18584D01*
X225818Y18589D01*
X224689Y18936D01*
X224683Y18934D01*
X224680Y18938D01*
X223505Y19059D01*
X223498Y19055D01*
X223494Y19059D01*
X222154Y18902D01*
X222148Y18897D01*
X222143Y18900D01*
X220872Y18449D01*
X220867Y18442D01*
X220862Y18444D01*
X219723Y17722D01*
X219720Y17714D01*
X219714Y17715D01*
X218764Y16757D01*
X218763Y16749D01*
X218757Y16748D01*
X218044Y15603D01*
X218045Y15595D01*
X218039Y15593D01*
X217599Y14317D01*
X217601Y14310D01*
X217597Y14307D01*
X217451Y12965D01*
X217453Y12962D01*
X217451Y12960D01*
X217451Y6960D01*
X217453Y6957D01*
X217451Y6954D01*
X217606Y5625D01*
X217612Y5619D01*
X217609Y5615D01*
X218056Y4354D01*
X218063Y4349D01*
X218061Y4344D01*
X218778Y3214D01*
X218785Y3211D01*
X218784Y3205D01*
X219735Y2263D01*
X219743Y2262D01*
X219743Y2256D01*
X220879Y1549D01*
X220887Y1550D01*
X220889Y1544D01*
X222154Y1108D01*
X222159Y1109D01*
X222160Y1108D01*
X222163Y1108D01*
X222165Y1105D01*
X223495Y961D01*
X223501Y965D01*
X223505Y961D01*
X224671Y1071D01*
G37*
D10*
X558800Y25400D03*
X-23600Y1039600D03*
D11*
X346650Y10240D03*
X402650Y10240D03*
D12*
X359650Y46990D03*
X369650Y46990D03*
X379650Y46990D03*
X389650Y46990D03*
D13*
X232800Y419100D03*
X249800Y419100D03*
D14*
X260700Y488400D03*
D15*
X195780Y517210D02*
X195780Y524190D01*
X202760Y524190D01*
X202760Y517210D01*
X195780Y517210D01*
X195780Y522010D02*
X202760Y522010D01*
X178240Y524190D02*
X178240Y517210D01*
X178240Y524190D02*
X185220Y524190D01*
X185220Y517210D01*
X178240Y517210D01*
X178240Y522010D02*
X185220Y522010D01*
D16*
X267900Y419100D03*
X290900Y419100D03*
D13*
X232800Y393700D03*
X249800Y393700D03*
X182000Y533400D03*
X199000Y533400D03*
D17*
X292100Y359800D03*
X292100Y376800D03*
X266700Y376800D03*
X266700Y359800D03*
D15*
X576780Y612460D02*
X576780Y619440D01*
X583760Y619440D01*
X583760Y612460D01*
X576780Y612460D01*
X576780Y617260D02*
X583760Y617260D01*
X559240Y619440D02*
X559240Y612460D01*
X559240Y619440D02*
X566220Y619440D01*
X566220Y612460D01*
X559240Y612460D01*
X559240Y617260D02*
X566220Y617260D01*
D13*
X563000Y628650D03*
X580000Y628650D03*
D18*
X368601Y358800D03*
X368601Y368300D03*
X368601Y377800D03*
X342599Y377800D03*
X342599Y358800D03*
D17*
X393700Y359800D03*
X393700Y376800D03*
X190500Y376800D03*
X190500Y359800D03*
X215900Y376800D03*
X215900Y359800D03*
D15*
X195780Y441010D02*
X195780Y447990D01*
X202760Y447990D01*
X202760Y441010D01*
X195780Y441010D01*
X195780Y445810D02*
X202760Y445810D01*
X178240Y447990D02*
X178240Y441010D01*
X178240Y447990D02*
X185220Y447990D01*
X185220Y441010D01*
X178240Y441010D01*
X178240Y445810D02*
X185220Y445810D01*
D13*
X182000Y457200D03*
X199000Y457200D03*
D19*
X228600Y155660D03*
X228600Y144060D03*
D13*
X246770Y156210D03*
X263770Y156210D03*
D17*
X241300Y376800D03*
X241300Y359800D03*
D20*
X207090Y156210D03*
X217090Y156210D03*
D21*
X195200Y179500D03*
X206200Y179500D03*
X217200Y179500D03*
X228200Y179500D03*
X239200Y179500D03*
X250200Y179500D03*
X261200Y179500D03*
X272200Y179500D03*
X283200Y179500D03*
X294200Y179500D03*
X305200Y179500D03*
X316200Y179500D03*
X327200Y179500D03*
X338200Y179500D03*
D22*
X366200Y188000D03*
X366200Y199000D03*
X366200Y210000D03*
X366200Y221000D03*
X366200Y232000D03*
X366200Y243000D03*
X366200Y254000D03*
X366200Y265000D03*
X366200Y276000D03*
X366200Y287000D03*
X366200Y298000D03*
X366200Y309000D03*
X366200Y320000D03*
D21*
X338200Y328500D03*
X327200Y328500D03*
X316200Y328500D03*
X305200Y328500D03*
X294200Y328500D03*
X283200Y328500D03*
X272200Y328500D03*
X261200Y328500D03*
X250200Y328500D03*
X239200Y328500D03*
X228200Y328500D03*
X217200Y328500D03*
X206200Y328500D03*
X195200Y328500D03*
D22*
X167200Y320000D03*
X167200Y309000D03*
X167200Y298000D03*
X167200Y287000D03*
X167200Y276000D03*
X167200Y265000D03*
X167200Y254000D03*
X167200Y243000D03*
X167200Y232000D03*
X167200Y221000D03*
X167200Y210000D03*
X167200Y199000D03*
X167200Y188000D03*
D23*
X256200Y243500D03*
X235200Y243500D03*
X214200Y243500D03*
X193200Y243500D03*
X256200Y223000D03*
X235200Y223000D03*
X214200Y223000D03*
X193200Y223000D03*
X256200Y202500D03*
X235200Y202500D03*
X214200Y202500D03*
X193200Y202500D03*
X256200Y305500D03*
X235200Y305500D03*
X214200Y305500D03*
X193200Y305500D03*
X256200Y285000D03*
X235200Y285000D03*
X214200Y285000D03*
X193200Y285000D03*
X256200Y264500D03*
X235200Y264500D03*
X214200Y264500D03*
X193200Y264500D03*
X277200Y264500D03*
X298200Y264500D03*
X319200Y264500D03*
X340200Y264500D03*
X277200Y285000D03*
X298200Y285000D03*
X319200Y285000D03*
X340200Y285000D03*
X277200Y305500D03*
X298200Y305500D03*
X319200Y305500D03*
X340200Y305500D03*
X277200Y202500D03*
X298200Y202500D03*
X319200Y202500D03*
X340200Y202500D03*
X277200Y223000D03*
X298200Y223000D03*
X319200Y223000D03*
X340200Y223000D03*
X277200Y243500D03*
X298200Y243500D03*
X319200Y243500D03*
X340200Y243500D03*
D13*
X326000Y88900D03*
X309000Y88900D03*
X207400Y88900D03*
X224400Y88900D03*
D24*
X274200Y57560D03*
X269200Y57560D03*
D25*
X298950Y57560D03*
X291200Y57560D03*
D24*
X284200Y57560D03*
X279200Y57560D03*
X259200Y57560D03*
X264200Y57560D03*
D25*
X234450Y57560D03*
X242200Y57560D03*
D24*
X249200Y57560D03*
X254200Y57560D03*
D26*
X237800Y46510D03*
X295600Y46510D03*
D17*
X317500Y359800D03*
X317500Y376800D03*
D13*
X270900Y393700D03*
X287900Y393700D03*
D27*
X249000Y122950D03*
D28*
X254000Y122700D03*
X259000Y122700D03*
X259000Y131300D03*
X254000Y131300D03*
X249000Y131300D03*
D29*
X200150Y35000D03*
D30*
X158750Y81000D03*
D29*
X117350Y35000D03*
D31*
X132800Y280100D03*
D32*
X132800Y288100D03*
X132800Y296100D03*
D31*
X146000Y280100D03*
D32*
X146000Y288100D03*
X146000Y296100D03*
D33*
X145900Y304100D03*
D31*
X132800Y304100D03*
X132800Y216600D03*
D32*
X132800Y224600D03*
X132800Y232600D03*
D31*
X146000Y216600D03*
D32*
X146000Y224600D03*
X146000Y232600D03*
D33*
X145900Y240600D03*
D31*
X132800Y240600D03*
D17*
X139700Y321700D03*
X139700Y338700D03*
D34*
X-18288Y270637D03*
X-18288Y770763D03*
X551688Y770763D03*
X551688Y270637D03*
D13*
X-29600Y622300D03*
X-46600Y622300D03*
D15*
X-32820Y613090D02*
X-32820Y606110D01*
X-32820Y613090D02*
X-25840Y613090D01*
X-25840Y606110D01*
X-32820Y606110D01*
X-32820Y610910D02*
X-25840Y610910D01*
X-50360Y613090D02*
X-50360Y606110D01*
X-50360Y613090D02*
X-43380Y613090D01*
X-43380Y606110D01*
X-50360Y606110D01*
X-50360Y610910D02*
X-43380Y610910D01*
D35*
X573880Y456100D03*
X553880Y456100D03*
D36*
X597880Y404100D03*
X529880Y404100D03*
D15*
X576780Y599760D02*
X576780Y606740D01*
X583760Y606740D01*
X583760Y599760D01*
X576780Y599760D01*
X576780Y604560D02*
X583760Y604560D01*
X559240Y606740D02*
X559240Y599760D01*
X559240Y606740D02*
X566220Y606740D01*
X566220Y599760D01*
X559240Y599760D01*
X559240Y604560D02*
X566220Y604560D01*
D13*
X563000Y590550D03*
X580000Y590550D03*
D37*
X87800Y1006000D03*
X87800Y1026000D03*
D38*
X35800Y982000D03*
X35800Y1050000D03*
D39*
X127000Y1016000D03*
X127000Y990600D03*
D13*
X338700Y609600D03*
X321700Y609600D03*
D15*
X335480Y600390D02*
X335480Y593410D01*
X335480Y600390D02*
X342460Y600390D01*
X342460Y593410D01*
X335480Y593410D01*
X335480Y598210D02*
X342460Y598210D01*
X317940Y600390D02*
X317940Y593410D01*
X317940Y600390D02*
X324920Y600390D01*
X324920Y593410D01*
X317940Y593410D01*
X317940Y598210D02*
X324920Y598210D01*
D13*
X338700Y533400D03*
X321700Y533400D03*
D15*
X335480Y524190D02*
X335480Y517210D01*
X335480Y524190D02*
X342460Y524190D01*
X342460Y517210D01*
X335480Y517210D01*
X335480Y522010D02*
X342460Y522010D01*
X317940Y524190D02*
X317940Y517210D01*
X317940Y524190D02*
X324920Y524190D01*
X324920Y517210D01*
X317940Y517210D01*
X317940Y522010D02*
X324920Y522010D01*
D13*
X338700Y457200D03*
X321700Y457200D03*
D15*
X335480Y447990D02*
X335480Y441010D01*
X335480Y447990D02*
X342460Y447990D01*
X342460Y441010D01*
X335480Y441010D01*
X335480Y445810D02*
X342460Y445810D01*
X317940Y447990D02*
X317940Y441010D01*
X317940Y447990D02*
X324920Y447990D01*
X324920Y441010D01*
X317940Y441010D01*
X317940Y445810D02*
X324920Y445810D01*
D35*
X-21750Y456100D03*
X-41750Y456100D03*
D36*
X2250Y404100D03*
X-65750Y404100D03*
D40*
X79050Y152800D03*
X79050Y177800D03*
X79050Y202800D03*
X22550Y152800D03*
X22550Y177800D03*
X22550Y202800D03*
D41*
X50800Y162800D03*
X50800Y192800D03*
D40*
X22550Y329800D03*
X22550Y304800D03*
X22550Y279800D03*
X79050Y329800D03*
X79050Y304800D03*
X79050Y279800D03*
D41*
X50800Y319800D03*
X50800Y289800D03*
D42*
X577850Y980440D03*
X577850Y924560D03*
X539750Y980440D03*
X539750Y924560D03*
X577850Y866140D03*
X577850Y810260D03*
X539750Y866140D03*
X539750Y810260D03*
D26*
X10950Y860100D03*
X10950Y917900D03*
D43*
X19350Y45700D03*
D44*
X75350Y13700D03*
X850Y13700D03*
D43*
X31850Y45700D03*
X44350Y45700D03*
X56850Y45700D03*
X476550Y45700D03*
D44*
X532550Y13700D03*
X458050Y13700D03*
D43*
X489050Y45700D03*
X501550Y45700D03*
X514050Y45700D03*
D13*
X199000Y609600D03*
X182000Y609600D03*
D15*
X195780Y600390D02*
X195780Y593410D01*
X195780Y600390D02*
X202760Y600390D01*
X202760Y593410D01*
X195780Y593410D01*
X195780Y598210D02*
X202760Y598210D01*
X178240Y600390D02*
X178240Y593410D01*
X178240Y600390D02*
X185220Y600390D01*
X185220Y593410D01*
X178240Y593410D01*
X178240Y598210D02*
X185220Y598210D01*
D39*
X76200Y69850D03*
X50800Y69850D03*
X25400Y69850D03*
X0Y69850D03*
X533400Y69850D03*
X508000Y69850D03*
X482600Y69850D03*
X457200Y69850D03*
X114300Y190500D03*
X114300Y215900D03*
X114300Y241300D03*
X114300Y266700D03*
X457200Y228600D03*
X457200Y254000D03*
X457200Y279400D03*
X457200Y304800D03*
D31*
X412200Y254700D03*
D32*
X412200Y262700D03*
X412200Y270700D03*
D31*
X425400Y254700D03*
D32*
X425400Y262700D03*
X425400Y270700D03*
D33*
X425300Y278700D03*
D31*
X412200Y278700D03*
D39*
X393700Y825500D03*
X393700Y850900D03*
X393700Y876300D03*
X393700Y901700D03*
X-50800Y330200D03*
X-50800Y304800D03*
M02*
