M48
;GenerationSoftware,Autodesk,EAGLE,9.6.2*%
;CreationDate,2021-01-18T21:07:04Z*%
FMAT,2
ICI,OFF
METRIC,TZ,000.000
T7C0.305
T6C0.350
T5C0.381
T4C0.400
T3C0.650
T2C1.016
T1C3.200
%
G90
M71
T1
X63499Y78006
X63499Y27994
X6501Y27994
X6501Y78006
T2
X10620Y47000
X48749Y55261
X55251Y55261
X48749Y50739
X62000Y45620
X55251Y50739
X14749Y55261
X21251Y55261
X41985Y7645
X14749Y50739
X17000Y29000
X17000Y26460
X17000Y23920
X17000Y21380
X17000Y18840
X21030Y102530
X21030Y99990
X62000Y38000
X62000Y40540
X62000Y43080
X54050Y17170
X15950Y6915
X13410Y6915
X10870Y6915
X8330Y6915
X61670Y17170
X59130Y17170
X56590Y17170
X21251Y50739
X54050Y23790
X54050Y26330
X54050Y28870
X54050Y31410
X3250Y33950
X3250Y31410
X39445Y7645
X15950Y108372
X18490Y108372
X63500Y97760
X63500Y95220
X3000Y47000
X5540Y47000
X8080Y47000
T3
X32110Y4422
X37890Y4422
X43540Y4422
X49320Y4422
T4
X39318Y772
X39318Y4952
X30682Y4952
X42112Y772
X50748Y772
X50748Y4952
X42112Y4952
X30682Y772
T5
X19200Y98900
X32587Y6756
X37540Y6756
X60400Y44892
X47000Y44900
T6
X23600Y98500
T7
X39191Y26000
X41350Y26000
X43382Y26000
X26491Y26000
X28650Y19904
X30809Y19904
X32968Y19904
X35000Y19904
X37159Y19904
X39191Y19904
X41350Y19904
X43382Y19904
X26491Y19904
X27000Y17000
X39000Y17000
X36000Y17000
X38000Y17000
X40000Y17000
X42000Y17000
X26000Y17000
X24000Y35000
X25856Y35017
X28000Y35000
X32000Y35000
X38000Y35000
X40000Y35000
X42000Y35000
X44000Y35000
X46000Y35000
X47000Y33000
X46684Y26127
X47000Y23000
X47000Y22000
X47000Y20000
X47000Y18000
X47000Y34000
X43500Y18000
X46000Y17000
X44000Y17000
X28000Y17000
X28215Y15313
X27453Y14624
X26750Y13860
X25760Y13200
X24586Y14614
X23824Y13725
X24840Y11682
X22554Y7804
X21538Y8280
X26110Y8407
X20141Y8153
X18363Y7550
X24713Y7550
X18109Y6153
X18109Y4756
X18109Y3359
X18109Y565
X18109Y1962
X25856Y12344
X26745Y12860
X24000Y17000
X23100Y18500
X25000Y18000
X22808Y12836
X27934Y13122
X28523Y14138
X29412Y14697
X27561Y11682
X27634Y7550
X29031Y7423
X28904Y6153
X28904Y4629
X28904Y3486
X28904Y1962
X28904Y565
X30047Y17237
X26500Y18000
X26364Y33747
X25094Y33747
X43509Y33747
X45033Y33874
X45000Y18000
X22681Y9423
X24713Y9423
X31190Y94910
X31190Y96180
X38810Y96180
X38810Y94910
X37540Y89830
X36270Y89830
X35000Y89830
X33730Y89830
X32460Y89830
X31190Y89830
X31190Y97450
X32460Y97450
X33730Y97450
X35000Y97450
X36270Y97450
X37540Y97450
X38810Y97450
X38810Y89830
X33730Y96180
X33730Y94910
X35000Y94910
X35000Y96180
X36270Y96180
X36270Y94910
X59384Y2724
X49732Y6788
X24967Y101260
X44906Y101260
X40588Y101260
X28396Y101260
X40715Y84877
X40715Y81829
X14426Y106467
X47000Y21000
X51129Y8280
X46430Y12233
X52700Y63900
X57900Y63100
X59000Y70403
X57500Y74003
X49200Y98103
X32000Y49000
X36600Y48900
X37100Y43900
X44100Y45900
X44100Y43900
X58100Y77103
X49300Y94203
X19100Y100400
X13400Y100600
X15400Y98800
X26618Y21936
X34000Y40000
X36500Y40000
X28700Y42900
X30000Y49000
X29200Y55100
X27100Y45300
X21700Y42000
X3300Y43100
X56800Y45900
X39700Y46000
X19200Y29400
X18000Y44000
X18000Y60000
X18000Y91000
X29000Y99000
X46000Y60000
X31800Y60000
X19760Y76368
X19200Y30600
X19000Y43200
X19000Y54000
X19000Y91000
X29000Y95000
X21000Y95000
X49000Y58000
X31100Y58000
X33349Y34966
X33400Y45000
X13500Y63500
X33115Y63373
X35000Y14570
X28000Y40000
X32460Y14570
X30000Y40000
X11800Y37760
X51927Y37841
X13400Y36700
X52834Y36744
X58177Y37000
X55000Y57000
X16000Y57000
X17000Y96000
X26800Y49800
X15000Y88000
X24413Y84877
X13000Y92000
X50000Y96000
X44700Y98800
X21000Y74200
X45700Y74200
X21000Y41000
X12000Y72000
X47000Y72000
X15900Y42603
X40969Y89957
X51256Y89957
X49516Y31098
X25094Y91227
X50898Y29708
X41455Y91332
X42328Y66040
X64000Y66000
X61000Y97500
X51530Y97409
X40969Y80051
X21030Y80051
X47720Y17145
X41261Y79213
X20903Y78908
X47720Y16129
X44017Y7391
X48843Y7391
X46557Y7518
X25094Y92882
X51764Y29632
X41477Y92370
X64000Y71000
X42684Y70993
X24967Y100117
X50532Y30528
X40461Y99990
X41972Y69850
X17000Y75000
X44500Y75000
X44700Y95000
X53034Y76495
X55955Y2819
X44779Y91227
X46100Y41600
X44779Y92497
X47000Y42000
X56000Y58000
X58190Y53000
X33000Y54000
X40067Y88600
X39600Y77900
X28300Y78000
X38200Y78900
X34993Y40293
X44672Y96266
X44164Y53721
X34206Y53700
X29000Y87400
X15970Y33020
X14700Y66040
X35635Y66040
X12160Y31750
X29540Y52900
X12903Y52200
X19300Y20600
X34040Y55000
X20000Y53000
X25000Y52000
X25000Y88600
X47000Y65000
X30828Y64828
X39500Y81900
X38800Y40100
X60063Y66191
X61039Y70358
X56000Y62000
X56000Y69100
X52000Y68000
X48506Y63781
X48506Y60479
X44100Y44800
X38000Y49000
X47967Y39575
X48600Y46800
X46557Y15078
X40746Y10425
X33750Y14910
X48736Y10679
X30505Y61150
X54070Y38735
X43128Y6534
X46067Y47600
X12160Y45720
X23600Y61600
X23600Y47600
X57733Y2724
X14045Y2724
X31000Y14000
X33857Y12090
X37794Y8439
X31571Y6788
X12000Y94000
X22000Y94000
X32000Y40000
X28777Y28032
X30936Y28032
X33095Y28032
X35127Y28032
X37286Y28032
X39318Y28032
X41477Y28032
X43509Y28032
X26618Y28032
X28650Y30064
X30809Y30064
X32968Y30064
X35000Y30064
X37159Y30064
X39191Y30064
X41350Y30064
X43382Y30064
X26491Y30064
X28650Y32096
X30809Y32096
X32968Y32096
X35000Y32096
X37159Y32096
X39191Y32096
X41350Y32096
X43382Y32096
X26491Y32096
X28777Y21936
X30800Y21800
X33000Y22000
X35000Y22000
X37000Y22000
X39318Y21936
X41477Y21936
X43509Y21936
X28650Y23968
X30800Y23900
X33000Y24000
X35000Y24000
X37000Y24000
X39191Y23968
X41350Y23968
X43382Y23968
X26491Y23968
X28650Y26000
X30809Y26000
X33000Y26000
X35000Y26000
X37000Y26000
X29300Y78900
M30