G04 EAGLE Gerber RS-274X export*
G75*
%MOMM*%
%FSLAX34Y34*%
%LPD*%
%INSoldermask Top*%
%IPPOS*%
%AMOC8*
5,1,8,0,0,1.08239X$1,22.5*%
G01*
%ADD10C,0.838200*%
%ADD11R,1.303200X1.203200*%
%ADD12R,4.200000X1.700000*%
%ADD13C,0.505344*%
%ADD14R,0.833200X1.033200*%
%ADD15R,1.203200X1.303200*%
%ADD16R,1.403200X0.753200*%
%ADD17R,1.103200X1.053200*%
%ADD18R,0.803200X0.803200*%
%ADD19R,1.053200X1.723200*%
%ADD20R,1.723200X1.053200*%
%ADD21R,1.303200X1.303200*%
%ADD22R,0.503200X1.203200*%
%ADD23R,0.803200X1.203200*%
%ADD24C,0.853200*%
%ADD25R,0.453200X0.813200*%
%ADD26R,0.453200X0.763200*%
%ADD27R,1.353200X7.203200*%
%ADD28R,1.103200X2.403200*%
%ADD29R,0.620000X0.840000*%
%ADD30R,0.620000X0.560000*%
%ADD31R,0.640000X0.840000*%
%ADD32C,3.403600*%
%ADD33R,1.203200X4.803200*%
%ADD34R,1.803200X3.603200*%
%ADD35R,4.803200X1.203200*%
%ADD36R,3.603200X1.803200*%
%ADD37C,2.082800*%
%ADD38R,1.353200X1.203200*%
%ADD39C,1.053200*%
%ADD40R,0.965200X1.727200*%
%ADD41R,0.803200X1.903200*%
%ADD42R,1.203200X2.903200*%
%ADD43R,2.003200X0.953200*%
%ADD44R,0.838200X1.473200*%

G36*
X251242Y455563D02*
X251242Y455563D01*
X251286Y455566D01*
X251308Y455582D01*
X251334Y455590D01*
X251363Y455623D01*
X251398Y455649D01*
X251408Y455675D01*
X251426Y455695D01*
X251433Y455739D01*
X251448Y455779D01*
X251443Y455806D01*
X251447Y455833D01*
X251429Y455874D01*
X251420Y455916D01*
X251394Y455952D01*
X251390Y455961D01*
X251385Y455965D01*
X251376Y455976D01*
X227376Y479976D01*
X227338Y479997D01*
X227305Y480026D01*
X227278Y480030D01*
X227254Y480043D01*
X227210Y480040D01*
X227167Y480047D01*
X227142Y480036D01*
X227114Y480034D01*
X227079Y480008D01*
X227039Y479990D01*
X227024Y479967D01*
X227002Y479951D01*
X226986Y479910D01*
X226962Y479874D01*
X226955Y479830D01*
X226952Y479821D01*
X226953Y479814D01*
X226951Y479800D01*
X226951Y455800D01*
X226956Y455784D01*
X226953Y455767D01*
X226975Y455717D01*
X226990Y455666D01*
X227003Y455655D01*
X227010Y455639D01*
X227055Y455609D01*
X227095Y455574D01*
X227112Y455571D01*
X227127Y455562D01*
X227200Y455551D01*
X251200Y455551D01*
X251242Y455563D01*
G37*
G36*
X298484Y31453D02*
X298484Y31453D01*
X298490Y31459D01*
X298495Y31455D01*
X299725Y31820D01*
X299730Y31827D01*
X299735Y31825D01*
X300854Y32455D01*
X300857Y32462D01*
X300863Y32461D01*
X301813Y33324D01*
X301814Y33332D01*
X301820Y33332D01*
X302554Y34385D01*
X302554Y34393D01*
X302559Y34395D01*
X303041Y35585D01*
X303039Y35590D01*
X303043Y35593D01*
X303042Y35594D01*
X303044Y35595D01*
X303249Y36862D01*
X303246Y36867D01*
X303249Y36870D01*
X303249Y48870D01*
X303246Y48874D01*
X303249Y48877D01*
X303094Y49999D01*
X303089Y50004D01*
X303092Y50008D01*
X302721Y51079D01*
X302715Y51083D01*
X302717Y51088D01*
X302144Y52065D01*
X302138Y52068D01*
X302139Y52073D01*
X301386Y52920D01*
X301379Y52922D01*
X301379Y52927D01*
X300476Y53611D01*
X300469Y53611D01*
X300468Y53616D01*
X299449Y54111D01*
X299442Y54109D01*
X299440Y54114D01*
X298343Y54401D01*
X298337Y54398D01*
X298334Y54402D01*
X297203Y54469D01*
X297197Y54469D01*
X296066Y54402D01*
X296061Y54397D01*
X296057Y54401D01*
X294960Y54114D01*
X294956Y54108D01*
X294951Y54111D01*
X293932Y53616D01*
X293929Y53610D01*
X293924Y53611D01*
X293021Y52927D01*
X293019Y52920D01*
X293014Y52920D01*
X292261Y52073D01*
X292261Y52066D01*
X292256Y52065D01*
X291683Y51088D01*
X291684Y51085D01*
X291683Y51084D01*
X291684Y51083D01*
X291684Y51081D01*
X291679Y51079D01*
X291308Y50008D01*
X291310Y50003D01*
X291307Y50001D01*
X291307Y50000D01*
X291306Y49999D01*
X291151Y48877D01*
X291154Y48872D01*
X291151Y48870D01*
X291151Y36870D01*
X291154Y36865D01*
X291151Y36862D01*
X291356Y35595D01*
X291362Y35589D01*
X291359Y35585D01*
X291841Y34395D01*
X291848Y34391D01*
X291846Y34385D01*
X292580Y33332D01*
X292588Y33330D01*
X292587Y33324D01*
X293537Y32461D01*
X293546Y32460D01*
X293546Y32455D01*
X294665Y31825D01*
X294673Y31826D01*
X294675Y31820D01*
X295905Y31455D01*
X295913Y31458D01*
X295916Y31453D01*
X297197Y31371D01*
X297201Y31374D01*
X297203Y31371D01*
X298484Y31453D01*
G37*
G36*
X412784Y31453D02*
X412784Y31453D01*
X412790Y31459D01*
X412795Y31455D01*
X414025Y31820D01*
X414030Y31827D01*
X414035Y31825D01*
X415154Y32455D01*
X415157Y32462D01*
X415163Y32461D01*
X416113Y33324D01*
X416114Y33332D01*
X416120Y33332D01*
X416854Y34385D01*
X416854Y34393D01*
X416859Y34395D01*
X417341Y35585D01*
X417339Y35590D01*
X417343Y35593D01*
X417342Y35594D01*
X417344Y35595D01*
X417549Y36862D01*
X417546Y36867D01*
X417549Y36870D01*
X417549Y48870D01*
X417546Y48874D01*
X417549Y48877D01*
X417394Y49999D01*
X417389Y50004D01*
X417392Y50008D01*
X417021Y51079D01*
X417015Y51083D01*
X417017Y51088D01*
X416444Y52065D01*
X416438Y52068D01*
X416439Y52073D01*
X415686Y52920D01*
X415679Y52922D01*
X415679Y52927D01*
X414776Y53611D01*
X414769Y53611D01*
X414768Y53616D01*
X413749Y54111D01*
X413742Y54109D01*
X413740Y54114D01*
X412643Y54401D01*
X412637Y54398D01*
X412634Y54402D01*
X411503Y54469D01*
X411497Y54469D01*
X410366Y54402D01*
X410361Y54397D01*
X410357Y54401D01*
X409260Y54114D01*
X409256Y54108D01*
X409251Y54111D01*
X408232Y53616D01*
X408229Y53610D01*
X408224Y53611D01*
X407321Y52927D01*
X407319Y52920D01*
X407314Y52920D01*
X406561Y52073D01*
X406561Y52066D01*
X406556Y52065D01*
X405983Y51088D01*
X405984Y51085D01*
X405983Y51084D01*
X405984Y51083D01*
X405984Y51081D01*
X405979Y51079D01*
X405608Y50008D01*
X405610Y50003D01*
X405607Y50001D01*
X405607Y50000D01*
X405606Y49999D01*
X405451Y48877D01*
X405454Y48872D01*
X405451Y48870D01*
X405451Y36870D01*
X405454Y36865D01*
X405451Y36862D01*
X405656Y35595D01*
X405662Y35589D01*
X405659Y35585D01*
X406141Y34395D01*
X406148Y34391D01*
X406146Y34385D01*
X406880Y33332D01*
X406888Y33330D01*
X406887Y33324D01*
X407837Y32461D01*
X407846Y32460D01*
X407846Y32455D01*
X408965Y31825D01*
X408973Y31826D01*
X408975Y31820D01*
X410205Y31455D01*
X410213Y31458D01*
X410216Y31453D01*
X411497Y31371D01*
X411501Y31374D01*
X411503Y31371D01*
X412784Y31453D01*
G37*
G36*
X326384Y31453D02*
X326384Y31453D01*
X326390Y31459D01*
X326395Y31455D01*
X327625Y31820D01*
X327630Y31827D01*
X327635Y31825D01*
X328754Y32455D01*
X328757Y32462D01*
X328763Y32461D01*
X329713Y33324D01*
X329714Y33332D01*
X329720Y33332D01*
X330454Y34385D01*
X330454Y34393D01*
X330459Y34395D01*
X330941Y35585D01*
X330939Y35590D01*
X330943Y35593D01*
X330942Y35594D01*
X330944Y35595D01*
X331149Y36862D01*
X331146Y36867D01*
X331149Y36870D01*
X331149Y48870D01*
X331146Y48874D01*
X331149Y48877D01*
X330994Y49999D01*
X330989Y50004D01*
X330992Y50008D01*
X330621Y51079D01*
X330615Y51083D01*
X330617Y51088D01*
X330044Y52065D01*
X330038Y52068D01*
X330039Y52073D01*
X329286Y52920D01*
X329279Y52922D01*
X329279Y52927D01*
X328376Y53611D01*
X328369Y53611D01*
X328368Y53616D01*
X327349Y54111D01*
X327342Y54109D01*
X327340Y54114D01*
X326243Y54401D01*
X326237Y54398D01*
X326234Y54402D01*
X325103Y54469D01*
X325097Y54469D01*
X323966Y54402D01*
X323961Y54397D01*
X323957Y54401D01*
X322860Y54114D01*
X322856Y54108D01*
X322851Y54111D01*
X321832Y53616D01*
X321829Y53610D01*
X321824Y53611D01*
X320921Y52927D01*
X320919Y52920D01*
X320914Y52920D01*
X320161Y52073D01*
X320161Y52066D01*
X320156Y52065D01*
X319583Y51088D01*
X319584Y51085D01*
X319583Y51084D01*
X319584Y51083D01*
X319584Y51081D01*
X319579Y51079D01*
X319208Y50008D01*
X319210Y50003D01*
X319207Y50001D01*
X319207Y50000D01*
X319206Y49999D01*
X319051Y48877D01*
X319054Y48872D01*
X319051Y48870D01*
X319051Y36870D01*
X319054Y36865D01*
X319051Y36862D01*
X319256Y35595D01*
X319262Y35589D01*
X319259Y35585D01*
X319741Y34395D01*
X319748Y34391D01*
X319746Y34385D01*
X320480Y33332D01*
X320488Y33330D01*
X320487Y33324D01*
X321437Y32461D01*
X321446Y32460D01*
X321446Y32455D01*
X322565Y31825D01*
X322573Y31826D01*
X322575Y31820D01*
X323805Y31455D01*
X323813Y31458D01*
X323816Y31453D01*
X325097Y31371D01*
X325101Y31374D01*
X325103Y31371D01*
X326384Y31453D01*
G37*
G36*
X212084Y31453D02*
X212084Y31453D01*
X212090Y31459D01*
X212095Y31455D01*
X213325Y31820D01*
X213330Y31827D01*
X213335Y31825D01*
X214454Y32455D01*
X214457Y32462D01*
X214463Y32461D01*
X215413Y33324D01*
X215414Y33332D01*
X215420Y33332D01*
X216154Y34385D01*
X216154Y34393D01*
X216159Y34395D01*
X216641Y35585D01*
X216639Y35590D01*
X216643Y35593D01*
X216642Y35594D01*
X216644Y35595D01*
X216849Y36862D01*
X216846Y36867D01*
X216849Y36870D01*
X216849Y48870D01*
X216846Y48874D01*
X216849Y48877D01*
X216694Y49999D01*
X216689Y50004D01*
X216692Y50008D01*
X216321Y51079D01*
X216315Y51083D01*
X216317Y51088D01*
X215744Y52065D01*
X215738Y52068D01*
X215739Y52073D01*
X214986Y52920D01*
X214979Y52922D01*
X214979Y52927D01*
X214076Y53611D01*
X214069Y53611D01*
X214068Y53616D01*
X213049Y54111D01*
X213042Y54109D01*
X213040Y54114D01*
X211943Y54401D01*
X211937Y54398D01*
X211934Y54402D01*
X210803Y54469D01*
X210797Y54469D01*
X209666Y54402D01*
X209661Y54397D01*
X209657Y54401D01*
X208560Y54114D01*
X208556Y54108D01*
X208551Y54111D01*
X207532Y53616D01*
X207529Y53610D01*
X207524Y53611D01*
X206621Y52927D01*
X206619Y52920D01*
X206614Y52920D01*
X205861Y52073D01*
X205861Y52066D01*
X205856Y52065D01*
X205283Y51088D01*
X205284Y51085D01*
X205283Y51084D01*
X205284Y51083D01*
X205284Y51081D01*
X205279Y51079D01*
X204908Y50008D01*
X204910Y50003D01*
X204907Y50001D01*
X204907Y50000D01*
X204906Y49999D01*
X204751Y48877D01*
X204754Y48872D01*
X204751Y48870D01*
X204751Y36870D01*
X204754Y36865D01*
X204751Y36862D01*
X204956Y35595D01*
X204962Y35589D01*
X204959Y35585D01*
X205441Y34395D01*
X205448Y34391D01*
X205446Y34385D01*
X206180Y33332D01*
X206188Y33330D01*
X206187Y33324D01*
X207137Y32461D01*
X207146Y32460D01*
X207146Y32455D01*
X208265Y31825D01*
X208273Y31826D01*
X208275Y31820D01*
X209505Y31455D01*
X209513Y31458D01*
X209516Y31453D01*
X210797Y31371D01*
X210801Y31374D01*
X210803Y31371D01*
X212084Y31453D01*
G37*
G36*
X298371Y-7819D02*
X298371Y-7819D01*
X298376Y-7814D01*
X298380Y-7817D01*
X299503Y-7482D01*
X299507Y-7476D01*
X299511Y-7478D01*
X300547Y-6930D01*
X300550Y-6924D01*
X300555Y-6925D01*
X301463Y-6186D01*
X301465Y-6179D01*
X301470Y-6179D01*
X302217Y-5277D01*
X302217Y-5270D01*
X302223Y-5269D01*
X302779Y-4238D01*
X302778Y-4231D01*
X302783Y-4229D01*
X303127Y-3110D01*
X303125Y-3103D01*
X303129Y-3100D01*
X303249Y-1935D01*
X303247Y-1932D01*
X303249Y-1930D01*
X303249Y4070D01*
X303247Y4073D01*
X303249Y4075D01*
X303138Y5251D01*
X303133Y5256D01*
X303136Y5260D01*
X302798Y6392D01*
X302792Y6396D01*
X302794Y6401D01*
X302242Y7445D01*
X302235Y7448D01*
X302237Y7453D01*
X301491Y8369D01*
X301484Y8370D01*
X301484Y8376D01*
X300575Y9129D01*
X300567Y9129D01*
X300567Y9134D01*
X299527Y9695D01*
X299520Y9694D01*
X299518Y9699D01*
X298389Y10046D01*
X298383Y10044D01*
X298380Y10048D01*
X297205Y10169D01*
X297198Y10165D01*
X297194Y10169D01*
X295854Y10012D01*
X295848Y10007D01*
X295843Y10010D01*
X294572Y9559D01*
X294567Y9552D01*
X294562Y9554D01*
X293423Y8832D01*
X293420Y8824D01*
X293414Y8825D01*
X292464Y7867D01*
X292463Y7859D01*
X292457Y7858D01*
X291744Y6713D01*
X291745Y6705D01*
X291739Y6703D01*
X291299Y5427D01*
X291301Y5420D01*
X291297Y5417D01*
X291151Y4075D01*
X291153Y4072D01*
X291151Y4070D01*
X291151Y-1930D01*
X291153Y-1934D01*
X291151Y-1936D01*
X291306Y-3265D01*
X291312Y-3271D01*
X291309Y-3275D01*
X291756Y-4536D01*
X291763Y-4541D01*
X291761Y-4546D01*
X292478Y-5676D01*
X292485Y-5679D01*
X292484Y-5685D01*
X293435Y-6627D01*
X293443Y-6628D01*
X293443Y-6634D01*
X294579Y-7341D01*
X294587Y-7340D01*
X294589Y-7346D01*
X295854Y-7782D01*
X295859Y-7781D01*
X295860Y-7782D01*
X295863Y-7782D01*
X295865Y-7785D01*
X297195Y-7929D01*
X297201Y-7925D01*
X297205Y-7929D01*
X298371Y-7819D01*
G37*
G36*
X326271Y-7819D02*
X326271Y-7819D01*
X326276Y-7814D01*
X326280Y-7817D01*
X327403Y-7482D01*
X327407Y-7476D01*
X327411Y-7478D01*
X328447Y-6930D01*
X328450Y-6924D01*
X328455Y-6925D01*
X329363Y-6186D01*
X329365Y-6179D01*
X329370Y-6179D01*
X330117Y-5277D01*
X330117Y-5270D01*
X330123Y-5269D01*
X330679Y-4238D01*
X330678Y-4231D01*
X330683Y-4229D01*
X331027Y-3110D01*
X331025Y-3103D01*
X331029Y-3100D01*
X331149Y-1935D01*
X331147Y-1932D01*
X331149Y-1930D01*
X331149Y4070D01*
X331147Y4073D01*
X331149Y4075D01*
X331038Y5251D01*
X331033Y5256D01*
X331036Y5260D01*
X330698Y6392D01*
X330692Y6396D01*
X330694Y6401D01*
X330142Y7445D01*
X330135Y7448D01*
X330137Y7453D01*
X329391Y8369D01*
X329384Y8370D01*
X329384Y8376D01*
X328475Y9129D01*
X328467Y9129D01*
X328467Y9134D01*
X327427Y9695D01*
X327420Y9694D01*
X327418Y9699D01*
X326289Y10046D01*
X326283Y10044D01*
X326280Y10048D01*
X325105Y10169D01*
X325098Y10165D01*
X325094Y10169D01*
X323754Y10012D01*
X323748Y10007D01*
X323743Y10010D01*
X322472Y9559D01*
X322467Y9552D01*
X322462Y9554D01*
X321323Y8832D01*
X321320Y8824D01*
X321314Y8825D01*
X320364Y7867D01*
X320363Y7859D01*
X320357Y7858D01*
X319644Y6713D01*
X319645Y6705D01*
X319639Y6703D01*
X319199Y5427D01*
X319201Y5420D01*
X319197Y5417D01*
X319051Y4075D01*
X319053Y4072D01*
X319051Y4070D01*
X319051Y-1930D01*
X319053Y-1934D01*
X319051Y-1936D01*
X319206Y-3265D01*
X319212Y-3271D01*
X319209Y-3275D01*
X319656Y-4536D01*
X319663Y-4541D01*
X319661Y-4546D01*
X320378Y-5676D01*
X320385Y-5679D01*
X320384Y-5685D01*
X321335Y-6627D01*
X321343Y-6628D01*
X321343Y-6634D01*
X322479Y-7341D01*
X322487Y-7340D01*
X322489Y-7346D01*
X323754Y-7782D01*
X323759Y-7781D01*
X323760Y-7782D01*
X323763Y-7782D01*
X323765Y-7785D01*
X325095Y-7929D01*
X325101Y-7925D01*
X325105Y-7929D01*
X326271Y-7819D01*
G37*
G36*
X412671Y-7819D02*
X412671Y-7819D01*
X412676Y-7814D01*
X412680Y-7817D01*
X413803Y-7482D01*
X413807Y-7476D01*
X413811Y-7478D01*
X414847Y-6930D01*
X414850Y-6924D01*
X414855Y-6925D01*
X415763Y-6186D01*
X415765Y-6179D01*
X415770Y-6179D01*
X416517Y-5277D01*
X416517Y-5270D01*
X416523Y-5269D01*
X417079Y-4238D01*
X417078Y-4231D01*
X417083Y-4229D01*
X417427Y-3110D01*
X417425Y-3103D01*
X417429Y-3100D01*
X417549Y-1935D01*
X417547Y-1932D01*
X417549Y-1930D01*
X417549Y4070D01*
X417547Y4073D01*
X417549Y4075D01*
X417438Y5251D01*
X417433Y5256D01*
X417436Y5260D01*
X417098Y6392D01*
X417092Y6396D01*
X417094Y6401D01*
X416542Y7445D01*
X416535Y7448D01*
X416537Y7453D01*
X415791Y8369D01*
X415784Y8370D01*
X415784Y8376D01*
X414875Y9129D01*
X414867Y9129D01*
X414867Y9134D01*
X413827Y9695D01*
X413820Y9694D01*
X413818Y9699D01*
X412689Y10046D01*
X412683Y10044D01*
X412680Y10048D01*
X411505Y10169D01*
X411498Y10165D01*
X411494Y10169D01*
X410154Y10012D01*
X410148Y10007D01*
X410143Y10010D01*
X408872Y9559D01*
X408867Y9552D01*
X408862Y9554D01*
X407723Y8832D01*
X407720Y8824D01*
X407714Y8825D01*
X406764Y7867D01*
X406763Y7859D01*
X406757Y7858D01*
X406044Y6713D01*
X406045Y6705D01*
X406039Y6703D01*
X405599Y5427D01*
X405601Y5420D01*
X405597Y5417D01*
X405451Y4075D01*
X405453Y4072D01*
X405451Y4070D01*
X405451Y-1930D01*
X405453Y-1934D01*
X405451Y-1936D01*
X405606Y-3265D01*
X405612Y-3271D01*
X405609Y-3275D01*
X406056Y-4536D01*
X406063Y-4541D01*
X406061Y-4546D01*
X406778Y-5676D01*
X406785Y-5679D01*
X406784Y-5685D01*
X407735Y-6627D01*
X407743Y-6628D01*
X407743Y-6634D01*
X408879Y-7341D01*
X408887Y-7340D01*
X408889Y-7346D01*
X410154Y-7782D01*
X410159Y-7781D01*
X410160Y-7782D01*
X410163Y-7782D01*
X410165Y-7785D01*
X411495Y-7929D01*
X411501Y-7925D01*
X411505Y-7929D01*
X412671Y-7819D01*
G37*
G36*
X211971Y-7819D02*
X211971Y-7819D01*
X211976Y-7814D01*
X211980Y-7817D01*
X213103Y-7482D01*
X213107Y-7476D01*
X213111Y-7478D01*
X214147Y-6930D01*
X214150Y-6924D01*
X214155Y-6925D01*
X215063Y-6186D01*
X215065Y-6179D01*
X215070Y-6179D01*
X215817Y-5277D01*
X215817Y-5270D01*
X215823Y-5269D01*
X216379Y-4238D01*
X216378Y-4231D01*
X216383Y-4229D01*
X216727Y-3110D01*
X216725Y-3103D01*
X216729Y-3100D01*
X216849Y-1935D01*
X216847Y-1932D01*
X216849Y-1930D01*
X216849Y4070D01*
X216847Y4073D01*
X216849Y4075D01*
X216738Y5251D01*
X216733Y5256D01*
X216736Y5260D01*
X216398Y6392D01*
X216392Y6396D01*
X216394Y6401D01*
X215842Y7445D01*
X215835Y7448D01*
X215837Y7453D01*
X215091Y8369D01*
X215084Y8370D01*
X215084Y8376D01*
X214175Y9129D01*
X214167Y9129D01*
X214167Y9134D01*
X213127Y9695D01*
X213120Y9694D01*
X213118Y9699D01*
X211989Y10046D01*
X211983Y10044D01*
X211980Y10048D01*
X210805Y10169D01*
X210798Y10165D01*
X210794Y10169D01*
X209454Y10012D01*
X209448Y10007D01*
X209443Y10010D01*
X208172Y9559D01*
X208167Y9552D01*
X208162Y9554D01*
X207023Y8832D01*
X207020Y8824D01*
X207014Y8825D01*
X206064Y7867D01*
X206063Y7859D01*
X206057Y7858D01*
X205344Y6713D01*
X205345Y6705D01*
X205339Y6703D01*
X204899Y5427D01*
X204901Y5420D01*
X204897Y5417D01*
X204751Y4075D01*
X204753Y4072D01*
X204751Y4070D01*
X204751Y-1930D01*
X204753Y-1934D01*
X204751Y-1936D01*
X204906Y-3265D01*
X204912Y-3271D01*
X204909Y-3275D01*
X205356Y-4536D01*
X205363Y-4541D01*
X205361Y-4546D01*
X206078Y-5676D01*
X206085Y-5679D01*
X206084Y-5685D01*
X207035Y-6627D01*
X207043Y-6628D01*
X207043Y-6634D01*
X208179Y-7341D01*
X208187Y-7340D01*
X208189Y-7346D01*
X209454Y-7782D01*
X209459Y-7781D01*
X209460Y-7782D01*
X209463Y-7782D01*
X209465Y-7785D01*
X210795Y-7929D01*
X210801Y-7925D01*
X210805Y-7929D01*
X211971Y-7819D01*
G37*
G36*
X78170Y1083703D02*
X78170Y1083703D01*
X78236Y1083705D01*
X78279Y1083723D01*
X78326Y1083731D01*
X78383Y1083765D01*
X78443Y1083790D01*
X78478Y1083821D01*
X78519Y1083846D01*
X78561Y1083897D01*
X78609Y1083941D01*
X78631Y1083983D01*
X78660Y1084020D01*
X78681Y1084082D01*
X78712Y1084141D01*
X78720Y1084195D01*
X78732Y1084232D01*
X78731Y1084272D01*
X78739Y1084326D01*
X78739Y1089914D01*
X78728Y1089979D01*
X78726Y1090045D01*
X78708Y1090088D01*
X78700Y1090135D01*
X78666Y1090192D01*
X78641Y1090252D01*
X78610Y1090287D01*
X78585Y1090328D01*
X78534Y1090370D01*
X78490Y1090418D01*
X78448Y1090440D01*
X78411Y1090469D01*
X78349Y1090490D01*
X78290Y1090521D01*
X78236Y1090529D01*
X78199Y1090541D01*
X78159Y1090540D01*
X78105Y1090548D01*
X74295Y1090548D01*
X74230Y1090537D01*
X74164Y1090535D01*
X74121Y1090517D01*
X74074Y1090509D01*
X74017Y1090475D01*
X73957Y1090450D01*
X73922Y1090419D01*
X73881Y1090394D01*
X73840Y1090343D01*
X73791Y1090299D01*
X73769Y1090257D01*
X73740Y1090220D01*
X73719Y1090158D01*
X73688Y1090099D01*
X73680Y1090045D01*
X73668Y1090008D01*
X73669Y1089968D01*
X73661Y1089914D01*
X73661Y1084326D01*
X73672Y1084261D01*
X73674Y1084195D01*
X73692Y1084152D01*
X73700Y1084105D01*
X73734Y1084048D01*
X73759Y1083988D01*
X73790Y1083953D01*
X73815Y1083912D01*
X73866Y1083871D01*
X73910Y1083822D01*
X73952Y1083800D01*
X73989Y1083771D01*
X74051Y1083750D01*
X74110Y1083719D01*
X74164Y1083711D01*
X74201Y1083699D01*
X74241Y1083700D01*
X74295Y1083692D01*
X78105Y1083692D01*
X78170Y1083703D01*
G37*
G36*
X313120Y66433D02*
X313120Y66433D01*
X313186Y66435D01*
X313229Y66453D01*
X313276Y66461D01*
X313333Y66495D01*
X313393Y66520D01*
X313428Y66551D01*
X313469Y66576D01*
X313511Y66627D01*
X313559Y66671D01*
X313581Y66713D01*
X313610Y66750D01*
X313631Y66812D01*
X313662Y66871D01*
X313670Y66925D01*
X313682Y66962D01*
X313681Y67002D01*
X313689Y67056D01*
X313689Y72644D01*
X313678Y72709D01*
X313676Y72775D01*
X313658Y72818D01*
X313650Y72865D01*
X313616Y72922D01*
X313591Y72982D01*
X313560Y73017D01*
X313535Y73058D01*
X313484Y73100D01*
X313440Y73148D01*
X313398Y73170D01*
X313361Y73199D01*
X313299Y73220D01*
X313240Y73251D01*
X313186Y73259D01*
X313149Y73271D01*
X313109Y73270D01*
X313055Y73278D01*
X309245Y73278D01*
X309180Y73267D01*
X309114Y73265D01*
X309071Y73247D01*
X309024Y73239D01*
X308967Y73205D01*
X308907Y73180D01*
X308872Y73149D01*
X308831Y73124D01*
X308790Y73073D01*
X308741Y73029D01*
X308719Y72987D01*
X308690Y72950D01*
X308669Y72888D01*
X308638Y72829D01*
X308630Y72775D01*
X308618Y72738D01*
X308619Y72698D01*
X308611Y72644D01*
X308611Y67056D01*
X308622Y66991D01*
X308624Y66925D01*
X308642Y66882D01*
X308650Y66835D01*
X308684Y66778D01*
X308709Y66718D01*
X308740Y66683D01*
X308765Y66642D01*
X308816Y66601D01*
X308860Y66552D01*
X308902Y66530D01*
X308939Y66501D01*
X309001Y66480D01*
X309060Y66449D01*
X309114Y66441D01*
X309151Y66429D01*
X309191Y66430D01*
X309245Y66422D01*
X313055Y66422D01*
X313120Y66433D01*
G37*
D10*
X546100Y43500D03*
X-36300Y1052300D03*
D11*
X220100Y431800D03*
X237100Y431800D03*
D12*
X248000Y501100D03*
D13*
X315160Y536260D02*
X315160Y543240D01*
X322140Y543240D01*
X322140Y536260D01*
X315160Y536260D01*
X315160Y541060D02*
X322140Y541060D01*
X297620Y543240D02*
X297620Y536260D01*
X297620Y543240D02*
X304600Y543240D01*
X304600Y536260D01*
X297620Y536260D01*
X297620Y541060D02*
X304600Y541060D01*
D14*
X255200Y431800D03*
X278200Y431800D03*
D11*
X220100Y406400D03*
X237100Y406400D03*
X301380Y552450D03*
X318380Y552450D03*
D15*
X279400Y372500D03*
X279400Y389500D03*
X254000Y389500D03*
X254000Y372500D03*
D16*
X355901Y371500D03*
X355901Y381000D03*
X355901Y390500D03*
X329899Y390500D03*
X329899Y371500D03*
D15*
X381000Y372500D03*
X381000Y389500D03*
X177800Y389500D03*
X177800Y372500D03*
X203200Y389500D03*
X203200Y372500D03*
D13*
X315160Y460060D02*
X315160Y467040D01*
X322140Y467040D01*
X322140Y460060D01*
X315160Y460060D01*
X315160Y464860D02*
X322140Y464860D01*
X297620Y467040D02*
X297620Y460060D01*
X297620Y467040D02*
X304600Y467040D01*
X304600Y460060D01*
X297620Y460060D01*
X297620Y464860D02*
X304600Y464860D01*
D11*
X301380Y476250D03*
X318380Y476250D03*
D17*
X215900Y168360D03*
X215900Y156760D03*
D11*
X234070Y168910D03*
X251070Y168910D03*
D15*
X228600Y389500D03*
X228600Y372500D03*
D18*
X194390Y168910D03*
X204390Y168910D03*
D19*
X182500Y192200D03*
X193500Y192200D03*
X204500Y192200D03*
X215500Y192200D03*
X226500Y192200D03*
X237500Y192200D03*
X248500Y192200D03*
X259500Y192200D03*
X270500Y192200D03*
X281500Y192200D03*
X292500Y192200D03*
X303500Y192200D03*
X314500Y192200D03*
X325500Y192200D03*
D20*
X353500Y200700D03*
X353500Y211700D03*
X353500Y222700D03*
X353500Y233700D03*
X353500Y244700D03*
X353500Y255700D03*
X353500Y266700D03*
X353500Y277700D03*
X353500Y288700D03*
X353500Y299700D03*
X353500Y310700D03*
X353500Y321700D03*
X353500Y332700D03*
D19*
X325500Y341200D03*
X314500Y341200D03*
X303500Y341200D03*
X292500Y341200D03*
X281500Y341200D03*
X270500Y341200D03*
X259500Y341200D03*
X248500Y341200D03*
X237500Y341200D03*
X226500Y341200D03*
X215500Y341200D03*
X204500Y341200D03*
X193500Y341200D03*
X182500Y341200D03*
D20*
X154500Y332700D03*
X154500Y321700D03*
X154500Y310700D03*
X154500Y299700D03*
X154500Y288700D03*
X154500Y277700D03*
X154500Y266700D03*
X154500Y255700D03*
X154500Y244700D03*
X154500Y233700D03*
X154500Y222700D03*
X154500Y211700D03*
X154500Y200700D03*
D21*
X243500Y256200D03*
X222500Y256200D03*
X201500Y256200D03*
X180500Y256200D03*
X243500Y235700D03*
X222500Y235700D03*
X201500Y235700D03*
X180500Y235700D03*
X243500Y215200D03*
X222500Y215200D03*
X201500Y215200D03*
X180500Y215200D03*
X243500Y318200D03*
X222500Y318200D03*
X201500Y318200D03*
X180500Y318200D03*
X243500Y297700D03*
X222500Y297700D03*
X201500Y297700D03*
X180500Y297700D03*
X243500Y277200D03*
X222500Y277200D03*
X201500Y277200D03*
X180500Y277200D03*
X264500Y277200D03*
X285500Y277200D03*
X306500Y277200D03*
X327500Y277200D03*
X264500Y297700D03*
X285500Y297700D03*
X306500Y297700D03*
X327500Y297700D03*
X264500Y318200D03*
X285500Y318200D03*
X306500Y318200D03*
X327500Y318200D03*
X264500Y215200D03*
X285500Y215200D03*
X306500Y215200D03*
X327500Y215200D03*
X264500Y235700D03*
X285500Y235700D03*
X306500Y235700D03*
X327500Y235700D03*
X264500Y256200D03*
X285500Y256200D03*
X306500Y256200D03*
X327500Y256200D03*
D11*
X300600Y88900D03*
X283600Y88900D03*
X207400Y88900D03*
X224400Y88900D03*
D22*
X261500Y48670D03*
X256500Y48670D03*
D23*
X286250Y48670D03*
X278500Y48670D03*
D22*
X271500Y48670D03*
X266500Y48670D03*
X246500Y48670D03*
X251500Y48670D03*
D23*
X221750Y48670D03*
X229500Y48670D03*
D22*
X236500Y48670D03*
X241500Y48670D03*
D24*
X225100Y37620D03*
X282900Y37620D03*
D15*
X304800Y372500D03*
X304800Y389500D03*
D11*
X258200Y406400D03*
X275200Y406400D03*
D25*
X236300Y135650D03*
D26*
X241300Y135400D03*
X246300Y135400D03*
X246300Y144000D03*
X241300Y144000D03*
X236300Y144000D03*
D27*
X181100Y26110D03*
D28*
X139700Y72110D03*
D27*
X98300Y26110D03*
D29*
X120100Y292800D03*
D30*
X120100Y300800D03*
X120100Y308800D03*
D29*
X133300Y292800D03*
D30*
X133300Y300800D03*
X133300Y308800D03*
D31*
X133200Y316800D03*
D29*
X120100Y316800D03*
X120100Y229300D03*
D30*
X120100Y237300D03*
X120100Y245300D03*
D29*
X133300Y229300D03*
D30*
X133300Y237300D03*
X133300Y245300D03*
D31*
X133200Y253300D03*
D29*
X120100Y253300D03*
D15*
X127000Y334400D03*
X127000Y351400D03*
D32*
X-30988Y283337D03*
X-30988Y783463D03*
X538988Y783463D03*
X538988Y283337D03*
D11*
X84700Y377190D03*
X67700Y377190D03*
D13*
X81480Y357820D02*
X81480Y350840D01*
X81480Y357820D02*
X88460Y357820D01*
X88460Y350840D01*
X81480Y350840D01*
X81480Y355640D02*
X88460Y355640D01*
X63940Y357820D02*
X63940Y350840D01*
X63940Y357820D02*
X70920Y357820D01*
X70920Y350840D01*
X63940Y350840D01*
X63940Y355640D02*
X70920Y355640D01*
D33*
X561180Y468800D03*
X541180Y468800D03*
D34*
X585180Y416800D03*
X517180Y416800D03*
D35*
X75100Y1018700D03*
X75100Y1038700D03*
D36*
X23100Y994700D03*
X23100Y1062700D03*
D37*
X114300Y1028700D03*
X114300Y1003300D03*
D11*
X206620Y628650D03*
X189620Y628650D03*
D13*
X203400Y619440D02*
X203400Y612460D01*
X203400Y619440D02*
X210380Y619440D01*
X210380Y612460D01*
X203400Y612460D01*
X203400Y617260D02*
X210380Y617260D01*
X185860Y619440D02*
X185860Y612460D01*
X185860Y619440D02*
X192840Y619440D01*
X192840Y612460D01*
X185860Y612460D01*
X185860Y617260D02*
X192840Y617260D01*
D11*
X206620Y552450D03*
X189620Y552450D03*
D13*
X203400Y543240D02*
X203400Y536260D01*
X203400Y543240D02*
X210380Y543240D01*
X210380Y536260D01*
X203400Y536260D01*
X203400Y541060D02*
X210380Y541060D01*
X185860Y543240D02*
X185860Y536260D01*
X185860Y543240D02*
X192840Y543240D01*
X192840Y536260D01*
X185860Y536260D01*
X185860Y541060D02*
X192840Y541060D01*
D11*
X206620Y476250D03*
X189620Y476250D03*
D13*
X203400Y467040D02*
X203400Y460060D01*
X203400Y467040D02*
X210380Y467040D01*
X210380Y460060D01*
X203400Y460060D01*
X203400Y464860D02*
X210380Y464860D01*
X185860Y467040D02*
X185860Y460060D01*
X185860Y467040D02*
X192840Y467040D01*
X192840Y460060D01*
X185860Y460060D01*
X185860Y464860D02*
X192840Y464860D01*
D33*
X-34450Y468800D03*
X-54450Y468800D03*
D34*
X-10450Y416800D03*
X-78450Y416800D03*
D38*
X66350Y165500D03*
X66350Y190500D03*
X66350Y215500D03*
X9850Y165500D03*
X9850Y190500D03*
X9850Y215500D03*
D39*
X38100Y175500D03*
X38100Y205500D03*
D38*
X66350Y292500D03*
X66350Y317500D03*
X66350Y342500D03*
X9850Y292500D03*
X9850Y317500D03*
X9850Y342500D03*
D39*
X38100Y302500D03*
X38100Y332500D03*
D40*
X552450Y993140D03*
X552450Y937260D03*
X514350Y993140D03*
X514350Y937260D03*
D22*
X375800Y48670D03*
X370800Y48670D03*
D23*
X400550Y48670D03*
X392800Y48670D03*
D22*
X385800Y48670D03*
X380800Y48670D03*
X360800Y48670D03*
X365800Y48670D03*
D23*
X336050Y48670D03*
X343800Y48670D03*
D22*
X350800Y48670D03*
X355800Y48670D03*
D24*
X339400Y37620D03*
X397200Y37620D03*
D11*
X414900Y88900D03*
X397900Y88900D03*
X321700Y88900D03*
X338700Y88900D03*
D41*
X6650Y35540D03*
D42*
X62650Y3540D03*
X-11850Y3540D03*
D41*
X19150Y35540D03*
X31650Y35540D03*
X44150Y35540D03*
X463850Y35540D03*
D42*
X519850Y3540D03*
X445350Y3540D03*
D41*
X476350Y35540D03*
X488850Y35540D03*
X501350Y35540D03*
D11*
X318380Y628650D03*
X301380Y628650D03*
D13*
X315160Y619440D02*
X315160Y612460D01*
X315160Y619440D02*
X322140Y619440D01*
X322140Y612460D01*
X315160Y612460D01*
X315160Y617260D02*
X322140Y617260D01*
X297620Y619440D02*
X297620Y612460D01*
X297620Y619440D02*
X304600Y619440D01*
X304600Y612460D01*
X297620Y612460D01*
X297620Y617260D02*
X304600Y617260D01*
D37*
X63500Y62550D03*
X38100Y62550D03*
X12700Y62550D03*
X-12700Y62550D03*
X520700Y165100D03*
X495300Y165100D03*
X469900Y165100D03*
X444500Y165100D03*
X101600Y203200D03*
X101600Y228600D03*
X101600Y254000D03*
X101600Y279400D03*
X444500Y241300D03*
X444500Y266700D03*
X444500Y292100D03*
X444500Y317500D03*
D29*
X399500Y267400D03*
D30*
X399500Y275400D03*
X399500Y283400D03*
D29*
X412700Y267400D03*
D30*
X412700Y275400D03*
X412700Y283400D03*
D31*
X412600Y291400D03*
D29*
X399500Y291400D03*
D37*
X-63500Y342900D03*
X-63500Y317500D03*
D11*
X422520Y165100D03*
X405520Y165100D03*
D14*
X379800Y101600D03*
X356800Y101600D03*
D43*
X414800Y345810D03*
X414800Y360310D03*
X448800Y360310D03*
X448800Y345810D03*
D44*
X306070Y69850D03*
X316230Y69850D03*
D37*
X298450Y69850D03*
X323850Y69850D03*
D44*
X71120Y1087120D03*
X81280Y1087120D03*
D37*
X63500Y1087120D03*
X88900Y1087120D03*
X381000Y889000D03*
X381000Y914400D03*
M02*
