G04 EAGLE Gerber RS-274X export*
G75*
%MOMM*%
%FSLAX34Y34*%
%LPD*%
%INSoldermask Top*%
%IPPOS*%
%AMOC8*
5,1,8,0,0,1.08239X$1,22.5*%
G01*
%ADD10C,0.838200*%
%ADD11C,0.505344*%
%ADD12R,1.303200X1.203200*%
%ADD13R,1.203200X1.303200*%
%ADD14R,1.403200X0.753200*%
%ADD15R,1.103200X1.053200*%
%ADD16R,0.803200X0.803200*%
%ADD17R,1.053200X1.723200*%
%ADD18R,1.723200X1.053200*%
%ADD19R,1.303200X1.303200*%
%ADD20R,0.503200X1.203200*%
%ADD21R,0.803200X1.203200*%
%ADD22C,0.853200*%
%ADD23R,0.453200X0.813200*%
%ADD24R,0.453200X0.763200*%
%ADD25R,1.353200X7.203200*%
%ADD26R,1.103200X2.403200*%
%ADD27R,0.620000X0.840000*%
%ADD28R,0.620000X0.560000*%
%ADD29R,0.640000X0.840000*%
%ADD30C,3.403600*%
%ADD31R,1.203200X4.803200*%
%ADD32R,1.803200X3.603200*%
%ADD33R,4.803200X1.203200*%
%ADD34R,3.603200X1.803200*%
%ADD35C,2.082800*%
%ADD36R,0.803200X1.903200*%
%ADD37R,1.203200X2.903200*%
%ADD38R,0.833200X1.033200*%
%ADD39R,0.838200X1.473200*%
%ADD40R,1.503200X0.903200*%
%ADD41R,1.353200X1.203200*%
%ADD42C,1.053200*%

G36*
X412784Y41453D02*
X412784Y41453D01*
X412790Y41459D01*
X412795Y41455D01*
X414025Y41820D01*
X414030Y41827D01*
X414035Y41825D01*
X415154Y42455D01*
X415157Y42462D01*
X415163Y42461D01*
X416113Y43324D01*
X416114Y43332D01*
X416120Y43332D01*
X416854Y44385D01*
X416854Y44393D01*
X416859Y44395D01*
X417341Y45585D01*
X417339Y45590D01*
X417343Y45593D01*
X417342Y45594D01*
X417344Y45595D01*
X417549Y46862D01*
X417546Y46867D01*
X417549Y46870D01*
X417549Y58870D01*
X417546Y58874D01*
X417549Y58877D01*
X417394Y59999D01*
X417389Y60004D01*
X417392Y60008D01*
X417021Y61079D01*
X417015Y61083D01*
X417017Y61088D01*
X416444Y62065D01*
X416438Y62068D01*
X416439Y62073D01*
X415686Y62920D01*
X415679Y62922D01*
X415679Y62927D01*
X414776Y63611D01*
X414769Y63611D01*
X414768Y63616D01*
X413749Y64111D01*
X413742Y64109D01*
X413740Y64114D01*
X412643Y64401D01*
X412637Y64398D01*
X412634Y64402D01*
X411503Y64469D01*
X411497Y64469D01*
X410366Y64402D01*
X410361Y64397D01*
X410357Y64401D01*
X409260Y64114D01*
X409256Y64108D01*
X409251Y64111D01*
X408232Y63616D01*
X408229Y63610D01*
X408224Y63611D01*
X407321Y62927D01*
X407319Y62920D01*
X407314Y62920D01*
X406561Y62073D01*
X406561Y62066D01*
X406556Y62065D01*
X405983Y61088D01*
X405984Y61085D01*
X405983Y61084D01*
X405984Y61083D01*
X405984Y61081D01*
X405979Y61079D01*
X405608Y60008D01*
X405610Y60003D01*
X405607Y60001D01*
X405607Y60000D01*
X405606Y59999D01*
X405451Y58877D01*
X405454Y58872D01*
X405451Y58870D01*
X405451Y46870D01*
X405454Y46865D01*
X405451Y46862D01*
X405656Y45595D01*
X405662Y45589D01*
X405659Y45585D01*
X406141Y44395D01*
X406148Y44391D01*
X406146Y44385D01*
X406880Y43332D01*
X406888Y43330D01*
X406887Y43324D01*
X407837Y42461D01*
X407846Y42460D01*
X407846Y42455D01*
X408965Y41825D01*
X408973Y41826D01*
X408975Y41820D01*
X410205Y41455D01*
X410213Y41458D01*
X410216Y41453D01*
X411497Y41371D01*
X411501Y41374D01*
X411503Y41371D01*
X412784Y41453D01*
G37*
G36*
X212084Y41453D02*
X212084Y41453D01*
X212090Y41459D01*
X212095Y41455D01*
X213325Y41820D01*
X213330Y41827D01*
X213335Y41825D01*
X214454Y42455D01*
X214457Y42462D01*
X214463Y42461D01*
X215413Y43324D01*
X215414Y43332D01*
X215420Y43332D01*
X216154Y44385D01*
X216154Y44393D01*
X216159Y44395D01*
X216641Y45585D01*
X216639Y45590D01*
X216643Y45593D01*
X216642Y45594D01*
X216644Y45595D01*
X216849Y46862D01*
X216846Y46867D01*
X216849Y46870D01*
X216849Y58870D01*
X216846Y58874D01*
X216849Y58877D01*
X216694Y59999D01*
X216689Y60004D01*
X216692Y60008D01*
X216321Y61079D01*
X216315Y61083D01*
X216317Y61088D01*
X215744Y62065D01*
X215738Y62068D01*
X215739Y62073D01*
X214986Y62920D01*
X214979Y62922D01*
X214979Y62927D01*
X214076Y63611D01*
X214069Y63611D01*
X214068Y63616D01*
X213049Y64111D01*
X213042Y64109D01*
X213040Y64114D01*
X211943Y64401D01*
X211937Y64398D01*
X211934Y64402D01*
X210803Y64469D01*
X210797Y64469D01*
X209666Y64402D01*
X209661Y64397D01*
X209657Y64401D01*
X208560Y64114D01*
X208556Y64108D01*
X208551Y64111D01*
X207532Y63616D01*
X207529Y63610D01*
X207524Y63611D01*
X206621Y62927D01*
X206619Y62920D01*
X206614Y62920D01*
X205861Y62073D01*
X205861Y62066D01*
X205856Y62065D01*
X205283Y61088D01*
X205284Y61085D01*
X205283Y61084D01*
X205284Y61083D01*
X205284Y61081D01*
X205279Y61079D01*
X204908Y60008D01*
X204910Y60003D01*
X204907Y60001D01*
X204907Y60000D01*
X204906Y59999D01*
X204751Y58877D01*
X204754Y58872D01*
X204751Y58870D01*
X204751Y46870D01*
X204754Y46865D01*
X204751Y46862D01*
X204956Y45595D01*
X204962Y45589D01*
X204959Y45585D01*
X205441Y44395D01*
X205448Y44391D01*
X205446Y44385D01*
X206180Y43332D01*
X206188Y43330D01*
X206187Y43324D01*
X207137Y42461D01*
X207146Y42460D01*
X207146Y42455D01*
X208265Y41825D01*
X208273Y41826D01*
X208275Y41820D01*
X209505Y41455D01*
X209513Y41458D01*
X209516Y41453D01*
X210797Y41371D01*
X210801Y41374D01*
X210803Y41371D01*
X212084Y41453D01*
G37*
G36*
X326384Y41453D02*
X326384Y41453D01*
X326390Y41459D01*
X326395Y41455D01*
X327625Y41820D01*
X327630Y41827D01*
X327635Y41825D01*
X328754Y42455D01*
X328757Y42462D01*
X328763Y42461D01*
X329713Y43324D01*
X329714Y43332D01*
X329720Y43332D01*
X330454Y44385D01*
X330454Y44393D01*
X330459Y44395D01*
X330941Y45585D01*
X330939Y45590D01*
X330943Y45593D01*
X330942Y45594D01*
X330944Y45595D01*
X331149Y46862D01*
X331146Y46867D01*
X331149Y46870D01*
X331149Y58870D01*
X331146Y58874D01*
X331149Y58877D01*
X330994Y59999D01*
X330989Y60004D01*
X330992Y60008D01*
X330621Y61079D01*
X330615Y61083D01*
X330617Y61088D01*
X330044Y62065D01*
X330038Y62068D01*
X330039Y62073D01*
X329286Y62920D01*
X329279Y62922D01*
X329279Y62927D01*
X328376Y63611D01*
X328369Y63611D01*
X328368Y63616D01*
X327349Y64111D01*
X327342Y64109D01*
X327340Y64114D01*
X326243Y64401D01*
X326237Y64398D01*
X326234Y64402D01*
X325103Y64469D01*
X325097Y64469D01*
X323966Y64402D01*
X323961Y64397D01*
X323957Y64401D01*
X322860Y64114D01*
X322856Y64108D01*
X322851Y64111D01*
X321832Y63616D01*
X321829Y63610D01*
X321824Y63611D01*
X320921Y62927D01*
X320919Y62920D01*
X320914Y62920D01*
X320161Y62073D01*
X320161Y62066D01*
X320156Y62065D01*
X319583Y61088D01*
X319584Y61085D01*
X319583Y61084D01*
X319584Y61083D01*
X319584Y61081D01*
X319579Y61079D01*
X319208Y60008D01*
X319210Y60003D01*
X319207Y60001D01*
X319207Y60000D01*
X319206Y59999D01*
X319051Y58877D01*
X319054Y58872D01*
X319051Y58870D01*
X319051Y46870D01*
X319054Y46865D01*
X319051Y46862D01*
X319256Y45595D01*
X319262Y45589D01*
X319259Y45585D01*
X319741Y44395D01*
X319748Y44391D01*
X319746Y44385D01*
X320480Y43332D01*
X320488Y43330D01*
X320487Y43324D01*
X321437Y42461D01*
X321446Y42460D01*
X321446Y42455D01*
X322565Y41825D01*
X322573Y41826D01*
X322575Y41820D01*
X323805Y41455D01*
X323813Y41458D01*
X323816Y41453D01*
X325097Y41371D01*
X325101Y41374D01*
X325103Y41371D01*
X326384Y41453D01*
G37*
G36*
X298484Y41453D02*
X298484Y41453D01*
X298490Y41459D01*
X298495Y41455D01*
X299725Y41820D01*
X299730Y41827D01*
X299735Y41825D01*
X300854Y42455D01*
X300857Y42462D01*
X300863Y42461D01*
X301813Y43324D01*
X301814Y43332D01*
X301820Y43332D01*
X302554Y44385D01*
X302554Y44393D01*
X302559Y44395D01*
X303041Y45585D01*
X303039Y45590D01*
X303043Y45593D01*
X303042Y45594D01*
X303044Y45595D01*
X303249Y46862D01*
X303246Y46867D01*
X303249Y46870D01*
X303249Y58870D01*
X303246Y58874D01*
X303249Y58877D01*
X303094Y59999D01*
X303089Y60004D01*
X303092Y60008D01*
X302721Y61079D01*
X302715Y61083D01*
X302717Y61088D01*
X302144Y62065D01*
X302138Y62068D01*
X302139Y62073D01*
X301386Y62920D01*
X301379Y62922D01*
X301379Y62927D01*
X300476Y63611D01*
X300469Y63611D01*
X300468Y63616D01*
X299449Y64111D01*
X299442Y64109D01*
X299440Y64114D01*
X298343Y64401D01*
X298337Y64398D01*
X298334Y64402D01*
X297203Y64469D01*
X297197Y64469D01*
X296066Y64402D01*
X296061Y64397D01*
X296057Y64401D01*
X294960Y64114D01*
X294956Y64108D01*
X294951Y64111D01*
X293932Y63616D01*
X293929Y63610D01*
X293924Y63611D01*
X293021Y62927D01*
X293019Y62920D01*
X293014Y62920D01*
X292261Y62073D01*
X292261Y62066D01*
X292256Y62065D01*
X291683Y61088D01*
X291684Y61085D01*
X291683Y61084D01*
X291684Y61083D01*
X291684Y61081D01*
X291679Y61079D01*
X291308Y60008D01*
X291310Y60003D01*
X291307Y60001D01*
X291307Y60000D01*
X291306Y59999D01*
X291151Y58877D01*
X291154Y58872D01*
X291151Y58870D01*
X291151Y46870D01*
X291154Y46865D01*
X291151Y46862D01*
X291356Y45595D01*
X291362Y45589D01*
X291359Y45585D01*
X291841Y44395D01*
X291848Y44391D01*
X291846Y44385D01*
X292580Y43332D01*
X292588Y43330D01*
X292587Y43324D01*
X293537Y42461D01*
X293546Y42460D01*
X293546Y42455D01*
X294665Y41825D01*
X294673Y41826D01*
X294675Y41820D01*
X295905Y41455D01*
X295913Y41458D01*
X295916Y41453D01*
X297197Y41371D01*
X297201Y41374D01*
X297203Y41371D01*
X298484Y41453D01*
G37*
G36*
X211971Y2181D02*
X211971Y2181D01*
X211976Y2186D01*
X211980Y2183D01*
X213103Y2518D01*
X213107Y2524D01*
X213111Y2522D01*
X214147Y3070D01*
X214150Y3076D01*
X214155Y3075D01*
X215063Y3814D01*
X215065Y3821D01*
X215070Y3821D01*
X215817Y4723D01*
X215817Y4731D01*
X215823Y4731D01*
X216379Y5762D01*
X216378Y5769D01*
X216383Y5771D01*
X216727Y6890D01*
X216725Y6897D01*
X216729Y6900D01*
X216849Y8065D01*
X216847Y8068D01*
X216849Y8070D01*
X216849Y14070D01*
X216847Y14073D01*
X216849Y14075D01*
X216738Y15251D01*
X216733Y15256D01*
X216736Y15260D01*
X216398Y16392D01*
X216392Y16396D01*
X216394Y16401D01*
X215842Y17445D01*
X215835Y17448D01*
X215837Y17453D01*
X215091Y18369D01*
X215084Y18370D01*
X215084Y18376D01*
X214175Y19129D01*
X214167Y19129D01*
X214167Y19134D01*
X213127Y19695D01*
X213120Y19694D01*
X213118Y19699D01*
X211989Y20046D01*
X211983Y20044D01*
X211980Y20048D01*
X210805Y20169D01*
X210798Y20165D01*
X210794Y20169D01*
X209454Y20012D01*
X209448Y20007D01*
X209443Y20010D01*
X208172Y19559D01*
X208167Y19552D01*
X208162Y19554D01*
X207023Y18832D01*
X207020Y18824D01*
X207014Y18825D01*
X206064Y17867D01*
X206063Y17859D01*
X206057Y17858D01*
X205344Y16713D01*
X205345Y16705D01*
X205339Y16703D01*
X204899Y15427D01*
X204901Y15420D01*
X204897Y15417D01*
X204751Y14075D01*
X204753Y14072D01*
X204751Y14070D01*
X204751Y8070D01*
X204753Y8067D01*
X204751Y8064D01*
X204906Y6735D01*
X204912Y6729D01*
X204909Y6725D01*
X205356Y5464D01*
X205363Y5459D01*
X205361Y5454D01*
X206078Y4324D01*
X206085Y4321D01*
X206084Y4315D01*
X207035Y3373D01*
X207043Y3372D01*
X207043Y3366D01*
X208179Y2659D01*
X208187Y2660D01*
X208189Y2654D01*
X209454Y2218D01*
X209459Y2219D01*
X209460Y2219D01*
X209463Y2219D01*
X209465Y2215D01*
X210795Y2071D01*
X210801Y2075D01*
X210805Y2071D01*
X211971Y2181D01*
G37*
G36*
X412671Y2181D02*
X412671Y2181D01*
X412676Y2186D01*
X412680Y2183D01*
X413803Y2518D01*
X413807Y2524D01*
X413811Y2522D01*
X414847Y3070D01*
X414850Y3076D01*
X414855Y3075D01*
X415763Y3814D01*
X415765Y3821D01*
X415770Y3821D01*
X416517Y4723D01*
X416517Y4731D01*
X416523Y4731D01*
X417079Y5762D01*
X417078Y5769D01*
X417083Y5771D01*
X417427Y6890D01*
X417425Y6897D01*
X417429Y6900D01*
X417549Y8065D01*
X417547Y8068D01*
X417549Y8070D01*
X417549Y14070D01*
X417547Y14073D01*
X417549Y14075D01*
X417438Y15251D01*
X417433Y15256D01*
X417436Y15260D01*
X417098Y16392D01*
X417092Y16396D01*
X417094Y16401D01*
X416542Y17445D01*
X416535Y17448D01*
X416537Y17453D01*
X415791Y18369D01*
X415784Y18370D01*
X415784Y18376D01*
X414875Y19129D01*
X414867Y19129D01*
X414867Y19134D01*
X413827Y19695D01*
X413820Y19694D01*
X413818Y19699D01*
X412689Y20046D01*
X412683Y20044D01*
X412680Y20048D01*
X411505Y20169D01*
X411498Y20165D01*
X411494Y20169D01*
X410154Y20012D01*
X410148Y20007D01*
X410143Y20010D01*
X408872Y19559D01*
X408867Y19552D01*
X408862Y19554D01*
X407723Y18832D01*
X407720Y18824D01*
X407714Y18825D01*
X406764Y17867D01*
X406763Y17859D01*
X406757Y17858D01*
X406044Y16713D01*
X406045Y16705D01*
X406039Y16703D01*
X405599Y15427D01*
X405601Y15420D01*
X405597Y15417D01*
X405451Y14075D01*
X405453Y14072D01*
X405451Y14070D01*
X405451Y8070D01*
X405453Y8067D01*
X405451Y8064D01*
X405606Y6735D01*
X405612Y6729D01*
X405609Y6725D01*
X406056Y5464D01*
X406063Y5459D01*
X406061Y5454D01*
X406778Y4324D01*
X406785Y4321D01*
X406784Y4315D01*
X407735Y3373D01*
X407743Y3372D01*
X407743Y3366D01*
X408879Y2659D01*
X408887Y2660D01*
X408889Y2654D01*
X410154Y2218D01*
X410159Y2219D01*
X410160Y2219D01*
X410163Y2219D01*
X410165Y2215D01*
X411495Y2071D01*
X411501Y2075D01*
X411505Y2071D01*
X412671Y2181D01*
G37*
G36*
X326271Y2181D02*
X326271Y2181D01*
X326276Y2186D01*
X326280Y2183D01*
X327403Y2518D01*
X327407Y2524D01*
X327411Y2522D01*
X328447Y3070D01*
X328450Y3076D01*
X328455Y3075D01*
X329363Y3814D01*
X329365Y3821D01*
X329370Y3821D01*
X330117Y4723D01*
X330117Y4731D01*
X330123Y4731D01*
X330679Y5762D01*
X330678Y5769D01*
X330683Y5771D01*
X331027Y6890D01*
X331025Y6897D01*
X331029Y6900D01*
X331149Y8065D01*
X331147Y8068D01*
X331149Y8070D01*
X331149Y14070D01*
X331147Y14073D01*
X331149Y14075D01*
X331038Y15251D01*
X331033Y15256D01*
X331036Y15260D01*
X330698Y16392D01*
X330692Y16396D01*
X330694Y16401D01*
X330142Y17445D01*
X330135Y17448D01*
X330137Y17453D01*
X329391Y18369D01*
X329384Y18370D01*
X329384Y18376D01*
X328475Y19129D01*
X328467Y19129D01*
X328467Y19134D01*
X327427Y19695D01*
X327420Y19694D01*
X327418Y19699D01*
X326289Y20046D01*
X326283Y20044D01*
X326280Y20048D01*
X325105Y20169D01*
X325098Y20165D01*
X325094Y20169D01*
X323754Y20012D01*
X323748Y20007D01*
X323743Y20010D01*
X322472Y19559D01*
X322467Y19552D01*
X322462Y19554D01*
X321323Y18832D01*
X321320Y18824D01*
X321314Y18825D01*
X320364Y17867D01*
X320363Y17859D01*
X320357Y17858D01*
X319644Y16713D01*
X319645Y16705D01*
X319639Y16703D01*
X319199Y15427D01*
X319201Y15420D01*
X319197Y15417D01*
X319051Y14075D01*
X319053Y14072D01*
X319051Y14070D01*
X319051Y8070D01*
X319053Y8067D01*
X319051Y8064D01*
X319206Y6735D01*
X319212Y6729D01*
X319209Y6725D01*
X319656Y5464D01*
X319663Y5459D01*
X319661Y5454D01*
X320378Y4324D01*
X320385Y4321D01*
X320384Y4315D01*
X321335Y3373D01*
X321343Y3372D01*
X321343Y3366D01*
X322479Y2659D01*
X322487Y2660D01*
X322489Y2654D01*
X323754Y2218D01*
X323759Y2219D01*
X323760Y2219D01*
X323763Y2219D01*
X323765Y2215D01*
X325095Y2071D01*
X325101Y2075D01*
X325105Y2071D01*
X326271Y2181D01*
G37*
G36*
X298371Y2181D02*
X298371Y2181D01*
X298376Y2186D01*
X298380Y2183D01*
X299503Y2518D01*
X299507Y2524D01*
X299511Y2522D01*
X300547Y3070D01*
X300550Y3076D01*
X300555Y3075D01*
X301463Y3814D01*
X301465Y3821D01*
X301470Y3821D01*
X302217Y4723D01*
X302217Y4731D01*
X302223Y4731D01*
X302779Y5762D01*
X302778Y5769D01*
X302783Y5771D01*
X303127Y6890D01*
X303125Y6897D01*
X303129Y6900D01*
X303249Y8065D01*
X303247Y8068D01*
X303249Y8070D01*
X303249Y14070D01*
X303247Y14073D01*
X303249Y14075D01*
X303138Y15251D01*
X303133Y15256D01*
X303136Y15260D01*
X302798Y16392D01*
X302792Y16396D01*
X302794Y16401D01*
X302242Y17445D01*
X302235Y17448D01*
X302237Y17453D01*
X301491Y18369D01*
X301484Y18370D01*
X301484Y18376D01*
X300575Y19129D01*
X300567Y19129D01*
X300567Y19134D01*
X299527Y19695D01*
X299520Y19694D01*
X299518Y19699D01*
X298389Y20046D01*
X298383Y20044D01*
X298380Y20048D01*
X297205Y20169D01*
X297198Y20165D01*
X297194Y20169D01*
X295854Y20012D01*
X295848Y20007D01*
X295843Y20010D01*
X294572Y19559D01*
X294567Y19552D01*
X294562Y19554D01*
X293423Y18832D01*
X293420Y18824D01*
X293414Y18825D01*
X292464Y17867D01*
X292463Y17859D01*
X292457Y17858D01*
X291744Y16713D01*
X291745Y16705D01*
X291739Y16703D01*
X291299Y15427D01*
X291301Y15420D01*
X291297Y15417D01*
X291151Y14075D01*
X291153Y14072D01*
X291151Y14070D01*
X291151Y8070D01*
X291153Y8067D01*
X291151Y8064D01*
X291306Y6735D01*
X291312Y6729D01*
X291309Y6725D01*
X291756Y5464D01*
X291763Y5459D01*
X291761Y5454D01*
X292478Y4324D01*
X292485Y4321D01*
X292484Y4315D01*
X293435Y3373D01*
X293443Y3372D01*
X293443Y3366D01*
X294579Y2659D01*
X294587Y2660D01*
X294589Y2654D01*
X295854Y2218D01*
X295859Y2219D01*
X295860Y2219D01*
X295863Y2219D01*
X295865Y2215D01*
X297195Y2071D01*
X297201Y2075D01*
X297205Y2071D01*
X298371Y2181D01*
G37*
G36*
X78170Y1083703D02*
X78170Y1083703D01*
X78236Y1083705D01*
X78279Y1083723D01*
X78326Y1083731D01*
X78383Y1083765D01*
X78443Y1083790D01*
X78478Y1083821D01*
X78519Y1083846D01*
X78561Y1083897D01*
X78609Y1083941D01*
X78631Y1083983D01*
X78660Y1084020D01*
X78681Y1084082D01*
X78712Y1084141D01*
X78720Y1084195D01*
X78732Y1084232D01*
X78731Y1084272D01*
X78739Y1084326D01*
X78739Y1089914D01*
X78728Y1089979D01*
X78726Y1090045D01*
X78708Y1090088D01*
X78700Y1090135D01*
X78666Y1090192D01*
X78641Y1090252D01*
X78610Y1090287D01*
X78585Y1090328D01*
X78534Y1090370D01*
X78490Y1090418D01*
X78448Y1090440D01*
X78411Y1090469D01*
X78349Y1090490D01*
X78290Y1090521D01*
X78236Y1090529D01*
X78199Y1090541D01*
X78159Y1090540D01*
X78105Y1090548D01*
X74295Y1090548D01*
X74230Y1090537D01*
X74164Y1090535D01*
X74121Y1090517D01*
X74074Y1090509D01*
X74017Y1090475D01*
X73957Y1090450D01*
X73922Y1090419D01*
X73881Y1090394D01*
X73840Y1090343D01*
X73791Y1090299D01*
X73769Y1090257D01*
X73740Y1090220D01*
X73719Y1090158D01*
X73688Y1090099D01*
X73680Y1090045D01*
X73668Y1090008D01*
X73669Y1089968D01*
X73661Y1089914D01*
X73661Y1084326D01*
X73672Y1084261D01*
X73674Y1084195D01*
X73692Y1084152D01*
X73700Y1084105D01*
X73734Y1084048D01*
X73759Y1083988D01*
X73790Y1083953D01*
X73815Y1083912D01*
X73866Y1083871D01*
X73910Y1083822D01*
X73952Y1083800D01*
X73989Y1083771D01*
X74051Y1083750D01*
X74110Y1083719D01*
X74164Y1083711D01*
X74201Y1083699D01*
X74241Y1083700D01*
X74295Y1083692D01*
X78105Y1083692D01*
X78170Y1083703D01*
G37*
G36*
X313120Y76433D02*
X313120Y76433D01*
X313186Y76435D01*
X313229Y76453D01*
X313276Y76461D01*
X313333Y76495D01*
X313393Y76520D01*
X313428Y76551D01*
X313469Y76576D01*
X313511Y76627D01*
X313559Y76671D01*
X313581Y76713D01*
X313610Y76750D01*
X313631Y76812D01*
X313662Y76871D01*
X313670Y76925D01*
X313682Y76962D01*
X313681Y77002D01*
X313689Y77056D01*
X313689Y82644D01*
X313678Y82709D01*
X313676Y82775D01*
X313658Y82818D01*
X313650Y82865D01*
X313616Y82922D01*
X313591Y82982D01*
X313560Y83017D01*
X313535Y83058D01*
X313484Y83100D01*
X313440Y83148D01*
X313398Y83170D01*
X313361Y83199D01*
X313299Y83220D01*
X313240Y83251D01*
X313186Y83259D01*
X313149Y83271D01*
X313109Y83270D01*
X313055Y83278D01*
X309245Y83278D01*
X309180Y83267D01*
X309114Y83265D01*
X309071Y83247D01*
X309024Y83239D01*
X308967Y83205D01*
X308907Y83180D01*
X308872Y83149D01*
X308831Y83124D01*
X308790Y83073D01*
X308741Y83029D01*
X308719Y82987D01*
X308690Y82950D01*
X308669Y82888D01*
X308638Y82829D01*
X308630Y82775D01*
X308618Y82738D01*
X308619Y82698D01*
X308611Y82644D01*
X308611Y77056D01*
X308622Y76991D01*
X308624Y76925D01*
X308642Y76882D01*
X308650Y76835D01*
X308684Y76778D01*
X308709Y76718D01*
X308740Y76683D01*
X308765Y76642D01*
X308816Y76601D01*
X308860Y76552D01*
X308902Y76530D01*
X308939Y76501D01*
X309001Y76480D01*
X309060Y76449D01*
X309114Y76441D01*
X309151Y76429D01*
X309191Y76430D01*
X309245Y76422D01*
X313055Y76422D01*
X313120Y76433D01*
G37*
D10*
X546100Y43500D03*
X-36300Y1052300D03*
D11*
X315160Y543240D02*
X315160Y536260D01*
X315160Y543240D02*
X322140Y543240D01*
X322140Y536260D01*
X315160Y536260D01*
X315160Y541060D02*
X322140Y541060D01*
X297620Y543240D02*
X297620Y536260D01*
X297620Y543240D02*
X304600Y543240D01*
X304600Y536260D01*
X297620Y536260D01*
X297620Y541060D02*
X304600Y541060D01*
D12*
X301380Y552450D03*
X318380Y552450D03*
D13*
X279400Y372500D03*
X279400Y389500D03*
X254000Y389500D03*
X254000Y372500D03*
D14*
X355901Y371500D03*
X355901Y381000D03*
X355901Y390500D03*
X329899Y390500D03*
X329899Y371500D03*
D12*
X351400Y406400D03*
X334400Y406400D03*
D13*
X177800Y389500D03*
X177800Y372500D03*
X203200Y389500D03*
X203200Y372500D03*
D11*
X315160Y460060D02*
X315160Y467040D01*
X322140Y467040D01*
X322140Y460060D01*
X315160Y460060D01*
X315160Y464860D02*
X322140Y464860D01*
X297620Y467040D02*
X297620Y460060D01*
X297620Y467040D02*
X304600Y467040D01*
X304600Y460060D01*
X297620Y460060D01*
X297620Y464860D02*
X304600Y464860D01*
D12*
X301380Y476250D03*
X318380Y476250D03*
D15*
X215900Y168360D03*
X215900Y156760D03*
D12*
X234070Y168910D03*
X251070Y168910D03*
D13*
X228600Y389500D03*
X228600Y372500D03*
D16*
X194390Y168910D03*
X204390Y168910D03*
D17*
X182500Y192200D03*
X193500Y192200D03*
X204500Y192200D03*
X215500Y192200D03*
X226500Y192200D03*
X237500Y192200D03*
X248500Y192200D03*
X259500Y192200D03*
X270500Y192200D03*
X281500Y192200D03*
X292500Y192200D03*
X303500Y192200D03*
X314500Y192200D03*
X325500Y192200D03*
D18*
X353500Y200700D03*
X353500Y211700D03*
X353500Y222700D03*
X353500Y233700D03*
X353500Y244700D03*
X353500Y255700D03*
X353500Y266700D03*
X353500Y277700D03*
X353500Y288700D03*
X353500Y299700D03*
X353500Y310700D03*
X353500Y321700D03*
X353500Y332700D03*
D17*
X325500Y341200D03*
X314500Y341200D03*
X303500Y341200D03*
X292500Y341200D03*
X281500Y341200D03*
X270500Y341200D03*
X259500Y341200D03*
X248500Y341200D03*
X237500Y341200D03*
X226500Y341200D03*
X215500Y341200D03*
X204500Y341200D03*
X193500Y341200D03*
X182500Y341200D03*
D18*
X154500Y332700D03*
X154500Y321700D03*
X154500Y310700D03*
X154500Y299700D03*
X154500Y288700D03*
X154500Y277700D03*
X154500Y266700D03*
X154500Y255700D03*
X154500Y244700D03*
X154500Y233700D03*
X154500Y222700D03*
X154500Y211700D03*
X154500Y200700D03*
D19*
X243500Y256200D03*
X222500Y256200D03*
X201500Y256200D03*
X180500Y256200D03*
X243500Y235700D03*
X222500Y235700D03*
X201500Y235700D03*
X180500Y235700D03*
X243500Y215200D03*
X222500Y215200D03*
X201500Y215200D03*
X180500Y215200D03*
X243500Y318200D03*
X222500Y318200D03*
X201500Y318200D03*
X180500Y318200D03*
X243500Y297700D03*
X222500Y297700D03*
X201500Y297700D03*
X180500Y297700D03*
X243500Y277200D03*
X222500Y277200D03*
X201500Y277200D03*
X180500Y277200D03*
X264500Y277200D03*
X285500Y277200D03*
X306500Y277200D03*
X327500Y277200D03*
X264500Y297700D03*
X285500Y297700D03*
X306500Y297700D03*
X327500Y297700D03*
X264500Y318200D03*
X285500Y318200D03*
X306500Y318200D03*
X327500Y318200D03*
X264500Y215200D03*
X285500Y215200D03*
X306500Y215200D03*
X327500Y215200D03*
X264500Y235700D03*
X285500Y235700D03*
X306500Y235700D03*
X327500Y235700D03*
X264500Y256200D03*
X285500Y256200D03*
X306500Y256200D03*
X327500Y256200D03*
D12*
X300600Y98900D03*
X283600Y98900D03*
X207400Y98900D03*
X224400Y98900D03*
D20*
X261500Y58670D03*
X256500Y58670D03*
D21*
X286250Y58670D03*
X278500Y58670D03*
D20*
X271500Y58670D03*
X266500Y58670D03*
X246500Y58670D03*
X251500Y58670D03*
D21*
X221750Y58670D03*
X229500Y58670D03*
D20*
X236500Y58670D03*
X241500Y58670D03*
D22*
X225100Y47620D03*
X282900Y47620D03*
D13*
X304800Y372500D03*
X304800Y389500D03*
D12*
X258200Y406400D03*
X275200Y406400D03*
D23*
X236300Y135650D03*
D24*
X241300Y135400D03*
X246300Y135400D03*
X246300Y144000D03*
X241300Y144000D03*
X236300Y144000D03*
D25*
X182200Y36110D03*
D26*
X139700Y82110D03*
D25*
X97200Y36110D03*
D27*
X120100Y292800D03*
D28*
X120100Y300800D03*
X120100Y308800D03*
D27*
X133300Y292800D03*
D28*
X133300Y300800D03*
X133300Y308800D03*
D29*
X133200Y316800D03*
D27*
X120100Y316800D03*
X120100Y229300D03*
D28*
X120100Y237300D03*
X120100Y245300D03*
D27*
X133300Y229300D03*
D28*
X133300Y237300D03*
X133300Y245300D03*
D29*
X133200Y253300D03*
D27*
X120100Y253300D03*
D13*
X127000Y334400D03*
X127000Y351400D03*
D30*
X-30988Y283337D03*
X-30988Y783463D03*
X538988Y783463D03*
X538988Y283337D03*
D12*
X84700Y377190D03*
X67700Y377190D03*
D11*
X81480Y357820D02*
X81480Y350840D01*
X81480Y357820D02*
X88460Y357820D01*
X88460Y350840D01*
X81480Y350840D01*
X81480Y355640D02*
X88460Y355640D01*
X63940Y357820D02*
X63940Y350840D01*
X63940Y357820D02*
X70920Y357820D01*
X70920Y350840D01*
X63940Y350840D01*
X63940Y355640D02*
X70920Y355640D01*
D31*
X561180Y468800D03*
X541180Y468800D03*
D32*
X585180Y416800D03*
X517180Y416800D03*
D33*
X75100Y1018700D03*
X75100Y1038700D03*
D34*
X23100Y994700D03*
X23100Y1062700D03*
D35*
X114300Y1028700D03*
X114300Y1003300D03*
D12*
X206620Y628650D03*
X189620Y628650D03*
D11*
X203400Y619440D02*
X203400Y612460D01*
X203400Y619440D02*
X210380Y619440D01*
X210380Y612460D01*
X203400Y612460D01*
X203400Y617260D02*
X210380Y617260D01*
X185860Y619440D02*
X185860Y612460D01*
X185860Y619440D02*
X192840Y619440D01*
X192840Y612460D01*
X185860Y612460D01*
X185860Y617260D02*
X192840Y617260D01*
D12*
X206620Y552450D03*
X189620Y552450D03*
D11*
X203400Y543240D02*
X203400Y536260D01*
X203400Y543240D02*
X210380Y543240D01*
X210380Y536260D01*
X203400Y536260D01*
X203400Y541060D02*
X210380Y541060D01*
X185860Y543240D02*
X185860Y536260D01*
X185860Y543240D02*
X192840Y543240D01*
X192840Y536260D01*
X185860Y536260D01*
X185860Y541060D02*
X192840Y541060D01*
D12*
X206620Y476250D03*
X189620Y476250D03*
D11*
X203400Y467040D02*
X203400Y460060D01*
X203400Y467040D02*
X210380Y467040D01*
X210380Y460060D01*
X203400Y460060D01*
X203400Y464860D02*
X210380Y464860D01*
X185860Y467040D02*
X185860Y460060D01*
X185860Y467040D02*
X192840Y467040D01*
X192840Y460060D01*
X185860Y460060D01*
X185860Y464860D02*
X192840Y464860D01*
D31*
X-34450Y468800D03*
X-54450Y468800D03*
D32*
X-10450Y416800D03*
X-78450Y416800D03*
D20*
X375800Y58670D03*
X370800Y58670D03*
D21*
X400550Y58670D03*
X392800Y58670D03*
D20*
X385800Y58670D03*
X380800Y58670D03*
X360800Y58670D03*
X365800Y58670D03*
D21*
X336050Y58670D03*
X343800Y58670D03*
D20*
X350800Y58670D03*
X355800Y58670D03*
D22*
X339400Y47620D03*
X397200Y47620D03*
D12*
X414900Y98900D03*
X397900Y98900D03*
X321700Y98900D03*
X338700Y98900D03*
D36*
X6650Y45540D03*
D37*
X62650Y13540D03*
X-11850Y13540D03*
D36*
X19150Y45540D03*
X31650Y45540D03*
X44150Y45540D03*
X463850Y45540D03*
D37*
X519850Y13540D03*
X445350Y13540D03*
D36*
X476350Y45540D03*
X488850Y45540D03*
X501350Y45540D03*
D12*
X318380Y628650D03*
X301380Y628650D03*
D11*
X315160Y619440D02*
X315160Y612460D01*
X315160Y619440D02*
X322140Y619440D01*
X322140Y612460D01*
X315160Y612460D01*
X315160Y617260D02*
X322140Y617260D01*
X297620Y619440D02*
X297620Y612460D01*
X297620Y619440D02*
X304600Y619440D01*
X304600Y612460D01*
X297620Y612460D01*
X297620Y617260D02*
X304600Y617260D01*
D35*
X63500Y72550D03*
X38100Y72550D03*
X12700Y72550D03*
X-12700Y72550D03*
X520700Y175100D03*
X495300Y175100D03*
X469900Y175100D03*
X444500Y175100D03*
X101600Y203200D03*
X101600Y228600D03*
X101600Y254000D03*
X101600Y279400D03*
X444500Y241300D03*
X444500Y266700D03*
X444500Y292100D03*
X444500Y317500D03*
D27*
X399500Y267400D03*
D28*
X399500Y275400D03*
X399500Y283400D03*
D27*
X412700Y267400D03*
D28*
X412700Y275400D03*
X412700Y283400D03*
D29*
X412600Y291400D03*
D27*
X399500Y291400D03*
D35*
X-63500Y342900D03*
X-63500Y317500D03*
D12*
X422520Y175100D03*
X405520Y175100D03*
D38*
X379800Y111600D03*
X356800Y111600D03*
D39*
X306070Y79850D03*
X316230Y79850D03*
D35*
X298450Y79850D03*
X323850Y79850D03*
D39*
X71120Y1087120D03*
X81280Y1087120D03*
D35*
X63500Y1087120D03*
X88900Y1087120D03*
X539000Y981000D03*
X539000Y955600D03*
D40*
X417050Y364060D03*
X417050Y353060D03*
X417050Y342060D03*
X446550Y342060D03*
X446550Y353060D03*
X446550Y364060D03*
D12*
X399660Y368300D03*
X382660Y368300D03*
X399660Y337820D03*
X382660Y337820D03*
X399660Y353060D03*
X382660Y353060D03*
D14*
X267001Y447700D03*
X267001Y457200D03*
X267001Y466700D03*
X240999Y466700D03*
X240999Y447700D03*
D12*
X262500Y482600D03*
X245500Y482600D03*
X245500Y431800D03*
X262500Y431800D03*
D41*
X9850Y215500D03*
X9850Y190500D03*
X9850Y165500D03*
X66350Y215500D03*
X66350Y190500D03*
X66350Y165500D03*
D42*
X38100Y205500D03*
X38100Y175500D03*
D41*
X9850Y342500D03*
X9850Y317500D03*
X9850Y292500D03*
X66350Y342500D03*
X66350Y317500D03*
X66350Y292500D03*
D42*
X38100Y332500D03*
X38100Y302500D03*
D23*
X363300Y135650D03*
D24*
X368300Y135400D03*
X373300Y135400D03*
X373300Y144000D03*
X368300Y144000D03*
X363300Y144000D03*
M02*
