G04 EAGLE Gerber RS-274X export*
G75*
%MOMM*%
%FSLAX34Y34*%
%LPD*%
%INInner Layer 2*%
%IPPOS*%
%AMOC8*
5,1,8,0,0,1.08239X$1,22.5*%
G01*
%ADD10C,0.755600*%
%ADD11C,1.524000*%
%ADD12C,0.660400*%
%ADD13C,0.558800*%
%ADD14C,0.177800*%
%ADD15C,0.736600*%

G36*
X209337Y3453D02*
X209337Y3453D01*
X209386Y3451D01*
X209457Y3472D01*
X209531Y3484D01*
X209574Y3507D01*
X209621Y3521D01*
X209683Y3565D01*
X209749Y3600D01*
X209782Y3635D01*
X209822Y3663D01*
X209866Y3724D01*
X209918Y3778D01*
X209939Y3822D01*
X209967Y3862D01*
X209990Y3933D01*
X210022Y4001D01*
X210027Y4050D01*
X210042Y4096D01*
X210040Y4171D01*
X210049Y4245D01*
X210038Y4293D01*
X210037Y4342D01*
X210012Y4413D01*
X209996Y4486D01*
X209971Y4528D01*
X209955Y4574D01*
X209908Y4633D01*
X209870Y4697D01*
X209833Y4729D01*
X209803Y4767D01*
X209740Y4808D01*
X209683Y4857D01*
X209638Y4875D01*
X209597Y4902D01*
X209477Y4940D01*
X209455Y4949D01*
X209446Y4950D01*
X209437Y4953D01*
X208977Y5044D01*
X207827Y5520D01*
X206792Y6212D01*
X205912Y7092D01*
X205220Y8127D01*
X204744Y9277D01*
X204576Y10121D01*
X210582Y10121D01*
X210601Y10124D01*
X210621Y10122D01*
X210723Y10144D01*
X210825Y10160D01*
X210826Y10161D01*
X210853Y10149D01*
X210873Y10147D01*
X210891Y10139D01*
X211058Y10121D01*
X217064Y10121D01*
X216896Y9277D01*
X216420Y8127D01*
X215728Y7092D01*
X214848Y6212D01*
X213813Y5520D01*
X212663Y5044D01*
X212203Y4953D01*
X212157Y4935D01*
X212109Y4927D01*
X212043Y4893D01*
X211973Y4866D01*
X211935Y4835D01*
X211891Y4812D01*
X211840Y4758D01*
X211782Y4711D01*
X211756Y4670D01*
X211722Y4634D01*
X211691Y4566D01*
X211651Y4503D01*
X211639Y4455D01*
X211618Y4411D01*
X211610Y4337D01*
X211593Y4264D01*
X211597Y4215D01*
X211591Y4167D01*
X211607Y4094D01*
X211614Y4019D01*
X211633Y3974D01*
X211644Y3926D01*
X211682Y3862D01*
X211712Y3793D01*
X211745Y3757D01*
X211770Y3715D01*
X211827Y3666D01*
X211877Y3611D01*
X211919Y3587D01*
X211957Y3555D01*
X212026Y3527D01*
X212091Y3491D01*
X212139Y3482D01*
X212185Y3463D01*
X212309Y3449D01*
X212333Y3445D01*
X212342Y3446D01*
X212352Y3445D01*
X295648Y3445D01*
X295697Y3453D01*
X295746Y3451D01*
X295817Y3472D01*
X295891Y3484D01*
X295934Y3507D01*
X295981Y3521D01*
X296043Y3565D01*
X296109Y3600D01*
X296142Y3635D01*
X296182Y3663D01*
X296226Y3724D01*
X296278Y3778D01*
X296299Y3822D01*
X296327Y3862D01*
X296350Y3933D01*
X296382Y4001D01*
X296387Y4050D01*
X296402Y4096D01*
X296400Y4171D01*
X296409Y4245D01*
X296398Y4293D01*
X296397Y4342D01*
X296372Y4413D01*
X296356Y4486D01*
X296331Y4528D01*
X296315Y4574D01*
X296268Y4633D01*
X296230Y4697D01*
X296193Y4729D01*
X296163Y4767D01*
X296100Y4808D01*
X296043Y4857D01*
X295998Y4875D01*
X295957Y4902D01*
X295837Y4940D01*
X295815Y4949D01*
X295806Y4950D01*
X295797Y4953D01*
X295337Y5044D01*
X294187Y5520D01*
X293152Y6212D01*
X292272Y7092D01*
X291580Y8127D01*
X291104Y9277D01*
X290936Y10121D01*
X296942Y10121D01*
X296961Y10124D01*
X296981Y10122D01*
X297083Y10144D01*
X297185Y10160D01*
X297186Y10161D01*
X297213Y10149D01*
X297233Y10147D01*
X297251Y10139D01*
X297418Y10121D01*
X303424Y10121D01*
X303256Y9277D01*
X302780Y8127D01*
X302088Y7092D01*
X301208Y6212D01*
X300173Y5520D01*
X299023Y5044D01*
X298563Y4953D01*
X298517Y4935D01*
X298469Y4927D01*
X298403Y4893D01*
X298333Y4866D01*
X298295Y4835D01*
X298251Y4812D01*
X298200Y4758D01*
X298142Y4711D01*
X298116Y4670D01*
X298082Y4634D01*
X298051Y4566D01*
X298011Y4503D01*
X297999Y4455D01*
X297978Y4411D01*
X297970Y4337D01*
X297953Y4264D01*
X297957Y4215D01*
X297951Y4167D01*
X297967Y4094D01*
X297974Y4019D01*
X297993Y3974D01*
X298004Y3926D01*
X298042Y3862D01*
X298072Y3793D01*
X298105Y3757D01*
X298130Y3715D01*
X298187Y3666D01*
X298237Y3611D01*
X298279Y3587D01*
X298317Y3555D01*
X298386Y3527D01*
X298451Y3491D01*
X298499Y3482D01*
X298545Y3463D01*
X298669Y3449D01*
X298693Y3445D01*
X298702Y3446D01*
X298712Y3445D01*
X323588Y3445D01*
X323637Y3453D01*
X323686Y3451D01*
X323757Y3472D01*
X323831Y3484D01*
X323874Y3507D01*
X323921Y3521D01*
X323983Y3565D01*
X324049Y3600D01*
X324082Y3635D01*
X324122Y3663D01*
X324166Y3724D01*
X324218Y3778D01*
X324239Y3822D01*
X324268Y3862D01*
X324290Y3933D01*
X324322Y4001D01*
X324327Y4050D01*
X324342Y4096D01*
X324340Y4171D01*
X324349Y4245D01*
X324338Y4293D01*
X324337Y4342D01*
X324312Y4413D01*
X324296Y4486D01*
X324271Y4528D01*
X324255Y4574D01*
X324209Y4633D01*
X324170Y4697D01*
X324133Y4729D01*
X324103Y4767D01*
X324040Y4808D01*
X323983Y4857D01*
X323938Y4875D01*
X323897Y4902D01*
X323778Y4940D01*
X323755Y4949D01*
X323746Y4950D01*
X323737Y4953D01*
X323277Y5044D01*
X322127Y5520D01*
X321092Y6212D01*
X320212Y7092D01*
X319520Y8127D01*
X319044Y9277D01*
X318876Y10121D01*
X324882Y10121D01*
X324901Y10124D01*
X324921Y10122D01*
X325023Y10144D01*
X325125Y10160D01*
X325126Y10161D01*
X325153Y10149D01*
X325173Y10147D01*
X325191Y10139D01*
X325358Y10121D01*
X331364Y10121D01*
X331196Y9277D01*
X330720Y8127D01*
X330028Y7092D01*
X329148Y6212D01*
X328113Y5520D01*
X326963Y5044D01*
X326503Y4953D01*
X326457Y4935D01*
X326409Y4927D01*
X326343Y4893D01*
X326273Y4866D01*
X326235Y4835D01*
X326191Y4812D01*
X326140Y4758D01*
X326082Y4711D01*
X326056Y4670D01*
X326022Y4634D01*
X325991Y4566D01*
X325951Y4503D01*
X325939Y4455D01*
X325918Y4411D01*
X325910Y4337D01*
X325893Y4264D01*
X325897Y4215D01*
X325891Y4167D01*
X325907Y4094D01*
X325914Y4019D01*
X325933Y3974D01*
X325944Y3926D01*
X325982Y3862D01*
X326012Y3793D01*
X326045Y3757D01*
X326070Y3715D01*
X326127Y3666D01*
X326177Y3611D01*
X326219Y3587D01*
X326257Y3555D01*
X326326Y3527D01*
X326391Y3491D01*
X326439Y3482D01*
X326485Y3463D01*
X326609Y3449D01*
X326633Y3445D01*
X326642Y3446D01*
X326652Y3445D01*
X409948Y3445D01*
X409997Y3453D01*
X410046Y3451D01*
X410117Y3472D01*
X410191Y3484D01*
X410234Y3507D01*
X410281Y3521D01*
X410343Y3565D01*
X410409Y3600D01*
X410442Y3635D01*
X410482Y3663D01*
X410526Y3724D01*
X410578Y3778D01*
X410599Y3822D01*
X410628Y3862D01*
X410650Y3933D01*
X410682Y4001D01*
X410687Y4050D01*
X410702Y4096D01*
X410700Y4171D01*
X410709Y4245D01*
X410698Y4293D01*
X410697Y4342D01*
X410672Y4413D01*
X410656Y4486D01*
X410631Y4528D01*
X410615Y4574D01*
X410569Y4633D01*
X410530Y4697D01*
X410493Y4729D01*
X410463Y4767D01*
X410400Y4808D01*
X410343Y4857D01*
X410298Y4875D01*
X410257Y4902D01*
X410138Y4940D01*
X410115Y4949D01*
X410106Y4950D01*
X410097Y4953D01*
X409637Y5044D01*
X408487Y5520D01*
X407452Y6212D01*
X406572Y7092D01*
X405880Y8127D01*
X405404Y9277D01*
X405236Y10121D01*
X411242Y10121D01*
X411261Y10124D01*
X411281Y10122D01*
X411383Y10144D01*
X411485Y10160D01*
X411486Y10161D01*
X411513Y10149D01*
X411533Y10147D01*
X411551Y10139D01*
X411718Y10121D01*
X417724Y10121D01*
X417556Y9277D01*
X417080Y8127D01*
X416388Y7092D01*
X415508Y6212D01*
X414473Y5520D01*
X413323Y5044D01*
X412863Y4953D01*
X412817Y4935D01*
X412769Y4927D01*
X412703Y4893D01*
X412633Y4866D01*
X412595Y4835D01*
X412551Y4812D01*
X412500Y4758D01*
X412442Y4711D01*
X412416Y4670D01*
X412382Y4634D01*
X412351Y4566D01*
X412311Y4503D01*
X412299Y4455D01*
X412278Y4411D01*
X412270Y4337D01*
X412253Y4264D01*
X412257Y4215D01*
X412251Y4167D01*
X412267Y4094D01*
X412274Y4019D01*
X412293Y3974D01*
X412304Y3926D01*
X412342Y3862D01*
X412372Y3793D01*
X412405Y3757D01*
X412430Y3715D01*
X412487Y3666D01*
X412537Y3611D01*
X412579Y3587D01*
X412617Y3555D01*
X412686Y3527D01*
X412751Y3491D01*
X412799Y3482D01*
X412845Y3463D01*
X412969Y3449D01*
X412993Y3445D01*
X413002Y3446D01*
X413012Y3445D01*
X540444Y3445D01*
X540464Y3448D01*
X540483Y3446D01*
X540585Y3468D01*
X540687Y3484D01*
X540704Y3494D01*
X540724Y3498D01*
X540813Y3551D01*
X540904Y3600D01*
X540918Y3614D01*
X540935Y3624D01*
X541002Y3703D01*
X541074Y3778D01*
X541082Y3796D01*
X541095Y3811D01*
X541134Y3907D01*
X541177Y4001D01*
X541179Y4021D01*
X541187Y4039D01*
X541205Y4206D01*
X541205Y34558D01*
X542842Y36195D01*
X557917Y36195D01*
X558004Y36209D01*
X558093Y36216D01*
X558125Y36229D01*
X558159Y36234D01*
X558238Y36276D01*
X558320Y36311D01*
X558346Y36333D01*
X558377Y36350D01*
X558438Y36414D01*
X558505Y36473D01*
X558522Y36503D01*
X558546Y36528D01*
X558584Y36609D01*
X558628Y36686D01*
X558639Y36729D01*
X558650Y36751D01*
X558653Y36782D01*
X558670Y36848D01*
X564889Y80326D01*
X564889Y80332D01*
X564891Y80341D01*
X576303Y173603D01*
X576303Y173611D01*
X576306Y173623D01*
X585189Y267160D01*
X585188Y267168D01*
X585191Y267180D01*
X591538Y360923D01*
X591537Y360931D01*
X591539Y360944D01*
X595347Y454824D01*
X595346Y454830D01*
X595347Y454839D01*
X596225Y498206D01*
X596221Y498233D01*
X596224Y498260D01*
X596203Y498354D01*
X596190Y498449D01*
X596177Y498474D01*
X596171Y498501D01*
X596122Y498583D01*
X596079Y498669D01*
X596059Y498688D01*
X596045Y498712D01*
X595972Y498774D01*
X595904Y498842D01*
X595879Y498854D01*
X595858Y498872D01*
X595769Y498908D01*
X595683Y498950D01*
X595656Y498953D01*
X595630Y498964D01*
X595463Y498982D01*
X534299Y498982D01*
X523930Y502351D01*
X515110Y508760D01*
X512426Y512454D01*
X512420Y512459D01*
X512416Y512466D01*
X512333Y512545D01*
X512251Y512627D01*
X512244Y512630D01*
X512238Y512636D01*
X512133Y512684D01*
X512030Y512735D01*
X512022Y512736D01*
X512015Y512739D01*
X511901Y512752D01*
X511786Y512767D01*
X511778Y512765D01*
X511771Y512766D01*
X511658Y512742D01*
X511545Y512720D01*
X511538Y512716D01*
X511530Y512714D01*
X511432Y512655D01*
X511331Y512598D01*
X511326Y512592D01*
X511319Y512588D01*
X511244Y512500D01*
X511167Y512414D01*
X511164Y512407D01*
X511159Y512401D01*
X511116Y512294D01*
X511071Y512188D01*
X511070Y512180D01*
X511067Y512173D01*
X511049Y512006D01*
X511049Y417837D01*
X509263Y416051D01*
X447682Y416051D01*
X447611Y416040D01*
X447539Y416038D01*
X447490Y416020D01*
X447439Y416012D01*
X447376Y415978D01*
X447308Y415953D01*
X447268Y415921D01*
X447222Y415896D01*
X447172Y415844D01*
X447116Y415800D01*
X447088Y415756D01*
X447052Y415718D01*
X447022Y415653D01*
X446983Y415593D01*
X446971Y415542D01*
X446949Y415495D01*
X446941Y415424D01*
X446923Y415354D01*
X446927Y415302D01*
X446922Y415251D01*
X446937Y415180D01*
X446942Y415109D01*
X446963Y415061D01*
X446974Y415010D01*
X447011Y414949D01*
X447039Y414883D01*
X447083Y414827D01*
X447100Y414799D01*
X447118Y414784D01*
X447143Y414752D01*
X449581Y412315D01*
X449581Y408105D01*
X446605Y405129D01*
X442395Y405129D01*
X439419Y408105D01*
X439419Y408661D01*
X439416Y408680D01*
X439418Y408700D01*
X439396Y408801D01*
X439380Y408903D01*
X439370Y408921D01*
X439366Y408940D01*
X439313Y409029D01*
X439264Y409121D01*
X439250Y409134D01*
X439240Y409151D01*
X439161Y409219D01*
X439086Y409290D01*
X439068Y409298D01*
X439053Y409311D01*
X438957Y409350D01*
X438863Y409394D01*
X438843Y409396D01*
X438825Y409403D01*
X438658Y409422D01*
X351294Y409422D01*
X349509Y411207D01*
X346463Y414253D01*
X344677Y416039D01*
X344677Y458692D01*
X344663Y458782D01*
X344655Y458873D01*
X344643Y458902D01*
X344638Y458934D01*
X344595Y459015D01*
X344559Y459099D01*
X344533Y459131D01*
X344522Y459152D01*
X344499Y459174D01*
X344454Y459230D01*
X342264Y461420D01*
X342264Y465629D01*
X345240Y468605D01*
X349450Y468605D01*
X351252Y466803D01*
X351310Y466761D01*
X351362Y466712D01*
X351409Y466690D01*
X351451Y466659D01*
X351520Y466638D01*
X351585Y466608D01*
X351637Y466602D01*
X351687Y466587D01*
X351758Y466589D01*
X351829Y466581D01*
X351880Y466592D01*
X351932Y466593D01*
X352000Y466618D01*
X352070Y466633D01*
X352115Y466660D01*
X352163Y466678D01*
X352219Y466723D01*
X352281Y466759D01*
X352315Y466799D01*
X352355Y466832D01*
X352394Y466892D01*
X352441Y466946D01*
X352460Y466995D01*
X352488Y467039D01*
X352506Y467108D01*
X352533Y467175D01*
X352541Y467246D01*
X352549Y467277D01*
X352547Y467300D01*
X352551Y467341D01*
X352551Y549522D01*
X352540Y549593D01*
X352538Y549665D01*
X352520Y549714D01*
X352512Y549765D01*
X352478Y549828D01*
X352453Y549896D01*
X352421Y549936D01*
X352396Y549982D01*
X352344Y550032D01*
X352300Y550088D01*
X352256Y550116D01*
X352218Y550152D01*
X352153Y550182D01*
X352093Y550221D01*
X352042Y550233D01*
X351995Y550255D01*
X351924Y550263D01*
X351854Y550281D01*
X351802Y550277D01*
X351751Y550282D01*
X351680Y550267D01*
X351609Y550262D01*
X351561Y550241D01*
X351510Y550230D01*
X351449Y550193D01*
X351383Y550165D01*
X351327Y550121D01*
X351299Y550104D01*
X351284Y550086D01*
X351252Y550061D01*
X348561Y547369D01*
X344351Y547369D01*
X341375Y550345D01*
X341375Y554555D01*
X344351Y557531D01*
X348561Y557531D01*
X351252Y554839D01*
X351310Y554798D01*
X351362Y554748D01*
X351409Y554726D01*
X351451Y554696D01*
X351520Y554675D01*
X351585Y554645D01*
X351637Y554639D01*
X351687Y554624D01*
X351758Y554625D01*
X351829Y554618D01*
X351880Y554629D01*
X351932Y554630D01*
X352000Y554655D01*
X352070Y554670D01*
X352115Y554697D01*
X352163Y554714D01*
X352219Y554759D01*
X352281Y554796D01*
X352315Y554836D01*
X352355Y554868D01*
X352394Y554928D01*
X352441Y554983D01*
X352460Y555031D01*
X352488Y555075D01*
X352506Y555144D01*
X352533Y555211D01*
X352541Y555282D01*
X352549Y555314D01*
X352547Y555337D01*
X352551Y555378D01*
X352551Y648963D01*
X354337Y650749D01*
X509263Y650749D01*
X511049Y648963D01*
X511049Y554794D01*
X511050Y554786D01*
X511049Y554778D01*
X511070Y554664D01*
X511088Y554551D01*
X511092Y554544D01*
X511094Y554536D01*
X511150Y554435D01*
X511204Y554334D01*
X511209Y554328D01*
X511213Y554321D01*
X511299Y554243D01*
X511382Y554164D01*
X511389Y554161D01*
X511395Y554156D01*
X511501Y554109D01*
X511605Y554061D01*
X511613Y554060D01*
X511620Y554057D01*
X511735Y554046D01*
X511849Y554034D01*
X511857Y554035D01*
X511865Y554035D01*
X511977Y554061D01*
X512090Y554086D01*
X512097Y554090D01*
X512104Y554092D01*
X512202Y554153D01*
X512301Y554212D01*
X512306Y554218D01*
X512313Y554222D01*
X512426Y554346D01*
X515110Y558040D01*
X523930Y564449D01*
X534299Y567818D01*
X595553Y567818D01*
X595571Y567821D01*
X595589Y567819D01*
X595692Y567840D01*
X595796Y567857D01*
X595812Y567866D01*
X595830Y567870D01*
X595921Y567923D01*
X596013Y567973D01*
X596026Y567986D01*
X596041Y567995D01*
X596110Y568075D01*
X596183Y568151D01*
X596190Y568167D01*
X596202Y568181D01*
X596242Y568278D01*
X596286Y568374D01*
X596288Y568392D01*
X596295Y568409D01*
X596315Y568575D01*
X596527Y612699D01*
X596526Y612706D01*
X596527Y612717D01*
X594750Y707969D01*
X594748Y707978D01*
X594749Y707993D01*
X589991Y803142D01*
X589990Y803149D01*
X589990Y803160D01*
X586735Y847400D01*
X586709Y847511D01*
X586684Y847624D01*
X586680Y847631D01*
X586678Y847639D01*
X586617Y847736D01*
X586558Y847835D01*
X586552Y847840D01*
X586547Y847847D01*
X586459Y847920D01*
X586371Y847995D01*
X586363Y847998D01*
X586357Y848003D01*
X586250Y848043D01*
X586143Y848087D01*
X586133Y848088D01*
X586127Y848090D01*
X586105Y848091D01*
X585976Y848105D01*
X557642Y848105D01*
X556005Y849742D01*
X556005Y1019700D01*
X556002Y1019720D01*
X556004Y1019739D01*
X555982Y1019841D01*
X555966Y1019943D01*
X555956Y1019960D01*
X555952Y1019980D01*
X555899Y1020069D01*
X555850Y1020160D01*
X555836Y1020174D01*
X555826Y1020191D01*
X555747Y1020258D01*
X555672Y1020330D01*
X555654Y1020338D01*
X555639Y1020351D01*
X555543Y1020390D01*
X555449Y1020433D01*
X555429Y1020435D01*
X555411Y1020443D01*
X555244Y1020461D01*
X119121Y1020461D01*
X119057Y1020451D01*
X118991Y1020450D01*
X118911Y1020427D01*
X118879Y1020422D01*
X118861Y1020412D01*
X118830Y1020403D01*
X118176Y1020132D01*
X118093Y1020081D01*
X118007Y1020035D01*
X117989Y1020016D01*
X117967Y1020003D01*
X117905Y1019928D01*
X117838Y1019857D01*
X117827Y1019833D01*
X117810Y1019813D01*
X117775Y1019722D01*
X117734Y1019634D01*
X117731Y1019608D01*
X117722Y1019584D01*
X117718Y1019486D01*
X117707Y1019390D01*
X117712Y1019364D01*
X117711Y1019338D01*
X117738Y1019244D01*
X117759Y1019149D01*
X117773Y1019127D01*
X117780Y1019102D01*
X117835Y1019022D01*
X117885Y1018938D01*
X117905Y1018921D01*
X117920Y1018900D01*
X117998Y1018842D01*
X118072Y1018778D01*
X118097Y1018768D01*
X118117Y1018753D01*
X118210Y1018723D01*
X118300Y1018686D01*
X118333Y1018683D01*
X118351Y1018677D01*
X118384Y1018677D01*
X118467Y1018668D01*
X134904Y1018668D01*
X147290Y1006281D01*
X147348Y1006240D01*
X147400Y1006190D01*
X147447Y1006168D01*
X147489Y1006138D01*
X147558Y1006117D01*
X147623Y1006087D01*
X147675Y1006081D01*
X147725Y1006066D01*
X147796Y1006067D01*
X147867Y1006060D01*
X147918Y1006071D01*
X147970Y1006072D01*
X148038Y1006097D01*
X148108Y1006112D01*
X148153Y1006139D01*
X148201Y1006156D01*
X148257Y1006201D01*
X148319Y1006238D01*
X148353Y1006278D01*
X148393Y1006310D01*
X148432Y1006370D01*
X148479Y1006425D01*
X148498Y1006473D01*
X148526Y1006517D01*
X148544Y1006586D01*
X148571Y1006653D01*
X148571Y1006656D01*
X151565Y1009651D01*
X155775Y1009651D01*
X157965Y1007461D01*
X158038Y1007408D01*
X158108Y1007348D01*
X158138Y1007336D01*
X158164Y1007317D01*
X158251Y1007290D01*
X158336Y1007256D01*
X158377Y1007252D01*
X158399Y1007245D01*
X158432Y1007246D01*
X158503Y1007238D01*
X305047Y1007238D01*
X305137Y1007252D01*
X305228Y1007260D01*
X305258Y1007272D01*
X305290Y1007277D01*
X305371Y1007320D01*
X305454Y1007356D01*
X305487Y1007382D01*
X305507Y1007393D01*
X305529Y1007416D01*
X305585Y1007461D01*
X306505Y1008381D01*
X310715Y1008381D01*
X313691Y1005405D01*
X313691Y1001195D01*
X310715Y998219D01*
X308617Y998219D01*
X308546Y998208D01*
X308474Y998206D01*
X308425Y998188D01*
X308374Y998180D01*
X308311Y998146D01*
X308243Y998121D01*
X308203Y998089D01*
X308157Y998064D01*
X308107Y998012D01*
X308051Y997968D01*
X308023Y997924D01*
X307987Y997886D01*
X307957Y997821D01*
X307918Y997761D01*
X307906Y997710D01*
X307884Y997663D01*
X307876Y997592D01*
X307858Y997522D01*
X307862Y997470D01*
X307857Y997419D01*
X307872Y997348D01*
X307877Y997277D01*
X307898Y997229D01*
X307909Y997178D01*
X307946Y997117D01*
X307974Y997051D01*
X308018Y996995D01*
X308035Y996967D01*
X308053Y996952D01*
X308078Y996920D01*
X309754Y995245D01*
X309754Y991035D01*
X306778Y988059D01*
X306601Y988059D01*
X306531Y988048D01*
X306459Y988046D01*
X306410Y988028D01*
X306359Y988020D01*
X306295Y987986D01*
X306228Y987961D01*
X306187Y987929D01*
X306141Y987904D01*
X306092Y987853D01*
X306036Y987808D01*
X306008Y987764D01*
X305972Y987726D01*
X305942Y987661D01*
X305903Y987601D01*
X305890Y987550D01*
X305868Y987503D01*
X305860Y987432D01*
X305843Y987362D01*
X305847Y987310D01*
X305841Y987259D01*
X305856Y987188D01*
X305862Y987117D01*
X305882Y987069D01*
X305893Y987018D01*
X305930Y986957D01*
X305958Y986891D01*
X306003Y986835D01*
X306019Y986807D01*
X306037Y986792D01*
X306063Y986760D01*
X312032Y980791D01*
X312106Y980738D01*
X312175Y980678D01*
X312206Y980666D01*
X312232Y980647D01*
X312319Y980620D01*
X312404Y980586D01*
X312445Y980582D01*
X312467Y980575D01*
X312499Y980576D01*
X312570Y980568D01*
X316477Y980568D01*
X316567Y980582D01*
X316658Y980590D01*
X316688Y980602D01*
X316720Y980607D01*
X316801Y980650D01*
X316884Y980686D01*
X316917Y980712D01*
X316937Y980723D01*
X316954Y980740D01*
X316956Y980741D01*
X316963Y980749D01*
X317015Y980791D01*
X319205Y982981D01*
X323415Y982981D01*
X326391Y980005D01*
X326391Y975795D01*
X323415Y972819D01*
X319205Y972819D01*
X317015Y975009D01*
X316942Y975062D01*
X316872Y975122D01*
X316842Y975134D01*
X316816Y975153D01*
X316729Y975180D01*
X316644Y975214D01*
X316603Y975218D01*
X316581Y975225D01*
X316548Y975224D01*
X316477Y975232D01*
X310045Y975232D01*
X308259Y977018D01*
X293123Y992154D01*
X293049Y992207D01*
X292980Y992267D01*
X292949Y992279D01*
X292923Y992298D01*
X292836Y992325D01*
X292751Y992359D01*
X292710Y992363D01*
X292688Y992370D01*
X292656Y992369D01*
X292585Y992377D01*
X166707Y992377D01*
X166617Y992363D01*
X166526Y992355D01*
X166496Y992343D01*
X166464Y992338D01*
X166383Y992295D01*
X166299Y992259D01*
X166267Y992233D01*
X166247Y992222D01*
X166224Y992199D01*
X166169Y992154D01*
X157248Y983233D01*
X150092Y983233D01*
X146080Y987246D01*
X146022Y987287D01*
X145970Y987337D01*
X145923Y987359D01*
X145881Y987389D01*
X145812Y987410D01*
X145747Y987440D01*
X145695Y987446D01*
X145645Y987461D01*
X145574Y987460D01*
X145503Y987467D01*
X145452Y987456D01*
X145400Y987455D01*
X145332Y987430D01*
X145262Y987415D01*
X145217Y987388D01*
X145169Y987371D01*
X145113Y987326D01*
X145051Y987289D01*
X145017Y987249D01*
X144977Y987217D01*
X144938Y987157D01*
X144891Y987102D01*
X144872Y987054D01*
X144844Y987010D01*
X144826Y986941D01*
X144799Y986874D01*
X144791Y986803D01*
X144783Y986771D01*
X144785Y986748D01*
X144781Y986707D01*
X144781Y985955D01*
X141805Y982979D01*
X137595Y982979D01*
X134619Y985955D01*
X134619Y990197D01*
X134630Y990219D01*
X134660Y990261D01*
X134681Y990330D01*
X134711Y990395D01*
X134717Y990447D01*
X134732Y990496D01*
X134731Y990568D01*
X134738Y990639D01*
X134727Y990690D01*
X134726Y990742D01*
X134701Y990810D01*
X134686Y990880D01*
X134659Y990925D01*
X134642Y990973D01*
X134597Y991029D01*
X134560Y991091D01*
X134520Y991125D01*
X134488Y991165D01*
X134428Y991204D01*
X134373Y991251D01*
X134325Y991270D01*
X134281Y991298D01*
X134212Y991316D01*
X134145Y991343D01*
X134074Y991351D01*
X134043Y991359D01*
X134019Y991357D01*
X133978Y991361D01*
X120997Y991361D01*
X120907Y991347D01*
X120816Y991339D01*
X120787Y991327D01*
X120755Y991322D01*
X120674Y991279D01*
X120590Y991243D01*
X120558Y991217D01*
X120537Y991206D01*
X120515Y991183D01*
X120459Y991138D01*
X119666Y990345D01*
X108906Y990345D01*
X108886Y990362D01*
X108856Y990374D01*
X108830Y990393D01*
X108743Y990420D01*
X108658Y990454D01*
X108617Y990458D01*
X108595Y990465D01*
X108563Y990464D01*
X108492Y990472D01*
X101353Y990472D01*
X101263Y990458D01*
X101172Y990450D01*
X101142Y990438D01*
X101110Y990433D01*
X101029Y990390D01*
X100945Y990354D01*
X100913Y990328D01*
X100893Y990317D01*
X100871Y990294D01*
X100815Y990249D01*
X98625Y988059D01*
X94415Y988059D01*
X91439Y991035D01*
X91439Y995245D01*
X94415Y998221D01*
X98625Y998221D01*
X100815Y996031D01*
X100889Y995978D01*
X100958Y995918D01*
X100988Y995906D01*
X101014Y995887D01*
X101101Y995860D01*
X101186Y995826D01*
X101227Y995822D01*
X101249Y995815D01*
X101282Y995816D01*
X101353Y995808D01*
X105690Y995808D01*
X105702Y995810D01*
X105714Y995808D01*
X105823Y995829D01*
X105933Y995847D01*
X105943Y995853D01*
X105955Y995855D01*
X106052Y995911D01*
X106150Y995963D01*
X106158Y995971D01*
X106169Y995977D01*
X106243Y996060D01*
X106320Y996141D01*
X106325Y996152D01*
X106333Y996161D01*
X106376Y996263D01*
X106423Y996364D01*
X106425Y996376D01*
X106429Y996387D01*
X106438Y996498D01*
X106450Y996608D01*
X106448Y996620D01*
X106449Y996632D01*
X106422Y996740D01*
X106398Y996849D01*
X106392Y996859D01*
X106389Y996871D01*
X106306Y997016D01*
X105610Y997975D01*
X104884Y999400D01*
X104389Y1000921D01*
X104254Y1001777D01*
X113538Y1001777D01*
X113558Y1001780D01*
X113577Y1001778D01*
X113679Y1001800D01*
X113781Y1001817D01*
X113798Y1001826D01*
X113818Y1001830D01*
X113907Y1001883D01*
X113998Y1001932D01*
X114012Y1001946D01*
X114029Y1001956D01*
X114096Y1002035D01*
X114167Y1002110D01*
X114176Y1002128D01*
X114189Y1002143D01*
X114227Y1002239D01*
X114271Y1002333D01*
X114273Y1002353D01*
X114281Y1002371D01*
X114299Y1002538D01*
X114299Y1004062D01*
X114296Y1004082D01*
X114298Y1004101D01*
X114276Y1004203D01*
X114259Y1004305D01*
X114250Y1004322D01*
X114246Y1004342D01*
X114193Y1004431D01*
X114144Y1004522D01*
X114130Y1004536D01*
X114120Y1004553D01*
X114041Y1004620D01*
X113966Y1004691D01*
X113948Y1004700D01*
X113933Y1004713D01*
X113837Y1004752D01*
X113743Y1004795D01*
X113723Y1004797D01*
X113705Y1004805D01*
X113538Y1004823D01*
X104254Y1004823D01*
X104389Y1005679D01*
X104884Y1007200D01*
X105610Y1008625D01*
X106550Y1009919D01*
X107681Y1011050D01*
X108926Y1011955D01*
X108932Y1011961D01*
X108939Y1011965D01*
X109018Y1012048D01*
X109099Y1012130D01*
X109103Y1012137D01*
X109108Y1012143D01*
X109157Y1012247D01*
X109208Y1012351D01*
X109209Y1012359D01*
X109212Y1012366D01*
X109225Y1012480D01*
X109240Y1012595D01*
X109238Y1012603D01*
X109239Y1012610D01*
X109215Y1012723D01*
X109193Y1012836D01*
X109189Y1012843D01*
X109187Y1012851D01*
X109128Y1012949D01*
X109071Y1013050D01*
X109065Y1013055D01*
X109061Y1013062D01*
X108974Y1013136D01*
X108887Y1013214D01*
X108880Y1013217D01*
X108874Y1013222D01*
X108766Y1013265D01*
X108661Y1013310D01*
X108653Y1013311D01*
X108646Y1013314D01*
X108479Y1013332D01*
X39123Y1013332D01*
X39033Y1013318D01*
X38942Y1013310D01*
X38912Y1013298D01*
X38880Y1013293D01*
X38799Y1013250D01*
X38715Y1013214D01*
X38683Y1013188D01*
X38663Y1013177D01*
X38652Y1013166D01*
X38650Y1013165D01*
X38638Y1013152D01*
X38585Y1013109D01*
X36395Y1010919D01*
X32185Y1010919D01*
X29209Y1013895D01*
X29209Y1018105D01*
X30266Y1019162D01*
X30308Y1019220D01*
X30358Y1019272D01*
X30380Y1019319D01*
X30410Y1019361D01*
X30431Y1019430D01*
X30461Y1019495D01*
X30467Y1019547D01*
X30482Y1019597D01*
X30481Y1019668D01*
X30488Y1019739D01*
X30477Y1019790D01*
X30476Y1019842D01*
X30451Y1019910D01*
X30436Y1019980D01*
X30409Y1020024D01*
X30392Y1020073D01*
X30347Y1020129D01*
X30310Y1020191D01*
X30270Y1020225D01*
X30238Y1020265D01*
X30178Y1020304D01*
X30123Y1020351D01*
X30075Y1020370D01*
X30031Y1020398D01*
X29961Y1020416D01*
X29895Y1020443D01*
X29824Y1020451D01*
X29792Y1020459D01*
X29769Y1020457D01*
X29728Y1020461D01*
X-47244Y1020461D01*
X-47264Y1020458D01*
X-47283Y1020460D01*
X-47385Y1020438D01*
X-47487Y1020422D01*
X-47504Y1020412D01*
X-47524Y1020408D01*
X-47613Y1020355D01*
X-47704Y1020306D01*
X-47718Y1020292D01*
X-47735Y1020282D01*
X-47802Y1020203D01*
X-47874Y1020128D01*
X-47882Y1020110D01*
X-47895Y1020095D01*
X-47934Y1019999D01*
X-47977Y1019905D01*
X-47979Y1019885D01*
X-47987Y1019867D01*
X-48005Y1019700D01*
X-48005Y849742D01*
X-49642Y848105D01*
X-77976Y848105D01*
X-78089Y848087D01*
X-78203Y848071D01*
X-78211Y848067D01*
X-78219Y848066D01*
X-78320Y848012D01*
X-78423Y847960D01*
X-78429Y847954D01*
X-78436Y847950D01*
X-78515Y847867D01*
X-78596Y847786D01*
X-78600Y847778D01*
X-78606Y847772D01*
X-78654Y847668D01*
X-78705Y847565D01*
X-78707Y847555D01*
X-78709Y847549D01*
X-78712Y847527D01*
X-78735Y847400D01*
X-81990Y803160D01*
X-81990Y803153D01*
X-81991Y803142D01*
X-86749Y707993D01*
X-86748Y707983D01*
X-86750Y707969D01*
X-88527Y612717D01*
X-88526Y612710D01*
X-88527Y612699D01*
X-88315Y568575D01*
X-88312Y568557D01*
X-88313Y568540D01*
X-88291Y568437D01*
X-88274Y568333D01*
X-88265Y568317D01*
X-88261Y568299D01*
X-88207Y568209D01*
X-88157Y568116D01*
X-88144Y568104D01*
X-88135Y568088D01*
X-88055Y568020D01*
X-87978Y567947D01*
X-87962Y567940D01*
X-87948Y567928D01*
X-87850Y567889D01*
X-87755Y567845D01*
X-87737Y567843D01*
X-87720Y567836D01*
X-87553Y567818D01*
X-26299Y567818D01*
X-15930Y564449D01*
X-7110Y558040D01*
X-4426Y554346D01*
X-4420Y554341D01*
X-4416Y554334D01*
X-4333Y554255D01*
X-4251Y554173D01*
X-4244Y554170D01*
X-4238Y554164D01*
X-4133Y554116D01*
X-4030Y554065D01*
X-4022Y554064D01*
X-4015Y554061D01*
X-3901Y554048D01*
X-3786Y554033D01*
X-3778Y554035D01*
X-3771Y554034D01*
X-3658Y554058D01*
X-3545Y554080D01*
X-3538Y554084D01*
X-3530Y554086D01*
X-3432Y554145D01*
X-3331Y554202D01*
X-3326Y554208D01*
X-3319Y554212D01*
X-3244Y554300D01*
X-3167Y554386D01*
X-3164Y554393D01*
X-3159Y554399D01*
X-3116Y554506D01*
X-3071Y554612D01*
X-3070Y554620D01*
X-3067Y554627D01*
X-3049Y554794D01*
X-3049Y648963D01*
X-1263Y650749D01*
X153663Y650749D01*
X155449Y648963D01*
X155449Y431172D01*
X155460Y431101D01*
X155462Y431029D01*
X155480Y430980D01*
X155488Y430929D01*
X155522Y430866D01*
X155547Y430798D01*
X155579Y430758D01*
X155604Y430712D01*
X155656Y430662D01*
X155700Y430606D01*
X155744Y430578D01*
X155782Y430542D01*
X155847Y430512D01*
X155907Y430473D01*
X155958Y430461D01*
X156005Y430439D01*
X156076Y430431D01*
X156146Y430413D01*
X156198Y430417D01*
X156249Y430412D01*
X156320Y430427D01*
X156391Y430432D01*
X156439Y430453D01*
X156490Y430464D01*
X156551Y430501D01*
X156617Y430529D01*
X156673Y430573D01*
X156701Y430590D01*
X156716Y430608D01*
X156748Y430633D01*
X159185Y433071D01*
X163395Y433071D01*
X166371Y430095D01*
X166371Y425885D01*
X163395Y422909D01*
X159185Y422909D01*
X156748Y425347D01*
X156690Y425388D01*
X156638Y425438D01*
X156591Y425460D01*
X156549Y425490D01*
X156480Y425511D01*
X156415Y425541D01*
X156363Y425547D01*
X156313Y425562D01*
X156242Y425561D01*
X156171Y425568D01*
X156120Y425557D01*
X156068Y425556D01*
X156000Y425531D01*
X155930Y425516D01*
X155885Y425489D01*
X155837Y425472D01*
X155781Y425427D01*
X155719Y425390D01*
X155685Y425350D01*
X155645Y425318D01*
X155606Y425258D01*
X155559Y425203D01*
X155540Y425155D01*
X155512Y425111D01*
X155494Y425042D01*
X155467Y424975D01*
X155459Y424904D01*
X155451Y424872D01*
X155453Y424849D01*
X155449Y424808D01*
X155449Y417766D01*
X155434Y417719D01*
X155404Y417654D01*
X155398Y417602D01*
X155383Y417553D01*
X155385Y417481D01*
X155377Y417410D01*
X155388Y417359D01*
X155389Y417307D01*
X155414Y417239D01*
X155429Y417169D01*
X155456Y417124D01*
X155474Y417076D01*
X155518Y417020D01*
X155555Y416958D01*
X155595Y416924D01*
X155627Y416884D01*
X155688Y416845D01*
X155742Y416798D01*
X155790Y416779D01*
X155834Y416751D01*
X155904Y416733D01*
X155970Y416706D01*
X156042Y416698D01*
X156073Y416690D01*
X156096Y416692D01*
X156137Y416688D01*
X162807Y416688D01*
X162897Y416702D01*
X162988Y416710D01*
X163018Y416722D01*
X163050Y416727D01*
X163131Y416770D01*
X163214Y416806D01*
X163247Y416832D01*
X163267Y416843D01*
X163289Y416866D01*
X163345Y416911D01*
X165535Y419101D01*
X169745Y419101D01*
X172721Y416125D01*
X172721Y411916D01*
X172442Y411637D01*
X172401Y411579D01*
X172351Y411527D01*
X172329Y411480D01*
X172299Y411438D01*
X172278Y411369D01*
X172248Y411304D01*
X172242Y411252D01*
X172227Y411202D01*
X172228Y411131D01*
X172221Y411060D01*
X172232Y411009D01*
X172233Y410957D01*
X172258Y410889D01*
X172273Y410819D01*
X172300Y410774D01*
X172317Y410726D01*
X172362Y410670D01*
X172399Y410608D01*
X172439Y410574D01*
X172471Y410534D01*
X172531Y410495D01*
X172586Y410448D01*
X172634Y410429D01*
X172678Y410401D01*
X172747Y410383D01*
X172814Y410356D01*
X172885Y410348D01*
X172917Y410340D01*
X172940Y410342D01*
X172981Y410338D01*
X177038Y410338D01*
X177058Y410341D01*
X177077Y410339D01*
X177179Y410361D01*
X177281Y410377D01*
X177298Y410387D01*
X177318Y410391D01*
X177407Y410444D01*
X177498Y410493D01*
X177512Y410507D01*
X177529Y410517D01*
X177596Y410596D01*
X177668Y410671D01*
X177676Y410689D01*
X177689Y410704D01*
X177728Y410800D01*
X177771Y410894D01*
X177773Y410914D01*
X177781Y410932D01*
X177792Y411038D01*
X180775Y414021D01*
X184985Y414021D01*
X187966Y411039D01*
X187984Y410958D01*
X188000Y410856D01*
X188010Y410839D01*
X188014Y410819D01*
X188067Y410730D01*
X188116Y410639D01*
X188130Y410625D01*
X188140Y410608D01*
X188219Y410541D01*
X188294Y410469D01*
X188312Y410461D01*
X188327Y410448D01*
X188423Y410409D01*
X188517Y410366D01*
X188537Y410364D01*
X188555Y410356D01*
X188722Y410338D01*
X195624Y410338D01*
X195714Y410352D01*
X195805Y410360D01*
X195835Y410372D01*
X195867Y410377D01*
X195948Y410420D01*
X196031Y410456D01*
X196064Y410482D01*
X196084Y410493D01*
X196106Y410516D01*
X196162Y410561D01*
X200638Y415037D01*
X205860Y415037D01*
X205931Y415048D01*
X206003Y415050D01*
X206052Y415068D01*
X206103Y415076D01*
X206166Y415110D01*
X206234Y415135D01*
X206274Y415167D01*
X206320Y415192D01*
X206370Y415244D01*
X206426Y415288D01*
X206454Y415332D01*
X206490Y415370D01*
X206520Y415435D01*
X206559Y415495D01*
X206571Y415546D01*
X206593Y415593D01*
X206601Y415664D01*
X206619Y415734D01*
X206615Y415786D01*
X206620Y415837D01*
X206605Y415908D01*
X206600Y415979D01*
X206579Y416027D01*
X206568Y416078D01*
X206531Y416139D01*
X206503Y416205D01*
X206459Y416261D01*
X206442Y416289D01*
X206424Y416304D01*
X206399Y416336D01*
X205739Y416995D01*
X205739Y421205D01*
X208715Y424181D01*
X212925Y424181D01*
X215901Y421205D01*
X215901Y416995D01*
X215241Y416336D01*
X215200Y416278D01*
X215150Y416226D01*
X215128Y416179D01*
X215098Y416137D01*
X215077Y416068D01*
X215047Y416003D01*
X215041Y415951D01*
X215026Y415901D01*
X215027Y415830D01*
X215020Y415759D01*
X215031Y415708D01*
X215032Y415656D01*
X215057Y415588D01*
X215072Y415518D01*
X215099Y415473D01*
X215116Y415425D01*
X215161Y415369D01*
X215198Y415307D01*
X215238Y415273D01*
X215270Y415233D01*
X215330Y415194D01*
X215385Y415147D01*
X215433Y415128D01*
X215477Y415100D01*
X215547Y415082D01*
X215613Y415055D01*
X215684Y415047D01*
X215716Y415039D01*
X215739Y415041D01*
X215780Y415037D01*
X233800Y415037D01*
X233871Y415048D01*
X233943Y415050D01*
X233992Y415068D01*
X234043Y415076D01*
X234106Y415110D01*
X234174Y415135D01*
X234214Y415167D01*
X234260Y415192D01*
X234310Y415244D01*
X234366Y415288D01*
X234394Y415332D01*
X234430Y415370D01*
X234460Y415435D01*
X234499Y415495D01*
X234511Y415546D01*
X234533Y415593D01*
X234541Y415664D01*
X234559Y415734D01*
X234555Y415786D01*
X234560Y415837D01*
X234545Y415908D01*
X234540Y415979D01*
X234519Y416027D01*
X234508Y416078D01*
X234471Y416139D01*
X234443Y416205D01*
X234399Y416261D01*
X234382Y416289D01*
X234364Y416304D01*
X234339Y416336D01*
X232409Y418265D01*
X232409Y422475D01*
X235385Y425451D01*
X239595Y425451D01*
X242571Y422475D01*
X242571Y418265D01*
X240641Y416336D01*
X240600Y416278D01*
X240550Y416226D01*
X240528Y416179D01*
X240498Y416137D01*
X240477Y416068D01*
X240447Y416003D01*
X240441Y415951D01*
X240426Y415901D01*
X240427Y415830D01*
X240420Y415759D01*
X240431Y415708D01*
X240432Y415656D01*
X240457Y415588D01*
X240472Y415518D01*
X240499Y415473D01*
X240516Y415425D01*
X240561Y415369D01*
X240598Y415307D01*
X240638Y415273D01*
X240670Y415233D01*
X240730Y415194D01*
X240785Y415147D01*
X240833Y415128D01*
X240877Y415100D01*
X240946Y415082D01*
X241013Y415055D01*
X241084Y415047D01*
X241116Y415039D01*
X241139Y415041D01*
X241180Y415037D01*
X304292Y415037D01*
X304312Y415040D01*
X304331Y415038D01*
X304433Y415060D01*
X304535Y415076D01*
X304552Y415086D01*
X304572Y415090D01*
X304661Y415143D01*
X304752Y415192D01*
X304766Y415206D01*
X304783Y415216D01*
X304850Y415295D01*
X304922Y415370D01*
X304930Y415388D01*
X304943Y415403D01*
X304982Y415499D01*
X305025Y415593D01*
X305027Y415613D01*
X305035Y415631D01*
X305053Y415798D01*
X305053Y416379D01*
X307067Y418393D01*
X307079Y418409D01*
X307095Y418421D01*
X307151Y418509D01*
X307211Y418592D01*
X307217Y418611D01*
X307228Y418628D01*
X307253Y418729D01*
X307283Y418828D01*
X307283Y418847D01*
X307288Y418867D01*
X307280Y418970D01*
X307277Y419073D01*
X307270Y419092D01*
X307269Y419112D01*
X307228Y419207D01*
X307193Y419304D01*
X307180Y419320D01*
X307172Y419338D01*
X307067Y419469D01*
X305815Y420721D01*
X305815Y424931D01*
X308791Y427907D01*
X313001Y427907D01*
X315977Y424931D01*
X315977Y421833D01*
X315983Y421795D01*
X315982Y421789D01*
X315989Y421760D01*
X315991Y421743D01*
X315999Y421652D01*
X316011Y421623D01*
X316016Y421591D01*
X316032Y421562D01*
X316035Y421549D01*
X316062Y421503D01*
X316095Y421426D01*
X316121Y421394D01*
X316132Y421373D01*
X316150Y421355D01*
X316161Y421338D01*
X316176Y421325D01*
X316200Y421295D01*
X330109Y407386D01*
X330183Y407333D01*
X330252Y407273D01*
X330283Y407261D01*
X330309Y407242D01*
X330396Y407215D01*
X330481Y407181D01*
X330522Y407177D01*
X330544Y407170D01*
X330576Y407171D01*
X330647Y407163D01*
X389889Y407163D01*
X393222Y403830D01*
X393296Y403777D01*
X393366Y403717D01*
X393396Y403705D01*
X393422Y403686D01*
X393509Y403659D01*
X393594Y403625D01*
X393635Y403621D01*
X393657Y403614D01*
X393689Y403615D01*
X393761Y403607D01*
X397583Y403607D01*
X400782Y400408D01*
X400798Y400396D01*
X400810Y400380D01*
X400854Y400352D01*
X400892Y400316D01*
X400939Y400294D01*
X400981Y400264D01*
X401000Y400258D01*
X401017Y400247D01*
X401068Y400235D01*
X401115Y400213D01*
X401167Y400207D01*
X401217Y400192D01*
X401236Y400192D01*
X401256Y400187D01*
X401308Y400191D01*
X401359Y400186D01*
X401411Y400197D01*
X401462Y400198D01*
X401481Y400205D01*
X401501Y400206D01*
X401549Y400227D01*
X401600Y400238D01*
X401645Y400265D01*
X401693Y400282D01*
X401709Y400295D01*
X401727Y400303D01*
X401730Y400305D01*
X405965Y400305D01*
X406250Y400020D01*
X406323Y399967D01*
X406393Y399907D01*
X406423Y399895D01*
X406449Y399876D01*
X406536Y399849D01*
X406621Y399815D01*
X406662Y399811D01*
X406684Y399804D01*
X406717Y399805D01*
X406788Y399797D01*
X501004Y399797D01*
X503695Y397106D01*
X503697Y397089D01*
X503705Y396998D01*
X503717Y396969D01*
X503722Y396937D01*
X503765Y396856D01*
X503801Y396772D01*
X503827Y396740D01*
X503838Y396719D01*
X503861Y396697D01*
X503906Y396641D01*
X507893Y392654D01*
X507967Y392601D01*
X508037Y392541D01*
X508067Y392529D01*
X508093Y392510D01*
X508180Y392483D01*
X508265Y392449D01*
X508306Y392445D01*
X508328Y392438D01*
X508360Y392439D01*
X508431Y392431D01*
X508835Y392431D01*
X511811Y389455D01*
X511811Y385245D01*
X508835Y382269D01*
X504625Y382269D01*
X501649Y385245D01*
X501649Y385649D01*
X501635Y385739D01*
X501627Y385830D01*
X501615Y385859D01*
X501610Y385891D01*
X501567Y385972D01*
X501531Y386056D01*
X501505Y386088D01*
X501494Y386109D01*
X501471Y386131D01*
X501426Y386187D01*
X497185Y390428D01*
X497111Y390481D01*
X497041Y390541D01*
X497011Y390553D01*
X496985Y390572D01*
X496898Y390599D01*
X496813Y390633D01*
X496772Y390637D01*
X496750Y390644D01*
X496718Y390643D01*
X496647Y390651D01*
X406788Y390651D01*
X406698Y390637D01*
X406607Y390629D01*
X406577Y390617D01*
X406545Y390612D01*
X406464Y390569D01*
X406381Y390533D01*
X406348Y390507D01*
X406328Y390496D01*
X406306Y390473D01*
X406250Y390428D01*
X405965Y390143D01*
X401755Y390143D01*
X398556Y393342D01*
X398540Y393354D01*
X398528Y393370D01*
X398484Y393398D01*
X398446Y393434D01*
X398399Y393456D01*
X398357Y393486D01*
X398338Y393492D01*
X398321Y393503D01*
X398270Y393515D01*
X398223Y393537D01*
X398171Y393543D01*
X398121Y393558D01*
X398102Y393558D01*
X398082Y393563D01*
X398030Y393559D01*
X397979Y393564D01*
X397927Y393553D01*
X397876Y393552D01*
X397857Y393545D01*
X397837Y393544D01*
X397789Y393523D01*
X397738Y393512D01*
X397693Y393485D01*
X397645Y393468D01*
X397629Y393455D01*
X397611Y393447D01*
X397608Y393445D01*
X393373Y393445D01*
X390397Y396421D01*
X390397Y398794D01*
X390383Y398884D01*
X390375Y398975D01*
X390363Y399005D01*
X390358Y399037D01*
X390315Y399117D01*
X390279Y399201D01*
X390253Y399233D01*
X390242Y399254D01*
X390219Y399276D01*
X390174Y399332D01*
X387902Y401604D01*
X387828Y401657D01*
X387759Y401717D01*
X387729Y401729D01*
X387703Y401748D01*
X387616Y401775D01*
X387531Y401809D01*
X387490Y401813D01*
X387467Y401820D01*
X387435Y401819D01*
X387364Y401827D01*
X328122Y401827D01*
X316514Y413435D01*
X316456Y413477D01*
X316404Y413526D01*
X316357Y413548D01*
X316315Y413579D01*
X316246Y413600D01*
X316181Y413630D01*
X316129Y413636D01*
X316079Y413651D01*
X316008Y413649D01*
X315937Y413657D01*
X315886Y413646D01*
X315834Y413645D01*
X315766Y413620D01*
X315696Y413605D01*
X315651Y413578D01*
X315603Y413560D01*
X315547Y413515D01*
X315485Y413479D01*
X315451Y413439D01*
X315411Y413406D01*
X315372Y413346D01*
X315325Y413292D01*
X315306Y413243D01*
X315278Y413199D01*
X315260Y413130D01*
X315233Y413063D01*
X315225Y412992D01*
X315217Y412961D01*
X315219Y412938D01*
X315215Y412897D01*
X315215Y412169D01*
X312239Y409193D01*
X308030Y409193D01*
X307745Y409478D01*
X307670Y409532D01*
X307601Y409591D01*
X307571Y409603D01*
X307545Y409622D01*
X307458Y409649D01*
X307373Y409683D01*
X307332Y409687D01*
X307310Y409694D01*
X307277Y409693D01*
X307206Y409701D01*
X297822Y409701D01*
X297751Y409690D01*
X297679Y409688D01*
X297630Y409670D01*
X297579Y409662D01*
X297516Y409628D01*
X297448Y409603D01*
X297408Y409571D01*
X297362Y409546D01*
X297312Y409495D01*
X297256Y409450D01*
X297228Y409406D01*
X297192Y409368D01*
X297162Y409303D01*
X297123Y409243D01*
X297111Y409192D01*
X297089Y409145D01*
X297081Y409074D01*
X297063Y409004D01*
X297067Y408952D01*
X297062Y408901D01*
X297077Y408830D01*
X297082Y408759D01*
X297103Y408711D01*
X297114Y408660D01*
X297151Y408599D01*
X297179Y408533D01*
X297181Y408530D01*
X297181Y404295D01*
X296267Y403382D01*
X296226Y403324D01*
X296176Y403272D01*
X296154Y403225D01*
X296124Y403183D01*
X296103Y403114D01*
X296073Y403049D01*
X296067Y402997D01*
X296052Y402947D01*
X296053Y402876D01*
X296046Y402805D01*
X296057Y402754D01*
X296058Y402702D01*
X296083Y402634D01*
X296098Y402564D01*
X296125Y402519D01*
X296142Y402471D01*
X296187Y402415D01*
X296224Y402353D01*
X296264Y402319D01*
X296296Y402279D01*
X296356Y402240D01*
X296411Y402193D01*
X296459Y402174D01*
X296503Y402146D01*
X296573Y402128D01*
X296639Y402101D01*
X296710Y402093D01*
X296742Y402085D01*
X296765Y402087D01*
X296806Y402083D01*
X309978Y402083D01*
X310068Y402097D01*
X310159Y402105D01*
X310189Y402117D01*
X310221Y402122D01*
X310301Y402165D01*
X310385Y402201D01*
X310418Y402227D01*
X310438Y402238D01*
X310460Y402261D01*
X310516Y402306D01*
X311817Y403607D01*
X316026Y403607D01*
X319003Y400631D01*
X319003Y396421D01*
X316311Y393730D01*
X316269Y393672D01*
X316220Y393620D01*
X316198Y393573D01*
X316168Y393531D01*
X316147Y393462D01*
X316116Y393397D01*
X316111Y393345D01*
X316095Y393295D01*
X316097Y393224D01*
X316089Y393153D01*
X316100Y393102D01*
X316102Y393050D01*
X316126Y392982D01*
X316142Y392912D01*
X316168Y392867D01*
X316186Y392819D01*
X316231Y392763D01*
X316268Y392701D01*
X316307Y392667D01*
X316340Y392627D01*
X316400Y392588D01*
X316455Y392541D01*
X316503Y392522D01*
X316547Y392494D01*
X316616Y392476D01*
X316683Y392449D01*
X316754Y392441D01*
X316785Y392433D01*
X316809Y392435D01*
X316850Y392431D01*
X319605Y392431D01*
X322581Y389455D01*
X322581Y385246D01*
X322302Y384967D01*
X322261Y384909D01*
X322211Y384857D01*
X322189Y384810D01*
X322159Y384768D01*
X322138Y384699D01*
X322108Y384634D01*
X322102Y384582D01*
X322087Y384532D01*
X322088Y384461D01*
X322081Y384390D01*
X322092Y384339D01*
X322093Y384287D01*
X322118Y384219D01*
X322133Y384149D01*
X322160Y384104D01*
X322177Y384056D01*
X322222Y384000D01*
X322259Y383938D01*
X322299Y383904D01*
X322331Y383864D01*
X322391Y383825D01*
X322446Y383778D01*
X322494Y383759D01*
X322538Y383731D01*
X322607Y383713D01*
X322674Y383686D01*
X322745Y383678D01*
X322777Y383670D01*
X322800Y383672D01*
X322841Y383668D01*
X387826Y383668D01*
X389508Y381986D01*
X389582Y381933D01*
X389651Y381873D01*
X389682Y381861D01*
X389708Y381842D01*
X389795Y381815D01*
X389880Y381781D01*
X389920Y381777D01*
X389943Y381770D01*
X389975Y381771D01*
X390046Y381763D01*
X411346Y381763D01*
X411436Y381777D01*
X411527Y381785D01*
X411557Y381797D01*
X411589Y381802D01*
X411670Y381845D01*
X411753Y381881D01*
X411786Y381907D01*
X411806Y381918D01*
X411828Y381941D01*
X411884Y381986D01*
X414074Y384176D01*
X418284Y384176D01*
X421260Y381200D01*
X421260Y376990D01*
X418284Y374014D01*
X414074Y374014D01*
X411884Y376204D01*
X411811Y376257D01*
X411741Y376317D01*
X411711Y376329D01*
X411685Y376348D01*
X411598Y376375D01*
X411513Y376409D01*
X411472Y376413D01*
X411450Y376420D01*
X411417Y376419D01*
X411346Y376427D01*
X388065Y376427D01*
X387994Y376416D01*
X387923Y376414D01*
X387874Y376396D01*
X387822Y376388D01*
X387759Y376354D01*
X387692Y376329D01*
X387651Y376297D01*
X387605Y376272D01*
X387556Y376220D01*
X387500Y376176D01*
X387472Y376132D01*
X387436Y376094D01*
X387406Y376029D01*
X387367Y375969D01*
X387354Y375918D01*
X387332Y375871D01*
X387324Y375800D01*
X387307Y375730D01*
X387311Y375678D01*
X387305Y375627D01*
X387320Y375556D01*
X387326Y375485D01*
X387346Y375437D01*
X387357Y375386D01*
X387394Y375325D01*
X387422Y375259D01*
X387467Y375203D01*
X387483Y375175D01*
X387501Y375160D01*
X387527Y375128D01*
X390067Y372588D01*
X390141Y372535D01*
X390210Y372475D01*
X390240Y372463D01*
X390267Y372444D01*
X390354Y372417D01*
X390439Y372383D01*
X390479Y372379D01*
X390502Y372372D01*
X390534Y372373D01*
X390605Y372365D01*
X445382Y372365D01*
X445453Y372376D01*
X445525Y372378D01*
X445574Y372396D01*
X445625Y372404D01*
X445688Y372438D01*
X445756Y372463D01*
X445796Y372495D01*
X445842Y372520D01*
X445892Y372571D01*
X445948Y372616D01*
X445976Y372660D01*
X446012Y372698D01*
X446042Y372763D01*
X446081Y372823D01*
X446093Y372874D01*
X446115Y372921D01*
X446123Y372992D01*
X446141Y373062D01*
X446137Y373114D01*
X446142Y373165D01*
X446127Y373236D01*
X446122Y373307D01*
X446101Y373355D01*
X446090Y373406D01*
X446053Y373467D01*
X446025Y373533D01*
X445981Y373589D01*
X445964Y373617D01*
X445946Y373632D01*
X445920Y373664D01*
X445769Y373816D01*
X445769Y378025D01*
X448745Y381001D01*
X452955Y381001D01*
X455931Y378025D01*
X455931Y373816D01*
X455780Y373664D01*
X455738Y373606D01*
X455688Y373554D01*
X455666Y373507D01*
X455636Y373465D01*
X455615Y373396D01*
X455585Y373331D01*
X455579Y373279D01*
X455564Y373229D01*
X455565Y373158D01*
X455558Y373087D01*
X455569Y373036D01*
X455570Y372984D01*
X455595Y372916D01*
X455610Y372846D01*
X455637Y372801D01*
X455654Y372753D01*
X455699Y372697D01*
X455736Y372635D01*
X455776Y372601D01*
X455808Y372561D01*
X455868Y372522D01*
X455923Y372475D01*
X455971Y372456D01*
X456015Y372428D01*
X456084Y372410D01*
X456151Y372383D01*
X456222Y372375D01*
X456254Y372367D01*
X456277Y372369D01*
X456318Y372365D01*
X467868Y372365D01*
X467888Y372368D01*
X467907Y372366D01*
X468009Y372388D01*
X468111Y372404D01*
X468128Y372414D01*
X468148Y372418D01*
X468237Y372471D01*
X468328Y372520D01*
X468342Y372534D01*
X468359Y372544D01*
X468426Y372623D01*
X468498Y372698D01*
X468506Y372716D01*
X468519Y372731D01*
X468558Y372827D01*
X468601Y372921D01*
X468603Y372941D01*
X468611Y372959D01*
X468629Y373126D01*
X468629Y376755D01*
X471605Y379731D01*
X475815Y379731D01*
X478791Y376755D01*
X478791Y372545D01*
X475815Y369569D01*
X473793Y369569D01*
X473703Y369555D01*
X473612Y369547D01*
X473582Y369535D01*
X473550Y369530D01*
X473469Y369487D01*
X473386Y369451D01*
X473353Y369425D01*
X473333Y369414D01*
X473311Y369391D01*
X473255Y369346D01*
X470938Y367029D01*
X391164Y367029D01*
X391093Y367018D01*
X391022Y367016D01*
X390973Y366998D01*
X390921Y366990D01*
X390858Y366956D01*
X390791Y366931D01*
X390750Y366899D01*
X390704Y366874D01*
X390655Y366822D01*
X390599Y366778D01*
X390571Y366734D01*
X390535Y366696D01*
X390505Y366631D01*
X390466Y366571D01*
X390453Y366520D01*
X390431Y366473D01*
X390423Y366402D01*
X390406Y366332D01*
X390410Y366280D01*
X390404Y366229D01*
X390419Y366158D01*
X390425Y366087D01*
X390445Y366039D01*
X390456Y365988D01*
X390493Y365927D01*
X390521Y365861D01*
X390566Y365805D01*
X390582Y365777D01*
X390591Y365770D01*
X390593Y365767D01*
X390604Y365757D01*
X390626Y365730D01*
X396595Y359761D01*
X396669Y359708D01*
X396738Y359648D01*
X396769Y359636D01*
X396795Y359617D01*
X396882Y359590D01*
X396967Y359556D01*
X397007Y359552D01*
X397030Y359545D01*
X397062Y359546D01*
X397133Y359538D01*
X424427Y359538D01*
X424517Y359552D01*
X424608Y359560D01*
X424638Y359572D01*
X424670Y359577D01*
X424751Y359620D01*
X424834Y359656D01*
X424867Y359682D01*
X424887Y359693D01*
X424909Y359716D01*
X424965Y359761D01*
X427155Y361951D01*
X431365Y361951D01*
X434341Y358975D01*
X434341Y354765D01*
X433173Y353598D01*
X433132Y353540D01*
X433082Y353488D01*
X433060Y353441D01*
X433030Y353399D01*
X433009Y353330D01*
X432979Y353265D01*
X432973Y353213D01*
X432958Y353163D01*
X432959Y353092D01*
X432952Y353021D01*
X432963Y352970D01*
X432964Y352918D01*
X432989Y352850D01*
X433004Y352780D01*
X433031Y352735D01*
X433048Y352687D01*
X433093Y352631D01*
X433130Y352569D01*
X433170Y352535D01*
X433202Y352495D01*
X433262Y352456D01*
X433317Y352409D01*
X433365Y352390D01*
X433409Y352362D01*
X433478Y352344D01*
X433545Y352317D01*
X433616Y352309D01*
X433648Y352301D01*
X433671Y352303D01*
X433712Y352299D01*
X475211Y352299D01*
X475301Y352313D01*
X475392Y352321D01*
X475421Y352333D01*
X475453Y352338D01*
X475534Y352381D01*
X475618Y352417D01*
X475650Y352443D01*
X475671Y352454D01*
X475693Y352477D01*
X475749Y352522D01*
X477296Y354069D01*
X477349Y354143D01*
X477409Y354212D01*
X477421Y354243D01*
X477440Y354269D01*
X477467Y354356D01*
X477501Y354441D01*
X477505Y354482D01*
X477512Y354504D01*
X477511Y354536D01*
X477519Y354607D01*
X477519Y357705D01*
X480495Y360681D01*
X484705Y360681D01*
X487681Y357705D01*
X487681Y353495D01*
X484705Y350519D01*
X481607Y350519D01*
X481517Y350505D01*
X481426Y350497D01*
X481397Y350485D01*
X481365Y350480D01*
X481284Y350437D01*
X481200Y350401D01*
X481168Y350375D01*
X481147Y350364D01*
X481125Y350341D01*
X481069Y350296D01*
X477736Y346963D01*
X396024Y346963D01*
X380118Y362869D01*
X380044Y362922D01*
X379975Y362982D01*
X379944Y362994D01*
X379918Y363013D01*
X379831Y363040D01*
X379746Y363074D01*
X379705Y363078D01*
X379683Y363085D01*
X379651Y363084D01*
X379580Y363092D01*
X116542Y363092D01*
X116452Y363078D01*
X116361Y363070D01*
X116331Y363058D01*
X116299Y363053D01*
X116218Y363010D01*
X116135Y362974D01*
X116102Y362948D01*
X116082Y362937D01*
X116060Y362914D01*
X116004Y362869D01*
X115338Y362203D01*
X109989Y362203D01*
X109918Y362192D01*
X109846Y362190D01*
X109797Y362172D01*
X109746Y362164D01*
X109683Y362130D01*
X109615Y362105D01*
X109575Y362073D01*
X109529Y362048D01*
X109479Y361996D01*
X109423Y361952D01*
X109395Y361908D01*
X109359Y361870D01*
X109329Y361805D01*
X109290Y361745D01*
X109278Y361694D01*
X109256Y361647D01*
X109248Y361576D01*
X109230Y361506D01*
X109234Y361454D01*
X109229Y361403D01*
X109244Y361332D01*
X109249Y361261D01*
X109270Y361213D01*
X109281Y361162D01*
X109318Y361101D01*
X109346Y361035D01*
X109390Y360979D01*
X109407Y360951D01*
X109425Y360936D01*
X109450Y360904D01*
X110491Y359864D01*
X110491Y355654D01*
X107515Y352678D01*
X103305Y352678D01*
X100329Y355654D01*
X100329Y359864D01*
X101878Y361412D01*
X101919Y361470D01*
X101969Y361522D01*
X101991Y361569D01*
X102021Y361611D01*
X102042Y361680D01*
X102072Y361745D01*
X102078Y361797D01*
X102093Y361847D01*
X102092Y361918D01*
X102099Y361989D01*
X102088Y362040D01*
X102087Y362092D01*
X102062Y362160D01*
X102047Y362230D01*
X102020Y362275D01*
X102003Y362323D01*
X101958Y362379D01*
X101921Y362441D01*
X101881Y362475D01*
X101849Y362515D01*
X101789Y362554D01*
X101734Y362601D01*
X101686Y362620D01*
X101642Y362648D01*
X101573Y362666D01*
X101506Y362693D01*
X101435Y362701D01*
X101403Y362709D01*
X101380Y362707D01*
X101339Y362711D01*
X90320Y362711D01*
X90230Y362697D01*
X90139Y362689D01*
X90110Y362677D01*
X90078Y362672D01*
X89997Y362629D01*
X89913Y362593D01*
X89881Y362567D01*
X89860Y362556D01*
X89838Y362533D01*
X89782Y362488D01*
X68931Y341637D01*
X68883Y341571D01*
X68877Y341564D01*
X68875Y341560D01*
X68818Y341494D01*
X68806Y341463D01*
X68787Y341437D01*
X68760Y341350D01*
X68726Y341265D01*
X68722Y341224D01*
X68715Y341202D01*
X68716Y341170D01*
X68708Y341099D01*
X68708Y284233D01*
X68722Y284143D01*
X68730Y284052D01*
X68742Y284022D01*
X68747Y283990D01*
X68790Y283909D01*
X68826Y283826D01*
X68852Y283793D01*
X68863Y283773D01*
X68886Y283751D01*
X68931Y283695D01*
X71121Y281505D01*
X71121Y277295D01*
X68145Y274319D01*
X63935Y274319D01*
X60959Y277295D01*
X60959Y281505D01*
X63149Y283695D01*
X63202Y283768D01*
X63262Y283838D01*
X63274Y283868D01*
X63293Y283894D01*
X63320Y283981D01*
X63354Y284066D01*
X63358Y284107D01*
X63365Y284129D01*
X63364Y284162D01*
X63372Y284233D01*
X63372Y343624D01*
X65158Y345410D01*
X86009Y366261D01*
X87795Y368047D01*
X103378Y368047D01*
X103398Y368050D01*
X103417Y368048D01*
X103519Y368070D01*
X103621Y368086D01*
X103638Y368096D01*
X103658Y368100D01*
X103747Y368153D01*
X103838Y368202D01*
X103852Y368216D01*
X103869Y368226D01*
X103936Y368305D01*
X104008Y368380D01*
X104016Y368398D01*
X104029Y368413D01*
X104068Y368509D01*
X104111Y368603D01*
X104113Y368623D01*
X104121Y368641D01*
X104139Y368808D01*
X104139Y372944D01*
X104418Y373223D01*
X104459Y373281D01*
X104509Y373333D01*
X104531Y373380D01*
X104561Y373422D01*
X104582Y373491D01*
X104612Y373556D01*
X104618Y373608D01*
X104633Y373658D01*
X104632Y373729D01*
X104639Y373800D01*
X104628Y373851D01*
X104627Y373903D01*
X104602Y373971D01*
X104587Y374041D01*
X104560Y374086D01*
X104543Y374134D01*
X104498Y374190D01*
X104461Y374252D01*
X104421Y374286D01*
X104389Y374326D01*
X104329Y374365D01*
X104274Y374412D01*
X104226Y374431D01*
X104182Y374459D01*
X104113Y374477D01*
X104046Y374504D01*
X103975Y374512D01*
X103943Y374520D01*
X103920Y374518D01*
X103879Y374522D01*
X6500Y374522D01*
X6410Y374508D01*
X6319Y374500D01*
X6290Y374488D01*
X6258Y374483D01*
X6177Y374440D01*
X6093Y374404D01*
X6061Y374378D01*
X6040Y374367D01*
X6018Y374344D01*
X5962Y374299D01*
X-2697Y365640D01*
X-2750Y365566D01*
X-2810Y365497D01*
X-2822Y365466D01*
X-2841Y365440D01*
X-2868Y365353D01*
X-2902Y365268D01*
X-2906Y365227D01*
X-2913Y365205D01*
X-2912Y365173D01*
X-2920Y365102D01*
X-2920Y296933D01*
X-2906Y296843D01*
X-2898Y296752D01*
X-2886Y296722D01*
X-2881Y296690D01*
X-2838Y296610D01*
X-2802Y296526D01*
X-2776Y296493D01*
X-2765Y296473D01*
X-2742Y296451D01*
X-2697Y296395D01*
X-507Y294205D01*
X-507Y289995D01*
X-3483Y287019D01*
X-7693Y287019D01*
X-10669Y289995D01*
X-10669Y294205D01*
X-8479Y296395D01*
X-8426Y296468D01*
X-8366Y296538D01*
X-8354Y296568D01*
X-8335Y296594D01*
X-8308Y296681D01*
X-8274Y296766D01*
X-8270Y296807D01*
X-8263Y296829D01*
X-8264Y296862D01*
X-8256Y296933D01*
X-8256Y367627D01*
X-1263Y374620D01*
X-1221Y374678D01*
X-1172Y374730D01*
X-1150Y374777D01*
X-1119Y374819D01*
X-1098Y374888D01*
X-1068Y374953D01*
X-1062Y375005D01*
X-1047Y375055D01*
X-1049Y375126D01*
X-1041Y375197D01*
X-1052Y375248D01*
X-1053Y375300D01*
X-1078Y375368D01*
X-1093Y375438D01*
X-1120Y375483D01*
X-1138Y375531D01*
X-1183Y375587D01*
X-1219Y375649D01*
X-1259Y375683D01*
X-1292Y375723D01*
X-1352Y375762D01*
X-1406Y375809D01*
X-1455Y375828D01*
X-1499Y375856D01*
X-1568Y375874D01*
X-1635Y375901D01*
X-1706Y375909D01*
X-1737Y375917D01*
X-1760Y375915D01*
X-1801Y375919D01*
X-2105Y375919D01*
X-5081Y378895D01*
X-5081Y383105D01*
X-2105Y386081D01*
X2105Y386081D01*
X4295Y383891D01*
X4368Y383838D01*
X4438Y383778D01*
X4468Y383766D01*
X4494Y383747D01*
X4581Y383720D01*
X4666Y383686D01*
X4707Y383682D01*
X4729Y383675D01*
X4762Y383676D01*
X4833Y383668D01*
X26028Y383668D01*
X26099Y383679D01*
X26171Y383681D01*
X26220Y383699D01*
X26271Y383707D01*
X26334Y383741D01*
X26402Y383766D01*
X26442Y383798D01*
X26488Y383823D01*
X26538Y383874D01*
X26594Y383919D01*
X26622Y383963D01*
X26658Y384001D01*
X26688Y384066D01*
X26727Y384126D01*
X26739Y384177D01*
X26761Y384224D01*
X26769Y384295D01*
X26787Y384365D01*
X26783Y384417D01*
X26788Y384468D01*
X26773Y384539D01*
X26768Y384610D01*
X26747Y384658D01*
X26736Y384709D01*
X26699Y384770D01*
X26671Y384836D01*
X26669Y384839D01*
X26669Y389074D01*
X29645Y392050D01*
X33855Y392050D01*
X36831Y389074D01*
X36831Y384832D01*
X36820Y384810D01*
X36790Y384768D01*
X36769Y384699D01*
X36739Y384634D01*
X36733Y384582D01*
X36718Y384533D01*
X36719Y384461D01*
X36712Y384390D01*
X36723Y384339D01*
X36724Y384287D01*
X36749Y384219D01*
X36764Y384149D01*
X36791Y384104D01*
X36808Y384056D01*
X36853Y384000D01*
X36890Y383938D01*
X36930Y383904D01*
X36962Y383864D01*
X37022Y383825D01*
X37077Y383778D01*
X37125Y383759D01*
X37169Y383731D01*
X37238Y383713D01*
X37305Y383686D01*
X37376Y383678D01*
X37407Y383670D01*
X37431Y383672D01*
X37472Y383668D01*
X114039Y383668D01*
X114110Y383679D01*
X114182Y383681D01*
X114231Y383699D01*
X114282Y383707D01*
X114345Y383741D01*
X114413Y383766D01*
X114453Y383798D01*
X114499Y383823D01*
X114549Y383875D01*
X114605Y383919D01*
X114633Y383963D01*
X114669Y384001D01*
X114699Y384066D01*
X114738Y384126D01*
X114750Y384177D01*
X114772Y384224D01*
X114780Y384295D01*
X114798Y384365D01*
X114794Y384417D01*
X114799Y384468D01*
X114784Y384539D01*
X114779Y384610D01*
X114758Y384658D01*
X114747Y384709D01*
X114710Y384770D01*
X114682Y384836D01*
X114638Y384892D01*
X114621Y384920D01*
X114603Y384935D01*
X114578Y384967D01*
X111759Y387785D01*
X111759Y391995D01*
X114735Y394971D01*
X118945Y394971D01*
X121921Y391995D01*
X121921Y387785D01*
X119102Y384967D01*
X119061Y384909D01*
X119011Y384857D01*
X118989Y384810D01*
X118959Y384768D01*
X118938Y384699D01*
X118908Y384634D01*
X118902Y384582D01*
X118887Y384532D01*
X118888Y384461D01*
X118881Y384390D01*
X118892Y384339D01*
X118893Y384287D01*
X118918Y384219D01*
X118933Y384149D01*
X118960Y384104D01*
X118977Y384056D01*
X119022Y384000D01*
X119059Y383938D01*
X119099Y383904D01*
X119131Y383864D01*
X119191Y383825D01*
X119246Y383778D01*
X119294Y383759D01*
X119338Y383731D01*
X119407Y383713D01*
X119474Y383686D01*
X119545Y383678D01*
X119577Y383670D01*
X119600Y383672D01*
X119641Y383668D01*
X162299Y383668D01*
X162370Y383679D01*
X162442Y383681D01*
X162491Y383699D01*
X162542Y383707D01*
X162605Y383741D01*
X162673Y383766D01*
X162713Y383798D01*
X162759Y383823D01*
X162809Y383875D01*
X162865Y383919D01*
X162893Y383963D01*
X162929Y384001D01*
X162959Y384066D01*
X162998Y384126D01*
X163010Y384177D01*
X163032Y384224D01*
X163040Y384295D01*
X163058Y384365D01*
X163054Y384417D01*
X163059Y384468D01*
X163044Y384539D01*
X163039Y384610D01*
X163018Y384658D01*
X163007Y384709D01*
X162970Y384770D01*
X162942Y384836D01*
X162898Y384892D01*
X162881Y384920D01*
X162863Y384935D01*
X162838Y384967D01*
X161289Y386515D01*
X161289Y390725D01*
X163479Y392915D01*
X163532Y392988D01*
X163592Y393058D01*
X163604Y393088D01*
X163623Y393114D01*
X163650Y393201D01*
X163684Y393286D01*
X163688Y393327D01*
X163695Y393349D01*
X163694Y393382D01*
X163702Y393453D01*
X163702Y395986D01*
X163699Y396006D01*
X163701Y396025D01*
X163679Y396127D01*
X163663Y396229D01*
X163653Y396246D01*
X163649Y396266D01*
X163596Y396355D01*
X163547Y396446D01*
X163533Y396460D01*
X163523Y396477D01*
X163444Y396544D01*
X163369Y396616D01*
X163351Y396624D01*
X163336Y396637D01*
X163240Y396676D01*
X163146Y396719D01*
X163126Y396721D01*
X163108Y396729D01*
X162941Y396747D01*
X97282Y396747D01*
X97262Y396744D01*
X97243Y396746D01*
X97141Y396724D01*
X97039Y396708D01*
X97022Y396698D01*
X97002Y396694D01*
X96913Y396641D01*
X96822Y396592D01*
X96808Y396578D01*
X96791Y396568D01*
X96724Y396489D01*
X96652Y396414D01*
X96644Y396396D01*
X96631Y396381D01*
X96592Y396285D01*
X96549Y396191D01*
X96547Y396171D01*
X96539Y396153D01*
X96521Y395986D01*
X96521Y395405D01*
X93545Y392429D01*
X89335Y392429D01*
X86359Y395405D01*
X86359Y398484D01*
X86356Y398504D01*
X86358Y398523D01*
X86336Y398625D01*
X86320Y398727D01*
X86310Y398744D01*
X86306Y398764D01*
X86253Y398853D01*
X86204Y398944D01*
X86190Y398958D01*
X86180Y398975D01*
X86101Y399042D01*
X86026Y399114D01*
X86008Y399122D01*
X85993Y399135D01*
X85897Y399174D01*
X85803Y399217D01*
X85783Y399219D01*
X85765Y399227D01*
X85598Y399245D01*
X54956Y399245D01*
X54866Y399231D01*
X54775Y399223D01*
X54745Y399211D01*
X54713Y399206D01*
X54632Y399163D01*
X54548Y399127D01*
X54516Y399101D01*
X54496Y399090D01*
X54474Y399067D01*
X54418Y399022D01*
X52905Y397509D01*
X48695Y397509D01*
X45719Y400485D01*
X45719Y404695D01*
X48695Y407671D01*
X52905Y407671D01*
X55772Y404804D01*
X55846Y404751D01*
X55915Y404691D01*
X55945Y404679D01*
X55971Y404660D01*
X56058Y404633D01*
X56143Y404599D01*
X56184Y404595D01*
X56206Y404588D01*
X56239Y404589D01*
X56310Y404581D01*
X70266Y404581D01*
X70337Y404592D01*
X70409Y404594D01*
X70458Y404612D01*
X70509Y404620D01*
X70572Y404654D01*
X70640Y404679D01*
X70680Y404711D01*
X70726Y404736D01*
X70776Y404787D01*
X70832Y404832D01*
X70860Y404876D01*
X70896Y404914D01*
X70926Y404979D01*
X70965Y405039D01*
X70977Y405090D01*
X70999Y405137D01*
X71007Y405208D01*
X71025Y405278D01*
X71021Y405330D01*
X71026Y405381D01*
X71011Y405452D01*
X71006Y405523D01*
X70985Y405571D01*
X70974Y405622D01*
X70937Y405683D01*
X70909Y405749D01*
X70907Y405752D01*
X70907Y409986D01*
X70973Y410053D01*
X71015Y410111D01*
X71065Y410163D01*
X71087Y410210D01*
X71117Y410252D01*
X71138Y410321D01*
X71168Y410386D01*
X71174Y410438D01*
X71189Y410488D01*
X71188Y410559D01*
X71195Y410630D01*
X71184Y410681D01*
X71183Y410733D01*
X71158Y410801D01*
X71143Y410871D01*
X71116Y410916D01*
X71099Y410964D01*
X71054Y411020D01*
X71017Y411082D01*
X70977Y411116D01*
X70945Y411156D01*
X70885Y411195D01*
X70830Y411242D01*
X70782Y411261D01*
X70738Y411289D01*
X70669Y411307D01*
X70602Y411334D01*
X70531Y411342D01*
X70500Y411350D01*
X70476Y411348D01*
X70435Y411352D01*
X-12550Y411352D01*
X-12640Y411338D01*
X-12731Y411330D01*
X-12760Y411318D01*
X-12792Y411313D01*
X-12873Y411270D01*
X-12957Y411234D01*
X-12989Y411208D01*
X-13010Y411197D01*
X-13032Y411174D01*
X-13088Y411129D01*
X-30256Y393961D01*
X-30309Y393887D01*
X-30369Y393818D01*
X-30381Y393787D01*
X-30400Y393761D01*
X-30427Y393674D01*
X-30461Y393589D01*
X-30465Y393548D01*
X-30472Y393526D01*
X-30471Y393494D01*
X-30479Y393423D01*
X-30479Y390325D01*
X-33455Y387349D01*
X-37665Y387349D01*
X-40641Y390325D01*
X-40641Y394535D01*
X-37665Y397511D01*
X-34567Y397511D01*
X-34477Y397525D01*
X-34386Y397533D01*
X-34357Y397545D01*
X-34325Y397550D01*
X-34244Y397593D01*
X-34160Y397629D01*
X-34128Y397655D01*
X-34107Y397666D01*
X-34085Y397689D01*
X-34029Y397734D01*
X-15075Y416688D01*
X-3737Y416688D01*
X-3666Y416699D01*
X-3595Y416701D01*
X-3546Y416719D01*
X-3494Y416727D01*
X-3431Y416761D01*
X-3364Y416786D01*
X-3323Y416818D01*
X-3277Y416843D01*
X-3228Y416895D01*
X-3172Y416939D01*
X-3143Y416983D01*
X-3108Y417021D01*
X-3077Y417086D01*
X-3039Y417146D01*
X-3026Y417197D01*
X-3004Y417244D01*
X-2996Y417315D01*
X-2979Y417385D01*
X-2983Y417437D01*
X-2977Y417488D01*
X-2992Y417559D01*
X-2998Y417630D01*
X-3018Y417678D01*
X-3029Y417729D01*
X-3049Y417762D01*
X-3049Y512006D01*
X-3050Y512014D01*
X-3049Y512022D01*
X-3070Y512135D01*
X-3088Y512249D01*
X-3092Y512256D01*
X-3094Y512264D01*
X-3150Y512365D01*
X-3204Y512466D01*
X-3209Y512472D01*
X-3213Y512479D01*
X-3298Y512556D01*
X-3382Y512636D01*
X-3389Y512639D01*
X-3395Y512644D01*
X-3500Y512690D01*
X-3605Y512739D01*
X-3613Y512740D01*
X-3620Y512743D01*
X-3735Y512754D01*
X-3849Y512766D01*
X-3857Y512765D01*
X-3865Y512765D01*
X-3977Y512739D01*
X-4090Y512714D01*
X-4097Y512710D01*
X-4104Y512708D01*
X-4202Y512647D01*
X-4301Y512588D01*
X-4306Y512582D01*
X-4313Y512578D01*
X-4426Y512454D01*
X-7110Y508760D01*
X-15930Y502351D01*
X-26299Y498982D01*
X-87467Y498982D01*
X-87494Y498978D01*
X-87521Y498980D01*
X-87615Y498958D01*
X-87710Y498943D01*
X-87734Y498930D01*
X-87761Y498923D01*
X-87842Y498872D01*
X-87927Y498827D01*
X-87946Y498808D01*
X-87969Y498793D01*
X-88030Y498719D01*
X-88097Y498649D01*
X-88108Y498624D01*
X-88126Y498603D01*
X-88160Y498513D01*
X-88200Y498426D01*
X-88203Y498399D01*
X-88213Y498373D01*
X-88228Y498206D01*
X-87397Y454839D01*
X-87396Y454833D01*
X-87397Y454824D01*
X-83689Y360948D01*
X-83687Y360940D01*
X-83688Y360927D01*
X-77440Y267186D01*
X-77438Y267178D01*
X-77439Y267165D01*
X-68655Y173628D01*
X-68653Y173620D01*
X-68653Y173607D01*
X-57341Y80341D01*
X-57339Y80335D01*
X-57339Y80326D01*
X-51167Y36849D01*
X-51140Y36764D01*
X-51121Y36676D01*
X-51104Y36647D01*
X-51093Y36614D01*
X-51041Y36542D01*
X-50995Y36465D01*
X-50969Y36443D01*
X-50949Y36415D01*
X-50876Y36363D01*
X-50808Y36305D01*
X-50776Y36292D01*
X-50749Y36273D01*
X-50663Y36247D01*
X-50580Y36213D01*
X-50537Y36208D01*
X-50513Y36201D01*
X-50482Y36202D01*
X-50413Y36195D01*
X-34842Y36195D01*
X-33205Y34558D01*
X-33205Y4206D01*
X-33202Y4186D01*
X-33204Y4167D01*
X-33182Y4065D01*
X-33166Y3963D01*
X-33156Y3946D01*
X-33152Y3926D01*
X-33099Y3837D01*
X-33050Y3746D01*
X-33036Y3732D01*
X-33026Y3715D01*
X-32947Y3648D01*
X-32872Y3576D01*
X-32854Y3568D01*
X-32839Y3555D01*
X-32743Y3516D01*
X-32649Y3473D01*
X-32629Y3471D01*
X-32611Y3463D01*
X-32444Y3445D01*
X209288Y3445D01*
X209337Y3453D01*
G37*
G36*
X148610Y422152D02*
X148610Y422152D01*
X148629Y422150D01*
X148731Y422172D01*
X148833Y422188D01*
X148850Y422198D01*
X148870Y422202D01*
X148959Y422255D01*
X149050Y422304D01*
X149064Y422318D01*
X149081Y422328D01*
X149148Y422407D01*
X149220Y422482D01*
X149228Y422500D01*
X149241Y422515D01*
X149280Y422611D01*
X149323Y422705D01*
X149325Y422725D01*
X149333Y422743D01*
X149351Y422910D01*
X149351Y643890D01*
X149348Y643910D01*
X149350Y643929D01*
X149328Y644031D01*
X149312Y644133D01*
X149302Y644150D01*
X149298Y644170D01*
X149245Y644259D01*
X149196Y644350D01*
X149182Y644364D01*
X149172Y644381D01*
X149093Y644448D01*
X149018Y644520D01*
X149000Y644528D01*
X148985Y644541D01*
X148889Y644580D01*
X148795Y644623D01*
X148775Y644625D01*
X148757Y644633D01*
X148590Y644651D01*
X3810Y644651D01*
X3790Y644648D01*
X3771Y644650D01*
X3669Y644628D01*
X3567Y644612D01*
X3550Y644602D01*
X3530Y644598D01*
X3441Y644545D01*
X3350Y644496D01*
X3336Y644482D01*
X3319Y644472D01*
X3252Y644393D01*
X3180Y644318D01*
X3172Y644300D01*
X3159Y644285D01*
X3120Y644189D01*
X3077Y644095D01*
X3075Y644075D01*
X3067Y644057D01*
X3049Y643890D01*
X3049Y422910D01*
X3052Y422890D01*
X3050Y422871D01*
X3072Y422769D01*
X3088Y422667D01*
X3098Y422650D01*
X3102Y422630D01*
X3155Y422541D01*
X3204Y422450D01*
X3218Y422436D01*
X3228Y422419D01*
X3307Y422352D01*
X3382Y422280D01*
X3400Y422272D01*
X3415Y422259D01*
X3511Y422220D01*
X3605Y422177D01*
X3625Y422175D01*
X3643Y422167D01*
X3810Y422149D01*
X148590Y422149D01*
X148610Y422152D01*
G37*
G36*
X504210Y422152D02*
X504210Y422152D01*
X504229Y422150D01*
X504331Y422172D01*
X504433Y422188D01*
X504450Y422198D01*
X504470Y422202D01*
X504559Y422255D01*
X504650Y422304D01*
X504664Y422318D01*
X504681Y422328D01*
X504748Y422407D01*
X504820Y422482D01*
X504828Y422500D01*
X504841Y422515D01*
X504880Y422611D01*
X504923Y422705D01*
X504925Y422725D01*
X504933Y422743D01*
X504951Y422910D01*
X504951Y643890D01*
X504948Y643910D01*
X504950Y643929D01*
X504928Y644031D01*
X504912Y644133D01*
X504902Y644150D01*
X504898Y644170D01*
X504845Y644259D01*
X504796Y644350D01*
X504782Y644364D01*
X504772Y644381D01*
X504693Y644448D01*
X504618Y644520D01*
X504600Y644528D01*
X504585Y644541D01*
X504489Y644580D01*
X504395Y644623D01*
X504375Y644625D01*
X504357Y644633D01*
X504190Y644651D01*
X359410Y644651D01*
X359390Y644648D01*
X359371Y644650D01*
X359269Y644628D01*
X359167Y644612D01*
X359150Y644602D01*
X359130Y644598D01*
X359041Y644545D01*
X358950Y644496D01*
X358936Y644482D01*
X358919Y644472D01*
X358852Y644393D01*
X358780Y644318D01*
X358772Y644300D01*
X358759Y644285D01*
X358720Y644189D01*
X358677Y644095D01*
X358675Y644075D01*
X358667Y644057D01*
X358649Y643890D01*
X358649Y422910D01*
X358652Y422890D01*
X358650Y422871D01*
X358672Y422769D01*
X358688Y422667D01*
X358698Y422650D01*
X358702Y422630D01*
X358755Y422541D01*
X358804Y422450D01*
X358818Y422436D01*
X358828Y422419D01*
X358907Y422352D01*
X358982Y422280D01*
X359000Y422272D01*
X359015Y422259D01*
X359111Y422220D01*
X359205Y422177D01*
X359225Y422175D01*
X359243Y422167D01*
X359410Y422149D01*
X504190Y422149D01*
X504210Y422152D01*
G37*
G36*
X609620Y1622D02*
X609620Y1622D01*
X609639Y1620D01*
X609741Y1642D01*
X609843Y1659D01*
X609860Y1668D01*
X609880Y1672D01*
X609969Y1725D01*
X610060Y1774D01*
X610074Y1788D01*
X610091Y1798D01*
X610158Y1877D01*
X610230Y1952D01*
X610238Y1970D01*
X610251Y1985D01*
X610290Y2081D01*
X610333Y2175D01*
X610335Y2195D01*
X610343Y2213D01*
X610361Y2380D01*
X610361Y1019700D01*
X610358Y1019720D01*
X610360Y1019739D01*
X610338Y1019841D01*
X610322Y1019943D01*
X610312Y1019960D01*
X610308Y1019980D01*
X610255Y1020069D01*
X610206Y1020160D01*
X610192Y1020174D01*
X610182Y1020191D01*
X610103Y1020258D01*
X610028Y1020330D01*
X610010Y1020338D01*
X609995Y1020351D01*
X609899Y1020390D01*
X609805Y1020433D01*
X609785Y1020435D01*
X609767Y1020443D01*
X609600Y1020461D01*
X562356Y1020461D01*
X562336Y1020458D01*
X562317Y1020460D01*
X562215Y1020438D01*
X562113Y1020422D01*
X562096Y1020412D01*
X562076Y1020408D01*
X561987Y1020355D01*
X561896Y1020306D01*
X561882Y1020292D01*
X561865Y1020282D01*
X561798Y1020203D01*
X561726Y1020128D01*
X561718Y1020110D01*
X561705Y1020095D01*
X561666Y1019999D01*
X561623Y1019905D01*
X561621Y1019885D01*
X561613Y1019867D01*
X561595Y1019700D01*
X561595Y854456D01*
X561598Y854436D01*
X561596Y854417D01*
X561618Y854315D01*
X561634Y854213D01*
X561644Y854196D01*
X561648Y854176D01*
X561701Y854087D01*
X561750Y853996D01*
X561764Y853982D01*
X561774Y853965D01*
X561853Y853898D01*
X561928Y853826D01*
X561946Y853818D01*
X561961Y853805D01*
X562057Y853766D01*
X562151Y853723D01*
X562171Y853721D01*
X562189Y853713D01*
X562356Y853695D01*
X589135Y853695D01*
X589158Y853698D01*
X589197Y853697D01*
X590247Y853783D01*
X590250Y853782D01*
X590304Y853749D01*
X590363Y853736D01*
X590419Y853714D01*
X591154Y852978D01*
X591172Y852965D01*
X591199Y852937D01*
X592002Y852255D01*
X592004Y852252D01*
X592019Y852190D01*
X592051Y852139D01*
X592075Y852084D01*
X592075Y851044D01*
X592078Y851022D01*
X592077Y850983D01*
X595941Y803545D01*
X600709Y708185D01*
X602491Y612723D01*
X601887Y565010D01*
X601887Y565007D01*
X601887Y565001D01*
X601887Y563845D01*
X601060Y563038D01*
X601057Y563035D01*
X601053Y563031D01*
X600235Y562214D01*
X599079Y562228D01*
X599076Y562228D01*
X599070Y562228D01*
X539750Y562228D01*
X539728Y562225D01*
X539690Y562226D01*
X535300Y561880D01*
X535294Y561879D01*
X535288Y561879D01*
X535124Y561845D01*
X526773Y559132D01*
X526741Y559115D01*
X526706Y559107D01*
X526560Y559024D01*
X519456Y553862D01*
X519431Y553837D01*
X519401Y553818D01*
X519288Y553694D01*
X514126Y546590D01*
X514110Y546558D01*
X514087Y546530D01*
X514018Y546377D01*
X511305Y538026D01*
X511299Y537991D01*
X511286Y537957D01*
X511267Y537791D01*
X511267Y529009D01*
X511273Y528974D01*
X511271Y528938D01*
X511305Y528774D01*
X514018Y520423D01*
X514035Y520391D01*
X514043Y520356D01*
X514126Y520210D01*
X519288Y513106D01*
X519313Y513081D01*
X519332Y513051D01*
X519456Y512938D01*
X526560Y507776D01*
X526592Y507760D01*
X526620Y507737D01*
X526773Y507668D01*
X535124Y504955D01*
X535130Y504954D01*
X535135Y504951D01*
X535300Y504920D01*
X539690Y504574D01*
X539712Y504576D01*
X539750Y504572D01*
X597647Y504572D01*
X597732Y504586D01*
X597791Y504589D01*
X599105Y504572D01*
X599109Y504572D01*
X599115Y504572D01*
X600272Y504572D01*
X601077Y503744D01*
X601080Y503742D01*
X601084Y503737D01*
X601902Y502919D01*
X601887Y501763D01*
X601887Y501759D01*
X601887Y501753D01*
X601887Y500453D01*
X601882Y500413D01*
X601874Y500388D01*
X601875Y500358D01*
X601867Y500295D01*
X601253Y454674D01*
X597438Y360614D01*
X591078Y266692D01*
X582178Y172975D01*
X570744Y79534D01*
X563803Y33248D01*
X563804Y33215D01*
X563795Y33135D01*
X563795Y32239D01*
X563784Y32224D01*
X563758Y32201D01*
X563713Y32125D01*
X563661Y32053D01*
X563651Y32019D01*
X563633Y31989D01*
X563594Y31842D01*
X562875Y31310D01*
X562852Y31287D01*
X562789Y31236D01*
X562155Y30603D01*
X562137Y30600D01*
X562102Y30602D01*
X562016Y30580D01*
X561929Y30566D01*
X561898Y30549D01*
X561864Y30540D01*
X561733Y30464D01*
X560848Y30597D01*
X560815Y30596D01*
X560735Y30605D01*
X547556Y30605D01*
X547536Y30602D01*
X547517Y30604D01*
X547415Y30582D01*
X547313Y30566D01*
X547296Y30556D01*
X547276Y30552D01*
X547187Y30499D01*
X547096Y30450D01*
X547082Y30436D01*
X547065Y30426D01*
X546998Y30347D01*
X546926Y30272D01*
X546918Y30254D01*
X546905Y30239D01*
X546866Y30143D01*
X546823Y30049D01*
X546821Y30029D01*
X546813Y30011D01*
X546795Y29844D01*
X546795Y2380D01*
X546798Y2360D01*
X546796Y2341D01*
X546818Y2239D01*
X546834Y2137D01*
X546844Y2120D01*
X546848Y2100D01*
X546901Y2011D01*
X546950Y1920D01*
X546964Y1906D01*
X546974Y1889D01*
X547053Y1822D01*
X547128Y1751D01*
X547146Y1742D01*
X547161Y1729D01*
X547257Y1690D01*
X547351Y1647D01*
X547371Y1645D01*
X547389Y1637D01*
X547556Y1619D01*
X609600Y1619D01*
X609620Y1622D01*
G37*
G36*
X-39536Y1622D02*
X-39536Y1622D01*
X-39517Y1620D01*
X-39415Y1642D01*
X-39313Y1658D01*
X-39296Y1668D01*
X-39276Y1672D01*
X-39187Y1725D01*
X-39096Y1774D01*
X-39082Y1788D01*
X-39065Y1798D01*
X-38998Y1877D01*
X-38926Y1952D01*
X-38918Y1970D01*
X-38905Y1985D01*
X-38866Y2081D01*
X-38823Y2175D01*
X-38821Y2195D01*
X-38813Y2213D01*
X-38795Y2380D01*
X-38795Y29844D01*
X-38798Y29864D01*
X-38796Y29883D01*
X-38818Y29985D01*
X-38834Y30087D01*
X-38844Y30104D01*
X-38848Y30124D01*
X-38901Y30213D01*
X-38950Y30304D01*
X-38964Y30318D01*
X-38974Y30335D01*
X-39053Y30402D01*
X-39128Y30474D01*
X-39146Y30482D01*
X-39161Y30495D01*
X-39257Y30534D01*
X-39351Y30577D01*
X-39371Y30579D01*
X-39389Y30587D01*
X-39556Y30605D01*
X-53237Y30605D01*
X-53269Y30600D01*
X-53349Y30597D01*
X-54238Y30465D01*
X-54252Y30472D01*
X-54279Y30495D01*
X-54361Y30528D01*
X-54439Y30568D01*
X-54474Y30574D01*
X-54507Y30587D01*
X-54656Y30603D01*
X-55290Y31238D01*
X-55317Y31257D01*
X-55375Y31311D01*
X-56097Y31846D01*
X-56102Y31861D01*
X-56105Y31897D01*
X-56140Y31978D01*
X-56166Y32062D01*
X-56187Y32090D01*
X-56201Y32123D01*
X-56295Y32240D01*
X-56295Y33137D01*
X-56300Y33169D01*
X-56303Y33249D01*
X-63194Y79540D01*
X-74529Y172987D01*
X-83329Y266703D01*
X-89588Y360624D01*
X-93303Y454681D01*
X-93869Y500295D01*
X-93884Y500381D01*
X-93887Y500420D01*
X-93887Y501755D01*
X-93887Y501759D01*
X-93887Y501765D01*
X-93901Y502920D01*
X-93084Y503737D01*
X-93082Y503740D01*
X-93078Y503744D01*
X-92270Y504572D01*
X-91115Y504572D01*
X-91111Y504572D01*
X-91106Y504572D01*
X-89792Y504588D01*
X-89764Y504585D01*
X-89739Y504578D01*
X-89708Y504579D01*
X-89645Y504572D01*
X-31750Y504572D01*
X-31728Y504575D01*
X-31690Y504574D01*
X-27300Y504920D01*
X-27294Y504921D01*
X-27288Y504921D01*
X-27124Y504955D01*
X-18773Y507668D01*
X-18741Y507685D01*
X-18706Y507693D01*
X-18560Y507776D01*
X-11456Y512938D01*
X-11431Y512963D01*
X-11401Y512982D01*
X-11288Y513106D01*
X-6126Y520210D01*
X-6110Y520242D01*
X-6087Y520270D01*
X-6018Y520423D01*
X-3305Y528774D01*
X-3299Y528809D01*
X-3286Y528843D01*
X-3267Y529009D01*
X-3267Y537791D01*
X-3273Y537826D01*
X-3271Y537862D01*
X-3305Y538026D01*
X-6018Y546377D01*
X-6035Y546409D01*
X-6043Y546444D01*
X-6126Y546590D01*
X-11288Y553694D01*
X-11313Y553719D01*
X-11332Y553749D01*
X-11456Y553862D01*
X-18560Y559024D01*
X-18592Y559040D01*
X-18620Y559063D01*
X-18773Y559132D01*
X-27124Y561845D01*
X-27130Y561846D01*
X-27135Y561849D01*
X-27300Y561880D01*
X-31690Y562226D01*
X-31712Y562224D01*
X-31750Y562228D01*
X-91069Y562228D01*
X-91073Y562228D01*
X-91079Y562228D01*
X-92235Y562214D01*
X-93052Y563031D01*
X-93056Y563033D01*
X-93059Y563038D01*
X-93887Y563845D01*
X-93887Y565000D01*
X-93887Y565004D01*
X-93887Y565010D01*
X-94491Y612723D01*
X-92709Y708185D01*
X-87941Y803545D01*
X-84077Y850983D01*
X-84079Y851005D01*
X-84075Y851044D01*
X-84075Y852098D01*
X-84073Y852101D01*
X-84036Y852152D01*
X-84019Y852210D01*
X-83992Y852263D01*
X-83199Y852936D01*
X-83185Y852954D01*
X-83154Y852978D01*
X-82409Y853723D01*
X-82406Y853724D01*
X-82344Y853734D01*
X-82290Y853763D01*
X-82233Y853782D01*
X-81197Y853697D01*
X-81175Y853699D01*
X-81135Y853695D01*
X-54356Y853695D01*
X-54336Y853698D01*
X-54317Y853696D01*
X-54215Y853718D01*
X-54113Y853734D01*
X-54096Y853744D01*
X-54076Y853748D01*
X-53987Y853801D01*
X-53896Y853850D01*
X-53882Y853864D01*
X-53865Y853874D01*
X-53798Y853953D01*
X-53726Y854028D01*
X-53718Y854046D01*
X-53705Y854061D01*
X-53666Y854157D01*
X-53623Y854251D01*
X-53621Y854271D01*
X-53613Y854289D01*
X-53595Y854456D01*
X-53595Y1019700D01*
X-53598Y1019720D01*
X-53596Y1019739D01*
X-53618Y1019841D01*
X-53634Y1019943D01*
X-53644Y1019960D01*
X-53648Y1019980D01*
X-53701Y1020069D01*
X-53750Y1020160D01*
X-53764Y1020174D01*
X-53774Y1020191D01*
X-53853Y1020258D01*
X-53928Y1020330D01*
X-53946Y1020338D01*
X-53961Y1020351D01*
X-54057Y1020390D01*
X-54151Y1020433D01*
X-54171Y1020435D01*
X-54189Y1020443D01*
X-54356Y1020461D01*
X-101600Y1020461D01*
X-101620Y1020458D01*
X-101639Y1020460D01*
X-101741Y1020438D01*
X-101843Y1020422D01*
X-101860Y1020412D01*
X-101880Y1020408D01*
X-101969Y1020355D01*
X-102060Y1020306D01*
X-102074Y1020292D01*
X-102091Y1020282D01*
X-102158Y1020203D01*
X-102230Y1020128D01*
X-102238Y1020110D01*
X-102251Y1020095D01*
X-102290Y1019999D01*
X-102333Y1019905D01*
X-102335Y1019885D01*
X-102343Y1019867D01*
X-102361Y1019700D01*
X-102361Y2380D01*
X-102358Y2360D01*
X-102360Y2341D01*
X-102338Y2239D01*
X-102322Y2137D01*
X-102312Y2120D01*
X-102308Y2100D01*
X-102255Y2011D01*
X-102206Y1920D01*
X-102192Y1906D01*
X-102182Y1889D01*
X-102103Y1822D01*
X-102028Y1751D01*
X-102010Y1742D01*
X-101995Y1729D01*
X-101899Y1690D01*
X-101805Y1647D01*
X-101785Y1645D01*
X-101767Y1637D01*
X-101600Y1619D01*
X-39556Y1619D01*
X-39536Y1622D01*
G37*
%LPC*%
G36*
X152835Y910589D02*
X152835Y910589D01*
X149859Y913565D01*
X149859Y917775D01*
X152835Y920751D01*
X157045Y920751D01*
X159235Y918561D01*
X159309Y918508D01*
X159378Y918448D01*
X159408Y918436D01*
X159434Y918417D01*
X159521Y918390D01*
X159606Y918356D01*
X159647Y918352D01*
X159669Y918345D01*
X159702Y918346D01*
X159773Y918338D01*
X312704Y918338D01*
X312723Y918341D01*
X312743Y918339D01*
X312844Y918361D01*
X312947Y918377D01*
X312964Y918387D01*
X312984Y918391D01*
X313073Y918444D01*
X313164Y918493D01*
X313178Y918507D01*
X313195Y918517D01*
X313262Y918596D01*
X313333Y918671D01*
X313342Y918689D01*
X313355Y918704D01*
X313358Y918714D01*
X316126Y921482D01*
X316138Y921498D01*
X316154Y921510D01*
X316210Y921598D01*
X316270Y921681D01*
X316276Y921700D01*
X316287Y921717D01*
X316312Y921818D01*
X316342Y921917D01*
X316342Y921936D01*
X316347Y921956D01*
X316339Y922059D01*
X316336Y922162D01*
X316329Y922181D01*
X316328Y922201D01*
X316287Y922296D01*
X316252Y922393D01*
X316239Y922409D01*
X316231Y922427D01*
X316126Y922558D01*
X314475Y924209D01*
X314402Y924262D01*
X314332Y924322D01*
X314302Y924334D01*
X314276Y924353D01*
X314189Y924380D01*
X314104Y924414D01*
X314063Y924418D01*
X314041Y924425D01*
X314008Y924424D01*
X313937Y924432D01*
X158957Y924432D01*
X156471Y926918D01*
X156397Y926971D01*
X156328Y927031D01*
X156297Y927043D01*
X156271Y927062D01*
X156184Y927089D01*
X156099Y927123D01*
X156058Y927127D01*
X156036Y927134D01*
X156004Y927133D01*
X155933Y927141D01*
X152835Y927141D01*
X149836Y930140D01*
X149828Y930164D01*
X149820Y930215D01*
X149786Y930278D01*
X149761Y930346D01*
X149729Y930386D01*
X149704Y930432D01*
X149652Y930482D01*
X149608Y930538D01*
X149564Y930566D01*
X149526Y930602D01*
X149461Y930632D01*
X149401Y930671D01*
X149350Y930683D01*
X149303Y930705D01*
X149232Y930713D01*
X149162Y930731D01*
X149110Y930727D01*
X149059Y930732D01*
X148988Y930717D01*
X148917Y930712D01*
X148869Y930691D01*
X148818Y930680D01*
X148757Y930643D01*
X148691Y930615D01*
X148635Y930571D01*
X148607Y930554D01*
X148592Y930536D01*
X148560Y930511D01*
X141635Y923585D01*
X41240Y923585D01*
X41150Y923571D01*
X41059Y923563D01*
X41029Y923551D01*
X40997Y923546D01*
X40916Y923503D01*
X40833Y923467D01*
X40800Y923441D01*
X40780Y923430D01*
X40758Y923407D01*
X40702Y923362D01*
X38512Y921172D01*
X34302Y921172D01*
X31326Y924148D01*
X31326Y928358D01*
X34302Y931334D01*
X38512Y931334D01*
X40702Y929144D01*
X40775Y929091D01*
X40845Y929031D01*
X40875Y929019D01*
X40901Y929000D01*
X40988Y928973D01*
X41073Y928939D01*
X41114Y928935D01*
X41136Y928928D01*
X41169Y928929D01*
X41240Y928921D01*
X139109Y928921D01*
X139199Y928935D01*
X139290Y928943D01*
X139320Y928955D01*
X139352Y928960D01*
X139433Y929003D01*
X139516Y929039D01*
X139549Y929065D01*
X139569Y929076D01*
X139591Y929099D01*
X139647Y929144D01*
X151362Y940859D01*
X158518Y940859D01*
X161978Y937399D01*
X162051Y937346D01*
X162121Y937286D01*
X162151Y937274D01*
X162177Y937255D01*
X162264Y937228D01*
X162349Y937194D01*
X162390Y937190D01*
X162412Y937183D01*
X162445Y937184D01*
X162516Y937176D01*
X352698Y937176D01*
X352788Y937190D01*
X352879Y937198D01*
X352908Y937210D01*
X352940Y937215D01*
X353021Y937258D01*
X353105Y937294D01*
X353137Y937320D01*
X353158Y937331D01*
X353175Y937349D01*
X353177Y937350D01*
X353184Y937357D01*
X353236Y937399D01*
X379895Y964058D01*
X388867Y964058D01*
X388957Y964072D01*
X389048Y964080D01*
X389078Y964092D01*
X389110Y964097D01*
X389191Y964140D01*
X389275Y964176D01*
X389307Y964202D01*
X389327Y964213D01*
X389349Y964236D01*
X389405Y964281D01*
X391595Y966471D01*
X395805Y966471D01*
X398781Y963495D01*
X398781Y959285D01*
X395805Y956309D01*
X391595Y956309D01*
X389405Y958499D01*
X389331Y958552D01*
X389262Y958612D01*
X389232Y958624D01*
X389206Y958643D01*
X389119Y958670D01*
X389034Y958704D01*
X388993Y958708D01*
X388971Y958715D01*
X388938Y958714D01*
X388867Y958722D01*
X382420Y958722D01*
X382330Y958708D01*
X382239Y958700D01*
X382210Y958688D01*
X382178Y958683D01*
X382097Y958640D01*
X382013Y958604D01*
X381981Y958578D01*
X381960Y958567D01*
X381938Y958544D01*
X381882Y958499D01*
X355902Y932520D01*
X355891Y932503D01*
X355875Y932491D01*
X355819Y932404D01*
X355759Y932320D01*
X355753Y932301D01*
X355742Y932284D01*
X355717Y932183D01*
X355686Y932085D01*
X355687Y932065D01*
X355682Y932045D01*
X355690Y931943D01*
X355693Y931839D01*
X355700Y931820D01*
X355701Y931800D01*
X355742Y931705D01*
X355777Y931608D01*
X355790Y931592D01*
X355797Y931574D01*
X355902Y931443D01*
X356871Y930475D01*
X356871Y926265D01*
X353895Y923289D01*
X349685Y923289D01*
X346709Y926265D01*
X346709Y930474D01*
X346775Y930541D01*
X346817Y930599D01*
X346867Y930651D01*
X346889Y930698D01*
X346919Y930740D01*
X346940Y930809D01*
X346970Y930874D01*
X346976Y930926D01*
X346991Y930976D01*
X346990Y931047D01*
X346997Y931118D01*
X346986Y931169D01*
X346985Y931221D01*
X346960Y931289D01*
X346945Y931359D01*
X346918Y931404D01*
X346901Y931452D01*
X346856Y931508D01*
X346819Y931570D01*
X346779Y931604D01*
X346747Y931644D01*
X346687Y931683D01*
X346632Y931730D01*
X346584Y931749D01*
X346540Y931777D01*
X346471Y931795D01*
X346404Y931822D01*
X346333Y931830D01*
X346302Y931838D01*
X346278Y931836D01*
X346237Y931840D01*
X323053Y931840D01*
X322982Y931829D01*
X322910Y931827D01*
X322861Y931809D01*
X322810Y931801D01*
X322747Y931767D01*
X322679Y931742D01*
X322639Y931710D01*
X322593Y931685D01*
X322543Y931633D01*
X322487Y931589D01*
X322459Y931545D01*
X322423Y931507D01*
X322393Y931442D01*
X322354Y931382D01*
X322342Y931331D01*
X322320Y931284D01*
X322312Y931213D01*
X322294Y931143D01*
X322298Y931091D01*
X322293Y931040D01*
X322308Y930969D01*
X322313Y930898D01*
X322334Y930850D01*
X322345Y930799D01*
X322382Y930738D01*
X322410Y930672D01*
X322454Y930616D01*
X322471Y930588D01*
X322489Y930573D01*
X322514Y930541D01*
X323851Y929205D01*
X323851Y924995D01*
X321189Y922334D01*
X321178Y922318D01*
X321162Y922305D01*
X321106Y922218D01*
X321046Y922134D01*
X321040Y922115D01*
X321029Y922098D01*
X321004Y921998D01*
X320973Y921899D01*
X320974Y921879D01*
X320969Y921860D01*
X320977Y921757D01*
X320980Y921653D01*
X320987Y921635D01*
X320988Y921615D01*
X321029Y921520D01*
X321064Y921422D01*
X321077Y921407D01*
X321084Y921388D01*
X321189Y921257D01*
X323626Y918820D01*
X323626Y914611D01*
X320650Y911635D01*
X316441Y911635D01*
X315297Y912779D01*
X315223Y912832D01*
X315154Y912892D01*
X315123Y912904D01*
X315097Y912923D01*
X315010Y912950D01*
X314925Y912984D01*
X314884Y912988D01*
X314862Y912995D01*
X314830Y912994D01*
X314759Y913002D01*
X159773Y913002D01*
X159683Y912988D01*
X159592Y912980D01*
X159562Y912968D01*
X159530Y912963D01*
X159449Y912920D01*
X159365Y912884D01*
X159333Y912858D01*
X159313Y912847D01*
X159291Y912824D01*
X159235Y912779D01*
X157045Y910589D01*
X152835Y910589D01*
G37*
%LPD*%
%LPC*%
G36*
X152835Y859789D02*
X152835Y859789D01*
X149859Y862765D01*
X149859Y866975D01*
X151661Y868777D01*
X151673Y868793D01*
X151689Y868805D01*
X151745Y868893D01*
X151805Y868976D01*
X151811Y868995D01*
X151822Y869012D01*
X151847Y869113D01*
X151877Y869212D01*
X151877Y869231D01*
X151882Y869251D01*
X151874Y869354D01*
X151871Y869457D01*
X151864Y869476D01*
X151863Y869496D01*
X151822Y869591D01*
X151787Y869688D01*
X151774Y869704D01*
X151766Y869722D01*
X151661Y869853D01*
X149859Y871655D01*
X149859Y874492D01*
X149856Y874512D01*
X149858Y874532D01*
X149836Y874633D01*
X149820Y874735D01*
X149810Y874753D01*
X149806Y874772D01*
X149753Y874861D01*
X149704Y874952D01*
X149690Y874966D01*
X149680Y874983D01*
X149601Y875051D01*
X149526Y875122D01*
X149508Y875130D01*
X149493Y875143D01*
X149397Y875182D01*
X149303Y875225D01*
X149283Y875228D01*
X149265Y875235D01*
X149098Y875254D01*
X146710Y875254D01*
X143734Y878230D01*
X143734Y882439D01*
X144019Y882724D01*
X144072Y882798D01*
X144131Y882867D01*
X144143Y882897D01*
X144162Y882924D01*
X144189Y883010D01*
X144223Y883095D01*
X144228Y883136D01*
X144234Y883159D01*
X144234Y883191D01*
X144242Y883262D01*
X144242Y883528D01*
X146920Y886207D01*
X160096Y886207D01*
X162286Y884017D01*
X162360Y883964D01*
X162429Y883904D01*
X162459Y883892D01*
X162485Y883873D01*
X162572Y883846D01*
X162657Y883812D01*
X162698Y883808D01*
X162721Y883801D01*
X162753Y883802D01*
X162824Y883794D01*
X199383Y883794D01*
X199454Y883805D01*
X199526Y883807D01*
X199575Y883825D01*
X199626Y883833D01*
X199689Y883867D01*
X199757Y883892D01*
X199797Y883924D01*
X199843Y883949D01*
X199893Y884001D01*
X199949Y884045D01*
X199977Y884089D01*
X200013Y884127D01*
X200043Y884192D01*
X200082Y884252D01*
X200094Y884303D01*
X200116Y884350D01*
X200124Y884421D01*
X200142Y884491D01*
X200138Y884543D01*
X200143Y884594D01*
X200128Y884665D01*
X200123Y884736D01*
X200102Y884784D01*
X200091Y884835D01*
X200054Y884896D01*
X200026Y884962D01*
X199982Y885018D01*
X199965Y885046D01*
X199947Y885061D01*
X199922Y885093D01*
X198119Y886895D01*
X198119Y889993D01*
X198113Y890032D01*
X198113Y890037D01*
X198108Y890063D01*
X198105Y890083D01*
X198097Y890174D01*
X198085Y890203D01*
X198080Y890235D01*
X198064Y890265D01*
X198061Y890277D01*
X198034Y890323D01*
X198001Y890400D01*
X197975Y890432D01*
X197964Y890453D01*
X197946Y890471D01*
X197935Y890488D01*
X197920Y890501D01*
X197896Y890531D01*
X197238Y891189D01*
X197164Y891242D01*
X197095Y891302D01*
X197064Y891314D01*
X197038Y891333D01*
X196951Y891360D01*
X196866Y891394D01*
X196825Y891398D01*
X196803Y891405D01*
X196771Y891404D01*
X196700Y891412D01*
X158503Y891412D01*
X158413Y891398D01*
X158322Y891390D01*
X158292Y891378D01*
X158260Y891373D01*
X158179Y891330D01*
X158096Y891294D01*
X158063Y891268D01*
X158043Y891257D01*
X158021Y891234D01*
X157965Y891189D01*
X155775Y888999D01*
X151565Y888999D01*
X148589Y891975D01*
X148589Y896185D01*
X151026Y898622D01*
X151038Y898638D01*
X151054Y898650D01*
X151085Y898699D01*
X151090Y898704D01*
X151095Y898714D01*
X151110Y898738D01*
X151170Y898821D01*
X151176Y898840D01*
X151187Y898857D01*
X151212Y898958D01*
X151242Y899057D01*
X151242Y899076D01*
X151247Y899096D01*
X151239Y899199D01*
X151236Y899302D01*
X151229Y899321D01*
X151228Y899341D01*
X151187Y899436D01*
X151152Y899533D01*
X151139Y899549D01*
X151131Y899567D01*
X151026Y899698D01*
X149859Y900865D01*
X149859Y905075D01*
X152835Y908051D01*
X157045Y908051D01*
X160021Y905075D01*
X160021Y900865D01*
X157584Y898428D01*
X157572Y898412D01*
X157556Y898400D01*
X157500Y898312D01*
X157440Y898229D01*
X157434Y898210D01*
X157423Y898193D01*
X157398Y898092D01*
X157368Y897993D01*
X157368Y897974D01*
X157363Y897954D01*
X157371Y897851D01*
X157374Y897748D01*
X157381Y897729D01*
X157382Y897709D01*
X157423Y897614D01*
X157458Y897517D01*
X157471Y897501D01*
X157479Y897483D01*
X157584Y897352D01*
X157965Y896971D01*
X158038Y896918D01*
X158108Y896858D01*
X158138Y896846D01*
X158164Y896827D01*
X158251Y896800D01*
X158336Y896766D01*
X158377Y896762D01*
X158399Y896755D01*
X158432Y896756D01*
X158503Y896748D01*
X199225Y896748D01*
X201669Y894304D01*
X201743Y894251D01*
X201812Y894191D01*
X201843Y894179D01*
X201869Y894160D01*
X201956Y894133D01*
X202041Y894099D01*
X202082Y894095D01*
X202104Y894088D01*
X202136Y894089D01*
X202207Y894081D01*
X205305Y894081D01*
X208281Y891105D01*
X208281Y886895D01*
X206478Y885093D01*
X206437Y885035D01*
X206387Y884983D01*
X206365Y884936D01*
X206335Y884894D01*
X206314Y884825D01*
X206284Y884760D01*
X206278Y884708D01*
X206263Y884658D01*
X206264Y884587D01*
X206257Y884516D01*
X206268Y884465D01*
X206269Y884413D01*
X206294Y884345D01*
X206309Y884275D01*
X206336Y884230D01*
X206353Y884182D01*
X206398Y884126D01*
X206435Y884064D01*
X206475Y884030D01*
X206507Y883990D01*
X206567Y883951D01*
X206622Y883904D01*
X206670Y883885D01*
X206714Y883857D01*
X206783Y883839D01*
X206850Y883812D01*
X206921Y883804D01*
X206953Y883796D01*
X206976Y883798D01*
X207017Y883794D01*
X224783Y883794D01*
X224854Y883805D01*
X224926Y883807D01*
X224975Y883825D01*
X225026Y883833D01*
X225089Y883867D01*
X225157Y883892D01*
X225197Y883924D01*
X225243Y883949D01*
X225293Y884001D01*
X225349Y884045D01*
X225377Y884089D01*
X225413Y884127D01*
X225443Y884192D01*
X225482Y884252D01*
X225494Y884303D01*
X225516Y884350D01*
X225524Y884421D01*
X225542Y884491D01*
X225538Y884543D01*
X225543Y884594D01*
X225528Y884665D01*
X225523Y884736D01*
X225502Y884784D01*
X225491Y884835D01*
X225454Y884896D01*
X225426Y884962D01*
X225382Y885018D01*
X225365Y885046D01*
X225347Y885061D01*
X225322Y885093D01*
X223519Y886895D01*
X223519Y891105D01*
X226495Y894081D01*
X230705Y894081D01*
X232895Y891891D01*
X232968Y891838D01*
X233038Y891778D01*
X233068Y891766D01*
X233094Y891747D01*
X233181Y891720D01*
X233266Y891686D01*
X233307Y891682D01*
X233329Y891675D01*
X233362Y891676D01*
X233433Y891668D01*
X317747Y891668D01*
X317837Y891682D01*
X317928Y891690D01*
X317958Y891702D01*
X317990Y891707D01*
X318071Y891750D01*
X318154Y891786D01*
X318187Y891812D01*
X318207Y891823D01*
X318229Y891846D01*
X318285Y891891D01*
X320475Y894081D01*
X324685Y894081D01*
X327661Y891105D01*
X327661Y886895D01*
X324685Y883919D01*
X320475Y883919D01*
X318285Y886109D01*
X318212Y886162D01*
X318142Y886222D01*
X318112Y886234D01*
X318086Y886253D01*
X317999Y886280D01*
X317914Y886314D01*
X317873Y886318D01*
X317851Y886325D01*
X317818Y886324D01*
X317747Y886332D01*
X233433Y886332D01*
X233343Y886318D01*
X233252Y886310D01*
X233222Y886298D01*
X233190Y886293D01*
X233110Y886250D01*
X233026Y886214D01*
X232993Y886188D01*
X232973Y886177D01*
X232951Y886154D01*
X232895Y886109D01*
X231878Y885093D01*
X231837Y885035D01*
X231787Y884983D01*
X231765Y884936D01*
X231735Y884894D01*
X231714Y884825D01*
X231684Y884760D01*
X231678Y884708D01*
X231663Y884658D01*
X231664Y884587D01*
X231657Y884516D01*
X231668Y884465D01*
X231669Y884413D01*
X231694Y884345D01*
X231709Y884275D01*
X231736Y884230D01*
X231753Y884182D01*
X231798Y884126D01*
X231835Y884064D01*
X231875Y884030D01*
X231907Y883990D01*
X231967Y883951D01*
X232022Y883904D01*
X232070Y883885D01*
X232114Y883857D01*
X232184Y883839D01*
X232250Y883812D01*
X232321Y883804D01*
X232353Y883796D01*
X232376Y883798D01*
X232417Y883794D01*
X239979Y883794D01*
X241407Y882366D01*
X241481Y882313D01*
X241550Y882253D01*
X241580Y882241D01*
X241606Y882222D01*
X241693Y882195D01*
X241778Y882161D01*
X241819Y882157D01*
X241842Y882150D01*
X241874Y882151D01*
X241945Y882143D01*
X258692Y882143D01*
X258782Y882157D01*
X258873Y882165D01*
X258903Y882177D01*
X258935Y882182D01*
X259016Y882225D01*
X259099Y882261D01*
X259132Y882287D01*
X259152Y882298D01*
X259174Y882321D01*
X259230Y882366D01*
X259515Y882651D01*
X263725Y882651D01*
X266701Y879675D01*
X266701Y875465D01*
X265533Y874298D01*
X265492Y874240D01*
X265442Y874188D01*
X265420Y874141D01*
X265390Y874099D01*
X265369Y874030D01*
X265339Y873965D01*
X265333Y873913D01*
X265318Y873863D01*
X265319Y873792D01*
X265312Y873721D01*
X265323Y873670D01*
X265324Y873618D01*
X265349Y873550D01*
X265364Y873480D01*
X265391Y873435D01*
X265408Y873387D01*
X265453Y873331D01*
X265490Y873269D01*
X265530Y873235D01*
X265562Y873195D01*
X265622Y873156D01*
X265677Y873109D01*
X265725Y873090D01*
X265769Y873062D01*
X265838Y873044D01*
X265905Y873017D01*
X265976Y873009D01*
X266008Y873001D01*
X266031Y873003D01*
X266072Y872999D01*
X317747Y872999D01*
X317837Y873013D01*
X317928Y873021D01*
X317958Y873033D01*
X317990Y873038D01*
X318071Y873081D01*
X318155Y873117D01*
X318187Y873143D01*
X318207Y873154D01*
X318229Y873177D01*
X318285Y873222D01*
X320475Y875412D01*
X324685Y875412D01*
X327661Y872436D01*
X327661Y868226D01*
X324685Y865250D01*
X320475Y865250D01*
X318285Y867440D01*
X318211Y867493D01*
X318142Y867553D01*
X318112Y867565D01*
X318086Y867584D01*
X317999Y867611D01*
X317914Y867645D01*
X317873Y867649D01*
X317851Y867656D01*
X317818Y867655D01*
X317747Y867663D01*
X241434Y867663D01*
X241344Y867649D01*
X241253Y867641D01*
X241223Y867629D01*
X241191Y867624D01*
X241110Y867581D01*
X241027Y867545D01*
X240994Y867519D01*
X240974Y867508D01*
X240952Y867485D01*
X240896Y867440D01*
X238325Y864869D01*
X234115Y864869D01*
X231139Y867845D01*
X231139Y872055D01*
X232434Y873349D01*
X232475Y873407D01*
X232525Y873459D01*
X232547Y873506D01*
X232577Y873548D01*
X232598Y873617D01*
X232628Y873682D01*
X232634Y873734D01*
X232649Y873784D01*
X232648Y873855D01*
X232655Y873926D01*
X232644Y873977D01*
X232643Y874029D01*
X232618Y874097D01*
X232603Y874167D01*
X232576Y874212D01*
X232559Y874260D01*
X232514Y874316D01*
X232477Y874378D01*
X232437Y874412D01*
X232405Y874452D01*
X232345Y874491D01*
X232290Y874538D01*
X232242Y874557D01*
X232198Y874585D01*
X232129Y874603D01*
X232062Y874630D01*
X231991Y874638D01*
X231959Y874646D01*
X231936Y874644D01*
X231895Y874648D01*
X221495Y874648D01*
X221424Y874637D01*
X221352Y874635D01*
X221303Y874617D01*
X221252Y874609D01*
X221189Y874575D01*
X221121Y874550D01*
X221081Y874518D01*
X221035Y874493D01*
X220985Y874442D01*
X220929Y874397D01*
X220901Y874353D01*
X220865Y874315D01*
X220835Y874250D01*
X220796Y874190D01*
X220784Y874139D01*
X220762Y874092D01*
X220754Y874021D01*
X220736Y873951D01*
X220740Y873899D01*
X220735Y873848D01*
X220750Y873777D01*
X220755Y873706D01*
X220776Y873658D01*
X220787Y873607D01*
X220824Y873546D01*
X220852Y873480D01*
X220897Y873424D01*
X220913Y873396D01*
X220931Y873381D01*
X220957Y873349D01*
X220981Y873324D01*
X220981Y869115D01*
X218005Y866139D01*
X213795Y866139D01*
X210819Y869115D01*
X210819Y870331D01*
X210816Y870351D01*
X210818Y870370D01*
X210796Y870472D01*
X210780Y870574D01*
X210770Y870591D01*
X210766Y870611D01*
X210713Y870700D01*
X210664Y870791D01*
X210650Y870805D01*
X210640Y870822D01*
X210561Y870889D01*
X210486Y870961D01*
X210468Y870969D01*
X210453Y870982D01*
X210357Y871021D01*
X210263Y871064D01*
X210243Y871066D01*
X210225Y871074D01*
X210058Y871092D01*
X159773Y871092D01*
X159683Y871078D01*
X159592Y871070D01*
X159562Y871058D01*
X159530Y871053D01*
X159449Y871010D01*
X159366Y870974D01*
X159333Y870948D01*
X159313Y870937D01*
X159291Y870914D01*
X159235Y870869D01*
X158219Y869853D01*
X158207Y869837D01*
X158191Y869825D01*
X158135Y869737D01*
X158075Y869654D01*
X158069Y869635D01*
X158058Y869618D01*
X158033Y869517D01*
X158003Y869418D01*
X158003Y869399D01*
X157998Y869379D01*
X158006Y869276D01*
X158009Y869173D01*
X158016Y869154D01*
X158017Y869134D01*
X158058Y869039D01*
X158093Y868942D01*
X158106Y868926D01*
X158114Y868908D01*
X158219Y868777D01*
X160021Y866975D01*
X160021Y862765D01*
X157045Y859789D01*
X152835Y859789D01*
G37*
%LPD*%
%LPC*%
G36*
X287455Y760729D02*
X287455Y760729D01*
X285900Y762284D01*
X285827Y762337D01*
X285757Y762397D01*
X285727Y762409D01*
X285701Y762428D01*
X285614Y762455D01*
X285529Y762489D01*
X285488Y762493D01*
X285466Y762500D01*
X285433Y762499D01*
X285362Y762507D01*
X104528Y762507D01*
X104438Y762493D01*
X104347Y762485D01*
X104317Y762473D01*
X104285Y762468D01*
X104204Y762425D01*
X104121Y762389D01*
X104088Y762363D01*
X104068Y762352D01*
X104046Y762329D01*
X103990Y762284D01*
X103705Y761999D01*
X99495Y761999D01*
X96519Y764975D01*
X96519Y769185D01*
X99495Y772161D01*
X103705Y772161D01*
X103990Y771876D01*
X104063Y771823D01*
X104133Y771763D01*
X104163Y771751D01*
X104189Y771732D01*
X104276Y771705D01*
X104361Y771671D01*
X104402Y771667D01*
X104424Y771660D01*
X104457Y771661D01*
X104528Y771653D01*
X290184Y771653D01*
X290723Y771114D01*
X290797Y771061D01*
X290867Y771001D01*
X290897Y770989D01*
X290923Y770970D01*
X291010Y770943D01*
X291095Y770909D01*
X291136Y770905D01*
X291158Y770898D01*
X291190Y770899D01*
X291261Y770891D01*
X291665Y770891D01*
X291950Y770606D01*
X292023Y770553D01*
X292093Y770493D01*
X292123Y770481D01*
X292149Y770462D01*
X292236Y770435D01*
X292321Y770401D01*
X292362Y770397D01*
X292384Y770390D01*
X292417Y770391D01*
X292488Y770383D01*
X428872Y770383D01*
X428962Y770397D01*
X429053Y770405D01*
X429083Y770417D01*
X429115Y770422D01*
X429196Y770465D01*
X429279Y770501D01*
X429312Y770527D01*
X429332Y770538D01*
X429354Y770561D01*
X429410Y770606D01*
X432235Y773431D01*
X436445Y773431D01*
X439421Y770455D01*
X439421Y766245D01*
X436445Y763269D01*
X436041Y763269D01*
X435951Y763255D01*
X435860Y763247D01*
X435831Y763235D01*
X435799Y763230D01*
X435718Y763187D01*
X435634Y763151D01*
X435602Y763125D01*
X435581Y763114D01*
X435559Y763091D01*
X435503Y763046D01*
X433694Y761237D01*
X292488Y761237D01*
X292398Y761223D01*
X292307Y761215D01*
X292277Y761203D01*
X292245Y761198D01*
X292164Y761155D01*
X292081Y761119D01*
X292048Y761093D01*
X292028Y761082D01*
X292006Y761059D01*
X291950Y761014D01*
X291665Y760729D01*
X287455Y760729D01*
G37*
%LPD*%
%LPC*%
G36*
X110925Y787399D02*
X110925Y787399D01*
X107949Y790375D01*
X107949Y794585D01*
X110925Y797561D01*
X111626Y797561D01*
X111697Y797572D01*
X111769Y797574D01*
X111818Y797592D01*
X111869Y797600D01*
X111932Y797634D01*
X112000Y797659D01*
X112040Y797691D01*
X112086Y797716D01*
X112136Y797768D01*
X112192Y797812D01*
X112220Y797856D01*
X112256Y797894D01*
X112286Y797959D01*
X112325Y798019D01*
X112337Y798070D01*
X112359Y798117D01*
X112367Y798188D01*
X112385Y798258D01*
X112381Y798310D01*
X112386Y798361D01*
X112371Y798432D01*
X112366Y798503D01*
X112345Y798551D01*
X112334Y798602D01*
X112297Y798663D01*
X112269Y798729D01*
X112225Y798785D01*
X112208Y798813D01*
X112190Y798828D01*
X112165Y798860D01*
X109219Y801805D01*
X109219Y806015D01*
X112195Y808991D01*
X116405Y808991D01*
X118595Y806801D01*
X118668Y806748D01*
X118738Y806688D01*
X118768Y806676D01*
X118794Y806657D01*
X118881Y806630D01*
X118966Y806596D01*
X119007Y806592D01*
X119029Y806585D01*
X119062Y806586D01*
X119133Y806578D01*
X308857Y806578D01*
X308947Y806592D01*
X309038Y806600D01*
X309068Y806612D01*
X309100Y806617D01*
X309181Y806660D01*
X309264Y806696D01*
X309297Y806722D01*
X309317Y806733D01*
X309339Y806756D01*
X309395Y806801D01*
X311585Y808991D01*
X315795Y808991D01*
X318771Y806015D01*
X318771Y801806D01*
X318683Y801718D01*
X318671Y801702D01*
X318656Y801689D01*
X318600Y801602D01*
X318539Y801518D01*
X318534Y801499D01*
X318523Y801482D01*
X318498Y801382D01*
X318467Y801283D01*
X318468Y801263D01*
X318463Y801244D01*
X318471Y801141D01*
X318473Y801037D01*
X318480Y801018D01*
X318482Y800999D01*
X318522Y800903D01*
X318558Y800806D01*
X318570Y800790D01*
X318578Y800772D01*
X318683Y800641D01*
X321692Y797633D01*
X321692Y793423D01*
X318716Y790447D01*
X314506Y790447D01*
X312316Y792637D01*
X312258Y792679D01*
X307474Y797463D01*
X307400Y797516D01*
X307331Y797576D01*
X307300Y797588D01*
X307274Y797607D01*
X307187Y797634D01*
X307102Y797668D01*
X307061Y797672D01*
X307039Y797679D01*
X307007Y797678D01*
X306936Y797686D01*
X122324Y797686D01*
X122234Y797672D01*
X122143Y797664D01*
X122114Y797652D01*
X122082Y797647D01*
X122001Y797604D01*
X121917Y797568D01*
X121885Y797542D01*
X121864Y797531D01*
X121842Y797508D01*
X121786Y797463D01*
X118334Y794011D01*
X118281Y793937D01*
X118221Y793868D01*
X118209Y793837D01*
X118190Y793811D01*
X118163Y793724D01*
X118129Y793639D01*
X118125Y793598D01*
X118118Y793576D01*
X118119Y793544D01*
X118111Y793473D01*
X118111Y790375D01*
X115135Y787399D01*
X110925Y787399D01*
G37*
%LPD*%
%LPC*%
G36*
X321980Y70451D02*
X321980Y70451D01*
X318526Y71882D01*
X315882Y74526D01*
X314451Y77980D01*
X314451Y81720D01*
X315882Y85174D01*
X318526Y87818D01*
X318807Y87934D01*
X318906Y87996D01*
X319007Y88056D01*
X319011Y88061D01*
X319016Y88064D01*
X319090Y88153D01*
X319167Y88243D01*
X319169Y88249D01*
X319173Y88253D01*
X319215Y88361D01*
X319259Y88471D01*
X319260Y88478D01*
X319261Y88483D01*
X319262Y88501D01*
X319277Y88638D01*
X319277Y148921D01*
X319263Y149011D01*
X319255Y149102D01*
X319243Y149131D01*
X319238Y149163D01*
X319195Y149244D01*
X319159Y149328D01*
X319133Y149360D01*
X319122Y149381D01*
X319099Y149403D01*
X319054Y149459D01*
X313035Y155478D01*
X312961Y155531D01*
X312891Y155591D01*
X312861Y155603D01*
X312835Y155622D01*
X312748Y155649D01*
X312663Y155683D01*
X312622Y155687D01*
X312600Y155694D01*
X312568Y155693D01*
X312497Y155701D01*
X259722Y155701D01*
X259651Y155690D01*
X259579Y155688D01*
X259530Y155670D01*
X259479Y155662D01*
X259416Y155628D01*
X259348Y155603D01*
X259308Y155571D01*
X259262Y155546D01*
X259212Y155495D01*
X259156Y155450D01*
X259128Y155406D01*
X259092Y155368D01*
X259062Y155303D01*
X259023Y155243D01*
X259011Y155192D01*
X258989Y155145D01*
X258981Y155074D01*
X258963Y155004D01*
X258967Y154952D01*
X258962Y154901D01*
X258977Y154830D01*
X258982Y154759D01*
X259003Y154711D01*
X259014Y154660D01*
X259051Y154599D01*
X259079Y154533D01*
X259081Y154530D01*
X259081Y150295D01*
X256105Y147319D01*
X251895Y147319D01*
X248919Y150295D01*
X248919Y152146D01*
X248916Y152166D01*
X248918Y152185D01*
X248896Y152287D01*
X248880Y152389D01*
X248870Y152406D01*
X248866Y152426D01*
X248813Y152515D01*
X248764Y152606D01*
X248750Y152620D01*
X248740Y152637D01*
X248661Y152704D01*
X248586Y152776D01*
X248568Y152784D01*
X248553Y152797D01*
X248457Y152836D01*
X248363Y152879D01*
X248343Y152881D01*
X248325Y152889D01*
X248158Y152907D01*
X244228Y152907D01*
X244138Y152893D01*
X244047Y152885D01*
X244017Y152873D01*
X243985Y152868D01*
X243904Y152825D01*
X243821Y152789D01*
X243788Y152763D01*
X243768Y152752D01*
X243746Y152729D01*
X243690Y152684D01*
X243405Y152399D01*
X239195Y152399D01*
X236219Y155375D01*
X236219Y159585D01*
X239195Y162561D01*
X243405Y162561D01*
X243690Y162276D01*
X243763Y162223D01*
X243833Y162163D01*
X243863Y162151D01*
X243889Y162132D01*
X243976Y162105D01*
X244061Y162071D01*
X244102Y162067D01*
X244124Y162060D01*
X244157Y162061D01*
X244228Y162053D01*
X245735Y162053D01*
X245825Y162067D01*
X245916Y162075D01*
X245946Y162087D01*
X245978Y162092D01*
X246058Y162135D01*
X246142Y162171D01*
X246174Y162197D01*
X246195Y162208D01*
X246217Y162231D01*
X246273Y162276D01*
X248844Y164847D01*
X316600Y164847D01*
X328423Y153024D01*
X328423Y88638D01*
X328441Y88523D01*
X328459Y88407D01*
X328461Y88401D01*
X328462Y88395D01*
X328517Y88292D01*
X328570Y88187D01*
X328575Y88183D01*
X328578Y88178D01*
X328662Y88097D01*
X328746Y88015D01*
X328752Y88012D01*
X328756Y88008D01*
X328773Y88000D01*
X328893Y87934D01*
X329174Y87818D01*
X331818Y85174D01*
X333249Y81720D01*
X333249Y77980D01*
X331818Y74526D01*
X329174Y71882D01*
X325720Y70451D01*
X321980Y70451D01*
G37*
%LPD*%
%LPC*%
G36*
X298885Y730249D02*
X298885Y730249D01*
X298600Y730534D01*
X298527Y730587D01*
X298457Y730647D01*
X298427Y730659D01*
X298401Y730678D01*
X298314Y730705D01*
X298229Y730739D01*
X298188Y730743D01*
X298166Y730750D01*
X298133Y730749D01*
X298062Y730757D01*
X139076Y730757D01*
X138537Y731296D01*
X138463Y731349D01*
X138393Y731409D01*
X138363Y731421D01*
X138337Y731440D01*
X138250Y731467D01*
X138165Y731501D01*
X138124Y731505D01*
X138102Y731512D01*
X138070Y731511D01*
X137999Y731519D01*
X137595Y731519D01*
X134619Y734495D01*
X134619Y738705D01*
X137595Y741681D01*
X141805Y741681D01*
X143360Y740126D01*
X143433Y740073D01*
X143503Y740013D01*
X143533Y740001D01*
X143559Y739982D01*
X143646Y739955D01*
X143731Y739921D01*
X143772Y739917D01*
X143794Y739910D01*
X143827Y739911D01*
X143898Y739903D01*
X298062Y739903D01*
X298152Y739917D01*
X298243Y739925D01*
X298273Y739937D01*
X298305Y739942D01*
X298386Y739985D01*
X298469Y740021D01*
X298502Y740047D01*
X298522Y740058D01*
X298544Y740081D01*
X298600Y740126D01*
X298885Y740411D01*
X303095Y740411D01*
X306071Y737435D01*
X306071Y733225D01*
X303095Y730249D01*
X298885Y730249D01*
G37*
%LPD*%
%LPC*%
G36*
X535451Y265556D02*
X535451Y265556D01*
X528916Y268263D01*
X523914Y273265D01*
X521207Y279800D01*
X521207Y286874D01*
X523914Y293409D01*
X528916Y298411D01*
X535451Y301118D01*
X542525Y301118D01*
X549060Y298411D01*
X554062Y293409D01*
X556769Y286874D01*
X556769Y279800D01*
X554062Y273265D01*
X549060Y268263D01*
X542525Y265556D01*
X535451Y265556D01*
G37*
%LPD*%
%LPC*%
G36*
X-34525Y265556D02*
X-34525Y265556D01*
X-41060Y268263D01*
X-46062Y273265D01*
X-48769Y279800D01*
X-48769Y286874D01*
X-46062Y293409D01*
X-41060Y298411D01*
X-34525Y301118D01*
X-27451Y301118D01*
X-20916Y298411D01*
X-15914Y293409D01*
X-13207Y286874D01*
X-13207Y279800D01*
X-15914Y273265D01*
X-20916Y268263D01*
X-27451Y265556D01*
X-34525Y265556D01*
G37*
%LPD*%
%LPC*%
G36*
X535451Y765682D02*
X535451Y765682D01*
X528916Y768389D01*
X523914Y773391D01*
X521207Y779926D01*
X521207Y787000D01*
X523914Y793535D01*
X528916Y798537D01*
X535451Y801244D01*
X542525Y801244D01*
X549060Y798537D01*
X554062Y793535D01*
X556769Y787000D01*
X556769Y779926D01*
X554062Y773391D01*
X549060Y768389D01*
X542525Y765682D01*
X535451Y765682D01*
G37*
%LPD*%
%LPC*%
G36*
X-34525Y765682D02*
X-34525Y765682D01*
X-41060Y768389D01*
X-46062Y773391D01*
X-48769Y779926D01*
X-48769Y787000D01*
X-46062Y793535D01*
X-41060Y798537D01*
X-34525Y801244D01*
X-27451Y801244D01*
X-20916Y798537D01*
X-15914Y793535D01*
X-13207Y787000D01*
X-13207Y779926D01*
X-15914Y773391D01*
X-20916Y768389D01*
X-27451Y765682D01*
X-34525Y765682D01*
G37*
%LPD*%
G36*
X312230Y383679D02*
X312230Y383679D01*
X312302Y383681D01*
X312351Y383699D01*
X312402Y383707D01*
X312465Y383741D01*
X312533Y383766D01*
X312573Y383798D01*
X312619Y383823D01*
X312669Y383875D01*
X312725Y383919D01*
X312753Y383963D01*
X312789Y384001D01*
X312819Y384066D01*
X312858Y384126D01*
X312870Y384177D01*
X312892Y384224D01*
X312900Y384295D01*
X312918Y384365D01*
X312914Y384417D01*
X312919Y384468D01*
X312904Y384539D01*
X312899Y384610D01*
X312878Y384658D01*
X312867Y384709D01*
X312830Y384770D01*
X312802Y384836D01*
X312757Y384892D01*
X312741Y384920D01*
X312723Y384935D01*
X312698Y384967D01*
X312419Y385246D01*
X312419Y389455D01*
X315111Y392146D01*
X315152Y392204D01*
X315202Y392256D01*
X315224Y392303D01*
X315254Y392345D01*
X315275Y392414D01*
X315305Y392479D01*
X315311Y392531D01*
X315326Y392581D01*
X315325Y392652D01*
X315332Y392723D01*
X315321Y392774D01*
X315320Y392826D01*
X315295Y392894D01*
X315280Y392964D01*
X315253Y393009D01*
X315236Y393057D01*
X315191Y393113D01*
X315154Y393175D01*
X315114Y393209D01*
X315082Y393249D01*
X315022Y393288D01*
X314967Y393335D01*
X314919Y393354D01*
X314875Y393382D01*
X314806Y393400D01*
X314739Y393427D01*
X314668Y393435D01*
X314636Y393443D01*
X314613Y393441D01*
X314572Y393445D01*
X311817Y393445D01*
X308738Y396524D01*
X308664Y396577D01*
X308595Y396637D01*
X308565Y396649D01*
X308539Y396668D01*
X308452Y396695D01*
X308367Y396729D01*
X308326Y396733D01*
X308303Y396740D01*
X308271Y396739D01*
X308200Y396747D01*
X240942Y396747D01*
X240872Y396736D01*
X240800Y396734D01*
X240751Y396716D01*
X240700Y396708D01*
X240636Y396674D01*
X240569Y396649D01*
X240528Y396617D01*
X240482Y396592D01*
X240433Y396540D01*
X240377Y396496D01*
X240349Y396452D01*
X240313Y396414D01*
X240283Y396349D01*
X240244Y396289D01*
X240231Y396238D01*
X240209Y396191D01*
X240201Y396120D01*
X240184Y396050D01*
X240188Y395998D01*
X240182Y395947D01*
X240197Y395876D01*
X240203Y395805D01*
X240223Y395757D01*
X240234Y395706D01*
X240271Y395645D01*
X240299Y395579D01*
X240344Y395523D01*
X240360Y395495D01*
X240378Y395480D01*
X240404Y395448D01*
X241928Y393924D01*
X242002Y393871D01*
X242071Y393811D01*
X242102Y393799D01*
X242128Y393780D01*
X242215Y393753D01*
X242300Y393719D01*
X242341Y393715D01*
X242363Y393708D01*
X242395Y393709D01*
X242466Y393701D01*
X245564Y393701D01*
X248540Y390725D01*
X248540Y386515D01*
X246991Y384967D01*
X246950Y384909D01*
X246900Y384857D01*
X246878Y384810D01*
X246848Y384768D01*
X246827Y384699D01*
X246797Y384634D01*
X246791Y384582D01*
X246776Y384532D01*
X246777Y384461D01*
X246770Y384390D01*
X246781Y384339D01*
X246782Y384287D01*
X246807Y384219D01*
X246822Y384149D01*
X246849Y384104D01*
X246866Y384056D01*
X246911Y384000D01*
X246948Y383938D01*
X246988Y383904D01*
X247020Y383864D01*
X247080Y383825D01*
X247135Y383778D01*
X247183Y383759D01*
X247227Y383731D01*
X247296Y383713D01*
X247363Y383686D01*
X247434Y383678D01*
X247466Y383670D01*
X247489Y383672D01*
X247530Y383668D01*
X312159Y383668D01*
X312230Y383679D01*
G37*
%LPC*%
G36*
X64877Y518921D02*
X64877Y518921D01*
X61948Y521850D01*
X61948Y529717D01*
X63659Y531429D01*
X65096Y532865D01*
X65107Y532882D01*
X65123Y532894D01*
X65179Y532981D01*
X65239Y533065D01*
X65245Y533084D01*
X65256Y533101D01*
X65281Y533201D01*
X65312Y533300D01*
X65311Y533320D01*
X65316Y533339D01*
X65308Y533442D01*
X65305Y533546D01*
X65299Y533565D01*
X65297Y533585D01*
X65257Y533680D01*
X65221Y533777D01*
X65208Y533793D01*
X65201Y533811D01*
X65096Y533942D01*
X63950Y535087D01*
X63934Y535099D01*
X63922Y535115D01*
X63835Y535171D01*
X63751Y535231D01*
X63732Y535237D01*
X63715Y535248D01*
X63615Y535273D01*
X63516Y535303D01*
X63496Y535303D01*
X63476Y535308D01*
X63373Y535300D01*
X63270Y535297D01*
X63251Y535290D01*
X63231Y535288D01*
X63136Y535248D01*
X63039Y535212D01*
X63023Y535200D01*
X63005Y535192D01*
X62874Y535087D01*
X61948Y534161D01*
X59843Y534161D01*
X58553Y535452D01*
X58536Y535463D01*
X58524Y535479D01*
X58437Y535535D01*
X58353Y535595D01*
X58334Y535601D01*
X58317Y535612D01*
X58217Y535637D01*
X58118Y535668D01*
X58098Y535667D01*
X58079Y535672D01*
X57976Y535664D01*
X57872Y535661D01*
X57853Y535654D01*
X57833Y535653D01*
X57738Y535612D01*
X57641Y535577D01*
X57625Y535564D01*
X57607Y535557D01*
X57476Y535452D01*
X56186Y534161D01*
X54081Y534161D01*
X52592Y535650D01*
X52592Y546398D01*
X54081Y547886D01*
X60507Y547886D01*
X61725Y546669D01*
X63594Y544799D01*
X63610Y544788D01*
X63623Y544772D01*
X63710Y544716D01*
X63794Y544656D01*
X63813Y544650D01*
X63830Y544639D01*
X63930Y544614D01*
X64029Y544583D01*
X64049Y544584D01*
X64068Y544579D01*
X64171Y544587D01*
X64275Y544590D01*
X64294Y544597D01*
X64313Y544598D01*
X64408Y544638D01*
X64506Y544674D01*
X64522Y544687D01*
X64540Y544694D01*
X64671Y544799D01*
X64877Y545005D01*
X69863Y545005D01*
X70789Y544079D01*
X70805Y544067D01*
X70817Y544052D01*
X70904Y543996D01*
X70988Y543935D01*
X71007Y543930D01*
X71024Y543919D01*
X71125Y543893D01*
X71223Y543863D01*
X71243Y543864D01*
X71263Y543859D01*
X71366Y543867D01*
X71469Y543869D01*
X71488Y543876D01*
X71508Y543878D01*
X71603Y543918D01*
X71700Y543954D01*
X71716Y543966D01*
X71734Y543974D01*
X71865Y544079D01*
X72791Y545005D01*
X74896Y545005D01*
X76186Y543715D01*
X76203Y543703D01*
X76215Y543687D01*
X76302Y543631D01*
X76386Y543571D01*
X76405Y543565D01*
X76422Y543554D01*
X76522Y543529D01*
X76621Y543499D01*
X76641Y543499D01*
X76660Y543494D01*
X76763Y543502D01*
X76867Y543505D01*
X76886Y543512D01*
X76906Y543513D01*
X77001Y543554D01*
X77098Y543589D01*
X77114Y543602D01*
X77132Y543610D01*
X77263Y543715D01*
X78553Y545005D01*
X80658Y545005D01*
X80864Y544799D01*
X80880Y544788D01*
X80893Y544772D01*
X80980Y544716D01*
X81064Y544656D01*
X81083Y544650D01*
X81100Y544639D01*
X81200Y544614D01*
X81299Y544583D01*
X81319Y544584D01*
X81338Y544579D01*
X81441Y544587D01*
X81545Y544590D01*
X81563Y544597D01*
X81583Y544598D01*
X81678Y544638D01*
X81776Y544674D01*
X81791Y544687D01*
X81810Y544694D01*
X81941Y544799D01*
X83587Y546446D01*
X85692Y546446D01*
X86909Y545228D01*
X87940Y544198D01*
X87956Y544186D01*
X87968Y544170D01*
X88055Y544114D01*
X88139Y544054D01*
X88159Y544048D01*
X88175Y544037D01*
X88276Y544012D01*
X88375Y543982D01*
X88394Y543982D01*
X88414Y543977D01*
X88517Y543985D01*
X88620Y543988D01*
X88639Y543995D01*
X88659Y543996D01*
X88754Y544037D01*
X88851Y544072D01*
X88867Y544085D01*
X88885Y544093D01*
X89016Y544198D01*
X89824Y545005D01*
X94810Y545005D01*
X97739Y542076D01*
X97739Y538531D01*
X96521Y537313D01*
X96479Y537254D01*
X96432Y537206D01*
X96424Y537188D01*
X96408Y537170D01*
X96396Y537140D01*
X96377Y537113D01*
X96354Y537036D01*
X96329Y536982D01*
X96327Y536968D01*
X96316Y536942D01*
X96312Y536901D01*
X96305Y536878D01*
X96306Y536846D01*
X96298Y536775D01*
X96298Y535650D01*
X94810Y534161D01*
X89824Y534161D01*
X89016Y534969D01*
X89000Y534980D01*
X88988Y534996D01*
X88901Y535052D01*
X88817Y535112D01*
X88798Y535118D01*
X88781Y535129D01*
X88680Y535154D01*
X88581Y535185D01*
X88562Y535184D01*
X88542Y535189D01*
X88439Y535181D01*
X88336Y535178D01*
X88317Y535171D01*
X88297Y535170D01*
X88202Y535129D01*
X88105Y535094D01*
X88089Y535081D01*
X88071Y535074D01*
X87940Y534969D01*
X87132Y534161D01*
X85027Y534161D01*
X83381Y535808D01*
X83365Y535819D01*
X83353Y535835D01*
X83282Y535880D01*
X83252Y535906D01*
X83235Y535913D01*
X83181Y535951D01*
X83162Y535957D01*
X83146Y535968D01*
X83045Y535993D01*
X82946Y536024D01*
X82926Y536023D01*
X82907Y536028D01*
X82804Y536020D01*
X82700Y536017D01*
X82682Y536010D01*
X82662Y536009D01*
X82586Y535977D01*
X82586Y535976D01*
X82585Y535976D01*
X82567Y535968D01*
X82469Y535933D01*
X82454Y535920D01*
X82436Y535912D01*
X82378Y535867D01*
X82368Y535861D01*
X82358Y535850D01*
X82305Y535808D01*
X80658Y534161D01*
X74232Y534161D01*
X72585Y535808D01*
X72569Y535819D01*
X72557Y535835D01*
X72487Y535880D01*
X72456Y535906D01*
X72439Y535913D01*
X72386Y535951D01*
X72367Y535957D01*
X72350Y535968D01*
X72249Y535993D01*
X72151Y536024D01*
X72131Y536023D01*
X72111Y536028D01*
X72008Y536020D01*
X71905Y536017D01*
X71886Y536010D01*
X71866Y536009D01*
X71790Y535977D01*
X71790Y535976D01*
X71789Y535976D01*
X71771Y535968D01*
X71674Y535933D01*
X71658Y535920D01*
X71640Y535912D01*
X71583Y535867D01*
X71573Y535861D01*
X71562Y535850D01*
X71509Y535808D01*
X71080Y535379D01*
X69643Y533942D01*
X69632Y533926D01*
X69616Y533913D01*
X69560Y533826D01*
X69500Y533742D01*
X69494Y533723D01*
X69483Y533706D01*
X69458Y533606D01*
X69427Y533507D01*
X69428Y533487D01*
X69423Y533468D01*
X69431Y533365D01*
X69434Y533261D01*
X69441Y533242D01*
X69442Y533223D01*
X69482Y533128D01*
X69518Y533030D01*
X69531Y533015D01*
X69538Y532996D01*
X69643Y532865D01*
X72521Y529988D01*
X72595Y529935D01*
X72664Y529875D01*
X72694Y529863D01*
X72720Y529844D01*
X72808Y529818D01*
X72892Y529783D01*
X72933Y529779D01*
X72955Y529772D01*
X72988Y529773D01*
X73059Y529765D01*
X74896Y529765D01*
X76186Y528475D01*
X76203Y528463D01*
X76215Y528447D01*
X76302Y528391D01*
X76386Y528331D01*
X76405Y528325D01*
X76422Y528314D01*
X76522Y528289D01*
X76621Y528259D01*
X76641Y528259D01*
X76660Y528254D01*
X76763Y528262D01*
X76867Y528265D01*
X76886Y528272D01*
X76906Y528273D01*
X77001Y528314D01*
X77098Y528349D01*
X77114Y528362D01*
X77132Y528370D01*
X77263Y528475D01*
X78553Y529765D01*
X80658Y529765D01*
X80864Y529559D01*
X80880Y529548D01*
X80893Y529532D01*
X80980Y529476D01*
X81064Y529416D01*
X81083Y529410D01*
X81100Y529399D01*
X81200Y529374D01*
X81299Y529343D01*
X81319Y529344D01*
X81338Y529339D01*
X81441Y529347D01*
X81545Y529350D01*
X81563Y529357D01*
X81583Y529358D01*
X81678Y529398D01*
X81776Y529434D01*
X81791Y529447D01*
X81810Y529454D01*
X81941Y529559D01*
X83587Y531206D01*
X85692Y531206D01*
X88621Y528277D01*
X88621Y526172D01*
X87403Y524954D01*
X87350Y524880D01*
X87290Y524811D01*
X87278Y524781D01*
X87260Y524754D01*
X87233Y524668D01*
X87199Y524583D01*
X87194Y524542D01*
X87187Y524519D01*
X87188Y524487D01*
X87180Y524416D01*
X87180Y524270D01*
X87195Y524180D01*
X87202Y524089D01*
X87215Y524060D01*
X87220Y524028D01*
X87263Y523947D01*
X87298Y523863D01*
X87324Y523831D01*
X87335Y523810D01*
X87358Y523788D01*
X87403Y523732D01*
X88621Y522514D01*
X88621Y520410D01*
X87132Y518921D01*
X85027Y518921D01*
X83381Y520568D01*
X83365Y520579D01*
X83353Y520595D01*
X83265Y520651D01*
X83181Y520711D01*
X83162Y520717D01*
X83146Y520728D01*
X83045Y520753D01*
X82946Y520784D01*
X82926Y520783D01*
X82907Y520788D01*
X82804Y520780D01*
X82700Y520777D01*
X82682Y520770D01*
X82662Y520769D01*
X82567Y520728D01*
X82469Y520693D01*
X82454Y520680D01*
X82436Y520672D01*
X82305Y520568D01*
X80658Y518921D01*
X74232Y518921D01*
X72585Y520568D01*
X72569Y520579D01*
X72557Y520595D01*
X72469Y520651D01*
X72386Y520711D01*
X72367Y520717D01*
X72350Y520728D01*
X72249Y520753D01*
X72151Y520784D01*
X72131Y520783D01*
X72111Y520788D01*
X72008Y520780D01*
X71905Y520777D01*
X71886Y520770D01*
X71866Y520769D01*
X71771Y520728D01*
X71674Y520693D01*
X71658Y520680D01*
X71640Y520672D01*
X71509Y520568D01*
X71080Y520139D01*
X69863Y518921D01*
X64877Y518921D01*
G37*
%LPD*%
%LPC*%
G36*
X420477Y518921D02*
X420477Y518921D01*
X417548Y521850D01*
X417548Y529717D01*
X419259Y531429D01*
X420696Y532865D01*
X420707Y532882D01*
X420723Y532894D01*
X420779Y532981D01*
X420839Y533065D01*
X420845Y533084D01*
X420856Y533101D01*
X420881Y533201D01*
X420912Y533300D01*
X420911Y533320D01*
X420916Y533339D01*
X420908Y533442D01*
X420905Y533546D01*
X420899Y533565D01*
X420897Y533585D01*
X420857Y533680D01*
X420821Y533777D01*
X420808Y533793D01*
X420801Y533811D01*
X420696Y533942D01*
X419550Y535087D01*
X419534Y535099D01*
X419522Y535115D01*
X419435Y535171D01*
X419351Y535231D01*
X419332Y535237D01*
X419315Y535248D01*
X419215Y535273D01*
X419116Y535303D01*
X419096Y535303D01*
X419076Y535308D01*
X418973Y535300D01*
X418870Y535297D01*
X418851Y535290D01*
X418831Y535288D01*
X418736Y535248D01*
X418639Y535212D01*
X418623Y535200D01*
X418605Y535192D01*
X418474Y535087D01*
X417548Y534161D01*
X415443Y534161D01*
X414153Y535452D01*
X414136Y535463D01*
X414124Y535479D01*
X414037Y535535D01*
X413953Y535595D01*
X413934Y535601D01*
X413917Y535612D01*
X413817Y535637D01*
X413718Y535668D01*
X413698Y535667D01*
X413679Y535672D01*
X413576Y535664D01*
X413472Y535661D01*
X413453Y535654D01*
X413433Y535653D01*
X413338Y535612D01*
X413241Y535577D01*
X413225Y535564D01*
X413207Y535557D01*
X413076Y535452D01*
X411786Y534161D01*
X409681Y534161D01*
X408192Y535650D01*
X408192Y546398D01*
X409681Y547886D01*
X416107Y547886D01*
X417325Y546669D01*
X419194Y544799D01*
X419210Y544788D01*
X419223Y544772D01*
X419310Y544716D01*
X419394Y544656D01*
X419413Y544650D01*
X419430Y544639D01*
X419530Y544614D01*
X419629Y544583D01*
X419649Y544584D01*
X419668Y544579D01*
X419771Y544587D01*
X419875Y544590D01*
X419894Y544597D01*
X419913Y544598D01*
X420008Y544638D01*
X420106Y544674D01*
X420122Y544687D01*
X420140Y544694D01*
X420271Y544799D01*
X420477Y545005D01*
X425463Y545005D01*
X426389Y544079D01*
X426405Y544067D01*
X426417Y544052D01*
X426504Y543996D01*
X426588Y543935D01*
X426607Y543930D01*
X426624Y543919D01*
X426725Y543893D01*
X426823Y543863D01*
X426843Y543864D01*
X426863Y543859D01*
X426966Y543867D01*
X427069Y543869D01*
X427088Y543876D01*
X427108Y543878D01*
X427203Y543918D01*
X427300Y543954D01*
X427316Y543966D01*
X427334Y543974D01*
X427465Y544079D01*
X428391Y545005D01*
X430496Y545005D01*
X431786Y543715D01*
X431803Y543703D01*
X431815Y543687D01*
X431902Y543631D01*
X431986Y543571D01*
X432005Y543565D01*
X432022Y543554D01*
X432122Y543529D01*
X432221Y543499D01*
X432241Y543499D01*
X432260Y543494D01*
X432363Y543502D01*
X432467Y543505D01*
X432486Y543512D01*
X432506Y543513D01*
X432601Y543554D01*
X432698Y543589D01*
X432714Y543602D01*
X432732Y543610D01*
X432863Y543715D01*
X434153Y545005D01*
X436258Y545005D01*
X436464Y544799D01*
X436480Y544788D01*
X436493Y544772D01*
X436580Y544716D01*
X436664Y544656D01*
X436683Y544650D01*
X436700Y544639D01*
X436800Y544614D01*
X436899Y544583D01*
X436919Y544584D01*
X436938Y544579D01*
X437041Y544587D01*
X437145Y544590D01*
X437163Y544597D01*
X437183Y544598D01*
X437278Y544638D01*
X437376Y544674D01*
X437391Y544687D01*
X437410Y544694D01*
X437541Y544799D01*
X439187Y546446D01*
X441292Y546446D01*
X443003Y544734D01*
X443540Y544198D01*
X443556Y544186D01*
X443568Y544170D01*
X443656Y544114D01*
X443739Y544054D01*
X443758Y544048D01*
X443775Y544037D01*
X443876Y544012D01*
X443975Y543982D01*
X443994Y543982D01*
X444014Y543977D01*
X444117Y543985D01*
X444220Y543988D01*
X444239Y543995D01*
X444259Y543996D01*
X444354Y544037D01*
X444451Y544072D01*
X444467Y544085D01*
X444485Y544093D01*
X444616Y544198D01*
X445424Y545005D01*
X450410Y545005D01*
X453339Y542076D01*
X453339Y538531D01*
X452121Y537313D01*
X452079Y537254D01*
X452032Y537206D01*
X452024Y537188D01*
X452008Y537170D01*
X451996Y537140D01*
X451977Y537113D01*
X451954Y537036D01*
X451929Y536982D01*
X451927Y536968D01*
X451916Y536942D01*
X451912Y536901D01*
X451905Y536878D01*
X451906Y536846D01*
X451898Y536775D01*
X451898Y535650D01*
X450410Y534161D01*
X445424Y534161D01*
X444616Y534969D01*
X444600Y534980D01*
X444588Y534996D01*
X444501Y535052D01*
X444417Y535112D01*
X444398Y535118D01*
X444381Y535129D01*
X444280Y535154D01*
X444181Y535185D01*
X444162Y535184D01*
X444142Y535189D01*
X444039Y535181D01*
X443936Y535178D01*
X443917Y535171D01*
X443897Y535170D01*
X443802Y535129D01*
X443705Y535094D01*
X443689Y535081D01*
X443671Y535074D01*
X443540Y534969D01*
X442732Y534161D01*
X440627Y534161D01*
X439410Y535379D01*
X438981Y535808D01*
X438965Y535819D01*
X438953Y535835D01*
X438882Y535880D01*
X438852Y535906D01*
X438835Y535913D01*
X438781Y535951D01*
X438762Y535957D01*
X438746Y535968D01*
X438645Y535993D01*
X438546Y536024D01*
X438526Y536023D01*
X438507Y536028D01*
X438404Y536020D01*
X438300Y536017D01*
X438282Y536010D01*
X438262Y536009D01*
X438186Y535977D01*
X438186Y535976D01*
X438185Y535976D01*
X438167Y535968D01*
X438069Y535933D01*
X438054Y535920D01*
X438036Y535912D01*
X437978Y535867D01*
X437968Y535861D01*
X437958Y535850D01*
X437905Y535808D01*
X436258Y534161D01*
X429832Y534161D01*
X428185Y535808D01*
X428169Y535819D01*
X428157Y535835D01*
X428087Y535880D01*
X428056Y535906D01*
X428039Y535913D01*
X427986Y535951D01*
X427967Y535957D01*
X427950Y535968D01*
X427849Y535993D01*
X427751Y536024D01*
X427731Y536023D01*
X427711Y536028D01*
X427608Y536020D01*
X427505Y536017D01*
X427486Y536010D01*
X427466Y536009D01*
X427390Y535977D01*
X427390Y535976D01*
X427389Y535976D01*
X427371Y535968D01*
X427274Y535933D01*
X427258Y535920D01*
X427240Y535912D01*
X427183Y535867D01*
X427173Y535861D01*
X427162Y535850D01*
X427109Y535808D01*
X426680Y535379D01*
X425243Y533942D01*
X425232Y533926D01*
X425216Y533913D01*
X425160Y533826D01*
X425100Y533742D01*
X425094Y533723D01*
X425083Y533706D01*
X425058Y533606D01*
X425027Y533507D01*
X425028Y533487D01*
X425023Y533468D01*
X425031Y533365D01*
X425034Y533261D01*
X425041Y533242D01*
X425042Y533223D01*
X425082Y533128D01*
X425118Y533030D01*
X425131Y533015D01*
X425138Y532996D01*
X425243Y532865D01*
X428121Y529988D01*
X428195Y529935D01*
X428264Y529875D01*
X428294Y529863D01*
X428320Y529844D01*
X428408Y529818D01*
X428492Y529783D01*
X428533Y529779D01*
X428555Y529772D01*
X428588Y529773D01*
X428659Y529765D01*
X430496Y529765D01*
X431786Y528475D01*
X431803Y528463D01*
X431815Y528447D01*
X431902Y528391D01*
X431986Y528331D01*
X432005Y528325D01*
X432022Y528314D01*
X432122Y528289D01*
X432221Y528259D01*
X432241Y528259D01*
X432260Y528254D01*
X432363Y528262D01*
X432467Y528265D01*
X432486Y528272D01*
X432506Y528273D01*
X432601Y528314D01*
X432698Y528349D01*
X432714Y528362D01*
X432732Y528370D01*
X432863Y528475D01*
X434153Y529765D01*
X436258Y529765D01*
X436464Y529559D01*
X436480Y529548D01*
X436493Y529532D01*
X436580Y529476D01*
X436664Y529416D01*
X436683Y529410D01*
X436700Y529399D01*
X436800Y529374D01*
X436899Y529343D01*
X436919Y529344D01*
X436938Y529339D01*
X437041Y529347D01*
X437145Y529350D01*
X437163Y529357D01*
X437183Y529358D01*
X437278Y529398D01*
X437376Y529434D01*
X437391Y529447D01*
X437410Y529454D01*
X437541Y529559D01*
X439187Y531206D01*
X441292Y531206D01*
X444221Y528277D01*
X444221Y526172D01*
X443003Y524954D01*
X442950Y524880D01*
X442890Y524811D01*
X442878Y524781D01*
X442860Y524754D01*
X442833Y524668D01*
X442799Y524583D01*
X442794Y524542D01*
X442787Y524519D01*
X442788Y524487D01*
X442780Y524416D01*
X442780Y524270D01*
X442795Y524180D01*
X442802Y524089D01*
X442815Y524060D01*
X442820Y524028D01*
X442863Y523947D01*
X442898Y523863D01*
X442924Y523831D01*
X442935Y523810D01*
X442958Y523788D01*
X443003Y523732D01*
X444221Y522514D01*
X444221Y520410D01*
X442732Y518921D01*
X440627Y518921D01*
X438981Y520568D01*
X438965Y520579D01*
X438953Y520595D01*
X438865Y520651D01*
X438781Y520711D01*
X438762Y520717D01*
X438746Y520728D01*
X438645Y520753D01*
X438546Y520784D01*
X438526Y520783D01*
X438507Y520788D01*
X438404Y520780D01*
X438300Y520777D01*
X438282Y520770D01*
X438262Y520769D01*
X438167Y520728D01*
X438069Y520693D01*
X438054Y520680D01*
X438036Y520672D01*
X437905Y520568D01*
X436258Y518921D01*
X429832Y518921D01*
X428185Y520568D01*
X428169Y520579D01*
X428157Y520595D01*
X428069Y520651D01*
X427986Y520711D01*
X427967Y520717D01*
X427950Y520728D01*
X427849Y520753D01*
X427751Y520784D01*
X427731Y520783D01*
X427711Y520788D01*
X427608Y520780D01*
X427505Y520777D01*
X427486Y520770D01*
X427466Y520769D01*
X427371Y520728D01*
X427274Y520693D01*
X427258Y520680D01*
X427240Y520672D01*
X427109Y520568D01*
X426680Y520139D01*
X425463Y518921D01*
X420477Y518921D01*
G37*
%LPD*%
%LPC*%
G36*
X149025Y847089D02*
X149025Y847089D01*
X146454Y849660D01*
X146381Y849713D01*
X146311Y849773D01*
X146281Y849785D01*
X146255Y849804D01*
X146168Y849831D01*
X146083Y849865D01*
X146042Y849869D01*
X146020Y849876D01*
X145987Y849875D01*
X145916Y849883D01*
X87414Y849883D01*
X59951Y877346D01*
X59877Y877399D01*
X59808Y877459D01*
X59777Y877471D01*
X59751Y877490D01*
X59664Y877517D01*
X59579Y877551D01*
X59538Y877555D01*
X59516Y877562D01*
X59484Y877561D01*
X59413Y877569D01*
X56315Y877569D01*
X53339Y880545D01*
X53339Y884755D01*
X56315Y887731D01*
X60525Y887731D01*
X63501Y884755D01*
X63501Y881657D01*
X63515Y881567D01*
X63523Y881476D01*
X63535Y881447D01*
X63540Y881415D01*
X63583Y881334D01*
X63619Y881250D01*
X63645Y881218D01*
X63656Y881197D01*
X63679Y881175D01*
X63724Y881119D01*
X89401Y855442D01*
X89475Y855389D01*
X89544Y855329D01*
X89575Y855317D01*
X89601Y855298D01*
X89688Y855271D01*
X89773Y855237D01*
X89814Y855233D01*
X89836Y855226D01*
X89868Y855227D01*
X89939Y855219D01*
X146678Y855219D01*
X146768Y855233D01*
X146859Y855241D01*
X146889Y855253D01*
X146921Y855258D01*
X147002Y855301D01*
X147085Y855337D01*
X147118Y855363D01*
X147138Y855374D01*
X147160Y855397D01*
X147216Y855442D01*
X149025Y857251D01*
X153235Y857251D01*
X156211Y854275D01*
X156211Y850065D01*
X153235Y847089D01*
X149025Y847089D01*
G37*
%LPD*%
%LPC*%
G36*
X311585Y897889D02*
X311585Y897889D01*
X308609Y900865D01*
X308609Y905075D01*
X311585Y908051D01*
X315795Y908051D01*
X317985Y905861D01*
X318058Y905808D01*
X318128Y905748D01*
X318158Y905736D01*
X318184Y905717D01*
X318271Y905690D01*
X318356Y905656D01*
X318397Y905652D01*
X318419Y905645D01*
X318452Y905646D01*
X318523Y905638D01*
X411727Y905638D01*
X411817Y905652D01*
X411908Y905660D01*
X411938Y905672D01*
X411970Y905677D01*
X412051Y905720D01*
X412134Y905756D01*
X412167Y905782D01*
X412187Y905793D01*
X412209Y905816D01*
X412265Y905861D01*
X414455Y908051D01*
X418665Y908051D01*
X421641Y905075D01*
X421641Y900865D01*
X418665Y897889D01*
X414455Y897889D01*
X412265Y900079D01*
X412192Y900132D01*
X412122Y900192D01*
X412092Y900204D01*
X412066Y900223D01*
X411979Y900250D01*
X411894Y900284D01*
X411853Y900288D01*
X411831Y900295D01*
X411798Y900294D01*
X411727Y900302D01*
X318523Y900302D01*
X318433Y900288D01*
X318342Y900280D01*
X318312Y900268D01*
X318280Y900263D01*
X318199Y900220D01*
X318116Y900184D01*
X318083Y900158D01*
X318063Y900147D01*
X318041Y900124D01*
X317985Y900079D01*
X315795Y897889D01*
X311585Y897889D01*
G37*
%LPD*%
G36*
X287465Y402094D02*
X287465Y402094D01*
X287537Y402096D01*
X287586Y402114D01*
X287637Y402122D01*
X287700Y402156D01*
X287768Y402181D01*
X287808Y402213D01*
X287854Y402238D01*
X287904Y402290D01*
X287960Y402334D01*
X287988Y402378D01*
X288024Y402416D01*
X288054Y402481D01*
X288093Y402541D01*
X288105Y402592D01*
X288127Y402639D01*
X288135Y402710D01*
X288153Y402780D01*
X288149Y402832D01*
X288154Y402883D01*
X288139Y402954D01*
X288134Y403025D01*
X288113Y403073D01*
X288102Y403124D01*
X288065Y403185D01*
X288037Y403251D01*
X287993Y403307D01*
X287976Y403335D01*
X287958Y403350D01*
X287933Y403382D01*
X287019Y404295D01*
X287019Y408537D01*
X287030Y408559D01*
X287060Y408601D01*
X287081Y408670D01*
X287111Y408735D01*
X287117Y408787D01*
X287132Y408836D01*
X287131Y408908D01*
X287138Y408979D01*
X287127Y409030D01*
X287126Y409082D01*
X287101Y409150D01*
X287086Y409220D01*
X287059Y409265D01*
X287042Y409313D01*
X286997Y409369D01*
X286960Y409431D01*
X286920Y409465D01*
X286888Y409505D01*
X286828Y409544D01*
X286773Y409591D01*
X286725Y409610D01*
X286681Y409638D01*
X286612Y409656D01*
X286545Y409683D01*
X286474Y409691D01*
X286443Y409699D01*
X286419Y409697D01*
X286378Y409701D01*
X207906Y409701D01*
X207835Y409690D01*
X207763Y409688D01*
X207714Y409670D01*
X207663Y409662D01*
X207600Y409628D01*
X207532Y409603D01*
X207492Y409571D01*
X207446Y409546D01*
X207396Y409494D01*
X207340Y409450D01*
X207312Y409406D01*
X207276Y409368D01*
X207246Y409303D01*
X207207Y409243D01*
X207195Y409192D01*
X207173Y409145D01*
X207165Y409074D01*
X207147Y409004D01*
X207151Y408952D01*
X207146Y408901D01*
X207161Y408830D01*
X207166Y408759D01*
X207187Y408711D01*
X207198Y408660D01*
X207235Y408599D01*
X207263Y408533D01*
X207307Y408477D01*
X207324Y408449D01*
X207342Y408434D01*
X207367Y408402D01*
X208281Y407489D01*
X208281Y403247D01*
X208270Y403225D01*
X208240Y403183D01*
X208219Y403114D01*
X208189Y403049D01*
X208183Y402997D01*
X208168Y402948D01*
X208169Y402876D01*
X208162Y402805D01*
X208173Y402754D01*
X208174Y402702D01*
X208199Y402634D01*
X208214Y402564D01*
X208241Y402519D01*
X208258Y402471D01*
X208303Y402415D01*
X208340Y402353D01*
X208380Y402319D01*
X208412Y402279D01*
X208472Y402240D01*
X208527Y402193D01*
X208575Y402174D01*
X208619Y402146D01*
X208688Y402128D01*
X208755Y402101D01*
X208826Y402093D01*
X208857Y402085D01*
X208881Y402087D01*
X208922Y402083D01*
X287394Y402083D01*
X287465Y402094D01*
G37*
%LPC*%
G36*
X389944Y292702D02*
X389944Y292702D01*
X386968Y295679D01*
X386968Y299888D01*
X389967Y302887D01*
X389991Y302895D01*
X390042Y302904D01*
X390105Y302937D01*
X390173Y302962D01*
X390213Y302994D01*
X390259Y303019D01*
X390309Y303071D01*
X390365Y303116D01*
X390393Y303159D01*
X390429Y303197D01*
X390459Y303262D01*
X390498Y303323D01*
X390510Y303373D01*
X390532Y303420D01*
X390540Y303492D01*
X390558Y303561D01*
X390554Y303613D01*
X390559Y303665D01*
X390544Y303735D01*
X390539Y303806D01*
X390524Y303840D01*
X390524Y308186D01*
X393523Y311185D01*
X393547Y311193D01*
X393598Y311202D01*
X393661Y311235D01*
X393729Y311260D01*
X393769Y311292D01*
X393815Y311317D01*
X393865Y311369D01*
X393921Y311414D01*
X393949Y311457D01*
X393985Y311495D01*
X394015Y311560D01*
X394054Y311621D01*
X394066Y311671D01*
X394088Y311718D01*
X394096Y311790D01*
X394114Y311859D01*
X394110Y311911D01*
X394115Y311963D01*
X394100Y312033D01*
X394095Y312104D01*
X394080Y312138D01*
X394080Y316484D01*
X397056Y319460D01*
X401266Y319460D01*
X404242Y316484D01*
X404242Y312621D01*
X404253Y312551D01*
X404255Y312479D01*
X404273Y312430D01*
X404281Y312379D01*
X404315Y312315D01*
X404340Y312248D01*
X404372Y312207D01*
X404397Y312161D01*
X404449Y312112D01*
X404493Y312056D01*
X404537Y312028D01*
X404575Y311992D01*
X404640Y311962D01*
X404700Y311923D01*
X404751Y311910D01*
X404798Y311888D01*
X404869Y311880D01*
X404939Y311863D01*
X404991Y311867D01*
X405042Y311861D01*
X405113Y311876D01*
X405184Y311882D01*
X405232Y311902D01*
X405283Y311913D01*
X405344Y311950D01*
X405410Y311978D01*
X405466Y312023D01*
X405494Y312039D01*
X405509Y312057D01*
X405541Y312083D01*
X407216Y313758D01*
X411426Y313758D01*
X414402Y310782D01*
X414402Y306322D01*
X414405Y306302D01*
X414403Y306283D01*
X414425Y306181D01*
X414441Y306079D01*
X414451Y306062D01*
X414455Y306042D01*
X414508Y305953D01*
X414557Y305862D01*
X414571Y305848D01*
X414581Y305831D01*
X414660Y305764D01*
X414735Y305692D01*
X414753Y305684D01*
X414768Y305671D01*
X414864Y305632D01*
X414958Y305589D01*
X414978Y305587D01*
X414996Y305579D01*
X415072Y305571D01*
X417150Y303492D01*
X417167Y303481D01*
X417179Y303465D01*
X417266Y303409D01*
X417350Y303349D01*
X417369Y303343D01*
X417386Y303332D01*
X417486Y303307D01*
X417585Y303276D01*
X417605Y303277D01*
X417625Y303272D01*
X417727Y303280D01*
X417831Y303283D01*
X417850Y303290D01*
X417870Y303291D01*
X417965Y303332D01*
X418062Y303367D01*
X418078Y303380D01*
X418096Y303387D01*
X418227Y303492D01*
X419535Y304801D01*
X423745Y304801D01*
X426721Y301825D01*
X426721Y297615D01*
X423745Y294639D01*
X419535Y294639D01*
X417467Y296708D01*
X417451Y296719D01*
X417438Y296735D01*
X417351Y296791D01*
X417267Y296851D01*
X417248Y296857D01*
X417231Y296868D01*
X417131Y296893D01*
X417032Y296924D01*
X417012Y296923D01*
X416993Y296928D01*
X416890Y296920D01*
X416786Y296917D01*
X416768Y296910D01*
X416748Y296909D01*
X416653Y296868D01*
X416555Y296833D01*
X416540Y296820D01*
X416521Y296813D01*
X416390Y296708D01*
X415082Y295399D01*
X410873Y295399D01*
X407897Y298375D01*
X407897Y302836D01*
X407894Y302855D01*
X407896Y302875D01*
X407874Y302976D01*
X407857Y303078D01*
X407848Y303096D01*
X407843Y303115D01*
X407790Y303204D01*
X407742Y303296D01*
X407728Y303309D01*
X407717Y303326D01*
X407639Y303394D01*
X407564Y303465D01*
X407546Y303473D01*
X407530Y303486D01*
X407434Y303525D01*
X407341Y303569D01*
X407321Y303571D01*
X407302Y303578D01*
X407227Y303587D01*
X404240Y306573D01*
X404240Y310435D01*
X404229Y310506D01*
X404227Y310578D01*
X404209Y310627D01*
X404201Y310678D01*
X404167Y310742D01*
X404142Y310809D01*
X404110Y310850D01*
X404085Y310896D01*
X404033Y310945D01*
X403989Y311001D01*
X403945Y311029D01*
X403907Y311065D01*
X403842Y311095D01*
X403782Y311134D01*
X403731Y311147D01*
X403684Y311169D01*
X403613Y311176D01*
X403543Y311194D01*
X403491Y311190D01*
X403440Y311196D01*
X403369Y311180D01*
X403298Y311175D01*
X403250Y311154D01*
X403199Y311143D01*
X403138Y311107D01*
X403072Y311079D01*
X403016Y311034D01*
X402988Y311017D01*
X402973Y310999D01*
X402941Y310974D01*
X401243Y309276D01*
X401219Y309267D01*
X401168Y309259D01*
X401105Y309225D01*
X401037Y309200D01*
X400997Y309168D01*
X400951Y309144D01*
X400901Y309092D01*
X400845Y309047D01*
X400817Y309003D01*
X400781Y308965D01*
X400751Y308900D01*
X400712Y308840D01*
X400700Y308789D01*
X400678Y308742D01*
X400670Y308671D01*
X400652Y308601D01*
X400656Y308549D01*
X400651Y308498D01*
X400666Y308428D01*
X400671Y308356D01*
X400686Y308322D01*
X400686Y303977D01*
X397687Y300978D01*
X397663Y300969D01*
X397612Y300961D01*
X397549Y300927D01*
X397481Y300902D01*
X397441Y300870D01*
X397395Y300846D01*
X397345Y300794D01*
X397289Y300749D01*
X397261Y300705D01*
X397225Y300667D01*
X397195Y300602D01*
X397156Y300542D01*
X397144Y300491D01*
X397122Y300444D01*
X397114Y300373D01*
X397096Y300303D01*
X397100Y300251D01*
X397095Y300200D01*
X397110Y300130D01*
X397115Y300058D01*
X397130Y300024D01*
X397130Y295679D01*
X394154Y292702D01*
X389944Y292702D01*
G37*
%LPD*%
G36*
X147918Y993371D02*
X147918Y993371D01*
X147970Y993372D01*
X148038Y993397D01*
X148108Y993412D01*
X148153Y993439D01*
X148201Y993456D01*
X148257Y993501D01*
X148319Y993538D01*
X148353Y993578D01*
X148393Y993610D01*
X148432Y993670D01*
X148479Y993725D01*
X148498Y993773D01*
X148526Y993817D01*
X148544Y993886D01*
X148571Y993953D01*
X148571Y993956D01*
X149782Y995167D01*
X149794Y995183D01*
X149809Y995196D01*
X149865Y995283D01*
X149926Y995367D01*
X149931Y995386D01*
X149942Y995403D01*
X149967Y995503D01*
X149998Y995602D01*
X149997Y995622D01*
X150002Y995641D01*
X149994Y995744D01*
X149992Y995848D01*
X149985Y995867D01*
X149983Y995887D01*
X149943Y995981D01*
X149907Y996079D01*
X149895Y996095D01*
X149887Y996113D01*
X149782Y996244D01*
X132916Y1013109D01*
X132843Y1013162D01*
X132773Y1013222D01*
X132743Y1013234D01*
X132717Y1013253D01*
X132630Y1013280D01*
X132545Y1013314D01*
X132504Y1013318D01*
X132482Y1013325D01*
X132449Y1013324D01*
X132378Y1013332D01*
X120121Y1013332D01*
X120113Y1013331D01*
X120105Y1013332D01*
X119992Y1013311D01*
X119878Y1013293D01*
X119871Y1013289D01*
X119863Y1013287D01*
X119762Y1013231D01*
X119661Y1013177D01*
X119656Y1013172D01*
X119648Y1013168D01*
X119570Y1013082D01*
X119492Y1012999D01*
X119488Y1012992D01*
X119483Y1012986D01*
X119436Y1012880D01*
X119388Y1012776D01*
X119387Y1012768D01*
X119384Y1012761D01*
X119374Y1012646D01*
X119361Y1012532D01*
X119363Y1012524D01*
X119362Y1012516D01*
X119389Y1012404D01*
X119413Y1012291D01*
X119417Y1012284D01*
X119419Y1012277D01*
X119480Y1012179D01*
X119539Y1012080D01*
X119545Y1012075D01*
X119550Y1012068D01*
X119674Y1011955D01*
X120919Y1011050D01*
X122050Y1009919D01*
X122990Y1008625D01*
X123716Y1007200D01*
X124211Y1005679D01*
X124346Y1004823D01*
X115062Y1004823D01*
X115042Y1004820D01*
X115023Y1004822D01*
X114921Y1004800D01*
X114819Y1004783D01*
X114802Y1004774D01*
X114782Y1004770D01*
X114693Y1004717D01*
X114602Y1004668D01*
X114588Y1004654D01*
X114571Y1004644D01*
X114504Y1004565D01*
X114433Y1004490D01*
X114424Y1004472D01*
X114411Y1004457D01*
X114373Y1004361D01*
X114329Y1004267D01*
X114327Y1004247D01*
X114319Y1004229D01*
X114301Y1004062D01*
X114301Y1002538D01*
X114304Y1002518D01*
X114302Y1002499D01*
X114324Y1002397D01*
X114341Y1002295D01*
X114350Y1002278D01*
X114354Y1002258D01*
X114407Y1002169D01*
X114456Y1002078D01*
X114470Y1002064D01*
X114480Y1002047D01*
X114559Y1001980D01*
X114634Y1001909D01*
X114652Y1001900D01*
X114667Y1001887D01*
X114763Y1001848D01*
X114857Y1001805D01*
X114877Y1001803D01*
X114895Y1001795D01*
X115062Y1001777D01*
X124346Y1001777D01*
X124211Y1000921D01*
X123716Y999400D01*
X122990Y997975D01*
X122940Y997905D01*
X122935Y997895D01*
X122926Y997886D01*
X122879Y997785D01*
X122829Y997686D01*
X122828Y997674D01*
X122823Y997663D01*
X122810Y997553D01*
X122795Y997442D01*
X122797Y997430D01*
X122796Y997419D01*
X122819Y997310D01*
X122839Y997200D01*
X122845Y997190D01*
X122848Y997178D01*
X122905Y997083D01*
X122959Y996985D01*
X122968Y996977D01*
X122974Y996967D01*
X123059Y996895D01*
X123141Y996820D01*
X123152Y996815D01*
X123161Y996807D01*
X123265Y996765D01*
X123366Y996721D01*
X123378Y996720D01*
X123389Y996715D01*
X123556Y996697D01*
X144175Y996697D01*
X145960Y994911D01*
X147290Y993581D01*
X147348Y993540D01*
X147400Y993490D01*
X147447Y993468D01*
X147489Y993438D01*
X147558Y993417D01*
X147623Y993387D01*
X147675Y993381D01*
X147725Y993366D01*
X147796Y993367D01*
X147867Y993360D01*
X147918Y993371D01*
G37*
G36*
X314027Y929782D02*
X314027Y929782D01*
X314118Y929790D01*
X314148Y929802D01*
X314180Y929807D01*
X314260Y929850D01*
X314344Y929886D01*
X314377Y929912D01*
X314397Y929923D01*
X314419Y929946D01*
X314475Y929991D01*
X315026Y930541D01*
X315067Y930599D01*
X315117Y930651D01*
X315139Y930698D01*
X315169Y930740D01*
X315190Y930809D01*
X315220Y930874D01*
X315226Y930926D01*
X315241Y930976D01*
X315240Y931047D01*
X315247Y931118D01*
X315236Y931169D01*
X315235Y931221D01*
X315210Y931289D01*
X315195Y931359D01*
X315168Y931404D01*
X315151Y931452D01*
X315106Y931508D01*
X315069Y931570D01*
X315029Y931604D01*
X314997Y931644D01*
X314937Y931683D01*
X314882Y931730D01*
X314834Y931749D01*
X314790Y931777D01*
X314721Y931795D01*
X314654Y931822D01*
X314583Y931830D01*
X314551Y931838D01*
X314528Y931836D01*
X314487Y931840D01*
X160932Y931840D01*
X160862Y931829D01*
X160790Y931827D01*
X160741Y931809D01*
X160690Y931801D01*
X160626Y931767D01*
X160559Y931742D01*
X160518Y931710D01*
X160472Y931685D01*
X160423Y931633D01*
X160367Y931589D01*
X160339Y931545D01*
X160303Y931507D01*
X160273Y931442D01*
X160234Y931382D01*
X160221Y931331D01*
X160199Y931284D01*
X160191Y931213D01*
X160174Y931143D01*
X160178Y931091D01*
X160172Y931040D01*
X160187Y930969D01*
X160193Y930898D01*
X160213Y930850D01*
X160224Y930799D01*
X160261Y930738D01*
X160289Y930672D01*
X160334Y930616D01*
X160350Y930588D01*
X160368Y930573D01*
X160394Y930541D01*
X160944Y929991D01*
X161018Y929937D01*
X161087Y929878D01*
X161118Y929866D01*
X161144Y929847D01*
X161231Y929820D01*
X161316Y929786D01*
X161357Y929782D01*
X161379Y929775D01*
X161411Y929776D01*
X161482Y929768D01*
X313937Y929768D01*
X314027Y929782D01*
G37*
%LPC*%
G36*
X99730Y244601D02*
X99730Y244601D01*
X96276Y246032D01*
X93632Y248676D01*
X92201Y252130D01*
X92201Y255870D01*
X93632Y259324D01*
X96276Y261968D01*
X99730Y263399D01*
X103470Y263399D01*
X106924Y261968D01*
X109568Y259324D01*
X110999Y255870D01*
X110999Y252130D01*
X109568Y248676D01*
X106924Y246032D01*
X103470Y244601D01*
X99730Y244601D01*
G37*
%LPD*%
%LPC*%
G36*
X99730Y193801D02*
X99730Y193801D01*
X96276Y195232D01*
X93632Y197876D01*
X92201Y201330D01*
X92201Y205070D01*
X93632Y208524D01*
X96276Y211168D01*
X99730Y212599D01*
X103470Y212599D01*
X106924Y211168D01*
X109568Y208524D01*
X110999Y205070D01*
X110999Y201330D01*
X109568Y197876D01*
X106924Y195232D01*
X103470Y193801D01*
X99730Y193801D01*
G37*
%LPD*%
%LPC*%
G36*
X468030Y165701D02*
X468030Y165701D01*
X464576Y167132D01*
X461932Y169776D01*
X460501Y173230D01*
X460501Y176970D01*
X461932Y180424D01*
X464576Y183068D01*
X468030Y184499D01*
X471770Y184499D01*
X475224Y183068D01*
X477868Y180424D01*
X479299Y176970D01*
X479299Y173230D01*
X477868Y169776D01*
X475224Y167132D01*
X471770Y165701D01*
X468030Y165701D01*
G37*
%LPD*%
%LPC*%
G36*
X537130Y971601D02*
X537130Y971601D01*
X533676Y973032D01*
X531032Y975676D01*
X529601Y979130D01*
X529601Y982870D01*
X531032Y986324D01*
X533676Y988968D01*
X537130Y990399D01*
X540870Y990399D01*
X544324Y988968D01*
X546968Y986324D01*
X548399Y982870D01*
X548399Y979130D01*
X546968Y975676D01*
X544324Y973032D01*
X540870Y971601D01*
X537130Y971601D01*
G37*
%LPD*%
%LPC*%
G36*
X442630Y165701D02*
X442630Y165701D01*
X439176Y167132D01*
X436532Y169776D01*
X435101Y173230D01*
X435101Y176970D01*
X436532Y180424D01*
X439176Y183068D01*
X442630Y184499D01*
X446370Y184499D01*
X449824Y183068D01*
X452468Y180424D01*
X453899Y176970D01*
X453899Y173230D01*
X452468Y169776D01*
X449824Y167132D01*
X446370Y165701D01*
X442630Y165701D01*
G37*
%LPD*%
%LPC*%
G36*
X493430Y165701D02*
X493430Y165701D01*
X489976Y167132D01*
X487332Y169776D01*
X485901Y173230D01*
X485901Y176970D01*
X487332Y180424D01*
X489976Y183068D01*
X493430Y184499D01*
X497170Y184499D01*
X500624Y183068D01*
X503268Y180424D01*
X504699Y176970D01*
X504699Y173230D01*
X503268Y169776D01*
X500624Y167132D01*
X497170Y165701D01*
X493430Y165701D01*
G37*
%LPD*%
%LPC*%
G36*
X10830Y63151D02*
X10830Y63151D01*
X7376Y64582D01*
X4732Y67226D01*
X3301Y70680D01*
X3301Y74420D01*
X4732Y77874D01*
X7376Y80518D01*
X10830Y81949D01*
X14570Y81949D01*
X18024Y80518D01*
X20668Y77874D01*
X22099Y74420D01*
X22099Y70680D01*
X20668Y67226D01*
X18024Y64582D01*
X14570Y63151D01*
X10830Y63151D01*
G37*
%LPD*%
%LPC*%
G36*
X296580Y70451D02*
X296580Y70451D01*
X293126Y71882D01*
X290482Y74526D01*
X289051Y77980D01*
X289051Y81720D01*
X290482Y85174D01*
X293126Y87818D01*
X296580Y89249D01*
X300320Y89249D01*
X303774Y87818D01*
X306418Y85174D01*
X307849Y81720D01*
X307849Y77980D01*
X306418Y74526D01*
X303774Y71882D01*
X300320Y70451D01*
X296580Y70451D01*
G37*
%LPD*%
%LPC*%
G36*
X-14570Y63151D02*
X-14570Y63151D01*
X-18024Y64582D01*
X-20668Y67226D01*
X-22099Y70680D01*
X-22099Y74420D01*
X-20668Y77874D01*
X-18024Y80518D01*
X-14570Y81949D01*
X-10830Y81949D01*
X-7376Y80518D01*
X-4732Y77874D01*
X-3301Y74420D01*
X-3301Y70680D01*
X-4732Y67226D01*
X-7376Y64582D01*
X-10830Y63151D01*
X-14570Y63151D01*
G37*
%LPD*%
%LPC*%
G36*
X36230Y63151D02*
X36230Y63151D01*
X32776Y64582D01*
X30132Y67226D01*
X28701Y70680D01*
X28701Y74420D01*
X30132Y77874D01*
X32776Y80518D01*
X36230Y81949D01*
X39970Y81949D01*
X43424Y80518D01*
X46068Y77874D01*
X47499Y74420D01*
X47499Y70680D01*
X46068Y67226D01*
X43424Y64582D01*
X39970Y63151D01*
X36230Y63151D01*
G37*
%LPD*%
%LPC*%
G36*
X99730Y219201D02*
X99730Y219201D01*
X96276Y220632D01*
X93632Y223276D01*
X92201Y226730D01*
X92201Y230470D01*
X93632Y233924D01*
X96276Y236568D01*
X99730Y237999D01*
X103470Y237999D01*
X106924Y236568D01*
X109568Y233924D01*
X110999Y230470D01*
X110999Y226730D01*
X109568Y223276D01*
X106924Y220632D01*
X103470Y219201D01*
X99730Y219201D01*
G37*
%LPD*%
%LPC*%
G36*
X-65370Y333501D02*
X-65370Y333501D01*
X-68824Y334932D01*
X-71468Y337576D01*
X-72899Y341030D01*
X-72899Y344770D01*
X-71468Y348224D01*
X-68824Y350868D01*
X-65370Y352299D01*
X-61630Y352299D01*
X-58176Y350868D01*
X-55532Y348224D01*
X-54101Y344770D01*
X-54101Y341030D01*
X-55532Y337576D01*
X-58176Y334932D01*
X-61630Y333501D01*
X-65370Y333501D01*
G37*
%LPD*%
%LPC*%
G36*
X442630Y308101D02*
X442630Y308101D01*
X439176Y309532D01*
X436532Y312176D01*
X435101Y315630D01*
X435101Y319370D01*
X436532Y322824D01*
X439176Y325468D01*
X442630Y326899D01*
X446370Y326899D01*
X449824Y325468D01*
X452468Y322824D01*
X453899Y319370D01*
X453899Y315630D01*
X452468Y312176D01*
X449824Y309532D01*
X446370Y308101D01*
X442630Y308101D01*
G37*
%LPD*%
%LPC*%
G36*
X-65370Y308101D02*
X-65370Y308101D01*
X-68824Y309532D01*
X-71468Y312176D01*
X-72899Y315630D01*
X-72899Y319370D01*
X-71468Y322824D01*
X-68824Y325468D01*
X-65370Y326899D01*
X-61630Y326899D01*
X-58176Y325468D01*
X-55532Y322824D01*
X-54101Y319370D01*
X-54101Y315630D01*
X-55532Y312176D01*
X-58176Y309532D01*
X-61630Y308101D01*
X-65370Y308101D01*
G37*
%LPD*%
%LPC*%
G36*
X442630Y282701D02*
X442630Y282701D01*
X439176Y284132D01*
X436532Y286776D01*
X435101Y290230D01*
X435101Y293970D01*
X436532Y297424D01*
X439176Y300068D01*
X442630Y301499D01*
X446370Y301499D01*
X449824Y300068D01*
X452468Y297424D01*
X453899Y293970D01*
X453899Y290230D01*
X452468Y286776D01*
X449824Y284132D01*
X446370Y282701D01*
X442630Y282701D01*
G37*
%LPD*%
%LPC*%
G36*
X99730Y270001D02*
X99730Y270001D01*
X96276Y271432D01*
X93632Y274076D01*
X92201Y277530D01*
X92201Y281270D01*
X93632Y284724D01*
X96276Y287368D01*
X99730Y288799D01*
X103470Y288799D01*
X106924Y287368D01*
X109568Y284724D01*
X110999Y281270D01*
X110999Y277530D01*
X109568Y274076D01*
X106924Y271432D01*
X103470Y270001D01*
X99730Y270001D01*
G37*
%LPD*%
%LPC*%
G36*
X442630Y257301D02*
X442630Y257301D01*
X439176Y258732D01*
X436532Y261376D01*
X435101Y264830D01*
X435101Y268570D01*
X436532Y272024D01*
X439176Y274668D01*
X442630Y276099D01*
X446370Y276099D01*
X449824Y274668D01*
X452468Y272024D01*
X453899Y268570D01*
X453899Y264830D01*
X452468Y261376D01*
X449824Y258732D01*
X446370Y257301D01*
X442630Y257301D01*
G37*
%LPD*%
%LPC*%
G36*
X424996Y309050D02*
X424996Y309050D01*
X422020Y312026D01*
X422020Y314639D01*
X422017Y314658D01*
X422019Y314678D01*
X421997Y314779D01*
X421981Y314881D01*
X421971Y314899D01*
X421967Y314918D01*
X421914Y315007D01*
X421865Y315099D01*
X421851Y315112D01*
X421841Y315129D01*
X421762Y315197D01*
X421687Y315268D01*
X421669Y315276D01*
X421654Y315289D01*
X421558Y315328D01*
X421464Y315372D01*
X421444Y315374D01*
X421426Y315381D01*
X421259Y315400D01*
X418646Y315400D01*
X415670Y318376D01*
X415670Y322585D01*
X417697Y324611D01*
X417708Y324628D01*
X417724Y324640D01*
X417753Y324686D01*
X417788Y324722D01*
X417809Y324767D01*
X417840Y324811D01*
X417846Y324830D01*
X417857Y324847D01*
X417870Y324899D01*
X417891Y324945D01*
X417897Y324995D01*
X417913Y325046D01*
X417912Y325066D01*
X417917Y325086D01*
X417913Y325139D01*
X417918Y325189D01*
X417908Y325239D01*
X417906Y325292D01*
X417899Y325311D01*
X417898Y325331D01*
X417877Y325379D01*
X417866Y325430D01*
X417840Y325474D01*
X417822Y325523D01*
X417809Y325539D01*
X417802Y325557D01*
X417756Y325613D01*
X417740Y325641D01*
X417722Y325656D01*
X417697Y325688D01*
X415289Y328095D01*
X415289Y332305D01*
X418265Y335281D01*
X422475Y335281D01*
X425451Y332305D01*
X425451Y328095D01*
X423424Y326069D01*
X423413Y326053D01*
X423397Y326040D01*
X423341Y325953D01*
X423281Y325869D01*
X423275Y325850D01*
X423264Y325833D01*
X423239Y325733D01*
X423208Y325634D01*
X423209Y325614D01*
X423204Y325595D01*
X423212Y325492D01*
X423215Y325388D01*
X423222Y325370D01*
X423223Y325350D01*
X423264Y325255D01*
X423299Y325157D01*
X423312Y325142D01*
X423319Y325123D01*
X423424Y324992D01*
X425832Y322585D01*
X425832Y319972D01*
X425835Y319953D01*
X425833Y319933D01*
X425855Y319832D01*
X425871Y319730D01*
X425881Y319712D01*
X425885Y319693D01*
X425938Y319604D01*
X425987Y319512D01*
X426001Y319499D01*
X426011Y319482D01*
X426090Y319414D01*
X426165Y319343D01*
X426183Y319335D01*
X426198Y319322D01*
X426294Y319283D01*
X426388Y319239D01*
X426408Y319237D01*
X426426Y319230D01*
X426593Y319211D01*
X429206Y319211D01*
X432182Y316235D01*
X432182Y312026D01*
X429206Y309050D01*
X424996Y309050D01*
G37*
%LPD*%
G36*
X187770Y383679D02*
X187770Y383679D01*
X187842Y383681D01*
X187891Y383699D01*
X187942Y383707D01*
X188005Y383741D01*
X188073Y383766D01*
X188113Y383798D01*
X188159Y383823D01*
X188209Y383875D01*
X188265Y383919D01*
X188293Y383963D01*
X188329Y384001D01*
X188359Y384066D01*
X188398Y384126D01*
X188410Y384177D01*
X188432Y384224D01*
X188440Y384295D01*
X188458Y384365D01*
X188454Y384417D01*
X188459Y384468D01*
X188444Y384539D01*
X188439Y384610D01*
X188418Y384658D01*
X188407Y384709D01*
X188370Y384770D01*
X188342Y384836D01*
X188298Y384892D01*
X188281Y384920D01*
X188263Y384935D01*
X188238Y384967D01*
X185419Y387785D01*
X185419Y391995D01*
X188395Y394971D01*
X190223Y394971D01*
X190313Y394985D01*
X190404Y394993D01*
X190433Y395005D01*
X190465Y395010D01*
X190546Y395053D01*
X190630Y395089D01*
X190662Y395115D01*
X190683Y395126D01*
X190705Y395149D01*
X190761Y395194D01*
X191015Y395448D01*
X191057Y395506D01*
X191106Y395558D01*
X191128Y395605D01*
X191159Y395647D01*
X191180Y395716D01*
X191210Y395781D01*
X191216Y395833D01*
X191231Y395883D01*
X191229Y395954D01*
X191237Y396025D01*
X191226Y396076D01*
X191225Y396128D01*
X191200Y396196D01*
X191185Y396266D01*
X191158Y396311D01*
X191140Y396359D01*
X191095Y396415D01*
X191059Y396477D01*
X191019Y396511D01*
X190986Y396551D01*
X190926Y396590D01*
X190872Y396637D01*
X190823Y396656D01*
X190780Y396684D01*
X190710Y396702D01*
X190643Y396729D01*
X190572Y396737D01*
X190541Y396745D01*
X190518Y396743D01*
X190477Y396747D01*
X169799Y396747D01*
X169779Y396744D01*
X169760Y396746D01*
X169658Y396724D01*
X169556Y396708D01*
X169539Y396698D01*
X169519Y396694D01*
X169430Y396641D01*
X169339Y396592D01*
X169325Y396578D01*
X169308Y396568D01*
X169241Y396489D01*
X169169Y396414D01*
X169161Y396396D01*
X169148Y396381D01*
X169109Y396285D01*
X169066Y396191D01*
X169064Y396171D01*
X169056Y396153D01*
X169038Y395986D01*
X169038Y393453D01*
X169052Y393363D01*
X169060Y393272D01*
X169072Y393242D01*
X169077Y393210D01*
X169120Y393129D01*
X169156Y393046D01*
X169182Y393013D01*
X169193Y392993D01*
X169216Y392971D01*
X169261Y392915D01*
X171451Y390725D01*
X171451Y386515D01*
X169902Y384967D01*
X169861Y384909D01*
X169811Y384857D01*
X169789Y384810D01*
X169759Y384768D01*
X169738Y384699D01*
X169708Y384634D01*
X169702Y384582D01*
X169687Y384532D01*
X169688Y384461D01*
X169681Y384390D01*
X169692Y384339D01*
X169693Y384287D01*
X169718Y384219D01*
X169733Y384149D01*
X169760Y384104D01*
X169777Y384056D01*
X169822Y384000D01*
X169859Y383938D01*
X169899Y383904D01*
X169931Y383864D01*
X169991Y383825D01*
X170046Y383778D01*
X170094Y383759D01*
X170138Y383731D01*
X170207Y383713D01*
X170274Y383686D01*
X170345Y383678D01*
X170377Y383670D01*
X170400Y383672D01*
X170441Y383668D01*
X187699Y383668D01*
X187770Y383679D01*
G37*
%LPC*%
G36*
X36901Y199471D02*
X36901Y199471D01*
X34685Y200389D01*
X32989Y202085D01*
X32071Y204301D01*
X32071Y206699D01*
X32989Y208915D01*
X34685Y210611D01*
X36901Y211529D01*
X39299Y211529D01*
X39753Y211341D01*
X39847Y211319D01*
X39941Y211290D01*
X39967Y211291D01*
X39992Y211285D01*
X40089Y211294D01*
X40186Y211296D01*
X40211Y211305D01*
X40237Y211308D01*
X40326Y211347D01*
X40417Y211381D01*
X40438Y211397D01*
X40462Y211408D01*
X40533Y211474D01*
X40610Y211534D01*
X40624Y211556D01*
X40643Y211574D01*
X40690Y211659D01*
X40743Y211741D01*
X40749Y211767D01*
X40761Y211790D01*
X40779Y211885D01*
X40803Y211980D01*
X40801Y212006D01*
X40805Y212032D01*
X40791Y212128D01*
X40783Y212225D01*
X40773Y212249D01*
X40769Y212275D01*
X40725Y212362D01*
X40687Y212451D01*
X40667Y212477D01*
X40658Y212494D01*
X40634Y212518D01*
X40582Y212582D01*
X39369Y213795D01*
X39369Y218005D01*
X42345Y220981D01*
X46555Y220981D01*
X49531Y218005D01*
X49531Y213795D01*
X46555Y210819D01*
X43144Y210819D01*
X43074Y210808D01*
X43002Y210806D01*
X42953Y210788D01*
X42902Y210780D01*
X42838Y210746D01*
X42771Y210721D01*
X42730Y210689D01*
X42684Y210664D01*
X42635Y210612D01*
X42579Y210568D01*
X42551Y210524D01*
X42515Y210486D01*
X42485Y210421D01*
X42446Y210361D01*
X42433Y210310D01*
X42411Y210263D01*
X42403Y210192D01*
X42386Y210122D01*
X42390Y210070D01*
X42384Y210019D01*
X42399Y209948D01*
X42405Y209877D01*
X42425Y209829D01*
X42436Y209778D01*
X42473Y209717D01*
X42501Y209651D01*
X42546Y209595D01*
X42563Y209567D01*
X42580Y209552D01*
X42606Y209520D01*
X43211Y208915D01*
X44129Y206699D01*
X44129Y204301D01*
X43211Y202085D01*
X41515Y200389D01*
X39299Y199471D01*
X36901Y199471D01*
G37*
%LPD*%
%LPC*%
G36*
X359845Y115409D02*
X359845Y115409D01*
X356869Y118385D01*
X356869Y122268D01*
X356866Y122288D01*
X356868Y122307D01*
X356846Y122409D01*
X356830Y122511D01*
X356820Y122528D01*
X356816Y122548D01*
X356763Y122637D01*
X356714Y122728D01*
X356700Y122742D01*
X356690Y122759D01*
X356611Y122826D01*
X356536Y122898D01*
X356518Y122906D01*
X356503Y122919D01*
X356407Y122958D01*
X356313Y123001D01*
X356293Y123003D01*
X356275Y123011D01*
X356108Y123029D01*
X352225Y123029D01*
X349249Y126005D01*
X349249Y130215D01*
X352225Y133191D01*
X356435Y133191D01*
X359411Y130215D01*
X359411Y126332D01*
X359414Y126312D01*
X359412Y126293D01*
X359434Y126191D01*
X359450Y126089D01*
X359460Y126072D01*
X359464Y126052D01*
X359517Y125963D01*
X359566Y125872D01*
X359580Y125858D01*
X359590Y125841D01*
X359669Y125774D01*
X359744Y125702D01*
X359762Y125694D01*
X359777Y125681D01*
X359873Y125642D01*
X359967Y125599D01*
X359987Y125597D01*
X360005Y125589D01*
X360172Y125571D01*
X364055Y125571D01*
X367031Y122595D01*
X367031Y118385D01*
X364055Y115409D01*
X359845Y115409D01*
G37*
%LPD*%
%LPC*%
G36*
X373815Y64609D02*
X373815Y64609D01*
X370839Y67585D01*
X370839Y71794D01*
X371245Y72200D01*
X371286Y72258D01*
X371336Y72310D01*
X371358Y72357D01*
X371388Y72399D01*
X371409Y72468D01*
X371439Y72533D01*
X371445Y72585D01*
X371460Y72635D01*
X371459Y72706D01*
X371466Y72777D01*
X371455Y72828D01*
X371454Y72880D01*
X371429Y72948D01*
X371414Y73018D01*
X371387Y73063D01*
X371370Y73111D01*
X371325Y73167D01*
X371288Y73229D01*
X371248Y73263D01*
X371216Y73303D01*
X371156Y73342D01*
X371101Y73389D01*
X371053Y73408D01*
X371009Y73436D01*
X370939Y73454D01*
X370873Y73481D01*
X370802Y73489D01*
X370770Y73497D01*
X370747Y73495D01*
X370706Y73499D01*
X367465Y73499D01*
X364489Y76475D01*
X364489Y80685D01*
X367465Y83661D01*
X371675Y83661D01*
X374651Y80685D01*
X374651Y76476D01*
X374245Y76070D01*
X374204Y76012D01*
X374154Y75960D01*
X374132Y75913D01*
X374102Y75871D01*
X374081Y75802D01*
X374051Y75737D01*
X374045Y75685D01*
X374030Y75635D01*
X374031Y75564D01*
X374024Y75493D01*
X374035Y75442D01*
X374036Y75390D01*
X374061Y75322D01*
X374076Y75252D01*
X374103Y75207D01*
X374120Y75159D01*
X374165Y75103D01*
X374202Y75041D01*
X374242Y75007D01*
X374274Y74967D01*
X374334Y74928D01*
X374389Y74881D01*
X374437Y74862D01*
X374481Y74834D01*
X374551Y74816D01*
X374617Y74789D01*
X374688Y74781D01*
X374720Y74773D01*
X374743Y74775D01*
X374784Y74771D01*
X378025Y74771D01*
X381001Y71795D01*
X381001Y67585D01*
X378025Y64609D01*
X373815Y64609D01*
G37*
%LPD*%
G36*
X239459Y383679D02*
X239459Y383679D01*
X239531Y383681D01*
X239580Y383699D01*
X239631Y383707D01*
X239694Y383741D01*
X239762Y383766D01*
X239802Y383798D01*
X239848Y383823D01*
X239898Y383875D01*
X239954Y383919D01*
X239982Y383963D01*
X240018Y384001D01*
X240048Y384066D01*
X240087Y384126D01*
X240099Y384177D01*
X240121Y384224D01*
X240129Y384295D01*
X240147Y384365D01*
X240143Y384417D01*
X240148Y384468D01*
X240133Y384539D01*
X240128Y384610D01*
X240107Y384658D01*
X240096Y384709D01*
X240059Y384770D01*
X240031Y384836D01*
X239987Y384892D01*
X239970Y384920D01*
X239952Y384935D01*
X239927Y384967D01*
X238378Y386515D01*
X238378Y389613D01*
X238364Y389703D01*
X238356Y389794D01*
X238344Y389823D01*
X238339Y389855D01*
X238296Y389936D01*
X238260Y390020D01*
X238234Y390052D01*
X238223Y390073D01*
X238200Y390095D01*
X238155Y390151D01*
X235338Y392968D01*
X235264Y393021D01*
X235195Y393081D01*
X235164Y393093D01*
X235138Y393112D01*
X235051Y393139D01*
X234966Y393173D01*
X234925Y393177D01*
X234903Y393184D01*
X234871Y393183D01*
X234800Y393191D01*
X221622Y393191D01*
X221551Y393180D01*
X221479Y393178D01*
X221430Y393160D01*
X221379Y393152D01*
X221316Y393118D01*
X221248Y393093D01*
X221208Y393061D01*
X221162Y393036D01*
X221112Y392985D01*
X221056Y392940D01*
X221028Y392896D01*
X220992Y392858D01*
X220962Y392793D01*
X220923Y392733D01*
X220911Y392682D01*
X220889Y392635D01*
X220881Y392564D01*
X220863Y392494D01*
X220867Y392442D01*
X220862Y392391D01*
X220877Y392320D01*
X220882Y392249D01*
X220903Y392201D01*
X220914Y392150D01*
X220951Y392089D01*
X220979Y392023D01*
X220981Y392020D01*
X220981Y387785D01*
X218162Y384967D01*
X218121Y384909D01*
X218071Y384857D01*
X218049Y384810D01*
X218019Y384768D01*
X217998Y384699D01*
X217968Y384634D01*
X217962Y384582D01*
X217947Y384532D01*
X217948Y384461D01*
X217941Y384390D01*
X217952Y384339D01*
X217953Y384287D01*
X217978Y384219D01*
X217993Y384149D01*
X218020Y384104D01*
X218037Y384056D01*
X218082Y384000D01*
X218119Y383938D01*
X218159Y383904D01*
X218191Y383864D01*
X218251Y383825D01*
X218306Y383778D01*
X218354Y383759D01*
X218398Y383731D01*
X218467Y383713D01*
X218534Y383686D01*
X218605Y383678D01*
X218637Y383670D01*
X218660Y383672D01*
X218701Y383668D01*
X239388Y383668D01*
X239459Y383679D01*
G37*
G36*
X213170Y383679D02*
X213170Y383679D01*
X213242Y383681D01*
X213291Y383699D01*
X213342Y383707D01*
X213405Y383741D01*
X213473Y383766D01*
X213513Y383798D01*
X213559Y383823D01*
X213609Y383875D01*
X213665Y383919D01*
X213693Y383963D01*
X213729Y384001D01*
X213759Y384066D01*
X213798Y384126D01*
X213810Y384177D01*
X213832Y384224D01*
X213840Y384295D01*
X213858Y384365D01*
X213854Y384417D01*
X213859Y384468D01*
X213844Y384539D01*
X213839Y384610D01*
X213818Y384658D01*
X213807Y384709D01*
X213770Y384770D01*
X213742Y384836D01*
X213698Y384892D01*
X213681Y384920D01*
X213663Y384935D01*
X213638Y384967D01*
X210819Y387785D01*
X210819Y391541D01*
X210816Y391561D01*
X210818Y391580D01*
X210796Y391682D01*
X210780Y391784D01*
X210770Y391801D01*
X210766Y391821D01*
X210713Y391910D01*
X210664Y392001D01*
X210650Y392015D01*
X210640Y392032D01*
X210561Y392099D01*
X210486Y392171D01*
X210468Y392179D01*
X210453Y392192D01*
X210357Y392231D01*
X210263Y392274D01*
X210243Y392276D01*
X210225Y392284D01*
X210058Y392302D01*
X196342Y392302D01*
X196322Y392299D01*
X196303Y392301D01*
X196201Y392279D01*
X196099Y392263D01*
X196082Y392253D01*
X196062Y392249D01*
X195973Y392196D01*
X195882Y392147D01*
X195868Y392133D01*
X195851Y392123D01*
X195784Y392044D01*
X195712Y391969D01*
X195704Y391951D01*
X195691Y391936D01*
X195652Y391840D01*
X195609Y391746D01*
X195607Y391726D01*
X195599Y391708D01*
X195581Y391541D01*
X195581Y387785D01*
X192762Y384967D01*
X192721Y384909D01*
X192671Y384857D01*
X192649Y384810D01*
X192619Y384768D01*
X192598Y384699D01*
X192568Y384634D01*
X192562Y384582D01*
X192547Y384532D01*
X192548Y384461D01*
X192541Y384390D01*
X192552Y384339D01*
X192553Y384287D01*
X192578Y384219D01*
X192593Y384149D01*
X192620Y384104D01*
X192637Y384056D01*
X192682Y384000D01*
X192719Y383938D01*
X192759Y383904D01*
X192791Y383864D01*
X192851Y383825D01*
X192906Y383778D01*
X192954Y383759D01*
X192998Y383731D01*
X193067Y383713D01*
X193134Y383686D01*
X193205Y383678D01*
X193237Y383670D01*
X193260Y383672D01*
X193301Y383668D01*
X213099Y383668D01*
X213170Y383679D01*
G37*
G36*
X110229Y1018683D02*
X110229Y1018683D01*
X110326Y1018693D01*
X110350Y1018703D01*
X110376Y1018707D01*
X110462Y1018753D01*
X110551Y1018793D01*
X110570Y1018810D01*
X110593Y1018823D01*
X110660Y1018893D01*
X110732Y1018959D01*
X110744Y1018982D01*
X110762Y1019001D01*
X110803Y1019089D01*
X110850Y1019175D01*
X110855Y1019200D01*
X110866Y1019224D01*
X110877Y1019321D01*
X110894Y1019417D01*
X110890Y1019443D01*
X110893Y1019468D01*
X110872Y1019564D01*
X110858Y1019660D01*
X110846Y1019683D01*
X110841Y1019709D01*
X110791Y1019792D01*
X110747Y1019879D01*
X110728Y1019898D01*
X110715Y1019920D01*
X110641Y1019983D01*
X110571Y1020051D01*
X110543Y1020067D01*
X110528Y1020080D01*
X110497Y1020092D01*
X110424Y1020132D01*
X109770Y1020403D01*
X109706Y1020418D01*
X109645Y1020443D01*
X109562Y1020452D01*
X109530Y1020459D01*
X109511Y1020458D01*
X109479Y1020461D01*
X38852Y1020461D01*
X38781Y1020450D01*
X38709Y1020448D01*
X38660Y1020430D01*
X38609Y1020422D01*
X38546Y1020388D01*
X38478Y1020363D01*
X38438Y1020331D01*
X38392Y1020306D01*
X38342Y1020255D01*
X38286Y1020210D01*
X38258Y1020166D01*
X38222Y1020128D01*
X38192Y1020063D01*
X38153Y1020003D01*
X38141Y1019952D01*
X38119Y1019905D01*
X38111Y1019834D01*
X38093Y1019764D01*
X38097Y1019712D01*
X38092Y1019661D01*
X38107Y1019591D01*
X38112Y1019519D01*
X38133Y1019471D01*
X38144Y1019420D01*
X38181Y1019359D01*
X38209Y1019293D01*
X38253Y1019237D01*
X38270Y1019209D01*
X38288Y1019194D01*
X38313Y1019162D01*
X38584Y1018891D01*
X38659Y1018838D01*
X38728Y1018778D01*
X38758Y1018766D01*
X38784Y1018747D01*
X38871Y1018720D01*
X38956Y1018686D01*
X38997Y1018682D01*
X39019Y1018675D01*
X39052Y1018676D01*
X39123Y1018668D01*
X110133Y1018668D01*
X110229Y1018683D01*
G37*
%LPC*%
G36*
X36901Y296471D02*
X36901Y296471D01*
X34685Y297389D01*
X32989Y299085D01*
X32071Y301301D01*
X32071Y303699D01*
X32989Y305915D01*
X34685Y307611D01*
X36901Y308529D01*
X39299Y308529D01*
X41515Y307611D01*
X43211Y305915D01*
X44129Y303699D01*
X44129Y301301D01*
X43211Y299085D01*
X41515Y297389D01*
X39299Y296471D01*
X36901Y296471D01*
G37*
%LPD*%
%LPC*%
G36*
X36901Y326471D02*
X36901Y326471D01*
X34685Y327389D01*
X32989Y329085D01*
X32071Y331301D01*
X32071Y333699D01*
X32989Y335915D01*
X34685Y337611D01*
X36901Y338529D01*
X39299Y338529D01*
X41515Y337611D01*
X43211Y335915D01*
X44129Y333699D01*
X44129Y331301D01*
X43211Y329085D01*
X41515Y327389D01*
X39299Y326471D01*
X36901Y326471D01*
G37*
%LPD*%
%LPC*%
G36*
X36901Y169471D02*
X36901Y169471D01*
X34685Y170389D01*
X32989Y172085D01*
X32071Y174301D01*
X32071Y176699D01*
X32989Y178915D01*
X34685Y180611D01*
X36901Y181529D01*
X39299Y181529D01*
X41515Y180611D01*
X43211Y178915D01*
X44129Y176699D01*
X44129Y174301D01*
X43211Y172085D01*
X41515Y170389D01*
X39299Y169471D01*
X36901Y169471D01*
G37*
%LPD*%
G36*
X351880Y416799D02*
X351880Y416799D01*
X351932Y416800D01*
X352000Y416825D01*
X352070Y416840D01*
X352114Y416867D01*
X352163Y416885D01*
X352219Y416930D01*
X352281Y416966D01*
X352315Y417006D01*
X352355Y417039D01*
X352394Y417099D01*
X352441Y417153D01*
X352460Y417202D01*
X352488Y417246D01*
X352506Y417315D01*
X352533Y417382D01*
X352541Y417453D01*
X352549Y417484D01*
X352547Y417507D01*
X352551Y417548D01*
X352551Y459708D01*
X352540Y459778D01*
X352538Y459850D01*
X352520Y459899D01*
X352512Y459950D01*
X352478Y460014D01*
X352453Y460081D01*
X352421Y460122D01*
X352396Y460168D01*
X352344Y460217D01*
X352300Y460273D01*
X352256Y460301D01*
X352218Y460337D01*
X352153Y460367D01*
X352093Y460406D01*
X352042Y460419D01*
X351995Y460441D01*
X351924Y460449D01*
X351854Y460466D01*
X351802Y460462D01*
X351751Y460468D01*
X351680Y460453D01*
X351609Y460447D01*
X351561Y460427D01*
X351510Y460416D01*
X351449Y460379D01*
X351383Y460351D01*
X351327Y460306D01*
X351299Y460290D01*
X351284Y460272D01*
X351252Y460246D01*
X350236Y459230D01*
X350183Y459156D01*
X350123Y459087D01*
X350111Y459056D01*
X350092Y459030D01*
X350065Y458943D01*
X350031Y458858D01*
X350027Y458817D01*
X350020Y458795D01*
X350021Y458763D01*
X350013Y458692D01*
X350013Y418564D01*
X350027Y418474D01*
X350035Y418383D01*
X350047Y418354D01*
X350052Y418322D01*
X350095Y418241D01*
X350131Y418157D01*
X350157Y418125D01*
X350168Y418104D01*
X350191Y418082D01*
X350236Y418026D01*
X351252Y417010D01*
X351310Y416968D01*
X351362Y416919D01*
X351409Y416897D01*
X351451Y416866D01*
X351520Y416845D01*
X351585Y416815D01*
X351637Y416809D01*
X351687Y416794D01*
X351758Y416796D01*
X351829Y416788D01*
X351880Y416799D01*
G37*
%LPC*%
G36*
X228784Y65498D02*
X228784Y65498D01*
X226776Y66330D01*
X225240Y67866D01*
X224408Y69874D01*
X224408Y72046D01*
X225240Y74054D01*
X226776Y75590D01*
X228784Y76422D01*
X230956Y76422D01*
X232964Y75590D01*
X234500Y74054D01*
X235332Y72046D01*
X235332Y69874D01*
X234500Y67866D01*
X232964Y66330D01*
X230956Y65498D01*
X228784Y65498D01*
G37*
%LPD*%
%LPC*%
G36*
X278314Y65498D02*
X278314Y65498D01*
X276306Y66330D01*
X274770Y67866D01*
X273938Y69874D01*
X273938Y72046D01*
X274770Y74054D01*
X276306Y75590D01*
X278314Y76422D01*
X280486Y76422D01*
X282494Y75590D01*
X284030Y74054D01*
X284862Y72046D01*
X284862Y69874D01*
X284030Y67866D01*
X282494Y66330D01*
X280486Y65498D01*
X278314Y65498D01*
G37*
%LPD*%
%LPC*%
G36*
X461445Y26509D02*
X461445Y26509D01*
X458469Y29485D01*
X458469Y33695D01*
X461445Y36671D01*
X465655Y36671D01*
X468631Y33695D01*
X468631Y29485D01*
X465655Y26509D01*
X461445Y26509D01*
G37*
%LPD*%
%LPC*%
G36*
X359845Y41749D02*
X359845Y41749D01*
X356869Y44725D01*
X356869Y48935D01*
X359845Y51911D01*
X364055Y51911D01*
X367031Y48935D01*
X367031Y44725D01*
X364055Y41749D01*
X359845Y41749D01*
G37*
%LPD*%
%LPC*%
G36*
X152835Y947419D02*
X152835Y947419D01*
X149859Y950395D01*
X149859Y954605D01*
X152835Y957581D01*
X157045Y957581D01*
X160021Y954605D01*
X160021Y950395D01*
X157045Y947419D01*
X152835Y947419D01*
G37*
%LPD*%
%LPC*%
G36*
X350955Y652779D02*
X350955Y652779D01*
X347979Y655755D01*
X347979Y659965D01*
X350955Y662941D01*
X355165Y662941D01*
X358141Y659965D01*
X358141Y655755D01*
X355165Y652779D01*
X350955Y652779D01*
G37*
%LPD*%
%LPC*%
G36*
X226495Y623569D02*
X226495Y623569D01*
X223519Y626545D01*
X223519Y630755D01*
X226495Y633731D01*
X230705Y633731D01*
X233681Y630755D01*
X233681Y626545D01*
X230705Y623569D01*
X226495Y623569D01*
G37*
%LPD*%
%LPC*%
G36*
X224209Y579119D02*
X224209Y579119D01*
X221233Y582095D01*
X221233Y586305D01*
X224209Y589281D01*
X228419Y589281D01*
X231395Y586305D01*
X231395Y582095D01*
X228419Y579119D01*
X224209Y579119D01*
G37*
%LPD*%
%LPC*%
G36*
X194745Y496569D02*
X194745Y496569D01*
X191769Y499545D01*
X191769Y503755D01*
X194745Y506731D01*
X198955Y506731D01*
X201931Y503755D01*
X201931Y499545D01*
X198955Y496569D01*
X194745Y496569D01*
G37*
%LPD*%
%LPC*%
G36*
X260375Y495710D02*
X260375Y495710D01*
X257399Y498686D01*
X257399Y502895D01*
X260375Y505871D01*
X264584Y505871D01*
X267560Y502895D01*
X267560Y498686D01*
X264584Y495710D01*
X260375Y495710D01*
G37*
%LPD*%
%LPC*%
G36*
X538915Y426719D02*
X538915Y426719D01*
X535939Y429695D01*
X535939Y433905D01*
X538915Y436881D01*
X543125Y436881D01*
X546101Y433905D01*
X546101Y429695D01*
X543125Y426719D01*
X538915Y426719D01*
G37*
%LPD*%
%LPC*%
G36*
X188395Y415289D02*
X188395Y415289D01*
X185419Y418265D01*
X185419Y422475D01*
X188395Y425451D01*
X192605Y425451D01*
X195581Y422475D01*
X195581Y418265D01*
X192605Y415289D01*
X188395Y415289D01*
G37*
%LPD*%
%LPC*%
G36*
X455095Y401319D02*
X455095Y401319D01*
X452119Y404295D01*
X452119Y408505D01*
X455095Y411481D01*
X459305Y411481D01*
X462281Y408505D01*
X462281Y404295D01*
X459305Y401319D01*
X455095Y401319D01*
G37*
%LPD*%
%LPC*%
G36*
X8055Y353059D02*
X8055Y353059D01*
X5079Y356035D01*
X5079Y360245D01*
X8055Y363221D01*
X12265Y363221D01*
X15241Y360245D01*
X15241Y356035D01*
X12265Y353059D01*
X8055Y353059D01*
G37*
%LPD*%
%LPC*%
G36*
X235385Y351281D02*
X235385Y351281D01*
X232409Y354257D01*
X232409Y358467D01*
X235385Y361443D01*
X239595Y361443D01*
X242571Y358467D01*
X242571Y354257D01*
X239595Y351281D01*
X235385Y351281D01*
G37*
%LPD*%
%LPC*%
G36*
X8055Y261619D02*
X8055Y261619D01*
X5079Y264595D01*
X5079Y268805D01*
X8055Y271781D01*
X12265Y271781D01*
X15241Y268805D01*
X15241Y264595D01*
X12265Y261619D01*
X8055Y261619D01*
G37*
%LPD*%
%LPC*%
G36*
X48695Y185419D02*
X48695Y185419D01*
X45719Y188395D01*
X45719Y192605D01*
X48695Y195581D01*
X52905Y195581D01*
X55881Y192605D01*
X55881Y188395D01*
X52905Y185419D01*
X48695Y185419D01*
G37*
%LPD*%
%LPC*%
G36*
X23295Y185419D02*
X23295Y185419D01*
X20319Y188395D01*
X20319Y192605D01*
X23295Y195581D01*
X27505Y195581D01*
X30481Y192605D01*
X30481Y188395D01*
X27505Y185419D01*
X23295Y185419D01*
G37*
%LPD*%
%LPC*%
G36*
X349685Y910589D02*
X349685Y910589D01*
X346709Y913565D01*
X346709Y917775D01*
X349685Y920751D01*
X353895Y920751D01*
X356871Y917775D01*
X356871Y913565D01*
X353895Y910589D01*
X349685Y910589D01*
G37*
%LPD*%
%LPC*%
G36*
X42726Y341629D02*
X42726Y341629D01*
X39750Y344605D01*
X39750Y348815D01*
X42726Y351791D01*
X46936Y351791D01*
X49912Y348815D01*
X49912Y344605D01*
X46936Y341629D01*
X42726Y341629D01*
G37*
%LPD*%
%LPC*%
G36*
X79556Y274319D02*
X79556Y274319D01*
X76580Y277295D01*
X76580Y281505D01*
X79556Y284481D01*
X83766Y284481D01*
X86742Y281505D01*
X86742Y277295D01*
X83766Y274319D01*
X79556Y274319D01*
G37*
%LPD*%
%LPC*%
G36*
X86795Y160019D02*
X86795Y160019D01*
X83819Y162995D01*
X83819Y167205D01*
X86795Y170181D01*
X91005Y170181D01*
X93981Y167205D01*
X93981Y162995D01*
X91005Y160019D01*
X86795Y160019D01*
G37*
%LPD*%
%LPC*%
G36*
X226495Y147319D02*
X226495Y147319D01*
X223519Y150295D01*
X223519Y154505D01*
X226495Y157481D01*
X230705Y157481D01*
X233681Y154505D01*
X233681Y150295D01*
X230705Y147319D01*
X226495Y147319D01*
G37*
%LPD*%
%LPC*%
G36*
X377625Y96105D02*
X377625Y96105D01*
X374649Y99081D01*
X374649Y103291D01*
X377625Y106267D01*
X381835Y106267D01*
X384811Y103291D01*
X384811Y99081D01*
X381835Y96105D01*
X377625Y96105D01*
G37*
%LPD*%
%LPC*%
G36*
X118545Y274319D02*
X118545Y274319D01*
X115569Y277295D01*
X115569Y281505D01*
X118545Y284481D01*
X122755Y284481D01*
X125731Y281505D01*
X125731Y277295D01*
X122755Y274319D01*
X118545Y274319D01*
G37*
%LPD*%
%LPC*%
G36*
X390325Y72229D02*
X390325Y72229D01*
X387349Y75205D01*
X387349Y79415D01*
X390325Y82391D01*
X394535Y82391D01*
X397511Y79415D01*
X397511Y75205D01*
X394535Y72229D01*
X390325Y72229D01*
G37*
%LPD*%
%LPC*%
G36*
X342065Y72229D02*
X342065Y72229D01*
X339089Y75205D01*
X339089Y79415D01*
X342065Y82391D01*
X346275Y82391D01*
X349251Y79415D01*
X349251Y75205D01*
X346275Y72229D01*
X342065Y72229D01*
G37*
%LPD*%
%LPC*%
G36*
X23295Y160019D02*
X23295Y160019D01*
X20319Y162995D01*
X20319Y167205D01*
X23295Y170181D01*
X27505Y170181D01*
X30481Y167205D01*
X30481Y162995D01*
X27505Y160019D01*
X23295Y160019D01*
G37*
%LPD*%
%LPC*%
G36*
X76127Y295401D02*
X76127Y295401D01*
X73151Y298377D01*
X73151Y302587D01*
X76127Y305563D01*
X80337Y305563D01*
X83313Y302587D01*
X83313Y298377D01*
X80337Y295401D01*
X76127Y295401D01*
G37*
%LPD*%
%LPC*%
G36*
X118545Y261619D02*
X118545Y261619D01*
X115569Y264595D01*
X115569Y268805D01*
X118545Y271781D01*
X122755Y271781D01*
X125731Y268805D01*
X125731Y264595D01*
X122755Y261619D01*
X118545Y261619D01*
G37*
%LPD*%
%LPC*%
G36*
X223017Y42591D02*
X223017Y42591D01*
X220071Y45537D01*
X220071Y49703D01*
X223017Y52649D01*
X227183Y52649D01*
X230129Y49703D01*
X230129Y45537D01*
X227183Y42591D01*
X223017Y42591D01*
G37*
%LPD*%
%LPC*%
G36*
X395117Y42591D02*
X395117Y42591D01*
X392171Y45537D01*
X392171Y49703D01*
X395117Y52649D01*
X399283Y52649D01*
X402229Y49703D01*
X402229Y45537D01*
X399283Y42591D01*
X395117Y42591D01*
G37*
%LPD*%
%LPC*%
G36*
X337317Y42591D02*
X337317Y42591D01*
X334371Y45537D01*
X334371Y49703D01*
X337317Y52649D01*
X341483Y52649D01*
X344429Y49703D01*
X344429Y45537D01*
X341483Y42591D01*
X337317Y42591D01*
G37*
%LPD*%
%LPC*%
G36*
X280817Y42591D02*
X280817Y42591D01*
X277871Y45537D01*
X277871Y49703D01*
X280817Y52649D01*
X284983Y52649D01*
X287929Y49703D01*
X287929Y45537D01*
X284983Y42591D01*
X280817Y42591D01*
G37*
%LPD*%
%LPC*%
G36*
X540523Y957123D02*
X540523Y957123D01*
X540523Y965646D01*
X541379Y965511D01*
X542900Y965016D01*
X544325Y964290D01*
X545619Y963350D01*
X546750Y962219D01*
X547690Y960925D01*
X548416Y959500D01*
X548911Y957979D01*
X549046Y957123D01*
X540523Y957123D01*
G37*
%LPD*%
%LPC*%
G36*
X65023Y74073D02*
X65023Y74073D01*
X65023Y82596D01*
X65879Y82461D01*
X67400Y81966D01*
X68825Y81240D01*
X70119Y80300D01*
X71250Y79169D01*
X72190Y77875D01*
X72916Y76450D01*
X73411Y74929D01*
X73546Y74073D01*
X65023Y74073D01*
G37*
%LPD*%
%LPC*%
G36*
X446023Y242823D02*
X446023Y242823D01*
X446023Y251346D01*
X446879Y251211D01*
X448400Y250716D01*
X449825Y249990D01*
X451119Y249050D01*
X452250Y247919D01*
X453190Y246625D01*
X453916Y245200D01*
X454411Y243679D01*
X454546Y242823D01*
X446023Y242823D01*
G37*
%LPD*%
%LPC*%
G36*
X522223Y176623D02*
X522223Y176623D01*
X522223Y185146D01*
X523079Y185011D01*
X524600Y184516D01*
X526025Y183790D01*
X527319Y182850D01*
X528450Y181719D01*
X529390Y180425D01*
X530116Y179000D01*
X530611Y177479D01*
X530746Y176623D01*
X522223Y176623D01*
G37*
%LPD*%
%LPC*%
G36*
X540523Y954077D02*
X540523Y954077D01*
X549046Y954077D01*
X548911Y953221D01*
X548416Y951700D01*
X547690Y950275D01*
X546750Y948981D01*
X545619Y947850D01*
X544325Y946910D01*
X542900Y946184D01*
X541379Y945689D01*
X540523Y945554D01*
X540523Y954077D01*
G37*
%LPD*%
%LPC*%
G36*
X65023Y71027D02*
X65023Y71027D01*
X73546Y71027D01*
X73411Y70171D01*
X72916Y68650D01*
X72190Y67225D01*
X71250Y65931D01*
X70119Y64800D01*
X68825Y63860D01*
X67400Y63134D01*
X65879Y62639D01*
X65023Y62504D01*
X65023Y71027D01*
G37*
%LPD*%
%LPC*%
G36*
X528954Y957123D02*
X528954Y957123D01*
X529089Y957979D01*
X529584Y959500D01*
X530310Y960925D01*
X531250Y962219D01*
X532381Y963350D01*
X533675Y964290D01*
X535100Y965016D01*
X536621Y965511D01*
X537477Y965646D01*
X537477Y957123D01*
X528954Y957123D01*
G37*
%LPD*%
%LPC*%
G36*
X446023Y239777D02*
X446023Y239777D01*
X454546Y239777D01*
X454411Y238921D01*
X453916Y237400D01*
X453190Y235975D01*
X452250Y234681D01*
X451119Y233550D01*
X449825Y232610D01*
X448400Y231884D01*
X446879Y231389D01*
X446023Y231254D01*
X446023Y239777D01*
G37*
%LPD*%
%LPC*%
G36*
X522223Y173577D02*
X522223Y173577D01*
X530746Y173577D01*
X530611Y172721D01*
X530116Y171200D01*
X529390Y169775D01*
X528450Y168481D01*
X527319Y167350D01*
X526025Y166410D01*
X524600Y165684D01*
X523079Y165189D01*
X522223Y165054D01*
X522223Y173577D01*
G37*
%LPD*%
%LPC*%
G36*
X510654Y176623D02*
X510654Y176623D01*
X510789Y177479D01*
X511284Y179000D01*
X512010Y180425D01*
X512950Y181719D01*
X514081Y182850D01*
X515375Y183790D01*
X516800Y184516D01*
X518321Y185011D01*
X519177Y185146D01*
X519177Y176623D01*
X510654Y176623D01*
G37*
%LPD*%
%LPC*%
G36*
X434454Y242823D02*
X434454Y242823D01*
X434589Y243679D01*
X435084Y245200D01*
X435810Y246625D01*
X436750Y247919D01*
X437881Y249050D01*
X439175Y249990D01*
X440600Y250716D01*
X442121Y251211D01*
X442977Y251346D01*
X442977Y242823D01*
X434454Y242823D01*
G37*
%LPD*%
%LPC*%
G36*
X53454Y74073D02*
X53454Y74073D01*
X53589Y74929D01*
X54084Y76450D01*
X54810Y77875D01*
X55750Y79169D01*
X56881Y80300D01*
X58175Y81240D01*
X59600Y81966D01*
X61121Y82461D01*
X61977Y82596D01*
X61977Y74073D01*
X53454Y74073D01*
G37*
%LPD*%
%LPC*%
G36*
X536621Y945689D02*
X536621Y945689D01*
X535100Y946184D01*
X533675Y946910D01*
X532381Y947850D01*
X531250Y948981D01*
X530310Y950275D01*
X529584Y951700D01*
X529089Y953221D01*
X528954Y954077D01*
X537477Y954077D01*
X537477Y945554D01*
X536621Y945689D01*
G37*
%LPD*%
%LPC*%
G36*
X61121Y62639D02*
X61121Y62639D01*
X59600Y63134D01*
X58175Y63860D01*
X56881Y64800D01*
X55750Y65931D01*
X54810Y67225D01*
X54084Y68650D01*
X53589Y70171D01*
X53454Y71027D01*
X61977Y71027D01*
X61977Y62504D01*
X61121Y62639D01*
G37*
%LPD*%
%LPC*%
G36*
X518321Y165189D02*
X518321Y165189D01*
X516800Y165684D01*
X515375Y166410D01*
X514081Y167350D01*
X512950Y168481D01*
X512010Y169775D01*
X511284Y171200D01*
X510789Y172721D01*
X510654Y173577D01*
X519177Y173577D01*
X519177Y165054D01*
X518321Y165189D01*
G37*
%LPD*%
%LPC*%
G36*
X442121Y231389D02*
X442121Y231389D01*
X440600Y231884D01*
X439175Y232610D01*
X437881Y233550D01*
X436750Y234681D01*
X435810Y235975D01*
X435084Y237400D01*
X434589Y238921D01*
X434454Y239777D01*
X442977Y239777D01*
X442977Y231254D01*
X442121Y231389D01*
G37*
%LPD*%
G36*
X424879Y352310D02*
X424879Y352310D01*
X424951Y352312D01*
X425000Y352330D01*
X425051Y352338D01*
X425114Y352372D01*
X425182Y352397D01*
X425222Y352429D01*
X425268Y352454D01*
X425318Y352505D01*
X425374Y352550D01*
X425402Y352594D01*
X425438Y352632D01*
X425468Y352697D01*
X425507Y352757D01*
X425519Y352808D01*
X425541Y352855D01*
X425549Y352926D01*
X425567Y352996D01*
X425563Y353048D01*
X425568Y353099D01*
X425553Y353170D01*
X425548Y353241D01*
X425527Y353289D01*
X425516Y353340D01*
X425479Y353401D01*
X425451Y353467D01*
X425407Y353523D01*
X425390Y353551D01*
X425372Y353566D01*
X425346Y353598D01*
X424965Y353979D01*
X424891Y354033D01*
X424822Y354092D01*
X424792Y354104D01*
X424766Y354123D01*
X424679Y354150D01*
X424594Y354184D01*
X424553Y354188D01*
X424531Y354195D01*
X424498Y354194D01*
X424427Y354202D01*
X398168Y354202D01*
X398098Y354191D01*
X398026Y354189D01*
X397977Y354171D01*
X397926Y354163D01*
X397862Y354129D01*
X397795Y354104D01*
X397754Y354072D01*
X397708Y354047D01*
X397659Y353996D01*
X397603Y353951D01*
X397575Y353907D01*
X397539Y353869D01*
X397509Y353804D01*
X397470Y353744D01*
X397457Y353693D01*
X397435Y353646D01*
X397427Y353575D01*
X397410Y353505D01*
X397414Y353453D01*
X397408Y353402D01*
X397423Y353331D01*
X397429Y353260D01*
X397449Y353212D01*
X397460Y353161D01*
X397497Y353100D01*
X397525Y353034D01*
X397570Y352978D01*
X397586Y352950D01*
X397604Y352935D01*
X397630Y352903D01*
X398011Y352522D01*
X398085Y352468D01*
X398154Y352409D01*
X398185Y352397D01*
X398211Y352378D01*
X398298Y352351D01*
X398383Y352317D01*
X398424Y352313D01*
X398446Y352306D01*
X398478Y352307D01*
X398549Y352299D01*
X424808Y352299D01*
X424879Y352310D01*
G37*
%LPC*%
G36*
X211819Y53919D02*
X211819Y53919D01*
X211819Y59164D01*
X212663Y58996D01*
X213813Y58520D01*
X214848Y57828D01*
X215728Y56948D01*
X216420Y55913D01*
X216896Y54763D01*
X217064Y53919D01*
X211819Y53919D01*
G37*
%LPD*%
%LPC*%
G36*
X298179Y53919D02*
X298179Y53919D01*
X298179Y59164D01*
X299023Y58996D01*
X300173Y58520D01*
X301208Y57828D01*
X302088Y56948D01*
X302780Y55913D01*
X303256Y54763D01*
X303424Y53919D01*
X298179Y53919D01*
G37*
%LPD*%
%LPC*%
G36*
X326119Y53919D02*
X326119Y53919D01*
X326119Y59164D01*
X326963Y58996D01*
X328113Y58520D01*
X329148Y57828D01*
X330028Y56948D01*
X330720Y55913D01*
X331196Y54763D01*
X331364Y53919D01*
X326119Y53919D01*
G37*
%LPD*%
%LPC*%
G36*
X412479Y53919D02*
X412479Y53919D01*
X412479Y59164D01*
X413323Y58996D01*
X414473Y58520D01*
X415508Y57828D01*
X416388Y56948D01*
X417080Y55913D01*
X417556Y54763D01*
X417724Y53919D01*
X412479Y53919D01*
G37*
%LPD*%
%LPC*%
G36*
X298179Y12119D02*
X298179Y12119D01*
X298179Y17364D01*
X299023Y17196D01*
X300173Y16720D01*
X301208Y16028D01*
X302088Y15148D01*
X302780Y14113D01*
X303256Y12963D01*
X303424Y12119D01*
X298179Y12119D01*
G37*
%LPD*%
%LPC*%
G36*
X326119Y12119D02*
X326119Y12119D01*
X326119Y17364D01*
X326963Y17196D01*
X328113Y16720D01*
X329148Y16028D01*
X330028Y15148D01*
X330720Y14113D01*
X331196Y12963D01*
X331364Y12119D01*
X326119Y12119D01*
G37*
%LPD*%
%LPC*%
G36*
X211819Y12119D02*
X211819Y12119D01*
X211819Y17364D01*
X212663Y17196D01*
X213813Y16720D01*
X214848Y16028D01*
X215728Y15148D01*
X216420Y14113D01*
X216896Y12963D01*
X217064Y12119D01*
X211819Y12119D01*
G37*
%LPD*%
%LPC*%
G36*
X412479Y12119D02*
X412479Y12119D01*
X412479Y17364D01*
X413323Y17196D01*
X414473Y16720D01*
X415508Y16028D01*
X416388Y15148D01*
X417080Y14113D01*
X417556Y12963D01*
X417724Y12119D01*
X412479Y12119D01*
G37*
%LPD*%
%LPC*%
G36*
X204576Y53919D02*
X204576Y53919D01*
X204744Y54763D01*
X205220Y55913D01*
X205912Y56948D01*
X206792Y57828D01*
X207827Y58520D01*
X208977Y58996D01*
X209821Y59164D01*
X209821Y53919D01*
X204576Y53919D01*
G37*
%LPD*%
%LPC*%
G36*
X290936Y53919D02*
X290936Y53919D01*
X291104Y54763D01*
X291580Y55913D01*
X292272Y56948D01*
X293152Y57828D01*
X294187Y58520D01*
X295337Y58996D01*
X296181Y59164D01*
X296181Y53919D01*
X290936Y53919D01*
G37*
%LPD*%
%LPC*%
G36*
X318876Y53919D02*
X318876Y53919D01*
X319044Y54763D01*
X319520Y55913D01*
X320212Y56948D01*
X321092Y57828D01*
X322127Y58520D01*
X323277Y58996D01*
X324121Y59164D01*
X324121Y53919D01*
X318876Y53919D01*
G37*
%LPD*%
%LPC*%
G36*
X405236Y53919D02*
X405236Y53919D01*
X405404Y54763D01*
X405880Y55913D01*
X406572Y56948D01*
X407452Y57828D01*
X408487Y58520D01*
X409637Y58996D01*
X410481Y59164D01*
X410481Y53919D01*
X405236Y53919D01*
G37*
%LPD*%
%LPC*%
G36*
X318876Y12119D02*
X318876Y12119D01*
X319044Y12963D01*
X319520Y14113D01*
X320212Y15148D01*
X321092Y16028D01*
X322127Y16720D01*
X323277Y17196D01*
X324121Y17364D01*
X324121Y12119D01*
X318876Y12119D01*
G37*
%LPD*%
%LPC*%
G36*
X326119Y51921D02*
X326119Y51921D01*
X331364Y51921D01*
X331196Y51077D01*
X330720Y49927D01*
X330028Y48892D01*
X329148Y48012D01*
X328113Y47320D01*
X326963Y46844D01*
X326119Y46676D01*
X326119Y51921D01*
G37*
%LPD*%
%LPC*%
G36*
X298179Y51921D02*
X298179Y51921D01*
X303424Y51921D01*
X303256Y51077D01*
X302780Y49927D01*
X302088Y48892D01*
X301208Y48012D01*
X300173Y47320D01*
X299023Y46844D01*
X298179Y46676D01*
X298179Y51921D01*
G37*
%LPD*%
%LPC*%
G36*
X412479Y51921D02*
X412479Y51921D01*
X417724Y51921D01*
X417556Y51077D01*
X417080Y49927D01*
X416388Y48892D01*
X415508Y48012D01*
X414473Y47320D01*
X413323Y46844D01*
X412479Y46676D01*
X412479Y51921D01*
G37*
%LPD*%
%LPC*%
G36*
X211819Y51921D02*
X211819Y51921D01*
X217064Y51921D01*
X216896Y51077D01*
X216420Y49927D01*
X215728Y48892D01*
X214848Y48012D01*
X213813Y47320D01*
X212663Y46844D01*
X211819Y46676D01*
X211819Y51921D01*
G37*
%LPD*%
%LPC*%
G36*
X405236Y12119D02*
X405236Y12119D01*
X405404Y12963D01*
X405880Y14113D01*
X406572Y15148D01*
X407452Y16028D01*
X408487Y16720D01*
X409637Y17196D01*
X410481Y17364D01*
X410481Y12119D01*
X405236Y12119D01*
G37*
%LPD*%
%LPC*%
G36*
X204576Y12119D02*
X204576Y12119D01*
X204744Y12963D01*
X205220Y14113D01*
X205912Y15148D01*
X206792Y16028D01*
X207827Y16720D01*
X208977Y17196D01*
X209821Y17364D01*
X209821Y12119D01*
X204576Y12119D01*
G37*
%LPD*%
%LPC*%
G36*
X290936Y12119D02*
X290936Y12119D01*
X291104Y12963D01*
X291580Y14113D01*
X292272Y15148D01*
X293152Y16028D01*
X294187Y16720D01*
X295337Y17196D01*
X296181Y17364D01*
X296181Y12119D01*
X290936Y12119D01*
G37*
%LPD*%
%LPC*%
G36*
X208977Y46844D02*
X208977Y46844D01*
X207827Y47320D01*
X206792Y48012D01*
X205912Y48892D01*
X205220Y49927D01*
X204744Y51077D01*
X204576Y51921D01*
X209821Y51921D01*
X209821Y46676D01*
X208977Y46844D01*
G37*
%LPD*%
%LPC*%
G36*
X295337Y46844D02*
X295337Y46844D01*
X294187Y47320D01*
X293152Y48012D01*
X292272Y48892D01*
X291580Y49927D01*
X291104Y51077D01*
X290936Y51921D01*
X296181Y51921D01*
X296181Y46676D01*
X295337Y46844D01*
G37*
%LPD*%
%LPC*%
G36*
X323277Y46844D02*
X323277Y46844D01*
X322127Y47320D01*
X321092Y48012D01*
X320212Y48892D01*
X319520Y49927D01*
X319044Y51077D01*
X318876Y51921D01*
X324121Y51921D01*
X324121Y46676D01*
X323277Y46844D01*
G37*
%LPD*%
%LPC*%
G36*
X409637Y46844D02*
X409637Y46844D01*
X408487Y47320D01*
X407452Y48012D01*
X406572Y48892D01*
X405880Y49927D01*
X405404Y51077D01*
X405236Y51921D01*
X410481Y51921D01*
X410481Y46676D01*
X409637Y46844D01*
G37*
%LPD*%
G36*
X304737Y998232D02*
X304737Y998232D01*
X304809Y998234D01*
X304858Y998252D01*
X304909Y998260D01*
X304972Y998294D01*
X305040Y998319D01*
X305080Y998351D01*
X305126Y998376D01*
X305176Y998428D01*
X305232Y998472D01*
X305260Y998516D01*
X305296Y998554D01*
X305326Y998619D01*
X305365Y998679D01*
X305377Y998730D01*
X305399Y998777D01*
X305407Y998848D01*
X305425Y998918D01*
X305421Y998970D01*
X305426Y999021D01*
X305411Y999092D01*
X305406Y999163D01*
X305385Y999211D01*
X305374Y999262D01*
X305337Y999323D01*
X305309Y999389D01*
X305265Y999445D01*
X305248Y999473D01*
X305230Y999488D01*
X305205Y999520D01*
X303524Y1001201D01*
X303506Y1001282D01*
X303490Y1001384D01*
X303480Y1001401D01*
X303476Y1001421D01*
X303423Y1001510D01*
X303374Y1001601D01*
X303360Y1001615D01*
X303350Y1001632D01*
X303271Y1001699D01*
X303196Y1001771D01*
X303178Y1001779D01*
X303163Y1001792D01*
X303067Y1001831D01*
X302973Y1001874D01*
X302953Y1001876D01*
X302935Y1001884D01*
X302768Y1001902D01*
X301521Y1001902D01*
X301451Y1001891D01*
X301379Y1001889D01*
X301330Y1001871D01*
X301279Y1001863D01*
X301215Y1001829D01*
X301148Y1001804D01*
X301107Y1001772D01*
X301061Y1001747D01*
X301012Y1001695D01*
X300956Y1001651D01*
X300928Y1001607D01*
X300892Y1001569D01*
X300862Y1001504D01*
X300823Y1001444D01*
X300810Y1001393D01*
X300788Y1001346D01*
X300780Y1001275D01*
X300763Y1001205D01*
X300767Y1001153D01*
X300761Y1001102D01*
X300776Y1001031D01*
X300782Y1000960D01*
X300802Y1000912D01*
X300813Y1000861D01*
X300850Y1000800D01*
X300878Y1000734D01*
X300923Y1000678D01*
X300939Y1000650D01*
X300940Y1000649D01*
X300941Y1000649D01*
X300958Y1000634D01*
X300983Y1000603D01*
X302103Y999483D01*
X303142Y998444D01*
X303216Y998391D01*
X303285Y998331D01*
X303316Y998319D01*
X303342Y998300D01*
X303429Y998273D01*
X303514Y998239D01*
X303555Y998235D01*
X303577Y998228D01*
X303609Y998229D01*
X303680Y998221D01*
X304666Y998221D01*
X304737Y998232D01*
G37*
G36*
X159622Y993375D02*
X159622Y993375D01*
X159693Y993380D01*
X159741Y993401D01*
X159792Y993412D01*
X159853Y993449D01*
X159919Y993477D01*
X159975Y993521D01*
X160003Y993538D01*
X160018Y993556D01*
X160050Y993581D01*
X161103Y994634D01*
X161144Y994692D01*
X161194Y994744D01*
X161216Y994791D01*
X161246Y994833D01*
X161267Y994902D01*
X161297Y994967D01*
X161303Y995019D01*
X161318Y995069D01*
X161317Y995140D01*
X161324Y995211D01*
X161313Y995262D01*
X161312Y995314D01*
X161287Y995382D01*
X161272Y995452D01*
X161246Y995496D01*
X161228Y995545D01*
X161183Y995601D01*
X161146Y995663D01*
X161106Y995697D01*
X161074Y995737D01*
X161014Y995776D01*
X160959Y995823D01*
X160911Y995842D01*
X160867Y995870D01*
X160798Y995888D01*
X160731Y995915D01*
X160660Y995923D01*
X160628Y995931D01*
X160605Y995929D01*
X160564Y995933D01*
X158630Y995933D01*
X158559Y995922D01*
X158487Y995920D01*
X158438Y995902D01*
X158387Y995894D01*
X158324Y995860D01*
X158256Y995835D01*
X158216Y995803D01*
X158170Y995778D01*
X158120Y995726D01*
X158064Y995682D01*
X158036Y995638D01*
X158000Y995600D01*
X157970Y995535D01*
X157931Y995475D01*
X157919Y995424D01*
X157897Y995377D01*
X157889Y995306D01*
X157871Y995236D01*
X157875Y995184D01*
X157870Y995133D01*
X157885Y995062D01*
X157890Y994991D01*
X157911Y994943D01*
X157922Y994892D01*
X157959Y994831D01*
X157987Y994765D01*
X158031Y994709D01*
X158048Y994681D01*
X158066Y994666D01*
X158091Y994634D01*
X158774Y993952D01*
X158782Y993928D01*
X158790Y993877D01*
X158824Y993814D01*
X158849Y993746D01*
X158881Y993706D01*
X158906Y993660D01*
X158957Y993610D01*
X159002Y993554D01*
X159046Y993526D01*
X159084Y993490D01*
X159149Y993460D01*
X159209Y993421D01*
X159260Y993409D01*
X159307Y993387D01*
X159378Y993379D01*
X159448Y993361D01*
X159500Y993365D01*
X159551Y993360D01*
X159622Y993375D01*
G37*
%LPC*%
G36*
X538999Y955599D02*
X538999Y955599D01*
X538999Y955601D01*
X539001Y955601D01*
X539001Y955599D01*
X538999Y955599D01*
G37*
%LPD*%
%LPC*%
G36*
X520699Y175099D02*
X520699Y175099D01*
X520699Y175101D01*
X520701Y175101D01*
X520701Y175099D01*
X520699Y175099D01*
G37*
%LPD*%
%LPC*%
G36*
X444499Y241299D02*
X444499Y241299D01*
X444499Y241301D01*
X444501Y241301D01*
X444501Y241299D01*
X444499Y241299D01*
G37*
%LPD*%
%LPC*%
G36*
X63499Y72549D02*
X63499Y72549D01*
X63499Y72551D01*
X63501Y72551D01*
X63501Y72549D01*
X63499Y72549D01*
G37*
%LPD*%
D10*
X210820Y11120D03*
X297180Y11120D03*
X297180Y52920D03*
X210820Y52920D03*
D11*
X114300Y1028700D03*
X114300Y1003300D03*
D10*
X325120Y11120D03*
X411480Y11120D03*
X411480Y52920D03*
X325120Y52920D03*
D11*
X63500Y72550D03*
X38100Y72550D03*
X12700Y72550D03*
X-12700Y72550D03*
X520700Y175100D03*
X495300Y175100D03*
X469900Y175100D03*
X444500Y175100D03*
X101600Y203200D03*
X101600Y228600D03*
X101600Y254000D03*
X101600Y279400D03*
X444500Y241300D03*
X444500Y266700D03*
X444500Y292100D03*
X444500Y317500D03*
X-63500Y342900D03*
X-63500Y317500D03*
X298450Y79850D03*
X323850Y79850D03*
X63500Y1087120D03*
X88900Y1087120D03*
X539000Y981000D03*
X539000Y955600D03*
D12*
X457200Y406400D03*
X292100Y406400D03*
X101600Y767080D03*
D13*
X288290Y767080D02*
X289560Y765810D01*
X288290Y767080D02*
X101600Y767080D01*
X289560Y765810D02*
X431800Y765810D01*
X434340Y768350D01*
D12*
X434340Y768350D03*
X289560Y765810D03*
X463550Y31590D03*
X292100Y389890D03*
X264160Y420370D03*
X335280Y68740D03*
X481330Y30640D03*
X44450Y30640D03*
X215900Y144780D03*
X245110Y123030D03*
X281940Y87790D03*
X219710Y71280D03*
X21590Y943610D03*
X20320Y847090D03*
X123190Y952500D03*
X118110Y933450D03*
X191770Y287020D03*
X213360Y287020D03*
X234950Y287020D03*
X255270Y287020D03*
X276860Y287020D03*
X297180Y287020D03*
X318770Y287020D03*
X339090Y287020D03*
X170180Y287020D03*
X190500Y307340D03*
X212090Y307340D03*
X233680Y307340D03*
X254000Y307340D03*
X275590Y307340D03*
X295910Y307340D03*
X317500Y307340D03*
X337820Y307340D03*
X168910Y307340D03*
X190500Y327660D03*
X212090Y327660D03*
X233680Y327660D03*
X254000Y327660D03*
X275590Y327660D03*
X295910Y327660D03*
X317500Y327660D03*
X337820Y327660D03*
X168910Y327660D03*
X191770Y226060D03*
X213360Y226060D03*
X234950Y226060D03*
X255270Y226060D03*
X276860Y226060D03*
X297180Y226060D03*
X318770Y226060D03*
X339090Y226060D03*
X170180Y226060D03*
X190500Y246380D03*
X212090Y246380D03*
X233680Y246380D03*
X254000Y246380D03*
X275590Y246380D03*
X295910Y246380D03*
X317500Y246380D03*
X337820Y246380D03*
X168910Y246380D03*
X190500Y266700D03*
X212090Y266700D03*
X233680Y266700D03*
X254000Y266700D03*
X275590Y266700D03*
X295910Y266700D03*
X317500Y266700D03*
X337820Y266700D03*
X168910Y266700D03*
X190500Y205740D03*
X212090Y205740D03*
X233680Y205740D03*
X254000Y205740D03*
X275590Y205740D03*
X295910Y205740D03*
X317500Y205740D03*
X337820Y205740D03*
X168910Y205740D03*
X165720Y174260D03*
X293370Y175260D03*
X262890Y175260D03*
X283210Y175260D03*
X304800Y175260D03*
X325120Y175260D03*
X152210Y174260D03*
X140970Y356870D03*
X162560Y356870D03*
X182880Y356870D03*
X226060Y358140D03*
X281940Y358140D03*
X302260Y358140D03*
X321310Y358140D03*
X342900Y359410D03*
X363220Y359410D03*
X370840Y340360D03*
X370840Y267970D03*
X370840Y238760D03*
X370840Y224790D03*
X370840Y209550D03*
X372110Y186690D03*
X370840Y351790D03*
X337820Y193040D03*
X361950Y172720D03*
X345440Y172720D03*
X176420Y174260D03*
X186150Y159830D03*
X178530Y152940D03*
X170910Y145320D03*
X160020Y137160D03*
X149860Y149540D03*
X142240Y140650D03*
X152400Y120220D03*
X129540Y81440D03*
X119380Y86200D03*
X165100Y87470D03*
X105410Y84930D03*
X87630Y78900D03*
X151130Y78900D03*
X85090Y64930D03*
X85090Y50960D03*
X85090Y36990D03*
X85090Y9050D03*
X85090Y23020D03*
X162560Y126840D03*
X171450Y132000D03*
X138430Y173990D03*
X138430Y194310D03*
X153670Y189230D03*
X139700Y266700D03*
X139700Y278130D03*
X132080Y131760D03*
X183340Y134620D03*
X189230Y144780D03*
X198120Y153670D03*
X179610Y120220D03*
X180340Y78900D03*
X194310Y77630D03*
X193040Y64930D03*
X193040Y49690D03*
X193040Y38260D03*
X193040Y23020D03*
X193040Y9050D03*
X204470Y179070D03*
X168910Y189230D03*
X167640Y344170D03*
X154940Y344170D03*
X339090Y344170D03*
X354330Y345440D03*
X355600Y189230D03*
X-54610Y436880D03*
X247650Y518160D03*
X130810Y97630D03*
X151130Y97630D03*
X481330Y969010D03*
X345440Y538480D03*
X232410Y539750D03*
X228600Y615950D03*
X346710Y615950D03*
X215900Y952500D03*
X215900Y965200D03*
X292100Y965200D03*
X292100Y952500D03*
X279400Y901700D03*
X266700Y901700D03*
X254000Y901700D03*
X241300Y901700D03*
X228600Y901700D03*
X215900Y901700D03*
X215900Y977900D03*
X228600Y977900D03*
X241300Y977900D03*
X254000Y977900D03*
X266700Y977900D03*
X279400Y977900D03*
X292100Y977900D03*
X292100Y901700D03*
X241300Y965200D03*
X241300Y952500D03*
X254000Y952500D03*
X254000Y965200D03*
X266700Y965200D03*
X266700Y952500D03*
X497840Y30640D03*
X401320Y71280D03*
X153670Y1016000D03*
X353060Y1016000D03*
X309880Y1016000D03*
X187960Y1016000D03*
X311150Y852170D03*
X311150Y821690D03*
X279400Y457200D03*
X99060Y349250D03*
X354330Y128110D03*
X313922Y398526D03*
X81661Y279400D03*
D14*
X313033Y399415D02*
X313922Y398526D01*
X313033Y399415D02*
X166370Y399415D01*
D12*
X91440Y397510D03*
D14*
X93345Y399415D02*
X166370Y399415D01*
X93345Y399415D02*
X91440Y397510D01*
D12*
X153670Y991870D03*
X166370Y388620D03*
D14*
X166370Y399415D01*
D12*
X113030Y1074420D03*
X78232Y300482D03*
X75988Y407882D03*
X310134Y414274D03*
X361950Y120490D03*
D14*
X182880Y407670D02*
X76200Y407670D01*
X75988Y407882D01*
X308229Y412369D02*
X310134Y414274D01*
X197045Y407670D02*
X182880Y407670D01*
X197045Y407670D02*
X201744Y412369D01*
X308229Y412369D01*
D12*
X154940Y952500D03*
X182880Y408940D03*
D14*
X182880Y407670D01*
D12*
X129540Y1068451D03*
X237490Y356362D03*
X237490Y420370D03*
X116840Y389890D03*
X190500Y420370D03*
X346456Y552450D03*
X506730Y387350D03*
D13*
X499110Y395224D02*
X403860Y395224D01*
D12*
X403860Y395224D03*
D13*
X499110Y394970D02*
X506730Y387350D01*
X499110Y394970D02*
X499110Y395224D01*
D14*
X352400Y412090D02*
X347345Y417144D01*
X352400Y412090D02*
X442621Y412090D01*
X444500Y410210D01*
D12*
X444500Y410210D03*
X347345Y463525D03*
D14*
X347345Y417144D01*
D12*
X254000Y152400D03*
X243459Y388620D03*
D14*
X213428Y395859D02*
X212539Y394970D01*
X194310Y394970D01*
X236220Y395859D02*
X243459Y388620D01*
X236220Y395859D02*
X213428Y395859D01*
X194310Y394970D02*
X190500Y391160D01*
X190500Y389890D01*
D12*
X190500Y389890D03*
X228600Y152400D03*
X215900Y389890D03*
X25400Y165100D03*
X0Y381000D03*
D14*
X386721Y381000D01*
X388626Y379095D01*
D12*
X416179Y379095D03*
D14*
X388626Y379095D01*
D12*
X88900Y165100D03*
X109220Y370840D03*
X429260Y356870D03*
D14*
X395713Y356870D01*
X381743Y370840D01*
X109220Y370840D01*
D12*
X427101Y314131D03*
X395478Y398526D03*
X310896Y422826D03*
D14*
X394753Y398526D02*
X395478Y398526D01*
X394753Y398526D02*
X388784Y404495D01*
X329227Y404495D02*
X310896Y422826D01*
X329227Y404495D02*
X388784Y404495D01*
D12*
X34290Y1016000D03*
X304673Y993140D03*
D14*
X299212Y998601D01*
X151198Y998601D01*
X133799Y1016000D02*
X34290Y1016000D01*
X133799Y1016000D02*
X151198Y998601D01*
D12*
X262479Y500791D03*
X261620Y877570D03*
X148814Y880334D03*
D13*
X239736Y877570D02*
X261620Y877570D01*
X160615Y879221D02*
X158202Y881634D01*
X148814Y881634D02*
X148814Y880334D01*
X148814Y881634D02*
X158202Y881634D01*
X238085Y879221D02*
X239736Y877570D01*
X238085Y879221D02*
X160615Y879221D01*
D12*
X482600Y355600D03*
D14*
X88900Y365379D02*
X66040Y342519D01*
X66040Y279400D01*
D12*
X66040Y279400D03*
D14*
X381000Y365760D02*
X397129Y349631D01*
X381000Y365760D02*
X115122Y365760D01*
X114233Y364871D01*
X106748Y364871D01*
X106240Y365379D01*
X88900Y365379D01*
X476631Y349631D02*
X482600Y355600D01*
X476631Y349631D02*
X397129Y349631D01*
D12*
X473710Y374650D03*
D14*
X473710Y373575D01*
X469833Y369697D01*
X389185Y369697D02*
X381692Y377190D01*
D12*
X-5588Y292100D03*
D14*
X-5588Y366522D01*
X5080Y377190D02*
X381692Y377190D01*
X5080Y377190D02*
X-5588Y366522D01*
X389185Y369697D02*
X469833Y369697D01*
D12*
X44831Y346710D03*
X44450Y215900D03*
X10160Y266700D03*
X10160Y358140D03*
X58420Y882650D03*
X151130Y852170D03*
D14*
X88519Y852551D02*
X58420Y882650D01*
X88519Y852551D02*
X150749Y852551D01*
X151130Y852170D01*
D12*
X36407Y926253D03*
X393700Y961390D03*
D14*
X157413Y938191D02*
X152468Y938191D01*
X157413Y938191D02*
X161096Y934508D01*
X140530Y926253D02*
X36407Y926253D01*
X140530Y926253D02*
X152468Y938191D01*
X161096Y934508D02*
X354118Y934508D01*
X381000Y961390D01*
X393700Y961390D01*
D12*
X322580Y889000D03*
D14*
X228600Y889000D01*
D12*
X228600Y889000D03*
X120650Y279400D03*
X353060Y657860D03*
X228600Y628650D03*
X25400Y190500D03*
X31750Y386969D03*
X210820Y419100D03*
X154940Y873760D03*
D14*
X213360Y873760D01*
X215900Y871220D01*
D12*
X215900Y871220D03*
X313690Y902970D03*
D14*
X416560Y902970D01*
D12*
X416560Y902970D03*
X399161Y314379D03*
X322580Y870331D03*
D14*
X236601Y870331D01*
X236220Y869950D01*
D12*
X236220Y869950D03*
X120650Y266700D03*
X154940Y915670D03*
X412978Y300480D03*
D14*
X317500Y915670D02*
X318546Y916716D01*
D12*
X318546Y916716D03*
D14*
X317500Y915670D02*
X154940Y915670D01*
D12*
X154940Y902970D03*
X-35560Y392430D03*
D14*
X-13970Y414020D01*
X167640Y414020D01*
D12*
X167640Y414020D03*
X154940Y864870D03*
X161290Y427990D03*
X105410Y357759D03*
X50800Y190500D03*
X50800Y402590D03*
X203200Y405384D03*
D14*
X200787Y402971D01*
X94810Y403479D02*
X87698Y403479D01*
X94810Y403479D02*
X95318Y402971D01*
X200787Y402971D01*
D12*
X203200Y889000D03*
D14*
X198120Y894080D01*
X153670Y894080D01*
D12*
X153670Y894080D03*
D14*
X86132Y401913D02*
X51477Y401913D01*
X50800Y402590D01*
X86132Y401913D02*
X87698Y403479D01*
D12*
X196850Y501650D03*
X226314Y584200D03*
X321310Y977900D03*
D14*
X311150Y977900D01*
X294005Y995045D01*
D12*
X96520Y993140D03*
D14*
X151198Y985901D02*
X156143Y985901D01*
X118561Y993013D02*
X110039Y993013D01*
X156143Y985901D02*
X165287Y995045D01*
X151198Y985901D02*
X143070Y994029D01*
X119577Y994029D01*
X118561Y993013D01*
X110039Y993013D02*
X109912Y993140D01*
X96520Y993140D01*
D12*
X96520Y1073150D03*
D14*
X165287Y995045D02*
X294005Y995045D01*
D12*
X361950Y46830D03*
X392049Y297783D03*
X313690Y803910D03*
D14*
X114300Y803910D01*
D12*
X114300Y803910D03*
X375920Y69690D03*
X395605Y306081D03*
X316611Y795528D03*
D14*
X313182Y795528D01*
X308356Y800354D01*
X120904Y800354D02*
X113030Y792480D01*
D12*
X113030Y792480D03*
D14*
X120904Y800354D02*
X308356Y800354D01*
D12*
X344170Y77310D03*
X392430Y77310D03*
X369570Y78580D03*
X139700Y736600D03*
X139700Y988060D03*
D13*
X140970Y735330D02*
X300990Y735330D01*
X140970Y735330D02*
X139700Y736600D01*
D12*
X300990Y735330D03*
X317500Y387350D03*
X541020Y431800D03*
X241300Y157480D03*
X379730Y101186D03*
X450850Y375920D03*
D13*
X323850Y151130D02*
X323850Y79850D01*
X247944Y157480D02*
X250738Y160274D01*
X247944Y157480D02*
X241300Y157480D01*
X314706Y160274D02*
X323850Y151130D01*
X314706Y160274D02*
X250738Y160274D01*
D12*
X154940Y932222D03*
X421640Y299720D03*
X318770Y927100D03*
D14*
X160062Y927100D01*
X154940Y932222D01*
D12*
X153670Y1004570D03*
X409321Y308678D03*
D14*
X307340Y1004570D02*
X153670Y1004570D01*
X307340Y1004570D02*
X308610Y1003300D01*
D12*
X308610Y1003300D03*
D15*
X229870Y70960D03*
X279400Y70960D03*
D12*
X351790Y915670D03*
X420751Y320481D03*
X351790Y928370D03*
X420370Y330200D03*
M02*
