G04 EAGLE Gerber RS-274X export*
G75*
%MOMM*%
%FSLAX34Y34*%
%LPD*%
%INSoldermask Bottom*%
%IPPOS*%
%AMOC8*
5,1,8,0,0,1.08239X$1,22.5*%
G01*
%ADD10C,0.838200*%
%ADD11C,0.853200*%
%ADD12C,3.403600*%
%ADD13R,0.753200X1.403200*%
%ADD14R,1.203200X1.303200*%
%ADD15R,1.303200X1.203200*%
%ADD16C,2.082800*%
%ADD17R,1.033200X0.833200*%
%ADD18C,1.053200*%
%ADD19R,1.473200X0.838200*%
%ADD20R,1.703200X1.103200*%
%ADD21R,1.103200X1.703200*%
%ADD22R,6.203200X6.203200*%
%ADD23R,1.403200X0.803200*%
%ADD24R,0.863200X0.503200*%
%ADD25C,0.505344*%
%ADD26R,1.203200X0.503200*%
%ADD27R,1.203200X0.803200*%
%ADD28R,3.003200X1.203200*%

G36*
X22204Y926154D02*
X22204Y926154D01*
X22207Y926151D01*
X23329Y926306D01*
X23334Y926311D01*
X23338Y926308D01*
X24409Y926679D01*
X24413Y926685D01*
X24418Y926683D01*
X25395Y927256D01*
X25398Y927262D01*
X25403Y927261D01*
X26250Y928014D01*
X26252Y928021D01*
X26257Y928021D01*
X26941Y928924D01*
X26941Y928931D01*
X26946Y928932D01*
X27441Y929951D01*
X27439Y929958D01*
X27444Y929960D01*
X27731Y931057D01*
X27729Y931061D01*
X27731Y931062D01*
X27729Y931064D01*
X27732Y931066D01*
X27799Y932197D01*
X27797Y932201D01*
X27799Y932203D01*
X27732Y933334D01*
X27727Y933339D01*
X27731Y933343D01*
X27444Y934440D01*
X27438Y934444D01*
X27441Y934449D01*
X26946Y935468D01*
X26940Y935471D01*
X26941Y935476D01*
X26257Y936379D01*
X26250Y936381D01*
X26250Y936386D01*
X25403Y937139D01*
X25396Y937139D01*
X25395Y937144D01*
X24418Y937717D01*
X24411Y937716D01*
X24409Y937721D01*
X23338Y938092D01*
X23332Y938089D01*
X23329Y938094D01*
X22207Y938249D01*
X22202Y938246D01*
X22200Y938249D01*
X10200Y938249D01*
X10195Y938246D01*
X10192Y938249D01*
X8925Y938044D01*
X8919Y938038D01*
X8915Y938041D01*
X7725Y937559D01*
X7721Y937552D01*
X7715Y937554D01*
X6662Y936820D01*
X6660Y936812D01*
X6654Y936813D01*
X5791Y935863D01*
X5790Y935854D01*
X5785Y935854D01*
X5155Y934735D01*
X5156Y934727D01*
X5150Y934725D01*
X4785Y933495D01*
X4788Y933487D01*
X4783Y933484D01*
X4701Y932203D01*
X4704Y932199D01*
X4701Y932197D01*
X4783Y930916D01*
X4789Y930910D01*
X4785Y930905D01*
X5150Y929675D01*
X5157Y929670D01*
X5155Y929665D01*
X5785Y928546D01*
X5792Y928543D01*
X5791Y928537D01*
X6654Y927587D01*
X6662Y927586D01*
X6662Y927580D01*
X7715Y926846D01*
X7723Y926846D01*
X7725Y926841D01*
X8915Y926359D01*
X8922Y926361D01*
X8925Y926356D01*
X10192Y926151D01*
X10197Y926154D01*
X10200Y926151D01*
X22200Y926151D01*
X22204Y926154D01*
G37*
G36*
X22204Y839754D02*
X22204Y839754D01*
X22207Y839751D01*
X23329Y839906D01*
X23334Y839911D01*
X23338Y839908D01*
X24409Y840279D01*
X24413Y840285D01*
X24418Y840283D01*
X25395Y840856D01*
X25398Y840862D01*
X25403Y840861D01*
X26250Y841614D01*
X26252Y841621D01*
X26257Y841621D01*
X26941Y842524D01*
X26941Y842531D01*
X26946Y842532D01*
X27441Y843551D01*
X27439Y843558D01*
X27444Y843560D01*
X27731Y844657D01*
X27729Y844661D01*
X27731Y844662D01*
X27729Y844664D01*
X27732Y844666D01*
X27799Y845797D01*
X27797Y845801D01*
X27799Y845803D01*
X27732Y846934D01*
X27727Y846939D01*
X27731Y846943D01*
X27444Y848040D01*
X27438Y848044D01*
X27441Y848049D01*
X26946Y849068D01*
X26940Y849071D01*
X26941Y849076D01*
X26257Y849979D01*
X26250Y849981D01*
X26250Y849986D01*
X25403Y850739D01*
X25396Y850739D01*
X25395Y850744D01*
X24418Y851317D01*
X24411Y851316D01*
X24409Y851321D01*
X23338Y851692D01*
X23332Y851689D01*
X23329Y851694D01*
X22207Y851849D01*
X22202Y851846D01*
X22200Y851849D01*
X10200Y851849D01*
X10195Y851846D01*
X10192Y851849D01*
X8925Y851644D01*
X8919Y851638D01*
X8915Y851641D01*
X7725Y851159D01*
X7721Y851152D01*
X7715Y851154D01*
X6662Y850420D01*
X6660Y850412D01*
X6654Y850413D01*
X5791Y849463D01*
X5790Y849454D01*
X5785Y849454D01*
X5155Y848335D01*
X5156Y848327D01*
X5150Y848325D01*
X4785Y847095D01*
X4788Y847087D01*
X4783Y847084D01*
X4701Y845803D01*
X4704Y845799D01*
X4701Y845797D01*
X4783Y844516D01*
X4789Y844510D01*
X4785Y844505D01*
X5150Y843275D01*
X5157Y843270D01*
X5155Y843265D01*
X5785Y842146D01*
X5792Y842143D01*
X5791Y842137D01*
X6654Y841187D01*
X6662Y841186D01*
X6662Y841180D01*
X7715Y840446D01*
X7723Y840446D01*
X7725Y840441D01*
X8915Y839959D01*
X8922Y839961D01*
X8925Y839956D01*
X10192Y839751D01*
X10197Y839754D01*
X10200Y839751D01*
X22200Y839751D01*
X22204Y839754D01*
G37*
G36*
X-22597Y926153D02*
X-22597Y926153D01*
X-22595Y926151D01*
X-21253Y926297D01*
X-21248Y926302D01*
X-21247Y926302D01*
X-21243Y926299D01*
X-19967Y926739D01*
X-19963Y926746D01*
X-19957Y926744D01*
X-18812Y927457D01*
X-18809Y927465D01*
X-18803Y927464D01*
X-17845Y928414D01*
X-17844Y928422D01*
X-17838Y928423D01*
X-17116Y929562D01*
X-17117Y929570D01*
X-17111Y929572D01*
X-16660Y930843D01*
X-16663Y930851D01*
X-16658Y930854D01*
X-16501Y932194D01*
X-16505Y932201D01*
X-16501Y932205D01*
X-16622Y933380D01*
X-16627Y933385D01*
X-16624Y933389D01*
X-16971Y934518D01*
X-16977Y934522D01*
X-16975Y934527D01*
X-17536Y935567D01*
X-17543Y935570D01*
X-17541Y935575D01*
X-18294Y936484D01*
X-18301Y936486D01*
X-18301Y936491D01*
X-19217Y937237D01*
X-19225Y937237D01*
X-19225Y937242D01*
X-20269Y937794D01*
X-20277Y937793D01*
X-20278Y937798D01*
X-21410Y938136D01*
X-21417Y938134D01*
X-21419Y938138D01*
X-22595Y938249D01*
X-22598Y938247D01*
X-22600Y938249D01*
X-28600Y938249D01*
X-28603Y938247D01*
X-28605Y938249D01*
X-29770Y938129D01*
X-29776Y938124D01*
X-29780Y938127D01*
X-30899Y937783D01*
X-30903Y937777D01*
X-30908Y937779D01*
X-31939Y937223D01*
X-31942Y937216D01*
X-31947Y937217D01*
X-32849Y936470D01*
X-32851Y936463D01*
X-32856Y936463D01*
X-33595Y935555D01*
X-33595Y935548D01*
X-33600Y935547D01*
X-34148Y934511D01*
X-34147Y934504D01*
X-34152Y934503D01*
X-34487Y933380D01*
X-34485Y933374D01*
X-34489Y933371D01*
X-34599Y932205D01*
X-34595Y932198D01*
X-34599Y932195D01*
X-34455Y930865D01*
X-34449Y930859D01*
X-34452Y930854D01*
X-34016Y929589D01*
X-34009Y929584D01*
X-34011Y929579D01*
X-33304Y928443D01*
X-33296Y928440D01*
X-33297Y928435D01*
X-32355Y927484D01*
X-32347Y927483D01*
X-32346Y927478D01*
X-31216Y926761D01*
X-31208Y926762D01*
X-31206Y926756D01*
X-29945Y926309D01*
X-29938Y926311D01*
X-29935Y926306D01*
X-28606Y926151D01*
X-28602Y926153D01*
X-28600Y926151D01*
X-22600Y926151D01*
X-22597Y926153D01*
G37*
G36*
X-22597Y839753D02*
X-22597Y839753D01*
X-22595Y839751D01*
X-21253Y839897D01*
X-21248Y839902D01*
X-21247Y839902D01*
X-21243Y839899D01*
X-19967Y840339D01*
X-19963Y840346D01*
X-19957Y840344D01*
X-18812Y841057D01*
X-18809Y841065D01*
X-18803Y841064D01*
X-17845Y842014D01*
X-17844Y842022D01*
X-17838Y842023D01*
X-17116Y843162D01*
X-17117Y843170D01*
X-17111Y843172D01*
X-16660Y844443D01*
X-16663Y844451D01*
X-16658Y844454D01*
X-16501Y845794D01*
X-16505Y845801D01*
X-16501Y845805D01*
X-16622Y846980D01*
X-16627Y846985D01*
X-16624Y846989D01*
X-16971Y848118D01*
X-16977Y848122D01*
X-16975Y848127D01*
X-17536Y849167D01*
X-17543Y849170D01*
X-17541Y849175D01*
X-18294Y850084D01*
X-18301Y850086D01*
X-18301Y850091D01*
X-19217Y850837D01*
X-19225Y850837D01*
X-19225Y850842D01*
X-20269Y851394D01*
X-20277Y851393D01*
X-20278Y851398D01*
X-21410Y851736D01*
X-21417Y851734D01*
X-21419Y851738D01*
X-22595Y851849D01*
X-22598Y851847D01*
X-22600Y851849D01*
X-28600Y851849D01*
X-28603Y851847D01*
X-28605Y851849D01*
X-29770Y851729D01*
X-29776Y851724D01*
X-29780Y851727D01*
X-30899Y851383D01*
X-30903Y851377D01*
X-30908Y851379D01*
X-31939Y850823D01*
X-31942Y850816D01*
X-31947Y850817D01*
X-32849Y850070D01*
X-32851Y850063D01*
X-32856Y850063D01*
X-33595Y849155D01*
X-33595Y849148D01*
X-33600Y849147D01*
X-34148Y848111D01*
X-34147Y848104D01*
X-34152Y848103D01*
X-34487Y846980D01*
X-34485Y846974D01*
X-34489Y846971D01*
X-34599Y845805D01*
X-34595Y845798D01*
X-34599Y845795D01*
X-34455Y844465D01*
X-34449Y844459D01*
X-34452Y844454D01*
X-34016Y843189D01*
X-34009Y843184D01*
X-34011Y843179D01*
X-33304Y842043D01*
X-33296Y842040D01*
X-33297Y842035D01*
X-32355Y841084D01*
X-32347Y841083D01*
X-32346Y841078D01*
X-31216Y840361D01*
X-31208Y840362D01*
X-31206Y840356D01*
X-29945Y839909D01*
X-29938Y839911D01*
X-29935Y839906D01*
X-28606Y839751D01*
X-28602Y839753D01*
X-28600Y839751D01*
X-22600Y839751D01*
X-22597Y839753D01*
G37*
D10*
X558800Y25400D03*
X-23600Y1039600D03*
D11*
X237800Y46510D03*
X295600Y46510D03*
D12*
X-18288Y270637D03*
X-18288Y770763D03*
X551688Y770763D03*
X551688Y270637D03*
D13*
X79400Y1016301D03*
X88900Y1016301D03*
X98400Y1016301D03*
X98400Y990299D03*
X79400Y990299D03*
D14*
X63500Y1011800D03*
X63500Y994800D03*
D15*
X97400Y1041400D03*
X80400Y1041400D03*
X97400Y965200D03*
X80400Y965200D03*
D16*
X127000Y1016000D03*
X127000Y990600D03*
D17*
X152400Y966400D03*
X152400Y989400D03*
D18*
X50800Y162800D03*
X50800Y192800D03*
D19*
X88900Y300736D03*
X88900Y308864D03*
D18*
X50800Y319800D03*
X50800Y289800D03*
D14*
X398780Y969400D03*
X398780Y986400D03*
D15*
X105800Y934720D03*
X122800Y934720D03*
D14*
X368300Y986400D03*
X368300Y969400D03*
X393700Y948300D03*
X393700Y931300D03*
D20*
X349080Y1004100D03*
X349080Y991400D03*
X349080Y978700D03*
X349080Y966000D03*
X349080Y953300D03*
X349080Y940600D03*
X349080Y927900D03*
X349080Y915200D03*
X349080Y902500D03*
X349080Y889800D03*
X349080Y877100D03*
X349080Y864400D03*
X349080Y851700D03*
X349080Y839000D03*
D21*
X323850Y824100D03*
X311150Y824100D03*
X298450Y824100D03*
X285750Y824100D03*
X273050Y824100D03*
X260350Y824100D03*
X247650Y824100D03*
X234950Y824100D03*
X222250Y824100D03*
X209550Y824100D03*
D20*
X184320Y839000D03*
X184320Y851700D03*
X184320Y864400D03*
X184320Y877100D03*
X184320Y889800D03*
X184320Y902500D03*
X184320Y915200D03*
X184320Y927900D03*
X184320Y940600D03*
X184320Y953300D03*
X184320Y966000D03*
X184320Y978700D03*
X184320Y991400D03*
X184320Y1004100D03*
D22*
X266700Y927100D03*
D14*
X383540Y986400D03*
X383540Y969400D03*
D23*
X142300Y920750D03*
X142300Y908050D03*
X142300Y895350D03*
X142300Y882650D03*
X142300Y869950D03*
X142300Y857250D03*
X142300Y844550D03*
X142300Y831850D03*
X86300Y831850D03*
X86300Y844550D03*
X86300Y857250D03*
X86300Y869950D03*
X86300Y882650D03*
X86300Y895350D03*
X86300Y908050D03*
X86300Y920750D03*
D15*
X42300Y850900D03*
X59300Y850900D03*
X59300Y901700D03*
X42300Y901700D03*
D24*
X60000Y882800D03*
X41600Y876300D03*
X41600Y869800D03*
X41600Y882800D03*
X60000Y876300D03*
X60000Y869800D03*
D25*
X161610Y812360D02*
X168590Y812360D01*
X168590Y805380D01*
X161610Y805380D01*
X161610Y812360D01*
X161610Y810180D02*
X168590Y810180D01*
X168590Y794820D02*
X161610Y794820D01*
X168590Y794820D02*
X168590Y787840D01*
X161610Y787840D01*
X161610Y794820D01*
X161610Y792640D02*
X168590Y792640D01*
D14*
X165100Y770500D03*
X165100Y753500D03*
X149860Y770500D03*
X149860Y753500D03*
D25*
X146370Y812360D02*
X153350Y812360D01*
X153350Y805380D01*
X146370Y805380D01*
X146370Y812360D01*
X146370Y810180D02*
X153350Y810180D01*
X153350Y794820D02*
X146370Y794820D01*
X153350Y794820D02*
X153350Y787840D01*
X146370Y787840D01*
X146370Y794820D01*
X146370Y792640D02*
X153350Y792640D01*
D26*
X22000Y896500D03*
X22000Y891500D03*
D27*
X22000Y921250D03*
X22000Y913500D03*
D26*
X22000Y906500D03*
X22000Y901500D03*
X22000Y881500D03*
X22000Y886500D03*
D27*
X22000Y856750D03*
X22000Y864500D03*
D26*
X22000Y871500D03*
X22000Y876500D03*
D11*
X10950Y860100D03*
X10950Y917900D03*
D15*
X-21200Y952500D03*
X-4200Y952500D03*
X-21200Y825500D03*
X-4200Y825500D03*
D28*
X50800Y815100D03*
X50800Y785100D03*
D19*
X12700Y804164D03*
X12700Y796036D03*
D15*
X105800Y949960D03*
X122800Y949960D03*
D16*
X76200Y69850D03*
X50800Y69850D03*
X25400Y69850D03*
X0Y69850D03*
X533400Y69850D03*
X508000Y69850D03*
X482600Y69850D03*
X457200Y69850D03*
X114300Y190500D03*
X114300Y215900D03*
X114300Y241300D03*
X114300Y266700D03*
X457200Y228600D03*
X457200Y254000D03*
X457200Y279400D03*
X457200Y304800D03*
X393700Y825500D03*
X393700Y850900D03*
X393700Y876300D03*
X393700Y901700D03*
X-50800Y330200D03*
X-50800Y304800D03*
M02*
