G04 EAGLE Gerber RS-274X export*
G75*
%MOMM*%
%FSLAX34Y34*%
%LPD*%
%INSoldermask Bottom*%
%IPPOS*%
%AMOC8*
5,1,8,0,0,1.08239X$1,22.5*%
G01*
%ADD10R,1.403200X2.203200*%
%ADD11R,0.803200X1.553200*%
%ADD12C,0.838200*%
%ADD13C,0.853200*%
%ADD14C,3.403600*%
%ADD15R,0.753200X1.403200*%
%ADD16R,1.203200X1.303200*%
%ADD17R,1.303200X1.203200*%
%ADD18C,2.082800*%
%ADD19R,1.033200X0.833200*%
%ADD20C,1.053200*%
%ADD21R,1.473200X0.838200*%
%ADD22R,1.703200X1.103200*%
%ADD23R,1.103200X1.703200*%
%ADD24R,6.203200X6.203200*%
%ADD25R,1.403200X0.803200*%
%ADD26R,0.863200X0.503200*%
%ADD27R,2.003200X1.603200*%
%ADD28R,1.603200X2.103200*%
%ADD29R,1.003200X1.703200*%
%ADD30R,0.440000X0.840000*%
%ADD31R,1.520000X0.940000*%


D10*
X282000Y1350D03*
X226000Y1350D03*
D11*
X269000Y38100D03*
X259000Y38100D03*
X249000Y38100D03*
X239000Y38100D03*
D12*
X546100Y43500D03*
X-36300Y1052300D03*
D13*
X225100Y37620D03*
X282900Y37620D03*
D14*
X-30988Y283337D03*
X-30988Y783463D03*
X538988Y783463D03*
X538988Y283337D03*
D15*
X66700Y1029001D03*
X76200Y1029001D03*
X85700Y1029001D03*
X85700Y1002999D03*
X66700Y1002999D03*
D16*
X50800Y1024500D03*
X50800Y1007500D03*
D17*
X84700Y1054100D03*
X67700Y1054100D03*
X84700Y980440D03*
X67700Y980440D03*
D18*
X114300Y1028700D03*
X114300Y1003300D03*
D19*
X139700Y979100D03*
X139700Y1002100D03*
D20*
X38100Y175500D03*
X38100Y205500D03*
D21*
X-12700Y321564D03*
X-12700Y313436D03*
D20*
X38100Y302500D03*
X38100Y332500D03*
D16*
X365760Y961000D03*
X365760Y944000D03*
D17*
X93100Y949960D03*
X110100Y949960D03*
D16*
X355600Y999100D03*
X355600Y982100D03*
X381000Y961000D03*
X381000Y944000D03*
D22*
X336380Y1016800D03*
X336380Y1004100D03*
X336380Y991400D03*
X336380Y978700D03*
X336380Y966000D03*
X336380Y953300D03*
X336380Y940600D03*
X336380Y927900D03*
X336380Y915200D03*
X336380Y902500D03*
X336380Y889800D03*
X336380Y877100D03*
X336380Y864400D03*
X336380Y851700D03*
D23*
X311150Y836800D03*
X298450Y836800D03*
X285750Y836800D03*
X273050Y836800D03*
X260350Y836800D03*
X247650Y836800D03*
X234950Y836800D03*
X222250Y836800D03*
X209550Y836800D03*
X196850Y836800D03*
D22*
X171620Y851700D03*
X171620Y864400D03*
X171620Y877100D03*
X171620Y889800D03*
X171620Y902500D03*
X171620Y915200D03*
X171620Y927900D03*
X171620Y940600D03*
X171620Y953300D03*
X171620Y966000D03*
X171620Y978700D03*
X171620Y991400D03*
X171620Y1004100D03*
X171620Y1016800D03*
D24*
X254000Y939800D03*
D16*
X370840Y999100D03*
X370840Y982100D03*
D25*
X129600Y933450D03*
X129600Y920750D03*
X129600Y908050D03*
X129600Y895350D03*
X129600Y882650D03*
X129600Y869950D03*
X129600Y857250D03*
X129600Y844550D03*
X73600Y844550D03*
X73600Y857250D03*
X73600Y869950D03*
X73600Y882650D03*
X73600Y895350D03*
X73600Y908050D03*
X73600Y920750D03*
X73600Y933450D03*
D17*
X29600Y863600D03*
X46600Y863600D03*
X46600Y914400D03*
X29600Y914400D03*
D26*
X47300Y895500D03*
X28900Y889000D03*
X28900Y882500D03*
X28900Y895500D03*
X47300Y889000D03*
X47300Y882500D03*
D13*
X339400Y37620D03*
X397200Y37620D03*
D17*
X93100Y965200D03*
X110100Y965200D03*
D18*
X63500Y62550D03*
X38100Y62550D03*
X12700Y62550D03*
X-12700Y62550D03*
X520700Y165100D03*
X495300Y165100D03*
X469900Y165100D03*
X444500Y165100D03*
X101600Y203200D03*
X101600Y228600D03*
X101600Y254000D03*
X101600Y279400D03*
X444500Y241300D03*
X444500Y266700D03*
X444500Y292100D03*
X444500Y317500D03*
X-63500Y342900D03*
X-63500Y317500D03*
D17*
X416950Y850900D03*
X433950Y850900D03*
D27*
X438120Y142050D03*
X495120Y142050D03*
D28*
X511120Y10550D03*
X379620Y550D03*
D29*
X426220Y39050D03*
X437220Y43050D03*
X448220Y39050D03*
X459220Y37050D03*
X470220Y39050D03*
X481220Y37050D03*
X492220Y39050D03*
X503220Y39050D03*
D30*
X121800Y1064000D03*
X116800Y1064000D03*
X111800Y1064000D03*
X106800Y1064000D03*
X106800Y1044000D03*
X111800Y1044000D03*
X116800Y1044000D03*
X121800Y1044000D03*
D31*
X114300Y1054100D03*
D17*
X84700Y1069340D03*
X67700Y1069340D03*
D18*
X298450Y69850D03*
X323850Y69850D03*
X63500Y1087120D03*
X88900Y1087120D03*
X381000Y889000D03*
X381000Y914400D03*
M02*
