G04 EAGLE Gerber RS-274X export*
G75*
%MOMM*%
%FSLAX34Y34*%
%LPD*%
%INSolderpaste Bottom*%
%IPPOS*%
%AMOC8*
5,1,8,0,0,1.08239X$1,22.5*%
G01*
%ADD10R,1.200000X2.000000*%
%ADD11R,0.600000X1.350000*%
%ADD12R,1.000000X1.100000*%
%ADD13R,1.100000X1.000000*%
%ADD14R,0.830000X0.630000*%
%ADD15R,1.500000X0.900000*%
%ADD16R,0.900000X1.500000*%
%ADD17R,6.000000X6.000000*%
%ADD18R,1.200000X0.600000*%
%ADD19R,0.660000X0.300000*%
%ADD20R,1.800000X1.400000*%
%ADD21R,1.400000X1.900000*%
%ADD22R,0.800000X1.500000*%
%ADD23R,0.260000X0.599000*%
%ADD24R,2.000000X1.000000*%
%ADD25R,0.250000X0.450000*%
%ADD26R,0.450000X0.250000*%
%ADD27R,0.400000X0.750000*%
%ADD28R,0.330200X0.685800*%
%ADD29R,0.650000X0.460000*%


D10*
X378000Y7950D03*
X322000Y7950D03*
D11*
X365000Y44700D03*
X355000Y44700D03*
X345000Y44700D03*
X335000Y44700D03*
D12*
X146800Y1004100D03*
X146800Y1021100D03*
D13*
X180700Y1050700D03*
X163700Y1050700D03*
X180700Y977040D03*
X163700Y977040D03*
D14*
X235700Y975700D03*
X235700Y998700D03*
D12*
X460000Y958500D03*
X460000Y941500D03*
X480000Y998500D03*
X480000Y981500D03*
X460000Y998500D03*
X460000Y981500D03*
X480000Y958500D03*
X480000Y941500D03*
D15*
X432380Y1013400D03*
X432380Y1000700D03*
X432380Y988000D03*
X432380Y975300D03*
X432380Y962600D03*
X432380Y949900D03*
X432380Y937200D03*
X432380Y924500D03*
X432380Y911800D03*
X432380Y899100D03*
X432380Y886400D03*
X432380Y873700D03*
X432380Y861000D03*
X432380Y848300D03*
D16*
X407150Y833400D03*
X394450Y833400D03*
X381750Y833400D03*
X369050Y833400D03*
X356350Y833400D03*
X343650Y833400D03*
X330950Y833400D03*
X318250Y833400D03*
X305550Y833400D03*
X292850Y833400D03*
D15*
X267620Y848300D03*
X267620Y861000D03*
X267620Y873700D03*
X267620Y886400D03*
X267620Y899100D03*
X267620Y911800D03*
X267620Y924500D03*
X267620Y937200D03*
X267620Y949900D03*
X267620Y962600D03*
X267620Y975300D03*
X267620Y988000D03*
X267620Y1000700D03*
X267620Y1013400D03*
D17*
X350000Y936400D03*
D13*
X181500Y960000D03*
X198500Y960000D03*
D18*
X218000Y924450D03*
X218000Y911750D03*
X218000Y899050D03*
X218000Y886350D03*
X218000Y873650D03*
X218000Y860950D03*
X218000Y848250D03*
X218000Y835550D03*
X162000Y835550D03*
X162000Y848250D03*
X162000Y860950D03*
X162000Y873650D03*
X162000Y886350D03*
X162000Y899050D03*
X162000Y911750D03*
X162000Y924450D03*
D13*
X121500Y850000D03*
X138500Y850000D03*
X138500Y910000D03*
X121500Y910000D03*
D19*
X139200Y886500D03*
X120800Y880000D03*
X120800Y873500D03*
X120800Y886500D03*
X139200Y880000D03*
X139200Y873500D03*
D13*
X181500Y940000D03*
X198500Y940000D03*
X461900Y900000D03*
X478900Y900000D03*
D20*
X534120Y148650D03*
X591120Y148650D03*
D21*
X607120Y17150D03*
X475620Y7150D03*
D22*
X522220Y45650D03*
X533220Y49650D03*
X544220Y45650D03*
X555220Y43650D03*
X566220Y45650D03*
X577220Y43650D03*
X588220Y45650D03*
X599220Y45650D03*
D23*
X172200Y998605D03*
X177200Y998605D03*
X182200Y998605D03*
X167200Y998605D03*
X162200Y998605D03*
X162200Y1026595D03*
X167200Y1026595D03*
X172200Y1026595D03*
X177200Y1026595D03*
X182200Y1026595D03*
D24*
X172200Y1012600D03*
D13*
X129900Y1045620D03*
X112900Y1045620D03*
X129900Y1026570D03*
X112900Y1026570D03*
X129900Y1065940D03*
X112900Y1065940D03*
D25*
X544000Y675000D03*
X540000Y675000D03*
X548000Y675000D03*
X552000Y675000D03*
X556000Y675000D03*
X560000Y675000D03*
D26*
X565000Y670000D03*
X565000Y666000D03*
X565000Y662000D03*
X565000Y658000D03*
X565000Y654000D03*
X565000Y650000D03*
D25*
X560000Y645000D03*
X556000Y645000D03*
X548000Y645000D03*
X552000Y645000D03*
X544000Y645000D03*
X540000Y645000D03*
D26*
X535000Y650000D03*
X535000Y654000D03*
X535000Y658000D03*
X535000Y662000D03*
X535000Y666000D03*
X535000Y670000D03*
D12*
X590000Y648500D03*
X590000Y631500D03*
D13*
X551500Y710000D03*
X568500Y710000D03*
D12*
X590000Y671500D03*
X590000Y688500D03*
D27*
X553500Y731750D03*
X566500Y731750D03*
D28*
X553269Y748255D03*
X560000Y748255D03*
X566731Y748255D03*
D13*
X551500Y770000D03*
X568500Y770000D03*
D29*
X491000Y665000D03*
X491000Y655000D03*
X479500Y660000D03*
D12*
X510000Y651500D03*
X510000Y668500D03*
D29*
X491000Y705000D03*
X491000Y695000D03*
X479500Y700000D03*
D12*
X510000Y691500D03*
X510000Y708500D03*
D29*
X629000Y635000D03*
X629000Y645000D03*
X640500Y640000D03*
D12*
X610000Y648500D03*
X610000Y631500D03*
X660000Y648500D03*
X660000Y631500D03*
D29*
X491000Y625000D03*
X491000Y615000D03*
X479500Y620000D03*
D12*
X510000Y611500D03*
X510000Y628500D03*
X460000Y628500D03*
X460000Y611500D03*
D29*
X629000Y675000D03*
X629000Y685000D03*
X640500Y680000D03*
D12*
X610000Y688500D03*
X610000Y671500D03*
X660000Y688500D03*
X660000Y671500D03*
M02*
