G04 EAGLE Gerber RS-274X export*
G75*
%MOMM*%
%FSLAX34Y34*%
%LPD*%
%INSoldermask Top*%
%IPPOS*%
%AMOC8*
5,1,8,0,0,1.08239X$1,22.5*%
G01*
%ADD10C,0.838200*%
%ADD11R,1.403200X2.203200*%
%ADD12R,0.803200X1.553200*%
%ADD13R,1.303200X1.203200*%
%ADD14R,4.200000X1.700000*%
%ADD15C,0.505344*%
%ADD16R,0.833200X1.033200*%
%ADD17R,1.203200X1.303200*%
%ADD18R,1.403200X0.753200*%
%ADD19R,1.053200X1.103200*%
%ADD20R,0.803200X0.803200*%
%ADD21R,1.053200X1.723200*%
%ADD22R,1.723200X1.053200*%
%ADD23R,1.303200X1.303200*%
%ADD24R,0.503200X1.203200*%
%ADD25R,0.803200X1.203200*%
%ADD26C,0.853200*%
%ADD27R,0.453200X0.813200*%
%ADD28R,0.453200X0.763200*%
%ADD29R,1.353200X7.203200*%
%ADD30R,1.103200X2.403200*%
%ADD31R,0.620000X0.840000*%
%ADD32R,0.620000X0.560000*%
%ADD33R,0.640000X0.840000*%
%ADD34C,3.403600*%
%ADD35R,1.203200X4.803200*%
%ADD36R,1.803200X3.603200*%
%ADD37C,0.653200*%
%ADD38R,3.495038X1.534156*%
%ADD39R,0.762000X1.473200*%
%ADD40R,1.473200X0.762000*%
%ADD41C,2.082800*%
%ADD42R,0.753200X1.403200*%
%ADD43R,4.803200X1.203200*%
%ADD44R,3.603200X1.803200*%
%ADD45R,0.838200X1.473200*%
%ADD46R,1.353200X0.903200*%
%ADD47R,0.903200X1.353200*%
%ADD48R,0.903200X0.903200*%
%ADD49R,0.903200X1.503200*%

G36*
X352842Y442863D02*
X352842Y442863D01*
X352886Y442866D01*
X352908Y442882D01*
X352934Y442890D01*
X352963Y442923D01*
X352998Y442949D01*
X353008Y442975D01*
X353026Y442995D01*
X353033Y443039D01*
X353048Y443079D01*
X353043Y443106D01*
X353047Y443133D01*
X353029Y443174D01*
X353020Y443216D01*
X352994Y443252D01*
X352990Y443261D01*
X352985Y443265D01*
X352976Y443276D01*
X328976Y467276D01*
X328938Y467297D01*
X328905Y467326D01*
X328878Y467330D01*
X328854Y467343D01*
X328810Y467340D01*
X328767Y467347D01*
X328742Y467336D01*
X328714Y467334D01*
X328679Y467308D01*
X328639Y467290D01*
X328624Y467267D01*
X328602Y467251D01*
X328586Y467210D01*
X328562Y467174D01*
X328555Y467130D01*
X328552Y467121D01*
X328553Y467114D01*
X328551Y467100D01*
X328551Y443100D01*
X328556Y443084D01*
X328553Y443067D01*
X328575Y443017D01*
X328590Y442966D01*
X328603Y442955D01*
X328610Y442939D01*
X328655Y442909D01*
X328695Y442874D01*
X328712Y442871D01*
X328727Y442862D01*
X328800Y442851D01*
X352800Y442851D01*
X352842Y442863D01*
G37*
G36*
X400084Y42883D02*
X400084Y42883D01*
X400090Y42889D01*
X400095Y42885D01*
X401325Y43250D01*
X401330Y43257D01*
X401335Y43255D01*
X402454Y43885D01*
X402457Y43892D01*
X402463Y43891D01*
X403413Y44754D01*
X403414Y44762D01*
X403420Y44762D01*
X404154Y45815D01*
X404154Y45823D01*
X404159Y45825D01*
X404641Y47015D01*
X404639Y47020D01*
X404643Y47023D01*
X404642Y47024D01*
X404644Y47025D01*
X404849Y48292D01*
X404846Y48297D01*
X404849Y48300D01*
X404849Y60300D01*
X404846Y60304D01*
X404849Y60307D01*
X404694Y61429D01*
X404689Y61434D01*
X404692Y61438D01*
X404321Y62509D01*
X404315Y62513D01*
X404317Y62518D01*
X403744Y63495D01*
X403738Y63498D01*
X403739Y63503D01*
X402986Y64350D01*
X402979Y64352D01*
X402979Y64357D01*
X402076Y65041D01*
X402069Y65041D01*
X402068Y65046D01*
X401049Y65541D01*
X401042Y65539D01*
X401040Y65544D01*
X399943Y65831D01*
X399937Y65828D01*
X399934Y65832D01*
X398803Y65899D01*
X398797Y65899D01*
X397666Y65832D01*
X397661Y65827D01*
X397657Y65831D01*
X396560Y65544D01*
X396556Y65538D01*
X396551Y65541D01*
X395532Y65046D01*
X395529Y65040D01*
X395524Y65041D01*
X394621Y64357D01*
X394619Y64350D01*
X394614Y64350D01*
X393861Y63503D01*
X393861Y63496D01*
X393856Y63495D01*
X393283Y62518D01*
X393284Y62515D01*
X393283Y62514D01*
X393284Y62513D01*
X393284Y62511D01*
X393279Y62509D01*
X392908Y61438D01*
X392910Y61433D01*
X392907Y61431D01*
X392907Y61430D01*
X392906Y61429D01*
X392751Y60307D01*
X392754Y60302D01*
X392751Y60300D01*
X392751Y48300D01*
X392754Y48295D01*
X392751Y48292D01*
X392956Y47025D01*
X392962Y47019D01*
X392959Y47015D01*
X393441Y45825D01*
X393448Y45821D01*
X393446Y45815D01*
X394180Y44762D01*
X394188Y44760D01*
X394187Y44754D01*
X395137Y43891D01*
X395146Y43890D01*
X395146Y43885D01*
X396265Y43255D01*
X396273Y43256D01*
X396275Y43250D01*
X397505Y42885D01*
X397513Y42888D01*
X397516Y42883D01*
X398797Y42801D01*
X398801Y42804D01*
X398803Y42801D01*
X400084Y42883D01*
G37*
G36*
X313684Y42883D02*
X313684Y42883D01*
X313690Y42889D01*
X313695Y42885D01*
X314925Y43250D01*
X314930Y43257D01*
X314935Y43255D01*
X316054Y43885D01*
X316057Y43892D01*
X316063Y43891D01*
X317013Y44754D01*
X317014Y44762D01*
X317020Y44762D01*
X317754Y45815D01*
X317754Y45823D01*
X317759Y45825D01*
X318241Y47015D01*
X318239Y47020D01*
X318243Y47023D01*
X318242Y47024D01*
X318244Y47025D01*
X318449Y48292D01*
X318446Y48297D01*
X318449Y48300D01*
X318449Y60300D01*
X318446Y60304D01*
X318449Y60307D01*
X318294Y61429D01*
X318289Y61434D01*
X318292Y61438D01*
X317921Y62509D01*
X317915Y62513D01*
X317917Y62518D01*
X317344Y63495D01*
X317338Y63498D01*
X317339Y63503D01*
X316586Y64350D01*
X316579Y64352D01*
X316579Y64357D01*
X315676Y65041D01*
X315669Y65041D01*
X315668Y65046D01*
X314649Y65541D01*
X314642Y65539D01*
X314640Y65544D01*
X313543Y65831D01*
X313537Y65828D01*
X313534Y65832D01*
X312403Y65899D01*
X312397Y65899D01*
X311266Y65832D01*
X311261Y65827D01*
X311257Y65831D01*
X310160Y65544D01*
X310156Y65538D01*
X310151Y65541D01*
X309132Y65046D01*
X309129Y65040D01*
X309124Y65041D01*
X308221Y64357D01*
X308219Y64350D01*
X308214Y64350D01*
X307461Y63503D01*
X307461Y63496D01*
X307456Y63495D01*
X306883Y62518D01*
X306884Y62515D01*
X306883Y62514D01*
X306884Y62513D01*
X306884Y62511D01*
X306879Y62509D01*
X306508Y61438D01*
X306510Y61433D01*
X306507Y61431D01*
X306507Y61430D01*
X306506Y61429D01*
X306351Y60307D01*
X306354Y60302D01*
X306351Y60300D01*
X306351Y48300D01*
X306354Y48295D01*
X306351Y48292D01*
X306556Y47025D01*
X306562Y47019D01*
X306559Y47015D01*
X307041Y45825D01*
X307048Y45821D01*
X307046Y45815D01*
X307780Y44762D01*
X307788Y44760D01*
X307787Y44754D01*
X308737Y43891D01*
X308746Y43890D01*
X308746Y43885D01*
X309865Y43255D01*
X309873Y43256D01*
X309875Y43250D01*
X311105Y42885D01*
X311113Y42888D01*
X311116Y42883D01*
X312397Y42801D01*
X312401Y42804D01*
X312403Y42801D01*
X313684Y42883D01*
G37*
G36*
X313571Y3611D02*
X313571Y3611D01*
X313576Y3616D01*
X313580Y3613D01*
X314703Y3948D01*
X314707Y3954D01*
X314711Y3952D01*
X315747Y4500D01*
X315750Y4506D01*
X315755Y4505D01*
X316663Y5244D01*
X316665Y5251D01*
X316670Y5251D01*
X317417Y6153D01*
X317417Y6161D01*
X317423Y6161D01*
X317979Y7192D01*
X317978Y7199D01*
X317983Y7201D01*
X318327Y8320D01*
X318325Y8327D01*
X318329Y8330D01*
X318449Y9495D01*
X318447Y9498D01*
X318449Y9500D01*
X318449Y15500D01*
X318447Y15503D01*
X318449Y15505D01*
X318338Y16681D01*
X318333Y16686D01*
X318336Y16690D01*
X317998Y17822D01*
X317992Y17826D01*
X317994Y17831D01*
X317442Y18875D01*
X317435Y18878D01*
X317437Y18883D01*
X316691Y19799D01*
X316684Y19800D01*
X316684Y19806D01*
X315775Y20559D01*
X315767Y20559D01*
X315767Y20564D01*
X314727Y21125D01*
X314720Y21124D01*
X314718Y21129D01*
X313589Y21476D01*
X313583Y21474D01*
X313580Y21478D01*
X312405Y21599D01*
X312398Y21595D01*
X312394Y21599D01*
X311054Y21442D01*
X311048Y21437D01*
X311043Y21440D01*
X309772Y20989D01*
X309767Y20982D01*
X309762Y20984D01*
X308623Y20262D01*
X308620Y20254D01*
X308614Y20255D01*
X307664Y19297D01*
X307663Y19289D01*
X307657Y19288D01*
X306944Y18143D01*
X306945Y18135D01*
X306939Y18133D01*
X306499Y16857D01*
X306501Y16850D01*
X306497Y16847D01*
X306351Y15505D01*
X306353Y15502D01*
X306351Y15500D01*
X306351Y9500D01*
X306353Y9497D01*
X306351Y9494D01*
X306506Y8165D01*
X306512Y8159D01*
X306509Y8155D01*
X306956Y6894D01*
X306963Y6889D01*
X306961Y6884D01*
X307678Y5754D01*
X307685Y5751D01*
X307684Y5745D01*
X308635Y4803D01*
X308643Y4802D01*
X308643Y4796D01*
X309779Y4089D01*
X309787Y4090D01*
X309789Y4084D01*
X311054Y3648D01*
X311059Y3649D01*
X311060Y3649D01*
X311063Y3649D01*
X311065Y3645D01*
X312395Y3501D01*
X312401Y3505D01*
X312405Y3501D01*
X313571Y3611D01*
G37*
G36*
X399971Y3611D02*
X399971Y3611D01*
X399976Y3616D01*
X399980Y3613D01*
X401103Y3948D01*
X401107Y3954D01*
X401111Y3952D01*
X402147Y4500D01*
X402150Y4506D01*
X402155Y4505D01*
X403063Y5244D01*
X403065Y5251D01*
X403070Y5251D01*
X403817Y6153D01*
X403817Y6161D01*
X403823Y6161D01*
X404379Y7192D01*
X404378Y7199D01*
X404383Y7201D01*
X404727Y8320D01*
X404725Y8327D01*
X404729Y8330D01*
X404849Y9495D01*
X404847Y9498D01*
X404849Y9500D01*
X404849Y15500D01*
X404847Y15503D01*
X404849Y15505D01*
X404738Y16681D01*
X404733Y16686D01*
X404736Y16690D01*
X404398Y17822D01*
X404392Y17826D01*
X404394Y17831D01*
X403842Y18875D01*
X403835Y18878D01*
X403837Y18883D01*
X403091Y19799D01*
X403084Y19800D01*
X403084Y19806D01*
X402175Y20559D01*
X402167Y20559D01*
X402167Y20564D01*
X401127Y21125D01*
X401120Y21124D01*
X401118Y21129D01*
X399989Y21476D01*
X399983Y21474D01*
X399980Y21478D01*
X398805Y21599D01*
X398798Y21595D01*
X398794Y21599D01*
X397454Y21442D01*
X397448Y21437D01*
X397443Y21440D01*
X396172Y20989D01*
X396167Y20982D01*
X396162Y20984D01*
X395023Y20262D01*
X395020Y20254D01*
X395014Y20255D01*
X394064Y19297D01*
X394063Y19289D01*
X394057Y19288D01*
X393344Y18143D01*
X393345Y18135D01*
X393339Y18133D01*
X392899Y16857D01*
X392901Y16850D01*
X392897Y16847D01*
X392751Y15505D01*
X392753Y15502D01*
X392751Y15500D01*
X392751Y9500D01*
X392753Y9497D01*
X392751Y9494D01*
X392906Y8165D01*
X392912Y8159D01*
X392909Y8155D01*
X393356Y6894D01*
X393363Y6889D01*
X393361Y6884D01*
X394078Y5754D01*
X394085Y5751D01*
X394084Y5745D01*
X395035Y4803D01*
X395043Y4802D01*
X395043Y4796D01*
X396179Y4089D01*
X396187Y4090D01*
X396189Y4084D01*
X397454Y3648D01*
X397459Y3649D01*
X397460Y3649D01*
X397463Y3649D01*
X397465Y3645D01*
X398795Y3501D01*
X398801Y3505D01*
X398805Y3501D01*
X399971Y3611D01*
G37*
G36*
X192470Y377583D02*
X192470Y377583D01*
X192536Y377585D01*
X192579Y377603D01*
X192626Y377611D01*
X192683Y377645D01*
X192743Y377670D01*
X192778Y377701D01*
X192819Y377726D01*
X192861Y377777D01*
X192909Y377821D01*
X192931Y377863D01*
X192960Y377900D01*
X192981Y377962D01*
X193012Y378021D01*
X193020Y378075D01*
X193032Y378112D01*
X193031Y378152D01*
X193039Y378206D01*
X193039Y383794D01*
X193028Y383859D01*
X193026Y383925D01*
X193008Y383968D01*
X193000Y384015D01*
X192966Y384072D01*
X192941Y384132D01*
X192910Y384167D01*
X192885Y384208D01*
X192834Y384250D01*
X192790Y384298D01*
X192748Y384320D01*
X192711Y384349D01*
X192649Y384370D01*
X192590Y384401D01*
X192536Y384409D01*
X192499Y384421D01*
X192459Y384420D01*
X192405Y384428D01*
X188595Y384428D01*
X188530Y384417D01*
X188464Y384415D01*
X188421Y384397D01*
X188374Y384389D01*
X188317Y384355D01*
X188257Y384330D01*
X188222Y384299D01*
X188181Y384274D01*
X188140Y384223D01*
X188091Y384179D01*
X188069Y384137D01*
X188040Y384100D01*
X188019Y384038D01*
X187988Y383979D01*
X187980Y383925D01*
X187968Y383888D01*
X187969Y383848D01*
X187961Y383794D01*
X187961Y378206D01*
X187972Y378141D01*
X187974Y378075D01*
X187992Y378032D01*
X188000Y377985D01*
X188034Y377928D01*
X188059Y377868D01*
X188090Y377833D01*
X188115Y377792D01*
X188166Y377751D01*
X188210Y377702D01*
X188252Y377680D01*
X188289Y377651D01*
X188351Y377630D01*
X188410Y377599D01*
X188464Y377591D01*
X188501Y377579D01*
X188541Y377580D01*
X188595Y377572D01*
X192405Y377572D01*
X192470Y377583D01*
G37*
D10*
X660400Y50800D03*
X65300Y1065000D03*
D11*
X435550Y14050D03*
X491550Y14050D03*
D12*
X448550Y50800D03*
X458550Y50800D03*
X468550Y50800D03*
X478550Y50800D03*
D13*
X321700Y431800D03*
X338700Y431800D03*
D14*
X349600Y488400D03*
D15*
X284680Y618810D02*
X284680Y625790D01*
X291660Y625790D01*
X291660Y618810D01*
X284680Y618810D01*
X284680Y623610D02*
X291660Y623610D01*
X267140Y625790D02*
X267140Y618810D01*
X267140Y625790D02*
X274120Y625790D01*
X274120Y618810D01*
X267140Y618810D01*
X267140Y623610D02*
X274120Y623610D01*
D16*
X356800Y406400D03*
X379800Y406400D03*
D13*
X321700Y406400D03*
X338700Y406400D03*
X287900Y635000D03*
X270900Y635000D03*
D17*
X381000Y359800D03*
X381000Y376800D03*
X355600Y376800D03*
X355600Y359800D03*
D15*
X652980Y441010D02*
X652980Y447990D01*
X659960Y447990D01*
X659960Y441010D01*
X652980Y441010D01*
X652980Y445810D02*
X659960Y445810D01*
X635440Y447990D02*
X635440Y441010D01*
X635440Y447990D02*
X642420Y447990D01*
X642420Y441010D01*
X635440Y441010D01*
X635440Y445810D02*
X642420Y445810D01*
D13*
X656200Y457200D03*
X639200Y457200D03*
D18*
X457501Y358800D03*
X457501Y368300D03*
X457501Y377800D03*
X431499Y377800D03*
X431499Y358800D03*
D17*
X482600Y359800D03*
X482600Y376800D03*
X279400Y376800D03*
X279400Y359800D03*
X304800Y376800D03*
X304800Y359800D03*
D15*
X284680Y542610D02*
X284680Y549590D01*
X291660Y549590D01*
X291660Y542610D01*
X284680Y542610D01*
X284680Y547410D02*
X291660Y547410D01*
X267140Y549590D02*
X267140Y542610D01*
X267140Y549590D02*
X274120Y549590D01*
X274120Y542610D01*
X267140Y542610D01*
X267140Y547410D02*
X274120Y547410D01*
D13*
X287900Y558800D03*
X270900Y558800D03*
D15*
X284680Y473390D02*
X284680Y466410D01*
X284680Y473390D02*
X291660Y473390D01*
X291660Y466410D01*
X284680Y466410D01*
X284680Y471210D02*
X291660Y471210D01*
X267140Y473390D02*
X267140Y466410D01*
X267140Y473390D02*
X274120Y473390D01*
X274120Y466410D01*
X267140Y466410D01*
X267140Y471210D02*
X274120Y471210D01*
D13*
X287900Y495300D03*
X270900Y495300D03*
D19*
X311700Y139700D03*
X323300Y139700D03*
D13*
X309000Y152400D03*
X326000Y152400D03*
D17*
X330200Y376800D03*
X330200Y359800D03*
D20*
X287100Y152400D03*
X297100Y152400D03*
D21*
X284100Y179500D03*
X295100Y179500D03*
X306100Y179500D03*
X317100Y179500D03*
X328100Y179500D03*
X339100Y179500D03*
X350100Y179500D03*
X361100Y179500D03*
X372100Y179500D03*
X383100Y179500D03*
X394100Y179500D03*
X405100Y179500D03*
X416100Y179500D03*
X427100Y179500D03*
D22*
X455100Y188000D03*
X455100Y199000D03*
X455100Y210000D03*
X455100Y221000D03*
X455100Y232000D03*
X455100Y243000D03*
X455100Y254000D03*
X455100Y265000D03*
X455100Y276000D03*
X455100Y287000D03*
X455100Y298000D03*
X455100Y309000D03*
X455100Y320000D03*
D21*
X427100Y328500D03*
X416100Y328500D03*
X405100Y328500D03*
X394100Y328500D03*
X383100Y328500D03*
X372100Y328500D03*
X361100Y328500D03*
X350100Y328500D03*
X339100Y328500D03*
X328100Y328500D03*
X317100Y328500D03*
X306100Y328500D03*
X295100Y328500D03*
X284100Y328500D03*
D22*
X256100Y320000D03*
X256100Y309000D03*
X256100Y298000D03*
X256100Y287000D03*
X256100Y276000D03*
X256100Y265000D03*
X256100Y254000D03*
X256100Y243000D03*
X256100Y232000D03*
X256100Y221000D03*
X256100Y210000D03*
X256100Y199000D03*
X256100Y188000D03*
D23*
X345100Y243500D03*
X324100Y243500D03*
X303100Y243500D03*
X282100Y243500D03*
X345100Y223000D03*
X324100Y223000D03*
X303100Y223000D03*
X282100Y223000D03*
X345100Y202500D03*
X324100Y202500D03*
X303100Y202500D03*
X282100Y202500D03*
X345100Y305500D03*
X324100Y305500D03*
X303100Y305500D03*
X282100Y305500D03*
X345100Y285000D03*
X324100Y285000D03*
X303100Y285000D03*
X282100Y285000D03*
X345100Y264500D03*
X324100Y264500D03*
X303100Y264500D03*
X282100Y264500D03*
X366100Y264500D03*
X387100Y264500D03*
X408100Y264500D03*
X429100Y264500D03*
X366100Y285000D03*
X387100Y285000D03*
X408100Y285000D03*
X429100Y285000D03*
X366100Y305500D03*
X387100Y305500D03*
X408100Y305500D03*
X429100Y305500D03*
X366100Y202500D03*
X387100Y202500D03*
X408100Y202500D03*
X429100Y202500D03*
X366100Y223000D03*
X387100Y223000D03*
X408100Y223000D03*
X429100Y223000D03*
X366100Y243500D03*
X387100Y243500D03*
X408100Y243500D03*
X429100Y243500D03*
D13*
X414900Y88900D03*
X397900Y88900D03*
X296300Y88900D03*
X313300Y88900D03*
D24*
X363100Y60100D03*
X358100Y60100D03*
D25*
X387850Y60100D03*
X380100Y60100D03*
D24*
X373100Y60100D03*
X368100Y60100D03*
X348100Y60100D03*
X353100Y60100D03*
D25*
X323350Y60100D03*
X331100Y60100D03*
D24*
X338100Y60100D03*
X343100Y60100D03*
D26*
X326700Y49050D03*
X384500Y49050D03*
D17*
X406400Y359800D03*
X406400Y376800D03*
D13*
X359800Y431800D03*
X376800Y431800D03*
D27*
X337900Y122950D03*
D28*
X342900Y122700D03*
X347900Y122700D03*
X347900Y131300D03*
X342900Y131300D03*
X337900Y131300D03*
D29*
X289050Y35000D03*
D30*
X247650Y81000D03*
D29*
X206250Y35000D03*
D31*
X221700Y280100D03*
D32*
X221700Y288100D03*
X221700Y296100D03*
D31*
X234900Y280100D03*
D32*
X234900Y288100D03*
X234900Y296100D03*
D33*
X234800Y304100D03*
D31*
X221700Y304100D03*
X221700Y216600D03*
D32*
X221700Y224600D03*
X221700Y232600D03*
D31*
X234900Y216600D03*
D32*
X234900Y224600D03*
X234900Y232600D03*
D33*
X234800Y240600D03*
D31*
X221700Y240600D03*
D17*
X228600Y321700D03*
X228600Y338700D03*
X482600Y338700D03*
X482600Y321700D03*
X482600Y300600D03*
X482600Y283600D03*
X482600Y245500D03*
X482600Y262500D03*
X482600Y224400D03*
X482600Y207400D03*
D34*
X70612Y296037D03*
X70612Y796163D03*
X640588Y796163D03*
X640588Y296037D03*
D35*
X614100Y73100D03*
X554100Y73100D03*
D36*
X638100Y21100D03*
X530100Y21100D03*
D35*
X574100Y73100D03*
X594100Y73100D03*
X156900Y73100D03*
X96900Y73100D03*
D36*
X180900Y21100D03*
X72900Y21100D03*
D35*
X116900Y73100D03*
X136900Y73100D03*
D17*
X685800Y347100D03*
X685800Y364100D03*
D13*
X656200Y127000D03*
X639200Y127000D03*
X59300Y469900D03*
X42300Y469900D03*
D15*
X56080Y460690D02*
X56080Y453710D01*
X56080Y460690D02*
X63060Y460690D01*
X63060Y453710D01*
X56080Y453710D01*
X56080Y458510D02*
X63060Y458510D01*
X38540Y460690D02*
X38540Y453710D01*
X38540Y460690D02*
X45520Y460690D01*
X45520Y453710D01*
X38540Y453710D01*
X38540Y458510D02*
X45520Y458510D01*
D37*
X659700Y159675D02*
X659700Y145125D01*
X647700Y145125D02*
X647700Y159675D01*
X635700Y159675D02*
X635700Y145125D01*
D38*
X647725Y152425D03*
D17*
X685800Y385200D03*
X685800Y402200D03*
D39*
X594300Y172974D03*
X602300Y172974D03*
X610300Y172974D03*
X618300Y172974D03*
X626300Y172974D03*
X634300Y172974D03*
X642300Y172974D03*
X650300Y172974D03*
D40*
X665226Y187900D03*
X665226Y195900D03*
X665226Y203900D03*
X665226Y211900D03*
X665226Y219900D03*
X665226Y227900D03*
X665226Y235900D03*
X665226Y243900D03*
D39*
X650300Y258826D03*
X642300Y258826D03*
X634300Y258826D03*
X626300Y258826D03*
X618300Y258826D03*
X610300Y258826D03*
X602300Y258826D03*
X594300Y258826D03*
D40*
X579374Y243900D03*
X579374Y235900D03*
X579374Y227900D03*
X579374Y219900D03*
X579374Y211900D03*
X579374Y203900D03*
X579374Y195900D03*
X579374Y187900D03*
D41*
X609600Y342900D03*
X609600Y368300D03*
X635000Y342900D03*
X635000Y368300D03*
X660400Y342900D03*
X660400Y368300D03*
D13*
X592700Y279400D03*
X575700Y279400D03*
D41*
X381000Y139700D03*
X406400Y139700D03*
X431800Y139700D03*
X457200Y139700D03*
X482600Y139700D03*
X508000Y139700D03*
D35*
X650400Y610700D03*
X670400Y610700D03*
D36*
X626400Y662700D03*
X694400Y662700D03*
D42*
X390500Y1054401D03*
X381000Y1054401D03*
X371500Y1054401D03*
X371500Y1028399D03*
X390500Y1028399D03*
D17*
X406400Y1049900D03*
X406400Y1032900D03*
D13*
X372500Y1079500D03*
X389500Y1079500D03*
X372500Y1003300D03*
X389500Y1003300D03*
D15*
X591620Y409890D02*
X591620Y402910D01*
X584640Y402910D01*
X584640Y409890D01*
X591620Y409890D01*
X591620Y407710D02*
X584640Y407710D01*
X609160Y409890D02*
X609160Y402910D01*
X602180Y402910D01*
X602180Y409890D01*
X609160Y409890D01*
X609160Y407710D02*
X602180Y407710D01*
D13*
X605400Y419100D03*
X588400Y419100D03*
D43*
X303700Y1031400D03*
X303700Y1051400D03*
D44*
X251700Y1007400D03*
X251700Y1075400D03*
D41*
X342900Y1054100D03*
X342900Y1028700D03*
D16*
X443300Y1079500D03*
X420300Y1079500D03*
D17*
X63500Y220100D03*
X63500Y237100D03*
X203200Y364100D03*
X203200Y347100D03*
X88900Y220100D03*
X88900Y237100D03*
X38100Y334400D03*
X38100Y351400D03*
X50800Y334400D03*
X50800Y351400D03*
X25400Y334400D03*
X25400Y351400D03*
D45*
X135636Y342900D03*
X143764Y342900D03*
D46*
X111150Y311000D03*
X111150Y301000D03*
X111150Y291000D03*
X111150Y281000D03*
X111150Y271000D03*
X111150Y261000D03*
X111150Y251000D03*
X111150Y241000D03*
X111150Y231000D03*
X111150Y221000D03*
D47*
X132400Y221750D03*
X142400Y221750D03*
X152400Y221750D03*
X162400Y221750D03*
X172400Y221750D03*
D46*
X193650Y221000D03*
X193650Y231000D03*
X193650Y241000D03*
X193650Y251000D03*
X193650Y261000D03*
X193650Y271000D03*
X193650Y281000D03*
X193650Y291000D03*
X193650Y301000D03*
X193650Y311000D03*
D47*
X172400Y310250D03*
X162400Y310250D03*
X152400Y310250D03*
X142400Y310250D03*
X132400Y310250D03*
D48*
X124900Y296500D03*
X124900Y285500D03*
X124900Y274500D03*
X124900Y263500D03*
X124900Y252500D03*
X124900Y241500D03*
X179900Y241500D03*
X179900Y252500D03*
X179900Y263500D03*
X179900Y274500D03*
X179900Y285500D03*
X179900Y296500D03*
X168900Y296500D03*
X157900Y296500D03*
X146900Y296500D03*
X135900Y296500D03*
X192400Y322500D03*
X182400Y322500D03*
X172400Y322500D03*
X162400Y322500D03*
X152400Y322500D03*
X142400Y322500D03*
X132400Y322500D03*
X122400Y322500D03*
X112400Y322500D03*
X135150Y248750D03*
X146650Y248750D03*
X158150Y248750D03*
X169650Y248750D03*
X146650Y260250D03*
X158150Y260250D03*
X135150Y271750D03*
X146650Y271750D03*
X158150Y271750D03*
X169650Y271750D03*
X146650Y283250D03*
X158150Y283250D03*
X108900Y211000D03*
X108900Y185500D03*
X195900Y185500D03*
X195900Y211000D03*
D49*
X27100Y378950D03*
X38100Y378950D03*
X49100Y378950D03*
X49100Y408450D03*
X38100Y408450D03*
X27100Y408450D03*
D17*
X177800Y347100D03*
X177800Y364100D03*
D45*
X195580Y381000D03*
X185420Y381000D03*
D41*
X203200Y381000D03*
X177800Y381000D03*
D13*
X410600Y635000D03*
X427600Y635000D03*
D15*
X424380Y625790D02*
X424380Y618810D01*
X424380Y625790D02*
X431360Y625790D01*
X431360Y618810D01*
X424380Y618810D01*
X424380Y623610D02*
X431360Y623610D01*
X406840Y625790D02*
X406840Y618810D01*
X406840Y625790D02*
X413820Y625790D01*
X413820Y618810D01*
X406840Y618810D01*
X406840Y623610D02*
X413820Y623610D01*
D13*
X410600Y558800D03*
X427600Y558800D03*
D15*
X424380Y549590D02*
X424380Y542610D01*
X424380Y549590D02*
X431360Y549590D01*
X431360Y542610D01*
X424380Y542610D01*
X424380Y547410D02*
X431360Y547410D01*
X406840Y549590D02*
X406840Y542610D01*
X406840Y549590D02*
X413820Y549590D01*
X413820Y542610D01*
X406840Y542610D01*
X406840Y547410D02*
X413820Y547410D01*
D13*
X410600Y482600D03*
X427600Y482600D03*
D15*
X424380Y473390D02*
X424380Y466410D01*
X424380Y473390D02*
X431360Y473390D01*
X431360Y466410D01*
X424380Y466410D01*
X424380Y471210D02*
X431360Y471210D01*
X406840Y473390D02*
X406840Y466410D01*
X406840Y473390D02*
X413820Y473390D01*
X413820Y466410D01*
X406840Y466410D01*
X406840Y471210D02*
X413820Y471210D01*
D41*
X508000Y177800D03*
X508000Y203200D03*
X508000Y228600D03*
X508000Y254000D03*
X508000Y279400D03*
X508000Y304800D03*
X508000Y330200D03*
X508000Y355600D03*
D35*
X40800Y623400D03*
X60800Y623400D03*
D36*
X16800Y675400D03*
X84800Y675400D03*
M02*
