G04 EAGLE Gerber RS-274X export*
G75*
%MOMM*%
%FSLAX34Y34*%
%LPD*%
%INSolderpaste Bottom*%
%IPPOS*%
%AMOC8*
5,1,8,0,0,1.08239X$1,22.5*%
G01*
%ADD10R,0.550000X1.200000*%
%ADD11R,1.000000X1.100000*%
%ADD12R,1.100000X1.000000*%
%ADD13R,0.830000X0.630000*%
%ADD14R,1.500000X0.900000*%
%ADD15R,0.900000X1.500000*%
%ADD16R,6.000000X6.000000*%
%ADD17R,1.200000X0.600000*%
%ADD18R,0.660000X0.300000*%
%ADD19C,0.300000*%
%ADD20R,1.000000X0.300000*%
%ADD21R,1.000000X0.600000*%
%ADD22R,2.800000X1.000000*%

G36*
X21702Y927152D02*
X21702Y927152D01*
X21704Y927151D01*
X22821Y927232D01*
X22827Y927237D01*
X22832Y927234D01*
X23904Y927561D01*
X23908Y927568D01*
X23914Y927566D01*
X24886Y928123D01*
X24889Y928131D01*
X24895Y928130D01*
X25718Y928890D01*
X25719Y928898D01*
X25725Y928898D01*
X26359Y929823D01*
X26358Y929831D01*
X26364Y929832D01*
X26776Y930874D01*
X26775Y930878D01*
X26778Y930880D01*
X26776Y930883D01*
X26779Y930885D01*
X26949Y931993D01*
X26945Y931999D01*
X26949Y932003D01*
X26881Y933111D01*
X26875Y933117D01*
X26879Y933122D01*
X26566Y934186D01*
X26559Y934191D01*
X26561Y934197D01*
X26019Y935165D01*
X26011Y935168D01*
X26012Y935174D01*
X25268Y935997D01*
X25260Y935999D01*
X25260Y936005D01*
X24351Y936642D01*
X24343Y936641D01*
X24342Y936647D01*
X23314Y937066D01*
X23306Y937064D01*
X23303Y937069D01*
X22208Y937249D01*
X22205Y937247D01*
X22202Y937247D01*
X22200Y937249D01*
X10200Y937249D01*
X10197Y937247D01*
X10191Y937247D01*
X10190Y937248D01*
X9144Y937029D01*
X9139Y937023D01*
X9134Y937026D01*
X8163Y936579D01*
X8159Y936572D01*
X8154Y936573D01*
X7307Y935922D01*
X7304Y935914D01*
X7299Y935915D01*
X6618Y935091D01*
X6617Y935083D01*
X6612Y935082D01*
X6131Y934128D01*
X6133Y934120D01*
X6127Y934117D01*
X5871Y933080D01*
X5873Y933075D01*
X5871Y933074D01*
X5873Y933072D01*
X5870Y933069D01*
X5851Y932001D01*
X5851Y932000D01*
X5847Y931031D01*
X5852Y931024D01*
X5849Y931020D01*
X6061Y930074D01*
X6067Y930069D01*
X6064Y930064D01*
X6482Y929189D01*
X6489Y929185D01*
X6488Y929179D01*
X7089Y928419D01*
X7097Y928417D01*
X7097Y928411D01*
X7853Y927804D01*
X7861Y927804D01*
X7862Y927799D01*
X8734Y927375D01*
X8742Y927376D01*
X8745Y927371D01*
X9689Y927152D01*
X9696Y927155D01*
X9700Y927151D01*
X21700Y927151D01*
X21702Y927152D01*
G37*
G36*
X22203Y840753D02*
X22203Y840753D01*
X22206Y840751D01*
X23251Y840869D01*
X23257Y840875D01*
X23262Y840871D01*
X24256Y841219D01*
X24260Y841226D01*
X24265Y841224D01*
X25157Y841784D01*
X25160Y841791D01*
X25165Y841791D01*
X25909Y842535D01*
X25911Y842543D01*
X25916Y842543D01*
X26476Y843435D01*
X26476Y843442D01*
X26477Y843443D01*
X26481Y843444D01*
X26829Y844438D01*
X26826Y844446D01*
X26831Y844449D01*
X26949Y845495D01*
X26946Y845500D01*
X26949Y845503D01*
X26891Y846623D01*
X26885Y846629D01*
X26889Y846634D01*
X26582Y847713D01*
X26576Y847718D01*
X26578Y847723D01*
X26039Y848707D01*
X26032Y848710D01*
X26033Y848716D01*
X25289Y849555D01*
X25281Y849556D01*
X25281Y849562D01*
X24368Y850215D01*
X24360Y850215D01*
X24359Y850220D01*
X23324Y850653D01*
X23316Y850651D01*
X23314Y850656D01*
X22208Y850849D01*
X22205Y850847D01*
X22202Y850847D01*
X22200Y850849D01*
X10200Y850849D01*
X10197Y850847D01*
X10191Y850847D01*
X10189Y850848D01*
X9134Y850617D01*
X9129Y850610D01*
X9123Y850613D01*
X8146Y850152D01*
X8142Y850145D01*
X8137Y850146D01*
X7286Y849480D01*
X7284Y849472D01*
X7278Y849472D01*
X6597Y848633D01*
X6597Y848625D01*
X6591Y848624D01*
X6114Y847654D01*
X6116Y847646D01*
X6111Y847644D01*
X5861Y846592D01*
X5865Y846585D01*
X5860Y846581D01*
X5851Y845500D01*
X5853Y845498D01*
X5851Y845497D01*
X5919Y844490D01*
X5925Y844484D01*
X5921Y844479D01*
X6212Y843514D01*
X6218Y843509D01*
X6216Y843503D01*
X6714Y842626D01*
X6722Y842623D01*
X6721Y842617D01*
X7402Y841873D01*
X7410Y841872D01*
X7410Y841866D01*
X8239Y841292D01*
X8248Y841292D01*
X8249Y841287D01*
X9185Y840912D01*
X9193Y840914D01*
X9196Y840909D01*
X10192Y840751D01*
X10197Y840754D01*
X10200Y840751D01*
X22200Y840751D01*
X22203Y840753D01*
G37*
G36*
X-23099Y927152D02*
X-23099Y927152D01*
X-23098Y927151D01*
X-21943Y927202D01*
X-21937Y927207D01*
X-21932Y927204D01*
X-20818Y927511D01*
X-20813Y927517D01*
X-20808Y927515D01*
X-19789Y928062D01*
X-19786Y928069D01*
X-19780Y928068D01*
X-18909Y928828D01*
X-18908Y928836D01*
X-18902Y928836D01*
X-18222Y929771D01*
X-18222Y929779D01*
X-18217Y929781D01*
X-17762Y930843D01*
X-17764Y930851D01*
X-17759Y930854D01*
X-17552Y931991D01*
X-17556Y932000D01*
X-17551Y932005D01*
X-17657Y933142D01*
X-17662Y933148D01*
X-17659Y933153D01*
X-18015Y934238D01*
X-18022Y934243D01*
X-18019Y934248D01*
X-18608Y935227D01*
X-18616Y935230D01*
X-18615Y935236D01*
X-19407Y936059D01*
X-19415Y936060D01*
X-19415Y936066D01*
X-20370Y936693D01*
X-20378Y936692D01*
X-20380Y936698D01*
X-21450Y937096D01*
X-21458Y937094D01*
X-21461Y937099D01*
X-22594Y937249D01*
X-22597Y937247D01*
X-22598Y937247D01*
X-22600Y937249D01*
X-28600Y937249D01*
X-28602Y937247D01*
X-28604Y937249D01*
X-29687Y937161D01*
X-29693Y937155D01*
X-29698Y937159D01*
X-30734Y936832D01*
X-30739Y936825D01*
X-30744Y936827D01*
X-31682Y936278D01*
X-31685Y936270D01*
X-31690Y936271D01*
X-32482Y935527D01*
X-32483Y935519D01*
X-32489Y935519D01*
X-33096Y934617D01*
X-33095Y934609D01*
X-33101Y934607D01*
X-33491Y933593D01*
X-33489Y933585D01*
X-33494Y933583D01*
X-33649Y932507D01*
X-33646Y932501D01*
X-33649Y932499D01*
X-33615Y931398D01*
X-33610Y931392D01*
X-33614Y931387D01*
X-33336Y930322D01*
X-33330Y930317D01*
X-33332Y930312D01*
X-32824Y929335D01*
X-32817Y929331D01*
X-32818Y929326D01*
X-32105Y928487D01*
X-32097Y928485D01*
X-32097Y928479D01*
X-31216Y927819D01*
X-31208Y927819D01*
X-31206Y927814D01*
X-30200Y927367D01*
X-30192Y927369D01*
X-30190Y927364D01*
X-29109Y927152D01*
X-29103Y927155D01*
X-29100Y927151D01*
X-23100Y927151D01*
X-23099Y927152D01*
G37*
G36*
X-22596Y840754D02*
X-22596Y840754D01*
X-22594Y840751D01*
X-21461Y840901D01*
X-21455Y840907D01*
X-21450Y840904D01*
X-20380Y841302D01*
X-20376Y841309D01*
X-20370Y841307D01*
X-19415Y841934D01*
X-19412Y841942D01*
X-19407Y841941D01*
X-18615Y842764D01*
X-18614Y842772D01*
X-18608Y842773D01*
X-18019Y843752D01*
X-18020Y843760D01*
X-18015Y843762D01*
X-17659Y844847D01*
X-17662Y844855D01*
X-17657Y844858D01*
X-17551Y845995D01*
X-17555Y846002D01*
X-17551Y846007D01*
X-17696Y847094D01*
X-17702Y847100D01*
X-17699Y847105D01*
X-18083Y848133D01*
X-18089Y848138D01*
X-18088Y848143D01*
X-18690Y849060D01*
X-18698Y849063D01*
X-18697Y849069D01*
X-19489Y849829D01*
X-19497Y849830D01*
X-19498Y849836D01*
X-20439Y850400D01*
X-20447Y850399D01*
X-20449Y850405D01*
X-21492Y850746D01*
X-21500Y850744D01*
X-21503Y850748D01*
X-22596Y850849D01*
X-22598Y850847D01*
X-22600Y850849D01*
X-28600Y850849D01*
X-28603Y850847D01*
X-28605Y850849D01*
X-29697Y850748D01*
X-29703Y850743D01*
X-29708Y850746D01*
X-30751Y850405D01*
X-30756Y850398D01*
X-30761Y850400D01*
X-31702Y849836D01*
X-31705Y849828D01*
X-31711Y849829D01*
X-32503Y849069D01*
X-32504Y849061D01*
X-32510Y849060D01*
X-33113Y848143D01*
X-33112Y848135D01*
X-33118Y848133D01*
X-33501Y847105D01*
X-33499Y847097D01*
X-33504Y847094D01*
X-33649Y846007D01*
X-33645Y845999D01*
X-33649Y845995D01*
X-33543Y844858D01*
X-33538Y844852D01*
X-33541Y844847D01*
X-33185Y843762D01*
X-33178Y843757D01*
X-33181Y843752D01*
X-32592Y842773D01*
X-32584Y842770D01*
X-32585Y842764D01*
X-31793Y841941D01*
X-31785Y841940D01*
X-31785Y841934D01*
X-30830Y841307D01*
X-30822Y841308D01*
X-30820Y841302D01*
X-29750Y840904D01*
X-29742Y840906D01*
X-29739Y840901D01*
X-28606Y840751D01*
X-28602Y840754D01*
X-28600Y840751D01*
X-22600Y840751D01*
X-22596Y840754D01*
G37*
D10*
X79400Y1016301D03*
X88900Y1016301D03*
X98400Y1016301D03*
X98400Y990299D03*
X79400Y990299D03*
D11*
X63500Y1011800D03*
X63500Y994800D03*
D12*
X97400Y1041400D03*
X80400Y1041400D03*
X97400Y965200D03*
X80400Y965200D03*
D13*
X152400Y966400D03*
X152400Y989400D03*
D11*
X398780Y969400D03*
X398780Y986400D03*
D12*
X105800Y934720D03*
X122800Y934720D03*
D11*
X368300Y986400D03*
X368300Y969400D03*
X393700Y948300D03*
X393700Y931300D03*
D14*
X349080Y1004100D03*
X349080Y991400D03*
X349080Y978700D03*
X349080Y966000D03*
X349080Y953300D03*
X349080Y940600D03*
X349080Y927900D03*
X349080Y915200D03*
X349080Y902500D03*
X349080Y889800D03*
X349080Y877100D03*
X349080Y864400D03*
X349080Y851700D03*
X349080Y839000D03*
D15*
X323850Y824100D03*
X311150Y824100D03*
X298450Y824100D03*
X285750Y824100D03*
X273050Y824100D03*
X260350Y824100D03*
X247650Y824100D03*
X234950Y824100D03*
X222250Y824100D03*
X209550Y824100D03*
D14*
X184320Y839000D03*
X184320Y851700D03*
X184320Y864400D03*
X184320Y877100D03*
X184320Y889800D03*
X184320Y902500D03*
X184320Y915200D03*
X184320Y927900D03*
X184320Y940600D03*
X184320Y953300D03*
X184320Y966000D03*
X184320Y978700D03*
X184320Y991400D03*
X184320Y1004100D03*
D16*
X266700Y927100D03*
D11*
X383540Y986400D03*
X383540Y969400D03*
D17*
X142300Y920750D03*
X142300Y908050D03*
X142300Y895350D03*
X142300Y882650D03*
X142300Y869950D03*
X142300Y857250D03*
X142300Y844550D03*
X142300Y831850D03*
X86300Y831850D03*
X86300Y844550D03*
X86300Y857250D03*
X86300Y869950D03*
X86300Y882650D03*
X86300Y895350D03*
X86300Y908050D03*
X86300Y920750D03*
D12*
X42300Y850900D03*
X59300Y850900D03*
X59300Y901700D03*
X42300Y901700D03*
D18*
X60000Y882800D03*
X41600Y876300D03*
X41600Y869800D03*
X41600Y882800D03*
X60000Y876300D03*
X60000Y869800D03*
D19*
X161600Y812370D02*
X168600Y812370D01*
X168600Y805370D01*
X161600Y805370D01*
X161600Y812370D01*
X161600Y808220D02*
X168600Y808220D01*
X168600Y811070D02*
X161600Y811070D01*
X161600Y794830D02*
X168600Y794830D01*
X168600Y787830D01*
X161600Y787830D01*
X161600Y794830D01*
X161600Y790680D02*
X168600Y790680D01*
X168600Y793530D02*
X161600Y793530D01*
D11*
X165100Y770500D03*
X165100Y753500D03*
X149860Y770500D03*
X149860Y753500D03*
D19*
X146360Y812370D02*
X153360Y812370D01*
X153360Y805370D01*
X146360Y805370D01*
X146360Y812370D01*
X146360Y808220D02*
X153360Y808220D01*
X153360Y811070D02*
X146360Y811070D01*
X146360Y794830D02*
X153360Y794830D01*
X153360Y787830D01*
X146360Y787830D01*
X146360Y794830D01*
X146360Y790680D02*
X153360Y790680D01*
X153360Y793530D02*
X146360Y793530D01*
D20*
X22000Y896500D03*
X22000Y891500D03*
D21*
X22000Y921250D03*
X22000Y913500D03*
D20*
X22000Y906500D03*
X22000Y901500D03*
X22000Y881500D03*
X22000Y886500D03*
D21*
X22000Y856750D03*
X22000Y864500D03*
D20*
X22000Y871500D03*
X22000Y876500D03*
D12*
X-21200Y952500D03*
X-4200Y952500D03*
X-21200Y825500D03*
X-4200Y825500D03*
D22*
X50800Y815100D03*
X50800Y785100D03*
D12*
X105800Y949960D03*
X122800Y949960D03*
M02*
