G04 EAGLE Gerber RS-274X export*
G75*
%MOMM*%
%FSLAX34Y34*%
%LPD*%
%INSolderpaste Top*%
%IPPOS*%
%AMOC8*
5,1,8,0,0,1.08239X$1,22.5*%
G01*
%ADD10R,1.200000X2.000000*%
%ADD11R,0.600000X1.350000*%
%ADD12R,1.100000X1.000000*%
%ADD13R,4.200000X1.700000*%
%ADD14C,0.300000*%
%ADD15R,0.630000X0.830000*%
%ADD16R,1.000000X1.100000*%
%ADD17R,1.200000X0.550000*%
%ADD18R,0.850000X0.900000*%
%ADD19R,0.600000X0.600000*%
%ADD20R,0.850000X1.520000*%
%ADD21R,1.520000X0.850000*%
%ADD22R,0.900000X0.900000*%
%ADD23R,0.300000X1.000000*%
%ADD24R,0.600000X1.000000*%
%ADD25R,0.250000X0.610000*%
%ADD26R,0.250000X0.560000*%
%ADD27R,1.150000X7.000000*%
%ADD28R,0.900000X2.200000*%
%ADD29R,0.550000X0.800000*%
%ADD30R,0.550000X0.500000*%
%ADD31R,1.000000X4.600000*%
%ADD32R,1.600000X3.400000*%
%ADD33C,0.450000*%
%ADD34R,0.558800X1.270000*%
%ADD35R,1.270000X0.558800*%
%ADD36R,0.550000X1.200000*%
%ADD37R,4.600000X1.000000*%
%ADD38R,3.400000X1.600000*%
%ADD39R,1.150000X0.700000*%
%ADD40R,0.700000X1.150000*%
%ADD41R,0.700000X0.700000*%
%ADD42R,0.700000X1.300000*%

G36*
X352842Y442863D02*
X352842Y442863D01*
X352886Y442866D01*
X352908Y442882D01*
X352934Y442890D01*
X352963Y442923D01*
X352998Y442949D01*
X353008Y442975D01*
X353026Y442995D01*
X353033Y443039D01*
X353048Y443079D01*
X353043Y443106D01*
X353047Y443133D01*
X353029Y443174D01*
X353020Y443216D01*
X352994Y443252D01*
X352990Y443261D01*
X352985Y443265D01*
X352976Y443276D01*
X328976Y467276D01*
X328938Y467297D01*
X328905Y467326D01*
X328878Y467330D01*
X328854Y467343D01*
X328810Y467340D01*
X328767Y467347D01*
X328742Y467336D01*
X328714Y467334D01*
X328679Y467308D01*
X328639Y467290D01*
X328624Y467267D01*
X328602Y467251D01*
X328586Y467210D01*
X328562Y467174D01*
X328555Y467130D01*
X328552Y467121D01*
X328553Y467114D01*
X328551Y467100D01*
X328551Y443100D01*
X328556Y443084D01*
X328553Y443067D01*
X328575Y443017D01*
X328590Y442966D01*
X328603Y442955D01*
X328610Y442939D01*
X328655Y442909D01*
X328695Y442874D01*
X328712Y442871D01*
X328727Y442862D01*
X328800Y442851D01*
X352800Y442851D01*
X352842Y442863D01*
G37*
G36*
X398600Y43951D02*
X398600Y43951D01*
X398601Y43951D01*
X399669Y43970D01*
X399676Y43975D01*
X399680Y43971D01*
X400717Y44227D01*
X400722Y44234D01*
X400728Y44231D01*
X401682Y44712D01*
X401686Y44719D01*
X401691Y44718D01*
X402515Y45399D01*
X402516Y45407D01*
X402522Y45407D01*
X403173Y46254D01*
X403173Y46262D01*
X403179Y46263D01*
X403626Y47234D01*
X403624Y47242D01*
X403629Y47244D01*
X403848Y48290D01*
X403845Y48297D01*
X403849Y48300D01*
X403849Y60300D01*
X403846Y60305D01*
X403849Y60308D01*
X403669Y61403D01*
X403663Y61409D01*
X403666Y61414D01*
X403247Y62442D01*
X403240Y62446D01*
X403242Y62451D01*
X402605Y63360D01*
X402597Y63363D01*
X402597Y63368D01*
X401774Y64112D01*
X401766Y64113D01*
X401765Y64119D01*
X400797Y64661D01*
X400788Y64660D01*
X400786Y64666D01*
X399722Y64979D01*
X399717Y64977D01*
X399713Y64977D01*
X399711Y64981D01*
X398603Y65049D01*
X398597Y65045D01*
X398593Y65049D01*
X397485Y64879D01*
X397479Y64873D01*
X397474Y64876D01*
X396432Y64464D01*
X396428Y64457D01*
X396423Y64459D01*
X395498Y63825D01*
X395496Y63817D01*
X395490Y63818D01*
X394730Y62995D01*
X394729Y62986D01*
X394723Y62986D01*
X394166Y62014D01*
X394167Y62006D01*
X394161Y62004D01*
X393834Y60932D01*
X393837Y60924D01*
X393832Y60921D01*
X393751Y59804D01*
X393752Y59801D01*
X393751Y59800D01*
X393751Y47800D01*
X393756Y47793D01*
X393752Y47789D01*
X393971Y46845D01*
X393977Y46839D01*
X393975Y46834D01*
X394399Y45962D01*
X394406Y45959D01*
X394404Y45953D01*
X395011Y45197D01*
X395019Y45195D01*
X395019Y45189D01*
X395779Y44588D01*
X395788Y44588D01*
X395789Y44582D01*
X396664Y44164D01*
X396672Y44166D01*
X396674Y44161D01*
X397620Y43949D01*
X397627Y43952D01*
X397631Y43947D01*
X398600Y43951D01*
G37*
G36*
X313181Y43960D02*
X313181Y43960D01*
X313188Y43965D01*
X313192Y43961D01*
X314244Y44211D01*
X314249Y44217D01*
X314254Y44214D01*
X315224Y44691D01*
X315227Y44699D01*
X315233Y44697D01*
X316072Y45378D01*
X316074Y45386D01*
X316080Y45386D01*
X316746Y46237D01*
X316747Y46245D01*
X316752Y46246D01*
X317213Y47223D01*
X317211Y47231D01*
X317217Y47234D01*
X317448Y48289D01*
X317445Y48297D01*
X317449Y48300D01*
X317449Y60300D01*
X317445Y60305D01*
X317449Y60308D01*
X317256Y61414D01*
X317250Y61419D01*
X317253Y61424D01*
X316820Y62459D01*
X316813Y62463D01*
X316815Y62468D01*
X316162Y63381D01*
X316154Y63383D01*
X316155Y63389D01*
X315316Y64133D01*
X315307Y64134D01*
X315307Y64139D01*
X314323Y64678D01*
X314315Y64677D01*
X314313Y64682D01*
X313234Y64989D01*
X313226Y64986D01*
X313223Y64991D01*
X312103Y65049D01*
X312098Y65046D01*
X312095Y65049D01*
X311049Y64931D01*
X311043Y64925D01*
X311038Y64929D01*
X310044Y64581D01*
X310040Y64574D01*
X310035Y64576D01*
X309143Y64016D01*
X309141Y64009D01*
X309135Y64009D01*
X308391Y63265D01*
X308389Y63257D01*
X308384Y63257D01*
X307824Y62365D01*
X307824Y62357D01*
X307819Y62356D01*
X307471Y61362D01*
X307474Y61354D01*
X307469Y61351D01*
X307351Y60306D01*
X307353Y60302D01*
X307351Y60300D01*
X307351Y48300D01*
X307354Y48295D01*
X307351Y48292D01*
X307509Y47296D01*
X307515Y47290D01*
X307512Y47285D01*
X307887Y46349D01*
X307894Y46345D01*
X307892Y46339D01*
X308466Y45510D01*
X308474Y45507D01*
X308473Y45502D01*
X309217Y44821D01*
X309226Y44820D01*
X309226Y44814D01*
X310103Y44316D01*
X310112Y44317D01*
X310114Y44312D01*
X311079Y44021D01*
X311087Y44024D01*
X311090Y44019D01*
X312097Y43951D01*
X312099Y43952D01*
X312100Y43951D01*
X313181Y43960D01*
G37*
G36*
X399104Y4455D02*
X399104Y4455D01*
X399107Y4451D01*
X400183Y4606D01*
X400188Y4612D01*
X400193Y4609D01*
X401207Y4999D01*
X401211Y5006D01*
X401217Y5005D01*
X402119Y5611D01*
X402121Y5619D01*
X402127Y5618D01*
X402871Y6410D01*
X402872Y6418D01*
X402878Y6418D01*
X403427Y7356D01*
X403426Y7364D01*
X403432Y7366D01*
X403759Y8402D01*
X403756Y8410D01*
X403761Y8413D01*
X403849Y9496D01*
X403847Y9499D01*
X403849Y9500D01*
X403849Y15500D01*
X403846Y15504D01*
X403849Y15506D01*
X403699Y16639D01*
X403693Y16645D01*
X403696Y16650D01*
X403298Y17720D01*
X403291Y17724D01*
X403293Y17730D01*
X402666Y18685D01*
X402658Y18688D01*
X402659Y18693D01*
X401836Y19485D01*
X401828Y19486D01*
X401827Y19492D01*
X400848Y20081D01*
X400840Y20080D01*
X400838Y20085D01*
X399753Y20441D01*
X399745Y20439D01*
X399742Y20443D01*
X398605Y20549D01*
X398596Y20544D01*
X398591Y20548D01*
X397454Y20341D01*
X397448Y20335D01*
X397443Y20338D01*
X396381Y19883D01*
X396377Y19876D01*
X396371Y19878D01*
X395436Y19198D01*
X395434Y19190D01*
X395428Y19191D01*
X394668Y18320D01*
X394668Y18312D01*
X394662Y18311D01*
X394115Y17292D01*
X394116Y17284D01*
X394111Y17282D01*
X394107Y17269D01*
X394094Y17220D01*
X394093Y17220D01*
X394094Y17220D01*
X394080Y17171D01*
X394066Y17121D01*
X394053Y17072D01*
X394039Y17023D01*
X394026Y16974D01*
X394012Y16924D01*
X393999Y16875D01*
X393985Y16826D01*
X393971Y16777D01*
X393958Y16727D01*
X393944Y16678D01*
X393931Y16629D01*
X393917Y16580D01*
X393904Y16530D01*
X393890Y16481D01*
X393877Y16432D01*
X393876Y16432D01*
X393863Y16383D01*
X393849Y16333D01*
X393804Y16168D01*
X393807Y16160D01*
X393802Y16157D01*
X393751Y15002D01*
X393752Y15001D01*
X393751Y15000D01*
X393751Y9000D01*
X393755Y8994D01*
X393752Y8991D01*
X393964Y7910D01*
X393970Y7905D01*
X393967Y7900D01*
X394414Y6894D01*
X394421Y6890D01*
X394419Y6884D01*
X395079Y6003D01*
X395087Y6000D01*
X395087Y5995D01*
X395926Y5282D01*
X395934Y5282D01*
X395935Y5276D01*
X396912Y4768D01*
X396920Y4769D01*
X396922Y4764D01*
X397987Y4486D01*
X397995Y4489D01*
X397998Y4485D01*
X399099Y4451D01*
X399104Y4455D01*
G37*
G36*
X312602Y4455D02*
X312602Y4455D01*
X312607Y4451D01*
X313694Y4596D01*
X313700Y4602D01*
X313705Y4599D01*
X314733Y4983D01*
X314738Y4989D01*
X314743Y4988D01*
X315660Y5590D01*
X315663Y5598D01*
X315669Y5597D01*
X316429Y6389D01*
X316430Y6397D01*
X316436Y6398D01*
X317000Y7339D01*
X317000Y7342D01*
X317001Y7343D01*
X317000Y7345D01*
X316999Y7347D01*
X317005Y7349D01*
X317346Y8392D01*
X317344Y8400D01*
X317348Y8403D01*
X317449Y9496D01*
X317447Y9498D01*
X317449Y9500D01*
X317449Y15500D01*
X317447Y15503D01*
X317449Y15505D01*
X317348Y16597D01*
X317343Y16603D01*
X317346Y16608D01*
X317005Y17651D01*
X316998Y17656D01*
X317000Y17661D01*
X316436Y18602D01*
X316428Y18605D01*
X316429Y18611D01*
X315669Y19403D01*
X315661Y19404D01*
X315660Y19410D01*
X314743Y20013D01*
X314735Y20012D01*
X314733Y20018D01*
X313705Y20401D01*
X313697Y20399D01*
X313694Y20404D01*
X312607Y20549D01*
X312599Y20545D01*
X312595Y20549D01*
X311458Y20443D01*
X311452Y20438D01*
X311447Y20441D01*
X310362Y20085D01*
X310357Y20078D01*
X310352Y20081D01*
X309373Y19492D01*
X309370Y19484D01*
X309364Y19485D01*
X308541Y18693D01*
X308540Y18685D01*
X308534Y18685D01*
X307907Y17730D01*
X307908Y17722D01*
X307902Y17720D01*
X307504Y16650D01*
X307506Y16642D01*
X307501Y16639D01*
X307351Y15506D01*
X307354Y15502D01*
X307351Y15500D01*
X307351Y9500D01*
X307354Y9496D01*
X307351Y9494D01*
X307501Y8361D01*
X307507Y8355D01*
X307504Y8350D01*
X307902Y7280D01*
X307909Y7276D01*
X307907Y7270D01*
X308534Y6315D01*
X308542Y6312D01*
X308541Y6307D01*
X309364Y5515D01*
X309372Y5514D01*
X309373Y5508D01*
X310352Y4919D01*
X310360Y4920D01*
X310362Y4915D01*
X311447Y4559D01*
X311455Y4562D01*
X311458Y4557D01*
X312595Y4451D01*
X312602Y4455D01*
G37*
D10*
X435550Y14050D03*
X491550Y14050D03*
D11*
X448550Y50800D03*
X458550Y50800D03*
X468550Y50800D03*
X478550Y50800D03*
D12*
X321700Y431800D03*
X338700Y431800D03*
D13*
X349600Y488400D03*
D14*
X284670Y618800D02*
X284670Y625800D01*
X291670Y625800D01*
X291670Y618800D01*
X284670Y618800D01*
X284670Y621650D02*
X291670Y621650D01*
X291670Y624500D02*
X284670Y624500D01*
X267130Y625800D02*
X267130Y618800D01*
X267130Y625800D02*
X274130Y625800D01*
X274130Y618800D01*
X267130Y618800D01*
X267130Y621650D02*
X274130Y621650D01*
X274130Y624500D02*
X267130Y624500D01*
D15*
X356800Y406400D03*
X379800Y406400D03*
D12*
X321700Y406400D03*
X338700Y406400D03*
X287900Y635000D03*
X270900Y635000D03*
D16*
X381000Y359800D03*
X381000Y376800D03*
X355600Y376800D03*
X355600Y359800D03*
D14*
X652970Y441000D02*
X652970Y448000D01*
X659970Y448000D01*
X659970Y441000D01*
X652970Y441000D01*
X652970Y443850D02*
X659970Y443850D01*
X659970Y446700D02*
X652970Y446700D01*
X635430Y448000D02*
X635430Y441000D01*
X635430Y448000D02*
X642430Y448000D01*
X642430Y441000D01*
X635430Y441000D01*
X635430Y443850D02*
X642430Y443850D01*
X642430Y446700D02*
X635430Y446700D01*
D12*
X656200Y457200D03*
X639200Y457200D03*
D17*
X457501Y358800D03*
X457501Y368300D03*
X457501Y377800D03*
X431499Y377800D03*
X431499Y358800D03*
D16*
X482600Y359800D03*
X482600Y376800D03*
X279400Y376800D03*
X279400Y359800D03*
X304800Y376800D03*
X304800Y359800D03*
D14*
X284670Y542600D02*
X284670Y549600D01*
X291670Y549600D01*
X291670Y542600D01*
X284670Y542600D01*
X284670Y545450D02*
X291670Y545450D01*
X291670Y548300D02*
X284670Y548300D01*
X267130Y549600D02*
X267130Y542600D01*
X267130Y549600D02*
X274130Y549600D01*
X274130Y542600D01*
X267130Y542600D01*
X267130Y545450D02*
X274130Y545450D01*
X274130Y548300D02*
X267130Y548300D01*
D12*
X287900Y558800D03*
X270900Y558800D03*
D14*
X284670Y473400D02*
X284670Y466400D01*
X284670Y473400D02*
X291670Y473400D01*
X291670Y466400D01*
X284670Y466400D01*
X284670Y469250D02*
X291670Y469250D01*
X291670Y472100D02*
X284670Y472100D01*
X267130Y473400D02*
X267130Y466400D01*
X267130Y473400D02*
X274130Y473400D01*
X274130Y466400D01*
X267130Y466400D01*
X267130Y469250D02*
X274130Y469250D01*
X274130Y472100D02*
X267130Y472100D01*
D12*
X287900Y495300D03*
X270900Y495300D03*
D18*
X311700Y139700D03*
X323300Y139700D03*
D12*
X309000Y152400D03*
X326000Y152400D03*
D16*
X330200Y376800D03*
X330200Y359800D03*
D19*
X287100Y152400D03*
X297100Y152400D03*
D20*
X284100Y179500D03*
X295100Y179500D03*
X306100Y179500D03*
X317100Y179500D03*
X328100Y179500D03*
X339100Y179500D03*
X350100Y179500D03*
X361100Y179500D03*
X372100Y179500D03*
X383100Y179500D03*
X394100Y179500D03*
X405100Y179500D03*
X416100Y179500D03*
X427100Y179500D03*
D21*
X455100Y188000D03*
X455100Y199000D03*
X455100Y210000D03*
X455100Y221000D03*
X455100Y232000D03*
X455100Y243000D03*
X455100Y254000D03*
X455100Y265000D03*
X455100Y276000D03*
X455100Y287000D03*
X455100Y298000D03*
X455100Y309000D03*
X455100Y320000D03*
D20*
X427100Y328500D03*
X416100Y328500D03*
X405100Y328500D03*
X394100Y328500D03*
X383100Y328500D03*
X372100Y328500D03*
X361100Y328500D03*
X350100Y328500D03*
X339100Y328500D03*
X328100Y328500D03*
X317100Y328500D03*
X306100Y328500D03*
X295100Y328500D03*
X284100Y328500D03*
D21*
X256100Y320000D03*
X256100Y309000D03*
X256100Y298000D03*
X256100Y287000D03*
X256100Y276000D03*
X256100Y265000D03*
X256100Y254000D03*
X256100Y243000D03*
X256100Y232000D03*
X256100Y221000D03*
X256100Y210000D03*
X256100Y199000D03*
X256100Y188000D03*
D22*
X345100Y264500D03*
X324100Y264500D03*
X303100Y264500D03*
X282100Y264500D03*
X345100Y285000D03*
X324100Y285000D03*
X303100Y285000D03*
X282100Y285000D03*
X345100Y305500D03*
X324100Y305500D03*
X303100Y305500D03*
X282100Y305500D03*
X345100Y202500D03*
X324100Y202500D03*
X303100Y202500D03*
X282100Y202500D03*
X345100Y223000D03*
X324100Y223000D03*
X303100Y223000D03*
X282100Y223000D03*
X345100Y243500D03*
X324100Y243500D03*
X303100Y243500D03*
X282100Y243500D03*
X429100Y264500D03*
X408100Y264500D03*
X387100Y264500D03*
X366100Y264500D03*
X429100Y285000D03*
X408100Y285000D03*
X387100Y285000D03*
X366100Y285000D03*
X429100Y305500D03*
X408100Y305500D03*
X387100Y305500D03*
X366100Y305500D03*
X429100Y202500D03*
X408100Y202500D03*
X387100Y202500D03*
X366100Y202500D03*
X429100Y223000D03*
X408100Y223000D03*
X387100Y223000D03*
X366100Y223000D03*
X429100Y243500D03*
X408100Y243500D03*
X387100Y243500D03*
X366100Y243500D03*
D12*
X414900Y88900D03*
X397900Y88900D03*
X296300Y88900D03*
X313300Y88900D03*
D23*
X363100Y60100D03*
X358100Y60100D03*
D24*
X387850Y60100D03*
X380100Y60100D03*
D23*
X373100Y60100D03*
X368100Y60100D03*
X348100Y60100D03*
X353100Y60100D03*
D24*
X323350Y60100D03*
X331100Y60100D03*
D23*
X338100Y60100D03*
X343100Y60100D03*
D16*
X406400Y359800D03*
X406400Y376800D03*
D12*
X359800Y431800D03*
X376800Y431800D03*
D25*
X337900Y122950D03*
D26*
X342900Y122700D03*
X347900Y122700D03*
X347900Y131300D03*
X342900Y131300D03*
X337900Y131300D03*
D27*
X289050Y35000D03*
D28*
X247650Y81000D03*
D27*
X206250Y35000D03*
D29*
X234800Y280100D03*
D30*
X234800Y288100D03*
X234800Y296100D03*
D29*
X234800Y304100D03*
X221800Y304100D03*
D30*
X221800Y296100D03*
X221800Y288100D03*
D29*
X221800Y280100D03*
X234800Y216600D03*
D30*
X234800Y224600D03*
X234800Y232600D03*
D29*
X234800Y240600D03*
X221800Y240600D03*
D30*
X221800Y232600D03*
X221800Y224600D03*
D29*
X221800Y216600D03*
D16*
X228600Y321700D03*
X228600Y338700D03*
X482600Y338700D03*
X482600Y321700D03*
X482600Y300600D03*
X482600Y283600D03*
X482600Y245500D03*
X482600Y262500D03*
X482600Y224400D03*
X482600Y207400D03*
D31*
X614100Y73100D03*
X554100Y73100D03*
D32*
X638100Y21100D03*
X530100Y21100D03*
D31*
X574100Y73100D03*
X594100Y73100D03*
X156900Y73100D03*
X96900Y73100D03*
D32*
X180900Y21100D03*
X72900Y21100D03*
D31*
X116900Y73100D03*
X136900Y73100D03*
D16*
X685800Y347100D03*
X685800Y364100D03*
D12*
X656200Y127000D03*
X639200Y127000D03*
X59300Y469900D03*
X42300Y469900D03*
D14*
X56070Y460700D02*
X56070Y453700D01*
X56070Y460700D02*
X63070Y460700D01*
X63070Y453700D01*
X56070Y453700D01*
X56070Y456550D02*
X63070Y456550D01*
X63070Y459400D02*
X56070Y459400D01*
X38530Y460700D02*
X38530Y453700D01*
X38530Y460700D02*
X45530Y460700D01*
X45530Y453700D01*
X38530Y453700D01*
X38530Y456550D02*
X45530Y456550D01*
X45530Y459400D02*
X38530Y459400D01*
D33*
X659700Y159675D02*
X659700Y145125D01*
X647700Y145125D02*
X647700Y159675D01*
X635700Y159675D02*
X635700Y145125D01*
D16*
X685800Y385200D03*
X685800Y402200D03*
D34*
X594300Y172974D03*
X602300Y172974D03*
X610300Y172974D03*
X618300Y172974D03*
X626300Y172974D03*
X634300Y172974D03*
X642300Y172974D03*
X650300Y172974D03*
D35*
X665226Y187900D03*
X665226Y195900D03*
X665226Y203900D03*
X665226Y211900D03*
X665226Y219900D03*
X665226Y227900D03*
X665226Y235900D03*
X665226Y243900D03*
D34*
X650300Y258826D03*
X642300Y258826D03*
X634300Y258826D03*
X626300Y258826D03*
X618300Y258826D03*
X610300Y258826D03*
X602300Y258826D03*
X594300Y258826D03*
D35*
X579374Y243900D03*
X579374Y235900D03*
X579374Y227900D03*
X579374Y219900D03*
X579374Y211900D03*
X579374Y203900D03*
X579374Y195900D03*
X579374Y187900D03*
D12*
X592700Y279400D03*
X575700Y279400D03*
D31*
X650400Y610700D03*
X670400Y610700D03*
D32*
X626400Y662700D03*
X694400Y662700D03*
D36*
X390500Y1054401D03*
X381000Y1054401D03*
X371500Y1054401D03*
X371500Y1028399D03*
X390500Y1028399D03*
D16*
X406400Y1049900D03*
X406400Y1032900D03*
D12*
X372500Y1079500D03*
X389500Y1079500D03*
X372500Y1003300D03*
X389500Y1003300D03*
D14*
X591630Y409900D02*
X591630Y402900D01*
X584630Y402900D01*
X584630Y409900D01*
X591630Y409900D01*
X591630Y405750D02*
X584630Y405750D01*
X584630Y408600D02*
X591630Y408600D01*
X609170Y409900D02*
X609170Y402900D01*
X602170Y402900D01*
X602170Y409900D01*
X609170Y409900D01*
X609170Y405750D02*
X602170Y405750D01*
X602170Y408600D02*
X609170Y408600D01*
D12*
X605400Y419100D03*
X588400Y419100D03*
D37*
X303700Y1031400D03*
X303700Y1051400D03*
D38*
X251700Y1007400D03*
X251700Y1075400D03*
D15*
X443300Y1079500D03*
X420300Y1079500D03*
D16*
X63500Y220100D03*
X63500Y237100D03*
X203200Y364100D03*
X203200Y347100D03*
X88900Y220100D03*
X88900Y237100D03*
X38100Y334400D03*
X38100Y351400D03*
X50800Y334400D03*
X50800Y351400D03*
X25400Y334400D03*
X25400Y351400D03*
D39*
X111150Y311000D03*
X111150Y301000D03*
X111150Y291000D03*
X111150Y281000D03*
X111150Y271000D03*
X111150Y261000D03*
X111150Y251000D03*
X111150Y241000D03*
X111150Y231000D03*
X111150Y221000D03*
D40*
X132400Y221750D03*
X142400Y221750D03*
X152400Y221750D03*
X162400Y221750D03*
X172400Y221750D03*
D39*
X193650Y221000D03*
X193650Y231000D03*
X193650Y241000D03*
X193650Y251000D03*
X193650Y261000D03*
X193650Y271000D03*
X193650Y281000D03*
X193650Y291000D03*
X193650Y301000D03*
X193650Y311000D03*
D40*
X172400Y310250D03*
X162400Y310250D03*
X152400Y310250D03*
X142400Y310250D03*
X132400Y310250D03*
D41*
X124900Y296500D03*
X124900Y285500D03*
X124900Y274500D03*
X124900Y263500D03*
X124900Y252500D03*
X124900Y241500D03*
X179900Y241500D03*
X179900Y252500D03*
X179900Y263500D03*
X179900Y274500D03*
X179900Y285500D03*
X179900Y296500D03*
X168900Y296500D03*
X157900Y296500D03*
X146900Y296500D03*
X135900Y296500D03*
X192400Y322500D03*
X182400Y322500D03*
X172400Y322500D03*
X162400Y322500D03*
X152400Y322500D03*
X142400Y322500D03*
X132400Y322500D03*
X122400Y322500D03*
X112400Y322500D03*
X135150Y248750D03*
X146650Y248750D03*
X158150Y248750D03*
X169650Y248750D03*
X146650Y260250D03*
X158150Y260250D03*
X135150Y271750D03*
X146650Y271750D03*
X158150Y271750D03*
X169650Y271750D03*
X146650Y283250D03*
X158150Y283250D03*
X108900Y211000D03*
X108900Y185500D03*
X195900Y185500D03*
X195900Y211000D03*
D42*
X27100Y378950D03*
X38100Y378950D03*
X49100Y378950D03*
X49100Y408450D03*
X38100Y408450D03*
X27100Y408450D03*
D16*
X177800Y347100D03*
X177800Y364100D03*
D12*
X410600Y635000D03*
X427600Y635000D03*
D14*
X424370Y625800D02*
X424370Y618800D01*
X424370Y625800D02*
X431370Y625800D01*
X431370Y618800D01*
X424370Y618800D01*
X424370Y621650D02*
X431370Y621650D01*
X431370Y624500D02*
X424370Y624500D01*
X406830Y625800D02*
X406830Y618800D01*
X406830Y625800D02*
X413830Y625800D01*
X413830Y618800D01*
X406830Y618800D01*
X406830Y621650D02*
X413830Y621650D01*
X413830Y624500D02*
X406830Y624500D01*
D12*
X410600Y558800D03*
X427600Y558800D03*
D14*
X424370Y549600D02*
X424370Y542600D01*
X424370Y549600D02*
X431370Y549600D01*
X431370Y542600D01*
X424370Y542600D01*
X424370Y545450D02*
X431370Y545450D01*
X431370Y548300D02*
X424370Y548300D01*
X406830Y549600D02*
X406830Y542600D01*
X406830Y549600D02*
X413830Y549600D01*
X413830Y542600D01*
X406830Y542600D01*
X406830Y545450D02*
X413830Y545450D01*
X413830Y548300D02*
X406830Y548300D01*
D12*
X410600Y482600D03*
X427600Y482600D03*
D14*
X424370Y473400D02*
X424370Y466400D01*
X424370Y473400D02*
X431370Y473400D01*
X431370Y466400D01*
X424370Y466400D01*
X424370Y469250D02*
X431370Y469250D01*
X431370Y472100D02*
X424370Y472100D01*
X406830Y473400D02*
X406830Y466400D01*
X406830Y473400D02*
X413830Y473400D01*
X413830Y466400D01*
X406830Y466400D01*
X406830Y469250D02*
X413830Y469250D01*
X413830Y472100D02*
X406830Y472100D01*
D31*
X40800Y623400D03*
X60800Y623400D03*
D32*
X16800Y675400D03*
X84800Y675400D03*
M02*
