G04 EAGLE Gerber RS-274X export*
G75*
%MOMM*%
%FSLAX34Y34*%
%LPD*%
%INInner Layer 2*%
%IPPOS*%
%AMOC8*
5,1,8,0,0,1.08239X$1,22.5*%
G01*
%ADD10C,0.755600*%
%ADD11C,1.524000*%
%ADD12C,0.660400*%
%ADD13C,0.558800*%
%ADD14C,0.177800*%
%ADD15C,0.736600*%
%ADD16C,0.705600*%

G36*
X301863Y49D02*
X301863Y49D01*
X301892Y47D01*
X301984Y69D01*
X302077Y84D01*
X302103Y98D01*
X302131Y105D01*
X302211Y155D01*
X302295Y200D01*
X302315Y221D01*
X302339Y236D01*
X302399Y309D01*
X302464Y378D01*
X302476Y404D01*
X302495Y427D01*
X302528Y515D01*
X302568Y601D01*
X302571Y630D01*
X302581Y657D01*
X302584Y752D01*
X302595Y845D01*
X302589Y874D01*
X302590Y903D01*
X302562Y994D01*
X302542Y1086D01*
X302527Y1111D01*
X302519Y1139D01*
X302430Y1281D01*
X302095Y1701D01*
X301552Y2827D01*
X301274Y4045D01*
X301274Y4446D01*
X301264Y4510D01*
X301263Y4576D01*
X301240Y4656D01*
X301234Y4688D01*
X301225Y4705D01*
X301216Y4737D01*
X300744Y5877D01*
X300576Y6721D01*
X303816Y6721D01*
X303816Y4670D01*
X303891Y4002D01*
X303892Y4002D01*
X303891Y4001D01*
X304113Y3367D01*
X304114Y3367D01*
X304114Y3366D01*
X304471Y2797D01*
X304472Y2797D01*
X304947Y2322D01*
X304947Y2321D01*
X305516Y1964D01*
X305517Y1964D01*
X305517Y1963D01*
X306151Y1741D01*
X306152Y1741D01*
X306820Y1666D01*
X307488Y1741D01*
X307488Y1742D01*
X307489Y1741D01*
X308123Y1963D01*
X308123Y1964D01*
X308124Y1964D01*
X308693Y2321D01*
X308693Y2322D01*
X309169Y2797D01*
X309527Y3366D01*
X309526Y3367D01*
X309527Y3367D01*
X309749Y4001D01*
X309749Y4002D01*
X309750Y4007D01*
X309750Y4011D01*
X309751Y4020D01*
X309751Y4024D01*
X309752Y4024D01*
X309751Y4024D01*
X309752Y4032D01*
X309752Y4033D01*
X309753Y4037D01*
X309754Y4045D01*
X309754Y4049D01*
X309754Y4050D01*
X309755Y4058D01*
X309756Y4062D01*
X309757Y4071D01*
X309757Y4075D01*
X309758Y4083D01*
X309758Y4084D01*
X309759Y4088D01*
X309760Y4096D01*
X309760Y4100D01*
X309760Y4101D01*
X309761Y4105D01*
X309761Y4109D01*
X309762Y4113D01*
X309762Y4117D01*
X309762Y4118D01*
X309763Y4122D01*
X309763Y4126D01*
X309763Y4130D01*
X309764Y4139D01*
X309765Y4143D01*
X309766Y4151D01*
X309766Y4152D01*
X309766Y4156D01*
X309767Y4164D01*
X309768Y4168D01*
X309768Y4169D01*
X309769Y4177D01*
X309769Y4181D01*
X309770Y4190D01*
X309771Y4194D01*
X309772Y4202D01*
X309772Y4203D01*
X309772Y4207D01*
X309773Y4215D01*
X309774Y4219D01*
X309774Y4220D01*
X309774Y4228D01*
X309775Y4228D01*
X309774Y4228D01*
X309775Y4232D01*
X309776Y4241D01*
X309776Y4245D01*
X309777Y4249D01*
X309777Y4253D01*
X309777Y4254D01*
X309778Y4258D01*
X309778Y4262D01*
X309779Y4266D01*
X309779Y4270D01*
X309779Y4271D01*
X309780Y4275D01*
X309781Y4283D01*
X309781Y4287D01*
X309781Y4288D01*
X309782Y4296D01*
X309783Y4300D01*
X309784Y4309D01*
X309784Y4313D01*
X309785Y4321D01*
X309785Y4322D01*
X309785Y4326D01*
X309786Y4326D01*
X309785Y4326D01*
X309786Y4334D01*
X309787Y4338D01*
X309787Y4339D01*
X309788Y4347D01*
X309788Y4351D01*
X309789Y4360D01*
X309790Y4364D01*
X309791Y4372D01*
X309791Y4373D01*
X309791Y4377D01*
X309792Y4385D01*
X309793Y4389D01*
X309793Y4390D01*
X309794Y4398D01*
X309794Y4402D01*
X309795Y4406D01*
X309795Y4407D01*
X309795Y4411D01*
X309796Y4415D01*
X309796Y4419D01*
X309797Y4423D01*
X309797Y4424D01*
X309797Y4428D01*
X309797Y4432D01*
X309798Y4440D01*
X309798Y4441D01*
X309799Y4445D01*
X309800Y4453D01*
X309800Y4457D01*
X309800Y4458D01*
X309801Y4466D01*
X309802Y4470D01*
X309803Y4479D01*
X309803Y4483D01*
X309804Y4491D01*
X309804Y4492D01*
X309805Y4496D01*
X309806Y4504D01*
X309806Y4508D01*
X309806Y4509D01*
X309807Y4517D01*
X309808Y4521D01*
X309808Y4530D01*
X309809Y4530D01*
X309808Y4530D01*
X309809Y4534D01*
X309810Y4542D01*
X309810Y4543D01*
X309810Y4547D01*
X309811Y4555D01*
X309812Y4559D01*
X309812Y4560D01*
X309812Y4564D01*
X309813Y4568D01*
X309813Y4572D01*
X309814Y4576D01*
X309814Y4577D01*
X309815Y4585D01*
X309815Y4589D01*
X309816Y4598D01*
X309817Y4602D01*
X309818Y4610D01*
X309818Y4611D01*
X309818Y4615D01*
X309819Y4623D01*
X309819Y4627D01*
X309820Y4627D01*
X309819Y4628D01*
X309820Y4636D01*
X309821Y4640D01*
X309822Y4649D01*
X309822Y4653D01*
X309823Y4661D01*
X309823Y4662D01*
X309824Y4666D01*
X309824Y4670D01*
X309824Y6721D01*
X313064Y6721D01*
X312896Y5877D01*
X312424Y4737D01*
X312409Y4673D01*
X312384Y4612D01*
X312375Y4529D01*
X312368Y4497D01*
X312369Y4478D01*
X312366Y4445D01*
X312366Y4045D01*
X312088Y2827D01*
X311545Y1701D01*
X311210Y1281D01*
X311196Y1255D01*
X311176Y1234D01*
X311136Y1148D01*
X311090Y1066D01*
X311085Y1037D01*
X311072Y1011D01*
X311062Y917D01*
X311044Y824D01*
X311048Y795D01*
X311045Y767D01*
X311065Y674D01*
X311078Y581D01*
X311091Y555D01*
X311098Y526D01*
X311146Y445D01*
X311188Y361D01*
X311209Y340D01*
X311224Y315D01*
X311295Y254D01*
X311362Y187D01*
X311388Y174D01*
X311411Y155D01*
X311498Y120D01*
X311583Y78D01*
X311612Y74D01*
X311639Y63D01*
X311805Y45D01*
X388195Y45D01*
X388223Y49D01*
X388252Y47D01*
X388344Y69D01*
X388437Y84D01*
X388463Y98D01*
X388491Y105D01*
X388571Y155D01*
X388655Y200D01*
X388675Y221D01*
X388699Y236D01*
X388759Y309D01*
X388824Y378D01*
X388836Y404D01*
X388855Y427D01*
X388888Y515D01*
X388928Y601D01*
X388931Y630D01*
X388941Y657D01*
X388944Y752D01*
X388955Y845D01*
X388949Y874D01*
X388950Y903D01*
X388923Y994D01*
X388902Y1086D01*
X388888Y1111D01*
X388879Y1139D01*
X388790Y1281D01*
X388455Y1701D01*
X387912Y2827D01*
X387634Y4045D01*
X387634Y4445D01*
X387624Y4510D01*
X387623Y4576D01*
X387600Y4656D01*
X387594Y4688D01*
X387585Y4705D01*
X387576Y4737D01*
X387104Y5877D01*
X386936Y6721D01*
X390176Y6721D01*
X390176Y4670D01*
X390251Y4002D01*
X390252Y4002D01*
X390251Y4001D01*
X390473Y3367D01*
X390474Y3367D01*
X390474Y3366D01*
X390831Y2797D01*
X390832Y2797D01*
X391307Y2322D01*
X391307Y2321D01*
X391876Y1964D01*
X391877Y1964D01*
X391877Y1963D01*
X392511Y1741D01*
X392512Y1741D01*
X393180Y1666D01*
X393848Y1741D01*
X393848Y1742D01*
X393849Y1741D01*
X394483Y1963D01*
X394483Y1964D01*
X394484Y1964D01*
X395053Y2321D01*
X395053Y2322D01*
X395529Y2797D01*
X395887Y3366D01*
X395886Y3367D01*
X395887Y3367D01*
X396109Y4001D01*
X396109Y4002D01*
X396110Y4007D01*
X396110Y4011D01*
X396111Y4020D01*
X396111Y4024D01*
X396112Y4024D01*
X396111Y4024D01*
X396112Y4032D01*
X396112Y4033D01*
X396113Y4037D01*
X396114Y4045D01*
X396114Y4049D01*
X396114Y4050D01*
X396115Y4058D01*
X396116Y4062D01*
X396117Y4071D01*
X396117Y4075D01*
X396118Y4083D01*
X396118Y4084D01*
X396119Y4088D01*
X396120Y4096D01*
X396120Y4100D01*
X396120Y4101D01*
X396121Y4105D01*
X396121Y4109D01*
X396122Y4113D01*
X396122Y4117D01*
X396122Y4118D01*
X396123Y4122D01*
X396123Y4126D01*
X396123Y4130D01*
X396124Y4139D01*
X396125Y4143D01*
X396126Y4151D01*
X396126Y4152D01*
X396126Y4156D01*
X396127Y4164D01*
X396128Y4168D01*
X396128Y4169D01*
X396129Y4177D01*
X396129Y4181D01*
X396130Y4190D01*
X396131Y4194D01*
X396132Y4202D01*
X396132Y4203D01*
X396132Y4207D01*
X396133Y4215D01*
X396134Y4219D01*
X396134Y4220D01*
X396134Y4228D01*
X396135Y4228D01*
X396134Y4228D01*
X396135Y4232D01*
X396136Y4241D01*
X396136Y4245D01*
X396137Y4249D01*
X396137Y4253D01*
X396137Y4254D01*
X396138Y4258D01*
X396138Y4262D01*
X396139Y4266D01*
X396139Y4270D01*
X396139Y4271D01*
X396140Y4275D01*
X396141Y4283D01*
X396141Y4287D01*
X396141Y4288D01*
X396142Y4296D01*
X396143Y4300D01*
X396144Y4309D01*
X396144Y4313D01*
X396145Y4321D01*
X396145Y4322D01*
X396145Y4326D01*
X396146Y4326D01*
X396145Y4326D01*
X396146Y4334D01*
X396147Y4338D01*
X396147Y4339D01*
X396148Y4347D01*
X396148Y4351D01*
X396149Y4360D01*
X396150Y4364D01*
X396151Y4372D01*
X396151Y4373D01*
X396151Y4377D01*
X396152Y4385D01*
X396153Y4389D01*
X396153Y4390D01*
X396154Y4398D01*
X396154Y4402D01*
X396155Y4406D01*
X396155Y4407D01*
X396155Y4411D01*
X396156Y4415D01*
X396156Y4419D01*
X396157Y4423D01*
X396157Y4424D01*
X396157Y4428D01*
X396157Y4432D01*
X396158Y4440D01*
X396158Y4441D01*
X396159Y4445D01*
X396160Y4453D01*
X396160Y4457D01*
X396160Y4458D01*
X396161Y4466D01*
X396162Y4470D01*
X396163Y4479D01*
X396163Y4483D01*
X396164Y4491D01*
X396164Y4492D01*
X396165Y4496D01*
X396166Y4504D01*
X396166Y4508D01*
X396166Y4509D01*
X396167Y4517D01*
X396168Y4521D01*
X396168Y4530D01*
X396169Y4530D01*
X396168Y4530D01*
X396169Y4534D01*
X396170Y4542D01*
X396170Y4543D01*
X396170Y4547D01*
X396171Y4555D01*
X396172Y4559D01*
X396172Y4560D01*
X396172Y4564D01*
X396173Y4568D01*
X396173Y4572D01*
X396174Y4576D01*
X396174Y4577D01*
X396175Y4585D01*
X396175Y4589D01*
X396176Y4598D01*
X396177Y4602D01*
X396178Y4610D01*
X396178Y4611D01*
X396178Y4615D01*
X396179Y4623D01*
X396179Y4627D01*
X396180Y4627D01*
X396179Y4628D01*
X396180Y4636D01*
X396181Y4640D01*
X396182Y4649D01*
X396182Y4653D01*
X396183Y4661D01*
X396183Y4662D01*
X396184Y4666D01*
X396184Y4670D01*
X396184Y6721D01*
X399424Y6721D01*
X399256Y5877D01*
X398784Y4737D01*
X398769Y4673D01*
X398744Y4612D01*
X398735Y4529D01*
X398728Y4497D01*
X398729Y4478D01*
X398726Y4446D01*
X398726Y4045D01*
X398448Y2827D01*
X397905Y1701D01*
X397570Y1281D01*
X397556Y1255D01*
X397536Y1234D01*
X397496Y1148D01*
X397450Y1066D01*
X397445Y1037D01*
X397432Y1011D01*
X397422Y917D01*
X397404Y824D01*
X397408Y795D01*
X397405Y767D01*
X397425Y674D01*
X397438Y581D01*
X397451Y555D01*
X397457Y526D01*
X397506Y445D01*
X397548Y361D01*
X397569Y340D01*
X397584Y315D01*
X397655Y254D01*
X397722Y187D01*
X397748Y174D01*
X397771Y155D01*
X397858Y120D01*
X397943Y78D01*
X397972Y74D01*
X397999Y63D01*
X398165Y45D01*
X416134Y45D01*
X416163Y49D01*
X416192Y47D01*
X416284Y69D01*
X416377Y84D01*
X416403Y98D01*
X416431Y105D01*
X416511Y155D01*
X416595Y200D01*
X416615Y221D01*
X416639Y236D01*
X416699Y309D01*
X416764Y378D01*
X416776Y404D01*
X416795Y427D01*
X416828Y515D01*
X416868Y601D01*
X416871Y630D01*
X416881Y657D01*
X416884Y752D01*
X416895Y845D01*
X416889Y874D01*
X416890Y903D01*
X416862Y994D01*
X416842Y1086D01*
X416827Y1111D01*
X416819Y1139D01*
X416730Y1281D01*
X416395Y1701D01*
X415852Y2827D01*
X415574Y4045D01*
X415574Y4446D01*
X415564Y4510D01*
X415563Y4576D01*
X415540Y4656D01*
X415534Y4688D01*
X415525Y4705D01*
X415516Y4737D01*
X415044Y5877D01*
X414876Y6721D01*
X418116Y6721D01*
X418116Y4670D01*
X418191Y4002D01*
X418192Y4002D01*
X418191Y4001D01*
X418413Y3367D01*
X418414Y3367D01*
X418414Y3366D01*
X418771Y2797D01*
X418772Y2797D01*
X419247Y2322D01*
X419247Y2321D01*
X419816Y1964D01*
X419817Y1964D01*
X419817Y1963D01*
X420451Y1741D01*
X420452Y1741D01*
X421120Y1666D01*
X421788Y1741D01*
X421788Y1742D01*
X421789Y1741D01*
X422423Y1963D01*
X422423Y1964D01*
X422424Y1964D01*
X422993Y2321D01*
X422993Y2322D01*
X423469Y2797D01*
X423827Y3366D01*
X423826Y3367D01*
X423827Y3367D01*
X424049Y4001D01*
X424049Y4002D01*
X424050Y4007D01*
X424050Y4011D01*
X424051Y4020D01*
X424051Y4024D01*
X424052Y4024D01*
X424051Y4024D01*
X424052Y4032D01*
X424052Y4033D01*
X424053Y4037D01*
X424054Y4045D01*
X424054Y4049D01*
X424054Y4050D01*
X424055Y4058D01*
X424056Y4062D01*
X424057Y4071D01*
X424057Y4075D01*
X424058Y4083D01*
X424058Y4084D01*
X424059Y4088D01*
X424060Y4096D01*
X424060Y4100D01*
X424060Y4101D01*
X424061Y4105D01*
X424061Y4109D01*
X424062Y4113D01*
X424062Y4117D01*
X424062Y4118D01*
X424063Y4122D01*
X424063Y4126D01*
X424063Y4130D01*
X424064Y4139D01*
X424065Y4143D01*
X424066Y4151D01*
X424066Y4152D01*
X424066Y4156D01*
X424067Y4164D01*
X424068Y4168D01*
X424068Y4169D01*
X424069Y4177D01*
X424069Y4181D01*
X424070Y4190D01*
X424071Y4194D01*
X424072Y4202D01*
X424072Y4203D01*
X424072Y4207D01*
X424073Y4215D01*
X424074Y4219D01*
X424074Y4220D01*
X424074Y4228D01*
X424075Y4228D01*
X424074Y4228D01*
X424075Y4232D01*
X424076Y4241D01*
X424076Y4245D01*
X424077Y4249D01*
X424077Y4253D01*
X424077Y4254D01*
X424078Y4258D01*
X424078Y4262D01*
X424079Y4266D01*
X424079Y4270D01*
X424079Y4271D01*
X424080Y4275D01*
X424081Y4283D01*
X424081Y4287D01*
X424081Y4288D01*
X424082Y4296D01*
X424083Y4300D01*
X424084Y4309D01*
X424084Y4313D01*
X424085Y4321D01*
X424085Y4322D01*
X424085Y4326D01*
X424086Y4326D01*
X424085Y4326D01*
X424086Y4334D01*
X424087Y4338D01*
X424087Y4339D01*
X424088Y4347D01*
X424088Y4351D01*
X424089Y4360D01*
X424090Y4364D01*
X424091Y4372D01*
X424091Y4373D01*
X424091Y4377D01*
X424092Y4385D01*
X424093Y4389D01*
X424093Y4390D01*
X424094Y4398D01*
X424094Y4402D01*
X424095Y4406D01*
X424095Y4407D01*
X424095Y4411D01*
X424096Y4415D01*
X424096Y4419D01*
X424097Y4423D01*
X424097Y4424D01*
X424097Y4428D01*
X424097Y4432D01*
X424098Y4440D01*
X424098Y4441D01*
X424099Y4445D01*
X424100Y4453D01*
X424100Y4457D01*
X424100Y4458D01*
X424101Y4466D01*
X424102Y4470D01*
X424103Y4479D01*
X424103Y4483D01*
X424104Y4491D01*
X424104Y4492D01*
X424105Y4496D01*
X424106Y4504D01*
X424106Y4508D01*
X424106Y4509D01*
X424107Y4517D01*
X424108Y4521D01*
X424108Y4530D01*
X424109Y4530D01*
X424108Y4530D01*
X424109Y4534D01*
X424110Y4542D01*
X424110Y4543D01*
X424110Y4547D01*
X424111Y4555D01*
X424112Y4559D01*
X424112Y4560D01*
X424112Y4564D01*
X424113Y4568D01*
X424113Y4572D01*
X424114Y4576D01*
X424114Y4577D01*
X424115Y4585D01*
X424115Y4589D01*
X424116Y4598D01*
X424117Y4602D01*
X424118Y4610D01*
X424118Y4611D01*
X424118Y4615D01*
X424119Y4623D01*
X424119Y4627D01*
X424120Y4627D01*
X424119Y4628D01*
X424120Y4636D01*
X424121Y4640D01*
X424122Y4649D01*
X424122Y4653D01*
X424123Y4661D01*
X424123Y4662D01*
X424124Y4666D01*
X424124Y4670D01*
X424124Y6721D01*
X427364Y6721D01*
X427196Y5877D01*
X426724Y4737D01*
X426709Y4673D01*
X426684Y4612D01*
X426675Y4529D01*
X426668Y4497D01*
X426669Y4478D01*
X426666Y4445D01*
X426666Y4045D01*
X426388Y2827D01*
X425845Y1701D01*
X425510Y1281D01*
X425496Y1255D01*
X425476Y1234D01*
X425436Y1148D01*
X425390Y1066D01*
X425385Y1037D01*
X425372Y1011D01*
X425362Y917D01*
X425344Y824D01*
X425348Y795D01*
X425345Y767D01*
X425365Y674D01*
X425378Y581D01*
X425391Y555D01*
X425398Y526D01*
X425446Y445D01*
X425488Y361D01*
X425509Y340D01*
X425524Y315D01*
X425595Y254D01*
X425662Y187D01*
X425688Y174D01*
X425711Y155D01*
X425798Y120D01*
X425883Y78D01*
X425912Y74D01*
X425939Y63D01*
X426105Y45D01*
X502494Y45D01*
X502523Y49D01*
X502552Y47D01*
X502644Y69D01*
X502737Y84D01*
X502763Y98D01*
X502791Y105D01*
X502871Y155D01*
X502955Y200D01*
X502975Y221D01*
X502999Y236D01*
X503059Y310D01*
X503124Y378D01*
X503136Y404D01*
X503155Y427D01*
X503188Y515D01*
X503228Y601D01*
X503231Y630D01*
X503241Y657D01*
X503244Y752D01*
X503255Y845D01*
X503249Y874D01*
X503250Y903D01*
X503223Y993D01*
X503202Y1086D01*
X503187Y1111D01*
X503179Y1139D01*
X503090Y1281D01*
X502755Y1701D01*
X502212Y2827D01*
X501934Y4045D01*
X501934Y4445D01*
X501924Y4510D01*
X501923Y4576D01*
X501900Y4656D01*
X501894Y4688D01*
X501885Y4705D01*
X501876Y4737D01*
X501404Y5877D01*
X501236Y6721D01*
X504476Y6721D01*
X504476Y4670D01*
X504551Y4002D01*
X504552Y4002D01*
X504551Y4001D01*
X504773Y3367D01*
X504774Y3367D01*
X504774Y3366D01*
X505131Y2797D01*
X505132Y2797D01*
X505607Y2322D01*
X505607Y2321D01*
X506176Y1964D01*
X506177Y1964D01*
X506177Y1963D01*
X506811Y1741D01*
X506812Y1741D01*
X507480Y1666D01*
X508148Y1741D01*
X508148Y1742D01*
X508149Y1741D01*
X508783Y1963D01*
X508783Y1964D01*
X508784Y1964D01*
X509353Y2321D01*
X509353Y2322D01*
X509829Y2797D01*
X510187Y3366D01*
X510186Y3367D01*
X510187Y3367D01*
X510409Y4001D01*
X510409Y4002D01*
X510410Y4007D01*
X510410Y4011D01*
X510411Y4020D01*
X510411Y4024D01*
X510412Y4024D01*
X510411Y4024D01*
X510412Y4032D01*
X510412Y4033D01*
X510413Y4037D01*
X510414Y4045D01*
X510414Y4049D01*
X510414Y4050D01*
X510415Y4058D01*
X510416Y4062D01*
X510417Y4071D01*
X510417Y4075D01*
X510418Y4083D01*
X510418Y4084D01*
X510419Y4088D01*
X510420Y4096D01*
X510420Y4100D01*
X510420Y4101D01*
X510421Y4105D01*
X510421Y4109D01*
X510422Y4113D01*
X510422Y4117D01*
X510422Y4118D01*
X510423Y4122D01*
X510423Y4126D01*
X510423Y4130D01*
X510424Y4139D01*
X510425Y4143D01*
X510426Y4151D01*
X510426Y4152D01*
X510426Y4156D01*
X510427Y4164D01*
X510428Y4168D01*
X510428Y4169D01*
X510429Y4177D01*
X510429Y4181D01*
X510430Y4190D01*
X510431Y4194D01*
X510432Y4202D01*
X510432Y4203D01*
X510432Y4207D01*
X510433Y4215D01*
X510434Y4219D01*
X510434Y4220D01*
X510434Y4228D01*
X510435Y4228D01*
X510434Y4228D01*
X510435Y4232D01*
X510436Y4241D01*
X510436Y4245D01*
X510437Y4249D01*
X510437Y4253D01*
X510437Y4254D01*
X510438Y4258D01*
X510438Y4262D01*
X510439Y4266D01*
X510439Y4270D01*
X510439Y4271D01*
X510440Y4275D01*
X510441Y4283D01*
X510441Y4287D01*
X510441Y4288D01*
X510442Y4296D01*
X510443Y4300D01*
X510444Y4309D01*
X510444Y4313D01*
X510445Y4321D01*
X510445Y4322D01*
X510445Y4326D01*
X510446Y4326D01*
X510445Y4326D01*
X510446Y4334D01*
X510447Y4338D01*
X510447Y4339D01*
X510448Y4347D01*
X510448Y4351D01*
X510449Y4360D01*
X510450Y4364D01*
X510451Y4372D01*
X510451Y4373D01*
X510451Y4377D01*
X510452Y4385D01*
X510453Y4389D01*
X510453Y4390D01*
X510454Y4398D01*
X510454Y4402D01*
X510455Y4406D01*
X510455Y4407D01*
X510455Y4411D01*
X510456Y4415D01*
X510456Y4419D01*
X510457Y4423D01*
X510457Y4424D01*
X510457Y4428D01*
X510457Y4432D01*
X510458Y4440D01*
X510458Y4441D01*
X510459Y4445D01*
X510460Y4453D01*
X510460Y4457D01*
X510460Y4458D01*
X510461Y4466D01*
X510462Y4470D01*
X510463Y4479D01*
X510463Y4483D01*
X510464Y4491D01*
X510464Y4492D01*
X510465Y4496D01*
X510466Y4504D01*
X510466Y4508D01*
X510466Y4509D01*
X510467Y4517D01*
X510468Y4521D01*
X510468Y4530D01*
X510469Y4530D01*
X510468Y4530D01*
X510469Y4534D01*
X510470Y4542D01*
X510470Y4543D01*
X510470Y4547D01*
X510471Y4555D01*
X510472Y4559D01*
X510472Y4560D01*
X510472Y4564D01*
X510473Y4568D01*
X510473Y4572D01*
X510474Y4576D01*
X510474Y4577D01*
X510475Y4585D01*
X510475Y4589D01*
X510476Y4598D01*
X510477Y4602D01*
X510478Y4610D01*
X510478Y4611D01*
X510478Y4615D01*
X510479Y4623D01*
X510479Y4627D01*
X510480Y4627D01*
X510479Y4628D01*
X510480Y4636D01*
X510481Y4640D01*
X510482Y4649D01*
X510482Y4653D01*
X510483Y4661D01*
X510483Y4662D01*
X510484Y4666D01*
X510484Y4670D01*
X510484Y6721D01*
X513724Y6721D01*
X513556Y5877D01*
X513084Y4737D01*
X513069Y4673D01*
X513044Y4612D01*
X513035Y4529D01*
X513028Y4497D01*
X513029Y4478D01*
X513026Y4446D01*
X513026Y4045D01*
X512748Y2827D01*
X512205Y1701D01*
X511870Y1281D01*
X511856Y1255D01*
X511836Y1234D01*
X511796Y1148D01*
X511750Y1066D01*
X511745Y1037D01*
X511732Y1011D01*
X511722Y917D01*
X511704Y824D01*
X511708Y795D01*
X511705Y767D01*
X511725Y674D01*
X511738Y581D01*
X511751Y555D01*
X511758Y526D01*
X511806Y445D01*
X511848Y361D01*
X511869Y340D01*
X511884Y315D01*
X511955Y254D01*
X512022Y187D01*
X512048Y174D01*
X512071Y155D01*
X512158Y120D01*
X512243Y78D01*
X512272Y74D01*
X512299Y63D01*
X512465Y45D01*
X636444Y45D01*
X636464Y48D01*
X636483Y46D01*
X636585Y68D01*
X636687Y84D01*
X636704Y94D01*
X636724Y98D01*
X636813Y151D01*
X636904Y200D01*
X636918Y214D01*
X636935Y224D01*
X637002Y303D01*
X637074Y378D01*
X637082Y396D01*
X637095Y411D01*
X637134Y507D01*
X637177Y601D01*
X637179Y621D01*
X637187Y639D01*
X637205Y806D01*
X637205Y31158D01*
X638842Y32795D01*
X653912Y32795D01*
X654001Y32809D01*
X654090Y32816D01*
X654121Y32829D01*
X654155Y32834D01*
X654234Y32876D01*
X654317Y32911D01*
X654342Y32934D01*
X654372Y32950D01*
X654434Y33014D01*
X654501Y33074D01*
X654518Y33103D01*
X654542Y33128D01*
X654579Y33209D01*
X654624Y33287D01*
X654635Y33329D01*
X654645Y33351D01*
X654649Y33383D01*
X654666Y33449D01*
X661799Y83837D01*
X661799Y83844D01*
X661801Y83854D01*
X674521Y191001D01*
X674520Y191011D01*
X674523Y191024D01*
X684026Y298505D01*
X684025Y298512D01*
X684027Y298522D01*
X687564Y352265D01*
X687562Y352284D01*
X687565Y352315D01*
X687565Y494694D01*
X687562Y494714D01*
X687564Y494733D01*
X687542Y494835D01*
X687526Y494937D01*
X687516Y494954D01*
X687512Y494974D01*
X687459Y495063D01*
X687410Y495154D01*
X687396Y495168D01*
X687386Y495185D01*
X687307Y495252D01*
X687232Y495324D01*
X687214Y495332D01*
X687199Y495345D01*
X687103Y495384D01*
X687009Y495427D01*
X686989Y495429D01*
X686971Y495437D01*
X686804Y495455D01*
X630279Y495455D01*
X619871Y498837D01*
X611019Y505269D01*
X604587Y514121D01*
X601205Y524529D01*
X601205Y535471D01*
X604587Y545879D01*
X611019Y554731D01*
X619871Y561163D01*
X630279Y564545D01*
X686804Y564545D01*
X686824Y564548D01*
X686843Y564546D01*
X686945Y564568D01*
X687047Y564584D01*
X687064Y564594D01*
X687084Y564598D01*
X687173Y564651D01*
X687264Y564700D01*
X687278Y564714D01*
X687295Y564724D01*
X687362Y564803D01*
X687434Y564878D01*
X687442Y564896D01*
X687455Y564911D01*
X687494Y565007D01*
X687537Y565101D01*
X687539Y565121D01*
X687547Y565139D01*
X687565Y565306D01*
X687565Y758498D01*
X687563Y758515D01*
X687564Y758542D01*
X682681Y843987D01*
X682655Y844105D01*
X682629Y844224D01*
X682628Y844226D01*
X682628Y844228D01*
X682565Y844332D01*
X682503Y844435D01*
X682502Y844436D01*
X682501Y844438D01*
X682409Y844515D01*
X682316Y844595D01*
X682314Y844596D01*
X682313Y844597D01*
X682203Y844640D01*
X682088Y844687D01*
X682086Y844687D01*
X682084Y844688D01*
X682077Y844688D01*
X681921Y844705D01*
X653642Y844705D01*
X652005Y846342D01*
X652005Y1016300D01*
X652002Y1016320D01*
X652004Y1016339D01*
X651982Y1016441D01*
X651966Y1016543D01*
X651956Y1016560D01*
X651952Y1016580D01*
X651899Y1016669D01*
X651850Y1016760D01*
X651836Y1016774D01*
X651826Y1016791D01*
X651747Y1016858D01*
X651672Y1016930D01*
X651654Y1016938D01*
X651639Y1016951D01*
X651543Y1016990D01*
X651449Y1017033D01*
X651429Y1017035D01*
X651411Y1017043D01*
X651244Y1017061D01*
X215121Y1017061D01*
X215057Y1017051D01*
X214991Y1017050D01*
X214911Y1017027D01*
X214879Y1017022D01*
X214861Y1017012D01*
X214830Y1017003D01*
X212170Y1015901D01*
X208430Y1015901D01*
X205770Y1017003D01*
X205706Y1017018D01*
X205645Y1017043D01*
X205562Y1017052D01*
X205530Y1017059D01*
X205511Y1017058D01*
X205479Y1017061D01*
X48756Y1017061D01*
X48736Y1017058D01*
X48717Y1017060D01*
X48615Y1017038D01*
X48513Y1017022D01*
X48496Y1017012D01*
X48476Y1017008D01*
X48387Y1016955D01*
X48296Y1016906D01*
X48282Y1016892D01*
X48265Y1016882D01*
X48198Y1016803D01*
X48126Y1016728D01*
X48118Y1016710D01*
X48105Y1016695D01*
X48066Y1016599D01*
X48023Y1016505D01*
X48021Y1016485D01*
X48013Y1016467D01*
X47995Y1016300D01*
X47995Y846342D01*
X46358Y844705D01*
X18063Y844705D01*
X17946Y844686D01*
X17828Y844668D01*
X17824Y844666D01*
X17820Y844666D01*
X17716Y844610D01*
X17609Y844555D01*
X17606Y844552D01*
X17603Y844550D01*
X17523Y844466D01*
X17438Y844378D01*
X17436Y844375D01*
X17434Y844372D01*
X17384Y844264D01*
X17332Y844156D01*
X17331Y844152D01*
X17330Y844149D01*
X17329Y844137D01*
X17303Y843991D01*
X11166Y744567D01*
X11168Y744549D01*
X11165Y744520D01*
X11165Y565306D01*
X11168Y565286D01*
X11166Y565267D01*
X11188Y565165D01*
X11204Y565063D01*
X11214Y565046D01*
X11218Y565026D01*
X11271Y564937D01*
X11320Y564846D01*
X11334Y564832D01*
X11344Y564815D01*
X11423Y564748D01*
X11498Y564676D01*
X11516Y564668D01*
X11531Y564655D01*
X11627Y564616D01*
X11721Y564573D01*
X11741Y564571D01*
X11759Y564563D01*
X11926Y564545D01*
X69721Y564545D01*
X80129Y561163D01*
X88981Y554731D01*
X95413Y545879D01*
X98795Y535471D01*
X98795Y524529D01*
X95413Y514121D01*
X88981Y505269D01*
X80128Y498837D01*
X69721Y495455D01*
X11926Y495455D01*
X11906Y495452D01*
X11887Y495454D01*
X11785Y495432D01*
X11683Y495416D01*
X11666Y495406D01*
X11646Y495402D01*
X11557Y495349D01*
X11466Y495300D01*
X11452Y495286D01*
X11435Y495276D01*
X11368Y495197D01*
X11296Y495122D01*
X11288Y495104D01*
X11275Y495089D01*
X11236Y494993D01*
X11193Y494899D01*
X11191Y494879D01*
X11183Y494861D01*
X11165Y494694D01*
X11165Y397976D01*
X11166Y397966D01*
X11165Y397950D01*
X12700Y351846D01*
X12701Y351839D01*
X12700Y351827D01*
X18112Y259665D01*
X18115Y259655D01*
X18114Y259639D01*
X26642Y167713D01*
X26644Y167704D01*
X26645Y167688D01*
X38278Y76103D01*
X38280Y76096D01*
X38281Y76084D01*
X44801Y33441D01*
X44827Y33360D01*
X44845Y33276D01*
X44865Y33243D01*
X44877Y33207D01*
X44928Y33138D01*
X44972Y33065D01*
X45001Y33040D01*
X45024Y33009D01*
X45094Y32961D01*
X45159Y32905D01*
X45194Y32891D01*
X45225Y32869D01*
X45307Y32845D01*
X45387Y32813D01*
X45436Y32808D01*
X45462Y32800D01*
X45492Y32802D01*
X45553Y32795D01*
X61158Y32795D01*
X62795Y31158D01*
X62795Y806D01*
X62798Y786D01*
X62796Y767D01*
X62818Y665D01*
X62834Y563D01*
X62844Y546D01*
X62848Y526D01*
X62901Y437D01*
X62950Y346D01*
X62964Y332D01*
X62974Y315D01*
X63053Y248D01*
X63128Y176D01*
X63146Y168D01*
X63161Y155D01*
X63257Y116D01*
X63351Y73D01*
X63371Y71D01*
X63389Y63D01*
X63556Y45D01*
X301834Y45D01*
X301863Y49D01*
G37*
G36*
X705620Y-1778D02*
X705620Y-1778D01*
X705639Y-1780D01*
X705741Y-1758D01*
X705843Y-1742D01*
X705860Y-1732D01*
X705880Y-1728D01*
X705969Y-1675D01*
X706060Y-1626D01*
X706074Y-1612D01*
X706091Y-1602D01*
X706158Y-1523D01*
X706230Y-1448D01*
X706238Y-1430D01*
X706251Y-1415D01*
X706290Y-1319D01*
X706333Y-1225D01*
X706335Y-1205D01*
X706343Y-1187D01*
X706361Y-1020D01*
X706361Y1016300D01*
X706358Y1016320D01*
X706360Y1016339D01*
X706338Y1016441D01*
X706322Y1016543D01*
X706312Y1016560D01*
X706308Y1016580D01*
X706255Y1016669D01*
X706206Y1016760D01*
X706192Y1016774D01*
X706182Y1016791D01*
X706103Y1016858D01*
X706028Y1016930D01*
X706010Y1016938D01*
X705995Y1016951D01*
X705899Y1016990D01*
X705805Y1017033D01*
X705785Y1017035D01*
X705767Y1017043D01*
X705600Y1017061D01*
X658356Y1017061D01*
X658336Y1017058D01*
X658317Y1017060D01*
X658215Y1017038D01*
X658113Y1017022D01*
X658096Y1017012D01*
X658076Y1017008D01*
X657987Y1016955D01*
X657896Y1016906D01*
X657882Y1016892D01*
X657865Y1016882D01*
X657798Y1016803D01*
X657726Y1016728D01*
X657718Y1016710D01*
X657705Y1016695D01*
X657666Y1016599D01*
X657623Y1016505D01*
X657621Y1016485D01*
X657613Y1016467D01*
X657595Y1016300D01*
X657595Y851056D01*
X657598Y851036D01*
X657596Y851017D01*
X657618Y850915D01*
X657634Y850813D01*
X657644Y850796D01*
X657648Y850776D01*
X657701Y850687D01*
X657750Y850596D01*
X657764Y850582D01*
X657774Y850565D01*
X657853Y850498D01*
X657928Y850426D01*
X657946Y850418D01*
X657961Y850405D01*
X658057Y850366D01*
X658151Y850323D01*
X658171Y850321D01*
X658189Y850313D01*
X658356Y850295D01*
X685178Y850295D01*
X685195Y850297D01*
X685222Y850296D01*
X686331Y850359D01*
X686336Y850356D01*
X686390Y850343D01*
X687184Y849548D01*
X687198Y849538D01*
X687216Y849518D01*
X688045Y848779D01*
X688046Y848773D01*
X688075Y848726D01*
X688075Y847602D01*
X688077Y847585D01*
X688076Y847558D01*
X693073Y760113D01*
X693088Y760044D01*
X693093Y759975D01*
X693115Y759925D01*
X693126Y759873D01*
X693155Y759826D01*
X693155Y758702D01*
X693157Y758685D01*
X693157Y758681D01*
X693156Y758668D01*
X693156Y758665D01*
X693156Y758658D01*
X693219Y757549D01*
X693216Y757544D01*
X693199Y757476D01*
X693173Y757411D01*
X693165Y757337D01*
X693157Y757305D01*
X693159Y757283D01*
X693155Y757245D01*
X693155Y560592D01*
X691518Y558955D01*
X635750Y558955D01*
X635728Y558952D01*
X635690Y558953D01*
X631280Y558606D01*
X631274Y558604D01*
X631269Y558605D01*
X631104Y558571D01*
X622715Y555845D01*
X622683Y555829D01*
X622648Y555820D01*
X622503Y555737D01*
X615366Y550552D01*
X615341Y550527D01*
X615311Y550508D01*
X615198Y550384D01*
X610013Y543247D01*
X609997Y543215D01*
X609974Y543188D01*
X609905Y543035D01*
X607179Y534646D01*
X607174Y534610D01*
X607160Y534577D01*
X607142Y534411D01*
X607142Y525589D01*
X607148Y525554D01*
X607145Y525519D01*
X607179Y525354D01*
X609905Y516965D01*
X609921Y516933D01*
X609930Y516898D01*
X610013Y516753D01*
X615198Y509616D01*
X615223Y509591D01*
X615242Y509561D01*
X615366Y509448D01*
X622503Y504263D01*
X622535Y504247D01*
X622562Y504224D01*
X622715Y504155D01*
X631104Y501429D01*
X631110Y501428D01*
X631115Y501426D01*
X631280Y501394D01*
X635690Y501047D01*
X635712Y501049D01*
X635750Y501045D01*
X691518Y501045D01*
X693155Y499408D01*
X693155Y353553D01*
X693166Y353485D01*
X693167Y353415D01*
X693186Y353364D01*
X693194Y353310D01*
X693221Y353260D01*
X693156Y352141D01*
X693158Y352124D01*
X693155Y352097D01*
X693155Y350988D01*
X693149Y350981D01*
X693129Y350915D01*
X693099Y350852D01*
X693087Y350777D01*
X693077Y350746D01*
X693078Y350724D01*
X693071Y350687D01*
X690005Y298077D01*
X680485Y190396D01*
X667741Y83047D01*
X659803Y29849D01*
X659804Y29816D01*
X659795Y29736D01*
X659795Y28838D01*
X659785Y28825D01*
X659758Y28802D01*
X659714Y28725D01*
X659662Y28654D01*
X659652Y28620D01*
X659634Y28589D01*
X659595Y28444D01*
X658875Y27911D01*
X658852Y27887D01*
X658790Y27837D01*
X658155Y27202D01*
X658138Y27200D01*
X658103Y27202D01*
X658017Y27180D01*
X657930Y27166D01*
X657899Y27149D01*
X657865Y27140D01*
X657735Y27065D01*
X656849Y27197D01*
X656816Y27196D01*
X656736Y27205D01*
X643556Y27205D01*
X643536Y27202D01*
X643517Y27204D01*
X643415Y27182D01*
X643313Y27166D01*
X643296Y27156D01*
X643276Y27152D01*
X643187Y27099D01*
X643096Y27050D01*
X643082Y27036D01*
X643065Y27026D01*
X642998Y26947D01*
X642926Y26872D01*
X642918Y26854D01*
X642905Y26839D01*
X642866Y26743D01*
X642823Y26649D01*
X642821Y26629D01*
X642813Y26611D01*
X642795Y26444D01*
X642795Y-1020D01*
X642798Y-1040D01*
X642796Y-1059D01*
X642818Y-1161D01*
X642834Y-1263D01*
X642844Y-1280D01*
X642848Y-1300D01*
X642901Y-1389D01*
X642950Y-1480D01*
X642964Y-1494D01*
X642974Y-1511D01*
X643053Y-1578D01*
X643128Y-1650D01*
X643146Y-1658D01*
X643161Y-1671D01*
X643257Y-1710D01*
X643351Y-1753D01*
X643371Y-1755D01*
X643389Y-1763D01*
X643556Y-1781D01*
X705600Y-1781D01*
X705620Y-1778D01*
G37*
G36*
X56464Y-1778D02*
X56464Y-1778D01*
X56483Y-1780D01*
X56585Y-1758D01*
X56687Y-1742D01*
X56704Y-1732D01*
X56724Y-1728D01*
X56813Y-1675D01*
X56904Y-1626D01*
X56918Y-1612D01*
X56935Y-1602D01*
X57002Y-1523D01*
X57074Y-1448D01*
X57082Y-1430D01*
X57095Y-1415D01*
X57134Y-1319D01*
X57177Y-1225D01*
X57179Y-1205D01*
X57187Y-1187D01*
X57205Y-1020D01*
X57205Y26444D01*
X57202Y26464D01*
X57204Y26483D01*
X57182Y26585D01*
X57166Y26687D01*
X57156Y26704D01*
X57152Y26724D01*
X57099Y26813D01*
X57050Y26904D01*
X57036Y26918D01*
X57026Y26935D01*
X56947Y27002D01*
X56872Y27074D01*
X56854Y27082D01*
X56839Y27095D01*
X56743Y27134D01*
X56649Y27177D01*
X56629Y27179D01*
X56611Y27187D01*
X56444Y27205D01*
X42785Y27205D01*
X42753Y27200D01*
X42664Y27196D01*
X41803Y27056D01*
X41796Y27061D01*
X41769Y27075D01*
X41746Y27095D01*
X41659Y27130D01*
X41576Y27171D01*
X41546Y27175D01*
X41517Y27187D01*
X41351Y27205D01*
X41342Y27205D01*
X40726Y27822D01*
X40699Y27841D01*
X40633Y27901D01*
X39926Y28411D01*
X39924Y28420D01*
X39915Y28449D01*
X39912Y28479D01*
X39876Y28565D01*
X39846Y28653D01*
X39828Y28677D01*
X39816Y28706D01*
X39711Y28837D01*
X39705Y28842D01*
X39705Y29715D01*
X39700Y29747D01*
X39696Y29836D01*
X32360Y75237D01*
X20698Y167047D01*
X12149Y259201D01*
X6724Y351590D01*
X5611Y396430D01*
X5596Y396510D01*
X5590Y396592D01*
X5575Y396626D01*
X5575Y397876D01*
X5574Y397883D01*
X5575Y397895D01*
X5544Y399143D01*
X5557Y399175D01*
X5563Y399230D01*
X5571Y399257D01*
X5569Y399286D01*
X5575Y399342D01*
X5575Y499408D01*
X7212Y501045D01*
X64250Y501045D01*
X64272Y501048D01*
X64310Y501047D01*
X68720Y501394D01*
X68726Y501396D01*
X68731Y501395D01*
X68896Y501429D01*
X77285Y504155D01*
X77317Y504171D01*
X77352Y504180D01*
X77497Y504263D01*
X84634Y509448D01*
X84659Y509473D01*
X84689Y509492D01*
X84802Y509616D01*
X89987Y516753D01*
X90003Y516785D01*
X90026Y516812D01*
X90095Y516965D01*
X92821Y525354D01*
X92826Y525390D01*
X92840Y525423D01*
X92858Y525589D01*
X92858Y534411D01*
X92852Y534446D01*
X92855Y534481D01*
X92821Y534646D01*
X90095Y543035D01*
X90079Y543067D01*
X90070Y543102D01*
X89987Y543247D01*
X84802Y550384D01*
X84777Y550409D01*
X84758Y550439D01*
X84634Y550552D01*
X77497Y555737D01*
X77465Y555753D01*
X77438Y555776D01*
X77285Y555845D01*
X68896Y558571D01*
X68890Y558572D01*
X68885Y558574D01*
X68720Y558606D01*
X64310Y558953D01*
X64288Y558951D01*
X64250Y558955D01*
X7212Y558955D01*
X5575Y560592D01*
X5575Y743284D01*
X5564Y743351D01*
X5563Y743419D01*
X5545Y743472D01*
X5536Y743527D01*
X5505Y743584D01*
X5574Y744693D01*
X5572Y744711D01*
X5575Y744740D01*
X5575Y747073D01*
X5613Y747112D01*
X5637Y747162D01*
X5669Y747208D01*
X5689Y747272D01*
X5718Y747334D01*
X5732Y747411D01*
X5741Y747443D01*
X5741Y747464D01*
X5747Y747499D01*
X11924Y847563D01*
X11922Y847580D01*
X11925Y847610D01*
X11925Y848710D01*
X11936Y848724D01*
X11954Y848786D01*
X12787Y849521D01*
X12798Y849535D01*
X12821Y849554D01*
X13599Y850332D01*
X13617Y850334D01*
X13674Y850365D01*
X14783Y850296D01*
X14800Y850298D01*
X14830Y850295D01*
X41644Y850295D01*
X41664Y850298D01*
X41683Y850296D01*
X41785Y850318D01*
X41887Y850334D01*
X41904Y850344D01*
X41924Y850348D01*
X42013Y850401D01*
X42104Y850450D01*
X42118Y850464D01*
X42135Y850474D01*
X42202Y850553D01*
X42274Y850628D01*
X42282Y850646D01*
X42295Y850661D01*
X42334Y850757D01*
X42377Y850851D01*
X42379Y850871D01*
X42387Y850889D01*
X42405Y851056D01*
X42405Y1016300D01*
X42402Y1016320D01*
X42404Y1016339D01*
X42382Y1016441D01*
X42366Y1016543D01*
X42356Y1016560D01*
X42352Y1016580D01*
X42299Y1016669D01*
X42250Y1016760D01*
X42236Y1016774D01*
X42226Y1016791D01*
X42147Y1016858D01*
X42072Y1016930D01*
X42054Y1016938D01*
X42039Y1016951D01*
X41943Y1016990D01*
X41849Y1017033D01*
X41829Y1017035D01*
X41811Y1017043D01*
X41644Y1017061D01*
X-5600Y1017061D01*
X-5620Y1017058D01*
X-5639Y1017060D01*
X-5741Y1017038D01*
X-5843Y1017022D01*
X-5860Y1017012D01*
X-5880Y1017008D01*
X-5969Y1016955D01*
X-6060Y1016906D01*
X-6074Y1016892D01*
X-6091Y1016882D01*
X-6158Y1016803D01*
X-6230Y1016728D01*
X-6238Y1016710D01*
X-6251Y1016695D01*
X-6290Y1016599D01*
X-6333Y1016505D01*
X-6335Y1016485D01*
X-6343Y1016467D01*
X-6361Y1016300D01*
X-6361Y-1020D01*
X-6358Y-1040D01*
X-6360Y-1059D01*
X-6338Y-1161D01*
X-6322Y-1263D01*
X-6312Y-1280D01*
X-6308Y-1300D01*
X-6255Y-1389D01*
X-6206Y-1480D01*
X-6192Y-1494D01*
X-6182Y-1511D01*
X-6103Y-1578D01*
X-6028Y-1650D01*
X-6010Y-1658D01*
X-5995Y-1671D01*
X-5899Y-1710D01*
X-5805Y-1753D01*
X-5785Y-1755D01*
X-5767Y-1763D01*
X-5600Y-1781D01*
X56444Y-1781D01*
X56464Y-1778D01*
G37*
%LPC*%
G36*
X248835Y907189D02*
X248835Y907189D01*
X245859Y910165D01*
X245859Y914375D01*
X248835Y917351D01*
X253045Y917351D01*
X255235Y915161D01*
X255308Y915108D01*
X255378Y915048D01*
X255408Y915036D01*
X255434Y915017D01*
X255521Y914990D01*
X255606Y914956D01*
X255647Y914952D01*
X255669Y914945D01*
X255702Y914946D01*
X255773Y914938D01*
X408704Y914938D01*
X408723Y914941D01*
X408743Y914939D01*
X408844Y914961D01*
X408947Y914977D01*
X408964Y914987D01*
X408984Y914991D01*
X409073Y915044D01*
X409164Y915093D01*
X409178Y915107D01*
X409195Y915117D01*
X409262Y915196D01*
X409333Y915271D01*
X409342Y915289D01*
X409355Y915304D01*
X409358Y915314D01*
X412126Y918082D01*
X412138Y918098D01*
X412154Y918110D01*
X412210Y918198D01*
X412270Y918281D01*
X412276Y918300D01*
X412287Y918317D01*
X412312Y918418D01*
X412342Y918517D01*
X412342Y918536D01*
X412347Y918556D01*
X412339Y918659D01*
X412336Y918762D01*
X412329Y918781D01*
X412328Y918801D01*
X412287Y918896D01*
X412252Y918993D01*
X412239Y919009D01*
X412231Y919027D01*
X412126Y919158D01*
X410475Y920809D01*
X410402Y920862D01*
X410332Y920922D01*
X410302Y920934D01*
X410276Y920953D01*
X410189Y920980D01*
X410104Y921014D01*
X410063Y921018D01*
X410041Y921025D01*
X410008Y921024D01*
X409937Y921032D01*
X254957Y921032D01*
X252471Y923518D01*
X252397Y923571D01*
X252328Y923631D01*
X252297Y923643D01*
X252271Y923662D01*
X252184Y923689D01*
X252099Y923723D01*
X252058Y923727D01*
X252036Y923734D01*
X252004Y923733D01*
X251933Y923741D01*
X248835Y923741D01*
X245836Y926740D01*
X245828Y926764D01*
X245820Y926815D01*
X245786Y926878D01*
X245761Y926946D01*
X245729Y926986D01*
X245704Y927032D01*
X245653Y927082D01*
X245608Y927138D01*
X245564Y927166D01*
X245526Y927202D01*
X245461Y927232D01*
X245401Y927271D01*
X245350Y927283D01*
X245303Y927305D01*
X245232Y927313D01*
X245162Y927331D01*
X245110Y927327D01*
X245059Y927332D01*
X244988Y927317D01*
X244917Y927312D01*
X244869Y927291D01*
X244818Y927280D01*
X244757Y927243D01*
X244691Y927215D01*
X244635Y927171D01*
X244607Y927154D01*
X244592Y927136D01*
X244560Y927111D01*
X236567Y919118D01*
X234782Y917332D01*
X134833Y917332D01*
X134743Y917318D01*
X134652Y917310D01*
X134622Y917298D01*
X134590Y917293D01*
X134509Y917250D01*
X134425Y917214D01*
X134393Y917188D01*
X134373Y917177D01*
X134351Y917154D01*
X134295Y917109D01*
X132105Y914919D01*
X127895Y914919D01*
X124919Y917895D01*
X124919Y922105D01*
X127895Y925081D01*
X132105Y925081D01*
X134295Y922891D01*
X134369Y922838D01*
X134438Y922778D01*
X134468Y922766D01*
X134494Y922747D01*
X134581Y922720D01*
X134666Y922686D01*
X134707Y922682D01*
X134729Y922675D01*
X134762Y922676D01*
X134833Y922668D01*
X232256Y922668D01*
X232346Y922682D01*
X232437Y922690D01*
X232467Y922702D01*
X232499Y922707D01*
X232580Y922750D01*
X232664Y922786D01*
X232696Y922812D01*
X232716Y922823D01*
X232739Y922846D01*
X232794Y922891D01*
X247362Y937459D01*
X254518Y937459D01*
X257978Y933999D01*
X258051Y933946D01*
X258121Y933886D01*
X258151Y933874D01*
X258177Y933855D01*
X258264Y933828D01*
X258349Y933794D01*
X258390Y933790D01*
X258412Y933783D01*
X258445Y933784D01*
X258516Y933776D01*
X493688Y933776D01*
X493778Y933790D01*
X493869Y933798D01*
X493898Y933810D01*
X493930Y933815D01*
X494011Y933858D01*
X494095Y933894D01*
X494127Y933920D01*
X494148Y933931D01*
X494165Y933949D01*
X494167Y933950D01*
X494174Y933957D01*
X494226Y933999D01*
X497109Y936882D01*
X497162Y936956D01*
X497222Y937025D01*
X497234Y937056D01*
X497253Y937082D01*
X497280Y937169D01*
X497314Y937254D01*
X497318Y937295D01*
X497325Y937317D01*
X497324Y937349D01*
X497332Y937420D01*
X497332Y955167D01*
X497318Y955257D01*
X497310Y955348D01*
X497298Y955378D01*
X497293Y955410D01*
X497250Y955491D01*
X497214Y955575D01*
X497188Y955607D01*
X497177Y955627D01*
X497154Y955649D01*
X497109Y955705D01*
X494919Y957895D01*
X494919Y962105D01*
X497895Y965081D01*
X502105Y965081D01*
X505081Y962105D01*
X505081Y957895D01*
X502891Y955705D01*
X502838Y955631D01*
X502778Y955562D01*
X502766Y955532D01*
X502747Y955506D01*
X502720Y955419D01*
X502686Y955334D01*
X502682Y955293D01*
X502675Y955271D01*
X502676Y955238D01*
X502668Y955167D01*
X502668Y934895D01*
X496213Y928440D01*
X453343Y928440D01*
X453272Y928429D01*
X453200Y928427D01*
X453151Y928409D01*
X453100Y928401D01*
X453037Y928367D01*
X452969Y928342D01*
X452929Y928310D01*
X452883Y928285D01*
X452833Y928234D01*
X452777Y928189D01*
X452749Y928145D01*
X452713Y928107D01*
X452683Y928042D01*
X452644Y927982D01*
X452632Y927931D01*
X452610Y927884D01*
X452602Y927813D01*
X452584Y927743D01*
X452588Y927691D01*
X452583Y927640D01*
X452598Y927569D01*
X452603Y927498D01*
X452624Y927450D01*
X452635Y927399D01*
X452672Y927338D01*
X452700Y927272D01*
X452745Y927216D01*
X452761Y927188D01*
X452779Y927173D01*
X452805Y927141D01*
X452871Y927074D01*
X452871Y922865D01*
X449895Y919889D01*
X445685Y919889D01*
X442709Y922865D01*
X442709Y927074D01*
X442775Y927141D01*
X442817Y927199D01*
X442867Y927251D01*
X442889Y927298D01*
X442919Y927340D01*
X442940Y927409D01*
X442970Y927474D01*
X442976Y927526D01*
X442991Y927576D01*
X442990Y927647D01*
X442997Y927718D01*
X442986Y927769D01*
X442985Y927821D01*
X442960Y927889D01*
X442945Y927959D01*
X442918Y928004D01*
X442901Y928052D01*
X442856Y928108D01*
X442819Y928170D01*
X442779Y928204D01*
X442747Y928244D01*
X442687Y928283D01*
X442632Y928330D01*
X442584Y928349D01*
X442540Y928377D01*
X442471Y928395D01*
X442404Y928422D01*
X442333Y928430D01*
X442302Y928438D01*
X442278Y928436D01*
X442237Y928440D01*
X419053Y928440D01*
X418982Y928429D01*
X418910Y928427D01*
X418861Y928409D01*
X418810Y928401D01*
X418747Y928367D01*
X418679Y928342D01*
X418639Y928310D01*
X418593Y928285D01*
X418543Y928233D01*
X418487Y928189D01*
X418459Y928145D01*
X418423Y928107D01*
X418393Y928042D01*
X418354Y927982D01*
X418342Y927931D01*
X418320Y927884D01*
X418312Y927813D01*
X418294Y927743D01*
X418298Y927691D01*
X418293Y927640D01*
X418308Y927569D01*
X418313Y927498D01*
X418334Y927450D01*
X418345Y927399D01*
X418382Y927338D01*
X418410Y927272D01*
X418454Y927216D01*
X418471Y927188D01*
X418489Y927173D01*
X418514Y927141D01*
X419851Y925805D01*
X419851Y921595D01*
X417189Y918934D01*
X417178Y918918D01*
X417162Y918905D01*
X417106Y918818D01*
X417046Y918734D01*
X417040Y918715D01*
X417029Y918698D01*
X417004Y918598D01*
X416973Y918499D01*
X416974Y918479D01*
X416969Y918460D01*
X416977Y918357D01*
X416980Y918253D01*
X416987Y918235D01*
X416988Y918215D01*
X417029Y918120D01*
X417064Y918022D01*
X417077Y918007D01*
X417084Y917988D01*
X417189Y917857D01*
X419626Y915420D01*
X419626Y911211D01*
X416650Y908235D01*
X412441Y908235D01*
X411297Y909379D01*
X411223Y909432D01*
X411154Y909492D01*
X411123Y909504D01*
X411097Y909523D01*
X411010Y909550D01*
X410925Y909584D01*
X410884Y909588D01*
X410862Y909595D01*
X410830Y909594D01*
X410759Y909602D01*
X255773Y909602D01*
X255683Y909588D01*
X255592Y909580D01*
X255562Y909568D01*
X255530Y909563D01*
X255449Y909520D01*
X255366Y909484D01*
X255333Y909458D01*
X255313Y909447D01*
X255291Y909424D01*
X255235Y909379D01*
X253045Y907189D01*
X248835Y907189D01*
G37*
%LPD*%
%LPC*%
G36*
X115895Y372519D02*
X115895Y372519D01*
X112919Y375495D01*
X112919Y379705D01*
X115895Y382681D01*
X120105Y382681D01*
X122295Y380491D01*
X122368Y380438D01*
X122438Y380378D01*
X122468Y380366D01*
X122494Y380347D01*
X122581Y380320D01*
X122666Y380286D01*
X122707Y380282D01*
X122729Y380275D01*
X122762Y380276D01*
X122833Y380268D01*
X513627Y380268D01*
X513717Y380282D01*
X513808Y380290D01*
X513838Y380302D01*
X513870Y380307D01*
X513950Y380350D01*
X514034Y380386D01*
X514067Y380412D01*
X514087Y380423D01*
X514109Y380446D01*
X514165Y380491D01*
X515153Y381478D01*
X515194Y381536D01*
X515244Y381588D01*
X515266Y381635D01*
X515296Y381677D01*
X515317Y381746D01*
X515347Y381811D01*
X515353Y381863D01*
X515368Y381913D01*
X515367Y381984D01*
X515374Y382055D01*
X515363Y382106D01*
X515362Y382158D01*
X515337Y382226D01*
X515322Y382296D01*
X515295Y382341D01*
X515278Y382389D01*
X515233Y382445D01*
X515196Y382507D01*
X515156Y382541D01*
X515124Y382581D01*
X515064Y382620D01*
X515009Y382667D01*
X514961Y382686D01*
X514917Y382714D01*
X514847Y382732D01*
X514781Y382759D01*
X514710Y382767D01*
X514678Y382775D01*
X514655Y382773D01*
X514614Y382777D01*
X363620Y382777D01*
X348769Y397629D01*
X348695Y397682D01*
X348626Y397741D01*
X348596Y397753D01*
X348569Y397772D01*
X348482Y397799D01*
X348398Y397833D01*
X348357Y397838D01*
X348334Y397844D01*
X348302Y397844D01*
X348231Y397851D01*
X347828Y397851D01*
X344851Y400828D01*
X344851Y405037D01*
X347828Y408013D01*
X352037Y408013D01*
X355013Y405037D01*
X355013Y404634D01*
X355028Y404544D01*
X355035Y404453D01*
X355047Y404423D01*
X355053Y404391D01*
X355095Y404310D01*
X355131Y404226D01*
X355157Y404194D01*
X355168Y404174D01*
X355191Y404151D01*
X355236Y404095D01*
X367186Y392146D01*
X367260Y392093D01*
X367329Y392033D01*
X367359Y392021D01*
X367385Y392002D01*
X367472Y391975D01*
X367557Y391941D01*
X367598Y391937D01*
X367620Y391930D01*
X367653Y391931D01*
X367724Y391923D01*
X474468Y391923D01*
X474538Y391934D01*
X474610Y391936D01*
X474659Y391954D01*
X474710Y391962D01*
X474774Y391996D01*
X474841Y392021D01*
X474882Y392053D01*
X474928Y392078D01*
X474977Y392129D01*
X475033Y392174D01*
X475061Y392218D01*
X475097Y392256D01*
X475127Y392321D01*
X475166Y392381D01*
X475179Y392432D01*
X475201Y392479D01*
X475209Y392550D01*
X475226Y392620D01*
X475222Y392672D01*
X475228Y392723D01*
X475213Y392794D01*
X475207Y392865D01*
X475187Y392913D01*
X475176Y392964D01*
X475139Y393025D01*
X475111Y393091D01*
X475066Y393147D01*
X475049Y393175D01*
X475032Y393190D01*
X475006Y393222D01*
X474586Y393642D01*
X474586Y397851D01*
X477562Y400827D01*
X481772Y400827D01*
X484748Y397851D01*
X484748Y393642D01*
X484328Y393222D01*
X484286Y393164D01*
X484237Y393112D01*
X484215Y393065D01*
X484185Y393023D01*
X484164Y392954D01*
X484133Y392889D01*
X484128Y392837D01*
X484112Y392787D01*
X484114Y392716D01*
X484106Y392645D01*
X484117Y392594D01*
X484119Y392542D01*
X484143Y392474D01*
X484158Y392404D01*
X484185Y392359D01*
X484203Y392311D01*
X484248Y392255D01*
X484285Y392193D01*
X484324Y392159D01*
X484357Y392119D01*
X484417Y392080D01*
X484472Y392033D01*
X484520Y392014D01*
X484564Y391986D01*
X484633Y391968D01*
X484700Y391941D01*
X484771Y391933D01*
X484802Y391925D01*
X484826Y391927D01*
X484866Y391923D01*
X537772Y391923D01*
X537862Y391937D01*
X537953Y391945D01*
X537983Y391957D01*
X538015Y391962D01*
X538096Y392005D01*
X538179Y392041D01*
X538212Y392067D01*
X538232Y392078D01*
X538254Y392101D01*
X538310Y392146D01*
X538595Y392431D01*
X542805Y392431D01*
X545781Y389455D01*
X545781Y385245D01*
X542805Y382269D01*
X538595Y382269D01*
X538310Y382554D01*
X538237Y382607D01*
X538167Y382667D01*
X538137Y382679D01*
X538111Y382698D01*
X538024Y382725D01*
X537939Y382759D01*
X537898Y382763D01*
X537876Y382770D01*
X537843Y382769D01*
X537772Y382777D01*
X523926Y382777D01*
X523855Y382766D01*
X523783Y382764D01*
X523734Y382746D01*
X523683Y382738D01*
X523620Y382704D01*
X523552Y382679D01*
X523512Y382647D01*
X523466Y382622D01*
X523416Y382570D01*
X523360Y382526D01*
X523332Y382482D01*
X523296Y382444D01*
X523266Y382379D01*
X523227Y382319D01*
X523215Y382268D01*
X523193Y382221D01*
X523185Y382150D01*
X523167Y382080D01*
X523171Y382028D01*
X523166Y381977D01*
X523181Y381906D01*
X523186Y381835D01*
X523207Y381787D01*
X523218Y381736D01*
X523255Y381675D01*
X523283Y381609D01*
X523327Y381553D01*
X523344Y381525D01*
X523362Y381510D01*
X523387Y381478D01*
X524351Y380515D01*
X524351Y376305D01*
X521375Y373329D01*
X517165Y373329D01*
X515785Y374709D01*
X515712Y374762D01*
X515642Y374822D01*
X515612Y374834D01*
X515586Y374853D01*
X515499Y374880D01*
X515414Y374914D01*
X515373Y374918D01*
X515351Y374925D01*
X515318Y374924D01*
X515247Y374932D01*
X122833Y374932D01*
X122743Y374918D01*
X122652Y374910D01*
X122622Y374898D01*
X122590Y374893D01*
X122509Y374850D01*
X122426Y374814D01*
X122393Y374788D01*
X122373Y374777D01*
X122351Y374754D01*
X122295Y374709D01*
X120105Y372519D01*
X115895Y372519D01*
G37*
%LPD*%
%LPC*%
G36*
X393895Y773919D02*
X393895Y773919D01*
X390705Y777109D01*
X390632Y777162D01*
X390562Y777222D01*
X390532Y777234D01*
X390506Y777253D01*
X390419Y777280D01*
X390334Y777314D01*
X390293Y777318D01*
X390271Y777325D01*
X390238Y777324D01*
X390167Y777332D01*
X287833Y777332D01*
X287743Y777318D01*
X287652Y777310D01*
X287622Y777298D01*
X287590Y777293D01*
X287509Y777250D01*
X287426Y777214D01*
X287393Y777188D01*
X287373Y777177D01*
X287351Y777154D01*
X287295Y777109D01*
X285105Y774919D01*
X280895Y774919D01*
X277919Y777895D01*
X277919Y782105D01*
X280895Y785081D01*
X285105Y785081D01*
X287295Y782891D01*
X287368Y782838D01*
X287438Y782778D01*
X287468Y782766D01*
X287494Y782747D01*
X287581Y782720D01*
X287666Y782686D01*
X287707Y782682D01*
X287729Y782675D01*
X287762Y782676D01*
X287833Y782668D01*
X290309Y782668D01*
X290380Y782679D01*
X290452Y782681D01*
X290501Y782699D01*
X290552Y782707D01*
X290615Y782741D01*
X290683Y782766D01*
X290723Y782798D01*
X290769Y782823D01*
X290819Y782875D01*
X290875Y782919D01*
X290903Y782963D01*
X290939Y783001D01*
X290969Y783066D01*
X291008Y783126D01*
X291020Y783177D01*
X291042Y783224D01*
X291050Y783295D01*
X291068Y783365D01*
X291064Y783417D01*
X291069Y783468D01*
X291054Y783539D01*
X291049Y783610D01*
X291028Y783658D01*
X291017Y783709D01*
X290980Y783770D01*
X290952Y783836D01*
X290908Y783892D01*
X290891Y783920D01*
X290873Y783935D01*
X290848Y783967D01*
X287919Y786895D01*
X287919Y791105D01*
X289802Y792987D01*
X289843Y793045D01*
X289893Y793097D01*
X289915Y793144D01*
X289945Y793186D01*
X289966Y793255D01*
X289996Y793320D01*
X290002Y793372D01*
X290017Y793422D01*
X290016Y793493D01*
X290023Y793564D01*
X290012Y793615D01*
X290011Y793667D01*
X289986Y793735D01*
X289971Y793805D01*
X289944Y793850D01*
X289927Y793898D01*
X289882Y793954D01*
X289845Y794016D01*
X289805Y794050D01*
X289773Y794090D01*
X289713Y794129D01*
X289658Y794176D01*
X289610Y794195D01*
X289566Y794223D01*
X289497Y794241D01*
X289430Y794268D01*
X289359Y794276D01*
X289327Y794284D01*
X289304Y794282D01*
X289263Y794286D01*
X218324Y794286D01*
X218234Y794272D01*
X218143Y794264D01*
X218114Y794252D01*
X218082Y794247D01*
X218001Y794204D01*
X217917Y794168D01*
X217885Y794142D01*
X217864Y794131D01*
X217842Y794108D01*
X217786Y794063D01*
X214334Y790611D01*
X214281Y790537D01*
X214221Y790468D01*
X214209Y790437D01*
X214190Y790411D01*
X214163Y790324D01*
X214129Y790239D01*
X214125Y790198D01*
X214118Y790176D01*
X214119Y790144D01*
X214111Y790073D01*
X214111Y786975D01*
X211135Y783999D01*
X206925Y783999D01*
X203949Y786975D01*
X203949Y791185D01*
X206925Y794161D01*
X207626Y794161D01*
X207697Y794172D01*
X207769Y794174D01*
X207818Y794192D01*
X207869Y794200D01*
X207932Y794234D01*
X208000Y794259D01*
X208040Y794291D01*
X208086Y794316D01*
X208136Y794368D01*
X208192Y794412D01*
X208220Y794456D01*
X208256Y794494D01*
X208286Y794559D01*
X208325Y794619D01*
X208337Y794670D01*
X208359Y794717D01*
X208367Y794788D01*
X208385Y794858D01*
X208381Y794910D01*
X208386Y794961D01*
X208371Y795032D01*
X208366Y795103D01*
X208345Y795151D01*
X208334Y795202D01*
X208297Y795263D01*
X208269Y795329D01*
X208225Y795385D01*
X208208Y795413D01*
X208190Y795428D01*
X208165Y795460D01*
X205219Y798405D01*
X205219Y802615D01*
X208195Y805591D01*
X212405Y805591D01*
X214595Y803401D01*
X214668Y803348D01*
X214738Y803288D01*
X214768Y803276D01*
X214794Y803257D01*
X214881Y803230D01*
X214966Y803196D01*
X215007Y803192D01*
X215029Y803185D01*
X215062Y803186D01*
X215133Y803178D01*
X404857Y803178D01*
X404947Y803192D01*
X405038Y803200D01*
X405068Y803212D01*
X405100Y803217D01*
X405181Y803260D01*
X405264Y803296D01*
X405297Y803322D01*
X405317Y803333D01*
X405339Y803356D01*
X405395Y803401D01*
X407585Y805591D01*
X411795Y805591D01*
X414771Y802615D01*
X414771Y798406D01*
X414683Y798318D01*
X414671Y798302D01*
X414656Y798289D01*
X414600Y798202D01*
X414539Y798118D01*
X414534Y798099D01*
X414523Y798082D01*
X414498Y797982D01*
X414467Y797883D01*
X414468Y797863D01*
X414463Y797844D01*
X414471Y797741D01*
X414473Y797637D01*
X414480Y797618D01*
X414482Y797599D01*
X414522Y797503D01*
X414558Y797406D01*
X414570Y797390D01*
X414578Y797372D01*
X414683Y797241D01*
X417692Y794233D01*
X417692Y790023D01*
X414716Y787047D01*
X410506Y787047D01*
X408316Y789237D01*
X408258Y789279D01*
X403474Y794063D01*
X403400Y794116D01*
X403331Y794176D01*
X403300Y794188D01*
X403274Y794207D01*
X403187Y794234D01*
X403102Y794268D01*
X403061Y794272D01*
X403039Y794279D01*
X403007Y794278D01*
X402936Y794286D01*
X385737Y794286D01*
X385666Y794275D01*
X385594Y794273D01*
X385545Y794255D01*
X385494Y794247D01*
X385431Y794213D01*
X385363Y794188D01*
X385323Y794156D01*
X385277Y794131D01*
X385227Y794079D01*
X385171Y794035D01*
X385143Y793991D01*
X385107Y793953D01*
X385077Y793888D01*
X385038Y793828D01*
X385026Y793777D01*
X385004Y793730D01*
X384996Y793659D01*
X384978Y793589D01*
X384982Y793537D01*
X384977Y793486D01*
X384992Y793415D01*
X384997Y793344D01*
X385018Y793296D01*
X385029Y793245D01*
X385066Y793184D01*
X385094Y793118D01*
X385138Y793062D01*
X385155Y793034D01*
X385173Y793019D01*
X385198Y792987D01*
X387081Y791105D01*
X387081Y786895D01*
X384152Y783967D01*
X384111Y783909D01*
X384061Y783857D01*
X384039Y783810D01*
X384009Y783768D01*
X383988Y783699D01*
X383958Y783634D01*
X383952Y783582D01*
X383937Y783532D01*
X383938Y783461D01*
X383931Y783390D01*
X383942Y783339D01*
X383943Y783287D01*
X383968Y783219D01*
X383983Y783149D01*
X384010Y783104D01*
X384027Y783056D01*
X384072Y783000D01*
X384109Y782938D01*
X384149Y782904D01*
X384181Y782864D01*
X384241Y782825D01*
X384296Y782778D01*
X384344Y782759D01*
X384388Y782731D01*
X384457Y782713D01*
X384524Y782686D01*
X384595Y782678D01*
X384627Y782670D01*
X384650Y782672D01*
X384691Y782668D01*
X392167Y782668D01*
X392257Y782682D01*
X392348Y782690D01*
X392378Y782702D01*
X392410Y782707D01*
X392491Y782750D01*
X392574Y782786D01*
X392607Y782812D01*
X392627Y782823D01*
X392649Y782846D01*
X392705Y782891D01*
X393895Y784081D01*
X398105Y784081D01*
X401081Y781105D01*
X401081Y776895D01*
X398105Y773919D01*
X393895Y773919D01*
G37*
%LPD*%
%LPC*%
G36*
X207895Y736919D02*
X207895Y736919D01*
X204919Y739895D01*
X204919Y744105D01*
X206848Y746033D01*
X206889Y746091D01*
X206939Y746143D01*
X206961Y746190D01*
X206991Y746232D01*
X207012Y746301D01*
X207042Y746366D01*
X207048Y746418D01*
X207063Y746468D01*
X207062Y746539D01*
X207069Y746610D01*
X207058Y746661D01*
X207057Y746713D01*
X207032Y746781D01*
X207017Y746851D01*
X206990Y746896D01*
X206973Y746944D01*
X206928Y747000D01*
X206891Y747062D01*
X206851Y747096D01*
X206819Y747136D01*
X206759Y747175D01*
X206704Y747222D01*
X206656Y747241D01*
X206612Y747269D01*
X206543Y747287D01*
X206476Y747314D01*
X206405Y747322D01*
X206373Y747330D01*
X206350Y747328D01*
X206309Y747332D01*
X174833Y747332D01*
X174743Y747318D01*
X174652Y747310D01*
X174622Y747298D01*
X174590Y747293D01*
X174509Y747250D01*
X174425Y747214D01*
X174393Y747188D01*
X174373Y747177D01*
X174351Y747154D01*
X174295Y747109D01*
X172105Y744919D01*
X167895Y744919D01*
X164919Y747895D01*
X164919Y752105D01*
X167895Y755081D01*
X172105Y755081D01*
X174295Y752891D01*
X174369Y752838D01*
X174438Y752778D01*
X174468Y752766D01*
X174494Y752747D01*
X174581Y752720D01*
X174666Y752686D01*
X174707Y752682D01*
X174729Y752675D01*
X174762Y752676D01*
X174833Y752668D01*
X440167Y752668D01*
X440257Y752682D01*
X440348Y752690D01*
X440378Y752702D01*
X440410Y752707D01*
X440491Y752750D01*
X440574Y752786D01*
X440607Y752812D01*
X440627Y752823D01*
X440649Y752846D01*
X440705Y752891D01*
X442895Y755081D01*
X447105Y755081D01*
X450081Y752105D01*
X450081Y747895D01*
X448152Y745967D01*
X448111Y745909D01*
X448061Y745857D01*
X448039Y745810D01*
X448009Y745768D01*
X447988Y745699D01*
X447958Y745634D01*
X447952Y745582D01*
X447937Y745532D01*
X447938Y745461D01*
X447931Y745390D01*
X447942Y745339D01*
X447943Y745287D01*
X447968Y745219D01*
X447983Y745149D01*
X448010Y745104D01*
X448027Y745056D01*
X448072Y745000D01*
X448109Y744938D01*
X448149Y744904D01*
X448181Y744864D01*
X448241Y744825D01*
X448296Y744778D01*
X448344Y744759D01*
X448388Y744731D01*
X448457Y744713D01*
X448524Y744686D01*
X448595Y744678D01*
X448627Y744670D01*
X448650Y744672D01*
X448691Y744668D01*
X452167Y744668D01*
X452257Y744682D01*
X452348Y744690D01*
X452378Y744702D01*
X452410Y744707D01*
X452491Y744750D01*
X452574Y744786D01*
X452607Y744812D01*
X452627Y744823D01*
X452649Y744846D01*
X452705Y744891D01*
X454895Y747081D01*
X459105Y747081D01*
X462081Y744105D01*
X462081Y739895D01*
X459105Y736919D01*
X454895Y736919D01*
X452705Y739109D01*
X452632Y739162D01*
X452562Y739222D01*
X452532Y739234D01*
X452506Y739253D01*
X452419Y739280D01*
X452334Y739314D01*
X452293Y739318D01*
X452271Y739325D01*
X452238Y739324D01*
X452167Y739332D01*
X214833Y739332D01*
X214743Y739318D01*
X214652Y739310D01*
X214622Y739298D01*
X214590Y739293D01*
X214509Y739250D01*
X214426Y739214D01*
X214393Y739188D01*
X214373Y739177D01*
X214351Y739154D01*
X214295Y739109D01*
X212105Y736919D01*
X207895Y736919D01*
G37*
%LPD*%
%LPC*%
G36*
X119495Y452119D02*
X119495Y452119D01*
X116519Y455095D01*
X116519Y459305D01*
X119495Y462281D01*
X119899Y462281D01*
X119989Y462295D01*
X120080Y462303D01*
X120109Y462315D01*
X120141Y462320D01*
X120222Y462363D01*
X120306Y462399D01*
X120338Y462425D01*
X120359Y462436D01*
X120381Y462459D01*
X120437Y462504D01*
X138506Y480573D01*
X233072Y480573D01*
X233162Y480587D01*
X233253Y480595D01*
X233283Y480607D01*
X233315Y480612D01*
X233396Y480655D01*
X233479Y480691D01*
X233512Y480717D01*
X233532Y480728D01*
X233554Y480751D01*
X233610Y480796D01*
X233895Y481081D01*
X238105Y481081D01*
X238390Y480796D01*
X238463Y480743D01*
X238533Y480683D01*
X238563Y480671D01*
X238589Y480652D01*
X238676Y480625D01*
X238761Y480591D01*
X238802Y480587D01*
X238824Y480580D01*
X238857Y480581D01*
X238928Y480573D01*
X457745Y480573D01*
X457835Y480587D01*
X457926Y480595D01*
X457956Y480607D01*
X457988Y480612D01*
X458069Y480655D01*
X458153Y480691D01*
X458185Y480717D01*
X458205Y480728D01*
X458227Y480751D01*
X458284Y480796D01*
X458569Y481081D01*
X462778Y481081D01*
X465754Y478105D01*
X465754Y473895D01*
X462778Y470919D01*
X458569Y470919D01*
X458284Y471204D01*
X458209Y471258D01*
X458140Y471317D01*
X458110Y471329D01*
X458084Y471348D01*
X457997Y471375D01*
X457912Y471409D01*
X457871Y471413D01*
X457849Y471420D01*
X457816Y471419D01*
X457745Y471427D01*
X238928Y471427D01*
X238838Y471413D01*
X238747Y471405D01*
X238717Y471393D01*
X238685Y471388D01*
X238604Y471345D01*
X238521Y471309D01*
X238488Y471283D01*
X238468Y471272D01*
X238446Y471249D01*
X238390Y471204D01*
X238105Y470919D01*
X233895Y470919D01*
X233610Y471204D01*
X233537Y471257D01*
X233467Y471317D01*
X233437Y471329D01*
X233411Y471348D01*
X233324Y471375D01*
X233239Y471409D01*
X233198Y471413D01*
X233176Y471420D01*
X233143Y471419D01*
X233072Y471427D01*
X142609Y471427D01*
X142519Y471413D01*
X142428Y471405D01*
X142399Y471393D01*
X142367Y471388D01*
X142286Y471345D01*
X142202Y471309D01*
X142170Y471283D01*
X142149Y471272D01*
X142127Y471249D01*
X142071Y471204D01*
X126904Y456037D01*
X126851Y455963D01*
X126791Y455893D01*
X126779Y455863D01*
X126760Y455837D01*
X126733Y455750D01*
X126699Y455665D01*
X126695Y455624D01*
X126688Y455602D01*
X126689Y455570D01*
X126681Y455499D01*
X126681Y455095D01*
X123705Y452119D01*
X119495Y452119D01*
G37*
%LPD*%
%LPC*%
G36*
X196976Y757837D02*
X196976Y757837D01*
X196437Y758376D01*
X196363Y758429D01*
X196293Y758489D01*
X196263Y758501D01*
X196237Y758520D01*
X196150Y758547D01*
X196065Y758581D01*
X196024Y758585D01*
X196002Y758592D01*
X195970Y758591D01*
X195899Y758599D01*
X195495Y758599D01*
X192519Y761575D01*
X192519Y765785D01*
X195495Y768761D01*
X199705Y768761D01*
X201260Y767206D01*
X201333Y767153D01*
X201403Y767093D01*
X201433Y767081D01*
X201459Y767062D01*
X201546Y767035D01*
X201631Y767001D01*
X201672Y766997D01*
X201694Y766990D01*
X201727Y766991D01*
X201798Y766983D01*
X524872Y766983D01*
X524962Y766997D01*
X525053Y767005D01*
X525083Y767017D01*
X525115Y767022D01*
X525196Y767065D01*
X525279Y767101D01*
X525312Y767127D01*
X525332Y767138D01*
X525354Y767161D01*
X525410Y767206D01*
X528235Y770031D01*
X532445Y770031D01*
X535421Y767055D01*
X535421Y762845D01*
X532445Y759869D01*
X532041Y759869D01*
X531951Y759855D01*
X531860Y759847D01*
X531831Y759835D01*
X531799Y759830D01*
X531718Y759787D01*
X531634Y759751D01*
X531602Y759725D01*
X531581Y759714D01*
X531559Y759691D01*
X531503Y759646D01*
X529694Y757837D01*
X196976Y757837D01*
G37*
%LPD*%
%LPC*%
G36*
X156895Y420950D02*
X156895Y420950D01*
X153919Y423926D01*
X153919Y428136D01*
X156895Y431112D01*
X161105Y431112D01*
X163295Y428922D01*
X163368Y428869D01*
X163438Y428809D01*
X163468Y428797D01*
X163494Y428778D01*
X163581Y428751D01*
X163666Y428717D01*
X163707Y428713D01*
X163729Y428706D01*
X163762Y428707D01*
X163833Y428699D01*
X184278Y428699D01*
X184349Y428710D01*
X184421Y428712D01*
X184470Y428730D01*
X184521Y428738D01*
X184584Y428772D01*
X184652Y428797D01*
X184692Y428829D01*
X184738Y428854D01*
X184788Y428905D01*
X184844Y428950D01*
X184872Y428994D01*
X184908Y429032D01*
X184938Y429097D01*
X184977Y429157D01*
X184989Y429208D01*
X185011Y429255D01*
X185019Y429326D01*
X185037Y429396D01*
X185033Y429448D01*
X185038Y429499D01*
X185023Y429570D01*
X185018Y429641D01*
X184997Y429689D01*
X184986Y429740D01*
X184949Y429801D01*
X184921Y429867D01*
X184919Y429870D01*
X184919Y434105D01*
X187895Y437081D01*
X192105Y437081D01*
X195104Y434082D01*
X195112Y434058D01*
X195120Y434007D01*
X195154Y433944D01*
X195179Y433876D01*
X195211Y433836D01*
X195236Y433790D01*
X195288Y433740D01*
X195332Y433684D01*
X195376Y433656D01*
X195414Y433620D01*
X195479Y433590D01*
X195539Y433551D01*
X195590Y433539D01*
X195637Y433517D01*
X195708Y433509D01*
X195778Y433491D01*
X195830Y433495D01*
X195881Y433490D01*
X195952Y433505D01*
X196023Y433510D01*
X196071Y433531D01*
X196122Y433542D01*
X196183Y433579D01*
X196249Y433607D01*
X196305Y433651D01*
X196333Y433668D01*
X196348Y433686D01*
X196380Y433711D01*
X200305Y437637D01*
X290578Y437637D01*
X294524Y433691D01*
X294597Y433638D01*
X294667Y433578D01*
X294697Y433566D01*
X294723Y433547D01*
X294810Y433520D01*
X294895Y433486D01*
X294936Y433482D01*
X294958Y433475D01*
X294991Y433476D01*
X295062Y433468D01*
X610423Y433468D01*
X610538Y433487D01*
X610654Y433504D01*
X610660Y433506D01*
X610666Y433507D01*
X610769Y433562D01*
X610873Y433615D01*
X610878Y433620D01*
X610883Y433623D01*
X610963Y433707D01*
X611046Y433791D01*
X611049Y433797D01*
X611053Y433801D01*
X611061Y433818D01*
X611127Y433938D01*
X612032Y436124D01*
X614676Y438768D01*
X618130Y440199D01*
X621870Y440199D01*
X625324Y438768D01*
X627968Y436124D01*
X629399Y432670D01*
X629399Y428930D01*
X627968Y425476D01*
X625324Y422832D01*
X621870Y421401D01*
X618130Y421401D01*
X614676Y422832D01*
X612032Y425476D01*
X611127Y427662D01*
X611065Y427762D01*
X611005Y427862D01*
X611000Y427866D01*
X610997Y427871D01*
X610906Y427946D01*
X610818Y428022D01*
X610812Y428024D01*
X610807Y428028D01*
X610699Y428070D01*
X610590Y428114D01*
X610582Y428115D01*
X610578Y428116D01*
X610560Y428117D01*
X610423Y428132D01*
X292536Y428132D01*
X288590Y432078D01*
X288517Y432131D01*
X288447Y432191D01*
X288417Y432203D01*
X288391Y432222D01*
X288304Y432249D01*
X288219Y432283D01*
X288178Y432287D01*
X288156Y432294D01*
X288123Y432293D01*
X288052Y432301D01*
X202831Y432301D01*
X202741Y432287D01*
X202650Y432279D01*
X202620Y432267D01*
X202588Y432262D01*
X202507Y432219D01*
X202424Y432183D01*
X202391Y432157D01*
X202371Y432146D01*
X202349Y432123D01*
X202293Y432078D01*
X193578Y423363D01*
X163833Y423363D01*
X163743Y423349D01*
X163652Y423341D01*
X163622Y423329D01*
X163590Y423324D01*
X163509Y423281D01*
X163426Y423245D01*
X163393Y423219D01*
X163373Y423208D01*
X163351Y423185D01*
X163295Y423140D01*
X161105Y420950D01*
X156895Y420950D01*
G37*
%LPD*%
%LPC*%
G36*
X579799Y524919D02*
X579799Y524919D01*
X577609Y527109D01*
X577536Y527162D01*
X577466Y527222D01*
X577436Y527234D01*
X577410Y527253D01*
X577323Y527280D01*
X577238Y527314D01*
X577197Y527318D01*
X577175Y527325D01*
X577142Y527324D01*
X577071Y527332D01*
X338895Y527332D01*
X331531Y534696D01*
X331457Y534749D01*
X331388Y534809D01*
X331357Y534821D01*
X331331Y534840D01*
X331244Y534867D01*
X331159Y534901D01*
X331118Y534905D01*
X331096Y534912D01*
X331064Y534911D01*
X330993Y534919D01*
X327895Y534919D01*
X324919Y537895D01*
X324919Y542105D01*
X327895Y545081D01*
X332105Y545081D01*
X335081Y542105D01*
X335081Y539007D01*
X335095Y538917D01*
X335103Y538826D01*
X335115Y538796D01*
X335120Y538765D01*
X335163Y538684D01*
X335199Y538600D01*
X335225Y538568D01*
X335236Y538547D01*
X335259Y538525D01*
X335304Y538469D01*
X335678Y538095D01*
X335736Y538053D01*
X335788Y538004D01*
X335835Y537982D01*
X335878Y537951D01*
X335946Y537930D01*
X336011Y537900D01*
X336063Y537894D01*
X336113Y537879D01*
X336185Y537881D01*
X336256Y537873D01*
X336307Y537884D01*
X336359Y537885D01*
X336426Y537910D01*
X336496Y537925D01*
X336541Y537952D01*
X336590Y537970D01*
X336646Y538014D01*
X336707Y538051D01*
X336741Y538091D01*
X336782Y538123D01*
X336820Y538184D01*
X336867Y538238D01*
X336887Y538287D01*
X336915Y538330D01*
X336932Y538400D01*
X336959Y538466D01*
X336967Y538538D01*
X336975Y538569D01*
X336973Y538592D01*
X336978Y538633D01*
X336978Y539105D01*
X339954Y542081D01*
X344163Y542081D01*
X346353Y539891D01*
X346427Y539838D01*
X346496Y539778D01*
X346526Y539766D01*
X346553Y539747D01*
X346639Y539720D01*
X346724Y539686D01*
X346765Y539682D01*
X346788Y539675D01*
X346820Y539676D01*
X346891Y539668D01*
X436597Y539668D01*
X436687Y539682D01*
X436778Y539690D01*
X436808Y539702D01*
X436840Y539707D01*
X436921Y539750D01*
X437004Y539786D01*
X437037Y539812D01*
X437057Y539823D01*
X437079Y539846D01*
X437135Y539891D01*
X439535Y542291D01*
X443745Y542291D01*
X446721Y539315D01*
X446721Y535105D01*
X445582Y533967D01*
X445541Y533909D01*
X445491Y533857D01*
X445469Y533810D01*
X445439Y533768D01*
X445418Y533699D01*
X445388Y533634D01*
X445382Y533582D01*
X445367Y533532D01*
X445368Y533461D01*
X445361Y533390D01*
X445372Y533339D01*
X445373Y533287D01*
X445398Y533219D01*
X445413Y533149D01*
X445440Y533104D01*
X445457Y533056D01*
X445502Y533000D01*
X445539Y532938D01*
X445579Y532904D01*
X445611Y532864D01*
X445671Y532825D01*
X445726Y532778D01*
X445774Y532759D01*
X445818Y532731D01*
X445887Y532713D01*
X445954Y532686D01*
X446025Y532678D01*
X446057Y532670D01*
X446080Y532672D01*
X446121Y532668D01*
X577071Y532668D01*
X577161Y532682D01*
X577252Y532690D01*
X577282Y532702D01*
X577314Y532707D01*
X577395Y532750D01*
X577478Y532786D01*
X577511Y532812D01*
X577531Y532823D01*
X577553Y532846D01*
X577609Y532891D01*
X579799Y535081D01*
X584009Y535081D01*
X586985Y532105D01*
X586985Y527895D01*
X584009Y524919D01*
X579799Y524919D01*
G37*
%LPD*%
%LPC*%
G36*
X131895Y361919D02*
X131895Y361919D01*
X128919Y364895D01*
X128919Y369105D01*
X131895Y372081D01*
X136105Y372081D01*
X137855Y370331D01*
X137928Y370278D01*
X137998Y370218D01*
X138028Y370206D01*
X138054Y370187D01*
X138141Y370160D01*
X138226Y370126D01*
X138267Y370122D01*
X138289Y370115D01*
X138322Y370116D01*
X138393Y370108D01*
X523508Y370108D01*
X523598Y370122D01*
X523689Y370130D01*
X523719Y370142D01*
X523751Y370147D01*
X523832Y370190D01*
X523915Y370226D01*
X523948Y370252D01*
X523968Y370263D01*
X523990Y370286D01*
X524046Y370331D01*
X526236Y372521D01*
X530446Y372521D01*
X533422Y369545D01*
X533422Y365335D01*
X530446Y362359D01*
X526236Y362359D01*
X524046Y364549D01*
X523973Y364602D01*
X523903Y364662D01*
X523873Y364674D01*
X523847Y364693D01*
X523760Y364720D01*
X523675Y364754D01*
X523634Y364758D01*
X523612Y364765D01*
X523579Y364764D01*
X523508Y364772D01*
X139273Y364772D01*
X139183Y364758D01*
X139092Y364750D01*
X139062Y364738D01*
X139030Y364733D01*
X138949Y364690D01*
X138866Y364654D01*
X138833Y364628D01*
X138813Y364617D01*
X138791Y364594D01*
X138735Y364549D01*
X136105Y361919D01*
X131895Y361919D01*
G37*
%LPD*%
%LPC*%
G36*
X157895Y564919D02*
X157895Y564919D01*
X154919Y567895D01*
X154919Y572105D01*
X157895Y575081D01*
X162105Y575081D01*
X164295Y572891D01*
X164368Y572838D01*
X164438Y572778D01*
X164468Y572766D01*
X164494Y572747D01*
X164581Y572720D01*
X164666Y572686D01*
X164707Y572682D01*
X164729Y572675D01*
X164762Y572676D01*
X164833Y572668D01*
X545167Y572668D01*
X545257Y572682D01*
X545348Y572690D01*
X545378Y572702D01*
X545410Y572707D01*
X545491Y572750D01*
X545574Y572786D01*
X545607Y572812D01*
X545627Y572823D01*
X545649Y572846D01*
X545705Y572891D01*
X547895Y575081D01*
X552105Y575081D01*
X555081Y572105D01*
X555081Y567895D01*
X552105Y564919D01*
X547895Y564919D01*
X545705Y567109D01*
X545632Y567162D01*
X545562Y567222D01*
X545532Y567234D01*
X545506Y567253D01*
X545419Y567280D01*
X545334Y567314D01*
X545293Y567318D01*
X545271Y567325D01*
X545238Y567324D01*
X545167Y567332D01*
X164833Y567332D01*
X164743Y567318D01*
X164652Y567310D01*
X164622Y567298D01*
X164590Y567293D01*
X164509Y567250D01*
X164426Y567214D01*
X164393Y567188D01*
X164373Y567177D01*
X164351Y567154D01*
X164295Y567109D01*
X162105Y564919D01*
X157895Y564919D01*
G37*
%LPD*%
%LPC*%
G36*
X117895Y714919D02*
X117895Y714919D01*
X114919Y717895D01*
X114919Y722105D01*
X117895Y725081D01*
X122105Y725081D01*
X124295Y722891D01*
X124368Y722838D01*
X124438Y722778D01*
X124468Y722766D01*
X124494Y722747D01*
X124581Y722720D01*
X124666Y722686D01*
X124707Y722682D01*
X124729Y722675D01*
X124762Y722676D01*
X124833Y722668D01*
X465167Y722668D01*
X465257Y722682D01*
X465348Y722690D01*
X465378Y722702D01*
X465410Y722707D01*
X465491Y722750D01*
X465574Y722786D01*
X465607Y722812D01*
X465627Y722823D01*
X465649Y722846D01*
X465705Y722891D01*
X467895Y725081D01*
X472105Y725081D01*
X475081Y722105D01*
X475081Y717895D01*
X472105Y714919D01*
X467895Y714919D01*
X465705Y717109D01*
X465632Y717162D01*
X465562Y717222D01*
X465532Y717234D01*
X465506Y717253D01*
X465419Y717280D01*
X465334Y717314D01*
X465293Y717318D01*
X465271Y717325D01*
X465238Y717324D01*
X465167Y717332D01*
X124833Y717332D01*
X124743Y717318D01*
X124652Y717310D01*
X124622Y717298D01*
X124590Y717293D01*
X124509Y717250D01*
X124426Y717214D01*
X124393Y717188D01*
X124373Y717177D01*
X124351Y717154D01*
X124295Y717109D01*
X122105Y714919D01*
X117895Y714919D01*
G37*
%LPD*%
%LPC*%
G36*
X247895Y514919D02*
X247895Y514919D01*
X244919Y517895D01*
X244919Y522105D01*
X247848Y525033D01*
X247889Y525091D01*
X247939Y525143D01*
X247961Y525190D01*
X247991Y525232D01*
X248012Y525301D01*
X248042Y525366D01*
X248048Y525418D01*
X248063Y525468D01*
X248062Y525539D01*
X248069Y525610D01*
X248058Y525661D01*
X248057Y525713D01*
X248032Y525781D01*
X248017Y525851D01*
X247990Y525896D01*
X247973Y525944D01*
X247928Y526000D01*
X247891Y526062D01*
X247851Y526096D01*
X247819Y526136D01*
X247759Y526175D01*
X247704Y526222D01*
X247656Y526241D01*
X247612Y526269D01*
X247543Y526287D01*
X247476Y526314D01*
X247405Y526322D01*
X247373Y526330D01*
X247350Y526328D01*
X247309Y526332D01*
X220008Y526332D01*
X219918Y526318D01*
X219827Y526310D01*
X219797Y526298D01*
X219765Y526293D01*
X219684Y526250D01*
X219601Y526214D01*
X219568Y526188D01*
X219548Y526177D01*
X219526Y526154D01*
X219470Y526109D01*
X214724Y521363D01*
X134873Y521363D01*
X134853Y521360D01*
X134834Y521362D01*
X134732Y521340D01*
X134630Y521324D01*
X134613Y521314D01*
X134593Y521310D01*
X134504Y521257D01*
X134413Y521208D01*
X134399Y521194D01*
X134382Y521184D01*
X134315Y521105D01*
X134243Y521030D01*
X134235Y521012D01*
X134222Y520997D01*
X134183Y520901D01*
X134140Y520807D01*
X134138Y520787D01*
X134130Y520769D01*
X134112Y520602D01*
X134112Y519895D01*
X131136Y516919D01*
X126926Y516919D01*
X123950Y519895D01*
X123950Y524105D01*
X126926Y527081D01*
X131135Y527081D01*
X131294Y526922D01*
X131368Y526869D01*
X131438Y526809D01*
X131468Y526797D01*
X131494Y526778D01*
X131581Y526751D01*
X131666Y526717D01*
X131707Y526713D01*
X131729Y526706D01*
X131762Y526707D01*
X131833Y526699D01*
X194278Y526699D01*
X194349Y526710D01*
X194421Y526712D01*
X194470Y526730D01*
X194521Y526738D01*
X194584Y526772D01*
X194652Y526797D01*
X194692Y526829D01*
X194738Y526854D01*
X194788Y526905D01*
X194844Y526950D01*
X194872Y526994D01*
X194908Y527032D01*
X194938Y527097D01*
X194977Y527157D01*
X194989Y527208D01*
X195011Y527255D01*
X195019Y527326D01*
X195037Y527396D01*
X195033Y527448D01*
X195038Y527499D01*
X195023Y527570D01*
X195018Y527641D01*
X194997Y527689D01*
X194986Y527740D01*
X194949Y527801D01*
X194921Y527867D01*
X194919Y527870D01*
X194919Y532105D01*
X197895Y535081D01*
X202105Y535081D01*
X204295Y532891D01*
X204369Y532838D01*
X204438Y532778D01*
X204468Y532766D01*
X204494Y532747D01*
X204581Y532720D01*
X204666Y532686D01*
X204707Y532682D01*
X204729Y532675D01*
X204762Y532676D01*
X204833Y532668D01*
X213138Y532668D01*
X213228Y532682D01*
X213319Y532690D01*
X213349Y532702D01*
X213381Y532707D01*
X213462Y532750D01*
X213545Y532786D01*
X213578Y532812D01*
X213598Y532823D01*
X213620Y532846D01*
X213676Y532891D01*
X216422Y535637D01*
X286949Y535637D01*
X287039Y535651D01*
X287130Y535659D01*
X287159Y535671D01*
X287191Y535676D01*
X287272Y535719D01*
X287356Y535755D01*
X287388Y535781D01*
X287409Y535792D01*
X287431Y535815D01*
X287433Y535816D01*
X287436Y535819D01*
X287487Y535860D01*
X304295Y552668D01*
X335567Y552668D01*
X335657Y552682D01*
X335748Y552690D01*
X335778Y552702D01*
X335810Y552707D01*
X335891Y552750D01*
X335974Y552786D01*
X336007Y552812D01*
X336027Y552823D01*
X336049Y552846D01*
X336105Y552891D01*
X338295Y555081D01*
X342505Y555081D01*
X345481Y552105D01*
X345481Y547895D01*
X342505Y544919D01*
X338295Y544919D01*
X336105Y547109D01*
X336032Y547162D01*
X335962Y547222D01*
X335932Y547234D01*
X335906Y547253D01*
X335819Y547280D01*
X335734Y547314D01*
X335693Y547318D01*
X335671Y547325D01*
X335638Y547324D01*
X335567Y547332D01*
X306820Y547332D01*
X306730Y547318D01*
X306639Y547310D01*
X306610Y547298D01*
X306578Y547293D01*
X306497Y547250D01*
X306413Y547214D01*
X306381Y547188D01*
X306360Y547177D01*
X306338Y547154D01*
X306282Y547109D01*
X294553Y535380D01*
X294511Y535322D01*
X294462Y535270D01*
X294440Y535223D01*
X294409Y535181D01*
X294388Y535112D01*
X294358Y535047D01*
X294352Y534995D01*
X294337Y534945D01*
X294339Y534874D01*
X294331Y534803D01*
X294342Y534752D01*
X294343Y534700D01*
X294368Y534632D01*
X294383Y534562D01*
X294410Y534517D01*
X294428Y534469D01*
X294473Y534413D01*
X294509Y534351D01*
X294549Y534317D01*
X294582Y534277D01*
X294642Y534238D01*
X294696Y534191D01*
X294745Y534172D01*
X294789Y534144D01*
X294858Y534126D01*
X294925Y534099D01*
X294996Y534091D01*
X295027Y534083D01*
X295050Y534085D01*
X295091Y534081D01*
X297505Y534081D01*
X300481Y531105D01*
X300481Y526895D01*
X297505Y523919D01*
X293295Y523919D01*
X291105Y526109D01*
X291032Y526162D01*
X290962Y526222D01*
X290932Y526234D01*
X290906Y526253D01*
X290819Y526280D01*
X290734Y526314D01*
X290693Y526318D01*
X290671Y526325D01*
X290638Y526324D01*
X290567Y526332D01*
X252691Y526332D01*
X252620Y526321D01*
X252548Y526319D01*
X252499Y526301D01*
X252448Y526293D01*
X252385Y526259D01*
X252317Y526234D01*
X252277Y526202D01*
X252231Y526177D01*
X252181Y526125D01*
X252125Y526081D01*
X252097Y526037D01*
X252061Y525999D01*
X252031Y525934D01*
X251992Y525874D01*
X251980Y525823D01*
X251958Y525776D01*
X251950Y525705D01*
X251932Y525635D01*
X251936Y525583D01*
X251931Y525532D01*
X251946Y525461D01*
X251951Y525390D01*
X251972Y525342D01*
X251983Y525291D01*
X252020Y525230D01*
X252048Y525164D01*
X252092Y525108D01*
X252109Y525080D01*
X252127Y525065D01*
X252152Y525033D01*
X255081Y522105D01*
X255081Y517895D01*
X252105Y514919D01*
X247895Y514919D01*
G37*
%LPD*%
%LPC*%
G36*
X177895Y594919D02*
X177895Y594919D01*
X174919Y597895D01*
X174919Y602105D01*
X177895Y605081D01*
X182105Y605081D01*
X184295Y602891D01*
X184368Y602838D01*
X184438Y602778D01*
X184468Y602766D01*
X184494Y602747D01*
X184581Y602720D01*
X184666Y602686D01*
X184707Y602682D01*
X184729Y602675D01*
X184762Y602676D01*
X184833Y602668D01*
X313167Y602668D01*
X313257Y602682D01*
X313348Y602690D01*
X313378Y602702D01*
X313410Y602707D01*
X313491Y602750D01*
X313574Y602786D01*
X313607Y602812D01*
X313627Y602823D01*
X313649Y602846D01*
X313705Y602891D01*
X315895Y605081D01*
X320105Y605081D01*
X322295Y602891D01*
X322368Y602838D01*
X322438Y602778D01*
X322468Y602766D01*
X322494Y602747D01*
X322581Y602720D01*
X322666Y602686D01*
X322707Y602682D01*
X322729Y602675D01*
X322762Y602676D01*
X322833Y602668D01*
X455167Y602668D01*
X455257Y602682D01*
X455348Y602690D01*
X455378Y602702D01*
X455410Y602707D01*
X455491Y602750D01*
X455574Y602786D01*
X455607Y602812D01*
X455627Y602823D01*
X455649Y602846D01*
X455705Y602891D01*
X457895Y605081D01*
X462105Y605081D01*
X465081Y602105D01*
X465081Y597895D01*
X462105Y594919D01*
X457895Y594919D01*
X455705Y597109D01*
X455632Y597162D01*
X455562Y597222D01*
X455532Y597234D01*
X455506Y597253D01*
X455419Y597280D01*
X455334Y597314D01*
X455293Y597318D01*
X455271Y597325D01*
X455238Y597324D01*
X455167Y597332D01*
X322833Y597332D01*
X322743Y597318D01*
X322652Y597310D01*
X322622Y597298D01*
X322590Y597293D01*
X322509Y597250D01*
X322426Y597214D01*
X322393Y597188D01*
X322373Y597177D01*
X322364Y597168D01*
X322363Y597168D01*
X322348Y597152D01*
X322295Y597109D01*
X320105Y594919D01*
X315895Y594919D01*
X313705Y597109D01*
X313632Y597162D01*
X313562Y597222D01*
X313532Y597234D01*
X313506Y597253D01*
X313419Y597280D01*
X313334Y597314D01*
X313293Y597318D01*
X313271Y597325D01*
X313238Y597324D01*
X313167Y597332D01*
X184833Y597332D01*
X184743Y597318D01*
X184652Y597310D01*
X184622Y597298D01*
X184590Y597293D01*
X184509Y597250D01*
X184426Y597214D01*
X184393Y597188D01*
X184373Y597177D01*
X184364Y597168D01*
X184363Y597168D01*
X184348Y597152D01*
X184295Y597109D01*
X182105Y594919D01*
X177895Y594919D01*
G37*
%LPD*%
%LPC*%
G36*
X608285Y698499D02*
X608285Y698499D01*
X605309Y701475D01*
X605309Y705684D01*
X605658Y706033D01*
X605699Y706091D01*
X605749Y706143D01*
X605771Y706190D01*
X605801Y706232D01*
X605822Y706301D01*
X605852Y706366D01*
X605858Y706418D01*
X605873Y706468D01*
X605872Y706539D01*
X605879Y706610D01*
X605868Y706661D01*
X605867Y706713D01*
X605842Y706781D01*
X605827Y706851D01*
X605800Y706896D01*
X605783Y706944D01*
X605738Y707000D01*
X605701Y707062D01*
X605661Y707096D01*
X605629Y707136D01*
X605569Y707175D01*
X605514Y707222D01*
X605466Y707241D01*
X605422Y707269D01*
X605353Y707287D01*
X605286Y707314D01*
X605215Y707322D01*
X605183Y707330D01*
X605160Y707328D01*
X605119Y707332D01*
X431738Y707332D01*
X431648Y707318D01*
X431557Y707310D01*
X431527Y707298D01*
X431495Y707293D01*
X431414Y707250D01*
X431331Y707214D01*
X431298Y707188D01*
X431278Y707177D01*
X431256Y707154D01*
X431200Y707109D01*
X428940Y704849D01*
X424730Y704849D01*
X421754Y707825D01*
X421754Y712035D01*
X424730Y715011D01*
X428940Y715011D01*
X431060Y712891D01*
X431133Y712838D01*
X431203Y712778D01*
X431233Y712766D01*
X431259Y712747D01*
X431346Y712720D01*
X431431Y712686D01*
X431472Y712682D01*
X431494Y712675D01*
X431527Y712676D01*
X431598Y712668D01*
X635167Y712668D01*
X635257Y712682D01*
X635348Y712690D01*
X635378Y712702D01*
X635410Y712707D01*
X635491Y712750D01*
X635574Y712786D01*
X635607Y712812D01*
X635627Y712823D01*
X635649Y712846D01*
X635705Y712891D01*
X637895Y715081D01*
X642105Y715081D01*
X645081Y712105D01*
X645081Y707895D01*
X642105Y704919D01*
X637895Y704919D01*
X635705Y707109D01*
X635632Y707162D01*
X635562Y707222D01*
X635532Y707234D01*
X635506Y707253D01*
X635419Y707280D01*
X635334Y707314D01*
X635293Y707318D01*
X635271Y707325D01*
X635238Y707324D01*
X635167Y707332D01*
X615661Y707332D01*
X615590Y707321D01*
X615518Y707319D01*
X615469Y707301D01*
X615418Y707293D01*
X615355Y707259D01*
X615287Y707234D01*
X615247Y707202D01*
X615201Y707177D01*
X615151Y707125D01*
X615095Y707081D01*
X615067Y707037D01*
X615031Y706999D01*
X615001Y706934D01*
X614962Y706874D01*
X614950Y706823D01*
X614928Y706776D01*
X614920Y706705D01*
X614902Y706635D01*
X614906Y706583D01*
X614901Y706532D01*
X614916Y706461D01*
X614921Y706390D01*
X614942Y706342D01*
X614953Y706291D01*
X614990Y706230D01*
X615018Y706164D01*
X615063Y706108D01*
X615079Y706080D01*
X615097Y706065D01*
X615122Y706033D01*
X615471Y705684D01*
X615471Y701475D01*
X612495Y698499D01*
X608285Y698499D01*
G37*
%LPD*%
%LPC*%
G36*
X602914Y443458D02*
X602914Y443458D01*
X600907Y444289D01*
X600843Y444304D01*
X600783Y444329D01*
X600700Y444338D01*
X600668Y444345D01*
X600648Y444344D01*
X600616Y444347D01*
X473191Y444347D01*
X473126Y444337D01*
X473061Y444336D01*
X472981Y444313D01*
X472948Y444308D01*
X472931Y444298D01*
X472900Y444289D01*
X471086Y443538D01*
X468914Y443538D01*
X466906Y444370D01*
X465370Y445906D01*
X464538Y447914D01*
X464538Y450086D01*
X465370Y452094D01*
X466906Y453630D01*
X468914Y454462D01*
X471086Y454462D01*
X473145Y453609D01*
X473152Y453603D01*
X473182Y453591D01*
X473208Y453572D01*
X473295Y453545D01*
X473380Y453511D01*
X473421Y453507D01*
X473443Y453500D01*
X473475Y453501D01*
X473547Y453493D01*
X600616Y453493D01*
X600681Y453503D01*
X600746Y453504D01*
X600826Y453527D01*
X600859Y453532D01*
X600876Y453542D01*
X600907Y453551D01*
X602914Y454382D01*
X605086Y454382D01*
X607094Y453550D01*
X608630Y452014D01*
X609462Y450006D01*
X609462Y447834D01*
X608630Y445826D01*
X607094Y444290D01*
X605086Y443458D01*
X602914Y443458D01*
G37*
%LPD*%
%LPC*%
G36*
X144895Y655319D02*
X144895Y655319D01*
X141919Y658295D01*
X141919Y662505D01*
X144895Y665481D01*
X149105Y665481D01*
X151295Y663291D01*
X151368Y663238D01*
X151438Y663178D01*
X151468Y663166D01*
X151494Y663147D01*
X151581Y663120D01*
X151666Y663086D01*
X151707Y663082D01*
X151729Y663075D01*
X151762Y663076D01*
X151833Y663068D01*
X351517Y663068D01*
X351607Y663082D01*
X351698Y663090D01*
X351728Y663102D01*
X351760Y663107D01*
X351841Y663150D01*
X351924Y663186D01*
X351957Y663212D01*
X351977Y663223D01*
X351999Y663246D01*
X352055Y663291D01*
X354245Y665481D01*
X358455Y665481D01*
X361431Y662505D01*
X361431Y658295D01*
X358455Y655319D01*
X354245Y655319D01*
X352055Y657509D01*
X351982Y657562D01*
X351912Y657622D01*
X351882Y657634D01*
X351856Y657653D01*
X351769Y657680D01*
X351684Y657714D01*
X351643Y657718D01*
X351621Y657725D01*
X351588Y657724D01*
X351517Y657732D01*
X151833Y657732D01*
X151743Y657718D01*
X151652Y657710D01*
X151622Y657698D01*
X151590Y657693D01*
X151509Y657650D01*
X151426Y657614D01*
X151393Y657588D01*
X151373Y657577D01*
X151351Y657554D01*
X151295Y657509D01*
X149105Y655319D01*
X144895Y655319D01*
G37*
%LPD*%
%LPC*%
G36*
X329045Y628649D02*
X329045Y628649D01*
X326064Y631631D01*
X326046Y631712D01*
X326030Y631814D01*
X326020Y631831D01*
X326016Y631851D01*
X325963Y631940D01*
X325914Y632031D01*
X325900Y632045D01*
X325890Y632062D01*
X325811Y632129D01*
X325736Y632201D01*
X325718Y632209D01*
X325703Y632222D01*
X325607Y632261D01*
X325513Y632304D01*
X325493Y632306D01*
X325475Y632314D01*
X325308Y632332D01*
X139833Y632332D01*
X139743Y632318D01*
X139652Y632310D01*
X139622Y632298D01*
X139590Y632293D01*
X139509Y632250D01*
X139426Y632214D01*
X139393Y632188D01*
X139373Y632177D01*
X139351Y632154D01*
X139295Y632109D01*
X137105Y629919D01*
X132895Y629919D01*
X129919Y632895D01*
X129919Y637105D01*
X132895Y640081D01*
X137105Y640081D01*
X139295Y637891D01*
X139368Y637838D01*
X139438Y637778D01*
X139468Y637766D01*
X139494Y637747D01*
X139581Y637720D01*
X139666Y637686D01*
X139707Y637682D01*
X139729Y637675D01*
X139762Y637676D01*
X139833Y637668D01*
X327587Y637668D01*
X327677Y637682D01*
X327768Y637690D01*
X327798Y637702D01*
X327830Y637707D01*
X327911Y637750D01*
X327994Y637786D01*
X328027Y637812D01*
X328047Y637823D01*
X328048Y637824D01*
X328070Y637846D01*
X328125Y637891D01*
X329045Y638811D01*
X333255Y638811D01*
X336231Y635835D01*
X336231Y631625D01*
X333255Y628649D01*
X329045Y628649D01*
G37*
%LPD*%
%LPC*%
G36*
X308895Y574919D02*
X308895Y574919D01*
X305919Y577895D01*
X305919Y582105D01*
X308895Y585081D01*
X313105Y585081D01*
X315295Y582891D01*
X315368Y582838D01*
X315438Y582778D01*
X315468Y582766D01*
X315494Y582747D01*
X315581Y582720D01*
X315666Y582686D01*
X315707Y582682D01*
X315729Y582675D01*
X315762Y582676D01*
X315833Y582668D01*
X485167Y582668D01*
X485257Y582682D01*
X485348Y582690D01*
X485378Y582702D01*
X485410Y582707D01*
X485491Y582750D01*
X485574Y582786D01*
X485607Y582812D01*
X485627Y582823D01*
X485649Y582846D01*
X485705Y582891D01*
X487895Y585081D01*
X492105Y585081D01*
X495081Y582105D01*
X495081Y577895D01*
X492105Y574919D01*
X487895Y574919D01*
X485705Y577109D01*
X485632Y577162D01*
X485562Y577222D01*
X485532Y577234D01*
X485506Y577253D01*
X485419Y577280D01*
X485334Y577314D01*
X485293Y577318D01*
X485271Y577325D01*
X485238Y577324D01*
X485167Y577332D01*
X315833Y577332D01*
X315743Y577318D01*
X315652Y577310D01*
X315622Y577298D01*
X315590Y577293D01*
X315509Y577250D01*
X315426Y577214D01*
X315393Y577188D01*
X315373Y577177D01*
X315351Y577154D01*
X315295Y577109D01*
X313105Y574919D01*
X308895Y574919D01*
G37*
%LPD*%
%LPC*%
G36*
X618130Y446801D02*
X618130Y446801D01*
X614676Y448232D01*
X612032Y450876D01*
X610601Y454330D01*
X610601Y458070D01*
X611507Y460256D01*
X611534Y460369D01*
X611562Y460483D01*
X611562Y460489D01*
X611563Y460495D01*
X611552Y460612D01*
X611543Y460728D01*
X611541Y460734D01*
X611540Y460740D01*
X611492Y460848D01*
X611447Y460954D01*
X611442Y460960D01*
X611440Y460965D01*
X611427Y460979D01*
X611342Y461085D01*
X607318Y465109D01*
X607244Y465162D01*
X607175Y465222D01*
X607144Y465234D01*
X607118Y465253D01*
X607031Y465280D01*
X606946Y465314D01*
X606905Y465318D01*
X606883Y465325D01*
X606851Y465324D01*
X606780Y465332D01*
X490833Y465332D01*
X490743Y465318D01*
X490652Y465310D01*
X490622Y465298D01*
X490590Y465293D01*
X490509Y465250D01*
X490426Y465214D01*
X490393Y465188D01*
X490373Y465177D01*
X490351Y465154D01*
X490295Y465109D01*
X488105Y462919D01*
X483895Y462919D01*
X480919Y465895D01*
X480919Y470105D01*
X483895Y473081D01*
X488105Y473081D01*
X490295Y470891D01*
X490368Y470838D01*
X490438Y470778D01*
X490468Y470766D01*
X490494Y470747D01*
X490581Y470720D01*
X490666Y470686D01*
X490707Y470682D01*
X490729Y470675D01*
X490762Y470676D01*
X490833Y470668D01*
X609305Y470668D01*
X611091Y468882D01*
X615115Y464858D01*
X615209Y464790D01*
X615303Y464720D01*
X615309Y464718D01*
X615314Y464715D01*
X615425Y464680D01*
X615537Y464644D01*
X615543Y464644D01*
X615549Y464642D01*
X615666Y464645D01*
X615783Y464646D01*
X615790Y464648D01*
X615795Y464649D01*
X615813Y464655D01*
X615944Y464693D01*
X618130Y465599D01*
X621870Y465599D01*
X625324Y464168D01*
X627968Y461524D01*
X629399Y458070D01*
X629399Y454330D01*
X627968Y450876D01*
X625324Y448232D01*
X621870Y446801D01*
X618130Y446801D01*
G37*
%LPD*%
%LPC*%
G36*
X61475Y762282D02*
X61475Y762282D01*
X54940Y764989D01*
X49938Y769991D01*
X47231Y776526D01*
X47231Y783600D01*
X49938Y790135D01*
X54940Y795137D01*
X61475Y797844D01*
X68549Y797844D01*
X75084Y795137D01*
X80086Y790135D01*
X82793Y783600D01*
X82793Y776526D01*
X80086Y769991D01*
X75084Y764989D01*
X68549Y762282D01*
X61475Y762282D01*
G37*
%LPD*%
%LPC*%
G36*
X631451Y262156D02*
X631451Y262156D01*
X624916Y264863D01*
X619914Y269865D01*
X617207Y276400D01*
X617207Y283474D01*
X619914Y290009D01*
X624916Y295011D01*
X631451Y297718D01*
X638525Y297718D01*
X645060Y295011D01*
X650062Y290009D01*
X652769Y283474D01*
X652769Y276400D01*
X650062Y269865D01*
X645060Y264863D01*
X638525Y262156D01*
X631451Y262156D01*
G37*
%LPD*%
%LPC*%
G36*
X61475Y262156D02*
X61475Y262156D01*
X54940Y264863D01*
X49938Y269865D01*
X47231Y276400D01*
X47231Y283474D01*
X49938Y290009D01*
X54940Y295011D01*
X61475Y297718D01*
X68549Y297718D01*
X75084Y295011D01*
X80086Y290009D01*
X82793Y283474D01*
X82793Y276400D01*
X80086Y269865D01*
X75084Y264863D01*
X68549Y262156D01*
X61475Y262156D01*
G37*
%LPD*%
%LPC*%
G36*
X631451Y762282D02*
X631451Y762282D01*
X624916Y764989D01*
X619914Y769991D01*
X617207Y776526D01*
X617207Y783600D01*
X619914Y790135D01*
X624916Y795137D01*
X631451Y797844D01*
X638525Y797844D01*
X645060Y795137D01*
X650062Y790135D01*
X652769Y783600D01*
X652769Y776526D01*
X650062Y769991D01*
X645060Y764989D01*
X638525Y762282D01*
X631451Y762282D01*
G37*
%LPD*%
%LPC*%
G36*
X306175Y643199D02*
X306175Y643199D01*
X303199Y646175D01*
X303199Y650384D01*
X306175Y653360D01*
X310384Y653360D01*
X310853Y652891D01*
X310927Y652838D01*
X310996Y652778D01*
X311027Y652766D01*
X311053Y652747D01*
X311140Y652720D01*
X311225Y652686D01*
X311266Y652682D01*
X311288Y652675D01*
X311320Y652676D01*
X311391Y652668D01*
X465167Y652668D01*
X465257Y652682D01*
X465348Y652690D01*
X465378Y652702D01*
X465410Y652707D01*
X465491Y652750D01*
X465574Y652786D01*
X465607Y652812D01*
X465627Y652823D01*
X465649Y652846D01*
X465705Y652891D01*
X467895Y655081D01*
X472105Y655081D01*
X475081Y652105D01*
X475081Y647895D01*
X472105Y644919D01*
X467895Y644919D01*
X465705Y647109D01*
X465632Y647162D01*
X465562Y647222D01*
X465532Y647234D01*
X465506Y647253D01*
X465419Y647280D01*
X465334Y647314D01*
X465293Y647318D01*
X465271Y647325D01*
X465238Y647324D01*
X465167Y647332D01*
X314121Y647332D01*
X314102Y647329D01*
X314082Y647331D01*
X313981Y647309D01*
X313878Y647293D01*
X313861Y647283D01*
X313841Y647279D01*
X313752Y647226D01*
X313661Y647177D01*
X313647Y647163D01*
X313630Y647153D01*
X313563Y647074D01*
X313492Y646999D01*
X313483Y646981D01*
X313470Y646966D01*
X313432Y646870D01*
X313388Y646776D01*
X313386Y646756D01*
X313378Y646738D01*
X313360Y646571D01*
X313360Y646175D01*
X310384Y643199D01*
X306175Y643199D01*
G37*
%LPD*%
%LPC*%
G36*
X402505Y994819D02*
X402505Y994819D01*
X399524Y997801D01*
X399506Y997882D01*
X399490Y997984D01*
X399480Y998001D01*
X399476Y998021D01*
X399423Y998110D01*
X399374Y998201D01*
X399360Y998215D01*
X399350Y998232D01*
X399271Y998299D01*
X399196Y998371D01*
X399178Y998379D01*
X399163Y998392D01*
X399067Y998431D01*
X398973Y998474D01*
X398953Y998476D01*
X398935Y998484D01*
X398768Y998502D01*
X254503Y998502D01*
X254413Y998488D01*
X254322Y998480D01*
X254292Y998468D01*
X254260Y998463D01*
X254179Y998420D01*
X254096Y998384D01*
X254063Y998358D01*
X254043Y998347D01*
X254042Y998347D01*
X254042Y998346D01*
X254020Y998324D01*
X253965Y998279D01*
X251775Y996089D01*
X247565Y996089D01*
X244589Y999065D01*
X244589Y1003275D01*
X247565Y1006251D01*
X251775Y1006251D01*
X253965Y1004061D01*
X254038Y1004008D01*
X254108Y1003948D01*
X254138Y1003936D01*
X254164Y1003917D01*
X254251Y1003890D01*
X254336Y1003856D01*
X254377Y1003852D01*
X254399Y1003845D01*
X254432Y1003846D01*
X254503Y1003838D01*
X401047Y1003838D01*
X401137Y1003852D01*
X401228Y1003860D01*
X401258Y1003872D01*
X401290Y1003877D01*
X401371Y1003920D01*
X401454Y1003956D01*
X401487Y1003982D01*
X401507Y1003993D01*
X401529Y1004016D01*
X401585Y1004061D01*
X402505Y1004981D01*
X406715Y1004981D01*
X409691Y1002005D01*
X409691Y997795D01*
X406715Y994819D01*
X402505Y994819D01*
G37*
%LPD*%
%LPC*%
G36*
X233802Y979693D02*
X233802Y979693D01*
X230693Y982802D01*
X230693Y986184D01*
X230690Y986204D01*
X230692Y986223D01*
X230670Y986325D01*
X230654Y986427D01*
X230644Y986444D01*
X230640Y986464D01*
X230587Y986553D01*
X230538Y986644D01*
X230524Y986658D01*
X230514Y986675D01*
X230435Y986742D01*
X230360Y986814D01*
X230342Y986822D01*
X230327Y986835D01*
X230231Y986874D01*
X230137Y986917D01*
X230117Y986919D01*
X230099Y986927D01*
X229932Y986945D01*
X197569Y986945D01*
X197455Y986926D01*
X197338Y986909D01*
X197333Y986907D01*
X197327Y986906D01*
X197224Y986851D01*
X197119Y986798D01*
X197115Y986793D01*
X197109Y986790D01*
X197029Y986706D01*
X196947Y986622D01*
X196943Y986616D01*
X196940Y986612D01*
X196932Y986595D01*
X196866Y986475D01*
X196630Y985906D01*
X195094Y984370D01*
X193086Y983538D01*
X190914Y983538D01*
X188906Y984370D01*
X187370Y985906D01*
X186538Y987914D01*
X186538Y990086D01*
X187370Y992094D01*
X188906Y993630D01*
X190914Y994462D01*
X193086Y994462D01*
X195094Y993630D01*
X196220Y992504D01*
X196294Y992451D01*
X196364Y992391D01*
X196394Y992379D01*
X196420Y992360D01*
X196507Y992333D01*
X196592Y992299D01*
X196633Y992295D01*
X196655Y992288D01*
X196687Y992289D01*
X196759Y992281D01*
X201782Y992281D01*
X201794Y992283D01*
X201806Y992281D01*
X201915Y992303D01*
X202025Y992320D01*
X202036Y992326D01*
X202047Y992328D01*
X202145Y992384D01*
X202242Y992436D01*
X202251Y992444D01*
X202261Y992450D01*
X202335Y992533D01*
X202412Y992614D01*
X202417Y992625D01*
X202425Y992634D01*
X202469Y992736D01*
X202515Y992837D01*
X202517Y992849D01*
X202521Y992860D01*
X202530Y992971D01*
X202543Y993081D01*
X202540Y993093D01*
X202541Y993105D01*
X202514Y993213D01*
X202490Y993322D01*
X202484Y993332D01*
X202481Y993344D01*
X202398Y993489D01*
X201610Y994575D01*
X200884Y996000D01*
X200389Y997521D01*
X200254Y998377D01*
X209538Y998377D01*
X209558Y998380D01*
X209577Y998378D01*
X209679Y998400D01*
X209781Y998417D01*
X209798Y998426D01*
X209818Y998430D01*
X209907Y998483D01*
X209998Y998532D01*
X210012Y998546D01*
X210029Y998556D01*
X210096Y998635D01*
X210167Y998710D01*
X210176Y998728D01*
X210189Y998743D01*
X210227Y998839D01*
X210271Y998933D01*
X210273Y998953D01*
X210281Y998971D01*
X210299Y999138D01*
X210299Y999901D01*
X210301Y999901D01*
X210301Y999138D01*
X210304Y999118D01*
X210302Y999099D01*
X210324Y998997D01*
X210341Y998895D01*
X210350Y998878D01*
X210354Y998858D01*
X210407Y998769D01*
X210456Y998678D01*
X210470Y998664D01*
X210480Y998647D01*
X210559Y998580D01*
X210634Y998509D01*
X210652Y998500D01*
X210667Y998487D01*
X210763Y998448D01*
X210857Y998405D01*
X210877Y998403D01*
X210895Y998395D01*
X211062Y998377D01*
X220346Y998377D01*
X220211Y997521D01*
X219716Y996000D01*
X218990Y994575D01*
X218202Y993489D01*
X218196Y993479D01*
X218188Y993470D01*
X218141Y993370D01*
X218091Y993270D01*
X218090Y993258D01*
X218085Y993247D01*
X218072Y993137D01*
X218057Y993026D01*
X218059Y993014D01*
X218057Y993003D01*
X218081Y992894D01*
X218101Y992784D01*
X218107Y992774D01*
X218110Y992762D01*
X218167Y992667D01*
X218221Y992569D01*
X218230Y992561D01*
X218236Y992551D01*
X218320Y992479D01*
X218403Y992404D01*
X218414Y992399D01*
X218423Y992391D01*
X218527Y992349D01*
X218628Y992305D01*
X218640Y992304D01*
X218651Y992299D01*
X218818Y992281D01*
X230432Y992281D01*
X230522Y992295D01*
X230613Y992303D01*
X230642Y992315D01*
X230674Y992320D01*
X230755Y992363D01*
X230839Y992399D01*
X230871Y992425D01*
X230892Y992436D01*
X230914Y992459D01*
X230970Y992504D01*
X232329Y993863D01*
X239671Y993863D01*
X240643Y992891D01*
X240717Y992838D01*
X240787Y992778D01*
X240817Y992766D01*
X240843Y992747D01*
X240930Y992720D01*
X241015Y992686D01*
X241056Y992682D01*
X241078Y992675D01*
X241110Y992676D01*
X241181Y992668D01*
X285167Y992668D01*
X285257Y992682D01*
X285348Y992690D01*
X285378Y992702D01*
X285410Y992707D01*
X285491Y992750D01*
X285574Y992786D01*
X285607Y992812D01*
X285627Y992823D01*
X285649Y992846D01*
X285705Y992891D01*
X287895Y995081D01*
X292105Y995081D01*
X295081Y992105D01*
X295081Y987895D01*
X292105Y984919D01*
X287895Y984919D01*
X285705Y987109D01*
X285632Y987162D01*
X285562Y987222D01*
X285532Y987234D01*
X285506Y987253D01*
X285419Y987280D01*
X285334Y987314D01*
X285293Y987318D01*
X285271Y987325D01*
X285238Y987324D01*
X285167Y987332D01*
X242068Y987332D01*
X242048Y987329D01*
X242029Y987331D01*
X241927Y987309D01*
X241825Y987293D01*
X241808Y987283D01*
X241788Y987279D01*
X241699Y987226D01*
X241608Y987177D01*
X241594Y987163D01*
X241577Y987153D01*
X241510Y987074D01*
X241438Y986999D01*
X241430Y986981D01*
X241417Y986966D01*
X241378Y986870D01*
X241335Y986776D01*
X241333Y986756D01*
X241325Y986738D01*
X241307Y986571D01*
X241307Y982802D01*
X238198Y979693D01*
X233802Y979693D01*
G37*
%LPD*%
%LPC*%
G36*
X242025Y843689D02*
X242025Y843689D01*
X239454Y846260D01*
X239380Y846313D01*
X239311Y846373D01*
X239281Y846385D01*
X239255Y846404D01*
X239168Y846431D01*
X239083Y846465D01*
X239042Y846469D01*
X239020Y846476D01*
X238987Y846475D01*
X238916Y846483D01*
X179744Y846483D01*
X151531Y874696D01*
X151457Y874749D01*
X151388Y874809D01*
X151357Y874821D01*
X151331Y874840D01*
X151244Y874867D01*
X151159Y874901D01*
X151118Y874905D01*
X151096Y874912D01*
X151064Y874911D01*
X150993Y874919D01*
X147895Y874919D01*
X144919Y877895D01*
X144919Y882105D01*
X147895Y885081D01*
X152105Y885081D01*
X155081Y882105D01*
X155081Y879007D01*
X155095Y878917D01*
X155103Y878826D01*
X155115Y878797D01*
X155120Y878765D01*
X155163Y878684D01*
X155199Y878600D01*
X155225Y878568D01*
X155236Y878547D01*
X155259Y878525D01*
X155279Y878500D01*
X155283Y878494D01*
X155286Y878491D01*
X155304Y878469D01*
X181731Y852042D01*
X181805Y851989D01*
X181874Y851929D01*
X181905Y851917D01*
X181931Y851898D01*
X182018Y851871D01*
X182103Y851837D01*
X182144Y851833D01*
X182166Y851826D01*
X182198Y851827D01*
X182269Y851819D01*
X239678Y851819D01*
X239768Y851833D01*
X239859Y851841D01*
X239889Y851853D01*
X239921Y851858D01*
X240002Y851901D01*
X240086Y851937D01*
X240118Y851963D01*
X240138Y851974D01*
X240160Y851997D01*
X240216Y852042D01*
X242025Y853851D01*
X246235Y853851D01*
X249211Y850875D01*
X249211Y846665D01*
X246235Y843689D01*
X242025Y843689D01*
G37*
%LPD*%
%LPC*%
G36*
X407585Y894489D02*
X407585Y894489D01*
X404609Y897465D01*
X404609Y901675D01*
X407585Y904651D01*
X411795Y904651D01*
X413985Y902461D01*
X414058Y902408D01*
X414128Y902348D01*
X414158Y902336D01*
X414184Y902317D01*
X414271Y902290D01*
X414356Y902256D01*
X414397Y902252D01*
X414419Y902245D01*
X414452Y902246D01*
X414523Y902238D01*
X507727Y902238D01*
X507817Y902252D01*
X507908Y902260D01*
X507938Y902272D01*
X507970Y902277D01*
X508051Y902320D01*
X508134Y902356D01*
X508167Y902382D01*
X508187Y902393D01*
X508209Y902416D01*
X508265Y902461D01*
X510455Y904651D01*
X514665Y904651D01*
X517641Y901675D01*
X517641Y897465D01*
X514665Y894489D01*
X510455Y894489D01*
X508265Y896679D01*
X508192Y896732D01*
X508122Y896792D01*
X508092Y896804D01*
X508066Y896823D01*
X507979Y896850D01*
X507894Y896884D01*
X507853Y896888D01*
X507831Y896895D01*
X507798Y896894D01*
X507727Y896902D01*
X414523Y896902D01*
X414433Y896888D01*
X414342Y896880D01*
X414312Y896868D01*
X414280Y896863D01*
X414199Y896820D01*
X414116Y896784D01*
X414083Y896758D01*
X414063Y896747D01*
X414041Y896724D01*
X413985Y896679D01*
X411795Y894489D01*
X407585Y894489D01*
G37*
%LPD*%
%LPC*%
G36*
X513195Y969009D02*
X513195Y969009D01*
X510219Y971985D01*
X510219Y976195D01*
X513195Y979171D01*
X517405Y979171D01*
X519595Y976981D01*
X519668Y976928D01*
X519738Y976868D01*
X519768Y976856D01*
X519794Y976837D01*
X519881Y976810D01*
X519966Y976776D01*
X520007Y976772D01*
X520029Y976765D01*
X520062Y976766D01*
X520133Y976758D01*
X604257Y976758D01*
X604347Y976772D01*
X604438Y976780D01*
X604468Y976792D01*
X604500Y976797D01*
X604581Y976840D01*
X604664Y976876D01*
X604697Y976902D01*
X604717Y976913D01*
X604739Y976936D01*
X604795Y976981D01*
X607895Y980081D01*
X612105Y980081D01*
X615081Y977105D01*
X615081Y972895D01*
X612105Y969919D01*
X607895Y969919D01*
X606615Y971199D01*
X606542Y971252D01*
X606472Y971312D01*
X606442Y971324D01*
X606416Y971343D01*
X606329Y971370D01*
X606244Y971404D01*
X606203Y971408D01*
X606181Y971415D01*
X606148Y971414D01*
X606077Y971422D01*
X520133Y971422D01*
X520043Y971408D01*
X519952Y971400D01*
X519922Y971388D01*
X519890Y971383D01*
X519809Y971340D01*
X519726Y971304D01*
X519693Y971278D01*
X519673Y971267D01*
X519651Y971244D01*
X519595Y971199D01*
X517405Y969009D01*
X513195Y969009D01*
G37*
%LPD*%
G36*
X441380Y744679D02*
X441380Y744679D01*
X441452Y744681D01*
X441501Y744699D01*
X441552Y744707D01*
X441615Y744741D01*
X441683Y744766D01*
X441723Y744798D01*
X441769Y744823D01*
X441819Y744875D01*
X441875Y744919D01*
X441903Y744963D01*
X441939Y745001D01*
X441969Y745066D01*
X442008Y745126D01*
X442020Y745177D01*
X442042Y745224D01*
X442050Y745295D01*
X442068Y745365D01*
X442064Y745417D01*
X442069Y745468D01*
X442054Y745539D01*
X442049Y745610D01*
X442028Y745658D01*
X442017Y745709D01*
X441980Y745770D01*
X441952Y745836D01*
X441908Y745892D01*
X441891Y745920D01*
X441873Y745935D01*
X441848Y745967D01*
X440705Y747109D01*
X440631Y747162D01*
X440562Y747222D01*
X440532Y747234D01*
X440506Y747253D01*
X440419Y747280D01*
X440334Y747314D01*
X440293Y747318D01*
X440271Y747325D01*
X440238Y747324D01*
X440167Y747332D01*
X213691Y747332D01*
X213620Y747321D01*
X213548Y747319D01*
X213499Y747301D01*
X213448Y747293D01*
X213385Y747259D01*
X213317Y747234D01*
X213277Y747202D01*
X213231Y747177D01*
X213181Y747125D01*
X213125Y747081D01*
X213097Y747037D01*
X213061Y746999D01*
X213031Y746934D01*
X212992Y746874D01*
X212980Y746823D01*
X212958Y746776D01*
X212950Y746705D01*
X212932Y746635D01*
X212936Y746583D01*
X212931Y746532D01*
X212946Y746461D01*
X212951Y746390D01*
X212972Y746342D01*
X212983Y746291D01*
X213020Y746230D01*
X213048Y746164D01*
X213092Y746108D01*
X213109Y746080D01*
X213127Y746065D01*
X213152Y746033D01*
X214295Y744891D01*
X214369Y744838D01*
X214438Y744778D01*
X214468Y744766D01*
X214494Y744747D01*
X214581Y744720D01*
X214666Y744686D01*
X214707Y744682D01*
X214729Y744675D01*
X214762Y744676D01*
X214833Y744668D01*
X441309Y744668D01*
X441380Y744679D01*
G37*
%LPC*%
G36*
X417980Y67051D02*
X417980Y67051D01*
X414526Y68482D01*
X411882Y71126D01*
X410451Y74580D01*
X410451Y78320D01*
X411882Y81774D01*
X414526Y84418D01*
X414807Y84534D01*
X414906Y84596D01*
X415007Y84656D01*
X415011Y84661D01*
X415016Y84664D01*
X415090Y84753D01*
X415167Y84843D01*
X415169Y84849D01*
X415173Y84853D01*
X415215Y84961D01*
X415259Y85071D01*
X415260Y85078D01*
X415261Y85083D01*
X415262Y85101D01*
X415277Y85238D01*
X415277Y89641D01*
X415263Y89731D01*
X415255Y89822D01*
X415243Y89851D01*
X415238Y89883D01*
X415195Y89964D01*
X415159Y90048D01*
X415133Y90080D01*
X415122Y90101D01*
X415099Y90123D01*
X415054Y90179D01*
X406292Y98941D01*
X406218Y98994D01*
X406148Y99054D01*
X406118Y99066D01*
X406092Y99085D01*
X406005Y99112D01*
X405920Y99146D01*
X405879Y99150D01*
X405857Y99157D01*
X405825Y99156D01*
X405754Y99164D01*
X405350Y99164D01*
X402374Y102140D01*
X402374Y106350D01*
X405350Y109326D01*
X409560Y109326D01*
X412536Y106350D01*
X412536Y105946D01*
X412550Y105856D01*
X412558Y105765D01*
X412570Y105736D01*
X412575Y105704D01*
X412618Y105623D01*
X412654Y105539D01*
X412680Y105507D01*
X412691Y105486D01*
X412714Y105464D01*
X412759Y105408D01*
X421521Y96646D01*
X424423Y93744D01*
X424423Y85238D01*
X424441Y85123D01*
X424459Y85007D01*
X424461Y85001D01*
X424462Y84995D01*
X424517Y84892D01*
X424570Y84787D01*
X424575Y84783D01*
X424578Y84778D01*
X424662Y84697D01*
X424746Y84615D01*
X424752Y84612D01*
X424756Y84608D01*
X424773Y84600D01*
X424893Y84534D01*
X425174Y84418D01*
X427818Y81774D01*
X429249Y78320D01*
X429249Y74580D01*
X427818Y71126D01*
X425174Y68482D01*
X421720Y67051D01*
X417980Y67051D01*
G37*
%LPD*%
%LPC*%
G36*
X207895Y944919D02*
X207895Y944919D01*
X204919Y947895D01*
X204919Y952105D01*
X207895Y955081D01*
X212105Y955081D01*
X214295Y952891D01*
X214368Y952838D01*
X214438Y952778D01*
X214468Y952766D01*
X214494Y952747D01*
X214581Y952720D01*
X214666Y952686D01*
X214707Y952682D01*
X214729Y952675D01*
X214762Y952676D01*
X214833Y952668D01*
X285167Y952668D01*
X285257Y952682D01*
X285348Y952690D01*
X285378Y952702D01*
X285410Y952707D01*
X285491Y952750D01*
X285574Y952786D01*
X285607Y952812D01*
X285627Y952823D01*
X285649Y952846D01*
X285705Y952891D01*
X287895Y955081D01*
X292105Y955081D01*
X295081Y952105D01*
X295081Y947895D01*
X292105Y944919D01*
X287895Y944919D01*
X285705Y947109D01*
X285632Y947162D01*
X285562Y947222D01*
X285532Y947234D01*
X285506Y947253D01*
X285419Y947280D01*
X285334Y947314D01*
X285293Y947318D01*
X285271Y947325D01*
X285238Y947324D01*
X285167Y947332D01*
X214833Y947332D01*
X214743Y947318D01*
X214652Y947310D01*
X214622Y947298D01*
X214590Y947293D01*
X214509Y947250D01*
X214426Y947214D01*
X214393Y947188D01*
X214373Y947177D01*
X214351Y947154D01*
X214295Y947109D01*
X212105Y944919D01*
X207895Y944919D01*
G37*
%LPD*%
%LPC*%
G36*
X515535Y291239D02*
X515535Y291239D01*
X513467Y293308D01*
X513451Y293319D01*
X513438Y293335D01*
X513351Y293391D01*
X513267Y293451D01*
X513248Y293457D01*
X513232Y293468D01*
X513131Y293493D01*
X513032Y293524D01*
X513012Y293523D01*
X512993Y293528D01*
X512890Y293520D01*
X512786Y293517D01*
X512768Y293510D01*
X512748Y293509D01*
X512653Y293468D01*
X512555Y293433D01*
X512540Y293420D01*
X512521Y293413D01*
X512390Y293308D01*
X511082Y291999D01*
X506873Y291999D01*
X503897Y294975D01*
X503897Y299436D01*
X503894Y299455D01*
X503896Y299475D01*
X503874Y299576D01*
X503857Y299678D01*
X503848Y299696D01*
X503843Y299715D01*
X503790Y299804D01*
X503742Y299896D01*
X503728Y299909D01*
X503717Y299926D01*
X503639Y299994D01*
X503564Y300065D01*
X503546Y300073D01*
X503530Y300086D01*
X503434Y300125D01*
X503341Y300169D01*
X503321Y300171D01*
X503302Y300178D01*
X503227Y300187D01*
X500240Y303173D01*
X500240Y307035D01*
X500229Y307106D01*
X500227Y307178D01*
X500209Y307227D01*
X500201Y307278D01*
X500167Y307342D01*
X500142Y307409D01*
X500110Y307450D01*
X500085Y307496D01*
X500033Y307545D01*
X499989Y307601D01*
X499945Y307629D01*
X499907Y307665D01*
X499842Y307695D01*
X499782Y307734D01*
X499731Y307747D01*
X499684Y307769D01*
X499613Y307776D01*
X499543Y307794D01*
X499491Y307790D01*
X499440Y307796D01*
X499369Y307780D01*
X499298Y307775D01*
X499250Y307754D01*
X499199Y307743D01*
X499138Y307707D01*
X499072Y307679D01*
X499016Y307634D01*
X498988Y307617D01*
X498973Y307599D01*
X498941Y307574D01*
X497266Y305898D01*
X493056Y305898D01*
X490080Y308875D01*
X490080Y313084D01*
X493056Y316060D01*
X497266Y316060D01*
X500242Y313084D01*
X500242Y309221D01*
X500253Y309151D01*
X500255Y309079D01*
X500273Y309030D01*
X500281Y308979D01*
X500315Y308915D01*
X500340Y308848D01*
X500372Y308807D01*
X500397Y308761D01*
X500449Y308712D01*
X500493Y308656D01*
X500537Y308628D01*
X500575Y308592D01*
X500640Y308562D01*
X500700Y308523D01*
X500751Y308510D01*
X500798Y308488D01*
X500869Y308480D01*
X500939Y308463D01*
X500991Y308467D01*
X501042Y308461D01*
X501113Y308476D01*
X501184Y308482D01*
X501232Y308502D01*
X501283Y308513D01*
X501344Y308550D01*
X501410Y308578D01*
X501466Y308623D01*
X501494Y308639D01*
X501509Y308657D01*
X501541Y308683D01*
X503216Y310358D01*
X507426Y310358D01*
X510402Y307382D01*
X510402Y302922D01*
X510405Y302902D01*
X510403Y302883D01*
X510425Y302781D01*
X510441Y302679D01*
X510451Y302662D01*
X510455Y302642D01*
X510508Y302553D01*
X510557Y302462D01*
X510571Y302448D01*
X510581Y302431D01*
X510660Y302364D01*
X510735Y302292D01*
X510753Y302284D01*
X510768Y302271D01*
X510864Y302232D01*
X510958Y302189D01*
X510978Y302187D01*
X510996Y302179D01*
X511072Y302171D01*
X513150Y300092D01*
X513167Y300081D01*
X513179Y300065D01*
X513266Y300009D01*
X513350Y299949D01*
X513369Y299943D01*
X513386Y299932D01*
X513487Y299907D01*
X513585Y299876D01*
X513605Y299877D01*
X513625Y299872D01*
X513728Y299880D01*
X513831Y299883D01*
X513850Y299890D01*
X513870Y299891D01*
X513965Y299932D01*
X514062Y299967D01*
X514078Y299980D01*
X514096Y299987D01*
X514227Y300092D01*
X515535Y301401D01*
X519745Y301401D01*
X522721Y298425D01*
X522721Y294215D01*
X519745Y291239D01*
X515535Y291239D01*
G37*
%LPD*%
G36*
X410027Y926382D02*
X410027Y926382D01*
X410118Y926390D01*
X410148Y926402D01*
X410180Y926407D01*
X410260Y926450D01*
X410344Y926486D01*
X410377Y926512D01*
X410397Y926523D01*
X410419Y926546D01*
X410475Y926591D01*
X411026Y927141D01*
X411067Y927199D01*
X411117Y927251D01*
X411139Y927298D01*
X411169Y927340D01*
X411190Y927409D01*
X411220Y927474D01*
X411226Y927526D01*
X411241Y927576D01*
X411240Y927647D01*
X411247Y927718D01*
X411236Y927769D01*
X411235Y927821D01*
X411210Y927889D01*
X411195Y927959D01*
X411168Y928004D01*
X411151Y928052D01*
X411106Y928108D01*
X411069Y928170D01*
X411029Y928204D01*
X410997Y928244D01*
X410937Y928283D01*
X410882Y928330D01*
X410834Y928349D01*
X410790Y928377D01*
X410721Y928395D01*
X410654Y928422D01*
X410583Y928430D01*
X410551Y928438D01*
X410528Y928436D01*
X410487Y928440D01*
X256932Y928440D01*
X256862Y928429D01*
X256790Y928427D01*
X256741Y928409D01*
X256690Y928401D01*
X256626Y928367D01*
X256559Y928342D01*
X256518Y928310D01*
X256472Y928285D01*
X256423Y928233D01*
X256367Y928189D01*
X256339Y928145D01*
X256303Y928107D01*
X256273Y928042D01*
X256234Y927982D01*
X256221Y927931D01*
X256199Y927884D01*
X256191Y927813D01*
X256174Y927743D01*
X256178Y927691D01*
X256172Y927640D01*
X256187Y927569D01*
X256193Y927498D01*
X256213Y927450D01*
X256224Y927399D01*
X256261Y927338D01*
X256289Y927272D01*
X256334Y927216D01*
X256350Y927188D01*
X256368Y927173D01*
X256394Y927141D01*
X256944Y926591D01*
X257018Y926537D01*
X257087Y926478D01*
X257118Y926466D01*
X257144Y926447D01*
X257231Y926420D01*
X257316Y926386D01*
X257357Y926382D01*
X257379Y926375D01*
X257411Y926376D01*
X257482Y926368D01*
X409937Y926368D01*
X410027Y926382D01*
G37*
G36*
X379380Y782679D02*
X379380Y782679D01*
X379452Y782681D01*
X379501Y782699D01*
X379552Y782707D01*
X379615Y782741D01*
X379683Y782766D01*
X379723Y782798D01*
X379769Y782823D01*
X379819Y782875D01*
X379875Y782919D01*
X379903Y782963D01*
X379939Y783001D01*
X379969Y783066D01*
X380008Y783126D01*
X380020Y783177D01*
X380042Y783224D01*
X380050Y783295D01*
X380068Y783365D01*
X380064Y783417D01*
X380069Y783468D01*
X380054Y783539D01*
X380049Y783610D01*
X380028Y783658D01*
X380017Y783709D01*
X379980Y783770D01*
X379952Y783836D01*
X379908Y783892D01*
X379891Y783920D01*
X379873Y783935D01*
X379848Y783967D01*
X377705Y786109D01*
X377631Y786162D01*
X377562Y786222D01*
X377532Y786234D01*
X377506Y786253D01*
X377419Y786280D01*
X377334Y786314D01*
X377293Y786318D01*
X377271Y786325D01*
X377238Y786324D01*
X377167Y786332D01*
X297833Y786332D01*
X297743Y786318D01*
X297652Y786310D01*
X297622Y786298D01*
X297590Y786293D01*
X297510Y786250D01*
X297426Y786214D01*
X297393Y786188D01*
X297373Y786177D01*
X297351Y786154D01*
X297295Y786109D01*
X295152Y783967D01*
X295111Y783909D01*
X295061Y783857D01*
X295039Y783810D01*
X295009Y783768D01*
X294988Y783699D01*
X294958Y783634D01*
X294952Y783582D01*
X294937Y783532D01*
X294938Y783461D01*
X294931Y783390D01*
X294942Y783339D01*
X294943Y783287D01*
X294968Y783219D01*
X294983Y783149D01*
X295010Y783104D01*
X295027Y783056D01*
X295072Y783000D01*
X295109Y782938D01*
X295149Y782904D01*
X295181Y782864D01*
X295241Y782825D01*
X295296Y782778D01*
X295344Y782759D01*
X295388Y782731D01*
X295457Y782713D01*
X295524Y782686D01*
X295595Y782678D01*
X295627Y782670D01*
X295650Y782672D01*
X295691Y782668D01*
X379309Y782668D01*
X379380Y782679D01*
G37*
%LPC*%
G36*
X392580Y67051D02*
X392580Y67051D01*
X389126Y68482D01*
X386482Y71126D01*
X385051Y74580D01*
X385051Y78320D01*
X386482Y81774D01*
X389126Y84418D01*
X392580Y85849D01*
X396320Y85849D01*
X399774Y84418D01*
X402418Y81774D01*
X403849Y78320D01*
X403849Y74580D01*
X402418Y71126D01*
X399774Y68482D01*
X396320Y67051D01*
X392580Y67051D01*
G37*
%LPD*%
%LPC*%
G36*
X168130Y255201D02*
X168130Y255201D01*
X164676Y256632D01*
X162032Y259276D01*
X160601Y262730D01*
X160601Y266470D01*
X162032Y269924D01*
X164676Y272568D01*
X168130Y273999D01*
X171870Y273999D01*
X175324Y272568D01*
X177968Y269924D01*
X179399Y266470D01*
X179399Y262730D01*
X177968Y259276D01*
X175324Y256632D01*
X171870Y255201D01*
X168130Y255201D01*
G37*
%LPD*%
%LPC*%
G36*
X633130Y968201D02*
X633130Y968201D01*
X629676Y969632D01*
X627032Y972276D01*
X625601Y975730D01*
X625601Y979470D01*
X627032Y982924D01*
X629676Y985568D01*
X633130Y986999D01*
X636870Y986999D01*
X640324Y985568D01*
X642968Y982924D01*
X644399Y979470D01*
X644399Y975730D01*
X642968Y972276D01*
X640324Y969632D01*
X636870Y968201D01*
X633130Y968201D01*
G37*
%LPD*%
%LPC*%
G36*
X550642Y497995D02*
X550642Y497995D01*
X547188Y499426D01*
X544544Y502070D01*
X543113Y505524D01*
X543113Y509264D01*
X544544Y512718D01*
X547188Y515362D01*
X550642Y516793D01*
X554382Y516793D01*
X557836Y515362D01*
X560480Y512718D01*
X561911Y509264D01*
X561911Y505524D01*
X560480Y502070D01*
X557836Y499426D01*
X554382Y497995D01*
X550642Y497995D01*
G37*
%LPD*%
%LPC*%
G36*
X538630Y304701D02*
X538630Y304701D01*
X535176Y306132D01*
X532532Y308776D01*
X531101Y312230D01*
X531101Y315970D01*
X532532Y319424D01*
X535176Y322068D01*
X538630Y323499D01*
X542370Y323499D01*
X545824Y322068D01*
X548468Y319424D01*
X549899Y315970D01*
X549899Y312230D01*
X548468Y308776D01*
X545824Y306132D01*
X542370Y304701D01*
X538630Y304701D01*
G37*
%LPD*%
%LPC*%
G36*
X168130Y280601D02*
X168130Y280601D01*
X164676Y282032D01*
X162032Y284676D01*
X160601Y288130D01*
X160601Y291870D01*
X162032Y295324D01*
X164676Y297968D01*
X168130Y299399D01*
X171870Y299399D01*
X175324Y297968D01*
X177968Y295324D01*
X179399Y291870D01*
X179399Y288130D01*
X177968Y284676D01*
X175324Y282032D01*
X171870Y280601D01*
X168130Y280601D01*
G37*
%LPD*%
%LPC*%
G36*
X30630Y304701D02*
X30630Y304701D01*
X27176Y306132D01*
X24532Y308776D01*
X23101Y312230D01*
X23101Y315970D01*
X24532Y319424D01*
X27176Y322068D01*
X30630Y323499D01*
X34370Y323499D01*
X37824Y322068D01*
X40468Y319424D01*
X41899Y315970D01*
X41899Y312230D01*
X40468Y308776D01*
X37824Y306132D01*
X34370Y304701D01*
X30630Y304701D01*
G37*
%LPD*%
%LPC*%
G36*
X30630Y330101D02*
X30630Y330101D01*
X27176Y331532D01*
X24532Y334176D01*
X23101Y337630D01*
X23101Y341370D01*
X24532Y344824D01*
X27176Y347468D01*
X30630Y348899D01*
X34370Y348899D01*
X37824Y347468D01*
X40468Y344824D01*
X41899Y341370D01*
X41899Y337630D01*
X40468Y334176D01*
X37824Y331532D01*
X34370Y330101D01*
X30630Y330101D01*
G37*
%LPD*%
%LPC*%
G36*
X78930Y460601D02*
X78930Y460601D01*
X75476Y462032D01*
X72832Y464676D01*
X71401Y468130D01*
X71401Y471870D01*
X72832Y475324D01*
X75476Y477968D01*
X78930Y479399D01*
X82670Y479399D01*
X86124Y477968D01*
X88768Y475324D01*
X90199Y471870D01*
X90199Y468130D01*
X88768Y464676D01*
X86124Y462032D01*
X82670Y460601D01*
X78930Y460601D01*
G37*
%LPD*%
%LPC*%
G36*
X538630Y279301D02*
X538630Y279301D01*
X535176Y280732D01*
X532532Y283376D01*
X531101Y286830D01*
X531101Y290570D01*
X532532Y294024D01*
X535176Y296668D01*
X538630Y298099D01*
X542370Y298099D01*
X545824Y296668D01*
X548468Y294024D01*
X549899Y290570D01*
X549899Y286830D01*
X548468Y283376D01*
X545824Y280732D01*
X542370Y279301D01*
X538630Y279301D01*
G37*
%LPD*%
%LPC*%
G36*
X53530Y460601D02*
X53530Y460601D01*
X50076Y462032D01*
X47432Y464676D01*
X46001Y468130D01*
X46001Y471870D01*
X47432Y475324D01*
X50076Y477968D01*
X53530Y479399D01*
X57270Y479399D01*
X60724Y477968D01*
X63368Y475324D01*
X64799Y471870D01*
X64799Y468130D01*
X63368Y464676D01*
X60724Y462032D01*
X57270Y460601D01*
X53530Y460601D01*
G37*
%LPD*%
%LPC*%
G36*
X104330Y460601D02*
X104330Y460601D01*
X100876Y462032D01*
X98232Y464676D01*
X96801Y468130D01*
X96801Y471870D01*
X98232Y475324D01*
X100876Y477968D01*
X104330Y479399D01*
X108070Y479399D01*
X111524Y477968D01*
X114168Y475324D01*
X115599Y471870D01*
X115599Y468130D01*
X114168Y464676D01*
X111524Y462032D01*
X108070Y460601D01*
X104330Y460601D01*
G37*
%LPD*%
%LPC*%
G36*
X168130Y179001D02*
X168130Y179001D01*
X164676Y180432D01*
X162032Y183076D01*
X160601Y186530D01*
X160601Y190270D01*
X162032Y193724D01*
X164676Y196368D01*
X168130Y197799D01*
X171870Y197799D01*
X175324Y196368D01*
X177968Y193724D01*
X179399Y190270D01*
X179399Y186530D01*
X177968Y183076D01*
X175324Y180432D01*
X171870Y179001D01*
X168130Y179001D01*
G37*
%LPD*%
%LPC*%
G36*
X564030Y162301D02*
X564030Y162301D01*
X560576Y163732D01*
X557932Y166376D01*
X556501Y169830D01*
X556501Y173570D01*
X557932Y177024D01*
X560576Y179668D01*
X564030Y181099D01*
X567770Y181099D01*
X571224Y179668D01*
X573868Y177024D01*
X575299Y173570D01*
X575299Y169830D01*
X573868Y166376D01*
X571224Y163732D01*
X567770Y162301D01*
X564030Y162301D01*
G37*
%LPD*%
%LPC*%
G36*
X589430Y162301D02*
X589430Y162301D01*
X585976Y163732D01*
X583332Y166376D01*
X581901Y169830D01*
X581901Y173570D01*
X583332Y177024D01*
X585976Y179668D01*
X589430Y181099D01*
X593170Y181099D01*
X596624Y179668D01*
X599268Y177024D01*
X600699Y173570D01*
X600699Y169830D01*
X599268Y166376D01*
X596624Y163732D01*
X593170Y162301D01*
X589430Y162301D01*
G37*
%LPD*%
%LPC*%
G36*
X538630Y162301D02*
X538630Y162301D01*
X535176Y163732D01*
X532532Y166376D01*
X531101Y169830D01*
X531101Y173570D01*
X532532Y177024D01*
X535176Y179668D01*
X538630Y181099D01*
X542370Y181099D01*
X545824Y179668D01*
X548468Y177024D01*
X549899Y173570D01*
X549899Y169830D01*
X548468Y166376D01*
X545824Y163732D01*
X542370Y162301D01*
X538630Y162301D01*
G37*
%LPD*%
%LPC*%
G36*
X618130Y396001D02*
X618130Y396001D01*
X614676Y397432D01*
X612032Y400076D01*
X610601Y403530D01*
X610601Y407270D01*
X612032Y410724D01*
X614676Y413368D01*
X618130Y414799D01*
X621870Y414799D01*
X625324Y413368D01*
X627968Y410724D01*
X629399Y407270D01*
X629399Y403530D01*
X627968Y400076D01*
X625324Y397432D01*
X621870Y396001D01*
X618130Y396001D01*
G37*
%LPD*%
%LPC*%
G36*
X210642Y543207D02*
X210642Y543207D01*
X207188Y544638D01*
X204544Y547282D01*
X203113Y550736D01*
X203113Y554476D01*
X204544Y557930D01*
X207188Y560574D01*
X210642Y562005D01*
X214382Y562005D01*
X217836Y560574D01*
X220480Y557930D01*
X221911Y554476D01*
X221911Y550736D01*
X220480Y547282D01*
X217836Y544638D01*
X214382Y543207D01*
X210642Y543207D01*
G37*
%LPD*%
%LPC*%
G36*
X550642Y543207D02*
X550642Y543207D01*
X547188Y544638D01*
X544544Y547282D01*
X543113Y550736D01*
X543113Y554476D01*
X544544Y557930D01*
X547188Y560574D01*
X550642Y562005D01*
X554382Y562005D01*
X557836Y560574D01*
X560480Y557930D01*
X561911Y554476D01*
X561911Y550736D01*
X560480Y547282D01*
X557836Y544638D01*
X554382Y543207D01*
X550642Y543207D01*
G37*
%LPD*%
%LPC*%
G36*
X485618Y543207D02*
X485618Y543207D01*
X482164Y544638D01*
X479520Y547282D01*
X478089Y550736D01*
X478089Y554476D01*
X479520Y557930D01*
X482164Y560574D01*
X485618Y562005D01*
X489358Y562005D01*
X492812Y560574D01*
X495456Y557930D01*
X496887Y554476D01*
X496887Y550736D01*
X495456Y547282D01*
X492812Y544638D01*
X489358Y543207D01*
X485618Y543207D01*
G37*
%LPD*%
%LPC*%
G36*
X145618Y543207D02*
X145618Y543207D01*
X142164Y544638D01*
X139520Y547282D01*
X138089Y550736D01*
X138089Y554476D01*
X139520Y557930D01*
X142164Y560574D01*
X145618Y562005D01*
X149358Y562005D01*
X152812Y560574D01*
X155456Y557930D01*
X156887Y554476D01*
X156887Y550736D01*
X155456Y547282D01*
X152812Y544638D01*
X149358Y543207D01*
X145618Y543207D01*
G37*
%LPD*%
%LPC*%
G36*
X210642Y497995D02*
X210642Y497995D01*
X207188Y499426D01*
X204544Y502070D01*
X203113Y505524D01*
X203113Y509264D01*
X204544Y512718D01*
X207188Y515362D01*
X210642Y516793D01*
X214382Y516793D01*
X217836Y515362D01*
X220480Y512718D01*
X221911Y509264D01*
X221911Y505524D01*
X220480Y502070D01*
X217836Y499426D01*
X214382Y497995D01*
X210642Y497995D01*
G37*
%LPD*%
%LPC*%
G36*
X168130Y204401D02*
X168130Y204401D01*
X164676Y205832D01*
X162032Y208476D01*
X160601Y211930D01*
X160601Y215670D01*
X162032Y219124D01*
X164676Y221768D01*
X168130Y223199D01*
X171870Y223199D01*
X175324Y221768D01*
X177968Y219124D01*
X179399Y215670D01*
X179399Y211930D01*
X177968Y208476D01*
X175324Y205832D01*
X171870Y204401D01*
X168130Y204401D01*
G37*
%LPD*%
%LPC*%
G36*
X168130Y229801D02*
X168130Y229801D01*
X164676Y231232D01*
X162032Y233876D01*
X160601Y237330D01*
X160601Y241070D01*
X162032Y244524D01*
X164676Y247168D01*
X168130Y248599D01*
X171870Y248599D01*
X175324Y247168D01*
X177968Y244524D01*
X179399Y241070D01*
X179399Y237330D01*
X177968Y233876D01*
X175324Y231232D01*
X171870Y229801D01*
X168130Y229801D01*
G37*
%LPD*%
%LPC*%
G36*
X538630Y253901D02*
X538630Y253901D01*
X535176Y255332D01*
X532532Y257976D01*
X531101Y261430D01*
X531101Y265170D01*
X532532Y268624D01*
X535176Y271268D01*
X538630Y272699D01*
X542370Y272699D01*
X545824Y271268D01*
X548468Y268624D01*
X549899Y265170D01*
X549899Y261430D01*
X548468Y257976D01*
X545824Y255332D01*
X542370Y253901D01*
X538630Y253901D01*
G37*
%LPD*%
%LPC*%
G36*
X132230Y59751D02*
X132230Y59751D01*
X128776Y61182D01*
X126132Y63826D01*
X124701Y67280D01*
X124701Y71020D01*
X126132Y74474D01*
X128776Y77118D01*
X132230Y78549D01*
X135970Y78549D01*
X139424Y77118D01*
X142068Y74474D01*
X143499Y71020D01*
X143499Y67280D01*
X142068Y63826D01*
X139424Y61182D01*
X135970Y59751D01*
X132230Y59751D01*
G37*
%LPD*%
%LPC*%
G36*
X81430Y59751D02*
X81430Y59751D01*
X77976Y61182D01*
X75332Y63826D01*
X73901Y67280D01*
X73901Y71020D01*
X75332Y74474D01*
X77976Y77118D01*
X81430Y78549D01*
X85170Y78549D01*
X88624Y77118D01*
X91268Y74474D01*
X92699Y71020D01*
X92699Y67280D01*
X91268Y63826D01*
X88624Y61182D01*
X85170Y59751D01*
X81430Y59751D01*
G37*
%LPD*%
%LPC*%
G36*
X106830Y59751D02*
X106830Y59751D01*
X103376Y61182D01*
X100732Y63826D01*
X99301Y67280D01*
X99301Y71020D01*
X100732Y74474D01*
X103376Y77118D01*
X106830Y78549D01*
X110570Y78549D01*
X114024Y77118D01*
X116668Y74474D01*
X118099Y71020D01*
X118099Y67280D01*
X116668Y63826D01*
X114024Y61182D01*
X110570Y59751D01*
X106830Y59751D01*
G37*
%LPD*%
G36*
X377257Y791682D02*
X377257Y791682D01*
X377348Y791690D01*
X377378Y791702D01*
X377410Y791707D01*
X377490Y791750D01*
X377574Y791786D01*
X377607Y791812D01*
X377627Y791823D01*
X377649Y791846D01*
X377705Y791891D01*
X378802Y792987D01*
X378843Y793045D01*
X378893Y793097D01*
X378915Y793144D01*
X378945Y793186D01*
X378966Y793255D01*
X378996Y793320D01*
X379002Y793372D01*
X379017Y793422D01*
X379016Y793493D01*
X379023Y793564D01*
X379012Y793615D01*
X379011Y793667D01*
X378986Y793735D01*
X378971Y793805D01*
X378944Y793850D01*
X378927Y793898D01*
X378882Y793954D01*
X378845Y794016D01*
X378805Y794050D01*
X378773Y794090D01*
X378713Y794129D01*
X378658Y794176D01*
X378610Y794195D01*
X378566Y794223D01*
X378496Y794241D01*
X378430Y794268D01*
X378359Y794276D01*
X378327Y794284D01*
X378304Y794282D01*
X378263Y794286D01*
X296737Y794286D01*
X296666Y794275D01*
X296594Y794273D01*
X296545Y794255D01*
X296494Y794247D01*
X296431Y794213D01*
X296363Y794188D01*
X296323Y794156D01*
X296277Y794131D01*
X296227Y794079D01*
X296171Y794035D01*
X296143Y793991D01*
X296107Y793953D01*
X296077Y793888D01*
X296038Y793828D01*
X296026Y793777D01*
X296004Y793730D01*
X295996Y793659D01*
X295978Y793589D01*
X295982Y793537D01*
X295977Y793486D01*
X295992Y793415D01*
X295997Y793344D01*
X296018Y793296D01*
X296029Y793245D01*
X296066Y793184D01*
X296094Y793118D01*
X296138Y793062D01*
X296155Y793034D01*
X296173Y793019D01*
X296198Y792987D01*
X297295Y791891D01*
X297369Y791838D01*
X297438Y791778D01*
X297468Y791766D01*
X297494Y791747D01*
X297581Y791720D01*
X297666Y791686D01*
X297707Y791682D01*
X297729Y791675D01*
X297762Y791676D01*
X297833Y791668D01*
X377167Y791668D01*
X377257Y791682D01*
G37*
%LPC*%
G36*
X475095Y156209D02*
X475095Y156209D01*
X472119Y159185D01*
X472119Y163395D01*
X474556Y165832D01*
X474568Y165848D01*
X474584Y165860D01*
X474640Y165948D01*
X474700Y166031D01*
X474706Y166050D01*
X474717Y166067D01*
X474742Y166168D01*
X474772Y166267D01*
X474772Y166286D01*
X474777Y166306D01*
X474769Y166409D01*
X474766Y166512D01*
X474759Y166531D01*
X474758Y166551D01*
X474717Y166646D01*
X474682Y166743D01*
X474669Y166759D01*
X474661Y166777D01*
X474556Y166908D01*
X472119Y169345D01*
X472119Y173555D01*
X475095Y176531D01*
X479305Y176531D01*
X482281Y173555D01*
X482281Y169345D01*
X479844Y166908D01*
X479832Y166892D01*
X479816Y166880D01*
X479760Y166792D01*
X479700Y166709D01*
X479694Y166690D01*
X479683Y166673D01*
X479658Y166572D01*
X479628Y166473D01*
X479628Y166454D01*
X479623Y166434D01*
X479631Y166331D01*
X479634Y166228D01*
X479641Y166209D01*
X479642Y166189D01*
X479683Y166094D01*
X479718Y165997D01*
X479731Y165981D01*
X479739Y165963D01*
X479844Y165832D01*
X482281Y163395D01*
X482281Y159185D01*
X479305Y156209D01*
X475095Y156209D01*
G37*
%LPD*%
%LPC*%
G36*
X458895Y410919D02*
X458895Y410919D01*
X455919Y413895D01*
X455919Y418105D01*
X458895Y421081D01*
X463105Y421081D01*
X463620Y420565D01*
X463678Y420524D01*
X463730Y420474D01*
X463777Y420452D01*
X463819Y420422D01*
X463888Y420401D01*
X463953Y420371D01*
X464005Y420365D01*
X464055Y420350D01*
X464126Y420351D01*
X464197Y420344D01*
X464248Y420355D01*
X464300Y420356D01*
X464368Y420381D01*
X464438Y420396D01*
X464483Y420423D01*
X464531Y420440D01*
X464587Y420485D01*
X464649Y420522D01*
X464683Y420562D01*
X464723Y420594D01*
X464762Y420654D01*
X464809Y420709D01*
X464828Y420757D01*
X464856Y420801D01*
X464874Y420871D01*
X464901Y420937D01*
X464909Y421008D01*
X464917Y421040D01*
X464915Y421063D01*
X464919Y421104D01*
X464919Y422105D01*
X467895Y425081D01*
X472105Y425081D01*
X475081Y422105D01*
X475081Y417895D01*
X472105Y414919D01*
X467895Y414919D01*
X467380Y415435D01*
X467322Y415476D01*
X467270Y415526D01*
X467223Y415548D01*
X467181Y415578D01*
X467112Y415599D01*
X467047Y415629D01*
X466995Y415635D01*
X466945Y415650D01*
X466874Y415649D01*
X466803Y415656D01*
X466752Y415645D01*
X466700Y415644D01*
X466632Y415619D01*
X466562Y415604D01*
X466517Y415577D01*
X466469Y415560D01*
X466413Y415515D01*
X466351Y415478D01*
X466317Y415438D01*
X466277Y415406D01*
X466238Y415346D01*
X466191Y415291D01*
X466172Y415243D01*
X466144Y415199D01*
X466126Y415129D01*
X466099Y415063D01*
X466091Y414992D01*
X466083Y414960D01*
X466085Y414937D01*
X466081Y414896D01*
X466081Y413895D01*
X463105Y410919D01*
X458895Y410919D01*
G37*
%LPD*%
%LPC*%
G36*
X177895Y904919D02*
X177895Y904919D01*
X174919Y907895D01*
X174919Y912105D01*
X177895Y915081D01*
X182105Y915081D01*
X184462Y912724D01*
X184478Y912712D01*
X184490Y912696D01*
X184578Y912640D01*
X184661Y912580D01*
X184680Y912574D01*
X184697Y912563D01*
X184798Y912538D01*
X184897Y912508D01*
X184916Y912508D01*
X184936Y912503D01*
X185039Y912511D01*
X185142Y912514D01*
X185161Y912521D01*
X185181Y912522D01*
X185276Y912563D01*
X185373Y912598D01*
X185389Y912611D01*
X185407Y912619D01*
X185538Y912724D01*
X187895Y915081D01*
X192105Y915081D01*
X195081Y912105D01*
X195081Y907895D01*
X192105Y904919D01*
X187895Y904919D01*
X185538Y907276D01*
X185522Y907288D01*
X185510Y907304D01*
X185422Y907360D01*
X185339Y907420D01*
X185320Y907426D01*
X185303Y907437D01*
X185202Y907462D01*
X185103Y907492D01*
X185084Y907492D01*
X185064Y907497D01*
X184961Y907489D01*
X184858Y907486D01*
X184839Y907479D01*
X184819Y907478D01*
X184724Y907437D01*
X184627Y907402D01*
X184611Y907389D01*
X184593Y907381D01*
X184462Y907276D01*
X182105Y904919D01*
X177895Y904919D01*
G37*
%LPD*%
G36*
X437230Y532679D02*
X437230Y532679D01*
X437302Y532681D01*
X437351Y532699D01*
X437402Y532707D01*
X437465Y532741D01*
X437533Y532766D01*
X437573Y532798D01*
X437619Y532823D01*
X437669Y532875D01*
X437725Y532919D01*
X437753Y532963D01*
X437789Y533001D01*
X437819Y533066D01*
X437858Y533126D01*
X437870Y533177D01*
X437892Y533224D01*
X437900Y533295D01*
X437918Y533365D01*
X437914Y533417D01*
X437919Y533468D01*
X437904Y533539D01*
X437899Y533610D01*
X437878Y533658D01*
X437867Y533709D01*
X437830Y533770D01*
X437802Y533836D01*
X437758Y533892D01*
X437741Y533920D01*
X437723Y533935D01*
X437697Y533967D01*
X437555Y534109D01*
X437481Y534163D01*
X437412Y534222D01*
X437382Y534234D01*
X437356Y534253D01*
X437269Y534280D01*
X437184Y534314D01*
X437143Y534318D01*
X437121Y534325D01*
X437088Y534324D01*
X437017Y534332D01*
X346891Y534332D01*
X346801Y534318D01*
X346710Y534310D01*
X346680Y534298D01*
X346648Y534293D01*
X346568Y534250D01*
X346484Y534214D01*
X346452Y534188D01*
X346431Y534177D01*
X346409Y534154D01*
X346353Y534109D01*
X346211Y533967D01*
X346169Y533909D01*
X346120Y533857D01*
X346098Y533810D01*
X346067Y533768D01*
X346046Y533699D01*
X346016Y533634D01*
X346010Y533582D01*
X345995Y533533D01*
X345997Y533461D01*
X345989Y533390D01*
X346000Y533339D01*
X346001Y533287D01*
X346026Y533219D01*
X346041Y533149D01*
X346068Y533104D01*
X346086Y533056D01*
X346130Y533000D01*
X346167Y532938D01*
X346207Y532904D01*
X346239Y532864D01*
X346300Y532825D01*
X346354Y532778D01*
X346402Y532759D01*
X346446Y532731D01*
X346516Y532713D01*
X346582Y532686D01*
X346653Y532678D01*
X346685Y532670D01*
X346708Y532672D01*
X346749Y532668D01*
X437159Y532668D01*
X437230Y532679D01*
G37*
%LPC*%
G36*
X374314Y62098D02*
X374314Y62098D01*
X372306Y62930D01*
X370770Y64466D01*
X369938Y66474D01*
X369938Y68646D01*
X370770Y70654D01*
X372306Y72190D01*
X374314Y73022D01*
X376486Y73022D01*
X378494Y72190D01*
X380030Y70654D01*
X380862Y68646D01*
X380862Y66474D01*
X380030Y64466D01*
X378494Y62930D01*
X376486Y62098D01*
X374314Y62098D01*
G37*
%LPD*%
%LPC*%
G36*
X324784Y62098D02*
X324784Y62098D01*
X322776Y62930D01*
X321240Y64466D01*
X320408Y66474D01*
X320408Y68646D01*
X321240Y70654D01*
X322776Y72190D01*
X324784Y73022D01*
X326956Y73022D01*
X328964Y72190D01*
X330500Y70654D01*
X331332Y68646D01*
X331332Y66474D01*
X330500Y64466D01*
X328964Y62930D01*
X326956Y62098D01*
X324784Y62098D01*
G37*
%LPD*%
%LPC*%
G36*
X247895Y880919D02*
X247895Y880919D01*
X244919Y883895D01*
X244919Y888105D01*
X247895Y891081D01*
X252105Y891081D01*
X255081Y888105D01*
X255081Y883895D01*
X252105Y880919D01*
X247895Y880919D01*
G37*
%LPD*%
%LPC*%
G36*
X398568Y880919D02*
X398568Y880919D01*
X395592Y883895D01*
X395592Y888105D01*
X398568Y891081D01*
X402778Y891081D01*
X405754Y888105D01*
X405754Y883895D01*
X402778Y880919D01*
X398568Y880919D01*
G37*
%LPD*%
%LPC*%
G36*
X287895Y868919D02*
X287895Y868919D01*
X284919Y871895D01*
X284919Y876105D01*
X287895Y879081D01*
X292105Y879081D01*
X295081Y876105D01*
X295081Y871895D01*
X292105Y868919D01*
X287895Y868919D01*
G37*
%LPD*%
%LPC*%
G36*
X392895Y813919D02*
X392895Y813919D01*
X389919Y816895D01*
X389919Y821105D01*
X392895Y824081D01*
X397105Y824081D01*
X400081Y821105D01*
X400081Y816895D01*
X397105Y813919D01*
X392895Y813919D01*
G37*
%LPD*%
%LPC*%
G36*
X417618Y693419D02*
X417618Y693419D01*
X414642Y696395D01*
X414642Y700605D01*
X417618Y703581D01*
X421828Y703581D01*
X424804Y700605D01*
X424804Y696395D01*
X421828Y693419D01*
X417618Y693419D01*
G37*
%LPD*%
%LPC*%
G36*
X557895Y685919D02*
X557895Y685919D01*
X554919Y688895D01*
X554919Y693105D01*
X557895Y696081D01*
X562105Y696081D01*
X565081Y693105D01*
X565081Y688895D01*
X562105Y685919D01*
X557895Y685919D01*
G37*
%LPD*%
%LPC*%
G36*
X517895Y674919D02*
X517895Y674919D01*
X514919Y677895D01*
X514919Y682105D01*
X517895Y685081D01*
X522105Y685081D01*
X525081Y682105D01*
X525081Y677895D01*
X522105Y674919D01*
X517895Y674919D01*
G37*
%LPD*%
%LPC*%
G36*
X598528Y656827D02*
X598528Y656827D01*
X595551Y659803D01*
X595551Y664012D01*
X598528Y666989D01*
X602737Y666989D01*
X605713Y664012D01*
X605713Y659803D01*
X602737Y656827D01*
X598528Y656827D01*
G37*
%LPD*%
%LPC*%
G36*
X421174Y655319D02*
X421174Y655319D01*
X418198Y658295D01*
X418198Y662505D01*
X421174Y665481D01*
X425384Y665481D01*
X428360Y662505D01*
X428360Y658295D01*
X425384Y655319D01*
X421174Y655319D01*
G37*
%LPD*%
%LPC*%
G36*
X637895Y654919D02*
X637895Y654919D01*
X634919Y657895D01*
X634919Y662105D01*
X637895Y665081D01*
X642105Y665081D01*
X645081Y662105D01*
X645081Y657895D01*
X642105Y654919D01*
X637895Y654919D01*
G37*
%LPD*%
%LPC*%
G36*
X482955Y632729D02*
X482955Y632729D01*
X479979Y635705D01*
X479979Y639915D01*
X482955Y642891D01*
X487165Y642891D01*
X490141Y639915D01*
X490141Y635705D01*
X487165Y632729D01*
X482955Y632729D01*
G37*
%LPD*%
%LPC*%
G36*
X557895Y614919D02*
X557895Y614919D01*
X554919Y617895D01*
X554919Y622105D01*
X557895Y625081D01*
X562105Y625081D01*
X565081Y622105D01*
X565081Y617895D01*
X562105Y614919D01*
X557895Y614919D01*
G37*
%LPD*%
%LPC*%
G36*
X233895Y610919D02*
X233895Y610919D01*
X230919Y613895D01*
X230919Y618105D01*
X233895Y621081D01*
X238105Y621081D01*
X241081Y618105D01*
X241081Y613895D01*
X238105Y610919D01*
X233895Y610919D01*
G37*
%LPD*%
%LPC*%
G36*
X302945Y606419D02*
X302945Y606419D01*
X299969Y609395D01*
X299969Y613605D01*
X302945Y616581D01*
X307155Y616581D01*
X310131Y613605D01*
X310131Y609395D01*
X307155Y606419D01*
X302945Y606419D01*
G37*
%LPD*%
%LPC*%
G36*
X482955Y599709D02*
X482955Y599709D01*
X479979Y602685D01*
X479979Y606895D01*
X482955Y609871D01*
X487165Y609871D01*
X490141Y606895D01*
X490141Y602685D01*
X487165Y599709D01*
X482955Y599709D01*
G37*
%LPD*%
%LPC*%
G36*
X557895Y574919D02*
X557895Y574919D01*
X554919Y577895D01*
X554919Y582105D01*
X557895Y585081D01*
X562105Y585081D01*
X565081Y582105D01*
X565081Y577895D01*
X562105Y574919D01*
X557895Y574919D01*
G37*
%LPD*%
%LPC*%
G36*
X187895Y534919D02*
X187895Y534919D01*
X184919Y537895D01*
X184919Y542105D01*
X187895Y545081D01*
X192105Y545081D01*
X195081Y542105D01*
X195081Y537895D01*
X192105Y534919D01*
X187895Y534919D01*
G37*
%LPD*%
%LPC*%
G36*
X265895Y492919D02*
X265895Y492919D01*
X262919Y495895D01*
X262919Y500105D01*
X265895Y503081D01*
X270105Y503081D01*
X273081Y500105D01*
X273081Y495895D01*
X270105Y492919D01*
X265895Y492919D01*
G37*
%LPD*%
%LPC*%
G36*
X377895Y484919D02*
X377895Y484919D01*
X374919Y487895D01*
X374919Y492105D01*
X377895Y495081D01*
X382105Y495081D01*
X385081Y492105D01*
X385081Y487895D01*
X382105Y484919D01*
X377895Y484919D01*
G37*
%LPD*%
%LPC*%
G36*
X331895Y444919D02*
X331895Y444919D01*
X328919Y447895D01*
X328919Y452105D01*
X331895Y455081D01*
X336105Y455081D01*
X339081Y452105D01*
X339081Y447895D01*
X336105Y444919D01*
X331895Y444919D01*
G37*
%LPD*%
%LPC*%
G36*
X438895Y442919D02*
X438895Y442919D01*
X435919Y445895D01*
X435919Y450105D01*
X438895Y453081D01*
X443105Y453081D01*
X446081Y450105D01*
X446081Y445895D01*
X443105Y442919D01*
X438895Y442919D01*
G37*
%LPD*%
%LPC*%
G36*
X177895Y434919D02*
X177895Y434919D01*
X174919Y437895D01*
X174919Y442105D01*
X177895Y445081D01*
X182105Y445081D01*
X185081Y442105D01*
X185081Y437895D01*
X182105Y434919D01*
X177895Y434919D01*
G37*
%LPD*%
%LPC*%
G36*
X207895Y404919D02*
X207895Y404919D01*
X204919Y407895D01*
X204919Y412105D01*
X207895Y415081D01*
X212105Y415081D01*
X215081Y412105D01*
X215081Y407895D01*
X212105Y404919D01*
X207895Y404919D01*
G37*
%LPD*%
%LPC*%
G36*
X385895Y395919D02*
X385895Y395919D01*
X382919Y398895D01*
X382919Y403105D01*
X385895Y406081D01*
X390105Y406081D01*
X393081Y403105D01*
X393081Y398895D01*
X390105Y395919D01*
X385895Y395919D01*
G37*
%LPD*%
%LPC*%
G36*
X297895Y394919D02*
X297895Y394919D01*
X294919Y397895D01*
X294919Y402105D01*
X297895Y405081D01*
X302105Y405081D01*
X305081Y402105D01*
X305081Y397895D01*
X302105Y394919D01*
X297895Y394919D01*
G37*
%LPD*%
%LPC*%
G36*
X277895Y394919D02*
X277895Y394919D01*
X274919Y397895D01*
X274919Y402105D01*
X277895Y405081D01*
X282105Y405081D01*
X285081Y402105D01*
X285081Y397895D01*
X282105Y394919D01*
X277895Y394919D01*
G37*
%LPD*%
%LPC*%
G36*
X579670Y364919D02*
X579670Y364919D01*
X576694Y367895D01*
X576694Y372105D01*
X579670Y375081D01*
X583880Y375081D01*
X586856Y372105D01*
X586856Y367895D01*
X583880Y364919D01*
X579670Y364919D01*
G37*
%LPD*%
%LPC*%
G36*
X331385Y344581D02*
X331385Y344581D01*
X328409Y347557D01*
X328409Y351767D01*
X331385Y354743D01*
X335595Y354743D01*
X338571Y351767D01*
X338571Y347557D01*
X335595Y344581D01*
X331385Y344581D01*
G37*
%LPD*%
%LPC*%
G36*
X157595Y325119D02*
X157595Y325119D01*
X154619Y328095D01*
X154619Y332305D01*
X157595Y335281D01*
X161805Y335281D01*
X164781Y332305D01*
X164781Y328095D01*
X161805Y325119D01*
X157595Y325119D01*
G37*
%LPD*%
%LPC*%
G36*
X119495Y312419D02*
X119495Y312419D01*
X116519Y315395D01*
X116519Y319605D01*
X119495Y322581D01*
X123705Y322581D01*
X126681Y319605D01*
X126681Y315395D01*
X123705Y312419D01*
X119495Y312419D01*
G37*
%LPD*%
%LPC*%
G36*
X189895Y300919D02*
X189895Y300919D01*
X186919Y303895D01*
X186919Y308105D01*
X189895Y311081D01*
X194105Y311081D01*
X197081Y308105D01*
X197081Y303895D01*
X194105Y300919D01*
X189895Y300919D01*
G37*
%LPD*%
%LPC*%
G36*
X189895Y288919D02*
X189895Y288919D01*
X186919Y291895D01*
X186919Y296105D01*
X189895Y299081D01*
X194105Y299081D01*
X197081Y296105D01*
X197081Y291895D01*
X194105Y288919D01*
X189895Y288919D01*
G37*
%LPD*%
%LPC*%
G36*
X190895Y200919D02*
X190895Y200919D01*
X187919Y203895D01*
X187919Y208105D01*
X190895Y211081D01*
X195105Y211081D01*
X198081Y208105D01*
X198081Y203895D01*
X195105Y200919D01*
X190895Y200919D01*
G37*
%LPD*%
%LPC*%
G36*
X463465Y145699D02*
X463465Y145699D01*
X460489Y148675D01*
X460489Y152885D01*
X463465Y155861D01*
X467675Y155861D01*
X470651Y152885D01*
X470651Y148675D01*
X467675Y145699D01*
X463465Y145699D01*
G37*
%LPD*%
%LPC*%
G36*
X335395Y144019D02*
X335395Y144019D01*
X332419Y146995D01*
X332419Y151205D01*
X335395Y154181D01*
X339605Y154181D01*
X342581Y151205D01*
X342581Y146995D01*
X339605Y144019D01*
X335395Y144019D01*
G37*
%LPD*%
%LPC*%
G36*
X322495Y140619D02*
X322495Y140619D01*
X319519Y143595D01*
X319519Y147805D01*
X322495Y150781D01*
X326705Y150781D01*
X329681Y147805D01*
X329681Y143595D01*
X326705Y140619D01*
X322495Y140619D01*
G37*
%LPD*%
%LPC*%
G36*
X347895Y140619D02*
X347895Y140619D01*
X344919Y143595D01*
X344919Y147805D01*
X347895Y150781D01*
X352105Y150781D01*
X355081Y147805D01*
X355081Y143595D01*
X352105Y140619D01*
X347895Y140619D01*
G37*
%LPD*%
%LPC*%
G36*
X485255Y101704D02*
X485255Y101704D01*
X482279Y104680D01*
X482279Y108890D01*
X485255Y111866D01*
X489465Y111866D01*
X492441Y108890D01*
X492441Y104680D01*
X489465Y101704D01*
X485255Y101704D01*
G37*
%LPD*%
%LPC*%
G36*
X463465Y70099D02*
X463465Y70099D01*
X460489Y73075D01*
X460489Y77285D01*
X463465Y80261D01*
X467675Y80261D01*
X470651Y77285D01*
X470651Y73075D01*
X467675Y70099D01*
X463465Y70099D01*
G37*
%LPD*%
%LPC*%
G36*
X486325Y68829D02*
X486325Y68829D01*
X483349Y71805D01*
X483349Y76015D01*
X486325Y78991D01*
X490535Y78991D01*
X493511Y76015D01*
X493511Y71805D01*
X490535Y68829D01*
X486325Y68829D01*
G37*
%LPD*%
%LPC*%
G36*
X438065Y68829D02*
X438065Y68829D01*
X435089Y71805D01*
X435089Y76015D01*
X438065Y78991D01*
X442275Y78991D01*
X445251Y76015D01*
X445251Y71805D01*
X442275Y68829D01*
X438065Y68829D01*
G37*
%LPD*%
%LPC*%
G36*
X444895Y982919D02*
X444895Y982919D01*
X441919Y985895D01*
X441919Y990105D01*
X444895Y993081D01*
X449105Y993081D01*
X452081Y990105D01*
X452081Y985895D01*
X449105Y982919D01*
X444895Y982919D01*
G37*
%LPD*%
%LPC*%
G36*
X444615Y957579D02*
X444615Y957579D01*
X441639Y960555D01*
X441639Y964765D01*
X444615Y967741D01*
X448825Y967741D01*
X451801Y964765D01*
X451801Y960555D01*
X448825Y957579D01*
X444615Y957579D01*
G37*
%LPD*%
%LPC*%
G36*
X167895Y954919D02*
X167895Y954919D01*
X164919Y957895D01*
X164919Y962105D01*
X167895Y965081D01*
X172105Y965081D01*
X175081Y962105D01*
X175081Y957895D01*
X172105Y954919D01*
X167895Y954919D01*
G37*
%LPD*%
%LPC*%
G36*
X444895Y944919D02*
X444895Y944919D01*
X441919Y947895D01*
X441919Y952105D01*
X444895Y955081D01*
X449105Y955081D01*
X452081Y952105D01*
X452081Y947895D01*
X449105Y944919D01*
X444895Y944919D01*
G37*
%LPD*%
%LPC*%
G36*
X445685Y907189D02*
X445685Y907189D01*
X442709Y910165D01*
X442709Y914375D01*
X445685Y917351D01*
X449895Y917351D01*
X452871Y914375D01*
X452871Y910165D01*
X449895Y907189D01*
X445685Y907189D01*
G37*
%LPD*%
%LPC*%
G36*
X557445Y23109D02*
X557445Y23109D01*
X554469Y26085D01*
X554469Y30295D01*
X557445Y33271D01*
X561655Y33271D01*
X564631Y30295D01*
X564631Y26085D01*
X561655Y23109D01*
X557445Y23109D01*
G37*
%LPD*%
%LPC*%
G36*
X433317Y39191D02*
X433317Y39191D01*
X430371Y42137D01*
X430371Y46303D01*
X433317Y49249D01*
X437483Y49249D01*
X440429Y46303D01*
X440429Y42137D01*
X437483Y39191D01*
X433317Y39191D01*
G37*
%LPD*%
%LPC*%
G36*
X376817Y39191D02*
X376817Y39191D01*
X373871Y42137D01*
X373871Y46303D01*
X376817Y49249D01*
X380983Y49249D01*
X383929Y46303D01*
X383929Y42137D01*
X380983Y39191D01*
X376817Y39191D01*
G37*
%LPD*%
%LPC*%
G36*
X319017Y39191D02*
X319017Y39191D01*
X316071Y42137D01*
X316071Y46303D01*
X319017Y49249D01*
X323183Y49249D01*
X326129Y46303D01*
X326129Y42137D01*
X323183Y39191D01*
X319017Y39191D01*
G37*
%LPD*%
%LPC*%
G36*
X491117Y39191D02*
X491117Y39191D01*
X488171Y42137D01*
X488171Y46303D01*
X491117Y49249D01*
X495283Y49249D01*
X498229Y46303D01*
X498229Y42137D01*
X495283Y39191D01*
X491117Y39191D01*
G37*
%LPD*%
%LPC*%
G36*
X149011Y508917D02*
X149011Y508917D01*
X149011Y517440D01*
X149867Y517305D01*
X151388Y516810D01*
X152813Y516084D01*
X154107Y515144D01*
X155238Y514013D01*
X156178Y512719D01*
X156904Y511294D01*
X157399Y509773D01*
X157534Y508917D01*
X149011Y508917D01*
G37*
%LPD*%
%LPC*%
G36*
X542023Y239423D02*
X542023Y239423D01*
X542023Y247946D01*
X542879Y247811D01*
X544400Y247316D01*
X545825Y246590D01*
X547119Y245650D01*
X548250Y244519D01*
X549190Y243225D01*
X549916Y241800D01*
X550411Y240279D01*
X550546Y239423D01*
X542023Y239423D01*
G37*
%LPD*%
%LPC*%
G36*
X489011Y508917D02*
X489011Y508917D01*
X489011Y517440D01*
X489867Y517305D01*
X491388Y516810D01*
X492813Y516084D01*
X494107Y515144D01*
X495238Y514013D01*
X496178Y512719D01*
X496904Y511294D01*
X497399Y509773D01*
X497534Y508917D01*
X489011Y508917D01*
G37*
%LPD*%
%LPC*%
G36*
X621523Y381523D02*
X621523Y381523D01*
X621523Y390046D01*
X622379Y389911D01*
X623900Y389416D01*
X625325Y388690D01*
X626619Y387750D01*
X627750Y386619D01*
X628690Y385325D01*
X629416Y383900D01*
X629911Y382379D01*
X630046Y381523D01*
X621523Y381523D01*
G37*
%LPD*%
%LPC*%
G36*
X618223Y173223D02*
X618223Y173223D01*
X618223Y181746D01*
X619079Y181611D01*
X620600Y181116D01*
X622025Y180390D01*
X623319Y179450D01*
X624450Y178319D01*
X625390Y177025D01*
X626116Y175600D01*
X626611Y174079D01*
X626746Y173223D01*
X618223Y173223D01*
G37*
%LPD*%
%LPC*%
G36*
X636523Y953723D02*
X636523Y953723D01*
X636523Y962246D01*
X637379Y962111D01*
X638900Y961616D01*
X640325Y960890D01*
X641619Y959950D01*
X642750Y958819D01*
X643690Y957525D01*
X644416Y956100D01*
X644911Y954579D01*
X645046Y953723D01*
X636523Y953723D01*
G37*
%LPD*%
%LPC*%
G36*
X211823Y1001423D02*
X211823Y1001423D01*
X211823Y1009946D01*
X212679Y1009811D01*
X214200Y1009316D01*
X215625Y1008590D01*
X216919Y1007650D01*
X218050Y1006519D01*
X218990Y1005225D01*
X219716Y1003800D01*
X220211Y1002279D01*
X220346Y1001423D01*
X211823Y1001423D01*
G37*
%LPD*%
%LPC*%
G36*
X31523Y471523D02*
X31523Y471523D01*
X31523Y480046D01*
X32379Y479911D01*
X33900Y479416D01*
X35325Y478690D01*
X36619Y477750D01*
X37750Y476619D01*
X38690Y475325D01*
X39416Y473900D01*
X39911Y472379D01*
X40046Y471523D01*
X31523Y471523D01*
G37*
%LPD*%
%LPC*%
G36*
X161023Y70673D02*
X161023Y70673D01*
X161023Y79196D01*
X161879Y79061D01*
X163400Y78566D01*
X164825Y77840D01*
X166119Y76900D01*
X167250Y75769D01*
X168190Y74475D01*
X168916Y73050D01*
X169411Y71529D01*
X169546Y70673D01*
X161023Y70673D01*
G37*
%LPD*%
%LPC*%
G36*
X636523Y950677D02*
X636523Y950677D01*
X645046Y950677D01*
X644911Y949821D01*
X644416Y948300D01*
X643690Y946875D01*
X642750Y945581D01*
X641619Y944450D01*
X640325Y943510D01*
X638900Y942784D01*
X637379Y942289D01*
X636523Y942154D01*
X636523Y950677D01*
G37*
%LPD*%
%LPC*%
G36*
X161023Y67627D02*
X161023Y67627D01*
X169546Y67627D01*
X169411Y66771D01*
X168916Y65250D01*
X168190Y63825D01*
X167250Y62531D01*
X166119Y61400D01*
X164825Y60460D01*
X163400Y59734D01*
X161879Y59239D01*
X161023Y59104D01*
X161023Y67627D01*
G37*
%LPD*%
%LPC*%
G36*
X542023Y236377D02*
X542023Y236377D01*
X550546Y236377D01*
X550411Y235521D01*
X549916Y234000D01*
X549190Y232575D01*
X548250Y231281D01*
X547119Y230150D01*
X545825Y229210D01*
X544400Y228484D01*
X542879Y227989D01*
X542023Y227854D01*
X542023Y236377D01*
G37*
%LPD*%
%LPC*%
G36*
X137442Y508917D02*
X137442Y508917D01*
X137577Y509773D01*
X138072Y511294D01*
X138798Y512719D01*
X139738Y514013D01*
X140869Y515144D01*
X142163Y516084D01*
X143588Y516810D01*
X145109Y517305D01*
X145965Y517440D01*
X145965Y508917D01*
X137442Y508917D01*
G37*
%LPD*%
%LPC*%
G36*
X477442Y508917D02*
X477442Y508917D01*
X477577Y509773D01*
X478072Y511294D01*
X478798Y512719D01*
X479738Y514013D01*
X480869Y515144D01*
X482163Y516084D01*
X483588Y516810D01*
X485109Y517305D01*
X485965Y517440D01*
X485965Y508917D01*
X477442Y508917D01*
G37*
%LPD*%
%LPC*%
G36*
X530454Y239423D02*
X530454Y239423D01*
X530589Y240279D01*
X531084Y241800D01*
X531810Y243225D01*
X532750Y244519D01*
X533881Y245650D01*
X535175Y246590D01*
X536600Y247316D01*
X538121Y247811D01*
X538977Y247946D01*
X538977Y239423D01*
X530454Y239423D01*
G37*
%LPD*%
%LPC*%
G36*
X149011Y505871D02*
X149011Y505871D01*
X157534Y505871D01*
X157399Y505015D01*
X156904Y503494D01*
X156178Y502069D01*
X155238Y500775D01*
X154107Y499644D01*
X152813Y498704D01*
X151388Y497978D01*
X149867Y497483D01*
X149011Y497348D01*
X149011Y505871D01*
G37*
%LPD*%
%LPC*%
G36*
X624954Y953723D02*
X624954Y953723D01*
X625089Y954579D01*
X625584Y956100D01*
X626310Y957525D01*
X627250Y958819D01*
X628381Y959950D01*
X629675Y960890D01*
X631100Y961616D01*
X632621Y962111D01*
X633477Y962246D01*
X633477Y953723D01*
X624954Y953723D01*
G37*
%LPD*%
%LPC*%
G36*
X606654Y173223D02*
X606654Y173223D01*
X606789Y174079D01*
X607284Y175600D01*
X608010Y177025D01*
X608950Y178319D01*
X610081Y179450D01*
X611375Y180390D01*
X612800Y181116D01*
X614321Y181611D01*
X615177Y181746D01*
X615177Y173223D01*
X606654Y173223D01*
G37*
%LPD*%
%LPC*%
G36*
X618223Y170177D02*
X618223Y170177D01*
X626746Y170177D01*
X626611Y169321D01*
X626116Y167800D01*
X625390Y166375D01*
X624450Y165081D01*
X623319Y163950D01*
X622025Y163010D01*
X620600Y162284D01*
X619079Y161789D01*
X618223Y161654D01*
X618223Y170177D01*
G37*
%LPD*%
%LPC*%
G36*
X489011Y505871D02*
X489011Y505871D01*
X497534Y505871D01*
X497399Y505015D01*
X496904Y503494D01*
X496178Y502069D01*
X495238Y500775D01*
X494107Y499644D01*
X492813Y498704D01*
X491388Y497978D01*
X489867Y497483D01*
X489011Y497348D01*
X489011Y505871D01*
G37*
%LPD*%
%LPC*%
G36*
X621523Y378477D02*
X621523Y378477D01*
X630046Y378477D01*
X629911Y377621D01*
X629416Y376100D01*
X628690Y374675D01*
X627750Y373381D01*
X626619Y372250D01*
X625325Y371310D01*
X623900Y370584D01*
X622379Y370089D01*
X621523Y369954D01*
X621523Y378477D01*
G37*
%LPD*%
%LPC*%
G36*
X31523Y468477D02*
X31523Y468477D01*
X40046Y468477D01*
X39911Y467621D01*
X39416Y466100D01*
X38690Y464675D01*
X37750Y463381D01*
X36619Y462250D01*
X35325Y461310D01*
X33900Y460584D01*
X32379Y460089D01*
X31523Y459954D01*
X31523Y468477D01*
G37*
%LPD*%
%LPC*%
G36*
X19954Y471523D02*
X19954Y471523D01*
X20089Y472379D01*
X20584Y473900D01*
X21310Y475325D01*
X22250Y476619D01*
X23381Y477750D01*
X24675Y478690D01*
X26100Y479416D01*
X27621Y479911D01*
X28477Y480046D01*
X28477Y471523D01*
X19954Y471523D01*
G37*
%LPD*%
%LPC*%
G36*
X609954Y381523D02*
X609954Y381523D01*
X610089Y382379D01*
X610584Y383900D01*
X611310Y385325D01*
X612250Y386619D01*
X613381Y387750D01*
X614675Y388690D01*
X616100Y389416D01*
X617621Y389911D01*
X618477Y390046D01*
X618477Y381523D01*
X609954Y381523D01*
G37*
%LPD*%
%LPC*%
G36*
X200254Y1001423D02*
X200254Y1001423D01*
X200389Y1002279D01*
X200884Y1003800D01*
X201610Y1005225D01*
X202550Y1006519D01*
X203681Y1007650D01*
X204975Y1008590D01*
X206400Y1009316D01*
X207921Y1009811D01*
X208777Y1009946D01*
X208777Y1001423D01*
X200254Y1001423D01*
G37*
%LPD*%
%LPC*%
G36*
X149454Y70673D02*
X149454Y70673D01*
X149589Y71529D01*
X150084Y73050D01*
X150810Y74475D01*
X151750Y75769D01*
X152881Y76900D01*
X154175Y77840D01*
X155600Y78566D01*
X157121Y79061D01*
X157977Y79196D01*
X157977Y70673D01*
X149454Y70673D01*
G37*
%LPD*%
%LPC*%
G36*
X632621Y942289D02*
X632621Y942289D01*
X631100Y942784D01*
X629675Y943510D01*
X628381Y944450D01*
X627250Y945581D01*
X626310Y946875D01*
X625584Y948300D01*
X625089Y949821D01*
X624954Y950677D01*
X633477Y950677D01*
X633477Y942154D01*
X632621Y942289D01*
G37*
%LPD*%
%LPC*%
G36*
X157121Y59239D02*
X157121Y59239D01*
X155600Y59734D01*
X154175Y60460D01*
X152881Y61400D01*
X151750Y62531D01*
X150810Y63825D01*
X150084Y65250D01*
X149589Y66771D01*
X149454Y67627D01*
X157977Y67627D01*
X157977Y59104D01*
X157121Y59239D01*
G37*
%LPD*%
%LPC*%
G36*
X617621Y370089D02*
X617621Y370089D01*
X616100Y370584D01*
X614675Y371310D01*
X613381Y372250D01*
X612250Y373381D01*
X611310Y374675D01*
X610584Y376100D01*
X610089Y377621D01*
X609954Y378477D01*
X618477Y378477D01*
X618477Y369954D01*
X617621Y370089D01*
G37*
%LPD*%
%LPC*%
G36*
X614321Y161789D02*
X614321Y161789D01*
X612800Y162284D01*
X611375Y163010D01*
X610081Y163950D01*
X608950Y165081D01*
X608010Y166375D01*
X607284Y167800D01*
X606789Y169321D01*
X606654Y170177D01*
X615177Y170177D01*
X615177Y161654D01*
X614321Y161789D01*
G37*
%LPD*%
%LPC*%
G36*
X27621Y460089D02*
X27621Y460089D01*
X26100Y460584D01*
X24675Y461310D01*
X23381Y462250D01*
X22250Y463381D01*
X21310Y464675D01*
X20584Y466100D01*
X20089Y467621D01*
X19954Y468477D01*
X28477Y468477D01*
X28477Y459954D01*
X27621Y460089D01*
G37*
%LPD*%
%LPC*%
G36*
X485109Y497483D02*
X485109Y497483D01*
X483588Y497978D01*
X482163Y498704D01*
X480869Y499644D01*
X479738Y500775D01*
X478798Y502069D01*
X478072Y503494D01*
X477577Y505015D01*
X477442Y505871D01*
X485965Y505871D01*
X485965Y497348D01*
X485109Y497483D01*
G37*
%LPD*%
%LPC*%
G36*
X538121Y227989D02*
X538121Y227989D01*
X536600Y228484D01*
X535175Y229210D01*
X533881Y230150D01*
X532750Y231281D01*
X531810Y232575D01*
X531084Y234000D01*
X530589Y235521D01*
X530454Y236377D01*
X538977Y236377D01*
X538977Y227854D01*
X538121Y227989D01*
G37*
%LPD*%
%LPC*%
G36*
X145109Y497483D02*
X145109Y497483D01*
X143588Y497978D01*
X142163Y498704D01*
X140869Y499644D01*
X139738Y500775D01*
X138798Y502069D01*
X138072Y503494D01*
X137577Y505015D01*
X137442Y505871D01*
X145965Y505871D01*
X145965Y497348D01*
X145109Y497483D01*
G37*
%LPD*%
%LPC*%
G36*
X391337Y38752D02*
X391337Y38752D01*
X390547Y39132D01*
X390211Y39295D01*
X389455Y39897D01*
X389234Y40074D01*
X388455Y41051D01*
X387912Y42177D01*
X387634Y43395D01*
X387634Y46246D01*
X387624Y46310D01*
X387623Y46376D01*
X387600Y46456D01*
X387594Y46488D01*
X387585Y46505D01*
X387576Y46537D01*
X387104Y47677D01*
X386936Y48521D01*
X390176Y48521D01*
X390176Y44020D01*
X390251Y43352D01*
X390252Y43352D01*
X390251Y43351D01*
X390473Y42717D01*
X390474Y42717D01*
X390474Y42716D01*
X390831Y42147D01*
X390832Y42147D01*
X391307Y41672D01*
X391307Y41671D01*
X391876Y41314D01*
X391877Y41314D01*
X391877Y41313D01*
X392181Y41207D01*
X392181Y38560D01*
X391337Y38752D01*
G37*
%LPD*%
%LPC*%
G36*
X505637Y38752D02*
X505637Y38752D01*
X504699Y39204D01*
X504511Y39295D01*
X503645Y39985D01*
X503534Y40074D01*
X502755Y41051D01*
X502212Y42177D01*
X501934Y43395D01*
X501934Y46246D01*
X501924Y46310D01*
X501923Y46376D01*
X501900Y46456D01*
X501894Y46488D01*
X501885Y46505D01*
X501876Y46537D01*
X501404Y47677D01*
X501236Y48521D01*
X504476Y48521D01*
X504476Y44020D01*
X504551Y43352D01*
X504552Y43352D01*
X504551Y43351D01*
X504773Y42717D01*
X504774Y42717D01*
X504774Y42716D01*
X505131Y42147D01*
X505132Y42147D01*
X505607Y41672D01*
X505607Y41671D01*
X506176Y41314D01*
X506177Y41314D01*
X506177Y41313D01*
X506481Y41207D01*
X506481Y38560D01*
X505637Y38752D01*
G37*
%LPD*%
%LPC*%
G36*
X304977Y38752D02*
X304977Y38752D01*
X303933Y39255D01*
X303851Y39295D01*
X302911Y40044D01*
X302874Y40074D01*
X302095Y41051D01*
X301552Y42177D01*
X301274Y43395D01*
X301274Y46246D01*
X301264Y46310D01*
X301263Y46376D01*
X301240Y46456D01*
X301234Y46488D01*
X301225Y46505D01*
X301216Y46537D01*
X300744Y47677D01*
X300576Y48521D01*
X303816Y48521D01*
X303816Y44020D01*
X303891Y43352D01*
X303892Y43352D01*
X303891Y43351D01*
X304113Y42717D01*
X304114Y42717D01*
X304114Y42716D01*
X304471Y42147D01*
X304472Y42147D01*
X304947Y41672D01*
X304947Y41671D01*
X305516Y41314D01*
X305517Y41314D01*
X305517Y41313D01*
X305821Y41207D01*
X305821Y38560D01*
X304977Y38752D01*
G37*
%LPD*%
%LPC*%
G36*
X419277Y38752D02*
X419277Y38752D01*
X418640Y39059D01*
X418151Y39295D01*
X417517Y39800D01*
X417516Y39800D01*
X417174Y40074D01*
X416395Y41051D01*
X415852Y42177D01*
X415574Y43395D01*
X415574Y46246D01*
X415564Y46310D01*
X415563Y46376D01*
X415540Y46456D01*
X415534Y46488D01*
X415525Y46505D01*
X415516Y46537D01*
X415044Y47677D01*
X414876Y48521D01*
X418116Y48521D01*
X418116Y44020D01*
X418191Y43352D01*
X418192Y43352D01*
X418191Y43351D01*
X418413Y42717D01*
X418414Y42717D01*
X418414Y42716D01*
X418771Y42147D01*
X418772Y42147D01*
X419247Y41672D01*
X419247Y41671D01*
X419816Y41314D01*
X419817Y41314D01*
X419817Y41313D01*
X420121Y41207D01*
X420121Y38560D01*
X419277Y38752D01*
G37*
%LPD*%
%LPC*%
G36*
X501236Y50519D02*
X501236Y50519D01*
X501404Y51363D01*
X501876Y52503D01*
X501891Y52567D01*
X501916Y52628D01*
X501925Y52711D01*
X501932Y52743D01*
X501931Y52762D01*
X501934Y52794D01*
X501934Y55645D01*
X502212Y56863D01*
X502755Y57989D01*
X503534Y58966D01*
X504511Y59745D01*
X505637Y60288D01*
X506481Y60480D01*
X506481Y57833D01*
X506177Y57727D01*
X506177Y57726D01*
X506176Y57727D01*
X505607Y57369D01*
X505607Y57368D01*
X505607Y57369D01*
X505132Y56893D01*
X505131Y56893D01*
X504774Y56324D01*
X504774Y56323D01*
X504773Y56323D01*
X504551Y55689D01*
X504551Y55688D01*
X504550Y55683D01*
X504550Y55679D01*
X504549Y55670D01*
X504549Y55666D01*
X504548Y55658D01*
X504547Y55653D01*
X504546Y55645D01*
X504546Y55641D01*
X504545Y55632D01*
X504544Y55628D01*
X504543Y55619D01*
X504543Y55615D01*
X504542Y55607D01*
X504541Y55602D01*
X504540Y55594D01*
X504540Y55590D01*
X504539Y55585D01*
X504539Y55581D01*
X504538Y55577D01*
X504538Y55573D01*
X504538Y55568D01*
X504537Y55568D01*
X504538Y55568D01*
X504537Y55564D01*
X504537Y55560D01*
X504536Y55551D01*
X504535Y55547D01*
X504534Y55539D01*
X504534Y55534D01*
X504533Y55526D01*
X504532Y55522D01*
X504531Y55513D01*
X504531Y55509D01*
X504530Y55500D01*
X504529Y55496D01*
X504528Y55488D01*
X504528Y55483D01*
X504527Y55475D01*
X504527Y55471D01*
X504526Y55471D01*
X504527Y55471D01*
X504526Y55462D01*
X504525Y55458D01*
X504524Y55449D01*
X504524Y55445D01*
X504523Y55441D01*
X504523Y55437D01*
X504522Y55432D01*
X504522Y55428D01*
X504521Y55424D01*
X504521Y55420D01*
X504520Y55415D01*
X504519Y55407D01*
X504519Y55403D01*
X504518Y55394D01*
X504517Y55390D01*
X504516Y55381D01*
X504516Y55377D01*
X504515Y55369D01*
X504515Y55364D01*
X504514Y55356D01*
X504513Y55352D01*
X504512Y55343D01*
X504512Y55339D01*
X504511Y55330D01*
X504510Y55326D01*
X504509Y55318D01*
X504509Y55313D01*
X504508Y55305D01*
X504507Y55301D01*
X504506Y55292D01*
X504506Y55288D01*
X504505Y55284D01*
X504505Y55279D01*
X504504Y55275D01*
X504504Y55271D01*
X504504Y55267D01*
X504503Y55267D01*
X504504Y55267D01*
X504503Y55262D01*
X504503Y55258D01*
X504502Y55250D01*
X504501Y55245D01*
X504500Y55237D01*
X504500Y55233D01*
X504499Y55224D01*
X504498Y55220D01*
X504497Y55211D01*
X504497Y55207D01*
X504496Y55199D01*
X504495Y55194D01*
X504494Y55186D01*
X504494Y55182D01*
X504493Y55173D01*
X504493Y55169D01*
X504492Y55169D01*
X504493Y55169D01*
X504492Y55160D01*
X504491Y55156D01*
X504490Y55148D01*
X504490Y55143D01*
X504489Y55135D01*
X504488Y55131D01*
X504488Y55126D01*
X504487Y55122D01*
X504487Y55118D01*
X504486Y55114D01*
X504485Y55105D01*
X504485Y55101D01*
X504484Y55092D01*
X504483Y55088D01*
X504482Y55080D01*
X504482Y55075D01*
X504481Y55067D01*
X504481Y55063D01*
X504480Y55054D01*
X504479Y55050D01*
X504478Y55041D01*
X504478Y55037D01*
X504477Y55029D01*
X504476Y55024D01*
X504476Y55020D01*
X504476Y50519D01*
X501236Y50519D01*
G37*
%LPD*%
%LPC*%
G36*
X386936Y50519D02*
X386936Y50519D01*
X387104Y51363D01*
X387576Y52503D01*
X387591Y52567D01*
X387616Y52628D01*
X387625Y52711D01*
X387632Y52743D01*
X387631Y52762D01*
X387634Y52794D01*
X387634Y55645D01*
X387912Y56863D01*
X388455Y57989D01*
X389234Y58966D01*
X390211Y59745D01*
X391337Y60288D01*
X392181Y60480D01*
X392181Y57833D01*
X391877Y57727D01*
X391877Y57726D01*
X391876Y57727D01*
X391307Y57369D01*
X391307Y57368D01*
X391307Y57369D01*
X390832Y56893D01*
X390831Y56893D01*
X390474Y56324D01*
X390474Y56323D01*
X390473Y56323D01*
X390251Y55689D01*
X390251Y55688D01*
X390250Y55683D01*
X390250Y55679D01*
X390249Y55670D01*
X390249Y55666D01*
X390248Y55658D01*
X390247Y55653D01*
X390246Y55645D01*
X390246Y55641D01*
X390245Y55632D01*
X390244Y55628D01*
X390243Y55619D01*
X390243Y55615D01*
X390242Y55607D01*
X390241Y55602D01*
X390240Y55594D01*
X390240Y55590D01*
X390239Y55585D01*
X390239Y55581D01*
X390238Y55577D01*
X390238Y55573D01*
X390238Y55568D01*
X390237Y55568D01*
X390238Y55568D01*
X390237Y55564D01*
X390237Y55560D01*
X390236Y55551D01*
X390235Y55547D01*
X390234Y55539D01*
X390234Y55534D01*
X390233Y55526D01*
X390232Y55522D01*
X390231Y55513D01*
X390231Y55509D01*
X390230Y55500D01*
X390229Y55496D01*
X390228Y55488D01*
X390228Y55483D01*
X390227Y55475D01*
X390227Y55471D01*
X390226Y55471D01*
X390227Y55471D01*
X390226Y55462D01*
X390225Y55458D01*
X390224Y55449D01*
X390224Y55445D01*
X390223Y55441D01*
X390223Y55437D01*
X390222Y55432D01*
X390222Y55428D01*
X390221Y55424D01*
X390221Y55420D01*
X390220Y55415D01*
X390219Y55407D01*
X390219Y55403D01*
X390218Y55394D01*
X390217Y55390D01*
X390216Y55381D01*
X390216Y55377D01*
X390215Y55369D01*
X390215Y55364D01*
X390214Y55356D01*
X390213Y55352D01*
X390212Y55343D01*
X390212Y55339D01*
X390211Y55330D01*
X390210Y55326D01*
X390209Y55318D01*
X390209Y55313D01*
X390208Y55305D01*
X390207Y55301D01*
X390206Y55292D01*
X390206Y55288D01*
X390205Y55284D01*
X390205Y55279D01*
X390204Y55275D01*
X390204Y55271D01*
X390204Y55267D01*
X390203Y55267D01*
X390204Y55267D01*
X390203Y55262D01*
X390203Y55258D01*
X390202Y55250D01*
X390201Y55245D01*
X390200Y55237D01*
X390200Y55233D01*
X390199Y55224D01*
X390198Y55220D01*
X390197Y55211D01*
X390197Y55207D01*
X390196Y55199D01*
X390195Y55194D01*
X390194Y55186D01*
X390194Y55182D01*
X390193Y55173D01*
X390193Y55169D01*
X390192Y55169D01*
X390193Y55169D01*
X390192Y55160D01*
X390191Y55156D01*
X390190Y55148D01*
X390190Y55143D01*
X390189Y55135D01*
X390188Y55131D01*
X390188Y55126D01*
X390187Y55122D01*
X390187Y55118D01*
X390186Y55114D01*
X390185Y55105D01*
X390185Y55101D01*
X390184Y55092D01*
X390183Y55088D01*
X390182Y55080D01*
X390182Y55075D01*
X390181Y55067D01*
X390181Y55063D01*
X390180Y55054D01*
X390179Y55050D01*
X390178Y55041D01*
X390178Y55037D01*
X390177Y55029D01*
X390176Y55024D01*
X390176Y55020D01*
X390176Y50519D01*
X386936Y50519D01*
G37*
%LPD*%
%LPC*%
G36*
X414876Y50519D02*
X414876Y50519D01*
X415044Y51363D01*
X415516Y52503D01*
X415531Y52567D01*
X415556Y52628D01*
X415565Y52711D01*
X415572Y52743D01*
X415571Y52762D01*
X415574Y52794D01*
X415574Y55645D01*
X415852Y56863D01*
X416395Y57989D01*
X417174Y58966D01*
X418151Y59745D01*
X419277Y60288D01*
X420121Y60480D01*
X420121Y57833D01*
X419817Y57727D01*
X419817Y57726D01*
X419816Y57727D01*
X419247Y57369D01*
X419247Y57368D01*
X419247Y57369D01*
X418772Y56893D01*
X418771Y56893D01*
X418414Y56324D01*
X418414Y56323D01*
X418413Y56323D01*
X418191Y55689D01*
X418191Y55688D01*
X418190Y55683D01*
X418190Y55679D01*
X418189Y55670D01*
X418189Y55666D01*
X418188Y55658D01*
X418187Y55653D01*
X418186Y55645D01*
X418186Y55641D01*
X418185Y55632D01*
X418184Y55628D01*
X418183Y55619D01*
X418183Y55615D01*
X418182Y55607D01*
X418181Y55602D01*
X418180Y55594D01*
X418180Y55590D01*
X418179Y55585D01*
X418179Y55581D01*
X418178Y55577D01*
X418178Y55573D01*
X418178Y55568D01*
X418177Y55568D01*
X418178Y55568D01*
X418177Y55564D01*
X418177Y55560D01*
X418176Y55551D01*
X418175Y55547D01*
X418174Y55539D01*
X418174Y55534D01*
X418173Y55526D01*
X418172Y55522D01*
X418171Y55513D01*
X418171Y55509D01*
X418170Y55500D01*
X418169Y55496D01*
X418168Y55488D01*
X418168Y55483D01*
X418167Y55475D01*
X418167Y55471D01*
X418166Y55471D01*
X418167Y55471D01*
X418166Y55462D01*
X418165Y55458D01*
X418164Y55449D01*
X418164Y55445D01*
X418163Y55441D01*
X418163Y55437D01*
X418162Y55432D01*
X418162Y55428D01*
X418161Y55424D01*
X418161Y55420D01*
X418160Y55415D01*
X418159Y55407D01*
X418159Y55403D01*
X418158Y55394D01*
X418157Y55390D01*
X418156Y55381D01*
X418156Y55377D01*
X418155Y55369D01*
X418155Y55364D01*
X418154Y55356D01*
X418153Y55352D01*
X418152Y55343D01*
X418152Y55339D01*
X418151Y55330D01*
X418150Y55326D01*
X418149Y55318D01*
X418149Y55313D01*
X418148Y55305D01*
X418147Y55301D01*
X418146Y55292D01*
X418146Y55288D01*
X418145Y55284D01*
X418145Y55279D01*
X418144Y55275D01*
X418144Y55271D01*
X418144Y55267D01*
X418143Y55267D01*
X418144Y55267D01*
X418143Y55262D01*
X418143Y55258D01*
X418142Y55250D01*
X418141Y55245D01*
X418140Y55237D01*
X418140Y55233D01*
X418139Y55224D01*
X418138Y55220D01*
X418137Y55211D01*
X418137Y55207D01*
X418136Y55199D01*
X418135Y55194D01*
X418134Y55186D01*
X418134Y55182D01*
X418133Y55173D01*
X418133Y55169D01*
X418132Y55169D01*
X418133Y55169D01*
X418132Y55160D01*
X418131Y55156D01*
X418130Y55148D01*
X418130Y55143D01*
X418129Y55135D01*
X418128Y55131D01*
X418128Y55126D01*
X418127Y55122D01*
X418127Y55118D01*
X418126Y55114D01*
X418125Y55105D01*
X418125Y55101D01*
X418124Y55092D01*
X418123Y55088D01*
X418122Y55080D01*
X418122Y55075D01*
X418121Y55067D01*
X418121Y55063D01*
X418120Y55054D01*
X418119Y55050D01*
X418118Y55041D01*
X418118Y55037D01*
X418117Y55029D01*
X418116Y55024D01*
X418116Y55020D01*
X418116Y50519D01*
X414876Y50519D01*
G37*
%LPD*%
%LPC*%
G36*
X300576Y50519D02*
X300576Y50519D01*
X300744Y51363D01*
X301216Y52503D01*
X301231Y52567D01*
X301256Y52628D01*
X301265Y52711D01*
X301272Y52743D01*
X301271Y52762D01*
X301274Y52794D01*
X301274Y55645D01*
X301552Y56863D01*
X302095Y57989D01*
X302874Y58966D01*
X303851Y59745D01*
X304977Y60288D01*
X305821Y60480D01*
X305821Y57833D01*
X305517Y57727D01*
X305517Y57726D01*
X305516Y57727D01*
X304947Y57369D01*
X304947Y57368D01*
X304947Y57369D01*
X304472Y56893D01*
X304471Y56893D01*
X304114Y56324D01*
X304114Y56323D01*
X304113Y56323D01*
X303891Y55689D01*
X303891Y55688D01*
X303890Y55683D01*
X303890Y55679D01*
X303889Y55670D01*
X303889Y55666D01*
X303888Y55658D01*
X303887Y55653D01*
X303886Y55645D01*
X303886Y55641D01*
X303885Y55632D01*
X303884Y55628D01*
X303883Y55619D01*
X303883Y55615D01*
X303882Y55607D01*
X303881Y55602D01*
X303880Y55594D01*
X303880Y55590D01*
X303879Y55585D01*
X303879Y55581D01*
X303878Y55577D01*
X303878Y55573D01*
X303878Y55568D01*
X303877Y55568D01*
X303878Y55568D01*
X303877Y55564D01*
X303877Y55560D01*
X303876Y55551D01*
X303875Y55547D01*
X303874Y55539D01*
X303874Y55534D01*
X303873Y55526D01*
X303872Y55522D01*
X303871Y55513D01*
X303871Y55509D01*
X303870Y55500D01*
X303869Y55496D01*
X303868Y55488D01*
X303868Y55483D01*
X303867Y55475D01*
X303867Y55471D01*
X303866Y55471D01*
X303867Y55471D01*
X303866Y55462D01*
X303865Y55458D01*
X303864Y55449D01*
X303864Y55445D01*
X303863Y55441D01*
X303863Y55437D01*
X303862Y55432D01*
X303862Y55428D01*
X303861Y55424D01*
X303861Y55420D01*
X303860Y55415D01*
X303859Y55407D01*
X303859Y55403D01*
X303858Y55394D01*
X303857Y55390D01*
X303856Y55381D01*
X303856Y55377D01*
X303855Y55369D01*
X303855Y55364D01*
X303854Y55356D01*
X303853Y55352D01*
X303852Y55343D01*
X303852Y55339D01*
X303851Y55330D01*
X303850Y55326D01*
X303849Y55318D01*
X303849Y55313D01*
X303848Y55305D01*
X303847Y55301D01*
X303846Y55292D01*
X303846Y55288D01*
X303845Y55284D01*
X303845Y55279D01*
X303844Y55275D01*
X303844Y55271D01*
X303844Y55267D01*
X303843Y55267D01*
X303844Y55267D01*
X303843Y55262D01*
X303843Y55258D01*
X303842Y55250D01*
X303841Y55245D01*
X303840Y55237D01*
X303840Y55233D01*
X303839Y55224D01*
X303838Y55220D01*
X303837Y55211D01*
X303837Y55207D01*
X303836Y55199D01*
X303835Y55194D01*
X303834Y55186D01*
X303834Y55182D01*
X303833Y55173D01*
X303833Y55169D01*
X303832Y55169D01*
X303833Y55169D01*
X303832Y55160D01*
X303831Y55156D01*
X303830Y55148D01*
X303830Y55143D01*
X303829Y55135D01*
X303828Y55131D01*
X303828Y55126D01*
X303827Y55122D01*
X303827Y55118D01*
X303826Y55114D01*
X303825Y55105D01*
X303825Y55101D01*
X303824Y55092D01*
X303823Y55088D01*
X303822Y55080D01*
X303822Y55075D01*
X303821Y55067D01*
X303821Y55063D01*
X303820Y55054D01*
X303819Y55050D01*
X303818Y55041D01*
X303818Y55037D01*
X303817Y55029D01*
X303816Y55024D01*
X303816Y55020D01*
X303816Y50519D01*
X300576Y50519D01*
G37*
%LPD*%
%LPC*%
G36*
X422119Y41207D02*
X422119Y41207D01*
X422423Y41313D01*
X422423Y41314D01*
X422424Y41314D01*
X422993Y41671D01*
X422993Y41672D01*
X423469Y42147D01*
X423827Y42716D01*
X423826Y42717D01*
X423827Y42717D01*
X424049Y43351D01*
X424049Y43352D01*
X424050Y43357D01*
X424050Y43361D01*
X424051Y43370D01*
X424051Y43374D01*
X424052Y43374D01*
X424051Y43374D01*
X424052Y43382D01*
X424052Y43383D01*
X424053Y43387D01*
X424054Y43395D01*
X424054Y43399D01*
X424054Y43400D01*
X424055Y43408D01*
X424056Y43412D01*
X424057Y43421D01*
X424057Y43425D01*
X424058Y43433D01*
X424058Y43434D01*
X424059Y43438D01*
X424060Y43446D01*
X424060Y43450D01*
X424060Y43451D01*
X424061Y43455D01*
X424061Y43459D01*
X424062Y43463D01*
X424062Y43467D01*
X424062Y43468D01*
X424063Y43472D01*
X424063Y43476D01*
X424063Y43480D01*
X424064Y43489D01*
X424065Y43493D01*
X424066Y43501D01*
X424066Y43502D01*
X424066Y43506D01*
X424067Y43514D01*
X424068Y43518D01*
X424068Y43519D01*
X424069Y43527D01*
X424069Y43531D01*
X424070Y43540D01*
X424071Y43544D01*
X424072Y43552D01*
X424072Y43553D01*
X424072Y43557D01*
X424073Y43565D01*
X424074Y43569D01*
X424074Y43570D01*
X424074Y43578D01*
X424075Y43578D01*
X424074Y43578D01*
X424075Y43582D01*
X424076Y43591D01*
X424076Y43595D01*
X424077Y43599D01*
X424077Y43603D01*
X424077Y43604D01*
X424078Y43608D01*
X424078Y43612D01*
X424079Y43616D01*
X424079Y43620D01*
X424079Y43621D01*
X424080Y43625D01*
X424081Y43633D01*
X424081Y43637D01*
X424081Y43638D01*
X424082Y43646D01*
X424083Y43650D01*
X424084Y43659D01*
X424084Y43663D01*
X424085Y43671D01*
X424085Y43672D01*
X424085Y43676D01*
X424086Y43676D01*
X424085Y43676D01*
X424086Y43684D01*
X424087Y43688D01*
X424087Y43689D01*
X424088Y43697D01*
X424088Y43701D01*
X424089Y43710D01*
X424090Y43714D01*
X424091Y43722D01*
X424091Y43723D01*
X424091Y43727D01*
X424092Y43735D01*
X424093Y43739D01*
X424093Y43740D01*
X424094Y43748D01*
X424094Y43752D01*
X424095Y43756D01*
X424095Y43757D01*
X424095Y43761D01*
X424096Y43765D01*
X424096Y43769D01*
X424097Y43773D01*
X424097Y43774D01*
X424097Y43778D01*
X424097Y43782D01*
X424098Y43790D01*
X424098Y43791D01*
X424099Y43795D01*
X424100Y43803D01*
X424100Y43807D01*
X424100Y43808D01*
X424101Y43816D01*
X424102Y43820D01*
X424103Y43829D01*
X424103Y43833D01*
X424104Y43841D01*
X424104Y43842D01*
X424105Y43846D01*
X424106Y43854D01*
X424106Y43858D01*
X424106Y43859D01*
X424107Y43867D01*
X424108Y43871D01*
X424108Y43880D01*
X424109Y43880D01*
X424108Y43880D01*
X424109Y43884D01*
X424110Y43892D01*
X424110Y43893D01*
X424110Y43897D01*
X424111Y43905D01*
X424112Y43909D01*
X424112Y43910D01*
X424112Y43914D01*
X424113Y43918D01*
X424113Y43922D01*
X424114Y43926D01*
X424114Y43927D01*
X424115Y43935D01*
X424115Y43939D01*
X424116Y43948D01*
X424117Y43952D01*
X424118Y43960D01*
X424118Y43961D01*
X424118Y43965D01*
X424119Y43973D01*
X424119Y43977D01*
X424120Y43977D01*
X424119Y43978D01*
X424120Y43986D01*
X424121Y43990D01*
X424122Y43999D01*
X424122Y44003D01*
X424123Y44011D01*
X424123Y44012D01*
X424124Y44016D01*
X424124Y44020D01*
X424124Y48521D01*
X427364Y48521D01*
X427196Y47677D01*
X426724Y46537D01*
X426709Y46473D01*
X426684Y46412D01*
X426675Y46329D01*
X426668Y46297D01*
X426669Y46278D01*
X426666Y46245D01*
X426666Y43395D01*
X426388Y42177D01*
X425845Y41051D01*
X425288Y40352D01*
X425066Y40074D01*
X424089Y39295D01*
X422963Y38752D01*
X422119Y38560D01*
X422119Y41207D01*
G37*
%LPD*%
%LPC*%
G36*
X394179Y41207D02*
X394179Y41207D01*
X394483Y41313D01*
X394483Y41314D01*
X394484Y41314D01*
X395053Y41671D01*
X395053Y41672D01*
X395529Y42147D01*
X395887Y42716D01*
X395886Y42717D01*
X395887Y42717D01*
X396109Y43351D01*
X396109Y43352D01*
X396110Y43357D01*
X396110Y43361D01*
X396111Y43370D01*
X396111Y43374D01*
X396112Y43374D01*
X396111Y43374D01*
X396112Y43382D01*
X396112Y43383D01*
X396113Y43387D01*
X396114Y43395D01*
X396114Y43399D01*
X396114Y43400D01*
X396115Y43408D01*
X396116Y43412D01*
X396117Y43421D01*
X396117Y43425D01*
X396118Y43433D01*
X396118Y43434D01*
X396119Y43438D01*
X396120Y43446D01*
X396120Y43450D01*
X396120Y43451D01*
X396121Y43455D01*
X396121Y43459D01*
X396122Y43463D01*
X396122Y43467D01*
X396122Y43468D01*
X396123Y43472D01*
X396123Y43476D01*
X396123Y43480D01*
X396124Y43489D01*
X396125Y43493D01*
X396126Y43501D01*
X396126Y43502D01*
X396126Y43506D01*
X396127Y43514D01*
X396128Y43518D01*
X396128Y43519D01*
X396129Y43527D01*
X396129Y43531D01*
X396130Y43540D01*
X396131Y43544D01*
X396132Y43552D01*
X396132Y43553D01*
X396132Y43557D01*
X396133Y43565D01*
X396134Y43569D01*
X396134Y43570D01*
X396134Y43578D01*
X396135Y43578D01*
X396134Y43578D01*
X396135Y43582D01*
X396136Y43591D01*
X396136Y43595D01*
X396137Y43599D01*
X396137Y43603D01*
X396137Y43604D01*
X396138Y43608D01*
X396138Y43612D01*
X396139Y43616D01*
X396139Y43620D01*
X396139Y43621D01*
X396140Y43625D01*
X396141Y43633D01*
X396141Y43637D01*
X396141Y43638D01*
X396142Y43646D01*
X396143Y43650D01*
X396144Y43659D01*
X396144Y43663D01*
X396145Y43671D01*
X396145Y43672D01*
X396145Y43676D01*
X396146Y43676D01*
X396145Y43676D01*
X396146Y43684D01*
X396147Y43688D01*
X396147Y43689D01*
X396148Y43697D01*
X396148Y43701D01*
X396149Y43710D01*
X396150Y43714D01*
X396151Y43722D01*
X396151Y43723D01*
X396151Y43727D01*
X396152Y43735D01*
X396153Y43739D01*
X396153Y43740D01*
X396154Y43748D01*
X396154Y43752D01*
X396155Y43756D01*
X396155Y43757D01*
X396155Y43761D01*
X396156Y43765D01*
X396156Y43769D01*
X396157Y43773D01*
X396157Y43774D01*
X396157Y43778D01*
X396157Y43782D01*
X396158Y43790D01*
X396158Y43791D01*
X396159Y43795D01*
X396160Y43803D01*
X396160Y43807D01*
X396160Y43808D01*
X396161Y43816D01*
X396162Y43820D01*
X396163Y43829D01*
X396163Y43833D01*
X396164Y43841D01*
X396164Y43842D01*
X396165Y43846D01*
X396166Y43854D01*
X396166Y43858D01*
X396166Y43859D01*
X396167Y43867D01*
X396168Y43871D01*
X396168Y43880D01*
X396169Y43880D01*
X396168Y43880D01*
X396169Y43884D01*
X396170Y43892D01*
X396170Y43893D01*
X396170Y43897D01*
X396171Y43905D01*
X396172Y43909D01*
X396172Y43910D01*
X396172Y43914D01*
X396173Y43918D01*
X396173Y43922D01*
X396174Y43926D01*
X396174Y43927D01*
X396175Y43935D01*
X396175Y43939D01*
X396176Y43948D01*
X396177Y43952D01*
X396178Y43960D01*
X396178Y43961D01*
X396178Y43965D01*
X396179Y43973D01*
X396179Y43977D01*
X396180Y43977D01*
X396179Y43978D01*
X396180Y43986D01*
X396181Y43990D01*
X396182Y43999D01*
X396182Y44003D01*
X396183Y44011D01*
X396183Y44012D01*
X396184Y44016D01*
X396184Y44020D01*
X396184Y48521D01*
X399424Y48521D01*
X399256Y47677D01*
X398784Y46537D01*
X398769Y46473D01*
X398744Y46412D01*
X398735Y46329D01*
X398728Y46297D01*
X398729Y46278D01*
X398726Y46245D01*
X398726Y43395D01*
X398448Y42177D01*
X397905Y41051D01*
X397239Y40215D01*
X397126Y40074D01*
X396149Y39295D01*
X395023Y38752D01*
X394179Y38560D01*
X394179Y41207D01*
G37*
%LPD*%
%LPC*%
G36*
X508479Y41207D02*
X508479Y41207D01*
X508783Y41313D01*
X508783Y41314D01*
X508784Y41314D01*
X509353Y41671D01*
X509353Y41672D01*
X509829Y42147D01*
X510187Y42716D01*
X510186Y42717D01*
X510187Y42717D01*
X510409Y43351D01*
X510409Y43352D01*
X510410Y43357D01*
X510410Y43361D01*
X510411Y43370D01*
X510411Y43374D01*
X510412Y43374D01*
X510411Y43374D01*
X510412Y43382D01*
X510412Y43383D01*
X510413Y43387D01*
X510414Y43395D01*
X510414Y43399D01*
X510414Y43400D01*
X510415Y43408D01*
X510416Y43412D01*
X510417Y43421D01*
X510417Y43425D01*
X510418Y43433D01*
X510418Y43434D01*
X510419Y43438D01*
X510420Y43446D01*
X510420Y43450D01*
X510420Y43451D01*
X510421Y43455D01*
X510421Y43459D01*
X510422Y43463D01*
X510422Y43467D01*
X510422Y43468D01*
X510423Y43472D01*
X510423Y43476D01*
X510423Y43480D01*
X510424Y43489D01*
X510425Y43493D01*
X510426Y43501D01*
X510426Y43502D01*
X510426Y43506D01*
X510427Y43514D01*
X510428Y43518D01*
X510428Y43519D01*
X510429Y43527D01*
X510429Y43531D01*
X510430Y43540D01*
X510431Y43544D01*
X510432Y43552D01*
X510432Y43553D01*
X510432Y43557D01*
X510433Y43565D01*
X510434Y43569D01*
X510434Y43570D01*
X510434Y43578D01*
X510435Y43578D01*
X510434Y43578D01*
X510435Y43582D01*
X510436Y43591D01*
X510436Y43595D01*
X510437Y43599D01*
X510437Y43603D01*
X510437Y43604D01*
X510438Y43608D01*
X510438Y43612D01*
X510439Y43616D01*
X510439Y43620D01*
X510439Y43621D01*
X510440Y43625D01*
X510441Y43633D01*
X510441Y43637D01*
X510441Y43638D01*
X510442Y43646D01*
X510443Y43650D01*
X510444Y43659D01*
X510444Y43663D01*
X510445Y43671D01*
X510445Y43672D01*
X510445Y43676D01*
X510446Y43676D01*
X510445Y43676D01*
X510446Y43684D01*
X510447Y43688D01*
X510447Y43689D01*
X510448Y43697D01*
X510448Y43701D01*
X510449Y43710D01*
X510450Y43714D01*
X510451Y43722D01*
X510451Y43723D01*
X510451Y43727D01*
X510452Y43735D01*
X510453Y43739D01*
X510453Y43740D01*
X510454Y43748D01*
X510454Y43752D01*
X510455Y43756D01*
X510455Y43757D01*
X510455Y43761D01*
X510456Y43765D01*
X510456Y43769D01*
X510457Y43773D01*
X510457Y43774D01*
X510457Y43778D01*
X510457Y43782D01*
X510458Y43790D01*
X510458Y43791D01*
X510459Y43795D01*
X510460Y43803D01*
X510460Y43807D01*
X510460Y43808D01*
X510461Y43816D01*
X510462Y43820D01*
X510463Y43829D01*
X510463Y43833D01*
X510464Y43841D01*
X510464Y43842D01*
X510465Y43846D01*
X510466Y43854D01*
X510466Y43858D01*
X510466Y43859D01*
X510467Y43867D01*
X510468Y43871D01*
X510468Y43880D01*
X510469Y43880D01*
X510468Y43880D01*
X510469Y43884D01*
X510470Y43892D01*
X510470Y43893D01*
X510470Y43897D01*
X510471Y43905D01*
X510472Y43909D01*
X510472Y43910D01*
X510472Y43914D01*
X510473Y43918D01*
X510473Y43922D01*
X510474Y43926D01*
X510474Y43927D01*
X510475Y43935D01*
X510475Y43939D01*
X510476Y43948D01*
X510477Y43952D01*
X510478Y43960D01*
X510478Y43961D01*
X510478Y43965D01*
X510479Y43973D01*
X510479Y43977D01*
X510480Y43977D01*
X510479Y43978D01*
X510480Y43986D01*
X510481Y43990D01*
X510482Y43999D01*
X510482Y44003D01*
X510483Y44011D01*
X510483Y44012D01*
X510484Y44016D01*
X510484Y44020D01*
X510484Y48521D01*
X513724Y48521D01*
X513556Y47677D01*
X513084Y46537D01*
X513069Y46473D01*
X513044Y46412D01*
X513035Y46329D01*
X513028Y46297D01*
X513029Y46278D01*
X513026Y46245D01*
X513026Y43395D01*
X512748Y42177D01*
X512205Y41051D01*
X511440Y40091D01*
X511426Y40074D01*
X510449Y39295D01*
X509323Y38752D01*
X508479Y38560D01*
X508479Y41207D01*
G37*
%LPD*%
%LPC*%
G36*
X307819Y41207D02*
X307819Y41207D01*
X308123Y41313D01*
X308123Y41314D01*
X308124Y41314D01*
X308693Y41671D01*
X308693Y41672D01*
X309169Y42147D01*
X309527Y42716D01*
X309526Y42717D01*
X309527Y42717D01*
X309749Y43351D01*
X309749Y43352D01*
X309750Y43357D01*
X309750Y43361D01*
X309751Y43370D01*
X309751Y43374D01*
X309752Y43374D01*
X309751Y43374D01*
X309752Y43382D01*
X309752Y43383D01*
X309753Y43387D01*
X309754Y43395D01*
X309754Y43399D01*
X309754Y43400D01*
X309755Y43408D01*
X309756Y43412D01*
X309757Y43421D01*
X309757Y43425D01*
X309758Y43433D01*
X309758Y43434D01*
X309759Y43438D01*
X309760Y43446D01*
X309760Y43450D01*
X309760Y43451D01*
X309761Y43455D01*
X309761Y43459D01*
X309762Y43463D01*
X309762Y43467D01*
X309762Y43468D01*
X309763Y43472D01*
X309763Y43476D01*
X309763Y43480D01*
X309764Y43489D01*
X309765Y43493D01*
X309766Y43501D01*
X309766Y43502D01*
X309766Y43506D01*
X309767Y43514D01*
X309768Y43518D01*
X309768Y43519D01*
X309769Y43527D01*
X309769Y43531D01*
X309770Y43540D01*
X309771Y43544D01*
X309772Y43552D01*
X309772Y43553D01*
X309772Y43557D01*
X309773Y43565D01*
X309774Y43569D01*
X309774Y43570D01*
X309774Y43578D01*
X309775Y43578D01*
X309774Y43578D01*
X309775Y43582D01*
X309776Y43591D01*
X309776Y43595D01*
X309777Y43599D01*
X309777Y43603D01*
X309777Y43604D01*
X309778Y43608D01*
X309778Y43612D01*
X309779Y43616D01*
X309779Y43620D01*
X309779Y43621D01*
X309780Y43625D01*
X309781Y43633D01*
X309781Y43637D01*
X309781Y43638D01*
X309782Y43646D01*
X309783Y43650D01*
X309784Y43659D01*
X309784Y43663D01*
X309785Y43671D01*
X309785Y43672D01*
X309785Y43676D01*
X309786Y43676D01*
X309785Y43676D01*
X309786Y43684D01*
X309787Y43688D01*
X309787Y43689D01*
X309788Y43697D01*
X309788Y43701D01*
X309789Y43710D01*
X309790Y43714D01*
X309791Y43722D01*
X309791Y43723D01*
X309791Y43727D01*
X309792Y43735D01*
X309793Y43739D01*
X309793Y43740D01*
X309794Y43748D01*
X309794Y43752D01*
X309795Y43756D01*
X309795Y43757D01*
X309795Y43761D01*
X309796Y43765D01*
X309796Y43769D01*
X309797Y43773D01*
X309797Y43774D01*
X309797Y43778D01*
X309797Y43782D01*
X309798Y43790D01*
X309798Y43791D01*
X309799Y43795D01*
X309800Y43803D01*
X309800Y43807D01*
X309800Y43808D01*
X309801Y43816D01*
X309802Y43820D01*
X309803Y43829D01*
X309803Y43833D01*
X309804Y43841D01*
X309804Y43842D01*
X309805Y43846D01*
X309806Y43854D01*
X309806Y43858D01*
X309806Y43859D01*
X309807Y43867D01*
X309808Y43871D01*
X309808Y43880D01*
X309809Y43880D01*
X309808Y43880D01*
X309809Y43884D01*
X309810Y43892D01*
X309810Y43893D01*
X309810Y43897D01*
X309811Y43905D01*
X309812Y43909D01*
X309812Y43910D01*
X309812Y43914D01*
X309813Y43918D01*
X309813Y43922D01*
X309814Y43926D01*
X309814Y43927D01*
X309815Y43935D01*
X309815Y43939D01*
X309816Y43948D01*
X309817Y43952D01*
X309818Y43960D01*
X309818Y43961D01*
X309818Y43965D01*
X309819Y43973D01*
X309819Y43977D01*
X309820Y43977D01*
X309819Y43978D01*
X309820Y43986D01*
X309821Y43990D01*
X309822Y43999D01*
X309822Y44003D01*
X309823Y44011D01*
X309823Y44012D01*
X309824Y44016D01*
X309824Y44020D01*
X309824Y48521D01*
X313064Y48521D01*
X312896Y47677D01*
X312424Y46537D01*
X312409Y46473D01*
X312384Y46412D01*
X312375Y46329D01*
X312368Y46297D01*
X312369Y46278D01*
X312366Y46245D01*
X312366Y43395D01*
X312088Y42177D01*
X311545Y41051D01*
X311048Y40427D01*
X310766Y40074D01*
X309789Y39295D01*
X308663Y38752D01*
X307819Y38560D01*
X307819Y41207D01*
G37*
%LPD*%
%LPC*%
G36*
X396184Y50519D02*
X396184Y50519D01*
X396184Y55020D01*
X396109Y55688D01*
X396109Y55689D01*
X395887Y56323D01*
X395886Y56323D01*
X395887Y56324D01*
X395529Y56893D01*
X395528Y56893D01*
X395529Y56893D01*
X395053Y57369D01*
X394484Y57727D01*
X394483Y57726D01*
X394483Y57727D01*
X394179Y57833D01*
X394179Y60480D01*
X395023Y60288D01*
X396149Y59745D01*
X397126Y58966D01*
X397905Y57989D01*
X398448Y56863D01*
X398726Y55645D01*
X398726Y52794D01*
X398736Y52730D01*
X398737Y52664D01*
X398760Y52584D01*
X398765Y52552D01*
X398775Y52535D01*
X398784Y52503D01*
X399256Y51363D01*
X399424Y50519D01*
X396184Y50519D01*
G37*
%LPD*%
%LPC*%
G36*
X424124Y50519D02*
X424124Y50519D01*
X424124Y55020D01*
X424049Y55688D01*
X424049Y55689D01*
X423827Y56323D01*
X423826Y56323D01*
X423827Y56324D01*
X423469Y56893D01*
X423468Y56893D01*
X423469Y56893D01*
X422993Y57369D01*
X422424Y57727D01*
X422423Y57726D01*
X422423Y57727D01*
X422119Y57833D01*
X422119Y60480D01*
X422963Y60288D01*
X424089Y59745D01*
X425066Y58966D01*
X425845Y57989D01*
X426388Y56863D01*
X426666Y55645D01*
X426666Y52794D01*
X426676Y52730D01*
X426677Y52664D01*
X426700Y52584D01*
X426705Y52552D01*
X426715Y52535D01*
X426724Y52503D01*
X427196Y51363D01*
X427364Y50519D01*
X424124Y50519D01*
G37*
%LPD*%
%LPC*%
G36*
X510484Y50519D02*
X510484Y50519D01*
X510484Y55020D01*
X510409Y55688D01*
X510409Y55689D01*
X510187Y56323D01*
X510186Y56323D01*
X510187Y56324D01*
X509829Y56893D01*
X509828Y56893D01*
X509829Y56893D01*
X509353Y57369D01*
X508784Y57727D01*
X508783Y57726D01*
X508783Y57727D01*
X508479Y57833D01*
X508479Y60480D01*
X509323Y60288D01*
X510449Y59745D01*
X511426Y58966D01*
X512205Y57989D01*
X512748Y56863D01*
X513026Y55645D01*
X513026Y52794D01*
X513036Y52730D01*
X513037Y52664D01*
X513060Y52584D01*
X513065Y52552D01*
X513075Y52535D01*
X513084Y52503D01*
X513556Y51363D01*
X513724Y50519D01*
X510484Y50519D01*
G37*
%LPD*%
%LPC*%
G36*
X309824Y50519D02*
X309824Y50519D01*
X309824Y55020D01*
X309749Y55688D01*
X309749Y55689D01*
X309527Y56323D01*
X309526Y56323D01*
X309527Y56324D01*
X309169Y56893D01*
X309168Y56893D01*
X309169Y56893D01*
X308693Y57369D01*
X308124Y57727D01*
X308123Y57726D01*
X308123Y57727D01*
X307819Y57833D01*
X307819Y60480D01*
X308663Y60288D01*
X309789Y59745D01*
X310766Y58966D01*
X311545Y57989D01*
X312088Y56863D01*
X312366Y55645D01*
X312366Y52794D01*
X312376Y52730D01*
X312377Y52664D01*
X312400Y52584D01*
X312405Y52552D01*
X312415Y52535D01*
X312424Y52503D01*
X312896Y51363D01*
X313064Y50519D01*
X309824Y50519D01*
G37*
%LPD*%
%LPC*%
G36*
X501236Y8719D02*
X501236Y8719D01*
X501404Y9563D01*
X501876Y10703D01*
X501891Y10767D01*
X501916Y10828D01*
X501925Y10911D01*
X501932Y10943D01*
X501931Y10962D01*
X501934Y10994D01*
X501934Y11495D01*
X502212Y12713D01*
X502755Y13839D01*
X503534Y14816D01*
X504511Y15595D01*
X505637Y16138D01*
X506481Y16330D01*
X506481Y13683D01*
X506177Y13577D01*
X506177Y13576D01*
X506176Y13577D01*
X505607Y13219D01*
X505607Y13218D01*
X505607Y13219D01*
X505132Y12743D01*
X505131Y12743D01*
X504774Y12174D01*
X504774Y12173D01*
X504773Y12173D01*
X504551Y11539D01*
X504551Y11538D01*
X504550Y11531D01*
X504550Y11526D01*
X504549Y11518D01*
X504548Y11514D01*
X504547Y11505D01*
X504547Y11501D01*
X504546Y11492D01*
X504545Y11488D01*
X504544Y11480D01*
X504544Y11475D01*
X504543Y11467D01*
X504543Y11463D01*
X504542Y11463D01*
X504543Y11463D01*
X504542Y11454D01*
X504541Y11450D01*
X504540Y11441D01*
X504540Y11437D01*
X504539Y11433D01*
X504539Y11429D01*
X504538Y11424D01*
X504538Y11420D01*
X504537Y11416D01*
X504537Y11412D01*
X504536Y11407D01*
X504535Y11399D01*
X504535Y11395D01*
X504534Y11386D01*
X504533Y11382D01*
X504532Y11373D01*
X504532Y11369D01*
X504531Y11361D01*
X504531Y11356D01*
X504530Y11348D01*
X504529Y11344D01*
X504528Y11335D01*
X504528Y11331D01*
X504527Y11322D01*
X504526Y11318D01*
X504525Y11310D01*
X504525Y11305D01*
X504524Y11297D01*
X504523Y11293D01*
X504522Y11284D01*
X504522Y11280D01*
X504521Y11276D01*
X504521Y11271D01*
X504520Y11267D01*
X504520Y11263D01*
X504520Y11259D01*
X504519Y11259D01*
X504520Y11259D01*
X504519Y11254D01*
X504519Y11250D01*
X504518Y11242D01*
X504517Y11237D01*
X504516Y11229D01*
X504516Y11225D01*
X504515Y11216D01*
X504514Y11212D01*
X504513Y11203D01*
X504513Y11199D01*
X504512Y11191D01*
X504511Y11186D01*
X504510Y11178D01*
X504510Y11174D01*
X504509Y11165D01*
X504509Y11161D01*
X504508Y11161D01*
X504509Y11161D01*
X504508Y11152D01*
X504507Y11148D01*
X504506Y11140D01*
X504506Y11135D01*
X504505Y11127D01*
X504504Y11123D01*
X504504Y11118D01*
X504503Y11114D01*
X504503Y11110D01*
X504502Y11106D01*
X504501Y11097D01*
X504501Y11093D01*
X504500Y11084D01*
X504499Y11080D01*
X504498Y11072D01*
X504498Y11067D01*
X504497Y11059D01*
X504497Y11055D01*
X504496Y11046D01*
X504495Y11042D01*
X504494Y11033D01*
X504494Y11029D01*
X504493Y11021D01*
X504492Y11016D01*
X504491Y11008D01*
X504491Y11004D01*
X504490Y10995D01*
X504489Y10991D01*
X504488Y10982D01*
X504488Y10978D01*
X504487Y10974D01*
X504487Y10970D01*
X504486Y10965D01*
X504486Y10961D01*
X504486Y10957D01*
X504485Y10957D01*
X504486Y10957D01*
X504485Y10953D01*
X504485Y10948D01*
X504484Y10940D01*
X504483Y10936D01*
X504482Y10927D01*
X504482Y10923D01*
X504481Y10914D01*
X504480Y10910D01*
X504479Y10902D01*
X504479Y10897D01*
X504478Y10889D01*
X504477Y10885D01*
X504476Y10876D01*
X504476Y10872D01*
X504476Y10870D01*
X504476Y8719D01*
X501236Y8719D01*
G37*
%LPD*%
%LPC*%
G36*
X386936Y8719D02*
X386936Y8719D01*
X387104Y9563D01*
X387576Y10703D01*
X387591Y10767D01*
X387616Y10828D01*
X387625Y10911D01*
X387632Y10943D01*
X387631Y10962D01*
X387634Y10994D01*
X387634Y11495D01*
X387912Y12713D01*
X388455Y13839D01*
X389234Y14816D01*
X390211Y15595D01*
X391337Y16138D01*
X392181Y16330D01*
X392181Y13683D01*
X391877Y13577D01*
X391877Y13576D01*
X391876Y13577D01*
X391307Y13219D01*
X391307Y13218D01*
X391307Y13219D01*
X390832Y12743D01*
X390831Y12743D01*
X390474Y12174D01*
X390474Y12173D01*
X390473Y12173D01*
X390251Y11539D01*
X390251Y11538D01*
X390250Y11531D01*
X390250Y11526D01*
X390249Y11518D01*
X390248Y11514D01*
X390247Y11505D01*
X390247Y11501D01*
X390246Y11492D01*
X390245Y11488D01*
X390244Y11480D01*
X390244Y11475D01*
X390243Y11467D01*
X390243Y11463D01*
X390242Y11463D01*
X390243Y11463D01*
X390242Y11454D01*
X390241Y11450D01*
X390240Y11441D01*
X390240Y11437D01*
X390239Y11433D01*
X390239Y11429D01*
X390238Y11424D01*
X390238Y11420D01*
X390237Y11416D01*
X390237Y11412D01*
X390236Y11407D01*
X390235Y11399D01*
X390235Y11395D01*
X390234Y11386D01*
X390233Y11382D01*
X390232Y11373D01*
X390232Y11369D01*
X390231Y11361D01*
X390231Y11356D01*
X390230Y11348D01*
X390229Y11344D01*
X390228Y11335D01*
X390228Y11331D01*
X390227Y11322D01*
X390226Y11318D01*
X390225Y11310D01*
X390225Y11305D01*
X390224Y11297D01*
X390223Y11293D01*
X390222Y11284D01*
X390222Y11280D01*
X390221Y11276D01*
X390221Y11271D01*
X390220Y11267D01*
X390220Y11263D01*
X390220Y11259D01*
X390219Y11259D01*
X390220Y11259D01*
X390219Y11254D01*
X390219Y11250D01*
X390218Y11242D01*
X390217Y11237D01*
X390216Y11229D01*
X390216Y11225D01*
X390215Y11216D01*
X390214Y11212D01*
X390213Y11203D01*
X390213Y11199D01*
X390212Y11191D01*
X390211Y11186D01*
X390210Y11178D01*
X390210Y11174D01*
X390209Y11165D01*
X390209Y11161D01*
X390208Y11161D01*
X390209Y11161D01*
X390208Y11152D01*
X390207Y11148D01*
X390206Y11140D01*
X390206Y11135D01*
X390205Y11127D01*
X390204Y11123D01*
X390204Y11118D01*
X390203Y11114D01*
X390203Y11110D01*
X390202Y11106D01*
X390201Y11097D01*
X390201Y11093D01*
X390200Y11084D01*
X390199Y11080D01*
X390198Y11072D01*
X390198Y11067D01*
X390197Y11059D01*
X390197Y11055D01*
X390196Y11046D01*
X390195Y11042D01*
X390194Y11033D01*
X390194Y11029D01*
X390193Y11021D01*
X390192Y11016D01*
X390191Y11008D01*
X390191Y11004D01*
X390190Y10995D01*
X390189Y10991D01*
X390188Y10982D01*
X390188Y10978D01*
X390187Y10974D01*
X390187Y10970D01*
X390186Y10965D01*
X390186Y10961D01*
X390186Y10957D01*
X390185Y10957D01*
X390186Y10957D01*
X390185Y10953D01*
X390185Y10948D01*
X390184Y10940D01*
X390183Y10936D01*
X390182Y10927D01*
X390182Y10923D01*
X390181Y10914D01*
X390180Y10910D01*
X390179Y10902D01*
X390179Y10897D01*
X390178Y10889D01*
X390177Y10885D01*
X390176Y10876D01*
X390176Y10872D01*
X390176Y10870D01*
X390176Y8719D01*
X386936Y8719D01*
G37*
%LPD*%
%LPC*%
G36*
X300576Y8719D02*
X300576Y8719D01*
X300744Y9563D01*
X301216Y10703D01*
X301231Y10767D01*
X301256Y10828D01*
X301265Y10911D01*
X301272Y10943D01*
X301271Y10962D01*
X301274Y10994D01*
X301274Y11495D01*
X301552Y12713D01*
X302095Y13839D01*
X302874Y14816D01*
X303851Y15595D01*
X304977Y16138D01*
X305821Y16330D01*
X305821Y13683D01*
X305517Y13577D01*
X305517Y13576D01*
X305516Y13577D01*
X304947Y13219D01*
X304947Y13218D01*
X304947Y13219D01*
X304472Y12743D01*
X304471Y12743D01*
X304114Y12174D01*
X304114Y12173D01*
X304113Y12173D01*
X303891Y11539D01*
X303891Y11538D01*
X303890Y11531D01*
X303890Y11526D01*
X303889Y11518D01*
X303888Y11514D01*
X303887Y11505D01*
X303887Y11501D01*
X303886Y11492D01*
X303885Y11488D01*
X303884Y11480D01*
X303884Y11475D01*
X303883Y11467D01*
X303883Y11463D01*
X303882Y11463D01*
X303883Y11463D01*
X303882Y11454D01*
X303881Y11450D01*
X303880Y11441D01*
X303880Y11437D01*
X303879Y11433D01*
X303879Y11429D01*
X303878Y11424D01*
X303878Y11420D01*
X303877Y11416D01*
X303877Y11412D01*
X303876Y11407D01*
X303875Y11399D01*
X303875Y11395D01*
X303874Y11386D01*
X303873Y11382D01*
X303872Y11373D01*
X303872Y11369D01*
X303871Y11361D01*
X303871Y11356D01*
X303870Y11348D01*
X303869Y11344D01*
X303868Y11335D01*
X303868Y11331D01*
X303867Y11322D01*
X303866Y11318D01*
X303865Y11310D01*
X303865Y11305D01*
X303864Y11297D01*
X303863Y11293D01*
X303862Y11284D01*
X303862Y11280D01*
X303861Y11276D01*
X303861Y11271D01*
X303860Y11267D01*
X303860Y11263D01*
X303860Y11259D01*
X303859Y11259D01*
X303860Y11259D01*
X303859Y11254D01*
X303859Y11250D01*
X303858Y11242D01*
X303857Y11237D01*
X303856Y11229D01*
X303856Y11225D01*
X303855Y11216D01*
X303854Y11212D01*
X303853Y11203D01*
X303853Y11199D01*
X303852Y11191D01*
X303851Y11186D01*
X303850Y11178D01*
X303850Y11174D01*
X303849Y11165D01*
X303849Y11161D01*
X303848Y11161D01*
X303849Y11161D01*
X303848Y11152D01*
X303847Y11148D01*
X303846Y11140D01*
X303846Y11135D01*
X303845Y11127D01*
X303844Y11123D01*
X303844Y11118D01*
X303843Y11114D01*
X303843Y11110D01*
X303842Y11106D01*
X303841Y11097D01*
X303841Y11093D01*
X303840Y11084D01*
X303839Y11080D01*
X303838Y11072D01*
X303838Y11067D01*
X303837Y11059D01*
X303837Y11055D01*
X303836Y11046D01*
X303835Y11042D01*
X303834Y11033D01*
X303834Y11029D01*
X303833Y11021D01*
X303832Y11016D01*
X303831Y11008D01*
X303831Y11004D01*
X303830Y10995D01*
X303829Y10991D01*
X303828Y10982D01*
X303828Y10978D01*
X303827Y10974D01*
X303827Y10970D01*
X303826Y10965D01*
X303826Y10961D01*
X303826Y10957D01*
X303825Y10957D01*
X303826Y10957D01*
X303825Y10953D01*
X303825Y10948D01*
X303824Y10940D01*
X303823Y10936D01*
X303822Y10927D01*
X303822Y10923D01*
X303821Y10914D01*
X303820Y10910D01*
X303819Y10902D01*
X303819Y10897D01*
X303818Y10889D01*
X303817Y10885D01*
X303816Y10876D01*
X303816Y10872D01*
X303816Y10870D01*
X303816Y8719D01*
X300576Y8719D01*
G37*
%LPD*%
%LPC*%
G36*
X414876Y8719D02*
X414876Y8719D01*
X415044Y9563D01*
X415516Y10703D01*
X415531Y10767D01*
X415556Y10828D01*
X415565Y10911D01*
X415572Y10943D01*
X415571Y10962D01*
X415574Y10994D01*
X415574Y11495D01*
X415852Y12713D01*
X416395Y13839D01*
X417174Y14816D01*
X418151Y15595D01*
X419277Y16138D01*
X420121Y16330D01*
X420121Y13683D01*
X419817Y13577D01*
X419817Y13576D01*
X419816Y13577D01*
X419247Y13219D01*
X419247Y13218D01*
X419247Y13219D01*
X418772Y12743D01*
X418771Y12743D01*
X418414Y12174D01*
X418414Y12173D01*
X418413Y12173D01*
X418191Y11539D01*
X418191Y11538D01*
X418190Y11531D01*
X418190Y11526D01*
X418189Y11518D01*
X418188Y11514D01*
X418187Y11505D01*
X418187Y11501D01*
X418186Y11492D01*
X418185Y11488D01*
X418184Y11480D01*
X418184Y11475D01*
X418183Y11467D01*
X418183Y11463D01*
X418182Y11463D01*
X418183Y11463D01*
X418182Y11454D01*
X418181Y11450D01*
X418180Y11441D01*
X418180Y11437D01*
X418179Y11433D01*
X418179Y11429D01*
X418178Y11424D01*
X418178Y11420D01*
X418177Y11416D01*
X418177Y11412D01*
X418176Y11407D01*
X418175Y11399D01*
X418175Y11395D01*
X418174Y11386D01*
X418173Y11382D01*
X418172Y11373D01*
X418172Y11369D01*
X418171Y11361D01*
X418171Y11356D01*
X418170Y11348D01*
X418169Y11344D01*
X418168Y11335D01*
X418168Y11331D01*
X418167Y11322D01*
X418166Y11318D01*
X418165Y11310D01*
X418165Y11305D01*
X418164Y11297D01*
X418163Y11293D01*
X418162Y11284D01*
X418162Y11280D01*
X418161Y11276D01*
X418161Y11271D01*
X418160Y11267D01*
X418160Y11263D01*
X418160Y11259D01*
X418159Y11259D01*
X418160Y11259D01*
X418159Y11254D01*
X418159Y11250D01*
X418158Y11242D01*
X418157Y11237D01*
X418156Y11229D01*
X418156Y11225D01*
X418155Y11216D01*
X418154Y11212D01*
X418153Y11203D01*
X418153Y11199D01*
X418152Y11191D01*
X418151Y11186D01*
X418150Y11178D01*
X418150Y11174D01*
X418149Y11165D01*
X418149Y11161D01*
X418148Y11161D01*
X418149Y11161D01*
X418148Y11152D01*
X418147Y11148D01*
X418146Y11140D01*
X418146Y11135D01*
X418145Y11127D01*
X418144Y11123D01*
X418144Y11118D01*
X418143Y11114D01*
X418143Y11110D01*
X418142Y11106D01*
X418141Y11097D01*
X418141Y11093D01*
X418140Y11084D01*
X418139Y11080D01*
X418138Y11072D01*
X418138Y11067D01*
X418137Y11059D01*
X418137Y11055D01*
X418136Y11046D01*
X418135Y11042D01*
X418134Y11033D01*
X418134Y11029D01*
X418133Y11021D01*
X418132Y11016D01*
X418131Y11008D01*
X418131Y11004D01*
X418130Y10995D01*
X418129Y10991D01*
X418128Y10982D01*
X418128Y10978D01*
X418127Y10974D01*
X418127Y10970D01*
X418126Y10965D01*
X418126Y10961D01*
X418126Y10957D01*
X418125Y10957D01*
X418126Y10957D01*
X418125Y10953D01*
X418125Y10948D01*
X418124Y10940D01*
X418123Y10936D01*
X418122Y10927D01*
X418122Y10923D01*
X418121Y10914D01*
X418120Y10910D01*
X418119Y10902D01*
X418119Y10897D01*
X418118Y10889D01*
X418117Y10885D01*
X418116Y10876D01*
X418116Y10872D01*
X418116Y10870D01*
X418116Y8719D01*
X414876Y8719D01*
G37*
%LPD*%
%LPC*%
G36*
X309824Y8719D02*
X309824Y8719D01*
X309824Y10870D01*
X309749Y11538D01*
X309749Y11539D01*
X309527Y12173D01*
X309526Y12173D01*
X309527Y12174D01*
X309169Y12743D01*
X309168Y12743D01*
X309169Y12743D01*
X308693Y13219D01*
X308124Y13577D01*
X308123Y13576D01*
X308123Y13577D01*
X307819Y13683D01*
X307819Y16330D01*
X308663Y16138D01*
X309564Y15704D01*
X309789Y15595D01*
X310628Y14926D01*
X310766Y14816D01*
X311545Y13839D01*
X312088Y12713D01*
X312366Y11495D01*
X312366Y10994D01*
X312376Y10930D01*
X312377Y10864D01*
X312400Y10784D01*
X312405Y10752D01*
X312415Y10735D01*
X312424Y10703D01*
X312896Y9563D01*
X313064Y8719D01*
X309824Y8719D01*
G37*
%LPD*%
%LPC*%
G36*
X424124Y8719D02*
X424124Y8719D01*
X424124Y10870D01*
X424049Y11538D01*
X424049Y11539D01*
X423827Y12173D01*
X423826Y12173D01*
X423827Y12174D01*
X423469Y12743D01*
X423468Y12743D01*
X423469Y12743D01*
X422993Y13219D01*
X422424Y13577D01*
X422423Y13576D01*
X422423Y13577D01*
X422119Y13683D01*
X422119Y16330D01*
X422963Y16138D01*
X424056Y15611D01*
X424089Y15595D01*
X425062Y14820D01*
X425066Y14816D01*
X425845Y13839D01*
X426388Y12713D01*
X426666Y11495D01*
X426666Y10994D01*
X426676Y10930D01*
X426677Y10864D01*
X426700Y10784D01*
X426705Y10752D01*
X426715Y10735D01*
X426724Y10703D01*
X427196Y9563D01*
X427364Y8719D01*
X424124Y8719D01*
G37*
%LPD*%
%LPC*%
G36*
X396184Y8719D02*
X396184Y8719D01*
X396184Y10870D01*
X396109Y11538D01*
X396109Y11539D01*
X395887Y12173D01*
X395886Y12173D01*
X395887Y12174D01*
X395529Y12743D01*
X395528Y12743D01*
X395529Y12743D01*
X395053Y13219D01*
X394484Y13577D01*
X394483Y13576D01*
X394483Y13577D01*
X394179Y13683D01*
X394179Y16330D01*
X395023Y16138D01*
X395135Y16084D01*
X396149Y15595D01*
X396507Y15310D01*
X397126Y14816D01*
X397905Y13839D01*
X398448Y12713D01*
X398726Y11495D01*
X398726Y10994D01*
X398736Y10930D01*
X398737Y10864D01*
X398760Y10784D01*
X398765Y10752D01*
X398775Y10735D01*
X398784Y10703D01*
X399256Y9563D01*
X399424Y8719D01*
X396184Y8719D01*
G37*
%LPD*%
%LPC*%
G36*
X510484Y8719D02*
X510484Y8719D01*
X510484Y10870D01*
X510409Y11538D01*
X510409Y11539D01*
X510187Y12173D01*
X510186Y12173D01*
X510187Y12174D01*
X509829Y12743D01*
X509828Y12743D01*
X509829Y12743D01*
X509353Y13219D01*
X508784Y13577D01*
X508783Y13576D01*
X508783Y13577D01*
X508479Y13683D01*
X508479Y16330D01*
X509323Y16138D01*
X510024Y15800D01*
X510449Y15595D01*
X511135Y15048D01*
X511426Y14816D01*
X512205Y13839D01*
X512748Y12713D01*
X513026Y11495D01*
X513026Y10994D01*
X513036Y10930D01*
X513037Y10864D01*
X513060Y10784D01*
X513065Y10752D01*
X513075Y10735D01*
X513084Y10703D01*
X513556Y9563D01*
X513724Y8719D01*
X510484Y8719D01*
G37*
%LPD*%
%LPC*%
G36*
X159499Y69149D02*
X159499Y69149D01*
X159499Y69151D01*
X159501Y69151D01*
X159501Y69149D01*
X159499Y69149D01*
G37*
%LPD*%
%LPC*%
G36*
X29999Y469999D02*
X29999Y469999D01*
X29999Y470001D01*
X30001Y470001D01*
X30001Y469999D01*
X29999Y469999D01*
G37*
%LPD*%
%LPC*%
G36*
X616699Y171699D02*
X616699Y171699D01*
X616699Y171701D01*
X616701Y171701D01*
X616701Y171699D01*
X616699Y171699D01*
G37*
%LPD*%
%LPC*%
G36*
X147487Y507393D02*
X147487Y507393D01*
X147487Y507395D01*
X147489Y507395D01*
X147489Y507393D01*
X147487Y507393D01*
G37*
%LPD*%
%LPC*%
G36*
X634999Y952199D02*
X634999Y952199D01*
X634999Y952201D01*
X635001Y952201D01*
X635001Y952199D01*
X634999Y952199D01*
G37*
%LPD*%
%LPC*%
G36*
X540499Y237899D02*
X540499Y237899D01*
X540499Y237901D01*
X540501Y237901D01*
X540501Y237899D01*
X540499Y237899D01*
G37*
%LPD*%
%LPC*%
G36*
X619999Y379999D02*
X619999Y379999D01*
X619999Y380001D01*
X620001Y380001D01*
X620001Y379999D01*
X619999Y379999D01*
G37*
%LPD*%
%LPC*%
G36*
X487487Y507393D02*
X487487Y507393D01*
X487487Y507395D01*
X487489Y507395D01*
X487489Y507393D01*
X487487Y507393D01*
G37*
%LPD*%
D10*
X306820Y7720D03*
X393180Y7720D03*
X393180Y49520D03*
X306820Y49520D03*
D11*
X210300Y1025300D03*
X210300Y999900D03*
D10*
X421120Y7720D03*
X507480Y7720D03*
X507480Y49520D03*
X421120Y49520D03*
D11*
X159500Y69150D03*
X134100Y69150D03*
X108700Y69150D03*
X83300Y69150D03*
X616700Y171700D03*
X591300Y171700D03*
X565900Y171700D03*
X540500Y171700D03*
X540500Y237900D03*
X540500Y263300D03*
X540500Y288700D03*
X540500Y314100D03*
X32500Y339500D03*
X32500Y314100D03*
X394450Y76450D03*
X419850Y76450D03*
X159500Y1083720D03*
X184900Y1083720D03*
X635000Y977600D03*
X635000Y952200D03*
X30000Y470000D03*
X55400Y470000D03*
X80800Y470000D03*
X106200Y470000D03*
X487488Y552606D03*
X552512Y552606D03*
X487488Y507394D03*
X552512Y507394D03*
X147488Y552606D03*
X212512Y552606D03*
X147488Y507394D03*
X212512Y507394D03*
X170000Y290000D03*
X170000Y264600D03*
X170000Y239200D03*
X170000Y213800D03*
X170000Y188400D03*
X620000Y380000D03*
X620000Y405400D03*
X620000Y430800D03*
X620000Y456200D03*
D12*
X197600Y763680D03*
D13*
X198870Y762410D02*
X527800Y762410D01*
X198870Y762410D02*
X197600Y763680D01*
X527800Y762410D02*
X530340Y764950D01*
D12*
X530340Y764950D03*
X559550Y28190D03*
X349932Y402932D03*
X305050Y611500D03*
X540700Y387350D03*
D13*
X365514Y387350D01*
X349932Y402932D01*
D12*
X431280Y65340D03*
X577330Y27240D03*
X140450Y27240D03*
X310000Y140000D03*
X338570Y120900D03*
X377940Y84390D03*
X315710Y67880D03*
X120000Y940000D03*
X220000Y940000D03*
X287770Y280320D03*
X309360Y280320D03*
X330950Y280320D03*
X351270Y280320D03*
X372860Y280320D03*
X393180Y280320D03*
X414770Y280320D03*
X435090Y280320D03*
X266180Y280320D03*
X286500Y300640D03*
X308090Y300640D03*
X329680Y300640D03*
X350000Y300640D03*
X371590Y300640D03*
X391910Y300640D03*
X413500Y300640D03*
X433820Y300640D03*
X264910Y300640D03*
X286500Y320960D03*
X308090Y320960D03*
X329680Y320960D03*
X350000Y320960D03*
X371590Y320960D03*
X391910Y320960D03*
X413500Y320960D03*
X433820Y320960D03*
X264910Y320960D03*
X287770Y219360D03*
X308000Y218000D03*
X330000Y220000D03*
X350000Y220000D03*
X370000Y220000D03*
X393180Y219360D03*
X414770Y219360D03*
X435090Y219360D03*
X266180Y219360D03*
X286500Y239680D03*
X308000Y239000D03*
X330000Y240000D03*
X350000Y240000D03*
X370000Y240000D03*
X391910Y239680D03*
X413500Y239680D03*
X433820Y239680D03*
X264910Y239680D03*
X286500Y260000D03*
X308090Y260000D03*
X330000Y260000D03*
X350000Y260000D03*
X370000Y260000D03*
X391910Y260000D03*
X413500Y260000D03*
X433820Y260000D03*
X264910Y260000D03*
X286500Y199040D03*
X308090Y199040D03*
X329680Y199040D03*
X350000Y199040D03*
X371590Y199040D03*
X391910Y199040D03*
X413500Y199040D03*
X433820Y199040D03*
X264910Y199040D03*
X270000Y170000D03*
X390000Y170000D03*
X360000Y170000D03*
X380000Y170000D03*
X400000Y170000D03*
X420000Y170000D03*
X260000Y170000D03*
X240000Y350000D03*
X258560Y350170D03*
X280000Y350000D03*
X320000Y350000D03*
X380000Y350000D03*
X400000Y350000D03*
X420000Y350000D03*
X440000Y350000D03*
X460000Y350000D03*
X470000Y330000D03*
X466840Y261270D03*
X470000Y230000D03*
X470000Y220000D03*
X470000Y200000D03*
X470000Y180000D03*
X470000Y340000D03*
X435000Y180000D03*
X460000Y170000D03*
X440000Y170000D03*
X280000Y170000D03*
X282150Y153130D03*
X274530Y146240D03*
X267500Y138600D03*
X257600Y132000D03*
X245860Y146140D03*
X238240Y137250D03*
X248400Y116820D03*
X225540Y78040D03*
X215380Y82800D03*
X261100Y84070D03*
X201410Y81530D03*
X183630Y75500D03*
X247130Y75500D03*
X181090Y61530D03*
X181090Y47560D03*
X181090Y33590D03*
X181090Y5650D03*
X181090Y19620D03*
X258560Y123440D03*
X267450Y128600D03*
X240000Y170000D03*
X231000Y185000D03*
X250000Y180000D03*
X228080Y128360D03*
X279340Y131220D03*
X285230Y141380D03*
X294120Y146970D03*
X275610Y116820D03*
X276340Y75500D03*
X290310Y74230D03*
X289040Y61530D03*
X289040Y46290D03*
X289040Y34860D03*
X289040Y19620D03*
X289040Y5650D03*
X300470Y172370D03*
X265000Y180000D03*
X263640Y337470D03*
X250940Y337470D03*
X435090Y337470D03*
X450330Y338740D03*
X450000Y180000D03*
X226810Y94230D03*
X247130Y94230D03*
X311900Y949100D03*
X311900Y961800D03*
X388100Y961800D03*
X388100Y949100D03*
X375400Y898300D03*
X362700Y898300D03*
X350000Y898300D03*
X337300Y898300D03*
X324600Y898300D03*
X311900Y898300D03*
X311900Y974500D03*
X324600Y974500D03*
X337300Y974500D03*
X350000Y974500D03*
X362700Y974500D03*
X375400Y974500D03*
X388100Y974500D03*
X388100Y898300D03*
X337300Y961800D03*
X337300Y949100D03*
X350000Y949100D03*
X350000Y961800D03*
X362700Y961800D03*
X362700Y949100D03*
X593840Y27240D03*
X497320Y67880D03*
X249670Y1012600D03*
X449060Y1012600D03*
X405880Y1012600D03*
X283960Y1012600D03*
X407150Y848770D03*
X407150Y818290D03*
X144260Y1064670D03*
D13*
X132830Y1053240D01*
X132830Y1003710D01*
D12*
X470000Y210000D03*
X511290Y82800D03*
X464300Y122330D03*
X527000Y639000D03*
X579000Y631000D03*
X590000Y704031D03*
X575000Y740031D03*
X492000Y981031D03*
X320000Y490000D03*
X366000Y489000D03*
X371000Y439000D03*
X441000Y459000D03*
X441000Y439000D03*
X581000Y771031D03*
X493000Y942031D03*
X191000Y1004000D03*
X134000Y1006000D03*
X154000Y988000D03*
X320000Y400000D03*
X340000Y400000D03*
X365000Y400000D03*
X287000Y429000D03*
X300000Y490000D03*
X292000Y551000D03*
X271000Y453000D03*
X217000Y420000D03*
X33000Y431000D03*
X568000Y459000D03*
X397000Y460000D03*
X192000Y294000D03*
X180000Y440000D03*
X180000Y600000D03*
X180000Y910000D03*
X290000Y990000D03*
X460000Y600000D03*
D14*
X318000Y600000D01*
D12*
X318000Y600000D03*
D15*
X192000Y989000D03*
D14*
X233434Y991195D02*
X238566Y991195D01*
X239761Y990000D01*
X290000Y990000D01*
X192613Y989613D02*
X192000Y989000D01*
X192613Y989613D02*
X231852Y989613D01*
X233434Y991195D01*
X180000Y600000D02*
X318000Y600000D01*
D12*
X192000Y306000D03*
X190000Y432000D03*
X190000Y540000D03*
X190000Y910000D03*
X290000Y950000D03*
D14*
X210000Y950000D01*
D12*
X210000Y950000D03*
X490000Y580000D03*
D14*
X311000Y580000D01*
D12*
X311000Y580000D03*
X333490Y349662D03*
X334000Y450000D03*
X135000Y635000D03*
D14*
X329880Y635000D01*
X331150Y633730D01*
D12*
X331150Y633730D03*
X350000Y145700D03*
X280000Y400000D03*
X324600Y145700D03*
X300000Y400000D03*
X118000Y377600D03*
X519270Y378410D03*
D14*
X518460Y377600D01*
X118000Y377600D01*
D12*
X134000Y367000D03*
X528341Y367440D03*
D14*
X134440Y367440D01*
X134000Y367000D01*
D12*
X581775Y370000D03*
X550000Y570000D03*
D14*
X160000Y570000D01*
D12*
X160000Y570000D03*
X170000Y960000D03*
X268000Y498000D03*
X150000Y880000D03*
X244130Y848770D03*
D14*
X180849Y849151D02*
X150000Y880000D01*
X180849Y849151D02*
X243749Y849151D01*
X244130Y848770D01*
D12*
X130000Y920000D03*
X500000Y960000D03*
D14*
X253413Y934791D02*
X248468Y934791D01*
X253413Y934791D02*
X257096Y931108D01*
X248468Y934791D02*
X233677Y920000D01*
X257096Y931108D02*
X495108Y931108D01*
X500000Y936000D02*
X500000Y960000D01*
X500000Y936000D02*
X495108Y931108D01*
D12*
X447000Y988000D03*
D14*
X233677Y920000D02*
X130000Y920000D01*
D12*
X210000Y742000D03*
D14*
X457000Y742000D01*
D12*
X457000Y742000D03*
X210000Y410000D03*
X120000Y720000D03*
D14*
X470000Y720000D01*
D12*
X470000Y720000D03*
D14*
X620000Y430800D02*
X293642Y430800D01*
X289473Y434969D01*
X192473Y426031D02*
X159000Y426031D01*
X201411Y434969D02*
X289473Y434969D01*
X201411Y434969D02*
X192473Y426031D01*
D12*
X159000Y426031D03*
X409690Y899570D03*
D14*
X512560Y899570D01*
D12*
X512560Y899570D03*
X495161Y310979D03*
X250940Y912270D03*
X508978Y297080D03*
D14*
X413500Y912270D02*
X414546Y913316D01*
D12*
X414546Y913316D03*
D14*
X413500Y912270D02*
X250940Y912270D01*
D12*
X423279Y660400D03*
X640000Y660000D03*
X610000Y975000D03*
X515300Y974090D03*
D14*
X609090Y974090D01*
X610000Y975000D01*
D12*
X409690Y800510D03*
D14*
X210300Y800510D01*
D12*
X210300Y800510D03*
X477200Y171450D03*
X412611Y792128D03*
D14*
X409182Y792128D01*
X404356Y796954D01*
X216904Y796954D02*
X209030Y789080D01*
D12*
X209030Y789080D03*
D14*
X216904Y796954D02*
X404356Y796954D01*
D12*
X477200Y161290D03*
X440170Y73910D03*
X488430Y73910D03*
X465570Y75180D03*
X250940Y928822D03*
X517640Y296320D03*
X414770Y923700D03*
D14*
X256062Y923700D01*
X250940Y928822D01*
D12*
X640000Y710000D03*
D14*
X426905Y710000D02*
X426835Y709930D01*
D12*
X426835Y709930D03*
D14*
X426905Y710000D02*
X640000Y710000D01*
D12*
X249670Y1001170D03*
X505321Y305278D03*
D14*
X403340Y1001170D02*
X249670Y1001170D01*
X403340Y1001170D02*
X404610Y999900D01*
D12*
X404610Y999900D03*
X419723Y698500D03*
X170000Y750000D03*
D14*
X445000Y750000D01*
D12*
X445000Y750000D03*
X447000Y950000D03*
D15*
X325870Y67560D03*
X375400Y67560D03*
D12*
X447790Y912270D03*
X461000Y416000D03*
X447790Y924970D03*
X470000Y420000D03*
X560000Y580000D03*
X581904Y530000D03*
D14*
X340000Y530000D01*
X330000Y540000D01*
D12*
X330000Y540000D03*
X400673Y886000D03*
X396000Y779000D03*
X283000Y780000D03*
D14*
X395000Y780000D01*
X396000Y779000D01*
D12*
X382000Y789000D03*
X293000Y789000D03*
D14*
X382000Y789000D01*
D12*
X446720Y962660D03*
X441640Y537210D03*
X342058Y537000D03*
D14*
X441430Y537000D01*
X441640Y537210D01*
D12*
X290000Y874000D03*
X159700Y330200D03*
X147000Y660400D03*
X356350Y660400D03*
D14*
X147000Y660400D01*
D12*
X121600Y317500D03*
X295400Y529000D03*
X129031Y522000D03*
D14*
X218588Y529000D02*
X295400Y529000D01*
X131062Y524031D02*
X129031Y522000D01*
X213619Y524031D02*
X218588Y529000D01*
X213619Y524031D02*
X131062Y524031D01*
D12*
X193000Y206000D03*
X340400Y550000D03*
X200000Y530000D03*
D14*
X305400Y550000D02*
X340400Y550000D01*
X305400Y550000D02*
X288369Y532969D01*
X217528Y532969D01*
X214559Y530000D02*
X200000Y530000D01*
X214559Y530000D02*
X217528Y532969D01*
D12*
X250000Y520000D03*
X250000Y886000D03*
X470000Y650000D03*
D14*
X310000Y650000D01*
X308279Y648279D01*
D12*
X308279Y648279D03*
X395000Y819000D03*
X388000Y401000D03*
X600632Y661908D03*
X610390Y703580D03*
X560000Y620000D03*
X560000Y691000D03*
X520000Y680000D03*
X485060Y637810D03*
X485060Y604790D03*
X441000Y448000D03*
X380000Y490000D03*
X479667Y395746D03*
D14*
X608200Y468000D02*
X620000Y456200D01*
X608200Y468000D02*
X486000Y468000D01*
D12*
X486000Y468000D03*
X465570Y150780D03*
X407455Y104245D03*
X337500Y149100D03*
X487360Y106785D03*
D13*
X419850Y91850D02*
X407455Y104245D01*
X419850Y91850D02*
X419850Y76450D01*
D15*
X604000Y448920D03*
D13*
X470080Y448920D01*
X470000Y449000D01*
D15*
X470000Y449000D03*
D16*
X236000Y985000D03*
D12*
X460673Y476000D03*
X121600Y457200D03*
D13*
X140400Y476000D01*
X236000Y476000D01*
X399000Y476000D01*
X460673Y476000D01*
D12*
X236000Y616000D03*
X236000Y476000D03*
M02*
