G04 EAGLE Gerber RS-274X export*
G75*
%MOMM*%
%FSLAX34Y34*%
%LPD*%
%INTop Copper*%
%IPPOS*%
%AMOC8*
5,1,8,0,0,1.08239X$1,22.5*%
G01*
%ADD10C,0.203200*%
%ADD11C,0.635000*%
%ADD12R,1.200000X2.000000*%
%ADD13R,0.600000X1.350000*%
%ADD14R,1.100000X1.000000*%
%ADD15R,4.200000X1.700000*%
%ADD16R,1.000000X1.000000*%
%ADD17C,0.300000*%
%ADD18R,0.630000X0.830000*%
%ADD19R,1.000000X1.100000*%
%ADD20R,1.200000X0.550000*%
%ADD21R,0.850000X0.900000*%
%ADD22R,0.600000X0.600000*%
%ADD23R,0.850000X1.520000*%
%ADD24R,1.520000X0.850000*%
%ADD25R,1.100000X1.100000*%
%ADD26R,0.300000X1.000000*%
%ADD27R,0.600000X1.000000*%
%ADD28C,0.704800*%
%ADD29R,0.250000X0.610000*%
%ADD30R,0.250000X0.560000*%
%ADD31R,1.150000X7.000000*%
%ADD32R,0.900000X2.200000*%
%ADD33R,0.550000X0.800000*%
%ADD34R,0.550000X0.500000*%
%ADD35R,1.000000X4.600000*%
%ADD36R,1.600000X3.400000*%
%ADD37C,0.450000*%
%ADD38C,0.254000*%
%ADD39R,0.558800X1.270000*%
%ADD40R,1.270000X0.558800*%
%ADD41C,1.879600*%
%ADD42R,0.550000X1.200000*%
%ADD43R,4.600000X1.000000*%
%ADD44R,3.400000X1.600000*%
%ADD45R,0.635000X1.270000*%
%ADD46R,1.150000X0.700000*%
%ADD47R,0.700000X1.150000*%
%ADD48R,0.700000X0.700000*%
%ADD49R,0.700000X1.300000*%

G36*
X453156Y659642D02*
X453156Y659642D01*
X453175Y659640D01*
X453277Y659662D01*
X453379Y659679D01*
X453396Y659688D01*
X453416Y659692D01*
X453505Y659745D01*
X453596Y659794D01*
X453610Y659808D01*
X453627Y659818D01*
X453694Y659897D01*
X453766Y659972D01*
X453774Y659990D01*
X453787Y660005D01*
X453826Y660101D01*
X453869Y660195D01*
X453871Y660215D01*
X453879Y660233D01*
X453897Y660400D01*
X453897Y661768D01*
X455832Y663703D01*
X609600Y663703D01*
X609620Y663706D01*
X609639Y663704D01*
X609741Y663726D01*
X609843Y663742D01*
X609860Y663752D01*
X609880Y663756D01*
X609969Y663809D01*
X610060Y663858D01*
X610074Y663872D01*
X610091Y663882D01*
X610158Y663961D01*
X610230Y664036D01*
X610238Y664054D01*
X610251Y664069D01*
X610290Y664165D01*
X610333Y664259D01*
X610335Y664279D01*
X610343Y664297D01*
X610361Y664464D01*
X610361Y981600D01*
X610358Y981620D01*
X610360Y981639D01*
X610338Y981741D01*
X610322Y981843D01*
X610312Y981860D01*
X610308Y981880D01*
X610255Y981969D01*
X610206Y982060D01*
X610192Y982074D01*
X610182Y982091D01*
X610103Y982158D01*
X610028Y982230D01*
X610010Y982238D01*
X609995Y982251D01*
X609899Y982290D01*
X609805Y982333D01*
X609785Y982335D01*
X609767Y982343D01*
X609600Y982361D01*
X101600Y982361D01*
X101580Y982358D01*
X101561Y982360D01*
X101459Y982338D01*
X101357Y982322D01*
X101340Y982312D01*
X101320Y982308D01*
X101231Y982255D01*
X101140Y982206D01*
X101126Y982192D01*
X101109Y982182D01*
X101042Y982103D01*
X100971Y982028D01*
X100962Y982010D01*
X100949Y981995D01*
X100910Y981899D01*
X100867Y981805D01*
X100865Y981785D01*
X100857Y981767D01*
X100839Y981600D01*
X100839Y664464D01*
X100842Y664444D01*
X100840Y664425D01*
X100862Y664323D01*
X100879Y664221D01*
X100888Y664204D01*
X100892Y664184D01*
X100945Y664095D01*
X100994Y664004D01*
X101008Y663990D01*
X101018Y663973D01*
X101097Y663906D01*
X101172Y663834D01*
X101190Y663826D01*
X101205Y663813D01*
X101301Y663774D01*
X101395Y663731D01*
X101415Y663729D01*
X101433Y663721D01*
X101600Y663703D01*
X255368Y663703D01*
X257303Y661768D01*
X257303Y660400D01*
X257306Y660380D01*
X257304Y660361D01*
X257326Y660259D01*
X257342Y660157D01*
X257352Y660140D01*
X257356Y660120D01*
X257409Y660031D01*
X257458Y659940D01*
X257472Y659926D01*
X257482Y659909D01*
X257561Y659842D01*
X257636Y659771D01*
X257654Y659762D01*
X257669Y659749D01*
X257765Y659710D01*
X257859Y659667D01*
X257879Y659665D01*
X257897Y659657D01*
X258064Y659639D01*
X453136Y659639D01*
X453156Y659642D01*
G37*
%LPC*%
G36*
X342838Y829578D02*
X342838Y829578D01*
X342803Y829592D01*
X342717Y829598D01*
X342632Y829611D01*
X342595Y829605D01*
X342557Y829607D01*
X342401Y829574D01*
X341513Y830018D01*
X341482Y830028D01*
X341413Y830059D01*
X340470Y830374D01*
X340453Y830397D01*
X340439Y830432D01*
X340381Y830496D01*
X340331Y830566D01*
X340301Y830588D01*
X340276Y830616D01*
X340142Y830703D01*
X339827Y831645D01*
X339812Y831674D01*
X339786Y831745D01*
X335783Y839750D01*
X336582Y842146D01*
X338841Y843276D01*
X341237Y842477D01*
X341953Y841045D01*
X341964Y841031D01*
X341970Y841014D01*
X342036Y840931D01*
X342097Y840846D01*
X342112Y840835D01*
X342123Y840821D01*
X342212Y840764D01*
X342297Y840703D01*
X342314Y840697D01*
X342329Y840688D01*
X342432Y840662D01*
X342533Y840631D01*
X342550Y840631D01*
X342568Y840627D01*
X342673Y840635D01*
X342779Y840638D01*
X342795Y840644D01*
X342813Y840645D01*
X342910Y840687D01*
X343009Y840723D01*
X343023Y840734D01*
X343040Y840741D01*
X343119Y840811D01*
X343201Y840877D01*
X343211Y840892D01*
X343224Y840904D01*
X343315Y841045D01*
X344031Y842477D01*
X346427Y843276D01*
X348151Y842414D01*
X348171Y842407D01*
X348189Y842396D01*
X348265Y842377D01*
X348314Y842357D01*
X348343Y842354D01*
X348386Y842341D01*
X348407Y842341D01*
X348427Y842336D01*
X348473Y842340D01*
X348481Y842339D01*
X348497Y842339D01*
X348528Y842344D01*
X348529Y842344D01*
X348632Y842346D01*
X348652Y842354D01*
X348672Y842355D01*
X348720Y842375D01*
X348740Y842379D01*
X348781Y842400D01*
X348863Y842430D01*
X348879Y842443D01*
X348899Y842451D01*
X348940Y842485D01*
X348957Y842494D01*
X348975Y842512D01*
X349030Y842556D01*
X351056Y844583D01*
X353065Y846592D01*
X355591Y846592D01*
X357377Y844806D01*
X357377Y836676D01*
X357380Y836656D01*
X357378Y836637D01*
X357400Y836535D01*
X357417Y836433D01*
X357426Y836416D01*
X357430Y836396D01*
X357483Y836307D01*
X357532Y836216D01*
X357546Y836202D01*
X357556Y836185D01*
X357635Y836118D01*
X357710Y836046D01*
X357728Y836038D01*
X357743Y836025D01*
X357839Y835986D01*
X357933Y835943D01*
X357953Y835941D01*
X357971Y835933D01*
X358138Y835915D01*
X358653Y835915D01*
X358673Y835918D01*
X358692Y835916D01*
X358794Y835938D01*
X358896Y835954D01*
X358913Y835964D01*
X358933Y835968D01*
X359022Y836021D01*
X359113Y836070D01*
X359127Y836084D01*
X359144Y836094D01*
X359211Y836173D01*
X359282Y836248D01*
X359291Y836266D01*
X359304Y836281D01*
X359343Y836377D01*
X359386Y836471D01*
X359388Y836491D01*
X359396Y836509D01*
X359414Y836676D01*
X359414Y843026D01*
X360971Y844583D01*
X362214Y845826D01*
X362214Y845827D01*
X362980Y846592D01*
X369064Y846592D01*
X369859Y845797D01*
X371073Y844583D01*
X372630Y843026D01*
X372630Y833383D01*
X369064Y829817D01*
X362980Y829817D01*
X361603Y831194D01*
X361587Y831205D01*
X361574Y831221D01*
X361487Y831277D01*
X361403Y831337D01*
X361384Y831343D01*
X361368Y831354D01*
X361267Y831379D01*
X361168Y831410D01*
X361148Y831409D01*
X361129Y831414D01*
X361026Y831406D01*
X360922Y831403D01*
X360904Y831397D01*
X360884Y831395D01*
X360789Y831355D01*
X360691Y831319D01*
X360676Y831306D01*
X360657Y831299D01*
X360526Y831194D01*
X359150Y829817D01*
X349506Y829817D01*
X347720Y831603D01*
X347720Y832997D01*
X347709Y833066D01*
X347707Y833137D01*
X347689Y833187D01*
X347681Y833239D01*
X347648Y833302D01*
X347623Y833368D01*
X347590Y833410D01*
X347565Y833457D01*
X347514Y833505D01*
X347470Y833561D01*
X347426Y833590D01*
X347387Y833626D01*
X347323Y833656D01*
X347264Y833694D01*
X347212Y833707D01*
X347164Y833730D01*
X347094Y833737D01*
X347025Y833755D01*
X346972Y833751D01*
X346920Y833757D01*
X346850Y833742D01*
X346780Y833736D01*
X346731Y833716D01*
X346679Y833705D01*
X346619Y833668D01*
X346553Y833641D01*
X346514Y833606D01*
X346468Y833578D01*
X346422Y833525D01*
X346369Y833478D01*
X346329Y833416D01*
X346308Y833391D01*
X346300Y833370D01*
X346278Y833337D01*
X345482Y831745D01*
X345472Y831714D01*
X345441Y831645D01*
X345126Y830702D01*
X345103Y830685D01*
X345068Y830670D01*
X345004Y830613D01*
X344934Y830563D01*
X344912Y830532D01*
X344884Y830508D01*
X344797Y830373D01*
X343855Y830059D01*
X343826Y830044D01*
X343755Y830018D01*
X342866Y829574D01*
X342838Y829578D01*
G37*
%LPD*%
G36*
X352842Y442863D02*
X352842Y442863D01*
X352886Y442866D01*
X352908Y442882D01*
X352934Y442890D01*
X352963Y442923D01*
X352998Y442949D01*
X353008Y442975D01*
X353026Y442995D01*
X353033Y443039D01*
X353048Y443079D01*
X353043Y443106D01*
X353047Y443133D01*
X353029Y443174D01*
X353020Y443216D01*
X352994Y443252D01*
X352990Y443261D01*
X352985Y443265D01*
X352976Y443276D01*
X328976Y467276D01*
X328938Y467297D01*
X328905Y467326D01*
X328878Y467330D01*
X328854Y467343D01*
X328810Y467340D01*
X328767Y467347D01*
X328742Y467336D01*
X328714Y467334D01*
X328679Y467308D01*
X328639Y467290D01*
X328624Y467267D01*
X328602Y467251D01*
X328586Y467210D01*
X328562Y467174D01*
X328555Y467130D01*
X328552Y467121D01*
X328553Y467114D01*
X328551Y467100D01*
X328551Y443100D01*
X328556Y443084D01*
X328553Y443067D01*
X328575Y443017D01*
X328590Y442966D01*
X328603Y442955D01*
X328610Y442939D01*
X328655Y442909D01*
X328695Y442874D01*
X328712Y442871D01*
X328727Y442862D01*
X328800Y442851D01*
X352800Y442851D01*
X352842Y442863D01*
G37*
G36*
X399898Y43926D02*
X399898Y43926D01*
X399904Y43932D01*
X399909Y43929D01*
X400966Y44299D01*
X400970Y44306D01*
X400976Y44303D01*
X401924Y44899D01*
X401927Y44907D01*
X401932Y44906D01*
X402724Y45698D01*
X402725Y45706D01*
X402731Y45706D01*
X403327Y46654D01*
X403326Y46663D01*
X403331Y46664D01*
X403701Y47721D01*
X403700Y47725D01*
X403702Y47727D01*
X403700Y47730D01*
X403704Y47732D01*
X403829Y48845D01*
X403827Y48848D01*
X403829Y48850D01*
X403829Y59850D01*
X403827Y59853D01*
X403829Y59856D01*
X403704Y60968D01*
X403698Y60974D01*
X403701Y60979D01*
X403331Y62036D01*
X403325Y62040D01*
X403327Y62046D01*
X402731Y62994D01*
X402723Y62997D01*
X402724Y63002D01*
X401932Y63794D01*
X401924Y63795D01*
X401924Y63801D01*
X400976Y64397D01*
X400967Y64396D01*
X400966Y64401D01*
X399909Y64771D01*
X399901Y64769D01*
X399898Y64774D01*
X398786Y64899D01*
X398778Y64895D01*
X398775Y64899D01*
X397662Y64774D01*
X397656Y64768D01*
X397651Y64771D01*
X396594Y64401D01*
X396590Y64395D01*
X396584Y64397D01*
X395636Y63801D01*
X395633Y63793D01*
X395628Y63794D01*
X394836Y63002D01*
X394835Y62994D01*
X394829Y62994D01*
X394233Y62046D01*
X394234Y62039D01*
X394230Y62037D01*
X394230Y62036D01*
X394229Y62036D01*
X393859Y60979D01*
X393861Y60971D01*
X393856Y60968D01*
X393731Y59856D01*
X393733Y59852D01*
X393731Y59850D01*
X393731Y48850D01*
X393733Y48847D01*
X393731Y48845D01*
X393856Y47732D01*
X393862Y47726D01*
X393859Y47721D01*
X394229Y46664D01*
X394236Y46660D01*
X394233Y46654D01*
X394829Y45706D01*
X394837Y45703D01*
X394836Y45698D01*
X395628Y44906D01*
X395636Y44905D01*
X395636Y44899D01*
X396584Y44303D01*
X396593Y44304D01*
X396594Y44299D01*
X397651Y43929D01*
X397659Y43931D01*
X397662Y43926D01*
X398775Y43801D01*
X398782Y43805D01*
X398786Y43801D01*
X399898Y43926D01*
G37*
G36*
X313538Y43926D02*
X313538Y43926D01*
X313544Y43932D01*
X313549Y43929D01*
X314606Y44299D01*
X314610Y44306D01*
X314616Y44303D01*
X315564Y44899D01*
X315567Y44907D01*
X315572Y44906D01*
X316364Y45698D01*
X316365Y45706D01*
X316371Y45706D01*
X316967Y46654D01*
X316966Y46663D01*
X316971Y46664D01*
X317341Y47721D01*
X317340Y47725D01*
X317342Y47727D01*
X317340Y47730D01*
X317344Y47732D01*
X317469Y48845D01*
X317467Y48848D01*
X317469Y48850D01*
X317469Y59850D01*
X317467Y59853D01*
X317469Y59856D01*
X317344Y60968D01*
X317338Y60974D01*
X317341Y60979D01*
X316971Y62036D01*
X316965Y62040D01*
X316967Y62046D01*
X316371Y62994D01*
X316363Y62997D01*
X316364Y63002D01*
X315572Y63794D01*
X315564Y63795D01*
X315564Y63801D01*
X314616Y64397D01*
X314607Y64396D01*
X314606Y64401D01*
X313549Y64771D01*
X313541Y64769D01*
X313538Y64774D01*
X312426Y64899D01*
X312418Y64895D01*
X312415Y64899D01*
X311302Y64774D01*
X311296Y64768D01*
X311291Y64771D01*
X310234Y64401D01*
X310230Y64395D01*
X310224Y64397D01*
X309276Y63801D01*
X309273Y63793D01*
X309268Y63794D01*
X308476Y63002D01*
X308475Y62994D01*
X308469Y62994D01*
X307873Y62046D01*
X307874Y62039D01*
X307870Y62037D01*
X307870Y62036D01*
X307869Y62036D01*
X307499Y60979D01*
X307501Y60971D01*
X307496Y60968D01*
X307371Y59856D01*
X307373Y59852D01*
X307371Y59850D01*
X307371Y48850D01*
X307373Y48847D01*
X307371Y48845D01*
X307496Y47732D01*
X307502Y47726D01*
X307499Y47721D01*
X307869Y46664D01*
X307876Y46660D01*
X307873Y46654D01*
X308469Y45706D01*
X308477Y45703D01*
X308476Y45698D01*
X309268Y44906D01*
X309276Y44905D01*
X309276Y44899D01*
X310224Y44303D01*
X310233Y44304D01*
X310234Y44299D01*
X311291Y43929D01*
X311299Y43931D01*
X311302Y43926D01*
X312415Y43801D01*
X312422Y43805D01*
X312426Y43801D01*
X313538Y43926D01*
G37*
G36*
X313538Y4626D02*
X313538Y4626D01*
X313544Y4632D01*
X313549Y4629D01*
X314606Y4999D01*
X314610Y5006D01*
X314616Y5003D01*
X315564Y5599D01*
X315567Y5607D01*
X315572Y5606D01*
X316364Y6398D01*
X316365Y6406D01*
X316371Y6406D01*
X316967Y7354D01*
X316966Y7363D01*
X316971Y7364D01*
X317341Y8421D01*
X317340Y8425D01*
X317342Y8427D01*
X317340Y8430D01*
X317344Y8432D01*
X317469Y9545D01*
X317467Y9548D01*
X317469Y9550D01*
X317469Y15550D01*
X317467Y15553D01*
X317469Y15556D01*
X317344Y16668D01*
X317338Y16674D01*
X317341Y16679D01*
X316971Y17736D01*
X316965Y17740D01*
X316967Y17746D01*
X316371Y18694D01*
X316363Y18697D01*
X316364Y18702D01*
X315572Y19494D01*
X315564Y19495D01*
X315564Y19501D01*
X314616Y20097D01*
X314607Y20096D01*
X314606Y20101D01*
X313549Y20471D01*
X313541Y20469D01*
X313538Y20474D01*
X312426Y20599D01*
X312418Y20595D01*
X312415Y20599D01*
X311302Y20474D01*
X311296Y20468D01*
X311291Y20471D01*
X310234Y20101D01*
X310230Y20095D01*
X310224Y20097D01*
X309276Y19501D01*
X309273Y19493D01*
X309268Y19494D01*
X308476Y18702D01*
X308475Y18694D01*
X308469Y18694D01*
X307873Y17746D01*
X307874Y17737D01*
X307869Y17736D01*
X307499Y16679D01*
X307501Y16671D01*
X307496Y16668D01*
X307371Y15556D01*
X307373Y15552D01*
X307371Y15550D01*
X307371Y9550D01*
X307373Y9547D01*
X307371Y9545D01*
X307496Y8432D01*
X307502Y8426D01*
X307499Y8421D01*
X307869Y7364D01*
X307876Y7360D01*
X307873Y7354D01*
X308469Y6406D01*
X308477Y6403D01*
X308476Y6398D01*
X309268Y5606D01*
X309276Y5605D01*
X309276Y5599D01*
X310224Y5003D01*
X310233Y5004D01*
X310234Y4999D01*
X311291Y4629D01*
X311299Y4631D01*
X311302Y4626D01*
X312415Y4501D01*
X312422Y4505D01*
X312426Y4501D01*
X313538Y4626D01*
G37*
G36*
X399898Y4626D02*
X399898Y4626D01*
X399904Y4632D01*
X399909Y4629D01*
X400966Y4999D01*
X400970Y5006D01*
X400976Y5003D01*
X401924Y5599D01*
X401927Y5607D01*
X401932Y5606D01*
X402724Y6398D01*
X402725Y6406D01*
X402731Y6406D01*
X403327Y7354D01*
X403326Y7363D01*
X403331Y7364D01*
X403701Y8421D01*
X403700Y8425D01*
X403702Y8427D01*
X403700Y8430D01*
X403704Y8432D01*
X403829Y9545D01*
X403827Y9548D01*
X403829Y9550D01*
X403829Y15550D01*
X403827Y15553D01*
X403829Y15556D01*
X403704Y16668D01*
X403698Y16674D01*
X403701Y16679D01*
X403331Y17736D01*
X403325Y17740D01*
X403327Y17746D01*
X402731Y18694D01*
X402723Y18697D01*
X402724Y18702D01*
X401932Y19494D01*
X401924Y19495D01*
X401924Y19501D01*
X400976Y20097D01*
X400967Y20096D01*
X400966Y20101D01*
X399909Y20471D01*
X399901Y20469D01*
X399898Y20474D01*
X398786Y20599D01*
X398778Y20595D01*
X398775Y20599D01*
X397662Y20474D01*
X397656Y20468D01*
X397651Y20471D01*
X396594Y20101D01*
X396590Y20095D01*
X396584Y20097D01*
X395636Y19501D01*
X395633Y19493D01*
X395628Y19494D01*
X394836Y18702D01*
X394835Y18694D01*
X394829Y18694D01*
X394233Y17746D01*
X394234Y17737D01*
X394229Y17736D01*
X393859Y16679D01*
X393861Y16671D01*
X393856Y16668D01*
X393731Y15556D01*
X393733Y15552D01*
X393731Y15550D01*
X393731Y9550D01*
X393733Y9547D01*
X393731Y9545D01*
X393856Y8432D01*
X393862Y8426D01*
X393859Y8421D01*
X394229Y7364D01*
X394236Y7360D01*
X394233Y7354D01*
X394829Y6406D01*
X394837Y6403D01*
X394836Y6398D01*
X395628Y5606D01*
X395636Y5605D01*
X395636Y5599D01*
X396584Y5003D01*
X396593Y5004D01*
X396594Y4999D01*
X397651Y4629D01*
X397659Y4631D01*
X397662Y4626D01*
X398775Y4501D01*
X398782Y4505D01*
X398786Y4501D01*
X399898Y4626D01*
G37*
G36*
X197504Y378155D02*
X197504Y378155D01*
X197526Y378159D01*
X197533Y378174D01*
X197542Y378180D01*
X197541Y378190D01*
X197548Y378206D01*
X197548Y383794D01*
X197536Y383813D01*
X197532Y383835D01*
X197517Y383842D01*
X197511Y383851D01*
X197501Y383850D01*
X197485Y383857D01*
X188659Y383857D01*
X188640Y383845D01*
X188617Y383841D01*
X188610Y383826D01*
X188601Y383820D01*
X188602Y383817D01*
X188601Y383817D01*
X188603Y383809D01*
X188596Y383794D01*
X188596Y378206D01*
X188608Y378187D01*
X188611Y378165D01*
X188627Y378158D01*
X188633Y378149D01*
X188643Y378150D01*
X188659Y378143D01*
X197485Y378143D01*
X197504Y378155D01*
G37*
G36*
X348465Y835143D02*
X348465Y835143D01*
X348586Y835152D01*
X348587Y835152D01*
X348588Y835152D01*
X348698Y835200D01*
X348812Y835248D01*
X348813Y835248D01*
X348814Y835249D01*
X348945Y835353D01*
X349478Y835887D01*
X349490Y835903D01*
X349505Y835915D01*
X349562Y836003D01*
X349622Y836087D01*
X349628Y836105D01*
X349638Y836122D01*
X349664Y836223D01*
X349694Y836322D01*
X349694Y836342D01*
X349698Y836361D01*
X349690Y836464D01*
X349688Y836567D01*
X349681Y836586D01*
X349679Y836606D01*
X349639Y836701D01*
X349603Y836798D01*
X349591Y836814D01*
X349583Y836832D01*
X349478Y836963D01*
X349300Y837141D01*
X349285Y837152D01*
X349273Y837167D01*
X349185Y837224D01*
X349101Y837285D01*
X349083Y837290D01*
X349067Y837300D01*
X348965Y837326D01*
X348866Y837357D01*
X348847Y837357D01*
X348828Y837361D01*
X348724Y837353D01*
X348620Y837351D01*
X348602Y837344D01*
X348583Y837343D01*
X348487Y837302D01*
X348389Y837266D01*
X348374Y837254D01*
X348357Y837247D01*
X348279Y837178D01*
X348197Y837112D01*
X348186Y837097D01*
X348172Y837084D01*
X348081Y836943D01*
X347726Y836232D01*
X347725Y836231D01*
X347725Y836230D01*
X347690Y836117D01*
X347653Y835997D01*
X347653Y835996D01*
X347652Y835995D01*
X347656Y835872D01*
X347658Y835751D01*
X347659Y835750D01*
X347659Y835749D01*
X347704Y835625D01*
X347742Y835520D01*
X347743Y835519D01*
X347743Y835518D01*
X347822Y835420D01*
X347895Y835328D01*
X347896Y835327D01*
X347897Y835326D01*
X347999Y835261D01*
X348102Y835194D01*
X348103Y835194D01*
X348104Y835193D01*
X348224Y835163D01*
X348340Y835133D01*
X348341Y835133D01*
X348342Y835133D01*
X348465Y835143D01*
G37*
D10*
X339075Y839984D02*
X342634Y832866D01*
X346193Y839984D01*
X350769Y839984D02*
X354328Y843543D01*
X354328Y832866D01*
X350769Y832866D02*
X357887Y832866D01*
X362463Y834646D02*
X362463Y841764D01*
X364242Y843543D01*
X367802Y843543D01*
X369581Y841764D01*
X369581Y834646D01*
X367802Y832866D01*
X364242Y832866D01*
X362463Y834646D01*
X369581Y841764D01*
D11*
X660400Y50800D03*
X65300Y1065000D03*
D12*
X435550Y14050D03*
X491550Y14050D03*
D13*
X448550Y50800D03*
X458550Y50800D03*
X468550Y50800D03*
X478550Y50800D03*
D14*
X321700Y431800D03*
X338700Y431800D03*
D15*
X349600Y488400D03*
D16*
X335380Y449580D03*
D17*
X284670Y618800D02*
X284670Y625800D01*
X291670Y625800D01*
X291670Y618800D01*
X284670Y618800D01*
X284670Y621650D02*
X291670Y621650D01*
X291670Y624500D02*
X284670Y624500D01*
X267130Y625800D02*
X267130Y618800D01*
X267130Y625800D02*
X274130Y625800D01*
X274130Y618800D01*
X267130Y618800D01*
X267130Y621650D02*
X274130Y621650D01*
X274130Y624500D02*
X267130Y624500D01*
D18*
X356800Y406400D03*
X379800Y406400D03*
D14*
X321700Y406400D03*
X338700Y406400D03*
X287900Y635000D03*
X270900Y635000D03*
D19*
X381000Y359800D03*
X381000Y376800D03*
X355600Y376800D03*
X355600Y359800D03*
D17*
X652970Y441000D02*
X652970Y448000D01*
X659970Y448000D01*
X659970Y441000D01*
X652970Y441000D01*
X652970Y443850D02*
X659970Y443850D01*
X659970Y446700D02*
X652970Y446700D01*
X635430Y448000D02*
X635430Y441000D01*
X635430Y448000D02*
X642430Y448000D01*
X642430Y441000D01*
X635430Y441000D01*
X635430Y443850D02*
X642430Y443850D01*
X642430Y446700D02*
X635430Y446700D01*
D14*
X656200Y457200D03*
X639200Y457200D03*
D20*
X457501Y358800D03*
X457501Y368300D03*
X457501Y377800D03*
X431499Y377800D03*
X431499Y358800D03*
D19*
X482600Y359800D03*
X482600Y376800D03*
X279400Y376800D03*
X279400Y359800D03*
X304800Y376800D03*
X304800Y359800D03*
D17*
X284670Y542600D02*
X284670Y549600D01*
X291670Y549600D01*
X291670Y542600D01*
X284670Y542600D01*
X284670Y545450D02*
X291670Y545450D01*
X291670Y548300D02*
X284670Y548300D01*
X267130Y549600D02*
X267130Y542600D01*
X267130Y549600D02*
X274130Y549600D01*
X274130Y542600D01*
X267130Y542600D01*
X267130Y545450D02*
X274130Y545450D01*
X274130Y548300D02*
X267130Y548300D01*
D14*
X287900Y558800D03*
X270900Y558800D03*
D17*
X284670Y473400D02*
X284670Y466400D01*
X284670Y473400D02*
X291670Y473400D01*
X291670Y466400D01*
X284670Y466400D01*
X284670Y469250D02*
X291670Y469250D01*
X291670Y472100D02*
X284670Y472100D01*
X267130Y473400D02*
X267130Y466400D01*
X267130Y473400D02*
X274130Y473400D01*
X274130Y466400D01*
X267130Y466400D01*
X267130Y469250D02*
X274130Y469250D01*
X274130Y472100D02*
X267130Y472100D01*
D14*
X287900Y495300D03*
X270900Y495300D03*
D21*
X311700Y139700D03*
X323300Y139700D03*
D14*
X309000Y152400D03*
X326000Y152400D03*
D19*
X330200Y376800D03*
X330200Y359800D03*
D22*
X287100Y152400D03*
X297100Y152400D03*
D23*
X284100Y179500D03*
X295100Y179500D03*
X306100Y179500D03*
X317100Y179500D03*
X328100Y179500D03*
X339100Y179500D03*
X350100Y179500D03*
X361100Y179500D03*
X372100Y179500D03*
X383100Y179500D03*
X394100Y179500D03*
X405100Y179500D03*
X416100Y179500D03*
X427100Y179500D03*
D24*
X455100Y188000D03*
X455100Y199000D03*
X455100Y210000D03*
X455100Y221000D03*
X455100Y232000D03*
X455100Y243000D03*
X455100Y254000D03*
X455100Y265000D03*
X455100Y276000D03*
X455100Y287000D03*
X455100Y298000D03*
X455100Y309000D03*
X455100Y320000D03*
D23*
X427100Y328500D03*
X416100Y328500D03*
X405100Y328500D03*
X394100Y328500D03*
X383100Y328500D03*
X372100Y328500D03*
X361100Y328500D03*
X350100Y328500D03*
X339100Y328500D03*
X328100Y328500D03*
X317100Y328500D03*
X306100Y328500D03*
X295100Y328500D03*
X284100Y328500D03*
D24*
X256100Y320000D03*
X256100Y309000D03*
X256100Y298000D03*
X256100Y287000D03*
X256100Y276000D03*
X256100Y265000D03*
X256100Y254000D03*
X256100Y243000D03*
X256100Y232000D03*
X256100Y221000D03*
X256100Y210000D03*
X256100Y199000D03*
X256100Y188000D03*
D25*
X345100Y243500D03*
X324100Y243500D03*
X303100Y243500D03*
X282100Y243500D03*
X345100Y223000D03*
X324100Y223000D03*
X303100Y223000D03*
X282100Y223000D03*
X345100Y202500D03*
X324100Y202500D03*
X303100Y202500D03*
X282100Y202500D03*
X345100Y305500D03*
X324100Y305500D03*
X303100Y305500D03*
X282100Y305500D03*
X345100Y285000D03*
X324100Y285000D03*
X303100Y285000D03*
X282100Y285000D03*
X345100Y264500D03*
X324100Y264500D03*
X303100Y264500D03*
X282100Y264500D03*
X366100Y264500D03*
X387100Y264500D03*
X408100Y264500D03*
X429100Y264500D03*
X366100Y285000D03*
X387100Y285000D03*
X408100Y285000D03*
X429100Y285000D03*
X366100Y305500D03*
X387100Y305500D03*
X408100Y305500D03*
X429100Y305500D03*
X366100Y202500D03*
X387100Y202500D03*
X408100Y202500D03*
X429100Y202500D03*
X366100Y223000D03*
X387100Y223000D03*
X408100Y223000D03*
X429100Y223000D03*
X366100Y243500D03*
X387100Y243500D03*
X408100Y243500D03*
X429100Y243500D03*
D14*
X414900Y88900D03*
X397900Y88900D03*
X296300Y88900D03*
X313300Y88900D03*
D26*
X363100Y60100D03*
X358100Y60100D03*
D27*
X387850Y60100D03*
X380100Y60100D03*
D26*
X373100Y60100D03*
X368100Y60100D03*
X348100Y60100D03*
X353100Y60100D03*
D27*
X323350Y60100D03*
X331100Y60100D03*
D26*
X338100Y60100D03*
X343100Y60100D03*
D28*
X312420Y16074D02*
X312420Y9026D01*
X398780Y9026D02*
X398780Y16074D01*
X398780Y50826D02*
X398780Y57874D01*
X312420Y57874D02*
X312420Y50826D01*
D19*
X406400Y359800D03*
X406400Y376800D03*
D14*
X359800Y431800D03*
X376800Y431800D03*
D29*
X337900Y122950D03*
D30*
X342900Y122700D03*
X347900Y122700D03*
X347900Y131300D03*
X342900Y131300D03*
X337900Y131300D03*
D31*
X289050Y35000D03*
D32*
X247650Y81000D03*
D31*
X206250Y35000D03*
D33*
X234800Y280100D03*
D34*
X234800Y288100D03*
X234800Y296100D03*
D33*
X234800Y304100D03*
X221800Y304100D03*
D34*
X221800Y296100D03*
X221800Y288100D03*
D33*
X221800Y280100D03*
X234800Y216600D03*
D34*
X234800Y224600D03*
X234800Y232600D03*
D33*
X234800Y240600D03*
X221800Y240600D03*
D34*
X221800Y232600D03*
X221800Y224600D03*
D33*
X221800Y216600D03*
D19*
X228600Y321700D03*
X228600Y338700D03*
X482600Y338700D03*
X482600Y321700D03*
X482600Y300600D03*
X482600Y283600D03*
X482600Y245500D03*
X482600Y262500D03*
X482600Y224400D03*
X482600Y207400D03*
D35*
X614100Y73100D03*
X554100Y73100D03*
D36*
X638100Y21100D03*
X530100Y21100D03*
D35*
X574100Y73100D03*
X594100Y73100D03*
X156900Y73100D03*
X96900Y73100D03*
D36*
X180900Y21100D03*
X72900Y21100D03*
D35*
X116900Y73100D03*
X136900Y73100D03*
D19*
X685800Y347100D03*
X685800Y364100D03*
D14*
X656200Y127000D03*
X639200Y127000D03*
X59300Y469900D03*
X42300Y469900D03*
D17*
X56070Y460700D02*
X56070Y453700D01*
X56070Y460700D02*
X63070Y460700D01*
X63070Y453700D01*
X56070Y453700D01*
X56070Y456550D02*
X63070Y456550D01*
X63070Y459400D02*
X56070Y459400D01*
X38530Y460700D02*
X38530Y453700D01*
X38530Y460700D02*
X45530Y460700D01*
X45530Y453700D01*
X38530Y453700D01*
X38530Y456550D02*
X45530Y456550D01*
X45530Y459400D02*
X38530Y459400D01*
D37*
X659700Y159675D02*
X659700Y145125D01*
X647700Y145125D02*
X647700Y159675D01*
X635700Y159675D02*
X635700Y145125D01*
D38*
X659700Y142240D02*
X659700Y152400D01*
X659700Y162560D01*
X635700Y152400D02*
X635700Y142240D01*
X635700Y152400D02*
X635700Y162560D01*
X647700Y152400D02*
X647700Y142240D01*
X647700Y152400D02*
X647700Y162560D01*
D19*
X685800Y385200D03*
X685800Y402200D03*
D39*
X594300Y172974D03*
X602300Y172974D03*
X610300Y172974D03*
X618300Y172974D03*
X626300Y172974D03*
X634300Y172974D03*
X642300Y172974D03*
X650300Y172974D03*
D40*
X665226Y187900D03*
X665226Y195900D03*
X665226Y203900D03*
X665226Y211900D03*
X665226Y219900D03*
X665226Y227900D03*
X665226Y235900D03*
X665226Y243900D03*
D39*
X650300Y258826D03*
X642300Y258826D03*
X634300Y258826D03*
X626300Y258826D03*
X618300Y258826D03*
X610300Y258826D03*
X602300Y258826D03*
X594300Y258826D03*
D40*
X579374Y243900D03*
X579374Y235900D03*
X579374Y227900D03*
X579374Y219900D03*
X579374Y211900D03*
X579374Y203900D03*
X579374Y195900D03*
X579374Y187900D03*
D41*
X609600Y342900D03*
X609600Y368300D03*
X635000Y342900D03*
X635000Y368300D03*
X660400Y342900D03*
X660400Y368300D03*
D14*
X592700Y279400D03*
X575700Y279400D03*
D41*
X381000Y139700D03*
X406400Y139700D03*
X431800Y139700D03*
X457200Y139700D03*
X482600Y139700D03*
X508000Y139700D03*
D35*
X650400Y610700D03*
X670400Y610700D03*
D36*
X626400Y662700D03*
X694400Y662700D03*
D42*
X390500Y1054401D03*
X381000Y1054401D03*
X371500Y1054401D03*
X371500Y1028399D03*
X390500Y1028399D03*
D19*
X406400Y1049900D03*
X406400Y1032900D03*
D14*
X372500Y1079500D03*
X389500Y1079500D03*
X372500Y1003300D03*
X389500Y1003300D03*
D17*
X591630Y409900D02*
X591630Y402900D01*
X584630Y402900D01*
X584630Y409900D01*
X591630Y409900D01*
X591630Y405750D02*
X584630Y405750D01*
X584630Y408600D02*
X591630Y408600D01*
X609170Y409900D02*
X609170Y402900D01*
X602170Y402900D01*
X602170Y409900D01*
X609170Y409900D01*
X609170Y405750D02*
X602170Y405750D01*
X602170Y408600D02*
X609170Y408600D01*
D14*
X605400Y419100D03*
X588400Y419100D03*
D43*
X303700Y1031400D03*
X303700Y1051400D03*
D44*
X251700Y1007400D03*
X251700Y1075400D03*
D41*
X342900Y1054100D03*
X342900Y1028700D03*
D18*
X443300Y1079500D03*
X420300Y1079500D03*
D19*
X63500Y220100D03*
X63500Y237100D03*
X203200Y364100D03*
X203200Y347100D03*
X88900Y220100D03*
X88900Y237100D03*
X38100Y334400D03*
X38100Y351400D03*
X50800Y334400D03*
X50800Y351400D03*
X25400Y334400D03*
X25400Y351400D03*
D45*
X135636Y342900D03*
X143764Y342900D03*
D46*
X111150Y311000D03*
X111150Y301000D03*
X111150Y291000D03*
X111150Y281000D03*
X111150Y271000D03*
X111150Y261000D03*
X111150Y251000D03*
X111150Y241000D03*
X111150Y231000D03*
X111150Y221000D03*
D47*
X132400Y221750D03*
X142400Y221750D03*
X152400Y221750D03*
X162400Y221750D03*
X172400Y221750D03*
D46*
X193650Y221000D03*
X193650Y231000D03*
X193650Y241000D03*
X193650Y251000D03*
X193650Y261000D03*
X193650Y271000D03*
X193650Y281000D03*
X193650Y291000D03*
X193650Y301000D03*
X193650Y311000D03*
D47*
X172400Y310250D03*
X162400Y310250D03*
X152400Y310250D03*
X142400Y310250D03*
X132400Y310250D03*
D48*
X124900Y296500D03*
X124900Y285500D03*
X124900Y274500D03*
X124900Y263500D03*
X124900Y252500D03*
X124900Y241500D03*
X179900Y241500D03*
X179900Y252500D03*
X179900Y263500D03*
X179900Y274500D03*
X179900Y285500D03*
X179900Y296500D03*
X168900Y296500D03*
X157900Y296500D03*
X146900Y296500D03*
X135900Y296500D03*
X192400Y322500D03*
X182400Y322500D03*
X172400Y322500D03*
X162400Y322500D03*
X152400Y322500D03*
X142400Y322500D03*
X132400Y322500D03*
X122400Y322500D03*
X112400Y322500D03*
X135150Y248750D03*
X146650Y248750D03*
X158150Y248750D03*
X169650Y248750D03*
X146650Y260250D03*
X158150Y260250D03*
X135150Y271750D03*
X146650Y271750D03*
X158150Y271750D03*
X169650Y271750D03*
X146650Y283250D03*
X158150Y283250D03*
X108900Y211000D03*
X108900Y185500D03*
X195900Y185500D03*
X195900Y211000D03*
D49*
X27100Y378950D03*
X38100Y378950D03*
X49100Y378950D03*
X49100Y408450D03*
X38100Y408450D03*
X27100Y408450D03*
D19*
X177800Y347100D03*
X177800Y364100D03*
D45*
X195580Y381000D03*
X185420Y381000D03*
D41*
X203200Y381000D03*
X177800Y381000D03*
D14*
X410600Y635000D03*
X427600Y635000D03*
D17*
X424370Y625800D02*
X424370Y618800D01*
X424370Y625800D02*
X431370Y625800D01*
X431370Y618800D01*
X424370Y618800D01*
X424370Y621650D02*
X431370Y621650D01*
X431370Y624500D02*
X424370Y624500D01*
X406830Y625800D02*
X406830Y618800D01*
X406830Y625800D02*
X413830Y625800D01*
X413830Y618800D01*
X406830Y618800D01*
X406830Y621650D02*
X413830Y621650D01*
X413830Y624500D02*
X406830Y624500D01*
D14*
X410600Y558800D03*
X427600Y558800D03*
D17*
X424370Y549600D02*
X424370Y542600D01*
X424370Y549600D02*
X431370Y549600D01*
X431370Y542600D01*
X424370Y542600D01*
X424370Y545450D02*
X431370Y545450D01*
X431370Y548300D02*
X424370Y548300D01*
X406830Y549600D02*
X406830Y542600D01*
X406830Y549600D02*
X413830Y549600D01*
X413830Y542600D01*
X406830Y542600D01*
X406830Y545450D02*
X413830Y545450D01*
X413830Y548300D02*
X406830Y548300D01*
D14*
X410600Y482600D03*
X427600Y482600D03*
D17*
X424370Y473400D02*
X424370Y466400D01*
X424370Y473400D02*
X431370Y473400D01*
X431370Y466400D01*
X424370Y466400D01*
X424370Y469250D02*
X431370Y469250D01*
X431370Y472100D02*
X424370Y472100D01*
X406830Y473400D02*
X406830Y466400D01*
X406830Y473400D02*
X413830Y473400D01*
X413830Y466400D01*
X406830Y466400D01*
X406830Y469250D02*
X413830Y469250D01*
X413830Y472100D02*
X406830Y472100D01*
D41*
X508000Y177800D03*
X508000Y203200D03*
X508000Y228600D03*
X508000Y254000D03*
X508000Y279400D03*
X508000Y304800D03*
X508000Y330200D03*
X508000Y355600D03*
D35*
X40800Y623400D03*
X60800Y623400D03*
D36*
X16800Y675400D03*
X84800Y675400D03*
D38*
X371500Y1004300D02*
X371500Y1028399D01*
X371500Y1004300D02*
X372500Y1003300D01*
X390500Y1028399D02*
X395001Y1032900D01*
X406400Y1032900D01*
X340200Y1051400D02*
X303700Y1051400D01*
X340200Y1051400D02*
X342900Y1054100D01*
X371199Y1054100D01*
X371500Y1054401D01*
X372500Y1055401D01*
X372500Y1079500D01*
M02*
