G04 EAGLE Gerber RS-274X export*
G75*
%MOMM*%
%FSLAX34Y34*%
%LPD*%
%INSolderpaste Top*%
%IPPOS*%
%AMOC8*
5,1,8,0,0,1.08239X$1,22.5*%
G01*
%ADD10R,1.200000X2.000000*%
%ADD11R,0.600000X1.350000*%
%ADD12R,1.100000X1.000000*%
%ADD13R,4.200000X1.700000*%
%ADD14C,0.300000*%
%ADD15R,0.630000X0.830000*%
%ADD16R,1.000000X1.100000*%
%ADD17R,1.200000X0.550000*%
%ADD18R,0.900000X0.850000*%
%ADD19R,0.600000X0.600000*%
%ADD20R,0.850000X1.520000*%
%ADD21R,1.520000X0.850000*%
%ADD22R,0.900000X0.900000*%
%ADD23R,0.300000X1.000000*%
%ADD24R,0.600000X1.000000*%
%ADD25R,0.250000X0.610000*%
%ADD26R,0.250000X0.560000*%
%ADD27R,1.150000X7.000000*%
%ADD28R,0.900000X2.200000*%
%ADD29R,0.550000X0.800000*%
%ADD30R,0.550000X0.500000*%
%ADD31R,1.000000X4.600000*%
%ADD32R,1.600000X3.400000*%
%ADD33R,4.600000X1.000000*%
%ADD34R,3.400000X1.600000*%
%ADD35R,1.150000X1.000000*%
%ADD36R,0.762000X1.524000*%
%ADD37R,0.600000X1.700000*%
%ADD38R,1.000000X2.700000*%

G36*
X263942Y442863D02*
X263942Y442863D01*
X263986Y442866D01*
X264008Y442882D01*
X264034Y442890D01*
X264063Y442923D01*
X264098Y442949D01*
X264108Y442975D01*
X264126Y442995D01*
X264133Y443039D01*
X264148Y443079D01*
X264143Y443106D01*
X264147Y443133D01*
X264129Y443174D01*
X264120Y443216D01*
X264094Y443252D01*
X264090Y443261D01*
X264085Y443265D01*
X264076Y443276D01*
X240076Y467276D01*
X240038Y467297D01*
X240005Y467326D01*
X239978Y467330D01*
X239954Y467343D01*
X239910Y467340D01*
X239867Y467347D01*
X239842Y467336D01*
X239814Y467334D01*
X239779Y467308D01*
X239739Y467290D01*
X239724Y467267D01*
X239702Y467251D01*
X239686Y467210D01*
X239662Y467174D01*
X239655Y467130D01*
X239652Y467121D01*
X239653Y467114D01*
X239651Y467100D01*
X239651Y443100D01*
X239656Y443084D01*
X239653Y443067D01*
X239675Y443017D01*
X239690Y442966D01*
X239703Y442955D01*
X239710Y442939D01*
X239755Y442909D01*
X239795Y442874D01*
X239812Y442871D01*
X239827Y442862D01*
X239900Y442851D01*
X263900Y442851D01*
X263942Y442863D01*
G37*
G36*
X309700Y41411D02*
X309700Y41411D01*
X309701Y41411D01*
X310769Y41430D01*
X310776Y41435D01*
X310780Y41431D01*
X311817Y41687D01*
X311822Y41694D01*
X311828Y41691D01*
X312782Y42172D01*
X312786Y42179D01*
X312791Y42178D01*
X313615Y42859D01*
X313616Y42867D01*
X313622Y42867D01*
X314273Y43714D01*
X314273Y43722D01*
X314279Y43723D01*
X314726Y44694D01*
X314724Y44702D01*
X314729Y44704D01*
X314948Y45750D01*
X314945Y45757D01*
X314949Y45760D01*
X314949Y57760D01*
X314946Y57765D01*
X314949Y57768D01*
X314769Y58863D01*
X314763Y58869D01*
X314766Y58874D01*
X314347Y59902D01*
X314340Y59906D01*
X314342Y59911D01*
X313705Y60820D01*
X313697Y60823D01*
X313697Y60828D01*
X312874Y61572D01*
X312866Y61573D01*
X312865Y61579D01*
X311897Y62121D01*
X311888Y62120D01*
X311886Y62126D01*
X310822Y62439D01*
X310817Y62437D01*
X310813Y62437D01*
X310811Y62441D01*
X309703Y62509D01*
X309697Y62505D01*
X309693Y62509D01*
X308585Y62339D01*
X308579Y62333D01*
X308574Y62336D01*
X307532Y61924D01*
X307528Y61917D01*
X307523Y61919D01*
X306598Y61285D01*
X306596Y61277D01*
X306590Y61278D01*
X305830Y60455D01*
X305829Y60446D01*
X305823Y60446D01*
X305266Y59474D01*
X305267Y59466D01*
X305261Y59464D01*
X304934Y58392D01*
X304937Y58384D01*
X304932Y58381D01*
X304851Y57264D01*
X304852Y57261D01*
X304851Y57260D01*
X304851Y45260D01*
X304856Y45253D01*
X304852Y45249D01*
X305071Y44305D01*
X305077Y44299D01*
X305075Y44294D01*
X305499Y43422D01*
X305506Y43419D01*
X305504Y43413D01*
X306111Y42657D01*
X306119Y42655D01*
X306119Y42649D01*
X306879Y42048D01*
X306888Y42048D01*
X306889Y42042D01*
X307764Y41624D01*
X307772Y41626D01*
X307774Y41621D01*
X308720Y41409D01*
X308727Y41412D01*
X308731Y41407D01*
X309700Y41411D01*
G37*
G36*
X224281Y41420D02*
X224281Y41420D01*
X224288Y41425D01*
X224292Y41421D01*
X225344Y41671D01*
X225349Y41677D01*
X225354Y41674D01*
X226324Y42151D01*
X226327Y42159D01*
X226333Y42157D01*
X227172Y42838D01*
X227174Y42846D01*
X227180Y42846D01*
X227846Y43697D01*
X227847Y43705D01*
X227852Y43706D01*
X228313Y44683D01*
X228311Y44691D01*
X228317Y44694D01*
X228548Y45749D01*
X228545Y45757D01*
X228549Y45760D01*
X228549Y57760D01*
X228545Y57765D01*
X228549Y57768D01*
X228356Y58874D01*
X228350Y58879D01*
X228353Y58884D01*
X227920Y59919D01*
X227913Y59923D01*
X227915Y59928D01*
X227262Y60841D01*
X227254Y60843D01*
X227255Y60849D01*
X226416Y61593D01*
X226407Y61594D01*
X226407Y61599D01*
X225423Y62138D01*
X225415Y62137D01*
X225413Y62142D01*
X224334Y62449D01*
X224326Y62446D01*
X224323Y62451D01*
X223203Y62509D01*
X223198Y62506D01*
X223195Y62509D01*
X222149Y62391D01*
X222143Y62385D01*
X222138Y62389D01*
X221144Y62041D01*
X221140Y62034D01*
X221135Y62036D01*
X220243Y61476D01*
X220241Y61469D01*
X220235Y61469D01*
X219491Y60725D01*
X219489Y60717D01*
X219484Y60717D01*
X218924Y59825D01*
X218924Y59817D01*
X218919Y59816D01*
X218571Y58822D01*
X218574Y58814D01*
X218569Y58811D01*
X218451Y57766D01*
X218453Y57762D01*
X218451Y57760D01*
X218451Y45760D01*
X218454Y45755D01*
X218451Y45752D01*
X218609Y44756D01*
X218615Y44750D01*
X218612Y44745D01*
X218987Y43809D01*
X218994Y43805D01*
X218992Y43799D01*
X219566Y42970D01*
X219574Y42967D01*
X219573Y42962D01*
X220317Y42281D01*
X220326Y42280D01*
X220326Y42274D01*
X221203Y41776D01*
X221212Y41777D01*
X221214Y41772D01*
X222179Y41481D01*
X222187Y41484D01*
X222190Y41479D01*
X223197Y41411D01*
X223199Y41412D01*
X223200Y41411D01*
X224281Y41420D01*
G37*
G36*
X310204Y1915D02*
X310204Y1915D01*
X310207Y1911D01*
X311283Y2066D01*
X311288Y2072D01*
X311293Y2069D01*
X312307Y2459D01*
X312311Y2466D01*
X312317Y2465D01*
X313219Y3071D01*
X313221Y3079D01*
X313227Y3078D01*
X313971Y3870D01*
X313972Y3878D01*
X313978Y3878D01*
X314527Y4816D01*
X314526Y4824D01*
X314532Y4826D01*
X314859Y5862D01*
X314856Y5870D01*
X314861Y5873D01*
X314949Y6956D01*
X314947Y6959D01*
X314949Y6960D01*
X314949Y12960D01*
X314946Y12964D01*
X314949Y12966D01*
X314799Y14099D01*
X314793Y14105D01*
X314796Y14110D01*
X314398Y15180D01*
X314391Y15184D01*
X314393Y15190D01*
X313766Y16145D01*
X313758Y16148D01*
X313759Y16153D01*
X312936Y16945D01*
X312928Y16946D01*
X312927Y16952D01*
X311948Y17541D01*
X311940Y17540D01*
X311938Y17545D01*
X310853Y17901D01*
X310845Y17899D01*
X310842Y17903D01*
X309705Y18009D01*
X309696Y18004D01*
X309691Y18008D01*
X308554Y17801D01*
X308548Y17795D01*
X308543Y17798D01*
X307481Y17343D01*
X307477Y17336D01*
X307471Y17338D01*
X306536Y16658D01*
X306534Y16650D01*
X306528Y16651D01*
X305768Y15780D01*
X305768Y15772D01*
X305762Y15771D01*
X305215Y14752D01*
X305216Y14744D01*
X305211Y14742D01*
X305207Y14729D01*
X305194Y14680D01*
X305193Y14680D01*
X305194Y14680D01*
X305180Y14631D01*
X305166Y14581D01*
X305153Y14532D01*
X305139Y14483D01*
X305126Y14434D01*
X305112Y14384D01*
X305099Y14335D01*
X305085Y14286D01*
X305071Y14237D01*
X305058Y14187D01*
X305044Y14138D01*
X305031Y14089D01*
X305017Y14040D01*
X305004Y13990D01*
X304990Y13941D01*
X304977Y13892D01*
X304976Y13892D01*
X304963Y13843D01*
X304949Y13793D01*
X304904Y13628D01*
X304907Y13620D01*
X304902Y13617D01*
X304851Y12462D01*
X304852Y12461D01*
X304851Y12460D01*
X304851Y6460D01*
X304855Y6454D01*
X304852Y6451D01*
X305064Y5370D01*
X305070Y5365D01*
X305067Y5360D01*
X305514Y4354D01*
X305521Y4350D01*
X305519Y4344D01*
X306179Y3463D01*
X306187Y3460D01*
X306187Y3455D01*
X307026Y2742D01*
X307034Y2742D01*
X307035Y2736D01*
X308012Y2228D01*
X308020Y2229D01*
X308022Y2224D01*
X309087Y1946D01*
X309095Y1949D01*
X309098Y1945D01*
X310199Y1911D01*
X310204Y1915D01*
G37*
G36*
X223702Y1915D02*
X223702Y1915D01*
X223707Y1911D01*
X224794Y2056D01*
X224800Y2062D01*
X224805Y2059D01*
X225833Y2443D01*
X225838Y2449D01*
X225843Y2448D01*
X226760Y3050D01*
X226763Y3058D01*
X226769Y3057D01*
X227529Y3849D01*
X227530Y3857D01*
X227536Y3858D01*
X228100Y4799D01*
X228100Y4802D01*
X228101Y4803D01*
X228100Y4805D01*
X228099Y4807D01*
X228105Y4809D01*
X228446Y5852D01*
X228444Y5860D01*
X228448Y5863D01*
X228549Y6956D01*
X228547Y6958D01*
X228549Y6960D01*
X228549Y12960D01*
X228547Y12963D01*
X228549Y12965D01*
X228448Y14057D01*
X228443Y14063D01*
X228446Y14068D01*
X228105Y15111D01*
X228098Y15116D01*
X228100Y15121D01*
X227536Y16062D01*
X227528Y16065D01*
X227529Y16071D01*
X226769Y16863D01*
X226761Y16864D01*
X226760Y16870D01*
X225843Y17473D01*
X225835Y17472D01*
X225833Y17478D01*
X224805Y17861D01*
X224797Y17859D01*
X224794Y17864D01*
X223707Y18009D01*
X223699Y18005D01*
X223695Y18009D01*
X222558Y17903D01*
X222552Y17898D01*
X222547Y17901D01*
X221462Y17545D01*
X221457Y17538D01*
X221452Y17541D01*
X220473Y16952D01*
X220470Y16944D01*
X220464Y16945D01*
X219641Y16153D01*
X219640Y16145D01*
X219634Y16145D01*
X219007Y15190D01*
X219008Y15182D01*
X219002Y15180D01*
X218604Y14110D01*
X218606Y14102D01*
X218601Y14099D01*
X218451Y12966D01*
X218454Y12962D01*
X218451Y12960D01*
X218451Y6960D01*
X218454Y6956D01*
X218451Y6954D01*
X218601Y5821D01*
X218607Y5815D01*
X218604Y5810D01*
X219002Y4740D01*
X219009Y4736D01*
X219007Y4730D01*
X219634Y3775D01*
X219642Y3772D01*
X219641Y3767D01*
X220464Y2975D01*
X220472Y2974D01*
X220473Y2968D01*
X221452Y2379D01*
X221460Y2380D01*
X221462Y2375D01*
X222547Y2019D01*
X222555Y2022D01*
X222558Y2017D01*
X223695Y1911D01*
X223702Y1915D01*
G37*
D10*
X346650Y10240D03*
X402650Y10240D03*
D11*
X359650Y46990D03*
X369650Y46990D03*
X379650Y46990D03*
X389650Y46990D03*
D12*
X232800Y419100D03*
X249800Y419100D03*
D13*
X260700Y488400D03*
D14*
X195770Y517200D02*
X195770Y524200D01*
X202770Y524200D01*
X202770Y517200D01*
X195770Y517200D01*
X195770Y520050D02*
X202770Y520050D01*
X202770Y522900D02*
X195770Y522900D01*
X178230Y524200D02*
X178230Y517200D01*
X178230Y524200D02*
X185230Y524200D01*
X185230Y517200D01*
X178230Y517200D01*
X178230Y520050D02*
X185230Y520050D01*
X185230Y522900D02*
X178230Y522900D01*
D15*
X267900Y419100D03*
X290900Y419100D03*
D12*
X232800Y393700D03*
X249800Y393700D03*
X182000Y533400D03*
X199000Y533400D03*
D16*
X292100Y359800D03*
X292100Y376800D03*
X266700Y376800D03*
X266700Y359800D03*
D14*
X576770Y612450D02*
X576770Y619450D01*
X583770Y619450D01*
X583770Y612450D01*
X576770Y612450D01*
X576770Y615300D02*
X583770Y615300D01*
X583770Y618150D02*
X576770Y618150D01*
X559230Y619450D02*
X559230Y612450D01*
X559230Y619450D02*
X566230Y619450D01*
X566230Y612450D01*
X559230Y612450D01*
X559230Y615300D02*
X566230Y615300D01*
X566230Y618150D02*
X559230Y618150D01*
D12*
X563000Y628650D03*
X580000Y628650D03*
D17*
X368601Y358800D03*
X368601Y368300D03*
X368601Y377800D03*
X342599Y377800D03*
X342599Y358800D03*
D16*
X393700Y359800D03*
X393700Y376800D03*
X190500Y376800D03*
X190500Y359800D03*
X215900Y376800D03*
X215900Y359800D03*
D14*
X195770Y441000D02*
X195770Y448000D01*
X202770Y448000D01*
X202770Y441000D01*
X195770Y441000D01*
X195770Y443850D02*
X202770Y443850D01*
X202770Y446700D02*
X195770Y446700D01*
X178230Y448000D02*
X178230Y441000D01*
X178230Y448000D02*
X185230Y448000D01*
X185230Y441000D01*
X178230Y441000D01*
X178230Y443850D02*
X185230Y443850D01*
X185230Y446700D02*
X178230Y446700D01*
D12*
X182000Y457200D03*
X199000Y457200D03*
D18*
X228600Y155660D03*
X228600Y144060D03*
D12*
X246770Y156210D03*
X263770Y156210D03*
D16*
X241300Y376800D03*
X241300Y359800D03*
D19*
X207090Y156210D03*
X217090Y156210D03*
D20*
X195200Y179500D03*
X206200Y179500D03*
X217200Y179500D03*
X228200Y179500D03*
X239200Y179500D03*
X250200Y179500D03*
X261200Y179500D03*
X272200Y179500D03*
X283200Y179500D03*
X294200Y179500D03*
X305200Y179500D03*
X316200Y179500D03*
X327200Y179500D03*
X338200Y179500D03*
D21*
X366200Y188000D03*
X366200Y199000D03*
X366200Y210000D03*
X366200Y221000D03*
X366200Y232000D03*
X366200Y243000D03*
X366200Y254000D03*
X366200Y265000D03*
X366200Y276000D03*
X366200Y287000D03*
X366200Y298000D03*
X366200Y309000D03*
X366200Y320000D03*
D20*
X338200Y328500D03*
X327200Y328500D03*
X316200Y328500D03*
X305200Y328500D03*
X294200Y328500D03*
X283200Y328500D03*
X272200Y328500D03*
X261200Y328500D03*
X250200Y328500D03*
X239200Y328500D03*
X228200Y328500D03*
X217200Y328500D03*
X206200Y328500D03*
X195200Y328500D03*
D21*
X167200Y320000D03*
X167200Y309000D03*
X167200Y298000D03*
X167200Y287000D03*
X167200Y276000D03*
X167200Y265000D03*
X167200Y254000D03*
X167200Y243000D03*
X167200Y232000D03*
X167200Y221000D03*
X167200Y210000D03*
X167200Y199000D03*
X167200Y188000D03*
D22*
X256200Y264500D03*
X235200Y264500D03*
X214200Y264500D03*
X193200Y264500D03*
X256200Y285000D03*
X235200Y285000D03*
X214200Y285000D03*
X193200Y285000D03*
X256200Y305500D03*
X235200Y305500D03*
X214200Y305500D03*
X193200Y305500D03*
X256200Y202500D03*
X235200Y202500D03*
X214200Y202500D03*
X193200Y202500D03*
X256200Y223000D03*
X235200Y223000D03*
X214200Y223000D03*
X193200Y223000D03*
X256200Y243500D03*
X235200Y243500D03*
X214200Y243500D03*
X193200Y243500D03*
X340200Y264500D03*
X319200Y264500D03*
X298200Y264500D03*
X277200Y264500D03*
X340200Y285000D03*
X319200Y285000D03*
X298200Y285000D03*
X277200Y285000D03*
X340200Y305500D03*
X319200Y305500D03*
X298200Y305500D03*
X277200Y305500D03*
X340200Y202500D03*
X319200Y202500D03*
X298200Y202500D03*
X277200Y202500D03*
X340200Y223000D03*
X319200Y223000D03*
X298200Y223000D03*
X277200Y223000D03*
X340200Y243500D03*
X319200Y243500D03*
X298200Y243500D03*
X277200Y243500D03*
D12*
X326000Y88900D03*
X309000Y88900D03*
X207400Y88900D03*
X224400Y88900D03*
D23*
X274200Y57560D03*
X269200Y57560D03*
D24*
X298950Y57560D03*
X291200Y57560D03*
D23*
X284200Y57560D03*
X279200Y57560D03*
X259200Y57560D03*
X264200Y57560D03*
D24*
X234450Y57560D03*
X242200Y57560D03*
D23*
X249200Y57560D03*
X254200Y57560D03*
D16*
X317500Y359800D03*
X317500Y376800D03*
D12*
X270900Y393700D03*
X287900Y393700D03*
D25*
X249000Y122950D03*
D26*
X254000Y122700D03*
X259000Y122700D03*
X259000Y131300D03*
X254000Y131300D03*
X249000Y131300D03*
D27*
X200150Y35000D03*
D28*
X158750Y81000D03*
D27*
X117350Y35000D03*
D29*
X145900Y280100D03*
D30*
X145900Y288100D03*
X145900Y296100D03*
D29*
X145900Y304100D03*
X132900Y304100D03*
D30*
X132900Y296100D03*
X132900Y288100D03*
D29*
X132900Y280100D03*
X145900Y216600D03*
D30*
X145900Y224600D03*
X145900Y232600D03*
D29*
X145900Y240600D03*
X132900Y240600D03*
D30*
X132900Y232600D03*
X132900Y224600D03*
D29*
X132900Y216600D03*
D16*
X139700Y321700D03*
X139700Y338700D03*
D12*
X-29600Y622300D03*
X-46600Y622300D03*
D14*
X-32830Y613100D02*
X-32830Y606100D01*
X-32830Y613100D02*
X-25830Y613100D01*
X-25830Y606100D01*
X-32830Y606100D01*
X-32830Y608950D02*
X-25830Y608950D01*
X-25830Y611800D02*
X-32830Y611800D01*
X-50370Y613100D02*
X-50370Y606100D01*
X-50370Y613100D02*
X-43370Y613100D01*
X-43370Y606100D01*
X-50370Y606100D01*
X-50370Y608950D02*
X-43370Y608950D01*
X-43370Y611800D02*
X-50370Y611800D01*
D31*
X573880Y456100D03*
X553880Y456100D03*
D32*
X597880Y404100D03*
X529880Y404100D03*
D14*
X576770Y599750D02*
X576770Y606750D01*
X583770Y606750D01*
X583770Y599750D01*
X576770Y599750D01*
X576770Y602600D02*
X583770Y602600D01*
X583770Y605450D02*
X576770Y605450D01*
X559230Y606750D02*
X559230Y599750D01*
X559230Y606750D02*
X566230Y606750D01*
X566230Y599750D01*
X559230Y599750D01*
X559230Y602600D02*
X566230Y602600D01*
X566230Y605450D02*
X559230Y605450D01*
D12*
X563000Y590550D03*
X580000Y590550D03*
D33*
X87800Y1006000D03*
X87800Y1026000D03*
D34*
X35800Y982000D03*
X35800Y1050000D03*
D12*
X338700Y609600D03*
X321700Y609600D03*
D14*
X335470Y600400D02*
X335470Y593400D01*
X335470Y600400D02*
X342470Y600400D01*
X342470Y593400D01*
X335470Y593400D01*
X335470Y596250D02*
X342470Y596250D01*
X342470Y599100D02*
X335470Y599100D01*
X317930Y600400D02*
X317930Y593400D01*
X317930Y600400D02*
X324930Y600400D01*
X324930Y593400D01*
X317930Y593400D01*
X317930Y596250D02*
X324930Y596250D01*
X324930Y599100D02*
X317930Y599100D01*
D12*
X338700Y533400D03*
X321700Y533400D03*
D14*
X335470Y524200D02*
X335470Y517200D01*
X335470Y524200D02*
X342470Y524200D01*
X342470Y517200D01*
X335470Y517200D01*
X335470Y520050D02*
X342470Y520050D01*
X342470Y522900D02*
X335470Y522900D01*
X317930Y524200D02*
X317930Y517200D01*
X317930Y524200D02*
X324930Y524200D01*
X324930Y517200D01*
X317930Y517200D01*
X317930Y520050D02*
X324930Y520050D01*
X324930Y522900D02*
X317930Y522900D01*
D12*
X338700Y457200D03*
X321700Y457200D03*
D14*
X335470Y448000D02*
X335470Y441000D01*
X335470Y448000D02*
X342470Y448000D01*
X342470Y441000D01*
X335470Y441000D01*
X335470Y443850D02*
X342470Y443850D01*
X342470Y446700D02*
X335470Y446700D01*
X317930Y448000D02*
X317930Y441000D01*
X317930Y448000D02*
X324930Y448000D01*
X324930Y441000D01*
X317930Y441000D01*
X317930Y443850D02*
X324930Y443850D01*
X324930Y446700D02*
X317930Y446700D01*
D31*
X-21750Y456100D03*
X-41750Y456100D03*
D32*
X2250Y404100D03*
X-65750Y404100D03*
D35*
X79050Y152800D03*
X79050Y177800D03*
X79050Y202800D03*
X22550Y152800D03*
X22550Y177800D03*
X22550Y202800D03*
X22550Y329800D03*
X22550Y304800D03*
X22550Y279800D03*
X79050Y329800D03*
X79050Y304800D03*
X79050Y279800D03*
D36*
X577850Y980440D03*
X577850Y924560D03*
X539750Y980440D03*
X539750Y924560D03*
X577850Y866140D03*
X577850Y810260D03*
X539750Y866140D03*
X539750Y810260D03*
D37*
X19350Y45700D03*
D38*
X75350Y13700D03*
X850Y13700D03*
D37*
X31850Y45700D03*
X44350Y45700D03*
X56850Y45700D03*
X476550Y45700D03*
D38*
X532550Y13700D03*
X458050Y13700D03*
D37*
X489050Y45700D03*
X501550Y45700D03*
X514050Y45700D03*
D12*
X199000Y609600D03*
X182000Y609600D03*
D14*
X195770Y600400D02*
X195770Y593400D01*
X195770Y600400D02*
X202770Y600400D01*
X202770Y593400D01*
X195770Y593400D01*
X195770Y596250D02*
X202770Y596250D01*
X202770Y599100D02*
X195770Y599100D01*
X178230Y600400D02*
X178230Y593400D01*
X178230Y600400D02*
X185230Y600400D01*
X185230Y593400D01*
X178230Y593400D01*
X178230Y596250D02*
X185230Y596250D01*
X185230Y599100D02*
X178230Y599100D01*
D29*
X425300Y254700D03*
D30*
X425300Y262700D03*
X425300Y270700D03*
D29*
X425300Y278700D03*
X412300Y278700D03*
D30*
X412300Y270700D03*
X412300Y262700D03*
D29*
X412300Y254700D03*
M02*
