G04 EAGLE Gerber RS-274X export*
G75*
%MOMM*%
%FSLAX34Y34*%
%LPD*%
%INSilkscreen Bottom*%
%IPPOS*%
%AMOC8*
5,1,8,0,0,1.08239X$1,22.5*%
G01*
%ADD10C,0.254000*%
%ADD11C,0.203200*%
%ADD12C,0.152400*%
%ADD13C,0.254000*%
%ADD14C,0.508000*%

G36*
X105225Y209054D02*
X105225Y209054D01*
X105228Y209051D01*
X105828Y209151D01*
X105869Y209195D01*
X105866Y209198D01*
X105869Y209200D01*
X105869Y222700D01*
X105833Y222747D01*
X105826Y222742D01*
X105820Y222749D01*
X59720Y222749D01*
X59695Y222730D01*
X59682Y222731D01*
X59282Y222231D01*
X59281Y222223D01*
X59276Y222222D01*
X56276Y216222D01*
X56278Y216210D01*
X56273Y216205D01*
X56274Y216203D01*
X56271Y216200D01*
X56271Y215600D01*
X56281Y215587D01*
X56276Y215578D01*
X59376Y209478D01*
X59386Y209473D01*
X59385Y209465D01*
X59785Y209065D01*
X59812Y209062D01*
X59820Y209051D01*
X105220Y209051D01*
X105225Y209054D01*
G37*
G36*
X341622Y668872D02*
X341622Y668872D01*
X341623Y668871D01*
X343323Y668971D01*
X343330Y668977D01*
X343335Y668973D01*
X344935Y669473D01*
X344940Y669480D01*
X344945Y669478D01*
X346445Y670378D01*
X346447Y670382D01*
X346450Y670381D01*
X347850Y671481D01*
X347852Y671487D01*
X347856Y671487D01*
X348856Y672587D01*
X348857Y672596D01*
X348863Y672597D01*
X349663Y674097D01*
X349660Y674121D01*
X349668Y674131D01*
X349368Y675431D01*
X349354Y675443D01*
X349356Y675454D01*
X348056Y676854D01*
X348039Y676857D01*
X348036Y676867D01*
X346536Y677367D01*
X346513Y677359D01*
X346502Y677366D01*
X345202Y676866D01*
X345196Y676856D01*
X345188Y676857D01*
X343690Y675559D01*
X342203Y674568D01*
X340526Y674370D01*
X338954Y674960D01*
X338273Y676128D01*
X338663Y677688D01*
X340037Y678473D01*
X341729Y678772D01*
X341730Y678773D01*
X341732Y678772D01*
X343332Y679172D01*
X343335Y679176D01*
X343339Y679174D01*
X345039Y679874D01*
X345040Y679877D01*
X345042Y679876D01*
X346442Y680576D01*
X346445Y680582D01*
X346450Y680581D01*
X347750Y681581D01*
X347754Y681594D01*
X347762Y681595D01*
X348662Y683095D01*
X348662Y683101D01*
X348666Y683102D01*
X349266Y684602D01*
X349263Y684613D01*
X349269Y684617D01*
X349369Y686417D01*
X349365Y686423D01*
X349369Y686426D01*
X349169Y688026D01*
X349162Y688033D01*
X349166Y688038D01*
X348566Y689538D01*
X348558Y689543D01*
X348560Y689549D01*
X347560Y690949D01*
X347553Y690951D01*
X347553Y690956D01*
X346353Y692056D01*
X346345Y692057D01*
X346344Y692063D01*
X344944Y692863D01*
X344935Y692861D01*
X344932Y692868D01*
X343332Y693268D01*
X343327Y693266D01*
X343325Y693269D01*
X341525Y693469D01*
X341520Y693466D01*
X341517Y693469D01*
X340894Y693435D01*
X341221Y693943D01*
X341221Y693946D01*
X341223Y693947D01*
X342023Y695447D01*
X342022Y695454D01*
X342027Y695455D01*
X342527Y697055D01*
X342526Y697059D01*
X342528Y697061D01*
X342828Y698661D01*
X342826Y698665D01*
X342829Y698667D01*
X342929Y700467D01*
X342927Y700471D01*
X342929Y700473D01*
X342829Y702173D01*
X342825Y702178D01*
X342828Y702181D01*
X342428Y703881D01*
X342425Y703883D01*
X342427Y703886D01*
X341927Y705386D01*
X341922Y705389D01*
X341923Y705393D01*
X341123Y706893D01*
X341118Y706896D01*
X341119Y706900D01*
X340119Y708200D01*
X340114Y708201D01*
X340115Y708205D01*
X338815Y709505D01*
X338809Y709506D01*
X338809Y709510D01*
X337409Y710510D01*
X337405Y710510D01*
X337404Y710513D01*
X336004Y711313D01*
X335999Y711312D01*
X335997Y711316D01*
X334397Y711916D01*
X334393Y711915D01*
X334392Y711918D01*
X332792Y712318D01*
X332788Y712316D01*
X332786Y712319D01*
X331086Y712519D01*
X331080Y712516D01*
X331077Y712519D01*
X329377Y712419D01*
X329374Y712416D01*
X329371Y712418D01*
X327771Y712118D01*
X327768Y712115D01*
X327765Y712117D01*
X326165Y711617D01*
X326161Y711611D01*
X326157Y711613D01*
X324657Y710813D01*
X324655Y710810D01*
X324653Y710811D01*
X323153Y709811D01*
X323146Y709792D01*
X323135Y709789D01*
X322535Y708389D01*
X322539Y708374D01*
X322537Y708373D01*
X322540Y708370D01*
X322542Y708362D01*
X322535Y708350D01*
X323235Y706750D01*
X323246Y706744D01*
X323245Y706735D01*
X324645Y705335D01*
X324664Y705333D01*
X324668Y705322D01*
X325868Y705022D01*
X325889Y705031D01*
X325900Y705025D01*
X327500Y705725D01*
X327500Y705726D01*
X327501Y705725D01*
X328994Y706422D01*
X330681Y706621D01*
X332469Y706521D01*
X333956Y705927D01*
X335345Y704934D01*
X336337Y703645D01*
X336932Y702158D01*
X337130Y700371D01*
X336832Y698583D01*
X336237Y697095D01*
X335244Y695804D01*
X333853Y694612D01*
X332366Y693918D01*
X330780Y693720D01*
X329093Y693918D01*
X327729Y694503D01*
X327729Y697821D01*
X329280Y697821D01*
X329282Y697822D01*
X329283Y697821D01*
X331183Y697921D01*
X331202Y697937D01*
X331215Y697935D01*
X332215Y698935D01*
X332219Y698962D01*
X332229Y698970D01*
X332229Y700770D01*
X332222Y700779D01*
X332227Y700786D01*
X331727Y702286D01*
X331697Y702306D01*
X331692Y702318D01*
X330092Y702718D01*
X330084Y702714D01*
X330080Y702719D01*
X324980Y702719D01*
X324975Y702716D01*
X324972Y702719D01*
X323072Y702419D01*
X323057Y702403D01*
X323045Y702405D01*
X322045Y701405D01*
X322043Y701387D01*
X322032Y701379D01*
X322034Y701377D01*
X322031Y701376D01*
X321831Y699676D01*
X321833Y699672D01*
X321831Y699670D01*
X321831Y692870D01*
X321836Y692863D01*
X321832Y692858D01*
X322232Y691258D01*
X322248Y691246D01*
X322247Y691234D01*
X323447Y690134D01*
X323450Y690133D01*
X323450Y690131D01*
X324650Y689231D01*
X324660Y689231D01*
X324662Y689224D01*
X326162Y688624D01*
X326165Y688625D01*
X326165Y688623D01*
X327765Y688123D01*
X327772Y688125D01*
X327775Y688121D01*
X329675Y687921D01*
X329678Y687923D01*
X329680Y687921D01*
X331580Y687921D01*
X331584Y687923D01*
X331586Y687921D01*
X333286Y688121D01*
X333289Y688124D01*
X333292Y688122D01*
X334226Y688356D01*
X334979Y687193D01*
X334993Y687188D01*
X334993Y687179D01*
X336393Y686279D01*
X336420Y686281D01*
X336430Y686272D01*
X337830Y686572D01*
X337839Y686582D01*
X337847Y686579D01*
X339342Y687575D01*
X340825Y688070D01*
X342495Y687873D01*
X343466Y686708D01*
X343077Y685152D01*
X341701Y684366D01*
X338407Y683468D01*
X338407Y683467D01*
X338406Y683467D01*
X336706Y682967D01*
X336704Y682964D01*
X336702Y682966D01*
X335202Y682366D01*
X335196Y682356D01*
X335188Y682358D01*
X333988Y681358D01*
X333986Y681349D01*
X333980Y681349D01*
X332980Y679949D01*
X332980Y679937D01*
X332973Y679935D01*
X332473Y678335D01*
X332476Y678326D01*
X332471Y678323D01*
X332371Y676523D01*
X332374Y676517D01*
X332371Y676514D01*
X332571Y674814D01*
X332576Y674809D01*
X332573Y674804D01*
X333073Y673304D01*
X333080Y673300D01*
X333078Y673295D01*
X333978Y671795D01*
X333987Y671791D01*
X333987Y671784D01*
X335187Y670684D01*
X335194Y670683D01*
X335195Y670678D01*
X336695Y669778D01*
X336701Y669778D01*
X336702Y669774D01*
X338202Y669174D01*
X338209Y669176D01*
X338211Y669172D01*
X339911Y668872D01*
X339917Y668874D01*
X339920Y668871D01*
X341620Y668871D01*
X341622Y668872D01*
G37*
G36*
X313986Y687927D02*
X313986Y687927D01*
X313991Y687922D01*
X315691Y688322D01*
X315711Y688345D01*
X315724Y688348D01*
X316324Y689548D01*
X316321Y689564D01*
X316329Y689570D01*
X316329Y709870D01*
X316322Y709880D01*
X316326Y709887D01*
X315826Y711287D01*
X315800Y711304D01*
X315796Y711317D01*
X314296Y711817D01*
X314285Y711813D01*
X314280Y711819D01*
X306487Y711819D01*
X307044Y712376D01*
X307528Y712763D01*
X307534Y712771D01*
X307543Y712776D01*
X307587Y712839D01*
X307635Y712899D01*
X307637Y712909D01*
X307643Y712918D01*
X307658Y712999D01*
X307663Y713010D01*
X307663Y713022D01*
X307670Y713060D01*
X307670Y731560D01*
X307669Y731564D01*
X307670Y731569D01*
X307650Y731649D01*
X307631Y731729D01*
X307628Y731732D01*
X307627Y731737D01*
X307573Y731799D01*
X307521Y731862D01*
X307516Y731864D01*
X307514Y731868D01*
X307382Y731929D01*
X306982Y732029D01*
X306974Y732029D01*
X306965Y732033D01*
X306465Y732133D01*
X306433Y732132D01*
X306390Y732140D01*
X305937Y732140D01*
X305582Y732229D01*
X305574Y732229D01*
X305565Y732233D01*
X305073Y732331D01*
X304682Y732429D01*
X304674Y732429D01*
X304665Y732433D01*
X303665Y732633D01*
X303663Y732633D01*
X303662Y732633D01*
X303578Y732630D01*
X303491Y732627D01*
X303490Y732627D01*
X303489Y732627D01*
X303415Y732586D01*
X303339Y732545D01*
X303338Y732544D01*
X303337Y732544D01*
X303289Y732475D01*
X303238Y732404D01*
X303238Y732403D01*
X303237Y732402D01*
X303210Y732260D01*
X303210Y731478D01*
X303059Y731629D01*
X303043Y731639D01*
X303028Y731657D01*
X302528Y732057D01*
X302507Y732067D01*
X302486Y732086D01*
X301486Y732686D01*
X301473Y732690D01*
X301353Y732735D01*
X300153Y732935D01*
X300126Y732933D01*
X300090Y732940D01*
X299390Y732940D01*
X299379Y732938D01*
X299365Y732939D01*
X297865Y732839D01*
X297828Y732828D01*
X297762Y732818D01*
X296362Y732318D01*
X296333Y732299D01*
X296286Y732281D01*
X295186Y731581D01*
X295159Y731553D01*
X295107Y731514D01*
X294207Y730514D01*
X294194Y730491D01*
X294169Y730464D01*
X293469Y729364D01*
X293457Y729328D01*
X293427Y729272D01*
X293027Y727972D01*
X293026Y727957D01*
X293018Y727940D01*
X292718Y726540D01*
X292719Y726516D01*
X292711Y726485D01*
X292611Y724985D01*
X292614Y724963D01*
X292611Y724933D01*
X292711Y723533D01*
X292718Y723509D01*
X292720Y723475D01*
X293020Y722175D01*
X293032Y722150D01*
X293039Y722114D01*
X293539Y720914D01*
X293549Y720899D01*
X293556Y720878D01*
X294156Y719778D01*
X294182Y719749D01*
X294221Y719691D01*
X295121Y718791D01*
X295143Y718778D01*
X295166Y718752D01*
X296266Y717952D01*
X296302Y717937D01*
X296370Y717899D01*
X297570Y717499D01*
X297600Y717496D01*
X297640Y717483D01*
X299140Y717283D01*
X299179Y717287D01*
X299253Y717285D01*
X301053Y717585D01*
X301089Y717600D01*
X301160Y717620D01*
X301290Y717685D01*
X301760Y717920D01*
X301770Y717928D01*
X301786Y717934D01*
X302786Y718534D01*
X302806Y718554D01*
X302887Y718622D01*
X303110Y718901D01*
X303110Y711035D01*
X302562Y710816D01*
X302557Y710808D01*
X302551Y710810D01*
X301051Y709710D01*
X301050Y709706D01*
X301047Y709706D01*
X299847Y708606D01*
X299845Y708599D01*
X299840Y708599D01*
X298840Y707199D01*
X298840Y707194D01*
X298837Y707193D01*
X298037Y705693D01*
X298037Y705689D01*
X298034Y705688D01*
X297834Y705188D01*
X297838Y705176D01*
X297833Y705172D01*
X297833Y705171D01*
X297831Y705170D01*
X297831Y703470D01*
X297832Y703468D01*
X297831Y703467D01*
X297931Y701767D01*
X297934Y701764D01*
X297932Y701761D01*
X298232Y700161D01*
X298240Y700154D01*
X298237Y700147D01*
X299037Y698647D01*
X299041Y698645D01*
X299040Y698641D01*
X300040Y697241D01*
X300049Y697239D01*
X300048Y697232D01*
X301348Y696132D01*
X301356Y696132D01*
X301357Y696127D01*
X302857Y695327D01*
X302862Y695327D01*
X302863Y695324D01*
X304463Y694724D01*
X304471Y694726D01*
X304474Y694721D01*
X306074Y694521D01*
X306078Y694523D01*
X306080Y694521D01*
X309368Y694521D01*
X310531Y693940D01*
X310531Y690570D01*
X310534Y690566D01*
X310531Y690564D01*
X310731Y688964D01*
X310749Y688945D01*
X310749Y688932D01*
X311849Y688032D01*
X311871Y688031D01*
X311878Y688021D01*
X313978Y687921D01*
X313986Y687927D01*
G37*
G36*
X105541Y234467D02*
X105541Y234467D01*
X105555Y234465D01*
X105855Y234765D01*
X105856Y234777D01*
X105863Y234782D01*
X105858Y234789D01*
X105859Y234792D01*
X105869Y234800D01*
X105869Y247700D01*
X105856Y247718D01*
X105859Y247730D01*
X105559Y248130D01*
X105528Y248139D01*
X105520Y248149D01*
X69920Y248149D01*
X69911Y248142D01*
X69908Y248142D01*
X69904Y248139D01*
X69895Y248142D01*
X69395Y247842D01*
X69387Y247824D01*
X69376Y247822D01*
X66376Y241822D01*
X66377Y241817D01*
X66373Y241816D01*
X66173Y241216D01*
X66175Y241212D01*
X66174Y241211D01*
X66176Y241209D01*
X66182Y241190D01*
X66176Y241178D01*
X69176Y235078D01*
X69476Y234478D01*
X69513Y234460D01*
X69520Y234451D01*
X105520Y234451D01*
X105541Y234467D01*
G37*
G36*
X105438Y183664D02*
X105438Y183664D01*
X105450Y183661D01*
X105850Y183961D01*
X105854Y183977D01*
X105861Y183982D01*
X105857Y183988D01*
X105859Y183992D01*
X105869Y184000D01*
X105869Y196900D01*
X105856Y196918D01*
X105859Y196930D01*
X105559Y197330D01*
X105528Y197339D01*
X105520Y197349D01*
X67920Y197349D01*
X67916Y197346D01*
X67911Y197348D01*
X67906Y197339D01*
X67873Y197313D01*
X67877Y197307D01*
X67876Y197306D01*
X67884Y197295D01*
X67876Y197278D01*
X68176Y196678D01*
X71167Y190696D01*
X70974Y190119D01*
X67976Y184022D01*
X67978Y184011D01*
X67976Y184009D01*
X67979Y184004D01*
X67983Y183984D01*
X67979Y183973D01*
X68179Y183673D01*
X68212Y183661D01*
X68220Y183651D01*
X105420Y183651D01*
X105438Y183664D01*
G37*
G36*
X105658Y259880D02*
X105658Y259880D01*
X105666Y259882D01*
X105866Y260382D01*
X105862Y260395D01*
X105869Y260400D01*
X105869Y273200D01*
X105850Y273226D01*
X105850Y273239D01*
X105450Y273539D01*
X105432Y273539D01*
X105429Y273542D01*
X105425Y273542D01*
X105420Y273549D01*
X69920Y273549D01*
X69919Y273548D01*
X69918Y273549D01*
X69915Y273546D01*
X69873Y273513D01*
X69877Y273508D01*
X69875Y273506D01*
X69882Y273497D01*
X69873Y273484D01*
X70073Y272884D01*
X70078Y272881D01*
X70076Y272878D01*
X73167Y266796D01*
X72974Y266219D01*
X69976Y260122D01*
X69978Y260111D01*
X69977Y260110D01*
X69978Y260109D01*
X69987Y260063D01*
X69992Y260064D01*
X69993Y260059D01*
X70293Y259859D01*
X70313Y259860D01*
X70320Y259851D01*
X105620Y259851D01*
X105658Y259880D01*
G37*
G36*
X247293Y687933D02*
X247293Y687933D01*
X247306Y687928D01*
X248606Y688728D01*
X248613Y688748D01*
X248625Y688751D01*
X248925Y689451D01*
X250323Y692746D01*
X251606Y694621D01*
X254972Y694621D01*
X256131Y694235D01*
X256131Y690770D01*
X256135Y690765D01*
X256132Y690761D01*
X256432Y689161D01*
X256448Y689146D01*
X256447Y689133D01*
X257447Y688233D01*
X257469Y688232D01*
X257475Y688221D01*
X259575Y688021D01*
X259587Y688028D01*
X259594Y688023D01*
X261294Y688523D01*
X261311Y688545D01*
X261324Y688548D01*
X261924Y689748D01*
X261921Y689762D01*
X261929Y689767D01*
X262029Y691567D01*
X262028Y691569D01*
X262029Y691570D01*
X262029Y710270D01*
X262019Y710284D01*
X262023Y710293D01*
X261323Y711593D01*
X261297Y711605D01*
X261291Y711618D01*
X259591Y712018D01*
X259584Y712015D01*
X259580Y712019D01*
X252580Y712019D01*
X252578Y712018D01*
X252577Y712019D01*
X250977Y711919D01*
X250972Y711915D01*
X250968Y711918D01*
X249368Y711518D01*
X249363Y711511D01*
X249357Y711513D01*
X247857Y710713D01*
X247855Y710710D01*
X247853Y710711D01*
X246353Y709711D01*
X246350Y709703D01*
X246344Y709703D01*
X245244Y708503D01*
X245243Y708498D01*
X245239Y708497D01*
X244239Y706997D01*
X244240Y706987D01*
X244233Y706985D01*
X243733Y705385D01*
X243735Y705380D01*
X243732Y705379D01*
X243432Y703679D01*
X243435Y703671D01*
X243431Y703667D01*
X243531Y701967D01*
X243535Y701962D01*
X243532Y701959D01*
X243932Y700259D01*
X243938Y700254D01*
X243935Y700249D01*
X244635Y698749D01*
X244644Y698745D01*
X244642Y698738D01*
X245727Y697456D01*
X245532Y696384D01*
X244935Y694889D01*
X244135Y693090D01*
X244136Y693086D01*
X244133Y693086D01*
X243833Y692186D01*
X243834Y692184D01*
X243833Y692184D01*
X243333Y690484D01*
X243341Y690462D01*
X243335Y690451D01*
X243835Y689251D01*
X243854Y689240D01*
X243856Y689227D01*
X245656Y688227D01*
X245667Y688229D01*
X245671Y688222D01*
X247271Y687922D01*
X247293Y687933D01*
G37*
G36*
X-36814Y796108D02*
X-36814Y796108D01*
X-36748Y796113D01*
X-36730Y796124D01*
X-36709Y796129D01*
X-36624Y796189D01*
X-36600Y796203D01*
X-36597Y796208D01*
X-36592Y796212D01*
X-34392Y798512D01*
X-34384Y798525D01*
X-34371Y798535D01*
X-34340Y798599D01*
X-34304Y798661D01*
X-34303Y798677D01*
X-34296Y798691D01*
X-34297Y798762D01*
X-34291Y798833D01*
X-34298Y798848D01*
X-34298Y798864D01*
X-34355Y798989D01*
X-34357Y798993D01*
X-34357Y798994D01*
X-36226Y801609D01*
X-36223Y801620D01*
X-36214Y801633D01*
X-36203Y801691D01*
X-36194Y801712D01*
X-36194Y801734D01*
X-36188Y801767D01*
X-36187Y801772D01*
X-36187Y801773D01*
X-36187Y801774D01*
X-36187Y801784D01*
X-36154Y801849D01*
X-36098Y801906D01*
X-36087Y801924D01*
X-36075Y801933D01*
X-36067Y801952D01*
X-36027Y802004D01*
X-35954Y802149D01*
X-35898Y802206D01*
X-35858Y802270D01*
X-35814Y802333D01*
X-35812Y802345D01*
X-35807Y802353D01*
X-35803Y802388D01*
X-35787Y802474D01*
X-35787Y802523D01*
X-35758Y802570D01*
X-35714Y802633D01*
X-35712Y802645D01*
X-35707Y802653D01*
X-35703Y802688D01*
X-35687Y802774D01*
X-35687Y802884D01*
X-35654Y802949D01*
X-35598Y803006D01*
X-35558Y803070D01*
X-35514Y803133D01*
X-35512Y803145D01*
X-35507Y803153D01*
X-35503Y803188D01*
X-35497Y803221D01*
X-35494Y803229D01*
X-35494Y803237D01*
X-35487Y803274D01*
X-35487Y803323D01*
X-35458Y803370D01*
X-35414Y803433D01*
X-35412Y803445D01*
X-35407Y803453D01*
X-35403Y803488D01*
X-35387Y803574D01*
X-35387Y803684D01*
X-35358Y803742D01*
X-32102Y804300D01*
X-32084Y804307D01*
X-32065Y804308D01*
X-32005Y804341D01*
X-31943Y804367D01*
X-31930Y804382D01*
X-31913Y804391D01*
X-31874Y804447D01*
X-31830Y804498D01*
X-31825Y804517D01*
X-31814Y804533D01*
X-31792Y804644D01*
X-31787Y804666D01*
X-31788Y804670D01*
X-31787Y804674D01*
X-31787Y807874D01*
X-31791Y807893D01*
X-31789Y807912D01*
X-31800Y807946D01*
X-31801Y807953D01*
X-31806Y807963D01*
X-31811Y807976D01*
X-31826Y808042D01*
X-31839Y808057D01*
X-31845Y808075D01*
X-31893Y808123D01*
X-31936Y808176D01*
X-31954Y808183D01*
X-31968Y808197D01*
X-32074Y808237D01*
X-32094Y808246D01*
X-32098Y808246D01*
X-32102Y808248D01*
X-35314Y808798D01*
X-35325Y808837D01*
X-35326Y808842D01*
X-35327Y808843D01*
X-35387Y808963D01*
X-35387Y808974D01*
X-35390Y808989D01*
X-35388Y809005D01*
X-35408Y809075D01*
X-35408Y809090D01*
X-35416Y809104D01*
X-35425Y809137D01*
X-35426Y809142D01*
X-35427Y809143D01*
X-35487Y809263D01*
X-35487Y809274D01*
X-35490Y809289D01*
X-35488Y809305D01*
X-35525Y809437D01*
X-35526Y809442D01*
X-35527Y809443D01*
X-35687Y809763D01*
X-35687Y809774D01*
X-35690Y809789D01*
X-35688Y809805D01*
X-35725Y809937D01*
X-35726Y809942D01*
X-35727Y809943D01*
X-35827Y810143D01*
X-35850Y810171D01*
X-35887Y810225D01*
X-35887Y810274D01*
X-35904Y810348D01*
X-35918Y810423D01*
X-35924Y810433D01*
X-35926Y810442D01*
X-35949Y810470D01*
X-35998Y810542D01*
X-36054Y810598D01*
X-36127Y810743D01*
X-36150Y810771D01*
X-36187Y810825D01*
X-36187Y810874D01*
X-36204Y810948D01*
X-36208Y810970D01*
X-34354Y813658D01*
X-34348Y813674D01*
X-34336Y813687D01*
X-34316Y813754D01*
X-34291Y813819D01*
X-34292Y813837D01*
X-34287Y813853D01*
X-34300Y813922D01*
X-34306Y813992D01*
X-34315Y814006D01*
X-34318Y814023D01*
X-34389Y814129D01*
X-34396Y814140D01*
X-34397Y814140D01*
X-34398Y814142D01*
X-36598Y816342D01*
X-36612Y816351D01*
X-36623Y816365D01*
X-36685Y816396D01*
X-36745Y816433D01*
X-36762Y816435D01*
X-36777Y816442D01*
X-36848Y816443D01*
X-36917Y816449D01*
X-36933Y816443D01*
X-36950Y816443D01*
X-37068Y816392D01*
X-37079Y816388D01*
X-37080Y816387D01*
X-37081Y816386D01*
X-39780Y814524D01*
X-39798Y814542D01*
X-39863Y814582D01*
X-39925Y814626D01*
X-39937Y814628D01*
X-39945Y814633D01*
X-39980Y814636D01*
X-40066Y814653D01*
X-40116Y814653D01*
X-40128Y814661D01*
X-40196Y814713D01*
X-40341Y814785D01*
X-40398Y814842D01*
X-40463Y814882D01*
X-40525Y814926D01*
X-40537Y814928D01*
X-40545Y814933D01*
X-40580Y814936D01*
X-40666Y814953D01*
X-40716Y814953D01*
X-40728Y814961D01*
X-40796Y815013D01*
X-40996Y815113D01*
X-41012Y815117D01*
X-41025Y815126D01*
X-41159Y815152D01*
X-41165Y815153D01*
X-41166Y815153D01*
X-41176Y815153D01*
X-41296Y815213D01*
X-41312Y815217D01*
X-41325Y815226D01*
X-41459Y815252D01*
X-41465Y815253D01*
X-41466Y815253D01*
X-41516Y815253D01*
X-41563Y815282D01*
X-41625Y815326D01*
X-41637Y815328D01*
X-41645Y815333D01*
X-41680Y815336D01*
X-41766Y815353D01*
X-41876Y815353D01*
X-41934Y815382D01*
X-42492Y818638D01*
X-42500Y818656D01*
X-42501Y818675D01*
X-42533Y818734D01*
X-42560Y818797D01*
X-42574Y818810D01*
X-42584Y818827D01*
X-42639Y818866D01*
X-42691Y818910D01*
X-42710Y818915D01*
X-42725Y818926D01*
X-42836Y818947D01*
X-42858Y818953D01*
X-42862Y818952D01*
X-42866Y818953D01*
X-46066Y818953D01*
X-46085Y818949D01*
X-46104Y818951D01*
X-46168Y818929D01*
X-46234Y818913D01*
X-46249Y818901D01*
X-46268Y818895D01*
X-46316Y818847D01*
X-46368Y818803D01*
X-46376Y818786D01*
X-46389Y818772D01*
X-46429Y818666D01*
X-46438Y818645D01*
X-46438Y818642D01*
X-46440Y818638D01*
X-46990Y815426D01*
X-47029Y815415D01*
X-47034Y815413D01*
X-47035Y815413D01*
X-47036Y815413D01*
X-47156Y815353D01*
X-47166Y815353D01*
X-47182Y815349D01*
X-47198Y815352D01*
X-47329Y815315D01*
X-47334Y815313D01*
X-47335Y815313D01*
X-47336Y815313D01*
X-47456Y815253D01*
X-47466Y815253D01*
X-47482Y815249D01*
X-47498Y815252D01*
X-47629Y815215D01*
X-47634Y815213D01*
X-47635Y815213D01*
X-47636Y815213D01*
X-47756Y815153D01*
X-47866Y815153D01*
X-47940Y815136D01*
X-48016Y815122D01*
X-48025Y815116D01*
X-48034Y815113D01*
X-48062Y815091D01*
X-48134Y815042D01*
X-48191Y814985D01*
X-48256Y814953D01*
X-48266Y814953D01*
X-48282Y814949D01*
X-48298Y814952D01*
X-48429Y814915D01*
X-48434Y814913D01*
X-48435Y814913D01*
X-48436Y814913D01*
X-48636Y814813D01*
X-48663Y814790D01*
X-48734Y814742D01*
X-48791Y814685D01*
X-48856Y814653D01*
X-48866Y814653D01*
X-48882Y814649D01*
X-48898Y814652D01*
X-49029Y814615D01*
X-49034Y814613D01*
X-49035Y814613D01*
X-49036Y814613D01*
X-49177Y814542D01*
X-51851Y816386D01*
X-51863Y816391D01*
X-51872Y816400D01*
X-51943Y816422D01*
X-52012Y816449D01*
X-52025Y816448D01*
X-52037Y816452D01*
X-52110Y816440D01*
X-52184Y816434D01*
X-52195Y816427D01*
X-52208Y816425D01*
X-52328Y816348D01*
X-54628Y814148D01*
X-54642Y814126D01*
X-54662Y814110D01*
X-54689Y814054D01*
X-54723Y814003D01*
X-54726Y813977D01*
X-54737Y813954D01*
X-54736Y813892D01*
X-54743Y813831D01*
X-54734Y813807D01*
X-54734Y813781D01*
X-54696Y813701D01*
X-54685Y813668D01*
X-54678Y813662D01*
X-54673Y813651D01*
X-52738Y810978D01*
X-52778Y810898D01*
X-52834Y810842D01*
X-52874Y810777D01*
X-52918Y810714D01*
X-52920Y810703D01*
X-52925Y810695D01*
X-52929Y810660D01*
X-52945Y810574D01*
X-52945Y810524D01*
X-52953Y810511D01*
X-53005Y810443D01*
X-53078Y810298D01*
X-53134Y810242D01*
X-53174Y810177D01*
X-53218Y810114D01*
X-53220Y810103D01*
X-53225Y810095D01*
X-53229Y810060D01*
X-53245Y809974D01*
X-53245Y809924D01*
X-53274Y809877D01*
X-53318Y809814D01*
X-53320Y809803D01*
X-53325Y809795D01*
X-53329Y809760D01*
X-53345Y809674D01*
X-53345Y809563D01*
X-53378Y809498D01*
X-53434Y809442D01*
X-53474Y809377D01*
X-53518Y809314D01*
X-53520Y809303D01*
X-53525Y809295D01*
X-53529Y809260D01*
X-53545Y809174D01*
X-53545Y809124D01*
X-53574Y809077D01*
X-53618Y809014D01*
X-53620Y809003D01*
X-53625Y808995D01*
X-53629Y808960D01*
X-53645Y808874D01*
X-53645Y808795D01*
X-56928Y808248D01*
X-56947Y808240D01*
X-56967Y808239D01*
X-57026Y808207D01*
X-57088Y808181D01*
X-57101Y808166D01*
X-57119Y808156D01*
X-57158Y808101D01*
X-57202Y808051D01*
X-57207Y808031D01*
X-57218Y808014D01*
X-57234Y807933D01*
X-57238Y807923D01*
X-57238Y807912D01*
X-57239Y807908D01*
X-57245Y807883D01*
X-57244Y807879D01*
X-57245Y807874D01*
X-57245Y804674D01*
X-57241Y804655D01*
X-57243Y804636D01*
X-57221Y804571D01*
X-57206Y804505D01*
X-57193Y804490D01*
X-57187Y804472D01*
X-57139Y804424D01*
X-57096Y804372D01*
X-57078Y804364D01*
X-57064Y804350D01*
X-56958Y804310D01*
X-56938Y804301D01*
X-56934Y804301D01*
X-56930Y804300D01*
X-53642Y803736D01*
X-53607Y803611D01*
X-53606Y803605D01*
X-53605Y803605D01*
X-53605Y803604D01*
X-53545Y803484D01*
X-53545Y803474D01*
X-53542Y803458D01*
X-53544Y803442D01*
X-53507Y803311D01*
X-53506Y803305D01*
X-53505Y803305D01*
X-53505Y803304D01*
X-53445Y803184D01*
X-53445Y803174D01*
X-53442Y803158D01*
X-53444Y803142D01*
X-53407Y803011D01*
X-53406Y803005D01*
X-53405Y803005D01*
X-53405Y803004D01*
X-53245Y802684D01*
X-53245Y802674D01*
X-53242Y802658D01*
X-53244Y802642D01*
X-53207Y802511D01*
X-53206Y802505D01*
X-53205Y802505D01*
X-53205Y802504D01*
X-53105Y802304D01*
X-53082Y802276D01*
X-53034Y802206D01*
X-52978Y802149D01*
X-52945Y802084D01*
X-52945Y802074D01*
X-52942Y802058D01*
X-52944Y802042D01*
X-52907Y801911D01*
X-52906Y801905D01*
X-52905Y801905D01*
X-52905Y801904D01*
X-52805Y801704D01*
X-52782Y801676D01*
X-52734Y801606D01*
X-52724Y801595D01*
X-54669Y799001D01*
X-54679Y798979D01*
X-54696Y798960D01*
X-54714Y798900D01*
X-54739Y798843D01*
X-54738Y798818D01*
X-54745Y798794D01*
X-54734Y798733D01*
X-54731Y798670D01*
X-54719Y798648D01*
X-54714Y798624D01*
X-54663Y798549D01*
X-54647Y798519D01*
X-54640Y798514D01*
X-54634Y798506D01*
X-52334Y796206D01*
X-52320Y796197D01*
X-52309Y796183D01*
X-52247Y796151D01*
X-52187Y796114D01*
X-52170Y796113D01*
X-52155Y796105D01*
X-52085Y796105D01*
X-52015Y796098D01*
X-51999Y796104D01*
X-51982Y796104D01*
X-51864Y796156D01*
X-51853Y796160D01*
X-51852Y796161D01*
X-51851Y796161D01*
X-49152Y798023D01*
X-49134Y798006D01*
X-49069Y797965D01*
X-49007Y797921D01*
X-48995Y797919D01*
X-48987Y797914D01*
X-48952Y797911D01*
X-48937Y797908D01*
X-48934Y797906D01*
X-48869Y797865D01*
X-48807Y797821D01*
X-48795Y797819D01*
X-48787Y797814D01*
X-48752Y797811D01*
X-48666Y797794D01*
X-48616Y797794D01*
X-48569Y797765D01*
X-48507Y797721D01*
X-48495Y797719D01*
X-48487Y797714D01*
X-48452Y797711D01*
X-48437Y797708D01*
X-48434Y797706D01*
X-48369Y797665D01*
X-48307Y797621D01*
X-48295Y797619D01*
X-48287Y797614D01*
X-48252Y797611D01*
X-48237Y797608D01*
X-48234Y797606D01*
X-48169Y797565D01*
X-48107Y797521D01*
X-48095Y797519D01*
X-48087Y797514D01*
X-48052Y797511D01*
X-48023Y797505D01*
X-47996Y797472D01*
X-47977Y797464D01*
X-47962Y797449D01*
X-47899Y797429D01*
X-47838Y797401D01*
X-47817Y797402D01*
X-47798Y797396D01*
X-47732Y797406D01*
X-47665Y797408D01*
X-47647Y797418D01*
X-47627Y797421D01*
X-47572Y797459D01*
X-47513Y797491D01*
X-47501Y797508D01*
X-47485Y797520D01*
X-47428Y797612D01*
X-47414Y797633D01*
X-47413Y797638D01*
X-47410Y797642D01*
X-45410Y803042D01*
X-45407Y803073D01*
X-45394Y803101D01*
X-45396Y803157D01*
X-45389Y803214D01*
X-45399Y803243D01*
X-45400Y803274D01*
X-45427Y803324D01*
X-45446Y803377D01*
X-45468Y803399D01*
X-45483Y803426D01*
X-45543Y803472D01*
X-45570Y803498D01*
X-45583Y803502D01*
X-45596Y803513D01*
X-46141Y803785D01*
X-46298Y803942D01*
X-46328Y803961D01*
X-46396Y804013D01*
X-46541Y804085D01*
X-46854Y804398D01*
X-46927Y804543D01*
X-46950Y804571D01*
X-46998Y804642D01*
X-47154Y804798D01*
X-47215Y804919D01*
X-47306Y805194D01*
X-47318Y805213D01*
X-47327Y805243D01*
X-47387Y805363D01*
X-47387Y805474D01*
X-47395Y805509D01*
X-47406Y805594D01*
X-47487Y805835D01*
X-47487Y806612D01*
X-47406Y806854D01*
X-47403Y806890D01*
X-47387Y806974D01*
X-47387Y807159D01*
X-47250Y807363D01*
X-47237Y807398D01*
X-47206Y807454D01*
X-47122Y807706D01*
X-46771Y808232D01*
X-46425Y808579D01*
X-45898Y808930D01*
X-45646Y809014D01*
X-45628Y809025D01*
X-45614Y809028D01*
X-45601Y809039D01*
X-45556Y809058D01*
X-45351Y809194D01*
X-45166Y809194D01*
X-45131Y809203D01*
X-45046Y809214D01*
X-44804Y809294D01*
X-44213Y809294D01*
X-43858Y809206D01*
X-43822Y809205D01*
X-43766Y809194D01*
X-43581Y809194D01*
X-43376Y809058D01*
X-43341Y809045D01*
X-43292Y809017D01*
X-43290Y809016D01*
X-43289Y809016D01*
X-43286Y809014D01*
X-43034Y808930D01*
X-42808Y808779D01*
X-42634Y808606D01*
X-42608Y808589D01*
X-42576Y808558D01*
X-42308Y808379D01*
X-42161Y808232D01*
X-41810Y807706D01*
X-41445Y806612D01*
X-41445Y806135D01*
X-41526Y805894D01*
X-41529Y805858D01*
X-41545Y805774D01*
X-41545Y805563D01*
X-41705Y805243D01*
X-41711Y805221D01*
X-41726Y805194D01*
X-41817Y804919D01*
X-41978Y804598D01*
X-42134Y804442D01*
X-42153Y804411D01*
X-42205Y804343D01*
X-42278Y804198D01*
X-42391Y804085D01*
X-42536Y804013D01*
X-42563Y803990D01*
X-42634Y803942D01*
X-42791Y803785D01*
X-43112Y803625D01*
X-43386Y803533D01*
X-43435Y803503D01*
X-43488Y803481D01*
X-43508Y803459D01*
X-43533Y803443D01*
X-43564Y803394D01*
X-43601Y803351D01*
X-43609Y803322D01*
X-43625Y803296D01*
X-43631Y803239D01*
X-43645Y803183D01*
X-43639Y803149D01*
X-43642Y803124D01*
X-43630Y803092D01*
X-43622Y803042D01*
X-41622Y797642D01*
X-41596Y797604D01*
X-41580Y797561D01*
X-41549Y797533D01*
X-41526Y797498D01*
X-41486Y797475D01*
X-41453Y797444D01*
X-41413Y797432D01*
X-41376Y797411D01*
X-41331Y797408D01*
X-41287Y797395D01*
X-41246Y797402D01*
X-41204Y797400D01*
X-41161Y797417D01*
X-41116Y797425D01*
X-41075Y797453D01*
X-41044Y797466D01*
X-41027Y797486D01*
X-41014Y797494D01*
X-40966Y797494D01*
X-40892Y797512D01*
X-40816Y797525D01*
X-40807Y797532D01*
X-40798Y797534D01*
X-40770Y797557D01*
X-40698Y797606D01*
X-40691Y797612D01*
X-40616Y797625D01*
X-40607Y797632D01*
X-40598Y797634D01*
X-40570Y797657D01*
X-40498Y797706D01*
X-40491Y797712D01*
X-40416Y797725D01*
X-40407Y797732D01*
X-40398Y797734D01*
X-40370Y797757D01*
X-40298Y797806D01*
X-40291Y797812D01*
X-40216Y797825D01*
X-40207Y797832D01*
X-40198Y797834D01*
X-40170Y797857D01*
X-40098Y797906D01*
X-40091Y797912D01*
X-40016Y797925D01*
X-40007Y797932D01*
X-39998Y797934D01*
X-39970Y797957D01*
X-39898Y798006D01*
X-39891Y798012D01*
X-39816Y798025D01*
X-39807Y798032D01*
X-39798Y798034D01*
X-39797Y798034D01*
X-37081Y796161D01*
X-37061Y796154D01*
X-37045Y796140D01*
X-36982Y796122D01*
X-36920Y796098D01*
X-36899Y796100D01*
X-36878Y796095D01*
X-36814Y796108D01*
G37*
G36*
X196492Y688222D02*
X196492Y688222D01*
X196503Y688236D01*
X196514Y688234D01*
X197914Y689534D01*
X197914Y689538D01*
X197917Y689537D01*
X204541Y697051D01*
X204631Y695968D01*
X204631Y690870D01*
X204635Y690865D01*
X204632Y690861D01*
X204932Y689261D01*
X204951Y689244D01*
X204951Y689230D01*
X206051Y688430D01*
X206069Y688431D01*
X206075Y688421D01*
X208175Y688221D01*
X208187Y688228D01*
X208194Y688223D01*
X209894Y688723D01*
X209912Y688747D01*
X209925Y688750D01*
X210425Y689850D01*
X210422Y689862D01*
X210429Y689867D01*
X210529Y691667D01*
X210528Y691669D01*
X210529Y691670D01*
X210529Y710270D01*
X210520Y710282D01*
X210525Y710291D01*
X209925Y711591D01*
X209900Y711604D01*
X209896Y711617D01*
X208396Y712117D01*
X208383Y712113D01*
X208378Y712119D01*
X206178Y712019D01*
X206163Y712007D01*
X206153Y712011D01*
X204953Y711211D01*
X204946Y711190D01*
X204932Y711180D01*
X204632Y709680D01*
X204635Y709673D01*
X204631Y709670D01*
X204631Y704472D01*
X204540Y703290D01*
X200917Y707403D01*
X197917Y710803D01*
X197915Y710803D01*
X197915Y710805D01*
X196615Y712105D01*
X196599Y712107D01*
X196596Y712117D01*
X195396Y712517D01*
X195369Y712508D01*
X195357Y712513D01*
X193857Y711713D01*
X193852Y711704D01*
X193845Y711705D01*
X192445Y710305D01*
X192444Y710294D01*
X192443Y710294D01*
X192444Y710293D01*
X192442Y710283D01*
X192431Y710278D01*
X192231Y708978D01*
X192243Y708957D01*
X192238Y708945D01*
X193138Y707445D01*
X193142Y707443D01*
X193142Y707439D01*
X193942Y706439D01*
X193946Y706438D01*
X193945Y706435D01*
X195044Y705336D01*
X196144Y704137D01*
X196147Y704136D01*
X196147Y704134D01*
X197546Y702834D01*
X199045Y701335D01*
X199047Y701335D01*
X199047Y701334D01*
X200209Y700268D01*
X196045Y696105D01*
X196045Y696104D01*
X196044Y696104D01*
X193244Y693104D01*
X193243Y693097D01*
X193238Y693096D01*
X192238Y691496D01*
X192239Y691485D01*
X192233Y691480D01*
X192238Y691473D01*
X192231Y691466D01*
X192331Y690166D01*
X192347Y690148D01*
X192345Y690135D01*
X193745Y688735D01*
X193756Y688734D01*
X193757Y688727D01*
X195257Y687927D01*
X195282Y687931D01*
X195292Y687922D01*
X196492Y688222D01*
G37*
G36*
X285182Y687922D02*
X285182Y687922D01*
X285183Y687921D01*
X286883Y688021D01*
X286889Y688026D01*
X286894Y688023D01*
X288594Y688523D01*
X288600Y688531D01*
X288607Y688529D01*
X290007Y689429D01*
X290007Y689431D01*
X290009Y689430D01*
X291509Y690530D01*
X291511Y690537D01*
X291516Y690537D01*
X292516Y691637D01*
X292517Y691646D01*
X292523Y691647D01*
X293323Y693147D01*
X293320Y693171D01*
X293328Y693181D01*
X293028Y694481D01*
X293014Y694493D01*
X293016Y694504D01*
X291716Y695904D01*
X291698Y695907D01*
X291695Y695917D01*
X290095Y696417D01*
X290073Y696409D01*
X290062Y696416D01*
X288762Y695916D01*
X288755Y695905D01*
X288747Y695906D01*
X287349Y694609D01*
X285863Y693618D01*
X284086Y693420D01*
X282514Y694010D01*
X281833Y695178D01*
X282222Y696737D01*
X283697Y697523D01*
X285289Y697822D01*
X285290Y697823D01*
X285291Y697822D01*
X286991Y698222D01*
X286996Y698227D01*
X287000Y698225D01*
X288600Y698925D01*
X288600Y698926D01*
X288601Y698925D01*
X290101Y699625D01*
X290105Y699634D01*
X290112Y699632D01*
X291312Y700632D01*
X291314Y700642D01*
X291321Y700643D01*
X292321Y702143D01*
X292320Y702152D01*
X292327Y702154D01*
X292827Y703654D01*
X292824Y703662D01*
X292829Y703665D01*
X293029Y705465D01*
X293025Y705472D01*
X293029Y705476D01*
X292829Y707076D01*
X292822Y707083D01*
X292826Y707088D01*
X292226Y708588D01*
X292218Y708593D01*
X292220Y708599D01*
X291220Y709999D01*
X291213Y710001D01*
X291213Y710006D01*
X290013Y711106D01*
X290005Y711107D01*
X290004Y711113D01*
X288604Y711913D01*
X288595Y711911D01*
X288592Y711918D01*
X286992Y712318D01*
X286987Y712316D01*
X286985Y712319D01*
X285085Y712519D01*
X285080Y712516D01*
X285077Y712519D01*
X283277Y712419D01*
X283274Y712416D01*
X283271Y712418D01*
X281671Y712118D01*
X281666Y712113D01*
X281661Y712116D01*
X279961Y711416D01*
X279958Y711409D01*
X279953Y711411D01*
X278753Y710611D01*
X278750Y710604D01*
X278745Y710605D01*
X277445Y709305D01*
X277441Y709275D01*
X277431Y709266D01*
X277531Y707966D01*
X277542Y707953D01*
X277539Y707943D01*
X278639Y706243D01*
X278652Y706239D01*
X278652Y706230D01*
X279952Y705330D01*
X279980Y705331D01*
X279990Y705322D01*
X281390Y705622D01*
X281399Y705632D01*
X281407Y705629D01*
X282902Y706625D01*
X284385Y707120D01*
X286155Y706923D01*
X287126Y705758D01*
X286738Y704203D01*
X285261Y703416D01*
X282067Y702517D01*
X282066Y702517D01*
X280366Y702017D01*
X280364Y702014D01*
X280362Y702016D01*
X278862Y701416D01*
X278857Y701407D01*
X278850Y701409D01*
X277550Y700409D01*
X277547Y700397D01*
X277539Y700397D01*
X276639Y698997D01*
X276639Y698987D01*
X276633Y698985D01*
X276133Y697385D01*
X276135Y697378D01*
X276131Y697375D01*
X275931Y695575D01*
X275935Y695568D01*
X275934Y695568D01*
X275935Y695568D01*
X275931Y695564D01*
X276131Y693864D01*
X276138Y693857D01*
X276134Y693852D01*
X276734Y692352D01*
X276739Y692349D01*
X276738Y692345D01*
X277638Y690845D01*
X277647Y690841D01*
X277647Y690834D01*
X278847Y689734D01*
X278853Y689733D01*
X278853Y689729D01*
X280253Y688829D01*
X280261Y688829D01*
X280263Y688824D01*
X281863Y688224D01*
X281869Y688226D01*
X281871Y688222D01*
X283471Y687922D01*
X283477Y687925D01*
X283480Y687921D01*
X285180Y687921D01*
X285182Y687922D01*
G37*
G36*
X257840Y734791D02*
X257840Y734791D01*
X257891Y734793D01*
X257923Y734811D01*
X257959Y734819D01*
X257998Y734852D01*
X258043Y734876D01*
X258064Y734906D01*
X258092Y734929D01*
X258113Y734976D01*
X258143Y735018D01*
X258151Y735060D01*
X258163Y735088D01*
X258162Y735118D01*
X258170Y735160D01*
X258170Y747960D01*
X258166Y747978D01*
X258168Y748002D01*
X257968Y749802D01*
X257957Y749833D01*
X257951Y749880D01*
X257751Y750480D01*
X257738Y750500D01*
X257730Y750530D01*
X257430Y751130D01*
X257422Y751140D01*
X257416Y751156D01*
X257116Y751656D01*
X257102Y751670D01*
X257093Y751689D01*
X257016Y751759D01*
X256995Y751780D01*
X256990Y751782D01*
X256986Y751786D01*
X256502Y752076D01*
X256118Y752364D01*
X256083Y752379D01*
X256031Y752413D01*
X255031Y752813D01*
X254998Y752818D01*
X254953Y752835D01*
X254353Y752935D01*
X254326Y752933D01*
X254290Y752940D01*
X253490Y752940D01*
X253454Y752932D01*
X253398Y752929D01*
X253043Y752840D01*
X252890Y752840D01*
X252875Y752837D01*
X252860Y752839D01*
X252728Y752802D01*
X252721Y752801D01*
X252721Y752800D01*
X252720Y752800D01*
X252520Y752700D01*
X252501Y752684D01*
X252477Y752675D01*
X252435Y752629D01*
X252387Y752589D01*
X252377Y752567D01*
X252360Y752548D01*
X252342Y752488D01*
X252316Y752431D01*
X252318Y752406D01*
X252310Y752382D01*
X252321Y752320D01*
X252324Y752258D01*
X252336Y752236D01*
X252340Y752211D01*
X252389Y752138D01*
X252407Y752106D01*
X252415Y752101D01*
X252421Y752091D01*
X252521Y751991D01*
X252553Y751971D01*
X252620Y751920D01*
X253020Y751720D01*
X253043Y751714D01*
X253070Y751699D01*
X253285Y751628D01*
X253595Y751318D01*
X253745Y751092D01*
X253810Y750898D01*
X253810Y750722D01*
X253738Y750506D01*
X253578Y750185D01*
X253348Y749956D01*
X253112Y749798D01*
X252681Y749626D01*
X252252Y749540D01*
X251537Y749540D01*
X250846Y749713D01*
X250350Y750044D01*
X250029Y750445D01*
X249870Y750922D01*
X249870Y751482D01*
X250116Y752055D01*
X250776Y752809D01*
X251574Y753707D01*
X251575Y753709D01*
X251576Y753710D01*
X252276Y754510D01*
X252292Y754539D01*
X252322Y754575D01*
X252822Y755475D01*
X252833Y755513D01*
X252861Y755578D01*
X253061Y756478D01*
X253061Y756511D01*
X253070Y756560D01*
X253070Y757360D01*
X253062Y757397D01*
X253051Y757480D01*
X252751Y758380D01*
X252730Y758414D01*
X252699Y758481D01*
X252199Y759181D01*
X252173Y759204D01*
X252143Y759244D01*
X251243Y760044D01*
X251212Y760061D01*
X251172Y760094D01*
X250072Y760694D01*
X250036Y760704D01*
X249958Y760734D01*
X248858Y760934D01*
X248829Y760933D01*
X248790Y760940D01*
X247790Y760940D01*
X247753Y760932D01*
X247670Y760921D01*
X246770Y760621D01*
X246764Y760617D01*
X246757Y760616D01*
X245957Y760316D01*
X245942Y760306D01*
X245920Y760300D01*
X245754Y760217D01*
X245320Y760000D01*
X245298Y759982D01*
X245262Y759964D01*
X244862Y759664D01*
X244847Y759646D01*
X244821Y759629D01*
X244721Y759529D01*
X244708Y759507D01*
X244688Y759491D01*
X244662Y759434D01*
X244630Y759382D01*
X244627Y759356D01*
X244617Y759332D01*
X244619Y759271D01*
X244613Y759209D01*
X244622Y759185D01*
X244623Y759159D01*
X244653Y759105D01*
X244675Y759047D01*
X244694Y759030D01*
X244706Y759007D01*
X244757Y758972D01*
X244802Y758930D01*
X244827Y758922D01*
X244848Y758907D01*
X244932Y758891D01*
X244968Y758880D01*
X244978Y758882D01*
X244990Y758880D01*
X245290Y758880D01*
X245327Y758888D01*
X245410Y758899D01*
X245652Y758980D01*
X245843Y758980D01*
X246198Y758891D01*
X246206Y758891D01*
X246215Y758887D01*
X246666Y758797D01*
X246989Y758635D01*
X247310Y758395D01*
X247445Y758192D01*
X247529Y757940D01*
X247542Y757920D01*
X247550Y757890D01*
X247638Y757714D01*
X247689Y757560D01*
X247629Y757380D01*
X247628Y757367D01*
X247621Y757352D01*
X247537Y757016D01*
X247374Y756771D01*
X247366Y756751D01*
X247350Y756730D01*
X247178Y756385D01*
X246948Y756156D01*
X246679Y755976D01*
X246672Y755969D01*
X246662Y755964D01*
X246270Y755671D01*
X245999Y755490D01*
X245567Y755274D01*
X245300Y755140D01*
X244752Y755140D01*
X244559Y755205D01*
X244410Y755304D01*
X244270Y755722D01*
X244270Y756460D01*
X244258Y756510D01*
X244258Y756531D01*
X244257Y756555D01*
X244256Y756562D01*
X244239Y756594D01*
X244231Y756629D01*
X244198Y756669D01*
X244173Y756714D01*
X244143Y756735D01*
X244121Y756762D01*
X244073Y756784D01*
X244031Y756813D01*
X243995Y756819D01*
X243962Y756833D01*
X243911Y756831D01*
X243860Y756839D01*
X243819Y756828D01*
X243789Y756827D01*
X243762Y756812D01*
X243720Y756800D01*
X243709Y756795D01*
X242949Y756415D01*
X242920Y756400D01*
X242916Y756397D01*
X242806Y756313D01*
X242006Y755413D01*
X241991Y755385D01*
X241962Y755352D01*
X241262Y754152D01*
X241253Y754123D01*
X241232Y754088D01*
X240732Y752688D01*
X240729Y752662D01*
X240716Y752630D01*
X240416Y751030D01*
X240418Y750994D01*
X240410Y750939D01*
X240510Y749139D01*
X240520Y749107D01*
X240524Y749058D01*
X241024Y747258D01*
X241041Y747227D01*
X241058Y747175D01*
X242058Y745375D01*
X242075Y745357D01*
X242090Y745327D01*
X242790Y744427D01*
X242797Y744421D01*
X242801Y744413D01*
X242811Y744407D01*
X242821Y744391D01*
X243621Y743591D01*
X243631Y743585D01*
X243640Y743574D01*
X244440Y742874D01*
X244465Y742860D01*
X244494Y742834D01*
X245494Y742234D01*
X245519Y742226D01*
X245549Y742207D01*
X246549Y741807D01*
X246568Y741804D01*
X246590Y741793D01*
X247690Y741493D01*
X247707Y741493D01*
X247728Y741485D01*
X248928Y741285D01*
X248954Y741287D01*
X248990Y741280D01*
X250859Y741280D01*
X251356Y741197D01*
X251772Y740947D01*
X252722Y740187D01*
X253198Y739617D01*
X253210Y739607D01*
X253221Y739591D01*
X254499Y738313D01*
X254981Y737639D01*
X255001Y737621D01*
X255021Y737591D01*
X255609Y737003D01*
X256098Y736417D01*
X256110Y736407D01*
X256121Y736391D01*
X256602Y735910D01*
X256886Y735532D01*
X256904Y735517D01*
X256921Y735491D01*
X257195Y735218D01*
X257374Y734949D01*
X257393Y734931D01*
X257406Y734907D01*
X257456Y734872D01*
X257500Y734831D01*
X257526Y734823D01*
X257548Y734807D01*
X257629Y734792D01*
X257666Y734781D01*
X257677Y734782D01*
X257690Y734780D01*
X257790Y734780D01*
X257840Y734791D01*
G37*
G36*
X208125Y668875D02*
X208125Y668875D01*
X208129Y668872D01*
X209729Y669172D01*
X209733Y669176D01*
X209736Y669174D01*
X211436Y669774D01*
X211441Y669781D01*
X211447Y669779D01*
X212847Y670679D01*
X212848Y670683D01*
X212852Y670682D01*
X214152Y671782D01*
X214154Y671791D01*
X214160Y671791D01*
X215160Y673191D01*
X215160Y673196D01*
X215163Y673197D01*
X215963Y674697D01*
X215962Y674706D01*
X215968Y674708D01*
X216368Y676308D01*
X216365Y676314D01*
X216369Y676317D01*
X216469Y678117D01*
X216468Y678119D01*
X216469Y678120D01*
X216469Y681720D01*
X216452Y681743D01*
X216453Y681756D01*
X213953Y684056D01*
X213950Y684057D01*
X213950Y684059D01*
X212550Y685159D01*
X212544Y685159D01*
X212543Y685163D01*
X211043Y685963D01*
X211036Y685962D01*
X211035Y685967D01*
X209435Y686467D01*
X209428Y686465D01*
X209426Y686469D01*
X207826Y686669D01*
X207820Y686666D01*
X207817Y686669D01*
X206017Y686569D01*
X206012Y686565D01*
X206008Y686568D01*
X204408Y686168D01*
X204404Y686162D01*
X204399Y686165D01*
X202899Y685465D01*
X202896Y685459D01*
X202891Y685460D01*
X201491Y684460D01*
X201490Y684454D01*
X201485Y684455D01*
X200285Y683255D01*
X200284Y683245D01*
X200277Y683244D01*
X199477Y681844D01*
X199478Y681839D01*
X199476Y681838D01*
X199474Y681837D01*
X198874Y680237D01*
X198876Y680231D01*
X198872Y680229D01*
X198572Y678529D01*
X198575Y678521D01*
X198571Y678517D01*
X198671Y676717D01*
X198674Y676714D01*
X198672Y676711D01*
X198972Y675011D01*
X198978Y675005D01*
X198975Y674999D01*
X199675Y673499D01*
X199680Y673497D01*
X199679Y673493D01*
X200579Y672093D01*
X200586Y672091D01*
X200585Y672085D01*
X201785Y670885D01*
X201791Y670884D01*
X201791Y670880D01*
X203191Y669880D01*
X203201Y669880D01*
X203203Y669874D01*
X204803Y669274D01*
X204807Y669275D01*
X204809Y669272D01*
X206509Y668872D01*
X206516Y668875D01*
X206520Y668871D01*
X208120Y668871D01*
X208125Y668875D01*
G37*
G36*
X254425Y668875D02*
X254425Y668875D01*
X254429Y668872D01*
X256129Y669172D01*
X256134Y669177D01*
X256138Y669174D01*
X257638Y669774D01*
X257641Y669779D01*
X257645Y669778D01*
X259145Y670678D01*
X259149Y670687D01*
X259156Y670687D01*
X260256Y671887D01*
X260257Y671894D01*
X260262Y671895D01*
X261162Y673395D01*
X261162Y673401D01*
X261166Y673403D01*
X261766Y675003D01*
X261765Y675007D01*
X261768Y675008D01*
X262168Y676608D01*
X262164Y676616D01*
X262169Y676620D01*
X262169Y678420D01*
X262165Y678425D01*
X262169Y678429D01*
X261869Y680129D01*
X261865Y680132D01*
X261867Y680135D01*
X261367Y681735D01*
X261361Y681739D01*
X261363Y681744D01*
X260563Y683144D01*
X260554Y683148D01*
X260555Y683155D01*
X259355Y684355D01*
X259350Y684355D01*
X259350Y684359D01*
X258050Y685359D01*
X258042Y685359D01*
X258041Y685365D01*
X256541Y686065D01*
X256534Y686063D01*
X256532Y686068D01*
X254932Y686468D01*
X254927Y686466D01*
X254925Y686469D01*
X253125Y686669D01*
X253120Y686666D01*
X253117Y686669D01*
X251317Y686569D01*
X251312Y686565D01*
X251309Y686568D01*
X249609Y686168D01*
X249604Y686162D01*
X249599Y686165D01*
X248099Y685465D01*
X248094Y685455D01*
X248087Y685456D01*
X246887Y684356D01*
X246885Y684349D01*
X246880Y684349D01*
X245880Y682949D01*
X245880Y682938D01*
X245873Y682936D01*
X245373Y681436D01*
X245376Y681428D01*
X245371Y681426D01*
X245171Y679726D01*
X245173Y679722D01*
X245171Y679720D01*
X245171Y677820D01*
X245187Y677799D01*
X245185Y677785D01*
X246385Y676585D01*
X246399Y676583D01*
X246402Y676574D01*
X247902Y675974D01*
X247915Y675978D01*
X247920Y675971D01*
X254713Y675971D01*
X255931Y675596D01*
X254793Y674363D01*
X253213Y673869D01*
X251425Y673869D01*
X249932Y674168D01*
X248335Y674667D01*
X248311Y674659D01*
X248299Y674665D01*
X246999Y674065D01*
X246989Y674044D01*
X246976Y674042D01*
X246076Y672242D01*
X246077Y672236D01*
X246073Y672233D01*
X246078Y672226D01*
X246071Y672220D01*
X246071Y671020D01*
X246084Y671002D01*
X246081Y670990D01*
X246781Y670090D01*
X246795Y670086D01*
X246797Y670077D01*
X248097Y669377D01*
X248107Y669378D01*
X248110Y669372D01*
X250010Y668972D01*
X250015Y668974D01*
X250018Y668971D01*
X252418Y668871D01*
X252419Y668872D01*
X252420Y668871D01*
X254420Y668871D01*
X254425Y668875D01*
G37*
G36*
X234733Y662073D02*
X234733Y662073D01*
X234741Y662083D01*
X234749Y662080D01*
X236249Y663180D01*
X236255Y663201D01*
X236267Y663204D01*
X236567Y664104D01*
X236562Y664117D01*
X236564Y664118D01*
X236561Y664123D01*
X236568Y664132D01*
X236368Y664932D01*
X236363Y664935D01*
X236365Y664939D01*
X235865Y666139D01*
X235865Y666140D01*
X235065Y667940D01*
X235063Y667941D01*
X235064Y667942D01*
X233969Y670133D01*
X233870Y672108D01*
X239763Y682295D01*
X239762Y682300D01*
X239765Y682300D01*
X240465Y683900D01*
X240461Y683916D01*
X240463Y683917D01*
X240460Y683921D01*
X240459Y683927D01*
X240465Y683939D01*
X239965Y685139D01*
X239948Y685149D01*
X239947Y685161D01*
X238147Y686361D01*
X238134Y686360D01*
X238130Y686368D01*
X236630Y686668D01*
X236607Y686657D01*
X236594Y686662D01*
X235294Y685862D01*
X235288Y685846D01*
X235278Y685845D01*
X233578Y682945D01*
X232678Y681445D01*
X232678Y681444D01*
X232677Y681444D01*
X230982Y678453D01*
X230540Y678099D01*
X230065Y679239D01*
X230065Y679240D01*
X229165Y681240D01*
X228065Y683740D01*
X228063Y683741D01*
X228064Y683742D01*
X227364Y685142D01*
X227358Y685145D01*
X227359Y685150D01*
X226759Y685950D01*
X226744Y685954D01*
X226742Y685964D01*
X225342Y686664D01*
X225316Y686659D01*
X225305Y686667D01*
X223705Y686167D01*
X223699Y686158D01*
X223692Y686161D01*
X222092Y685061D01*
X222084Y685037D01*
X222082Y685035D01*
X222072Y685030D01*
X221772Y683630D01*
X221781Y683610D01*
X221775Y683599D01*
X222475Y682100D01*
X230675Y663600D01*
X230677Y663599D01*
X230677Y663597D01*
X231477Y662097D01*
X231499Y662086D01*
X231503Y662074D01*
X232903Y661574D01*
X232923Y661580D01*
X232933Y661573D01*
X234733Y662073D01*
G37*
G36*
X229099Y687935D02*
X229099Y687935D01*
X229112Y687932D01*
X230312Y688932D01*
X230317Y688957D01*
X230329Y688964D01*
X230529Y690564D01*
X230527Y690567D01*
X230527Y690568D01*
X230529Y690570D01*
X230529Y705957D01*
X231109Y707021D01*
X236180Y707021D01*
X236182Y707022D01*
X236183Y707021D01*
X237983Y707121D01*
X238003Y707138D01*
X238016Y707137D01*
X239016Y708237D01*
X239017Y708246D01*
X239019Y708248D01*
X239018Y708250D01*
X239019Y708260D01*
X239029Y708267D01*
X239129Y710067D01*
X239119Y710082D01*
X239124Y710092D01*
X238424Y711492D01*
X238395Y711507D01*
X238389Y711519D01*
X236689Y711819D01*
X236683Y711816D01*
X236680Y711819D01*
X217880Y711819D01*
X217865Y711808D01*
X217854Y711812D01*
X216554Y711012D01*
X216547Y710994D01*
X216533Y710983D01*
X216536Y710979D01*
X216531Y710976D01*
X216331Y709276D01*
X216337Y709266D01*
X216332Y709261D01*
X216632Y707661D01*
X216657Y707638D01*
X216661Y707625D01*
X218061Y707025D01*
X218074Y707028D01*
X218080Y707021D01*
X223377Y707021D01*
X224831Y706827D01*
X224831Y689770D01*
X224842Y689756D01*
X224837Y689746D01*
X225637Y688346D01*
X225662Y688335D01*
X225667Y688322D01*
X227167Y687922D01*
X227176Y687926D01*
X227180Y687921D01*
X229080Y687921D01*
X229099Y687935D01*
G37*
G36*
X320926Y668971D02*
X320926Y668971D01*
X320932Y668977D01*
X320937Y668974D01*
X322537Y669574D01*
X322542Y669581D01*
X322548Y669580D01*
X323848Y670480D01*
X323851Y670487D01*
X323856Y670487D01*
X325056Y671787D01*
X325057Y671793D01*
X325061Y671793D01*
X325961Y673193D01*
X325961Y673203D01*
X325967Y673205D01*
X326467Y674805D01*
X326466Y674809D01*
X326468Y674811D01*
X326768Y676411D01*
X326766Y676415D01*
X326769Y676417D01*
X326869Y678217D01*
X326868Y678219D01*
X326869Y678220D01*
X326869Y683420D01*
X326866Y683424D01*
X326869Y683427D01*
X326669Y684927D01*
X326652Y684944D01*
X326653Y684957D01*
X325653Y685857D01*
X325631Y685858D01*
X325630Y685861D01*
X325628Y685861D01*
X325622Y685869D01*
X323422Y685969D01*
X323412Y685962D01*
X323405Y685967D01*
X321805Y685467D01*
X321789Y685444D01*
X321787Y685442D01*
X321775Y685439D01*
X321275Y684239D01*
X321278Y684227D01*
X321271Y684223D01*
X321171Y682323D01*
X321172Y682321D01*
X321171Y682320D01*
X321171Y677228D01*
X320678Y675652D01*
X319306Y674769D01*
X317533Y674769D01*
X316159Y675555D01*
X315569Y676931D01*
X315469Y678722D01*
X315469Y683920D01*
X315463Y683928D01*
X315467Y683934D01*
X315067Y685334D01*
X315043Y685352D01*
X315039Y685365D01*
X313639Y685965D01*
X313626Y685962D01*
X313620Y685969D01*
X311420Y685969D01*
X311406Y685959D01*
X311397Y685963D01*
X310097Y685263D01*
X310088Y685245D01*
X310073Y685234D01*
X310073Y685233D01*
X310072Y685233D01*
X309672Y683733D01*
X309676Y683724D01*
X309671Y683720D01*
X309671Y671720D01*
X309674Y671716D01*
X309671Y671714D01*
X309871Y670114D01*
X309887Y670098D01*
X309885Y670085D01*
X310885Y669085D01*
X310908Y669082D01*
X310915Y669071D01*
X312915Y668871D01*
X312925Y668877D01*
X312931Y668872D01*
X314731Y669272D01*
X314748Y669292D01*
X314762Y669294D01*
X315439Y670358D01*
X316098Y670076D01*
X317595Y669178D01*
X317605Y669179D01*
X317608Y669172D01*
X319208Y668772D01*
X319220Y668777D01*
X319226Y668771D01*
X320926Y668971D01*
G37*
G36*
X287520Y717287D02*
X287520Y717287D01*
X287565Y717287D01*
X288028Y717380D01*
X288490Y717380D01*
X288526Y717388D01*
X288582Y717391D01*
X288982Y717491D01*
X289002Y717501D01*
X289031Y717507D01*
X289531Y717707D01*
X289543Y717715D01*
X289560Y717720D01*
X289960Y717920D01*
X289976Y717933D01*
X290001Y717944D01*
X290281Y718131D01*
X290660Y718320D01*
X290689Y718344D01*
X290759Y718391D01*
X291059Y718691D01*
X291075Y718718D01*
X291106Y718749D01*
X291301Y719040D01*
X291594Y719432D01*
X291598Y719441D01*
X291606Y719449D01*
X291806Y719749D01*
X291807Y719750D01*
X291808Y719751D01*
X291863Y719885D01*
X291953Y720336D01*
X292130Y720690D01*
X292134Y720705D01*
X292143Y720718D01*
X292169Y720852D01*
X292170Y720859D01*
X292170Y720860D01*
X292170Y721322D01*
X292263Y721785D01*
X292263Y721795D01*
X292264Y721928D01*
X292064Y723028D01*
X292055Y723050D01*
X292051Y723080D01*
X291751Y723980D01*
X291734Y724007D01*
X291720Y724049D01*
X291320Y724749D01*
X291297Y724773D01*
X291237Y724849D01*
X290537Y725449D01*
X290511Y725463D01*
X290479Y725490D01*
X289779Y725890D01*
X289753Y725898D01*
X289724Y725916D01*
X288924Y726216D01*
X288905Y726219D01*
X288882Y726229D01*
X288082Y726429D01*
X288060Y726429D01*
X288032Y726438D01*
X287132Y726538D01*
X285338Y726737D01*
X284669Y726833D01*
X284003Y727023D01*
X283450Y727208D01*
X283050Y727448D01*
X282870Y727687D01*
X282870Y728570D01*
X283103Y729035D01*
X283159Y729091D01*
X283179Y729123D01*
X283230Y729190D01*
X283273Y729277D01*
X283680Y729480D01*
X283790Y729480D01*
X283805Y729483D01*
X283820Y729481D01*
X283952Y729518D01*
X283959Y729519D01*
X283959Y729520D01*
X283960Y729520D01*
X284080Y729580D01*
X285700Y729580D01*
X286565Y729148D01*
X286878Y728835D01*
X286938Y728714D01*
X287029Y728440D01*
X287042Y728420D01*
X287050Y728390D01*
X287110Y728270D01*
X287110Y727860D01*
X287121Y727810D01*
X287123Y727759D01*
X287141Y727727D01*
X287149Y727691D01*
X287182Y727652D01*
X287206Y727607D01*
X287236Y727586D01*
X287259Y727558D01*
X287306Y727537D01*
X287348Y727507D01*
X287390Y727499D01*
X287418Y727487D01*
X287448Y727488D01*
X287490Y727480D01*
X291390Y727480D01*
X291470Y727498D01*
X291550Y727515D01*
X291554Y727518D01*
X291559Y727519D01*
X291622Y727572D01*
X291686Y727622D01*
X291688Y727626D01*
X291692Y727629D01*
X291726Y727704D01*
X291761Y727778D01*
X291761Y727783D01*
X291763Y727788D01*
X291762Y727815D01*
X291765Y727923D01*
X291565Y729123D01*
X291555Y729146D01*
X291555Y729148D01*
X291554Y729168D01*
X291552Y729173D01*
X291551Y729180D01*
X291351Y729780D01*
X291331Y729812D01*
X291294Y729888D01*
X291006Y730272D01*
X290716Y730756D01*
X290704Y730768D01*
X290694Y730788D01*
X290394Y731188D01*
X290369Y731209D01*
X290362Y731222D01*
X290347Y731233D01*
X290318Y731264D01*
X289918Y731564D01*
X289902Y731571D01*
X289886Y731586D01*
X288886Y732186D01*
X288861Y732194D01*
X288831Y732213D01*
X288331Y732413D01*
X288302Y732417D01*
X288265Y732433D01*
X287788Y732528D01*
X287210Y732721D01*
X287185Y732723D01*
X287153Y732735D01*
X286559Y732834D01*
X286065Y732933D01*
X286033Y732932D01*
X285990Y732940D01*
X283690Y732940D01*
X283660Y732933D01*
X283615Y732933D01*
X283152Y732840D01*
X282590Y732840D01*
X282560Y732833D01*
X282515Y732833D01*
X282015Y732733D01*
X281989Y732721D01*
X281949Y732713D01*
X281481Y732526D01*
X281015Y732433D01*
X280989Y732421D01*
X280949Y732413D01*
X280449Y732213D01*
X280418Y732191D01*
X280362Y732164D01*
X279162Y731264D01*
X279137Y731234D01*
X279086Y731188D01*
X278786Y730788D01*
X278774Y730762D01*
X278750Y730730D01*
X278550Y730330D01*
X278547Y730316D01*
X278537Y730301D01*
X278337Y729801D01*
X278333Y729772D01*
X278317Y729735D01*
X278217Y729235D01*
X278218Y729203D01*
X278210Y729160D01*
X278210Y720550D01*
X278150Y720430D01*
X278146Y720415D01*
X278137Y720402D01*
X278111Y720268D01*
X278110Y720262D01*
X278110Y720261D01*
X278110Y720260D01*
X278110Y719450D01*
X278050Y719330D01*
X278046Y719315D01*
X278037Y719302D01*
X278028Y719256D01*
X278027Y719253D01*
X278027Y719251D01*
X278011Y719168D01*
X278010Y719162D01*
X278010Y719161D01*
X278010Y719160D01*
X278010Y719050D01*
X277950Y718930D01*
X277946Y718915D01*
X277937Y718902D01*
X277911Y718768D01*
X277910Y718762D01*
X277910Y718761D01*
X277910Y718760D01*
X277910Y718550D01*
X277878Y718485D01*
X277821Y718429D01*
X277781Y718364D01*
X277737Y718302D01*
X277735Y718290D01*
X277730Y718282D01*
X277726Y718245D01*
X277710Y718160D01*
X277710Y718060D01*
X277721Y718010D01*
X277723Y717959D01*
X277741Y717927D01*
X277749Y717891D01*
X277782Y717852D01*
X277806Y717807D01*
X277836Y717786D01*
X277859Y717758D01*
X277906Y717737D01*
X277948Y717707D01*
X277990Y717699D01*
X278018Y717687D01*
X278048Y717688D01*
X278090Y717680D01*
X281990Y717680D01*
X282040Y717691D01*
X282091Y717693D01*
X282123Y717711D01*
X282159Y717719D01*
X282198Y717752D01*
X282243Y717776D01*
X282264Y717806D01*
X282292Y717829D01*
X282313Y717876D01*
X282343Y717918D01*
X282351Y717960D01*
X282363Y717988D01*
X282363Y717998D01*
X282399Y718056D01*
X282443Y718118D01*
X282445Y718130D01*
X282450Y718138D01*
X282454Y718175D01*
X282456Y718189D01*
X282459Y718191D01*
X282499Y718256D01*
X282543Y718318D01*
X282545Y718330D01*
X282550Y718338D01*
X282554Y718375D01*
X282570Y718460D01*
X282570Y718609D01*
X282583Y718630D01*
X282721Y718491D01*
X282748Y718475D01*
X282779Y718444D01*
X283079Y718244D01*
X283115Y718230D01*
X283170Y718199D01*
X283422Y718115D01*
X283679Y717944D01*
X283715Y717930D01*
X283770Y717899D01*
X284970Y717499D01*
X285007Y717496D01*
X285090Y717480D01*
X285328Y717480D01*
X285570Y717399D01*
X285607Y717396D01*
X285690Y717380D01*
X286028Y717380D01*
X286270Y717299D01*
X286307Y717296D01*
X286390Y717280D01*
X287490Y717280D01*
X287520Y717287D01*
G37*
G36*
X278235Y668883D02*
X278235Y668883D01*
X278247Y668879D01*
X279647Y669779D01*
X279652Y669794D01*
X279663Y669795D01*
X286463Y681395D01*
X286462Y681398D01*
X286464Y681398D01*
X287264Y682998D01*
X287261Y683016D01*
X287269Y683024D01*
X287169Y684424D01*
X287153Y684442D01*
X287155Y684455D01*
X285955Y685655D01*
X285943Y685657D01*
X285941Y685665D01*
X284241Y686465D01*
X284220Y686460D01*
X284210Y686468D01*
X282710Y686168D01*
X282693Y686149D01*
X282680Y686148D01*
X281780Y684848D01*
X281780Y684843D01*
X281776Y684843D01*
X277888Y677365D01*
X277248Y677274D01*
X273364Y684743D01*
X273358Y684746D01*
X273359Y684750D01*
X272359Y686050D01*
X272338Y686056D01*
X272334Y686067D01*
X270934Y686467D01*
X270914Y686460D01*
X270904Y686466D01*
X269204Y685866D01*
X269196Y685854D01*
X269187Y685856D01*
X267787Y684556D01*
X267783Y684534D01*
X267771Y684528D01*
X267571Y683228D01*
X267581Y683209D01*
X267576Y683198D01*
X268376Y681598D01*
X268378Y681597D01*
X268377Y681595D01*
X274277Y671395D01*
X275077Y669996D01*
X275091Y669990D01*
X275091Y669980D01*
X276491Y668980D01*
X276511Y668980D01*
X276517Y668971D01*
X278217Y668871D01*
X278235Y668883D01*
G37*
G36*
X256522Y717687D02*
X256522Y717687D01*
X256556Y717685D01*
X256606Y717707D01*
X256659Y717719D01*
X256684Y717740D01*
X256715Y717753D01*
X256762Y717805D01*
X256792Y717829D01*
X256799Y717845D01*
X256813Y717860D01*
X260469Y723766D01*
X261510Y722795D01*
X261510Y718060D01*
X261521Y718010D01*
X261523Y717959D01*
X261541Y717927D01*
X261549Y717891D01*
X261582Y717852D01*
X261606Y717807D01*
X261636Y717786D01*
X261659Y717758D01*
X261706Y717737D01*
X261748Y717707D01*
X261790Y717699D01*
X261818Y717687D01*
X261848Y717688D01*
X261890Y717680D01*
X265790Y717680D01*
X265840Y717691D01*
X265891Y717693D01*
X265923Y717711D01*
X265959Y717719D01*
X265998Y717752D01*
X266043Y717776D01*
X266064Y717806D01*
X266092Y717829D01*
X266113Y717876D01*
X266143Y717918D01*
X266151Y717960D01*
X266163Y717988D01*
X266162Y718018D01*
X266170Y718060D01*
X266170Y735460D01*
X266160Y735503D01*
X266160Y735548D01*
X266141Y735587D01*
X266131Y735629D01*
X266102Y735663D01*
X266082Y735703D01*
X266043Y735736D01*
X266021Y735762D01*
X265997Y735773D01*
X265970Y735795D01*
X262070Y737895D01*
X262015Y737910D01*
X261962Y737933D01*
X261932Y737932D01*
X261903Y737940D01*
X261847Y737929D01*
X261789Y737927D01*
X261763Y737912D01*
X261733Y737906D01*
X261688Y737871D01*
X261637Y737844D01*
X261620Y737819D01*
X261596Y737801D01*
X261570Y737749D01*
X261537Y737702D01*
X261531Y737668D01*
X261519Y737645D01*
X261520Y737610D01*
X261510Y737560D01*
X261510Y728105D01*
X257264Y732523D01*
X257197Y732567D01*
X257132Y732613D01*
X257124Y732614D01*
X257119Y732618D01*
X257086Y732622D01*
X256990Y732640D01*
X252390Y732640D01*
X252363Y732634D01*
X252336Y732636D01*
X252280Y732614D01*
X252221Y732601D01*
X252200Y732583D01*
X252174Y732573D01*
X252134Y732529D01*
X252088Y732491D01*
X252076Y732465D01*
X252058Y732445D01*
X252041Y732387D01*
X252017Y732332D01*
X252018Y732305D01*
X252010Y732278D01*
X252021Y732219D01*
X252023Y732159D01*
X252037Y732135D01*
X252042Y732108D01*
X252088Y732041D01*
X252106Y732007D01*
X252116Y732000D01*
X252124Y731989D01*
X257201Y727007D01*
X251472Y718268D01*
X251447Y718199D01*
X251417Y718132D01*
X251417Y718119D01*
X251413Y718106D01*
X251421Y718033D01*
X251423Y717959D01*
X251430Y717947D01*
X251431Y717934D01*
X251471Y717872D01*
X251506Y717807D01*
X251517Y717799D01*
X251525Y717788D01*
X251588Y717750D01*
X251648Y717707D01*
X251663Y717704D01*
X251673Y717698D01*
X251712Y717695D01*
X251790Y717680D01*
X256490Y717680D01*
X256522Y717687D01*
G37*
G36*
X217040Y717691D02*
X217040Y717691D01*
X217091Y717693D01*
X217123Y717711D01*
X217159Y717719D01*
X217198Y717752D01*
X217243Y717776D01*
X217264Y717806D01*
X217292Y717829D01*
X217313Y717876D01*
X217343Y717918D01*
X217351Y717960D01*
X217363Y717988D01*
X217362Y718018D01*
X217370Y718060D01*
X217370Y726036D01*
X217467Y726809D01*
X217566Y727503D01*
X217653Y728026D01*
X217906Y728448D01*
X218150Y728772D01*
X218529Y729000D01*
X218959Y729086D01*
X219498Y729176D01*
X220235Y729084D01*
X220756Y728997D01*
X221136Y728769D01*
X221477Y728342D01*
X221751Y727886D01*
X222018Y727262D01*
X222110Y726439D01*
X222110Y718060D01*
X222121Y718010D01*
X222123Y717959D01*
X222141Y717927D01*
X222149Y717891D01*
X222182Y717852D01*
X222206Y717807D01*
X222236Y717786D01*
X222259Y717758D01*
X222306Y717737D01*
X222348Y717707D01*
X222390Y717699D01*
X222418Y717687D01*
X222448Y717688D01*
X222490Y717680D01*
X226390Y717680D01*
X226440Y717691D01*
X226491Y717693D01*
X226523Y717711D01*
X226559Y717719D01*
X226598Y717752D01*
X226643Y717776D01*
X226664Y717806D01*
X226692Y717829D01*
X226713Y717876D01*
X226743Y717918D01*
X226751Y717960D01*
X226763Y717988D01*
X226762Y718018D01*
X226770Y718060D01*
X226770Y732260D01*
X226759Y732310D01*
X226757Y732361D01*
X226739Y732393D01*
X226731Y732429D01*
X226698Y732468D01*
X226674Y732513D01*
X226644Y732534D01*
X226621Y732562D01*
X226574Y732583D01*
X226532Y732613D01*
X226490Y732621D01*
X226462Y732633D01*
X226432Y732632D01*
X226390Y732640D01*
X222690Y732640D01*
X222640Y732629D01*
X222589Y732627D01*
X222557Y732609D01*
X222521Y732601D01*
X222482Y732568D01*
X222437Y732544D01*
X222416Y732514D01*
X222388Y732491D01*
X222367Y732444D01*
X222337Y732402D01*
X222329Y732360D01*
X222317Y732332D01*
X222318Y732302D01*
X222310Y732260D01*
X222310Y731278D01*
X222059Y731529D01*
X222043Y731539D01*
X222028Y731557D01*
X221528Y731957D01*
X221514Y731963D01*
X221501Y731976D01*
X220901Y732376D01*
X220865Y732390D01*
X220810Y732421D01*
X219610Y732821D01*
X219585Y732823D01*
X219553Y732835D01*
X218953Y732935D01*
X218926Y732933D01*
X218890Y732940D01*
X218290Y732940D01*
X218278Y732937D01*
X218263Y732939D01*
X216863Y732839D01*
X216833Y732830D01*
X216790Y732827D01*
X215690Y732527D01*
X215658Y732510D01*
X215605Y732492D01*
X214705Y731992D01*
X214677Y731966D01*
X214621Y731929D01*
X213921Y731229D01*
X213903Y731199D01*
X213868Y731162D01*
X213368Y730362D01*
X213355Y730325D01*
X213326Y730269D01*
X213026Y729269D01*
X213025Y729250D01*
X213016Y729228D01*
X212816Y728128D01*
X212817Y728111D01*
X212811Y728089D01*
X212711Y726789D01*
X212713Y726776D01*
X212710Y726760D01*
X212710Y718060D01*
X212721Y718010D01*
X212723Y717959D01*
X212741Y717927D01*
X212749Y717891D01*
X212782Y717852D01*
X212806Y717807D01*
X212836Y717786D01*
X212859Y717758D01*
X212906Y717737D01*
X212948Y717707D01*
X212990Y717699D01*
X213018Y717687D01*
X213048Y717688D01*
X213090Y717680D01*
X216990Y717680D01*
X217040Y717691D01*
G37*
G36*
X238017Y717381D02*
X238017Y717381D01*
X238054Y717392D01*
X238120Y717403D01*
X239220Y717803D01*
X239242Y717817D01*
X239275Y717828D01*
X240175Y718328D01*
X240198Y718349D01*
X240237Y718371D01*
X240937Y718971D01*
X240954Y718994D01*
X241022Y719075D01*
X241522Y719975D01*
X241532Y720008D01*
X241554Y720051D01*
X241854Y721051D01*
X241855Y721070D01*
X241864Y721092D01*
X242064Y722192D01*
X242063Y722221D01*
X242070Y722260D01*
X242070Y732260D01*
X242059Y732310D01*
X242057Y732361D01*
X242039Y732393D01*
X242031Y732429D01*
X241998Y732468D01*
X241974Y732513D01*
X241944Y732534D01*
X241921Y732562D01*
X241874Y732583D01*
X241832Y732613D01*
X241790Y732621D01*
X241762Y732633D01*
X241732Y732632D01*
X241690Y732640D01*
X237890Y732640D01*
X237840Y732629D01*
X237789Y732627D01*
X237757Y732609D01*
X237721Y732601D01*
X237682Y732568D01*
X237637Y732544D01*
X237616Y732514D01*
X237588Y732491D01*
X237567Y732444D01*
X237537Y732402D01*
X237529Y732360D01*
X237517Y732332D01*
X237518Y732302D01*
X237510Y732260D01*
X237510Y724284D01*
X237314Y722715D01*
X237230Y722214D01*
X236731Y721548D01*
X236351Y721320D01*
X235921Y721234D01*
X235382Y721144D01*
X234645Y721236D01*
X234124Y721323D01*
X233726Y721562D01*
X233403Y721885D01*
X233135Y722420D01*
X232861Y723060D01*
X232770Y723784D01*
X232770Y732260D01*
X232759Y732310D01*
X232757Y732361D01*
X232739Y732393D01*
X232731Y732429D01*
X232698Y732468D01*
X232674Y732513D01*
X232644Y732534D01*
X232621Y732562D01*
X232574Y732583D01*
X232532Y732613D01*
X232490Y732621D01*
X232462Y732633D01*
X232432Y732632D01*
X232390Y732640D01*
X228490Y732640D01*
X228440Y732629D01*
X228389Y732627D01*
X228357Y732609D01*
X228321Y732601D01*
X228282Y732568D01*
X228237Y732544D01*
X228216Y732514D01*
X228188Y732491D01*
X228167Y732444D01*
X228137Y732402D01*
X228129Y732360D01*
X228117Y732332D01*
X228118Y732302D01*
X228110Y732260D01*
X228110Y718060D01*
X228121Y718010D01*
X228123Y717959D01*
X228141Y717927D01*
X228149Y717891D01*
X228182Y717852D01*
X228206Y717807D01*
X228236Y717786D01*
X228259Y717758D01*
X228306Y717737D01*
X228348Y717707D01*
X228390Y717699D01*
X228418Y717687D01*
X228448Y717688D01*
X228490Y717680D01*
X232190Y717680D01*
X232240Y717691D01*
X232291Y717693D01*
X232323Y717711D01*
X232359Y717719D01*
X232398Y717752D01*
X232443Y717776D01*
X232464Y717806D01*
X232492Y717829D01*
X232513Y717876D01*
X232543Y717918D01*
X232551Y717960D01*
X232563Y717988D01*
X232562Y718018D01*
X232570Y718060D01*
X232570Y719001D01*
X232793Y718722D01*
X232820Y718701D01*
X232852Y718663D01*
X233352Y718263D01*
X233382Y718249D01*
X233420Y718220D01*
X234020Y717920D01*
X234034Y717917D01*
X234049Y717907D01*
X234549Y717707D01*
X234559Y717705D01*
X234570Y717699D01*
X235170Y717499D01*
X235199Y717497D01*
X235236Y717484D01*
X235933Y717384D01*
X236528Y717285D01*
X236563Y717287D01*
X236617Y717281D01*
X238017Y717381D01*
G37*
G36*
X316622Y717381D02*
X316622Y717381D01*
X316635Y717385D01*
X316653Y717385D01*
X317853Y717585D01*
X317868Y717592D01*
X317890Y717593D01*
X318990Y717893D01*
X319018Y717908D01*
X319060Y717920D01*
X319380Y718080D01*
X320060Y718420D01*
X320089Y718444D01*
X320140Y718474D01*
X320940Y719174D01*
X320958Y719199D01*
X320990Y719227D01*
X321690Y720127D01*
X321706Y720162D01*
X321743Y720219D01*
X322143Y721219D01*
X322148Y721253D01*
X322166Y721302D01*
X322366Y722602D01*
X322360Y722682D01*
X322357Y722761D01*
X322353Y722767D01*
X322352Y722775D01*
X322312Y722843D01*
X322274Y722913D01*
X322268Y722917D01*
X322264Y722924D01*
X322197Y722967D01*
X322132Y723013D01*
X322124Y723014D01*
X322118Y723018D01*
X322085Y723022D01*
X321990Y723040D01*
X318290Y723040D01*
X318240Y723029D01*
X318189Y723027D01*
X318157Y723009D01*
X318121Y723001D01*
X318082Y722968D01*
X318037Y722944D01*
X318016Y722914D01*
X317988Y722891D01*
X317967Y722844D01*
X317937Y722802D01*
X317929Y722760D01*
X317917Y722732D01*
X317918Y722702D01*
X317910Y722660D01*
X317910Y722133D01*
X317756Y721748D01*
X317518Y721432D01*
X316836Y720920D01*
X316328Y720835D01*
X316322Y720833D01*
X316315Y720833D01*
X315821Y720734D01*
X315306Y720648D01*
X314982Y720729D01*
X314946Y720729D01*
X314890Y720740D01*
X314537Y720740D01*
X314223Y720819D01*
X313891Y720985D01*
X313540Y721248D01*
X313333Y721454D01*
X313182Y722060D01*
X313249Y722327D01*
X313390Y722610D01*
X313702Y722844D01*
X314150Y723112D01*
X314696Y723295D01*
X316273Y723689D01*
X317265Y723887D01*
X317268Y723889D01*
X317273Y723889D01*
X318173Y724089D01*
X318193Y724099D01*
X318224Y724104D01*
X319024Y724404D01*
X319030Y724408D01*
X319040Y724411D01*
X319740Y724711D01*
X319755Y724722D01*
X319779Y724730D01*
X320479Y725130D01*
X320487Y725138D01*
X320501Y725144D01*
X321101Y725544D01*
X321102Y725545D01*
X321105Y725546D01*
X321206Y725649D01*
X321606Y726249D01*
X321617Y726277D01*
X321640Y726310D01*
X321940Y727010D01*
X321946Y727049D01*
X321952Y727068D01*
X321964Y727094D01*
X321964Y727104D01*
X321968Y727118D01*
X322068Y728018D01*
X322064Y728049D01*
X322069Y728092D01*
X321969Y729292D01*
X321957Y729329D01*
X321943Y729401D01*
X321543Y730401D01*
X321523Y730430D01*
X321476Y730510D01*
X320776Y731310D01*
X320757Y731324D01*
X320737Y731349D01*
X320037Y731949D01*
X320005Y731966D01*
X319960Y732000D01*
X318960Y732500D01*
X318923Y732509D01*
X318865Y732533D01*
X317865Y732733D01*
X317862Y732733D01*
X317858Y732734D01*
X316758Y732934D01*
X316729Y732933D01*
X316690Y732940D01*
X314390Y732940D01*
X314362Y732934D01*
X314322Y732934D01*
X313222Y732734D01*
X313205Y732727D01*
X313181Y732724D01*
X312181Y732424D01*
X312162Y732414D01*
X312136Y732407D01*
X311236Y732007D01*
X311208Y731987D01*
X311162Y731964D01*
X310362Y731364D01*
X310337Y731334D01*
X310286Y731288D01*
X309686Y730488D01*
X309674Y730462D01*
X309650Y730430D01*
X309150Y729430D01*
X309141Y729392D01*
X309115Y729323D01*
X308915Y728123D01*
X308920Y728041D01*
X308923Y727959D01*
X308926Y727955D01*
X308926Y727950D01*
X308967Y727879D01*
X309006Y727807D01*
X309010Y727804D01*
X309013Y727800D01*
X309081Y727754D01*
X309148Y727707D01*
X309153Y727706D01*
X309157Y727704D01*
X309185Y727700D01*
X309290Y727680D01*
X312990Y727680D01*
X313003Y727683D01*
X313017Y727681D01*
X313087Y727702D01*
X313159Y727719D01*
X313169Y727728D01*
X313182Y727732D01*
X313236Y727783D01*
X313292Y727829D01*
X313298Y727842D01*
X313308Y727851D01*
X313363Y727985D01*
X313456Y728451D01*
X313628Y728882D01*
X313764Y729086D01*
X313981Y729231D01*
X314346Y729413D01*
X314763Y729580D01*
X316328Y729580D01*
X316570Y729499D01*
X316583Y729498D01*
X316598Y729491D01*
X316984Y729395D01*
X317146Y729341D01*
X317410Y728945D01*
X317410Y728707D01*
X317340Y728427D01*
X317118Y728132D01*
X316789Y727885D01*
X316244Y727612D01*
X315705Y727433D01*
X314943Y727337D01*
X314924Y727330D01*
X314898Y727329D01*
X312502Y726730D01*
X311608Y726531D01*
X311572Y726514D01*
X311501Y726490D01*
X310101Y725690D01*
X310081Y725671D01*
X310047Y725652D01*
X309447Y725152D01*
X309423Y725121D01*
X309418Y725116D01*
X309417Y725115D01*
X309374Y725071D01*
X308974Y724471D01*
X308963Y724443D01*
X308941Y724410D01*
X308641Y723710D01*
X308634Y723671D01*
X308612Y723602D01*
X308512Y722702D01*
X308517Y722664D01*
X308514Y722602D01*
X308714Y721302D01*
X308726Y721273D01*
X308733Y721230D01*
X309133Y720130D01*
X309154Y720097D01*
X309186Y720032D01*
X309786Y719232D01*
X309811Y719211D01*
X309840Y719174D01*
X310640Y718474D01*
X310673Y718456D01*
X310720Y718420D01*
X311720Y717920D01*
X311750Y717913D01*
X311790Y717893D01*
X312890Y717593D01*
X312907Y717593D01*
X312928Y717585D01*
X314128Y717385D01*
X314142Y717386D01*
X314158Y717381D01*
X315358Y717281D01*
X315385Y717285D01*
X315422Y717281D01*
X316622Y717381D01*
G37*
G36*
X302224Y668876D02*
X302224Y668876D01*
X302229Y668872D01*
X303829Y669172D01*
X303848Y669193D01*
X303862Y669194D01*
X304662Y670494D01*
X304660Y670513D01*
X304669Y670520D01*
X304669Y684120D01*
X304661Y684130D01*
X304666Y684138D01*
X304166Y685438D01*
X304140Y685454D01*
X304136Y685467D01*
X302636Y685967D01*
X302623Y685963D01*
X302618Y685969D01*
X300418Y685869D01*
X300409Y685862D01*
X300403Y685858D01*
X300394Y685862D01*
X299294Y685162D01*
X299292Y685157D01*
X299288Y685158D01*
X298717Y684682D01*
X297448Y685561D01*
X297438Y685560D01*
X297436Y685566D01*
X295736Y686166D01*
X295723Y686162D01*
X295717Y686169D01*
X294117Y686069D01*
X294112Y686065D01*
X294109Y686068D01*
X292409Y685668D01*
X292392Y685647D01*
X292378Y685646D01*
X291578Y684346D01*
X291580Y684325D01*
X291571Y684317D01*
X291671Y682617D01*
X291679Y682608D01*
X291674Y682601D01*
X292374Y680901D01*
X292391Y680891D01*
X292392Y680880D01*
X293692Y679980D01*
X293721Y679981D01*
X293732Y679972D01*
X295331Y680372D01*
X296912Y680668D01*
X298381Y679885D01*
X298971Y678411D01*
X298971Y671620D01*
X298972Y671618D01*
X298971Y671617D01*
X299071Y670117D01*
X299088Y670097D01*
X299087Y670084D01*
X300187Y669084D01*
X300209Y669082D01*
X300215Y669071D01*
X302215Y668871D01*
X302224Y668876D01*
G37*
G36*
X190624Y668876D02*
X190624Y668876D01*
X190629Y668872D01*
X192329Y669172D01*
X192350Y669195D01*
X192363Y669197D01*
X193063Y670497D01*
X193061Y670514D01*
X193069Y670520D01*
X193069Y684120D01*
X193061Y684130D01*
X193066Y684138D01*
X192566Y685438D01*
X192541Y685453D01*
X192537Y685466D01*
X191137Y685966D01*
X191124Y685962D01*
X191118Y685969D01*
X188818Y685869D01*
X188809Y685862D01*
X188803Y685858D01*
X188794Y685862D01*
X187694Y685162D01*
X187692Y685157D01*
X187688Y685158D01*
X187117Y684682D01*
X185848Y685561D01*
X185838Y685560D01*
X185836Y685566D01*
X184136Y686166D01*
X184123Y686162D01*
X184117Y686169D01*
X182517Y686069D01*
X182512Y686065D01*
X182509Y686068D01*
X180809Y685668D01*
X180792Y685647D01*
X180778Y685646D01*
X179978Y684346D01*
X179980Y684325D01*
X179971Y684317D01*
X180071Y682617D01*
X180079Y682608D01*
X180074Y682601D01*
X180774Y680901D01*
X180791Y680891D01*
X180792Y680880D01*
X182092Y679980D01*
X182121Y679981D01*
X182132Y679972D01*
X183731Y680372D01*
X185312Y680668D01*
X186781Y679885D01*
X187371Y678411D01*
X187371Y671620D01*
X187374Y671616D01*
X187371Y671614D01*
X187571Y670114D01*
X187587Y670098D01*
X187585Y670085D01*
X188585Y669085D01*
X188608Y669082D01*
X188615Y669071D01*
X190615Y668871D01*
X190624Y668876D01*
G37*
G36*
X249440Y717691D02*
X249440Y717691D01*
X249491Y717693D01*
X249523Y717711D01*
X249559Y717719D01*
X249598Y717752D01*
X249643Y717776D01*
X249664Y717806D01*
X249692Y717829D01*
X249713Y717876D01*
X249743Y717918D01*
X249751Y717960D01*
X249763Y717988D01*
X249762Y718018D01*
X249770Y718060D01*
X249770Y729280D01*
X253290Y729280D01*
X253341Y729292D01*
X253394Y729294D01*
X253424Y729311D01*
X253459Y729319D01*
X253499Y729353D01*
X253545Y729378D01*
X253565Y729407D01*
X253592Y729429D01*
X253614Y729477D01*
X253644Y729521D01*
X253649Y729555D01*
X253663Y729588D01*
X253661Y729640D01*
X253669Y729692D01*
X253658Y729725D01*
X253657Y729761D01*
X253632Y729807D01*
X253615Y729857D01*
X253588Y729887D01*
X253574Y729913D01*
X253548Y729931D01*
X253518Y729964D01*
X253140Y730248D01*
X251559Y731829D01*
X251539Y731841D01*
X251518Y731864D01*
X251162Y732132D01*
X250894Y732488D01*
X250882Y732499D01*
X250874Y732513D01*
X250816Y732554D01*
X250761Y732599D01*
X250746Y732603D01*
X250732Y732613D01*
X250605Y732637D01*
X250593Y732640D01*
X250592Y732640D01*
X250590Y732640D01*
X249770Y732640D01*
X249770Y734260D01*
X249764Y734286D01*
X249746Y734394D01*
X249446Y735194D01*
X249442Y735200D01*
X249440Y735210D01*
X249140Y735910D01*
X249116Y735941D01*
X249082Y736003D01*
X248582Y736603D01*
X248552Y736626D01*
X248511Y736669D01*
X247811Y737169D01*
X247787Y737179D01*
X247760Y737200D01*
X246960Y737600D01*
X246933Y737607D01*
X246899Y737624D01*
X245899Y737924D01*
X245860Y737927D01*
X245790Y737940D01*
X242890Y737940D01*
X242875Y737937D01*
X242860Y737939D01*
X242728Y737902D01*
X242721Y737901D01*
X242721Y737900D01*
X242720Y737900D01*
X242520Y737800D01*
X242481Y737768D01*
X242437Y737744D01*
X242416Y737713D01*
X242387Y737689D01*
X242366Y737643D01*
X242337Y737602D01*
X242329Y737559D01*
X242316Y737531D01*
X242317Y737515D01*
X242318Y737501D01*
X242310Y737460D01*
X242310Y734660D01*
X242321Y734610D01*
X242323Y734559D01*
X242341Y734527D01*
X242349Y734491D01*
X242382Y734452D01*
X242406Y734407D01*
X242436Y734386D01*
X242459Y734358D01*
X242506Y734337D01*
X242548Y734307D01*
X242590Y734299D01*
X242618Y734287D01*
X242648Y734288D01*
X242690Y734280D01*
X244343Y734280D01*
X244657Y734201D01*
X244930Y734065D01*
X245061Y733869D01*
X245110Y733770D01*
X245110Y733460D01*
X245118Y733424D01*
X245121Y733368D01*
X245210Y733013D01*
X245210Y732640D01*
X242890Y732640D01*
X242840Y732629D01*
X242789Y732627D01*
X242757Y732609D01*
X242721Y732601D01*
X242682Y732568D01*
X242637Y732544D01*
X242616Y732514D01*
X242588Y732491D01*
X242567Y732444D01*
X242537Y732402D01*
X242529Y732360D01*
X242517Y732332D01*
X242518Y732302D01*
X242510Y732260D01*
X242510Y729660D01*
X242521Y729610D01*
X242523Y729559D01*
X242541Y729527D01*
X242549Y729491D01*
X242582Y729452D01*
X242606Y729407D01*
X242636Y729386D01*
X242659Y729358D01*
X242706Y729337D01*
X242748Y729307D01*
X242790Y729299D01*
X242818Y729287D01*
X242848Y729288D01*
X242890Y729280D01*
X245210Y729280D01*
X245210Y718060D01*
X245221Y718010D01*
X245223Y717959D01*
X245241Y717927D01*
X245249Y717891D01*
X245282Y717852D01*
X245306Y717807D01*
X245336Y717786D01*
X245359Y717758D01*
X245406Y717737D01*
X245448Y717707D01*
X245490Y717699D01*
X245518Y717687D01*
X245548Y717688D01*
X245590Y717680D01*
X249390Y717680D01*
X249440Y717691D01*
G37*
G36*
X276440Y717691D02*
X276440Y717691D01*
X276491Y717693D01*
X276523Y717711D01*
X276559Y717719D01*
X276598Y717752D01*
X276643Y717776D01*
X276664Y717806D01*
X276692Y717829D01*
X276713Y717876D01*
X276743Y717918D01*
X276751Y717960D01*
X276763Y717988D01*
X276762Y718018D01*
X276770Y718060D01*
X276770Y731560D01*
X276767Y731573D01*
X276769Y731587D01*
X276748Y731657D01*
X276731Y731729D01*
X276722Y731739D01*
X276718Y731752D01*
X276667Y731806D01*
X276621Y731862D01*
X276608Y731868D01*
X276599Y731878D01*
X276465Y731933D01*
X275973Y732031D01*
X275582Y732129D01*
X275546Y732129D01*
X275490Y732140D01*
X275028Y732140D01*
X274573Y732231D01*
X274182Y732329D01*
X274174Y732329D01*
X274165Y732333D01*
X273173Y732531D01*
X272782Y732629D01*
X272772Y732629D01*
X272762Y732633D01*
X272686Y732630D01*
X272609Y732632D01*
X272600Y732627D01*
X272589Y732627D01*
X272522Y732590D01*
X272453Y732557D01*
X272446Y732549D01*
X272437Y732544D01*
X272393Y732481D01*
X272345Y732421D01*
X272343Y732411D01*
X272337Y732402D01*
X272310Y732260D01*
X272310Y730844D01*
X272187Y730998D01*
X272184Y731000D01*
X272182Y731003D01*
X271682Y731603D01*
X271667Y731615D01*
X271663Y731622D01*
X271649Y731631D01*
X271628Y731657D01*
X271128Y732057D01*
X271104Y732068D01*
X271079Y732090D01*
X270379Y732490D01*
X270349Y732499D01*
X270310Y732521D01*
X269710Y732721D01*
X269703Y732721D01*
X269694Y732726D01*
X268994Y732926D01*
X268956Y732928D01*
X268890Y732940D01*
X267490Y732940D01*
X267416Y732923D01*
X267341Y732910D01*
X267331Y732903D01*
X267321Y732901D01*
X267292Y732877D01*
X267221Y732829D01*
X267220Y732828D01*
X267189Y732827D01*
X267157Y732809D01*
X267121Y732801D01*
X267082Y732768D01*
X267037Y732744D01*
X267016Y732714D01*
X266988Y732691D01*
X266967Y732644D01*
X266937Y732602D01*
X266929Y732560D01*
X266917Y732532D01*
X266918Y732502D01*
X266910Y732460D01*
X266910Y728860D01*
X266921Y728810D01*
X266923Y728759D01*
X266941Y728727D01*
X266949Y728691D01*
X266982Y728652D01*
X267006Y728607D01*
X267036Y728586D01*
X267059Y728558D01*
X267106Y728537D01*
X267148Y728507D01*
X267190Y728499D01*
X267218Y728487D01*
X267248Y728488D01*
X267290Y728480D01*
X267390Y728480D01*
X267405Y728483D01*
X267420Y728481D01*
X267552Y728518D01*
X267559Y728519D01*
X267559Y728520D01*
X267560Y728520D01*
X267680Y728580D01*
X268671Y728580D01*
X269625Y728484D01*
X270347Y728304D01*
X270942Y727964D01*
X271376Y727442D01*
X271737Y726811D01*
X271921Y726166D01*
X272110Y725318D01*
X272110Y718060D01*
X272121Y718010D01*
X272123Y717959D01*
X272141Y717927D01*
X272149Y717891D01*
X272182Y717852D01*
X272206Y717807D01*
X272236Y717786D01*
X272259Y717758D01*
X272306Y717737D01*
X272348Y717707D01*
X272390Y717699D01*
X272418Y717687D01*
X272448Y717688D01*
X272490Y717680D01*
X276390Y717680D01*
X276440Y717691D01*
G37*
%LPC*%
G36*
X82728Y262049D02*
X82728Y262049D01*
X82155Y262240D01*
X81869Y262812D01*
X81869Y269600D01*
X81833Y269647D01*
X81826Y269642D01*
X81820Y269649D01*
X79132Y269649D01*
X78565Y269933D01*
X78470Y270599D01*
X78564Y271167D01*
X79132Y271451D01*
X86812Y271451D01*
X87376Y271263D01*
X87471Y270692D01*
X87515Y270651D01*
X87519Y270655D01*
X87523Y270651D01*
X89323Y270751D01*
X89356Y270779D01*
X89366Y270782D01*
X89557Y271261D01*
X90128Y271451D01*
X90802Y271451D01*
X91471Y270877D01*
X91471Y266000D01*
X91479Y265989D01*
X91477Y265976D01*
X91490Y265974D01*
X91507Y265953D01*
X91518Y265961D01*
X91520Y265958D01*
X91527Y265958D01*
X91540Y265967D01*
X91555Y265965D01*
X91755Y266165D01*
X91756Y266170D01*
X91759Y266170D01*
X92059Y266570D01*
X95159Y270670D01*
X95159Y270673D01*
X95161Y270673D01*
X95551Y271258D01*
X96227Y271451D01*
X96903Y271451D01*
X97375Y271073D01*
X97471Y270496D01*
X97471Y263004D01*
X97374Y262424D01*
X97000Y262049D01*
X96128Y262049D01*
X95557Y262240D01*
X95369Y262709D01*
X95369Y267300D01*
X95359Y267313D01*
X95360Y267329D01*
X95347Y267330D01*
X95333Y267347D01*
X95319Y267337D01*
X95310Y267337D01*
X95301Y267330D01*
X95281Y267330D01*
X91583Y262533D01*
X91100Y262049D01*
X90323Y262049D01*
X89650Y262145D01*
X89367Y262617D01*
X89269Y263204D01*
X89269Y269997D01*
X89369Y270693D01*
X89340Y270745D01*
X89327Y270738D01*
X89317Y270749D01*
X87517Y270649D01*
X87472Y270611D01*
X87473Y270609D01*
X87471Y270608D01*
X87375Y270027D01*
X86903Y269649D01*
X84220Y269649D01*
X84173Y269613D01*
X84175Y269610D01*
X84171Y269608D01*
X84071Y269008D01*
X84074Y269003D01*
X84071Y269000D01*
X84071Y262904D01*
X83976Y262333D01*
X83408Y262049D01*
X82728Y262049D01*
G37*
%LPD*%
%LPC*%
G36*
X65424Y209849D02*
X65424Y209849D01*
X64851Y209945D01*
X64568Y210416D01*
X64471Y211291D01*
X64756Y211861D01*
X65229Y212051D01*
X69320Y212051D01*
X69350Y212073D01*
X69362Y212075D01*
X69662Y212575D01*
X69662Y212581D01*
X69665Y212583D01*
X69661Y212590D01*
X69660Y212593D01*
X69669Y212600D01*
X69669Y213200D01*
X69640Y213238D01*
X69638Y213246D01*
X69138Y213446D01*
X69125Y213442D01*
X69120Y213449D01*
X67024Y213449D01*
X66444Y213546D01*
X66067Y213923D01*
X65970Y214700D01*
X66065Y215370D01*
X66534Y215651D01*
X69220Y215651D01*
X69238Y215664D01*
X69250Y215661D01*
X69650Y215961D01*
X69654Y215977D01*
X69661Y215982D01*
X69657Y215987D01*
X69659Y215992D01*
X69669Y216000D01*
X69669Y216700D01*
X69653Y216721D01*
X69655Y216735D01*
X69255Y217135D01*
X69228Y217139D01*
X69220Y217149D01*
X65129Y217149D01*
X64660Y217337D01*
X64470Y217905D01*
X64567Y218781D01*
X64850Y219157D01*
X65527Y219351D01*
X70217Y219351D01*
X71013Y219251D01*
X71585Y219156D01*
X71772Y218688D01*
X71871Y217897D01*
X71871Y211203D01*
X71772Y210415D01*
X71586Y210041D01*
X70913Y209849D01*
X65424Y209849D01*
G37*
%LPD*%
%LPC*%
G36*
X63429Y220649D02*
X63429Y220649D01*
X62969Y220833D01*
X62969Y221491D01*
X63153Y221951D01*
X101899Y221951D01*
X101095Y220649D01*
X63429Y220649D01*
G37*
%LPD*%
%LPC*%
G36*
X95241Y235445D02*
X95241Y235445D01*
X94660Y235833D01*
X94473Y236300D01*
X94966Y237582D01*
X95465Y238781D01*
X95458Y238810D01*
X95464Y238822D01*
X94964Y239822D01*
X94668Y240415D01*
X94569Y241103D01*
X94569Y241792D01*
X94766Y242382D01*
X95063Y243074D01*
X95457Y243567D01*
X95949Y244059D01*
X96498Y244334D01*
X97458Y242414D01*
X96989Y242038D01*
X96984Y242019D01*
X96973Y242016D01*
X96773Y241416D01*
X96775Y241409D01*
X96774Y241408D01*
X96777Y241404D01*
X96780Y241396D01*
X96773Y241386D01*
X96973Y240686D01*
X96990Y240674D01*
X96989Y240662D01*
X97489Y240262D01*
X97508Y240261D01*
X97513Y240251D01*
X98213Y240151D01*
X98218Y240154D01*
X98220Y240151D01*
X99520Y240151D01*
X99563Y240183D01*
X99567Y240184D01*
X99667Y240484D01*
X99664Y240493D01*
X99667Y240495D01*
X99666Y240497D01*
X99669Y240500D01*
X99669Y241900D01*
X99666Y241905D01*
X99669Y241908D01*
X99571Y242492D01*
X100741Y244751D01*
X101206Y244751D01*
X101679Y244467D01*
X101871Y243892D01*
X101871Y236503D01*
X101773Y235820D01*
X101493Y235446D01*
X100720Y235350D01*
X99950Y235446D01*
X99669Y235914D01*
X99669Y237900D01*
X99633Y237947D01*
X99626Y237942D01*
X99620Y237949D01*
X97620Y237949D01*
X97585Y237923D01*
X97575Y237920D01*
X96576Y235721D01*
X96483Y235537D01*
X95915Y235253D01*
X95241Y235445D01*
G37*
%LPD*%
%LPC*%
G36*
X88528Y235249D02*
X88528Y235249D01*
X87939Y235446D01*
X86749Y236041D01*
X86261Y236529D01*
X85966Y237118D01*
X85769Y237807D01*
X85769Y238497D01*
X85868Y239189D01*
X86063Y239773D01*
X86553Y240263D01*
X87044Y240656D01*
X87635Y240853D01*
X88334Y241053D01*
X88335Y241054D01*
X88336Y241053D01*
X88935Y241253D01*
X89634Y241453D01*
X89642Y241464D01*
X89651Y241462D01*
X90151Y241862D01*
X90158Y241892D01*
X90169Y241900D01*
X90169Y242500D01*
X90150Y242525D01*
X90151Y242538D01*
X89651Y242938D01*
X89628Y242939D01*
X89620Y242949D01*
X88820Y242949D01*
X88802Y242935D01*
X88789Y242938D01*
X88293Y242542D01*
X87712Y242251D01*
X87144Y242346D01*
X86661Y242829D01*
X86372Y243407D01*
X86465Y243873D01*
X87049Y244360D01*
X87540Y244654D01*
X88230Y244852D01*
X88923Y244951D01*
X89617Y244951D01*
X90309Y244852D01*
X90898Y244655D01*
X91486Y244263D01*
X91882Y243769D01*
X92273Y243280D01*
X92371Y242593D01*
X92470Y241903D01*
X92441Y241802D01*
X92427Y241753D01*
X92385Y241605D01*
X92342Y241458D01*
X92328Y241408D01*
X92286Y241261D01*
X92273Y241215D01*
X92077Y240627D01*
X91590Y240139D01*
X91097Y239843D01*
X90502Y239546D01*
X89806Y239347D01*
X89805Y239346D01*
X89804Y239347D01*
X89205Y239147D01*
X88506Y238947D01*
X88498Y238936D01*
X88489Y238938D01*
X87989Y238538D01*
X87982Y238508D01*
X87974Y238503D01*
X87978Y238498D01*
X87971Y238492D01*
X88071Y237892D01*
X88087Y237877D01*
X88085Y237865D01*
X88485Y237465D01*
X88508Y237462D01*
X88514Y237451D01*
X89314Y237351D01*
X89323Y237356D01*
X89331Y237356D01*
X89336Y237353D01*
X89936Y237553D01*
X89943Y237564D01*
X89952Y237562D01*
X90550Y238061D01*
X91139Y238454D01*
X91607Y238547D01*
X92185Y238065D01*
X92568Y237586D01*
X92473Y237020D01*
X92183Y236632D01*
X91787Y236237D01*
X91193Y235742D01*
X90605Y235448D01*
X89913Y235349D01*
X89217Y235249D01*
X88528Y235249D01*
G37*
%LPD*%
%LPC*%
G36*
X98128Y209849D02*
X98128Y209849D01*
X97536Y210047D01*
X97534Y210046D01*
X97534Y210047D01*
X96843Y210245D01*
X96351Y210638D01*
X95857Y211034D01*
X95465Y211621D01*
X95269Y212307D01*
X95269Y212997D01*
X95368Y213689D01*
X95565Y214278D01*
X95955Y214863D01*
X96443Y215157D01*
X97038Y215454D01*
X97730Y215652D01*
X98427Y215751D01*
X98432Y215756D01*
X98436Y215753D01*
X99036Y215953D01*
X99043Y215964D01*
X99051Y215962D01*
X99551Y216362D01*
X99557Y216386D01*
X99569Y216392D01*
X99669Y216992D01*
X99653Y217022D01*
X99655Y217035D01*
X99155Y217535D01*
X99128Y217539D01*
X99120Y217549D01*
X98420Y217549D01*
X98405Y217538D01*
X98395Y217542D01*
X97895Y217243D01*
X97207Y216849D01*
X96738Y216849D01*
X96159Y217331D01*
X95869Y217912D01*
X95869Y218477D01*
X96449Y218960D01*
X96940Y219254D01*
X97630Y219452D01*
X98323Y219551D01*
X99017Y219551D01*
X99709Y219452D01*
X100301Y219254D01*
X100891Y218959D01*
X101379Y218471D01*
X101674Y217881D01*
X101871Y217292D01*
X101871Y216603D01*
X101772Y215911D01*
X101576Y215324D01*
X101186Y214837D01*
X100595Y214443D01*
X100001Y214146D01*
X99407Y213948D01*
X98109Y213648D01*
X98101Y213638D01*
X98093Y213641D01*
X97493Y213241D01*
X97481Y213208D01*
X97471Y213200D01*
X97471Y212500D01*
X97487Y212479D01*
X97485Y212465D01*
X97885Y212065D01*
X97908Y212062D01*
X97914Y212051D01*
X98714Y211951D01*
X98723Y211957D01*
X98731Y211957D01*
X98736Y211953D01*
X99336Y212153D01*
X99342Y212163D01*
X99350Y212161D01*
X100541Y213054D01*
X101010Y213148D01*
X101585Y212765D01*
X101971Y212185D01*
X101971Y211716D01*
X101681Y211330D01*
X101286Y210837D01*
X100695Y210443D01*
X100101Y210146D01*
X99509Y209948D01*
X98817Y209849D01*
X98128Y209849D01*
G37*
%LPD*%
%LPC*%
G36*
X79523Y185849D02*
X79523Y185849D01*
X78831Y185948D01*
X78239Y186146D01*
X77649Y186441D01*
X77157Y186933D01*
X76764Y187424D01*
X76568Y188011D01*
X76469Y188703D01*
X76469Y189492D01*
X76666Y190081D01*
X76959Y190668D01*
X77447Y191058D01*
X78038Y191354D01*
X78732Y191552D01*
X80031Y191852D01*
X80037Y191859D01*
X80042Y191856D01*
X80642Y192156D01*
X80654Y192180D01*
X80667Y192184D01*
X80867Y192784D01*
X80857Y192813D01*
X80862Y192825D01*
X80562Y193325D01*
X80538Y193335D01*
X80534Y193347D01*
X79834Y193547D01*
X79814Y193540D01*
X79804Y193547D01*
X79204Y193347D01*
X79199Y193339D01*
X79193Y193341D01*
X78598Y192945D01*
X78030Y192755D01*
X77555Y193135D01*
X77066Y193722D01*
X76973Y194187D01*
X77453Y194762D01*
X77942Y195056D01*
X78634Y195352D01*
X79228Y195451D01*
X79920Y195550D01*
X80709Y195452D01*
X81304Y195253D01*
X81893Y195057D01*
X82383Y194567D01*
X82776Y194076D01*
X82972Y193489D01*
X83071Y192797D01*
X83071Y192108D01*
X82875Y191522D01*
X82483Y190934D01*
X81993Y190542D01*
X81398Y190244D01*
X80802Y189946D01*
X80110Y189748D01*
X79413Y189649D01*
X79405Y189641D01*
X79398Y189644D01*
X78798Y189344D01*
X78783Y189314D01*
X78771Y189308D01*
X78671Y188708D01*
X78680Y188691D01*
X78674Y188682D01*
X78874Y188182D01*
X78897Y188168D01*
X78901Y188155D01*
X79601Y187855D01*
X79619Y187859D01*
X79627Y187851D01*
X80327Y187951D01*
X80338Y187962D01*
X80347Y187959D01*
X80947Y188359D01*
X80949Y188363D01*
X80952Y188362D01*
X81546Y188857D01*
X82025Y189049D01*
X82594Y188954D01*
X83074Y188378D01*
X83169Y187905D01*
X82878Y187228D01*
X82091Y186441D01*
X81502Y186146D01*
X80810Y185948D01*
X80117Y185849D01*
X79523Y185849D01*
G37*
%LPD*%
%LPC*%
G36*
X299460Y721134D02*
X299460Y721134D01*
X298767Y721308D01*
X298263Y721728D01*
X297919Y722157D01*
X297643Y722802D01*
X297362Y723552D01*
X297270Y724284D01*
X297270Y725936D01*
X297362Y726668D01*
X297643Y727418D01*
X297918Y728059D01*
X298347Y728574D01*
X298872Y728924D01*
X299488Y729188D01*
X300287Y729277D01*
X300998Y729188D01*
X301700Y728925D01*
X302122Y728587D01*
X302562Y728059D01*
X302837Y727418D01*
X303118Y726668D01*
X303210Y725936D01*
X303210Y724307D01*
X302828Y722782D01*
X302569Y722177D01*
X302133Y721741D01*
X301608Y721304D01*
X301016Y721134D01*
X300193Y721043D01*
X299460Y721134D01*
G37*
%LPD*%
%LPC*%
G36*
X79543Y209947D02*
X79543Y209947D01*
X79169Y210320D01*
X79169Y213000D01*
X79156Y213018D01*
X79159Y213030D01*
X78859Y213430D01*
X78828Y213439D01*
X78820Y213449D01*
X76036Y213449D01*
X75663Y213730D01*
X75470Y214404D01*
X75567Y215181D01*
X75847Y215554D01*
X76523Y215651D01*
X78520Y215651D01*
X78529Y215658D01*
X78536Y215653D01*
X79136Y215853D01*
X79155Y215882D01*
X79157Y215883D01*
X79156Y215884D01*
X79166Y215897D01*
X79169Y215900D01*
X79169Y216500D01*
X79162Y216509D01*
X79167Y216516D01*
X78967Y217116D01*
X78923Y217146D01*
X78920Y217149D01*
X74824Y217149D01*
X74253Y217244D01*
X73969Y217812D01*
X73969Y218586D01*
X74253Y219059D01*
X74831Y219252D01*
X75722Y219351D01*
X80515Y219251D01*
X81085Y219156D01*
X81272Y218688D01*
X81371Y217897D01*
X81371Y211103D01*
X81272Y210415D01*
X81086Y210042D01*
X80317Y209850D01*
X79543Y209947D01*
G37*
%LPD*%
%LPC*%
G36*
X73245Y246049D02*
X73245Y246049D01*
X72969Y246416D01*
X72969Y247075D01*
X73336Y247351D01*
X101977Y247351D01*
X101303Y246049D01*
X73245Y246049D01*
G37*
%LPD*%
%LPC*%
G36*
X84835Y209947D02*
X84835Y209947D01*
X84055Y210338D01*
X83774Y210806D01*
X83966Y211381D01*
X87461Y218771D01*
X87947Y219257D01*
X88520Y219448D01*
X89093Y219257D01*
X89579Y218771D01*
X92094Y213527D01*
X89355Y213944D01*
X89166Y214418D01*
X89165Y214419D01*
X88665Y215619D01*
X88614Y215649D01*
X88608Y215639D01*
X88598Y215644D01*
X88398Y215544D01*
X88388Y215524D01*
X88385Y215522D01*
X88375Y215519D01*
X87875Y214319D01*
X87878Y214306D01*
X87871Y214300D01*
X87871Y213900D01*
X87907Y213853D01*
X87914Y213858D01*
X87920Y213851D01*
X89190Y213851D01*
X90138Y212049D01*
X86820Y212049D01*
X86790Y212027D01*
X86778Y212025D01*
X86478Y211525D01*
X86478Y211521D01*
X86475Y211521D01*
X85880Y210231D01*
X85406Y209852D01*
X84835Y209947D01*
G37*
%LPD*%
%LPC*%
G36*
X305497Y700319D02*
X305497Y700319D01*
X304616Y701004D01*
X303730Y702284D01*
X303828Y704053D01*
X304713Y705330D01*
X306290Y706021D01*
X309563Y706021D01*
X310531Y705246D01*
X310531Y700319D01*
X305497Y700319D01*
G37*
%LPD*%
%LPC*%
G36*
X251888Y700519D02*
X251888Y700519D01*
X250410Y701012D01*
X249429Y702287D01*
X249429Y704156D01*
X250222Y705444D01*
X250220Y705462D01*
X250244Y705437D01*
X250298Y705427D01*
X250301Y705425D01*
X251791Y706121D01*
X255166Y706121D01*
X256131Y705542D01*
X256131Y700519D01*
X251888Y700519D01*
G37*
%LPD*%
%LPC*%
G36*
X78837Y235249D02*
X78837Y235249D01*
X78362Y235629D01*
X78169Y236208D01*
X78169Y242300D01*
X78166Y242305D01*
X78169Y242308D01*
X78069Y242908D01*
X78025Y242949D01*
X78023Y242946D01*
X78020Y242949D01*
X75240Y242949D01*
X74866Y243323D01*
X74770Y243995D01*
X74959Y244561D01*
X75528Y244751D01*
X82317Y244751D01*
X83204Y244652D01*
X83675Y244370D01*
X83770Y243705D01*
X83581Y243139D01*
X83012Y242949D01*
X81020Y242949D01*
X81016Y242946D01*
X81013Y242949D01*
X80313Y242849D01*
X80271Y242806D01*
X80275Y242803D01*
X80271Y242800D01*
X80271Y236008D01*
X80081Y235439D01*
X79512Y235249D01*
X78837Y235249D01*
G37*
%LPD*%
%LPC*%
G36*
X207230Y674669D02*
X207230Y674669D01*
X205650Y675360D01*
X204667Y676540D01*
X204470Y678314D01*
X205061Y679889D01*
X206437Y680872D01*
X208011Y680970D01*
X209488Y680280D01*
X210472Y679002D01*
X210570Y677130D01*
X209880Y675652D01*
X208603Y674669D01*
X207230Y674669D01*
G37*
%LPD*%
%LPC*%
G36*
X100428Y185849D02*
X100428Y185849D01*
X99857Y186040D01*
X99669Y186509D01*
X99669Y187900D01*
X99661Y187911D01*
X99666Y187918D01*
X99466Y188418D01*
X99425Y188443D01*
X99420Y188449D01*
X97428Y188449D01*
X96839Y188646D01*
X96291Y188920D01*
X97443Y190744D01*
X97808Y190652D01*
X97816Y190656D01*
X97820Y190651D01*
X99220Y190651D01*
X99238Y190664D01*
X99250Y190661D01*
X99650Y190961D01*
X99659Y190992D01*
X99669Y191000D01*
X99669Y192985D01*
X101105Y195190D01*
X101397Y195153D01*
X101774Y194776D01*
X101871Y194196D01*
X101871Y186704D01*
X101775Y186131D01*
X101306Y185849D01*
X100428Y185849D01*
G37*
%LPD*%
%LPC*%
G36*
X86647Y189042D02*
X86647Y189042D01*
X86153Y189437D01*
X85661Y189929D01*
X85366Y190518D01*
X85169Y191207D01*
X85169Y192500D01*
X85133Y192547D01*
X85130Y192545D01*
X85127Y192549D01*
X85106Y192552D01*
X85115Y192551D01*
X85162Y192580D01*
X85165Y192581D01*
X85465Y193279D01*
X85759Y193868D01*
X86251Y194262D01*
X86252Y194262D01*
X86847Y194759D01*
X87439Y195054D01*
X88028Y195251D01*
X91417Y195251D01*
X92094Y195154D01*
X92471Y194683D01*
X92471Y192497D01*
X90254Y192549D01*
X90066Y193018D01*
X90025Y193043D01*
X90020Y193049D01*
X88720Y193049D01*
X88716Y193046D01*
X88713Y193049D01*
X88013Y192949D01*
X87998Y192933D01*
X87985Y192935D01*
X87485Y192435D01*
X87482Y192414D01*
X87471Y192408D01*
X87371Y191808D01*
X87379Y191794D01*
X87373Y191786D01*
X87573Y191086D01*
X87590Y191074D01*
X87589Y191062D01*
X88059Y190685D01*
X87196Y188767D01*
X86647Y189042D01*
G37*
%LPD*%
%LPC*%
G36*
X99950Y262145D02*
X99950Y262145D01*
X99669Y262614D01*
X99669Y270791D01*
X99857Y271259D01*
X100524Y271450D01*
X101314Y271351D01*
X101357Y271376D01*
X101364Y271377D01*
X101379Y271406D01*
X101388Y271363D01*
X101390Y271364D01*
X101390Y271361D01*
X101775Y271072D01*
X101871Y270496D01*
X101871Y263103D01*
X101774Y262423D01*
X101497Y262147D01*
X100621Y262050D01*
X99950Y262145D01*
G37*
%LPD*%
%LPC*%
G36*
X90932Y185849D02*
X90932Y185849D01*
X90364Y186133D01*
X90269Y186704D01*
X90269Y188000D01*
X90256Y188018D01*
X90259Y188030D01*
X89959Y188430D01*
X89928Y188439D01*
X89920Y188449D01*
X88524Y188449D01*
X87932Y188548D01*
X87385Y188730D01*
X88153Y190651D01*
X89920Y190651D01*
X89946Y190670D01*
X89959Y190670D01*
X90259Y191070D01*
X90259Y191092D01*
X90269Y191100D01*
X90269Y192450D01*
X92471Y192398D01*
X92471Y186608D01*
X92281Y186039D01*
X91712Y185849D01*
X90932Y185849D01*
G37*
%LPD*%
%LPC*%
G36*
X95653Y189337D02*
X95653Y189337D01*
X95161Y189829D01*
X94866Y190419D01*
X94668Y191011D01*
X94569Y191703D01*
X94569Y192393D01*
X94600Y192502D01*
X94601Y192502D01*
X94600Y192502D01*
X94643Y192650D01*
X94657Y192699D01*
X94699Y192847D01*
X94741Y192995D01*
X94755Y193044D01*
X94765Y193079D01*
X95161Y193673D01*
X95556Y194265D01*
X96145Y194657D01*
X96739Y194954D01*
X97332Y195152D01*
X97924Y195251D01*
X100617Y195251D01*
X100996Y195203D01*
X99593Y193049D01*
X98220Y193049D01*
X98215Y193046D01*
X98212Y193049D01*
X97612Y192949D01*
X97602Y192938D01*
X97593Y192941D01*
X96993Y192541D01*
X96985Y192520D01*
X96973Y192516D01*
X96773Y191916D01*
X96778Y191900D01*
X96771Y191893D01*
X96871Y191193D01*
X96890Y191175D01*
X96889Y191162D01*
X97354Y190790D01*
X96109Y188972D01*
X95653Y189337D01*
G37*
%LPD*%
%LPC*%
G36*
X285628Y720640D02*
X285628Y720640D01*
X285165Y720733D01*
X285133Y720732D01*
X285090Y720740D01*
X284680Y720740D01*
X284360Y720900D01*
X284327Y720908D01*
X284282Y720929D01*
X283946Y721013D01*
X283732Y721156D01*
X283586Y721302D01*
X283406Y721571D01*
X283384Y721592D01*
X283359Y721629D01*
X283222Y721765D01*
X283051Y722280D01*
X283038Y722300D01*
X283030Y722330D01*
X282942Y722506D01*
X282870Y722722D01*
X282870Y724345D01*
X283120Y724220D01*
X283135Y724216D01*
X283148Y724207D01*
X283282Y724181D01*
X283289Y724180D01*
X283290Y724180D01*
X283400Y724180D01*
X283520Y724120D01*
X283535Y724116D01*
X283548Y724107D01*
X283682Y724081D01*
X283689Y724080D01*
X283690Y724080D01*
X284000Y724080D01*
X284120Y724020D01*
X284135Y724016D01*
X284148Y724007D01*
X284282Y723981D01*
X284289Y723980D01*
X284290Y723980D01*
X284428Y723980D01*
X284670Y723899D01*
X284707Y723896D01*
X284790Y723880D01*
X285128Y723880D01*
X285370Y723799D01*
X285407Y723796D01*
X285490Y723780D01*
X285800Y723780D01*
X285920Y723720D01*
X285935Y723716D01*
X285948Y723707D01*
X286082Y723681D01*
X286089Y723680D01*
X286090Y723680D01*
X286228Y723680D01*
X286444Y723608D01*
X286565Y723548D01*
X286621Y723491D01*
X286653Y723471D01*
X286720Y723420D01*
X287065Y723248D01*
X287121Y723191D01*
X287153Y723171D01*
X287220Y723120D01*
X287307Y723077D01*
X287510Y722670D01*
X287510Y722560D01*
X287513Y722545D01*
X287511Y722530D01*
X287548Y722398D01*
X287549Y722391D01*
X287550Y722391D01*
X287550Y722390D01*
X287610Y722270D01*
X287610Y721922D01*
X287529Y721680D01*
X287526Y721643D01*
X287510Y721560D01*
X287510Y721450D01*
X287478Y721385D01*
X287421Y721329D01*
X287413Y721315D01*
X287410Y721313D01*
X287407Y721305D01*
X287401Y721297D01*
X287350Y721230D01*
X287307Y721143D01*
X287220Y721100D01*
X287191Y721076D01*
X287121Y721029D01*
X287065Y720973D01*
X286800Y720840D01*
X286690Y720840D01*
X286675Y720837D01*
X286660Y720839D01*
X286528Y720802D01*
X286521Y720801D01*
X286521Y720800D01*
X286520Y720800D01*
X286400Y720740D01*
X286290Y720740D01*
X286275Y720737D01*
X286260Y720739D01*
X286128Y720702D01*
X286121Y720701D01*
X286121Y720700D01*
X286120Y720700D01*
X286045Y720663D01*
X286000Y720640D01*
X285628Y720640D01*
G37*
%LPD*%
%LPC*%
G36*
X255343Y678864D02*
X255343Y678864D01*
X255329Y678857D01*
X255320Y678869D01*
X251936Y678869D01*
X250880Y679637D01*
X251456Y681078D01*
X253020Y681469D01*
X254495Y681076D01*
X255762Y679808D01*
X255374Y678838D01*
X255375Y678835D01*
X255372Y678833D01*
X255373Y678832D01*
X255372Y678832D01*
X255367Y678812D01*
X255343Y678864D01*
G37*
%LPD*%
%LPC*%
G36*
X91259Y210232D02*
X91259Y210232D01*
X90664Y211422D01*
X90660Y211424D01*
X90661Y211427D01*
X90263Y212024D01*
X89404Y213837D01*
X92145Y213419D01*
X93074Y211482D01*
X93266Y210906D01*
X92983Y210434D01*
X92301Y209947D01*
X91734Y209852D01*
X91259Y210232D01*
G37*
%LPD*%
%LPC*%
G36*
X96586Y244378D02*
X96586Y244378D01*
X97135Y244653D01*
X97724Y244751D01*
X100630Y244751D01*
X99490Y242549D01*
X98220Y242549D01*
X98216Y242546D01*
X98213Y242549D01*
X97548Y242454D01*
X96586Y244378D01*
G37*
%LPD*%
%LPC*%
G36*
X101211Y220649D02*
X101211Y220649D01*
X102015Y221951D01*
X102371Y221951D01*
X102371Y220925D01*
X102004Y220649D01*
X101211Y220649D01*
G37*
%LPD*%
%LPC*%
G36*
X101413Y246049D02*
X101413Y246049D01*
X102087Y247351D01*
X102371Y247351D01*
X102371Y246604D01*
X102278Y246049D01*
X101413Y246049D01*
G37*
%LPD*%
D10*
X72898Y1013460D03*
D11*
X101600Y1007594D02*
X101600Y999006D01*
X76200Y999006D02*
X76200Y1007594D01*
X86216Y996212D02*
X91584Y996212D01*
X146150Y960200D02*
X158650Y960200D01*
X158650Y968900D02*
X158650Y986900D01*
X146150Y986900D02*
X146150Y968900D01*
D12*
X78740Y313436D02*
X78740Y296164D01*
X96520Y315976D02*
X96620Y315974D01*
X96719Y315968D01*
X96819Y315958D01*
X96917Y315945D01*
X97016Y315927D01*
X97113Y315906D01*
X97209Y315881D01*
X97305Y315852D01*
X97399Y315819D01*
X97492Y315783D01*
X97583Y315743D01*
X97673Y315699D01*
X97761Y315652D01*
X97847Y315602D01*
X97931Y315548D01*
X98013Y315491D01*
X98092Y315431D01*
X98170Y315367D01*
X98244Y315301D01*
X98316Y315232D01*
X98385Y315160D01*
X98451Y315086D01*
X98515Y315008D01*
X98575Y314929D01*
X98632Y314847D01*
X98686Y314763D01*
X98736Y314677D01*
X98783Y314589D01*
X98827Y314499D01*
X98867Y314408D01*
X98903Y314315D01*
X98936Y314221D01*
X98965Y314125D01*
X98990Y314029D01*
X99011Y313932D01*
X99029Y313833D01*
X99042Y313735D01*
X99052Y313635D01*
X99058Y313536D01*
X99060Y313436D01*
X99060Y296164D02*
X99058Y296064D01*
X99052Y295965D01*
X99042Y295865D01*
X99029Y295767D01*
X99011Y295668D01*
X98990Y295571D01*
X98965Y295475D01*
X98936Y295379D01*
X98903Y295285D01*
X98867Y295192D01*
X98827Y295101D01*
X98783Y295011D01*
X98736Y294923D01*
X98686Y294837D01*
X98632Y294753D01*
X98575Y294671D01*
X98515Y294592D01*
X98451Y294514D01*
X98385Y294440D01*
X98316Y294368D01*
X98244Y294299D01*
X98170Y294233D01*
X98092Y294169D01*
X98013Y294109D01*
X97931Y294052D01*
X97847Y293998D01*
X97761Y293948D01*
X97673Y293901D01*
X97583Y293857D01*
X97492Y293817D01*
X97399Y293781D01*
X97305Y293748D01*
X97209Y293719D01*
X97113Y293694D01*
X97016Y293673D01*
X96917Y293655D01*
X96819Y293642D01*
X96719Y293632D01*
X96620Y293626D01*
X96520Y293624D01*
X81280Y293624D02*
X81180Y293626D01*
X81081Y293632D01*
X80981Y293642D01*
X80883Y293655D01*
X80784Y293673D01*
X80687Y293694D01*
X80591Y293719D01*
X80495Y293748D01*
X80401Y293781D01*
X80308Y293817D01*
X80217Y293857D01*
X80127Y293901D01*
X80039Y293948D01*
X79953Y293998D01*
X79869Y294052D01*
X79787Y294109D01*
X79708Y294169D01*
X79630Y294233D01*
X79556Y294299D01*
X79484Y294368D01*
X79415Y294440D01*
X79349Y294514D01*
X79285Y294592D01*
X79225Y294671D01*
X79168Y294753D01*
X79114Y294837D01*
X79064Y294923D01*
X79017Y295011D01*
X78973Y295101D01*
X78933Y295192D01*
X78897Y295285D01*
X78864Y295379D01*
X78835Y295475D01*
X78810Y295571D01*
X78789Y295668D01*
X78771Y295767D01*
X78758Y295865D01*
X78748Y295965D01*
X78742Y296064D01*
X78740Y296164D01*
X78740Y313436D02*
X78742Y313536D01*
X78748Y313635D01*
X78758Y313735D01*
X78771Y313833D01*
X78789Y313932D01*
X78810Y314029D01*
X78835Y314125D01*
X78864Y314221D01*
X78897Y314315D01*
X78933Y314408D01*
X78973Y314499D01*
X79017Y314589D01*
X79064Y314677D01*
X79114Y314763D01*
X79168Y314847D01*
X79225Y314929D01*
X79285Y315008D01*
X79349Y315086D01*
X79415Y315160D01*
X79484Y315232D01*
X79556Y315301D01*
X79630Y315367D01*
X79708Y315431D01*
X79787Y315491D01*
X79869Y315548D01*
X79953Y315602D01*
X80039Y315652D01*
X80127Y315699D01*
X80217Y315743D01*
X80308Y315783D01*
X80401Y315819D01*
X80495Y315852D01*
X80591Y315881D01*
X80687Y315906D01*
X80784Y315927D01*
X80883Y315945D01*
X80981Y315958D01*
X81081Y315968D01*
X81180Y315974D01*
X81280Y315976D01*
X96520Y315976D01*
X96520Y293624D02*
X81280Y293624D01*
X99060Y296164D02*
X99060Y313436D01*
D11*
X330200Y822830D02*
X357970Y822830D01*
X357970Y833100D01*
X203200Y822830D02*
X175430Y822830D01*
X175430Y833100D01*
X357970Y1010210D02*
X357970Y1080370D01*
X175430Y1080370D02*
X175430Y1010210D01*
X175430Y1080370D02*
X357970Y1080370D01*
X94837Y925068D02*
X94837Y827532D01*
X129953Y823722D02*
X130066Y823706D01*
X130180Y823695D01*
X130294Y823688D01*
X130408Y823684D01*
X130523Y823685D01*
X130637Y823689D01*
X130751Y823697D01*
X130865Y823709D01*
X130978Y823725D01*
X131090Y823745D01*
X131202Y823769D01*
X131313Y823796D01*
X131423Y823828D01*
X131532Y823863D01*
X131640Y823901D01*
X131746Y823944D01*
X131850Y823990D01*
X131954Y824039D01*
X132055Y824092D01*
X132154Y824148D01*
X132252Y824208D01*
X132347Y824271D01*
X132440Y824338D01*
X132531Y824407D01*
X132619Y824479D01*
X132705Y824555D01*
X132789Y824633D01*
X132869Y824714D01*
X132947Y824798D01*
X133022Y824885D01*
X133093Y824974D01*
X133162Y825065D01*
X133228Y825159D01*
X133290Y825254D01*
X133349Y825352D01*
X133405Y825452D01*
X133457Y825554D01*
X133506Y825657D01*
X133551Y825762D01*
X133592Y825869D01*
X133630Y825977D01*
X133665Y826086D01*
X133695Y826196D01*
X133722Y826307D01*
X133744Y826419D01*
X133763Y826532D01*
X94837Y925068D02*
X94854Y925198D01*
X94875Y925327D01*
X94900Y925456D01*
X94928Y925584D01*
X94961Y925711D01*
X94997Y925837D01*
X95038Y925962D01*
X95082Y926085D01*
X95129Y926207D01*
X95181Y926328D01*
X95235Y926447D01*
X95294Y926564D01*
X95356Y926679D01*
X95421Y926793D01*
X95490Y926905D01*
X95563Y927014D01*
X95638Y927121D01*
X95717Y927226D01*
X95799Y927328D01*
X95884Y927428D01*
X95971Y927525D01*
X96062Y927620D01*
X96156Y927712D01*
X96252Y927801D01*
X96351Y927887D01*
X96452Y927969D01*
X96556Y928049D01*
X96663Y928126D01*
X96771Y928199D01*
X96882Y928269D01*
X96995Y928336D01*
X97110Y928399D01*
X97226Y928459D01*
X97345Y928515D01*
X97465Y928568D01*
X97586Y928617D01*
X97709Y928662D01*
X97834Y928704D01*
X97959Y928742D01*
X98086Y928775D01*
X98213Y928806D01*
X98342Y928832D01*
X98471Y928854D01*
X98601Y928873D01*
X98731Y928887D01*
X98862Y928898D01*
X98993Y928904D01*
X99124Y928907D01*
X99255Y928906D01*
X99386Y928900D01*
X99516Y928891D01*
X99647Y928878D01*
X94837Y827532D02*
X94839Y827410D01*
X94845Y827288D01*
X94855Y827166D01*
X94868Y827045D01*
X94886Y826924D01*
X94907Y826804D01*
X94932Y826684D01*
X94961Y826565D01*
X94994Y826448D01*
X95031Y826331D01*
X95071Y826216D01*
X95115Y826102D01*
X95163Y825990D01*
X95214Y825879D01*
X95269Y825770D01*
X95327Y825662D01*
X95389Y825557D01*
X95454Y825453D01*
X95522Y825352D01*
X95593Y825253D01*
X95668Y825156D01*
X95746Y825062D01*
X95826Y824970D01*
X95910Y824881D01*
X95996Y824795D01*
X96085Y824711D01*
X96177Y824631D01*
X96271Y824553D01*
X96368Y824478D01*
X96467Y824407D01*
X96568Y824339D01*
X96672Y824274D01*
X96777Y824212D01*
X96885Y824154D01*
X96994Y824099D01*
X97105Y824048D01*
X97217Y824000D01*
X97331Y823956D01*
X97446Y823916D01*
X97563Y823879D01*
X97680Y823846D01*
X97799Y823817D01*
X97919Y823792D01*
X98039Y823771D01*
X98160Y823753D01*
X98281Y823740D01*
X98403Y823730D01*
X98525Y823724D01*
X98647Y823722D01*
X133763Y925067D02*
X133778Y925181D01*
X133790Y925295D01*
X133797Y925409D01*
X133801Y925523D01*
X133800Y925637D01*
X133796Y925752D01*
X133788Y925866D01*
X133776Y925979D01*
X133760Y926092D01*
X133740Y926205D01*
X133716Y926317D01*
X133689Y926428D01*
X133658Y926538D01*
X133623Y926647D01*
X133584Y926754D01*
X133542Y926861D01*
X133496Y926965D01*
X133446Y927068D01*
X133393Y927170D01*
X133337Y927269D01*
X133277Y927367D01*
X133214Y927462D01*
X133148Y927555D01*
X133078Y927646D01*
X133006Y927734D01*
X132930Y927820D01*
X132852Y927903D01*
X132771Y927984D01*
X132687Y928062D01*
X132601Y928136D01*
X132512Y928208D01*
X132420Y928277D01*
X132327Y928343D01*
X132231Y928405D01*
X132133Y928464D01*
X132033Y928520D01*
X131931Y928572D01*
X131828Y928620D01*
X131723Y928666D01*
X131616Y928707D01*
X131508Y928745D01*
X131399Y928779D01*
X131289Y928809D01*
X131178Y928836D01*
X131066Y928859D01*
X130953Y928878D01*
X133763Y925068D02*
X133763Y826532D01*
X129953Y823722D02*
X98647Y823722D01*
X108204Y928370D02*
X108206Y928212D01*
X108212Y928053D01*
X108222Y927895D01*
X108236Y927738D01*
X108253Y927580D01*
X108275Y927424D01*
X108300Y927267D01*
X108330Y927112D01*
X108363Y926957D01*
X108400Y926803D01*
X108441Y926650D01*
X108486Y926498D01*
X108535Y926348D01*
X108587Y926198D01*
X108643Y926050D01*
X108703Y925903D01*
X108766Y925758D01*
X108833Y925615D01*
X108903Y925473D01*
X108977Y925333D01*
X109055Y925195D01*
X109136Y925059D01*
X109220Y924925D01*
X109307Y924793D01*
X109398Y924663D01*
X109492Y924536D01*
X109589Y924411D01*
X109690Y924288D01*
X109793Y924168D01*
X109899Y924051D01*
X110008Y923936D01*
X110120Y923824D01*
X110235Y923715D01*
X110352Y923609D01*
X110472Y923506D01*
X110595Y923405D01*
X110720Y923308D01*
X110847Y923214D01*
X110977Y923123D01*
X111109Y923036D01*
X111243Y922952D01*
X111379Y922871D01*
X111517Y922793D01*
X111657Y922719D01*
X111799Y922649D01*
X111942Y922582D01*
X112087Y922519D01*
X112234Y922459D01*
X112382Y922403D01*
X112532Y922351D01*
X112682Y922302D01*
X112834Y922257D01*
X112987Y922216D01*
X113141Y922179D01*
X113296Y922146D01*
X113451Y922116D01*
X113608Y922091D01*
X113764Y922069D01*
X113922Y922052D01*
X114079Y922038D01*
X114237Y922028D01*
X114396Y922022D01*
X114554Y922020D01*
X114712Y922022D01*
X114871Y922028D01*
X115029Y922038D01*
X115186Y922052D01*
X115344Y922069D01*
X115500Y922091D01*
X115657Y922116D01*
X115812Y922146D01*
X115967Y922179D01*
X116121Y922216D01*
X116274Y922257D01*
X116426Y922302D01*
X116576Y922351D01*
X116726Y922403D01*
X116874Y922459D01*
X117021Y922519D01*
X117166Y922582D01*
X117309Y922649D01*
X117451Y922719D01*
X117591Y922793D01*
X117729Y922871D01*
X117865Y922952D01*
X117999Y923036D01*
X118131Y923123D01*
X118261Y923214D01*
X118388Y923308D01*
X118513Y923405D01*
X118636Y923506D01*
X118756Y923609D01*
X118873Y923715D01*
X118988Y923824D01*
X119100Y923936D01*
X119209Y924051D01*
X119315Y924168D01*
X119418Y924288D01*
X119519Y924411D01*
X119616Y924536D01*
X119710Y924663D01*
X119801Y924793D01*
X119888Y924925D01*
X119972Y925059D01*
X120053Y925195D01*
X120131Y925333D01*
X120205Y925473D01*
X120275Y925615D01*
X120342Y925758D01*
X120405Y925903D01*
X120465Y926050D01*
X120521Y926198D01*
X120573Y926348D01*
X120622Y926498D01*
X120667Y926650D01*
X120708Y926803D01*
X120745Y926957D01*
X120778Y927112D01*
X120808Y927267D01*
X120833Y927424D01*
X120855Y927580D01*
X120872Y927738D01*
X120886Y927895D01*
X120896Y928053D01*
X120902Y928212D01*
X120904Y928370D01*
X108204Y928878D02*
X99774Y928878D01*
X120904Y928878D02*
X130953Y928878D01*
D13*
X138430Y933450D02*
X138432Y933521D01*
X138438Y933592D01*
X138448Y933663D01*
X138462Y933733D01*
X138480Y933802D01*
X138501Y933869D01*
X138527Y933936D01*
X138556Y934001D01*
X138588Y934064D01*
X138625Y934126D01*
X138664Y934185D01*
X138707Y934242D01*
X138753Y934296D01*
X138802Y934348D01*
X138854Y934397D01*
X138908Y934443D01*
X138965Y934486D01*
X139024Y934525D01*
X139086Y934562D01*
X139149Y934594D01*
X139214Y934623D01*
X139281Y934649D01*
X139348Y934670D01*
X139417Y934688D01*
X139487Y934702D01*
X139558Y934712D01*
X139629Y934718D01*
X139700Y934720D01*
X139771Y934718D01*
X139842Y934712D01*
X139913Y934702D01*
X139983Y934688D01*
X140052Y934670D01*
X140119Y934649D01*
X140186Y934623D01*
X140251Y934594D01*
X140314Y934562D01*
X140376Y934525D01*
X140435Y934486D01*
X140492Y934443D01*
X140546Y934397D01*
X140598Y934348D01*
X140647Y934296D01*
X140693Y934242D01*
X140736Y934185D01*
X140775Y934126D01*
X140812Y934064D01*
X140844Y934001D01*
X140873Y933936D01*
X140899Y933869D01*
X140920Y933802D01*
X140938Y933733D01*
X140952Y933663D01*
X140962Y933592D01*
X140968Y933521D01*
X140970Y933450D01*
X140968Y933379D01*
X140962Y933308D01*
X140952Y933237D01*
X140938Y933167D01*
X140920Y933098D01*
X140899Y933031D01*
X140873Y932964D01*
X140844Y932899D01*
X140812Y932836D01*
X140775Y932774D01*
X140736Y932715D01*
X140693Y932658D01*
X140647Y932604D01*
X140598Y932552D01*
X140546Y932503D01*
X140492Y932457D01*
X140435Y932414D01*
X140376Y932375D01*
X140314Y932338D01*
X140251Y932306D01*
X140186Y932277D01*
X140119Y932251D01*
X140052Y932230D01*
X139983Y932212D01*
X139913Y932198D01*
X139842Y932188D01*
X139771Y932182D01*
X139700Y932180D01*
X139629Y932182D01*
X139558Y932188D01*
X139487Y932198D01*
X139417Y932212D01*
X139348Y932230D01*
X139281Y932251D01*
X139214Y932277D01*
X139149Y932306D01*
X139086Y932338D01*
X139024Y932375D01*
X138965Y932414D01*
X138908Y932457D01*
X138854Y932503D01*
X138802Y932552D01*
X138753Y932604D01*
X138707Y932658D01*
X138664Y932715D01*
X138625Y932774D01*
X138588Y932836D01*
X138556Y932899D01*
X138527Y932964D01*
X138501Y933031D01*
X138480Y933098D01*
X138462Y933167D01*
X138448Y933237D01*
X138438Y933308D01*
X138432Y933379D01*
X138430Y933450D01*
D14*
X40640Y862965D03*
D11*
X44577Y865124D02*
X58293Y865124D01*
X58293Y887476D02*
X43307Y887476D01*
X58293Y866521D02*
X58293Y865124D01*
X58293Y886079D02*
X58293Y887476D01*
X43307Y866521D02*
X44577Y865124D01*
X43307Y886079D02*
X43307Y887476D01*
X160338Y815975D02*
X169863Y815975D01*
X154623Y815975D02*
X145098Y815975D01*
X3400Y845800D02*
X-14600Y845800D01*
X-14600Y932200D02*
X3400Y932200D01*
D12*
X22860Y808736D02*
X22860Y791464D01*
X5080Y788924D02*
X4980Y788926D01*
X4881Y788932D01*
X4781Y788942D01*
X4683Y788955D01*
X4584Y788973D01*
X4487Y788994D01*
X4391Y789019D01*
X4295Y789048D01*
X4201Y789081D01*
X4108Y789117D01*
X4017Y789157D01*
X3927Y789201D01*
X3839Y789248D01*
X3753Y789298D01*
X3669Y789352D01*
X3587Y789409D01*
X3508Y789469D01*
X3430Y789533D01*
X3356Y789599D01*
X3284Y789668D01*
X3215Y789740D01*
X3149Y789814D01*
X3085Y789892D01*
X3025Y789971D01*
X2968Y790053D01*
X2914Y790137D01*
X2864Y790223D01*
X2817Y790311D01*
X2773Y790401D01*
X2733Y790492D01*
X2697Y790585D01*
X2664Y790679D01*
X2635Y790775D01*
X2610Y790871D01*
X2589Y790968D01*
X2571Y791067D01*
X2558Y791165D01*
X2548Y791265D01*
X2542Y791364D01*
X2540Y791464D01*
X2540Y808736D02*
X2542Y808836D01*
X2548Y808935D01*
X2558Y809035D01*
X2571Y809133D01*
X2589Y809232D01*
X2610Y809329D01*
X2635Y809425D01*
X2664Y809521D01*
X2697Y809615D01*
X2733Y809708D01*
X2773Y809799D01*
X2817Y809889D01*
X2864Y809977D01*
X2914Y810063D01*
X2968Y810147D01*
X3025Y810229D01*
X3085Y810308D01*
X3149Y810386D01*
X3215Y810460D01*
X3284Y810532D01*
X3356Y810601D01*
X3430Y810667D01*
X3508Y810731D01*
X3587Y810791D01*
X3669Y810848D01*
X3753Y810902D01*
X3839Y810952D01*
X3927Y810999D01*
X4017Y811043D01*
X4108Y811083D01*
X4201Y811119D01*
X4295Y811152D01*
X4391Y811181D01*
X4487Y811206D01*
X4584Y811227D01*
X4683Y811245D01*
X4781Y811258D01*
X4881Y811268D01*
X4980Y811274D01*
X5080Y811276D01*
X20320Y811276D02*
X20420Y811274D01*
X20519Y811268D01*
X20619Y811258D01*
X20717Y811245D01*
X20816Y811227D01*
X20913Y811206D01*
X21009Y811181D01*
X21105Y811152D01*
X21199Y811119D01*
X21292Y811083D01*
X21383Y811043D01*
X21473Y810999D01*
X21561Y810952D01*
X21647Y810902D01*
X21731Y810848D01*
X21813Y810791D01*
X21892Y810731D01*
X21970Y810667D01*
X22044Y810601D01*
X22116Y810532D01*
X22185Y810460D01*
X22251Y810386D01*
X22315Y810308D01*
X22375Y810229D01*
X22432Y810147D01*
X22486Y810063D01*
X22536Y809977D01*
X22583Y809889D01*
X22627Y809799D01*
X22667Y809708D01*
X22703Y809615D01*
X22736Y809521D01*
X22765Y809425D01*
X22790Y809329D01*
X22811Y809232D01*
X22829Y809133D01*
X22842Y809035D01*
X22852Y808935D01*
X22858Y808836D01*
X22860Y808736D01*
X22860Y791464D02*
X22858Y791364D01*
X22852Y791265D01*
X22842Y791165D01*
X22829Y791067D01*
X22811Y790968D01*
X22790Y790871D01*
X22765Y790775D01*
X22736Y790679D01*
X22703Y790585D01*
X22667Y790492D01*
X22627Y790401D01*
X22583Y790311D01*
X22536Y790223D01*
X22486Y790137D01*
X22432Y790053D01*
X22375Y789971D01*
X22315Y789892D01*
X22251Y789814D01*
X22185Y789740D01*
X22116Y789668D01*
X22044Y789599D01*
X21970Y789533D01*
X21892Y789469D01*
X21813Y789409D01*
X21731Y789352D01*
X21647Y789298D01*
X21561Y789248D01*
X21473Y789201D01*
X21383Y789157D01*
X21292Y789117D01*
X21199Y789081D01*
X21105Y789048D01*
X21009Y789019D01*
X20913Y788994D01*
X20816Y788973D01*
X20717Y788955D01*
X20619Y788942D01*
X20519Y788932D01*
X20420Y788926D01*
X20320Y788924D01*
X5080Y788924D01*
X5080Y811276D02*
X20320Y811276D01*
X2540Y808736D02*
X2540Y791464D01*
M02*
