G04 EAGLE Gerber RS-274X export*
G75*
%MOMM*%
%FSLAX34Y34*%
%LPD*%
%INSoldermask Top*%
%IPPOS*%
%AMOC8*
5,1,8,0,0,1.08239X$1,22.5*%
G01*
%ADD10C,0.838200*%
%ADD11R,1.203200X1.303200*%
%ADD12R,1.403200X0.753200*%
%ADD13R,1.103200X1.053200*%
%ADD14R,1.303200X1.203200*%
%ADD15R,0.803200X0.803200*%
%ADD16R,1.053200X1.723200*%
%ADD17R,1.723200X1.053200*%
%ADD18R,1.303200X1.303200*%
%ADD19R,0.503200X1.203200*%
%ADD20R,0.803200X1.203200*%
%ADD21C,0.853200*%
%ADD22R,0.453200X0.813200*%
%ADD23R,0.453200X0.763200*%
%ADD24R,1.353200X7.203200*%
%ADD25R,1.103200X2.403200*%
%ADD26C,3.403600*%
%ADD27R,4.803200X1.203200*%
%ADD28R,3.603200X1.803200*%
%ADD29C,2.082800*%
%ADD30R,0.803200X1.903200*%
%ADD31R,1.203200X2.903200*%
%ADD32C,0.505344*%
%ADD33R,0.833200X1.033200*%
%ADD34R,0.840000X0.440000*%
%ADD35R,0.940000X1.520000*%
%ADD36R,0.838200X1.473200*%
%ADD37R,1.503200X0.903200*%
%ADD38R,1.403200X2.203200*%
%ADD39R,0.803200X1.553200*%
%ADD40R,0.803200X1.403200*%
%ADD41R,0.620000X0.840000*%
%ADD42R,0.620000X0.560000*%
%ADD43R,0.640000X0.840000*%
%ADD44R,0.753200X1.003200*%
%ADD45R,1.803200X1.753200*%
%ADD46R,1.033200X0.833200*%

G36*
X508784Y38053D02*
X508784Y38053D01*
X508790Y38059D01*
X508795Y38055D01*
X510025Y38420D01*
X510030Y38427D01*
X510035Y38425D01*
X511154Y39055D01*
X511157Y39062D01*
X511163Y39061D01*
X512113Y39924D01*
X512114Y39932D01*
X512120Y39932D01*
X512854Y40985D01*
X512854Y40993D01*
X512859Y40995D01*
X513341Y42185D01*
X513339Y42190D01*
X513343Y42193D01*
X513342Y42194D01*
X513344Y42195D01*
X513549Y43462D01*
X513546Y43467D01*
X513549Y43470D01*
X513549Y55470D01*
X513546Y55474D01*
X513549Y55477D01*
X513394Y56599D01*
X513389Y56604D01*
X513392Y56608D01*
X513021Y57679D01*
X513015Y57683D01*
X513017Y57688D01*
X512444Y58665D01*
X512438Y58668D01*
X512439Y58673D01*
X511686Y59520D01*
X511679Y59522D01*
X511679Y59527D01*
X510776Y60211D01*
X510769Y60211D01*
X510768Y60216D01*
X509749Y60711D01*
X509742Y60709D01*
X509740Y60714D01*
X508643Y61001D01*
X508637Y60998D01*
X508634Y61002D01*
X507503Y61069D01*
X507497Y61069D01*
X506366Y61002D01*
X506361Y60997D01*
X506357Y61001D01*
X505260Y60714D01*
X505256Y60708D01*
X505251Y60711D01*
X504232Y60216D01*
X504229Y60210D01*
X504224Y60211D01*
X503321Y59527D01*
X503319Y59520D01*
X503314Y59520D01*
X502561Y58673D01*
X502561Y58666D01*
X502556Y58665D01*
X501983Y57688D01*
X501984Y57685D01*
X501983Y57684D01*
X501984Y57683D01*
X501984Y57681D01*
X501979Y57679D01*
X501608Y56608D01*
X501610Y56603D01*
X501607Y56601D01*
X501607Y56600D01*
X501606Y56599D01*
X501451Y55477D01*
X501454Y55472D01*
X501451Y55470D01*
X501451Y43470D01*
X501454Y43465D01*
X501451Y43462D01*
X501656Y42195D01*
X501662Y42189D01*
X501659Y42185D01*
X502141Y40995D01*
X502148Y40991D01*
X502146Y40985D01*
X502880Y39932D01*
X502888Y39930D01*
X502887Y39924D01*
X503837Y39061D01*
X503846Y39060D01*
X503846Y39055D01*
X504965Y38425D01*
X504973Y38426D01*
X504975Y38420D01*
X506205Y38055D01*
X506213Y38058D01*
X506216Y38053D01*
X507497Y37971D01*
X507501Y37974D01*
X507503Y37971D01*
X508784Y38053D01*
G37*
G36*
X308084Y38053D02*
X308084Y38053D01*
X308090Y38059D01*
X308095Y38055D01*
X309325Y38420D01*
X309330Y38427D01*
X309335Y38425D01*
X310454Y39055D01*
X310457Y39062D01*
X310463Y39061D01*
X311413Y39924D01*
X311414Y39932D01*
X311420Y39932D01*
X312154Y40985D01*
X312154Y40993D01*
X312159Y40995D01*
X312641Y42185D01*
X312639Y42190D01*
X312643Y42193D01*
X312642Y42194D01*
X312644Y42195D01*
X312849Y43462D01*
X312846Y43467D01*
X312849Y43470D01*
X312849Y55470D01*
X312846Y55474D01*
X312849Y55477D01*
X312694Y56599D01*
X312689Y56604D01*
X312692Y56608D01*
X312321Y57679D01*
X312315Y57683D01*
X312317Y57688D01*
X311744Y58665D01*
X311738Y58668D01*
X311739Y58673D01*
X310986Y59520D01*
X310979Y59522D01*
X310979Y59527D01*
X310076Y60211D01*
X310069Y60211D01*
X310068Y60216D01*
X309049Y60711D01*
X309042Y60709D01*
X309040Y60714D01*
X307943Y61001D01*
X307937Y60998D01*
X307934Y61002D01*
X306803Y61069D01*
X306797Y61069D01*
X305666Y61002D01*
X305661Y60997D01*
X305657Y61001D01*
X304560Y60714D01*
X304556Y60708D01*
X304551Y60711D01*
X303532Y60216D01*
X303529Y60210D01*
X303524Y60211D01*
X302621Y59527D01*
X302619Y59520D01*
X302614Y59520D01*
X301861Y58673D01*
X301861Y58666D01*
X301856Y58665D01*
X301283Y57688D01*
X301284Y57685D01*
X301283Y57684D01*
X301284Y57683D01*
X301284Y57681D01*
X301279Y57679D01*
X300908Y56608D01*
X300910Y56603D01*
X300907Y56601D01*
X300907Y56600D01*
X300906Y56599D01*
X300751Y55477D01*
X300754Y55472D01*
X300751Y55470D01*
X300751Y43470D01*
X300754Y43465D01*
X300751Y43462D01*
X300956Y42195D01*
X300962Y42189D01*
X300959Y42185D01*
X301441Y40995D01*
X301448Y40991D01*
X301446Y40985D01*
X302180Y39932D01*
X302188Y39930D01*
X302187Y39924D01*
X303137Y39061D01*
X303146Y39060D01*
X303146Y39055D01*
X304265Y38425D01*
X304273Y38426D01*
X304275Y38420D01*
X305505Y38055D01*
X305513Y38058D01*
X305516Y38053D01*
X306797Y37971D01*
X306801Y37974D01*
X306803Y37971D01*
X308084Y38053D01*
G37*
G36*
X422384Y38053D02*
X422384Y38053D01*
X422390Y38059D01*
X422395Y38055D01*
X423625Y38420D01*
X423630Y38427D01*
X423635Y38425D01*
X424754Y39055D01*
X424757Y39062D01*
X424763Y39061D01*
X425713Y39924D01*
X425714Y39932D01*
X425720Y39932D01*
X426454Y40985D01*
X426454Y40993D01*
X426459Y40995D01*
X426941Y42185D01*
X426939Y42190D01*
X426943Y42193D01*
X426942Y42194D01*
X426944Y42195D01*
X427149Y43462D01*
X427146Y43467D01*
X427149Y43470D01*
X427149Y55470D01*
X427146Y55474D01*
X427149Y55477D01*
X426994Y56599D01*
X426989Y56604D01*
X426992Y56608D01*
X426621Y57679D01*
X426615Y57683D01*
X426617Y57688D01*
X426044Y58665D01*
X426038Y58668D01*
X426039Y58673D01*
X425286Y59520D01*
X425279Y59522D01*
X425279Y59527D01*
X424376Y60211D01*
X424369Y60211D01*
X424368Y60216D01*
X423349Y60711D01*
X423342Y60709D01*
X423340Y60714D01*
X422243Y61001D01*
X422237Y60998D01*
X422234Y61002D01*
X421103Y61069D01*
X421097Y61069D01*
X419966Y61002D01*
X419961Y60997D01*
X419957Y61001D01*
X418860Y60714D01*
X418856Y60708D01*
X418851Y60711D01*
X417832Y60216D01*
X417829Y60210D01*
X417824Y60211D01*
X416921Y59527D01*
X416919Y59520D01*
X416914Y59520D01*
X416161Y58673D01*
X416161Y58666D01*
X416156Y58665D01*
X415583Y57688D01*
X415584Y57685D01*
X415583Y57684D01*
X415584Y57683D01*
X415584Y57681D01*
X415579Y57679D01*
X415208Y56608D01*
X415210Y56603D01*
X415207Y56601D01*
X415207Y56600D01*
X415206Y56599D01*
X415051Y55477D01*
X415054Y55472D01*
X415051Y55470D01*
X415051Y43470D01*
X415054Y43465D01*
X415051Y43462D01*
X415256Y42195D01*
X415262Y42189D01*
X415259Y42185D01*
X415741Y40995D01*
X415748Y40991D01*
X415746Y40985D01*
X416480Y39932D01*
X416488Y39930D01*
X416487Y39924D01*
X417437Y39061D01*
X417446Y39060D01*
X417446Y39055D01*
X418565Y38425D01*
X418573Y38426D01*
X418575Y38420D01*
X419805Y38055D01*
X419813Y38058D01*
X419816Y38053D01*
X421097Y37971D01*
X421101Y37974D01*
X421103Y37971D01*
X422384Y38053D01*
G37*
G36*
X394484Y38053D02*
X394484Y38053D01*
X394490Y38059D01*
X394495Y38055D01*
X395725Y38420D01*
X395730Y38427D01*
X395735Y38425D01*
X396854Y39055D01*
X396857Y39062D01*
X396863Y39061D01*
X397813Y39924D01*
X397814Y39932D01*
X397820Y39932D01*
X398554Y40985D01*
X398554Y40993D01*
X398559Y40995D01*
X399041Y42185D01*
X399039Y42190D01*
X399043Y42193D01*
X399042Y42194D01*
X399044Y42195D01*
X399249Y43462D01*
X399246Y43467D01*
X399249Y43470D01*
X399249Y55470D01*
X399246Y55474D01*
X399249Y55477D01*
X399094Y56599D01*
X399089Y56604D01*
X399092Y56608D01*
X398721Y57679D01*
X398715Y57683D01*
X398717Y57688D01*
X398144Y58665D01*
X398138Y58668D01*
X398139Y58673D01*
X397386Y59520D01*
X397379Y59522D01*
X397379Y59527D01*
X396476Y60211D01*
X396469Y60211D01*
X396468Y60216D01*
X395449Y60711D01*
X395442Y60709D01*
X395440Y60714D01*
X394343Y61001D01*
X394337Y60998D01*
X394334Y61002D01*
X393203Y61069D01*
X393197Y61069D01*
X392066Y61002D01*
X392061Y60997D01*
X392057Y61001D01*
X390960Y60714D01*
X390956Y60708D01*
X390951Y60711D01*
X389932Y60216D01*
X389929Y60210D01*
X389924Y60211D01*
X389021Y59527D01*
X389019Y59520D01*
X389014Y59520D01*
X388261Y58673D01*
X388261Y58666D01*
X388256Y58665D01*
X387683Y57688D01*
X387684Y57685D01*
X387683Y57684D01*
X387684Y57683D01*
X387684Y57681D01*
X387679Y57679D01*
X387308Y56608D01*
X387310Y56603D01*
X387307Y56601D01*
X387307Y56600D01*
X387306Y56599D01*
X387151Y55477D01*
X387154Y55472D01*
X387151Y55470D01*
X387151Y43470D01*
X387154Y43465D01*
X387151Y43462D01*
X387356Y42195D01*
X387362Y42189D01*
X387359Y42185D01*
X387841Y40995D01*
X387848Y40991D01*
X387846Y40985D01*
X388580Y39932D01*
X388588Y39930D01*
X388587Y39924D01*
X389537Y39061D01*
X389546Y39060D01*
X389546Y39055D01*
X390665Y38425D01*
X390673Y38426D01*
X390675Y38420D01*
X391905Y38055D01*
X391913Y38058D01*
X391916Y38053D01*
X393197Y37971D01*
X393201Y37974D01*
X393203Y37971D01*
X394484Y38053D01*
G37*
G36*
X307971Y-1219D02*
X307971Y-1219D01*
X307976Y-1214D01*
X307980Y-1217D01*
X309103Y-882D01*
X309107Y-876D01*
X309111Y-878D01*
X310147Y-330D01*
X310150Y-324D01*
X310155Y-325D01*
X311063Y414D01*
X311065Y421D01*
X311070Y421D01*
X311817Y1323D01*
X311817Y1331D01*
X311823Y1331D01*
X312379Y2362D01*
X312378Y2369D01*
X312383Y2371D01*
X312727Y3490D01*
X312725Y3497D01*
X312729Y3500D01*
X312849Y4665D01*
X312847Y4668D01*
X312849Y4670D01*
X312849Y10670D01*
X312847Y10673D01*
X312849Y10675D01*
X312738Y11851D01*
X312733Y11856D01*
X312736Y11860D01*
X312398Y12992D01*
X312392Y12996D01*
X312394Y13001D01*
X311842Y14045D01*
X311835Y14048D01*
X311837Y14053D01*
X311091Y14969D01*
X311084Y14970D01*
X311084Y14976D01*
X310175Y15729D01*
X310167Y15729D01*
X310167Y15734D01*
X309127Y16295D01*
X309120Y16294D01*
X309118Y16299D01*
X307989Y16646D01*
X307983Y16644D01*
X307980Y16648D01*
X306805Y16769D01*
X306798Y16765D01*
X306794Y16769D01*
X305454Y16612D01*
X305448Y16607D01*
X305443Y16610D01*
X304172Y16159D01*
X304167Y16152D01*
X304162Y16154D01*
X303023Y15432D01*
X303020Y15424D01*
X303014Y15425D01*
X302064Y14467D01*
X302063Y14459D01*
X302057Y14458D01*
X301344Y13313D01*
X301345Y13305D01*
X301339Y13303D01*
X300899Y12027D01*
X300901Y12020D01*
X300897Y12017D01*
X300751Y10675D01*
X300753Y10672D01*
X300751Y10670D01*
X300751Y4670D01*
X300753Y4667D01*
X300751Y4664D01*
X300906Y3335D01*
X300912Y3329D01*
X300909Y3325D01*
X301356Y2064D01*
X301363Y2059D01*
X301361Y2054D01*
X302078Y924D01*
X302085Y921D01*
X302084Y915D01*
X303035Y-27D01*
X303043Y-28D01*
X303043Y-34D01*
X304179Y-741D01*
X304187Y-740D01*
X304189Y-746D01*
X305454Y-1182D01*
X305459Y-1181D01*
X305460Y-1182D01*
X305463Y-1182D01*
X305465Y-1185D01*
X306795Y-1329D01*
X306801Y-1325D01*
X306805Y-1329D01*
X307971Y-1219D01*
G37*
G36*
X508671Y-1219D02*
X508671Y-1219D01*
X508676Y-1214D01*
X508680Y-1217D01*
X509803Y-882D01*
X509807Y-876D01*
X509811Y-878D01*
X510847Y-330D01*
X510850Y-324D01*
X510855Y-325D01*
X511763Y414D01*
X511765Y421D01*
X511770Y421D01*
X512517Y1323D01*
X512517Y1331D01*
X512523Y1331D01*
X513079Y2362D01*
X513078Y2369D01*
X513083Y2371D01*
X513427Y3490D01*
X513425Y3497D01*
X513429Y3500D01*
X513549Y4665D01*
X513547Y4668D01*
X513549Y4670D01*
X513549Y10670D01*
X513547Y10673D01*
X513549Y10675D01*
X513438Y11851D01*
X513433Y11856D01*
X513436Y11860D01*
X513098Y12992D01*
X513092Y12996D01*
X513094Y13001D01*
X512542Y14045D01*
X512535Y14048D01*
X512537Y14053D01*
X511791Y14969D01*
X511784Y14970D01*
X511784Y14976D01*
X510875Y15729D01*
X510867Y15729D01*
X510867Y15734D01*
X509827Y16295D01*
X509820Y16294D01*
X509818Y16299D01*
X508689Y16646D01*
X508683Y16644D01*
X508680Y16648D01*
X507505Y16769D01*
X507498Y16765D01*
X507494Y16769D01*
X506154Y16612D01*
X506148Y16607D01*
X506143Y16610D01*
X504872Y16159D01*
X504867Y16152D01*
X504862Y16154D01*
X503723Y15432D01*
X503720Y15424D01*
X503714Y15425D01*
X502764Y14467D01*
X502763Y14459D01*
X502757Y14458D01*
X502044Y13313D01*
X502045Y13305D01*
X502039Y13303D01*
X501599Y12027D01*
X501601Y12020D01*
X501597Y12017D01*
X501451Y10675D01*
X501453Y10672D01*
X501451Y10670D01*
X501451Y4670D01*
X501453Y4667D01*
X501451Y4664D01*
X501606Y3335D01*
X501612Y3329D01*
X501609Y3325D01*
X502056Y2064D01*
X502063Y2059D01*
X502061Y2054D01*
X502778Y924D01*
X502785Y921D01*
X502784Y915D01*
X503735Y-27D01*
X503743Y-28D01*
X503743Y-34D01*
X504879Y-741D01*
X504887Y-740D01*
X504889Y-746D01*
X506154Y-1182D01*
X506159Y-1181D01*
X506160Y-1182D01*
X506163Y-1182D01*
X506165Y-1185D01*
X507495Y-1329D01*
X507501Y-1325D01*
X507505Y-1329D01*
X508671Y-1219D01*
G37*
G36*
X422271Y-1219D02*
X422271Y-1219D01*
X422276Y-1214D01*
X422280Y-1217D01*
X423403Y-882D01*
X423407Y-876D01*
X423411Y-878D01*
X424447Y-330D01*
X424450Y-324D01*
X424455Y-325D01*
X425363Y414D01*
X425365Y421D01*
X425370Y421D01*
X426117Y1323D01*
X426117Y1331D01*
X426123Y1331D01*
X426679Y2362D01*
X426678Y2369D01*
X426683Y2371D01*
X427027Y3490D01*
X427025Y3497D01*
X427029Y3500D01*
X427149Y4665D01*
X427147Y4668D01*
X427149Y4670D01*
X427149Y10670D01*
X427147Y10673D01*
X427149Y10675D01*
X427038Y11851D01*
X427033Y11856D01*
X427036Y11860D01*
X426698Y12992D01*
X426692Y12996D01*
X426694Y13001D01*
X426142Y14045D01*
X426135Y14048D01*
X426137Y14053D01*
X425391Y14969D01*
X425384Y14970D01*
X425384Y14976D01*
X424475Y15729D01*
X424467Y15729D01*
X424467Y15734D01*
X423427Y16295D01*
X423420Y16294D01*
X423418Y16299D01*
X422289Y16646D01*
X422283Y16644D01*
X422280Y16648D01*
X421105Y16769D01*
X421098Y16765D01*
X421094Y16769D01*
X419754Y16612D01*
X419748Y16607D01*
X419743Y16610D01*
X418472Y16159D01*
X418467Y16152D01*
X418462Y16154D01*
X417323Y15432D01*
X417320Y15424D01*
X417314Y15425D01*
X416364Y14467D01*
X416363Y14459D01*
X416357Y14458D01*
X415644Y13313D01*
X415645Y13305D01*
X415639Y13303D01*
X415199Y12027D01*
X415201Y12020D01*
X415197Y12017D01*
X415051Y10675D01*
X415053Y10672D01*
X415051Y10670D01*
X415051Y4670D01*
X415053Y4667D01*
X415051Y4664D01*
X415206Y3335D01*
X415212Y3329D01*
X415209Y3325D01*
X415656Y2064D01*
X415663Y2059D01*
X415661Y2054D01*
X416378Y924D01*
X416385Y921D01*
X416384Y915D01*
X417335Y-27D01*
X417343Y-28D01*
X417343Y-34D01*
X418479Y-741D01*
X418487Y-740D01*
X418489Y-746D01*
X419754Y-1182D01*
X419759Y-1181D01*
X419760Y-1182D01*
X419763Y-1182D01*
X419765Y-1185D01*
X421095Y-1329D01*
X421101Y-1325D01*
X421105Y-1329D01*
X422271Y-1219D01*
G37*
G36*
X394371Y-1219D02*
X394371Y-1219D01*
X394376Y-1214D01*
X394380Y-1217D01*
X395503Y-882D01*
X395507Y-876D01*
X395511Y-878D01*
X396547Y-330D01*
X396550Y-324D01*
X396555Y-325D01*
X397463Y414D01*
X397465Y421D01*
X397470Y421D01*
X398217Y1323D01*
X398217Y1331D01*
X398223Y1331D01*
X398779Y2362D01*
X398778Y2369D01*
X398783Y2371D01*
X399127Y3490D01*
X399125Y3497D01*
X399129Y3500D01*
X399249Y4665D01*
X399247Y4668D01*
X399249Y4670D01*
X399249Y10670D01*
X399247Y10673D01*
X399249Y10675D01*
X399138Y11851D01*
X399133Y11856D01*
X399136Y11860D01*
X398798Y12992D01*
X398792Y12996D01*
X398794Y13001D01*
X398242Y14045D01*
X398235Y14048D01*
X398237Y14053D01*
X397491Y14969D01*
X397484Y14970D01*
X397484Y14976D01*
X396575Y15729D01*
X396567Y15729D01*
X396567Y15734D01*
X395527Y16295D01*
X395520Y16294D01*
X395518Y16299D01*
X394389Y16646D01*
X394383Y16644D01*
X394380Y16648D01*
X393205Y16769D01*
X393198Y16765D01*
X393194Y16769D01*
X391854Y16612D01*
X391848Y16607D01*
X391843Y16610D01*
X390572Y16159D01*
X390567Y16152D01*
X390562Y16154D01*
X389423Y15432D01*
X389420Y15424D01*
X389414Y15425D01*
X388464Y14467D01*
X388463Y14459D01*
X388457Y14458D01*
X387744Y13313D01*
X387745Y13305D01*
X387739Y13303D01*
X387299Y12027D01*
X387301Y12020D01*
X387297Y12017D01*
X387151Y10675D01*
X387153Y10672D01*
X387151Y10670D01*
X387151Y4670D01*
X387153Y4667D01*
X387151Y4664D01*
X387306Y3335D01*
X387312Y3329D01*
X387309Y3325D01*
X387756Y2064D01*
X387763Y2059D01*
X387761Y2054D01*
X388478Y924D01*
X388485Y921D01*
X388484Y915D01*
X389435Y-27D01*
X389443Y-28D01*
X389443Y-34D01*
X390579Y-741D01*
X390587Y-740D01*
X390589Y-746D01*
X391854Y-1182D01*
X391859Y-1181D01*
X391860Y-1182D01*
X391863Y-1182D01*
X391865Y-1185D01*
X393195Y-1329D01*
X393201Y-1325D01*
X393205Y-1329D01*
X394371Y-1219D01*
G37*
G36*
X174170Y1080303D02*
X174170Y1080303D01*
X174236Y1080305D01*
X174279Y1080323D01*
X174326Y1080331D01*
X174383Y1080365D01*
X174443Y1080390D01*
X174478Y1080421D01*
X174519Y1080446D01*
X174561Y1080497D01*
X174609Y1080541D01*
X174631Y1080583D01*
X174660Y1080620D01*
X174681Y1080682D01*
X174712Y1080741D01*
X174720Y1080795D01*
X174732Y1080832D01*
X174731Y1080872D01*
X174739Y1080926D01*
X174739Y1086514D01*
X174728Y1086579D01*
X174726Y1086645D01*
X174708Y1086688D01*
X174700Y1086735D01*
X174666Y1086792D01*
X174641Y1086852D01*
X174610Y1086887D01*
X174585Y1086928D01*
X174534Y1086970D01*
X174490Y1087018D01*
X174448Y1087040D01*
X174411Y1087069D01*
X174349Y1087090D01*
X174290Y1087121D01*
X174236Y1087129D01*
X174199Y1087141D01*
X174159Y1087140D01*
X174105Y1087148D01*
X170295Y1087148D01*
X170230Y1087137D01*
X170164Y1087135D01*
X170121Y1087117D01*
X170074Y1087109D01*
X170017Y1087075D01*
X169957Y1087050D01*
X169922Y1087019D01*
X169881Y1086994D01*
X169840Y1086943D01*
X169791Y1086899D01*
X169769Y1086857D01*
X169740Y1086820D01*
X169719Y1086758D01*
X169688Y1086699D01*
X169680Y1086645D01*
X169668Y1086608D01*
X169669Y1086568D01*
X169661Y1086514D01*
X169661Y1080926D01*
X169672Y1080861D01*
X169674Y1080795D01*
X169692Y1080752D01*
X169700Y1080705D01*
X169734Y1080648D01*
X169759Y1080588D01*
X169790Y1080553D01*
X169815Y1080512D01*
X169866Y1080471D01*
X169910Y1080422D01*
X169952Y1080400D01*
X169989Y1080371D01*
X170051Y1080350D01*
X170110Y1080319D01*
X170164Y1080311D01*
X170201Y1080299D01*
X170241Y1080300D01*
X170295Y1080292D01*
X174105Y1080292D01*
X174170Y1080303D01*
G37*
G36*
X409120Y73033D02*
X409120Y73033D01*
X409186Y73035D01*
X409229Y73053D01*
X409276Y73061D01*
X409333Y73095D01*
X409393Y73120D01*
X409428Y73151D01*
X409469Y73176D01*
X409511Y73227D01*
X409559Y73271D01*
X409581Y73313D01*
X409610Y73350D01*
X409631Y73412D01*
X409662Y73471D01*
X409670Y73525D01*
X409682Y73562D01*
X409681Y73602D01*
X409689Y73656D01*
X409689Y79244D01*
X409678Y79309D01*
X409676Y79375D01*
X409658Y79418D01*
X409650Y79465D01*
X409616Y79522D01*
X409591Y79582D01*
X409560Y79617D01*
X409535Y79658D01*
X409484Y79700D01*
X409440Y79748D01*
X409398Y79770D01*
X409361Y79799D01*
X409299Y79820D01*
X409240Y79851D01*
X409186Y79859D01*
X409149Y79871D01*
X409109Y79870D01*
X409055Y79878D01*
X405245Y79878D01*
X405180Y79867D01*
X405114Y79865D01*
X405071Y79847D01*
X405024Y79839D01*
X404967Y79805D01*
X404907Y79780D01*
X404872Y79749D01*
X404831Y79724D01*
X404790Y79673D01*
X404741Y79629D01*
X404719Y79587D01*
X404690Y79550D01*
X404669Y79488D01*
X404638Y79429D01*
X404630Y79375D01*
X404618Y79338D01*
X404619Y79298D01*
X404611Y79244D01*
X404611Y73656D01*
X404622Y73591D01*
X404624Y73525D01*
X404642Y73482D01*
X404650Y73435D01*
X404684Y73378D01*
X404709Y73318D01*
X404740Y73283D01*
X404765Y73242D01*
X404816Y73201D01*
X404860Y73152D01*
X404902Y73130D01*
X404939Y73101D01*
X405001Y73080D01*
X405060Y73049D01*
X405114Y73041D01*
X405151Y73029D01*
X405191Y73030D01*
X405245Y73022D01*
X409055Y73022D01*
X409120Y73033D01*
G37*
D10*
X642100Y40100D03*
X59700Y1048900D03*
D11*
X320000Y411500D03*
X320000Y428500D03*
X300000Y428500D03*
X300000Y411500D03*
D12*
X363001Y410500D03*
X363001Y420000D03*
X363001Y429500D03*
X336999Y429500D03*
X336999Y410500D03*
D11*
X380000Y411500D03*
X380000Y428500D03*
X280000Y388500D03*
X280000Y371500D03*
X300000Y388500D03*
X300000Y371500D03*
D13*
X311900Y161660D03*
X311900Y150060D03*
D14*
X330070Y162210D03*
X347070Y162210D03*
D11*
X340000Y388500D03*
X340000Y371500D03*
D15*
X290390Y162210D03*
X300390Y162210D03*
D16*
X278500Y185500D03*
X289500Y185500D03*
X300500Y185500D03*
X311500Y185500D03*
X322500Y185500D03*
X333500Y185500D03*
X344500Y185500D03*
X355500Y185500D03*
X366500Y185500D03*
X377500Y185500D03*
X388500Y185500D03*
X399500Y185500D03*
X410500Y185500D03*
X421500Y185500D03*
D17*
X449500Y194000D03*
X449500Y205000D03*
X449500Y216000D03*
X449500Y227000D03*
X449500Y238000D03*
X449500Y249000D03*
X449500Y260000D03*
X449500Y271000D03*
X449500Y282000D03*
X449500Y293000D03*
X449500Y304000D03*
X449500Y315000D03*
X449500Y326000D03*
D16*
X421500Y334500D03*
X410500Y334500D03*
X399500Y334500D03*
X388500Y334500D03*
X377500Y334500D03*
X366500Y334500D03*
X355500Y334500D03*
X344500Y334500D03*
X333500Y334500D03*
X322500Y334500D03*
X311500Y334500D03*
X300500Y334500D03*
X289500Y334500D03*
X278500Y334500D03*
D17*
X250500Y326000D03*
X250500Y315000D03*
X250500Y304000D03*
X250500Y293000D03*
X250500Y282000D03*
X250500Y271000D03*
X250500Y260000D03*
X250500Y249000D03*
X250500Y238000D03*
X250500Y227000D03*
X250500Y216000D03*
X250500Y205000D03*
X250500Y194000D03*
D18*
X339500Y249500D03*
X318500Y249500D03*
X297500Y249500D03*
X276500Y249500D03*
X339500Y229000D03*
X318500Y229000D03*
X297500Y229000D03*
X276500Y229000D03*
X339500Y208500D03*
X318500Y208500D03*
X297500Y208500D03*
X276500Y208500D03*
X339500Y311500D03*
X318500Y311500D03*
X297500Y311500D03*
X276500Y311500D03*
X339500Y291000D03*
X318500Y291000D03*
X297500Y291000D03*
X276500Y291000D03*
X339500Y270500D03*
X318500Y270500D03*
X297500Y270500D03*
X276500Y270500D03*
X360500Y270500D03*
X381500Y270500D03*
X402500Y270500D03*
X423500Y270500D03*
X360500Y291000D03*
X381500Y291000D03*
X402500Y291000D03*
X423500Y291000D03*
X360500Y311500D03*
X381500Y311500D03*
X402500Y311500D03*
X423500Y311500D03*
X360500Y208500D03*
X381500Y208500D03*
X402500Y208500D03*
X423500Y208500D03*
X360500Y229000D03*
X381500Y229000D03*
X402500Y229000D03*
X423500Y229000D03*
X360500Y249500D03*
X381500Y249500D03*
X402500Y249500D03*
X423500Y249500D03*
D14*
X396600Y95500D03*
X379600Y95500D03*
X303400Y95500D03*
X320400Y95500D03*
D19*
X357500Y55270D03*
X352500Y55270D03*
D20*
X382250Y55270D03*
X374500Y55270D03*
D19*
X367500Y55270D03*
X362500Y55270D03*
X342500Y55270D03*
X347500Y55270D03*
D20*
X317750Y55270D03*
X325500Y55270D03*
D19*
X332500Y55270D03*
X337500Y55270D03*
D21*
X321100Y44220D03*
X378900Y44220D03*
D11*
X360000Y371500D03*
X360000Y388500D03*
X320000Y388500D03*
X320000Y371500D03*
D22*
X332300Y132250D03*
D23*
X337300Y132000D03*
X342300Y132000D03*
X342300Y140600D03*
X337300Y140600D03*
X332300Y140600D03*
D24*
X278200Y32710D03*
D25*
X235700Y78710D03*
D24*
X193200Y32710D03*
D26*
X65012Y279937D03*
X65012Y780063D03*
X634988Y780063D03*
X634988Y279937D03*
D27*
X171100Y1015300D03*
X171100Y1035300D03*
D28*
X119100Y991300D03*
X119100Y1059300D03*
D29*
X210300Y1025300D03*
X210300Y999900D03*
D19*
X471800Y55270D03*
X466800Y55270D03*
D20*
X496550Y55270D03*
X488800Y55270D03*
D19*
X481800Y55270D03*
X476800Y55270D03*
X456800Y55270D03*
X461800Y55270D03*
D20*
X432050Y55270D03*
X439800Y55270D03*
D19*
X446800Y55270D03*
X451800Y55270D03*
D21*
X435400Y44220D03*
X493200Y44220D03*
D14*
X510900Y95500D03*
X493900Y95500D03*
X417700Y95500D03*
X434700Y95500D03*
D30*
X102650Y42140D03*
D31*
X158650Y10140D03*
X84150Y10140D03*
D30*
X115150Y42140D03*
X127650Y42140D03*
X140150Y42140D03*
X559850Y42140D03*
D31*
X615850Y10140D03*
X541350Y10140D03*
D30*
X572350Y42140D03*
X584850Y42140D03*
X597350Y42140D03*
D14*
X188500Y405000D03*
X171500Y405000D03*
D32*
X185280Y416510D02*
X185280Y423490D01*
X192260Y423490D01*
X192260Y416510D01*
X185280Y416510D01*
X185280Y421310D02*
X192260Y421310D01*
X167740Y423490D02*
X167740Y416510D01*
X167740Y423490D02*
X174720Y423490D01*
X174720Y416510D01*
X167740Y416510D01*
X167740Y421310D02*
X174720Y421310D01*
D29*
X159500Y69150D03*
X134100Y69150D03*
X108700Y69150D03*
X83300Y69150D03*
X616700Y171700D03*
X591300Y171700D03*
X565900Y171700D03*
X540500Y171700D03*
X540500Y237900D03*
X540500Y263300D03*
X540500Y288700D03*
X540500Y314100D03*
X32500Y339500D03*
X32500Y314100D03*
D14*
X518520Y171700D03*
X501520Y171700D03*
D33*
X475800Y108200D03*
X452800Y108200D03*
D34*
X260100Y462500D03*
X260100Y467500D03*
X260100Y472500D03*
X260100Y477500D03*
X280100Y477500D03*
X280100Y472500D03*
X280100Y467500D03*
X280100Y462500D03*
D35*
X270000Y470000D03*
D11*
X300000Y461500D03*
X300000Y478500D03*
D36*
X402070Y76450D03*
X412230Y76450D03*
D29*
X394450Y76450D03*
X419850Y76450D03*
D36*
X167120Y1083720D03*
X177280Y1083720D03*
D29*
X159500Y1083720D03*
X184900Y1083720D03*
X635000Y977600D03*
X635000Y952200D03*
D37*
X534750Y409000D03*
X534750Y420000D03*
X534750Y431000D03*
X505250Y431000D03*
X505250Y420000D03*
X505250Y409000D03*
D14*
X551500Y400000D03*
X568500Y400000D03*
X551500Y440000D03*
X568500Y440000D03*
X551500Y420000D03*
X568500Y420000D03*
D12*
X363001Y460500D03*
X363001Y470000D03*
X363001Y479500D03*
X336999Y479500D03*
X336999Y460500D03*
D11*
X380000Y461500D03*
X380000Y478500D03*
X320000Y461500D03*
X320000Y478500D03*
D22*
X459300Y132250D03*
D23*
X464300Y132000D03*
X469300Y132000D03*
X469300Y140600D03*
X464300Y140600D03*
X459300Y140600D03*
D29*
X30000Y470000D03*
X55400Y470000D03*
X80800Y470000D03*
X106200Y470000D03*
D38*
X32000Y393250D03*
X88000Y393250D03*
D39*
X45000Y430000D03*
X55000Y430000D03*
X65000Y430000D03*
X75000Y430000D03*
D40*
X305550Y512000D03*
X318250Y512000D03*
X330950Y512000D03*
X343650Y512000D03*
X356350Y512000D03*
X369050Y512000D03*
X381750Y512000D03*
X394450Y512000D03*
X394450Y568000D03*
X381750Y568000D03*
X369050Y568000D03*
X356350Y568000D03*
X343650Y568000D03*
X330950Y568000D03*
X318250Y568000D03*
X305550Y568000D03*
D11*
X280000Y568500D03*
X280000Y551500D03*
X280000Y511500D03*
X280000Y528500D03*
D29*
X487488Y552606D03*
X552512Y552606D03*
X487488Y507394D03*
X552512Y507394D03*
X147488Y552606D03*
X212512Y552606D03*
X147488Y507394D03*
X212512Y507394D03*
D41*
X506900Y282000D03*
D42*
X506900Y274000D03*
X506900Y266000D03*
D41*
X493700Y282000D03*
D42*
X493700Y274000D03*
X493700Y266000D03*
D43*
X493800Y258000D03*
D41*
X506900Y258000D03*
X203100Y298000D03*
D42*
X203100Y306000D03*
X203100Y314000D03*
D41*
X216300Y298000D03*
D42*
X216300Y306000D03*
X216300Y314000D03*
D43*
X216200Y322000D03*
D41*
X203100Y322000D03*
X203100Y248000D03*
D42*
X203100Y256000D03*
X203100Y264000D03*
D41*
X216300Y248000D03*
D42*
X216300Y256000D03*
X216300Y264000D03*
D43*
X216200Y272000D03*
D41*
X203100Y272000D03*
X203100Y198000D03*
D42*
X203100Y206000D03*
X203100Y214000D03*
D41*
X216300Y198000D03*
D42*
X216300Y206000D03*
X216300Y214000D03*
D43*
X216200Y222000D03*
D41*
X203100Y222000D03*
D29*
X170000Y290000D03*
X170000Y264600D03*
X170000Y239200D03*
X170000Y213800D03*
X170000Y188400D03*
D44*
X429500Y472000D03*
X420000Y472000D03*
X410500Y472000D03*
X410500Y448000D03*
X429500Y448000D03*
X420000Y448000D03*
D14*
X411500Y430000D03*
X428500Y430000D03*
X428500Y410000D03*
X411500Y410000D03*
D11*
X450000Y428500D03*
X450000Y411500D03*
D33*
X408500Y390000D03*
X431500Y390000D03*
D14*
X411500Y490000D03*
X428500Y490000D03*
X428500Y550000D03*
X411500Y550000D03*
X411500Y510000D03*
X428500Y510000D03*
X428500Y530000D03*
X411500Y530000D03*
D45*
X589750Y505000D03*
X589750Y555000D03*
X450250Y555000D03*
X450250Y505000D03*
X249750Y505000D03*
X249750Y555000D03*
X110250Y555000D03*
X110250Y505000D03*
D46*
X470000Y461500D03*
X470000Y438500D03*
D29*
X620000Y380000D03*
X620000Y405400D03*
X620000Y430800D03*
X620000Y456200D03*
M02*
