M48
;GenerationSoftware,Autodesk,EAGLE,9.6.2*%
;CreationDate,2020-12-10T03:37:57Z*%
FMAT,2
ICI,OFF
METRIC,TZ,000.000
T7C0.305
T6C0.381
T5C0.400
T4C0.650
T3C0.850
T2C1.016
T1C3.200
%
G90
M71
T1
X137107Y28268
X137107Y145519
X6010Y145519
X6010Y195532
X63007Y195532
X63007Y145519
X80109Y145519
X80109Y195532
X137107Y195532
X6010Y145519
X6010Y195532
X63007Y195532
X6010Y28268
X6010Y78280
X63007Y78280
X63007Y28268
X63007Y145519
X137107Y145519
X6010Y28268
X6010Y78280
X63007Y78280
X63007Y28268
X80109Y28268
X80109Y78280
X137107Y78280
X137107Y28268
X80109Y28268
X80109Y78280
X137107Y78280
X80109Y145519
X80109Y195532
X137107Y195532
T2
X61178Y134695
X58638Y134695
X56098Y134695
X53558Y134695
X53558Y141315
X53558Y143855
X93368Y134965
X53558Y146395
X53558Y148935
X2758Y151475
X2758Y148935
X38953Y125170
X41493Y125170
X15458Y225897
X17998Y225897
X63008Y215285
X63008Y212745
X35778Y131155
X38318Y131155
X40858Y131155
X43398Y131155
X92098Y108646
X19268Y145125
X19268Y142585
X19268Y140045
X19268Y137505
X19268Y134965
X94638Y220055
X94638Y217515
X89558Y124440
X87018Y124440
X84478Y124440
X81938Y124440
X135278Y134695
X132738Y134695
X130198Y134695
X127658Y134695
X127658Y141315
X127658Y143855
X127658Y146395
X127658Y148935
X76858Y151475
X76858Y148935
X113053Y125170
X115593Y125170
X89558Y225897
X92098Y225897
X137108Y215285
X137108Y212745
X109878Y131155
X112418Y131155
X114958Y131155
X117498Y131155
X20538Y102804
X20538Y100264
X93368Y145125
X93368Y142585
X19268Y20254
X93368Y140045
X15458Y7189
X12918Y7189
X10378Y7189
X7838Y7189
X61178Y17444
X58638Y17444
X56098Y17444
X53558Y17444
X53558Y24064
X53558Y26604
X53558Y29144
X53558Y31684
X2758Y34224
X2758Y31684
X38953Y7919
X41493Y7919
X15458Y108646
X17998Y108646
X63008Y98034
X63008Y95494
X35778Y13904
X38318Y13904
X40858Y13904
X43398Y13904
X19268Y27874
X19268Y25334
X19268Y22794
X93368Y137505
X19268Y17714
X94638Y102804
X94638Y100264
X89558Y7189
X87018Y7189
X84478Y7189
X81938Y7189
X135278Y17444
X132738Y17444
X130198Y17444
X127658Y17444
X127658Y24064
X127658Y26604
X127658Y29144
X127658Y31684
X76858Y34224
X76858Y31684
X113053Y7919
X115593Y7919
X89558Y108646
X137108Y98034
X137108Y95494
X109878Y13904
X112418Y13904
X114958Y13904
X117498Y13904
X93368Y27874
X93368Y25334
X93368Y22794
X93368Y20254
X93368Y17714
X20538Y220055
X20538Y217515
X15458Y124440
X12918Y124440
X10378Y124440
X7838Y124440
T3
X87018Y137735
X12918Y20484
X12918Y17484
X81328Y134735
X81328Y137735
X87018Y147435
X87018Y150435
X87018Y134735
X12918Y33184
X12918Y30184
X7229Y20484
X7229Y17484
X87018Y20484
X87018Y17484
X87018Y33184
X87018Y30184
X81328Y20484
X81328Y17484
X12918Y137735
X12918Y134735
X12918Y150435
X12918Y147435
X7229Y137735
X7229Y134735
T4
X31618Y4696
X37398Y4696
X117148Y4696
X48828Y4696
X31618Y121947
X37398Y121947
X48828Y121947
X105718Y4696
X111498Y4696
X43048Y4696
X122928Y4696
X122928Y121947
X43048Y121947
X105718Y121947
X111498Y121947
X117148Y121947
T5
X30190Y5226
X30190Y1046
X38826Y1046
X38826Y5226
X41620Y1046
X50256Y1046
X41620Y5226
X41620Y122477
X124356Y1046
X124356Y5226
X115720Y5226
X112926Y5226
X50256Y5226
X104290Y5226
X104290Y1046
X30190Y118297
X38826Y118297
X38826Y122477
X30190Y122477
X112926Y1046
X104290Y118297
X112926Y118297
X112926Y122477
X104290Y122477
X115720Y1046
X41620Y118297
X115720Y118297
X124356Y118297
X115720Y122477
X50256Y118297
X50256Y122477
X124356Y122477
T6
X37048Y124281
X32095Y124281
X111148Y7030
X106195Y7030
X37048Y7030
X111148Y124281
X106195Y124281
X32095Y7030
T7
X11648Y16444
X9108Y38034
X50726Y37843
X17998Y16444
X20030Y37018
X52034Y35621
X51819Y31347
X48656Y39787
X40198Y42217
X39576Y99248
X16347Y98994
X35356Y50013
X35270Y87691
X23990Y87967
X57368Y35494
X15712Y27874
X5730Y23048
X56479Y37399
X8423Y18984
X13592Y34605
X13553Y21524
X10124Y22794
X10124Y35748
X14950Y88199
X24221Y85151
X12749Y92559
X48478Y96073
X41366Y88834
X31968Y88834
X21173Y27874
X44414Y65720
X31968Y62799
X11648Y18984
X12283Y38631
X30190Y41844
X24602Y87310
X30698Y87056
X40477Y90231
X50764Y90231
X49025Y31372
X41366Y86967
X32730Y86929
X21173Y26604
X7457Y23302
X24602Y91501
X50406Y29982
X40963Y91606
X24602Y90231
X5552Y39177
X25872Y41336
X24602Y86421
X25237Y42733
X19649Y35710
X14188Y18984
X14188Y40193
X29428Y40472
X29428Y88834
X24475Y89342
X28793Y50099
X31740Y58354
X41239Y97724
X18760Y99248
X18760Y107249
X40477Y80325
X20538Y80325
X48313Y17206
X40770Y79487
X20411Y79182
X48313Y16368
X43525Y7665
X48351Y7665
X46065Y7792
X23078Y73594
X23078Y98740
X39207Y73467
X40858Y38669
X63210Y43114
X33238Y15682
X47081Y10053
X54193Y37526
X46065Y15682
X24602Y93156
X51272Y29906
X40985Y92644
X24475Y100391
X50041Y30802
X39969Y100264
X44287Y91501
X51184Y31982
X44287Y92771
X51145Y32954
X23231Y23658
X22951Y27620
X11267Y29144
X7838Y30160
X4409Y23023
X128928Y40574
X112418Y40574
X93368Y76642
X126642Y76769
X112164Y76515
X129563Y3093
X109425Y3164
X93368Y69784
X112418Y38923
X109624Y41971
X116736Y6808
X131341Y2998
X87653Y2998
X104798Y14412
X107719Y12237
X111402Y8713
X105179Y7062
X85367Y94295
X85240Y84643
X95527Y95184
X95019Y93279
X102385Y28636
X104544Y28636
X106703Y28636
X108735Y28636
X110894Y28636
X112926Y28636
X115085Y28636
X117117Y28636
X100226Y28636
X102258Y30668
X104417Y30668
X106576Y30668
X108608Y30668
X110767Y30668
X112799Y30668
X114958Y30668
X116990Y30668
X100099Y30668
X102258Y32700
X104417Y32700
X106576Y32700
X108608Y32700
X110767Y32700
X112799Y32700
X114958Y32700
X116990Y32700
X100099Y32700
X102385Y22540
X104544Y22540
X106703Y22540
X108735Y22540
X110894Y22540
X112926Y22540
X115085Y22540
X117117Y22540
X100226Y22540
X102258Y24572
X104417Y24572
X106576Y24572
X108608Y24572
X110767Y24572
X112799Y24572
X114958Y24572
X116990Y24572
X100099Y24572
X102258Y26604
X104417Y26604
X106576Y26604
X108608Y26604
X110767Y26604
X112799Y26604
X114958Y26604
X116990Y26604
X100099Y26604
X102258Y20508
X104417Y20508
X106576Y20508
X108608Y20508
X110767Y20508
X112799Y20508
X114958Y20508
X116990Y20508
X100099Y20508
X99780Y17360
X112545Y17460
X109497Y17460
X111529Y17460
X113688Y17460
X115720Y17460
X98429Y17360
X97305Y35621
X99464Y35621
X101496Y35621
X105814Y35748
X111402Y35748
X113434Y35748
X115339Y35748
X117498Y35875
X119530Y35875
X120292Y33970
X120292Y26731
X120292Y23810
X120292Y22413
X120292Y20889
X120419Y18603
X120292Y35113
X116990Y19238
X119403Y17206
X117752Y17206
X100850Y17360
X101823Y15917
X101061Y15228
X100299Y14466
X99210Y13650
X98194Y14888
X97432Y13999
X98448Y11956
X96162Y8078
X95146Y8554
X99718Y8681
X93749Y8427
X91971Y7824
X98321Y7824
X91717Y6427
X91717Y5030
X91717Y3633
X91717Y839
X91717Y2236
X99464Y12618
X100353Y13134
X97051Y17333
X97051Y19365
X98575Y18857
X97178Y26604
X96416Y13110
X101542Y13396
X102131Y14412
X103020Y15301
X101169Y11956
X101242Y7824
X102639Y7697
X102512Y6427
X102512Y4903
X102512Y3760
X102512Y2236
X102512Y839
X103655Y17841
X100099Y18857
X99972Y34351
X98702Y34351
X117117Y34351
X118641Y34478
X118768Y18857
X77747Y43622
X107973Y51750
X96289Y9697
X98321Y9697
X131341Y96835
X117752Y53782
X106449Y53909
X106068Y61529
X117879Y61529
X104798Y95184
X104798Y96454
X112418Y96454
X112418Y95184
X111148Y90104
X109878Y90104
X108608Y90104
X107338Y90104
X106068Y90104
X104798Y90104
X104798Y97724
X106068Y97724
X107338Y97724
X108608Y97724
X109878Y97724
X111148Y97724
X112418Y97724
X112418Y90104
X107338Y96454
X107338Y95184
X108608Y95184
X108608Y96454
X109878Y96454
X109878Y95184
X132992Y2998
X123340Y7062
X98575Y101534
X118514Y101534
X114196Y101534
X102004Y101534
X114323Y85151
X114323Y82103
X111148Y45654
X93114Y34859
X88034Y106741
X125372Y19857
X124737Y8554
X120038Y12507
X80160Y63434
X118768Y12618
X114600Y39787
X91374Y27874
X92352Y39685
X98575Y99121
X99210Y38796
X94511Y107376
X101204Y72070
X91031Y29982
X90807Y40722
X114221Y41361
X118133Y11856
X98702Y95184
X101242Y40828
X96162Y106779
X100607Y71054
X106957Y35570
X106957Y41971
X94892Y38923
X102258Y41971
X117853Y55179
X85748Y17714
X133881Y38669
X123594Y39456
X127658Y40955
X117942Y46286
X108608Y15174
X102258Y38923
X106068Y15174
X104798Y38923
X85748Y16444
X83208Y38034
X124826Y37843
X92098Y16444
X94130Y37018
X126134Y35621
X125918Y31347
X122756Y39787
X114297Y42217
X113675Y99248
X90447Y98994
X109456Y50013
X109370Y87691
X98089Y87967
X131468Y35494
X89812Y27874
X79830Y23048
X130579Y37399
X82522Y18984
X87691Y34605
X87653Y21524
X84224Y22794
X84224Y35748
X89050Y88199
X98321Y85151
X86849Y92559
X122578Y96073
X115466Y88834
X106068Y88834
X95273Y27874
X118514Y65720
X106068Y62799
X85748Y18984
X86383Y38631
X104290Y41844
X98702Y87310
X104798Y87056
X114577Y90231
X124864Y90231
X123124Y31372
X115466Y86967
X106830Y86929
X95273Y26604
X81557Y23302
X98702Y91501
X124506Y29982
X115062Y91606
X98702Y90231
X79652Y39177
X99972Y41336
X98702Y86421
X99337Y42733
X93749Y35710
X88288Y18984
X88288Y40193
X103528Y40472
X103528Y88834
X98575Y89342
X102893Y50099
X105839Y58354
X115339Y97724
X92860Y99248
X92860Y107249
X114577Y80325
X94638Y80325
X122413Y17206
X114869Y79487
X94511Y79182
X122413Y16368
X117625Y7665
X122451Y7665
X120165Y7792
X97178Y73594
X97178Y98740
X113307Y73467
X114958Y38669
X137310Y43114
X107338Y15682
X121181Y10053
X128293Y37526
X120165Y15682
X98702Y93156
X125372Y29906
X115085Y92644
X98575Y100391
X124140Y30802
X114069Y100264
X118387Y91501
X125283Y31982
X118387Y92771
X125245Y32954
X97330Y23658
X97051Y27620
X85367Y29144
X81938Y30160
X78509Y23023
X54828Y157825
X38318Y157825
X19268Y193893
X52542Y194020
X38064Y193766
X55463Y120344
X35326Y120416
X19268Y187035
X38318Y156174
X35524Y159222
X42636Y124059
X57241Y120249
X13553Y120249
X30698Y131663
X33619Y129488
X37302Y125964
X31079Y124313
X11267Y211546
X11140Y201894
X21427Y212435
X20919Y210530
X28285Y145887
X30444Y145887
X32603Y145887
X34635Y145887
X36794Y145887
X38826Y145887
X40985Y145887
X43017Y145887
X26126Y145887
X28158Y147919
X30317Y147919
X32476Y147919
X34508Y147919
X36667Y147919
X38699Y147919
X40858Y147919
X42890Y147919
X25999Y147919
X28158Y149951
X30317Y149951
X32476Y149951
X34508Y149951
X36667Y149951
X38699Y149951
X40858Y149951
X42890Y149951
X25999Y149951
X28285Y139791
X30444Y139791
X32603Y139791
X34635Y139791
X36794Y139791
X38826Y139791
X40985Y139791
X43017Y139791
X26126Y139791
X28158Y141823
X30317Y141823
X32476Y141823
X34508Y141823
X36667Y141823
X38699Y141823
X40858Y141823
X42890Y141823
X25999Y141823
X28158Y143855
X30317Y143855
X32476Y143855
X34508Y143855
X36667Y143855
X38699Y143855
X40858Y143855
X42890Y143855
X25999Y143855
X28158Y137759
X30317Y137759
X32476Y137759
X34508Y137759
X36667Y137759
X38699Y137759
X40858Y137759
X42890Y137759
X25999Y137759
X25680Y134611
X38445Y134711
X35397Y134711
X37429Y134711
X39588Y134711
X41620Y134711
X24329Y134611
X23205Y152872
X25364Y152872
X27396Y152872
X31714Y152999
X37302Y152999
X39334Y152999
X41239Y152999
X43398Y153126
X45430Y153126
X46192Y151221
X46192Y143982
X46192Y141061
X46192Y139664
X46192Y138140
X46319Y135854
X46192Y152364
X42890Y136489
X45303Y134457
X43652Y134457
X26750Y134611
X27723Y133168
X26961Y132479
X26199Y131717
X40223Y85151
X24094Y132139
X23332Y131250
X24348Y129207
X22062Y125329
X21046Y125805
X25618Y125932
X19649Y125678
X17871Y125075
X24221Y125075
X17617Y123678
X17617Y122281
X17617Y120884
X17617Y118090
X17617Y119487
X25364Y129869
X26253Y130385
X22951Y134584
X22951Y136616
X24475Y136108
X23078Y143855
X22316Y130361
X27442Y130647
X28031Y131663
X28920Y132552
X27069Y129207
X27142Y125075
X28539Y124948
X28412Y123678
X28412Y122154
X28412Y121011
X28412Y119487
X28412Y118090
X29555Y135092
X25999Y136108
X25872Y151602
X24602Y151602
X43017Y151602
X44541Y151729
X44668Y136108
X3647Y160873
X33873Y169001
X22189Y126948
X24221Y126948
X57241Y214086
X43652Y171033
X32349Y171160
X31968Y178780
X43779Y178780
X30698Y212435
X30698Y213705
X38318Y213705
X38318Y212435
X37048Y207355
X35778Y207355
X34508Y207355
X33238Y207355
X31968Y207355
X30698Y207355
X30698Y214975
X31968Y214975
X33238Y214975
X34508Y214975
X35778Y214975
X37048Y214975
X38318Y214975
X38318Y207355
X33238Y213705
X33238Y212435
X34508Y212435
X34508Y213705
X35778Y213705
X35778Y212435
X58892Y120249
X49240Y124313
X24475Y218785
X44414Y218785
X40096Y218785
X27904Y218785
X40223Y202402
X40223Y199354
X37048Y162905
X19014Y152110
X13934Y223992
X51272Y137108
X50637Y125805
X45938Y129758
X6060Y180685
X44668Y129869
X40501Y157038
X17275Y145125
X18252Y156936
X24475Y216372
X25110Y156047
X20411Y224627
X27104Y189321
X16932Y147234
X16707Y157974
X40122Y158613
X44033Y129107
X24602Y212435
X27142Y158079
X22062Y224031
X26507Y188305
X32857Y152822
X32857Y159222
X20792Y156174
X28158Y159222
X43754Y172430
X11648Y134965
X59781Y155920
X49494Y156708
X53558Y158206
X43843Y163538
X34508Y132425
X28158Y156174
X31968Y132425
X30698Y156174
X11648Y133695
X9108Y155285
X50726Y155095
X17998Y133695
X20030Y154269
X52034Y152872
X51819Y148598
X48656Y157038
X40198Y159468
X39576Y216499
X16347Y216245
X35356Y167265
X35270Y204942
X23990Y205219
X57368Y152745
X15712Y145125
X5730Y140299
X56479Y154650
X8423Y136235
X13592Y151856
X13553Y138775
X10124Y140045
X10124Y152999
X14950Y205450
X24221Y202402
X12749Y209811
X48478Y213324
X41366Y206085
X31968Y206085
X21173Y145125
X44414Y182971
X31968Y180050
X11648Y136235
X12283Y155882
X30190Y159095
X24602Y204561
X30698Y204307
X40477Y207482
X50764Y207482
X49025Y148623
X41366Y204219
X32730Y204180
X21173Y143855
X7457Y140553
X24602Y208752
X50406Y147233
X40963Y208857
X24602Y207482
X5552Y156428
X25872Y158587
X24602Y203672
X25237Y159984
X19649Y152961
X14188Y136235
X14188Y157444
X29428Y157724
X29428Y206085
X24475Y206593
X28793Y167350
X31740Y175605
X41239Y214975
X18760Y216499
X18760Y224500
X40477Y197576
X20538Y197576
X48313Y134457
X40770Y196738
X20411Y196433
X48313Y133619
X43525Y124916
X48351Y124916
X46065Y125043
X23078Y190845
X23078Y215991
X39207Y190718
X40858Y155920
X63210Y160365
X33238Y132933
X47081Y127304
X54193Y154777
X46065Y132933
X24602Y210408
X51272Y147157
X40985Y209895
X24475Y217642
X50041Y148053
X39969Y217515
X54828Y40574
X38318Y40574
X44287Y208752
X51184Y149233
X44287Y210022
X51145Y150205
X23231Y140909
X22951Y144871
X11267Y146395
X7838Y147411
X4409Y140274
X128928Y157825
X112418Y157825
X93368Y193893
X126642Y194020
X112164Y193766
X129563Y120344
X109425Y120416
X93368Y187035
X112418Y156174
X109624Y159222
X116736Y124059
X131341Y120249
X87653Y120249
X104798Y131663
X107719Y129488
X111402Y125964
X105179Y124313
X85367Y211546
X85240Y201894
X95527Y212435
X95019Y210530
X102385Y145887
X104544Y145887
X106703Y145887
X108735Y145887
X110894Y145887
X112926Y145887
X115085Y145887
X117117Y145887
X100226Y145887
X102258Y147919
X104417Y147919
X106576Y147919
X108608Y147919
X110767Y147919
X112799Y147919
X114958Y147919
X116990Y147919
X100099Y147919
X102258Y149951
X104417Y149951
X106576Y149951
X108608Y149951
X110767Y149951
X112799Y149951
X114958Y149951
X116990Y149951
X100099Y149951
X102385Y139791
X104544Y139791
X106703Y139791
X108735Y139791
X110894Y139791
X112926Y139791
X115085Y139791
X117117Y139791
X100226Y139791
X102258Y141823
X104417Y141823
X106576Y141823
X108608Y141823
X110767Y141823
X112799Y141823
X114958Y141823
X116990Y141823
X100099Y141823
X102258Y143855
X104417Y143855
X106576Y143855
X108608Y143855
X110767Y143855
X112799Y143855
X114958Y143855
X116990Y143855
X100099Y143855
X102258Y137759
X104417Y137759
X106576Y137759
X108608Y137759
X110767Y137759
X112799Y137759
X114958Y137759
X116990Y137759
X100099Y137759
X99780Y134611
X112545Y134711
X109497Y134711
X111529Y134711
X113688Y134711
X115720Y134711
X98429Y134611
X97305Y152872
X99464Y152872
X101496Y152872
X105814Y152999
X111402Y152999
X113434Y152999
X115339Y152999
X117498Y153126
X119530Y153126
X120292Y151221
X120292Y143982
X120292Y141061
X120292Y139664
X120292Y138140
X120419Y135854
X120292Y152364
X116990Y136489
X119403Y134457
X117752Y134457
X100850Y134611
X101823Y133168
X101061Y132479
X100299Y131717
X99210Y130901
X98194Y132139
X97432Y131250
X98448Y129207
X96162Y125329
X95146Y125805
X99718Y125932
X93749Y125678
X91971Y125075
X98321Y125075
X91717Y123678
X91717Y122281
X91717Y120884
X91717Y118090
X91717Y119487
X99464Y129869
X100353Y130385
X97051Y134584
X97051Y136616
X98575Y136108
X97178Y143855
X96416Y130361
X101542Y130647
X102131Y131663
X103020Y132552
X101169Y129207
X101242Y125075
X102639Y124948
X102512Y123678
X102512Y122154
X102512Y121011
X102512Y119487
X102512Y118090
X103655Y135092
X100099Y136108
X99972Y151602
X98702Y151602
X117117Y151602
X118641Y151729
X118768Y136108
X77747Y160873
X107973Y169001
X96289Y126948
X98321Y126948
X131341Y214086
X117752Y171033
X106449Y171160
X106068Y178780
X117879Y178780
X104798Y212435
X104798Y213705
X112418Y213705
X112418Y212435
X111148Y207355
X109878Y207355
X108608Y207355
X107338Y207355
X19268Y76642
X104798Y207355
X104798Y214975
X106068Y214975
X107338Y214975
X108608Y214975
X109878Y214975
X111148Y214975
X112418Y214975
X112418Y207355
X107338Y213705
X107338Y212435
X108608Y212435
X108608Y213705
X109878Y213705
X109878Y212435
X132992Y120249
X123340Y124313
X98575Y218785
X118514Y218785
X114196Y218785
X102004Y218785
X114323Y202402
X114323Y199354
X111148Y162905
X93114Y152110
X88034Y223992
X125372Y137108
X124737Y125805
X120038Y129758
X80160Y180685
X118768Y129869
X114600Y157038
X91374Y145125
X92352Y156936
X98575Y216372
X99210Y156047
X94511Y224627
X101204Y189321
X91031Y147234
X90807Y157974
X114221Y158613
X118133Y129107
X98702Y212435
X101242Y158079
X96162Y224031
X100607Y188305
X106957Y152822
X106957Y159222
X94892Y156174
X102258Y159222
X117853Y172430
X85748Y134965
X133881Y155920
X123594Y156708
X127658Y158206
X117942Y163538
X108608Y132425
X102258Y156174
X106068Y132425
X104798Y156174
X85748Y133695
X83208Y155285
X124826Y155095
X92098Y133695
X94130Y154269
X126134Y152872
X125918Y148598
X122756Y157038
X114297Y159468
X113675Y216499
X90447Y216245
X109456Y167265
X109370Y204942
X98089Y205219
X131468Y152745
X89812Y145125
X79830Y140299
X130579Y154650
X82522Y136235
X87691Y151856
X87653Y138775
X84224Y140045
X84224Y152999
X89050Y205450
X98321Y202402
X86849Y209811
X122578Y213324
X115466Y206085
X106068Y206085
X95273Y145125
X118514Y182971
X106068Y180050
X85748Y136235
X86383Y155882
X104290Y159095
X98702Y204561
X104798Y204307
X114577Y207482
X124864Y207482
X123124Y148623
X115466Y204219
X106830Y204180
X95273Y143855
X81557Y140553
X98702Y208752
X124506Y147233
X115062Y208857
X98702Y207482
X79652Y156428
X99972Y158587
X98702Y203672
X99337Y159984
X93749Y152961
X88288Y136235
X88288Y157444
X103528Y157724
X103528Y206085
X98575Y206593
X102893Y167350
X105839Y175605
X115339Y214975
X92860Y216499
X92860Y224500
X114577Y197576
X94638Y197576
X122413Y134457
X114869Y196738
X94511Y196433
X122413Y133619
X117625Y124916
X122451Y124916
X120165Y125043
X97178Y190845
X97178Y215991
X113307Y190718
X114958Y155920
X137310Y160365
X107338Y132933
X121181Y127304
X128293Y154777
X120165Y132933
X98702Y210408
X125372Y147157
X115085Y209895
X98575Y217642
X124140Y148053
X114069Y217515
X52542Y76769
X38064Y76515
X118387Y208752
X125283Y149233
X118387Y210022
X125245Y150205
X97330Y140909
X97051Y144871
X85367Y146395
X81938Y147411
X78509Y140274
X55463Y3093
X35326Y3164
X19268Y69784
X38318Y38923
X35524Y41971
X42636Y6808
X57241Y2998
X13553Y2998
X30698Y14412
X33619Y12237
X37302Y8713
X31079Y7062
X11267Y94295
X11140Y84643
X21427Y95184
X20919Y93279
X28285Y28636
X30444Y28636
X32603Y28636
X34635Y28636
X36794Y28636
X38826Y28636
X40985Y28636
X43017Y28636
X26126Y28636
X28158Y30668
X30317Y30668
X32476Y30668
X34508Y30668
X36667Y30668
X38699Y30668
X40858Y30668
X42890Y30668
X25999Y30668
X25110Y130901
X28158Y32700
X30317Y32700
X32476Y32700
X34508Y32700
X36667Y32700
X38699Y32700
X40858Y32700
X42890Y32700
X25999Y32700
X28285Y22540
X30444Y22540
X32603Y22540
X34635Y22540
X36794Y22540
X38826Y22540
X40985Y22540
X43017Y22540
X26126Y22540
X28158Y24572
X30317Y24572
X32476Y24572
X34508Y24572
X36667Y24572
X38699Y24572
X40858Y24572
X42890Y24572
X25999Y24572
X28158Y26604
X30317Y26604
X32476Y26604
X34508Y26604
X36667Y26604
X38699Y26604
X40858Y26604
X42890Y26604
X25999Y26604
X28158Y20508
X30317Y20508
X32476Y20508
X34508Y20508
X36667Y20508
X38699Y20508
X40858Y20508
X42890Y20508
X25999Y20508
X25680Y17360
X38445Y17460
X35397Y17460
X37429Y17460
X39588Y17460
X41620Y17460
X24329Y17360
X23205Y35621
X25364Y35621
X27396Y35621
X31714Y35748
X37302Y35748
X39334Y35748
X41239Y35748
X43398Y35875
X45430Y35875
X46192Y33970
X46192Y26731
X46192Y23810
X46192Y22413
X46192Y20889
X46319Y18603
X46192Y35113
X42890Y19238
X45303Y17206
X43652Y17206
X26750Y17360
X27723Y15917
X26961Y15228
X26199Y14466
X25110Y13650
X24094Y14888
X23332Y13999
X24348Y11956
X22062Y8078
X21046Y8554
X25618Y8681
X19649Y8427
X17871Y7824
X24221Y7824
X17617Y6427
X17617Y5030
X17617Y3633
X17617Y839
X17617Y2236
X25364Y12618
X26253Y13134
X22951Y17333
X22951Y19365
X24475Y18857
X23078Y26604
X22316Y13110
X27442Y13396
X28031Y14412
X28920Y15301
X27069Y11956
X27142Y7824
X28539Y7697
X28412Y6427
X28412Y4903
X28412Y3760
X28412Y2236
X28412Y839
X29555Y17841
X25999Y18857
X25872Y34351
X24602Y34351
X43017Y34351
X44541Y34478
X44668Y18857
X3647Y43622
X33873Y51750
X22189Y9697
X24221Y9697
X57241Y96835
X43652Y53782
X32349Y53909
X31968Y61529
X43779Y61529
X30698Y95184
X30698Y96454
X38318Y96454
X38318Y95184
X37048Y90104
X35778Y90104
X34508Y90104
X33238Y90104
X31968Y90104
X30698Y90104
X30698Y97724
X31968Y97724
X33238Y97724
X34508Y97724
X35778Y97724
X37048Y97724
X38318Y97724
X38318Y90104
X33238Y96454
X33238Y95184
X34508Y95184
X34508Y96454
X35778Y96454
X35778Y95184
X58892Y2998
X49240Y7062
X24475Y101534
X44414Y101534
X40096Y101534
X27904Y101534
X40223Y82103
X37048Y45654
X19014Y34859
X13934Y106741
X51272Y19857
X50637Y8554
X45938Y12507
X6060Y63434
X44668Y12618
X40501Y39787
X17275Y27874
X18252Y39685
X24475Y99121
X25110Y38796
X20411Y107376
X27104Y72070
X16932Y29982
X16707Y40722
X40122Y41361
X44033Y11856
X24602Y95184
X27142Y40828
X22062Y106779
X26507Y71054
X32857Y35570
X32857Y41971
X20792Y38923
X28158Y41971
X43754Y55179
X11648Y17714
X59781Y38669
X49494Y39456
X53558Y40955
X43843Y46286
X34508Y15174
X28158Y38923
X31968Y15174
X30698Y38923
X106068Y207355
M30