G04 EAGLE Gerber RS-274X export*
G75*
%MOMM*%
%FSLAX34Y34*%
%LPD*%
%INSoldermask Bottom*%
%IPPOS*%
%AMOC8*
5,1,8,0,0,1.08239X$1,22.5*%
G01*
%ADD10R,1.403200X2.203200*%
%ADD11R,0.803200X1.553200*%
%ADD12C,0.838200*%
%ADD13C,0.853200*%
%ADD14C,3.403600*%
%ADD15R,1.203200X1.303200*%
%ADD16R,1.303200X1.203200*%
%ADD17C,2.082800*%
%ADD18R,1.033200X0.833200*%
%ADD19R,1.473200X0.838200*%
%ADD20R,1.703200X1.103200*%
%ADD21R,1.103200X1.703200*%
%ADD22R,6.203200X6.203200*%
%ADD23R,1.403200X0.803200*%
%ADD24R,0.863200X0.503200*%
%ADD25R,2.003200X1.603200*%
%ADD26R,1.603200X2.103200*%
%ADD27R,1.003200X1.703200*%
%ADD28R,0.440000X0.840000*%
%ADD29R,1.520000X0.940000*%
%ADD30C,1.053200*%
%ADD31R,0.553200X1.003200*%
%ADD32R,2.703200X1.903200*%
%ADD33R,1.353200X1.203200*%
%ADD34C,1.203200*%
%ADD35C,1.270000*%
%ADD36C,1.703200*%


D10*
X369630Y10690D03*
X313630Y10690D03*
D11*
X356630Y47440D03*
X346630Y47440D03*
X336630Y47440D03*
X326630Y47440D03*
D12*
X633730Y42840D03*
X51330Y1051640D03*
D13*
X312730Y46960D03*
X370530Y46960D03*
D14*
X56642Y282677D03*
X56642Y782803D03*
X626618Y782803D03*
X626618Y282677D03*
D15*
X138430Y1006840D03*
X138430Y1023840D03*
D16*
X172330Y1053440D03*
X155330Y1053440D03*
X172330Y979780D03*
X155330Y979780D03*
D17*
X201930Y1028040D03*
X201930Y1002640D03*
D18*
X227330Y978440D03*
X227330Y1001440D03*
D19*
X74930Y320904D03*
X74930Y312776D03*
D15*
X453390Y960340D03*
X453390Y943340D03*
D16*
X180730Y949300D03*
X197730Y949300D03*
D15*
X443230Y998440D03*
X443230Y981440D03*
X468630Y960340D03*
X468630Y943340D03*
D20*
X424010Y1016140D03*
X424010Y1003440D03*
X424010Y990740D03*
X424010Y978040D03*
X424010Y965340D03*
X424010Y952640D03*
X424010Y939940D03*
X424010Y927240D03*
X424010Y914540D03*
X424010Y901840D03*
X424010Y889140D03*
X424010Y876440D03*
X424010Y863740D03*
X424010Y851040D03*
D21*
X398780Y836140D03*
X386080Y836140D03*
X373380Y836140D03*
X360680Y836140D03*
X347980Y836140D03*
X335280Y836140D03*
X322580Y836140D03*
X309880Y836140D03*
X297180Y836140D03*
X284480Y836140D03*
D20*
X259250Y851040D03*
X259250Y863740D03*
X259250Y876440D03*
X259250Y889140D03*
X259250Y901840D03*
X259250Y914540D03*
X259250Y927240D03*
X259250Y939940D03*
X259250Y952640D03*
X259250Y965340D03*
X259250Y978040D03*
X259250Y990740D03*
X259250Y1003440D03*
X259250Y1016140D03*
D22*
X341630Y939140D03*
D15*
X458470Y998440D03*
X458470Y981440D03*
D23*
X217230Y932790D03*
X217230Y920090D03*
X217230Y907390D03*
X217230Y894690D03*
X217230Y881990D03*
X217230Y869290D03*
X217230Y856590D03*
X217230Y843890D03*
X161230Y843890D03*
X161230Y856590D03*
X161230Y869290D03*
X161230Y881990D03*
X161230Y894690D03*
X161230Y907390D03*
X161230Y920090D03*
X161230Y932790D03*
D16*
X117230Y862940D03*
X134230Y862940D03*
X134230Y913740D03*
X117230Y913740D03*
D24*
X134930Y894840D03*
X116530Y888340D03*
X116530Y881840D03*
X116530Y894840D03*
X134930Y888340D03*
X134930Y881840D03*
D13*
X427030Y46960D03*
X484830Y46960D03*
D16*
X180730Y964540D03*
X197730Y964540D03*
D17*
X151130Y71890D03*
X125730Y71890D03*
X100330Y71890D03*
X74930Y71890D03*
X608330Y174440D03*
X582930Y174440D03*
X557530Y174440D03*
X532130Y174440D03*
X532130Y240640D03*
X532130Y266040D03*
X532130Y291440D03*
X532130Y316840D03*
X24130Y342240D03*
X24130Y316840D03*
D16*
X504580Y850240D03*
X521580Y850240D03*
D25*
X525750Y151390D03*
X582750Y151390D03*
D26*
X598750Y19890D03*
X467250Y9890D03*
D27*
X513850Y48390D03*
X524850Y52390D03*
X535850Y48390D03*
X546850Y46390D03*
X557850Y48390D03*
X568850Y46390D03*
X579850Y48390D03*
X590850Y48390D03*
D28*
X209430Y1063340D03*
X204430Y1063340D03*
X199430Y1063340D03*
X194430Y1063340D03*
X194430Y1043340D03*
X199430Y1043340D03*
X204430Y1043340D03*
X209430Y1043340D03*
D29*
X201930Y1053440D03*
D16*
X172330Y1068680D03*
X155330Y1068680D03*
D17*
X386080Y79190D03*
X411480Y79190D03*
X151130Y1086460D03*
X176530Y1086460D03*
X626630Y980340D03*
X626630Y954940D03*
D30*
X125730Y204840D03*
X125730Y174840D03*
X125730Y331840D03*
X125730Y301840D03*
D31*
X163830Y1000840D03*
X168830Y1000840D03*
X173830Y1000840D03*
X158830Y1000840D03*
X153830Y1000840D03*
X153830Y1029840D03*
X158830Y1029840D03*
X163830Y1029840D03*
X168830Y1029840D03*
X173830Y1029840D03*
D32*
X163830Y1015340D03*
D16*
X121530Y1048360D03*
X104530Y1048360D03*
X121530Y1029310D03*
X104530Y1029310D03*
X121530Y1068680D03*
X104530Y1068680D03*
D17*
X354330Y139040D03*
X379730Y139040D03*
X405130Y139040D03*
X430530Y139040D03*
X189230Y278740D03*
X189230Y253340D03*
X189230Y227940D03*
X189230Y202540D03*
X189230Y177140D03*
D33*
X97084Y214840D03*
X97084Y189840D03*
X97084Y164840D03*
X40584Y214840D03*
X40584Y189840D03*
X40584Y164840D03*
D30*
X68834Y204840D03*
X68834Y174840D03*
D10*
X1056700Y10690D03*
X1000700Y10690D03*
D11*
X1043700Y47440D03*
X1033700Y47440D03*
X1023700Y47440D03*
X1013700Y47440D03*
D12*
X1320800Y42840D03*
X738400Y1051640D03*
D13*
X999800Y46960D03*
X1057600Y46960D03*
D14*
X743712Y282677D03*
X743712Y782803D03*
X1313688Y782803D03*
X1313688Y282677D03*
D15*
X825500Y1006840D03*
X825500Y1023840D03*
D16*
X859400Y1053440D03*
X842400Y1053440D03*
X859400Y979780D03*
X842400Y979780D03*
D17*
X889000Y1028040D03*
X889000Y1002640D03*
D18*
X914400Y978440D03*
X914400Y1001440D03*
D19*
X762000Y320904D03*
X762000Y312776D03*
D15*
X1140460Y960340D03*
X1140460Y943340D03*
D16*
X867800Y949300D03*
X884800Y949300D03*
D15*
X1130300Y998440D03*
X1130300Y981440D03*
X1155700Y960340D03*
X1155700Y943340D03*
D20*
X1111080Y1016140D03*
X1111080Y1003440D03*
X1111080Y990740D03*
X1111080Y978040D03*
X1111080Y965340D03*
X1111080Y952640D03*
X1111080Y939940D03*
X1111080Y927240D03*
X1111080Y914540D03*
X1111080Y901840D03*
X1111080Y889140D03*
X1111080Y876440D03*
X1111080Y863740D03*
X1111080Y851040D03*
D21*
X1085850Y836140D03*
X1073150Y836140D03*
X1060450Y836140D03*
X1047750Y836140D03*
X1035050Y836140D03*
X1022350Y836140D03*
X1009650Y836140D03*
X996950Y836140D03*
X984250Y836140D03*
X971550Y836140D03*
D20*
X946320Y851040D03*
X946320Y863740D03*
X946320Y876440D03*
X946320Y889140D03*
X946320Y901840D03*
X946320Y914540D03*
X946320Y927240D03*
X946320Y939940D03*
X946320Y952640D03*
X946320Y965340D03*
X946320Y978040D03*
X946320Y990740D03*
X946320Y1003440D03*
X946320Y1016140D03*
D22*
X1028700Y939140D03*
D15*
X1145540Y998440D03*
X1145540Y981440D03*
D23*
X904300Y932790D03*
X904300Y920090D03*
X904300Y907390D03*
X904300Y894690D03*
X904300Y881990D03*
X904300Y869290D03*
X904300Y856590D03*
X904300Y843890D03*
X848300Y843890D03*
X848300Y856590D03*
X848300Y869290D03*
X848300Y881990D03*
X848300Y894690D03*
X848300Y907390D03*
X848300Y920090D03*
X848300Y932790D03*
D16*
X804300Y862940D03*
X821300Y862940D03*
X821300Y913740D03*
X804300Y913740D03*
D24*
X822000Y894840D03*
X803600Y888340D03*
X803600Y881840D03*
X803600Y894840D03*
X822000Y888340D03*
X822000Y881840D03*
D13*
X1114100Y46960D03*
X1171900Y46960D03*
D16*
X867800Y964540D03*
X884800Y964540D03*
D17*
X838200Y71890D03*
X812800Y71890D03*
X787400Y71890D03*
X762000Y71890D03*
X1295400Y174440D03*
X1270000Y174440D03*
X1244600Y174440D03*
X1219200Y174440D03*
X1219200Y240640D03*
X1219200Y266040D03*
X1219200Y291440D03*
X1219200Y316840D03*
X711200Y342240D03*
X711200Y316840D03*
D16*
X1191650Y850240D03*
X1208650Y850240D03*
D25*
X1212820Y151390D03*
X1269820Y151390D03*
D26*
X1285820Y19890D03*
X1154320Y9890D03*
D27*
X1200920Y48390D03*
X1211920Y52390D03*
X1222920Y48390D03*
X1233920Y46390D03*
X1244920Y48390D03*
X1255920Y46390D03*
X1266920Y48390D03*
X1277920Y48390D03*
D28*
X896500Y1063340D03*
X891500Y1063340D03*
X886500Y1063340D03*
X881500Y1063340D03*
X881500Y1043340D03*
X886500Y1043340D03*
X891500Y1043340D03*
X896500Y1043340D03*
D29*
X889000Y1053440D03*
D16*
X859400Y1068680D03*
X842400Y1068680D03*
D17*
X1073150Y79190D03*
X1098550Y79190D03*
X838200Y1086460D03*
X863600Y1086460D03*
X1313700Y980340D03*
X1313700Y954940D03*
D30*
X812800Y204840D03*
X812800Y174840D03*
X812800Y331840D03*
X812800Y301840D03*
D31*
X850900Y1000840D03*
X855900Y1000840D03*
X860900Y1000840D03*
X845900Y1000840D03*
X840900Y1000840D03*
X840900Y1029840D03*
X845900Y1029840D03*
X850900Y1029840D03*
X855900Y1029840D03*
X860900Y1029840D03*
D32*
X850900Y1015340D03*
D16*
X808600Y1048360D03*
X791600Y1048360D03*
X808600Y1029310D03*
X791600Y1029310D03*
X808600Y1068680D03*
X791600Y1068680D03*
D17*
X1041400Y139040D03*
X1066800Y139040D03*
X1092200Y139040D03*
X1117600Y139040D03*
X876300Y278740D03*
X876300Y253340D03*
X876300Y227940D03*
X876300Y202540D03*
X876300Y177140D03*
D33*
X784154Y214840D03*
X784154Y189840D03*
X784154Y164840D03*
X727654Y214840D03*
X727654Y189840D03*
X727654Y164840D03*
D30*
X755904Y204840D03*
X755904Y174840D03*
D10*
X1743770Y10690D03*
X1687770Y10690D03*
D11*
X1730770Y47440D03*
X1720770Y47440D03*
X1710770Y47440D03*
X1700770Y47440D03*
D12*
X2007870Y42840D03*
X1425470Y1051640D03*
D13*
X1686870Y46960D03*
X1744670Y46960D03*
D14*
X1430782Y282677D03*
X1430782Y782803D03*
X2000758Y782803D03*
X2000758Y282677D03*
D15*
X1512570Y1006840D03*
X1512570Y1023840D03*
D16*
X1546470Y1053440D03*
X1529470Y1053440D03*
X1546470Y979780D03*
X1529470Y979780D03*
D17*
X1576070Y1028040D03*
X1576070Y1002640D03*
D18*
X1601470Y978440D03*
X1601470Y1001440D03*
D19*
X1449070Y320904D03*
X1449070Y312776D03*
D15*
X1827530Y960340D03*
X1827530Y943340D03*
D16*
X1554870Y949300D03*
X1571870Y949300D03*
D15*
X1817370Y998440D03*
X1817370Y981440D03*
X1842770Y960340D03*
X1842770Y943340D03*
D20*
X1798150Y1016140D03*
X1798150Y1003440D03*
X1798150Y990740D03*
X1798150Y978040D03*
X1798150Y965340D03*
X1798150Y952640D03*
X1798150Y939940D03*
X1798150Y927240D03*
X1798150Y914540D03*
X1798150Y901840D03*
X1798150Y889140D03*
X1798150Y876440D03*
X1798150Y863740D03*
X1798150Y851040D03*
D21*
X1772920Y836140D03*
X1760220Y836140D03*
X1747520Y836140D03*
X1734820Y836140D03*
X1722120Y836140D03*
X1709420Y836140D03*
X1696720Y836140D03*
X1684020Y836140D03*
X1671320Y836140D03*
X1658620Y836140D03*
D20*
X1633390Y851040D03*
X1633390Y863740D03*
X1633390Y876440D03*
X1633390Y889140D03*
X1633390Y901840D03*
X1633390Y914540D03*
X1633390Y927240D03*
X1633390Y939940D03*
X1633390Y952640D03*
X1633390Y965340D03*
X1633390Y978040D03*
X1633390Y990740D03*
X1633390Y1003440D03*
X1633390Y1016140D03*
D22*
X1715770Y939140D03*
D15*
X1832610Y998440D03*
X1832610Y981440D03*
D23*
X1591370Y932790D03*
X1591370Y920090D03*
X1591370Y907390D03*
X1591370Y894690D03*
X1591370Y881990D03*
X1591370Y869290D03*
X1591370Y856590D03*
X1591370Y843890D03*
X1535370Y843890D03*
X1535370Y856590D03*
X1535370Y869290D03*
X1535370Y881990D03*
X1535370Y894690D03*
X1535370Y907390D03*
X1535370Y920090D03*
X1535370Y932790D03*
D16*
X1491370Y862940D03*
X1508370Y862940D03*
X1508370Y913740D03*
X1491370Y913740D03*
D24*
X1509070Y894840D03*
X1490670Y888340D03*
X1490670Y881840D03*
X1490670Y894840D03*
X1509070Y888340D03*
X1509070Y881840D03*
D13*
X1801170Y46960D03*
X1858970Y46960D03*
D16*
X1554870Y964540D03*
X1571870Y964540D03*
D17*
X1525270Y71890D03*
X1499870Y71890D03*
X1474470Y71890D03*
X1449070Y71890D03*
X1982470Y174440D03*
X1957070Y174440D03*
X1931670Y174440D03*
X1906270Y174440D03*
X1906270Y240640D03*
X1906270Y266040D03*
X1906270Y291440D03*
X1906270Y316840D03*
X1398270Y342240D03*
X1398270Y316840D03*
D16*
X1878720Y850240D03*
X1895720Y850240D03*
D25*
X1899890Y151390D03*
X1956890Y151390D03*
D26*
X1972890Y19890D03*
X1841390Y9890D03*
D27*
X1887990Y48390D03*
X1898990Y52390D03*
X1909990Y48390D03*
X1920990Y46390D03*
X1931990Y48390D03*
X1942990Y46390D03*
X1953990Y48390D03*
X1964990Y48390D03*
D28*
X1583570Y1063340D03*
X1578570Y1063340D03*
X1573570Y1063340D03*
X1568570Y1063340D03*
X1568570Y1043340D03*
X1573570Y1043340D03*
X1578570Y1043340D03*
X1583570Y1043340D03*
D29*
X1576070Y1053440D03*
D16*
X1546470Y1068680D03*
X1529470Y1068680D03*
D17*
X1760220Y79190D03*
X1785620Y79190D03*
X1525270Y1086460D03*
X1550670Y1086460D03*
X2000770Y980340D03*
X2000770Y954940D03*
D30*
X1499870Y204840D03*
X1499870Y174840D03*
X1499870Y331840D03*
X1499870Y301840D03*
D31*
X1537970Y1000840D03*
X1542970Y1000840D03*
X1547970Y1000840D03*
X1532970Y1000840D03*
X1527970Y1000840D03*
X1527970Y1029840D03*
X1532970Y1029840D03*
X1537970Y1029840D03*
X1542970Y1029840D03*
X1547970Y1029840D03*
D32*
X1537970Y1015340D03*
D16*
X1495670Y1048360D03*
X1478670Y1048360D03*
X1495670Y1029310D03*
X1478670Y1029310D03*
X1495670Y1068680D03*
X1478670Y1068680D03*
D17*
X1728470Y139040D03*
X1753870Y139040D03*
X1779270Y139040D03*
X1804670Y139040D03*
X1563370Y278740D03*
X1563370Y253340D03*
X1563370Y227940D03*
X1563370Y202540D03*
X1563370Y177140D03*
D33*
X1471224Y214840D03*
X1471224Y189840D03*
X1471224Y164840D03*
X1414724Y214840D03*
X1414724Y189840D03*
X1414724Y164840D03*
D30*
X1442974Y204840D03*
X1442974Y174840D03*
D34*
X-20320Y1035990D03*
X2075815Y1035990D03*
D35*
X-29375Y40005D02*
X-29372Y40227D01*
X-29364Y40449D01*
X-29350Y40671D01*
X-29331Y40893D01*
X-29307Y41113D01*
X-29277Y41334D01*
X-29242Y41553D01*
X-29201Y41772D01*
X-29155Y41989D01*
X-29104Y42205D01*
X-29047Y42420D01*
X-28985Y42634D01*
X-28918Y42845D01*
X-28846Y43056D01*
X-28768Y43264D01*
X-28686Y43470D01*
X-28598Y43674D01*
X-28506Y43877D01*
X-28408Y44076D01*
X-28306Y44273D01*
X-28199Y44468D01*
X-28087Y44660D01*
X-27970Y44849D01*
X-27849Y45036D01*
X-27723Y45219D01*
X-27593Y45399D01*
X-27458Y45576D01*
X-27320Y45749D01*
X-27177Y45919D01*
X-27029Y46086D01*
X-26878Y46249D01*
X-26723Y46408D01*
X-26564Y46563D01*
X-26401Y46714D01*
X-26234Y46862D01*
X-26064Y47005D01*
X-25891Y47143D01*
X-25714Y47278D01*
X-25534Y47408D01*
X-25351Y47534D01*
X-25164Y47655D01*
X-24975Y47772D01*
X-24783Y47884D01*
X-24588Y47991D01*
X-24391Y48093D01*
X-24192Y48191D01*
X-23989Y48283D01*
X-23785Y48371D01*
X-23579Y48453D01*
X-23371Y48531D01*
X-23160Y48603D01*
X-22949Y48670D01*
X-22735Y48732D01*
X-22520Y48789D01*
X-22304Y48840D01*
X-22087Y48886D01*
X-21868Y48927D01*
X-21649Y48962D01*
X-21428Y48992D01*
X-21208Y49016D01*
X-20986Y49035D01*
X-20764Y49049D01*
X-20542Y49057D01*
X-20320Y49060D01*
X-20098Y49057D01*
X-19876Y49049D01*
X-19654Y49035D01*
X-19432Y49016D01*
X-19212Y48992D01*
X-18991Y48962D01*
X-18772Y48927D01*
X-18553Y48886D01*
X-18336Y48840D01*
X-18120Y48789D01*
X-17905Y48732D01*
X-17691Y48670D01*
X-17480Y48603D01*
X-17269Y48531D01*
X-17061Y48453D01*
X-16855Y48371D01*
X-16651Y48283D01*
X-16448Y48191D01*
X-16249Y48093D01*
X-16052Y47991D01*
X-15857Y47884D01*
X-15665Y47772D01*
X-15476Y47655D01*
X-15289Y47534D01*
X-15106Y47408D01*
X-14926Y47278D01*
X-14749Y47143D01*
X-14576Y47005D01*
X-14406Y46862D01*
X-14239Y46714D01*
X-14076Y46563D01*
X-13917Y46408D01*
X-13762Y46249D01*
X-13611Y46086D01*
X-13463Y45919D01*
X-13320Y45749D01*
X-13182Y45576D01*
X-13047Y45399D01*
X-12917Y45219D01*
X-12791Y45036D01*
X-12670Y44849D01*
X-12553Y44660D01*
X-12441Y44468D01*
X-12334Y44273D01*
X-12232Y44076D01*
X-12134Y43877D01*
X-12042Y43674D01*
X-11954Y43470D01*
X-11872Y43264D01*
X-11794Y43056D01*
X-11722Y42845D01*
X-11655Y42634D01*
X-11593Y42420D01*
X-11536Y42205D01*
X-11485Y41989D01*
X-11439Y41772D01*
X-11398Y41553D01*
X-11363Y41334D01*
X-11333Y41113D01*
X-11309Y40893D01*
X-11290Y40671D01*
X-11276Y40449D01*
X-11268Y40227D01*
X-11265Y40005D01*
X-11268Y39783D01*
X-11276Y39561D01*
X-11290Y39339D01*
X-11309Y39117D01*
X-11333Y38897D01*
X-11363Y38676D01*
X-11398Y38457D01*
X-11439Y38238D01*
X-11485Y38021D01*
X-11536Y37805D01*
X-11593Y37590D01*
X-11655Y37376D01*
X-11722Y37165D01*
X-11794Y36954D01*
X-11872Y36746D01*
X-11954Y36540D01*
X-12042Y36336D01*
X-12134Y36133D01*
X-12232Y35934D01*
X-12334Y35737D01*
X-12441Y35542D01*
X-12553Y35350D01*
X-12670Y35161D01*
X-12791Y34974D01*
X-12917Y34791D01*
X-13047Y34611D01*
X-13182Y34434D01*
X-13320Y34261D01*
X-13463Y34091D01*
X-13611Y33924D01*
X-13762Y33761D01*
X-13917Y33602D01*
X-14076Y33447D01*
X-14239Y33296D01*
X-14406Y33148D01*
X-14576Y33005D01*
X-14749Y32867D01*
X-14926Y32732D01*
X-15106Y32602D01*
X-15289Y32476D01*
X-15476Y32355D01*
X-15665Y32238D01*
X-15857Y32126D01*
X-16052Y32019D01*
X-16249Y31917D01*
X-16448Y31819D01*
X-16651Y31727D01*
X-16855Y31639D01*
X-17061Y31557D01*
X-17269Y31479D01*
X-17480Y31407D01*
X-17691Y31340D01*
X-17905Y31278D01*
X-18120Y31221D01*
X-18336Y31170D01*
X-18553Y31124D01*
X-18772Y31083D01*
X-18991Y31048D01*
X-19212Y31018D01*
X-19432Y30994D01*
X-19654Y30975D01*
X-19876Y30961D01*
X-20098Y30953D01*
X-20320Y30950D01*
X-20542Y30953D01*
X-20764Y30961D01*
X-20986Y30975D01*
X-21208Y30994D01*
X-21428Y31018D01*
X-21649Y31048D01*
X-21868Y31083D01*
X-22087Y31124D01*
X-22304Y31170D01*
X-22520Y31221D01*
X-22735Y31278D01*
X-22949Y31340D01*
X-23160Y31407D01*
X-23371Y31479D01*
X-23579Y31557D01*
X-23785Y31639D01*
X-23989Y31727D01*
X-24192Y31819D01*
X-24391Y31917D01*
X-24588Y32019D01*
X-24783Y32126D01*
X-24975Y32238D01*
X-25164Y32355D01*
X-25351Y32476D01*
X-25534Y32602D01*
X-25714Y32732D01*
X-25891Y32867D01*
X-26064Y33005D01*
X-26234Y33148D01*
X-26401Y33296D01*
X-26564Y33447D01*
X-26723Y33602D01*
X-26878Y33761D01*
X-27029Y33924D01*
X-27177Y34091D01*
X-27320Y34261D01*
X-27458Y34434D01*
X-27593Y34611D01*
X-27723Y34791D01*
X-27849Y34974D01*
X-27970Y35161D01*
X-28087Y35350D01*
X-28199Y35542D01*
X-28306Y35737D01*
X-28408Y35934D01*
X-28506Y36133D01*
X-28598Y36336D01*
X-28686Y36540D01*
X-28768Y36746D01*
X-28846Y36954D01*
X-28918Y37165D01*
X-28985Y37376D01*
X-29047Y37590D01*
X-29104Y37805D01*
X-29155Y38021D01*
X-29201Y38238D01*
X-29242Y38457D01*
X-29277Y38676D01*
X-29307Y38897D01*
X-29331Y39117D01*
X-29350Y39339D01*
X-29364Y39561D01*
X-29372Y39783D01*
X-29375Y40005D01*
D36*
X-20320Y40005D03*
M02*
