G04 EAGLE Gerber RS-274X export*
G75*
%MOMM*%
%FSLAX34Y34*%
%LPD*%
%INSolderpaste Top*%
%IPPOS*%
%AMOC8*
5,1,8,0,0,1.08239X$1,22.5*%
G01*
%ADD10C,0.300000*%
%ADD11R,1.100000X1.000000*%
%ADD12R,1.000000X1.100000*%
%ADD13R,1.200000X0.550000*%
%ADD14R,0.900000X0.850000*%
%ADD15R,0.600000X0.600000*%
%ADD16R,0.850000X1.520000*%
%ADD17R,1.520000X0.850000*%
%ADD18R,0.900000X0.900000*%
%ADD19R,0.300000X1.000000*%
%ADD20R,0.600000X1.000000*%
%ADD21R,0.250000X0.610000*%
%ADD22R,0.250000X0.560000*%
%ADD23R,1.100000X2.400000*%
%ADD24R,1.250000X7.000000*%
%ADD25R,0.550000X0.800000*%
%ADD26R,0.550000X0.500000*%
%ADD27R,1.000000X4.600000*%
%ADD28R,1.600000X3.400000*%
%ADD29R,4.600000X1.000000*%
%ADD30R,3.400000X1.600000*%
%ADD31R,0.600000X1.700000*%
%ADD32R,1.000000X2.700000*%
%ADD33R,0.630000X0.830000*%
%ADD34R,1.300000X0.700000*%
%ADD35R,1.150000X1.000000*%
%ADD36R,1.200000X2.000000*%
%ADD37R,0.600000X1.350000*%

G36*
X1243379Y1214375D02*
X1243379Y1214375D01*
X1244448Y1214394D01*
X1244454Y1214399D01*
X1244459Y1214396D01*
X1245496Y1214652D01*
X1245501Y1214658D01*
X1245506Y1214656D01*
X1246461Y1215136D01*
X1246464Y1215143D01*
X1246470Y1215142D01*
X1247293Y1215823D01*
X1247295Y1215831D01*
X1247301Y1215831D01*
X1247952Y1216678D01*
X1247952Y1216686D01*
X1247958Y1216687D01*
X1248404Y1217658D01*
X1248402Y1217666D01*
X1248408Y1217669D01*
X1248627Y1218714D01*
X1248624Y1218721D01*
X1248628Y1218724D01*
X1248628Y1230724D01*
X1248624Y1230729D01*
X1248627Y1230732D01*
X1248447Y1231828D01*
X1248442Y1231833D01*
X1248444Y1231838D01*
X1248026Y1232866D01*
X1248018Y1232870D01*
X1248020Y1232876D01*
X1247383Y1233784D01*
X1247375Y1233787D01*
X1247376Y1233793D01*
X1246552Y1234537D01*
X1246544Y1234538D01*
X1246543Y1234543D01*
X1245575Y1235086D01*
X1245567Y1235085D01*
X1245565Y1235090D01*
X1244500Y1235403D01*
X1244496Y1235401D01*
X1244492Y1235401D01*
X1244489Y1235405D01*
X1243382Y1235474D01*
X1243375Y1235469D01*
X1243371Y1235473D01*
X1242264Y1235303D01*
X1242258Y1235297D01*
X1242253Y1235300D01*
X1241211Y1234888D01*
X1241207Y1234881D01*
X1241201Y1234883D01*
X1240277Y1234250D01*
X1240274Y1234242D01*
X1240269Y1234242D01*
X1239509Y1233419D01*
X1239508Y1233411D01*
X1239502Y1233410D01*
X1238944Y1232438D01*
X1238945Y1232430D01*
X1238940Y1232428D01*
X1238612Y1231356D01*
X1238615Y1231349D01*
X1238610Y1231346D01*
X1238529Y1230228D01*
X1238531Y1230226D01*
X1238529Y1230224D01*
X1238529Y1218224D01*
X1238534Y1218218D01*
X1238531Y1218213D01*
X1238750Y1217269D01*
X1238756Y1217264D01*
X1238753Y1217259D01*
X1239177Y1216387D01*
X1239184Y1216383D01*
X1239183Y1216377D01*
X1239790Y1215622D01*
X1239798Y1215620D01*
X1239798Y1215614D01*
X1240558Y1215012D01*
X1240566Y1215012D01*
X1240567Y1215006D01*
X1241442Y1214589D01*
X1241450Y1214591D01*
X1241453Y1214585D01*
X1242398Y1214373D01*
X1242406Y1214376D01*
X1242409Y1214372D01*
X1243379Y1214375D01*
G37*
G36*
X388085Y1214375D02*
X388085Y1214375D01*
X389154Y1214394D01*
X389160Y1214399D01*
X389164Y1214396D01*
X390202Y1214652D01*
X390207Y1214658D01*
X390212Y1214656D01*
X391166Y1215136D01*
X391170Y1215143D01*
X391176Y1215142D01*
X391999Y1215823D01*
X392001Y1215831D01*
X392007Y1215831D01*
X392658Y1216678D01*
X392658Y1216686D01*
X392664Y1216687D01*
X393110Y1217658D01*
X393108Y1217666D01*
X393113Y1217669D01*
X393333Y1218714D01*
X393329Y1218721D01*
X393334Y1218724D01*
X393334Y1230724D01*
X393330Y1230729D01*
X393333Y1230732D01*
X393153Y1231828D01*
X393147Y1231833D01*
X393150Y1231838D01*
X392731Y1232866D01*
X392724Y1232870D01*
X392726Y1232876D01*
X392089Y1233784D01*
X392081Y1233787D01*
X392082Y1233793D01*
X391258Y1234537D01*
X391250Y1234538D01*
X391249Y1234543D01*
X390281Y1235086D01*
X390273Y1235085D01*
X390271Y1235090D01*
X389206Y1235403D01*
X389202Y1235401D01*
X389198Y1235401D01*
X389195Y1235405D01*
X388087Y1235474D01*
X388081Y1235469D01*
X388077Y1235473D01*
X386969Y1235303D01*
X386964Y1235297D01*
X386959Y1235300D01*
X385917Y1234888D01*
X385912Y1234881D01*
X385907Y1234883D01*
X384983Y1234250D01*
X384980Y1234242D01*
X384974Y1234242D01*
X384214Y1233419D01*
X384214Y1233411D01*
X384208Y1233410D01*
X383650Y1232438D01*
X383651Y1232430D01*
X383646Y1232428D01*
X383318Y1231356D01*
X383321Y1231349D01*
X383316Y1231346D01*
X383235Y1230228D01*
X383237Y1230226D01*
X383235Y1230224D01*
X383235Y1218224D01*
X383240Y1218218D01*
X383236Y1218213D01*
X383456Y1217269D01*
X383462Y1217264D01*
X383459Y1217259D01*
X383883Y1216387D01*
X383890Y1216383D01*
X383889Y1216377D01*
X384496Y1215622D01*
X384504Y1215620D01*
X384504Y1215614D01*
X385264Y1215012D01*
X385272Y1215012D01*
X385273Y1215006D01*
X386148Y1214589D01*
X386156Y1214591D01*
X386158Y1214585D01*
X387104Y1214373D01*
X387112Y1214376D01*
X387115Y1214372D01*
X388085Y1214375D01*
G37*
G36*
X502385Y1214375D02*
X502385Y1214375D01*
X503454Y1214394D01*
X503460Y1214399D01*
X503464Y1214396D01*
X504502Y1214652D01*
X504507Y1214658D01*
X504512Y1214656D01*
X505466Y1215136D01*
X505470Y1215143D01*
X505476Y1215142D01*
X506299Y1215823D01*
X506301Y1215831D01*
X506307Y1215831D01*
X506958Y1216678D01*
X506958Y1216686D01*
X506964Y1216687D01*
X507410Y1217658D01*
X507408Y1217666D01*
X507413Y1217669D01*
X507633Y1218714D01*
X507629Y1218721D01*
X507634Y1218724D01*
X507634Y1230724D01*
X507630Y1230729D01*
X507633Y1230732D01*
X507453Y1231828D01*
X507447Y1231833D01*
X507450Y1231838D01*
X507031Y1232866D01*
X507024Y1232870D01*
X507026Y1232876D01*
X506389Y1233784D01*
X506381Y1233787D01*
X506382Y1233793D01*
X505558Y1234537D01*
X505550Y1234538D01*
X505549Y1234543D01*
X504581Y1235086D01*
X504573Y1235085D01*
X504571Y1235090D01*
X503506Y1235403D01*
X503502Y1235401D01*
X503498Y1235401D01*
X503495Y1235405D01*
X502387Y1235474D01*
X502381Y1235469D01*
X502377Y1235473D01*
X501269Y1235303D01*
X501264Y1235297D01*
X501259Y1235300D01*
X500217Y1234888D01*
X500212Y1234881D01*
X500207Y1234883D01*
X499283Y1234250D01*
X499280Y1234242D01*
X499274Y1234242D01*
X498514Y1233419D01*
X498514Y1233411D01*
X498508Y1233410D01*
X497950Y1232438D01*
X497951Y1232430D01*
X497946Y1232428D01*
X497618Y1231356D01*
X497621Y1231349D01*
X497616Y1231346D01*
X497535Y1230228D01*
X497537Y1230226D01*
X497535Y1230224D01*
X497535Y1218224D01*
X497540Y1218218D01*
X497536Y1218213D01*
X497756Y1217269D01*
X497762Y1217264D01*
X497759Y1217259D01*
X498183Y1216387D01*
X498190Y1216383D01*
X498189Y1216377D01*
X498796Y1215622D01*
X498804Y1215620D01*
X498804Y1215614D01*
X499564Y1215012D01*
X499572Y1215012D01*
X499573Y1215006D01*
X500448Y1214589D01*
X500456Y1214591D01*
X500458Y1214585D01*
X501404Y1214373D01*
X501412Y1214376D01*
X501415Y1214372D01*
X502385Y1214375D01*
G37*
G36*
X1129079Y1214375D02*
X1129079Y1214375D01*
X1130148Y1214394D01*
X1130154Y1214399D01*
X1130159Y1214396D01*
X1131196Y1214652D01*
X1131201Y1214658D01*
X1131206Y1214656D01*
X1132161Y1215136D01*
X1132164Y1215143D01*
X1132170Y1215142D01*
X1132993Y1215823D01*
X1132995Y1215831D01*
X1133001Y1215831D01*
X1133652Y1216678D01*
X1133652Y1216686D01*
X1133658Y1216687D01*
X1134104Y1217658D01*
X1134102Y1217666D01*
X1134108Y1217669D01*
X1134327Y1218714D01*
X1134324Y1218721D01*
X1134328Y1218724D01*
X1134328Y1230724D01*
X1134324Y1230729D01*
X1134327Y1230732D01*
X1134147Y1231828D01*
X1134142Y1231833D01*
X1134144Y1231838D01*
X1133726Y1232866D01*
X1133718Y1232870D01*
X1133720Y1232876D01*
X1133083Y1233784D01*
X1133075Y1233787D01*
X1133076Y1233793D01*
X1132252Y1234537D01*
X1132244Y1234538D01*
X1132243Y1234543D01*
X1131275Y1235086D01*
X1131267Y1235085D01*
X1131265Y1235090D01*
X1130200Y1235403D01*
X1130196Y1235401D01*
X1130192Y1235401D01*
X1130189Y1235405D01*
X1129082Y1235474D01*
X1129075Y1235469D01*
X1129071Y1235473D01*
X1127964Y1235303D01*
X1127958Y1235297D01*
X1127953Y1235300D01*
X1126911Y1234888D01*
X1126907Y1234881D01*
X1126901Y1234883D01*
X1125977Y1234250D01*
X1125974Y1234242D01*
X1125969Y1234242D01*
X1125209Y1233419D01*
X1125208Y1233411D01*
X1125202Y1233410D01*
X1124644Y1232438D01*
X1124645Y1232430D01*
X1124640Y1232428D01*
X1124312Y1231356D01*
X1124315Y1231349D01*
X1124310Y1231346D01*
X1124229Y1230228D01*
X1124231Y1230226D01*
X1124229Y1230224D01*
X1124229Y1218224D01*
X1124234Y1218218D01*
X1124231Y1218213D01*
X1124450Y1217269D01*
X1124456Y1217264D01*
X1124453Y1217259D01*
X1124877Y1216387D01*
X1124884Y1216383D01*
X1124883Y1216377D01*
X1125490Y1215622D01*
X1125498Y1215620D01*
X1125498Y1215614D01*
X1126258Y1215012D01*
X1126266Y1215012D01*
X1126267Y1215006D01*
X1127142Y1214589D01*
X1127150Y1214591D01*
X1127153Y1214585D01*
X1128098Y1214373D01*
X1128106Y1214376D01*
X1128109Y1214372D01*
X1129079Y1214375D01*
G37*
G36*
X502385Y41860D02*
X502385Y41860D01*
X502385Y41861D01*
X502385Y41860D01*
X503454Y41879D01*
X503460Y41884D01*
X503464Y41881D01*
X504502Y42137D01*
X504507Y42143D01*
X504512Y42141D01*
X505466Y42621D01*
X505470Y42629D01*
X505476Y42627D01*
X506299Y43308D01*
X506301Y43316D01*
X506307Y43316D01*
X506958Y44163D01*
X506958Y44171D01*
X506964Y44173D01*
X507410Y45143D01*
X507408Y45151D01*
X507413Y45154D01*
X507633Y46200D01*
X507629Y46206D01*
X507634Y46210D01*
X507634Y58210D01*
X507630Y58214D01*
X507633Y58218D01*
X507453Y59313D01*
X507447Y59318D01*
X507450Y59323D01*
X507031Y60351D01*
X507024Y60355D01*
X507026Y60361D01*
X506389Y61270D01*
X506381Y61272D01*
X506382Y61278D01*
X505558Y62022D01*
X505550Y62023D01*
X505549Y62029D01*
X504581Y62571D01*
X504573Y62570D01*
X504571Y62575D01*
X503506Y62888D01*
X503502Y62887D01*
X503498Y62887D01*
X503495Y62890D01*
X502387Y62959D01*
X502381Y62954D01*
X502377Y62958D01*
X501269Y62788D01*
X501264Y62783D01*
X501259Y62786D01*
X500217Y62373D01*
X500212Y62366D01*
X500207Y62368D01*
X499283Y61735D01*
X499280Y61727D01*
X499274Y61727D01*
X498514Y60904D01*
X498514Y60896D01*
X498508Y60895D01*
X497950Y59923D01*
X497951Y59915D01*
X497946Y59913D01*
X497618Y58842D01*
X497621Y58834D01*
X497616Y58831D01*
X497535Y57713D01*
X497537Y57711D01*
X497535Y57710D01*
X497535Y45710D01*
X497540Y45703D01*
X497536Y45698D01*
X497756Y44754D01*
X497762Y44749D01*
X497759Y44744D01*
X498183Y43872D01*
X498190Y43868D01*
X498189Y43863D01*
X498796Y43107D01*
X498804Y43105D01*
X498804Y43099D01*
X499564Y42497D01*
X499572Y42497D01*
X499573Y42492D01*
X500448Y42074D01*
X500456Y42076D01*
X500458Y42070D01*
X501404Y41858D01*
X501412Y41862D01*
X501415Y41857D01*
X502385Y41860D01*
G37*
G36*
X1243379Y41860D02*
X1243379Y41860D01*
X1243379Y41861D01*
X1243379Y41860D01*
X1244448Y41879D01*
X1244454Y41884D01*
X1244459Y41881D01*
X1245496Y42137D01*
X1245501Y42143D01*
X1245506Y42141D01*
X1246461Y42621D01*
X1246464Y42629D01*
X1246470Y42627D01*
X1247293Y43308D01*
X1247295Y43316D01*
X1247301Y43316D01*
X1247952Y44163D01*
X1247952Y44171D01*
X1247958Y44173D01*
X1248404Y45143D01*
X1248402Y45151D01*
X1248408Y45154D01*
X1248627Y46200D01*
X1248624Y46206D01*
X1248628Y46210D01*
X1248628Y58210D01*
X1248624Y58214D01*
X1248627Y58218D01*
X1248447Y59313D01*
X1248442Y59318D01*
X1248444Y59323D01*
X1248026Y60351D01*
X1248018Y60355D01*
X1248020Y60361D01*
X1247383Y61270D01*
X1247375Y61272D01*
X1247376Y61278D01*
X1246552Y62022D01*
X1246544Y62023D01*
X1246543Y62029D01*
X1245575Y62571D01*
X1245567Y62570D01*
X1245565Y62575D01*
X1244500Y62888D01*
X1244496Y62887D01*
X1244492Y62887D01*
X1244489Y62890D01*
X1243382Y62959D01*
X1243375Y62954D01*
X1243371Y62958D01*
X1242264Y62788D01*
X1242258Y62783D01*
X1242253Y62786D01*
X1241211Y62373D01*
X1241207Y62366D01*
X1241201Y62368D01*
X1240277Y61735D01*
X1240274Y61727D01*
X1240269Y61727D01*
X1239509Y60904D01*
X1239508Y60896D01*
X1239502Y60895D01*
X1238944Y59923D01*
X1238945Y59915D01*
X1238940Y59913D01*
X1238612Y58842D01*
X1238615Y58834D01*
X1238610Y58831D01*
X1238529Y57713D01*
X1238531Y57711D01*
X1238529Y57710D01*
X1238529Y45710D01*
X1238534Y45703D01*
X1238531Y45698D01*
X1238750Y44754D01*
X1238756Y44749D01*
X1238753Y44744D01*
X1239177Y43872D01*
X1239184Y43868D01*
X1239183Y43863D01*
X1239790Y43107D01*
X1239798Y43105D01*
X1239798Y43099D01*
X1240558Y42497D01*
X1240566Y42497D01*
X1240567Y42492D01*
X1241442Y42074D01*
X1241450Y42076D01*
X1241453Y42070D01*
X1242398Y41858D01*
X1242406Y41862D01*
X1242409Y41857D01*
X1243379Y41860D01*
G37*
G36*
X1129079Y41860D02*
X1129079Y41860D01*
X1129079Y41861D01*
X1129079Y41860D01*
X1130148Y41879D01*
X1130154Y41884D01*
X1130159Y41881D01*
X1131196Y42137D01*
X1131201Y42143D01*
X1131206Y42141D01*
X1132161Y42621D01*
X1132164Y42629D01*
X1132170Y42627D01*
X1132993Y43308D01*
X1132995Y43316D01*
X1133001Y43316D01*
X1133652Y44163D01*
X1133652Y44171D01*
X1133658Y44173D01*
X1134104Y45143D01*
X1134102Y45151D01*
X1134108Y45154D01*
X1134327Y46200D01*
X1134324Y46206D01*
X1134328Y46210D01*
X1134328Y58210D01*
X1134324Y58214D01*
X1134327Y58218D01*
X1134147Y59313D01*
X1134142Y59318D01*
X1134144Y59323D01*
X1133726Y60351D01*
X1133718Y60355D01*
X1133720Y60361D01*
X1133083Y61270D01*
X1133075Y61272D01*
X1133076Y61278D01*
X1132252Y62022D01*
X1132244Y62023D01*
X1132243Y62029D01*
X1131275Y62571D01*
X1131267Y62570D01*
X1131265Y62575D01*
X1130200Y62888D01*
X1130196Y62887D01*
X1130192Y62887D01*
X1130189Y62890D01*
X1129082Y62959D01*
X1129075Y62954D01*
X1129071Y62958D01*
X1127964Y62788D01*
X1127958Y62783D01*
X1127953Y62786D01*
X1126911Y62373D01*
X1126907Y62366D01*
X1126901Y62368D01*
X1125977Y61735D01*
X1125974Y61727D01*
X1125969Y61727D01*
X1125209Y60904D01*
X1125208Y60896D01*
X1125202Y60895D01*
X1124644Y59923D01*
X1124645Y59915D01*
X1124640Y59913D01*
X1124312Y58842D01*
X1124315Y58834D01*
X1124310Y58831D01*
X1124229Y57713D01*
X1124231Y57711D01*
X1124229Y57710D01*
X1124229Y45710D01*
X1124234Y45703D01*
X1124231Y45698D01*
X1124450Y44754D01*
X1124456Y44749D01*
X1124453Y44744D01*
X1124877Y43872D01*
X1124884Y43868D01*
X1124883Y43863D01*
X1125490Y43107D01*
X1125498Y43105D01*
X1125498Y43099D01*
X1126258Y42497D01*
X1126266Y42497D01*
X1126267Y42492D01*
X1127142Y42074D01*
X1127150Y42076D01*
X1127153Y42070D01*
X1128098Y41858D01*
X1128106Y41862D01*
X1128109Y41857D01*
X1129079Y41860D01*
G37*
G36*
X388085Y41860D02*
X388085Y41860D01*
X388085Y41861D01*
X388085Y41860D01*
X389154Y41879D01*
X389160Y41884D01*
X389164Y41881D01*
X390202Y42137D01*
X390207Y42143D01*
X390212Y42141D01*
X391166Y42621D01*
X391170Y42629D01*
X391176Y42627D01*
X391999Y43308D01*
X392001Y43316D01*
X392007Y43316D01*
X392658Y44163D01*
X392658Y44171D01*
X392664Y44173D01*
X393110Y45143D01*
X393108Y45151D01*
X393113Y45154D01*
X393333Y46200D01*
X393329Y46206D01*
X393334Y46210D01*
X393334Y58210D01*
X393330Y58214D01*
X393333Y58218D01*
X393153Y59313D01*
X393147Y59318D01*
X393150Y59323D01*
X392731Y60351D01*
X392724Y60355D01*
X392726Y60361D01*
X392089Y61270D01*
X392081Y61272D01*
X392082Y61278D01*
X391258Y62022D01*
X391250Y62023D01*
X391249Y62029D01*
X390281Y62571D01*
X390273Y62570D01*
X390271Y62575D01*
X389206Y62888D01*
X389202Y62887D01*
X389198Y62887D01*
X389195Y62890D01*
X388087Y62959D01*
X388081Y62954D01*
X388077Y62958D01*
X386969Y62788D01*
X386964Y62783D01*
X386959Y62786D01*
X385917Y62373D01*
X385912Y62366D01*
X385907Y62368D01*
X384983Y61735D01*
X384980Y61727D01*
X384974Y61727D01*
X384214Y60904D01*
X384214Y60896D01*
X384208Y60895D01*
X383650Y59923D01*
X383651Y59915D01*
X383646Y59913D01*
X383318Y58842D01*
X383321Y58834D01*
X383316Y58831D01*
X383235Y57713D01*
X383237Y57711D01*
X383235Y57710D01*
X383235Y45710D01*
X383240Y45703D01*
X383236Y45698D01*
X383456Y44754D01*
X383462Y44749D01*
X383459Y44744D01*
X383883Y43872D01*
X383890Y43868D01*
X383889Y43863D01*
X384496Y43107D01*
X384504Y43105D01*
X384504Y43099D01*
X385264Y42497D01*
X385272Y42497D01*
X385273Y42492D01*
X386148Y42074D01*
X386156Y42076D01*
X386158Y42070D01*
X387104Y41858D01*
X387112Y41862D01*
X387115Y41857D01*
X388085Y41860D01*
G37*
G36*
X416965Y1214384D02*
X416965Y1214384D01*
X416972Y1214389D01*
X416976Y1214386D01*
X418028Y1214635D01*
X418033Y1214641D01*
X418038Y1214639D01*
X419008Y1215116D01*
X419012Y1215123D01*
X419017Y1215122D01*
X419856Y1215803D01*
X419858Y1215810D01*
X419864Y1215810D01*
X420531Y1216661D01*
X420531Y1216669D01*
X420537Y1216670D01*
X420997Y1217648D01*
X420996Y1217656D01*
X421001Y1217658D01*
X421233Y1218714D01*
X421229Y1218721D01*
X421234Y1218724D01*
X421234Y1230724D01*
X421230Y1230730D01*
X421233Y1230733D01*
X421041Y1231838D01*
X421035Y1231844D01*
X421038Y1231849D01*
X420605Y1232883D01*
X420597Y1232887D01*
X420599Y1232893D01*
X419947Y1233805D01*
X419939Y1233808D01*
X419939Y1233813D01*
X419100Y1234557D01*
X419092Y1234558D01*
X419091Y1234564D01*
X418107Y1235103D01*
X418099Y1235101D01*
X418097Y1235107D01*
X417018Y1235413D01*
X417010Y1235410D01*
X417007Y1235415D01*
X415887Y1235474D01*
X415882Y1235470D01*
X415879Y1235473D01*
X414833Y1235356D01*
X414827Y1235350D01*
X414822Y1235353D01*
X413829Y1235005D01*
X413824Y1234999D01*
X413819Y1235001D01*
X412928Y1234441D01*
X412925Y1234433D01*
X412919Y1234434D01*
X412175Y1233690D01*
X412174Y1233682D01*
X412168Y1233681D01*
X411608Y1232790D01*
X411609Y1232782D01*
X411603Y1232780D01*
X411256Y1231787D01*
X411258Y1231779D01*
X411253Y1231776D01*
X411135Y1230730D01*
X411138Y1230726D01*
X411135Y1230724D01*
X411135Y1218724D01*
X411139Y1218720D01*
X411136Y1218717D01*
X411293Y1217720D01*
X411299Y1217715D01*
X411296Y1217710D01*
X411671Y1216773D01*
X411678Y1216769D01*
X411676Y1216764D01*
X412250Y1215934D01*
X412258Y1215932D01*
X412258Y1215926D01*
X413002Y1215245D01*
X413010Y1215244D01*
X413011Y1215239D01*
X413888Y1214740D01*
X413896Y1214742D01*
X413898Y1214736D01*
X414864Y1214446D01*
X414872Y1214448D01*
X414875Y1214444D01*
X415881Y1214375D01*
X415884Y1214377D01*
X415885Y1214375D01*
X416965Y1214384D01*
G37*
G36*
X1157960Y1214384D02*
X1157960Y1214384D01*
X1157966Y1214389D01*
X1157971Y1214386D01*
X1159022Y1214635D01*
X1159027Y1214641D01*
X1159033Y1214639D01*
X1160002Y1215116D01*
X1160006Y1215123D01*
X1160011Y1215122D01*
X1160851Y1215803D01*
X1160853Y1215810D01*
X1160858Y1215810D01*
X1161525Y1216661D01*
X1161525Y1216669D01*
X1161531Y1216670D01*
X1161992Y1217648D01*
X1161990Y1217656D01*
X1161995Y1217658D01*
X1162227Y1218714D01*
X1162223Y1218721D01*
X1162228Y1218724D01*
X1162228Y1230724D01*
X1162224Y1230730D01*
X1162227Y1230733D01*
X1162035Y1231838D01*
X1162029Y1231844D01*
X1162032Y1231849D01*
X1161599Y1232883D01*
X1161592Y1232887D01*
X1161593Y1232893D01*
X1160941Y1233805D01*
X1160933Y1233808D01*
X1160933Y1233813D01*
X1160094Y1234557D01*
X1160086Y1234558D01*
X1160085Y1234564D01*
X1159101Y1235103D01*
X1159093Y1235101D01*
X1159091Y1235107D01*
X1158012Y1235413D01*
X1158005Y1235410D01*
X1158001Y1235415D01*
X1156881Y1235474D01*
X1156876Y1235470D01*
X1156873Y1235473D01*
X1155827Y1235356D01*
X1155821Y1235350D01*
X1155816Y1235353D01*
X1154823Y1235005D01*
X1154819Y1234999D01*
X1154813Y1235001D01*
X1153922Y1234441D01*
X1153919Y1234433D01*
X1153913Y1234434D01*
X1153169Y1233690D01*
X1153168Y1233682D01*
X1153162Y1233681D01*
X1152602Y1232790D01*
X1152603Y1232782D01*
X1152598Y1232780D01*
X1152250Y1231787D01*
X1152252Y1231779D01*
X1152248Y1231776D01*
X1152130Y1230730D01*
X1152132Y1230726D01*
X1152129Y1230724D01*
X1152129Y1218724D01*
X1152133Y1218720D01*
X1152130Y1218717D01*
X1152287Y1217720D01*
X1152293Y1217715D01*
X1152290Y1217710D01*
X1152665Y1216773D01*
X1152672Y1216769D01*
X1152671Y1216764D01*
X1153245Y1215934D01*
X1153252Y1215932D01*
X1153252Y1215926D01*
X1153996Y1215245D01*
X1154004Y1215244D01*
X1154005Y1215239D01*
X1154882Y1214740D01*
X1154890Y1214742D01*
X1154892Y1214736D01*
X1155858Y1214446D01*
X1155866Y1214448D01*
X1155869Y1214444D01*
X1156875Y1214375D01*
X1156878Y1214377D01*
X1156879Y1214375D01*
X1157960Y1214384D01*
G37*
G36*
X1043660Y1214384D02*
X1043660Y1214384D01*
X1043666Y1214389D01*
X1043671Y1214386D01*
X1044722Y1214635D01*
X1044727Y1214641D01*
X1044733Y1214639D01*
X1045702Y1215116D01*
X1045706Y1215123D01*
X1045711Y1215122D01*
X1046551Y1215803D01*
X1046553Y1215810D01*
X1046558Y1215810D01*
X1047225Y1216661D01*
X1047225Y1216669D01*
X1047231Y1216670D01*
X1047692Y1217648D01*
X1047690Y1217656D01*
X1047695Y1217658D01*
X1047927Y1218714D01*
X1047923Y1218721D01*
X1047928Y1218724D01*
X1047928Y1230724D01*
X1047924Y1230730D01*
X1047927Y1230733D01*
X1047735Y1231838D01*
X1047729Y1231844D01*
X1047732Y1231849D01*
X1047299Y1232883D01*
X1047292Y1232887D01*
X1047293Y1232893D01*
X1046641Y1233805D01*
X1046633Y1233808D01*
X1046633Y1233813D01*
X1045794Y1234557D01*
X1045786Y1234558D01*
X1045785Y1234564D01*
X1044801Y1235103D01*
X1044793Y1235101D01*
X1044791Y1235107D01*
X1043712Y1235413D01*
X1043705Y1235410D01*
X1043701Y1235415D01*
X1042581Y1235474D01*
X1042576Y1235470D01*
X1042573Y1235473D01*
X1041527Y1235356D01*
X1041521Y1235350D01*
X1041516Y1235353D01*
X1040523Y1235005D01*
X1040519Y1234999D01*
X1040513Y1235001D01*
X1039622Y1234441D01*
X1039619Y1234433D01*
X1039613Y1234434D01*
X1038869Y1233690D01*
X1038868Y1233682D01*
X1038862Y1233681D01*
X1038302Y1232790D01*
X1038303Y1232782D01*
X1038298Y1232780D01*
X1037950Y1231787D01*
X1037952Y1231779D01*
X1037948Y1231776D01*
X1037830Y1230730D01*
X1037832Y1230726D01*
X1037829Y1230724D01*
X1037829Y1218724D01*
X1037833Y1218720D01*
X1037830Y1218717D01*
X1037987Y1217720D01*
X1037993Y1217715D01*
X1037990Y1217710D01*
X1038365Y1216773D01*
X1038372Y1216769D01*
X1038371Y1216764D01*
X1038945Y1215934D01*
X1038952Y1215932D01*
X1038952Y1215926D01*
X1039696Y1215245D01*
X1039704Y1215244D01*
X1039705Y1215239D01*
X1040582Y1214740D01*
X1040590Y1214742D01*
X1040592Y1214736D01*
X1041558Y1214446D01*
X1041566Y1214448D01*
X1041569Y1214444D01*
X1042575Y1214375D01*
X1042578Y1214377D01*
X1042579Y1214375D01*
X1043660Y1214384D01*
G37*
G36*
X302665Y1214384D02*
X302665Y1214384D01*
X302672Y1214389D01*
X302676Y1214386D01*
X303728Y1214635D01*
X303733Y1214641D01*
X303738Y1214639D01*
X304708Y1215116D01*
X304712Y1215123D01*
X304717Y1215122D01*
X305556Y1215803D01*
X305558Y1215810D01*
X305564Y1215810D01*
X306231Y1216661D01*
X306231Y1216669D01*
X306237Y1216670D01*
X306697Y1217648D01*
X306696Y1217656D01*
X306701Y1217658D01*
X306933Y1218714D01*
X306929Y1218721D01*
X306934Y1218724D01*
X306934Y1230724D01*
X306930Y1230730D01*
X306933Y1230733D01*
X306741Y1231838D01*
X306735Y1231844D01*
X306738Y1231849D01*
X306305Y1232883D01*
X306297Y1232887D01*
X306299Y1232893D01*
X305647Y1233805D01*
X305639Y1233808D01*
X305639Y1233813D01*
X304800Y1234557D01*
X304792Y1234558D01*
X304791Y1234564D01*
X303807Y1235103D01*
X303799Y1235101D01*
X303797Y1235107D01*
X302718Y1235413D01*
X302710Y1235410D01*
X302707Y1235415D01*
X301587Y1235474D01*
X301582Y1235470D01*
X301579Y1235473D01*
X300533Y1235356D01*
X300527Y1235350D01*
X300522Y1235353D01*
X299529Y1235005D01*
X299524Y1234999D01*
X299519Y1235001D01*
X298628Y1234441D01*
X298625Y1234433D01*
X298619Y1234434D01*
X297875Y1233690D01*
X297874Y1233682D01*
X297868Y1233681D01*
X297308Y1232790D01*
X297309Y1232782D01*
X297303Y1232780D01*
X296956Y1231787D01*
X296958Y1231779D01*
X296953Y1231776D01*
X296835Y1230730D01*
X296838Y1230726D01*
X296835Y1230724D01*
X296835Y1218724D01*
X296839Y1218720D01*
X296836Y1218717D01*
X296993Y1217720D01*
X296999Y1217715D01*
X296996Y1217710D01*
X297371Y1216773D01*
X297378Y1216769D01*
X297376Y1216764D01*
X297950Y1215934D01*
X297958Y1215932D01*
X297958Y1215926D01*
X298702Y1215245D01*
X298710Y1215244D01*
X298711Y1215239D01*
X299588Y1214740D01*
X299596Y1214742D01*
X299598Y1214736D01*
X300564Y1214446D01*
X300572Y1214448D01*
X300575Y1214444D01*
X301581Y1214375D01*
X301584Y1214377D01*
X301585Y1214375D01*
X302665Y1214384D01*
G37*
G36*
X302665Y41869D02*
X302665Y41869D01*
X302672Y41874D01*
X302676Y41871D01*
X303728Y42120D01*
X303733Y42126D01*
X303738Y42124D01*
X304708Y42601D01*
X304712Y42608D01*
X304717Y42607D01*
X305556Y43288D01*
X305558Y43296D01*
X305564Y43296D01*
X306231Y44146D01*
X306231Y44154D01*
X306237Y44155D01*
X306697Y45133D01*
X306696Y45141D01*
X306701Y45143D01*
X306933Y46199D01*
X306929Y46206D01*
X306934Y46210D01*
X306934Y58210D01*
X306930Y58215D01*
X306933Y58218D01*
X306741Y59323D01*
X306735Y59329D01*
X306738Y59334D01*
X306305Y60368D01*
X306297Y60372D01*
X306299Y60378D01*
X305647Y61290D01*
X305639Y61293D01*
X305639Y61298D01*
X304800Y62043D01*
X304792Y62043D01*
X304791Y62049D01*
X303807Y62588D01*
X303799Y62587D01*
X303797Y62592D01*
X302718Y62898D01*
X302710Y62895D01*
X302707Y62900D01*
X301587Y62959D01*
X301582Y62955D01*
X301579Y62959D01*
X300533Y62841D01*
X300527Y62835D01*
X300522Y62838D01*
X299529Y62491D01*
X299524Y62484D01*
X299519Y62486D01*
X298628Y61926D01*
X298625Y61918D01*
X298619Y61919D01*
X297875Y61175D01*
X297874Y61167D01*
X297868Y61166D01*
X297308Y60275D01*
X297309Y60267D01*
X297303Y60265D01*
X296956Y59272D01*
X296958Y59264D01*
X296953Y59261D01*
X296835Y58215D01*
X296838Y58211D01*
X296835Y58210D01*
X296835Y46210D01*
X296839Y46205D01*
X296836Y46202D01*
X296993Y45206D01*
X296999Y45200D01*
X296996Y45195D01*
X297371Y44259D01*
X297378Y44254D01*
X297376Y44249D01*
X297950Y43420D01*
X297958Y43417D01*
X297958Y43411D01*
X298702Y42730D01*
X298710Y42730D01*
X298711Y42724D01*
X299588Y42226D01*
X299596Y42227D01*
X299598Y42221D01*
X300564Y41931D01*
X300572Y41934D01*
X300575Y41929D01*
X301581Y41860D01*
X301584Y41862D01*
X301585Y41860D01*
X302665Y41869D01*
G37*
G36*
X1157960Y41869D02*
X1157960Y41869D01*
X1157966Y41874D01*
X1157971Y41871D01*
X1159022Y42120D01*
X1159027Y42126D01*
X1159033Y42124D01*
X1160002Y42601D01*
X1160006Y42608D01*
X1160011Y42607D01*
X1160851Y43288D01*
X1160853Y43296D01*
X1160858Y43296D01*
X1161525Y44146D01*
X1161525Y44154D01*
X1161531Y44155D01*
X1161992Y45133D01*
X1161990Y45141D01*
X1161995Y45143D01*
X1162227Y46199D01*
X1162223Y46206D01*
X1162228Y46210D01*
X1162228Y58210D01*
X1162224Y58215D01*
X1162227Y58218D01*
X1162035Y59323D01*
X1162029Y59329D01*
X1162032Y59334D01*
X1161599Y60368D01*
X1161592Y60372D01*
X1161593Y60378D01*
X1160941Y61290D01*
X1160933Y61293D01*
X1160933Y61298D01*
X1160094Y62043D01*
X1160086Y62043D01*
X1160085Y62049D01*
X1159101Y62588D01*
X1159093Y62587D01*
X1159091Y62592D01*
X1158012Y62898D01*
X1158005Y62895D01*
X1158001Y62900D01*
X1156881Y62959D01*
X1156876Y62955D01*
X1156873Y62959D01*
X1155827Y62841D01*
X1155821Y62835D01*
X1155816Y62838D01*
X1154823Y62491D01*
X1154819Y62484D01*
X1154813Y62486D01*
X1153922Y61926D01*
X1153919Y61918D01*
X1153913Y61919D01*
X1153169Y61175D01*
X1153168Y61167D01*
X1153162Y61166D01*
X1152602Y60275D01*
X1152603Y60267D01*
X1152598Y60265D01*
X1152250Y59272D01*
X1152252Y59264D01*
X1152248Y59261D01*
X1152130Y58215D01*
X1152132Y58211D01*
X1152129Y58210D01*
X1152129Y46210D01*
X1152133Y46205D01*
X1152130Y46202D01*
X1152287Y45206D01*
X1152293Y45200D01*
X1152290Y45195D01*
X1152665Y44259D01*
X1152672Y44254D01*
X1152671Y44249D01*
X1153245Y43420D01*
X1153252Y43417D01*
X1153252Y43411D01*
X1153996Y42730D01*
X1154004Y42730D01*
X1154005Y42724D01*
X1154882Y42226D01*
X1154890Y42227D01*
X1154892Y42221D01*
X1155858Y41931D01*
X1155866Y41934D01*
X1155869Y41929D01*
X1156875Y41860D01*
X1156878Y41862D01*
X1156879Y41860D01*
X1157960Y41869D01*
G37*
G36*
X416965Y41869D02*
X416965Y41869D01*
X416972Y41874D01*
X416976Y41871D01*
X418028Y42120D01*
X418033Y42126D01*
X418038Y42124D01*
X419008Y42601D01*
X419012Y42608D01*
X419017Y42607D01*
X419856Y43288D01*
X419858Y43296D01*
X419864Y43296D01*
X420531Y44146D01*
X420531Y44154D01*
X420537Y44155D01*
X420997Y45133D01*
X420996Y45141D01*
X421001Y45143D01*
X421233Y46199D01*
X421229Y46206D01*
X421234Y46210D01*
X421234Y58210D01*
X421230Y58215D01*
X421233Y58218D01*
X421041Y59323D01*
X421035Y59329D01*
X421038Y59334D01*
X420605Y60368D01*
X420597Y60372D01*
X420599Y60378D01*
X419947Y61290D01*
X419939Y61293D01*
X419939Y61298D01*
X419100Y62043D01*
X419092Y62043D01*
X419091Y62049D01*
X418107Y62588D01*
X418099Y62587D01*
X418097Y62592D01*
X417018Y62898D01*
X417010Y62895D01*
X417007Y62900D01*
X415887Y62959D01*
X415882Y62955D01*
X415879Y62959D01*
X414833Y62841D01*
X414827Y62835D01*
X414822Y62838D01*
X413829Y62491D01*
X413824Y62484D01*
X413819Y62486D01*
X412928Y61926D01*
X412925Y61918D01*
X412919Y61919D01*
X412175Y61175D01*
X412174Y61167D01*
X412168Y61166D01*
X411608Y60275D01*
X411609Y60267D01*
X411603Y60265D01*
X411256Y59272D01*
X411258Y59264D01*
X411253Y59261D01*
X411135Y58215D01*
X411138Y58211D01*
X411135Y58210D01*
X411135Y46210D01*
X411139Y46205D01*
X411136Y46202D01*
X411293Y45206D01*
X411299Y45200D01*
X411296Y45195D01*
X411671Y44259D01*
X411678Y44254D01*
X411676Y44249D01*
X412250Y43420D01*
X412258Y43417D01*
X412258Y43411D01*
X413002Y42730D01*
X413010Y42730D01*
X413011Y42724D01*
X413888Y42226D01*
X413896Y42227D01*
X413898Y42221D01*
X414864Y41931D01*
X414872Y41934D01*
X414875Y41929D01*
X415881Y41860D01*
X415884Y41862D01*
X415885Y41860D01*
X416965Y41869D01*
G37*
G36*
X1043660Y41869D02*
X1043660Y41869D01*
X1043666Y41874D01*
X1043671Y41871D01*
X1044722Y42120D01*
X1044727Y42126D01*
X1044733Y42124D01*
X1045702Y42601D01*
X1045706Y42608D01*
X1045711Y42607D01*
X1046551Y43288D01*
X1046553Y43296D01*
X1046558Y43296D01*
X1047225Y44146D01*
X1047225Y44154D01*
X1047231Y44155D01*
X1047692Y45133D01*
X1047690Y45141D01*
X1047695Y45143D01*
X1047927Y46199D01*
X1047923Y46206D01*
X1047928Y46210D01*
X1047928Y58210D01*
X1047924Y58215D01*
X1047927Y58218D01*
X1047735Y59323D01*
X1047729Y59329D01*
X1047732Y59334D01*
X1047299Y60368D01*
X1047292Y60372D01*
X1047293Y60378D01*
X1046641Y61290D01*
X1046633Y61293D01*
X1046633Y61298D01*
X1045794Y62043D01*
X1045786Y62043D01*
X1045785Y62049D01*
X1044801Y62588D01*
X1044793Y62587D01*
X1044791Y62592D01*
X1043712Y62898D01*
X1043705Y62895D01*
X1043701Y62900D01*
X1042581Y62959D01*
X1042576Y62955D01*
X1042573Y62959D01*
X1041527Y62841D01*
X1041521Y62835D01*
X1041516Y62838D01*
X1040523Y62491D01*
X1040519Y62484D01*
X1040513Y62486D01*
X1039622Y61926D01*
X1039619Y61918D01*
X1039613Y61919D01*
X1038869Y61175D01*
X1038868Y61167D01*
X1038862Y61166D01*
X1038302Y60275D01*
X1038303Y60267D01*
X1038298Y60265D01*
X1037950Y59272D01*
X1037952Y59264D01*
X1037948Y59261D01*
X1037830Y58215D01*
X1037832Y58211D01*
X1037829Y58210D01*
X1037829Y46210D01*
X1037833Y46205D01*
X1037830Y46202D01*
X1037987Y45206D01*
X1037993Y45200D01*
X1037990Y45195D01*
X1038365Y44259D01*
X1038372Y44254D01*
X1038371Y44249D01*
X1038945Y43420D01*
X1038952Y43417D01*
X1038952Y43411D01*
X1039696Y42730D01*
X1039704Y42730D01*
X1039705Y42724D01*
X1040582Y42226D01*
X1040590Y42227D01*
X1040592Y42221D01*
X1041558Y41931D01*
X1041566Y41934D01*
X1041569Y41929D01*
X1042575Y41860D01*
X1042578Y41862D01*
X1042579Y41860D01*
X1043660Y41869D01*
G37*
G36*
X1129582Y1174879D02*
X1129582Y1174879D01*
X1129586Y1174876D01*
X1130661Y1175031D01*
X1130667Y1175036D01*
X1130672Y1175033D01*
X1131686Y1175424D01*
X1131690Y1175431D01*
X1131696Y1175429D01*
X1132597Y1176035D01*
X1132600Y1176043D01*
X1132606Y1176042D01*
X1133350Y1176834D01*
X1133351Y1176842D01*
X1133357Y1176843D01*
X1133906Y1177780D01*
X1133905Y1177788D01*
X1133910Y1177790D01*
X1134237Y1178827D01*
X1134235Y1178834D01*
X1134239Y1178837D01*
X1134328Y1179920D01*
X1134326Y1179923D01*
X1134328Y1179924D01*
X1134328Y1185924D01*
X1134325Y1185928D01*
X1134327Y1185931D01*
X1134177Y1187063D01*
X1134172Y1187069D01*
X1134175Y1187074D01*
X1133776Y1188145D01*
X1133769Y1188149D01*
X1133771Y1188154D01*
X1133145Y1189109D01*
X1133137Y1189112D01*
X1133138Y1189118D01*
X1132314Y1189910D01*
X1132306Y1189911D01*
X1132306Y1189916D01*
X1131327Y1190505D01*
X1131319Y1190504D01*
X1131317Y1190510D01*
X1130231Y1190866D01*
X1130224Y1190863D01*
X1130221Y1190868D01*
X1129083Y1190973D01*
X1129075Y1190968D01*
X1129070Y1190973D01*
X1127933Y1190766D01*
X1127927Y1190760D01*
X1127922Y1190763D01*
X1126859Y1190308D01*
X1126855Y1190301D01*
X1126850Y1190302D01*
X1125915Y1189622D01*
X1125913Y1189615D01*
X1125907Y1189615D01*
X1125147Y1188744D01*
X1125146Y1188736D01*
X1125141Y1188735D01*
X1124593Y1187717D01*
X1124595Y1187709D01*
X1124589Y1187707D01*
X1124586Y1187694D01*
X1124586Y1187693D01*
X1124572Y1187644D01*
X1124559Y1187595D01*
X1124545Y1187546D01*
X1124531Y1187497D01*
X1124531Y1187496D01*
X1124518Y1187447D01*
X1124504Y1187398D01*
X1124491Y1187349D01*
X1124477Y1187300D01*
X1124477Y1187299D01*
X1124464Y1187250D01*
X1124450Y1187201D01*
X1124436Y1187152D01*
X1124423Y1187103D01*
X1124423Y1187102D01*
X1124409Y1187053D01*
X1124396Y1187004D01*
X1124382Y1186955D01*
X1124369Y1186906D01*
X1124369Y1186905D01*
X1124355Y1186856D01*
X1124342Y1186807D01*
X1124328Y1186758D01*
X1124282Y1186592D01*
X1124285Y1186585D01*
X1124281Y1186581D01*
X1124229Y1185427D01*
X1124230Y1185425D01*
X1124229Y1185424D01*
X1124229Y1179424D01*
X1124234Y1179419D01*
X1124230Y1179415D01*
X1124442Y1178335D01*
X1124448Y1178329D01*
X1124445Y1178324D01*
X1124892Y1177318D01*
X1124900Y1177314D01*
X1124898Y1177309D01*
X1125558Y1176427D01*
X1125565Y1176425D01*
X1125565Y1176419D01*
X1126404Y1175707D01*
X1126413Y1175706D01*
X1126414Y1175700D01*
X1127390Y1175192D01*
X1127398Y1175194D01*
X1127401Y1175188D01*
X1128466Y1174911D01*
X1128473Y1174914D01*
X1128477Y1174909D01*
X1129577Y1174875D01*
X1129582Y1174879D01*
G37*
G36*
X1243882Y1174879D02*
X1243882Y1174879D01*
X1243886Y1174876D01*
X1244961Y1175031D01*
X1244967Y1175036D01*
X1244972Y1175033D01*
X1245986Y1175424D01*
X1245990Y1175431D01*
X1245996Y1175429D01*
X1246897Y1176035D01*
X1246900Y1176043D01*
X1246906Y1176042D01*
X1247650Y1176834D01*
X1247651Y1176842D01*
X1247657Y1176843D01*
X1248206Y1177780D01*
X1248205Y1177788D01*
X1248210Y1177790D01*
X1248537Y1178827D01*
X1248535Y1178834D01*
X1248539Y1178837D01*
X1248628Y1179920D01*
X1248626Y1179923D01*
X1248628Y1179924D01*
X1248628Y1185924D01*
X1248625Y1185928D01*
X1248627Y1185931D01*
X1248477Y1187063D01*
X1248472Y1187069D01*
X1248475Y1187074D01*
X1248076Y1188145D01*
X1248069Y1188149D01*
X1248071Y1188154D01*
X1247445Y1189109D01*
X1247437Y1189112D01*
X1247438Y1189118D01*
X1246614Y1189910D01*
X1246606Y1189911D01*
X1246606Y1189916D01*
X1245627Y1190505D01*
X1245619Y1190504D01*
X1245617Y1190510D01*
X1244531Y1190866D01*
X1244524Y1190863D01*
X1244521Y1190868D01*
X1243383Y1190973D01*
X1243375Y1190968D01*
X1243370Y1190973D01*
X1242233Y1190766D01*
X1242227Y1190760D01*
X1242222Y1190763D01*
X1241159Y1190308D01*
X1241155Y1190301D01*
X1241150Y1190302D01*
X1240215Y1189622D01*
X1240213Y1189615D01*
X1240207Y1189615D01*
X1239447Y1188744D01*
X1239446Y1188736D01*
X1239441Y1188735D01*
X1238893Y1187717D01*
X1238895Y1187709D01*
X1238889Y1187707D01*
X1238886Y1187694D01*
X1238886Y1187693D01*
X1238872Y1187644D01*
X1238859Y1187595D01*
X1238845Y1187546D01*
X1238831Y1187497D01*
X1238831Y1187496D01*
X1238818Y1187447D01*
X1238804Y1187398D01*
X1238791Y1187349D01*
X1238777Y1187300D01*
X1238777Y1187299D01*
X1238764Y1187250D01*
X1238750Y1187201D01*
X1238736Y1187152D01*
X1238723Y1187103D01*
X1238723Y1187102D01*
X1238709Y1187053D01*
X1238696Y1187004D01*
X1238682Y1186955D01*
X1238669Y1186906D01*
X1238669Y1186905D01*
X1238655Y1186856D01*
X1238642Y1186807D01*
X1238628Y1186758D01*
X1238582Y1186592D01*
X1238585Y1186585D01*
X1238581Y1186581D01*
X1238529Y1185427D01*
X1238530Y1185425D01*
X1238529Y1185424D01*
X1238529Y1179424D01*
X1238534Y1179419D01*
X1238530Y1179415D01*
X1238742Y1178335D01*
X1238748Y1178329D01*
X1238745Y1178324D01*
X1239192Y1177318D01*
X1239200Y1177314D01*
X1239198Y1177309D01*
X1239858Y1176427D01*
X1239865Y1176425D01*
X1239865Y1176419D01*
X1240704Y1175707D01*
X1240713Y1175706D01*
X1240714Y1175700D01*
X1241690Y1175192D01*
X1241698Y1175194D01*
X1241701Y1175188D01*
X1242766Y1174911D01*
X1242773Y1174914D01*
X1242777Y1174909D01*
X1243877Y1174875D01*
X1243882Y1174879D01*
G37*
G36*
X502888Y1174879D02*
X502888Y1174879D01*
X502891Y1174876D01*
X503967Y1175031D01*
X503973Y1175036D01*
X503978Y1175033D01*
X504992Y1175424D01*
X504996Y1175431D01*
X505001Y1175429D01*
X505903Y1176035D01*
X505906Y1176043D01*
X505911Y1176042D01*
X506656Y1176834D01*
X506657Y1176842D01*
X506662Y1176843D01*
X507212Y1177780D01*
X507211Y1177788D01*
X507216Y1177790D01*
X507543Y1178827D01*
X507540Y1178834D01*
X507545Y1178837D01*
X507634Y1179920D01*
X507632Y1179923D01*
X507634Y1179924D01*
X507634Y1185924D01*
X507631Y1185928D01*
X507633Y1185931D01*
X507483Y1187063D01*
X507477Y1187069D01*
X507480Y1187074D01*
X507082Y1188145D01*
X507075Y1188149D01*
X507077Y1188154D01*
X506451Y1189109D01*
X506443Y1189112D01*
X506444Y1189118D01*
X505620Y1189910D01*
X505612Y1189911D01*
X505611Y1189916D01*
X504633Y1190505D01*
X504624Y1190504D01*
X504622Y1190510D01*
X503537Y1190866D01*
X503529Y1190863D01*
X503526Y1190868D01*
X502389Y1190973D01*
X502381Y1190968D01*
X502376Y1190973D01*
X501238Y1190766D01*
X501233Y1190760D01*
X501228Y1190763D01*
X500165Y1190308D01*
X500161Y1190301D01*
X500156Y1190302D01*
X499221Y1189622D01*
X499218Y1189615D01*
X499213Y1189615D01*
X498453Y1188744D01*
X498452Y1188736D01*
X498446Y1188735D01*
X497899Y1187717D01*
X497900Y1187709D01*
X497895Y1187707D01*
X497891Y1187694D01*
X497891Y1187693D01*
X497878Y1187644D01*
X497864Y1187595D01*
X497851Y1187546D01*
X497837Y1187497D01*
X497837Y1187496D01*
X497824Y1187447D01*
X497810Y1187398D01*
X497797Y1187349D01*
X497783Y1187300D01*
X497783Y1187299D01*
X497769Y1187250D01*
X497756Y1187201D01*
X497742Y1187152D01*
X497729Y1187103D01*
X497729Y1187102D01*
X497715Y1187053D01*
X497702Y1187004D01*
X497688Y1186955D01*
X497674Y1186906D01*
X497674Y1186905D01*
X497661Y1186856D01*
X497647Y1186807D01*
X497634Y1186758D01*
X497588Y1186592D01*
X497591Y1186585D01*
X497586Y1186581D01*
X497535Y1185427D01*
X497536Y1185425D01*
X497535Y1185424D01*
X497535Y1179424D01*
X497539Y1179419D01*
X497536Y1179415D01*
X497748Y1178335D01*
X497754Y1178329D01*
X497751Y1178324D01*
X498198Y1177318D01*
X498205Y1177314D01*
X498204Y1177309D01*
X498863Y1176427D01*
X498871Y1176425D01*
X498871Y1176419D01*
X499710Y1175707D01*
X499718Y1175706D01*
X499719Y1175700D01*
X500696Y1175192D01*
X500704Y1175194D01*
X500706Y1175188D01*
X501772Y1174911D01*
X501779Y1174914D01*
X501783Y1174909D01*
X502883Y1174875D01*
X502888Y1174879D01*
G37*
G36*
X388588Y1174879D02*
X388588Y1174879D01*
X388591Y1174876D01*
X389667Y1175031D01*
X389673Y1175036D01*
X389678Y1175033D01*
X390692Y1175424D01*
X390696Y1175431D01*
X390701Y1175429D01*
X391603Y1176035D01*
X391606Y1176043D01*
X391611Y1176042D01*
X392356Y1176834D01*
X392357Y1176842D01*
X392362Y1176843D01*
X392912Y1177780D01*
X392911Y1177788D01*
X392916Y1177790D01*
X393243Y1178827D01*
X393240Y1178834D01*
X393245Y1178837D01*
X393334Y1179920D01*
X393332Y1179923D01*
X393334Y1179924D01*
X393334Y1185924D01*
X393331Y1185928D01*
X393333Y1185931D01*
X393183Y1187063D01*
X393177Y1187069D01*
X393180Y1187074D01*
X392782Y1188145D01*
X392775Y1188149D01*
X392777Y1188154D01*
X392151Y1189109D01*
X392143Y1189112D01*
X392144Y1189118D01*
X391320Y1189910D01*
X391312Y1189911D01*
X391311Y1189916D01*
X390333Y1190505D01*
X390324Y1190504D01*
X390322Y1190510D01*
X389237Y1190866D01*
X389229Y1190863D01*
X389226Y1190868D01*
X388089Y1190973D01*
X388081Y1190968D01*
X388076Y1190973D01*
X386938Y1190766D01*
X386933Y1190760D01*
X386928Y1190763D01*
X385865Y1190308D01*
X385861Y1190301D01*
X385856Y1190302D01*
X384921Y1189622D01*
X384918Y1189615D01*
X384913Y1189615D01*
X384153Y1188744D01*
X384152Y1188736D01*
X384146Y1188735D01*
X383599Y1187717D01*
X383600Y1187709D01*
X383595Y1187707D01*
X383591Y1187694D01*
X383591Y1187693D01*
X383578Y1187644D01*
X383564Y1187595D01*
X383551Y1187546D01*
X383537Y1187497D01*
X383537Y1187496D01*
X383524Y1187447D01*
X383510Y1187398D01*
X383497Y1187349D01*
X383483Y1187300D01*
X383483Y1187299D01*
X383469Y1187250D01*
X383456Y1187201D01*
X383442Y1187152D01*
X383429Y1187103D01*
X383429Y1187102D01*
X383415Y1187053D01*
X383402Y1187004D01*
X383388Y1186955D01*
X383374Y1186906D01*
X383374Y1186905D01*
X383361Y1186856D01*
X383347Y1186807D01*
X383334Y1186758D01*
X383288Y1186592D01*
X383291Y1186585D01*
X383286Y1186581D01*
X383235Y1185427D01*
X383236Y1185425D01*
X383235Y1185424D01*
X383235Y1179424D01*
X383239Y1179419D01*
X383236Y1179415D01*
X383448Y1178335D01*
X383454Y1178329D01*
X383451Y1178324D01*
X383898Y1177318D01*
X383905Y1177314D01*
X383904Y1177309D01*
X384563Y1176427D01*
X384571Y1176425D01*
X384571Y1176419D01*
X385410Y1175707D01*
X385418Y1175706D01*
X385419Y1175700D01*
X386396Y1175192D01*
X386404Y1175194D01*
X386406Y1175188D01*
X387472Y1174911D01*
X387479Y1174914D01*
X387483Y1174909D01*
X388583Y1174875D01*
X388588Y1174879D01*
G37*
G36*
X1243882Y2364D02*
X1243882Y2364D01*
X1243886Y2361D01*
X1244961Y2516D01*
X1244967Y2522D01*
X1244972Y2519D01*
X1245986Y2909D01*
X1245990Y2916D01*
X1245996Y2914D01*
X1246897Y3520D01*
X1246900Y3528D01*
X1246906Y3528D01*
X1247650Y4319D01*
X1247651Y4327D01*
X1247657Y4328D01*
X1248206Y5266D01*
X1248205Y5274D01*
X1248210Y5276D01*
X1248537Y6312D01*
X1248535Y6320D01*
X1248539Y6323D01*
X1248628Y7406D01*
X1248626Y7408D01*
X1248628Y7410D01*
X1248628Y13410D01*
X1248625Y13414D01*
X1248627Y13416D01*
X1248477Y14548D01*
X1248472Y14554D01*
X1248475Y14559D01*
X1248076Y15630D01*
X1248069Y15634D01*
X1248071Y15640D01*
X1247445Y16595D01*
X1247437Y16597D01*
X1247438Y16603D01*
X1246614Y17395D01*
X1246606Y17396D01*
X1246606Y17402D01*
X1245627Y17990D01*
X1245619Y17989D01*
X1245617Y17995D01*
X1244531Y18351D01*
X1244524Y18348D01*
X1244521Y18353D01*
X1243383Y18459D01*
X1243375Y18453D01*
X1243370Y18458D01*
X1242233Y18251D01*
X1242227Y18245D01*
X1242222Y18248D01*
X1241159Y17793D01*
X1241155Y17786D01*
X1241150Y17788D01*
X1240215Y17108D01*
X1240213Y17100D01*
X1240207Y17100D01*
X1239447Y16229D01*
X1239446Y16221D01*
X1239441Y16220D01*
X1238893Y15202D01*
X1238895Y15194D01*
X1238889Y15192D01*
X1238886Y15179D01*
X1238872Y15129D01*
X1238859Y15080D01*
X1238845Y15031D01*
X1238831Y14982D01*
X1238818Y14932D01*
X1238804Y14883D01*
X1238791Y14834D01*
X1238777Y14785D01*
X1238764Y14735D01*
X1238750Y14686D01*
X1238736Y14637D01*
X1238723Y14588D01*
X1238709Y14538D01*
X1238696Y14489D01*
X1238682Y14440D01*
X1238669Y14391D01*
X1238655Y14341D01*
X1238642Y14292D01*
X1238628Y14243D01*
X1238582Y14077D01*
X1238585Y14070D01*
X1238581Y14067D01*
X1238529Y12912D01*
X1238530Y12910D01*
X1238529Y12910D01*
X1238529Y6910D01*
X1238534Y6904D01*
X1238530Y6900D01*
X1238742Y5820D01*
X1238748Y5814D01*
X1238745Y5809D01*
X1239192Y4803D01*
X1239200Y4799D01*
X1239198Y4794D01*
X1239858Y3912D01*
X1239865Y3910D01*
X1239865Y3904D01*
X1240704Y3192D01*
X1240713Y3191D01*
X1240714Y3186D01*
X1241690Y2678D01*
X1241698Y2679D01*
X1241701Y2674D01*
X1242766Y2396D01*
X1242773Y2399D01*
X1242777Y2394D01*
X1243877Y2360D01*
X1243882Y2364D01*
G37*
G36*
X1129582Y2364D02*
X1129582Y2364D01*
X1129586Y2361D01*
X1130661Y2516D01*
X1130667Y2522D01*
X1130672Y2519D01*
X1131686Y2909D01*
X1131690Y2916D01*
X1131696Y2914D01*
X1132597Y3520D01*
X1132600Y3528D01*
X1132606Y3528D01*
X1133350Y4319D01*
X1133351Y4327D01*
X1133357Y4328D01*
X1133906Y5266D01*
X1133905Y5274D01*
X1133910Y5276D01*
X1134237Y6312D01*
X1134235Y6320D01*
X1134239Y6323D01*
X1134328Y7406D01*
X1134326Y7408D01*
X1134328Y7410D01*
X1134328Y13410D01*
X1134325Y13414D01*
X1134327Y13416D01*
X1134177Y14548D01*
X1134172Y14554D01*
X1134175Y14559D01*
X1133776Y15630D01*
X1133769Y15634D01*
X1133771Y15640D01*
X1133145Y16595D01*
X1133137Y16597D01*
X1133138Y16603D01*
X1132314Y17395D01*
X1132306Y17396D01*
X1132306Y17402D01*
X1131327Y17990D01*
X1131319Y17989D01*
X1131317Y17995D01*
X1130231Y18351D01*
X1130224Y18348D01*
X1130221Y18353D01*
X1129083Y18459D01*
X1129075Y18453D01*
X1129070Y18458D01*
X1127933Y18251D01*
X1127927Y18245D01*
X1127922Y18248D01*
X1126859Y17793D01*
X1126855Y17786D01*
X1126850Y17788D01*
X1125915Y17108D01*
X1125913Y17100D01*
X1125907Y17100D01*
X1125147Y16229D01*
X1125146Y16221D01*
X1125141Y16220D01*
X1124593Y15202D01*
X1124595Y15194D01*
X1124589Y15192D01*
X1124586Y15179D01*
X1124572Y15129D01*
X1124559Y15080D01*
X1124545Y15031D01*
X1124531Y14982D01*
X1124518Y14932D01*
X1124504Y14883D01*
X1124491Y14834D01*
X1124477Y14785D01*
X1124464Y14735D01*
X1124450Y14686D01*
X1124436Y14637D01*
X1124423Y14588D01*
X1124409Y14538D01*
X1124396Y14489D01*
X1124382Y14440D01*
X1124369Y14391D01*
X1124355Y14341D01*
X1124342Y14292D01*
X1124328Y14243D01*
X1124282Y14077D01*
X1124285Y14070D01*
X1124281Y14067D01*
X1124229Y12912D01*
X1124230Y12910D01*
X1124229Y12910D01*
X1124229Y6910D01*
X1124234Y6904D01*
X1124230Y6900D01*
X1124442Y5820D01*
X1124448Y5814D01*
X1124445Y5809D01*
X1124892Y4803D01*
X1124900Y4799D01*
X1124898Y4794D01*
X1125558Y3912D01*
X1125565Y3910D01*
X1125565Y3904D01*
X1126404Y3192D01*
X1126413Y3191D01*
X1126414Y3186D01*
X1127390Y2678D01*
X1127398Y2679D01*
X1127401Y2674D01*
X1128466Y2396D01*
X1128473Y2399D01*
X1128477Y2394D01*
X1129577Y2360D01*
X1129582Y2364D01*
G37*
G36*
X502888Y2364D02*
X502888Y2364D01*
X502891Y2361D01*
X503967Y2516D01*
X503973Y2522D01*
X503978Y2519D01*
X504992Y2909D01*
X504996Y2916D01*
X505001Y2914D01*
X505903Y3520D01*
X505906Y3528D01*
X505911Y3528D01*
X506656Y4319D01*
X506657Y4327D01*
X506662Y4328D01*
X507212Y5266D01*
X507211Y5274D01*
X507216Y5276D01*
X507543Y6312D01*
X507540Y6320D01*
X507545Y6323D01*
X507634Y7406D01*
X507632Y7408D01*
X507634Y7410D01*
X507634Y13410D01*
X507631Y13414D01*
X507633Y13416D01*
X507483Y14548D01*
X507477Y14554D01*
X507480Y14559D01*
X507082Y15630D01*
X507075Y15634D01*
X507077Y15640D01*
X506451Y16595D01*
X506443Y16597D01*
X506444Y16603D01*
X505620Y17395D01*
X505612Y17396D01*
X505611Y17402D01*
X504633Y17990D01*
X504624Y17989D01*
X504622Y17995D01*
X503537Y18351D01*
X503529Y18348D01*
X503526Y18353D01*
X502389Y18459D01*
X502381Y18453D01*
X502376Y18458D01*
X501238Y18251D01*
X501233Y18245D01*
X501228Y18248D01*
X500165Y17793D01*
X500161Y17786D01*
X500156Y17788D01*
X499221Y17108D01*
X499218Y17100D01*
X499213Y17100D01*
X498453Y16229D01*
X498452Y16221D01*
X498446Y16220D01*
X497899Y15202D01*
X497900Y15194D01*
X497895Y15192D01*
X497891Y15179D01*
X497878Y15129D01*
X497864Y15080D01*
X497851Y15031D01*
X497837Y14982D01*
X497824Y14932D01*
X497810Y14883D01*
X497797Y14834D01*
X497783Y14785D01*
X497769Y14735D01*
X497756Y14686D01*
X497742Y14637D01*
X497729Y14588D01*
X497715Y14538D01*
X497702Y14489D01*
X497688Y14440D01*
X497674Y14391D01*
X497661Y14341D01*
X497647Y14292D01*
X497634Y14243D01*
X497588Y14077D01*
X497591Y14070D01*
X497586Y14067D01*
X497535Y12912D01*
X497536Y12910D01*
X497535Y12910D01*
X497535Y6910D01*
X497539Y6904D01*
X497536Y6900D01*
X497748Y5820D01*
X497754Y5814D01*
X497751Y5809D01*
X498198Y4803D01*
X498205Y4799D01*
X498204Y4794D01*
X498863Y3912D01*
X498871Y3910D01*
X498871Y3904D01*
X499710Y3192D01*
X499718Y3191D01*
X499719Y3186D01*
X500696Y2678D01*
X500704Y2679D01*
X500706Y2674D01*
X501772Y2396D01*
X501779Y2399D01*
X501783Y2394D01*
X502883Y2360D01*
X502888Y2364D01*
G37*
G36*
X388588Y2364D02*
X388588Y2364D01*
X388591Y2361D01*
X389667Y2516D01*
X389673Y2522D01*
X389678Y2519D01*
X390692Y2909D01*
X390696Y2916D01*
X390701Y2914D01*
X391603Y3520D01*
X391606Y3528D01*
X391611Y3528D01*
X392356Y4319D01*
X392357Y4327D01*
X392362Y4328D01*
X392912Y5266D01*
X392911Y5274D01*
X392916Y5276D01*
X393243Y6312D01*
X393240Y6320D01*
X393245Y6323D01*
X393334Y7406D01*
X393332Y7408D01*
X393334Y7410D01*
X393334Y13410D01*
X393331Y13414D01*
X393333Y13416D01*
X393183Y14548D01*
X393177Y14554D01*
X393180Y14559D01*
X392782Y15630D01*
X392775Y15634D01*
X392777Y15640D01*
X392151Y16595D01*
X392143Y16597D01*
X392144Y16603D01*
X391320Y17395D01*
X391312Y17396D01*
X391311Y17402D01*
X390333Y17990D01*
X390324Y17989D01*
X390322Y17995D01*
X389237Y18351D01*
X389229Y18348D01*
X389226Y18353D01*
X388089Y18459D01*
X388081Y18453D01*
X388076Y18458D01*
X386938Y18251D01*
X386933Y18245D01*
X386928Y18248D01*
X385865Y17793D01*
X385861Y17786D01*
X385856Y17788D01*
X384921Y17108D01*
X384918Y17100D01*
X384913Y17100D01*
X384153Y16229D01*
X384152Y16221D01*
X384146Y16220D01*
X383599Y15202D01*
X383600Y15194D01*
X383595Y15192D01*
X383591Y15179D01*
X383578Y15129D01*
X383564Y15080D01*
X383551Y15031D01*
X383537Y14982D01*
X383524Y14932D01*
X383510Y14883D01*
X383497Y14834D01*
X383483Y14785D01*
X383469Y14735D01*
X383456Y14686D01*
X383442Y14637D01*
X383429Y14588D01*
X383415Y14538D01*
X383402Y14489D01*
X383388Y14440D01*
X383374Y14391D01*
X383361Y14341D01*
X383347Y14292D01*
X383334Y14243D01*
X383288Y14077D01*
X383291Y14070D01*
X383286Y14067D01*
X383235Y12912D01*
X383236Y12910D01*
X383235Y12910D01*
X383235Y6910D01*
X383239Y6904D01*
X383236Y6900D01*
X383448Y5820D01*
X383454Y5814D01*
X383451Y5809D01*
X383898Y4803D01*
X383905Y4799D01*
X383904Y4794D01*
X384563Y3912D01*
X384571Y3910D01*
X384571Y3904D01*
X385410Y3192D01*
X385418Y3191D01*
X385419Y3186D01*
X386396Y2678D01*
X386404Y2679D01*
X386406Y2674D01*
X387472Y2396D01*
X387479Y2399D01*
X387483Y2394D01*
X388583Y2360D01*
X388588Y2364D01*
G37*
G36*
X1043081Y1174880D02*
X1043081Y1174880D01*
X1043085Y1174876D01*
X1044173Y1175021D01*
X1044179Y1175026D01*
X1044184Y1175023D01*
X1045212Y1175407D01*
X1045216Y1175414D01*
X1045222Y1175412D01*
X1046139Y1176015D01*
X1046142Y1176022D01*
X1046147Y1176022D01*
X1046907Y1176813D01*
X1046908Y1176822D01*
X1046914Y1176822D01*
X1047479Y1177763D01*
X1047479Y1177767D01*
X1047480Y1177768D01*
X1047478Y1177769D01*
X1047478Y1177771D01*
X1047484Y1177773D01*
X1047825Y1178816D01*
X1047822Y1178824D01*
X1047827Y1178827D01*
X1047928Y1179920D01*
X1047926Y1179923D01*
X1047928Y1179924D01*
X1047928Y1185924D01*
X1047926Y1185927D01*
X1047928Y1185929D01*
X1047827Y1187022D01*
X1047822Y1187028D01*
X1047825Y1187033D01*
X1047484Y1188076D01*
X1047477Y1188080D01*
X1047479Y1188086D01*
X1046914Y1189027D01*
X1046907Y1189030D01*
X1046907Y1189035D01*
X1046147Y1189827D01*
X1046139Y1189828D01*
X1046139Y1189834D01*
X1045222Y1190437D01*
X1045214Y1190436D01*
X1045212Y1190442D01*
X1044184Y1190825D01*
X1044176Y1190823D01*
X1044173Y1190828D01*
X1043085Y1190973D01*
X1043078Y1190969D01*
X1043074Y1190973D01*
X1041937Y1190868D01*
X1041931Y1190862D01*
X1041926Y1190866D01*
X1040841Y1190510D01*
X1040836Y1190503D01*
X1040831Y1190505D01*
X1039852Y1189916D01*
X1039849Y1189909D01*
X1039843Y1189910D01*
X1039019Y1189118D01*
X1039018Y1189110D01*
X1039012Y1189109D01*
X1038386Y1188154D01*
X1038386Y1188146D01*
X1038381Y1188145D01*
X1037983Y1187074D01*
X1037985Y1187066D01*
X1037980Y1187063D01*
X1037830Y1185931D01*
X1037832Y1185927D01*
X1037829Y1185924D01*
X1037829Y1179924D01*
X1037832Y1179920D01*
X1037830Y1179918D01*
X1037980Y1178786D01*
X1037986Y1178780D01*
X1037983Y1178775D01*
X1038381Y1177704D01*
X1038388Y1177700D01*
X1038386Y1177695D01*
X1039012Y1176739D01*
X1039020Y1176737D01*
X1039019Y1176731D01*
X1039843Y1175939D01*
X1039851Y1175938D01*
X1039852Y1175933D01*
X1040831Y1175344D01*
X1040839Y1175345D01*
X1040841Y1175339D01*
X1041926Y1174983D01*
X1041934Y1174986D01*
X1041937Y1174981D01*
X1043074Y1174875D01*
X1043081Y1174880D01*
G37*
G36*
X416387Y1174880D02*
X416387Y1174880D01*
X416391Y1174876D01*
X417479Y1175021D01*
X417485Y1175026D01*
X417489Y1175023D01*
X418518Y1175407D01*
X418522Y1175414D01*
X418528Y1175412D01*
X419445Y1176015D01*
X419448Y1176022D01*
X419453Y1176022D01*
X420213Y1176813D01*
X420214Y1176822D01*
X420220Y1176822D01*
X420785Y1177763D01*
X420784Y1177767D01*
X420785Y1177768D01*
X420784Y1177769D01*
X420784Y1177771D01*
X420789Y1177773D01*
X421131Y1178816D01*
X421128Y1178824D01*
X421133Y1178827D01*
X421233Y1179920D01*
X421232Y1179923D01*
X421234Y1179924D01*
X421234Y1185924D01*
X421232Y1185927D01*
X421233Y1185929D01*
X421133Y1187022D01*
X421127Y1187028D01*
X421131Y1187033D01*
X420789Y1188076D01*
X420783Y1188080D01*
X420785Y1188086D01*
X420220Y1189027D01*
X420212Y1189030D01*
X420213Y1189035D01*
X419453Y1189827D01*
X419445Y1189828D01*
X419445Y1189834D01*
X418528Y1190437D01*
X418519Y1190436D01*
X418518Y1190442D01*
X417489Y1190825D01*
X417482Y1190823D01*
X417479Y1190828D01*
X416391Y1190973D01*
X416384Y1190969D01*
X416380Y1190973D01*
X415242Y1190868D01*
X415236Y1190862D01*
X415232Y1190866D01*
X414146Y1190510D01*
X414142Y1190503D01*
X414136Y1190505D01*
X413157Y1189916D01*
X413154Y1189909D01*
X413149Y1189910D01*
X412325Y1189118D01*
X412324Y1189110D01*
X412318Y1189109D01*
X411692Y1188154D01*
X411692Y1188146D01*
X411687Y1188145D01*
X411288Y1187074D01*
X411291Y1187066D01*
X411286Y1187063D01*
X411136Y1185931D01*
X411138Y1185927D01*
X411135Y1185924D01*
X411135Y1179924D01*
X411138Y1179920D01*
X411136Y1179918D01*
X411286Y1178786D01*
X411291Y1178780D01*
X411288Y1178775D01*
X411687Y1177704D01*
X411694Y1177700D01*
X411692Y1177695D01*
X412318Y1176739D01*
X412326Y1176737D01*
X412325Y1176731D01*
X413149Y1175939D01*
X413157Y1175938D01*
X413157Y1175933D01*
X414136Y1175344D01*
X414144Y1175345D01*
X414146Y1175339D01*
X415232Y1174983D01*
X415239Y1174986D01*
X415242Y1174981D01*
X416380Y1174875D01*
X416387Y1174880D01*
G37*
G36*
X1157381Y1174880D02*
X1157381Y1174880D01*
X1157385Y1174876D01*
X1158473Y1175021D01*
X1158479Y1175026D01*
X1158484Y1175023D01*
X1159512Y1175407D01*
X1159516Y1175414D01*
X1159522Y1175412D01*
X1160439Y1176015D01*
X1160442Y1176022D01*
X1160447Y1176022D01*
X1161207Y1176813D01*
X1161208Y1176822D01*
X1161214Y1176822D01*
X1161779Y1177763D01*
X1161779Y1177767D01*
X1161780Y1177768D01*
X1161778Y1177769D01*
X1161778Y1177771D01*
X1161784Y1177773D01*
X1162125Y1178816D01*
X1162122Y1178824D01*
X1162127Y1178827D01*
X1162228Y1179920D01*
X1162226Y1179923D01*
X1162228Y1179924D01*
X1162228Y1185924D01*
X1162226Y1185927D01*
X1162228Y1185929D01*
X1162127Y1187022D01*
X1162122Y1187028D01*
X1162125Y1187033D01*
X1161784Y1188076D01*
X1161777Y1188080D01*
X1161779Y1188086D01*
X1161214Y1189027D01*
X1161207Y1189030D01*
X1161207Y1189035D01*
X1160447Y1189827D01*
X1160439Y1189828D01*
X1160439Y1189834D01*
X1159522Y1190437D01*
X1159514Y1190436D01*
X1159512Y1190442D01*
X1158484Y1190825D01*
X1158476Y1190823D01*
X1158473Y1190828D01*
X1157385Y1190973D01*
X1157378Y1190969D01*
X1157374Y1190973D01*
X1156237Y1190868D01*
X1156231Y1190862D01*
X1156226Y1190866D01*
X1155141Y1190510D01*
X1155136Y1190503D01*
X1155131Y1190505D01*
X1154152Y1189916D01*
X1154149Y1189909D01*
X1154143Y1189910D01*
X1153319Y1189118D01*
X1153318Y1189110D01*
X1153312Y1189109D01*
X1152686Y1188154D01*
X1152686Y1188146D01*
X1152681Y1188145D01*
X1152283Y1187074D01*
X1152285Y1187066D01*
X1152280Y1187063D01*
X1152130Y1185931D01*
X1152132Y1185927D01*
X1152129Y1185924D01*
X1152129Y1179924D01*
X1152132Y1179920D01*
X1152130Y1179918D01*
X1152280Y1178786D01*
X1152286Y1178780D01*
X1152283Y1178775D01*
X1152681Y1177704D01*
X1152688Y1177700D01*
X1152686Y1177695D01*
X1153312Y1176739D01*
X1153320Y1176737D01*
X1153319Y1176731D01*
X1154143Y1175939D01*
X1154151Y1175938D01*
X1154152Y1175933D01*
X1155131Y1175344D01*
X1155139Y1175345D01*
X1155141Y1175339D01*
X1156226Y1174983D01*
X1156234Y1174986D01*
X1156237Y1174981D01*
X1157374Y1174875D01*
X1157381Y1174880D01*
G37*
G36*
X302087Y1174880D02*
X302087Y1174880D01*
X302091Y1174876D01*
X303179Y1175021D01*
X303185Y1175026D01*
X303189Y1175023D01*
X304218Y1175407D01*
X304222Y1175414D01*
X304228Y1175412D01*
X305145Y1176015D01*
X305148Y1176022D01*
X305153Y1176022D01*
X305913Y1176813D01*
X305914Y1176822D01*
X305920Y1176822D01*
X306485Y1177763D01*
X306484Y1177767D01*
X306485Y1177768D01*
X306484Y1177769D01*
X306484Y1177771D01*
X306489Y1177773D01*
X306831Y1178816D01*
X306828Y1178824D01*
X306833Y1178827D01*
X306933Y1179920D01*
X306932Y1179923D01*
X306934Y1179924D01*
X306934Y1185924D01*
X306932Y1185927D01*
X306933Y1185929D01*
X306833Y1187022D01*
X306827Y1187028D01*
X306831Y1187033D01*
X306489Y1188076D01*
X306483Y1188080D01*
X306485Y1188086D01*
X305920Y1189027D01*
X305912Y1189030D01*
X305913Y1189035D01*
X305153Y1189827D01*
X305145Y1189828D01*
X305145Y1189834D01*
X304228Y1190437D01*
X304219Y1190436D01*
X304218Y1190442D01*
X303189Y1190825D01*
X303182Y1190823D01*
X303179Y1190828D01*
X302091Y1190973D01*
X302084Y1190969D01*
X302080Y1190973D01*
X300942Y1190868D01*
X300936Y1190862D01*
X300932Y1190866D01*
X299846Y1190510D01*
X299842Y1190503D01*
X299836Y1190505D01*
X298857Y1189916D01*
X298854Y1189909D01*
X298849Y1189910D01*
X298025Y1189118D01*
X298024Y1189110D01*
X298018Y1189109D01*
X297392Y1188154D01*
X297392Y1188146D01*
X297387Y1188145D01*
X296988Y1187074D01*
X296991Y1187066D01*
X296986Y1187063D01*
X296836Y1185931D01*
X296838Y1185927D01*
X296835Y1185924D01*
X296835Y1179924D01*
X296838Y1179920D01*
X296836Y1179918D01*
X296986Y1178786D01*
X296991Y1178780D01*
X296988Y1178775D01*
X297387Y1177704D01*
X297394Y1177700D01*
X297392Y1177695D01*
X298018Y1176739D01*
X298026Y1176737D01*
X298025Y1176731D01*
X298849Y1175939D01*
X298857Y1175938D01*
X298857Y1175933D01*
X299836Y1175344D01*
X299844Y1175345D01*
X299846Y1175339D01*
X300932Y1174983D01*
X300939Y1174986D01*
X300942Y1174981D01*
X302080Y1174875D01*
X302087Y1174880D01*
G37*
G36*
X1157381Y2365D02*
X1157381Y2365D01*
X1157385Y2361D01*
X1158473Y2506D01*
X1158479Y2512D01*
X1158484Y2509D01*
X1159512Y2892D01*
X1159516Y2899D01*
X1159522Y2897D01*
X1160439Y3500D01*
X1160442Y3508D01*
X1160447Y3507D01*
X1161207Y4299D01*
X1161208Y4307D01*
X1161214Y4307D01*
X1161779Y5248D01*
X1161779Y5252D01*
X1161780Y5253D01*
X1161778Y5255D01*
X1161778Y5256D01*
X1161784Y5258D01*
X1162125Y6301D01*
X1162122Y6309D01*
X1162127Y6312D01*
X1162228Y7405D01*
X1162226Y7408D01*
X1162228Y7410D01*
X1162228Y13410D01*
X1162226Y13412D01*
X1162228Y13414D01*
X1162127Y14507D01*
X1162122Y14513D01*
X1162125Y14518D01*
X1161784Y15561D01*
X1161777Y15566D01*
X1161779Y15571D01*
X1161214Y16512D01*
X1161207Y16515D01*
X1161207Y16521D01*
X1160447Y17312D01*
X1160439Y17314D01*
X1160439Y17319D01*
X1159522Y17922D01*
X1159514Y17922D01*
X1159512Y17927D01*
X1158484Y18311D01*
X1158476Y18308D01*
X1158473Y18313D01*
X1157385Y18458D01*
X1157378Y18454D01*
X1157374Y18459D01*
X1156237Y18353D01*
X1156231Y18347D01*
X1156226Y18351D01*
X1155141Y17995D01*
X1155136Y17988D01*
X1155131Y17990D01*
X1154152Y17402D01*
X1154149Y17394D01*
X1154143Y17395D01*
X1153319Y16603D01*
X1153318Y16595D01*
X1153312Y16595D01*
X1152686Y15640D01*
X1152686Y15631D01*
X1152681Y15630D01*
X1152283Y14559D01*
X1152285Y14551D01*
X1152280Y14548D01*
X1152130Y13416D01*
X1152132Y13412D01*
X1152129Y13410D01*
X1152129Y7410D01*
X1152132Y7406D01*
X1152130Y7403D01*
X1152280Y6271D01*
X1152286Y6265D01*
X1152283Y6260D01*
X1152681Y5190D01*
X1152688Y5185D01*
X1152686Y5180D01*
X1153312Y4225D01*
X1153320Y4222D01*
X1153319Y4216D01*
X1154143Y3424D01*
X1154151Y3423D01*
X1154152Y3418D01*
X1155131Y2829D01*
X1155139Y2830D01*
X1155141Y2824D01*
X1156226Y2468D01*
X1156234Y2471D01*
X1156237Y2466D01*
X1157374Y2361D01*
X1157381Y2365D01*
G37*
G36*
X416387Y2365D02*
X416387Y2365D01*
X416391Y2361D01*
X417479Y2506D01*
X417485Y2512D01*
X417489Y2509D01*
X418518Y2892D01*
X418522Y2899D01*
X418528Y2897D01*
X419445Y3500D01*
X419448Y3508D01*
X419453Y3507D01*
X420213Y4299D01*
X420214Y4307D01*
X420220Y4307D01*
X420785Y5248D01*
X420784Y5252D01*
X420785Y5253D01*
X420784Y5255D01*
X420784Y5256D01*
X420789Y5258D01*
X421131Y6301D01*
X421128Y6309D01*
X421133Y6312D01*
X421233Y7405D01*
X421232Y7408D01*
X421234Y7410D01*
X421234Y13410D01*
X421232Y13412D01*
X421233Y13414D01*
X421133Y14507D01*
X421127Y14513D01*
X421131Y14518D01*
X420789Y15561D01*
X420783Y15566D01*
X420785Y15571D01*
X420220Y16512D01*
X420212Y16515D01*
X420213Y16521D01*
X419453Y17312D01*
X419445Y17314D01*
X419445Y17319D01*
X418528Y17922D01*
X418519Y17922D01*
X418518Y17927D01*
X417489Y18311D01*
X417482Y18308D01*
X417479Y18313D01*
X416391Y18458D01*
X416384Y18454D01*
X416380Y18459D01*
X415242Y18353D01*
X415236Y18347D01*
X415232Y18351D01*
X414146Y17995D01*
X414142Y17988D01*
X414136Y17990D01*
X413157Y17402D01*
X413154Y17394D01*
X413149Y17395D01*
X412325Y16603D01*
X412324Y16595D01*
X412318Y16595D01*
X411692Y15640D01*
X411692Y15631D01*
X411687Y15630D01*
X411288Y14559D01*
X411291Y14551D01*
X411286Y14548D01*
X411136Y13416D01*
X411138Y13412D01*
X411135Y13410D01*
X411135Y7410D01*
X411138Y7406D01*
X411136Y7403D01*
X411286Y6271D01*
X411291Y6265D01*
X411288Y6260D01*
X411687Y5190D01*
X411694Y5185D01*
X411692Y5180D01*
X412318Y4225D01*
X412326Y4222D01*
X412325Y4216D01*
X413149Y3424D01*
X413157Y3423D01*
X413157Y3418D01*
X414136Y2829D01*
X414144Y2830D01*
X414146Y2824D01*
X415232Y2468D01*
X415239Y2471D01*
X415242Y2466D01*
X416380Y2361D01*
X416387Y2365D01*
G37*
G36*
X302087Y2365D02*
X302087Y2365D01*
X302091Y2361D01*
X303179Y2506D01*
X303185Y2512D01*
X303189Y2509D01*
X304218Y2892D01*
X304222Y2899D01*
X304228Y2897D01*
X305145Y3500D01*
X305148Y3508D01*
X305153Y3507D01*
X305913Y4299D01*
X305914Y4307D01*
X305920Y4307D01*
X306485Y5248D01*
X306484Y5252D01*
X306485Y5253D01*
X306484Y5255D01*
X306484Y5256D01*
X306489Y5258D01*
X306831Y6301D01*
X306828Y6309D01*
X306833Y6312D01*
X306933Y7405D01*
X306932Y7408D01*
X306934Y7410D01*
X306934Y13410D01*
X306932Y13412D01*
X306933Y13414D01*
X306833Y14507D01*
X306827Y14513D01*
X306831Y14518D01*
X306489Y15561D01*
X306483Y15566D01*
X306485Y15571D01*
X305920Y16512D01*
X305912Y16515D01*
X305913Y16521D01*
X305153Y17312D01*
X305145Y17314D01*
X305145Y17319D01*
X304228Y17922D01*
X304219Y17922D01*
X304218Y17927D01*
X303189Y18311D01*
X303182Y18308D01*
X303179Y18313D01*
X302091Y18458D01*
X302084Y18454D01*
X302080Y18459D01*
X300942Y18353D01*
X300936Y18347D01*
X300932Y18351D01*
X299846Y17995D01*
X299842Y17988D01*
X299836Y17990D01*
X298857Y17402D01*
X298854Y17394D01*
X298849Y17395D01*
X298025Y16603D01*
X298024Y16595D01*
X298018Y16595D01*
X297392Y15640D01*
X297392Y15631D01*
X297387Y15630D01*
X296988Y14559D01*
X296991Y14551D01*
X296986Y14548D01*
X296836Y13416D01*
X296838Y13412D01*
X296835Y13410D01*
X296835Y7410D01*
X296838Y7406D01*
X296836Y7403D01*
X296986Y6271D01*
X296991Y6265D01*
X296988Y6260D01*
X297387Y5190D01*
X297394Y5185D01*
X297392Y5180D01*
X298018Y4225D01*
X298026Y4222D01*
X298025Y4216D01*
X298849Y3424D01*
X298857Y3423D01*
X298857Y3418D01*
X299836Y2829D01*
X299844Y2830D01*
X299846Y2824D01*
X300932Y2468D01*
X300939Y2471D01*
X300942Y2466D01*
X302080Y2361D01*
X302087Y2365D01*
G37*
G36*
X1043081Y2365D02*
X1043081Y2365D01*
X1043085Y2361D01*
X1044173Y2506D01*
X1044179Y2512D01*
X1044184Y2509D01*
X1045212Y2892D01*
X1045216Y2899D01*
X1045222Y2897D01*
X1046139Y3500D01*
X1046142Y3508D01*
X1046147Y3507D01*
X1046907Y4299D01*
X1046908Y4307D01*
X1046914Y4307D01*
X1047479Y5248D01*
X1047479Y5252D01*
X1047480Y5253D01*
X1047478Y5255D01*
X1047478Y5256D01*
X1047484Y5258D01*
X1047825Y6301D01*
X1047822Y6309D01*
X1047827Y6312D01*
X1047928Y7405D01*
X1047926Y7408D01*
X1047928Y7410D01*
X1047928Y13410D01*
X1047926Y13412D01*
X1047928Y13414D01*
X1047827Y14507D01*
X1047822Y14513D01*
X1047825Y14518D01*
X1047484Y15561D01*
X1047477Y15566D01*
X1047479Y15571D01*
X1046914Y16512D01*
X1046907Y16515D01*
X1046907Y16521D01*
X1046147Y17312D01*
X1046139Y17314D01*
X1046139Y17319D01*
X1045222Y17922D01*
X1045214Y17922D01*
X1045212Y17927D01*
X1044184Y18311D01*
X1044176Y18308D01*
X1044173Y18313D01*
X1043085Y18458D01*
X1043078Y18454D01*
X1043074Y18459D01*
X1041937Y18353D01*
X1041931Y18347D01*
X1041926Y18351D01*
X1040841Y17995D01*
X1040836Y17988D01*
X1040831Y17990D01*
X1039852Y17402D01*
X1039849Y17394D01*
X1039843Y17395D01*
X1039019Y16603D01*
X1039018Y16595D01*
X1039012Y16595D01*
X1038386Y15640D01*
X1038386Y15631D01*
X1038381Y15630D01*
X1037983Y14559D01*
X1037985Y14551D01*
X1037980Y14548D01*
X1037830Y13416D01*
X1037832Y13412D01*
X1037829Y13410D01*
X1037829Y7410D01*
X1037832Y7406D01*
X1037830Y7403D01*
X1037980Y6271D01*
X1037986Y6265D01*
X1037983Y6260D01*
X1038381Y5190D01*
X1038388Y5185D01*
X1038386Y5180D01*
X1039012Y4225D01*
X1039020Y4222D01*
X1039019Y4216D01*
X1039843Y3424D01*
X1039851Y3423D01*
X1039852Y3418D01*
X1040831Y2829D01*
X1040839Y2830D01*
X1040841Y2824D01*
X1041926Y2468D01*
X1041934Y2471D01*
X1041937Y2466D01*
X1043074Y2361D01*
X1043081Y2365D01*
G37*
D10*
X406234Y535590D02*
X406234Y542590D01*
X413234Y542590D01*
X413234Y535590D01*
X406234Y535590D01*
X406234Y538440D02*
X413234Y538440D01*
X413234Y541290D02*
X406234Y541290D01*
X388694Y542590D02*
X388694Y535590D01*
X388694Y542590D02*
X395694Y542590D01*
X395694Y535590D01*
X388694Y535590D01*
X388694Y538440D02*
X395694Y538440D01*
X395694Y541290D02*
X388694Y541290D01*
D11*
X392464Y551790D03*
X409464Y551790D03*
D12*
X370484Y371840D03*
X370484Y388840D03*
X345084Y388840D03*
X345084Y371840D03*
D13*
X446985Y370840D03*
X446985Y380340D03*
X446985Y389840D03*
X420983Y389840D03*
X420983Y370840D03*
D11*
X442484Y405740D03*
X425484Y405740D03*
D12*
X268884Y388840D03*
X268884Y371840D03*
X294284Y388840D03*
X294284Y371840D03*
D10*
X406234Y459390D02*
X406234Y466390D01*
X413234Y466390D01*
X413234Y459390D01*
X406234Y459390D01*
X406234Y462240D02*
X413234Y462240D01*
X413234Y465090D02*
X406234Y465090D01*
X388694Y466390D02*
X388694Y459390D01*
X388694Y466390D02*
X395694Y466390D01*
X395694Y459390D01*
X388694Y459390D01*
X388694Y462240D02*
X395694Y462240D01*
X395694Y465090D02*
X388694Y465090D01*
D11*
X392464Y475590D03*
X409464Y475590D03*
D14*
X306984Y167700D03*
X306984Y156100D03*
D11*
X325154Y168250D03*
X342154Y168250D03*
D12*
X319684Y388840D03*
X319684Y371840D03*
D15*
X285474Y168250D03*
X295474Y168250D03*
D16*
X273584Y191540D03*
X284584Y191540D03*
X295584Y191540D03*
X306584Y191540D03*
X317584Y191540D03*
X328584Y191540D03*
X339584Y191540D03*
X350584Y191540D03*
X361584Y191540D03*
X372584Y191540D03*
X383584Y191540D03*
X394584Y191540D03*
X405584Y191540D03*
X416584Y191540D03*
D17*
X444584Y200040D03*
X444584Y211040D03*
X444584Y222040D03*
X444584Y233040D03*
X444584Y244040D03*
X444584Y255040D03*
X444584Y266040D03*
X444584Y277040D03*
X444584Y288040D03*
X444584Y299040D03*
X444584Y310040D03*
X444584Y321040D03*
X444584Y332040D03*
D16*
X416584Y340540D03*
X405584Y340540D03*
X394584Y340540D03*
X383584Y340540D03*
X372584Y340540D03*
X361584Y340540D03*
X350584Y340540D03*
X339584Y340540D03*
X328584Y340540D03*
X317584Y340540D03*
X306584Y340540D03*
X295584Y340540D03*
X284584Y340540D03*
X273584Y340540D03*
D17*
X245584Y332040D03*
X245584Y321040D03*
X245584Y310040D03*
X245584Y299040D03*
X245584Y288040D03*
X245584Y277040D03*
X245584Y266040D03*
X245584Y255040D03*
X245584Y244040D03*
X245584Y233040D03*
X245584Y222040D03*
X245584Y211040D03*
X245584Y200040D03*
D18*
X334584Y276540D03*
X313584Y276540D03*
X292584Y276540D03*
X271584Y276540D03*
X334584Y297040D03*
X313584Y297040D03*
X292584Y297040D03*
X271584Y297040D03*
X334584Y317540D03*
X313584Y317540D03*
X292584Y317540D03*
X271584Y317540D03*
X334584Y214540D03*
X313584Y214540D03*
X292584Y214540D03*
X271584Y214540D03*
X334584Y235040D03*
X313584Y235040D03*
X292584Y235040D03*
X271584Y235040D03*
X334584Y255540D03*
X313584Y255540D03*
X292584Y255540D03*
X271584Y255540D03*
X418584Y276540D03*
X397584Y276540D03*
X376584Y276540D03*
X355584Y276540D03*
X418584Y297040D03*
X397584Y297040D03*
X376584Y297040D03*
X355584Y297040D03*
X418584Y317540D03*
X397584Y317540D03*
X376584Y317540D03*
X355584Y317540D03*
X418584Y214540D03*
X397584Y214540D03*
X376584Y214540D03*
X355584Y214540D03*
X418584Y235040D03*
X397584Y235040D03*
X376584Y235040D03*
X355584Y235040D03*
X418584Y255540D03*
X397584Y255540D03*
X376584Y255540D03*
X355584Y255540D03*
D11*
X391684Y98240D03*
X374684Y98240D03*
X298484Y98240D03*
X315484Y98240D03*
D19*
X352584Y58010D03*
X347584Y58010D03*
D20*
X377334Y58010D03*
X369584Y58010D03*
D19*
X362584Y58010D03*
X357584Y58010D03*
X337584Y58010D03*
X342584Y58010D03*
D20*
X312834Y58010D03*
X320584Y58010D03*
D19*
X327584Y58010D03*
X332584Y58010D03*
D12*
X395884Y371840D03*
X395884Y388840D03*
D11*
X349284Y405740D03*
X366284Y405740D03*
D21*
X327384Y134990D03*
D22*
X332384Y134740D03*
X337384Y134740D03*
X337384Y143340D03*
X332384Y143340D03*
X327384Y143340D03*
D23*
X230784Y82350D03*
D24*
X273834Y35450D03*
X187734Y35450D03*
D25*
X224284Y292140D03*
D26*
X224284Y300140D03*
X224284Y308140D03*
D25*
X224284Y316140D03*
X211284Y316140D03*
D26*
X211284Y308140D03*
X211284Y300140D03*
D25*
X211284Y292140D03*
X224284Y228640D03*
D26*
X224284Y236640D03*
X224284Y244640D03*
D25*
X224284Y252640D03*
X211284Y252640D03*
D26*
X211284Y244640D03*
X211284Y236640D03*
D25*
X211284Y228640D03*
D12*
X218084Y333740D03*
X218084Y350740D03*
D11*
X175784Y376530D03*
X158784Y376530D03*
D10*
X172554Y357170D02*
X172554Y350170D01*
X172554Y357170D02*
X179554Y357170D01*
X179554Y350170D01*
X172554Y350170D01*
X172554Y353020D02*
X179554Y353020D01*
X179554Y355870D02*
X172554Y355870D01*
X155014Y357170D02*
X155014Y350170D01*
X155014Y357170D02*
X162014Y357170D01*
X162014Y350170D01*
X155014Y350170D01*
X155014Y353020D02*
X162014Y353020D01*
X162014Y355870D02*
X155014Y355870D01*
D27*
X652264Y468140D03*
X632264Y468140D03*
D28*
X676264Y416140D03*
X608264Y416140D03*
D29*
X166184Y1018040D03*
X166184Y1038040D03*
D30*
X114184Y994040D03*
X114184Y1062040D03*
D11*
X297704Y627990D03*
X280704Y627990D03*
D10*
X294474Y618790D02*
X294474Y611790D01*
X294474Y618790D02*
X301474Y618790D01*
X301474Y611790D01*
X294474Y611790D01*
X294474Y614640D02*
X301474Y614640D01*
X301474Y617490D02*
X294474Y617490D01*
X276934Y618790D02*
X276934Y611790D01*
X276934Y618790D02*
X283934Y618790D01*
X283934Y611790D01*
X276934Y611790D01*
X276934Y614640D02*
X283934Y614640D01*
X283934Y617490D02*
X276934Y617490D01*
D11*
X297704Y551790D03*
X280704Y551790D03*
D10*
X294474Y542590D02*
X294474Y535590D01*
X294474Y542590D02*
X301474Y542590D01*
X301474Y535590D01*
X294474Y535590D01*
X294474Y538440D02*
X301474Y538440D01*
X301474Y541290D02*
X294474Y541290D01*
X276934Y542590D02*
X276934Y535590D01*
X276934Y542590D02*
X283934Y542590D01*
X283934Y535590D01*
X276934Y535590D01*
X276934Y538440D02*
X283934Y538440D01*
X283934Y541290D02*
X276934Y541290D01*
D11*
X297704Y475590D03*
X280704Y475590D03*
D10*
X294474Y466390D02*
X294474Y459390D01*
X294474Y466390D02*
X301474Y466390D01*
X301474Y459390D01*
X294474Y459390D01*
X294474Y462240D02*
X301474Y462240D01*
X301474Y465090D02*
X294474Y465090D01*
X276934Y466390D02*
X276934Y459390D01*
X276934Y466390D02*
X283934Y466390D01*
X283934Y459390D01*
X276934Y459390D01*
X276934Y462240D02*
X283934Y462240D01*
X283934Y465090D02*
X276934Y465090D01*
D27*
X56634Y468140D03*
X36634Y468140D03*
D28*
X80634Y416140D03*
X12634Y416140D03*
D19*
X466884Y58010D03*
X461884Y58010D03*
D20*
X491634Y58010D03*
X483884Y58010D03*
D19*
X476884Y58010D03*
X471884Y58010D03*
X451884Y58010D03*
X456884Y58010D03*
D20*
X427134Y58010D03*
X434884Y58010D03*
D19*
X441884Y58010D03*
X446884Y58010D03*
D11*
X505984Y98240D03*
X488984Y98240D03*
X412784Y98240D03*
X429784Y98240D03*
D31*
X97734Y44880D03*
D32*
X153734Y12880D03*
X79234Y12880D03*
D31*
X110234Y44880D03*
X122734Y44880D03*
X135234Y44880D03*
X554934Y44880D03*
D32*
X610934Y12880D03*
X536434Y12880D03*
D31*
X567434Y44880D03*
X579934Y44880D03*
X592434Y44880D03*
D11*
X409464Y627990D03*
X392464Y627990D03*
D10*
X406234Y618790D02*
X406234Y611790D01*
X406234Y618790D02*
X413234Y618790D01*
X413234Y611790D01*
X406234Y611790D01*
X406234Y614640D02*
X413234Y614640D01*
X413234Y617490D02*
X406234Y617490D01*
X388694Y618790D02*
X388694Y611790D01*
X388694Y618790D02*
X395694Y618790D01*
X395694Y611790D01*
X388694Y611790D01*
X388694Y614640D02*
X395694Y614640D01*
X395694Y617490D02*
X388694Y617490D01*
D25*
X503684Y266740D03*
D26*
X503684Y274740D03*
X503684Y282740D03*
D25*
X503684Y290740D03*
X490684Y290740D03*
D26*
X490684Y282740D03*
X490684Y274740D03*
D25*
X490684Y266740D03*
D11*
X513604Y174440D03*
X496604Y174440D03*
D33*
X470884Y110940D03*
X447884Y110940D03*
D34*
X508134Y363400D03*
X508134Y352400D03*
X508134Y341400D03*
X537634Y341400D03*
X537634Y352400D03*
X537634Y363400D03*
D11*
X490744Y367640D03*
X473744Y367640D03*
X490744Y337160D03*
X473744Y337160D03*
X490744Y352400D03*
X473744Y352400D03*
D13*
X358085Y447040D03*
X358085Y456540D03*
X358085Y466040D03*
X332083Y466040D03*
X332083Y447040D03*
D11*
X353584Y481940D03*
X336584Y481940D03*
X336584Y431140D03*
X353584Y431140D03*
D35*
X100934Y214840D03*
X100934Y189840D03*
X100934Y164840D03*
X157434Y214840D03*
X157434Y189840D03*
X157434Y164840D03*
X100934Y341840D03*
X100934Y316840D03*
X100934Y291840D03*
X157434Y341840D03*
X157434Y316840D03*
X157434Y291840D03*
D21*
X454384Y134990D03*
D22*
X459384Y134740D03*
X464384Y134740D03*
X464384Y143340D03*
X459384Y143340D03*
X454384Y143340D03*
D36*
X73364Y655850D03*
X17364Y655850D03*
D37*
X60364Y619100D03*
X50364Y619100D03*
X40364Y619100D03*
X30364Y619100D03*
D10*
X1147229Y542590D02*
X1147229Y535590D01*
X1147229Y542590D02*
X1154229Y542590D01*
X1154229Y535590D01*
X1147229Y535590D01*
X1147229Y538440D02*
X1154229Y538440D01*
X1154229Y541290D02*
X1147229Y541290D01*
X1129689Y542590D02*
X1129689Y535590D01*
X1129689Y542590D02*
X1136689Y542590D01*
X1136689Y535590D01*
X1129689Y535590D01*
X1129689Y538440D02*
X1136689Y538440D01*
X1136689Y541290D02*
X1129689Y541290D01*
D11*
X1133459Y551790D03*
X1150459Y551790D03*
D12*
X1111479Y371840D03*
X1111479Y388840D03*
X1086079Y388840D03*
X1086079Y371840D03*
D13*
X1187980Y370840D03*
X1187980Y380340D03*
X1187980Y389840D03*
X1161978Y389840D03*
X1161978Y370840D03*
D11*
X1183479Y405740D03*
X1166479Y405740D03*
D12*
X1009879Y388840D03*
X1009879Y371840D03*
X1035279Y388840D03*
X1035279Y371840D03*
D10*
X1147229Y459390D02*
X1147229Y466390D01*
X1154229Y466390D01*
X1154229Y459390D01*
X1147229Y459390D01*
X1147229Y462240D02*
X1154229Y462240D01*
X1154229Y465090D02*
X1147229Y465090D01*
X1129689Y466390D02*
X1129689Y459390D01*
X1129689Y466390D02*
X1136689Y466390D01*
X1136689Y459390D01*
X1129689Y459390D01*
X1129689Y462240D02*
X1136689Y462240D01*
X1136689Y465090D02*
X1129689Y465090D01*
D11*
X1133459Y475590D03*
X1150459Y475590D03*
D14*
X1047979Y167700D03*
X1047979Y156100D03*
D11*
X1066149Y168250D03*
X1083149Y168250D03*
D12*
X1060679Y388840D03*
X1060679Y371840D03*
D15*
X1026469Y168250D03*
X1036469Y168250D03*
D16*
X1014579Y191540D03*
X1025579Y191540D03*
X1036579Y191540D03*
X1047579Y191540D03*
X1058579Y191540D03*
X1069579Y191540D03*
X1080579Y191540D03*
X1091579Y191540D03*
X1102579Y191540D03*
X1113579Y191540D03*
X1124579Y191540D03*
X1135579Y191540D03*
X1146579Y191540D03*
X1157579Y191540D03*
D17*
X1185579Y200040D03*
X1185579Y211040D03*
X1185579Y222040D03*
X1185579Y233040D03*
X1185579Y244040D03*
X1185579Y255040D03*
X1185579Y266040D03*
X1185579Y277040D03*
X1185579Y288040D03*
X1185579Y299040D03*
X1185579Y310040D03*
X1185579Y321040D03*
X1185579Y332040D03*
D16*
X1157579Y340540D03*
X1146579Y340540D03*
X1135579Y340540D03*
X1124579Y340540D03*
X1113579Y340540D03*
X1102579Y340540D03*
X1091579Y340540D03*
X1080579Y340540D03*
X1069579Y340540D03*
X1058579Y340540D03*
X1047579Y340540D03*
X1036579Y340540D03*
X1025579Y340540D03*
X1014579Y340540D03*
D17*
X986579Y332040D03*
X986579Y321040D03*
X986579Y310040D03*
X986579Y299040D03*
X986579Y288040D03*
X986579Y277040D03*
X986579Y266040D03*
X986579Y255040D03*
X986579Y244040D03*
X986579Y233040D03*
X986579Y222040D03*
X986579Y211040D03*
X986579Y200040D03*
D18*
X1075579Y276540D03*
X1054579Y276540D03*
X1033579Y276540D03*
X1012579Y276540D03*
X1075579Y297040D03*
X1054579Y297040D03*
X1033579Y297040D03*
X1012579Y297040D03*
X1075579Y317540D03*
X1054579Y317540D03*
X1033579Y317540D03*
X1012579Y317540D03*
X1075579Y214540D03*
X1054579Y214540D03*
X1033579Y214540D03*
X1012579Y214540D03*
X1075579Y235040D03*
X1054579Y235040D03*
X1033579Y235040D03*
X1012579Y235040D03*
X1075579Y255540D03*
X1054579Y255540D03*
X1033579Y255540D03*
X1012579Y255540D03*
X1159579Y276540D03*
X1138579Y276540D03*
X1117579Y276540D03*
X1096579Y276540D03*
X1159579Y297040D03*
X1138579Y297040D03*
X1117579Y297040D03*
X1096579Y297040D03*
X1159579Y317540D03*
X1138579Y317540D03*
X1117579Y317540D03*
X1096579Y317540D03*
X1159579Y214540D03*
X1138579Y214540D03*
X1117579Y214540D03*
X1096579Y214540D03*
X1159579Y235040D03*
X1138579Y235040D03*
X1117579Y235040D03*
X1096579Y235040D03*
X1159579Y255540D03*
X1138579Y255540D03*
X1117579Y255540D03*
X1096579Y255540D03*
D11*
X1132679Y98240D03*
X1115679Y98240D03*
X1039479Y98240D03*
X1056479Y98240D03*
D19*
X1093579Y58010D03*
X1088579Y58010D03*
D20*
X1118329Y58010D03*
X1110579Y58010D03*
D19*
X1103579Y58010D03*
X1098579Y58010D03*
X1078579Y58010D03*
X1083579Y58010D03*
D20*
X1053829Y58010D03*
X1061579Y58010D03*
D19*
X1068579Y58010D03*
X1073579Y58010D03*
D12*
X1136879Y371840D03*
X1136879Y388840D03*
D11*
X1090279Y405740D03*
X1107279Y405740D03*
D21*
X1068379Y134990D03*
D22*
X1073379Y134740D03*
X1078379Y134740D03*
X1078379Y143340D03*
X1073379Y143340D03*
X1068379Y143340D03*
D23*
X971779Y82350D03*
D24*
X1014829Y35450D03*
X928729Y35450D03*
D25*
X965279Y292140D03*
D26*
X965279Y300140D03*
X965279Y308140D03*
D25*
X965279Y316140D03*
X952279Y316140D03*
D26*
X952279Y308140D03*
X952279Y300140D03*
D25*
X952279Y292140D03*
X965279Y228640D03*
D26*
X965279Y236640D03*
X965279Y244640D03*
D25*
X965279Y252640D03*
X952279Y252640D03*
D26*
X952279Y244640D03*
X952279Y236640D03*
D25*
X952279Y228640D03*
D12*
X959079Y333740D03*
X959079Y350740D03*
D11*
X916779Y376530D03*
X899779Y376530D03*
D10*
X913549Y357170D02*
X913549Y350170D01*
X913549Y357170D02*
X920549Y357170D01*
X920549Y350170D01*
X913549Y350170D01*
X913549Y353020D02*
X920549Y353020D01*
X920549Y355870D02*
X913549Y355870D01*
X896009Y357170D02*
X896009Y350170D01*
X896009Y357170D02*
X903009Y357170D01*
X903009Y350170D01*
X896009Y350170D01*
X896009Y353020D02*
X903009Y353020D01*
X903009Y355870D02*
X896009Y355870D01*
D27*
X1393259Y468140D03*
X1373259Y468140D03*
D28*
X1417259Y416140D03*
X1349259Y416140D03*
D29*
X907179Y1018040D03*
X907179Y1038040D03*
D30*
X855179Y994040D03*
X855179Y1062040D03*
D11*
X1038699Y627990D03*
X1021699Y627990D03*
D10*
X1035469Y618790D02*
X1035469Y611790D01*
X1035469Y618790D02*
X1042469Y618790D01*
X1042469Y611790D01*
X1035469Y611790D01*
X1035469Y614640D02*
X1042469Y614640D01*
X1042469Y617490D02*
X1035469Y617490D01*
X1017929Y618790D02*
X1017929Y611790D01*
X1017929Y618790D02*
X1024929Y618790D01*
X1024929Y611790D01*
X1017929Y611790D01*
X1017929Y614640D02*
X1024929Y614640D01*
X1024929Y617490D02*
X1017929Y617490D01*
D11*
X1038699Y551790D03*
X1021699Y551790D03*
D10*
X1035469Y542590D02*
X1035469Y535590D01*
X1035469Y542590D02*
X1042469Y542590D01*
X1042469Y535590D01*
X1035469Y535590D01*
X1035469Y538440D02*
X1042469Y538440D01*
X1042469Y541290D02*
X1035469Y541290D01*
X1017929Y542590D02*
X1017929Y535590D01*
X1017929Y542590D02*
X1024929Y542590D01*
X1024929Y535590D01*
X1017929Y535590D01*
X1017929Y538440D02*
X1024929Y538440D01*
X1024929Y541290D02*
X1017929Y541290D01*
D11*
X1038699Y475590D03*
X1021699Y475590D03*
D10*
X1035469Y466390D02*
X1035469Y459390D01*
X1035469Y466390D02*
X1042469Y466390D01*
X1042469Y459390D01*
X1035469Y459390D01*
X1035469Y462240D02*
X1042469Y462240D01*
X1042469Y465090D02*
X1035469Y465090D01*
X1017929Y466390D02*
X1017929Y459390D01*
X1017929Y466390D02*
X1024929Y466390D01*
X1024929Y459390D01*
X1017929Y459390D01*
X1017929Y462240D02*
X1024929Y462240D01*
X1024929Y465090D02*
X1017929Y465090D01*
D27*
X797629Y468140D03*
X777629Y468140D03*
D28*
X821629Y416140D03*
X753629Y416140D03*
D19*
X1207879Y58010D03*
X1202879Y58010D03*
D20*
X1232629Y58010D03*
X1224879Y58010D03*
D19*
X1217879Y58010D03*
X1212879Y58010D03*
X1192879Y58010D03*
X1197879Y58010D03*
D20*
X1168129Y58010D03*
X1175879Y58010D03*
D19*
X1182879Y58010D03*
X1187879Y58010D03*
D11*
X1246979Y98240D03*
X1229979Y98240D03*
X1153779Y98240D03*
X1170779Y98240D03*
D31*
X838729Y44880D03*
D32*
X894729Y12880D03*
X820229Y12880D03*
D31*
X851229Y44880D03*
X863729Y44880D03*
X876229Y44880D03*
X1295929Y44880D03*
D32*
X1351929Y12880D03*
X1277429Y12880D03*
D31*
X1308429Y44880D03*
X1320929Y44880D03*
X1333429Y44880D03*
D11*
X1150459Y627990D03*
X1133459Y627990D03*
D10*
X1147229Y618790D02*
X1147229Y611790D01*
X1147229Y618790D02*
X1154229Y618790D01*
X1154229Y611790D01*
X1147229Y611790D01*
X1147229Y614640D02*
X1154229Y614640D01*
X1154229Y617490D02*
X1147229Y617490D01*
X1129689Y618790D02*
X1129689Y611790D01*
X1129689Y618790D02*
X1136689Y618790D01*
X1136689Y611790D01*
X1129689Y611790D01*
X1129689Y614640D02*
X1136689Y614640D01*
X1136689Y617490D02*
X1129689Y617490D01*
D25*
X1244679Y266740D03*
D26*
X1244679Y274740D03*
X1244679Y282740D03*
D25*
X1244679Y290740D03*
X1231679Y290740D03*
D26*
X1231679Y282740D03*
X1231679Y274740D03*
D25*
X1231679Y266740D03*
D11*
X1254599Y174440D03*
X1237599Y174440D03*
D33*
X1211879Y110940D03*
X1188879Y110940D03*
D34*
X1249129Y363400D03*
X1249129Y352400D03*
X1249129Y341400D03*
X1278629Y341400D03*
X1278629Y352400D03*
X1278629Y363400D03*
D11*
X1231739Y367640D03*
X1214739Y367640D03*
X1231739Y337160D03*
X1214739Y337160D03*
X1231739Y352400D03*
X1214739Y352400D03*
D13*
X1099080Y447040D03*
X1099080Y456540D03*
X1099080Y466040D03*
X1073078Y466040D03*
X1073078Y447040D03*
D11*
X1094579Y481940D03*
X1077579Y481940D03*
X1077579Y431140D03*
X1094579Y431140D03*
D35*
X841929Y214840D03*
X841929Y189840D03*
X841929Y164840D03*
X898429Y214840D03*
X898429Y189840D03*
X898429Y164840D03*
X841929Y341840D03*
X841929Y316840D03*
X841929Y291840D03*
X898429Y341840D03*
X898429Y316840D03*
X898429Y291840D03*
D21*
X1195379Y134990D03*
D22*
X1200379Y134740D03*
X1205379Y134740D03*
X1205379Y143340D03*
X1200379Y143340D03*
X1195379Y143340D03*
D36*
X814359Y655850D03*
X758359Y655850D03*
D37*
X801359Y619100D03*
X791359Y619100D03*
X781359Y619100D03*
X771359Y619100D03*
D10*
X406234Y1708104D02*
X406234Y1715104D01*
X413234Y1715104D01*
X413234Y1708104D01*
X406234Y1708104D01*
X406234Y1710954D02*
X413234Y1710954D01*
X413234Y1713804D02*
X406234Y1713804D01*
X388694Y1715104D02*
X388694Y1708104D01*
X388694Y1715104D02*
X395694Y1715104D01*
X395694Y1708104D01*
X388694Y1708104D01*
X388694Y1710954D02*
X395694Y1710954D01*
X395694Y1713804D02*
X388694Y1713804D01*
D11*
X392464Y1724304D03*
X409464Y1724304D03*
D12*
X370484Y1544354D03*
X370484Y1561354D03*
X345084Y1561354D03*
X345084Y1544354D03*
D13*
X446985Y1543354D03*
X446985Y1552854D03*
X446985Y1562354D03*
X420983Y1562354D03*
X420983Y1543354D03*
D11*
X442484Y1578254D03*
X425484Y1578254D03*
D12*
X268884Y1561354D03*
X268884Y1544354D03*
X294284Y1561354D03*
X294284Y1544354D03*
D10*
X406234Y1631904D02*
X406234Y1638904D01*
X413234Y1638904D01*
X413234Y1631904D01*
X406234Y1631904D01*
X406234Y1634754D02*
X413234Y1634754D01*
X413234Y1637604D02*
X406234Y1637604D01*
X388694Y1638904D02*
X388694Y1631904D01*
X388694Y1638904D02*
X395694Y1638904D01*
X395694Y1631904D01*
X388694Y1631904D01*
X388694Y1634754D02*
X395694Y1634754D01*
X395694Y1637604D02*
X388694Y1637604D01*
D11*
X392464Y1648104D03*
X409464Y1648104D03*
D14*
X306984Y1340214D03*
X306984Y1328614D03*
D11*
X325154Y1340764D03*
X342154Y1340764D03*
D12*
X319684Y1561354D03*
X319684Y1544354D03*
D15*
X285474Y1340764D03*
X295474Y1340764D03*
D16*
X273584Y1364054D03*
X284584Y1364054D03*
X295584Y1364054D03*
X306584Y1364054D03*
X317584Y1364054D03*
X328584Y1364054D03*
X339584Y1364054D03*
X350584Y1364054D03*
X361584Y1364054D03*
X372584Y1364054D03*
X383584Y1364054D03*
X394584Y1364054D03*
X405584Y1364054D03*
X416584Y1364054D03*
D17*
X444584Y1372554D03*
X444584Y1383554D03*
X444584Y1394554D03*
X444584Y1405554D03*
X444584Y1416554D03*
X444584Y1427554D03*
X444584Y1438554D03*
X444584Y1449554D03*
X444584Y1460554D03*
X444584Y1471554D03*
X444584Y1482554D03*
X444584Y1493554D03*
X444584Y1504554D03*
D16*
X416584Y1513054D03*
X405584Y1513054D03*
X394584Y1513054D03*
X383584Y1513054D03*
X372584Y1513054D03*
X361584Y1513054D03*
X350584Y1513054D03*
X339584Y1513054D03*
X328584Y1513054D03*
X317584Y1513054D03*
X306584Y1513054D03*
X295584Y1513054D03*
X284584Y1513054D03*
X273584Y1513054D03*
D17*
X245584Y1504554D03*
X245584Y1493554D03*
X245584Y1482554D03*
X245584Y1471554D03*
X245584Y1460554D03*
X245584Y1449554D03*
X245584Y1438554D03*
X245584Y1427554D03*
X245584Y1416554D03*
X245584Y1405554D03*
X245584Y1394554D03*
X245584Y1383554D03*
X245584Y1372554D03*
D18*
X334584Y1449054D03*
X313584Y1449054D03*
X292584Y1449054D03*
X271584Y1449054D03*
X334584Y1469554D03*
X313584Y1469554D03*
X292584Y1469554D03*
X271584Y1469554D03*
X334584Y1490054D03*
X313584Y1490054D03*
X292584Y1490054D03*
X271584Y1490054D03*
X334584Y1387054D03*
X313584Y1387054D03*
X292584Y1387054D03*
X271584Y1387054D03*
X334584Y1407554D03*
X313584Y1407554D03*
X292584Y1407554D03*
X271584Y1407554D03*
X334584Y1428054D03*
X313584Y1428054D03*
X292584Y1428054D03*
X271584Y1428054D03*
X418584Y1449054D03*
X397584Y1449054D03*
X376584Y1449054D03*
X355584Y1449054D03*
X418584Y1469554D03*
X397584Y1469554D03*
X376584Y1469554D03*
X355584Y1469554D03*
X418584Y1490054D03*
X397584Y1490054D03*
X376584Y1490054D03*
X355584Y1490054D03*
X418584Y1387054D03*
X397584Y1387054D03*
X376584Y1387054D03*
X355584Y1387054D03*
X418584Y1407554D03*
X397584Y1407554D03*
X376584Y1407554D03*
X355584Y1407554D03*
X418584Y1428054D03*
X397584Y1428054D03*
X376584Y1428054D03*
X355584Y1428054D03*
D11*
X391684Y1270754D03*
X374684Y1270754D03*
X298484Y1270754D03*
X315484Y1270754D03*
D19*
X352584Y1230524D03*
X347584Y1230524D03*
D20*
X377334Y1230524D03*
X369584Y1230524D03*
D19*
X362584Y1230524D03*
X357584Y1230524D03*
X337584Y1230524D03*
X342584Y1230524D03*
D20*
X312834Y1230524D03*
X320584Y1230524D03*
D19*
X327584Y1230524D03*
X332584Y1230524D03*
D12*
X395884Y1544354D03*
X395884Y1561354D03*
D11*
X349284Y1578254D03*
X366284Y1578254D03*
D21*
X327384Y1307504D03*
D22*
X332384Y1307254D03*
X337384Y1307254D03*
X337384Y1315854D03*
X332384Y1315854D03*
X327384Y1315854D03*
D23*
X230784Y1254864D03*
D24*
X273834Y1207964D03*
X187734Y1207964D03*
D25*
X224284Y1464654D03*
D26*
X224284Y1472654D03*
X224284Y1480654D03*
D25*
X224284Y1488654D03*
X211284Y1488654D03*
D26*
X211284Y1480654D03*
X211284Y1472654D03*
D25*
X211284Y1464654D03*
X224284Y1401154D03*
D26*
X224284Y1409154D03*
X224284Y1417154D03*
D25*
X224284Y1425154D03*
X211284Y1425154D03*
D26*
X211284Y1417154D03*
X211284Y1409154D03*
D25*
X211284Y1401154D03*
D12*
X218084Y1506254D03*
X218084Y1523254D03*
D11*
X175784Y1549044D03*
X158784Y1549044D03*
D10*
X172554Y1529684D02*
X172554Y1522684D01*
X172554Y1529684D02*
X179554Y1529684D01*
X179554Y1522684D01*
X172554Y1522684D01*
X172554Y1525534D02*
X179554Y1525534D01*
X179554Y1528384D02*
X172554Y1528384D01*
X155014Y1529684D02*
X155014Y1522684D01*
X155014Y1529684D02*
X162014Y1529684D01*
X162014Y1522684D01*
X155014Y1522684D01*
X155014Y1525534D02*
X162014Y1525534D01*
X162014Y1528384D02*
X155014Y1528384D01*
D27*
X652264Y1640654D03*
X632264Y1640654D03*
D28*
X676264Y1588654D03*
X608264Y1588654D03*
D29*
X166184Y2190554D03*
X166184Y2210554D03*
D30*
X114184Y2166554D03*
X114184Y2234554D03*
D11*
X297704Y1800504D03*
X280704Y1800504D03*
D10*
X294474Y1791304D02*
X294474Y1784304D01*
X294474Y1791304D02*
X301474Y1791304D01*
X301474Y1784304D01*
X294474Y1784304D01*
X294474Y1787154D02*
X301474Y1787154D01*
X301474Y1790004D02*
X294474Y1790004D01*
X276934Y1791304D02*
X276934Y1784304D01*
X276934Y1791304D02*
X283934Y1791304D01*
X283934Y1784304D01*
X276934Y1784304D01*
X276934Y1787154D02*
X283934Y1787154D01*
X283934Y1790004D02*
X276934Y1790004D01*
D11*
X297704Y1724304D03*
X280704Y1724304D03*
D10*
X294474Y1715104D02*
X294474Y1708104D01*
X294474Y1715104D02*
X301474Y1715104D01*
X301474Y1708104D01*
X294474Y1708104D01*
X294474Y1710954D02*
X301474Y1710954D01*
X301474Y1713804D02*
X294474Y1713804D01*
X276934Y1715104D02*
X276934Y1708104D01*
X276934Y1715104D02*
X283934Y1715104D01*
X283934Y1708104D01*
X276934Y1708104D01*
X276934Y1710954D02*
X283934Y1710954D01*
X283934Y1713804D02*
X276934Y1713804D01*
D11*
X297704Y1648104D03*
X280704Y1648104D03*
D10*
X294474Y1638904D02*
X294474Y1631904D01*
X294474Y1638904D02*
X301474Y1638904D01*
X301474Y1631904D01*
X294474Y1631904D01*
X294474Y1634754D02*
X301474Y1634754D01*
X301474Y1637604D02*
X294474Y1637604D01*
X276934Y1638904D02*
X276934Y1631904D01*
X276934Y1638904D02*
X283934Y1638904D01*
X283934Y1631904D01*
X276934Y1631904D01*
X276934Y1634754D02*
X283934Y1634754D01*
X283934Y1637604D02*
X276934Y1637604D01*
D27*
X56634Y1640654D03*
X36634Y1640654D03*
D28*
X80634Y1588654D03*
X12634Y1588654D03*
D19*
X466884Y1230524D03*
X461884Y1230524D03*
D20*
X491634Y1230524D03*
X483884Y1230524D03*
D19*
X476884Y1230524D03*
X471884Y1230524D03*
X451884Y1230524D03*
X456884Y1230524D03*
D20*
X427134Y1230524D03*
X434884Y1230524D03*
D19*
X441884Y1230524D03*
X446884Y1230524D03*
D11*
X505984Y1270754D03*
X488984Y1270754D03*
X412784Y1270754D03*
X429784Y1270754D03*
D31*
X97734Y1217394D03*
D32*
X153734Y1185394D03*
X79234Y1185394D03*
D31*
X110234Y1217394D03*
X122734Y1217394D03*
X135234Y1217394D03*
X554934Y1217394D03*
D32*
X610934Y1185394D03*
X536434Y1185394D03*
D31*
X567434Y1217394D03*
X579934Y1217394D03*
X592434Y1217394D03*
D11*
X409464Y1800504D03*
X392464Y1800504D03*
D10*
X406234Y1791304D02*
X406234Y1784304D01*
X406234Y1791304D02*
X413234Y1791304D01*
X413234Y1784304D01*
X406234Y1784304D01*
X406234Y1787154D02*
X413234Y1787154D01*
X413234Y1790004D02*
X406234Y1790004D01*
X388694Y1791304D02*
X388694Y1784304D01*
X388694Y1791304D02*
X395694Y1791304D01*
X395694Y1784304D01*
X388694Y1784304D01*
X388694Y1787154D02*
X395694Y1787154D01*
X395694Y1790004D02*
X388694Y1790004D01*
D25*
X503684Y1439254D03*
D26*
X503684Y1447254D03*
X503684Y1455254D03*
D25*
X503684Y1463254D03*
X490684Y1463254D03*
D26*
X490684Y1455254D03*
X490684Y1447254D03*
D25*
X490684Y1439254D03*
D11*
X513604Y1346954D03*
X496604Y1346954D03*
D33*
X470884Y1283454D03*
X447884Y1283454D03*
D34*
X508134Y1535914D03*
X508134Y1524914D03*
X508134Y1513914D03*
X537634Y1513914D03*
X537634Y1524914D03*
X537634Y1535914D03*
D11*
X490744Y1540154D03*
X473744Y1540154D03*
X490744Y1509674D03*
X473744Y1509674D03*
X490744Y1524914D03*
X473744Y1524914D03*
D13*
X358085Y1619554D03*
X358085Y1629054D03*
X358085Y1638554D03*
X332083Y1638554D03*
X332083Y1619554D03*
D11*
X353584Y1654454D03*
X336584Y1654454D03*
X336584Y1603654D03*
X353584Y1603654D03*
D35*
X100934Y1387354D03*
X100934Y1362354D03*
X100934Y1337354D03*
X157434Y1387354D03*
X157434Y1362354D03*
X157434Y1337354D03*
X100934Y1514354D03*
X100934Y1489354D03*
X100934Y1464354D03*
X157434Y1514354D03*
X157434Y1489354D03*
X157434Y1464354D03*
D21*
X454384Y1307504D03*
D22*
X459384Y1307254D03*
X464384Y1307254D03*
X464384Y1315854D03*
X459384Y1315854D03*
X454384Y1315854D03*
D36*
X73364Y1828364D03*
X17364Y1828364D03*
D37*
X60364Y1791614D03*
X50364Y1791614D03*
X40364Y1791614D03*
X30364Y1791614D03*
D10*
X1147229Y1715104D02*
X1147229Y1708104D01*
X1147229Y1715104D02*
X1154229Y1715104D01*
X1154229Y1708104D01*
X1147229Y1708104D01*
X1147229Y1710954D02*
X1154229Y1710954D01*
X1154229Y1713804D02*
X1147229Y1713804D01*
X1129689Y1715104D02*
X1129689Y1708104D01*
X1129689Y1715104D02*
X1136689Y1715104D01*
X1136689Y1708104D01*
X1129689Y1708104D01*
X1129689Y1710954D02*
X1136689Y1710954D01*
X1136689Y1713804D02*
X1129689Y1713804D01*
D11*
X1133459Y1724304D03*
X1150459Y1724304D03*
D12*
X1111479Y1544354D03*
X1111479Y1561354D03*
X1086079Y1561354D03*
X1086079Y1544354D03*
D13*
X1187980Y1543354D03*
X1187980Y1552854D03*
X1187980Y1562354D03*
X1161978Y1562354D03*
X1161978Y1543354D03*
D11*
X1183479Y1578254D03*
X1166479Y1578254D03*
D12*
X1009879Y1561354D03*
X1009879Y1544354D03*
X1035279Y1561354D03*
X1035279Y1544354D03*
D10*
X1147229Y1631904D02*
X1147229Y1638904D01*
X1154229Y1638904D01*
X1154229Y1631904D01*
X1147229Y1631904D01*
X1147229Y1634754D02*
X1154229Y1634754D01*
X1154229Y1637604D02*
X1147229Y1637604D01*
X1129689Y1638904D02*
X1129689Y1631904D01*
X1129689Y1638904D02*
X1136689Y1638904D01*
X1136689Y1631904D01*
X1129689Y1631904D01*
X1129689Y1634754D02*
X1136689Y1634754D01*
X1136689Y1637604D02*
X1129689Y1637604D01*
D11*
X1133459Y1648104D03*
X1150459Y1648104D03*
D14*
X1047979Y1340214D03*
X1047979Y1328614D03*
D11*
X1066149Y1340764D03*
X1083149Y1340764D03*
D12*
X1060679Y1561354D03*
X1060679Y1544354D03*
D15*
X1026469Y1340764D03*
X1036469Y1340764D03*
D16*
X1014579Y1364054D03*
X1025579Y1364054D03*
X1036579Y1364054D03*
X1047579Y1364054D03*
X1058579Y1364054D03*
X1069579Y1364054D03*
X1080579Y1364054D03*
X1091579Y1364054D03*
X1102579Y1364054D03*
X1113579Y1364054D03*
X1124579Y1364054D03*
X1135579Y1364054D03*
X1146579Y1364054D03*
X1157579Y1364054D03*
D17*
X1185579Y1372554D03*
X1185579Y1383554D03*
X1185579Y1394554D03*
X1185579Y1405554D03*
X1185579Y1416554D03*
X1185579Y1427554D03*
X1185579Y1438554D03*
X1185579Y1449554D03*
X1185579Y1460554D03*
X1185579Y1471554D03*
X1185579Y1482554D03*
X1185579Y1493554D03*
X1185579Y1504554D03*
D16*
X1157579Y1513054D03*
X1146579Y1513054D03*
X1135579Y1513054D03*
X1124579Y1513054D03*
X1113579Y1513054D03*
X1102579Y1513054D03*
X1091579Y1513054D03*
X1080579Y1513054D03*
X1069579Y1513054D03*
X1058579Y1513054D03*
X1047579Y1513054D03*
X1036579Y1513054D03*
X1025579Y1513054D03*
X1014579Y1513054D03*
D17*
X986579Y1504554D03*
X986579Y1493554D03*
X986579Y1482554D03*
X986579Y1471554D03*
X986579Y1460554D03*
X986579Y1449554D03*
X986579Y1438554D03*
X986579Y1427554D03*
X986579Y1416554D03*
X986579Y1405554D03*
X986579Y1394554D03*
X986579Y1383554D03*
X986579Y1372554D03*
D18*
X1075579Y1449054D03*
X1054579Y1449054D03*
X1033579Y1449054D03*
X1012579Y1449054D03*
X1075579Y1469554D03*
X1054579Y1469554D03*
X1033579Y1469554D03*
X1012579Y1469554D03*
X1075579Y1490054D03*
X1054579Y1490054D03*
X1033579Y1490054D03*
X1012579Y1490054D03*
X1075579Y1387054D03*
X1054579Y1387054D03*
X1033579Y1387054D03*
X1012579Y1387054D03*
X1075579Y1407554D03*
X1054579Y1407554D03*
X1033579Y1407554D03*
X1012579Y1407554D03*
X1075579Y1428054D03*
X1054579Y1428054D03*
X1033579Y1428054D03*
X1012579Y1428054D03*
X1159579Y1449054D03*
X1138579Y1449054D03*
X1117579Y1449054D03*
X1096579Y1449054D03*
X1159579Y1469554D03*
X1138579Y1469554D03*
X1117579Y1469554D03*
X1096579Y1469554D03*
X1159579Y1490054D03*
X1138579Y1490054D03*
X1117579Y1490054D03*
X1096579Y1490054D03*
X1159579Y1387054D03*
X1138579Y1387054D03*
X1117579Y1387054D03*
X1096579Y1387054D03*
X1159579Y1407554D03*
X1138579Y1407554D03*
X1117579Y1407554D03*
X1096579Y1407554D03*
X1159579Y1428054D03*
X1138579Y1428054D03*
X1117579Y1428054D03*
X1096579Y1428054D03*
D11*
X1132679Y1270754D03*
X1115679Y1270754D03*
X1039479Y1270754D03*
X1056479Y1270754D03*
D19*
X1093579Y1230524D03*
X1088579Y1230524D03*
D20*
X1118329Y1230524D03*
X1110579Y1230524D03*
D19*
X1103579Y1230524D03*
X1098579Y1230524D03*
X1078579Y1230524D03*
X1083579Y1230524D03*
D20*
X1053829Y1230524D03*
X1061579Y1230524D03*
D19*
X1068579Y1230524D03*
X1073579Y1230524D03*
D12*
X1136879Y1544354D03*
X1136879Y1561354D03*
D11*
X1090279Y1578254D03*
X1107279Y1578254D03*
D21*
X1068379Y1307504D03*
D22*
X1073379Y1307254D03*
X1078379Y1307254D03*
X1078379Y1315854D03*
X1073379Y1315854D03*
X1068379Y1315854D03*
D23*
X971779Y1254864D03*
D24*
X1014829Y1207964D03*
X928729Y1207964D03*
D25*
X965279Y1464654D03*
D26*
X965279Y1472654D03*
X965279Y1480654D03*
D25*
X965279Y1488654D03*
X952279Y1488654D03*
D26*
X952279Y1480654D03*
X952279Y1472654D03*
D25*
X952279Y1464654D03*
X965279Y1401154D03*
D26*
X965279Y1409154D03*
X965279Y1417154D03*
D25*
X965279Y1425154D03*
X952279Y1425154D03*
D26*
X952279Y1417154D03*
X952279Y1409154D03*
D25*
X952279Y1401154D03*
D12*
X959079Y1506254D03*
X959079Y1523254D03*
D11*
X916779Y1549044D03*
X899779Y1549044D03*
D10*
X913549Y1529684D02*
X913549Y1522684D01*
X913549Y1529684D02*
X920549Y1529684D01*
X920549Y1522684D01*
X913549Y1522684D01*
X913549Y1525534D02*
X920549Y1525534D01*
X920549Y1528384D02*
X913549Y1528384D01*
X896009Y1529684D02*
X896009Y1522684D01*
X896009Y1529684D02*
X903009Y1529684D01*
X903009Y1522684D01*
X896009Y1522684D01*
X896009Y1525534D02*
X903009Y1525534D01*
X903009Y1528384D02*
X896009Y1528384D01*
D27*
X1393259Y1640654D03*
X1373259Y1640654D03*
D28*
X1417259Y1588654D03*
X1349259Y1588654D03*
D29*
X907179Y2190554D03*
X907179Y2210554D03*
D30*
X855179Y2166554D03*
X855179Y2234554D03*
D11*
X1038699Y1800504D03*
X1021699Y1800504D03*
D10*
X1035469Y1791304D02*
X1035469Y1784304D01*
X1035469Y1791304D02*
X1042469Y1791304D01*
X1042469Y1784304D01*
X1035469Y1784304D01*
X1035469Y1787154D02*
X1042469Y1787154D01*
X1042469Y1790004D02*
X1035469Y1790004D01*
X1017929Y1791304D02*
X1017929Y1784304D01*
X1017929Y1791304D02*
X1024929Y1791304D01*
X1024929Y1784304D01*
X1017929Y1784304D01*
X1017929Y1787154D02*
X1024929Y1787154D01*
X1024929Y1790004D02*
X1017929Y1790004D01*
D11*
X1038699Y1724304D03*
X1021699Y1724304D03*
D10*
X1035469Y1715104D02*
X1035469Y1708104D01*
X1035469Y1715104D02*
X1042469Y1715104D01*
X1042469Y1708104D01*
X1035469Y1708104D01*
X1035469Y1710954D02*
X1042469Y1710954D01*
X1042469Y1713804D02*
X1035469Y1713804D01*
X1017929Y1715104D02*
X1017929Y1708104D01*
X1017929Y1715104D02*
X1024929Y1715104D01*
X1024929Y1708104D01*
X1017929Y1708104D01*
X1017929Y1710954D02*
X1024929Y1710954D01*
X1024929Y1713804D02*
X1017929Y1713804D01*
D11*
X1038699Y1648104D03*
X1021699Y1648104D03*
D10*
X1035469Y1638904D02*
X1035469Y1631904D01*
X1035469Y1638904D02*
X1042469Y1638904D01*
X1042469Y1631904D01*
X1035469Y1631904D01*
X1035469Y1634754D02*
X1042469Y1634754D01*
X1042469Y1637604D02*
X1035469Y1637604D01*
X1017929Y1638904D02*
X1017929Y1631904D01*
X1017929Y1638904D02*
X1024929Y1638904D01*
X1024929Y1631904D01*
X1017929Y1631904D01*
X1017929Y1634754D02*
X1024929Y1634754D01*
X1024929Y1637604D02*
X1017929Y1637604D01*
D27*
X797629Y1640654D03*
X777629Y1640654D03*
D28*
X821629Y1588654D03*
X753629Y1588654D03*
D19*
X1207879Y1230524D03*
X1202879Y1230524D03*
D20*
X1232629Y1230524D03*
X1224879Y1230524D03*
D19*
X1217879Y1230524D03*
X1212879Y1230524D03*
X1192879Y1230524D03*
X1197879Y1230524D03*
D20*
X1168129Y1230524D03*
X1175879Y1230524D03*
D19*
X1182879Y1230524D03*
X1187879Y1230524D03*
D11*
X1246979Y1270754D03*
X1229979Y1270754D03*
X1153779Y1270754D03*
X1170779Y1270754D03*
D31*
X838729Y1217394D03*
D32*
X894729Y1185394D03*
X820229Y1185394D03*
D31*
X851229Y1217394D03*
X863729Y1217394D03*
X876229Y1217394D03*
X1295929Y1217394D03*
D32*
X1351929Y1185394D03*
X1277429Y1185394D03*
D31*
X1308429Y1217394D03*
X1320929Y1217394D03*
X1333429Y1217394D03*
D11*
X1150459Y1800504D03*
X1133459Y1800504D03*
D10*
X1147229Y1791304D02*
X1147229Y1784304D01*
X1147229Y1791304D02*
X1154229Y1791304D01*
X1154229Y1784304D01*
X1147229Y1784304D01*
X1147229Y1787154D02*
X1154229Y1787154D01*
X1154229Y1790004D02*
X1147229Y1790004D01*
X1129689Y1791304D02*
X1129689Y1784304D01*
X1129689Y1791304D02*
X1136689Y1791304D01*
X1136689Y1784304D01*
X1129689Y1784304D01*
X1129689Y1787154D02*
X1136689Y1787154D01*
X1136689Y1790004D02*
X1129689Y1790004D01*
D25*
X1244679Y1439254D03*
D26*
X1244679Y1447254D03*
X1244679Y1455254D03*
D25*
X1244679Y1463254D03*
X1231679Y1463254D03*
D26*
X1231679Y1455254D03*
X1231679Y1447254D03*
D25*
X1231679Y1439254D03*
D11*
X1254599Y1346954D03*
X1237599Y1346954D03*
D33*
X1211879Y1283454D03*
X1188879Y1283454D03*
D34*
X1249129Y1535914D03*
X1249129Y1524914D03*
X1249129Y1513914D03*
X1278629Y1513914D03*
X1278629Y1524914D03*
X1278629Y1535914D03*
D11*
X1231739Y1540154D03*
X1214739Y1540154D03*
X1231739Y1509674D03*
X1214739Y1509674D03*
X1231739Y1524914D03*
X1214739Y1524914D03*
D13*
X1099080Y1619554D03*
X1099080Y1629054D03*
X1099080Y1638554D03*
X1073078Y1638554D03*
X1073078Y1619554D03*
D11*
X1094579Y1654454D03*
X1077579Y1654454D03*
X1077579Y1603654D03*
X1094579Y1603654D03*
D35*
X841929Y1387354D03*
X841929Y1362354D03*
X841929Y1337354D03*
X898429Y1387354D03*
X898429Y1362354D03*
X898429Y1337354D03*
X841929Y1514354D03*
X841929Y1489354D03*
X841929Y1464354D03*
X898429Y1514354D03*
X898429Y1489354D03*
X898429Y1464354D03*
D21*
X1195379Y1307504D03*
D22*
X1200379Y1307254D03*
X1205379Y1307254D03*
X1205379Y1315854D03*
X1200379Y1315854D03*
X1195379Y1315854D03*
D36*
X814359Y1828364D03*
X758359Y1828364D03*
D37*
X801359Y1791614D03*
X791359Y1791614D03*
X781359Y1791614D03*
X771359Y1791614D03*
M02*
