G04 EAGLE Gerber RS-274X export*
G75*
%MOMM*%
%FSLAX34Y34*%
%LPD*%
%INSolderpaste Top*%
%IPPOS*%
%AMOC8*
5,1,8,0,0,1.08239X$1,22.5*%
G01*
%ADD10C,0.300000*%
%ADD11R,1.100000X1.000000*%
%ADD12R,1.000000X1.100000*%
%ADD13R,1.200000X0.550000*%
%ADD14R,0.900000X0.850000*%
%ADD15R,0.600000X0.600000*%
%ADD16R,0.850000X1.520000*%
%ADD17R,1.520000X0.850000*%
%ADD18R,0.900000X0.900000*%
%ADD19R,0.300000X1.000000*%
%ADD20R,0.600000X1.000000*%
%ADD21R,0.250000X0.610000*%
%ADD22R,0.250000X0.560000*%
%ADD23R,1.100000X2.400000*%
%ADD24R,1.250000X7.000000*%
%ADD25R,0.550000X0.800000*%
%ADD26R,0.550000X0.500000*%
%ADD27R,1.000000X4.600000*%
%ADD28R,1.600000X3.400000*%
%ADD29R,4.600000X1.000000*%
%ADD30R,3.400000X1.600000*%
%ADD31R,0.600000X1.700000*%
%ADD32R,1.000000X2.700000*%
%ADD33R,0.630000X0.830000*%
%ADD34R,1.300000X0.700000*%
%ADD35R,1.150000X1.000000*%
%ADD36R,1.200000X2.000000*%
%ADD37R,0.600000X1.350000*%

G36*
X1071700Y41860D02*
X1071700Y41860D01*
X1071701Y41861D01*
X1071701Y41860D01*
X1072769Y41879D01*
X1072776Y41884D01*
X1072780Y41881D01*
X1073817Y42137D01*
X1073822Y42143D01*
X1073828Y42141D01*
X1074782Y42621D01*
X1074786Y42629D01*
X1074791Y42627D01*
X1075615Y43308D01*
X1075616Y43316D01*
X1075622Y43316D01*
X1076273Y44163D01*
X1076273Y44171D01*
X1076279Y44173D01*
X1076726Y45143D01*
X1076724Y45151D01*
X1076729Y45154D01*
X1076948Y46200D01*
X1076945Y46206D01*
X1076949Y46210D01*
X1076949Y58210D01*
X1076946Y58214D01*
X1076949Y58218D01*
X1076769Y59313D01*
X1076763Y59318D01*
X1076766Y59323D01*
X1076347Y60351D01*
X1076340Y60355D01*
X1076342Y60361D01*
X1075705Y61270D01*
X1075697Y61272D01*
X1075697Y61278D01*
X1074874Y62022D01*
X1074866Y62023D01*
X1074865Y62029D01*
X1073897Y62571D01*
X1073888Y62570D01*
X1073886Y62575D01*
X1072822Y62888D01*
X1072817Y62887D01*
X1072813Y62887D01*
X1072811Y62890D01*
X1071703Y62959D01*
X1071697Y62954D01*
X1071693Y62958D01*
X1070585Y62788D01*
X1070579Y62783D01*
X1070574Y62786D01*
X1069532Y62373D01*
X1069528Y62366D01*
X1069523Y62368D01*
X1068598Y61735D01*
X1068596Y61727D01*
X1068590Y61727D01*
X1067830Y60904D01*
X1067829Y60896D01*
X1067823Y60895D01*
X1067266Y59923D01*
X1067267Y59915D01*
X1067261Y59913D01*
X1066934Y58842D01*
X1066937Y58834D01*
X1066932Y58831D01*
X1066851Y57713D01*
X1066852Y57711D01*
X1066851Y57710D01*
X1066851Y45710D01*
X1066856Y45703D01*
X1066852Y45698D01*
X1067071Y44754D01*
X1067077Y44749D01*
X1067075Y44744D01*
X1067499Y43872D01*
X1067506Y43868D01*
X1067504Y43863D01*
X1068111Y43107D01*
X1068119Y43105D01*
X1068119Y43099D01*
X1068879Y42497D01*
X1068888Y42497D01*
X1068889Y42492D01*
X1069764Y42074D01*
X1069772Y42076D01*
X1069774Y42070D01*
X1070720Y41858D01*
X1070727Y41862D01*
X1070731Y41857D01*
X1071700Y41860D01*
G37*
G36*
X1186000Y41860D02*
X1186000Y41860D01*
X1186001Y41861D01*
X1186001Y41860D01*
X1187069Y41879D01*
X1187076Y41884D01*
X1187080Y41881D01*
X1188117Y42137D01*
X1188122Y42143D01*
X1188128Y42141D01*
X1189082Y42621D01*
X1189086Y42629D01*
X1189091Y42627D01*
X1189915Y43308D01*
X1189916Y43316D01*
X1189922Y43316D01*
X1190573Y44163D01*
X1190573Y44171D01*
X1190579Y44173D01*
X1191026Y45143D01*
X1191024Y45151D01*
X1191029Y45154D01*
X1191248Y46200D01*
X1191245Y46206D01*
X1191249Y46210D01*
X1191249Y58210D01*
X1191246Y58214D01*
X1191249Y58218D01*
X1191069Y59313D01*
X1191063Y59318D01*
X1191066Y59323D01*
X1190647Y60351D01*
X1190640Y60355D01*
X1190642Y60361D01*
X1190005Y61270D01*
X1189997Y61272D01*
X1189997Y61278D01*
X1189174Y62022D01*
X1189166Y62023D01*
X1189165Y62029D01*
X1188197Y62571D01*
X1188188Y62570D01*
X1188186Y62575D01*
X1187122Y62888D01*
X1187117Y62887D01*
X1187113Y62887D01*
X1187111Y62890D01*
X1186003Y62959D01*
X1185997Y62954D01*
X1185993Y62958D01*
X1184885Y62788D01*
X1184879Y62783D01*
X1184874Y62786D01*
X1183832Y62373D01*
X1183828Y62366D01*
X1183823Y62368D01*
X1182898Y61735D01*
X1182896Y61727D01*
X1182890Y61727D01*
X1182130Y60904D01*
X1182129Y60896D01*
X1182123Y60895D01*
X1181566Y59923D01*
X1181567Y59915D01*
X1181561Y59913D01*
X1181234Y58842D01*
X1181237Y58834D01*
X1181232Y58831D01*
X1181151Y57713D01*
X1181152Y57711D01*
X1181151Y57710D01*
X1181151Y45710D01*
X1181156Y45703D01*
X1181152Y45698D01*
X1181371Y44754D01*
X1181377Y44749D01*
X1181375Y44744D01*
X1181799Y43872D01*
X1181806Y43868D01*
X1181804Y43863D01*
X1182411Y43107D01*
X1182419Y43105D01*
X1182419Y43099D01*
X1183179Y42497D01*
X1183188Y42497D01*
X1183189Y42492D01*
X1184064Y42074D01*
X1184072Y42076D01*
X1184074Y42070D01*
X1185020Y41858D01*
X1185027Y41862D01*
X1185031Y41857D01*
X1186000Y41860D01*
G37*
G36*
X384630Y41860D02*
X384630Y41860D01*
X384631Y41861D01*
X384631Y41860D01*
X385699Y41879D01*
X385706Y41884D01*
X385710Y41881D01*
X386747Y42137D01*
X386752Y42143D01*
X386758Y42141D01*
X387712Y42621D01*
X387716Y42629D01*
X387721Y42627D01*
X388545Y43308D01*
X388546Y43316D01*
X388552Y43316D01*
X389203Y44163D01*
X389203Y44171D01*
X389209Y44173D01*
X389656Y45143D01*
X389654Y45151D01*
X389659Y45154D01*
X389878Y46200D01*
X389875Y46206D01*
X389879Y46210D01*
X389879Y58210D01*
X389876Y58214D01*
X389879Y58218D01*
X389699Y59313D01*
X389693Y59318D01*
X389696Y59323D01*
X389277Y60351D01*
X389270Y60355D01*
X389272Y60361D01*
X388635Y61270D01*
X388627Y61272D01*
X388627Y61278D01*
X387804Y62022D01*
X387796Y62023D01*
X387795Y62029D01*
X386827Y62571D01*
X386818Y62570D01*
X386816Y62575D01*
X385752Y62888D01*
X385747Y62887D01*
X385743Y62887D01*
X385741Y62890D01*
X384633Y62959D01*
X384627Y62954D01*
X384623Y62958D01*
X383515Y62788D01*
X383509Y62783D01*
X383504Y62786D01*
X382462Y62373D01*
X382458Y62366D01*
X382453Y62368D01*
X381528Y61735D01*
X381526Y61727D01*
X381520Y61727D01*
X380760Y60904D01*
X380759Y60896D01*
X380753Y60895D01*
X380196Y59923D01*
X380197Y59915D01*
X380191Y59913D01*
X379864Y58842D01*
X379867Y58834D01*
X379862Y58831D01*
X379781Y57713D01*
X379782Y57711D01*
X379781Y57710D01*
X379781Y45710D01*
X379786Y45703D01*
X379782Y45698D01*
X380001Y44754D01*
X380007Y44749D01*
X380005Y44744D01*
X380429Y43872D01*
X380436Y43868D01*
X380434Y43863D01*
X381041Y43107D01*
X381049Y43105D01*
X381049Y43099D01*
X381809Y42497D01*
X381818Y42497D01*
X381819Y42492D01*
X382694Y42074D01*
X382702Y42076D01*
X382704Y42070D01*
X383650Y41858D01*
X383657Y41862D01*
X383661Y41857D01*
X384630Y41860D01*
G37*
G36*
X1873070Y41860D02*
X1873070Y41860D01*
X1873071Y41861D01*
X1873071Y41860D01*
X1874139Y41879D01*
X1874146Y41884D01*
X1874150Y41881D01*
X1875187Y42137D01*
X1875192Y42143D01*
X1875198Y42141D01*
X1876152Y42621D01*
X1876156Y42629D01*
X1876161Y42627D01*
X1876985Y43308D01*
X1876986Y43316D01*
X1876992Y43316D01*
X1877643Y44163D01*
X1877643Y44171D01*
X1877649Y44173D01*
X1878096Y45143D01*
X1878094Y45151D01*
X1878099Y45154D01*
X1878318Y46200D01*
X1878315Y46206D01*
X1878319Y46210D01*
X1878319Y58210D01*
X1878316Y58214D01*
X1878319Y58218D01*
X1878139Y59313D01*
X1878133Y59318D01*
X1878136Y59323D01*
X1877717Y60351D01*
X1877710Y60355D01*
X1877712Y60361D01*
X1877075Y61270D01*
X1877067Y61272D01*
X1877067Y61278D01*
X1876244Y62022D01*
X1876236Y62023D01*
X1876235Y62029D01*
X1875267Y62571D01*
X1875258Y62570D01*
X1875256Y62575D01*
X1874192Y62888D01*
X1874187Y62887D01*
X1874183Y62887D01*
X1874181Y62890D01*
X1873073Y62959D01*
X1873067Y62954D01*
X1873063Y62958D01*
X1871955Y62788D01*
X1871949Y62783D01*
X1871944Y62786D01*
X1870902Y62373D01*
X1870898Y62366D01*
X1870893Y62368D01*
X1869968Y61735D01*
X1869966Y61727D01*
X1869960Y61727D01*
X1869200Y60904D01*
X1869199Y60896D01*
X1869193Y60895D01*
X1868636Y59923D01*
X1868637Y59915D01*
X1868631Y59913D01*
X1868304Y58842D01*
X1868307Y58834D01*
X1868302Y58831D01*
X1868221Y57713D01*
X1868222Y57711D01*
X1868221Y57710D01*
X1868221Y45710D01*
X1868226Y45703D01*
X1868222Y45698D01*
X1868441Y44754D01*
X1868447Y44749D01*
X1868445Y44744D01*
X1868869Y43872D01*
X1868876Y43868D01*
X1868874Y43863D01*
X1869481Y43107D01*
X1869489Y43105D01*
X1869489Y43099D01*
X1870249Y42497D01*
X1870258Y42497D01*
X1870259Y42492D01*
X1871134Y42074D01*
X1871142Y42076D01*
X1871144Y42070D01*
X1872090Y41858D01*
X1872097Y41862D01*
X1872101Y41857D01*
X1873070Y41860D01*
G37*
G36*
X498930Y41860D02*
X498930Y41860D01*
X498931Y41861D01*
X498931Y41860D01*
X499999Y41879D01*
X500006Y41884D01*
X500010Y41881D01*
X501047Y42137D01*
X501052Y42143D01*
X501058Y42141D01*
X502012Y42621D01*
X502016Y42629D01*
X502021Y42627D01*
X502845Y43308D01*
X502846Y43316D01*
X502852Y43316D01*
X503503Y44163D01*
X503503Y44171D01*
X503509Y44173D01*
X503956Y45143D01*
X503954Y45151D01*
X503959Y45154D01*
X504178Y46200D01*
X504175Y46206D01*
X504179Y46210D01*
X504179Y58210D01*
X504176Y58214D01*
X504179Y58218D01*
X503999Y59313D01*
X503993Y59318D01*
X503996Y59323D01*
X503577Y60351D01*
X503570Y60355D01*
X503572Y60361D01*
X502935Y61270D01*
X502927Y61272D01*
X502927Y61278D01*
X502104Y62022D01*
X502096Y62023D01*
X502095Y62029D01*
X501127Y62571D01*
X501118Y62570D01*
X501116Y62575D01*
X500052Y62888D01*
X500047Y62887D01*
X500043Y62887D01*
X500041Y62890D01*
X498933Y62959D01*
X498927Y62954D01*
X498923Y62958D01*
X497815Y62788D01*
X497809Y62783D01*
X497804Y62786D01*
X496762Y62373D01*
X496758Y62366D01*
X496753Y62368D01*
X495828Y61735D01*
X495826Y61727D01*
X495820Y61727D01*
X495060Y60904D01*
X495059Y60896D01*
X495053Y60895D01*
X494496Y59923D01*
X494497Y59915D01*
X494491Y59913D01*
X494164Y58842D01*
X494167Y58834D01*
X494162Y58831D01*
X494081Y57713D01*
X494082Y57711D01*
X494081Y57710D01*
X494081Y45710D01*
X494086Y45703D01*
X494082Y45698D01*
X494301Y44754D01*
X494307Y44749D01*
X494305Y44744D01*
X494729Y43872D01*
X494736Y43868D01*
X494734Y43863D01*
X495341Y43107D01*
X495349Y43105D01*
X495349Y43099D01*
X496109Y42497D01*
X496118Y42497D01*
X496119Y42492D01*
X496994Y42074D01*
X497002Y42076D01*
X497004Y42070D01*
X497950Y41858D01*
X497957Y41862D01*
X497961Y41857D01*
X498930Y41860D01*
G37*
G36*
X1758770Y41860D02*
X1758770Y41860D01*
X1758771Y41861D01*
X1758771Y41860D01*
X1759839Y41879D01*
X1759846Y41884D01*
X1759850Y41881D01*
X1760887Y42137D01*
X1760892Y42143D01*
X1760898Y42141D01*
X1761852Y42621D01*
X1761856Y42629D01*
X1761861Y42627D01*
X1762685Y43308D01*
X1762686Y43316D01*
X1762692Y43316D01*
X1763343Y44163D01*
X1763343Y44171D01*
X1763349Y44173D01*
X1763796Y45143D01*
X1763794Y45151D01*
X1763799Y45154D01*
X1764018Y46200D01*
X1764015Y46206D01*
X1764019Y46210D01*
X1764019Y58210D01*
X1764016Y58214D01*
X1764019Y58218D01*
X1763839Y59313D01*
X1763833Y59318D01*
X1763836Y59323D01*
X1763417Y60351D01*
X1763410Y60355D01*
X1763412Y60361D01*
X1762775Y61270D01*
X1762767Y61272D01*
X1762767Y61278D01*
X1761944Y62022D01*
X1761936Y62023D01*
X1761935Y62029D01*
X1760967Y62571D01*
X1760958Y62570D01*
X1760956Y62575D01*
X1759892Y62888D01*
X1759887Y62887D01*
X1759883Y62887D01*
X1759881Y62890D01*
X1758773Y62959D01*
X1758767Y62954D01*
X1758763Y62958D01*
X1757655Y62788D01*
X1757649Y62783D01*
X1757644Y62786D01*
X1756602Y62373D01*
X1756598Y62366D01*
X1756593Y62368D01*
X1755668Y61735D01*
X1755666Y61727D01*
X1755660Y61727D01*
X1754900Y60904D01*
X1754899Y60896D01*
X1754893Y60895D01*
X1754336Y59923D01*
X1754337Y59915D01*
X1754331Y59913D01*
X1754004Y58842D01*
X1754007Y58834D01*
X1754002Y58831D01*
X1753921Y57713D01*
X1753922Y57711D01*
X1753921Y57710D01*
X1753921Y45710D01*
X1753926Y45703D01*
X1753922Y45698D01*
X1754141Y44754D01*
X1754147Y44749D01*
X1754145Y44744D01*
X1754569Y43872D01*
X1754576Y43868D01*
X1754574Y43863D01*
X1755181Y43107D01*
X1755189Y43105D01*
X1755189Y43099D01*
X1755949Y42497D01*
X1755958Y42497D01*
X1755959Y42492D01*
X1756834Y42074D01*
X1756842Y42076D01*
X1756844Y42070D01*
X1757790Y41858D01*
X1757797Y41862D01*
X1757801Y41857D01*
X1758770Y41860D01*
G37*
G36*
X299211Y41869D02*
X299211Y41869D01*
X299218Y41874D01*
X299222Y41871D01*
X300274Y42120D01*
X300279Y42126D01*
X300284Y42124D01*
X301254Y42601D01*
X301257Y42608D01*
X301263Y42607D01*
X302102Y43288D01*
X302104Y43296D01*
X302110Y43296D01*
X302776Y44146D01*
X302777Y44154D01*
X302782Y44155D01*
X303243Y45133D01*
X303241Y45141D01*
X303247Y45143D01*
X303478Y46199D01*
X303475Y46206D01*
X303479Y46210D01*
X303479Y58210D01*
X303475Y58215D01*
X303479Y58218D01*
X303286Y59323D01*
X303280Y59329D01*
X303283Y59334D01*
X302850Y60368D01*
X302843Y60372D01*
X302845Y60378D01*
X302192Y61290D01*
X302184Y61293D01*
X302185Y61298D01*
X301346Y62043D01*
X301337Y62043D01*
X301337Y62049D01*
X300353Y62588D01*
X300345Y62587D01*
X300343Y62592D01*
X299264Y62898D01*
X299256Y62895D01*
X299253Y62900D01*
X298133Y62959D01*
X298128Y62955D01*
X298125Y62959D01*
X297079Y62841D01*
X297073Y62835D01*
X297068Y62838D01*
X296074Y62491D01*
X296070Y62484D01*
X296065Y62486D01*
X295173Y61926D01*
X295171Y61918D01*
X295165Y61919D01*
X294421Y61175D01*
X294419Y61167D01*
X294414Y61166D01*
X293854Y60275D01*
X293854Y60267D01*
X293849Y60265D01*
X293501Y59272D01*
X293504Y59264D01*
X293499Y59261D01*
X293381Y58215D01*
X293383Y58211D01*
X293381Y58210D01*
X293381Y46210D01*
X293384Y46205D01*
X293381Y46202D01*
X293539Y45206D01*
X293545Y45200D01*
X293542Y45195D01*
X293917Y44259D01*
X293924Y44254D01*
X293922Y44249D01*
X294496Y43420D01*
X294504Y43417D01*
X294503Y43411D01*
X295247Y42730D01*
X295256Y42730D01*
X295256Y42724D01*
X296133Y42226D01*
X296142Y42227D01*
X296144Y42221D01*
X297109Y41931D01*
X297117Y41934D01*
X297120Y41929D01*
X298127Y41860D01*
X298129Y41862D01*
X298130Y41860D01*
X299211Y41869D01*
G37*
G36*
X1787651Y41869D02*
X1787651Y41869D01*
X1787658Y41874D01*
X1787662Y41871D01*
X1788714Y42120D01*
X1788719Y42126D01*
X1788724Y42124D01*
X1789694Y42601D01*
X1789697Y42608D01*
X1789703Y42607D01*
X1790542Y43288D01*
X1790544Y43296D01*
X1790550Y43296D01*
X1791216Y44146D01*
X1791217Y44154D01*
X1791222Y44155D01*
X1791683Y45133D01*
X1791681Y45141D01*
X1791687Y45143D01*
X1791918Y46199D01*
X1791915Y46206D01*
X1791919Y46210D01*
X1791919Y58210D01*
X1791915Y58215D01*
X1791919Y58218D01*
X1791726Y59323D01*
X1791720Y59329D01*
X1791723Y59334D01*
X1791290Y60368D01*
X1791283Y60372D01*
X1791285Y60378D01*
X1790632Y61290D01*
X1790624Y61293D01*
X1790625Y61298D01*
X1789786Y62043D01*
X1789777Y62043D01*
X1789777Y62049D01*
X1788793Y62588D01*
X1788785Y62587D01*
X1788783Y62592D01*
X1787704Y62898D01*
X1787696Y62895D01*
X1787693Y62900D01*
X1786573Y62959D01*
X1786568Y62955D01*
X1786565Y62959D01*
X1785519Y62841D01*
X1785513Y62835D01*
X1785508Y62838D01*
X1784514Y62491D01*
X1784510Y62484D01*
X1784505Y62486D01*
X1783613Y61926D01*
X1783611Y61918D01*
X1783605Y61919D01*
X1782861Y61175D01*
X1782859Y61167D01*
X1782854Y61166D01*
X1782294Y60275D01*
X1782294Y60267D01*
X1782289Y60265D01*
X1781941Y59272D01*
X1781944Y59264D01*
X1781939Y59261D01*
X1781821Y58215D01*
X1781823Y58211D01*
X1781821Y58210D01*
X1781821Y46210D01*
X1781824Y46205D01*
X1781821Y46202D01*
X1781979Y45206D01*
X1781985Y45200D01*
X1781982Y45195D01*
X1782357Y44259D01*
X1782364Y44254D01*
X1782362Y44249D01*
X1782936Y43420D01*
X1782944Y43417D01*
X1782943Y43411D01*
X1783687Y42730D01*
X1783696Y42730D01*
X1783696Y42724D01*
X1784573Y42226D01*
X1784582Y42227D01*
X1784584Y42221D01*
X1785549Y41931D01*
X1785557Y41934D01*
X1785560Y41929D01*
X1786567Y41860D01*
X1786569Y41862D01*
X1786570Y41860D01*
X1787651Y41869D01*
G37*
G36*
X1673351Y41869D02*
X1673351Y41869D01*
X1673358Y41874D01*
X1673362Y41871D01*
X1674414Y42120D01*
X1674419Y42126D01*
X1674424Y42124D01*
X1675394Y42601D01*
X1675397Y42608D01*
X1675403Y42607D01*
X1676242Y43288D01*
X1676244Y43296D01*
X1676250Y43296D01*
X1676916Y44146D01*
X1676917Y44154D01*
X1676922Y44155D01*
X1677383Y45133D01*
X1677381Y45141D01*
X1677387Y45143D01*
X1677618Y46199D01*
X1677615Y46206D01*
X1677619Y46210D01*
X1677619Y58210D01*
X1677615Y58215D01*
X1677619Y58218D01*
X1677426Y59323D01*
X1677420Y59329D01*
X1677423Y59334D01*
X1676990Y60368D01*
X1676983Y60372D01*
X1676985Y60378D01*
X1676332Y61290D01*
X1676324Y61293D01*
X1676325Y61298D01*
X1675486Y62043D01*
X1675477Y62043D01*
X1675477Y62049D01*
X1674493Y62588D01*
X1674485Y62587D01*
X1674483Y62592D01*
X1673404Y62898D01*
X1673396Y62895D01*
X1673393Y62900D01*
X1672273Y62959D01*
X1672268Y62955D01*
X1672265Y62959D01*
X1671219Y62841D01*
X1671213Y62835D01*
X1671208Y62838D01*
X1670214Y62491D01*
X1670210Y62484D01*
X1670205Y62486D01*
X1669313Y61926D01*
X1669311Y61918D01*
X1669305Y61919D01*
X1668561Y61175D01*
X1668559Y61167D01*
X1668554Y61166D01*
X1667994Y60275D01*
X1667994Y60267D01*
X1667989Y60265D01*
X1667641Y59272D01*
X1667644Y59264D01*
X1667639Y59261D01*
X1667521Y58215D01*
X1667523Y58211D01*
X1667521Y58210D01*
X1667521Y46210D01*
X1667524Y46205D01*
X1667521Y46202D01*
X1667679Y45206D01*
X1667685Y45200D01*
X1667682Y45195D01*
X1668057Y44259D01*
X1668064Y44254D01*
X1668062Y44249D01*
X1668636Y43420D01*
X1668644Y43417D01*
X1668643Y43411D01*
X1669387Y42730D01*
X1669396Y42730D01*
X1669396Y42724D01*
X1670273Y42226D01*
X1670282Y42227D01*
X1670284Y42221D01*
X1671249Y41931D01*
X1671257Y41934D01*
X1671260Y41929D01*
X1672267Y41860D01*
X1672269Y41862D01*
X1672270Y41860D01*
X1673351Y41869D01*
G37*
G36*
X986281Y41869D02*
X986281Y41869D01*
X986288Y41874D01*
X986292Y41871D01*
X987344Y42120D01*
X987349Y42126D01*
X987354Y42124D01*
X988324Y42601D01*
X988327Y42608D01*
X988333Y42607D01*
X989172Y43288D01*
X989174Y43296D01*
X989180Y43296D01*
X989846Y44146D01*
X989847Y44154D01*
X989852Y44155D01*
X990313Y45133D01*
X990311Y45141D01*
X990317Y45143D01*
X990548Y46199D01*
X990545Y46206D01*
X990549Y46210D01*
X990549Y58210D01*
X990545Y58215D01*
X990549Y58218D01*
X990356Y59323D01*
X990350Y59329D01*
X990353Y59334D01*
X989920Y60368D01*
X989913Y60372D01*
X989915Y60378D01*
X989262Y61290D01*
X989254Y61293D01*
X989255Y61298D01*
X988416Y62043D01*
X988407Y62043D01*
X988407Y62049D01*
X987423Y62588D01*
X987415Y62587D01*
X987413Y62592D01*
X986334Y62898D01*
X986326Y62895D01*
X986323Y62900D01*
X985203Y62959D01*
X985198Y62955D01*
X985195Y62959D01*
X984149Y62841D01*
X984143Y62835D01*
X984138Y62838D01*
X983144Y62491D01*
X983140Y62484D01*
X983135Y62486D01*
X982243Y61926D01*
X982241Y61918D01*
X982235Y61919D01*
X981491Y61175D01*
X981489Y61167D01*
X981484Y61166D01*
X980924Y60275D01*
X980924Y60267D01*
X980919Y60265D01*
X980571Y59272D01*
X980574Y59264D01*
X980569Y59261D01*
X980451Y58215D01*
X980453Y58211D01*
X980451Y58210D01*
X980451Y46210D01*
X980454Y46205D01*
X980451Y46202D01*
X980609Y45206D01*
X980615Y45200D01*
X980612Y45195D01*
X980987Y44259D01*
X980994Y44254D01*
X980992Y44249D01*
X981566Y43420D01*
X981574Y43417D01*
X981573Y43411D01*
X982317Y42730D01*
X982326Y42730D01*
X982326Y42724D01*
X983203Y42226D01*
X983212Y42227D01*
X983214Y42221D01*
X984179Y41931D01*
X984187Y41934D01*
X984190Y41929D01*
X985197Y41860D01*
X985199Y41862D01*
X985200Y41860D01*
X986281Y41869D01*
G37*
G36*
X1100581Y41869D02*
X1100581Y41869D01*
X1100588Y41874D01*
X1100592Y41871D01*
X1101644Y42120D01*
X1101649Y42126D01*
X1101654Y42124D01*
X1102624Y42601D01*
X1102627Y42608D01*
X1102633Y42607D01*
X1103472Y43288D01*
X1103474Y43296D01*
X1103480Y43296D01*
X1104146Y44146D01*
X1104147Y44154D01*
X1104152Y44155D01*
X1104613Y45133D01*
X1104611Y45141D01*
X1104617Y45143D01*
X1104848Y46199D01*
X1104845Y46206D01*
X1104849Y46210D01*
X1104849Y58210D01*
X1104845Y58215D01*
X1104849Y58218D01*
X1104656Y59323D01*
X1104650Y59329D01*
X1104653Y59334D01*
X1104220Y60368D01*
X1104213Y60372D01*
X1104215Y60378D01*
X1103562Y61290D01*
X1103554Y61293D01*
X1103555Y61298D01*
X1102716Y62043D01*
X1102707Y62043D01*
X1102707Y62049D01*
X1101723Y62588D01*
X1101715Y62587D01*
X1101713Y62592D01*
X1100634Y62898D01*
X1100626Y62895D01*
X1100623Y62900D01*
X1099503Y62959D01*
X1099498Y62955D01*
X1099495Y62959D01*
X1098449Y62841D01*
X1098443Y62835D01*
X1098438Y62838D01*
X1097444Y62491D01*
X1097440Y62484D01*
X1097435Y62486D01*
X1096543Y61926D01*
X1096541Y61918D01*
X1096535Y61919D01*
X1095791Y61175D01*
X1095789Y61167D01*
X1095784Y61166D01*
X1095224Y60275D01*
X1095224Y60267D01*
X1095219Y60265D01*
X1094871Y59272D01*
X1094874Y59264D01*
X1094869Y59261D01*
X1094751Y58215D01*
X1094753Y58211D01*
X1094751Y58210D01*
X1094751Y46210D01*
X1094754Y46205D01*
X1094751Y46202D01*
X1094909Y45206D01*
X1094915Y45200D01*
X1094912Y45195D01*
X1095287Y44259D01*
X1095294Y44254D01*
X1095292Y44249D01*
X1095866Y43420D01*
X1095874Y43417D01*
X1095873Y43411D01*
X1096617Y42730D01*
X1096626Y42730D01*
X1096626Y42724D01*
X1097503Y42226D01*
X1097512Y42227D01*
X1097514Y42221D01*
X1098479Y41931D01*
X1098487Y41934D01*
X1098490Y41929D01*
X1099497Y41860D01*
X1099499Y41862D01*
X1099500Y41860D01*
X1100581Y41869D01*
G37*
G36*
X413511Y41869D02*
X413511Y41869D01*
X413518Y41874D01*
X413522Y41871D01*
X414574Y42120D01*
X414579Y42126D01*
X414584Y42124D01*
X415554Y42601D01*
X415557Y42608D01*
X415563Y42607D01*
X416402Y43288D01*
X416404Y43296D01*
X416410Y43296D01*
X417076Y44146D01*
X417077Y44154D01*
X417082Y44155D01*
X417543Y45133D01*
X417541Y45141D01*
X417547Y45143D01*
X417778Y46199D01*
X417775Y46206D01*
X417779Y46210D01*
X417779Y58210D01*
X417775Y58215D01*
X417779Y58218D01*
X417586Y59323D01*
X417580Y59329D01*
X417583Y59334D01*
X417150Y60368D01*
X417143Y60372D01*
X417145Y60378D01*
X416492Y61290D01*
X416484Y61293D01*
X416485Y61298D01*
X415646Y62043D01*
X415637Y62043D01*
X415637Y62049D01*
X414653Y62588D01*
X414645Y62587D01*
X414643Y62592D01*
X413564Y62898D01*
X413556Y62895D01*
X413553Y62900D01*
X412433Y62959D01*
X412428Y62955D01*
X412425Y62959D01*
X411379Y62841D01*
X411373Y62835D01*
X411368Y62838D01*
X410374Y62491D01*
X410370Y62484D01*
X410365Y62486D01*
X409473Y61926D01*
X409471Y61918D01*
X409465Y61919D01*
X408721Y61175D01*
X408719Y61167D01*
X408714Y61166D01*
X408154Y60275D01*
X408154Y60267D01*
X408149Y60265D01*
X407801Y59272D01*
X407804Y59264D01*
X407799Y59261D01*
X407681Y58215D01*
X407683Y58211D01*
X407681Y58210D01*
X407681Y46210D01*
X407684Y46205D01*
X407681Y46202D01*
X407839Y45206D01*
X407845Y45200D01*
X407842Y45195D01*
X408217Y44259D01*
X408224Y44254D01*
X408222Y44249D01*
X408796Y43420D01*
X408804Y43417D01*
X408803Y43411D01*
X409547Y42730D01*
X409556Y42730D01*
X409556Y42724D01*
X410433Y42226D01*
X410442Y42227D01*
X410444Y42221D01*
X411409Y41931D01*
X411417Y41934D01*
X411420Y41929D01*
X412427Y41860D01*
X412429Y41862D01*
X412430Y41860D01*
X413511Y41869D01*
G37*
G36*
X1186504Y2364D02*
X1186504Y2364D01*
X1186507Y2361D01*
X1187583Y2516D01*
X1187588Y2522D01*
X1187593Y2519D01*
X1188607Y2909D01*
X1188611Y2916D01*
X1188617Y2914D01*
X1189519Y3520D01*
X1189521Y3528D01*
X1189527Y3528D01*
X1190271Y4319D01*
X1190272Y4327D01*
X1190278Y4328D01*
X1190827Y5266D01*
X1190826Y5274D01*
X1190832Y5276D01*
X1191159Y6312D01*
X1191156Y6320D01*
X1191161Y6323D01*
X1191249Y7406D01*
X1191247Y7408D01*
X1191249Y7410D01*
X1191249Y13410D01*
X1191246Y13414D01*
X1191249Y13416D01*
X1191099Y14548D01*
X1191093Y14554D01*
X1191096Y14559D01*
X1190698Y15630D01*
X1190691Y15634D01*
X1190693Y15640D01*
X1190066Y16595D01*
X1190058Y16597D01*
X1190059Y16603D01*
X1189236Y17395D01*
X1189228Y17396D01*
X1189227Y17402D01*
X1188248Y17990D01*
X1188240Y17989D01*
X1188238Y17995D01*
X1187153Y18351D01*
X1187145Y18348D01*
X1187142Y18353D01*
X1186005Y18459D01*
X1185996Y18453D01*
X1185991Y18458D01*
X1184854Y18251D01*
X1184848Y18245D01*
X1184843Y18248D01*
X1183781Y17793D01*
X1183777Y17786D01*
X1183771Y17788D01*
X1182836Y17108D01*
X1182834Y17100D01*
X1182828Y17100D01*
X1182068Y16229D01*
X1182068Y16221D01*
X1182062Y16220D01*
X1181515Y15202D01*
X1181516Y15194D01*
X1181511Y15192D01*
X1181507Y15179D01*
X1181494Y15129D01*
X1181493Y15129D01*
X1181494Y15129D01*
X1181480Y15080D01*
X1181466Y15031D01*
X1181453Y14982D01*
X1181439Y14932D01*
X1181426Y14883D01*
X1181412Y14834D01*
X1181399Y14785D01*
X1181385Y14735D01*
X1181371Y14686D01*
X1181358Y14637D01*
X1181344Y14588D01*
X1181331Y14538D01*
X1181317Y14489D01*
X1181304Y14440D01*
X1181290Y14391D01*
X1181277Y14341D01*
X1181276Y14341D01*
X1181263Y14292D01*
X1181249Y14243D01*
X1181204Y14077D01*
X1181207Y14070D01*
X1181202Y14067D01*
X1181151Y12912D01*
X1181152Y12910D01*
X1181151Y12910D01*
X1181151Y6910D01*
X1181155Y6904D01*
X1181152Y6900D01*
X1181364Y5820D01*
X1181370Y5814D01*
X1181367Y5809D01*
X1181814Y4803D01*
X1181821Y4799D01*
X1181819Y4794D01*
X1182479Y3912D01*
X1182487Y3910D01*
X1182487Y3904D01*
X1183326Y3192D01*
X1183334Y3191D01*
X1183335Y3186D01*
X1184312Y2678D01*
X1184320Y2679D01*
X1184322Y2674D01*
X1185387Y2396D01*
X1185395Y2399D01*
X1185398Y2394D01*
X1186499Y2360D01*
X1186504Y2364D01*
G37*
G36*
X1072204Y2364D02*
X1072204Y2364D01*
X1072207Y2361D01*
X1073283Y2516D01*
X1073288Y2522D01*
X1073293Y2519D01*
X1074307Y2909D01*
X1074311Y2916D01*
X1074317Y2914D01*
X1075219Y3520D01*
X1075221Y3528D01*
X1075227Y3528D01*
X1075971Y4319D01*
X1075972Y4327D01*
X1075978Y4328D01*
X1076527Y5266D01*
X1076526Y5274D01*
X1076532Y5276D01*
X1076859Y6312D01*
X1076856Y6320D01*
X1076861Y6323D01*
X1076949Y7406D01*
X1076947Y7408D01*
X1076949Y7410D01*
X1076949Y13410D01*
X1076946Y13414D01*
X1076949Y13416D01*
X1076799Y14548D01*
X1076793Y14554D01*
X1076796Y14559D01*
X1076398Y15630D01*
X1076391Y15634D01*
X1076393Y15640D01*
X1075766Y16595D01*
X1075758Y16597D01*
X1075759Y16603D01*
X1074936Y17395D01*
X1074928Y17396D01*
X1074927Y17402D01*
X1073948Y17990D01*
X1073940Y17989D01*
X1073938Y17995D01*
X1072853Y18351D01*
X1072845Y18348D01*
X1072842Y18353D01*
X1071705Y18459D01*
X1071696Y18453D01*
X1071691Y18458D01*
X1070554Y18251D01*
X1070548Y18245D01*
X1070543Y18248D01*
X1069481Y17793D01*
X1069477Y17786D01*
X1069471Y17788D01*
X1068536Y17108D01*
X1068534Y17100D01*
X1068528Y17100D01*
X1067768Y16229D01*
X1067768Y16221D01*
X1067762Y16220D01*
X1067215Y15202D01*
X1067216Y15194D01*
X1067211Y15192D01*
X1067207Y15179D01*
X1067194Y15129D01*
X1067193Y15129D01*
X1067194Y15129D01*
X1067180Y15080D01*
X1067166Y15031D01*
X1067153Y14982D01*
X1067139Y14932D01*
X1067126Y14883D01*
X1067112Y14834D01*
X1067099Y14785D01*
X1067085Y14735D01*
X1067071Y14686D01*
X1067058Y14637D01*
X1067044Y14588D01*
X1067031Y14538D01*
X1067017Y14489D01*
X1067004Y14440D01*
X1066990Y14391D01*
X1066977Y14341D01*
X1066976Y14341D01*
X1066963Y14292D01*
X1066949Y14243D01*
X1066904Y14077D01*
X1066907Y14070D01*
X1066902Y14067D01*
X1066851Y12912D01*
X1066852Y12910D01*
X1066851Y12910D01*
X1066851Y6910D01*
X1066855Y6904D01*
X1066852Y6900D01*
X1067064Y5820D01*
X1067070Y5814D01*
X1067067Y5809D01*
X1067514Y4803D01*
X1067521Y4799D01*
X1067519Y4794D01*
X1068179Y3912D01*
X1068187Y3910D01*
X1068187Y3904D01*
X1069026Y3192D01*
X1069034Y3191D01*
X1069035Y3186D01*
X1070012Y2678D01*
X1070020Y2679D01*
X1070022Y2674D01*
X1071087Y2396D01*
X1071095Y2399D01*
X1071098Y2394D01*
X1072199Y2360D01*
X1072204Y2364D01*
G37*
G36*
X385134Y2364D02*
X385134Y2364D01*
X385137Y2361D01*
X386213Y2516D01*
X386218Y2522D01*
X386223Y2519D01*
X387237Y2909D01*
X387241Y2916D01*
X387247Y2914D01*
X388149Y3520D01*
X388151Y3528D01*
X388157Y3528D01*
X388901Y4319D01*
X388902Y4327D01*
X388908Y4328D01*
X389457Y5266D01*
X389456Y5274D01*
X389462Y5276D01*
X389789Y6312D01*
X389786Y6320D01*
X389791Y6323D01*
X389879Y7406D01*
X389877Y7408D01*
X389879Y7410D01*
X389879Y13410D01*
X389876Y13414D01*
X389879Y13416D01*
X389729Y14548D01*
X389723Y14554D01*
X389726Y14559D01*
X389328Y15630D01*
X389321Y15634D01*
X389323Y15640D01*
X388696Y16595D01*
X388688Y16597D01*
X388689Y16603D01*
X387866Y17395D01*
X387858Y17396D01*
X387857Y17402D01*
X386878Y17990D01*
X386870Y17989D01*
X386868Y17995D01*
X385783Y18351D01*
X385775Y18348D01*
X385772Y18353D01*
X384635Y18459D01*
X384626Y18453D01*
X384621Y18458D01*
X383484Y18251D01*
X383478Y18245D01*
X383473Y18248D01*
X382411Y17793D01*
X382407Y17786D01*
X382401Y17788D01*
X381466Y17108D01*
X381464Y17100D01*
X381458Y17100D01*
X380698Y16229D01*
X380698Y16221D01*
X380692Y16220D01*
X380145Y15202D01*
X380146Y15194D01*
X380141Y15192D01*
X380137Y15179D01*
X380124Y15129D01*
X380123Y15129D01*
X380124Y15129D01*
X380110Y15080D01*
X380096Y15031D01*
X380083Y14982D01*
X380069Y14932D01*
X380056Y14883D01*
X380042Y14834D01*
X380029Y14785D01*
X380015Y14735D01*
X380001Y14686D01*
X379988Y14637D01*
X379974Y14588D01*
X379961Y14538D01*
X379947Y14489D01*
X379934Y14440D01*
X379920Y14391D01*
X379907Y14341D01*
X379906Y14341D01*
X379893Y14292D01*
X379879Y14243D01*
X379834Y14077D01*
X379837Y14070D01*
X379832Y14067D01*
X379781Y12912D01*
X379782Y12910D01*
X379781Y12910D01*
X379781Y6910D01*
X379785Y6904D01*
X379782Y6900D01*
X379994Y5820D01*
X380000Y5814D01*
X379997Y5809D01*
X380444Y4803D01*
X380451Y4799D01*
X380449Y4794D01*
X381109Y3912D01*
X381117Y3910D01*
X381117Y3904D01*
X381956Y3192D01*
X381964Y3191D01*
X381965Y3186D01*
X382942Y2678D01*
X382950Y2679D01*
X382952Y2674D01*
X384017Y2396D01*
X384025Y2399D01*
X384028Y2394D01*
X385129Y2360D01*
X385134Y2364D01*
G37*
G36*
X1759274Y2364D02*
X1759274Y2364D01*
X1759277Y2361D01*
X1760353Y2516D01*
X1760358Y2522D01*
X1760363Y2519D01*
X1761377Y2909D01*
X1761381Y2916D01*
X1761387Y2914D01*
X1762289Y3520D01*
X1762291Y3528D01*
X1762297Y3528D01*
X1763041Y4319D01*
X1763042Y4327D01*
X1763048Y4328D01*
X1763597Y5266D01*
X1763596Y5274D01*
X1763602Y5276D01*
X1763929Y6312D01*
X1763926Y6320D01*
X1763931Y6323D01*
X1764019Y7406D01*
X1764017Y7408D01*
X1764019Y7410D01*
X1764019Y13410D01*
X1764016Y13414D01*
X1764019Y13416D01*
X1763869Y14548D01*
X1763863Y14554D01*
X1763866Y14559D01*
X1763468Y15630D01*
X1763461Y15634D01*
X1763463Y15640D01*
X1762836Y16595D01*
X1762828Y16597D01*
X1762829Y16603D01*
X1762006Y17395D01*
X1761998Y17396D01*
X1761997Y17402D01*
X1761018Y17990D01*
X1761010Y17989D01*
X1761008Y17995D01*
X1759923Y18351D01*
X1759915Y18348D01*
X1759912Y18353D01*
X1758775Y18459D01*
X1758766Y18453D01*
X1758761Y18458D01*
X1757624Y18251D01*
X1757618Y18245D01*
X1757613Y18248D01*
X1756551Y17793D01*
X1756547Y17786D01*
X1756541Y17788D01*
X1755606Y17108D01*
X1755604Y17100D01*
X1755598Y17100D01*
X1754838Y16229D01*
X1754838Y16221D01*
X1754832Y16220D01*
X1754285Y15202D01*
X1754286Y15194D01*
X1754281Y15192D01*
X1754277Y15179D01*
X1754264Y15129D01*
X1754263Y15129D01*
X1754264Y15129D01*
X1754250Y15080D01*
X1754236Y15031D01*
X1754223Y14982D01*
X1754209Y14932D01*
X1754196Y14883D01*
X1754182Y14834D01*
X1754169Y14785D01*
X1754155Y14735D01*
X1754141Y14686D01*
X1754128Y14637D01*
X1754114Y14588D01*
X1754101Y14538D01*
X1754087Y14489D01*
X1754074Y14440D01*
X1754060Y14391D01*
X1754047Y14341D01*
X1754046Y14341D01*
X1754033Y14292D01*
X1754019Y14243D01*
X1753974Y14077D01*
X1753977Y14070D01*
X1753972Y14067D01*
X1753921Y12912D01*
X1753922Y12910D01*
X1753921Y12910D01*
X1753921Y6910D01*
X1753925Y6904D01*
X1753922Y6900D01*
X1754134Y5820D01*
X1754140Y5814D01*
X1754137Y5809D01*
X1754584Y4803D01*
X1754591Y4799D01*
X1754589Y4794D01*
X1755249Y3912D01*
X1755257Y3910D01*
X1755257Y3904D01*
X1756096Y3192D01*
X1756104Y3191D01*
X1756105Y3186D01*
X1757082Y2678D01*
X1757090Y2679D01*
X1757092Y2674D01*
X1758157Y2396D01*
X1758165Y2399D01*
X1758168Y2394D01*
X1759269Y2360D01*
X1759274Y2364D01*
G37*
G36*
X1873574Y2364D02*
X1873574Y2364D01*
X1873577Y2361D01*
X1874653Y2516D01*
X1874658Y2522D01*
X1874663Y2519D01*
X1875677Y2909D01*
X1875681Y2916D01*
X1875687Y2914D01*
X1876589Y3520D01*
X1876591Y3528D01*
X1876597Y3528D01*
X1877341Y4319D01*
X1877342Y4327D01*
X1877348Y4328D01*
X1877897Y5266D01*
X1877896Y5274D01*
X1877902Y5276D01*
X1878229Y6312D01*
X1878226Y6320D01*
X1878231Y6323D01*
X1878319Y7406D01*
X1878317Y7408D01*
X1878319Y7410D01*
X1878319Y13410D01*
X1878316Y13414D01*
X1878319Y13416D01*
X1878169Y14548D01*
X1878163Y14554D01*
X1878166Y14559D01*
X1877768Y15630D01*
X1877761Y15634D01*
X1877763Y15640D01*
X1877136Y16595D01*
X1877128Y16597D01*
X1877129Y16603D01*
X1876306Y17395D01*
X1876298Y17396D01*
X1876297Y17402D01*
X1875318Y17990D01*
X1875310Y17989D01*
X1875308Y17995D01*
X1874223Y18351D01*
X1874215Y18348D01*
X1874212Y18353D01*
X1873075Y18459D01*
X1873066Y18453D01*
X1873061Y18458D01*
X1871924Y18251D01*
X1871918Y18245D01*
X1871913Y18248D01*
X1870851Y17793D01*
X1870847Y17786D01*
X1870841Y17788D01*
X1869906Y17108D01*
X1869904Y17100D01*
X1869898Y17100D01*
X1869138Y16229D01*
X1869138Y16221D01*
X1869132Y16220D01*
X1868585Y15202D01*
X1868586Y15194D01*
X1868581Y15192D01*
X1868577Y15179D01*
X1868564Y15129D01*
X1868563Y15129D01*
X1868564Y15129D01*
X1868550Y15080D01*
X1868536Y15031D01*
X1868523Y14982D01*
X1868509Y14932D01*
X1868496Y14883D01*
X1868482Y14834D01*
X1868469Y14785D01*
X1868455Y14735D01*
X1868441Y14686D01*
X1868428Y14637D01*
X1868414Y14588D01*
X1868401Y14538D01*
X1868387Y14489D01*
X1868374Y14440D01*
X1868360Y14391D01*
X1868347Y14341D01*
X1868346Y14341D01*
X1868333Y14292D01*
X1868319Y14243D01*
X1868274Y14077D01*
X1868277Y14070D01*
X1868272Y14067D01*
X1868221Y12912D01*
X1868222Y12910D01*
X1868221Y12910D01*
X1868221Y6910D01*
X1868225Y6904D01*
X1868222Y6900D01*
X1868434Y5820D01*
X1868440Y5814D01*
X1868437Y5809D01*
X1868884Y4803D01*
X1868891Y4799D01*
X1868889Y4794D01*
X1869549Y3912D01*
X1869557Y3910D01*
X1869557Y3904D01*
X1870396Y3192D01*
X1870404Y3191D01*
X1870405Y3186D01*
X1871382Y2678D01*
X1871390Y2679D01*
X1871392Y2674D01*
X1872457Y2396D01*
X1872465Y2399D01*
X1872468Y2394D01*
X1873569Y2360D01*
X1873574Y2364D01*
G37*
G36*
X499434Y2364D02*
X499434Y2364D01*
X499437Y2361D01*
X500513Y2516D01*
X500518Y2522D01*
X500523Y2519D01*
X501537Y2909D01*
X501541Y2916D01*
X501547Y2914D01*
X502449Y3520D01*
X502451Y3528D01*
X502457Y3528D01*
X503201Y4319D01*
X503202Y4327D01*
X503208Y4328D01*
X503757Y5266D01*
X503756Y5274D01*
X503762Y5276D01*
X504089Y6312D01*
X504086Y6320D01*
X504091Y6323D01*
X504179Y7406D01*
X504177Y7408D01*
X504179Y7410D01*
X504179Y13410D01*
X504176Y13414D01*
X504179Y13416D01*
X504029Y14548D01*
X504023Y14554D01*
X504026Y14559D01*
X503628Y15630D01*
X503621Y15634D01*
X503623Y15640D01*
X502996Y16595D01*
X502988Y16597D01*
X502989Y16603D01*
X502166Y17395D01*
X502158Y17396D01*
X502157Y17402D01*
X501178Y17990D01*
X501170Y17989D01*
X501168Y17995D01*
X500083Y18351D01*
X500075Y18348D01*
X500072Y18353D01*
X498935Y18459D01*
X498926Y18453D01*
X498921Y18458D01*
X497784Y18251D01*
X497778Y18245D01*
X497773Y18248D01*
X496711Y17793D01*
X496707Y17786D01*
X496701Y17788D01*
X495766Y17108D01*
X495764Y17100D01*
X495758Y17100D01*
X494998Y16229D01*
X494998Y16221D01*
X494992Y16220D01*
X494445Y15202D01*
X494446Y15194D01*
X494441Y15192D01*
X494437Y15179D01*
X494424Y15129D01*
X494423Y15129D01*
X494424Y15129D01*
X494410Y15080D01*
X494396Y15031D01*
X494383Y14982D01*
X494369Y14932D01*
X494356Y14883D01*
X494342Y14834D01*
X494329Y14785D01*
X494315Y14735D01*
X494301Y14686D01*
X494288Y14637D01*
X494274Y14588D01*
X494261Y14538D01*
X494247Y14489D01*
X494234Y14440D01*
X494220Y14391D01*
X494207Y14341D01*
X494206Y14341D01*
X494193Y14292D01*
X494179Y14243D01*
X494134Y14077D01*
X494137Y14070D01*
X494132Y14067D01*
X494081Y12912D01*
X494082Y12910D01*
X494081Y12910D01*
X494081Y6910D01*
X494085Y6904D01*
X494082Y6900D01*
X494294Y5820D01*
X494300Y5814D01*
X494297Y5809D01*
X494744Y4803D01*
X494751Y4799D01*
X494749Y4794D01*
X495409Y3912D01*
X495417Y3910D01*
X495417Y3904D01*
X496256Y3192D01*
X496264Y3191D01*
X496265Y3186D01*
X497242Y2678D01*
X497250Y2679D01*
X497252Y2674D01*
X498317Y2396D01*
X498325Y2399D01*
X498328Y2394D01*
X499429Y2360D01*
X499434Y2364D01*
G37*
G36*
X412932Y2365D02*
X412932Y2365D01*
X412937Y2361D01*
X414024Y2506D01*
X414030Y2512D01*
X414035Y2509D01*
X415063Y2892D01*
X415068Y2899D01*
X415073Y2897D01*
X415990Y3500D01*
X415993Y3508D01*
X415999Y3507D01*
X416759Y4299D01*
X416760Y4307D01*
X416766Y4307D01*
X417330Y5248D01*
X417330Y5252D01*
X417331Y5253D01*
X417330Y5255D01*
X417329Y5256D01*
X417335Y5258D01*
X417676Y6301D01*
X417674Y6309D01*
X417678Y6312D01*
X417779Y7405D01*
X417777Y7408D01*
X417779Y7410D01*
X417779Y13410D01*
X417777Y13412D01*
X417779Y13414D01*
X417678Y14507D01*
X417673Y14513D01*
X417676Y14518D01*
X417335Y15561D01*
X417328Y15566D01*
X417330Y15571D01*
X416766Y16512D01*
X416758Y16515D01*
X416759Y16521D01*
X415999Y17312D01*
X415991Y17314D01*
X415990Y17319D01*
X415073Y17922D01*
X415065Y17922D01*
X415063Y17927D01*
X414035Y18311D01*
X414027Y18308D01*
X414024Y18313D01*
X412937Y18458D01*
X412929Y18454D01*
X412925Y18459D01*
X411788Y18353D01*
X411782Y18347D01*
X411777Y18351D01*
X410692Y17995D01*
X410687Y17988D01*
X410682Y17990D01*
X409703Y17402D01*
X409700Y17394D01*
X409694Y17395D01*
X408871Y16603D01*
X408870Y16595D01*
X408864Y16595D01*
X408237Y15640D01*
X408238Y15631D01*
X408232Y15630D01*
X407834Y14559D01*
X407836Y14551D01*
X407831Y14548D01*
X407681Y13416D01*
X407684Y13412D01*
X407681Y13410D01*
X407681Y7410D01*
X407684Y7406D01*
X407681Y7403D01*
X407831Y6271D01*
X407837Y6265D01*
X407834Y6260D01*
X408232Y5190D01*
X408239Y5185D01*
X408237Y5180D01*
X408864Y4225D01*
X408872Y4222D01*
X408871Y4216D01*
X409694Y3424D01*
X409702Y3423D01*
X409703Y3418D01*
X410682Y2829D01*
X410690Y2830D01*
X410692Y2824D01*
X411777Y2468D01*
X411785Y2471D01*
X411788Y2466D01*
X412925Y2361D01*
X412932Y2365D01*
G37*
G36*
X1787072Y2365D02*
X1787072Y2365D01*
X1787077Y2361D01*
X1788164Y2506D01*
X1788170Y2512D01*
X1788175Y2509D01*
X1789203Y2892D01*
X1789208Y2899D01*
X1789213Y2897D01*
X1790130Y3500D01*
X1790133Y3508D01*
X1790139Y3507D01*
X1790899Y4299D01*
X1790900Y4307D01*
X1790906Y4307D01*
X1791470Y5248D01*
X1791470Y5252D01*
X1791471Y5253D01*
X1791470Y5255D01*
X1791469Y5256D01*
X1791475Y5258D01*
X1791816Y6301D01*
X1791814Y6309D01*
X1791818Y6312D01*
X1791919Y7405D01*
X1791917Y7408D01*
X1791919Y7410D01*
X1791919Y13410D01*
X1791917Y13412D01*
X1791919Y13414D01*
X1791818Y14507D01*
X1791813Y14513D01*
X1791816Y14518D01*
X1791475Y15561D01*
X1791468Y15566D01*
X1791470Y15571D01*
X1790906Y16512D01*
X1790898Y16515D01*
X1790899Y16521D01*
X1790139Y17312D01*
X1790131Y17314D01*
X1790130Y17319D01*
X1789213Y17922D01*
X1789205Y17922D01*
X1789203Y17927D01*
X1788175Y18311D01*
X1788167Y18308D01*
X1788164Y18313D01*
X1787077Y18458D01*
X1787069Y18454D01*
X1787065Y18459D01*
X1785928Y18353D01*
X1785922Y18347D01*
X1785917Y18351D01*
X1784832Y17995D01*
X1784827Y17988D01*
X1784822Y17990D01*
X1783843Y17402D01*
X1783840Y17394D01*
X1783834Y17395D01*
X1783011Y16603D01*
X1783010Y16595D01*
X1783004Y16595D01*
X1782377Y15640D01*
X1782378Y15631D01*
X1782372Y15630D01*
X1781974Y14559D01*
X1781976Y14551D01*
X1781971Y14548D01*
X1781821Y13416D01*
X1781824Y13412D01*
X1781821Y13410D01*
X1781821Y7410D01*
X1781824Y7406D01*
X1781821Y7403D01*
X1781971Y6271D01*
X1781977Y6265D01*
X1781974Y6260D01*
X1782372Y5190D01*
X1782379Y5185D01*
X1782377Y5180D01*
X1783004Y4225D01*
X1783012Y4222D01*
X1783011Y4216D01*
X1783834Y3424D01*
X1783842Y3423D01*
X1783843Y3418D01*
X1784822Y2829D01*
X1784830Y2830D01*
X1784832Y2824D01*
X1785917Y2468D01*
X1785925Y2471D01*
X1785928Y2466D01*
X1787065Y2361D01*
X1787072Y2365D01*
G37*
G36*
X1100002Y2365D02*
X1100002Y2365D01*
X1100007Y2361D01*
X1101094Y2506D01*
X1101100Y2512D01*
X1101105Y2509D01*
X1102133Y2892D01*
X1102138Y2899D01*
X1102143Y2897D01*
X1103060Y3500D01*
X1103063Y3508D01*
X1103069Y3507D01*
X1103829Y4299D01*
X1103830Y4307D01*
X1103836Y4307D01*
X1104400Y5248D01*
X1104400Y5252D01*
X1104401Y5253D01*
X1104400Y5255D01*
X1104399Y5256D01*
X1104405Y5258D01*
X1104746Y6301D01*
X1104744Y6309D01*
X1104748Y6312D01*
X1104849Y7405D01*
X1104847Y7408D01*
X1104849Y7410D01*
X1104849Y13410D01*
X1104847Y13412D01*
X1104849Y13414D01*
X1104748Y14507D01*
X1104743Y14513D01*
X1104746Y14518D01*
X1104405Y15561D01*
X1104398Y15566D01*
X1104400Y15571D01*
X1103836Y16512D01*
X1103828Y16515D01*
X1103829Y16521D01*
X1103069Y17312D01*
X1103061Y17314D01*
X1103060Y17319D01*
X1102143Y17922D01*
X1102135Y17922D01*
X1102133Y17927D01*
X1101105Y18311D01*
X1101097Y18308D01*
X1101094Y18313D01*
X1100007Y18458D01*
X1099999Y18454D01*
X1099995Y18459D01*
X1098858Y18353D01*
X1098852Y18347D01*
X1098847Y18351D01*
X1097762Y17995D01*
X1097757Y17988D01*
X1097752Y17990D01*
X1096773Y17402D01*
X1096770Y17394D01*
X1096764Y17395D01*
X1095941Y16603D01*
X1095940Y16595D01*
X1095934Y16595D01*
X1095307Y15640D01*
X1095308Y15631D01*
X1095302Y15630D01*
X1094904Y14559D01*
X1094906Y14551D01*
X1094901Y14548D01*
X1094751Y13416D01*
X1094754Y13412D01*
X1094751Y13410D01*
X1094751Y7410D01*
X1094754Y7406D01*
X1094751Y7403D01*
X1094901Y6271D01*
X1094907Y6265D01*
X1094904Y6260D01*
X1095302Y5190D01*
X1095309Y5185D01*
X1095307Y5180D01*
X1095934Y4225D01*
X1095942Y4222D01*
X1095941Y4216D01*
X1096764Y3424D01*
X1096772Y3423D01*
X1096773Y3418D01*
X1097752Y2829D01*
X1097760Y2830D01*
X1097762Y2824D01*
X1098847Y2468D01*
X1098855Y2471D01*
X1098858Y2466D01*
X1099995Y2361D01*
X1100002Y2365D01*
G37*
G36*
X985702Y2365D02*
X985702Y2365D01*
X985707Y2361D01*
X986794Y2506D01*
X986800Y2512D01*
X986805Y2509D01*
X987833Y2892D01*
X987838Y2899D01*
X987843Y2897D01*
X988760Y3500D01*
X988763Y3508D01*
X988769Y3507D01*
X989529Y4299D01*
X989530Y4307D01*
X989536Y4307D01*
X990100Y5248D01*
X990100Y5252D01*
X990101Y5253D01*
X990100Y5255D01*
X990099Y5256D01*
X990105Y5258D01*
X990446Y6301D01*
X990444Y6309D01*
X990448Y6312D01*
X990549Y7405D01*
X990547Y7408D01*
X990549Y7410D01*
X990549Y13410D01*
X990547Y13412D01*
X990549Y13414D01*
X990448Y14507D01*
X990443Y14513D01*
X990446Y14518D01*
X990105Y15561D01*
X990098Y15566D01*
X990100Y15571D01*
X989536Y16512D01*
X989528Y16515D01*
X989529Y16521D01*
X988769Y17312D01*
X988761Y17314D01*
X988760Y17319D01*
X987843Y17922D01*
X987835Y17922D01*
X987833Y17927D01*
X986805Y18311D01*
X986797Y18308D01*
X986794Y18313D01*
X985707Y18458D01*
X985699Y18454D01*
X985695Y18459D01*
X984558Y18353D01*
X984552Y18347D01*
X984547Y18351D01*
X983462Y17995D01*
X983457Y17988D01*
X983452Y17990D01*
X982473Y17402D01*
X982470Y17394D01*
X982464Y17395D01*
X981641Y16603D01*
X981640Y16595D01*
X981634Y16595D01*
X981007Y15640D01*
X981008Y15631D01*
X981002Y15630D01*
X980604Y14559D01*
X980606Y14551D01*
X980601Y14548D01*
X980451Y13416D01*
X980454Y13412D01*
X980451Y13410D01*
X980451Y7410D01*
X980454Y7406D01*
X980451Y7403D01*
X980601Y6271D01*
X980607Y6265D01*
X980604Y6260D01*
X981002Y5190D01*
X981009Y5185D01*
X981007Y5180D01*
X981634Y4225D01*
X981642Y4222D01*
X981641Y4216D01*
X982464Y3424D01*
X982472Y3423D01*
X982473Y3418D01*
X983452Y2829D01*
X983460Y2830D01*
X983462Y2824D01*
X984547Y2468D01*
X984555Y2471D01*
X984558Y2466D01*
X985695Y2361D01*
X985702Y2365D01*
G37*
G36*
X1672772Y2365D02*
X1672772Y2365D01*
X1672777Y2361D01*
X1673864Y2506D01*
X1673870Y2512D01*
X1673875Y2509D01*
X1674903Y2892D01*
X1674908Y2899D01*
X1674913Y2897D01*
X1675830Y3500D01*
X1675833Y3508D01*
X1675839Y3507D01*
X1676599Y4299D01*
X1676600Y4307D01*
X1676606Y4307D01*
X1677170Y5248D01*
X1677170Y5252D01*
X1677171Y5253D01*
X1677170Y5255D01*
X1677169Y5256D01*
X1677175Y5258D01*
X1677516Y6301D01*
X1677514Y6309D01*
X1677518Y6312D01*
X1677619Y7405D01*
X1677617Y7408D01*
X1677619Y7410D01*
X1677619Y13410D01*
X1677617Y13412D01*
X1677619Y13414D01*
X1677518Y14507D01*
X1677513Y14513D01*
X1677516Y14518D01*
X1677175Y15561D01*
X1677168Y15566D01*
X1677170Y15571D01*
X1676606Y16512D01*
X1676598Y16515D01*
X1676599Y16521D01*
X1675839Y17312D01*
X1675831Y17314D01*
X1675830Y17319D01*
X1674913Y17922D01*
X1674905Y17922D01*
X1674903Y17927D01*
X1673875Y18311D01*
X1673867Y18308D01*
X1673864Y18313D01*
X1672777Y18458D01*
X1672769Y18454D01*
X1672765Y18459D01*
X1671628Y18353D01*
X1671622Y18347D01*
X1671617Y18351D01*
X1670532Y17995D01*
X1670527Y17988D01*
X1670522Y17990D01*
X1669543Y17402D01*
X1669540Y17394D01*
X1669534Y17395D01*
X1668711Y16603D01*
X1668710Y16595D01*
X1668704Y16595D01*
X1668077Y15640D01*
X1668078Y15631D01*
X1668072Y15630D01*
X1667674Y14559D01*
X1667676Y14551D01*
X1667671Y14548D01*
X1667521Y13416D01*
X1667524Y13412D01*
X1667521Y13410D01*
X1667521Y7410D01*
X1667524Y7406D01*
X1667521Y7403D01*
X1667671Y6271D01*
X1667677Y6265D01*
X1667674Y6260D01*
X1668072Y5190D01*
X1668079Y5185D01*
X1668077Y5180D01*
X1668704Y4225D01*
X1668712Y4222D01*
X1668711Y4216D01*
X1669534Y3424D01*
X1669542Y3423D01*
X1669543Y3418D01*
X1670522Y2829D01*
X1670530Y2830D01*
X1670532Y2824D01*
X1671617Y2468D01*
X1671625Y2471D01*
X1671628Y2466D01*
X1672765Y2361D01*
X1672772Y2365D01*
G37*
G36*
X298632Y2365D02*
X298632Y2365D01*
X298637Y2361D01*
X299724Y2506D01*
X299730Y2512D01*
X299735Y2509D01*
X300763Y2892D01*
X300768Y2899D01*
X300773Y2897D01*
X301690Y3500D01*
X301693Y3508D01*
X301699Y3507D01*
X302459Y4299D01*
X302460Y4307D01*
X302466Y4307D01*
X303030Y5248D01*
X303030Y5252D01*
X303031Y5253D01*
X303030Y5255D01*
X303029Y5256D01*
X303035Y5258D01*
X303376Y6301D01*
X303374Y6309D01*
X303378Y6312D01*
X303479Y7405D01*
X303477Y7408D01*
X303479Y7410D01*
X303479Y13410D01*
X303477Y13412D01*
X303479Y13414D01*
X303378Y14507D01*
X303373Y14513D01*
X303376Y14518D01*
X303035Y15561D01*
X303028Y15566D01*
X303030Y15571D01*
X302466Y16512D01*
X302458Y16515D01*
X302459Y16521D01*
X301699Y17312D01*
X301691Y17314D01*
X301690Y17319D01*
X300773Y17922D01*
X300765Y17922D01*
X300763Y17927D01*
X299735Y18311D01*
X299727Y18308D01*
X299724Y18313D01*
X298637Y18458D01*
X298629Y18454D01*
X298625Y18459D01*
X297488Y18353D01*
X297482Y18347D01*
X297477Y18351D01*
X296392Y17995D01*
X296387Y17988D01*
X296382Y17990D01*
X295403Y17402D01*
X295400Y17394D01*
X295394Y17395D01*
X294571Y16603D01*
X294570Y16595D01*
X294564Y16595D01*
X293937Y15640D01*
X293938Y15631D01*
X293932Y15630D01*
X293534Y14559D01*
X293536Y14551D01*
X293531Y14548D01*
X293381Y13416D01*
X293384Y13412D01*
X293381Y13410D01*
X293381Y7410D01*
X293384Y7406D01*
X293381Y7403D01*
X293531Y6271D01*
X293537Y6265D01*
X293534Y6260D01*
X293932Y5190D01*
X293939Y5185D01*
X293937Y5180D01*
X294564Y4225D01*
X294572Y4222D01*
X294571Y4216D01*
X295394Y3424D01*
X295402Y3423D01*
X295403Y3418D01*
X296382Y2829D01*
X296390Y2830D01*
X296392Y2824D01*
X297477Y2468D01*
X297485Y2471D01*
X297488Y2466D01*
X298625Y2361D01*
X298632Y2365D01*
G37*
D10*
X402780Y535590D02*
X402780Y542590D01*
X409780Y542590D01*
X409780Y535590D01*
X402780Y535590D01*
X402780Y538440D02*
X409780Y538440D01*
X409780Y541290D02*
X402780Y541290D01*
X385240Y542590D02*
X385240Y535590D01*
X385240Y542590D02*
X392240Y542590D01*
X392240Y535590D01*
X385240Y535590D01*
X385240Y538440D02*
X392240Y538440D01*
X392240Y541290D02*
X385240Y541290D01*
D11*
X389010Y551790D03*
X406010Y551790D03*
D12*
X367030Y371840D03*
X367030Y388840D03*
X341630Y388840D03*
X341630Y371840D03*
D13*
X443531Y370840D03*
X443531Y380340D03*
X443531Y389840D03*
X417529Y389840D03*
X417529Y370840D03*
D11*
X439030Y405740D03*
X422030Y405740D03*
D12*
X265430Y388840D03*
X265430Y371840D03*
X290830Y388840D03*
X290830Y371840D03*
D10*
X402780Y459390D02*
X402780Y466390D01*
X409780Y466390D01*
X409780Y459390D01*
X402780Y459390D01*
X402780Y462240D02*
X409780Y462240D01*
X409780Y465090D02*
X402780Y465090D01*
X385240Y466390D02*
X385240Y459390D01*
X385240Y466390D02*
X392240Y466390D01*
X392240Y459390D01*
X385240Y459390D01*
X385240Y462240D02*
X392240Y462240D01*
X392240Y465090D02*
X385240Y465090D01*
D11*
X389010Y475590D03*
X406010Y475590D03*
D14*
X303530Y167700D03*
X303530Y156100D03*
D11*
X321700Y168250D03*
X338700Y168250D03*
D12*
X316230Y388840D03*
X316230Y371840D03*
D15*
X282020Y168250D03*
X292020Y168250D03*
D16*
X270130Y191540D03*
X281130Y191540D03*
X292130Y191540D03*
X303130Y191540D03*
X314130Y191540D03*
X325130Y191540D03*
X336130Y191540D03*
X347130Y191540D03*
X358130Y191540D03*
X369130Y191540D03*
X380130Y191540D03*
X391130Y191540D03*
X402130Y191540D03*
X413130Y191540D03*
D17*
X441130Y200040D03*
X441130Y211040D03*
X441130Y222040D03*
X441130Y233040D03*
X441130Y244040D03*
X441130Y255040D03*
X441130Y266040D03*
X441130Y277040D03*
X441130Y288040D03*
X441130Y299040D03*
X441130Y310040D03*
X441130Y321040D03*
X441130Y332040D03*
D16*
X413130Y340540D03*
X402130Y340540D03*
X391130Y340540D03*
X380130Y340540D03*
X369130Y340540D03*
X358130Y340540D03*
X347130Y340540D03*
X336130Y340540D03*
X325130Y340540D03*
X314130Y340540D03*
X303130Y340540D03*
X292130Y340540D03*
X281130Y340540D03*
X270130Y340540D03*
D17*
X242130Y332040D03*
X242130Y321040D03*
X242130Y310040D03*
X242130Y299040D03*
X242130Y288040D03*
X242130Y277040D03*
X242130Y266040D03*
X242130Y255040D03*
X242130Y244040D03*
X242130Y233040D03*
X242130Y222040D03*
X242130Y211040D03*
X242130Y200040D03*
D18*
X331130Y276540D03*
X310130Y276540D03*
X289130Y276540D03*
X268130Y276540D03*
X331130Y297040D03*
X310130Y297040D03*
X289130Y297040D03*
X268130Y297040D03*
X331130Y317540D03*
X310130Y317540D03*
X289130Y317540D03*
X268130Y317540D03*
X331130Y214540D03*
X310130Y214540D03*
X289130Y214540D03*
X268130Y214540D03*
X331130Y235040D03*
X310130Y235040D03*
X289130Y235040D03*
X268130Y235040D03*
X331130Y255540D03*
X310130Y255540D03*
X289130Y255540D03*
X268130Y255540D03*
X415130Y276540D03*
X394130Y276540D03*
X373130Y276540D03*
X352130Y276540D03*
X415130Y297040D03*
X394130Y297040D03*
X373130Y297040D03*
X352130Y297040D03*
X415130Y317540D03*
X394130Y317540D03*
X373130Y317540D03*
X352130Y317540D03*
X415130Y214540D03*
X394130Y214540D03*
X373130Y214540D03*
X352130Y214540D03*
X415130Y235040D03*
X394130Y235040D03*
X373130Y235040D03*
X352130Y235040D03*
X415130Y255540D03*
X394130Y255540D03*
X373130Y255540D03*
X352130Y255540D03*
D11*
X388230Y98240D03*
X371230Y98240D03*
X295030Y98240D03*
X312030Y98240D03*
D19*
X349130Y58010D03*
X344130Y58010D03*
D20*
X373880Y58010D03*
X366130Y58010D03*
D19*
X359130Y58010D03*
X354130Y58010D03*
X334130Y58010D03*
X339130Y58010D03*
D20*
X309380Y58010D03*
X317130Y58010D03*
D19*
X324130Y58010D03*
X329130Y58010D03*
D12*
X392430Y371840D03*
X392430Y388840D03*
D11*
X345830Y405740D03*
X362830Y405740D03*
D21*
X323930Y134990D03*
D22*
X328930Y134740D03*
X333930Y134740D03*
X333930Y143340D03*
X328930Y143340D03*
X323930Y143340D03*
D23*
X227330Y82350D03*
D24*
X270380Y35450D03*
X184280Y35450D03*
D25*
X220830Y292140D03*
D26*
X220830Y300140D03*
X220830Y308140D03*
D25*
X220830Y316140D03*
X207830Y316140D03*
D26*
X207830Y308140D03*
X207830Y300140D03*
D25*
X207830Y292140D03*
X220830Y228640D03*
D26*
X220830Y236640D03*
X220830Y244640D03*
D25*
X220830Y252640D03*
X207830Y252640D03*
D26*
X207830Y244640D03*
X207830Y236640D03*
D25*
X207830Y228640D03*
D12*
X214630Y333740D03*
X214630Y350740D03*
D11*
X172330Y376530D03*
X155330Y376530D03*
D10*
X169100Y357170D02*
X169100Y350170D01*
X169100Y357170D02*
X176100Y357170D01*
X176100Y350170D01*
X169100Y350170D01*
X169100Y353020D02*
X176100Y353020D01*
X176100Y355870D02*
X169100Y355870D01*
X151560Y357170D02*
X151560Y350170D01*
X151560Y357170D02*
X158560Y357170D01*
X158560Y350170D01*
X151560Y350170D01*
X151560Y353020D02*
X158560Y353020D01*
X158560Y355870D02*
X151560Y355870D01*
D27*
X648810Y468140D03*
X628810Y468140D03*
D28*
X672810Y416140D03*
X604810Y416140D03*
D29*
X162730Y1018040D03*
X162730Y1038040D03*
D30*
X110730Y994040D03*
X110730Y1062040D03*
D11*
X294250Y627990D03*
X277250Y627990D03*
D10*
X291020Y618790D02*
X291020Y611790D01*
X291020Y618790D02*
X298020Y618790D01*
X298020Y611790D01*
X291020Y611790D01*
X291020Y614640D02*
X298020Y614640D01*
X298020Y617490D02*
X291020Y617490D01*
X273480Y618790D02*
X273480Y611790D01*
X273480Y618790D02*
X280480Y618790D01*
X280480Y611790D01*
X273480Y611790D01*
X273480Y614640D02*
X280480Y614640D01*
X280480Y617490D02*
X273480Y617490D01*
D11*
X294250Y551790D03*
X277250Y551790D03*
D10*
X291020Y542590D02*
X291020Y535590D01*
X291020Y542590D02*
X298020Y542590D01*
X298020Y535590D01*
X291020Y535590D01*
X291020Y538440D02*
X298020Y538440D01*
X298020Y541290D02*
X291020Y541290D01*
X273480Y542590D02*
X273480Y535590D01*
X273480Y542590D02*
X280480Y542590D01*
X280480Y535590D01*
X273480Y535590D01*
X273480Y538440D02*
X280480Y538440D01*
X280480Y541290D02*
X273480Y541290D01*
D11*
X294250Y475590D03*
X277250Y475590D03*
D10*
X291020Y466390D02*
X291020Y459390D01*
X291020Y466390D02*
X298020Y466390D01*
X298020Y459390D01*
X291020Y459390D01*
X291020Y462240D02*
X298020Y462240D01*
X298020Y465090D02*
X291020Y465090D01*
X273480Y466390D02*
X273480Y459390D01*
X273480Y466390D02*
X280480Y466390D01*
X280480Y459390D01*
X273480Y459390D01*
X273480Y462240D02*
X280480Y462240D01*
X280480Y465090D02*
X273480Y465090D01*
D27*
X53180Y468140D03*
X33180Y468140D03*
D28*
X77180Y416140D03*
X9180Y416140D03*
D19*
X463430Y58010D03*
X458430Y58010D03*
D20*
X488180Y58010D03*
X480430Y58010D03*
D19*
X473430Y58010D03*
X468430Y58010D03*
X448430Y58010D03*
X453430Y58010D03*
D20*
X423680Y58010D03*
X431430Y58010D03*
D19*
X438430Y58010D03*
X443430Y58010D03*
D11*
X502530Y98240D03*
X485530Y98240D03*
X409330Y98240D03*
X426330Y98240D03*
D31*
X94280Y44880D03*
D32*
X150280Y12880D03*
X75780Y12880D03*
D31*
X106780Y44880D03*
X119280Y44880D03*
X131780Y44880D03*
X551480Y44880D03*
D32*
X607480Y12880D03*
X532980Y12880D03*
D31*
X563980Y44880D03*
X576480Y44880D03*
X588980Y44880D03*
D11*
X406010Y627990D03*
X389010Y627990D03*
D10*
X402780Y618790D02*
X402780Y611790D01*
X402780Y618790D02*
X409780Y618790D01*
X409780Y611790D01*
X402780Y611790D01*
X402780Y614640D02*
X409780Y614640D01*
X409780Y617490D02*
X402780Y617490D01*
X385240Y618790D02*
X385240Y611790D01*
X385240Y618790D02*
X392240Y618790D01*
X392240Y611790D01*
X385240Y611790D01*
X385240Y614640D02*
X392240Y614640D01*
X392240Y617490D02*
X385240Y617490D01*
D25*
X500230Y266740D03*
D26*
X500230Y274740D03*
X500230Y282740D03*
D25*
X500230Y290740D03*
X487230Y290740D03*
D26*
X487230Y282740D03*
X487230Y274740D03*
D25*
X487230Y266740D03*
D11*
X510150Y174440D03*
X493150Y174440D03*
D33*
X467430Y110940D03*
X444430Y110940D03*
D34*
X504680Y363400D03*
X504680Y352400D03*
X504680Y341400D03*
X534180Y341400D03*
X534180Y352400D03*
X534180Y363400D03*
D11*
X487290Y367640D03*
X470290Y367640D03*
X487290Y337160D03*
X470290Y337160D03*
X487290Y352400D03*
X470290Y352400D03*
D13*
X354631Y447040D03*
X354631Y456540D03*
X354631Y466040D03*
X328629Y466040D03*
X328629Y447040D03*
D11*
X350130Y481940D03*
X333130Y481940D03*
X333130Y431140D03*
X350130Y431140D03*
D35*
X97480Y214840D03*
X97480Y189840D03*
X97480Y164840D03*
X153980Y214840D03*
X153980Y189840D03*
X153980Y164840D03*
X97480Y341840D03*
X97480Y316840D03*
X97480Y291840D03*
X153980Y341840D03*
X153980Y316840D03*
X153980Y291840D03*
D21*
X450930Y134990D03*
D22*
X455930Y134740D03*
X460930Y134740D03*
X460930Y143340D03*
X455930Y143340D03*
X450930Y143340D03*
D36*
X69910Y655850D03*
X13910Y655850D03*
D37*
X56910Y619100D03*
X46910Y619100D03*
X36910Y619100D03*
X26910Y619100D03*
D10*
X1089850Y542590D02*
X1089850Y535590D01*
X1089850Y542590D02*
X1096850Y542590D01*
X1096850Y535590D01*
X1089850Y535590D01*
X1089850Y538440D02*
X1096850Y538440D01*
X1096850Y541290D02*
X1089850Y541290D01*
X1072310Y542590D02*
X1072310Y535590D01*
X1072310Y542590D02*
X1079310Y542590D01*
X1079310Y535590D01*
X1072310Y535590D01*
X1072310Y538440D02*
X1079310Y538440D01*
X1079310Y541290D02*
X1072310Y541290D01*
D11*
X1076080Y551790D03*
X1093080Y551790D03*
D12*
X1054100Y371840D03*
X1054100Y388840D03*
X1028700Y388840D03*
X1028700Y371840D03*
D13*
X1130601Y370840D03*
X1130601Y380340D03*
X1130601Y389840D03*
X1104599Y389840D03*
X1104599Y370840D03*
D11*
X1126100Y405740D03*
X1109100Y405740D03*
D12*
X952500Y388840D03*
X952500Y371840D03*
X977900Y388840D03*
X977900Y371840D03*
D10*
X1089850Y459390D02*
X1089850Y466390D01*
X1096850Y466390D01*
X1096850Y459390D01*
X1089850Y459390D01*
X1089850Y462240D02*
X1096850Y462240D01*
X1096850Y465090D02*
X1089850Y465090D01*
X1072310Y466390D02*
X1072310Y459390D01*
X1072310Y466390D02*
X1079310Y466390D01*
X1079310Y459390D01*
X1072310Y459390D01*
X1072310Y462240D02*
X1079310Y462240D01*
X1079310Y465090D02*
X1072310Y465090D01*
D11*
X1076080Y475590D03*
X1093080Y475590D03*
D14*
X990600Y167700D03*
X990600Y156100D03*
D11*
X1008770Y168250D03*
X1025770Y168250D03*
D12*
X1003300Y388840D03*
X1003300Y371840D03*
D15*
X969090Y168250D03*
X979090Y168250D03*
D16*
X957200Y191540D03*
X968200Y191540D03*
X979200Y191540D03*
X990200Y191540D03*
X1001200Y191540D03*
X1012200Y191540D03*
X1023200Y191540D03*
X1034200Y191540D03*
X1045200Y191540D03*
X1056200Y191540D03*
X1067200Y191540D03*
X1078200Y191540D03*
X1089200Y191540D03*
X1100200Y191540D03*
D17*
X1128200Y200040D03*
X1128200Y211040D03*
X1128200Y222040D03*
X1128200Y233040D03*
X1128200Y244040D03*
X1128200Y255040D03*
X1128200Y266040D03*
X1128200Y277040D03*
X1128200Y288040D03*
X1128200Y299040D03*
X1128200Y310040D03*
X1128200Y321040D03*
X1128200Y332040D03*
D16*
X1100200Y340540D03*
X1089200Y340540D03*
X1078200Y340540D03*
X1067200Y340540D03*
X1056200Y340540D03*
X1045200Y340540D03*
X1034200Y340540D03*
X1023200Y340540D03*
X1012200Y340540D03*
X1001200Y340540D03*
X990200Y340540D03*
X979200Y340540D03*
X968200Y340540D03*
X957200Y340540D03*
D17*
X929200Y332040D03*
X929200Y321040D03*
X929200Y310040D03*
X929200Y299040D03*
X929200Y288040D03*
X929200Y277040D03*
X929200Y266040D03*
X929200Y255040D03*
X929200Y244040D03*
X929200Y233040D03*
X929200Y222040D03*
X929200Y211040D03*
X929200Y200040D03*
D18*
X1018200Y276540D03*
X997200Y276540D03*
X976200Y276540D03*
X955200Y276540D03*
X1018200Y297040D03*
X997200Y297040D03*
X976200Y297040D03*
X955200Y297040D03*
X1018200Y317540D03*
X997200Y317540D03*
X976200Y317540D03*
X955200Y317540D03*
X1018200Y214540D03*
X997200Y214540D03*
X976200Y214540D03*
X955200Y214540D03*
X1018200Y235040D03*
X997200Y235040D03*
X976200Y235040D03*
X955200Y235040D03*
X1018200Y255540D03*
X997200Y255540D03*
X976200Y255540D03*
X955200Y255540D03*
X1102200Y276540D03*
X1081200Y276540D03*
X1060200Y276540D03*
X1039200Y276540D03*
X1102200Y297040D03*
X1081200Y297040D03*
X1060200Y297040D03*
X1039200Y297040D03*
X1102200Y317540D03*
X1081200Y317540D03*
X1060200Y317540D03*
X1039200Y317540D03*
X1102200Y214540D03*
X1081200Y214540D03*
X1060200Y214540D03*
X1039200Y214540D03*
X1102200Y235040D03*
X1081200Y235040D03*
X1060200Y235040D03*
X1039200Y235040D03*
X1102200Y255540D03*
X1081200Y255540D03*
X1060200Y255540D03*
X1039200Y255540D03*
D11*
X1075300Y98240D03*
X1058300Y98240D03*
X982100Y98240D03*
X999100Y98240D03*
D19*
X1036200Y58010D03*
X1031200Y58010D03*
D20*
X1060950Y58010D03*
X1053200Y58010D03*
D19*
X1046200Y58010D03*
X1041200Y58010D03*
X1021200Y58010D03*
X1026200Y58010D03*
D20*
X996450Y58010D03*
X1004200Y58010D03*
D19*
X1011200Y58010D03*
X1016200Y58010D03*
D12*
X1079500Y371840D03*
X1079500Y388840D03*
D11*
X1032900Y405740D03*
X1049900Y405740D03*
D21*
X1011000Y134990D03*
D22*
X1016000Y134740D03*
X1021000Y134740D03*
X1021000Y143340D03*
X1016000Y143340D03*
X1011000Y143340D03*
D23*
X914400Y82350D03*
D24*
X957450Y35450D03*
X871350Y35450D03*
D25*
X907900Y292140D03*
D26*
X907900Y300140D03*
X907900Y308140D03*
D25*
X907900Y316140D03*
X894900Y316140D03*
D26*
X894900Y308140D03*
X894900Y300140D03*
D25*
X894900Y292140D03*
X907900Y228640D03*
D26*
X907900Y236640D03*
X907900Y244640D03*
D25*
X907900Y252640D03*
X894900Y252640D03*
D26*
X894900Y244640D03*
X894900Y236640D03*
D25*
X894900Y228640D03*
D12*
X901700Y333740D03*
X901700Y350740D03*
D11*
X859400Y376530D03*
X842400Y376530D03*
D10*
X856170Y357170D02*
X856170Y350170D01*
X856170Y357170D02*
X863170Y357170D01*
X863170Y350170D01*
X856170Y350170D01*
X856170Y353020D02*
X863170Y353020D01*
X863170Y355870D02*
X856170Y355870D01*
X838630Y357170D02*
X838630Y350170D01*
X838630Y357170D02*
X845630Y357170D01*
X845630Y350170D01*
X838630Y350170D01*
X838630Y353020D02*
X845630Y353020D01*
X845630Y355870D02*
X838630Y355870D01*
D27*
X1335880Y468140D03*
X1315880Y468140D03*
D28*
X1359880Y416140D03*
X1291880Y416140D03*
D29*
X849800Y1018040D03*
X849800Y1038040D03*
D30*
X797800Y994040D03*
X797800Y1062040D03*
D11*
X981320Y627990D03*
X964320Y627990D03*
D10*
X978090Y618790D02*
X978090Y611790D01*
X978090Y618790D02*
X985090Y618790D01*
X985090Y611790D01*
X978090Y611790D01*
X978090Y614640D02*
X985090Y614640D01*
X985090Y617490D02*
X978090Y617490D01*
X960550Y618790D02*
X960550Y611790D01*
X960550Y618790D02*
X967550Y618790D01*
X967550Y611790D01*
X960550Y611790D01*
X960550Y614640D02*
X967550Y614640D01*
X967550Y617490D02*
X960550Y617490D01*
D11*
X981320Y551790D03*
X964320Y551790D03*
D10*
X978090Y542590D02*
X978090Y535590D01*
X978090Y542590D02*
X985090Y542590D01*
X985090Y535590D01*
X978090Y535590D01*
X978090Y538440D02*
X985090Y538440D01*
X985090Y541290D02*
X978090Y541290D01*
X960550Y542590D02*
X960550Y535590D01*
X960550Y542590D02*
X967550Y542590D01*
X967550Y535590D01*
X960550Y535590D01*
X960550Y538440D02*
X967550Y538440D01*
X967550Y541290D02*
X960550Y541290D01*
D11*
X981320Y475590D03*
X964320Y475590D03*
D10*
X978090Y466390D02*
X978090Y459390D01*
X978090Y466390D02*
X985090Y466390D01*
X985090Y459390D01*
X978090Y459390D01*
X978090Y462240D02*
X985090Y462240D01*
X985090Y465090D02*
X978090Y465090D01*
X960550Y466390D02*
X960550Y459390D01*
X960550Y466390D02*
X967550Y466390D01*
X967550Y459390D01*
X960550Y459390D01*
X960550Y462240D02*
X967550Y462240D01*
X967550Y465090D02*
X960550Y465090D01*
D27*
X740250Y468140D03*
X720250Y468140D03*
D28*
X764250Y416140D03*
X696250Y416140D03*
D19*
X1150500Y58010D03*
X1145500Y58010D03*
D20*
X1175250Y58010D03*
X1167500Y58010D03*
D19*
X1160500Y58010D03*
X1155500Y58010D03*
X1135500Y58010D03*
X1140500Y58010D03*
D20*
X1110750Y58010D03*
X1118500Y58010D03*
D19*
X1125500Y58010D03*
X1130500Y58010D03*
D11*
X1189600Y98240D03*
X1172600Y98240D03*
X1096400Y98240D03*
X1113400Y98240D03*
D31*
X781350Y44880D03*
D32*
X837350Y12880D03*
X762850Y12880D03*
D31*
X793850Y44880D03*
X806350Y44880D03*
X818850Y44880D03*
X1238550Y44880D03*
D32*
X1294550Y12880D03*
X1220050Y12880D03*
D31*
X1251050Y44880D03*
X1263550Y44880D03*
X1276050Y44880D03*
D11*
X1093080Y627990D03*
X1076080Y627990D03*
D10*
X1089850Y618790D02*
X1089850Y611790D01*
X1089850Y618790D02*
X1096850Y618790D01*
X1096850Y611790D01*
X1089850Y611790D01*
X1089850Y614640D02*
X1096850Y614640D01*
X1096850Y617490D02*
X1089850Y617490D01*
X1072310Y618790D02*
X1072310Y611790D01*
X1072310Y618790D02*
X1079310Y618790D01*
X1079310Y611790D01*
X1072310Y611790D01*
X1072310Y614640D02*
X1079310Y614640D01*
X1079310Y617490D02*
X1072310Y617490D01*
D25*
X1187300Y266740D03*
D26*
X1187300Y274740D03*
X1187300Y282740D03*
D25*
X1187300Y290740D03*
X1174300Y290740D03*
D26*
X1174300Y282740D03*
X1174300Y274740D03*
D25*
X1174300Y266740D03*
D11*
X1197220Y174440D03*
X1180220Y174440D03*
D33*
X1154500Y110940D03*
X1131500Y110940D03*
D34*
X1191750Y363400D03*
X1191750Y352400D03*
X1191750Y341400D03*
X1221250Y341400D03*
X1221250Y352400D03*
X1221250Y363400D03*
D11*
X1174360Y367640D03*
X1157360Y367640D03*
X1174360Y337160D03*
X1157360Y337160D03*
X1174360Y352400D03*
X1157360Y352400D03*
D13*
X1041701Y447040D03*
X1041701Y456540D03*
X1041701Y466040D03*
X1015699Y466040D03*
X1015699Y447040D03*
D11*
X1037200Y481940D03*
X1020200Y481940D03*
X1020200Y431140D03*
X1037200Y431140D03*
D35*
X784550Y214840D03*
X784550Y189840D03*
X784550Y164840D03*
X841050Y214840D03*
X841050Y189840D03*
X841050Y164840D03*
X784550Y341840D03*
X784550Y316840D03*
X784550Y291840D03*
X841050Y341840D03*
X841050Y316840D03*
X841050Y291840D03*
D21*
X1138000Y134990D03*
D22*
X1143000Y134740D03*
X1148000Y134740D03*
X1148000Y143340D03*
X1143000Y143340D03*
X1138000Y143340D03*
D36*
X756980Y655850D03*
X700980Y655850D03*
D37*
X743980Y619100D03*
X733980Y619100D03*
X723980Y619100D03*
X713980Y619100D03*
D10*
X1776920Y542590D02*
X1776920Y535590D01*
X1776920Y542590D02*
X1783920Y542590D01*
X1783920Y535590D01*
X1776920Y535590D01*
X1776920Y538440D02*
X1783920Y538440D01*
X1783920Y541290D02*
X1776920Y541290D01*
X1759380Y542590D02*
X1759380Y535590D01*
X1759380Y542590D02*
X1766380Y542590D01*
X1766380Y535590D01*
X1759380Y535590D01*
X1759380Y538440D02*
X1766380Y538440D01*
X1766380Y541290D02*
X1759380Y541290D01*
D11*
X1763150Y551790D03*
X1780150Y551790D03*
D12*
X1741170Y371840D03*
X1741170Y388840D03*
X1715770Y388840D03*
X1715770Y371840D03*
D13*
X1817671Y370840D03*
X1817671Y380340D03*
X1817671Y389840D03*
X1791669Y389840D03*
X1791669Y370840D03*
D11*
X1813170Y405740D03*
X1796170Y405740D03*
D12*
X1639570Y388840D03*
X1639570Y371840D03*
X1664970Y388840D03*
X1664970Y371840D03*
D10*
X1776920Y459390D02*
X1776920Y466390D01*
X1783920Y466390D01*
X1783920Y459390D01*
X1776920Y459390D01*
X1776920Y462240D02*
X1783920Y462240D01*
X1783920Y465090D02*
X1776920Y465090D01*
X1759380Y466390D02*
X1759380Y459390D01*
X1759380Y466390D02*
X1766380Y466390D01*
X1766380Y459390D01*
X1759380Y459390D01*
X1759380Y462240D02*
X1766380Y462240D01*
X1766380Y465090D02*
X1759380Y465090D01*
D11*
X1763150Y475590D03*
X1780150Y475590D03*
D14*
X1677670Y167700D03*
X1677670Y156100D03*
D11*
X1695840Y168250D03*
X1712840Y168250D03*
D12*
X1690370Y388840D03*
X1690370Y371840D03*
D15*
X1656160Y168250D03*
X1666160Y168250D03*
D16*
X1644270Y191540D03*
X1655270Y191540D03*
X1666270Y191540D03*
X1677270Y191540D03*
X1688270Y191540D03*
X1699270Y191540D03*
X1710270Y191540D03*
X1721270Y191540D03*
X1732270Y191540D03*
X1743270Y191540D03*
X1754270Y191540D03*
X1765270Y191540D03*
X1776270Y191540D03*
X1787270Y191540D03*
D17*
X1815270Y200040D03*
X1815270Y211040D03*
X1815270Y222040D03*
X1815270Y233040D03*
X1815270Y244040D03*
X1815270Y255040D03*
X1815270Y266040D03*
X1815270Y277040D03*
X1815270Y288040D03*
X1815270Y299040D03*
X1815270Y310040D03*
X1815270Y321040D03*
X1815270Y332040D03*
D16*
X1787270Y340540D03*
X1776270Y340540D03*
X1765270Y340540D03*
X1754270Y340540D03*
X1743270Y340540D03*
X1732270Y340540D03*
X1721270Y340540D03*
X1710270Y340540D03*
X1699270Y340540D03*
X1688270Y340540D03*
X1677270Y340540D03*
X1666270Y340540D03*
X1655270Y340540D03*
X1644270Y340540D03*
D17*
X1616270Y332040D03*
X1616270Y321040D03*
X1616270Y310040D03*
X1616270Y299040D03*
X1616270Y288040D03*
X1616270Y277040D03*
X1616270Y266040D03*
X1616270Y255040D03*
X1616270Y244040D03*
X1616270Y233040D03*
X1616270Y222040D03*
X1616270Y211040D03*
X1616270Y200040D03*
D18*
X1705270Y276540D03*
X1684270Y276540D03*
X1663270Y276540D03*
X1642270Y276540D03*
X1705270Y297040D03*
X1684270Y297040D03*
X1663270Y297040D03*
X1642270Y297040D03*
X1705270Y317540D03*
X1684270Y317540D03*
X1663270Y317540D03*
X1642270Y317540D03*
X1705270Y214540D03*
X1684270Y214540D03*
X1663270Y214540D03*
X1642270Y214540D03*
X1705270Y235040D03*
X1684270Y235040D03*
X1663270Y235040D03*
X1642270Y235040D03*
X1705270Y255540D03*
X1684270Y255540D03*
X1663270Y255540D03*
X1642270Y255540D03*
X1789270Y276540D03*
X1768270Y276540D03*
X1747270Y276540D03*
X1726270Y276540D03*
X1789270Y297040D03*
X1768270Y297040D03*
X1747270Y297040D03*
X1726270Y297040D03*
X1789270Y317540D03*
X1768270Y317540D03*
X1747270Y317540D03*
X1726270Y317540D03*
X1789270Y214540D03*
X1768270Y214540D03*
X1747270Y214540D03*
X1726270Y214540D03*
X1789270Y235040D03*
X1768270Y235040D03*
X1747270Y235040D03*
X1726270Y235040D03*
X1789270Y255540D03*
X1768270Y255540D03*
X1747270Y255540D03*
X1726270Y255540D03*
D11*
X1762370Y98240D03*
X1745370Y98240D03*
X1669170Y98240D03*
X1686170Y98240D03*
D19*
X1723270Y58010D03*
X1718270Y58010D03*
D20*
X1748020Y58010D03*
X1740270Y58010D03*
D19*
X1733270Y58010D03*
X1728270Y58010D03*
X1708270Y58010D03*
X1713270Y58010D03*
D20*
X1683520Y58010D03*
X1691270Y58010D03*
D19*
X1698270Y58010D03*
X1703270Y58010D03*
D12*
X1766570Y371840D03*
X1766570Y388840D03*
D11*
X1719970Y405740D03*
X1736970Y405740D03*
D21*
X1698070Y134990D03*
D22*
X1703070Y134740D03*
X1708070Y134740D03*
X1708070Y143340D03*
X1703070Y143340D03*
X1698070Y143340D03*
D23*
X1601470Y82350D03*
D24*
X1644520Y35450D03*
X1558420Y35450D03*
D25*
X1594970Y292140D03*
D26*
X1594970Y300140D03*
X1594970Y308140D03*
D25*
X1594970Y316140D03*
X1581970Y316140D03*
D26*
X1581970Y308140D03*
X1581970Y300140D03*
D25*
X1581970Y292140D03*
X1594970Y228640D03*
D26*
X1594970Y236640D03*
X1594970Y244640D03*
D25*
X1594970Y252640D03*
X1581970Y252640D03*
D26*
X1581970Y244640D03*
X1581970Y236640D03*
D25*
X1581970Y228640D03*
D12*
X1588770Y333740D03*
X1588770Y350740D03*
D11*
X1546470Y376530D03*
X1529470Y376530D03*
D10*
X1543240Y357170D02*
X1543240Y350170D01*
X1543240Y357170D02*
X1550240Y357170D01*
X1550240Y350170D01*
X1543240Y350170D01*
X1543240Y353020D02*
X1550240Y353020D01*
X1550240Y355870D02*
X1543240Y355870D01*
X1525700Y357170D02*
X1525700Y350170D01*
X1525700Y357170D02*
X1532700Y357170D01*
X1532700Y350170D01*
X1525700Y350170D01*
X1525700Y353020D02*
X1532700Y353020D01*
X1532700Y355870D02*
X1525700Y355870D01*
D27*
X2022950Y468140D03*
X2002950Y468140D03*
D28*
X2046950Y416140D03*
X1978950Y416140D03*
D29*
X1536870Y1018040D03*
X1536870Y1038040D03*
D30*
X1484870Y994040D03*
X1484870Y1062040D03*
D11*
X1668390Y627990D03*
X1651390Y627990D03*
D10*
X1665160Y618790D02*
X1665160Y611790D01*
X1665160Y618790D02*
X1672160Y618790D01*
X1672160Y611790D01*
X1665160Y611790D01*
X1665160Y614640D02*
X1672160Y614640D01*
X1672160Y617490D02*
X1665160Y617490D01*
X1647620Y618790D02*
X1647620Y611790D01*
X1647620Y618790D02*
X1654620Y618790D01*
X1654620Y611790D01*
X1647620Y611790D01*
X1647620Y614640D02*
X1654620Y614640D01*
X1654620Y617490D02*
X1647620Y617490D01*
D11*
X1668390Y551790D03*
X1651390Y551790D03*
D10*
X1665160Y542590D02*
X1665160Y535590D01*
X1665160Y542590D02*
X1672160Y542590D01*
X1672160Y535590D01*
X1665160Y535590D01*
X1665160Y538440D02*
X1672160Y538440D01*
X1672160Y541290D02*
X1665160Y541290D01*
X1647620Y542590D02*
X1647620Y535590D01*
X1647620Y542590D02*
X1654620Y542590D01*
X1654620Y535590D01*
X1647620Y535590D01*
X1647620Y538440D02*
X1654620Y538440D01*
X1654620Y541290D02*
X1647620Y541290D01*
D11*
X1668390Y475590D03*
X1651390Y475590D03*
D10*
X1665160Y466390D02*
X1665160Y459390D01*
X1665160Y466390D02*
X1672160Y466390D01*
X1672160Y459390D01*
X1665160Y459390D01*
X1665160Y462240D02*
X1672160Y462240D01*
X1672160Y465090D02*
X1665160Y465090D01*
X1647620Y466390D02*
X1647620Y459390D01*
X1647620Y466390D02*
X1654620Y466390D01*
X1654620Y459390D01*
X1647620Y459390D01*
X1647620Y462240D02*
X1654620Y462240D01*
X1654620Y465090D02*
X1647620Y465090D01*
D27*
X1427320Y468140D03*
X1407320Y468140D03*
D28*
X1451320Y416140D03*
X1383320Y416140D03*
D19*
X1837570Y58010D03*
X1832570Y58010D03*
D20*
X1862320Y58010D03*
X1854570Y58010D03*
D19*
X1847570Y58010D03*
X1842570Y58010D03*
X1822570Y58010D03*
X1827570Y58010D03*
D20*
X1797820Y58010D03*
X1805570Y58010D03*
D19*
X1812570Y58010D03*
X1817570Y58010D03*
D11*
X1876670Y98240D03*
X1859670Y98240D03*
X1783470Y98240D03*
X1800470Y98240D03*
D31*
X1468420Y44880D03*
D32*
X1524420Y12880D03*
X1449920Y12880D03*
D31*
X1480920Y44880D03*
X1493420Y44880D03*
X1505920Y44880D03*
X1925620Y44880D03*
D32*
X1981620Y12880D03*
X1907120Y12880D03*
D31*
X1938120Y44880D03*
X1950620Y44880D03*
X1963120Y44880D03*
D11*
X1780150Y627990D03*
X1763150Y627990D03*
D10*
X1776920Y618790D02*
X1776920Y611790D01*
X1776920Y618790D02*
X1783920Y618790D01*
X1783920Y611790D01*
X1776920Y611790D01*
X1776920Y614640D02*
X1783920Y614640D01*
X1783920Y617490D02*
X1776920Y617490D01*
X1759380Y618790D02*
X1759380Y611790D01*
X1759380Y618790D02*
X1766380Y618790D01*
X1766380Y611790D01*
X1759380Y611790D01*
X1759380Y614640D02*
X1766380Y614640D01*
X1766380Y617490D02*
X1759380Y617490D01*
D25*
X1874370Y266740D03*
D26*
X1874370Y274740D03*
X1874370Y282740D03*
D25*
X1874370Y290740D03*
X1861370Y290740D03*
D26*
X1861370Y282740D03*
X1861370Y274740D03*
D25*
X1861370Y266740D03*
D11*
X1884290Y174440D03*
X1867290Y174440D03*
D33*
X1841570Y110940D03*
X1818570Y110940D03*
D34*
X1878820Y363400D03*
X1878820Y352400D03*
X1878820Y341400D03*
X1908320Y341400D03*
X1908320Y352400D03*
X1908320Y363400D03*
D11*
X1861430Y367640D03*
X1844430Y367640D03*
X1861430Y337160D03*
X1844430Y337160D03*
X1861430Y352400D03*
X1844430Y352400D03*
D13*
X1728771Y447040D03*
X1728771Y456540D03*
X1728771Y466040D03*
X1702769Y466040D03*
X1702769Y447040D03*
D11*
X1724270Y481940D03*
X1707270Y481940D03*
X1707270Y431140D03*
X1724270Y431140D03*
D35*
X1471620Y214840D03*
X1471620Y189840D03*
X1471620Y164840D03*
X1528120Y214840D03*
X1528120Y189840D03*
X1528120Y164840D03*
X1471620Y341840D03*
X1471620Y316840D03*
X1471620Y291840D03*
X1528120Y341840D03*
X1528120Y316840D03*
X1528120Y291840D03*
D21*
X1825070Y134990D03*
D22*
X1830070Y134740D03*
X1835070Y134740D03*
X1835070Y143340D03*
X1830070Y143340D03*
X1825070Y143340D03*
D36*
X1444050Y655850D03*
X1388050Y655850D03*
D37*
X1431050Y619100D03*
X1421050Y619100D03*
X1411050Y619100D03*
X1401050Y619100D03*
M02*
