G04 EAGLE Gerber RS-274X export*
G75*
%MOMM*%
%FSLAX34Y34*%
%LPD*%
%INSoldermask Top*%
%IPPOS*%
%AMOC8*
5,1,8,0,0,1.08239X$1,22.5*%
G01*
%ADD10C,3.403600*%
%ADD11C,0.838200*%
%ADD12C,0.505344*%
%ADD13R,1.303200X1.203200*%
%ADD14R,1.203200X1.303200*%
%ADD15R,1.403200X0.753200*%
%ADD16R,1.103200X1.053200*%
%ADD17R,0.803200X0.803200*%
%ADD18R,1.053200X1.723200*%
%ADD19R,1.723200X1.053200*%
%ADD20R,1.303200X1.303200*%
%ADD21R,0.503200X1.203200*%
%ADD22R,0.803200X1.203200*%
%ADD23C,0.853200*%
%ADD24R,0.453200X0.813200*%
%ADD25R,0.453200X0.763200*%
%ADD26R,1.353200X7.203200*%
%ADD27R,1.103200X2.403200*%
%ADD28R,0.620000X0.840000*%
%ADD29R,0.620000X0.560000*%
%ADD30R,0.640000X0.840000*%
%ADD31R,1.203200X4.803200*%
%ADD32R,1.803200X3.603200*%
%ADD33R,4.803200X1.203200*%
%ADD34R,3.603200X1.803200*%
%ADD35C,2.082800*%
%ADD36R,0.803200X1.903200*%
%ADD37R,1.203200X2.903200*%
%ADD38R,0.833200X1.033200*%
%ADD39R,0.838200X1.473200*%
%ADD40R,1.503200X0.903200*%
%ADD41R,1.353200X1.203200*%
%ADD42C,1.053200*%
%ADD43R,1.403200X2.203200*%
%ADD44R,0.803200X1.553200*%
%ADD45C,1.203200*%
%ADD46C,1.270000*%
%ADD47C,1.703200*%

G36*
X1130563Y1213308D02*
X1130563Y1213308D01*
X1130569Y1213313D01*
X1130573Y1213310D01*
X1131804Y1213675D01*
X1131809Y1213681D01*
X1131814Y1213679D01*
X1132932Y1214309D01*
X1132936Y1214317D01*
X1132941Y1214316D01*
X1133891Y1215178D01*
X1133893Y1215187D01*
X1133899Y1215187D01*
X1134633Y1216239D01*
X1134632Y1216248D01*
X1134638Y1216249D01*
X1135120Y1217439D01*
X1135118Y1217444D01*
X1135122Y1217447D01*
X1135121Y1217449D01*
X1135123Y1217450D01*
X1135327Y1218717D01*
X1135324Y1218722D01*
X1135328Y1218724D01*
X1135328Y1230724D01*
X1135325Y1230729D01*
X1135327Y1230731D01*
X1135173Y1231853D01*
X1135167Y1231859D01*
X1135170Y1231863D01*
X1134799Y1232933D01*
X1134793Y1232937D01*
X1134795Y1232942D01*
X1134223Y1233920D01*
X1134216Y1233923D01*
X1134217Y1233928D01*
X1133465Y1234775D01*
X1133458Y1234776D01*
X1133458Y1234781D01*
X1132555Y1235465D01*
X1132547Y1235465D01*
X1132546Y1235470D01*
X1131527Y1235965D01*
X1131520Y1235964D01*
X1131518Y1235969D01*
X1130422Y1236255D01*
X1130415Y1236252D01*
X1130412Y1236257D01*
X1129282Y1236324D01*
X1129281Y1236323D01*
X1129276Y1236323D01*
X1129276Y1236324D01*
X1128145Y1236257D01*
X1128139Y1236252D01*
X1128135Y1236255D01*
X1127039Y1235969D01*
X1127035Y1235963D01*
X1127030Y1235965D01*
X1126011Y1235470D01*
X1126007Y1235464D01*
X1126003Y1235465D01*
X1125099Y1234781D01*
X1125097Y1234774D01*
X1125092Y1234775D01*
X1124340Y1233928D01*
X1124340Y1233920D01*
X1124334Y1233920D01*
X1123762Y1232942D01*
X1123762Y1232939D01*
X1123761Y1232938D01*
X1123762Y1232937D01*
X1123763Y1232935D01*
X1123758Y1232933D01*
X1123387Y1231863D01*
X1123389Y1231858D01*
X1123385Y1231855D01*
X1123386Y1231854D01*
X1123385Y1231853D01*
X1123230Y1230731D01*
X1123232Y1230727D01*
X1123229Y1230724D01*
X1123229Y1218724D01*
X1123233Y1218720D01*
X1123230Y1218717D01*
X1123435Y1217450D01*
X1123441Y1217444D01*
X1123438Y1217439D01*
X1123919Y1216249D01*
X1123926Y1216245D01*
X1123924Y1216239D01*
X1124659Y1215187D01*
X1124666Y1215184D01*
X1124666Y1215178D01*
X1125616Y1214316D01*
X1125624Y1214315D01*
X1125625Y1214309D01*
X1126743Y1213679D01*
X1126751Y1213680D01*
X1126753Y1213675D01*
X1127984Y1213310D01*
X1127991Y1213312D01*
X1127995Y1213308D01*
X1129275Y1213225D01*
X1129279Y1213228D01*
X1129282Y1213225D01*
X1130563Y1213308D01*
G37*
G36*
X303168Y1213308D02*
X303168Y1213308D01*
X303175Y1213313D01*
X303179Y1213310D01*
X304410Y1213675D01*
X304415Y1213681D01*
X304420Y1213679D01*
X305538Y1214309D01*
X305541Y1214317D01*
X305547Y1214316D01*
X306497Y1215178D01*
X306499Y1215187D01*
X306504Y1215187D01*
X307239Y1216239D01*
X307238Y1216248D01*
X307244Y1216249D01*
X307725Y1217439D01*
X307724Y1217444D01*
X307728Y1217447D01*
X307727Y1217449D01*
X307728Y1217450D01*
X307933Y1218717D01*
X307930Y1218722D01*
X307934Y1218724D01*
X307934Y1230724D01*
X307931Y1230729D01*
X307933Y1230731D01*
X307778Y1231853D01*
X307773Y1231859D01*
X307776Y1231863D01*
X307405Y1232933D01*
X307399Y1232937D01*
X307401Y1232942D01*
X306829Y1233920D01*
X306822Y1233923D01*
X306823Y1233928D01*
X306071Y1234775D01*
X306064Y1234776D01*
X306064Y1234781D01*
X305161Y1235465D01*
X305153Y1235465D01*
X305152Y1235470D01*
X304133Y1235965D01*
X304126Y1235964D01*
X304124Y1235969D01*
X303028Y1236255D01*
X303021Y1236252D01*
X303018Y1236257D01*
X301887Y1236324D01*
X301887Y1236323D01*
X301882Y1236323D01*
X301882Y1236324D01*
X300751Y1236257D01*
X300745Y1236252D01*
X300741Y1236255D01*
X299645Y1235969D01*
X299640Y1235963D01*
X299636Y1235965D01*
X298617Y1235470D01*
X298613Y1235464D01*
X298608Y1235465D01*
X297705Y1234781D01*
X297703Y1234774D01*
X297698Y1234775D01*
X296946Y1233928D01*
X296945Y1233920D01*
X296940Y1233920D01*
X296368Y1232942D01*
X296368Y1232939D01*
X296367Y1232938D01*
X296368Y1232937D01*
X296368Y1232935D01*
X296364Y1232933D01*
X295993Y1231863D01*
X295995Y1231858D01*
X295991Y1231855D01*
X295992Y1231854D01*
X295991Y1231853D01*
X295836Y1230731D01*
X295838Y1230727D01*
X295835Y1230724D01*
X295835Y1218724D01*
X295839Y1218720D01*
X295836Y1218717D01*
X296041Y1217450D01*
X296046Y1217444D01*
X296043Y1217439D01*
X296525Y1216249D01*
X296532Y1216245D01*
X296530Y1216239D01*
X297264Y1215187D01*
X297272Y1215184D01*
X297272Y1215178D01*
X298222Y1214316D01*
X298230Y1214315D01*
X298231Y1214309D01*
X299349Y1213679D01*
X299357Y1213680D01*
X299359Y1213675D01*
X300590Y1213310D01*
X300597Y1213312D01*
X300600Y1213308D01*
X301881Y1213225D01*
X301885Y1213228D01*
X301888Y1213225D01*
X303168Y1213308D01*
G37*
G36*
X1158463Y1213308D02*
X1158463Y1213308D01*
X1158469Y1213313D01*
X1158473Y1213310D01*
X1159704Y1213675D01*
X1159709Y1213681D01*
X1159714Y1213679D01*
X1160832Y1214309D01*
X1160836Y1214317D01*
X1160841Y1214316D01*
X1161791Y1215178D01*
X1161793Y1215187D01*
X1161799Y1215187D01*
X1162533Y1216239D01*
X1162532Y1216248D01*
X1162538Y1216249D01*
X1163020Y1217439D01*
X1163018Y1217444D01*
X1163022Y1217447D01*
X1163021Y1217449D01*
X1163023Y1217450D01*
X1163227Y1218717D01*
X1163224Y1218722D01*
X1163228Y1218724D01*
X1163228Y1230724D01*
X1163225Y1230729D01*
X1163227Y1230731D01*
X1163073Y1231853D01*
X1163067Y1231859D01*
X1163070Y1231863D01*
X1162699Y1232933D01*
X1162693Y1232937D01*
X1162695Y1232942D01*
X1162123Y1233920D01*
X1162116Y1233923D01*
X1162117Y1233928D01*
X1161365Y1234775D01*
X1161358Y1234776D01*
X1161358Y1234781D01*
X1160455Y1235465D01*
X1160447Y1235465D01*
X1160446Y1235470D01*
X1159427Y1235965D01*
X1159420Y1235964D01*
X1159418Y1235969D01*
X1158322Y1236255D01*
X1158315Y1236252D01*
X1158312Y1236257D01*
X1157182Y1236324D01*
X1157181Y1236323D01*
X1157176Y1236323D01*
X1157176Y1236324D01*
X1156045Y1236257D01*
X1156039Y1236252D01*
X1156035Y1236255D01*
X1154939Y1235969D01*
X1154935Y1235963D01*
X1154930Y1235965D01*
X1153911Y1235470D01*
X1153907Y1235464D01*
X1153903Y1235465D01*
X1152999Y1234781D01*
X1152997Y1234774D01*
X1152992Y1234775D01*
X1152240Y1233928D01*
X1152240Y1233920D01*
X1152234Y1233920D01*
X1151662Y1232942D01*
X1151662Y1232939D01*
X1151661Y1232938D01*
X1151662Y1232937D01*
X1151663Y1232935D01*
X1151658Y1232933D01*
X1151287Y1231863D01*
X1151289Y1231858D01*
X1151285Y1231855D01*
X1151286Y1231854D01*
X1151285Y1231853D01*
X1151130Y1230731D01*
X1151132Y1230727D01*
X1151129Y1230724D01*
X1151129Y1218724D01*
X1151133Y1218720D01*
X1151130Y1218717D01*
X1151335Y1217450D01*
X1151341Y1217444D01*
X1151338Y1217439D01*
X1151819Y1216249D01*
X1151826Y1216245D01*
X1151824Y1216239D01*
X1152559Y1215187D01*
X1152566Y1215184D01*
X1152566Y1215178D01*
X1153516Y1214316D01*
X1153524Y1214315D01*
X1153525Y1214309D01*
X1154643Y1213679D01*
X1154651Y1213680D01*
X1154653Y1213675D01*
X1155884Y1213310D01*
X1155891Y1213312D01*
X1155895Y1213308D01*
X1157175Y1213225D01*
X1157179Y1213228D01*
X1157182Y1213225D01*
X1158463Y1213308D01*
G37*
G36*
X389568Y1213308D02*
X389568Y1213308D01*
X389575Y1213313D01*
X389579Y1213310D01*
X390810Y1213675D01*
X390815Y1213681D01*
X390820Y1213679D01*
X391938Y1214309D01*
X391941Y1214317D01*
X391947Y1214316D01*
X392897Y1215178D01*
X392899Y1215187D01*
X392904Y1215187D01*
X393639Y1216239D01*
X393638Y1216248D01*
X393644Y1216249D01*
X394125Y1217439D01*
X394124Y1217444D01*
X394128Y1217447D01*
X394127Y1217449D01*
X394128Y1217450D01*
X394333Y1218717D01*
X394330Y1218722D01*
X394334Y1218724D01*
X394334Y1230724D01*
X394331Y1230729D01*
X394333Y1230731D01*
X394178Y1231853D01*
X394173Y1231859D01*
X394176Y1231863D01*
X393805Y1232933D01*
X393799Y1232937D01*
X393801Y1232942D01*
X393229Y1233920D01*
X393222Y1233923D01*
X393223Y1233928D01*
X392471Y1234775D01*
X392464Y1234776D01*
X392464Y1234781D01*
X391561Y1235465D01*
X391553Y1235465D01*
X391552Y1235470D01*
X390533Y1235965D01*
X390526Y1235964D01*
X390524Y1235969D01*
X389428Y1236255D01*
X389421Y1236252D01*
X389418Y1236257D01*
X388287Y1236324D01*
X388287Y1236323D01*
X388282Y1236323D01*
X388282Y1236324D01*
X387151Y1236257D01*
X387145Y1236252D01*
X387141Y1236255D01*
X386045Y1235969D01*
X386040Y1235963D01*
X386036Y1235965D01*
X385017Y1235470D01*
X385013Y1235464D01*
X385008Y1235465D01*
X384105Y1234781D01*
X384103Y1234774D01*
X384098Y1234775D01*
X383346Y1233928D01*
X383345Y1233920D01*
X383340Y1233920D01*
X382768Y1232942D01*
X382768Y1232939D01*
X382767Y1232938D01*
X382768Y1232937D01*
X382768Y1232935D01*
X382764Y1232933D01*
X382393Y1231863D01*
X382395Y1231858D01*
X382391Y1231855D01*
X382392Y1231854D01*
X382391Y1231853D01*
X382236Y1230731D01*
X382238Y1230727D01*
X382235Y1230724D01*
X382235Y1218724D01*
X382239Y1218720D01*
X382236Y1218717D01*
X382441Y1217450D01*
X382446Y1217444D01*
X382443Y1217439D01*
X382925Y1216249D01*
X382932Y1216245D01*
X382930Y1216239D01*
X383664Y1215187D01*
X383672Y1215184D01*
X383672Y1215178D01*
X384622Y1214316D01*
X384630Y1214315D01*
X384631Y1214309D01*
X385749Y1213679D01*
X385757Y1213680D01*
X385759Y1213675D01*
X386990Y1213310D01*
X386997Y1213312D01*
X387000Y1213308D01*
X388281Y1213225D01*
X388285Y1213228D01*
X388288Y1213225D01*
X389568Y1213308D01*
G37*
G36*
X417468Y1213308D02*
X417468Y1213308D01*
X417475Y1213313D01*
X417479Y1213310D01*
X418710Y1213675D01*
X418715Y1213681D01*
X418720Y1213679D01*
X419838Y1214309D01*
X419841Y1214317D01*
X419847Y1214316D01*
X420797Y1215178D01*
X420799Y1215187D01*
X420804Y1215187D01*
X421539Y1216239D01*
X421538Y1216248D01*
X421544Y1216249D01*
X422025Y1217439D01*
X422024Y1217444D01*
X422028Y1217447D01*
X422027Y1217449D01*
X422028Y1217450D01*
X422233Y1218717D01*
X422230Y1218722D01*
X422234Y1218724D01*
X422234Y1230724D01*
X422231Y1230729D01*
X422233Y1230731D01*
X422078Y1231853D01*
X422073Y1231859D01*
X422076Y1231863D01*
X421705Y1232933D01*
X421699Y1232937D01*
X421701Y1232942D01*
X421129Y1233920D01*
X421122Y1233923D01*
X421123Y1233928D01*
X420371Y1234775D01*
X420364Y1234776D01*
X420364Y1234781D01*
X419461Y1235465D01*
X419453Y1235465D01*
X419452Y1235470D01*
X418433Y1235965D01*
X418426Y1235964D01*
X418424Y1235969D01*
X417328Y1236255D01*
X417321Y1236252D01*
X417318Y1236257D01*
X416187Y1236324D01*
X416187Y1236323D01*
X416182Y1236323D01*
X416182Y1236324D01*
X415051Y1236257D01*
X415045Y1236252D01*
X415041Y1236255D01*
X413945Y1235969D01*
X413940Y1235963D01*
X413936Y1235965D01*
X412917Y1235470D01*
X412913Y1235464D01*
X412908Y1235465D01*
X412005Y1234781D01*
X412003Y1234774D01*
X411998Y1234775D01*
X411246Y1233928D01*
X411245Y1233920D01*
X411240Y1233920D01*
X410668Y1232942D01*
X410668Y1232939D01*
X410667Y1232938D01*
X410668Y1232937D01*
X410668Y1232935D01*
X410664Y1232933D01*
X410293Y1231863D01*
X410295Y1231858D01*
X410291Y1231855D01*
X410292Y1231854D01*
X410291Y1231853D01*
X410136Y1230731D01*
X410138Y1230727D01*
X410135Y1230724D01*
X410135Y1218724D01*
X410139Y1218720D01*
X410136Y1218717D01*
X410341Y1217450D01*
X410346Y1217444D01*
X410343Y1217439D01*
X410825Y1216249D01*
X410832Y1216245D01*
X410830Y1216239D01*
X411564Y1215187D01*
X411572Y1215184D01*
X411572Y1215178D01*
X412522Y1214316D01*
X412530Y1214315D01*
X412531Y1214309D01*
X413649Y1213679D01*
X413657Y1213680D01*
X413659Y1213675D01*
X414890Y1213310D01*
X414897Y1213312D01*
X414900Y1213308D01*
X416181Y1213225D01*
X416185Y1213228D01*
X416188Y1213225D01*
X417468Y1213308D01*
G37*
G36*
X503868Y1213308D02*
X503868Y1213308D01*
X503875Y1213313D01*
X503879Y1213310D01*
X505110Y1213675D01*
X505115Y1213681D01*
X505120Y1213679D01*
X506238Y1214309D01*
X506241Y1214317D01*
X506247Y1214316D01*
X507197Y1215178D01*
X507199Y1215187D01*
X507204Y1215187D01*
X507939Y1216239D01*
X507938Y1216248D01*
X507944Y1216249D01*
X508425Y1217439D01*
X508424Y1217444D01*
X508428Y1217447D01*
X508427Y1217449D01*
X508428Y1217450D01*
X508633Y1218717D01*
X508630Y1218722D01*
X508634Y1218724D01*
X508634Y1230724D01*
X508631Y1230729D01*
X508633Y1230731D01*
X508478Y1231853D01*
X508473Y1231859D01*
X508476Y1231863D01*
X508105Y1232933D01*
X508099Y1232937D01*
X508101Y1232942D01*
X507529Y1233920D01*
X507522Y1233923D01*
X507523Y1233928D01*
X506771Y1234775D01*
X506764Y1234776D01*
X506764Y1234781D01*
X505861Y1235465D01*
X505853Y1235465D01*
X505852Y1235470D01*
X504833Y1235965D01*
X504826Y1235964D01*
X504824Y1235969D01*
X503728Y1236255D01*
X503721Y1236252D01*
X503718Y1236257D01*
X502587Y1236324D01*
X502587Y1236323D01*
X502582Y1236323D01*
X502582Y1236324D01*
X501451Y1236257D01*
X501445Y1236252D01*
X501441Y1236255D01*
X500345Y1235969D01*
X500340Y1235963D01*
X500336Y1235965D01*
X499317Y1235470D01*
X499313Y1235464D01*
X499308Y1235465D01*
X498405Y1234781D01*
X498403Y1234774D01*
X498398Y1234775D01*
X497646Y1233928D01*
X497645Y1233920D01*
X497640Y1233920D01*
X497068Y1232942D01*
X497068Y1232939D01*
X497067Y1232938D01*
X497068Y1232937D01*
X497068Y1232935D01*
X497064Y1232933D01*
X496693Y1231863D01*
X496695Y1231858D01*
X496691Y1231855D01*
X496692Y1231854D01*
X496691Y1231853D01*
X496536Y1230731D01*
X496538Y1230727D01*
X496535Y1230724D01*
X496535Y1218724D01*
X496539Y1218720D01*
X496536Y1218717D01*
X496741Y1217450D01*
X496746Y1217444D01*
X496743Y1217439D01*
X497225Y1216249D01*
X497232Y1216245D01*
X497230Y1216239D01*
X497964Y1215187D01*
X497972Y1215184D01*
X497972Y1215178D01*
X498922Y1214316D01*
X498930Y1214315D01*
X498931Y1214309D01*
X500049Y1213679D01*
X500057Y1213680D01*
X500059Y1213675D01*
X501290Y1213310D01*
X501297Y1213312D01*
X501300Y1213308D01*
X502581Y1213225D01*
X502585Y1213228D01*
X502588Y1213225D01*
X503868Y1213308D01*
G37*
G36*
X1244863Y1213308D02*
X1244863Y1213308D01*
X1244869Y1213313D01*
X1244873Y1213310D01*
X1246104Y1213675D01*
X1246109Y1213681D01*
X1246114Y1213679D01*
X1247232Y1214309D01*
X1247236Y1214317D01*
X1247241Y1214316D01*
X1248191Y1215178D01*
X1248193Y1215187D01*
X1248199Y1215187D01*
X1248933Y1216239D01*
X1248932Y1216248D01*
X1248938Y1216249D01*
X1249420Y1217439D01*
X1249418Y1217444D01*
X1249422Y1217447D01*
X1249421Y1217449D01*
X1249423Y1217450D01*
X1249627Y1218717D01*
X1249624Y1218722D01*
X1249628Y1218724D01*
X1249628Y1230724D01*
X1249625Y1230729D01*
X1249627Y1230731D01*
X1249473Y1231853D01*
X1249467Y1231859D01*
X1249470Y1231863D01*
X1249099Y1232933D01*
X1249093Y1232937D01*
X1249095Y1232942D01*
X1248523Y1233920D01*
X1248516Y1233923D01*
X1248517Y1233928D01*
X1247765Y1234775D01*
X1247758Y1234776D01*
X1247758Y1234781D01*
X1246855Y1235465D01*
X1246847Y1235465D01*
X1246846Y1235470D01*
X1245827Y1235965D01*
X1245820Y1235964D01*
X1245818Y1235969D01*
X1244722Y1236255D01*
X1244715Y1236252D01*
X1244712Y1236257D01*
X1243582Y1236324D01*
X1243581Y1236323D01*
X1243576Y1236323D01*
X1243576Y1236324D01*
X1242445Y1236257D01*
X1242439Y1236252D01*
X1242435Y1236255D01*
X1241339Y1235969D01*
X1241335Y1235963D01*
X1241330Y1235965D01*
X1240311Y1235470D01*
X1240307Y1235464D01*
X1240303Y1235465D01*
X1239399Y1234781D01*
X1239397Y1234774D01*
X1239392Y1234775D01*
X1238640Y1233928D01*
X1238640Y1233920D01*
X1238634Y1233920D01*
X1238062Y1232942D01*
X1238062Y1232939D01*
X1238061Y1232938D01*
X1238062Y1232937D01*
X1238063Y1232935D01*
X1238058Y1232933D01*
X1237687Y1231863D01*
X1237689Y1231858D01*
X1237685Y1231855D01*
X1237686Y1231854D01*
X1237685Y1231853D01*
X1237530Y1230731D01*
X1237532Y1230727D01*
X1237529Y1230724D01*
X1237529Y1218724D01*
X1237533Y1218720D01*
X1237530Y1218717D01*
X1237735Y1217450D01*
X1237741Y1217444D01*
X1237738Y1217439D01*
X1238219Y1216249D01*
X1238226Y1216245D01*
X1238224Y1216239D01*
X1238959Y1215187D01*
X1238966Y1215184D01*
X1238966Y1215178D01*
X1239916Y1214316D01*
X1239924Y1214315D01*
X1239925Y1214309D01*
X1241043Y1213679D01*
X1241051Y1213680D01*
X1241053Y1213675D01*
X1242284Y1213310D01*
X1242291Y1213312D01*
X1242295Y1213308D01*
X1243575Y1213225D01*
X1243579Y1213228D01*
X1243582Y1213225D01*
X1244863Y1213308D01*
G37*
G36*
X1044163Y1213308D02*
X1044163Y1213308D01*
X1044169Y1213313D01*
X1044173Y1213310D01*
X1045404Y1213675D01*
X1045409Y1213681D01*
X1045414Y1213679D01*
X1046532Y1214309D01*
X1046536Y1214317D01*
X1046541Y1214316D01*
X1047491Y1215178D01*
X1047493Y1215187D01*
X1047499Y1215187D01*
X1048233Y1216239D01*
X1048232Y1216248D01*
X1048238Y1216249D01*
X1048720Y1217439D01*
X1048718Y1217444D01*
X1048722Y1217447D01*
X1048721Y1217449D01*
X1048723Y1217450D01*
X1048927Y1218717D01*
X1048924Y1218722D01*
X1048928Y1218724D01*
X1048928Y1230724D01*
X1048925Y1230729D01*
X1048927Y1230731D01*
X1048773Y1231853D01*
X1048767Y1231859D01*
X1048770Y1231863D01*
X1048399Y1232933D01*
X1048393Y1232937D01*
X1048395Y1232942D01*
X1047823Y1233920D01*
X1047816Y1233923D01*
X1047817Y1233928D01*
X1047065Y1234775D01*
X1047058Y1234776D01*
X1047058Y1234781D01*
X1046155Y1235465D01*
X1046147Y1235465D01*
X1046146Y1235470D01*
X1045127Y1235965D01*
X1045120Y1235964D01*
X1045118Y1235969D01*
X1044022Y1236255D01*
X1044015Y1236252D01*
X1044012Y1236257D01*
X1042882Y1236324D01*
X1042881Y1236323D01*
X1042876Y1236323D01*
X1042876Y1236324D01*
X1041745Y1236257D01*
X1041739Y1236252D01*
X1041735Y1236255D01*
X1040639Y1235969D01*
X1040635Y1235963D01*
X1040630Y1235965D01*
X1039611Y1235470D01*
X1039607Y1235464D01*
X1039603Y1235465D01*
X1038699Y1234781D01*
X1038697Y1234774D01*
X1038692Y1234775D01*
X1037940Y1233928D01*
X1037940Y1233920D01*
X1037934Y1233920D01*
X1037362Y1232942D01*
X1037362Y1232939D01*
X1037361Y1232938D01*
X1037362Y1232937D01*
X1037363Y1232935D01*
X1037358Y1232933D01*
X1036987Y1231863D01*
X1036989Y1231858D01*
X1036985Y1231855D01*
X1036986Y1231854D01*
X1036985Y1231853D01*
X1036830Y1230731D01*
X1036832Y1230727D01*
X1036829Y1230724D01*
X1036829Y1218724D01*
X1036833Y1218720D01*
X1036830Y1218717D01*
X1037035Y1217450D01*
X1037041Y1217444D01*
X1037038Y1217439D01*
X1037519Y1216249D01*
X1037526Y1216245D01*
X1037524Y1216239D01*
X1038259Y1215187D01*
X1038266Y1215184D01*
X1038266Y1215178D01*
X1039216Y1214316D01*
X1039224Y1214315D01*
X1039225Y1214309D01*
X1040343Y1213679D01*
X1040351Y1213680D01*
X1040353Y1213675D01*
X1041584Y1213310D01*
X1041591Y1213312D01*
X1041595Y1213308D01*
X1042875Y1213225D01*
X1042879Y1213228D01*
X1042882Y1213225D01*
X1044163Y1213308D01*
G37*
G36*
X1130563Y40793D02*
X1130563Y40793D01*
X1130569Y40798D01*
X1130573Y40795D01*
X1131804Y41160D01*
X1131809Y41167D01*
X1131814Y41164D01*
X1132932Y41794D01*
X1132936Y41802D01*
X1132941Y41801D01*
X1133891Y42664D01*
X1133893Y42672D01*
X1133899Y42672D01*
X1134633Y43725D01*
X1134632Y43733D01*
X1134638Y43734D01*
X1135120Y44924D01*
X1135118Y44930D01*
X1135122Y44933D01*
X1135121Y44934D01*
X1135123Y44935D01*
X1135327Y46202D01*
X1135324Y46207D01*
X1135328Y46210D01*
X1135328Y58210D01*
X1135325Y58214D01*
X1135327Y58216D01*
X1135173Y59339D01*
X1135167Y59344D01*
X1135170Y59348D01*
X1134799Y60419D01*
X1134793Y60423D01*
X1134795Y60427D01*
X1134223Y61405D01*
X1134216Y61408D01*
X1134217Y61413D01*
X1133465Y62260D01*
X1133458Y62261D01*
X1133458Y62267D01*
X1132555Y62951D01*
X1132547Y62951D01*
X1132546Y62956D01*
X1131527Y63450D01*
X1131520Y63449D01*
X1131518Y63454D01*
X1130422Y63740D01*
X1130415Y63737D01*
X1130412Y63742D01*
X1129282Y63809D01*
X1129281Y63809D01*
X1129276Y63809D01*
X1128145Y63742D01*
X1128139Y63737D01*
X1128135Y63740D01*
X1127039Y63454D01*
X1127035Y63448D01*
X1127030Y63450D01*
X1126011Y62956D01*
X1126007Y62949D01*
X1126003Y62951D01*
X1125099Y62267D01*
X1125097Y62260D01*
X1125092Y62260D01*
X1124340Y61413D01*
X1124340Y61406D01*
X1124334Y61405D01*
X1123762Y60427D01*
X1123762Y60424D01*
X1123761Y60424D01*
X1123762Y60422D01*
X1123763Y60420D01*
X1123758Y60419D01*
X1123387Y59348D01*
X1123389Y59343D01*
X1123385Y59340D01*
X1123386Y59339D01*
X1123385Y59339D01*
X1123230Y58216D01*
X1123232Y58212D01*
X1123229Y58210D01*
X1123229Y46210D01*
X1123233Y46205D01*
X1123230Y46202D01*
X1123435Y44935D01*
X1123441Y44929D01*
X1123438Y44924D01*
X1123919Y43734D01*
X1123926Y43730D01*
X1123924Y43725D01*
X1124659Y42672D01*
X1124666Y42669D01*
X1124666Y42664D01*
X1125616Y41801D01*
X1125624Y41800D01*
X1125625Y41794D01*
X1126743Y41164D01*
X1126751Y41165D01*
X1126753Y41160D01*
X1127984Y40795D01*
X1127991Y40798D01*
X1127995Y40793D01*
X1129275Y40710D01*
X1129279Y40713D01*
X1129282Y40710D01*
X1130563Y40793D01*
G37*
G36*
X503868Y40793D02*
X503868Y40793D01*
X503875Y40798D01*
X503879Y40795D01*
X505110Y41160D01*
X505115Y41167D01*
X505120Y41164D01*
X506238Y41794D01*
X506241Y41802D01*
X506247Y41801D01*
X507197Y42664D01*
X507199Y42672D01*
X507204Y42672D01*
X507939Y43725D01*
X507938Y43733D01*
X507944Y43734D01*
X508425Y44924D01*
X508424Y44930D01*
X508428Y44933D01*
X508427Y44934D01*
X508428Y44935D01*
X508633Y46202D01*
X508630Y46207D01*
X508634Y46210D01*
X508634Y58210D01*
X508631Y58214D01*
X508633Y58216D01*
X508478Y59339D01*
X508473Y59344D01*
X508476Y59348D01*
X508105Y60419D01*
X508099Y60423D01*
X508101Y60427D01*
X507529Y61405D01*
X507522Y61408D01*
X507523Y61413D01*
X506771Y62260D01*
X506764Y62261D01*
X506764Y62267D01*
X505861Y62951D01*
X505853Y62951D01*
X505852Y62956D01*
X504833Y63450D01*
X504826Y63449D01*
X504824Y63454D01*
X503728Y63740D01*
X503721Y63737D01*
X503718Y63742D01*
X502587Y63809D01*
X502582Y63809D01*
X501451Y63742D01*
X501445Y63737D01*
X501441Y63740D01*
X500345Y63454D01*
X500340Y63448D01*
X500336Y63450D01*
X499317Y62956D01*
X499313Y62949D01*
X499308Y62951D01*
X498405Y62267D01*
X498403Y62260D01*
X498398Y62260D01*
X497646Y61413D01*
X497645Y61406D01*
X497640Y61405D01*
X497068Y60427D01*
X497068Y60424D01*
X497067Y60424D01*
X497068Y60422D01*
X497068Y60420D01*
X497064Y60419D01*
X496693Y59348D01*
X496695Y59343D01*
X496691Y59340D01*
X496692Y59339D01*
X496691Y59339D01*
X496536Y58216D01*
X496538Y58212D01*
X496535Y58210D01*
X496535Y46210D01*
X496539Y46205D01*
X496536Y46202D01*
X496741Y44935D01*
X496746Y44929D01*
X496743Y44924D01*
X497225Y43734D01*
X497232Y43730D01*
X497230Y43725D01*
X497964Y42672D01*
X497972Y42669D01*
X497972Y42664D01*
X498922Y41801D01*
X498930Y41800D01*
X498931Y41794D01*
X500049Y41164D01*
X500057Y41165D01*
X500059Y41160D01*
X501290Y40795D01*
X501297Y40798D01*
X501300Y40793D01*
X502581Y40710D01*
X502585Y40713D01*
X502588Y40710D01*
X503868Y40793D01*
G37*
G36*
X389568Y40793D02*
X389568Y40793D01*
X389575Y40798D01*
X389579Y40795D01*
X390810Y41160D01*
X390815Y41167D01*
X390820Y41164D01*
X391938Y41794D01*
X391941Y41802D01*
X391947Y41801D01*
X392897Y42664D01*
X392899Y42672D01*
X392904Y42672D01*
X393639Y43725D01*
X393638Y43733D01*
X393644Y43734D01*
X394125Y44924D01*
X394124Y44930D01*
X394128Y44933D01*
X394127Y44934D01*
X394128Y44935D01*
X394333Y46202D01*
X394330Y46207D01*
X394334Y46210D01*
X394334Y58210D01*
X394331Y58214D01*
X394333Y58216D01*
X394178Y59339D01*
X394173Y59344D01*
X394176Y59348D01*
X393805Y60419D01*
X393799Y60423D01*
X393801Y60427D01*
X393229Y61405D01*
X393222Y61408D01*
X393223Y61413D01*
X392471Y62260D01*
X392464Y62261D01*
X392464Y62267D01*
X391561Y62951D01*
X391553Y62951D01*
X391552Y62956D01*
X390533Y63450D01*
X390526Y63449D01*
X390524Y63454D01*
X389428Y63740D01*
X389421Y63737D01*
X389418Y63742D01*
X388287Y63809D01*
X388282Y63809D01*
X387151Y63742D01*
X387145Y63737D01*
X387141Y63740D01*
X386045Y63454D01*
X386040Y63448D01*
X386036Y63450D01*
X385017Y62956D01*
X385013Y62949D01*
X385008Y62951D01*
X384105Y62267D01*
X384103Y62260D01*
X384098Y62260D01*
X383346Y61413D01*
X383345Y61406D01*
X383340Y61405D01*
X382768Y60427D01*
X382768Y60424D01*
X382767Y60424D01*
X382768Y60422D01*
X382768Y60420D01*
X382764Y60419D01*
X382393Y59348D01*
X382395Y59343D01*
X382391Y59340D01*
X382392Y59339D01*
X382391Y59339D01*
X382236Y58216D01*
X382238Y58212D01*
X382235Y58210D01*
X382235Y46210D01*
X382239Y46205D01*
X382236Y46202D01*
X382441Y44935D01*
X382446Y44929D01*
X382443Y44924D01*
X382925Y43734D01*
X382932Y43730D01*
X382930Y43725D01*
X383664Y42672D01*
X383672Y42669D01*
X383672Y42664D01*
X384622Y41801D01*
X384630Y41800D01*
X384631Y41794D01*
X385749Y41164D01*
X385757Y41165D01*
X385759Y41160D01*
X386990Y40795D01*
X386997Y40798D01*
X387000Y40793D01*
X388281Y40710D01*
X388285Y40713D01*
X388288Y40710D01*
X389568Y40793D01*
G37*
G36*
X1044163Y40793D02*
X1044163Y40793D01*
X1044169Y40798D01*
X1044173Y40795D01*
X1045404Y41160D01*
X1045409Y41167D01*
X1045414Y41164D01*
X1046532Y41794D01*
X1046536Y41802D01*
X1046541Y41801D01*
X1047491Y42664D01*
X1047493Y42672D01*
X1047499Y42672D01*
X1048233Y43725D01*
X1048232Y43733D01*
X1048238Y43734D01*
X1048720Y44924D01*
X1048718Y44930D01*
X1048722Y44933D01*
X1048721Y44934D01*
X1048723Y44935D01*
X1048927Y46202D01*
X1048924Y46207D01*
X1048928Y46210D01*
X1048928Y58210D01*
X1048925Y58214D01*
X1048927Y58216D01*
X1048773Y59339D01*
X1048767Y59344D01*
X1048770Y59348D01*
X1048399Y60419D01*
X1048393Y60423D01*
X1048395Y60427D01*
X1047823Y61405D01*
X1047816Y61408D01*
X1047817Y61413D01*
X1047065Y62260D01*
X1047058Y62261D01*
X1047058Y62267D01*
X1046155Y62951D01*
X1046147Y62951D01*
X1046146Y62956D01*
X1045127Y63450D01*
X1045120Y63449D01*
X1045118Y63454D01*
X1044022Y63740D01*
X1044015Y63737D01*
X1044012Y63742D01*
X1042882Y63809D01*
X1042881Y63809D01*
X1042876Y63809D01*
X1041745Y63742D01*
X1041739Y63737D01*
X1041735Y63740D01*
X1040639Y63454D01*
X1040635Y63448D01*
X1040630Y63450D01*
X1039611Y62956D01*
X1039607Y62949D01*
X1039603Y62951D01*
X1038699Y62267D01*
X1038697Y62260D01*
X1038692Y62260D01*
X1037940Y61413D01*
X1037940Y61406D01*
X1037934Y61405D01*
X1037362Y60427D01*
X1037362Y60424D01*
X1037361Y60424D01*
X1037362Y60422D01*
X1037363Y60420D01*
X1037358Y60419D01*
X1036987Y59348D01*
X1036989Y59343D01*
X1036985Y59340D01*
X1036986Y59339D01*
X1036985Y59339D01*
X1036830Y58216D01*
X1036832Y58212D01*
X1036829Y58210D01*
X1036829Y46210D01*
X1036833Y46205D01*
X1036830Y46202D01*
X1037035Y44935D01*
X1037041Y44929D01*
X1037038Y44924D01*
X1037519Y43734D01*
X1037526Y43730D01*
X1037524Y43725D01*
X1038259Y42672D01*
X1038266Y42669D01*
X1038266Y42664D01*
X1039216Y41801D01*
X1039224Y41800D01*
X1039225Y41794D01*
X1040343Y41164D01*
X1040351Y41165D01*
X1040353Y41160D01*
X1041584Y40795D01*
X1041591Y40798D01*
X1041595Y40793D01*
X1042875Y40710D01*
X1042879Y40713D01*
X1042882Y40710D01*
X1044163Y40793D01*
G37*
G36*
X1244863Y40793D02*
X1244863Y40793D01*
X1244869Y40798D01*
X1244873Y40795D01*
X1246104Y41160D01*
X1246109Y41167D01*
X1246114Y41164D01*
X1247232Y41794D01*
X1247236Y41802D01*
X1247241Y41801D01*
X1248191Y42664D01*
X1248193Y42672D01*
X1248199Y42672D01*
X1248933Y43725D01*
X1248932Y43733D01*
X1248938Y43734D01*
X1249420Y44924D01*
X1249418Y44930D01*
X1249422Y44933D01*
X1249421Y44934D01*
X1249423Y44935D01*
X1249627Y46202D01*
X1249624Y46207D01*
X1249628Y46210D01*
X1249628Y58210D01*
X1249625Y58214D01*
X1249627Y58216D01*
X1249473Y59339D01*
X1249467Y59344D01*
X1249470Y59348D01*
X1249099Y60419D01*
X1249093Y60423D01*
X1249095Y60427D01*
X1248523Y61405D01*
X1248516Y61408D01*
X1248517Y61413D01*
X1247765Y62260D01*
X1247758Y62261D01*
X1247758Y62267D01*
X1246855Y62951D01*
X1246847Y62951D01*
X1246846Y62956D01*
X1245827Y63450D01*
X1245820Y63449D01*
X1245818Y63454D01*
X1244722Y63740D01*
X1244715Y63737D01*
X1244712Y63742D01*
X1243582Y63809D01*
X1243581Y63809D01*
X1243576Y63809D01*
X1242445Y63742D01*
X1242439Y63737D01*
X1242435Y63740D01*
X1241339Y63454D01*
X1241335Y63448D01*
X1241330Y63450D01*
X1240311Y62956D01*
X1240307Y62949D01*
X1240303Y62951D01*
X1239399Y62267D01*
X1239397Y62260D01*
X1239392Y62260D01*
X1238640Y61413D01*
X1238640Y61406D01*
X1238634Y61405D01*
X1238062Y60427D01*
X1238062Y60424D01*
X1238061Y60424D01*
X1238062Y60422D01*
X1238063Y60420D01*
X1238058Y60419D01*
X1237687Y59348D01*
X1237689Y59343D01*
X1237685Y59340D01*
X1237686Y59339D01*
X1237685Y59339D01*
X1237530Y58216D01*
X1237532Y58212D01*
X1237529Y58210D01*
X1237529Y46210D01*
X1237533Y46205D01*
X1237530Y46202D01*
X1237735Y44935D01*
X1237741Y44929D01*
X1237738Y44924D01*
X1238219Y43734D01*
X1238226Y43730D01*
X1238224Y43725D01*
X1238959Y42672D01*
X1238966Y42669D01*
X1238966Y42664D01*
X1239916Y41801D01*
X1239924Y41800D01*
X1239925Y41794D01*
X1241043Y41164D01*
X1241051Y41165D01*
X1241053Y41160D01*
X1242284Y40795D01*
X1242291Y40798D01*
X1242295Y40793D01*
X1243575Y40710D01*
X1243579Y40713D01*
X1243582Y40710D01*
X1244863Y40793D01*
G37*
G36*
X1158463Y40793D02*
X1158463Y40793D01*
X1158469Y40798D01*
X1158473Y40795D01*
X1159704Y41160D01*
X1159709Y41167D01*
X1159714Y41164D01*
X1160832Y41794D01*
X1160836Y41802D01*
X1160841Y41801D01*
X1161791Y42664D01*
X1161793Y42672D01*
X1161799Y42672D01*
X1162533Y43725D01*
X1162532Y43733D01*
X1162538Y43734D01*
X1163020Y44924D01*
X1163018Y44930D01*
X1163022Y44933D01*
X1163021Y44934D01*
X1163023Y44935D01*
X1163227Y46202D01*
X1163224Y46207D01*
X1163228Y46210D01*
X1163228Y58210D01*
X1163225Y58214D01*
X1163227Y58216D01*
X1163073Y59339D01*
X1163067Y59344D01*
X1163070Y59348D01*
X1162699Y60419D01*
X1162693Y60423D01*
X1162695Y60427D01*
X1162123Y61405D01*
X1162116Y61408D01*
X1162117Y61413D01*
X1161365Y62260D01*
X1161358Y62261D01*
X1161358Y62267D01*
X1160455Y62951D01*
X1160447Y62951D01*
X1160446Y62956D01*
X1159427Y63450D01*
X1159420Y63449D01*
X1159418Y63454D01*
X1158322Y63740D01*
X1158315Y63737D01*
X1158312Y63742D01*
X1157182Y63809D01*
X1157181Y63809D01*
X1157176Y63809D01*
X1156045Y63742D01*
X1156039Y63737D01*
X1156035Y63740D01*
X1154939Y63454D01*
X1154935Y63448D01*
X1154930Y63450D01*
X1153911Y62956D01*
X1153907Y62949D01*
X1153903Y62951D01*
X1152999Y62267D01*
X1152997Y62260D01*
X1152992Y62260D01*
X1152240Y61413D01*
X1152240Y61406D01*
X1152234Y61405D01*
X1151662Y60427D01*
X1151662Y60424D01*
X1151661Y60424D01*
X1151662Y60422D01*
X1151663Y60420D01*
X1151658Y60419D01*
X1151287Y59348D01*
X1151289Y59343D01*
X1151285Y59340D01*
X1151286Y59339D01*
X1151285Y59339D01*
X1151130Y58216D01*
X1151132Y58212D01*
X1151129Y58210D01*
X1151129Y46210D01*
X1151133Y46205D01*
X1151130Y46202D01*
X1151335Y44935D01*
X1151341Y44929D01*
X1151338Y44924D01*
X1151819Y43734D01*
X1151826Y43730D01*
X1151824Y43725D01*
X1152559Y42672D01*
X1152566Y42669D01*
X1152566Y42664D01*
X1153516Y41801D01*
X1153524Y41800D01*
X1153525Y41794D01*
X1154643Y41164D01*
X1154651Y41165D01*
X1154653Y41160D01*
X1155884Y40795D01*
X1155891Y40798D01*
X1155895Y40793D01*
X1157175Y40710D01*
X1157179Y40713D01*
X1157182Y40710D01*
X1158463Y40793D01*
G37*
G36*
X417468Y40793D02*
X417468Y40793D01*
X417475Y40798D01*
X417479Y40795D01*
X418710Y41160D01*
X418715Y41167D01*
X418720Y41164D01*
X419838Y41794D01*
X419841Y41802D01*
X419847Y41801D01*
X420797Y42664D01*
X420799Y42672D01*
X420804Y42672D01*
X421539Y43725D01*
X421538Y43733D01*
X421544Y43734D01*
X422025Y44924D01*
X422024Y44930D01*
X422028Y44933D01*
X422027Y44934D01*
X422028Y44935D01*
X422233Y46202D01*
X422230Y46207D01*
X422234Y46210D01*
X422234Y58210D01*
X422231Y58214D01*
X422233Y58216D01*
X422078Y59339D01*
X422073Y59344D01*
X422076Y59348D01*
X421705Y60419D01*
X421699Y60423D01*
X421701Y60427D01*
X421129Y61405D01*
X421122Y61408D01*
X421123Y61413D01*
X420371Y62260D01*
X420364Y62261D01*
X420364Y62267D01*
X419461Y62951D01*
X419453Y62951D01*
X419452Y62956D01*
X418433Y63450D01*
X418426Y63449D01*
X418424Y63454D01*
X417328Y63740D01*
X417321Y63737D01*
X417318Y63742D01*
X416187Y63809D01*
X416182Y63809D01*
X415051Y63742D01*
X415045Y63737D01*
X415041Y63740D01*
X413945Y63454D01*
X413940Y63448D01*
X413936Y63450D01*
X412917Y62956D01*
X412913Y62949D01*
X412908Y62951D01*
X412005Y62267D01*
X412003Y62260D01*
X411998Y62260D01*
X411246Y61413D01*
X411245Y61406D01*
X411240Y61405D01*
X410668Y60427D01*
X410668Y60424D01*
X410667Y60424D01*
X410668Y60422D01*
X410668Y60420D01*
X410664Y60419D01*
X410293Y59348D01*
X410295Y59343D01*
X410291Y59340D01*
X410292Y59339D01*
X410291Y59339D01*
X410136Y58216D01*
X410138Y58212D01*
X410135Y58210D01*
X410135Y46210D01*
X410139Y46205D01*
X410136Y46202D01*
X410341Y44935D01*
X410346Y44929D01*
X410343Y44924D01*
X410825Y43734D01*
X410832Y43730D01*
X410830Y43725D01*
X411564Y42672D01*
X411572Y42669D01*
X411572Y42664D01*
X412522Y41801D01*
X412530Y41800D01*
X412531Y41794D01*
X413649Y41164D01*
X413657Y41165D01*
X413659Y41160D01*
X414890Y40795D01*
X414897Y40798D01*
X414900Y40793D01*
X416181Y40710D01*
X416185Y40713D01*
X416188Y40710D01*
X417468Y40793D01*
G37*
G36*
X303168Y40793D02*
X303168Y40793D01*
X303175Y40798D01*
X303179Y40795D01*
X304410Y41160D01*
X304415Y41167D01*
X304420Y41164D01*
X305538Y41794D01*
X305541Y41802D01*
X305547Y41801D01*
X306497Y42664D01*
X306499Y42672D01*
X306504Y42672D01*
X307239Y43725D01*
X307238Y43733D01*
X307244Y43734D01*
X307725Y44924D01*
X307724Y44930D01*
X307728Y44933D01*
X307727Y44934D01*
X307728Y44935D01*
X307933Y46202D01*
X307930Y46207D01*
X307934Y46210D01*
X307934Y58210D01*
X307931Y58214D01*
X307933Y58216D01*
X307778Y59339D01*
X307773Y59344D01*
X307776Y59348D01*
X307405Y60419D01*
X307399Y60423D01*
X307401Y60427D01*
X306829Y61405D01*
X306822Y61408D01*
X306823Y61413D01*
X306071Y62260D01*
X306064Y62261D01*
X306064Y62267D01*
X305161Y62951D01*
X305153Y62951D01*
X305152Y62956D01*
X304133Y63450D01*
X304126Y63449D01*
X304124Y63454D01*
X303028Y63740D01*
X303021Y63737D01*
X303018Y63742D01*
X301887Y63809D01*
X301882Y63809D01*
X300751Y63742D01*
X300745Y63737D01*
X300741Y63740D01*
X299645Y63454D01*
X299640Y63448D01*
X299636Y63450D01*
X298617Y62956D01*
X298613Y62949D01*
X298608Y62951D01*
X297705Y62267D01*
X297703Y62260D01*
X297698Y62260D01*
X296946Y61413D01*
X296945Y61406D01*
X296940Y61405D01*
X296368Y60427D01*
X296368Y60424D01*
X296367Y60424D01*
X296368Y60422D01*
X296368Y60420D01*
X296364Y60419D01*
X295993Y59348D01*
X295995Y59343D01*
X295991Y59340D01*
X295992Y59339D01*
X295991Y59339D01*
X295836Y58216D01*
X295838Y58212D01*
X295835Y58210D01*
X295835Y46210D01*
X295839Y46205D01*
X295836Y46202D01*
X296041Y44935D01*
X296046Y44929D01*
X296043Y44924D01*
X296525Y43734D01*
X296532Y43730D01*
X296530Y43725D01*
X297264Y42672D01*
X297272Y42669D01*
X297272Y42664D01*
X298222Y41801D01*
X298230Y41800D01*
X298231Y41794D01*
X299349Y41164D01*
X299357Y41165D01*
X299359Y41160D01*
X300590Y40795D01*
X300597Y40798D01*
X300600Y40793D01*
X301881Y40710D01*
X301885Y40713D01*
X301888Y40710D01*
X303168Y40793D01*
G37*
G36*
X1158349Y1521D02*
X1158349Y1521D01*
X1158355Y1525D01*
X1158359Y1522D01*
X1159481Y1858D01*
X1159485Y1864D01*
X1159490Y1861D01*
X1160525Y2409D01*
X1160528Y2416D01*
X1160533Y2415D01*
X1161442Y3154D01*
X1161444Y3161D01*
X1161449Y3161D01*
X1162196Y4063D01*
X1162196Y4070D01*
X1162201Y4071D01*
X1162758Y5102D01*
X1162756Y5109D01*
X1162761Y5110D01*
X1163106Y6230D01*
X1163104Y6237D01*
X1163108Y6239D01*
X1163228Y7405D01*
X1163226Y7408D01*
X1163228Y7410D01*
X1163228Y13410D01*
X1163226Y13412D01*
X1163228Y13414D01*
X1163117Y14590D01*
X1163112Y14595D01*
X1163115Y14600D01*
X1162777Y15731D01*
X1162771Y15736D01*
X1162773Y15740D01*
X1162221Y16784D01*
X1162214Y16787D01*
X1162215Y16792D01*
X1161470Y17708D01*
X1161463Y17710D01*
X1161463Y17715D01*
X1160553Y18468D01*
X1160546Y18469D01*
X1160545Y18474D01*
X1159506Y19035D01*
X1159499Y19034D01*
X1159497Y19038D01*
X1158368Y19386D01*
X1158361Y19384D01*
X1158359Y19388D01*
X1157184Y19509D01*
X1157177Y19504D01*
X1157173Y19509D01*
X1155833Y19352D01*
X1155827Y19346D01*
X1155822Y19349D01*
X1154550Y18899D01*
X1154546Y18892D01*
X1154541Y18894D01*
X1153401Y18171D01*
X1153398Y18163D01*
X1153393Y18164D01*
X1152443Y17206D01*
X1152441Y17198D01*
X1152436Y17198D01*
X1151723Y16052D01*
X1151723Y16044D01*
X1151718Y16042D01*
X1151278Y14767D01*
X1151280Y14759D01*
X1151275Y14756D01*
X1151130Y13415D01*
X1151132Y13411D01*
X1151129Y13410D01*
X1151129Y7410D01*
X1151132Y7406D01*
X1151130Y7404D01*
X1151285Y6075D01*
X1151291Y6069D01*
X1151288Y6064D01*
X1151735Y4803D01*
X1151742Y4799D01*
X1151740Y4793D01*
X1152456Y3663D01*
X1152464Y3660D01*
X1152463Y3655D01*
X1153413Y2713D01*
X1153421Y2712D01*
X1153422Y2706D01*
X1154558Y1999D01*
X1154566Y1999D01*
X1154568Y1994D01*
X1155832Y1557D01*
X1155838Y1559D01*
X1155838Y1558D01*
X1155841Y1558D01*
X1155843Y1555D01*
X1157173Y1411D01*
X1157180Y1414D01*
X1157183Y1411D01*
X1158349Y1521D01*
G37*
G36*
X1244749Y1174035D02*
X1244749Y1174035D01*
X1244755Y1174040D01*
X1244759Y1174037D01*
X1245881Y1174372D01*
X1245885Y1174378D01*
X1245890Y1174376D01*
X1246925Y1174924D01*
X1246928Y1174931D01*
X1246933Y1174929D01*
X1247842Y1175669D01*
X1247844Y1175676D01*
X1247849Y1175675D01*
X1248596Y1176578D01*
X1248596Y1176585D01*
X1248601Y1176586D01*
X1249158Y1177616D01*
X1249156Y1177624D01*
X1249161Y1177625D01*
X1249506Y1178745D01*
X1249504Y1178752D01*
X1249508Y1178754D01*
X1249628Y1179919D01*
X1249626Y1179923D01*
X1249628Y1179924D01*
X1249628Y1185924D01*
X1249626Y1185927D01*
X1249628Y1185929D01*
X1249517Y1187105D01*
X1249512Y1187110D01*
X1249515Y1187114D01*
X1249177Y1188246D01*
X1249171Y1188250D01*
X1249173Y1188255D01*
X1248621Y1189299D01*
X1248614Y1189302D01*
X1248615Y1189307D01*
X1247870Y1190223D01*
X1247863Y1190225D01*
X1247863Y1190230D01*
X1246953Y1190983D01*
X1246946Y1190983D01*
X1246945Y1190988D01*
X1245906Y1191550D01*
X1245899Y1191548D01*
X1245897Y1191553D01*
X1244768Y1191901D01*
X1244761Y1191898D01*
X1244759Y1191903D01*
X1243584Y1192023D01*
X1243577Y1192019D01*
X1243573Y1192023D01*
X1242233Y1191867D01*
X1242227Y1191861D01*
X1242222Y1191864D01*
X1240950Y1191413D01*
X1240946Y1191406D01*
X1240941Y1191409D01*
X1239801Y1190686D01*
X1239798Y1190678D01*
X1239793Y1190679D01*
X1238843Y1189721D01*
X1238841Y1189713D01*
X1238836Y1189712D01*
X1238123Y1188567D01*
X1238123Y1188559D01*
X1238118Y1188557D01*
X1237678Y1187282D01*
X1237680Y1187274D01*
X1237675Y1187271D01*
X1237530Y1185930D01*
X1237532Y1185926D01*
X1237529Y1185924D01*
X1237529Y1179924D01*
X1237532Y1179921D01*
X1237530Y1179919D01*
X1237685Y1178590D01*
X1237691Y1178584D01*
X1237688Y1178579D01*
X1238135Y1177318D01*
X1238142Y1177313D01*
X1238140Y1177308D01*
X1238856Y1176178D01*
X1238864Y1176175D01*
X1238863Y1176170D01*
X1239813Y1175227D01*
X1239821Y1175226D01*
X1239822Y1175221D01*
X1240958Y1174513D01*
X1240966Y1174514D01*
X1240968Y1174509D01*
X1242232Y1174072D01*
X1242238Y1174074D01*
X1242238Y1174073D01*
X1242241Y1174073D01*
X1242243Y1174070D01*
X1243573Y1173925D01*
X1243580Y1173929D01*
X1243583Y1173925D01*
X1244749Y1174035D01*
G37*
G36*
X303055Y1174035D02*
X303055Y1174035D01*
X303061Y1174040D01*
X303065Y1174037D01*
X304187Y1174372D01*
X304191Y1174378D01*
X304196Y1174376D01*
X305231Y1174924D01*
X305234Y1174931D01*
X305239Y1174929D01*
X306148Y1175669D01*
X306150Y1175676D01*
X306155Y1175675D01*
X306902Y1176578D01*
X306902Y1176585D01*
X306907Y1176586D01*
X307463Y1177616D01*
X307462Y1177624D01*
X307467Y1177625D01*
X307812Y1178745D01*
X307809Y1178752D01*
X307814Y1178754D01*
X307933Y1179919D01*
X307931Y1179923D01*
X307934Y1179924D01*
X307934Y1185924D01*
X307932Y1185927D01*
X307933Y1185929D01*
X307823Y1187105D01*
X307818Y1187110D01*
X307821Y1187114D01*
X307483Y1188246D01*
X307477Y1188250D01*
X307479Y1188255D01*
X306926Y1189299D01*
X306920Y1189302D01*
X306921Y1189307D01*
X306176Y1190223D01*
X306169Y1190225D01*
X306169Y1190230D01*
X305259Y1190983D01*
X305252Y1190983D01*
X305251Y1190988D01*
X304212Y1191550D01*
X304204Y1191548D01*
X304203Y1191553D01*
X303074Y1191901D01*
X303067Y1191898D01*
X303064Y1191903D01*
X301889Y1192023D01*
X301883Y1192019D01*
X301879Y1192023D01*
X300539Y1191867D01*
X300533Y1191861D01*
X300528Y1191864D01*
X299256Y1191413D01*
X299252Y1191406D01*
X299246Y1191409D01*
X298107Y1190686D01*
X298104Y1190678D01*
X298098Y1190679D01*
X297148Y1189721D01*
X297147Y1189713D01*
X297141Y1189712D01*
X296428Y1188567D01*
X296429Y1188559D01*
X296424Y1188557D01*
X295983Y1187282D01*
X295986Y1187274D01*
X295981Y1187271D01*
X295835Y1185930D01*
X295838Y1185926D01*
X295835Y1185924D01*
X295835Y1179924D01*
X295838Y1179921D01*
X295836Y1179919D01*
X295991Y1178590D01*
X295997Y1178584D01*
X295993Y1178579D01*
X296441Y1177318D01*
X296447Y1177313D01*
X296445Y1177308D01*
X297162Y1176178D01*
X297170Y1176175D01*
X297169Y1176170D01*
X298119Y1175227D01*
X298127Y1175226D01*
X298128Y1175221D01*
X299263Y1174513D01*
X299272Y1174514D01*
X299273Y1174509D01*
X300538Y1174072D01*
X300543Y1174074D01*
X300544Y1174073D01*
X300547Y1174073D01*
X300549Y1174070D01*
X301879Y1173925D01*
X301885Y1173929D01*
X301889Y1173925D01*
X303055Y1174035D01*
G37*
G36*
X389455Y1174035D02*
X389455Y1174035D01*
X389461Y1174040D01*
X389465Y1174037D01*
X390587Y1174372D01*
X390591Y1174378D01*
X390596Y1174376D01*
X391631Y1174924D01*
X391634Y1174931D01*
X391639Y1174929D01*
X392548Y1175669D01*
X392550Y1175676D01*
X392555Y1175675D01*
X393302Y1176578D01*
X393302Y1176585D01*
X393307Y1176586D01*
X393863Y1177616D01*
X393862Y1177624D01*
X393867Y1177625D01*
X394212Y1178745D01*
X394209Y1178752D01*
X394214Y1178754D01*
X394333Y1179919D01*
X394331Y1179923D01*
X394334Y1179924D01*
X394334Y1185924D01*
X394332Y1185927D01*
X394333Y1185929D01*
X394223Y1187105D01*
X394218Y1187110D01*
X394221Y1187114D01*
X393883Y1188246D01*
X393877Y1188250D01*
X393879Y1188255D01*
X393326Y1189299D01*
X393320Y1189302D01*
X393321Y1189307D01*
X392576Y1190223D01*
X392569Y1190225D01*
X392569Y1190230D01*
X391659Y1190983D01*
X391652Y1190983D01*
X391651Y1190988D01*
X390612Y1191550D01*
X390604Y1191548D01*
X390603Y1191553D01*
X389474Y1191901D01*
X389467Y1191898D01*
X389464Y1191903D01*
X388289Y1192023D01*
X388283Y1192019D01*
X388279Y1192023D01*
X386939Y1191867D01*
X386933Y1191861D01*
X386928Y1191864D01*
X385656Y1191413D01*
X385652Y1191406D01*
X385646Y1191409D01*
X384507Y1190686D01*
X384504Y1190678D01*
X384498Y1190679D01*
X383548Y1189721D01*
X383547Y1189713D01*
X383541Y1189712D01*
X382828Y1188567D01*
X382829Y1188559D01*
X382824Y1188557D01*
X382383Y1187282D01*
X382386Y1187274D01*
X382381Y1187271D01*
X382235Y1185930D01*
X382238Y1185926D01*
X382235Y1185924D01*
X382235Y1179924D01*
X382238Y1179921D01*
X382236Y1179919D01*
X382391Y1178590D01*
X382397Y1178584D01*
X382393Y1178579D01*
X382841Y1177318D01*
X382847Y1177313D01*
X382845Y1177308D01*
X383562Y1176178D01*
X383570Y1176175D01*
X383569Y1176170D01*
X384519Y1175227D01*
X384527Y1175226D01*
X384528Y1175221D01*
X385663Y1174513D01*
X385672Y1174514D01*
X385673Y1174509D01*
X386938Y1174072D01*
X386943Y1174074D01*
X386944Y1174073D01*
X386947Y1174073D01*
X386949Y1174070D01*
X388279Y1173925D01*
X388285Y1173929D01*
X388289Y1173925D01*
X389455Y1174035D01*
G37*
G36*
X1158349Y1174035D02*
X1158349Y1174035D01*
X1158355Y1174040D01*
X1158359Y1174037D01*
X1159481Y1174372D01*
X1159485Y1174378D01*
X1159490Y1174376D01*
X1160525Y1174924D01*
X1160528Y1174931D01*
X1160533Y1174929D01*
X1161442Y1175669D01*
X1161444Y1175676D01*
X1161449Y1175675D01*
X1162196Y1176578D01*
X1162196Y1176585D01*
X1162201Y1176586D01*
X1162758Y1177616D01*
X1162756Y1177624D01*
X1162761Y1177625D01*
X1163106Y1178745D01*
X1163104Y1178752D01*
X1163108Y1178754D01*
X1163228Y1179919D01*
X1163226Y1179923D01*
X1163228Y1179924D01*
X1163228Y1185924D01*
X1163226Y1185927D01*
X1163228Y1185929D01*
X1163117Y1187105D01*
X1163112Y1187110D01*
X1163115Y1187114D01*
X1162777Y1188246D01*
X1162771Y1188250D01*
X1162773Y1188255D01*
X1162221Y1189299D01*
X1162214Y1189302D01*
X1162215Y1189307D01*
X1161470Y1190223D01*
X1161463Y1190225D01*
X1161463Y1190230D01*
X1160553Y1190983D01*
X1160546Y1190983D01*
X1160545Y1190988D01*
X1159506Y1191550D01*
X1159499Y1191548D01*
X1159497Y1191553D01*
X1158368Y1191901D01*
X1158361Y1191898D01*
X1158359Y1191903D01*
X1157184Y1192023D01*
X1157177Y1192019D01*
X1157173Y1192023D01*
X1155833Y1191867D01*
X1155827Y1191861D01*
X1155822Y1191864D01*
X1154550Y1191413D01*
X1154546Y1191406D01*
X1154541Y1191409D01*
X1153401Y1190686D01*
X1153398Y1190678D01*
X1153393Y1190679D01*
X1152443Y1189721D01*
X1152441Y1189713D01*
X1152436Y1189712D01*
X1151723Y1188567D01*
X1151723Y1188559D01*
X1151718Y1188557D01*
X1151278Y1187282D01*
X1151280Y1187274D01*
X1151275Y1187271D01*
X1151130Y1185930D01*
X1151132Y1185926D01*
X1151129Y1185924D01*
X1151129Y1179924D01*
X1151132Y1179921D01*
X1151130Y1179919D01*
X1151285Y1178590D01*
X1151291Y1178584D01*
X1151288Y1178579D01*
X1151735Y1177318D01*
X1151742Y1177313D01*
X1151740Y1177308D01*
X1152456Y1176178D01*
X1152464Y1176175D01*
X1152463Y1176170D01*
X1153413Y1175227D01*
X1153421Y1175226D01*
X1153422Y1175221D01*
X1154558Y1174513D01*
X1154566Y1174514D01*
X1154568Y1174509D01*
X1155832Y1174072D01*
X1155838Y1174074D01*
X1155838Y1174073D01*
X1155841Y1174073D01*
X1155843Y1174070D01*
X1157173Y1173925D01*
X1157180Y1173929D01*
X1157183Y1173925D01*
X1158349Y1174035D01*
G37*
G36*
X417355Y1174035D02*
X417355Y1174035D01*
X417361Y1174040D01*
X417365Y1174037D01*
X418487Y1174372D01*
X418491Y1174378D01*
X418496Y1174376D01*
X419531Y1174924D01*
X419534Y1174931D01*
X419539Y1174929D01*
X420448Y1175669D01*
X420450Y1175676D01*
X420455Y1175675D01*
X421202Y1176578D01*
X421202Y1176585D01*
X421207Y1176586D01*
X421763Y1177616D01*
X421762Y1177624D01*
X421767Y1177625D01*
X422112Y1178745D01*
X422109Y1178752D01*
X422114Y1178754D01*
X422233Y1179919D01*
X422231Y1179923D01*
X422234Y1179924D01*
X422234Y1185924D01*
X422232Y1185927D01*
X422233Y1185929D01*
X422123Y1187105D01*
X422118Y1187110D01*
X422121Y1187114D01*
X421783Y1188246D01*
X421777Y1188250D01*
X421779Y1188255D01*
X421226Y1189299D01*
X421220Y1189302D01*
X421221Y1189307D01*
X420476Y1190223D01*
X420469Y1190225D01*
X420469Y1190230D01*
X419559Y1190983D01*
X419552Y1190983D01*
X419551Y1190988D01*
X418512Y1191550D01*
X418504Y1191548D01*
X418503Y1191553D01*
X417374Y1191901D01*
X417367Y1191898D01*
X417364Y1191903D01*
X416189Y1192023D01*
X416183Y1192019D01*
X416179Y1192023D01*
X414839Y1191867D01*
X414833Y1191861D01*
X414828Y1191864D01*
X413556Y1191413D01*
X413552Y1191406D01*
X413546Y1191409D01*
X412407Y1190686D01*
X412404Y1190678D01*
X412398Y1190679D01*
X411448Y1189721D01*
X411447Y1189713D01*
X411441Y1189712D01*
X410728Y1188567D01*
X410729Y1188559D01*
X410724Y1188557D01*
X410283Y1187282D01*
X410286Y1187274D01*
X410281Y1187271D01*
X410135Y1185930D01*
X410138Y1185926D01*
X410135Y1185924D01*
X410135Y1179924D01*
X410138Y1179921D01*
X410136Y1179919D01*
X410291Y1178590D01*
X410297Y1178584D01*
X410293Y1178579D01*
X410741Y1177318D01*
X410747Y1177313D01*
X410745Y1177308D01*
X411462Y1176178D01*
X411470Y1176175D01*
X411469Y1176170D01*
X412419Y1175227D01*
X412427Y1175226D01*
X412428Y1175221D01*
X413563Y1174513D01*
X413572Y1174514D01*
X413573Y1174509D01*
X414838Y1174072D01*
X414843Y1174074D01*
X414844Y1174073D01*
X414847Y1174073D01*
X414849Y1174070D01*
X416179Y1173925D01*
X416185Y1173929D01*
X416189Y1173925D01*
X417355Y1174035D01*
G37*
G36*
X1044049Y1174035D02*
X1044049Y1174035D01*
X1044055Y1174040D01*
X1044059Y1174037D01*
X1045181Y1174372D01*
X1045185Y1174378D01*
X1045190Y1174376D01*
X1046225Y1174924D01*
X1046228Y1174931D01*
X1046233Y1174929D01*
X1047142Y1175669D01*
X1047144Y1175676D01*
X1047149Y1175675D01*
X1047896Y1176578D01*
X1047896Y1176585D01*
X1047901Y1176586D01*
X1048458Y1177616D01*
X1048456Y1177624D01*
X1048461Y1177625D01*
X1048806Y1178745D01*
X1048804Y1178752D01*
X1048808Y1178754D01*
X1048928Y1179919D01*
X1048926Y1179923D01*
X1048928Y1179924D01*
X1048928Y1185924D01*
X1048926Y1185927D01*
X1048928Y1185929D01*
X1048817Y1187105D01*
X1048812Y1187110D01*
X1048815Y1187114D01*
X1048477Y1188246D01*
X1048471Y1188250D01*
X1048473Y1188255D01*
X1047921Y1189299D01*
X1047914Y1189302D01*
X1047915Y1189307D01*
X1047170Y1190223D01*
X1047163Y1190225D01*
X1047163Y1190230D01*
X1046253Y1190983D01*
X1046246Y1190983D01*
X1046245Y1190988D01*
X1045206Y1191550D01*
X1045199Y1191548D01*
X1045197Y1191553D01*
X1044068Y1191901D01*
X1044061Y1191898D01*
X1044059Y1191903D01*
X1042884Y1192023D01*
X1042877Y1192019D01*
X1042873Y1192023D01*
X1041533Y1191867D01*
X1041527Y1191861D01*
X1041522Y1191864D01*
X1040250Y1191413D01*
X1040246Y1191406D01*
X1040241Y1191409D01*
X1039101Y1190686D01*
X1039098Y1190678D01*
X1039093Y1190679D01*
X1038143Y1189721D01*
X1038141Y1189713D01*
X1038136Y1189712D01*
X1037423Y1188567D01*
X1037423Y1188559D01*
X1037418Y1188557D01*
X1036978Y1187282D01*
X1036980Y1187274D01*
X1036975Y1187271D01*
X1036830Y1185930D01*
X1036832Y1185926D01*
X1036829Y1185924D01*
X1036829Y1179924D01*
X1036832Y1179921D01*
X1036830Y1179919D01*
X1036985Y1178590D01*
X1036991Y1178584D01*
X1036988Y1178579D01*
X1037435Y1177318D01*
X1037442Y1177313D01*
X1037440Y1177308D01*
X1038156Y1176178D01*
X1038164Y1176175D01*
X1038163Y1176170D01*
X1039113Y1175227D01*
X1039121Y1175226D01*
X1039122Y1175221D01*
X1040258Y1174513D01*
X1040266Y1174514D01*
X1040268Y1174509D01*
X1041532Y1174072D01*
X1041538Y1174074D01*
X1041538Y1174073D01*
X1041541Y1174073D01*
X1041543Y1174070D01*
X1042873Y1173925D01*
X1042880Y1173929D01*
X1042883Y1173925D01*
X1044049Y1174035D01*
G37*
G36*
X503755Y1174035D02*
X503755Y1174035D01*
X503761Y1174040D01*
X503765Y1174037D01*
X504887Y1174372D01*
X504891Y1174378D01*
X504896Y1174376D01*
X505931Y1174924D01*
X505934Y1174931D01*
X505939Y1174929D01*
X506848Y1175669D01*
X506850Y1175676D01*
X506855Y1175675D01*
X507602Y1176578D01*
X507602Y1176585D01*
X507607Y1176586D01*
X508163Y1177616D01*
X508162Y1177624D01*
X508167Y1177625D01*
X508512Y1178745D01*
X508509Y1178752D01*
X508514Y1178754D01*
X508633Y1179919D01*
X508631Y1179923D01*
X508634Y1179924D01*
X508634Y1185924D01*
X508632Y1185927D01*
X508633Y1185929D01*
X508523Y1187105D01*
X508518Y1187110D01*
X508521Y1187114D01*
X508183Y1188246D01*
X508177Y1188250D01*
X508179Y1188255D01*
X507626Y1189299D01*
X507620Y1189302D01*
X507621Y1189307D01*
X506876Y1190223D01*
X506869Y1190225D01*
X506869Y1190230D01*
X505959Y1190983D01*
X505952Y1190983D01*
X505951Y1190988D01*
X504912Y1191550D01*
X504904Y1191548D01*
X504903Y1191553D01*
X503774Y1191901D01*
X503767Y1191898D01*
X503764Y1191903D01*
X502589Y1192023D01*
X502583Y1192019D01*
X502579Y1192023D01*
X501239Y1191867D01*
X501233Y1191861D01*
X501228Y1191864D01*
X499956Y1191413D01*
X499952Y1191406D01*
X499946Y1191409D01*
X498807Y1190686D01*
X498804Y1190678D01*
X498798Y1190679D01*
X497848Y1189721D01*
X497847Y1189713D01*
X497841Y1189712D01*
X497128Y1188567D01*
X497129Y1188559D01*
X497124Y1188557D01*
X496683Y1187282D01*
X496686Y1187274D01*
X496681Y1187271D01*
X496535Y1185930D01*
X496538Y1185926D01*
X496535Y1185924D01*
X496535Y1179924D01*
X496538Y1179921D01*
X496536Y1179919D01*
X496691Y1178590D01*
X496697Y1178584D01*
X496693Y1178579D01*
X497141Y1177318D01*
X497147Y1177313D01*
X497145Y1177308D01*
X497862Y1176178D01*
X497870Y1176175D01*
X497869Y1176170D01*
X498819Y1175227D01*
X498827Y1175226D01*
X498828Y1175221D01*
X499963Y1174513D01*
X499972Y1174514D01*
X499973Y1174509D01*
X501238Y1174072D01*
X501243Y1174074D01*
X501244Y1174073D01*
X501247Y1174073D01*
X501249Y1174070D01*
X502579Y1173925D01*
X502585Y1173929D01*
X502589Y1173925D01*
X503755Y1174035D01*
G37*
G36*
X1130449Y1174035D02*
X1130449Y1174035D01*
X1130455Y1174040D01*
X1130459Y1174037D01*
X1131581Y1174372D01*
X1131585Y1174378D01*
X1131590Y1174376D01*
X1132625Y1174924D01*
X1132628Y1174931D01*
X1132633Y1174929D01*
X1133542Y1175669D01*
X1133544Y1175676D01*
X1133549Y1175675D01*
X1134296Y1176578D01*
X1134296Y1176585D01*
X1134301Y1176586D01*
X1134858Y1177616D01*
X1134856Y1177624D01*
X1134861Y1177625D01*
X1135206Y1178745D01*
X1135204Y1178752D01*
X1135208Y1178754D01*
X1135328Y1179919D01*
X1135326Y1179923D01*
X1135328Y1179924D01*
X1135328Y1185924D01*
X1135326Y1185927D01*
X1135328Y1185929D01*
X1135217Y1187105D01*
X1135212Y1187110D01*
X1135215Y1187114D01*
X1134877Y1188246D01*
X1134871Y1188250D01*
X1134873Y1188255D01*
X1134321Y1189299D01*
X1134314Y1189302D01*
X1134315Y1189307D01*
X1133570Y1190223D01*
X1133563Y1190225D01*
X1133563Y1190230D01*
X1132653Y1190983D01*
X1132646Y1190983D01*
X1132645Y1190988D01*
X1131606Y1191550D01*
X1131599Y1191548D01*
X1131597Y1191553D01*
X1130468Y1191901D01*
X1130461Y1191898D01*
X1130459Y1191903D01*
X1129284Y1192023D01*
X1129277Y1192019D01*
X1129273Y1192023D01*
X1127933Y1191867D01*
X1127927Y1191861D01*
X1127922Y1191864D01*
X1126650Y1191413D01*
X1126646Y1191406D01*
X1126641Y1191409D01*
X1125501Y1190686D01*
X1125498Y1190678D01*
X1125493Y1190679D01*
X1124543Y1189721D01*
X1124541Y1189713D01*
X1124536Y1189712D01*
X1123823Y1188567D01*
X1123823Y1188559D01*
X1123818Y1188557D01*
X1123378Y1187282D01*
X1123380Y1187274D01*
X1123375Y1187271D01*
X1123230Y1185930D01*
X1123232Y1185926D01*
X1123229Y1185924D01*
X1123229Y1179924D01*
X1123232Y1179921D01*
X1123230Y1179919D01*
X1123385Y1178590D01*
X1123391Y1178584D01*
X1123388Y1178579D01*
X1123835Y1177318D01*
X1123842Y1177313D01*
X1123840Y1177308D01*
X1124556Y1176178D01*
X1124564Y1176175D01*
X1124563Y1176170D01*
X1125513Y1175227D01*
X1125521Y1175226D01*
X1125522Y1175221D01*
X1126658Y1174513D01*
X1126666Y1174514D01*
X1126668Y1174509D01*
X1127932Y1174072D01*
X1127938Y1174074D01*
X1127938Y1174073D01*
X1127941Y1174073D01*
X1127943Y1174070D01*
X1129273Y1173925D01*
X1129280Y1173929D01*
X1129283Y1173925D01*
X1130449Y1174035D01*
G37*
G36*
X389455Y1521D02*
X389455Y1521D01*
X389461Y1525D01*
X389465Y1522D01*
X390587Y1858D01*
X390591Y1864D01*
X390596Y1861D01*
X391631Y2409D01*
X391634Y2416D01*
X391639Y2415D01*
X392548Y3154D01*
X392550Y3161D01*
X392555Y3161D01*
X393302Y4063D01*
X393302Y4070D01*
X393307Y4071D01*
X393863Y5102D01*
X393862Y5109D01*
X393867Y5110D01*
X394212Y6230D01*
X394209Y6237D01*
X394214Y6239D01*
X394333Y7405D01*
X394331Y7408D01*
X394334Y7410D01*
X394334Y13410D01*
X394332Y13412D01*
X394333Y13414D01*
X394223Y14590D01*
X394218Y14595D01*
X394221Y14600D01*
X393883Y15731D01*
X393877Y15736D01*
X393879Y15740D01*
X393326Y16784D01*
X393320Y16787D01*
X393321Y16792D01*
X392576Y17708D01*
X392569Y17710D01*
X392569Y17715D01*
X391659Y18468D01*
X391652Y18469D01*
X391651Y18474D01*
X390612Y19035D01*
X390604Y19034D01*
X390603Y19038D01*
X389474Y19386D01*
X389467Y19384D01*
X389464Y19388D01*
X388289Y19509D01*
X388283Y19504D01*
X388279Y19509D01*
X386939Y19352D01*
X386933Y19346D01*
X386928Y19349D01*
X385656Y18899D01*
X385652Y18892D01*
X385646Y18894D01*
X384507Y18171D01*
X384504Y18163D01*
X384498Y18164D01*
X383548Y17206D01*
X383547Y17198D01*
X383541Y17198D01*
X382828Y16052D01*
X382829Y16044D01*
X382824Y16042D01*
X382383Y14767D01*
X382386Y14759D01*
X382381Y14756D01*
X382235Y13415D01*
X382238Y13411D01*
X382235Y13410D01*
X382235Y7410D01*
X382238Y7406D01*
X382236Y7404D01*
X382391Y6075D01*
X382397Y6069D01*
X382393Y6064D01*
X382841Y4803D01*
X382847Y4799D01*
X382845Y4793D01*
X383562Y3663D01*
X383570Y3660D01*
X383569Y3655D01*
X384519Y2713D01*
X384527Y2712D01*
X384528Y2706D01*
X385663Y1999D01*
X385672Y1999D01*
X385673Y1994D01*
X386938Y1557D01*
X386943Y1559D01*
X386944Y1558D01*
X386947Y1558D01*
X386949Y1555D01*
X388279Y1411D01*
X388285Y1414D01*
X388289Y1411D01*
X389455Y1521D01*
G37*
G36*
X1130449Y1521D02*
X1130449Y1521D01*
X1130455Y1525D01*
X1130459Y1522D01*
X1131581Y1858D01*
X1131585Y1864D01*
X1131590Y1861D01*
X1132625Y2409D01*
X1132628Y2416D01*
X1132633Y2415D01*
X1133542Y3154D01*
X1133544Y3161D01*
X1133549Y3161D01*
X1134296Y4063D01*
X1134296Y4070D01*
X1134301Y4071D01*
X1134858Y5102D01*
X1134856Y5109D01*
X1134861Y5110D01*
X1135206Y6230D01*
X1135204Y6237D01*
X1135208Y6239D01*
X1135328Y7405D01*
X1135326Y7408D01*
X1135328Y7410D01*
X1135328Y13410D01*
X1135326Y13412D01*
X1135328Y13414D01*
X1135217Y14590D01*
X1135212Y14595D01*
X1135215Y14600D01*
X1134877Y15731D01*
X1134871Y15736D01*
X1134873Y15740D01*
X1134321Y16784D01*
X1134314Y16787D01*
X1134315Y16792D01*
X1133570Y17708D01*
X1133563Y17710D01*
X1133563Y17715D01*
X1132653Y18468D01*
X1132646Y18469D01*
X1132645Y18474D01*
X1131606Y19035D01*
X1131599Y19034D01*
X1131597Y19038D01*
X1130468Y19386D01*
X1130461Y19384D01*
X1130459Y19388D01*
X1129284Y19509D01*
X1129277Y19504D01*
X1129273Y19509D01*
X1127933Y19352D01*
X1127927Y19346D01*
X1127922Y19349D01*
X1126650Y18899D01*
X1126646Y18892D01*
X1126641Y18894D01*
X1125501Y18171D01*
X1125498Y18163D01*
X1125493Y18164D01*
X1124543Y17206D01*
X1124541Y17198D01*
X1124536Y17198D01*
X1123823Y16052D01*
X1123823Y16044D01*
X1123818Y16042D01*
X1123378Y14767D01*
X1123380Y14759D01*
X1123375Y14756D01*
X1123230Y13415D01*
X1123232Y13411D01*
X1123229Y13410D01*
X1123229Y7410D01*
X1123232Y7406D01*
X1123230Y7404D01*
X1123385Y6075D01*
X1123391Y6069D01*
X1123388Y6064D01*
X1123835Y4803D01*
X1123842Y4799D01*
X1123840Y4793D01*
X1124556Y3663D01*
X1124564Y3660D01*
X1124563Y3655D01*
X1125513Y2713D01*
X1125521Y2712D01*
X1125522Y2706D01*
X1126658Y1999D01*
X1126666Y1999D01*
X1126668Y1994D01*
X1127932Y1557D01*
X1127938Y1559D01*
X1127938Y1558D01*
X1127941Y1558D01*
X1127943Y1555D01*
X1129273Y1411D01*
X1129280Y1414D01*
X1129283Y1411D01*
X1130449Y1521D01*
G37*
G36*
X417355Y1521D02*
X417355Y1521D01*
X417361Y1525D01*
X417365Y1522D01*
X418487Y1858D01*
X418491Y1864D01*
X418496Y1861D01*
X419531Y2409D01*
X419534Y2416D01*
X419539Y2415D01*
X420448Y3154D01*
X420450Y3161D01*
X420455Y3161D01*
X421202Y4063D01*
X421202Y4070D01*
X421207Y4071D01*
X421763Y5102D01*
X421762Y5109D01*
X421767Y5110D01*
X422112Y6230D01*
X422109Y6237D01*
X422114Y6239D01*
X422233Y7405D01*
X422231Y7408D01*
X422234Y7410D01*
X422234Y13410D01*
X422232Y13412D01*
X422233Y13414D01*
X422123Y14590D01*
X422118Y14595D01*
X422121Y14600D01*
X421783Y15731D01*
X421777Y15736D01*
X421779Y15740D01*
X421226Y16784D01*
X421220Y16787D01*
X421221Y16792D01*
X420476Y17708D01*
X420469Y17710D01*
X420469Y17715D01*
X419559Y18468D01*
X419552Y18469D01*
X419551Y18474D01*
X418512Y19035D01*
X418504Y19034D01*
X418503Y19038D01*
X417374Y19386D01*
X417367Y19384D01*
X417364Y19388D01*
X416189Y19509D01*
X416183Y19504D01*
X416179Y19509D01*
X414839Y19352D01*
X414833Y19346D01*
X414828Y19349D01*
X413556Y18899D01*
X413552Y18892D01*
X413546Y18894D01*
X412407Y18171D01*
X412404Y18163D01*
X412398Y18164D01*
X411448Y17206D01*
X411447Y17198D01*
X411441Y17198D01*
X410728Y16052D01*
X410729Y16044D01*
X410724Y16042D01*
X410283Y14767D01*
X410286Y14759D01*
X410281Y14756D01*
X410135Y13415D01*
X410138Y13411D01*
X410135Y13410D01*
X410135Y7410D01*
X410138Y7406D01*
X410136Y7404D01*
X410291Y6075D01*
X410297Y6069D01*
X410293Y6064D01*
X410741Y4803D01*
X410747Y4799D01*
X410745Y4793D01*
X411462Y3663D01*
X411470Y3660D01*
X411469Y3655D01*
X412419Y2713D01*
X412427Y2712D01*
X412428Y2706D01*
X413563Y1999D01*
X413572Y1999D01*
X413573Y1994D01*
X414838Y1557D01*
X414843Y1559D01*
X414844Y1558D01*
X414847Y1558D01*
X414849Y1555D01*
X416179Y1411D01*
X416185Y1414D01*
X416189Y1411D01*
X417355Y1521D01*
G37*
G36*
X1044049Y1521D02*
X1044049Y1521D01*
X1044055Y1525D01*
X1044059Y1522D01*
X1045181Y1858D01*
X1045185Y1864D01*
X1045190Y1861D01*
X1046225Y2409D01*
X1046228Y2416D01*
X1046233Y2415D01*
X1047142Y3154D01*
X1047144Y3161D01*
X1047149Y3161D01*
X1047896Y4063D01*
X1047896Y4070D01*
X1047901Y4071D01*
X1048458Y5102D01*
X1048456Y5109D01*
X1048461Y5110D01*
X1048806Y6230D01*
X1048804Y6237D01*
X1048808Y6239D01*
X1048928Y7405D01*
X1048926Y7408D01*
X1048928Y7410D01*
X1048928Y13410D01*
X1048926Y13412D01*
X1048928Y13414D01*
X1048817Y14590D01*
X1048812Y14595D01*
X1048815Y14600D01*
X1048477Y15731D01*
X1048471Y15736D01*
X1048473Y15740D01*
X1047921Y16784D01*
X1047914Y16787D01*
X1047915Y16792D01*
X1047170Y17708D01*
X1047163Y17710D01*
X1047163Y17715D01*
X1046253Y18468D01*
X1046246Y18469D01*
X1046245Y18474D01*
X1045206Y19035D01*
X1045199Y19034D01*
X1045197Y19038D01*
X1044068Y19386D01*
X1044061Y19384D01*
X1044059Y19388D01*
X1042884Y19509D01*
X1042877Y19504D01*
X1042873Y19509D01*
X1041533Y19352D01*
X1041527Y19346D01*
X1041522Y19349D01*
X1040250Y18899D01*
X1040246Y18892D01*
X1040241Y18894D01*
X1039101Y18171D01*
X1039098Y18163D01*
X1039093Y18164D01*
X1038143Y17206D01*
X1038141Y17198D01*
X1038136Y17198D01*
X1037423Y16052D01*
X1037423Y16044D01*
X1037418Y16042D01*
X1036978Y14767D01*
X1036980Y14759D01*
X1036975Y14756D01*
X1036830Y13415D01*
X1036832Y13411D01*
X1036829Y13410D01*
X1036829Y7410D01*
X1036832Y7406D01*
X1036830Y7404D01*
X1036985Y6075D01*
X1036991Y6069D01*
X1036988Y6064D01*
X1037435Y4803D01*
X1037442Y4799D01*
X1037440Y4793D01*
X1038156Y3663D01*
X1038164Y3660D01*
X1038163Y3655D01*
X1039113Y2713D01*
X1039121Y2712D01*
X1039122Y2706D01*
X1040258Y1999D01*
X1040266Y1999D01*
X1040268Y1994D01*
X1041532Y1557D01*
X1041538Y1559D01*
X1041538Y1558D01*
X1041541Y1558D01*
X1041543Y1555D01*
X1042873Y1411D01*
X1042880Y1414D01*
X1042883Y1411D01*
X1044049Y1521D01*
G37*
G36*
X503755Y1521D02*
X503755Y1521D01*
X503761Y1525D01*
X503765Y1522D01*
X504887Y1858D01*
X504891Y1864D01*
X504896Y1861D01*
X505931Y2409D01*
X505934Y2416D01*
X505939Y2415D01*
X506848Y3154D01*
X506850Y3161D01*
X506855Y3161D01*
X507602Y4063D01*
X507602Y4070D01*
X507607Y4071D01*
X508163Y5102D01*
X508162Y5109D01*
X508167Y5110D01*
X508512Y6230D01*
X508509Y6237D01*
X508514Y6239D01*
X508633Y7405D01*
X508631Y7408D01*
X508634Y7410D01*
X508634Y13410D01*
X508632Y13412D01*
X508633Y13414D01*
X508523Y14590D01*
X508518Y14595D01*
X508521Y14600D01*
X508183Y15731D01*
X508177Y15736D01*
X508179Y15740D01*
X507626Y16784D01*
X507620Y16787D01*
X507621Y16792D01*
X506876Y17708D01*
X506869Y17710D01*
X506869Y17715D01*
X505959Y18468D01*
X505952Y18469D01*
X505951Y18474D01*
X504912Y19035D01*
X504904Y19034D01*
X504903Y19038D01*
X503774Y19386D01*
X503767Y19384D01*
X503764Y19388D01*
X502589Y19509D01*
X502583Y19504D01*
X502579Y19509D01*
X501239Y19352D01*
X501233Y19346D01*
X501228Y19349D01*
X499956Y18899D01*
X499952Y18892D01*
X499946Y18894D01*
X498807Y18171D01*
X498804Y18163D01*
X498798Y18164D01*
X497848Y17206D01*
X497847Y17198D01*
X497841Y17198D01*
X497128Y16052D01*
X497129Y16044D01*
X497124Y16042D01*
X496683Y14767D01*
X496686Y14759D01*
X496681Y14756D01*
X496535Y13415D01*
X496538Y13411D01*
X496535Y13410D01*
X496535Y7410D01*
X496538Y7406D01*
X496536Y7404D01*
X496691Y6075D01*
X496697Y6069D01*
X496693Y6064D01*
X497141Y4803D01*
X497147Y4799D01*
X497145Y4793D01*
X497862Y3663D01*
X497870Y3660D01*
X497869Y3655D01*
X498819Y2713D01*
X498827Y2712D01*
X498828Y2706D01*
X499963Y1999D01*
X499972Y1999D01*
X499973Y1994D01*
X501238Y1557D01*
X501243Y1559D01*
X501244Y1558D01*
X501247Y1558D01*
X501249Y1555D01*
X502579Y1411D01*
X502585Y1414D01*
X502589Y1411D01*
X503755Y1521D01*
G37*
G36*
X1244749Y1521D02*
X1244749Y1521D01*
X1244755Y1525D01*
X1244759Y1522D01*
X1245881Y1858D01*
X1245885Y1864D01*
X1245890Y1861D01*
X1246925Y2409D01*
X1246928Y2416D01*
X1246933Y2415D01*
X1247842Y3154D01*
X1247844Y3161D01*
X1247849Y3161D01*
X1248596Y4063D01*
X1248596Y4070D01*
X1248601Y4071D01*
X1249158Y5102D01*
X1249156Y5109D01*
X1249161Y5110D01*
X1249506Y6230D01*
X1249504Y6237D01*
X1249508Y6239D01*
X1249628Y7405D01*
X1249626Y7408D01*
X1249628Y7410D01*
X1249628Y13410D01*
X1249626Y13412D01*
X1249628Y13414D01*
X1249517Y14590D01*
X1249512Y14595D01*
X1249515Y14600D01*
X1249177Y15731D01*
X1249171Y15736D01*
X1249173Y15740D01*
X1248621Y16784D01*
X1248614Y16787D01*
X1248615Y16792D01*
X1247870Y17708D01*
X1247863Y17710D01*
X1247863Y17715D01*
X1246953Y18468D01*
X1246946Y18469D01*
X1246945Y18474D01*
X1245906Y19035D01*
X1245899Y19034D01*
X1245897Y19038D01*
X1244768Y19386D01*
X1244761Y19384D01*
X1244759Y19388D01*
X1243584Y19509D01*
X1243577Y19504D01*
X1243573Y19509D01*
X1242233Y19352D01*
X1242227Y19346D01*
X1242222Y19349D01*
X1240950Y18899D01*
X1240946Y18892D01*
X1240941Y18894D01*
X1239801Y18171D01*
X1239798Y18163D01*
X1239793Y18164D01*
X1238843Y17206D01*
X1238841Y17198D01*
X1238836Y17198D01*
X1238123Y16052D01*
X1238123Y16044D01*
X1238118Y16042D01*
X1237678Y14767D01*
X1237680Y14759D01*
X1237675Y14756D01*
X1237530Y13415D01*
X1237532Y13411D01*
X1237529Y13410D01*
X1237529Y7410D01*
X1237532Y7406D01*
X1237530Y7404D01*
X1237685Y6075D01*
X1237691Y6069D01*
X1237688Y6064D01*
X1238135Y4803D01*
X1238142Y4799D01*
X1238140Y4793D01*
X1238856Y3663D01*
X1238864Y3660D01*
X1238863Y3655D01*
X1239813Y2713D01*
X1239821Y2712D01*
X1239822Y2706D01*
X1240958Y1999D01*
X1240966Y1999D01*
X1240968Y1994D01*
X1242232Y1557D01*
X1242238Y1559D01*
X1242238Y1558D01*
X1242241Y1558D01*
X1242243Y1555D01*
X1243573Y1411D01*
X1243580Y1414D01*
X1243583Y1411D01*
X1244749Y1521D01*
G37*
G36*
X303055Y1521D02*
X303055Y1521D01*
X303061Y1525D01*
X303065Y1522D01*
X304187Y1858D01*
X304191Y1864D01*
X304196Y1861D01*
X305231Y2409D01*
X305234Y2416D01*
X305239Y2415D01*
X306148Y3154D01*
X306150Y3161D01*
X306155Y3161D01*
X306902Y4063D01*
X306902Y4070D01*
X306907Y4071D01*
X307463Y5102D01*
X307462Y5109D01*
X307467Y5110D01*
X307812Y6230D01*
X307809Y6237D01*
X307814Y6239D01*
X307933Y7405D01*
X307931Y7408D01*
X307934Y7410D01*
X307934Y13410D01*
X307932Y13412D01*
X307933Y13414D01*
X307823Y14590D01*
X307818Y14595D01*
X307821Y14600D01*
X307483Y15731D01*
X307477Y15736D01*
X307479Y15740D01*
X306926Y16784D01*
X306920Y16787D01*
X306921Y16792D01*
X306176Y17708D01*
X306169Y17710D01*
X306169Y17715D01*
X305259Y18468D01*
X305252Y18469D01*
X305251Y18474D01*
X304212Y19035D01*
X304204Y19034D01*
X304203Y19038D01*
X303074Y19386D01*
X303067Y19384D01*
X303064Y19388D01*
X301889Y19509D01*
X301883Y19504D01*
X301879Y19509D01*
X300539Y19352D01*
X300533Y19346D01*
X300528Y19349D01*
X299256Y18899D01*
X299252Y18892D01*
X299246Y18894D01*
X298107Y18171D01*
X298104Y18163D01*
X298098Y18164D01*
X297148Y17206D01*
X297147Y17198D01*
X297141Y17198D01*
X296428Y16052D01*
X296429Y16044D01*
X296424Y16042D01*
X295983Y14767D01*
X295986Y14759D01*
X295981Y14756D01*
X295835Y13415D01*
X295838Y13411D01*
X295835Y13410D01*
X295835Y7410D01*
X295838Y7406D01*
X295836Y7404D01*
X295991Y6075D01*
X295997Y6069D01*
X295993Y6064D01*
X296441Y4803D01*
X296447Y4799D01*
X296445Y4793D01*
X297162Y3663D01*
X297170Y3660D01*
X297169Y3655D01*
X298119Y2713D01*
X298127Y2712D01*
X298128Y2706D01*
X299263Y1999D01*
X299272Y1999D01*
X299273Y1994D01*
X300538Y1557D01*
X300543Y1559D01*
X300544Y1558D01*
X300547Y1558D01*
X300549Y1555D01*
X301879Y1411D01*
X301885Y1414D01*
X301889Y1411D01*
X303055Y1521D01*
G37*
G36*
X1145198Y1248288D02*
X1145198Y1248288D01*
X1145264Y1248290D01*
X1145308Y1248307D01*
X1145354Y1248316D01*
X1145411Y1248349D01*
X1145472Y1248374D01*
X1145507Y1248406D01*
X1145548Y1248430D01*
X1145589Y1248481D01*
X1145638Y1248525D01*
X1145659Y1248568D01*
X1145689Y1248604D01*
X1145710Y1248666D01*
X1145740Y1248725D01*
X1145748Y1248779D01*
X1145761Y1248817D01*
X1145760Y1248856D01*
X1145768Y1248910D01*
X1145768Y1254498D01*
X1145756Y1254563D01*
X1145754Y1254629D01*
X1145737Y1254673D01*
X1145728Y1254719D01*
X1145695Y1254776D01*
X1145670Y1254837D01*
X1145638Y1254872D01*
X1145614Y1254912D01*
X1145563Y1254954D01*
X1145519Y1255002D01*
X1145477Y1255024D01*
X1145440Y1255054D01*
X1145378Y1255075D01*
X1145319Y1255105D01*
X1145265Y1255113D01*
X1145227Y1255126D01*
X1145188Y1255125D01*
X1145134Y1255133D01*
X1141324Y1255133D01*
X1141259Y1255121D01*
X1141193Y1255119D01*
X1141149Y1255101D01*
X1141103Y1255093D01*
X1141046Y1255059D01*
X1140985Y1255035D01*
X1140950Y1255003D01*
X1140910Y1254979D01*
X1140868Y1254928D01*
X1140820Y1254883D01*
X1140798Y1254841D01*
X1140768Y1254805D01*
X1140747Y1254742D01*
X1140717Y1254684D01*
X1140709Y1254629D01*
X1140696Y1254592D01*
X1140697Y1254553D01*
X1140689Y1254498D01*
X1140689Y1248910D01*
X1140701Y1248846D01*
X1140703Y1248780D01*
X1140721Y1248736D01*
X1140729Y1248690D01*
X1140763Y1248633D01*
X1140787Y1248572D01*
X1140819Y1248537D01*
X1140843Y1248496D01*
X1140894Y1248455D01*
X1140939Y1248406D01*
X1140981Y1248385D01*
X1141017Y1248355D01*
X1141080Y1248334D01*
X1141138Y1248304D01*
X1141193Y1248296D01*
X1141230Y1248283D01*
X1141269Y1248284D01*
X1141324Y1248276D01*
X1145134Y1248276D01*
X1145198Y1248288D01*
G37*
G36*
X404204Y1248288D02*
X404204Y1248288D01*
X404270Y1248290D01*
X404314Y1248307D01*
X404360Y1248316D01*
X404417Y1248349D01*
X404478Y1248374D01*
X404513Y1248406D01*
X404553Y1248430D01*
X404595Y1248481D01*
X404643Y1248525D01*
X404665Y1248568D01*
X404695Y1248604D01*
X404716Y1248666D01*
X404746Y1248725D01*
X404754Y1248779D01*
X404767Y1248817D01*
X404766Y1248856D01*
X404774Y1248910D01*
X404774Y1254498D01*
X404762Y1254563D01*
X404760Y1254629D01*
X404742Y1254673D01*
X404734Y1254719D01*
X404700Y1254776D01*
X404676Y1254837D01*
X404644Y1254872D01*
X404620Y1254912D01*
X404569Y1254954D01*
X404524Y1255002D01*
X404482Y1255024D01*
X404446Y1255054D01*
X404383Y1255075D01*
X404325Y1255105D01*
X404270Y1255113D01*
X404233Y1255126D01*
X404194Y1255125D01*
X404139Y1255133D01*
X400329Y1255133D01*
X400265Y1255121D01*
X400199Y1255119D01*
X400155Y1255101D01*
X400109Y1255093D01*
X400052Y1255059D01*
X399991Y1255035D01*
X399956Y1255003D01*
X399915Y1254979D01*
X399874Y1254928D01*
X399825Y1254883D01*
X399804Y1254841D01*
X399774Y1254805D01*
X399753Y1254742D01*
X399723Y1254684D01*
X399715Y1254629D01*
X399702Y1254592D01*
X399703Y1254553D01*
X399695Y1254498D01*
X399695Y1248910D01*
X399707Y1248846D01*
X399709Y1248780D01*
X399726Y1248736D01*
X399735Y1248690D01*
X399768Y1248633D01*
X399793Y1248572D01*
X399825Y1248537D01*
X399849Y1248496D01*
X399900Y1248455D01*
X399944Y1248406D01*
X399987Y1248385D01*
X400023Y1248355D01*
X400085Y1248334D01*
X400144Y1248304D01*
X400198Y1248296D01*
X400236Y1248283D01*
X400275Y1248284D01*
X400329Y1248276D01*
X404139Y1248276D01*
X404204Y1248288D01*
G37*
G36*
X910248Y2255558D02*
X910248Y2255558D01*
X910314Y2255560D01*
X910358Y2255577D01*
X910404Y2255586D01*
X910461Y2255619D01*
X910522Y2255644D01*
X910557Y2255676D01*
X910598Y2255700D01*
X910639Y2255751D01*
X910688Y2255795D01*
X910709Y2255838D01*
X910739Y2255874D01*
X910760Y2255936D01*
X910790Y2255995D01*
X910798Y2256049D01*
X910811Y2256087D01*
X910810Y2256126D01*
X910818Y2256180D01*
X910818Y2261768D01*
X910806Y2261833D01*
X910804Y2261899D01*
X910787Y2261943D01*
X910778Y2261989D01*
X910745Y2262046D01*
X910720Y2262107D01*
X910688Y2262142D01*
X910664Y2262182D01*
X910613Y2262224D01*
X910569Y2262272D01*
X910527Y2262294D01*
X910490Y2262324D01*
X910428Y2262345D01*
X910369Y2262375D01*
X910315Y2262383D01*
X910277Y2262396D01*
X910238Y2262395D01*
X910184Y2262403D01*
X906374Y2262403D01*
X906309Y2262391D01*
X906243Y2262389D01*
X906199Y2262371D01*
X906153Y2262363D01*
X906096Y2262329D01*
X906035Y2262305D01*
X906000Y2262273D01*
X905960Y2262249D01*
X905918Y2262198D01*
X905870Y2262153D01*
X905848Y2262111D01*
X905818Y2262075D01*
X905797Y2262012D01*
X905767Y2261954D01*
X905759Y2261899D01*
X905746Y2261862D01*
X905747Y2261823D01*
X905739Y2261768D01*
X905739Y2256180D01*
X905751Y2256116D01*
X905753Y2256050D01*
X905771Y2256006D01*
X905779Y2255960D01*
X905813Y2255903D01*
X905837Y2255842D01*
X905869Y2255807D01*
X905893Y2255766D01*
X905944Y2255725D01*
X905989Y2255676D01*
X906031Y2255655D01*
X906067Y2255625D01*
X906130Y2255604D01*
X906188Y2255574D01*
X906243Y2255566D01*
X906280Y2255553D01*
X906319Y2255554D01*
X906374Y2255546D01*
X910184Y2255546D01*
X910248Y2255558D01*
G37*
G36*
X169254Y1083043D02*
X169254Y1083043D01*
X169320Y1083045D01*
X169364Y1083063D01*
X169410Y1083071D01*
X169467Y1083105D01*
X169528Y1083129D01*
X169563Y1083161D01*
X169603Y1083185D01*
X169645Y1083236D01*
X169693Y1083281D01*
X169715Y1083323D01*
X169745Y1083359D01*
X169766Y1083422D01*
X169796Y1083480D01*
X169804Y1083535D01*
X169817Y1083572D01*
X169816Y1083611D01*
X169824Y1083666D01*
X169824Y1089254D01*
X169812Y1089318D01*
X169810Y1089384D01*
X169792Y1089428D01*
X169784Y1089474D01*
X169750Y1089531D01*
X169726Y1089592D01*
X169694Y1089627D01*
X169670Y1089668D01*
X169619Y1089709D01*
X169574Y1089758D01*
X169532Y1089779D01*
X169496Y1089809D01*
X169433Y1089830D01*
X169375Y1089860D01*
X169320Y1089868D01*
X169283Y1089881D01*
X169244Y1089880D01*
X169189Y1089888D01*
X165379Y1089888D01*
X165315Y1089876D01*
X165249Y1089874D01*
X165205Y1089857D01*
X165159Y1089848D01*
X165102Y1089815D01*
X165041Y1089790D01*
X165006Y1089758D01*
X164965Y1089734D01*
X164924Y1089683D01*
X164875Y1089639D01*
X164854Y1089597D01*
X164824Y1089560D01*
X164803Y1089498D01*
X164773Y1089439D01*
X164765Y1089385D01*
X164752Y1089347D01*
X164753Y1089308D01*
X164745Y1089254D01*
X164745Y1083666D01*
X164757Y1083601D01*
X164759Y1083535D01*
X164776Y1083491D01*
X164785Y1083445D01*
X164818Y1083388D01*
X164843Y1083327D01*
X164875Y1083292D01*
X164899Y1083252D01*
X164950Y1083210D01*
X164994Y1083162D01*
X165037Y1083140D01*
X165073Y1083110D01*
X165135Y1083089D01*
X165194Y1083059D01*
X165248Y1083051D01*
X165286Y1083038D01*
X165325Y1083039D01*
X165379Y1083031D01*
X169189Y1083031D01*
X169254Y1083043D01*
G37*
G36*
X404204Y75773D02*
X404204Y75773D01*
X404270Y75775D01*
X404314Y75793D01*
X404360Y75801D01*
X404417Y75835D01*
X404478Y75859D01*
X404513Y75891D01*
X404553Y75915D01*
X404595Y75966D01*
X404643Y76011D01*
X404665Y76053D01*
X404695Y76089D01*
X404716Y76152D01*
X404746Y76210D01*
X404754Y76265D01*
X404767Y76302D01*
X404766Y76341D01*
X404774Y76396D01*
X404774Y81984D01*
X404762Y82048D01*
X404760Y82114D01*
X404742Y82158D01*
X404734Y82204D01*
X404700Y82261D01*
X404676Y82322D01*
X404644Y82357D01*
X404620Y82398D01*
X404569Y82439D01*
X404524Y82488D01*
X404482Y82509D01*
X404446Y82539D01*
X404383Y82560D01*
X404325Y82590D01*
X404270Y82598D01*
X404233Y82611D01*
X404194Y82610D01*
X404139Y82618D01*
X400329Y82618D01*
X400265Y82606D01*
X400199Y82604D01*
X400155Y82587D01*
X400109Y82578D01*
X400052Y82545D01*
X399991Y82520D01*
X399956Y82488D01*
X399915Y82464D01*
X399874Y82413D01*
X399825Y82369D01*
X399804Y82327D01*
X399774Y82290D01*
X399753Y82228D01*
X399723Y82169D01*
X399715Y82115D01*
X399702Y82077D01*
X399703Y82038D01*
X399695Y81984D01*
X399695Y76396D01*
X399707Y76331D01*
X399709Y76265D01*
X399726Y76221D01*
X399735Y76175D01*
X399768Y76118D01*
X399793Y76057D01*
X399825Y76022D01*
X399849Y75982D01*
X399900Y75940D01*
X399944Y75892D01*
X399987Y75870D01*
X400023Y75840D01*
X400085Y75819D01*
X400144Y75789D01*
X400198Y75781D01*
X400236Y75768D01*
X400275Y75769D01*
X400329Y75761D01*
X404139Y75761D01*
X404204Y75773D01*
G37*
G36*
X1145198Y75773D02*
X1145198Y75773D01*
X1145264Y75775D01*
X1145308Y75793D01*
X1145354Y75801D01*
X1145411Y75835D01*
X1145472Y75859D01*
X1145507Y75891D01*
X1145548Y75915D01*
X1145589Y75966D01*
X1145638Y76011D01*
X1145659Y76053D01*
X1145689Y76089D01*
X1145710Y76152D01*
X1145740Y76210D01*
X1145748Y76265D01*
X1145761Y76302D01*
X1145760Y76341D01*
X1145768Y76396D01*
X1145768Y81984D01*
X1145756Y82048D01*
X1145754Y82114D01*
X1145737Y82158D01*
X1145728Y82204D01*
X1145695Y82261D01*
X1145670Y82322D01*
X1145638Y82357D01*
X1145614Y82398D01*
X1145563Y82439D01*
X1145519Y82488D01*
X1145477Y82509D01*
X1145440Y82539D01*
X1145378Y82560D01*
X1145319Y82590D01*
X1145265Y82598D01*
X1145227Y82611D01*
X1145188Y82610D01*
X1145134Y82618D01*
X1141324Y82618D01*
X1141259Y82606D01*
X1141193Y82604D01*
X1141149Y82587D01*
X1141103Y82578D01*
X1141046Y82545D01*
X1140985Y82520D01*
X1140950Y82488D01*
X1140910Y82464D01*
X1140868Y82413D01*
X1140820Y82369D01*
X1140798Y82327D01*
X1140768Y82290D01*
X1140747Y82228D01*
X1140717Y82169D01*
X1140709Y82115D01*
X1140696Y82077D01*
X1140697Y82038D01*
X1140689Y81984D01*
X1140689Y76396D01*
X1140701Y76331D01*
X1140703Y76265D01*
X1140721Y76221D01*
X1140729Y76175D01*
X1140763Y76118D01*
X1140787Y76057D01*
X1140819Y76022D01*
X1140843Y75982D01*
X1140894Y75940D01*
X1140939Y75892D01*
X1140981Y75870D01*
X1141017Y75840D01*
X1141080Y75819D01*
X1141138Y75789D01*
X1141193Y75781D01*
X1141230Y75768D01*
X1141269Y75769D01*
X1141324Y75761D01*
X1145134Y75761D01*
X1145198Y75773D01*
G37*
G36*
X169254Y2255558D02*
X169254Y2255558D01*
X169320Y2255560D01*
X169364Y2255577D01*
X169410Y2255586D01*
X169467Y2255619D01*
X169528Y2255644D01*
X169563Y2255676D01*
X169603Y2255700D01*
X169645Y2255751D01*
X169693Y2255795D01*
X169715Y2255838D01*
X169745Y2255874D01*
X169766Y2255936D01*
X169796Y2255995D01*
X169804Y2256049D01*
X169817Y2256087D01*
X169816Y2256126D01*
X169824Y2256180D01*
X169824Y2261768D01*
X169812Y2261833D01*
X169810Y2261899D01*
X169792Y2261943D01*
X169784Y2261989D01*
X169750Y2262046D01*
X169726Y2262107D01*
X169694Y2262142D01*
X169670Y2262182D01*
X169619Y2262224D01*
X169574Y2262272D01*
X169532Y2262294D01*
X169496Y2262324D01*
X169433Y2262345D01*
X169375Y2262375D01*
X169320Y2262383D01*
X169283Y2262396D01*
X169244Y2262395D01*
X169189Y2262403D01*
X165379Y2262403D01*
X165315Y2262391D01*
X165249Y2262389D01*
X165205Y2262371D01*
X165159Y2262363D01*
X165102Y2262329D01*
X165041Y2262305D01*
X165006Y2262273D01*
X164965Y2262249D01*
X164924Y2262198D01*
X164875Y2262153D01*
X164854Y2262111D01*
X164824Y2262075D01*
X164803Y2262012D01*
X164773Y2261954D01*
X164765Y2261899D01*
X164752Y2261862D01*
X164753Y2261823D01*
X164745Y2261768D01*
X164745Y2256180D01*
X164757Y2256116D01*
X164759Y2256050D01*
X164776Y2256006D01*
X164785Y2255960D01*
X164818Y2255903D01*
X164843Y2255842D01*
X164875Y2255807D01*
X164899Y2255766D01*
X164950Y2255725D01*
X164994Y2255676D01*
X165037Y2255655D01*
X165073Y2255625D01*
X165135Y2255604D01*
X165194Y2255574D01*
X165248Y2255566D01*
X165286Y2255553D01*
X165325Y2255554D01*
X165379Y2255546D01*
X169189Y2255546D01*
X169254Y2255558D01*
G37*
G36*
X910248Y1083043D02*
X910248Y1083043D01*
X910314Y1083045D01*
X910358Y1083063D01*
X910404Y1083071D01*
X910461Y1083105D01*
X910522Y1083129D01*
X910557Y1083161D01*
X910598Y1083185D01*
X910639Y1083236D01*
X910688Y1083281D01*
X910709Y1083323D01*
X910739Y1083359D01*
X910760Y1083422D01*
X910790Y1083480D01*
X910798Y1083535D01*
X910811Y1083572D01*
X910810Y1083611D01*
X910818Y1083666D01*
X910818Y1089254D01*
X910806Y1089318D01*
X910804Y1089384D01*
X910787Y1089428D01*
X910778Y1089474D01*
X910745Y1089531D01*
X910720Y1089592D01*
X910688Y1089627D01*
X910664Y1089668D01*
X910613Y1089709D01*
X910569Y1089758D01*
X910527Y1089779D01*
X910490Y1089809D01*
X910428Y1089830D01*
X910369Y1089860D01*
X910315Y1089868D01*
X910277Y1089881D01*
X910238Y1089880D01*
X910184Y1089888D01*
X906374Y1089888D01*
X906309Y1089876D01*
X906243Y1089874D01*
X906199Y1089857D01*
X906153Y1089848D01*
X906096Y1089815D01*
X906035Y1089790D01*
X906000Y1089758D01*
X905960Y1089734D01*
X905918Y1089683D01*
X905870Y1089639D01*
X905848Y1089597D01*
X905818Y1089560D01*
X905797Y1089498D01*
X905767Y1089439D01*
X905759Y1089385D01*
X905746Y1089347D01*
X905747Y1089308D01*
X905739Y1089254D01*
X905739Y1083666D01*
X905751Y1083601D01*
X905753Y1083535D01*
X905771Y1083491D01*
X905779Y1083445D01*
X905813Y1083388D01*
X905837Y1083327D01*
X905869Y1083292D01*
X905893Y1083252D01*
X905944Y1083210D01*
X905989Y1083162D01*
X906031Y1083140D01*
X906067Y1083110D01*
X906130Y1083089D01*
X906188Y1083059D01*
X906243Y1083051D01*
X906280Y1083038D01*
X906319Y1083039D01*
X906374Y1083031D01*
X910184Y1083031D01*
X910248Y1083043D01*
G37*
D10*
X60096Y282677D03*
X60096Y782803D03*
X630072Y782803D03*
X630072Y282677D03*
X801091Y282677D03*
X801091Y782803D03*
X1371067Y782803D03*
X1371067Y282677D03*
X60096Y1455191D03*
X60096Y1955317D03*
X630072Y1955317D03*
X630072Y1455191D03*
X801091Y1455191D03*
X801091Y1955317D03*
X1371067Y1955317D03*
X1371067Y1455191D03*
D11*
X637184Y42840D03*
X54784Y1051640D03*
D12*
X406244Y542580D02*
X406244Y535600D01*
X406244Y542580D02*
X413224Y542580D01*
X413224Y535600D01*
X406244Y535600D01*
X406244Y540400D02*
X413224Y540400D01*
X388704Y542580D02*
X388704Y535600D01*
X388704Y542580D02*
X395684Y542580D01*
X395684Y535600D01*
X388704Y535600D01*
X388704Y540400D02*
X395684Y540400D01*
D13*
X392464Y551790D03*
X409464Y551790D03*
D14*
X370484Y371840D03*
X370484Y388840D03*
X345084Y388840D03*
X345084Y371840D03*
D15*
X446985Y370840D03*
X446985Y380340D03*
X446985Y389840D03*
X420983Y389840D03*
X420983Y370840D03*
D13*
X442484Y405740D03*
X425484Y405740D03*
D14*
X268884Y388840D03*
X268884Y371840D03*
X294284Y388840D03*
X294284Y371840D03*
D12*
X406244Y459400D02*
X406244Y466380D01*
X413224Y466380D01*
X413224Y459400D01*
X406244Y459400D01*
X406244Y464200D02*
X413224Y464200D01*
X388704Y466380D02*
X388704Y459400D01*
X388704Y466380D02*
X395684Y466380D01*
X395684Y459400D01*
X388704Y459400D01*
X388704Y464200D02*
X395684Y464200D01*
D13*
X392464Y475590D03*
X409464Y475590D03*
D16*
X306984Y167700D03*
X306984Y156100D03*
D13*
X325154Y168250D03*
X342154Y168250D03*
D14*
X319684Y388840D03*
X319684Y371840D03*
D17*
X285474Y168250D03*
X295474Y168250D03*
D18*
X273584Y191540D03*
X284584Y191540D03*
X295584Y191540D03*
X306584Y191540D03*
X317584Y191540D03*
X328584Y191540D03*
X339584Y191540D03*
X350584Y191540D03*
X361584Y191540D03*
X372584Y191540D03*
X383584Y191540D03*
X394584Y191540D03*
X405584Y191540D03*
X416584Y191540D03*
D19*
X444584Y200040D03*
X444584Y211040D03*
X444584Y222040D03*
X444584Y233040D03*
X444584Y244040D03*
X444584Y255040D03*
X444584Y266040D03*
X444584Y277040D03*
X444584Y288040D03*
X444584Y299040D03*
X444584Y310040D03*
X444584Y321040D03*
X444584Y332040D03*
D18*
X416584Y340540D03*
X405584Y340540D03*
X394584Y340540D03*
X383584Y340540D03*
X372584Y340540D03*
X361584Y340540D03*
X350584Y340540D03*
X339584Y340540D03*
X328584Y340540D03*
X317584Y340540D03*
X306584Y340540D03*
X295584Y340540D03*
X284584Y340540D03*
X273584Y340540D03*
D19*
X245584Y332040D03*
X245584Y321040D03*
X245584Y310040D03*
X245584Y299040D03*
X245584Y288040D03*
X245584Y277040D03*
X245584Y266040D03*
X245584Y255040D03*
X245584Y244040D03*
X245584Y233040D03*
X245584Y222040D03*
X245584Y211040D03*
X245584Y200040D03*
D20*
X334584Y255540D03*
X313584Y255540D03*
X292584Y255540D03*
X271584Y255540D03*
X334584Y235040D03*
X313584Y235040D03*
X292584Y235040D03*
X271584Y235040D03*
X334584Y214540D03*
X313584Y214540D03*
X292584Y214540D03*
X271584Y214540D03*
X334584Y317540D03*
X313584Y317540D03*
X292584Y317540D03*
X271584Y317540D03*
X334584Y297040D03*
X313584Y297040D03*
X292584Y297040D03*
X271584Y297040D03*
X334584Y276540D03*
X313584Y276540D03*
X292584Y276540D03*
X271584Y276540D03*
X355584Y276540D03*
X376584Y276540D03*
X397584Y276540D03*
X418584Y276540D03*
X355584Y297040D03*
X376584Y297040D03*
X397584Y297040D03*
X418584Y297040D03*
X355584Y317540D03*
X376584Y317540D03*
X397584Y317540D03*
X418584Y317540D03*
X355584Y214540D03*
X376584Y214540D03*
X397584Y214540D03*
X418584Y214540D03*
X355584Y235040D03*
X376584Y235040D03*
X397584Y235040D03*
X418584Y235040D03*
X355584Y255540D03*
X376584Y255540D03*
X397584Y255540D03*
X418584Y255540D03*
D13*
X391684Y98240D03*
X374684Y98240D03*
X298484Y98240D03*
X315484Y98240D03*
D21*
X352584Y58010D03*
X347584Y58010D03*
D22*
X377334Y58010D03*
X369584Y58010D03*
D21*
X362584Y58010D03*
X357584Y58010D03*
X337584Y58010D03*
X342584Y58010D03*
D22*
X312834Y58010D03*
X320584Y58010D03*
D21*
X327584Y58010D03*
X332584Y58010D03*
D23*
X316184Y46960D03*
X373984Y46960D03*
D14*
X395884Y371840D03*
X395884Y388840D03*
D13*
X349284Y405740D03*
X366284Y405740D03*
D24*
X327384Y134990D03*
D25*
X332384Y134740D03*
X337384Y134740D03*
X337384Y143340D03*
X332384Y143340D03*
X327384Y143340D03*
D26*
X273284Y35450D03*
D27*
X230784Y81450D03*
D26*
X188284Y35450D03*
D28*
X211184Y292140D03*
D29*
X211184Y300140D03*
X211184Y308140D03*
D28*
X224384Y292140D03*
D29*
X224384Y300140D03*
X224384Y308140D03*
D30*
X224284Y316140D03*
D28*
X211184Y316140D03*
X211184Y228640D03*
D29*
X211184Y236640D03*
X211184Y244640D03*
D28*
X224384Y228640D03*
D29*
X224384Y236640D03*
X224384Y244640D03*
D30*
X224284Y252640D03*
D28*
X211184Y252640D03*
D14*
X218084Y333740D03*
X218084Y350740D03*
D10*
X60096Y282677D03*
X60096Y782803D03*
X630072Y782803D03*
X630072Y282677D03*
D13*
X175784Y376530D03*
X158784Y376530D03*
D12*
X172564Y357160D02*
X172564Y350180D01*
X172564Y357160D02*
X179544Y357160D01*
X179544Y350180D01*
X172564Y350180D01*
X172564Y354980D02*
X179544Y354980D01*
X155024Y357160D02*
X155024Y350180D01*
X155024Y357160D02*
X162004Y357160D01*
X162004Y350180D01*
X155024Y350180D01*
X155024Y354980D02*
X162004Y354980D01*
D31*
X652264Y468140D03*
X632264Y468140D03*
D32*
X676264Y416140D03*
X608264Y416140D03*
D33*
X166184Y1018040D03*
X166184Y1038040D03*
D34*
X114184Y994040D03*
X114184Y1062040D03*
D35*
X205384Y1028040D03*
X205384Y1002640D03*
D13*
X297704Y627990D03*
X280704Y627990D03*
D12*
X294484Y618780D02*
X294484Y611800D01*
X294484Y618780D02*
X301464Y618780D01*
X301464Y611800D01*
X294484Y611800D01*
X294484Y616600D02*
X301464Y616600D01*
X276944Y618780D02*
X276944Y611800D01*
X276944Y618780D02*
X283924Y618780D01*
X283924Y611800D01*
X276944Y611800D01*
X276944Y616600D02*
X283924Y616600D01*
D13*
X297704Y551790D03*
X280704Y551790D03*
D12*
X294484Y542580D02*
X294484Y535600D01*
X294484Y542580D02*
X301464Y542580D01*
X301464Y535600D01*
X294484Y535600D01*
X294484Y540400D02*
X301464Y540400D01*
X276944Y542580D02*
X276944Y535600D01*
X276944Y542580D02*
X283924Y542580D01*
X283924Y535600D01*
X276944Y535600D01*
X276944Y540400D02*
X283924Y540400D01*
D13*
X297704Y475590D03*
X280704Y475590D03*
D12*
X294484Y466380D02*
X294484Y459400D01*
X294484Y466380D02*
X301464Y466380D01*
X301464Y459400D01*
X294484Y459400D01*
X294484Y464200D02*
X301464Y464200D01*
X276944Y466380D02*
X276944Y459400D01*
X276944Y466380D02*
X283924Y466380D01*
X283924Y459400D01*
X276944Y459400D01*
X276944Y464200D02*
X283924Y464200D01*
D31*
X56634Y468140D03*
X36634Y468140D03*
D32*
X80634Y416140D03*
X12634Y416140D03*
D21*
X466884Y58010D03*
X461884Y58010D03*
D22*
X491634Y58010D03*
X483884Y58010D03*
D21*
X476884Y58010D03*
X471884Y58010D03*
X451884Y58010D03*
X456884Y58010D03*
D22*
X427134Y58010D03*
X434884Y58010D03*
D21*
X441884Y58010D03*
X446884Y58010D03*
D23*
X430484Y46960D03*
X488284Y46960D03*
D13*
X505984Y98240D03*
X488984Y98240D03*
X412784Y98240D03*
X429784Y98240D03*
D36*
X97734Y44880D03*
D37*
X153734Y12880D03*
X79234Y12880D03*
D36*
X110234Y44880D03*
X122734Y44880D03*
X135234Y44880D03*
X554934Y44880D03*
D37*
X610934Y12880D03*
X536434Y12880D03*
D36*
X567434Y44880D03*
X579934Y44880D03*
X592434Y44880D03*
D13*
X409464Y627990D03*
X392464Y627990D03*
D12*
X406244Y618780D02*
X406244Y611800D01*
X406244Y618780D02*
X413224Y618780D01*
X413224Y611800D01*
X406244Y611800D01*
X406244Y616600D02*
X413224Y616600D01*
X388704Y618780D02*
X388704Y611800D01*
X388704Y618780D02*
X395684Y618780D01*
X395684Y611800D01*
X388704Y611800D01*
X388704Y616600D02*
X395684Y616600D01*
D35*
X154584Y71890D03*
X129184Y71890D03*
X103784Y71890D03*
X78384Y71890D03*
X611784Y174440D03*
X586384Y174440D03*
X560984Y174440D03*
X535584Y174440D03*
X535584Y240640D03*
X535584Y266040D03*
X535584Y291440D03*
X535584Y316840D03*
D28*
X490584Y266740D03*
D29*
X490584Y274740D03*
X490584Y282740D03*
D28*
X503784Y266740D03*
D29*
X503784Y274740D03*
X503784Y282740D03*
D30*
X503684Y290740D03*
D28*
X490584Y290740D03*
D35*
X27584Y342240D03*
X27584Y316840D03*
D13*
X513604Y174440D03*
X496604Y174440D03*
D38*
X470884Y110940D03*
X447884Y110940D03*
D39*
X397154Y79190D03*
X407314Y79190D03*
D35*
X389534Y79190D03*
X414934Y79190D03*
D39*
X162204Y1086460D03*
X172364Y1086460D03*
D35*
X154584Y1086460D03*
X179984Y1086460D03*
X630084Y980340D03*
X630084Y954940D03*
D40*
X508134Y363400D03*
X508134Y352400D03*
X508134Y341400D03*
X537634Y341400D03*
X537634Y352400D03*
X537634Y363400D03*
D13*
X490744Y367640D03*
X473744Y367640D03*
X490744Y337160D03*
X473744Y337160D03*
X490744Y352400D03*
X473744Y352400D03*
D15*
X358085Y447040D03*
X358085Y456540D03*
X358085Y466040D03*
X332083Y466040D03*
X332083Y447040D03*
D13*
X353584Y481940D03*
X336584Y481940D03*
X336584Y431140D03*
X353584Y431140D03*
D41*
X100934Y214840D03*
X100934Y189840D03*
X100934Y164840D03*
X157434Y214840D03*
X157434Y189840D03*
X157434Y164840D03*
D42*
X129184Y204840D03*
X129184Y174840D03*
D41*
X100934Y341840D03*
X100934Y316840D03*
X100934Y291840D03*
X157434Y341840D03*
X157434Y316840D03*
X157434Y291840D03*
D42*
X129184Y331840D03*
X129184Y301840D03*
D24*
X454384Y134990D03*
D25*
X459384Y134740D03*
X464384Y134740D03*
X464384Y143340D03*
X459384Y143340D03*
X454384Y143340D03*
D35*
X357784Y139040D03*
X383184Y139040D03*
X408584Y139040D03*
X433984Y139040D03*
X192684Y278740D03*
X192684Y253340D03*
X192684Y227940D03*
X192684Y202540D03*
X192684Y177140D03*
D42*
X72288Y204840D03*
X72288Y174840D03*
D43*
X73364Y655850D03*
X17364Y655850D03*
D44*
X60364Y619100D03*
X50364Y619100D03*
X40364Y619100D03*
X30364Y619100D03*
D11*
X1378179Y42840D03*
X795779Y1051640D03*
D12*
X1147239Y542580D02*
X1147239Y535600D01*
X1147239Y542580D02*
X1154219Y542580D01*
X1154219Y535600D01*
X1147239Y535600D01*
X1147239Y540400D02*
X1154219Y540400D01*
X1129699Y542580D02*
X1129699Y535600D01*
X1129699Y542580D02*
X1136679Y542580D01*
X1136679Y535600D01*
X1129699Y535600D01*
X1129699Y540400D02*
X1136679Y540400D01*
D13*
X1133459Y551790D03*
X1150459Y551790D03*
D14*
X1111479Y371840D03*
X1111479Y388840D03*
X1086079Y388840D03*
X1086079Y371840D03*
D15*
X1187980Y370840D03*
X1187980Y380340D03*
X1187980Y389840D03*
X1161978Y389840D03*
X1161978Y370840D03*
D13*
X1183479Y405740D03*
X1166479Y405740D03*
D14*
X1009879Y388840D03*
X1009879Y371840D03*
X1035279Y388840D03*
X1035279Y371840D03*
D12*
X1147239Y459400D02*
X1147239Y466380D01*
X1154219Y466380D01*
X1154219Y459400D01*
X1147239Y459400D01*
X1147239Y464200D02*
X1154219Y464200D01*
X1129699Y466380D02*
X1129699Y459400D01*
X1129699Y466380D02*
X1136679Y466380D01*
X1136679Y459400D01*
X1129699Y459400D01*
X1129699Y464200D02*
X1136679Y464200D01*
D13*
X1133459Y475590D03*
X1150459Y475590D03*
D16*
X1047979Y167700D03*
X1047979Y156100D03*
D13*
X1066149Y168250D03*
X1083149Y168250D03*
D14*
X1060679Y388840D03*
X1060679Y371840D03*
D17*
X1026469Y168250D03*
X1036469Y168250D03*
D18*
X1014579Y191540D03*
X1025579Y191540D03*
X1036579Y191540D03*
X1047579Y191540D03*
X1058579Y191540D03*
X1069579Y191540D03*
X1080579Y191540D03*
X1091579Y191540D03*
X1102579Y191540D03*
X1113579Y191540D03*
X1124579Y191540D03*
X1135579Y191540D03*
X1146579Y191540D03*
X1157579Y191540D03*
D19*
X1185579Y200040D03*
X1185579Y211040D03*
X1185579Y222040D03*
X1185579Y233040D03*
X1185579Y244040D03*
X1185579Y255040D03*
X1185579Y266040D03*
X1185579Y277040D03*
X1185579Y288040D03*
X1185579Y299040D03*
X1185579Y310040D03*
X1185579Y321040D03*
X1185579Y332040D03*
D18*
X1157579Y340540D03*
X1146579Y340540D03*
X1135579Y340540D03*
X1124579Y340540D03*
X1113579Y340540D03*
X1102579Y340540D03*
X1091579Y340540D03*
X1080579Y340540D03*
X1069579Y340540D03*
X1058579Y340540D03*
X1047579Y340540D03*
X1036579Y340540D03*
X1025579Y340540D03*
X1014579Y340540D03*
D19*
X986579Y332040D03*
X986579Y321040D03*
X986579Y310040D03*
X986579Y299040D03*
X986579Y288040D03*
X986579Y277040D03*
X986579Y266040D03*
X986579Y255040D03*
X986579Y244040D03*
X986579Y233040D03*
X986579Y222040D03*
X986579Y211040D03*
X986579Y200040D03*
D20*
X1075579Y255540D03*
X1054579Y255540D03*
X1033579Y255540D03*
X1012579Y255540D03*
X1075579Y235040D03*
X1054579Y235040D03*
X1033579Y235040D03*
X1012579Y235040D03*
X1075579Y214540D03*
X1054579Y214540D03*
X1033579Y214540D03*
X1012579Y214540D03*
X1075579Y317540D03*
X1054579Y317540D03*
X1033579Y317540D03*
X1012579Y317540D03*
X1075579Y297040D03*
X1054579Y297040D03*
X1033579Y297040D03*
X1012579Y297040D03*
X1075579Y276540D03*
X1054579Y276540D03*
X1033579Y276540D03*
X1012579Y276540D03*
X1096579Y276540D03*
X1117579Y276540D03*
X1138579Y276540D03*
X1159579Y276540D03*
X1096579Y297040D03*
X1117579Y297040D03*
X1138579Y297040D03*
X1159579Y297040D03*
X1096579Y317540D03*
X1117579Y317540D03*
X1138579Y317540D03*
X1159579Y317540D03*
X1096579Y214540D03*
X1117579Y214540D03*
X1138579Y214540D03*
X1159579Y214540D03*
X1096579Y235040D03*
X1117579Y235040D03*
X1138579Y235040D03*
X1159579Y235040D03*
X1096579Y255540D03*
X1117579Y255540D03*
X1138579Y255540D03*
X1159579Y255540D03*
D13*
X1132679Y98240D03*
X1115679Y98240D03*
X1039479Y98240D03*
X1056479Y98240D03*
D21*
X1093579Y58010D03*
X1088579Y58010D03*
D22*
X1118329Y58010D03*
X1110579Y58010D03*
D21*
X1103579Y58010D03*
X1098579Y58010D03*
X1078579Y58010D03*
X1083579Y58010D03*
D22*
X1053829Y58010D03*
X1061579Y58010D03*
D21*
X1068579Y58010D03*
X1073579Y58010D03*
D23*
X1057179Y46960D03*
X1114979Y46960D03*
D14*
X1136879Y371840D03*
X1136879Y388840D03*
D13*
X1090279Y405740D03*
X1107279Y405740D03*
D24*
X1068379Y134990D03*
D25*
X1073379Y134740D03*
X1078379Y134740D03*
X1078379Y143340D03*
X1073379Y143340D03*
X1068379Y143340D03*
D26*
X1014279Y35450D03*
D27*
X971779Y81450D03*
D26*
X929279Y35450D03*
D28*
X952179Y292140D03*
D29*
X952179Y300140D03*
X952179Y308140D03*
D28*
X965379Y292140D03*
D29*
X965379Y300140D03*
X965379Y308140D03*
D30*
X965279Y316140D03*
D28*
X952179Y316140D03*
X952179Y228640D03*
D29*
X952179Y236640D03*
X952179Y244640D03*
D28*
X965379Y228640D03*
D29*
X965379Y236640D03*
X965379Y244640D03*
D30*
X965279Y252640D03*
D28*
X952179Y252640D03*
D14*
X959079Y333740D03*
X959079Y350740D03*
D10*
X801091Y282677D03*
X801091Y782803D03*
X1371067Y782803D03*
X1371067Y282677D03*
D13*
X916779Y376530D03*
X899779Y376530D03*
D12*
X913559Y357160D02*
X913559Y350180D01*
X913559Y357160D02*
X920539Y357160D01*
X920539Y350180D01*
X913559Y350180D01*
X913559Y354980D02*
X920539Y354980D01*
X896019Y357160D02*
X896019Y350180D01*
X896019Y357160D02*
X902999Y357160D01*
X902999Y350180D01*
X896019Y350180D01*
X896019Y354980D02*
X902999Y354980D01*
D31*
X1393259Y468140D03*
X1373259Y468140D03*
D32*
X1417259Y416140D03*
X1349259Y416140D03*
D33*
X907179Y1018040D03*
X907179Y1038040D03*
D34*
X855179Y994040D03*
X855179Y1062040D03*
D35*
X946379Y1028040D03*
X946379Y1002640D03*
D13*
X1038699Y627990D03*
X1021699Y627990D03*
D12*
X1035479Y618780D02*
X1035479Y611800D01*
X1035479Y618780D02*
X1042459Y618780D01*
X1042459Y611800D01*
X1035479Y611800D01*
X1035479Y616600D02*
X1042459Y616600D01*
X1017939Y618780D02*
X1017939Y611800D01*
X1017939Y618780D02*
X1024919Y618780D01*
X1024919Y611800D01*
X1017939Y611800D01*
X1017939Y616600D02*
X1024919Y616600D01*
D13*
X1038699Y551790D03*
X1021699Y551790D03*
D12*
X1035479Y542580D02*
X1035479Y535600D01*
X1035479Y542580D02*
X1042459Y542580D01*
X1042459Y535600D01*
X1035479Y535600D01*
X1035479Y540400D02*
X1042459Y540400D01*
X1017939Y542580D02*
X1017939Y535600D01*
X1017939Y542580D02*
X1024919Y542580D01*
X1024919Y535600D01*
X1017939Y535600D01*
X1017939Y540400D02*
X1024919Y540400D01*
D13*
X1038699Y475590D03*
X1021699Y475590D03*
D12*
X1035479Y466380D02*
X1035479Y459400D01*
X1035479Y466380D02*
X1042459Y466380D01*
X1042459Y459400D01*
X1035479Y459400D01*
X1035479Y464200D02*
X1042459Y464200D01*
X1017939Y466380D02*
X1017939Y459400D01*
X1017939Y466380D02*
X1024919Y466380D01*
X1024919Y459400D01*
X1017939Y459400D01*
X1017939Y464200D02*
X1024919Y464200D01*
D31*
X797629Y468140D03*
X777629Y468140D03*
D32*
X821629Y416140D03*
X753629Y416140D03*
D21*
X1207879Y58010D03*
X1202879Y58010D03*
D22*
X1232629Y58010D03*
X1224879Y58010D03*
D21*
X1217879Y58010D03*
X1212879Y58010D03*
X1192879Y58010D03*
X1197879Y58010D03*
D22*
X1168129Y58010D03*
X1175879Y58010D03*
D21*
X1182879Y58010D03*
X1187879Y58010D03*
D23*
X1171479Y46960D03*
X1229279Y46960D03*
D13*
X1246979Y98240D03*
X1229979Y98240D03*
X1153779Y98240D03*
X1170779Y98240D03*
D36*
X838729Y44880D03*
D37*
X894729Y12880D03*
X820229Y12880D03*
D36*
X851229Y44880D03*
X863729Y44880D03*
X876229Y44880D03*
X1295929Y44880D03*
D37*
X1351929Y12880D03*
X1277429Y12880D03*
D36*
X1308429Y44880D03*
X1320929Y44880D03*
X1333429Y44880D03*
D13*
X1150459Y627990D03*
X1133459Y627990D03*
D12*
X1147239Y618780D02*
X1147239Y611800D01*
X1147239Y618780D02*
X1154219Y618780D01*
X1154219Y611800D01*
X1147239Y611800D01*
X1147239Y616600D02*
X1154219Y616600D01*
X1129699Y618780D02*
X1129699Y611800D01*
X1129699Y618780D02*
X1136679Y618780D01*
X1136679Y611800D01*
X1129699Y611800D01*
X1129699Y616600D02*
X1136679Y616600D01*
D35*
X895579Y71890D03*
X870179Y71890D03*
X844779Y71890D03*
X819379Y71890D03*
X1352779Y174440D03*
X1327379Y174440D03*
X1301979Y174440D03*
X1276579Y174440D03*
X1276579Y240640D03*
X1276579Y266040D03*
X1276579Y291440D03*
X1276579Y316840D03*
D28*
X1231579Y266740D03*
D29*
X1231579Y274740D03*
X1231579Y282740D03*
D28*
X1244779Y266740D03*
D29*
X1244779Y274740D03*
X1244779Y282740D03*
D30*
X1244679Y290740D03*
D28*
X1231579Y290740D03*
D35*
X768579Y342240D03*
X768579Y316840D03*
D13*
X1254599Y174440D03*
X1237599Y174440D03*
D38*
X1211879Y110940D03*
X1188879Y110940D03*
D39*
X1138149Y79190D03*
X1148309Y79190D03*
D35*
X1130529Y79190D03*
X1155929Y79190D03*
D39*
X903199Y1086460D03*
X913359Y1086460D03*
D35*
X895579Y1086460D03*
X920979Y1086460D03*
X1371079Y980340D03*
X1371079Y954940D03*
D40*
X1249129Y363400D03*
X1249129Y352400D03*
X1249129Y341400D03*
X1278629Y341400D03*
X1278629Y352400D03*
X1278629Y363400D03*
D13*
X1231739Y367640D03*
X1214739Y367640D03*
X1231739Y337160D03*
X1214739Y337160D03*
X1231739Y352400D03*
X1214739Y352400D03*
D15*
X1099080Y447040D03*
X1099080Y456540D03*
X1099080Y466040D03*
X1073078Y466040D03*
X1073078Y447040D03*
D13*
X1094579Y481940D03*
X1077579Y481940D03*
X1077579Y431140D03*
X1094579Y431140D03*
D41*
X841929Y214840D03*
X841929Y189840D03*
X841929Y164840D03*
X898429Y214840D03*
X898429Y189840D03*
X898429Y164840D03*
D42*
X870179Y204840D03*
X870179Y174840D03*
D41*
X841929Y341840D03*
X841929Y316840D03*
X841929Y291840D03*
X898429Y341840D03*
X898429Y316840D03*
X898429Y291840D03*
D42*
X870179Y331840D03*
X870179Y301840D03*
D24*
X1195379Y134990D03*
D25*
X1200379Y134740D03*
X1205379Y134740D03*
X1205379Y143340D03*
X1200379Y143340D03*
X1195379Y143340D03*
D35*
X1098779Y139040D03*
X1124179Y139040D03*
X1149579Y139040D03*
X1174979Y139040D03*
X933679Y278740D03*
X933679Y253340D03*
X933679Y227940D03*
X933679Y202540D03*
X933679Y177140D03*
D42*
X813283Y204840D03*
X813283Y174840D03*
D43*
X814359Y655850D03*
X758359Y655850D03*
D44*
X801359Y619100D03*
X791359Y619100D03*
X781359Y619100D03*
X771359Y619100D03*
D11*
X637184Y1215354D03*
X54784Y2224154D03*
D12*
X406244Y1715094D02*
X406244Y1708114D01*
X406244Y1715094D02*
X413224Y1715094D01*
X413224Y1708114D01*
X406244Y1708114D01*
X406244Y1712914D02*
X413224Y1712914D01*
X388704Y1715094D02*
X388704Y1708114D01*
X388704Y1715094D02*
X395684Y1715094D01*
X395684Y1708114D01*
X388704Y1708114D01*
X388704Y1712914D02*
X395684Y1712914D01*
D13*
X392464Y1724304D03*
X409464Y1724304D03*
D14*
X370484Y1544354D03*
X370484Y1561354D03*
X345084Y1561354D03*
X345084Y1544354D03*
D15*
X446985Y1543354D03*
X446985Y1552854D03*
X446985Y1562354D03*
X420983Y1562354D03*
X420983Y1543354D03*
D13*
X442484Y1578254D03*
X425484Y1578254D03*
D14*
X268884Y1561354D03*
X268884Y1544354D03*
X294284Y1561354D03*
X294284Y1544354D03*
D12*
X406244Y1631914D02*
X406244Y1638894D01*
X413224Y1638894D01*
X413224Y1631914D01*
X406244Y1631914D01*
X406244Y1636714D02*
X413224Y1636714D01*
X388704Y1638894D02*
X388704Y1631914D01*
X388704Y1638894D02*
X395684Y1638894D01*
X395684Y1631914D01*
X388704Y1631914D01*
X388704Y1636714D02*
X395684Y1636714D01*
D13*
X392464Y1648104D03*
X409464Y1648104D03*
D16*
X306984Y1340214D03*
X306984Y1328614D03*
D13*
X325154Y1340764D03*
X342154Y1340764D03*
D14*
X319684Y1561354D03*
X319684Y1544354D03*
D17*
X285474Y1340764D03*
X295474Y1340764D03*
D18*
X273584Y1364054D03*
X284584Y1364054D03*
X295584Y1364054D03*
X306584Y1364054D03*
X317584Y1364054D03*
X328584Y1364054D03*
X339584Y1364054D03*
X350584Y1364054D03*
X361584Y1364054D03*
X372584Y1364054D03*
X383584Y1364054D03*
X394584Y1364054D03*
X405584Y1364054D03*
X416584Y1364054D03*
D19*
X444584Y1372554D03*
X444584Y1383554D03*
X444584Y1394554D03*
X444584Y1405554D03*
X444584Y1416554D03*
X444584Y1427554D03*
X444584Y1438554D03*
X444584Y1449554D03*
X444584Y1460554D03*
X444584Y1471554D03*
X444584Y1482554D03*
X444584Y1493554D03*
X444584Y1504554D03*
D18*
X416584Y1513054D03*
X405584Y1513054D03*
X394584Y1513054D03*
X383584Y1513054D03*
X372584Y1513054D03*
X361584Y1513054D03*
X350584Y1513054D03*
X339584Y1513054D03*
X328584Y1513054D03*
X317584Y1513054D03*
X306584Y1513054D03*
X295584Y1513054D03*
X284584Y1513054D03*
X273584Y1513054D03*
D19*
X245584Y1504554D03*
X245584Y1493554D03*
X245584Y1482554D03*
X245584Y1471554D03*
X245584Y1460554D03*
X245584Y1449554D03*
X245584Y1438554D03*
X245584Y1427554D03*
X245584Y1416554D03*
X245584Y1405554D03*
X245584Y1394554D03*
X245584Y1383554D03*
X245584Y1372554D03*
D20*
X334584Y1428054D03*
X313584Y1428054D03*
X292584Y1428054D03*
X271584Y1428054D03*
X334584Y1407554D03*
X313584Y1407554D03*
X292584Y1407554D03*
X271584Y1407554D03*
X334584Y1387054D03*
X313584Y1387054D03*
X292584Y1387054D03*
X271584Y1387054D03*
X334584Y1490054D03*
X313584Y1490054D03*
X292584Y1490054D03*
X271584Y1490054D03*
X334584Y1469554D03*
X313584Y1469554D03*
X292584Y1469554D03*
X271584Y1469554D03*
X334584Y1449054D03*
X313584Y1449054D03*
X292584Y1449054D03*
X271584Y1449054D03*
X355584Y1449054D03*
X376584Y1449054D03*
X397584Y1449054D03*
X418584Y1449054D03*
X355584Y1469554D03*
X376584Y1469554D03*
X397584Y1469554D03*
X418584Y1469554D03*
X355584Y1490054D03*
X376584Y1490054D03*
X397584Y1490054D03*
X418584Y1490054D03*
X355584Y1387054D03*
X376584Y1387054D03*
X397584Y1387054D03*
X418584Y1387054D03*
X355584Y1407554D03*
X376584Y1407554D03*
X397584Y1407554D03*
X418584Y1407554D03*
X355584Y1428054D03*
X376584Y1428054D03*
X397584Y1428054D03*
X418584Y1428054D03*
D13*
X391684Y1270754D03*
X374684Y1270754D03*
X298484Y1270754D03*
X315484Y1270754D03*
D21*
X352584Y1230524D03*
X347584Y1230524D03*
D22*
X377334Y1230524D03*
X369584Y1230524D03*
D21*
X362584Y1230524D03*
X357584Y1230524D03*
X337584Y1230524D03*
X342584Y1230524D03*
D22*
X312834Y1230524D03*
X320584Y1230524D03*
D21*
X327584Y1230524D03*
X332584Y1230524D03*
D23*
X316184Y1219474D03*
X373984Y1219474D03*
D14*
X395884Y1544354D03*
X395884Y1561354D03*
D13*
X349284Y1578254D03*
X366284Y1578254D03*
D24*
X327384Y1307504D03*
D25*
X332384Y1307254D03*
X337384Y1307254D03*
X337384Y1315854D03*
X332384Y1315854D03*
X327384Y1315854D03*
D26*
X273284Y1207964D03*
D27*
X230784Y1253964D03*
D26*
X188284Y1207964D03*
D28*
X211184Y1464654D03*
D29*
X211184Y1472654D03*
X211184Y1480654D03*
D28*
X224384Y1464654D03*
D29*
X224384Y1472654D03*
X224384Y1480654D03*
D30*
X224284Y1488654D03*
D28*
X211184Y1488654D03*
X211184Y1401154D03*
D29*
X211184Y1409154D03*
X211184Y1417154D03*
D28*
X224384Y1401154D03*
D29*
X224384Y1409154D03*
X224384Y1417154D03*
D30*
X224284Y1425154D03*
D28*
X211184Y1425154D03*
D14*
X218084Y1506254D03*
X218084Y1523254D03*
D10*
X60096Y1455191D03*
X60096Y1955317D03*
X630072Y1955317D03*
X630072Y1455191D03*
D13*
X175784Y1549044D03*
X158784Y1549044D03*
D12*
X172564Y1529674D02*
X172564Y1522694D01*
X172564Y1529674D02*
X179544Y1529674D01*
X179544Y1522694D01*
X172564Y1522694D01*
X172564Y1527494D02*
X179544Y1527494D01*
X155024Y1529674D02*
X155024Y1522694D01*
X155024Y1529674D02*
X162004Y1529674D01*
X162004Y1522694D01*
X155024Y1522694D01*
X155024Y1527494D02*
X162004Y1527494D01*
D31*
X652264Y1640654D03*
X632264Y1640654D03*
D32*
X676264Y1588654D03*
X608264Y1588654D03*
D33*
X166184Y2190554D03*
X166184Y2210554D03*
D34*
X114184Y2166554D03*
X114184Y2234554D03*
D35*
X205384Y2200554D03*
X205384Y2175154D03*
D13*
X297704Y1800504D03*
X280704Y1800504D03*
D12*
X294484Y1791294D02*
X294484Y1784314D01*
X294484Y1791294D02*
X301464Y1791294D01*
X301464Y1784314D01*
X294484Y1784314D01*
X294484Y1789114D02*
X301464Y1789114D01*
X276944Y1791294D02*
X276944Y1784314D01*
X276944Y1791294D02*
X283924Y1791294D01*
X283924Y1784314D01*
X276944Y1784314D01*
X276944Y1789114D02*
X283924Y1789114D01*
D13*
X297704Y1724304D03*
X280704Y1724304D03*
D12*
X294484Y1715094D02*
X294484Y1708114D01*
X294484Y1715094D02*
X301464Y1715094D01*
X301464Y1708114D01*
X294484Y1708114D01*
X294484Y1712914D02*
X301464Y1712914D01*
X276944Y1715094D02*
X276944Y1708114D01*
X276944Y1715094D02*
X283924Y1715094D01*
X283924Y1708114D01*
X276944Y1708114D01*
X276944Y1712914D02*
X283924Y1712914D01*
D13*
X297704Y1648104D03*
X280704Y1648104D03*
D12*
X294484Y1638894D02*
X294484Y1631914D01*
X294484Y1638894D02*
X301464Y1638894D01*
X301464Y1631914D01*
X294484Y1631914D01*
X294484Y1636714D02*
X301464Y1636714D01*
X276944Y1638894D02*
X276944Y1631914D01*
X276944Y1638894D02*
X283924Y1638894D01*
X283924Y1631914D01*
X276944Y1631914D01*
X276944Y1636714D02*
X283924Y1636714D01*
D31*
X56634Y1640654D03*
X36634Y1640654D03*
D32*
X80634Y1588654D03*
X12634Y1588654D03*
D21*
X466884Y1230524D03*
X461884Y1230524D03*
D22*
X491634Y1230524D03*
X483884Y1230524D03*
D21*
X476884Y1230524D03*
X471884Y1230524D03*
X451884Y1230524D03*
X456884Y1230524D03*
D22*
X427134Y1230524D03*
X434884Y1230524D03*
D21*
X441884Y1230524D03*
X446884Y1230524D03*
D23*
X430484Y1219474D03*
X488284Y1219474D03*
D13*
X505984Y1270754D03*
X488984Y1270754D03*
X412784Y1270754D03*
X429784Y1270754D03*
D36*
X97734Y1217394D03*
D37*
X153734Y1185394D03*
X79234Y1185394D03*
D36*
X110234Y1217394D03*
X122734Y1217394D03*
X135234Y1217394D03*
X554934Y1217394D03*
D37*
X610934Y1185394D03*
X536434Y1185394D03*
D36*
X567434Y1217394D03*
X579934Y1217394D03*
X592434Y1217394D03*
D13*
X409464Y1800504D03*
X392464Y1800504D03*
D12*
X406244Y1791294D02*
X406244Y1784314D01*
X406244Y1791294D02*
X413224Y1791294D01*
X413224Y1784314D01*
X406244Y1784314D01*
X406244Y1789114D02*
X413224Y1789114D01*
X388704Y1791294D02*
X388704Y1784314D01*
X388704Y1791294D02*
X395684Y1791294D01*
X395684Y1784314D01*
X388704Y1784314D01*
X388704Y1789114D02*
X395684Y1789114D01*
D35*
X154584Y1244404D03*
X129184Y1244404D03*
X103784Y1244404D03*
X78384Y1244404D03*
X611784Y1346954D03*
X586384Y1346954D03*
X560984Y1346954D03*
X535584Y1346954D03*
X535584Y1413154D03*
X535584Y1438554D03*
X535584Y1463954D03*
X535584Y1489354D03*
D28*
X490584Y1439254D03*
D29*
X490584Y1447254D03*
X490584Y1455254D03*
D28*
X503784Y1439254D03*
D29*
X503784Y1447254D03*
X503784Y1455254D03*
D30*
X503684Y1463254D03*
D28*
X490584Y1463254D03*
D35*
X27584Y1514754D03*
X27584Y1489354D03*
D13*
X513604Y1346954D03*
X496604Y1346954D03*
D38*
X470884Y1283454D03*
X447884Y1283454D03*
D39*
X397154Y1251704D03*
X407314Y1251704D03*
D35*
X389534Y1251704D03*
X414934Y1251704D03*
D39*
X162204Y2258974D03*
X172364Y2258974D03*
D35*
X154584Y2258974D03*
X179984Y2258974D03*
X630084Y2152854D03*
X630084Y2127454D03*
D40*
X508134Y1535914D03*
X508134Y1524914D03*
X508134Y1513914D03*
X537634Y1513914D03*
X537634Y1524914D03*
X537634Y1535914D03*
D13*
X490744Y1540154D03*
X473744Y1540154D03*
X490744Y1509674D03*
X473744Y1509674D03*
X490744Y1524914D03*
X473744Y1524914D03*
D15*
X358085Y1619554D03*
X358085Y1629054D03*
X358085Y1638554D03*
X332083Y1638554D03*
X332083Y1619554D03*
D13*
X353584Y1654454D03*
X336584Y1654454D03*
X336584Y1603654D03*
X353584Y1603654D03*
D41*
X100934Y1387354D03*
X100934Y1362354D03*
X100934Y1337354D03*
X157434Y1387354D03*
X157434Y1362354D03*
X157434Y1337354D03*
D42*
X129184Y1377354D03*
X129184Y1347354D03*
D41*
X100934Y1514354D03*
X100934Y1489354D03*
X100934Y1464354D03*
X157434Y1514354D03*
X157434Y1489354D03*
X157434Y1464354D03*
D42*
X129184Y1504354D03*
X129184Y1474354D03*
D24*
X454384Y1307504D03*
D25*
X459384Y1307254D03*
X464384Y1307254D03*
X464384Y1315854D03*
X459384Y1315854D03*
X454384Y1315854D03*
D35*
X357784Y1311554D03*
X383184Y1311554D03*
X408584Y1311554D03*
X433984Y1311554D03*
X192684Y1451254D03*
X192684Y1425854D03*
X192684Y1400454D03*
X192684Y1375054D03*
X192684Y1349654D03*
D42*
X72288Y1377354D03*
X72288Y1347354D03*
D43*
X73364Y1828364D03*
X17364Y1828364D03*
D44*
X60364Y1791614D03*
X50364Y1791614D03*
X40364Y1791614D03*
X30364Y1791614D03*
D11*
X1378179Y1215354D03*
X795779Y2224154D03*
D12*
X1147239Y1715094D02*
X1147239Y1708114D01*
X1147239Y1715094D02*
X1154219Y1715094D01*
X1154219Y1708114D01*
X1147239Y1708114D01*
X1147239Y1712914D02*
X1154219Y1712914D01*
X1129699Y1715094D02*
X1129699Y1708114D01*
X1129699Y1715094D02*
X1136679Y1715094D01*
X1136679Y1708114D01*
X1129699Y1708114D01*
X1129699Y1712914D02*
X1136679Y1712914D01*
D13*
X1133459Y1724304D03*
X1150459Y1724304D03*
D14*
X1111479Y1544354D03*
X1111479Y1561354D03*
X1086079Y1561354D03*
X1086079Y1544354D03*
D15*
X1187980Y1543354D03*
X1187980Y1552854D03*
X1187980Y1562354D03*
X1161978Y1562354D03*
X1161978Y1543354D03*
D13*
X1183479Y1578254D03*
X1166479Y1578254D03*
D14*
X1009879Y1561354D03*
X1009879Y1544354D03*
X1035279Y1561354D03*
X1035279Y1544354D03*
D12*
X1147239Y1631914D02*
X1147239Y1638894D01*
X1154219Y1638894D01*
X1154219Y1631914D01*
X1147239Y1631914D01*
X1147239Y1636714D02*
X1154219Y1636714D01*
X1129699Y1638894D02*
X1129699Y1631914D01*
X1129699Y1638894D02*
X1136679Y1638894D01*
X1136679Y1631914D01*
X1129699Y1631914D01*
X1129699Y1636714D02*
X1136679Y1636714D01*
D13*
X1133459Y1648104D03*
X1150459Y1648104D03*
D16*
X1047979Y1340214D03*
X1047979Y1328614D03*
D13*
X1066149Y1340764D03*
X1083149Y1340764D03*
D14*
X1060679Y1561354D03*
X1060679Y1544354D03*
D17*
X1026469Y1340764D03*
X1036469Y1340764D03*
D18*
X1014579Y1364054D03*
X1025579Y1364054D03*
X1036579Y1364054D03*
X1047579Y1364054D03*
X1058579Y1364054D03*
X1069579Y1364054D03*
X1080579Y1364054D03*
X1091579Y1364054D03*
X1102579Y1364054D03*
X1113579Y1364054D03*
X1124579Y1364054D03*
X1135579Y1364054D03*
X1146579Y1364054D03*
X1157579Y1364054D03*
D19*
X1185579Y1372554D03*
X1185579Y1383554D03*
X1185579Y1394554D03*
X1185579Y1405554D03*
X1185579Y1416554D03*
X1185579Y1427554D03*
X1185579Y1438554D03*
X1185579Y1449554D03*
X1185579Y1460554D03*
X1185579Y1471554D03*
X1185579Y1482554D03*
X1185579Y1493554D03*
X1185579Y1504554D03*
D18*
X1157579Y1513054D03*
X1146579Y1513054D03*
X1135579Y1513054D03*
X1124579Y1513054D03*
X1113579Y1513054D03*
X1102579Y1513054D03*
X1091579Y1513054D03*
X1080579Y1513054D03*
X1069579Y1513054D03*
X1058579Y1513054D03*
X1047579Y1513054D03*
X1036579Y1513054D03*
X1025579Y1513054D03*
X1014579Y1513054D03*
D19*
X986579Y1504554D03*
X986579Y1493554D03*
X986579Y1482554D03*
X986579Y1471554D03*
X986579Y1460554D03*
X986579Y1449554D03*
X986579Y1438554D03*
X986579Y1427554D03*
X986579Y1416554D03*
X986579Y1405554D03*
X986579Y1394554D03*
X986579Y1383554D03*
X986579Y1372554D03*
D20*
X1075579Y1428054D03*
X1054579Y1428054D03*
X1033579Y1428054D03*
X1012579Y1428054D03*
X1075579Y1407554D03*
X1054579Y1407554D03*
X1033579Y1407554D03*
X1012579Y1407554D03*
X1075579Y1387054D03*
X1054579Y1387054D03*
X1033579Y1387054D03*
X1012579Y1387054D03*
X1075579Y1490054D03*
X1054579Y1490054D03*
X1033579Y1490054D03*
X1012579Y1490054D03*
X1075579Y1469554D03*
X1054579Y1469554D03*
X1033579Y1469554D03*
X1012579Y1469554D03*
X1075579Y1449054D03*
X1054579Y1449054D03*
X1033579Y1449054D03*
X1012579Y1449054D03*
X1096579Y1449054D03*
X1117579Y1449054D03*
X1138579Y1449054D03*
X1159579Y1449054D03*
X1096579Y1469554D03*
X1117579Y1469554D03*
X1138579Y1469554D03*
X1159579Y1469554D03*
X1096579Y1490054D03*
X1117579Y1490054D03*
X1138579Y1490054D03*
X1159579Y1490054D03*
X1096579Y1387054D03*
X1117579Y1387054D03*
X1138579Y1387054D03*
X1159579Y1387054D03*
X1096579Y1407554D03*
X1117579Y1407554D03*
X1138579Y1407554D03*
X1159579Y1407554D03*
X1096579Y1428054D03*
X1117579Y1428054D03*
X1138579Y1428054D03*
X1159579Y1428054D03*
D13*
X1132679Y1270754D03*
X1115679Y1270754D03*
X1039479Y1270754D03*
X1056479Y1270754D03*
D21*
X1093579Y1230524D03*
X1088579Y1230524D03*
D22*
X1118329Y1230524D03*
X1110579Y1230524D03*
D21*
X1103579Y1230524D03*
X1098579Y1230524D03*
X1078579Y1230524D03*
X1083579Y1230524D03*
D22*
X1053829Y1230524D03*
X1061579Y1230524D03*
D21*
X1068579Y1230524D03*
X1073579Y1230524D03*
D23*
X1057179Y1219474D03*
X1114979Y1219474D03*
D14*
X1136879Y1544354D03*
X1136879Y1561354D03*
D13*
X1090279Y1578254D03*
X1107279Y1578254D03*
D24*
X1068379Y1307504D03*
D25*
X1073379Y1307254D03*
X1078379Y1307254D03*
X1078379Y1315854D03*
X1073379Y1315854D03*
X1068379Y1315854D03*
D26*
X1014279Y1207964D03*
D27*
X971779Y1253964D03*
D26*
X929279Y1207964D03*
D28*
X952179Y1464654D03*
D29*
X952179Y1472654D03*
X952179Y1480654D03*
D28*
X965379Y1464654D03*
D29*
X965379Y1472654D03*
X965379Y1480654D03*
D30*
X965279Y1488654D03*
D28*
X952179Y1488654D03*
X952179Y1401154D03*
D29*
X952179Y1409154D03*
X952179Y1417154D03*
D28*
X965379Y1401154D03*
D29*
X965379Y1409154D03*
X965379Y1417154D03*
D30*
X965279Y1425154D03*
D28*
X952179Y1425154D03*
D14*
X959079Y1506254D03*
X959079Y1523254D03*
D10*
X801091Y1455191D03*
X801091Y1955317D03*
X1371067Y1955317D03*
X1371067Y1455191D03*
D13*
X916779Y1549044D03*
X899779Y1549044D03*
D12*
X913559Y1529674D02*
X913559Y1522694D01*
X913559Y1529674D02*
X920539Y1529674D01*
X920539Y1522694D01*
X913559Y1522694D01*
X913559Y1527494D02*
X920539Y1527494D01*
X896019Y1529674D02*
X896019Y1522694D01*
X896019Y1529674D02*
X902999Y1529674D01*
X902999Y1522694D01*
X896019Y1522694D01*
X896019Y1527494D02*
X902999Y1527494D01*
D31*
X1393259Y1640654D03*
X1373259Y1640654D03*
D32*
X1417259Y1588654D03*
X1349259Y1588654D03*
D33*
X907179Y2190554D03*
X907179Y2210554D03*
D34*
X855179Y2166554D03*
X855179Y2234554D03*
D35*
X946379Y2200554D03*
X946379Y2175154D03*
D13*
X1038699Y1800504D03*
X1021699Y1800504D03*
D12*
X1035479Y1791294D02*
X1035479Y1784314D01*
X1035479Y1791294D02*
X1042459Y1791294D01*
X1042459Y1784314D01*
X1035479Y1784314D01*
X1035479Y1789114D02*
X1042459Y1789114D01*
X1017939Y1791294D02*
X1017939Y1784314D01*
X1017939Y1791294D02*
X1024919Y1791294D01*
X1024919Y1784314D01*
X1017939Y1784314D01*
X1017939Y1789114D02*
X1024919Y1789114D01*
D13*
X1038699Y1724304D03*
X1021699Y1724304D03*
D12*
X1035479Y1715094D02*
X1035479Y1708114D01*
X1035479Y1715094D02*
X1042459Y1715094D01*
X1042459Y1708114D01*
X1035479Y1708114D01*
X1035479Y1712914D02*
X1042459Y1712914D01*
X1017939Y1715094D02*
X1017939Y1708114D01*
X1017939Y1715094D02*
X1024919Y1715094D01*
X1024919Y1708114D01*
X1017939Y1708114D01*
X1017939Y1712914D02*
X1024919Y1712914D01*
D13*
X1038699Y1648104D03*
X1021699Y1648104D03*
D12*
X1035479Y1638894D02*
X1035479Y1631914D01*
X1035479Y1638894D02*
X1042459Y1638894D01*
X1042459Y1631914D01*
X1035479Y1631914D01*
X1035479Y1636714D02*
X1042459Y1636714D01*
X1017939Y1638894D02*
X1017939Y1631914D01*
X1017939Y1638894D02*
X1024919Y1638894D01*
X1024919Y1631914D01*
X1017939Y1631914D01*
X1017939Y1636714D02*
X1024919Y1636714D01*
D31*
X797629Y1640654D03*
X777629Y1640654D03*
D32*
X821629Y1588654D03*
X753629Y1588654D03*
D21*
X1207879Y1230524D03*
X1202879Y1230524D03*
D22*
X1232629Y1230524D03*
X1224879Y1230524D03*
D21*
X1217879Y1230524D03*
X1212879Y1230524D03*
X1192879Y1230524D03*
X1197879Y1230524D03*
D22*
X1168129Y1230524D03*
X1175879Y1230524D03*
D21*
X1182879Y1230524D03*
X1187879Y1230524D03*
D23*
X1171479Y1219474D03*
X1229279Y1219474D03*
D13*
X1246979Y1270754D03*
X1229979Y1270754D03*
X1153779Y1270754D03*
X1170779Y1270754D03*
D36*
X838729Y1217394D03*
D37*
X894729Y1185394D03*
X820229Y1185394D03*
D36*
X851229Y1217394D03*
X863729Y1217394D03*
X876229Y1217394D03*
X1295929Y1217394D03*
D37*
X1351929Y1185394D03*
X1277429Y1185394D03*
D36*
X1308429Y1217394D03*
X1320929Y1217394D03*
X1333429Y1217394D03*
D13*
X1150459Y1800504D03*
X1133459Y1800504D03*
D12*
X1147239Y1791294D02*
X1147239Y1784314D01*
X1147239Y1791294D02*
X1154219Y1791294D01*
X1154219Y1784314D01*
X1147239Y1784314D01*
X1147239Y1789114D02*
X1154219Y1789114D01*
X1129699Y1791294D02*
X1129699Y1784314D01*
X1129699Y1791294D02*
X1136679Y1791294D01*
X1136679Y1784314D01*
X1129699Y1784314D01*
X1129699Y1789114D02*
X1136679Y1789114D01*
D35*
X895579Y1244404D03*
X870179Y1244404D03*
X844779Y1244404D03*
X819379Y1244404D03*
X1352779Y1346954D03*
X1327379Y1346954D03*
X1301979Y1346954D03*
X1276579Y1346954D03*
X1276579Y1413154D03*
X1276579Y1438554D03*
X1276579Y1463954D03*
X1276579Y1489354D03*
D28*
X1231579Y1439254D03*
D29*
X1231579Y1447254D03*
X1231579Y1455254D03*
D28*
X1244779Y1439254D03*
D29*
X1244779Y1447254D03*
X1244779Y1455254D03*
D30*
X1244679Y1463254D03*
D28*
X1231579Y1463254D03*
D35*
X768579Y1514754D03*
X768579Y1489354D03*
D13*
X1254599Y1346954D03*
X1237599Y1346954D03*
D38*
X1211879Y1283454D03*
X1188879Y1283454D03*
D39*
X1138149Y1251704D03*
X1148309Y1251704D03*
D35*
X1130529Y1251704D03*
X1155929Y1251704D03*
D39*
X903199Y2258974D03*
X913359Y2258974D03*
D35*
X895579Y2258974D03*
X920979Y2258974D03*
X1371079Y2152854D03*
X1371079Y2127454D03*
D40*
X1249129Y1535914D03*
X1249129Y1524914D03*
X1249129Y1513914D03*
X1278629Y1513914D03*
X1278629Y1524914D03*
X1278629Y1535914D03*
D13*
X1231739Y1540154D03*
X1214739Y1540154D03*
X1231739Y1509674D03*
X1214739Y1509674D03*
X1231739Y1524914D03*
X1214739Y1524914D03*
D15*
X1099080Y1619554D03*
X1099080Y1629054D03*
X1099080Y1638554D03*
X1073078Y1638554D03*
X1073078Y1619554D03*
D13*
X1094579Y1654454D03*
X1077579Y1654454D03*
X1077579Y1603654D03*
X1094579Y1603654D03*
D41*
X841929Y1387354D03*
X841929Y1362354D03*
X841929Y1337354D03*
X898429Y1387354D03*
X898429Y1362354D03*
X898429Y1337354D03*
D42*
X870179Y1377354D03*
X870179Y1347354D03*
D41*
X841929Y1514354D03*
X841929Y1489354D03*
X841929Y1464354D03*
X898429Y1514354D03*
X898429Y1489354D03*
X898429Y1464354D03*
D42*
X870179Y1504354D03*
X870179Y1474354D03*
D24*
X1195379Y1307504D03*
D25*
X1200379Y1307254D03*
X1205379Y1307254D03*
X1205379Y1315854D03*
X1200379Y1315854D03*
X1195379Y1315854D03*
D35*
X1098779Y1311554D03*
X1124179Y1311554D03*
X1149579Y1311554D03*
X1174979Y1311554D03*
X933679Y1451254D03*
X933679Y1425854D03*
X933679Y1400454D03*
X933679Y1375054D03*
X933679Y1349654D03*
D42*
X813283Y1377354D03*
X813283Y1347354D03*
D43*
X814359Y1828364D03*
X758359Y1828364D03*
D44*
X801359Y1791614D03*
X791359Y1791614D03*
X781359Y1791614D03*
X771359Y1791614D03*
D45*
X114300Y2297405D03*
X1453388Y2297405D03*
D46*
X105245Y-86995D02*
X105248Y-86773D01*
X105256Y-86551D01*
X105270Y-86329D01*
X105289Y-86107D01*
X105313Y-85887D01*
X105343Y-85666D01*
X105378Y-85447D01*
X105419Y-85228D01*
X105465Y-85011D01*
X105516Y-84795D01*
X105573Y-84580D01*
X105635Y-84366D01*
X105702Y-84155D01*
X105774Y-83944D01*
X105852Y-83736D01*
X105934Y-83530D01*
X106022Y-83326D01*
X106114Y-83123D01*
X106212Y-82924D01*
X106314Y-82727D01*
X106421Y-82532D01*
X106533Y-82340D01*
X106650Y-82151D01*
X106771Y-81964D01*
X106897Y-81781D01*
X107027Y-81601D01*
X107162Y-81424D01*
X107300Y-81251D01*
X107443Y-81081D01*
X107591Y-80914D01*
X107742Y-80751D01*
X107897Y-80592D01*
X108056Y-80437D01*
X108219Y-80286D01*
X108386Y-80138D01*
X108556Y-79995D01*
X108729Y-79857D01*
X108906Y-79722D01*
X109086Y-79592D01*
X109269Y-79466D01*
X109456Y-79345D01*
X109645Y-79228D01*
X109837Y-79116D01*
X110032Y-79009D01*
X110229Y-78907D01*
X110428Y-78809D01*
X110631Y-78717D01*
X110835Y-78629D01*
X111041Y-78547D01*
X111249Y-78469D01*
X111460Y-78397D01*
X111671Y-78330D01*
X111885Y-78268D01*
X112100Y-78211D01*
X112316Y-78160D01*
X112533Y-78114D01*
X112752Y-78073D01*
X112971Y-78038D01*
X113192Y-78008D01*
X113412Y-77984D01*
X113634Y-77965D01*
X113856Y-77951D01*
X114078Y-77943D01*
X114300Y-77940D01*
X114522Y-77943D01*
X114744Y-77951D01*
X114966Y-77965D01*
X115188Y-77984D01*
X115408Y-78008D01*
X115629Y-78038D01*
X115848Y-78073D01*
X116067Y-78114D01*
X116284Y-78160D01*
X116500Y-78211D01*
X116715Y-78268D01*
X116929Y-78330D01*
X117140Y-78397D01*
X117351Y-78469D01*
X117559Y-78547D01*
X117765Y-78629D01*
X117969Y-78717D01*
X118172Y-78809D01*
X118371Y-78907D01*
X118568Y-79009D01*
X118763Y-79116D01*
X118955Y-79228D01*
X119144Y-79345D01*
X119331Y-79466D01*
X119514Y-79592D01*
X119694Y-79722D01*
X119871Y-79857D01*
X120044Y-79995D01*
X120214Y-80138D01*
X120381Y-80286D01*
X120544Y-80437D01*
X120703Y-80592D01*
X120858Y-80751D01*
X121009Y-80914D01*
X121157Y-81081D01*
X121300Y-81251D01*
X121438Y-81424D01*
X121573Y-81601D01*
X121703Y-81781D01*
X121829Y-81964D01*
X121950Y-82151D01*
X122067Y-82340D01*
X122179Y-82532D01*
X122286Y-82727D01*
X122388Y-82924D01*
X122486Y-83123D01*
X122578Y-83326D01*
X122666Y-83530D01*
X122748Y-83736D01*
X122826Y-83944D01*
X122898Y-84155D01*
X122965Y-84366D01*
X123027Y-84580D01*
X123084Y-84795D01*
X123135Y-85011D01*
X123181Y-85228D01*
X123222Y-85447D01*
X123257Y-85666D01*
X123287Y-85887D01*
X123311Y-86107D01*
X123330Y-86329D01*
X123344Y-86551D01*
X123352Y-86773D01*
X123355Y-86995D01*
X123352Y-87217D01*
X123344Y-87439D01*
X123330Y-87661D01*
X123311Y-87883D01*
X123287Y-88103D01*
X123257Y-88324D01*
X123222Y-88543D01*
X123181Y-88762D01*
X123135Y-88979D01*
X123084Y-89195D01*
X123027Y-89410D01*
X122965Y-89624D01*
X122898Y-89835D01*
X122826Y-90046D01*
X122748Y-90254D01*
X122666Y-90460D01*
X122578Y-90664D01*
X122486Y-90867D01*
X122388Y-91066D01*
X122286Y-91263D01*
X122179Y-91458D01*
X122067Y-91650D01*
X121950Y-91839D01*
X121829Y-92026D01*
X121703Y-92209D01*
X121573Y-92389D01*
X121438Y-92566D01*
X121300Y-92739D01*
X121157Y-92909D01*
X121009Y-93076D01*
X120858Y-93239D01*
X120703Y-93398D01*
X120544Y-93553D01*
X120381Y-93704D01*
X120214Y-93852D01*
X120044Y-93995D01*
X119871Y-94133D01*
X119694Y-94268D01*
X119514Y-94398D01*
X119331Y-94524D01*
X119144Y-94645D01*
X118955Y-94762D01*
X118763Y-94874D01*
X118568Y-94981D01*
X118371Y-95083D01*
X118172Y-95181D01*
X117969Y-95273D01*
X117765Y-95361D01*
X117559Y-95443D01*
X117351Y-95521D01*
X117140Y-95593D01*
X116929Y-95660D01*
X116715Y-95722D01*
X116500Y-95779D01*
X116284Y-95830D01*
X116067Y-95876D01*
X115848Y-95917D01*
X115629Y-95952D01*
X115408Y-95982D01*
X115188Y-96006D01*
X114966Y-96025D01*
X114744Y-96039D01*
X114522Y-96047D01*
X114300Y-96050D01*
X114078Y-96047D01*
X113856Y-96039D01*
X113634Y-96025D01*
X113412Y-96006D01*
X113192Y-95982D01*
X112971Y-95952D01*
X112752Y-95917D01*
X112533Y-95876D01*
X112316Y-95830D01*
X112100Y-95779D01*
X111885Y-95722D01*
X111671Y-95660D01*
X111460Y-95593D01*
X111249Y-95521D01*
X111041Y-95443D01*
X110835Y-95361D01*
X110631Y-95273D01*
X110428Y-95181D01*
X110229Y-95083D01*
X110032Y-94981D01*
X109837Y-94874D01*
X109645Y-94762D01*
X109456Y-94645D01*
X109269Y-94524D01*
X109086Y-94398D01*
X108906Y-94268D01*
X108729Y-94133D01*
X108556Y-93995D01*
X108386Y-93852D01*
X108219Y-93704D01*
X108056Y-93553D01*
X107897Y-93398D01*
X107742Y-93239D01*
X107591Y-93076D01*
X107443Y-92909D01*
X107300Y-92739D01*
X107162Y-92566D01*
X107027Y-92389D01*
X106897Y-92209D01*
X106771Y-92026D01*
X106650Y-91839D01*
X106533Y-91650D01*
X106421Y-91458D01*
X106314Y-91263D01*
X106212Y-91066D01*
X106114Y-90867D01*
X106022Y-90664D01*
X105934Y-90460D01*
X105852Y-90254D01*
X105774Y-90046D01*
X105702Y-89835D01*
X105635Y-89624D01*
X105573Y-89410D01*
X105516Y-89195D01*
X105465Y-88979D01*
X105419Y-88762D01*
X105378Y-88543D01*
X105343Y-88324D01*
X105313Y-88103D01*
X105289Y-87883D01*
X105270Y-87661D01*
X105256Y-87439D01*
X105248Y-87217D01*
X105245Y-86995D01*
D47*
X114300Y-86995D03*
M02*
