G04 EAGLE Gerber RS-274X export*
G75*
%MOMM*%
%FSLAX34Y34*%
%LPD*%
%INSoldermask Top*%
%IPPOS*%
%AMOC8*
5,1,8,0,0,1.08239X$1,22.5*%
G01*
%ADD10C,0.838200*%
%ADD11C,0.505344*%
%ADD12R,1.303200X1.203200*%
%ADD13R,1.203200X1.303200*%
%ADD14R,1.403200X0.753200*%
%ADD15R,1.103200X1.053200*%
%ADD16R,0.803200X0.803200*%
%ADD17R,1.053200X1.723200*%
%ADD18R,1.723200X1.053200*%
%ADD19R,1.303200X1.303200*%
%ADD20R,0.503200X1.203200*%
%ADD21R,0.803200X1.203200*%
%ADD22C,0.853200*%
%ADD23R,0.453200X0.813200*%
%ADD24R,0.453200X0.763200*%
%ADD25R,1.353200X7.203200*%
%ADD26R,1.103200X2.403200*%
%ADD27R,0.620000X0.840000*%
%ADD28R,0.620000X0.560000*%
%ADD29R,0.640000X0.840000*%
%ADD30C,3.403600*%
%ADD31R,1.203200X4.803200*%
%ADD32R,1.803200X3.603200*%
%ADD33R,4.803200X1.203200*%
%ADD34R,3.603200X1.803200*%
%ADD35C,2.082800*%
%ADD36R,0.803200X1.903200*%
%ADD37R,1.203200X2.903200*%
%ADD38R,0.833200X1.033200*%
%ADD39R,0.838200X1.473200*%
%ADD40R,1.503200X0.903200*%
%ADD41R,1.353200X1.203200*%
%ADD42C,1.053200*%
%ADD43R,1.403200X2.203200*%
%ADD44R,0.803200X1.553200*%
%ADD45C,1.203200*%
%ADD46C,1.270000*%
%ADD47C,1.703200*%

G36*
X1673854Y40793D02*
X1673854Y40793D01*
X1673860Y40798D01*
X1673865Y40795D01*
X1675095Y41160D01*
X1675100Y41167D01*
X1675105Y41164D01*
X1676224Y41794D01*
X1676227Y41802D01*
X1676233Y41801D01*
X1677183Y42664D01*
X1677184Y42672D01*
X1677190Y42672D01*
X1677924Y43725D01*
X1677924Y43733D01*
X1677929Y43734D01*
X1678411Y44924D01*
X1678409Y44930D01*
X1678413Y44933D01*
X1678412Y44934D01*
X1678414Y44935D01*
X1678619Y46202D01*
X1678616Y46207D01*
X1678619Y46210D01*
X1678619Y58210D01*
X1678616Y58214D01*
X1678619Y58216D01*
X1678464Y59339D01*
X1678459Y59344D01*
X1678462Y59348D01*
X1678091Y60419D01*
X1678085Y60423D01*
X1678087Y60427D01*
X1677514Y61405D01*
X1677508Y61408D01*
X1677509Y61413D01*
X1676756Y62260D01*
X1676749Y62261D01*
X1676749Y62267D01*
X1675846Y62951D01*
X1675839Y62951D01*
X1675838Y62956D01*
X1674819Y63450D01*
X1674812Y63449D01*
X1674810Y63454D01*
X1673713Y63740D01*
X1673707Y63737D01*
X1673704Y63742D01*
X1672573Y63809D01*
X1672567Y63809D01*
X1671436Y63742D01*
X1671431Y63737D01*
X1671427Y63740D01*
X1670330Y63454D01*
X1670326Y63448D01*
X1670321Y63450D01*
X1669302Y62956D01*
X1669299Y62949D01*
X1669294Y62951D01*
X1668391Y62267D01*
X1668389Y62260D01*
X1668384Y62260D01*
X1667631Y61413D01*
X1667631Y61406D01*
X1667626Y61405D01*
X1667053Y60427D01*
X1667054Y60424D01*
X1667053Y60424D01*
X1667054Y60422D01*
X1667054Y60420D01*
X1667049Y60419D01*
X1666678Y59348D01*
X1666680Y59343D01*
X1666677Y59340D01*
X1666677Y59339D01*
X1666676Y59339D01*
X1666521Y58216D01*
X1666524Y58212D01*
X1666521Y58210D01*
X1666521Y46210D01*
X1666524Y46205D01*
X1666521Y46202D01*
X1666726Y44935D01*
X1666732Y44929D01*
X1666729Y44924D01*
X1667211Y43734D01*
X1667218Y43730D01*
X1667216Y43725D01*
X1667950Y42672D01*
X1667958Y42669D01*
X1667957Y42664D01*
X1668907Y41801D01*
X1668916Y41800D01*
X1668916Y41794D01*
X1670035Y41164D01*
X1670043Y41165D01*
X1670045Y41160D01*
X1671275Y40795D01*
X1671283Y40798D01*
X1671286Y40793D01*
X1672567Y40710D01*
X1672571Y40713D01*
X1672573Y40710D01*
X1673854Y40793D01*
G37*
G36*
X500414Y40793D02*
X500414Y40793D01*
X500420Y40798D01*
X500425Y40795D01*
X501655Y41160D01*
X501660Y41167D01*
X501665Y41164D01*
X502784Y41794D01*
X502787Y41802D01*
X502793Y41801D01*
X503743Y42664D01*
X503744Y42672D01*
X503750Y42672D01*
X504484Y43725D01*
X504484Y43733D01*
X504489Y43734D01*
X504971Y44924D01*
X504969Y44930D01*
X504973Y44933D01*
X504972Y44934D01*
X504974Y44935D01*
X505179Y46202D01*
X505176Y46207D01*
X505179Y46210D01*
X505179Y58210D01*
X505176Y58214D01*
X505179Y58216D01*
X505024Y59339D01*
X505019Y59344D01*
X505022Y59348D01*
X504651Y60419D01*
X504645Y60423D01*
X504647Y60427D01*
X504074Y61405D01*
X504068Y61408D01*
X504069Y61413D01*
X503316Y62260D01*
X503309Y62261D01*
X503309Y62267D01*
X502406Y62951D01*
X502399Y62951D01*
X502398Y62956D01*
X501379Y63450D01*
X501372Y63449D01*
X501370Y63454D01*
X500273Y63740D01*
X500267Y63737D01*
X500264Y63742D01*
X499133Y63809D01*
X499127Y63809D01*
X497996Y63742D01*
X497991Y63737D01*
X497987Y63740D01*
X496890Y63454D01*
X496886Y63448D01*
X496881Y63450D01*
X495862Y62956D01*
X495859Y62949D01*
X495854Y62951D01*
X494951Y62267D01*
X494949Y62260D01*
X494944Y62260D01*
X494191Y61413D01*
X494191Y61406D01*
X494186Y61405D01*
X493613Y60427D01*
X493614Y60424D01*
X493613Y60424D01*
X493614Y60422D01*
X493614Y60420D01*
X493609Y60419D01*
X493238Y59348D01*
X493240Y59343D01*
X493237Y59340D01*
X493237Y59339D01*
X493236Y59339D01*
X493081Y58216D01*
X493084Y58212D01*
X493081Y58210D01*
X493081Y46210D01*
X493084Y46205D01*
X493081Y46202D01*
X493286Y44935D01*
X493292Y44929D01*
X493289Y44924D01*
X493771Y43734D01*
X493778Y43730D01*
X493776Y43725D01*
X494510Y42672D01*
X494518Y42669D01*
X494517Y42664D01*
X495467Y41801D01*
X495476Y41800D01*
X495476Y41794D01*
X496595Y41164D01*
X496603Y41165D01*
X496605Y41160D01*
X497835Y40795D01*
X497843Y40798D01*
X497846Y40793D01*
X499127Y40710D01*
X499131Y40713D01*
X499133Y40710D01*
X500414Y40793D01*
G37*
G36*
X299714Y40793D02*
X299714Y40793D01*
X299720Y40798D01*
X299725Y40795D01*
X300955Y41160D01*
X300960Y41167D01*
X300965Y41164D01*
X302084Y41794D01*
X302087Y41802D01*
X302093Y41801D01*
X303043Y42664D01*
X303044Y42672D01*
X303050Y42672D01*
X303784Y43725D01*
X303784Y43733D01*
X303789Y43734D01*
X304271Y44924D01*
X304269Y44930D01*
X304273Y44933D01*
X304272Y44934D01*
X304274Y44935D01*
X304479Y46202D01*
X304476Y46207D01*
X304479Y46210D01*
X304479Y58210D01*
X304476Y58214D01*
X304479Y58216D01*
X304324Y59339D01*
X304319Y59344D01*
X304322Y59348D01*
X303951Y60419D01*
X303945Y60423D01*
X303947Y60427D01*
X303374Y61405D01*
X303368Y61408D01*
X303369Y61413D01*
X302616Y62260D01*
X302609Y62261D01*
X302609Y62267D01*
X301706Y62951D01*
X301699Y62951D01*
X301698Y62956D01*
X300679Y63450D01*
X300672Y63449D01*
X300670Y63454D01*
X299573Y63740D01*
X299567Y63737D01*
X299564Y63742D01*
X298433Y63809D01*
X298427Y63809D01*
X297296Y63742D01*
X297291Y63737D01*
X297287Y63740D01*
X296190Y63454D01*
X296186Y63448D01*
X296181Y63450D01*
X295162Y62956D01*
X295159Y62949D01*
X295154Y62951D01*
X294251Y62267D01*
X294249Y62260D01*
X294244Y62260D01*
X293491Y61413D01*
X293491Y61406D01*
X293486Y61405D01*
X292913Y60427D01*
X292914Y60424D01*
X292913Y60424D01*
X292914Y60422D01*
X292914Y60420D01*
X292909Y60419D01*
X292538Y59348D01*
X292540Y59343D01*
X292537Y59340D01*
X292537Y59339D01*
X292536Y59339D01*
X292381Y58216D01*
X292384Y58212D01*
X292381Y58210D01*
X292381Y46210D01*
X292384Y46205D01*
X292381Y46202D01*
X292586Y44935D01*
X292592Y44929D01*
X292589Y44924D01*
X293071Y43734D01*
X293078Y43730D01*
X293076Y43725D01*
X293810Y42672D01*
X293818Y42669D01*
X293817Y42664D01*
X294767Y41801D01*
X294776Y41800D01*
X294776Y41794D01*
X295895Y41164D01*
X295903Y41165D01*
X295905Y41160D01*
X297135Y40795D01*
X297143Y40798D01*
X297146Y40793D01*
X298427Y40710D01*
X298431Y40713D01*
X298433Y40710D01*
X299714Y40793D01*
G37*
G36*
X1073184Y40793D02*
X1073184Y40793D01*
X1073190Y40798D01*
X1073195Y40795D01*
X1074425Y41160D01*
X1074430Y41167D01*
X1074435Y41164D01*
X1075554Y41794D01*
X1075557Y41802D01*
X1075563Y41801D01*
X1076513Y42664D01*
X1076514Y42672D01*
X1076520Y42672D01*
X1077254Y43725D01*
X1077254Y43733D01*
X1077259Y43734D01*
X1077741Y44924D01*
X1077739Y44930D01*
X1077743Y44933D01*
X1077742Y44934D01*
X1077744Y44935D01*
X1077949Y46202D01*
X1077946Y46207D01*
X1077949Y46210D01*
X1077949Y58210D01*
X1077946Y58214D01*
X1077949Y58216D01*
X1077794Y59339D01*
X1077789Y59344D01*
X1077792Y59348D01*
X1077421Y60419D01*
X1077415Y60423D01*
X1077417Y60427D01*
X1076844Y61405D01*
X1076838Y61408D01*
X1076839Y61413D01*
X1076086Y62260D01*
X1076079Y62261D01*
X1076079Y62267D01*
X1075176Y62951D01*
X1075169Y62951D01*
X1075168Y62956D01*
X1074149Y63450D01*
X1074142Y63449D01*
X1074140Y63454D01*
X1073043Y63740D01*
X1073037Y63737D01*
X1073034Y63742D01*
X1071903Y63809D01*
X1071897Y63809D01*
X1070766Y63742D01*
X1070761Y63737D01*
X1070757Y63740D01*
X1069660Y63454D01*
X1069656Y63448D01*
X1069651Y63450D01*
X1068632Y62956D01*
X1068629Y62949D01*
X1068624Y62951D01*
X1067721Y62267D01*
X1067719Y62260D01*
X1067714Y62260D01*
X1066961Y61413D01*
X1066961Y61406D01*
X1066956Y61405D01*
X1066383Y60427D01*
X1066384Y60424D01*
X1066383Y60424D01*
X1066384Y60422D01*
X1066384Y60420D01*
X1066379Y60419D01*
X1066008Y59348D01*
X1066010Y59343D01*
X1066007Y59340D01*
X1066007Y59339D01*
X1066006Y59339D01*
X1065851Y58216D01*
X1065854Y58212D01*
X1065851Y58210D01*
X1065851Y46210D01*
X1065854Y46205D01*
X1065851Y46202D01*
X1066056Y44935D01*
X1066062Y44929D01*
X1066059Y44924D01*
X1066541Y43734D01*
X1066548Y43730D01*
X1066546Y43725D01*
X1067280Y42672D01*
X1067288Y42669D01*
X1067287Y42664D01*
X1068237Y41801D01*
X1068246Y41800D01*
X1068246Y41794D01*
X1069365Y41164D01*
X1069373Y41165D01*
X1069375Y41160D01*
X1070605Y40795D01*
X1070613Y40798D01*
X1070616Y40793D01*
X1071897Y40710D01*
X1071901Y40713D01*
X1071903Y40710D01*
X1073184Y40793D01*
G37*
G36*
X1788154Y40793D02*
X1788154Y40793D01*
X1788160Y40798D01*
X1788165Y40795D01*
X1789395Y41160D01*
X1789400Y41167D01*
X1789405Y41164D01*
X1790524Y41794D01*
X1790527Y41802D01*
X1790533Y41801D01*
X1791483Y42664D01*
X1791484Y42672D01*
X1791490Y42672D01*
X1792224Y43725D01*
X1792224Y43733D01*
X1792229Y43734D01*
X1792711Y44924D01*
X1792709Y44930D01*
X1792713Y44933D01*
X1792712Y44934D01*
X1792714Y44935D01*
X1792919Y46202D01*
X1792916Y46207D01*
X1792919Y46210D01*
X1792919Y58210D01*
X1792916Y58214D01*
X1792919Y58216D01*
X1792764Y59339D01*
X1792759Y59344D01*
X1792762Y59348D01*
X1792391Y60419D01*
X1792385Y60423D01*
X1792387Y60427D01*
X1791814Y61405D01*
X1791808Y61408D01*
X1791809Y61413D01*
X1791056Y62260D01*
X1791049Y62261D01*
X1791049Y62267D01*
X1790146Y62951D01*
X1790139Y62951D01*
X1790138Y62956D01*
X1789119Y63450D01*
X1789112Y63449D01*
X1789110Y63454D01*
X1788013Y63740D01*
X1788007Y63737D01*
X1788004Y63742D01*
X1786873Y63809D01*
X1786867Y63809D01*
X1785736Y63742D01*
X1785731Y63737D01*
X1785727Y63740D01*
X1784630Y63454D01*
X1784626Y63448D01*
X1784621Y63450D01*
X1783602Y62956D01*
X1783599Y62949D01*
X1783594Y62951D01*
X1782691Y62267D01*
X1782689Y62260D01*
X1782684Y62260D01*
X1781931Y61413D01*
X1781931Y61406D01*
X1781926Y61405D01*
X1781353Y60427D01*
X1781354Y60424D01*
X1781353Y60424D01*
X1781354Y60422D01*
X1781354Y60420D01*
X1781349Y60419D01*
X1780978Y59348D01*
X1780980Y59343D01*
X1780977Y59340D01*
X1780977Y59339D01*
X1780976Y59339D01*
X1780821Y58216D01*
X1780824Y58212D01*
X1780821Y58210D01*
X1780821Y46210D01*
X1780824Y46205D01*
X1780821Y46202D01*
X1781026Y44935D01*
X1781032Y44929D01*
X1781029Y44924D01*
X1781511Y43734D01*
X1781518Y43730D01*
X1781516Y43725D01*
X1782250Y42672D01*
X1782258Y42669D01*
X1782257Y42664D01*
X1783207Y41801D01*
X1783216Y41800D01*
X1783216Y41794D01*
X1784335Y41164D01*
X1784343Y41165D01*
X1784345Y41160D01*
X1785575Y40795D01*
X1785583Y40798D01*
X1785586Y40793D01*
X1786867Y40710D01*
X1786871Y40713D01*
X1786873Y40710D01*
X1788154Y40793D01*
G37*
G36*
X1101084Y40793D02*
X1101084Y40793D01*
X1101090Y40798D01*
X1101095Y40795D01*
X1102325Y41160D01*
X1102330Y41167D01*
X1102335Y41164D01*
X1103454Y41794D01*
X1103457Y41802D01*
X1103463Y41801D01*
X1104413Y42664D01*
X1104414Y42672D01*
X1104420Y42672D01*
X1105154Y43725D01*
X1105154Y43733D01*
X1105159Y43734D01*
X1105641Y44924D01*
X1105639Y44930D01*
X1105643Y44933D01*
X1105642Y44934D01*
X1105644Y44935D01*
X1105849Y46202D01*
X1105846Y46207D01*
X1105849Y46210D01*
X1105849Y58210D01*
X1105846Y58214D01*
X1105849Y58216D01*
X1105694Y59339D01*
X1105689Y59344D01*
X1105692Y59348D01*
X1105321Y60419D01*
X1105315Y60423D01*
X1105317Y60427D01*
X1104744Y61405D01*
X1104738Y61408D01*
X1104739Y61413D01*
X1103986Y62260D01*
X1103979Y62261D01*
X1103979Y62267D01*
X1103076Y62951D01*
X1103069Y62951D01*
X1103068Y62956D01*
X1102049Y63450D01*
X1102042Y63449D01*
X1102040Y63454D01*
X1100943Y63740D01*
X1100937Y63737D01*
X1100934Y63742D01*
X1099803Y63809D01*
X1099797Y63809D01*
X1098666Y63742D01*
X1098661Y63737D01*
X1098657Y63740D01*
X1097560Y63454D01*
X1097556Y63448D01*
X1097551Y63450D01*
X1096532Y62956D01*
X1096529Y62949D01*
X1096524Y62951D01*
X1095621Y62267D01*
X1095619Y62260D01*
X1095614Y62260D01*
X1094861Y61413D01*
X1094861Y61406D01*
X1094856Y61405D01*
X1094283Y60427D01*
X1094284Y60424D01*
X1094283Y60424D01*
X1094284Y60422D01*
X1094284Y60420D01*
X1094279Y60419D01*
X1093908Y59348D01*
X1093910Y59343D01*
X1093907Y59340D01*
X1093907Y59339D01*
X1093906Y59339D01*
X1093751Y58216D01*
X1093754Y58212D01*
X1093751Y58210D01*
X1093751Y46210D01*
X1093754Y46205D01*
X1093751Y46202D01*
X1093956Y44935D01*
X1093962Y44929D01*
X1093959Y44924D01*
X1094441Y43734D01*
X1094448Y43730D01*
X1094446Y43725D01*
X1095180Y42672D01*
X1095188Y42669D01*
X1095187Y42664D01*
X1096137Y41801D01*
X1096146Y41800D01*
X1096146Y41794D01*
X1097265Y41164D01*
X1097273Y41165D01*
X1097275Y41160D01*
X1098505Y40795D01*
X1098513Y40798D01*
X1098516Y40793D01*
X1099797Y40710D01*
X1099801Y40713D01*
X1099803Y40710D01*
X1101084Y40793D01*
G37*
G36*
X1187484Y40793D02*
X1187484Y40793D01*
X1187490Y40798D01*
X1187495Y40795D01*
X1188725Y41160D01*
X1188730Y41167D01*
X1188735Y41164D01*
X1189854Y41794D01*
X1189857Y41802D01*
X1189863Y41801D01*
X1190813Y42664D01*
X1190814Y42672D01*
X1190820Y42672D01*
X1191554Y43725D01*
X1191554Y43733D01*
X1191559Y43734D01*
X1192041Y44924D01*
X1192039Y44930D01*
X1192043Y44933D01*
X1192042Y44934D01*
X1192044Y44935D01*
X1192249Y46202D01*
X1192246Y46207D01*
X1192249Y46210D01*
X1192249Y58210D01*
X1192246Y58214D01*
X1192249Y58216D01*
X1192094Y59339D01*
X1192089Y59344D01*
X1192092Y59348D01*
X1191721Y60419D01*
X1191715Y60423D01*
X1191717Y60427D01*
X1191144Y61405D01*
X1191138Y61408D01*
X1191139Y61413D01*
X1190386Y62260D01*
X1190379Y62261D01*
X1190379Y62267D01*
X1189476Y62951D01*
X1189469Y62951D01*
X1189468Y62956D01*
X1188449Y63450D01*
X1188442Y63449D01*
X1188440Y63454D01*
X1187343Y63740D01*
X1187337Y63737D01*
X1187334Y63742D01*
X1186203Y63809D01*
X1186197Y63809D01*
X1185066Y63742D01*
X1185061Y63737D01*
X1185057Y63740D01*
X1183960Y63454D01*
X1183956Y63448D01*
X1183951Y63450D01*
X1182932Y62956D01*
X1182929Y62949D01*
X1182924Y62951D01*
X1182021Y62267D01*
X1182019Y62260D01*
X1182014Y62260D01*
X1181261Y61413D01*
X1181261Y61406D01*
X1181256Y61405D01*
X1180683Y60427D01*
X1180684Y60424D01*
X1180683Y60424D01*
X1180684Y60422D01*
X1180684Y60420D01*
X1180679Y60419D01*
X1180308Y59348D01*
X1180310Y59343D01*
X1180307Y59340D01*
X1180307Y59339D01*
X1180306Y59339D01*
X1180151Y58216D01*
X1180154Y58212D01*
X1180151Y58210D01*
X1180151Y46210D01*
X1180154Y46205D01*
X1180151Y46202D01*
X1180356Y44935D01*
X1180362Y44929D01*
X1180359Y44924D01*
X1180841Y43734D01*
X1180848Y43730D01*
X1180846Y43725D01*
X1181580Y42672D01*
X1181588Y42669D01*
X1181587Y42664D01*
X1182537Y41801D01*
X1182546Y41800D01*
X1182546Y41794D01*
X1183665Y41164D01*
X1183673Y41165D01*
X1183675Y41160D01*
X1184905Y40795D01*
X1184913Y40798D01*
X1184916Y40793D01*
X1186197Y40710D01*
X1186201Y40713D01*
X1186203Y40710D01*
X1187484Y40793D01*
G37*
G36*
X1874554Y40793D02*
X1874554Y40793D01*
X1874560Y40798D01*
X1874565Y40795D01*
X1875795Y41160D01*
X1875800Y41167D01*
X1875805Y41164D01*
X1876924Y41794D01*
X1876927Y41802D01*
X1876933Y41801D01*
X1877883Y42664D01*
X1877884Y42672D01*
X1877890Y42672D01*
X1878624Y43725D01*
X1878624Y43733D01*
X1878629Y43734D01*
X1879111Y44924D01*
X1879109Y44930D01*
X1879113Y44933D01*
X1879112Y44934D01*
X1879114Y44935D01*
X1879319Y46202D01*
X1879316Y46207D01*
X1879319Y46210D01*
X1879319Y58210D01*
X1879316Y58214D01*
X1879319Y58216D01*
X1879164Y59339D01*
X1879159Y59344D01*
X1879162Y59348D01*
X1878791Y60419D01*
X1878785Y60423D01*
X1878787Y60427D01*
X1878214Y61405D01*
X1878208Y61408D01*
X1878209Y61413D01*
X1877456Y62260D01*
X1877449Y62261D01*
X1877449Y62267D01*
X1876546Y62951D01*
X1876539Y62951D01*
X1876538Y62956D01*
X1875519Y63450D01*
X1875512Y63449D01*
X1875510Y63454D01*
X1874413Y63740D01*
X1874407Y63737D01*
X1874404Y63742D01*
X1873273Y63809D01*
X1873267Y63809D01*
X1872136Y63742D01*
X1872131Y63737D01*
X1872127Y63740D01*
X1871030Y63454D01*
X1871026Y63448D01*
X1871021Y63450D01*
X1870002Y62956D01*
X1869999Y62949D01*
X1869994Y62951D01*
X1869091Y62267D01*
X1869089Y62260D01*
X1869084Y62260D01*
X1868331Y61413D01*
X1868331Y61406D01*
X1868326Y61405D01*
X1867753Y60427D01*
X1867754Y60424D01*
X1867753Y60424D01*
X1867754Y60422D01*
X1867754Y60420D01*
X1867749Y60419D01*
X1867378Y59348D01*
X1867380Y59343D01*
X1867377Y59340D01*
X1867377Y59339D01*
X1867376Y59339D01*
X1867221Y58216D01*
X1867224Y58212D01*
X1867221Y58210D01*
X1867221Y46210D01*
X1867224Y46205D01*
X1867221Y46202D01*
X1867426Y44935D01*
X1867432Y44929D01*
X1867429Y44924D01*
X1867911Y43734D01*
X1867918Y43730D01*
X1867916Y43725D01*
X1868650Y42672D01*
X1868658Y42669D01*
X1868657Y42664D01*
X1869607Y41801D01*
X1869616Y41800D01*
X1869616Y41794D01*
X1870735Y41164D01*
X1870743Y41165D01*
X1870745Y41160D01*
X1871975Y40795D01*
X1871983Y40798D01*
X1871986Y40793D01*
X1873267Y40710D01*
X1873271Y40713D01*
X1873273Y40710D01*
X1874554Y40793D01*
G37*
G36*
X386114Y40793D02*
X386114Y40793D01*
X386120Y40798D01*
X386125Y40795D01*
X387355Y41160D01*
X387360Y41167D01*
X387365Y41164D01*
X388484Y41794D01*
X388487Y41802D01*
X388493Y41801D01*
X389443Y42664D01*
X389444Y42672D01*
X389450Y42672D01*
X390184Y43725D01*
X390184Y43733D01*
X390189Y43734D01*
X390671Y44924D01*
X390669Y44930D01*
X390673Y44933D01*
X390672Y44934D01*
X390674Y44935D01*
X390879Y46202D01*
X390876Y46207D01*
X390879Y46210D01*
X390879Y58210D01*
X390876Y58214D01*
X390879Y58216D01*
X390724Y59339D01*
X390719Y59344D01*
X390722Y59348D01*
X390351Y60419D01*
X390345Y60423D01*
X390347Y60427D01*
X389774Y61405D01*
X389768Y61408D01*
X389769Y61413D01*
X389016Y62260D01*
X389009Y62261D01*
X389009Y62267D01*
X388106Y62951D01*
X388099Y62951D01*
X388098Y62956D01*
X387079Y63450D01*
X387072Y63449D01*
X387070Y63454D01*
X385973Y63740D01*
X385967Y63737D01*
X385964Y63742D01*
X384833Y63809D01*
X384827Y63809D01*
X383696Y63742D01*
X383691Y63737D01*
X383687Y63740D01*
X382590Y63454D01*
X382586Y63448D01*
X382581Y63450D01*
X381562Y62956D01*
X381559Y62949D01*
X381554Y62951D01*
X380651Y62267D01*
X380649Y62260D01*
X380644Y62260D01*
X379891Y61413D01*
X379891Y61406D01*
X379886Y61405D01*
X379313Y60427D01*
X379314Y60424D01*
X379313Y60424D01*
X379314Y60422D01*
X379314Y60420D01*
X379309Y60419D01*
X378938Y59348D01*
X378940Y59343D01*
X378937Y59340D01*
X378937Y59339D01*
X378936Y59339D01*
X378781Y58216D01*
X378784Y58212D01*
X378781Y58210D01*
X378781Y46210D01*
X378784Y46205D01*
X378781Y46202D01*
X378986Y44935D01*
X378992Y44929D01*
X378989Y44924D01*
X379471Y43734D01*
X379478Y43730D01*
X379476Y43725D01*
X380210Y42672D01*
X380218Y42669D01*
X380217Y42664D01*
X381167Y41801D01*
X381176Y41800D01*
X381176Y41794D01*
X382295Y41164D01*
X382303Y41165D01*
X382305Y41160D01*
X383535Y40795D01*
X383543Y40798D01*
X383546Y40793D01*
X384827Y40710D01*
X384831Y40713D01*
X384833Y40710D01*
X386114Y40793D01*
G37*
G36*
X1760254Y40793D02*
X1760254Y40793D01*
X1760260Y40798D01*
X1760265Y40795D01*
X1761495Y41160D01*
X1761500Y41167D01*
X1761505Y41164D01*
X1762624Y41794D01*
X1762627Y41802D01*
X1762633Y41801D01*
X1763583Y42664D01*
X1763584Y42672D01*
X1763590Y42672D01*
X1764324Y43725D01*
X1764324Y43733D01*
X1764329Y43734D01*
X1764811Y44924D01*
X1764809Y44930D01*
X1764813Y44933D01*
X1764812Y44934D01*
X1764814Y44935D01*
X1765019Y46202D01*
X1765016Y46207D01*
X1765019Y46210D01*
X1765019Y58210D01*
X1765016Y58214D01*
X1765019Y58216D01*
X1764864Y59339D01*
X1764859Y59344D01*
X1764862Y59348D01*
X1764491Y60419D01*
X1764485Y60423D01*
X1764487Y60427D01*
X1763914Y61405D01*
X1763908Y61408D01*
X1763909Y61413D01*
X1763156Y62260D01*
X1763149Y62261D01*
X1763149Y62267D01*
X1762246Y62951D01*
X1762239Y62951D01*
X1762238Y62956D01*
X1761219Y63450D01*
X1761212Y63449D01*
X1761210Y63454D01*
X1760113Y63740D01*
X1760107Y63737D01*
X1760104Y63742D01*
X1758973Y63809D01*
X1758967Y63809D01*
X1757836Y63742D01*
X1757831Y63737D01*
X1757827Y63740D01*
X1756730Y63454D01*
X1756726Y63448D01*
X1756721Y63450D01*
X1755702Y62956D01*
X1755699Y62949D01*
X1755694Y62951D01*
X1754791Y62267D01*
X1754789Y62260D01*
X1754784Y62260D01*
X1754031Y61413D01*
X1754031Y61406D01*
X1754026Y61405D01*
X1753453Y60427D01*
X1753454Y60424D01*
X1753453Y60424D01*
X1753454Y60422D01*
X1753454Y60420D01*
X1753449Y60419D01*
X1753078Y59348D01*
X1753080Y59343D01*
X1753077Y59340D01*
X1753077Y59339D01*
X1753076Y59339D01*
X1752921Y58216D01*
X1752924Y58212D01*
X1752921Y58210D01*
X1752921Y46210D01*
X1752924Y46205D01*
X1752921Y46202D01*
X1753126Y44935D01*
X1753132Y44929D01*
X1753129Y44924D01*
X1753611Y43734D01*
X1753618Y43730D01*
X1753616Y43725D01*
X1754350Y42672D01*
X1754358Y42669D01*
X1754357Y42664D01*
X1755307Y41801D01*
X1755316Y41800D01*
X1755316Y41794D01*
X1756435Y41164D01*
X1756443Y41165D01*
X1756445Y41160D01*
X1757675Y40795D01*
X1757683Y40798D01*
X1757686Y40793D01*
X1758967Y40710D01*
X1758971Y40713D01*
X1758973Y40710D01*
X1760254Y40793D01*
G37*
G36*
X414014Y40793D02*
X414014Y40793D01*
X414020Y40798D01*
X414025Y40795D01*
X415255Y41160D01*
X415260Y41167D01*
X415265Y41164D01*
X416384Y41794D01*
X416387Y41802D01*
X416393Y41801D01*
X417343Y42664D01*
X417344Y42672D01*
X417350Y42672D01*
X418084Y43725D01*
X418084Y43733D01*
X418089Y43734D01*
X418571Y44924D01*
X418569Y44930D01*
X418573Y44933D01*
X418572Y44934D01*
X418574Y44935D01*
X418779Y46202D01*
X418776Y46207D01*
X418779Y46210D01*
X418779Y58210D01*
X418776Y58214D01*
X418779Y58216D01*
X418624Y59339D01*
X418619Y59344D01*
X418622Y59348D01*
X418251Y60419D01*
X418245Y60423D01*
X418247Y60427D01*
X417674Y61405D01*
X417668Y61408D01*
X417669Y61413D01*
X416916Y62260D01*
X416909Y62261D01*
X416909Y62267D01*
X416006Y62951D01*
X415999Y62951D01*
X415998Y62956D01*
X414979Y63450D01*
X414972Y63449D01*
X414970Y63454D01*
X413873Y63740D01*
X413867Y63737D01*
X413864Y63742D01*
X412733Y63809D01*
X412727Y63809D01*
X411596Y63742D01*
X411591Y63737D01*
X411587Y63740D01*
X410490Y63454D01*
X410486Y63448D01*
X410481Y63450D01*
X409462Y62956D01*
X409459Y62949D01*
X409454Y62951D01*
X408551Y62267D01*
X408549Y62260D01*
X408544Y62260D01*
X407791Y61413D01*
X407791Y61406D01*
X407786Y61405D01*
X407213Y60427D01*
X407214Y60424D01*
X407213Y60424D01*
X407214Y60422D01*
X407214Y60420D01*
X407209Y60419D01*
X406838Y59348D01*
X406840Y59343D01*
X406837Y59340D01*
X406837Y59339D01*
X406836Y59339D01*
X406681Y58216D01*
X406684Y58212D01*
X406681Y58210D01*
X406681Y46210D01*
X406684Y46205D01*
X406681Y46202D01*
X406886Y44935D01*
X406892Y44929D01*
X406889Y44924D01*
X407371Y43734D01*
X407378Y43730D01*
X407376Y43725D01*
X408110Y42672D01*
X408118Y42669D01*
X408117Y42664D01*
X409067Y41801D01*
X409076Y41800D01*
X409076Y41794D01*
X410195Y41164D01*
X410203Y41165D01*
X410205Y41160D01*
X411435Y40795D01*
X411443Y40798D01*
X411446Y40793D01*
X412727Y40710D01*
X412731Y40713D01*
X412733Y40710D01*
X414014Y40793D01*
G37*
G36*
X986784Y40793D02*
X986784Y40793D01*
X986790Y40798D01*
X986795Y40795D01*
X988025Y41160D01*
X988030Y41167D01*
X988035Y41164D01*
X989154Y41794D01*
X989157Y41802D01*
X989163Y41801D01*
X990113Y42664D01*
X990114Y42672D01*
X990120Y42672D01*
X990854Y43725D01*
X990854Y43733D01*
X990859Y43734D01*
X991341Y44924D01*
X991339Y44930D01*
X991343Y44933D01*
X991342Y44934D01*
X991344Y44935D01*
X991549Y46202D01*
X991546Y46207D01*
X991549Y46210D01*
X991549Y58210D01*
X991546Y58214D01*
X991549Y58216D01*
X991394Y59339D01*
X991389Y59344D01*
X991392Y59348D01*
X991021Y60419D01*
X991015Y60423D01*
X991017Y60427D01*
X990444Y61405D01*
X990438Y61408D01*
X990439Y61413D01*
X989686Y62260D01*
X989679Y62261D01*
X989679Y62267D01*
X988776Y62951D01*
X988769Y62951D01*
X988768Y62956D01*
X987749Y63450D01*
X987742Y63449D01*
X987740Y63454D01*
X986643Y63740D01*
X986637Y63737D01*
X986634Y63742D01*
X985503Y63809D01*
X985497Y63809D01*
X984366Y63742D01*
X984361Y63737D01*
X984357Y63740D01*
X983260Y63454D01*
X983256Y63448D01*
X983251Y63450D01*
X982232Y62956D01*
X982229Y62949D01*
X982224Y62951D01*
X981321Y62267D01*
X981319Y62260D01*
X981314Y62260D01*
X980561Y61413D01*
X980561Y61406D01*
X980556Y61405D01*
X979983Y60427D01*
X979984Y60424D01*
X979983Y60424D01*
X979984Y60422D01*
X979984Y60420D01*
X979979Y60419D01*
X979608Y59348D01*
X979610Y59343D01*
X979607Y59340D01*
X979607Y59339D01*
X979606Y59339D01*
X979451Y58216D01*
X979454Y58212D01*
X979451Y58210D01*
X979451Y46210D01*
X979454Y46205D01*
X979451Y46202D01*
X979656Y44935D01*
X979662Y44929D01*
X979659Y44924D01*
X980141Y43734D01*
X980148Y43730D01*
X980146Y43725D01*
X980880Y42672D01*
X980888Y42669D01*
X980887Y42664D01*
X981837Y41801D01*
X981846Y41800D01*
X981846Y41794D01*
X982965Y41164D01*
X982973Y41165D01*
X982975Y41160D01*
X984205Y40795D01*
X984213Y40798D01*
X984216Y40793D01*
X985497Y40710D01*
X985501Y40713D01*
X985503Y40710D01*
X986784Y40793D01*
G37*
G36*
X413901Y1521D02*
X413901Y1521D01*
X413906Y1525D01*
X413910Y1522D01*
X415033Y1858D01*
X415037Y1864D01*
X415041Y1861D01*
X416077Y2409D01*
X416080Y2416D01*
X416085Y2415D01*
X416993Y3154D01*
X416995Y3161D01*
X417000Y3161D01*
X417747Y4063D01*
X417747Y4070D01*
X417753Y4071D01*
X418309Y5102D01*
X418308Y5109D01*
X418313Y5110D01*
X418657Y6230D01*
X418655Y6237D01*
X418659Y6239D01*
X418779Y7405D01*
X418777Y7408D01*
X418779Y7410D01*
X418779Y13410D01*
X418777Y13412D01*
X418779Y13414D01*
X418668Y14590D01*
X418663Y14595D01*
X418666Y14600D01*
X418328Y15731D01*
X418322Y15736D01*
X418324Y15740D01*
X417772Y16784D01*
X417765Y16787D01*
X417767Y16792D01*
X417021Y17708D01*
X417014Y17710D01*
X417014Y17715D01*
X416105Y18468D01*
X416097Y18469D01*
X416097Y18474D01*
X415057Y19035D01*
X415050Y19034D01*
X415048Y19038D01*
X413919Y19386D01*
X413913Y19384D01*
X413910Y19388D01*
X412735Y19509D01*
X412728Y19504D01*
X412724Y19509D01*
X411384Y19352D01*
X411378Y19346D01*
X411373Y19349D01*
X410102Y18899D01*
X410097Y18892D01*
X410092Y18894D01*
X408953Y18171D01*
X408950Y18163D01*
X408944Y18164D01*
X407994Y17206D01*
X407993Y17198D01*
X407987Y17198D01*
X407274Y16052D01*
X407275Y16044D01*
X407269Y16042D01*
X406829Y14767D01*
X406831Y14759D01*
X406827Y14756D01*
X406681Y13415D01*
X406683Y13411D01*
X406681Y13410D01*
X406681Y7410D01*
X406683Y7406D01*
X406681Y7404D01*
X406836Y6075D01*
X406842Y6069D01*
X406839Y6064D01*
X407286Y4803D01*
X407293Y4799D01*
X407291Y4793D01*
X408008Y3663D01*
X408015Y3660D01*
X408014Y3655D01*
X408965Y2713D01*
X408973Y2712D01*
X408973Y2706D01*
X410109Y1999D01*
X410117Y1999D01*
X410119Y1994D01*
X411384Y1557D01*
X411389Y1559D01*
X411390Y1558D01*
X411393Y1558D01*
X411395Y1555D01*
X412725Y1411D01*
X412731Y1414D01*
X412735Y1411D01*
X413901Y1521D01*
G37*
G36*
X500301Y1521D02*
X500301Y1521D01*
X500306Y1525D01*
X500310Y1522D01*
X501433Y1858D01*
X501437Y1864D01*
X501441Y1861D01*
X502477Y2409D01*
X502480Y2416D01*
X502485Y2415D01*
X503393Y3154D01*
X503395Y3161D01*
X503400Y3161D01*
X504147Y4063D01*
X504147Y4070D01*
X504153Y4071D01*
X504709Y5102D01*
X504708Y5109D01*
X504713Y5110D01*
X505057Y6230D01*
X505055Y6237D01*
X505059Y6239D01*
X505179Y7405D01*
X505177Y7408D01*
X505179Y7410D01*
X505179Y13410D01*
X505177Y13412D01*
X505179Y13414D01*
X505068Y14590D01*
X505063Y14595D01*
X505066Y14600D01*
X504728Y15731D01*
X504722Y15736D01*
X504724Y15740D01*
X504172Y16784D01*
X504165Y16787D01*
X504167Y16792D01*
X503421Y17708D01*
X503414Y17710D01*
X503414Y17715D01*
X502505Y18468D01*
X502497Y18469D01*
X502497Y18474D01*
X501457Y19035D01*
X501450Y19034D01*
X501448Y19038D01*
X500319Y19386D01*
X500313Y19384D01*
X500310Y19388D01*
X499135Y19509D01*
X499128Y19504D01*
X499124Y19509D01*
X497784Y19352D01*
X497778Y19346D01*
X497773Y19349D01*
X496502Y18899D01*
X496497Y18892D01*
X496492Y18894D01*
X495353Y18171D01*
X495350Y18163D01*
X495344Y18164D01*
X494394Y17206D01*
X494393Y17198D01*
X494387Y17198D01*
X493674Y16052D01*
X493675Y16044D01*
X493669Y16042D01*
X493229Y14767D01*
X493231Y14759D01*
X493227Y14756D01*
X493081Y13415D01*
X493083Y13411D01*
X493081Y13410D01*
X493081Y7410D01*
X493083Y7406D01*
X493081Y7404D01*
X493236Y6075D01*
X493242Y6069D01*
X493239Y6064D01*
X493686Y4803D01*
X493693Y4799D01*
X493691Y4793D01*
X494408Y3663D01*
X494415Y3660D01*
X494414Y3655D01*
X495365Y2713D01*
X495373Y2712D01*
X495373Y2706D01*
X496509Y1999D01*
X496517Y1999D01*
X496519Y1994D01*
X497784Y1557D01*
X497789Y1559D01*
X497790Y1558D01*
X497793Y1558D01*
X497795Y1555D01*
X499125Y1411D01*
X499131Y1414D01*
X499135Y1411D01*
X500301Y1521D01*
G37*
G36*
X1760141Y1521D02*
X1760141Y1521D01*
X1760146Y1525D01*
X1760150Y1522D01*
X1761273Y1858D01*
X1761277Y1864D01*
X1761281Y1861D01*
X1762317Y2409D01*
X1762320Y2416D01*
X1762325Y2415D01*
X1763233Y3154D01*
X1763235Y3161D01*
X1763240Y3161D01*
X1763987Y4063D01*
X1763987Y4070D01*
X1763993Y4071D01*
X1764549Y5102D01*
X1764548Y5109D01*
X1764553Y5110D01*
X1764897Y6230D01*
X1764895Y6237D01*
X1764899Y6239D01*
X1765019Y7405D01*
X1765017Y7408D01*
X1765019Y7410D01*
X1765019Y13410D01*
X1765017Y13412D01*
X1765019Y13414D01*
X1764908Y14590D01*
X1764903Y14595D01*
X1764906Y14600D01*
X1764568Y15731D01*
X1764562Y15736D01*
X1764564Y15740D01*
X1764012Y16784D01*
X1764005Y16787D01*
X1764007Y16792D01*
X1763261Y17708D01*
X1763254Y17710D01*
X1763254Y17715D01*
X1762345Y18468D01*
X1762337Y18469D01*
X1762337Y18474D01*
X1761297Y19035D01*
X1761290Y19034D01*
X1761288Y19038D01*
X1760159Y19386D01*
X1760153Y19384D01*
X1760150Y19388D01*
X1758975Y19509D01*
X1758968Y19504D01*
X1758964Y19509D01*
X1757624Y19352D01*
X1757618Y19346D01*
X1757613Y19349D01*
X1756342Y18899D01*
X1756337Y18892D01*
X1756332Y18894D01*
X1755193Y18171D01*
X1755190Y18163D01*
X1755184Y18164D01*
X1754234Y17206D01*
X1754233Y17198D01*
X1754227Y17198D01*
X1753514Y16052D01*
X1753515Y16044D01*
X1753509Y16042D01*
X1753069Y14767D01*
X1753071Y14759D01*
X1753067Y14756D01*
X1752921Y13415D01*
X1752923Y13411D01*
X1752921Y13410D01*
X1752921Y7410D01*
X1752923Y7406D01*
X1752921Y7404D01*
X1753076Y6075D01*
X1753082Y6069D01*
X1753079Y6064D01*
X1753526Y4803D01*
X1753533Y4799D01*
X1753531Y4793D01*
X1754248Y3663D01*
X1754255Y3660D01*
X1754254Y3655D01*
X1755205Y2713D01*
X1755213Y2712D01*
X1755213Y2706D01*
X1756349Y1999D01*
X1756357Y1999D01*
X1756359Y1994D01*
X1757624Y1557D01*
X1757629Y1559D01*
X1757630Y1558D01*
X1757633Y1558D01*
X1757635Y1555D01*
X1758965Y1411D01*
X1758971Y1414D01*
X1758975Y1411D01*
X1760141Y1521D01*
G37*
G36*
X386001Y1521D02*
X386001Y1521D01*
X386006Y1525D01*
X386010Y1522D01*
X387133Y1858D01*
X387137Y1864D01*
X387141Y1861D01*
X388177Y2409D01*
X388180Y2416D01*
X388185Y2415D01*
X389093Y3154D01*
X389095Y3161D01*
X389100Y3161D01*
X389847Y4063D01*
X389847Y4070D01*
X389853Y4071D01*
X390409Y5102D01*
X390408Y5109D01*
X390413Y5110D01*
X390757Y6230D01*
X390755Y6237D01*
X390759Y6239D01*
X390879Y7405D01*
X390877Y7408D01*
X390879Y7410D01*
X390879Y13410D01*
X390877Y13412D01*
X390879Y13414D01*
X390768Y14590D01*
X390763Y14595D01*
X390766Y14600D01*
X390428Y15731D01*
X390422Y15736D01*
X390424Y15740D01*
X389872Y16784D01*
X389865Y16787D01*
X389867Y16792D01*
X389121Y17708D01*
X389114Y17710D01*
X389114Y17715D01*
X388205Y18468D01*
X388197Y18469D01*
X388197Y18474D01*
X387157Y19035D01*
X387150Y19034D01*
X387148Y19038D01*
X386019Y19386D01*
X386013Y19384D01*
X386010Y19388D01*
X384835Y19509D01*
X384828Y19504D01*
X384824Y19509D01*
X383484Y19352D01*
X383478Y19346D01*
X383473Y19349D01*
X382202Y18899D01*
X382197Y18892D01*
X382192Y18894D01*
X381053Y18171D01*
X381050Y18163D01*
X381044Y18164D01*
X380094Y17206D01*
X380093Y17198D01*
X380087Y17198D01*
X379374Y16052D01*
X379375Y16044D01*
X379369Y16042D01*
X378929Y14767D01*
X378931Y14759D01*
X378927Y14756D01*
X378781Y13415D01*
X378783Y13411D01*
X378781Y13410D01*
X378781Y7410D01*
X378783Y7406D01*
X378781Y7404D01*
X378936Y6075D01*
X378942Y6069D01*
X378939Y6064D01*
X379386Y4803D01*
X379393Y4799D01*
X379391Y4793D01*
X380108Y3663D01*
X380115Y3660D01*
X380114Y3655D01*
X381065Y2713D01*
X381073Y2712D01*
X381073Y2706D01*
X382209Y1999D01*
X382217Y1999D01*
X382219Y1994D01*
X383484Y1557D01*
X383489Y1559D01*
X383490Y1558D01*
X383493Y1558D01*
X383495Y1555D01*
X384825Y1411D01*
X384831Y1414D01*
X384835Y1411D01*
X386001Y1521D01*
G37*
G36*
X986671Y1521D02*
X986671Y1521D01*
X986676Y1525D01*
X986680Y1522D01*
X987803Y1858D01*
X987807Y1864D01*
X987811Y1861D01*
X988847Y2409D01*
X988850Y2416D01*
X988855Y2415D01*
X989763Y3154D01*
X989765Y3161D01*
X989770Y3161D01*
X990517Y4063D01*
X990517Y4070D01*
X990523Y4071D01*
X991079Y5102D01*
X991078Y5109D01*
X991083Y5110D01*
X991427Y6230D01*
X991425Y6237D01*
X991429Y6239D01*
X991549Y7405D01*
X991547Y7408D01*
X991549Y7410D01*
X991549Y13410D01*
X991547Y13412D01*
X991549Y13414D01*
X991438Y14590D01*
X991433Y14595D01*
X991436Y14600D01*
X991098Y15731D01*
X991092Y15736D01*
X991094Y15740D01*
X990542Y16784D01*
X990535Y16787D01*
X990537Y16792D01*
X989791Y17708D01*
X989784Y17710D01*
X989784Y17715D01*
X988875Y18468D01*
X988867Y18469D01*
X988867Y18474D01*
X987827Y19035D01*
X987820Y19034D01*
X987818Y19038D01*
X986689Y19386D01*
X986683Y19384D01*
X986680Y19388D01*
X985505Y19509D01*
X985498Y19504D01*
X985494Y19509D01*
X984154Y19352D01*
X984148Y19346D01*
X984143Y19349D01*
X982872Y18899D01*
X982867Y18892D01*
X982862Y18894D01*
X981723Y18171D01*
X981720Y18163D01*
X981714Y18164D01*
X980764Y17206D01*
X980763Y17198D01*
X980757Y17198D01*
X980044Y16052D01*
X980045Y16044D01*
X980039Y16042D01*
X979599Y14767D01*
X979601Y14759D01*
X979597Y14756D01*
X979451Y13415D01*
X979453Y13411D01*
X979451Y13410D01*
X979451Y7410D01*
X979453Y7406D01*
X979451Y7404D01*
X979606Y6075D01*
X979612Y6069D01*
X979609Y6064D01*
X980056Y4803D01*
X980063Y4799D01*
X980061Y4793D01*
X980778Y3663D01*
X980785Y3660D01*
X980784Y3655D01*
X981735Y2713D01*
X981743Y2712D01*
X981743Y2706D01*
X982879Y1999D01*
X982887Y1999D01*
X982889Y1994D01*
X984154Y1557D01*
X984159Y1559D01*
X984160Y1558D01*
X984163Y1558D01*
X984165Y1555D01*
X985495Y1411D01*
X985501Y1414D01*
X985505Y1411D01*
X986671Y1521D01*
G37*
G36*
X1874441Y1521D02*
X1874441Y1521D01*
X1874446Y1525D01*
X1874450Y1522D01*
X1875573Y1858D01*
X1875577Y1864D01*
X1875581Y1861D01*
X1876617Y2409D01*
X1876620Y2416D01*
X1876625Y2415D01*
X1877533Y3154D01*
X1877535Y3161D01*
X1877540Y3161D01*
X1878287Y4063D01*
X1878287Y4070D01*
X1878293Y4071D01*
X1878849Y5102D01*
X1878848Y5109D01*
X1878853Y5110D01*
X1879197Y6230D01*
X1879195Y6237D01*
X1879199Y6239D01*
X1879319Y7405D01*
X1879317Y7408D01*
X1879319Y7410D01*
X1879319Y13410D01*
X1879317Y13412D01*
X1879319Y13414D01*
X1879208Y14590D01*
X1879203Y14595D01*
X1879206Y14600D01*
X1878868Y15731D01*
X1878862Y15736D01*
X1878864Y15740D01*
X1878312Y16784D01*
X1878305Y16787D01*
X1878307Y16792D01*
X1877561Y17708D01*
X1877554Y17710D01*
X1877554Y17715D01*
X1876645Y18468D01*
X1876637Y18469D01*
X1876637Y18474D01*
X1875597Y19035D01*
X1875590Y19034D01*
X1875588Y19038D01*
X1874459Y19386D01*
X1874453Y19384D01*
X1874450Y19388D01*
X1873275Y19509D01*
X1873268Y19504D01*
X1873264Y19509D01*
X1871924Y19352D01*
X1871918Y19346D01*
X1871913Y19349D01*
X1870642Y18899D01*
X1870637Y18892D01*
X1870632Y18894D01*
X1869493Y18171D01*
X1869490Y18163D01*
X1869484Y18164D01*
X1868534Y17206D01*
X1868533Y17198D01*
X1868527Y17198D01*
X1867814Y16052D01*
X1867815Y16044D01*
X1867809Y16042D01*
X1867369Y14767D01*
X1867371Y14759D01*
X1867367Y14756D01*
X1867221Y13415D01*
X1867223Y13411D01*
X1867221Y13410D01*
X1867221Y7410D01*
X1867223Y7406D01*
X1867221Y7404D01*
X1867376Y6075D01*
X1867382Y6069D01*
X1867379Y6064D01*
X1867826Y4803D01*
X1867833Y4799D01*
X1867831Y4793D01*
X1868548Y3663D01*
X1868555Y3660D01*
X1868554Y3655D01*
X1869505Y2713D01*
X1869513Y2712D01*
X1869513Y2706D01*
X1870649Y1999D01*
X1870657Y1999D01*
X1870659Y1994D01*
X1871924Y1557D01*
X1871929Y1559D01*
X1871930Y1558D01*
X1871933Y1558D01*
X1871935Y1555D01*
X1873265Y1411D01*
X1873271Y1414D01*
X1873275Y1411D01*
X1874441Y1521D01*
G37*
G36*
X299601Y1521D02*
X299601Y1521D01*
X299606Y1525D01*
X299610Y1522D01*
X300733Y1858D01*
X300737Y1864D01*
X300741Y1861D01*
X301777Y2409D01*
X301780Y2416D01*
X301785Y2415D01*
X302693Y3154D01*
X302695Y3161D01*
X302700Y3161D01*
X303447Y4063D01*
X303447Y4070D01*
X303453Y4071D01*
X304009Y5102D01*
X304008Y5109D01*
X304013Y5110D01*
X304357Y6230D01*
X304355Y6237D01*
X304359Y6239D01*
X304479Y7405D01*
X304477Y7408D01*
X304479Y7410D01*
X304479Y13410D01*
X304477Y13412D01*
X304479Y13414D01*
X304368Y14590D01*
X304363Y14595D01*
X304366Y14600D01*
X304028Y15731D01*
X304022Y15736D01*
X304024Y15740D01*
X303472Y16784D01*
X303465Y16787D01*
X303467Y16792D01*
X302721Y17708D01*
X302714Y17710D01*
X302714Y17715D01*
X301805Y18468D01*
X301797Y18469D01*
X301797Y18474D01*
X300757Y19035D01*
X300750Y19034D01*
X300748Y19038D01*
X299619Y19386D01*
X299613Y19384D01*
X299610Y19388D01*
X298435Y19509D01*
X298428Y19504D01*
X298424Y19509D01*
X297084Y19352D01*
X297078Y19346D01*
X297073Y19349D01*
X295802Y18899D01*
X295797Y18892D01*
X295792Y18894D01*
X294653Y18171D01*
X294650Y18163D01*
X294644Y18164D01*
X293694Y17206D01*
X293693Y17198D01*
X293687Y17198D01*
X292974Y16052D01*
X292975Y16044D01*
X292969Y16042D01*
X292529Y14767D01*
X292531Y14759D01*
X292527Y14756D01*
X292381Y13415D01*
X292383Y13411D01*
X292381Y13410D01*
X292381Y7410D01*
X292383Y7406D01*
X292381Y7404D01*
X292536Y6075D01*
X292542Y6069D01*
X292539Y6064D01*
X292986Y4803D01*
X292993Y4799D01*
X292991Y4793D01*
X293708Y3663D01*
X293715Y3660D01*
X293714Y3655D01*
X294665Y2713D01*
X294673Y2712D01*
X294673Y2706D01*
X295809Y1999D01*
X295817Y1999D01*
X295819Y1994D01*
X297084Y1557D01*
X297089Y1559D01*
X297090Y1558D01*
X297093Y1558D01*
X297095Y1555D01*
X298425Y1411D01*
X298431Y1414D01*
X298435Y1411D01*
X299601Y1521D01*
G37*
G36*
X1673741Y1521D02*
X1673741Y1521D01*
X1673746Y1525D01*
X1673750Y1522D01*
X1674873Y1858D01*
X1674877Y1864D01*
X1674881Y1861D01*
X1675917Y2409D01*
X1675920Y2416D01*
X1675925Y2415D01*
X1676833Y3154D01*
X1676835Y3161D01*
X1676840Y3161D01*
X1677587Y4063D01*
X1677587Y4070D01*
X1677593Y4071D01*
X1678149Y5102D01*
X1678148Y5109D01*
X1678153Y5110D01*
X1678497Y6230D01*
X1678495Y6237D01*
X1678499Y6239D01*
X1678619Y7405D01*
X1678617Y7408D01*
X1678619Y7410D01*
X1678619Y13410D01*
X1678617Y13412D01*
X1678619Y13414D01*
X1678508Y14590D01*
X1678503Y14595D01*
X1678506Y14600D01*
X1678168Y15731D01*
X1678162Y15736D01*
X1678164Y15740D01*
X1677612Y16784D01*
X1677605Y16787D01*
X1677607Y16792D01*
X1676861Y17708D01*
X1676854Y17710D01*
X1676854Y17715D01*
X1675945Y18468D01*
X1675937Y18469D01*
X1675937Y18474D01*
X1674897Y19035D01*
X1674890Y19034D01*
X1674888Y19038D01*
X1673759Y19386D01*
X1673753Y19384D01*
X1673750Y19388D01*
X1672575Y19509D01*
X1672568Y19504D01*
X1672564Y19509D01*
X1671224Y19352D01*
X1671218Y19346D01*
X1671213Y19349D01*
X1669942Y18899D01*
X1669937Y18892D01*
X1669932Y18894D01*
X1668793Y18171D01*
X1668790Y18163D01*
X1668784Y18164D01*
X1667834Y17206D01*
X1667833Y17198D01*
X1667827Y17198D01*
X1667114Y16052D01*
X1667115Y16044D01*
X1667109Y16042D01*
X1666669Y14767D01*
X1666671Y14759D01*
X1666667Y14756D01*
X1666521Y13415D01*
X1666523Y13411D01*
X1666521Y13410D01*
X1666521Y7410D01*
X1666523Y7406D01*
X1666521Y7404D01*
X1666676Y6075D01*
X1666682Y6069D01*
X1666679Y6064D01*
X1667126Y4803D01*
X1667133Y4799D01*
X1667131Y4793D01*
X1667848Y3663D01*
X1667855Y3660D01*
X1667854Y3655D01*
X1668805Y2713D01*
X1668813Y2712D01*
X1668813Y2706D01*
X1669949Y1999D01*
X1669957Y1999D01*
X1669959Y1994D01*
X1671224Y1557D01*
X1671229Y1559D01*
X1671230Y1558D01*
X1671233Y1558D01*
X1671235Y1555D01*
X1672565Y1411D01*
X1672571Y1414D01*
X1672575Y1411D01*
X1673741Y1521D01*
G37*
G36*
X1073071Y1521D02*
X1073071Y1521D01*
X1073076Y1525D01*
X1073080Y1522D01*
X1074203Y1858D01*
X1074207Y1864D01*
X1074211Y1861D01*
X1075247Y2409D01*
X1075250Y2416D01*
X1075255Y2415D01*
X1076163Y3154D01*
X1076165Y3161D01*
X1076170Y3161D01*
X1076917Y4063D01*
X1076917Y4070D01*
X1076923Y4071D01*
X1077479Y5102D01*
X1077478Y5109D01*
X1077483Y5110D01*
X1077827Y6230D01*
X1077825Y6237D01*
X1077829Y6239D01*
X1077949Y7405D01*
X1077947Y7408D01*
X1077949Y7410D01*
X1077949Y13410D01*
X1077947Y13412D01*
X1077949Y13414D01*
X1077838Y14590D01*
X1077833Y14595D01*
X1077836Y14600D01*
X1077498Y15731D01*
X1077492Y15736D01*
X1077494Y15740D01*
X1076942Y16784D01*
X1076935Y16787D01*
X1076937Y16792D01*
X1076191Y17708D01*
X1076184Y17710D01*
X1076184Y17715D01*
X1075275Y18468D01*
X1075267Y18469D01*
X1075267Y18474D01*
X1074227Y19035D01*
X1074220Y19034D01*
X1074218Y19038D01*
X1073089Y19386D01*
X1073083Y19384D01*
X1073080Y19388D01*
X1071905Y19509D01*
X1071898Y19504D01*
X1071894Y19509D01*
X1070554Y19352D01*
X1070548Y19346D01*
X1070543Y19349D01*
X1069272Y18899D01*
X1069267Y18892D01*
X1069262Y18894D01*
X1068123Y18171D01*
X1068120Y18163D01*
X1068114Y18164D01*
X1067164Y17206D01*
X1067163Y17198D01*
X1067157Y17198D01*
X1066444Y16052D01*
X1066445Y16044D01*
X1066439Y16042D01*
X1065999Y14767D01*
X1066001Y14759D01*
X1065997Y14756D01*
X1065851Y13415D01*
X1065853Y13411D01*
X1065851Y13410D01*
X1065851Y7410D01*
X1065853Y7406D01*
X1065851Y7404D01*
X1066006Y6075D01*
X1066012Y6069D01*
X1066009Y6064D01*
X1066456Y4803D01*
X1066463Y4799D01*
X1066461Y4793D01*
X1067178Y3663D01*
X1067185Y3660D01*
X1067184Y3655D01*
X1068135Y2713D01*
X1068143Y2712D01*
X1068143Y2706D01*
X1069279Y1999D01*
X1069287Y1999D01*
X1069289Y1994D01*
X1070554Y1557D01*
X1070559Y1559D01*
X1070560Y1558D01*
X1070563Y1558D01*
X1070565Y1555D01*
X1071895Y1411D01*
X1071901Y1414D01*
X1071905Y1411D01*
X1073071Y1521D01*
G37*
G36*
X1100971Y1521D02*
X1100971Y1521D01*
X1100976Y1525D01*
X1100980Y1522D01*
X1102103Y1858D01*
X1102107Y1864D01*
X1102111Y1861D01*
X1103147Y2409D01*
X1103150Y2416D01*
X1103155Y2415D01*
X1104063Y3154D01*
X1104065Y3161D01*
X1104070Y3161D01*
X1104817Y4063D01*
X1104817Y4070D01*
X1104823Y4071D01*
X1105379Y5102D01*
X1105378Y5109D01*
X1105383Y5110D01*
X1105727Y6230D01*
X1105725Y6237D01*
X1105729Y6239D01*
X1105849Y7405D01*
X1105847Y7408D01*
X1105849Y7410D01*
X1105849Y13410D01*
X1105847Y13412D01*
X1105849Y13414D01*
X1105738Y14590D01*
X1105733Y14595D01*
X1105736Y14600D01*
X1105398Y15731D01*
X1105392Y15736D01*
X1105394Y15740D01*
X1104842Y16784D01*
X1104835Y16787D01*
X1104837Y16792D01*
X1104091Y17708D01*
X1104084Y17710D01*
X1104084Y17715D01*
X1103175Y18468D01*
X1103167Y18469D01*
X1103167Y18474D01*
X1102127Y19035D01*
X1102120Y19034D01*
X1102118Y19038D01*
X1100989Y19386D01*
X1100983Y19384D01*
X1100980Y19388D01*
X1099805Y19509D01*
X1099798Y19504D01*
X1099794Y19509D01*
X1098454Y19352D01*
X1098448Y19346D01*
X1098443Y19349D01*
X1097172Y18899D01*
X1097167Y18892D01*
X1097162Y18894D01*
X1096023Y18171D01*
X1096020Y18163D01*
X1096014Y18164D01*
X1095064Y17206D01*
X1095063Y17198D01*
X1095057Y17198D01*
X1094344Y16052D01*
X1094345Y16044D01*
X1094339Y16042D01*
X1093899Y14767D01*
X1093901Y14759D01*
X1093897Y14756D01*
X1093751Y13415D01*
X1093753Y13411D01*
X1093751Y13410D01*
X1093751Y7410D01*
X1093753Y7406D01*
X1093751Y7404D01*
X1093906Y6075D01*
X1093912Y6069D01*
X1093909Y6064D01*
X1094356Y4803D01*
X1094363Y4799D01*
X1094361Y4793D01*
X1095078Y3663D01*
X1095085Y3660D01*
X1095084Y3655D01*
X1096035Y2713D01*
X1096043Y2712D01*
X1096043Y2706D01*
X1097179Y1999D01*
X1097187Y1999D01*
X1097189Y1994D01*
X1098454Y1557D01*
X1098459Y1559D01*
X1098460Y1558D01*
X1098463Y1558D01*
X1098465Y1555D01*
X1099795Y1411D01*
X1099801Y1414D01*
X1099805Y1411D01*
X1100971Y1521D01*
G37*
G36*
X1187371Y1521D02*
X1187371Y1521D01*
X1187376Y1525D01*
X1187380Y1522D01*
X1188503Y1858D01*
X1188507Y1864D01*
X1188511Y1861D01*
X1189547Y2409D01*
X1189550Y2416D01*
X1189555Y2415D01*
X1190463Y3154D01*
X1190465Y3161D01*
X1190470Y3161D01*
X1191217Y4063D01*
X1191217Y4070D01*
X1191223Y4071D01*
X1191779Y5102D01*
X1191778Y5109D01*
X1191783Y5110D01*
X1192127Y6230D01*
X1192125Y6237D01*
X1192129Y6239D01*
X1192249Y7405D01*
X1192247Y7408D01*
X1192249Y7410D01*
X1192249Y13410D01*
X1192247Y13412D01*
X1192249Y13414D01*
X1192138Y14590D01*
X1192133Y14595D01*
X1192136Y14600D01*
X1191798Y15731D01*
X1191792Y15736D01*
X1191794Y15740D01*
X1191242Y16784D01*
X1191235Y16787D01*
X1191237Y16792D01*
X1190491Y17708D01*
X1190484Y17710D01*
X1190484Y17715D01*
X1189575Y18468D01*
X1189567Y18469D01*
X1189567Y18474D01*
X1188527Y19035D01*
X1188520Y19034D01*
X1188518Y19038D01*
X1187389Y19386D01*
X1187383Y19384D01*
X1187380Y19388D01*
X1186205Y19509D01*
X1186198Y19504D01*
X1186194Y19509D01*
X1184854Y19352D01*
X1184848Y19346D01*
X1184843Y19349D01*
X1183572Y18899D01*
X1183567Y18892D01*
X1183562Y18894D01*
X1182423Y18171D01*
X1182420Y18163D01*
X1182414Y18164D01*
X1181464Y17206D01*
X1181463Y17198D01*
X1181457Y17198D01*
X1180744Y16052D01*
X1180745Y16044D01*
X1180739Y16042D01*
X1180299Y14767D01*
X1180301Y14759D01*
X1180297Y14756D01*
X1180151Y13415D01*
X1180153Y13411D01*
X1180151Y13410D01*
X1180151Y7410D01*
X1180153Y7406D01*
X1180151Y7404D01*
X1180306Y6075D01*
X1180312Y6069D01*
X1180309Y6064D01*
X1180756Y4803D01*
X1180763Y4799D01*
X1180761Y4793D01*
X1181478Y3663D01*
X1181485Y3660D01*
X1181484Y3655D01*
X1182435Y2713D01*
X1182443Y2712D01*
X1182443Y2706D01*
X1183579Y1999D01*
X1183587Y1999D01*
X1183589Y1994D01*
X1184854Y1557D01*
X1184859Y1559D01*
X1184860Y1558D01*
X1184863Y1558D01*
X1184865Y1555D01*
X1186195Y1411D01*
X1186201Y1414D01*
X1186205Y1411D01*
X1187371Y1521D01*
G37*
G36*
X1788041Y1521D02*
X1788041Y1521D01*
X1788046Y1525D01*
X1788050Y1522D01*
X1789173Y1858D01*
X1789177Y1864D01*
X1789181Y1861D01*
X1790217Y2409D01*
X1790220Y2416D01*
X1790225Y2415D01*
X1791133Y3154D01*
X1791135Y3161D01*
X1791140Y3161D01*
X1791887Y4063D01*
X1791887Y4070D01*
X1791893Y4071D01*
X1792449Y5102D01*
X1792448Y5109D01*
X1792453Y5110D01*
X1792797Y6230D01*
X1792795Y6237D01*
X1792799Y6239D01*
X1792919Y7405D01*
X1792917Y7408D01*
X1792919Y7410D01*
X1792919Y13410D01*
X1792917Y13412D01*
X1792919Y13414D01*
X1792808Y14590D01*
X1792803Y14595D01*
X1792806Y14600D01*
X1792468Y15731D01*
X1792462Y15736D01*
X1792464Y15740D01*
X1791912Y16784D01*
X1791905Y16787D01*
X1791907Y16792D01*
X1791161Y17708D01*
X1791154Y17710D01*
X1791154Y17715D01*
X1790245Y18468D01*
X1790237Y18469D01*
X1790237Y18474D01*
X1789197Y19035D01*
X1789190Y19034D01*
X1789188Y19038D01*
X1788059Y19386D01*
X1788053Y19384D01*
X1788050Y19388D01*
X1786875Y19509D01*
X1786868Y19504D01*
X1786864Y19509D01*
X1785524Y19352D01*
X1785518Y19346D01*
X1785513Y19349D01*
X1784242Y18899D01*
X1784237Y18892D01*
X1784232Y18894D01*
X1783093Y18171D01*
X1783090Y18163D01*
X1783084Y18164D01*
X1782134Y17206D01*
X1782133Y17198D01*
X1782127Y17198D01*
X1781414Y16052D01*
X1781415Y16044D01*
X1781409Y16042D01*
X1780969Y14767D01*
X1780971Y14759D01*
X1780967Y14756D01*
X1780821Y13415D01*
X1780823Y13411D01*
X1780821Y13410D01*
X1780821Y7410D01*
X1780823Y7406D01*
X1780821Y7404D01*
X1780976Y6075D01*
X1780982Y6069D01*
X1780979Y6064D01*
X1781426Y4803D01*
X1781433Y4799D01*
X1781431Y4793D01*
X1782148Y3663D01*
X1782155Y3660D01*
X1782154Y3655D01*
X1783105Y2713D01*
X1783113Y2712D01*
X1783113Y2706D01*
X1784249Y1999D01*
X1784257Y1999D01*
X1784259Y1994D01*
X1785524Y1557D01*
X1785529Y1559D01*
X1785530Y1558D01*
X1785533Y1558D01*
X1785535Y1555D01*
X1786865Y1411D01*
X1786871Y1414D01*
X1786875Y1411D01*
X1788041Y1521D01*
G37*
G36*
X1539940Y1083043D02*
X1539940Y1083043D01*
X1540006Y1083045D01*
X1540049Y1083063D01*
X1540096Y1083071D01*
X1540153Y1083105D01*
X1540213Y1083129D01*
X1540248Y1083161D01*
X1540289Y1083185D01*
X1540331Y1083236D01*
X1540379Y1083281D01*
X1540401Y1083323D01*
X1540430Y1083359D01*
X1540451Y1083422D01*
X1540482Y1083480D01*
X1540490Y1083535D01*
X1540502Y1083572D01*
X1540501Y1083611D01*
X1540509Y1083666D01*
X1540509Y1089254D01*
X1540498Y1089318D01*
X1540496Y1089384D01*
X1540478Y1089428D01*
X1540470Y1089474D01*
X1540436Y1089531D01*
X1540411Y1089592D01*
X1540380Y1089627D01*
X1540355Y1089668D01*
X1540304Y1089709D01*
X1540260Y1089758D01*
X1540218Y1089779D01*
X1540181Y1089809D01*
X1540119Y1089830D01*
X1540060Y1089860D01*
X1540006Y1089868D01*
X1539969Y1089881D01*
X1539929Y1089880D01*
X1539875Y1089888D01*
X1536065Y1089888D01*
X1536000Y1089876D01*
X1535934Y1089874D01*
X1535891Y1089857D01*
X1535844Y1089848D01*
X1535787Y1089815D01*
X1535727Y1089790D01*
X1535692Y1089758D01*
X1535651Y1089734D01*
X1535610Y1089683D01*
X1535561Y1089639D01*
X1535539Y1089597D01*
X1535510Y1089560D01*
X1535489Y1089498D01*
X1535458Y1089439D01*
X1535450Y1089385D01*
X1535438Y1089347D01*
X1535439Y1089308D01*
X1535431Y1089254D01*
X1535431Y1083666D01*
X1535442Y1083601D01*
X1535444Y1083535D01*
X1535462Y1083491D01*
X1535470Y1083445D01*
X1535504Y1083388D01*
X1535529Y1083327D01*
X1535560Y1083292D01*
X1535585Y1083252D01*
X1535636Y1083210D01*
X1535680Y1083162D01*
X1535722Y1083140D01*
X1535759Y1083110D01*
X1535821Y1083089D01*
X1535880Y1083059D01*
X1535934Y1083051D01*
X1535971Y1083038D01*
X1536011Y1083039D01*
X1536065Y1083031D01*
X1539875Y1083031D01*
X1539940Y1083043D01*
G37*
G36*
X852870Y1083043D02*
X852870Y1083043D01*
X852936Y1083045D01*
X852979Y1083063D01*
X853026Y1083071D01*
X853083Y1083105D01*
X853143Y1083129D01*
X853178Y1083161D01*
X853219Y1083185D01*
X853261Y1083236D01*
X853309Y1083281D01*
X853331Y1083323D01*
X853360Y1083359D01*
X853381Y1083422D01*
X853412Y1083480D01*
X853420Y1083535D01*
X853432Y1083572D01*
X853431Y1083611D01*
X853439Y1083666D01*
X853439Y1089254D01*
X853428Y1089318D01*
X853426Y1089384D01*
X853408Y1089428D01*
X853400Y1089474D01*
X853366Y1089531D01*
X853341Y1089592D01*
X853310Y1089627D01*
X853285Y1089668D01*
X853234Y1089709D01*
X853190Y1089758D01*
X853148Y1089779D01*
X853111Y1089809D01*
X853049Y1089830D01*
X852990Y1089860D01*
X852936Y1089868D01*
X852899Y1089881D01*
X852859Y1089880D01*
X852805Y1089888D01*
X848995Y1089888D01*
X848930Y1089876D01*
X848864Y1089874D01*
X848821Y1089857D01*
X848774Y1089848D01*
X848717Y1089815D01*
X848657Y1089790D01*
X848622Y1089758D01*
X848581Y1089734D01*
X848540Y1089683D01*
X848491Y1089639D01*
X848469Y1089597D01*
X848440Y1089560D01*
X848419Y1089498D01*
X848388Y1089439D01*
X848380Y1089385D01*
X848368Y1089347D01*
X848369Y1089308D01*
X848361Y1089254D01*
X848361Y1083666D01*
X848372Y1083601D01*
X848374Y1083535D01*
X848392Y1083491D01*
X848400Y1083445D01*
X848434Y1083388D01*
X848459Y1083327D01*
X848490Y1083292D01*
X848515Y1083252D01*
X848566Y1083210D01*
X848610Y1083162D01*
X848652Y1083140D01*
X848689Y1083110D01*
X848751Y1083089D01*
X848810Y1083059D01*
X848864Y1083051D01*
X848901Y1083038D01*
X848941Y1083039D01*
X848995Y1083031D01*
X852805Y1083031D01*
X852870Y1083043D01*
G37*
G36*
X165800Y1083043D02*
X165800Y1083043D01*
X165866Y1083045D01*
X165909Y1083063D01*
X165956Y1083071D01*
X166013Y1083105D01*
X166073Y1083129D01*
X166108Y1083161D01*
X166149Y1083185D01*
X166191Y1083236D01*
X166239Y1083281D01*
X166261Y1083323D01*
X166290Y1083359D01*
X166311Y1083422D01*
X166342Y1083480D01*
X166350Y1083535D01*
X166362Y1083572D01*
X166361Y1083611D01*
X166369Y1083666D01*
X166369Y1089254D01*
X166358Y1089318D01*
X166356Y1089384D01*
X166338Y1089428D01*
X166330Y1089474D01*
X166296Y1089531D01*
X166271Y1089592D01*
X166240Y1089627D01*
X166215Y1089668D01*
X166164Y1089709D01*
X166120Y1089758D01*
X166078Y1089779D01*
X166041Y1089809D01*
X165979Y1089830D01*
X165920Y1089860D01*
X165866Y1089868D01*
X165829Y1089881D01*
X165789Y1089880D01*
X165735Y1089888D01*
X161925Y1089888D01*
X161860Y1089876D01*
X161794Y1089874D01*
X161751Y1089857D01*
X161704Y1089848D01*
X161647Y1089815D01*
X161587Y1089790D01*
X161552Y1089758D01*
X161511Y1089734D01*
X161470Y1089683D01*
X161421Y1089639D01*
X161399Y1089597D01*
X161370Y1089560D01*
X161349Y1089498D01*
X161318Y1089439D01*
X161310Y1089385D01*
X161298Y1089347D01*
X161299Y1089308D01*
X161291Y1089254D01*
X161291Y1083666D01*
X161302Y1083601D01*
X161304Y1083535D01*
X161322Y1083491D01*
X161330Y1083445D01*
X161364Y1083388D01*
X161389Y1083327D01*
X161420Y1083292D01*
X161445Y1083252D01*
X161496Y1083210D01*
X161540Y1083162D01*
X161582Y1083140D01*
X161619Y1083110D01*
X161681Y1083089D01*
X161740Y1083059D01*
X161794Y1083051D01*
X161831Y1083038D01*
X161871Y1083039D01*
X161925Y1083031D01*
X165735Y1083031D01*
X165800Y1083043D01*
G37*
G36*
X400750Y75773D02*
X400750Y75773D01*
X400816Y75775D01*
X400859Y75793D01*
X400906Y75801D01*
X400963Y75835D01*
X401023Y75859D01*
X401058Y75891D01*
X401099Y75915D01*
X401141Y75966D01*
X401189Y76011D01*
X401211Y76053D01*
X401240Y76089D01*
X401261Y76152D01*
X401292Y76210D01*
X401300Y76265D01*
X401312Y76302D01*
X401311Y76341D01*
X401319Y76396D01*
X401319Y81984D01*
X401308Y82048D01*
X401306Y82114D01*
X401288Y82158D01*
X401280Y82204D01*
X401246Y82261D01*
X401221Y82322D01*
X401190Y82357D01*
X401165Y82398D01*
X401114Y82439D01*
X401070Y82488D01*
X401028Y82509D01*
X400991Y82539D01*
X400929Y82560D01*
X400870Y82590D01*
X400816Y82598D01*
X400779Y82611D01*
X400739Y82610D01*
X400685Y82618D01*
X396875Y82618D01*
X396810Y82606D01*
X396744Y82604D01*
X396701Y82587D01*
X396654Y82578D01*
X396597Y82545D01*
X396537Y82520D01*
X396502Y82488D01*
X396461Y82464D01*
X396420Y82413D01*
X396371Y82369D01*
X396349Y82327D01*
X396320Y82290D01*
X396299Y82228D01*
X396268Y82169D01*
X396260Y82115D01*
X396248Y82077D01*
X396249Y82038D01*
X396241Y81984D01*
X396241Y76396D01*
X396252Y76331D01*
X396254Y76265D01*
X396272Y76221D01*
X396280Y76175D01*
X396314Y76118D01*
X396339Y76057D01*
X396370Y76022D01*
X396395Y75982D01*
X396446Y75940D01*
X396490Y75892D01*
X396532Y75870D01*
X396569Y75840D01*
X396631Y75819D01*
X396690Y75789D01*
X396744Y75781D01*
X396781Y75768D01*
X396821Y75769D01*
X396875Y75761D01*
X400685Y75761D01*
X400750Y75773D01*
G37*
G36*
X1774890Y75773D02*
X1774890Y75773D01*
X1774956Y75775D01*
X1774999Y75793D01*
X1775046Y75801D01*
X1775103Y75835D01*
X1775163Y75859D01*
X1775198Y75891D01*
X1775239Y75915D01*
X1775281Y75966D01*
X1775329Y76011D01*
X1775351Y76053D01*
X1775380Y76089D01*
X1775401Y76152D01*
X1775432Y76210D01*
X1775440Y76265D01*
X1775452Y76302D01*
X1775451Y76341D01*
X1775459Y76396D01*
X1775459Y81984D01*
X1775448Y82048D01*
X1775446Y82114D01*
X1775428Y82158D01*
X1775420Y82204D01*
X1775386Y82261D01*
X1775361Y82322D01*
X1775330Y82357D01*
X1775305Y82398D01*
X1775254Y82439D01*
X1775210Y82488D01*
X1775168Y82509D01*
X1775131Y82539D01*
X1775069Y82560D01*
X1775010Y82590D01*
X1774956Y82598D01*
X1774919Y82611D01*
X1774879Y82610D01*
X1774825Y82618D01*
X1771015Y82618D01*
X1770950Y82606D01*
X1770884Y82604D01*
X1770841Y82587D01*
X1770794Y82578D01*
X1770737Y82545D01*
X1770677Y82520D01*
X1770642Y82488D01*
X1770601Y82464D01*
X1770560Y82413D01*
X1770511Y82369D01*
X1770489Y82327D01*
X1770460Y82290D01*
X1770439Y82228D01*
X1770408Y82169D01*
X1770400Y82115D01*
X1770388Y82077D01*
X1770389Y82038D01*
X1770381Y81984D01*
X1770381Y76396D01*
X1770392Y76331D01*
X1770394Y76265D01*
X1770412Y76221D01*
X1770420Y76175D01*
X1770454Y76118D01*
X1770479Y76057D01*
X1770510Y76022D01*
X1770535Y75982D01*
X1770586Y75940D01*
X1770630Y75892D01*
X1770672Y75870D01*
X1770709Y75840D01*
X1770771Y75819D01*
X1770830Y75789D01*
X1770884Y75781D01*
X1770921Y75768D01*
X1770961Y75769D01*
X1771015Y75761D01*
X1774825Y75761D01*
X1774890Y75773D01*
G37*
G36*
X1087820Y75773D02*
X1087820Y75773D01*
X1087886Y75775D01*
X1087929Y75793D01*
X1087976Y75801D01*
X1088033Y75835D01*
X1088093Y75859D01*
X1088128Y75891D01*
X1088169Y75915D01*
X1088211Y75966D01*
X1088259Y76011D01*
X1088281Y76053D01*
X1088310Y76089D01*
X1088331Y76152D01*
X1088362Y76210D01*
X1088370Y76265D01*
X1088382Y76302D01*
X1088381Y76341D01*
X1088389Y76396D01*
X1088389Y81984D01*
X1088378Y82048D01*
X1088376Y82114D01*
X1088358Y82158D01*
X1088350Y82204D01*
X1088316Y82261D01*
X1088291Y82322D01*
X1088260Y82357D01*
X1088235Y82398D01*
X1088184Y82439D01*
X1088140Y82488D01*
X1088098Y82509D01*
X1088061Y82539D01*
X1087999Y82560D01*
X1087940Y82590D01*
X1087886Y82598D01*
X1087849Y82611D01*
X1087809Y82610D01*
X1087755Y82618D01*
X1083945Y82618D01*
X1083880Y82606D01*
X1083814Y82604D01*
X1083771Y82587D01*
X1083724Y82578D01*
X1083667Y82545D01*
X1083607Y82520D01*
X1083572Y82488D01*
X1083531Y82464D01*
X1083490Y82413D01*
X1083441Y82369D01*
X1083419Y82327D01*
X1083390Y82290D01*
X1083369Y82228D01*
X1083338Y82169D01*
X1083330Y82115D01*
X1083318Y82077D01*
X1083319Y82038D01*
X1083311Y81984D01*
X1083311Y76396D01*
X1083322Y76331D01*
X1083324Y76265D01*
X1083342Y76221D01*
X1083350Y76175D01*
X1083384Y76118D01*
X1083409Y76057D01*
X1083440Y76022D01*
X1083465Y75982D01*
X1083516Y75940D01*
X1083560Y75892D01*
X1083602Y75870D01*
X1083639Y75840D01*
X1083701Y75819D01*
X1083760Y75789D01*
X1083814Y75781D01*
X1083851Y75768D01*
X1083891Y75769D01*
X1083945Y75761D01*
X1087755Y75761D01*
X1087820Y75773D01*
G37*
D10*
X633730Y42840D03*
X51330Y1051640D03*
D11*
X402790Y542580D02*
X402790Y535600D01*
X402790Y542580D02*
X409770Y542580D01*
X409770Y535600D01*
X402790Y535600D01*
X402790Y540400D02*
X409770Y540400D01*
X385250Y542580D02*
X385250Y535600D01*
X385250Y542580D02*
X392230Y542580D01*
X392230Y535600D01*
X385250Y535600D01*
X385250Y540400D02*
X392230Y540400D01*
D12*
X389010Y551790D03*
X406010Y551790D03*
D13*
X367030Y371840D03*
X367030Y388840D03*
X341630Y388840D03*
X341630Y371840D03*
D14*
X443531Y370840D03*
X443531Y380340D03*
X443531Y389840D03*
X417529Y389840D03*
X417529Y370840D03*
D12*
X439030Y405740D03*
X422030Y405740D03*
D13*
X265430Y388840D03*
X265430Y371840D03*
X290830Y388840D03*
X290830Y371840D03*
D11*
X402790Y459400D02*
X402790Y466380D01*
X409770Y466380D01*
X409770Y459400D01*
X402790Y459400D01*
X402790Y464200D02*
X409770Y464200D01*
X385250Y466380D02*
X385250Y459400D01*
X385250Y466380D02*
X392230Y466380D01*
X392230Y459400D01*
X385250Y459400D01*
X385250Y464200D02*
X392230Y464200D01*
D12*
X389010Y475590D03*
X406010Y475590D03*
D15*
X303530Y167700D03*
X303530Y156100D03*
D12*
X321700Y168250D03*
X338700Y168250D03*
D13*
X316230Y388840D03*
X316230Y371840D03*
D16*
X282020Y168250D03*
X292020Y168250D03*
D17*
X270130Y191540D03*
X281130Y191540D03*
X292130Y191540D03*
X303130Y191540D03*
X314130Y191540D03*
X325130Y191540D03*
X336130Y191540D03*
X347130Y191540D03*
X358130Y191540D03*
X369130Y191540D03*
X380130Y191540D03*
X391130Y191540D03*
X402130Y191540D03*
X413130Y191540D03*
D18*
X441130Y200040D03*
X441130Y211040D03*
X441130Y222040D03*
X441130Y233040D03*
X441130Y244040D03*
X441130Y255040D03*
X441130Y266040D03*
X441130Y277040D03*
X441130Y288040D03*
X441130Y299040D03*
X441130Y310040D03*
X441130Y321040D03*
X441130Y332040D03*
D17*
X413130Y340540D03*
X402130Y340540D03*
X391130Y340540D03*
X380130Y340540D03*
X369130Y340540D03*
X358130Y340540D03*
X347130Y340540D03*
X336130Y340540D03*
X325130Y340540D03*
X314130Y340540D03*
X303130Y340540D03*
X292130Y340540D03*
X281130Y340540D03*
X270130Y340540D03*
D18*
X242130Y332040D03*
X242130Y321040D03*
X242130Y310040D03*
X242130Y299040D03*
X242130Y288040D03*
X242130Y277040D03*
X242130Y266040D03*
X242130Y255040D03*
X242130Y244040D03*
X242130Y233040D03*
X242130Y222040D03*
X242130Y211040D03*
X242130Y200040D03*
D19*
X331130Y255540D03*
X310130Y255540D03*
X289130Y255540D03*
X268130Y255540D03*
X331130Y235040D03*
X310130Y235040D03*
X289130Y235040D03*
X268130Y235040D03*
X331130Y214540D03*
X310130Y214540D03*
X289130Y214540D03*
X268130Y214540D03*
X331130Y317540D03*
X310130Y317540D03*
X289130Y317540D03*
X268130Y317540D03*
X331130Y297040D03*
X310130Y297040D03*
X289130Y297040D03*
X268130Y297040D03*
X331130Y276540D03*
X310130Y276540D03*
X289130Y276540D03*
X268130Y276540D03*
X352130Y276540D03*
X373130Y276540D03*
X394130Y276540D03*
X415130Y276540D03*
X352130Y297040D03*
X373130Y297040D03*
X394130Y297040D03*
X415130Y297040D03*
X352130Y317540D03*
X373130Y317540D03*
X394130Y317540D03*
X415130Y317540D03*
X352130Y214540D03*
X373130Y214540D03*
X394130Y214540D03*
X415130Y214540D03*
X352130Y235040D03*
X373130Y235040D03*
X394130Y235040D03*
X415130Y235040D03*
X352130Y255540D03*
X373130Y255540D03*
X394130Y255540D03*
X415130Y255540D03*
D12*
X388230Y98240D03*
X371230Y98240D03*
X295030Y98240D03*
X312030Y98240D03*
D20*
X349130Y58010D03*
X344130Y58010D03*
D21*
X373880Y58010D03*
X366130Y58010D03*
D20*
X359130Y58010D03*
X354130Y58010D03*
X334130Y58010D03*
X339130Y58010D03*
D21*
X309380Y58010D03*
X317130Y58010D03*
D20*
X324130Y58010D03*
X329130Y58010D03*
D22*
X312730Y46960D03*
X370530Y46960D03*
D13*
X392430Y371840D03*
X392430Y388840D03*
D12*
X345830Y405740D03*
X362830Y405740D03*
D23*
X323930Y134990D03*
D24*
X328930Y134740D03*
X333930Y134740D03*
X333930Y143340D03*
X328930Y143340D03*
X323930Y143340D03*
D25*
X269830Y35450D03*
D26*
X227330Y81450D03*
D25*
X184830Y35450D03*
D27*
X207730Y292140D03*
D28*
X207730Y300140D03*
X207730Y308140D03*
D27*
X220930Y292140D03*
D28*
X220930Y300140D03*
X220930Y308140D03*
D29*
X220830Y316140D03*
D27*
X207730Y316140D03*
X207730Y228640D03*
D28*
X207730Y236640D03*
X207730Y244640D03*
D27*
X220930Y228640D03*
D28*
X220930Y236640D03*
X220930Y244640D03*
D29*
X220830Y252640D03*
D27*
X207730Y252640D03*
D13*
X214630Y333740D03*
X214630Y350740D03*
D30*
X56642Y282677D03*
X56642Y782803D03*
X626618Y782803D03*
X626618Y282677D03*
D12*
X172330Y376530D03*
X155330Y376530D03*
D11*
X169110Y357160D02*
X169110Y350180D01*
X169110Y357160D02*
X176090Y357160D01*
X176090Y350180D01*
X169110Y350180D01*
X169110Y354980D02*
X176090Y354980D01*
X151570Y357160D02*
X151570Y350180D01*
X151570Y357160D02*
X158550Y357160D01*
X158550Y350180D01*
X151570Y350180D01*
X151570Y354980D02*
X158550Y354980D01*
D31*
X648810Y468140D03*
X628810Y468140D03*
D32*
X672810Y416140D03*
X604810Y416140D03*
D33*
X162730Y1018040D03*
X162730Y1038040D03*
D34*
X110730Y994040D03*
X110730Y1062040D03*
D35*
X201930Y1028040D03*
X201930Y1002640D03*
D12*
X294250Y627990D03*
X277250Y627990D03*
D11*
X291030Y618780D02*
X291030Y611800D01*
X291030Y618780D02*
X298010Y618780D01*
X298010Y611800D01*
X291030Y611800D01*
X291030Y616600D02*
X298010Y616600D01*
X273490Y618780D02*
X273490Y611800D01*
X273490Y618780D02*
X280470Y618780D01*
X280470Y611800D01*
X273490Y611800D01*
X273490Y616600D02*
X280470Y616600D01*
D12*
X294250Y551790D03*
X277250Y551790D03*
D11*
X291030Y542580D02*
X291030Y535600D01*
X291030Y542580D02*
X298010Y542580D01*
X298010Y535600D01*
X291030Y535600D01*
X291030Y540400D02*
X298010Y540400D01*
X273490Y542580D02*
X273490Y535600D01*
X273490Y542580D02*
X280470Y542580D01*
X280470Y535600D01*
X273490Y535600D01*
X273490Y540400D02*
X280470Y540400D01*
D12*
X294250Y475590D03*
X277250Y475590D03*
D11*
X291030Y466380D02*
X291030Y459400D01*
X291030Y466380D02*
X298010Y466380D01*
X298010Y459400D01*
X291030Y459400D01*
X291030Y464200D02*
X298010Y464200D01*
X273490Y466380D02*
X273490Y459400D01*
X273490Y466380D02*
X280470Y466380D01*
X280470Y459400D01*
X273490Y459400D01*
X273490Y464200D02*
X280470Y464200D01*
D31*
X53180Y468140D03*
X33180Y468140D03*
D32*
X77180Y416140D03*
X9180Y416140D03*
D20*
X463430Y58010D03*
X458430Y58010D03*
D21*
X488180Y58010D03*
X480430Y58010D03*
D20*
X473430Y58010D03*
X468430Y58010D03*
X448430Y58010D03*
X453430Y58010D03*
D21*
X423680Y58010D03*
X431430Y58010D03*
D20*
X438430Y58010D03*
X443430Y58010D03*
D22*
X427030Y46960D03*
X484830Y46960D03*
D12*
X502530Y98240D03*
X485530Y98240D03*
X409330Y98240D03*
X426330Y98240D03*
D36*
X94280Y44880D03*
D37*
X150280Y12880D03*
X75780Y12880D03*
D36*
X106780Y44880D03*
X119280Y44880D03*
X131780Y44880D03*
X551480Y44880D03*
D37*
X607480Y12880D03*
X532980Y12880D03*
D36*
X563980Y44880D03*
X576480Y44880D03*
X588980Y44880D03*
D12*
X406010Y627990D03*
X389010Y627990D03*
D11*
X402790Y618780D02*
X402790Y611800D01*
X402790Y618780D02*
X409770Y618780D01*
X409770Y611800D01*
X402790Y611800D01*
X402790Y616600D02*
X409770Y616600D01*
X385250Y618780D02*
X385250Y611800D01*
X385250Y618780D02*
X392230Y618780D01*
X392230Y611800D01*
X385250Y611800D01*
X385250Y616600D02*
X392230Y616600D01*
D35*
X151130Y71890D03*
X125730Y71890D03*
X100330Y71890D03*
X74930Y71890D03*
X608330Y174440D03*
X582930Y174440D03*
X557530Y174440D03*
X532130Y174440D03*
X532130Y240640D03*
X532130Y266040D03*
X532130Y291440D03*
X532130Y316840D03*
D27*
X487130Y266740D03*
D28*
X487130Y274740D03*
X487130Y282740D03*
D27*
X500330Y266740D03*
D28*
X500330Y274740D03*
X500330Y282740D03*
D29*
X500230Y290740D03*
D27*
X487130Y290740D03*
D35*
X24130Y342240D03*
X24130Y316840D03*
D12*
X510150Y174440D03*
X493150Y174440D03*
D38*
X467430Y110940D03*
X444430Y110940D03*
D39*
X393700Y79190D03*
X403860Y79190D03*
D35*
X386080Y79190D03*
X411480Y79190D03*
D39*
X158750Y1086460D03*
X168910Y1086460D03*
D35*
X151130Y1086460D03*
X176530Y1086460D03*
X626630Y980340D03*
X626630Y954940D03*
D40*
X504680Y363400D03*
X504680Y352400D03*
X504680Y341400D03*
X534180Y341400D03*
X534180Y352400D03*
X534180Y363400D03*
D12*
X487290Y367640D03*
X470290Y367640D03*
X487290Y337160D03*
X470290Y337160D03*
X487290Y352400D03*
X470290Y352400D03*
D14*
X354631Y447040D03*
X354631Y456540D03*
X354631Y466040D03*
X328629Y466040D03*
X328629Y447040D03*
D12*
X350130Y481940D03*
X333130Y481940D03*
X333130Y431140D03*
X350130Y431140D03*
D41*
X97480Y214840D03*
X97480Y189840D03*
X97480Y164840D03*
X153980Y214840D03*
X153980Y189840D03*
X153980Y164840D03*
D42*
X125730Y204840D03*
X125730Y174840D03*
D41*
X97480Y341840D03*
X97480Y316840D03*
X97480Y291840D03*
X153980Y341840D03*
X153980Y316840D03*
X153980Y291840D03*
D42*
X125730Y331840D03*
X125730Y301840D03*
D23*
X450930Y134990D03*
D24*
X455930Y134740D03*
X460930Y134740D03*
X460930Y143340D03*
X455930Y143340D03*
X450930Y143340D03*
D35*
X354330Y139040D03*
X379730Y139040D03*
X405130Y139040D03*
X430530Y139040D03*
X189230Y278740D03*
X189230Y253340D03*
X189230Y227940D03*
X189230Y202540D03*
X189230Y177140D03*
D42*
X68834Y204840D03*
X68834Y174840D03*
D43*
X69910Y655850D03*
X13910Y655850D03*
D44*
X56910Y619100D03*
X46910Y619100D03*
X36910Y619100D03*
X26910Y619100D03*
D10*
X1320800Y42840D03*
X738400Y1051640D03*
D11*
X1089860Y542580D02*
X1089860Y535600D01*
X1089860Y542580D02*
X1096840Y542580D01*
X1096840Y535600D01*
X1089860Y535600D01*
X1089860Y540400D02*
X1096840Y540400D01*
X1072320Y542580D02*
X1072320Y535600D01*
X1072320Y542580D02*
X1079300Y542580D01*
X1079300Y535600D01*
X1072320Y535600D01*
X1072320Y540400D02*
X1079300Y540400D01*
D12*
X1076080Y551790D03*
X1093080Y551790D03*
D13*
X1054100Y371840D03*
X1054100Y388840D03*
X1028700Y388840D03*
X1028700Y371840D03*
D14*
X1130601Y370840D03*
X1130601Y380340D03*
X1130601Y389840D03*
X1104599Y389840D03*
X1104599Y370840D03*
D12*
X1126100Y405740D03*
X1109100Y405740D03*
D13*
X952500Y388840D03*
X952500Y371840D03*
X977900Y388840D03*
X977900Y371840D03*
D11*
X1089860Y459400D02*
X1089860Y466380D01*
X1096840Y466380D01*
X1096840Y459400D01*
X1089860Y459400D01*
X1089860Y464200D02*
X1096840Y464200D01*
X1072320Y466380D02*
X1072320Y459400D01*
X1072320Y466380D02*
X1079300Y466380D01*
X1079300Y459400D01*
X1072320Y459400D01*
X1072320Y464200D02*
X1079300Y464200D01*
D12*
X1076080Y475590D03*
X1093080Y475590D03*
D15*
X990600Y167700D03*
X990600Y156100D03*
D12*
X1008770Y168250D03*
X1025770Y168250D03*
D13*
X1003300Y388840D03*
X1003300Y371840D03*
D16*
X969090Y168250D03*
X979090Y168250D03*
D17*
X957200Y191540D03*
X968200Y191540D03*
X979200Y191540D03*
X990200Y191540D03*
X1001200Y191540D03*
X1012200Y191540D03*
X1023200Y191540D03*
X1034200Y191540D03*
X1045200Y191540D03*
X1056200Y191540D03*
X1067200Y191540D03*
X1078200Y191540D03*
X1089200Y191540D03*
X1100200Y191540D03*
D18*
X1128200Y200040D03*
X1128200Y211040D03*
X1128200Y222040D03*
X1128200Y233040D03*
X1128200Y244040D03*
X1128200Y255040D03*
X1128200Y266040D03*
X1128200Y277040D03*
X1128200Y288040D03*
X1128200Y299040D03*
X1128200Y310040D03*
X1128200Y321040D03*
X1128200Y332040D03*
D17*
X1100200Y340540D03*
X1089200Y340540D03*
X1078200Y340540D03*
X1067200Y340540D03*
X1056200Y340540D03*
X1045200Y340540D03*
X1034200Y340540D03*
X1023200Y340540D03*
X1012200Y340540D03*
X1001200Y340540D03*
X990200Y340540D03*
X979200Y340540D03*
X968200Y340540D03*
X957200Y340540D03*
D18*
X929200Y332040D03*
X929200Y321040D03*
X929200Y310040D03*
X929200Y299040D03*
X929200Y288040D03*
X929200Y277040D03*
X929200Y266040D03*
X929200Y255040D03*
X929200Y244040D03*
X929200Y233040D03*
X929200Y222040D03*
X929200Y211040D03*
X929200Y200040D03*
D19*
X1018200Y255540D03*
X997200Y255540D03*
X976200Y255540D03*
X955200Y255540D03*
X1018200Y235040D03*
X997200Y235040D03*
X976200Y235040D03*
X955200Y235040D03*
X1018200Y214540D03*
X997200Y214540D03*
X976200Y214540D03*
X955200Y214540D03*
X1018200Y317540D03*
X997200Y317540D03*
X976200Y317540D03*
X955200Y317540D03*
X1018200Y297040D03*
X997200Y297040D03*
X976200Y297040D03*
X955200Y297040D03*
X1018200Y276540D03*
X997200Y276540D03*
X976200Y276540D03*
X955200Y276540D03*
X1039200Y276540D03*
X1060200Y276540D03*
X1081200Y276540D03*
X1102200Y276540D03*
X1039200Y297040D03*
X1060200Y297040D03*
X1081200Y297040D03*
X1102200Y297040D03*
X1039200Y317540D03*
X1060200Y317540D03*
X1081200Y317540D03*
X1102200Y317540D03*
X1039200Y214540D03*
X1060200Y214540D03*
X1081200Y214540D03*
X1102200Y214540D03*
X1039200Y235040D03*
X1060200Y235040D03*
X1081200Y235040D03*
X1102200Y235040D03*
X1039200Y255540D03*
X1060200Y255540D03*
X1081200Y255540D03*
X1102200Y255540D03*
D12*
X1075300Y98240D03*
X1058300Y98240D03*
X982100Y98240D03*
X999100Y98240D03*
D20*
X1036200Y58010D03*
X1031200Y58010D03*
D21*
X1060950Y58010D03*
X1053200Y58010D03*
D20*
X1046200Y58010D03*
X1041200Y58010D03*
X1021200Y58010D03*
X1026200Y58010D03*
D21*
X996450Y58010D03*
X1004200Y58010D03*
D20*
X1011200Y58010D03*
X1016200Y58010D03*
D22*
X999800Y46960D03*
X1057600Y46960D03*
D13*
X1079500Y371840D03*
X1079500Y388840D03*
D12*
X1032900Y405740D03*
X1049900Y405740D03*
D23*
X1011000Y134990D03*
D24*
X1016000Y134740D03*
X1021000Y134740D03*
X1021000Y143340D03*
X1016000Y143340D03*
X1011000Y143340D03*
D25*
X956900Y35450D03*
D26*
X914400Y81450D03*
D25*
X871900Y35450D03*
D27*
X894800Y292140D03*
D28*
X894800Y300140D03*
X894800Y308140D03*
D27*
X908000Y292140D03*
D28*
X908000Y300140D03*
X908000Y308140D03*
D29*
X907900Y316140D03*
D27*
X894800Y316140D03*
X894800Y228640D03*
D28*
X894800Y236640D03*
X894800Y244640D03*
D27*
X908000Y228640D03*
D28*
X908000Y236640D03*
X908000Y244640D03*
D29*
X907900Y252640D03*
D27*
X894800Y252640D03*
D13*
X901700Y333740D03*
X901700Y350740D03*
D30*
X743712Y282677D03*
X743712Y782803D03*
X1313688Y782803D03*
X1313688Y282677D03*
D12*
X859400Y376530D03*
X842400Y376530D03*
D11*
X856180Y357160D02*
X856180Y350180D01*
X856180Y357160D02*
X863160Y357160D01*
X863160Y350180D01*
X856180Y350180D01*
X856180Y354980D02*
X863160Y354980D01*
X838640Y357160D02*
X838640Y350180D01*
X838640Y357160D02*
X845620Y357160D01*
X845620Y350180D01*
X838640Y350180D01*
X838640Y354980D02*
X845620Y354980D01*
D31*
X1335880Y468140D03*
X1315880Y468140D03*
D32*
X1359880Y416140D03*
X1291880Y416140D03*
D33*
X849800Y1018040D03*
X849800Y1038040D03*
D34*
X797800Y994040D03*
X797800Y1062040D03*
D35*
X889000Y1028040D03*
X889000Y1002640D03*
D12*
X981320Y627990D03*
X964320Y627990D03*
D11*
X978100Y618780D02*
X978100Y611800D01*
X978100Y618780D02*
X985080Y618780D01*
X985080Y611800D01*
X978100Y611800D01*
X978100Y616600D02*
X985080Y616600D01*
X960560Y618780D02*
X960560Y611800D01*
X960560Y618780D02*
X967540Y618780D01*
X967540Y611800D01*
X960560Y611800D01*
X960560Y616600D02*
X967540Y616600D01*
D12*
X981320Y551790D03*
X964320Y551790D03*
D11*
X978100Y542580D02*
X978100Y535600D01*
X978100Y542580D02*
X985080Y542580D01*
X985080Y535600D01*
X978100Y535600D01*
X978100Y540400D02*
X985080Y540400D01*
X960560Y542580D02*
X960560Y535600D01*
X960560Y542580D02*
X967540Y542580D01*
X967540Y535600D01*
X960560Y535600D01*
X960560Y540400D02*
X967540Y540400D01*
D12*
X981320Y475590D03*
X964320Y475590D03*
D11*
X978100Y466380D02*
X978100Y459400D01*
X978100Y466380D02*
X985080Y466380D01*
X985080Y459400D01*
X978100Y459400D01*
X978100Y464200D02*
X985080Y464200D01*
X960560Y466380D02*
X960560Y459400D01*
X960560Y466380D02*
X967540Y466380D01*
X967540Y459400D01*
X960560Y459400D01*
X960560Y464200D02*
X967540Y464200D01*
D31*
X740250Y468140D03*
X720250Y468140D03*
D32*
X764250Y416140D03*
X696250Y416140D03*
D20*
X1150500Y58010D03*
X1145500Y58010D03*
D21*
X1175250Y58010D03*
X1167500Y58010D03*
D20*
X1160500Y58010D03*
X1155500Y58010D03*
X1135500Y58010D03*
X1140500Y58010D03*
D21*
X1110750Y58010D03*
X1118500Y58010D03*
D20*
X1125500Y58010D03*
X1130500Y58010D03*
D22*
X1114100Y46960D03*
X1171900Y46960D03*
D12*
X1189600Y98240D03*
X1172600Y98240D03*
X1096400Y98240D03*
X1113400Y98240D03*
D36*
X781350Y44880D03*
D37*
X837350Y12880D03*
X762850Y12880D03*
D36*
X793850Y44880D03*
X806350Y44880D03*
X818850Y44880D03*
X1238550Y44880D03*
D37*
X1294550Y12880D03*
X1220050Y12880D03*
D36*
X1251050Y44880D03*
X1263550Y44880D03*
X1276050Y44880D03*
D12*
X1093080Y627990D03*
X1076080Y627990D03*
D11*
X1089860Y618780D02*
X1089860Y611800D01*
X1089860Y618780D02*
X1096840Y618780D01*
X1096840Y611800D01*
X1089860Y611800D01*
X1089860Y616600D02*
X1096840Y616600D01*
X1072320Y618780D02*
X1072320Y611800D01*
X1072320Y618780D02*
X1079300Y618780D01*
X1079300Y611800D01*
X1072320Y611800D01*
X1072320Y616600D02*
X1079300Y616600D01*
D35*
X838200Y71890D03*
X812800Y71890D03*
X787400Y71890D03*
X762000Y71890D03*
X1295400Y174440D03*
X1270000Y174440D03*
X1244600Y174440D03*
X1219200Y174440D03*
X1219200Y240640D03*
X1219200Y266040D03*
X1219200Y291440D03*
X1219200Y316840D03*
D27*
X1174200Y266740D03*
D28*
X1174200Y274740D03*
X1174200Y282740D03*
D27*
X1187400Y266740D03*
D28*
X1187400Y274740D03*
X1187400Y282740D03*
D29*
X1187300Y290740D03*
D27*
X1174200Y290740D03*
D35*
X711200Y342240D03*
X711200Y316840D03*
D12*
X1197220Y174440D03*
X1180220Y174440D03*
D38*
X1154500Y110940D03*
X1131500Y110940D03*
D39*
X1080770Y79190D03*
X1090930Y79190D03*
D35*
X1073150Y79190D03*
X1098550Y79190D03*
D39*
X845820Y1086460D03*
X855980Y1086460D03*
D35*
X838200Y1086460D03*
X863600Y1086460D03*
X1313700Y980340D03*
X1313700Y954940D03*
D40*
X1191750Y363400D03*
X1191750Y352400D03*
X1191750Y341400D03*
X1221250Y341400D03*
X1221250Y352400D03*
X1221250Y363400D03*
D12*
X1174360Y367640D03*
X1157360Y367640D03*
X1174360Y337160D03*
X1157360Y337160D03*
X1174360Y352400D03*
X1157360Y352400D03*
D14*
X1041701Y447040D03*
X1041701Y456540D03*
X1041701Y466040D03*
X1015699Y466040D03*
X1015699Y447040D03*
D12*
X1037200Y481940D03*
X1020200Y481940D03*
X1020200Y431140D03*
X1037200Y431140D03*
D41*
X784550Y214840D03*
X784550Y189840D03*
X784550Y164840D03*
X841050Y214840D03*
X841050Y189840D03*
X841050Y164840D03*
D42*
X812800Y204840D03*
X812800Y174840D03*
D41*
X784550Y341840D03*
X784550Y316840D03*
X784550Y291840D03*
X841050Y341840D03*
X841050Y316840D03*
X841050Y291840D03*
D42*
X812800Y331840D03*
X812800Y301840D03*
D23*
X1138000Y134990D03*
D24*
X1143000Y134740D03*
X1148000Y134740D03*
X1148000Y143340D03*
X1143000Y143340D03*
X1138000Y143340D03*
D35*
X1041400Y139040D03*
X1066800Y139040D03*
X1092200Y139040D03*
X1117600Y139040D03*
X876300Y278740D03*
X876300Y253340D03*
X876300Y227940D03*
X876300Y202540D03*
X876300Y177140D03*
D42*
X755904Y204840D03*
X755904Y174840D03*
D43*
X756980Y655850D03*
X700980Y655850D03*
D44*
X743980Y619100D03*
X733980Y619100D03*
X723980Y619100D03*
X713980Y619100D03*
D10*
X2007870Y42840D03*
X1425470Y1051640D03*
D11*
X1776930Y542580D02*
X1776930Y535600D01*
X1776930Y542580D02*
X1783910Y542580D01*
X1783910Y535600D01*
X1776930Y535600D01*
X1776930Y540400D02*
X1783910Y540400D01*
X1759390Y542580D02*
X1759390Y535600D01*
X1759390Y542580D02*
X1766370Y542580D01*
X1766370Y535600D01*
X1759390Y535600D01*
X1759390Y540400D02*
X1766370Y540400D01*
D12*
X1763150Y551790D03*
X1780150Y551790D03*
D13*
X1741170Y371840D03*
X1741170Y388840D03*
X1715770Y388840D03*
X1715770Y371840D03*
D14*
X1817671Y370840D03*
X1817671Y380340D03*
X1817671Y389840D03*
X1791669Y389840D03*
X1791669Y370840D03*
D12*
X1813170Y405740D03*
X1796170Y405740D03*
D13*
X1639570Y388840D03*
X1639570Y371840D03*
X1664970Y388840D03*
X1664970Y371840D03*
D11*
X1776930Y459400D02*
X1776930Y466380D01*
X1783910Y466380D01*
X1783910Y459400D01*
X1776930Y459400D01*
X1776930Y464200D02*
X1783910Y464200D01*
X1759390Y466380D02*
X1759390Y459400D01*
X1759390Y466380D02*
X1766370Y466380D01*
X1766370Y459400D01*
X1759390Y459400D01*
X1759390Y464200D02*
X1766370Y464200D01*
D12*
X1763150Y475590D03*
X1780150Y475590D03*
D15*
X1677670Y167700D03*
X1677670Y156100D03*
D12*
X1695840Y168250D03*
X1712840Y168250D03*
D13*
X1690370Y388840D03*
X1690370Y371840D03*
D16*
X1656160Y168250D03*
X1666160Y168250D03*
D17*
X1644270Y191540D03*
X1655270Y191540D03*
X1666270Y191540D03*
X1677270Y191540D03*
X1688270Y191540D03*
X1699270Y191540D03*
X1710270Y191540D03*
X1721270Y191540D03*
X1732270Y191540D03*
X1743270Y191540D03*
X1754270Y191540D03*
X1765270Y191540D03*
X1776270Y191540D03*
X1787270Y191540D03*
D18*
X1815270Y200040D03*
X1815270Y211040D03*
X1815270Y222040D03*
X1815270Y233040D03*
X1815270Y244040D03*
X1815270Y255040D03*
X1815270Y266040D03*
X1815270Y277040D03*
X1815270Y288040D03*
X1815270Y299040D03*
X1815270Y310040D03*
X1815270Y321040D03*
X1815270Y332040D03*
D17*
X1787270Y340540D03*
X1776270Y340540D03*
X1765270Y340540D03*
X1754270Y340540D03*
X1743270Y340540D03*
X1732270Y340540D03*
X1721270Y340540D03*
X1710270Y340540D03*
X1699270Y340540D03*
X1688270Y340540D03*
X1677270Y340540D03*
X1666270Y340540D03*
X1655270Y340540D03*
X1644270Y340540D03*
D18*
X1616270Y332040D03*
X1616270Y321040D03*
X1616270Y310040D03*
X1616270Y299040D03*
X1616270Y288040D03*
X1616270Y277040D03*
X1616270Y266040D03*
X1616270Y255040D03*
X1616270Y244040D03*
X1616270Y233040D03*
X1616270Y222040D03*
X1616270Y211040D03*
X1616270Y200040D03*
D19*
X1705270Y255540D03*
X1684270Y255540D03*
X1663270Y255540D03*
X1642270Y255540D03*
X1705270Y235040D03*
X1684270Y235040D03*
X1663270Y235040D03*
X1642270Y235040D03*
X1705270Y214540D03*
X1684270Y214540D03*
X1663270Y214540D03*
X1642270Y214540D03*
X1705270Y317540D03*
X1684270Y317540D03*
X1663270Y317540D03*
X1642270Y317540D03*
X1705270Y297040D03*
X1684270Y297040D03*
X1663270Y297040D03*
X1642270Y297040D03*
X1705270Y276540D03*
X1684270Y276540D03*
X1663270Y276540D03*
X1642270Y276540D03*
X1726270Y276540D03*
X1747270Y276540D03*
X1768270Y276540D03*
X1789270Y276540D03*
X1726270Y297040D03*
X1747270Y297040D03*
X1768270Y297040D03*
X1789270Y297040D03*
X1726270Y317540D03*
X1747270Y317540D03*
X1768270Y317540D03*
X1789270Y317540D03*
X1726270Y214540D03*
X1747270Y214540D03*
X1768270Y214540D03*
X1789270Y214540D03*
X1726270Y235040D03*
X1747270Y235040D03*
X1768270Y235040D03*
X1789270Y235040D03*
X1726270Y255540D03*
X1747270Y255540D03*
X1768270Y255540D03*
X1789270Y255540D03*
D12*
X1762370Y98240D03*
X1745370Y98240D03*
X1669170Y98240D03*
X1686170Y98240D03*
D20*
X1723270Y58010D03*
X1718270Y58010D03*
D21*
X1748020Y58010D03*
X1740270Y58010D03*
D20*
X1733270Y58010D03*
X1728270Y58010D03*
X1708270Y58010D03*
X1713270Y58010D03*
D21*
X1683520Y58010D03*
X1691270Y58010D03*
D20*
X1698270Y58010D03*
X1703270Y58010D03*
D22*
X1686870Y46960D03*
X1744670Y46960D03*
D13*
X1766570Y371840D03*
X1766570Y388840D03*
D12*
X1719970Y405740D03*
X1736970Y405740D03*
D23*
X1698070Y134990D03*
D24*
X1703070Y134740D03*
X1708070Y134740D03*
X1708070Y143340D03*
X1703070Y143340D03*
X1698070Y143340D03*
D25*
X1643970Y35450D03*
D26*
X1601470Y81450D03*
D25*
X1558970Y35450D03*
D27*
X1581870Y292140D03*
D28*
X1581870Y300140D03*
X1581870Y308140D03*
D27*
X1595070Y292140D03*
D28*
X1595070Y300140D03*
X1595070Y308140D03*
D29*
X1594970Y316140D03*
D27*
X1581870Y316140D03*
X1581870Y228640D03*
D28*
X1581870Y236640D03*
X1581870Y244640D03*
D27*
X1595070Y228640D03*
D28*
X1595070Y236640D03*
X1595070Y244640D03*
D29*
X1594970Y252640D03*
D27*
X1581870Y252640D03*
D13*
X1588770Y333740D03*
X1588770Y350740D03*
D30*
X1430782Y282677D03*
X1430782Y782803D03*
X2000758Y782803D03*
X2000758Y282677D03*
D12*
X1546470Y376530D03*
X1529470Y376530D03*
D11*
X1543250Y357160D02*
X1543250Y350180D01*
X1543250Y357160D02*
X1550230Y357160D01*
X1550230Y350180D01*
X1543250Y350180D01*
X1543250Y354980D02*
X1550230Y354980D01*
X1525710Y357160D02*
X1525710Y350180D01*
X1525710Y357160D02*
X1532690Y357160D01*
X1532690Y350180D01*
X1525710Y350180D01*
X1525710Y354980D02*
X1532690Y354980D01*
D31*
X2022950Y468140D03*
X2002950Y468140D03*
D32*
X2046950Y416140D03*
X1978950Y416140D03*
D33*
X1536870Y1018040D03*
X1536870Y1038040D03*
D34*
X1484870Y994040D03*
X1484870Y1062040D03*
D35*
X1576070Y1028040D03*
X1576070Y1002640D03*
D12*
X1668390Y627990D03*
X1651390Y627990D03*
D11*
X1665170Y618780D02*
X1665170Y611800D01*
X1665170Y618780D02*
X1672150Y618780D01*
X1672150Y611800D01*
X1665170Y611800D01*
X1665170Y616600D02*
X1672150Y616600D01*
X1647630Y618780D02*
X1647630Y611800D01*
X1647630Y618780D02*
X1654610Y618780D01*
X1654610Y611800D01*
X1647630Y611800D01*
X1647630Y616600D02*
X1654610Y616600D01*
D12*
X1668390Y551790D03*
X1651390Y551790D03*
D11*
X1665170Y542580D02*
X1665170Y535600D01*
X1665170Y542580D02*
X1672150Y542580D01*
X1672150Y535600D01*
X1665170Y535600D01*
X1665170Y540400D02*
X1672150Y540400D01*
X1647630Y542580D02*
X1647630Y535600D01*
X1647630Y542580D02*
X1654610Y542580D01*
X1654610Y535600D01*
X1647630Y535600D01*
X1647630Y540400D02*
X1654610Y540400D01*
D12*
X1668390Y475590D03*
X1651390Y475590D03*
D11*
X1665170Y466380D02*
X1665170Y459400D01*
X1665170Y466380D02*
X1672150Y466380D01*
X1672150Y459400D01*
X1665170Y459400D01*
X1665170Y464200D02*
X1672150Y464200D01*
X1647630Y466380D02*
X1647630Y459400D01*
X1647630Y466380D02*
X1654610Y466380D01*
X1654610Y459400D01*
X1647630Y459400D01*
X1647630Y464200D02*
X1654610Y464200D01*
D31*
X1427320Y468140D03*
X1407320Y468140D03*
D32*
X1451320Y416140D03*
X1383320Y416140D03*
D20*
X1837570Y58010D03*
X1832570Y58010D03*
D21*
X1862320Y58010D03*
X1854570Y58010D03*
D20*
X1847570Y58010D03*
X1842570Y58010D03*
X1822570Y58010D03*
X1827570Y58010D03*
D21*
X1797820Y58010D03*
X1805570Y58010D03*
D20*
X1812570Y58010D03*
X1817570Y58010D03*
D22*
X1801170Y46960D03*
X1858970Y46960D03*
D12*
X1876670Y98240D03*
X1859670Y98240D03*
X1783470Y98240D03*
X1800470Y98240D03*
D36*
X1468420Y44880D03*
D37*
X1524420Y12880D03*
X1449920Y12880D03*
D36*
X1480920Y44880D03*
X1493420Y44880D03*
X1505920Y44880D03*
X1925620Y44880D03*
D37*
X1981620Y12880D03*
X1907120Y12880D03*
D36*
X1938120Y44880D03*
X1950620Y44880D03*
X1963120Y44880D03*
D12*
X1780150Y627990D03*
X1763150Y627990D03*
D11*
X1776930Y618780D02*
X1776930Y611800D01*
X1776930Y618780D02*
X1783910Y618780D01*
X1783910Y611800D01*
X1776930Y611800D01*
X1776930Y616600D02*
X1783910Y616600D01*
X1759390Y618780D02*
X1759390Y611800D01*
X1759390Y618780D02*
X1766370Y618780D01*
X1766370Y611800D01*
X1759390Y611800D01*
X1759390Y616600D02*
X1766370Y616600D01*
D35*
X1525270Y71890D03*
X1499870Y71890D03*
X1474470Y71890D03*
X1449070Y71890D03*
X1982470Y174440D03*
X1957070Y174440D03*
X1931670Y174440D03*
X1906270Y174440D03*
X1906270Y240640D03*
X1906270Y266040D03*
X1906270Y291440D03*
X1906270Y316840D03*
D27*
X1861270Y266740D03*
D28*
X1861270Y274740D03*
X1861270Y282740D03*
D27*
X1874470Y266740D03*
D28*
X1874470Y274740D03*
X1874470Y282740D03*
D29*
X1874370Y290740D03*
D27*
X1861270Y290740D03*
D35*
X1398270Y342240D03*
X1398270Y316840D03*
D12*
X1884290Y174440D03*
X1867290Y174440D03*
D38*
X1841570Y110940D03*
X1818570Y110940D03*
D39*
X1767840Y79190D03*
X1778000Y79190D03*
D35*
X1760220Y79190D03*
X1785620Y79190D03*
D39*
X1532890Y1086460D03*
X1543050Y1086460D03*
D35*
X1525270Y1086460D03*
X1550670Y1086460D03*
X2000770Y980340D03*
X2000770Y954940D03*
D40*
X1878820Y363400D03*
X1878820Y352400D03*
X1878820Y341400D03*
X1908320Y341400D03*
X1908320Y352400D03*
X1908320Y363400D03*
D12*
X1861430Y367640D03*
X1844430Y367640D03*
X1861430Y337160D03*
X1844430Y337160D03*
X1861430Y352400D03*
X1844430Y352400D03*
D14*
X1728771Y447040D03*
X1728771Y456540D03*
X1728771Y466040D03*
X1702769Y466040D03*
X1702769Y447040D03*
D12*
X1724270Y481940D03*
X1707270Y481940D03*
X1707270Y431140D03*
X1724270Y431140D03*
D41*
X1471620Y214840D03*
X1471620Y189840D03*
X1471620Y164840D03*
X1528120Y214840D03*
X1528120Y189840D03*
X1528120Y164840D03*
D42*
X1499870Y204840D03*
X1499870Y174840D03*
D41*
X1471620Y341840D03*
X1471620Y316840D03*
X1471620Y291840D03*
X1528120Y341840D03*
X1528120Y316840D03*
X1528120Y291840D03*
D42*
X1499870Y331840D03*
X1499870Y301840D03*
D23*
X1825070Y134990D03*
D24*
X1830070Y134740D03*
X1835070Y134740D03*
X1835070Y143340D03*
X1830070Y143340D03*
X1825070Y143340D03*
D35*
X1728470Y139040D03*
X1753870Y139040D03*
X1779270Y139040D03*
X1804670Y139040D03*
X1563370Y278740D03*
X1563370Y253340D03*
X1563370Y227940D03*
X1563370Y202540D03*
X1563370Y177140D03*
D42*
X1442974Y204840D03*
X1442974Y174840D03*
D43*
X1444050Y655850D03*
X1388050Y655850D03*
D44*
X1431050Y619100D03*
X1421050Y619100D03*
X1411050Y619100D03*
X1401050Y619100D03*
D45*
X-20320Y1035990D03*
X2075815Y1035990D03*
D46*
X-29375Y40005D02*
X-29372Y40227D01*
X-29364Y40449D01*
X-29350Y40671D01*
X-29331Y40893D01*
X-29307Y41113D01*
X-29277Y41334D01*
X-29242Y41553D01*
X-29201Y41772D01*
X-29155Y41989D01*
X-29104Y42205D01*
X-29047Y42420D01*
X-28985Y42634D01*
X-28918Y42845D01*
X-28846Y43056D01*
X-28768Y43264D01*
X-28686Y43470D01*
X-28598Y43674D01*
X-28506Y43877D01*
X-28408Y44076D01*
X-28306Y44273D01*
X-28199Y44468D01*
X-28087Y44660D01*
X-27970Y44849D01*
X-27849Y45036D01*
X-27723Y45219D01*
X-27593Y45399D01*
X-27458Y45576D01*
X-27320Y45749D01*
X-27177Y45919D01*
X-27029Y46086D01*
X-26878Y46249D01*
X-26723Y46408D01*
X-26564Y46563D01*
X-26401Y46714D01*
X-26234Y46862D01*
X-26064Y47005D01*
X-25891Y47143D01*
X-25714Y47278D01*
X-25534Y47408D01*
X-25351Y47534D01*
X-25164Y47655D01*
X-24975Y47772D01*
X-24783Y47884D01*
X-24588Y47991D01*
X-24391Y48093D01*
X-24192Y48191D01*
X-23989Y48283D01*
X-23785Y48371D01*
X-23579Y48453D01*
X-23371Y48531D01*
X-23160Y48603D01*
X-22949Y48670D01*
X-22735Y48732D01*
X-22520Y48789D01*
X-22304Y48840D01*
X-22087Y48886D01*
X-21868Y48927D01*
X-21649Y48962D01*
X-21428Y48992D01*
X-21208Y49016D01*
X-20986Y49035D01*
X-20764Y49049D01*
X-20542Y49057D01*
X-20320Y49060D01*
X-20098Y49057D01*
X-19876Y49049D01*
X-19654Y49035D01*
X-19432Y49016D01*
X-19212Y48992D01*
X-18991Y48962D01*
X-18772Y48927D01*
X-18553Y48886D01*
X-18336Y48840D01*
X-18120Y48789D01*
X-17905Y48732D01*
X-17691Y48670D01*
X-17480Y48603D01*
X-17269Y48531D01*
X-17061Y48453D01*
X-16855Y48371D01*
X-16651Y48283D01*
X-16448Y48191D01*
X-16249Y48093D01*
X-16052Y47991D01*
X-15857Y47884D01*
X-15665Y47772D01*
X-15476Y47655D01*
X-15289Y47534D01*
X-15106Y47408D01*
X-14926Y47278D01*
X-14749Y47143D01*
X-14576Y47005D01*
X-14406Y46862D01*
X-14239Y46714D01*
X-14076Y46563D01*
X-13917Y46408D01*
X-13762Y46249D01*
X-13611Y46086D01*
X-13463Y45919D01*
X-13320Y45749D01*
X-13182Y45576D01*
X-13047Y45399D01*
X-12917Y45219D01*
X-12791Y45036D01*
X-12670Y44849D01*
X-12553Y44660D01*
X-12441Y44468D01*
X-12334Y44273D01*
X-12232Y44076D01*
X-12134Y43877D01*
X-12042Y43674D01*
X-11954Y43470D01*
X-11872Y43264D01*
X-11794Y43056D01*
X-11722Y42845D01*
X-11655Y42634D01*
X-11593Y42420D01*
X-11536Y42205D01*
X-11485Y41989D01*
X-11439Y41772D01*
X-11398Y41553D01*
X-11363Y41334D01*
X-11333Y41113D01*
X-11309Y40893D01*
X-11290Y40671D01*
X-11276Y40449D01*
X-11268Y40227D01*
X-11265Y40005D01*
X-11268Y39783D01*
X-11276Y39561D01*
X-11290Y39339D01*
X-11309Y39117D01*
X-11333Y38897D01*
X-11363Y38676D01*
X-11398Y38457D01*
X-11439Y38238D01*
X-11485Y38021D01*
X-11536Y37805D01*
X-11593Y37590D01*
X-11655Y37376D01*
X-11722Y37165D01*
X-11794Y36954D01*
X-11872Y36746D01*
X-11954Y36540D01*
X-12042Y36336D01*
X-12134Y36133D01*
X-12232Y35934D01*
X-12334Y35737D01*
X-12441Y35542D01*
X-12553Y35350D01*
X-12670Y35161D01*
X-12791Y34974D01*
X-12917Y34791D01*
X-13047Y34611D01*
X-13182Y34434D01*
X-13320Y34261D01*
X-13463Y34091D01*
X-13611Y33924D01*
X-13762Y33761D01*
X-13917Y33602D01*
X-14076Y33447D01*
X-14239Y33296D01*
X-14406Y33148D01*
X-14576Y33005D01*
X-14749Y32867D01*
X-14926Y32732D01*
X-15106Y32602D01*
X-15289Y32476D01*
X-15476Y32355D01*
X-15665Y32238D01*
X-15857Y32126D01*
X-16052Y32019D01*
X-16249Y31917D01*
X-16448Y31819D01*
X-16651Y31727D01*
X-16855Y31639D01*
X-17061Y31557D01*
X-17269Y31479D01*
X-17480Y31407D01*
X-17691Y31340D01*
X-17905Y31278D01*
X-18120Y31221D01*
X-18336Y31170D01*
X-18553Y31124D01*
X-18772Y31083D01*
X-18991Y31048D01*
X-19212Y31018D01*
X-19432Y30994D01*
X-19654Y30975D01*
X-19876Y30961D01*
X-20098Y30953D01*
X-20320Y30950D01*
X-20542Y30953D01*
X-20764Y30961D01*
X-20986Y30975D01*
X-21208Y30994D01*
X-21428Y31018D01*
X-21649Y31048D01*
X-21868Y31083D01*
X-22087Y31124D01*
X-22304Y31170D01*
X-22520Y31221D01*
X-22735Y31278D01*
X-22949Y31340D01*
X-23160Y31407D01*
X-23371Y31479D01*
X-23579Y31557D01*
X-23785Y31639D01*
X-23989Y31727D01*
X-24192Y31819D01*
X-24391Y31917D01*
X-24588Y32019D01*
X-24783Y32126D01*
X-24975Y32238D01*
X-25164Y32355D01*
X-25351Y32476D01*
X-25534Y32602D01*
X-25714Y32732D01*
X-25891Y32867D01*
X-26064Y33005D01*
X-26234Y33148D01*
X-26401Y33296D01*
X-26564Y33447D01*
X-26723Y33602D01*
X-26878Y33761D01*
X-27029Y33924D01*
X-27177Y34091D01*
X-27320Y34261D01*
X-27458Y34434D01*
X-27593Y34611D01*
X-27723Y34791D01*
X-27849Y34974D01*
X-27970Y35161D01*
X-28087Y35350D01*
X-28199Y35542D01*
X-28306Y35737D01*
X-28408Y35934D01*
X-28506Y36133D01*
X-28598Y36336D01*
X-28686Y36540D01*
X-28768Y36746D01*
X-28846Y36954D01*
X-28918Y37165D01*
X-28985Y37376D01*
X-29047Y37590D01*
X-29104Y37805D01*
X-29155Y38021D01*
X-29201Y38238D01*
X-29242Y38457D01*
X-29277Y38676D01*
X-29307Y38897D01*
X-29331Y39117D01*
X-29350Y39339D01*
X-29364Y39561D01*
X-29372Y39783D01*
X-29375Y40005D01*
D47*
X-20320Y40005D03*
M02*
