M48
;GenerationSoftware,Autodesk,EAGLE,9.6.2*%
;CreationDate,2020-12-10T21:10:29Z*%
FMAT,2
ICI,OFF
METRIC,TZ,000.000
T7C0.305
T6C0.381
T5C0.400
T4C0.650
T3C0.850
T2C1.016
T1C3.200
%
G90
M71
T1
X200076Y28268
X62662Y78280
X62662Y28268
X143078Y28268
X143078Y78280
X74371Y28268
X74371Y78280
X131369Y78280
X131369Y28268
X200076Y78280
X5664Y28268
X5664Y78280
T2
X109855Y7919
X83820Y108646
X86360Y108646
X131370Y98034
X156337Y17714
X131370Y95494
X104140Y13904
X106680Y13904
X109220Y13904
X111760Y13904
X87630Y27874
X87630Y25334
X87630Y22794
X87630Y20254
X87630Y17714
X43053Y13904
X157607Y102804
X157607Y100264
X152527Y7189
X149987Y7189
X147447Y7189
X144907Y7189
X198247Y17444
X195707Y17444
X193167Y17444
X190627Y24064
X190627Y26604
X190627Y29144
X190627Y31684
X139827Y34224
X139827Y31684
X176022Y7919
X178562Y7919
X152527Y108646
X155067Y108646
X200077Y98034
X200077Y95494
X172847Y13904
X175387Y13904
X177927Y13904
X180467Y13904
X20193Y102804
X20193Y100264
X156337Y27874
X156337Y25334
X156337Y22794
X156337Y20254
X15113Y7189
X12573Y7189
X10033Y7189
X7493Y7189
X60833Y17444
X58293Y17444
X55753Y17444
X53213Y17444
X53213Y24064
X53213Y26604
X53213Y29144
X53213Y31684
X2413Y34224
X2413Y31684
X38608Y7919
X41148Y7919
X15113Y108646
X17653Y108646
X62663Y98034
X62663Y95494
X35433Y13904
X37973Y13904
X40513Y13904
X190627Y17444
X18923Y27874
X18923Y25334
X18923Y22794
X18923Y20254
X18923Y17714
X88900Y102804
X88900Y100264
X83820Y7189
X81280Y7189
X78740Y7189
X76200Y7189
X129540Y17444
X127000Y17444
X124460Y17444
X121920Y17444
X121920Y24064
X121920Y26604
X121920Y29144
X121920Y31684
X71120Y34224
X71120Y31684
X107315Y7919
T3
X6883Y17484
X81280Y20484
X81280Y17484
X6883Y20484
X144297Y17484
X144297Y20484
X81280Y33184
X149987Y17484
X81280Y30184
X75590Y20484
X12573Y20484
X12573Y17484
X12573Y33184
X12573Y30184
X149987Y30184
X75590Y17484
X149987Y33184
X149987Y20484
T4
X105760Y4696
X37053Y4696
X31273Y4696
X42703Y4696
X48483Y4696
X99980Y4696
X111410Y4696
X117190Y4696
X168687Y4696
X174467Y4696
X180117Y4696
X185897Y4696
T5
X29845Y1046
X38481Y1046
X38481Y5226
X29845Y5226
X41275Y1046
X49911Y1046
X49911Y5226
X41275Y5226
X118618Y1046
X118618Y5226
X178689Y1046
X187325Y1046
X187325Y5226
X178689Y5226
X109982Y5226
X107188Y5226
X98552Y5226
X98552Y1046
X107188Y1046
X109982Y1046
X167259Y1046
X175895Y1046
X175895Y5226
X167259Y5226
T6
X100457Y7030
X36703Y7030
X31750Y7030
X174117Y7030
X169164Y7030
X105410Y7030
T7
X30353Y95184
X30353Y96454
X37973Y96454
X37973Y95184
X36703Y90104
X35433Y90104
X34163Y90104
X32893Y90104
X31623Y90104
X30353Y90104
X30353Y97724
X31623Y97724
X32893Y97724
X34163Y97724
X35433Y97724
X36703Y97724
X37973Y97724
X37973Y90104
X32893Y96454
X32893Y95184
X34163Y95184
X34163Y96454
X35433Y96454
X35433Y95184
X58547Y2998
X48895Y7062
X24130Y101534
X44069Y101534
X39751Y101534
X27559Y101534
X39878Y85151
X39878Y82103
X36703Y45654
X18669Y34859
X13589Y106741
X50927Y19857
X50292Y8554
X45593Y12507
X5715Y63434
X44323Y12618
X40155Y39787
X16929Y27874
X17907Y39685
X24130Y99121
X24765Y38796
X20066Y107376
X26759Y72070
X16586Y29982
X16362Y40722
X39776Y41361
X43688Y11856
X24257Y95184
X26797Y40828
X21717Y106779
X26162Y71054
X32512Y35570
X32512Y41971
X20447Y38923
X27813Y41971
X43409Y55179
X11303Y17714
X59436Y38669
X49149Y39456
X53213Y40955
X43498Y46286
X34163Y15174
X27813Y38923
X31623Y15174
X30353Y38923
X11303Y16444
X8763Y38034
X50381Y37843
X17653Y16444
X19685Y37018
X51689Y35621
X51473Y31347
X48311Y39787
X39853Y42217
X39230Y99248
X16002Y98994
X35011Y50013
X34925Y87691
X23644Y87967
X57023Y35494
X15367Y27874
X5385Y23048
X56134Y37399
X8077Y18984
X13246Y34605
X13208Y21524
X9779Y22794
X9779Y35748
X14605Y88199
X23876Y85151
X12404Y92559
X48133Y96073
X41021Y88834
X31623Y88834
X20828Y27874
X44069Y65720
X31623Y62799
X11303Y18984
X11938Y38631
X29845Y41844
X24257Y87310
X30353Y87056
X40132Y90231
X50419Y90231
X48679Y31372
X41021Y86967
X32385Y86929
X20828Y26604
X7112Y23302
X24257Y91501
X50061Y29982
X40618Y91606
X24257Y90231
X5207Y39177
X25527Y41336
X24257Y86421
X24892Y42733
X19304Y35710
X13843Y18984
X13843Y40193
X29083Y40472
X29083Y88834
X24130Y89342
X28448Y50099
X31394Y58354
X40894Y97724
X18415Y99248
X18415Y107249
X40132Y80325
X20193Y80325
X47968Y17206
X40424Y79487
X20066Y79182
X47968Y16368
X43180Y7665
X48006Y7665
X45720Y7792
X22733Y73594
X22733Y98740
X38862Y73467
X40513Y38669
X62865Y43114
X32893Y15682
X46736Y10053
X53848Y37526
X45720Y15682
X24257Y93156
X50927Y29906
X40640Y92644
X24130Y100391
X49695Y30802
X39624Y100264
X43942Y91501
X50838Y31982
X43942Y92771
X50800Y32954
X22885Y23658
X22606Y27620
X10922Y29144
X7493Y30160
X4064Y23023
X123190Y40574
X106680Y40574
X87630Y76642
X120904Y76769
X106426Y76515
X123825Y3093
X103687Y3164
X87630Y69784
X106680Y38923
X103886Y41971
X110998Y6808
X125603Y2998
X81915Y2998
X99060Y14412
X101981Y12237
X105664Y8713
X99441Y7062
X79629Y94295
X79502Y84643
X89789Y95184
X89281Y93279
X96647Y28636
X98806Y28636
X100965Y28636
X102997Y28636
X105156Y28636
X107188Y28636
X109347Y28636
X111379Y28636
X94488Y28636
X96520Y30668
X98679Y30668
X100838Y30668
X102870Y30668
X105029Y30668
X107061Y30668
X109220Y30668
X111252Y30668
X94361Y30668
X96520Y32700
X98679Y32700
X100838Y32700
X102870Y32700
X105029Y32700
X107061Y32700
X109220Y32700
X111252Y32700
X94361Y32700
X96647Y22540
X98806Y22540
X100965Y22540
X102997Y22540
X105156Y22540
X107188Y22540
X109347Y22540
X111379Y22540
X94488Y22540
X96520Y24572
X98679Y24572
X100838Y24572
X102870Y24572
X105029Y24572
X107061Y24572
X109220Y24572
X111252Y24572
X94361Y24572
X96520Y26604
X98679Y26604
X100838Y26604
X102870Y26604
X105029Y26604
X107061Y26604
X109220Y26604
X111252Y26604
X94361Y26604
X96520Y20508
X98679Y20508
X100838Y20508
X102870Y20508
X105029Y20508
X107061Y20508
X109220Y20508
X111252Y20508
X94361Y20508
X94042Y17360
X106807Y17460
X103759Y17460
X105791Y17460
X107950Y17460
X109982Y17460
X92691Y17360
X91567Y35621
X93726Y35621
X95758Y35621
X100076Y35748
X105664Y35748
X107696Y35748
X109601Y35748
X111760Y35875
X113792Y35875
X114554Y33970
X114554Y26731
X114554Y23810
X114554Y22413
X114554Y20889
X114681Y18603
X114554Y35113
X111252Y19238
X113665Y17206
X112014Y17206
X95112Y17360
X96085Y15917
X95323Y15228
X94561Y14466
X93472Y13650
X92456Y14888
X91694Y13999
X92710Y11956
X90424Y8078
X89408Y8554
X93980Y8681
X88011Y8427
X86233Y7824
X92583Y7824
X85979Y6427
X85979Y5030
X85979Y3633
X85979Y839
X85979Y2236
X93726Y12618
X94615Y13134
X91313Y17333
X91313Y19365
X92837Y18857
X91440Y26604
X90678Y13110
X95804Y13396
X96393Y14412
X97282Y15301
X95431Y11956
X95504Y7824
X96901Y7697
X96774Y6427
X96774Y4903
X96774Y3760
X96774Y2236
X96774Y839
X97917Y17841
X94361Y18857
X94234Y34351
X92964Y34351
X111379Y34351
X112903Y34478
X113030Y18857
X72009Y43622
X102235Y51750
X90551Y9697
X92583Y9697
X125603Y96835
X112014Y53782
X100711Y53909
X100330Y61529
X112141Y61529
X99060Y95184
X99060Y96454
X106680Y96454
X106680Y95184
X105410Y90104
X104140Y90104
X102870Y90104
X101600Y90104
X100330Y90104
X99060Y90104
X99060Y97724
X100330Y97724
X101600Y97724
X102870Y97724
X104140Y97724
X105410Y97724
X106680Y97724
X106680Y90104
X101600Y96454
X101600Y95184
X102870Y95184
X102870Y96454
X104140Y96454
X104140Y95184
X127254Y2998
X117602Y7062
X92837Y101534
X112776Y101534
X108458Y101534
X96266Y101534
X108585Y85151
X108585Y82103
X105410Y45654
X87376Y34859
X82296Y106741
X119634Y19857
X118999Y8554
X114300Y12507
X74422Y63434
X113030Y12618
X108862Y39787
X85636Y27874
X86614Y39685
X92837Y99121
X93472Y38796
X88773Y107376
X95466Y72070
X85293Y29982
X85069Y40722
X108483Y41361
X112395Y11856
X92964Y95184
X95504Y40828
X90424Y106779
X94869Y71054
X101219Y35570
X101219Y41971
X89154Y38923
X96520Y41971
X112116Y55179
X80010Y17714
X128143Y38669
X117856Y39456
X121920Y40955
X112204Y46286
X102870Y15174
X96520Y38923
X100330Y15174
X99060Y38923
X80010Y16444
X77470Y38034
X119088Y37843
X86360Y16444
X88392Y37018
X120396Y35621
X120180Y31347
X117018Y39787
X108560Y42217
X107937Y99248
X84709Y98994
X103718Y50013
X28067Y4903
X92351Y87967
X125730Y35494
X84074Y27874
X74092Y23048
X124841Y37399
X76784Y18984
X81953Y34605
X81915Y21524
X78486Y22794
X78486Y35748
X83312Y88199
X92583Y85151
X81111Y92559
X116840Y96073
X109728Y88834
X100330Y88834
X89535Y27874
X112776Y65720
X100330Y62799
X80010Y18984
X80645Y38631
X98552Y41844
X92964Y87310
X99060Y87056
X108839Y90231
X119126Y90231
X117386Y31372
X109728Y86967
X101092Y86929
X89535Y26604
X75819Y23302
X92964Y91501
X118768Y29982
X109325Y91606
X92964Y90231
X73914Y39177
X94234Y41336
X92964Y86421
X93599Y42733
X88011Y35710
X82550Y18984
X82550Y40193
X97790Y40472
X97790Y88834
X92837Y89342
X97155Y50099
X100101Y58354
X109601Y97724
X87122Y99248
X87122Y107249
X108839Y80325
X88900Y80325
X116675Y17206
X109131Y79487
X88773Y79182
X116675Y16368
X111887Y7665
X116713Y7665
X114427Y7792
X91440Y73594
X91440Y98740
X107569Y73467
X109220Y38669
X131572Y43114
X101600Y15682
X115443Y10053
X122555Y37526
X114427Y15682
X92964Y93156
X119634Y29906
X109347Y92644
X92837Y100391
X118402Y30802
X108331Y100264
X54483Y40574
X37973Y40574
X112649Y91501
X119545Y31982
X112649Y92771
X119507Y32954
X91592Y23658
X91313Y27620
X79629Y29144
X76200Y30160
X72771Y23023
X191897Y40574
X175387Y40574
X156337Y76642
X189611Y76769
X175133Y76515
X192532Y3093
X172395Y3164
X156337Y69784
X175387Y38923
X172593Y41971
X179705Y6808
X194310Y2998
X150622Y2998
X167767Y14412
X170688Y12237
X174371Y8713
X168148Y7062
X148336Y94295
X148209Y84643
X158496Y95184
X157988Y93279
X165354Y28636
X167513Y28636
X169672Y28636
X171704Y28636
X173863Y28636
X175895Y28636
X178054Y28636
X180086Y28636
X163195Y28636
X165227Y30668
X167386Y30668
X169545Y30668
X171577Y30668
X173736Y30668
X175768Y30668
X177927Y30668
X179959Y30668
X163068Y30668
X165227Y32700
X167386Y32700
X169545Y32700
X171577Y32700
X173736Y32700
X175768Y32700
X177927Y32700
X179959Y32700
X163068Y32700
X165354Y22540
X167513Y22540
X169672Y22540
X171704Y22540
X173863Y22540
X175895Y22540
X178054Y22540
X180086Y22540
X163195Y22540
X165227Y24572
X167386Y24572
X169545Y24572
X171577Y24572
X173736Y24572
X175768Y24572
X177927Y24572
X179959Y24572
X163068Y24572
X165227Y26604
X167386Y26604
X169545Y26604
X171577Y26604
X173736Y26604
X175768Y26604
X177927Y26604
X179959Y26604
X163068Y26604
X165227Y20508
X167386Y20508
X169545Y20508
X171577Y20508
X173736Y20508
X175768Y20508
X177927Y20508
X179959Y20508
X163068Y20508
X162749Y17360
X175514Y17460
X172466Y17460
X174498Y17460
X176657Y17460
X178689Y17460
X161398Y17360
X160274Y35621
X162433Y35621
X164465Y35621
X168783Y35748
X174371Y35748
X176403Y35748
X178308Y35748
X180467Y35875
X182499Y35875
X183261Y33970
X183261Y26731
X183261Y23810
X183261Y22413
X183261Y20889
X183388Y18603
X183261Y35113
X179959Y19238
X182372Y17206
X180721Y17206
X163819Y17360
X164792Y15917
X164030Y15228
X163268Y14466
X162179Y13650
X161163Y14888
X160401Y13999
X161417Y11956
X159131Y8078
X158115Y8554
X162687Y8681
X156718Y8427
X154940Y7824
X161290Y7824
X154686Y6427
X154686Y5030
X154686Y3633
X154686Y839
X154686Y2236
X162433Y12618
X163322Y13134
X160020Y17333
X160020Y19365
X161544Y18857
X160147Y26604
X159385Y13110
X164511Y13396
X165100Y14412
X165989Y15301
X164138Y11956
X164211Y7824
X165608Y7697
X165481Y6427
X165481Y4903
X165481Y3760
X165481Y2236
X165481Y839
X166624Y17841
X163068Y18857
X162941Y34351
X161671Y34351
X180086Y34351
X181610Y34478
X181737Y18857
X140716Y43622
X170942Y51750
X159258Y9697
X161290Y9697
X194310Y96835
X180721Y53782
X169418Y53909
X169037Y61529
X180848Y61529
X167767Y95184
X167767Y96454
X175387Y96454
X175387Y95184
X174117Y90104
X172847Y90104
X171577Y90104
X170307Y90104
X169037Y90104
X167767Y90104
X167767Y97724
X169037Y97724
X170307Y97724
X171577Y97724
X172847Y97724
X174117Y97724
X175387Y97724
X175387Y90104
X170307Y96454
X170307Y95184
X171577Y95184
X171577Y96454
X172847Y96454
X172847Y95184
X195961Y2998
X186309Y7062
X161544Y101534
X181483Y101534
X177165Y101534
X164973Y101534
X177292Y85151
X177292Y82103
X174117Y45654
X156083Y34859
X151003Y106741
X188341Y19857
X187706Y8554
X183007Y12507
X143129Y63434
X18923Y76642
X177569Y39787
X154343Y27874
X155321Y39685
X161544Y99121
X162179Y38796
X157480Y107376
X164173Y72070
X154000Y29982
X153776Y40722
X177190Y41361
X181102Y11856
X161671Y95184
X164211Y40828
X159131Y106779
X163576Y71054
X169926Y35570
X169926Y41971
X157861Y38923
X165227Y41971
X180823Y55179
X148717Y17714
X196850Y38669
X186563Y39456
X190627Y40955
X180911Y46286
X171577Y15174
X165227Y38923
X169037Y15174
X167767Y38923
X148717Y16444
X146177Y38034
X187795Y37843
X155067Y16444
X157099Y37018
X189103Y35621
X188887Y31347
X185725Y39787
X177267Y42217
X176644Y99248
X153416Y98994
X172425Y50013
X172339Y87691
X161058Y87967
X194437Y35494
X152781Y27874
X142799Y23048
X193548Y37399
X145491Y18984
X150660Y34605
X150622Y21524
X147193Y22794
X147193Y35748
X152019Y88199
X161290Y85151
X149818Y92559
X185547Y96073
X178435Y88834
X169037Y88834
X158242Y27874
X181483Y65720
X169037Y62799
X148717Y18984
X149352Y38631
X167259Y41844
X161671Y87310
X167767Y87056
X177546Y90231
X187833Y90231
X186093Y31372
X178435Y86967
X169799Y86929
X158242Y26604
X144526Y23302
X161671Y91501
X187475Y29982
X178032Y91606
X161671Y90231
X142621Y39177
X162941Y41336
X161671Y86421
X162306Y42733
X156718Y35710
X151257Y18984
X151257Y40193
X166497Y40472
X166497Y88834
X161544Y89342
X165862Y50099
X168808Y58354
X178308Y97724
X155829Y99248
X155829Y107249
X177546Y80325
X157607Y80325
X185382Y17206
X177838Y79487
X157480Y79182
X185382Y16368
X180594Y7665
X185420Y7665
X183134Y7792
X160147Y73594
X160147Y98740
X176276Y73467
X177927Y38669
X200279Y43114
X170307Y15682
X184150Y10053
X191262Y37526
X183134Y15682
X161671Y93156
X188341Y29906
X178054Y92644
X161544Y100391
X187109Y30802
X177038Y100264
X52197Y76769
X37719Y76515
X181356Y91501
X188252Y31982
X181356Y92771
X188214Y32954
X160299Y23658
X160020Y27620
X148336Y29144
X144907Y30160
X141478Y23023
X55118Y3093
X34981Y3164
X18923Y69784
X37973Y38923
X35179Y41971
X42291Y6808
X56896Y2998
X13208Y2998
X30353Y14412
X33274Y12237
X36957Y8713
X30734Y7062
X10922Y94295
X10795Y84643
X21082Y95184
X103632Y87691
X20574Y93279
X27940Y28636
X30099Y28636
X32258Y28636
X34290Y28636
X36449Y28636
X38481Y28636
X40640Y28636
X42672Y28636
X25781Y28636
X27813Y30668
X29972Y30668
X32131Y30668
X34163Y30668
X36322Y30668
X38354Y30668
X40513Y30668
X42545Y30668
X25654Y30668
X27813Y32700
X29972Y32700
X32131Y32700
X34163Y32700
X36322Y32700
X38354Y32700
X40513Y32700
X42545Y32700
X25654Y32700
X27940Y22540
X30099Y22540
X32258Y22540
X34290Y22540
X36449Y22540
X38481Y22540
X40640Y22540
X42672Y22540
X25781Y22540
X27813Y24572
X29972Y24572
X32131Y24572
X34163Y24572
X36322Y24572
X38354Y24572
X40513Y24572
X42545Y24572
X25654Y24572
X27813Y26604
X29972Y26604
X32131Y26604
X34163Y26604
X36322Y26604
X38354Y26604
X40513Y26604
X42545Y26604
X25654Y26604
X27813Y20508
X29972Y20508
X32131Y20508
X34163Y20508
X36322Y20508
X38354Y20508
X40513Y20508
X42545Y20508
X25654Y20508
X25335Y17360
X38100Y17460
X35052Y17460
X37084Y17460
X39243Y17460
X41275Y17460
X23984Y17360
X22860Y35621
X25019Y35621
X27051Y35621
X31369Y35748
X36957Y35748
X38989Y35748
X40894Y35748
X43053Y35875
X45085Y35875
X45847Y33970
X45847Y26731
X45847Y23810
X45847Y22413
X45847Y20889
X45974Y18603
X45847Y35113
X42545Y19238
X44958Y17206
X43307Y17206
X26405Y17360
X27378Y15917
X26616Y15228
X25854Y14466
X24765Y13650
X23749Y14888
X22987Y13999
X24003Y11956
X21717Y8078
X20701Y8554
X25273Y8681
X19304Y8427
X17526Y7824
X23876Y7824
X17272Y6427
X17272Y5030
X17272Y3633
X17272Y839
X17272Y2236
X25019Y12618
X25908Y13134
X22606Y17333
X22606Y19365
X24130Y18857
X22733Y26604
X21971Y13110
X27097Y13396
X27686Y14412
X28575Y15301
X26724Y11956
X26797Y7824
X28194Y7697
X28067Y6427
X28067Y3760
X28067Y2236
X28067Y839
X29210Y17841
X25654Y18857
X25527Y34351
X24257Y34351
X42672Y34351
X44196Y34478
X44323Y18857
X3302Y43622
X33528Y51750
X21844Y9697
X23876Y9697
X56896Y96835
X43307Y53782
X32004Y53909
X31623Y61529
X43434Y61529
X181737Y12618
M30