G04 EAGLE Gerber RS-274X export*
G75*
%MOMM*%
%FSLAX34Y34*%
%LPD*%
%INSolderpaste Bottom*%
%IPPOS*%
%AMOC8*
5,1,8,0,0,1.08239X$1,22.5*%
G01*
%ADD10R,1.200000X2.000000*%
%ADD11R,0.600000X1.350000*%
%ADD12R,1.000000X1.100000*%
%ADD13R,1.100000X1.000000*%
%ADD14R,0.830000X0.630000*%
%ADD15R,1.500000X0.900000*%
%ADD16R,0.900000X1.500000*%
%ADD17R,6.000000X6.000000*%
%ADD18R,1.200000X0.600000*%
%ADD19R,0.660000X0.300000*%
%ADD20R,1.800000X1.400000*%
%ADD21R,1.400000X1.900000*%
%ADD22R,0.800000X1.500000*%
%ADD23R,0.250000X0.637500*%
%ADD24R,0.500000X0.640000*%
%ADD25R,0.260000X0.599000*%
%ADD26R,2.000000X1.000000*%
%ADD27R,1.150000X1.000000*%


D10*
X369630Y10690D03*
X313630Y10690D03*
D11*
X356630Y47440D03*
X346630Y47440D03*
X336630Y47440D03*
X326630Y47440D03*
D12*
X138430Y1006840D03*
X138430Y1023840D03*
D13*
X172330Y1053440D03*
X155330Y1053440D03*
X172330Y979780D03*
X155330Y979780D03*
D14*
X227330Y978440D03*
X227330Y1001440D03*
D12*
X453390Y960340D03*
X453390Y943340D03*
D13*
X180730Y949300D03*
X197730Y949300D03*
D12*
X443230Y998440D03*
X443230Y981440D03*
X468630Y960340D03*
X468630Y943340D03*
D15*
X424010Y1016140D03*
X424010Y1003440D03*
X424010Y990740D03*
X424010Y978040D03*
X424010Y965340D03*
X424010Y952640D03*
X424010Y939940D03*
X424010Y927240D03*
X424010Y914540D03*
X424010Y901840D03*
X424010Y889140D03*
X424010Y876440D03*
X424010Y863740D03*
X424010Y851040D03*
D16*
X398780Y836140D03*
X386080Y836140D03*
X373380Y836140D03*
X360680Y836140D03*
X347980Y836140D03*
X335280Y836140D03*
X322580Y836140D03*
X309880Y836140D03*
X297180Y836140D03*
X284480Y836140D03*
D15*
X259250Y851040D03*
X259250Y863740D03*
X259250Y876440D03*
X259250Y889140D03*
X259250Y901840D03*
X259250Y914540D03*
X259250Y927240D03*
X259250Y939940D03*
X259250Y952640D03*
X259250Y965340D03*
X259250Y978040D03*
X259250Y990740D03*
X259250Y1003440D03*
X259250Y1016140D03*
D17*
X341630Y939140D03*
D12*
X458470Y998440D03*
X458470Y981440D03*
D18*
X217230Y932790D03*
X217230Y920090D03*
X217230Y907390D03*
X217230Y894690D03*
X217230Y881990D03*
X217230Y869290D03*
X217230Y856590D03*
X217230Y843890D03*
X161230Y843890D03*
X161230Y856590D03*
X161230Y869290D03*
X161230Y881990D03*
X161230Y894690D03*
X161230Y907390D03*
X161230Y920090D03*
X161230Y932790D03*
D13*
X117230Y862940D03*
X134230Y862940D03*
X134230Y913740D03*
X117230Y913740D03*
D19*
X134930Y894840D03*
X116530Y888340D03*
X116530Y881840D03*
X116530Y894840D03*
X134930Y888340D03*
X134930Y881840D03*
D13*
X180730Y964540D03*
X197730Y964540D03*
X504580Y850240D03*
X521580Y850240D03*
D20*
X525750Y151390D03*
X582750Y151390D03*
D21*
X598750Y19890D03*
X467250Y9890D03*
D22*
X513850Y48390D03*
X524850Y52390D03*
X535850Y48390D03*
X546850Y46390D03*
X557850Y48390D03*
X568850Y46390D03*
X579850Y48390D03*
X590850Y48390D03*
D23*
X209430Y1043252D03*
X204430Y1063627D03*
X209430Y1063627D03*
X199430Y1063627D03*
X194430Y1063627D03*
X204430Y1043252D03*
X199430Y1043252D03*
X194430Y1043252D03*
D24*
X198530Y1053440D03*
X205330Y1053440D03*
D13*
X172330Y1068680D03*
X155330Y1068680D03*
D25*
X163830Y1001345D03*
X168830Y1001345D03*
X173830Y1001345D03*
X158830Y1001345D03*
X153830Y1001345D03*
X153830Y1029335D03*
X158830Y1029335D03*
X163830Y1029335D03*
X168830Y1029335D03*
X173830Y1029335D03*
D26*
X163830Y1015340D03*
D13*
X121530Y1048360D03*
X104530Y1048360D03*
X121530Y1029310D03*
X104530Y1029310D03*
X121530Y1068680D03*
X104530Y1068680D03*
D27*
X97084Y214840D03*
X97084Y189840D03*
X97084Y164840D03*
X40584Y214840D03*
X40584Y189840D03*
X40584Y164840D03*
D10*
X1056700Y10690D03*
X1000700Y10690D03*
D11*
X1043700Y47440D03*
X1033700Y47440D03*
X1023700Y47440D03*
X1013700Y47440D03*
D12*
X825500Y1006840D03*
X825500Y1023840D03*
D13*
X859400Y1053440D03*
X842400Y1053440D03*
X859400Y979780D03*
X842400Y979780D03*
D14*
X914400Y978440D03*
X914400Y1001440D03*
D12*
X1140460Y960340D03*
X1140460Y943340D03*
D13*
X867800Y949300D03*
X884800Y949300D03*
D12*
X1130300Y998440D03*
X1130300Y981440D03*
X1155700Y960340D03*
X1155700Y943340D03*
D15*
X1111080Y1016140D03*
X1111080Y1003440D03*
X1111080Y990740D03*
X1111080Y978040D03*
X1111080Y965340D03*
X1111080Y952640D03*
X1111080Y939940D03*
X1111080Y927240D03*
X1111080Y914540D03*
X1111080Y901840D03*
X1111080Y889140D03*
X1111080Y876440D03*
X1111080Y863740D03*
X1111080Y851040D03*
D16*
X1085850Y836140D03*
X1073150Y836140D03*
X1060450Y836140D03*
X1047750Y836140D03*
X1035050Y836140D03*
X1022350Y836140D03*
X1009650Y836140D03*
X996950Y836140D03*
X984250Y836140D03*
X971550Y836140D03*
D15*
X946320Y851040D03*
X946320Y863740D03*
X946320Y876440D03*
X946320Y889140D03*
X946320Y901840D03*
X946320Y914540D03*
X946320Y927240D03*
X946320Y939940D03*
X946320Y952640D03*
X946320Y965340D03*
X946320Y978040D03*
X946320Y990740D03*
X946320Y1003440D03*
X946320Y1016140D03*
D17*
X1028700Y939140D03*
D12*
X1145540Y998440D03*
X1145540Y981440D03*
D18*
X904300Y932790D03*
X904300Y920090D03*
X904300Y907390D03*
X904300Y894690D03*
X904300Y881990D03*
X904300Y869290D03*
X904300Y856590D03*
X904300Y843890D03*
X848300Y843890D03*
X848300Y856590D03*
X848300Y869290D03*
X848300Y881990D03*
X848300Y894690D03*
X848300Y907390D03*
X848300Y920090D03*
X848300Y932790D03*
D13*
X804300Y862940D03*
X821300Y862940D03*
X821300Y913740D03*
X804300Y913740D03*
D19*
X822000Y894840D03*
X803600Y888340D03*
X803600Y881840D03*
X803600Y894840D03*
X822000Y888340D03*
X822000Y881840D03*
D13*
X867800Y964540D03*
X884800Y964540D03*
X1191650Y850240D03*
X1208650Y850240D03*
D20*
X1212820Y151390D03*
X1269820Y151390D03*
D21*
X1285820Y19890D03*
X1154320Y9890D03*
D22*
X1200920Y48390D03*
X1211920Y52390D03*
X1222920Y48390D03*
X1233920Y46390D03*
X1244920Y48390D03*
X1255920Y46390D03*
X1266920Y48390D03*
X1277920Y48390D03*
D23*
X896500Y1043252D03*
X891500Y1063627D03*
X896500Y1063627D03*
X886500Y1063627D03*
X881500Y1063627D03*
X891500Y1043252D03*
X886500Y1043252D03*
X881500Y1043252D03*
D24*
X885600Y1053440D03*
X892400Y1053440D03*
D13*
X859400Y1068680D03*
X842400Y1068680D03*
D25*
X850900Y1001345D03*
X855900Y1001345D03*
X860900Y1001345D03*
X845900Y1001345D03*
X840900Y1001345D03*
X840900Y1029335D03*
X845900Y1029335D03*
X850900Y1029335D03*
X855900Y1029335D03*
X860900Y1029335D03*
D26*
X850900Y1015340D03*
D13*
X808600Y1048360D03*
X791600Y1048360D03*
X808600Y1029310D03*
X791600Y1029310D03*
X808600Y1068680D03*
X791600Y1068680D03*
D27*
X784154Y214840D03*
X784154Y189840D03*
X784154Y164840D03*
X727654Y214840D03*
X727654Y189840D03*
X727654Y164840D03*
D10*
X1743770Y10690D03*
X1687770Y10690D03*
D11*
X1730770Y47440D03*
X1720770Y47440D03*
X1710770Y47440D03*
X1700770Y47440D03*
D12*
X1512570Y1006840D03*
X1512570Y1023840D03*
D13*
X1546470Y1053440D03*
X1529470Y1053440D03*
X1546470Y979780D03*
X1529470Y979780D03*
D14*
X1601470Y978440D03*
X1601470Y1001440D03*
D12*
X1827530Y960340D03*
X1827530Y943340D03*
D13*
X1554870Y949300D03*
X1571870Y949300D03*
D12*
X1817370Y998440D03*
X1817370Y981440D03*
X1842770Y960340D03*
X1842770Y943340D03*
D15*
X1798150Y1016140D03*
X1798150Y1003440D03*
X1798150Y990740D03*
X1798150Y978040D03*
X1798150Y965340D03*
X1798150Y952640D03*
X1798150Y939940D03*
X1798150Y927240D03*
X1798150Y914540D03*
X1798150Y901840D03*
X1798150Y889140D03*
X1798150Y876440D03*
X1798150Y863740D03*
X1798150Y851040D03*
D16*
X1772920Y836140D03*
X1760220Y836140D03*
X1747520Y836140D03*
X1734820Y836140D03*
X1722120Y836140D03*
X1709420Y836140D03*
X1696720Y836140D03*
X1684020Y836140D03*
X1671320Y836140D03*
X1658620Y836140D03*
D15*
X1633390Y851040D03*
X1633390Y863740D03*
X1633390Y876440D03*
X1633390Y889140D03*
X1633390Y901840D03*
X1633390Y914540D03*
X1633390Y927240D03*
X1633390Y939940D03*
X1633390Y952640D03*
X1633390Y965340D03*
X1633390Y978040D03*
X1633390Y990740D03*
X1633390Y1003440D03*
X1633390Y1016140D03*
D17*
X1715770Y939140D03*
D12*
X1832610Y998440D03*
X1832610Y981440D03*
D18*
X1591370Y932790D03*
X1591370Y920090D03*
X1591370Y907390D03*
X1591370Y894690D03*
X1591370Y881990D03*
X1591370Y869290D03*
X1591370Y856590D03*
X1591370Y843890D03*
X1535370Y843890D03*
X1535370Y856590D03*
X1535370Y869290D03*
X1535370Y881990D03*
X1535370Y894690D03*
X1535370Y907390D03*
X1535370Y920090D03*
X1535370Y932790D03*
D13*
X1491370Y862940D03*
X1508370Y862940D03*
X1508370Y913740D03*
X1491370Y913740D03*
D19*
X1509070Y894840D03*
X1490670Y888340D03*
X1490670Y881840D03*
X1490670Y894840D03*
X1509070Y888340D03*
X1509070Y881840D03*
D13*
X1554870Y964540D03*
X1571870Y964540D03*
X1878720Y850240D03*
X1895720Y850240D03*
D20*
X1899890Y151390D03*
X1956890Y151390D03*
D21*
X1972890Y19890D03*
X1841390Y9890D03*
D22*
X1887990Y48390D03*
X1898990Y52390D03*
X1909990Y48390D03*
X1920990Y46390D03*
X1931990Y48390D03*
X1942990Y46390D03*
X1953990Y48390D03*
X1964990Y48390D03*
D23*
X1583570Y1043252D03*
X1578570Y1063627D03*
X1583570Y1063627D03*
X1573570Y1063627D03*
X1568570Y1063627D03*
X1578570Y1043252D03*
X1573570Y1043252D03*
X1568570Y1043252D03*
D24*
X1572670Y1053440D03*
X1579470Y1053440D03*
D13*
X1546470Y1068680D03*
X1529470Y1068680D03*
D25*
X1537970Y1001345D03*
X1542970Y1001345D03*
X1547970Y1001345D03*
X1532970Y1001345D03*
X1527970Y1001345D03*
X1527970Y1029335D03*
X1532970Y1029335D03*
X1537970Y1029335D03*
X1542970Y1029335D03*
X1547970Y1029335D03*
D26*
X1537970Y1015340D03*
D13*
X1495670Y1048360D03*
X1478670Y1048360D03*
X1495670Y1029310D03*
X1478670Y1029310D03*
X1495670Y1068680D03*
X1478670Y1068680D03*
D27*
X1471224Y214840D03*
X1471224Y189840D03*
X1471224Y164840D03*
X1414724Y214840D03*
X1414724Y189840D03*
X1414724Y164840D03*
M02*
