G04 EAGLE Gerber RS-274X export*
G75*
%MOMM*%
%FSLAX34Y34*%
%LPD*%
%INSoldermask Bottom*%
%IPPOS*%
%AMOC8*
5,1,8,0,0,1.08239X$1,22.5*%
G01*
%ADD10R,1.403200X2.203200*%
%ADD11R,0.803200X1.553200*%
%ADD12C,0.838200*%
%ADD13C,0.853200*%
%ADD14C,3.403600*%
%ADD15R,1.203200X1.303200*%
%ADD16R,1.303200X1.203200*%
%ADD17C,2.082800*%
%ADD18R,1.033200X0.833200*%
%ADD19R,1.473200X0.838200*%
%ADD20R,1.403200X0.803200*%
%ADD21R,0.863200X0.503200*%
%ADD22R,2.003200X1.603200*%
%ADD23R,1.603200X2.103200*%
%ADD24R,1.003200X1.703200*%
%ADD25R,0.440000X0.840000*%
%ADD26R,1.520000X0.940000*%
%ADD27C,1.053200*%
%ADD28R,0.553200X1.003200*%
%ADD29R,2.703200X1.903200*%
%ADD30R,1.353200X1.203200*%
%ADD31R,1.703200X1.103200*%
%ADD32R,1.103200X1.703200*%
%ADD33R,1.533200X1.533200*%
%ADD34C,1.203200*%
%ADD35C,1.270000*%
%ADD36C,1.703200*%


D10*
X369630Y10690D03*
X313630Y10690D03*
D11*
X356630Y47440D03*
X346630Y47440D03*
X336630Y47440D03*
X326630Y47440D03*
D12*
X633730Y42840D03*
X51330Y1051640D03*
D13*
X312730Y46960D03*
X370530Y46960D03*
D14*
X56642Y282677D03*
X56642Y782803D03*
X626618Y782803D03*
X626618Y282677D03*
D15*
X138430Y1006840D03*
X138430Y1023840D03*
D16*
X172330Y1053440D03*
X155330Y1053440D03*
X172330Y979780D03*
X155330Y979780D03*
D17*
X201930Y1028040D03*
X201930Y1002640D03*
D18*
X227330Y978440D03*
X227330Y1001440D03*
D19*
X74930Y320904D03*
X74930Y312776D03*
D15*
X453390Y960340D03*
X453390Y943340D03*
D16*
X180730Y949300D03*
X197730Y949300D03*
D15*
X443230Y998440D03*
X443230Y981440D03*
X468630Y960340D03*
X468630Y943340D03*
X458470Y998440D03*
X458470Y981440D03*
D20*
X217230Y932790D03*
X217230Y920090D03*
X217230Y907390D03*
X217230Y894690D03*
X217230Y881990D03*
X217230Y869290D03*
X217230Y856590D03*
X217230Y843890D03*
X161230Y843890D03*
X161230Y856590D03*
X161230Y869290D03*
X161230Y881990D03*
X161230Y894690D03*
X161230Y907390D03*
X161230Y920090D03*
X161230Y932790D03*
D16*
X117230Y862940D03*
X134230Y862940D03*
X134230Y913740D03*
X117230Y913740D03*
D21*
X134930Y894840D03*
X116530Y888340D03*
X116530Y881840D03*
X116530Y894840D03*
X134930Y888340D03*
X134930Y881840D03*
D13*
X427030Y46960D03*
X484830Y46960D03*
D16*
X180730Y964540D03*
X197730Y964540D03*
D17*
X151130Y71890D03*
X125730Y71890D03*
X100330Y71890D03*
X74930Y71890D03*
X608330Y174440D03*
X582930Y174440D03*
X557530Y174440D03*
X532130Y174440D03*
X532130Y240640D03*
X532130Y266040D03*
X532130Y291440D03*
X532130Y316840D03*
X24130Y342240D03*
X24130Y316840D03*
D16*
X504580Y850240D03*
X521580Y850240D03*
D22*
X525750Y151390D03*
X582750Y151390D03*
D23*
X598750Y19890D03*
X467250Y9890D03*
D24*
X513850Y48390D03*
X524850Y52390D03*
X535850Y48390D03*
X546850Y46390D03*
X557850Y48390D03*
X568850Y46390D03*
X579850Y48390D03*
X590850Y48390D03*
D25*
X209430Y1063340D03*
X204430Y1063340D03*
X199430Y1063340D03*
X194430Y1063340D03*
X194430Y1043340D03*
X199430Y1043340D03*
X204430Y1043340D03*
X209430Y1043340D03*
D26*
X201930Y1053440D03*
D16*
X172330Y1068680D03*
X155330Y1068680D03*
D17*
X386080Y79190D03*
X411480Y79190D03*
X151130Y1086460D03*
X176530Y1086460D03*
X626630Y980340D03*
X626630Y954940D03*
D27*
X125730Y204840D03*
X125730Y174840D03*
X125730Y331840D03*
X125730Y301840D03*
D28*
X163830Y1000840D03*
X168830Y1000840D03*
X173830Y1000840D03*
X158830Y1000840D03*
X153830Y1000840D03*
X153830Y1029840D03*
X158830Y1029840D03*
X163830Y1029840D03*
X168830Y1029840D03*
X173830Y1029840D03*
D29*
X163830Y1015340D03*
D16*
X121530Y1048360D03*
X104530Y1048360D03*
X121530Y1029310D03*
X104530Y1029310D03*
X121530Y1068680D03*
X104530Y1068680D03*
D17*
X354330Y139040D03*
X379730Y139040D03*
X405130Y139040D03*
X430530Y139040D03*
X189230Y278740D03*
X189230Y253340D03*
X189230Y227940D03*
X189230Y202540D03*
X189230Y177140D03*
D30*
X97084Y214840D03*
X97084Y189840D03*
X97084Y164840D03*
X40584Y214840D03*
X40584Y189840D03*
X40584Y164840D03*
D27*
X68834Y204840D03*
X68834Y174840D03*
D31*
X424010Y1015640D03*
X424010Y1002940D03*
X424010Y990240D03*
X424010Y977540D03*
X424010Y964840D03*
X424010Y952140D03*
X424010Y939440D03*
X424010Y926740D03*
X424010Y914040D03*
X424010Y901340D03*
X424010Y888640D03*
X424010Y875940D03*
X424010Y863240D03*
X424010Y850540D03*
D32*
X398780Y835640D03*
X386080Y835640D03*
X373380Y835640D03*
X360680Y835640D03*
X347980Y835640D03*
X335280Y835640D03*
X322580Y835640D03*
X309880Y835640D03*
X297180Y835640D03*
X284480Y835640D03*
D31*
X259250Y850540D03*
X259250Y863240D03*
X259250Y875940D03*
X259250Y888640D03*
X259250Y901340D03*
X259250Y914040D03*
X259250Y926740D03*
X259250Y939440D03*
X259250Y952140D03*
X259250Y964840D03*
X259250Y977540D03*
X259250Y990240D03*
X259250Y1002940D03*
X259250Y1015640D03*
D33*
X356940Y942220D03*
X338490Y960430D03*
X356790Y960430D03*
X375090Y960430D03*
X375090Y942130D03*
X338390Y942430D03*
X338490Y923830D03*
X356790Y923730D03*
X375090Y923830D03*
D10*
X1056700Y10690D03*
X1000700Y10690D03*
D11*
X1043700Y47440D03*
X1033700Y47440D03*
X1023700Y47440D03*
X1013700Y47440D03*
D12*
X1320800Y42840D03*
X738400Y1051640D03*
D13*
X999800Y46960D03*
X1057600Y46960D03*
D14*
X743712Y282677D03*
X743712Y782803D03*
X1313688Y782803D03*
X1313688Y282677D03*
D15*
X825500Y1006840D03*
X825500Y1023840D03*
D16*
X859400Y1053440D03*
X842400Y1053440D03*
X859400Y979780D03*
X842400Y979780D03*
D17*
X889000Y1028040D03*
X889000Y1002640D03*
D18*
X914400Y978440D03*
X914400Y1001440D03*
D19*
X762000Y320904D03*
X762000Y312776D03*
D15*
X1140460Y960340D03*
X1140460Y943340D03*
D16*
X867800Y949300D03*
X884800Y949300D03*
D15*
X1130300Y998440D03*
X1130300Y981440D03*
X1155700Y960340D03*
X1155700Y943340D03*
X1145540Y998440D03*
X1145540Y981440D03*
D20*
X904300Y932790D03*
X904300Y920090D03*
X904300Y907390D03*
X904300Y894690D03*
X904300Y881990D03*
X904300Y869290D03*
X904300Y856590D03*
X904300Y843890D03*
X848300Y843890D03*
X848300Y856590D03*
X848300Y869290D03*
X848300Y881990D03*
X848300Y894690D03*
X848300Y907390D03*
X848300Y920090D03*
X848300Y932790D03*
D16*
X804300Y862940D03*
X821300Y862940D03*
X821300Y913740D03*
X804300Y913740D03*
D21*
X822000Y894840D03*
X803600Y888340D03*
X803600Y881840D03*
X803600Y894840D03*
X822000Y888340D03*
X822000Y881840D03*
D13*
X1114100Y46960D03*
X1171900Y46960D03*
D16*
X867800Y964540D03*
X884800Y964540D03*
D17*
X838200Y71890D03*
X812800Y71890D03*
X787400Y71890D03*
X762000Y71890D03*
X1295400Y174440D03*
X1270000Y174440D03*
X1244600Y174440D03*
X1219200Y174440D03*
X1219200Y240640D03*
X1219200Y266040D03*
X1219200Y291440D03*
X1219200Y316840D03*
X711200Y342240D03*
X711200Y316840D03*
D16*
X1191650Y850240D03*
X1208650Y850240D03*
D22*
X1212820Y151390D03*
X1269820Y151390D03*
D23*
X1285820Y19890D03*
X1154320Y9890D03*
D24*
X1200920Y48390D03*
X1211920Y52390D03*
X1222920Y48390D03*
X1233920Y46390D03*
X1244920Y48390D03*
X1255920Y46390D03*
X1266920Y48390D03*
X1277920Y48390D03*
D25*
X896500Y1063340D03*
X891500Y1063340D03*
X886500Y1063340D03*
X881500Y1063340D03*
X881500Y1043340D03*
X886500Y1043340D03*
X891500Y1043340D03*
X896500Y1043340D03*
D26*
X889000Y1053440D03*
D16*
X859400Y1068680D03*
X842400Y1068680D03*
D17*
X1073150Y79190D03*
X1098550Y79190D03*
X838200Y1086460D03*
X863600Y1086460D03*
X1313700Y980340D03*
X1313700Y954940D03*
D27*
X812800Y204840D03*
X812800Y174840D03*
X812800Y331840D03*
X812800Y301840D03*
D28*
X850900Y1000840D03*
X855900Y1000840D03*
X860900Y1000840D03*
X845900Y1000840D03*
X840900Y1000840D03*
X840900Y1029840D03*
X845900Y1029840D03*
X850900Y1029840D03*
X855900Y1029840D03*
X860900Y1029840D03*
D29*
X850900Y1015340D03*
D16*
X808600Y1048360D03*
X791600Y1048360D03*
X808600Y1029310D03*
X791600Y1029310D03*
X808600Y1068680D03*
X791600Y1068680D03*
D17*
X1041400Y139040D03*
X1066800Y139040D03*
X1092200Y139040D03*
X1117600Y139040D03*
X876300Y278740D03*
X876300Y253340D03*
X876300Y227940D03*
X876300Y202540D03*
X876300Y177140D03*
D30*
X784154Y214840D03*
X784154Y189840D03*
X784154Y164840D03*
X727654Y214840D03*
X727654Y189840D03*
X727654Y164840D03*
D27*
X755904Y204840D03*
X755904Y174840D03*
D31*
X1111080Y1015640D03*
X1111080Y1002940D03*
X1111080Y990240D03*
X1111080Y977540D03*
X1111080Y964840D03*
X1111080Y952140D03*
X1111080Y939440D03*
X1111080Y926740D03*
X1111080Y914040D03*
X1111080Y901340D03*
X1111080Y888640D03*
X1111080Y875940D03*
X1111080Y863240D03*
X1111080Y850540D03*
D32*
X1085850Y835640D03*
X1073150Y835640D03*
X1060450Y835640D03*
X1047750Y835640D03*
X1035050Y835640D03*
X1022350Y835640D03*
X1009650Y835640D03*
X996950Y835640D03*
X984250Y835640D03*
X971550Y835640D03*
D31*
X946320Y850540D03*
X946320Y863240D03*
X946320Y875940D03*
X946320Y888640D03*
X946320Y901340D03*
X946320Y914040D03*
X946320Y926740D03*
X946320Y939440D03*
X946320Y952140D03*
X946320Y964840D03*
X946320Y977540D03*
X946320Y990240D03*
X946320Y1002940D03*
X946320Y1015640D03*
D33*
X1044010Y942220D03*
X1025560Y960430D03*
X1043860Y960430D03*
X1062160Y960430D03*
X1062160Y942130D03*
X1025460Y942430D03*
X1025560Y923830D03*
X1043860Y923730D03*
X1062160Y923830D03*
D10*
X1743770Y10690D03*
X1687770Y10690D03*
D11*
X1730770Y47440D03*
X1720770Y47440D03*
X1710770Y47440D03*
X1700770Y47440D03*
D12*
X2007870Y42840D03*
X1425470Y1051640D03*
D13*
X1686870Y46960D03*
X1744670Y46960D03*
D14*
X1430782Y282677D03*
X1430782Y782803D03*
X2000758Y782803D03*
X2000758Y282677D03*
D15*
X1512570Y1006840D03*
X1512570Y1023840D03*
D16*
X1546470Y1053440D03*
X1529470Y1053440D03*
X1546470Y979780D03*
X1529470Y979780D03*
D17*
X1576070Y1028040D03*
X1576070Y1002640D03*
D18*
X1601470Y978440D03*
X1601470Y1001440D03*
D19*
X1449070Y320904D03*
X1449070Y312776D03*
D15*
X1827530Y960340D03*
X1827530Y943340D03*
D16*
X1554870Y949300D03*
X1571870Y949300D03*
D15*
X1817370Y998440D03*
X1817370Y981440D03*
X1842770Y960340D03*
X1842770Y943340D03*
X1832610Y998440D03*
X1832610Y981440D03*
D20*
X1591370Y932790D03*
X1591370Y920090D03*
X1591370Y907390D03*
X1591370Y894690D03*
X1591370Y881990D03*
X1591370Y869290D03*
X1591370Y856590D03*
X1591370Y843890D03*
X1535370Y843890D03*
X1535370Y856590D03*
X1535370Y869290D03*
X1535370Y881990D03*
X1535370Y894690D03*
X1535370Y907390D03*
X1535370Y920090D03*
X1535370Y932790D03*
D16*
X1491370Y862940D03*
X1508370Y862940D03*
X1508370Y913740D03*
X1491370Y913740D03*
D21*
X1509070Y894840D03*
X1490670Y888340D03*
X1490670Y881840D03*
X1490670Y894840D03*
X1509070Y888340D03*
X1509070Y881840D03*
D13*
X1801170Y46960D03*
X1858970Y46960D03*
D16*
X1554870Y964540D03*
X1571870Y964540D03*
D17*
X1525270Y71890D03*
X1499870Y71890D03*
X1474470Y71890D03*
X1449070Y71890D03*
X1982470Y174440D03*
X1957070Y174440D03*
X1931670Y174440D03*
X1906270Y174440D03*
X1906270Y240640D03*
X1906270Y266040D03*
X1906270Y291440D03*
X1906270Y316840D03*
X1398270Y342240D03*
X1398270Y316840D03*
D16*
X1878720Y850240D03*
X1895720Y850240D03*
D22*
X1899890Y151390D03*
X1956890Y151390D03*
D23*
X1972890Y19890D03*
X1841390Y9890D03*
D24*
X1887990Y48390D03*
X1898990Y52390D03*
X1909990Y48390D03*
X1920990Y46390D03*
X1931990Y48390D03*
X1942990Y46390D03*
X1953990Y48390D03*
X1964990Y48390D03*
D25*
X1583570Y1063340D03*
X1578570Y1063340D03*
X1573570Y1063340D03*
X1568570Y1063340D03*
X1568570Y1043340D03*
X1573570Y1043340D03*
X1578570Y1043340D03*
X1583570Y1043340D03*
D26*
X1576070Y1053440D03*
D16*
X1546470Y1068680D03*
X1529470Y1068680D03*
D17*
X1760220Y79190D03*
X1785620Y79190D03*
X1525270Y1086460D03*
X1550670Y1086460D03*
X2000770Y980340D03*
X2000770Y954940D03*
D27*
X1499870Y204840D03*
X1499870Y174840D03*
X1499870Y331840D03*
X1499870Y301840D03*
D28*
X1537970Y1000840D03*
X1542970Y1000840D03*
X1547970Y1000840D03*
X1532970Y1000840D03*
X1527970Y1000840D03*
X1527970Y1029840D03*
X1532970Y1029840D03*
X1537970Y1029840D03*
X1542970Y1029840D03*
X1547970Y1029840D03*
D29*
X1537970Y1015340D03*
D16*
X1495670Y1048360D03*
X1478670Y1048360D03*
X1495670Y1029310D03*
X1478670Y1029310D03*
X1495670Y1068680D03*
X1478670Y1068680D03*
D17*
X1728470Y139040D03*
X1753870Y139040D03*
X1779270Y139040D03*
X1804670Y139040D03*
X1563370Y278740D03*
X1563370Y253340D03*
X1563370Y227940D03*
X1563370Y202540D03*
X1563370Y177140D03*
D30*
X1471224Y214840D03*
X1471224Y189840D03*
X1471224Y164840D03*
X1414724Y214840D03*
X1414724Y189840D03*
X1414724Y164840D03*
D27*
X1442974Y204840D03*
X1442974Y174840D03*
D31*
X1798150Y1015640D03*
X1798150Y1002940D03*
X1798150Y990240D03*
X1798150Y977540D03*
X1798150Y964840D03*
X1798150Y952140D03*
X1798150Y939440D03*
X1798150Y926740D03*
X1798150Y914040D03*
X1798150Y901340D03*
X1798150Y888640D03*
X1798150Y875940D03*
X1798150Y863240D03*
X1798150Y850540D03*
D32*
X1772920Y835640D03*
X1760220Y835640D03*
X1747520Y835640D03*
X1734820Y835640D03*
X1722120Y835640D03*
X1709420Y835640D03*
X1696720Y835640D03*
X1684020Y835640D03*
X1671320Y835640D03*
X1658620Y835640D03*
D31*
X1633390Y850540D03*
X1633390Y863240D03*
X1633390Y875940D03*
X1633390Y888640D03*
X1633390Y901340D03*
X1633390Y914040D03*
X1633390Y926740D03*
X1633390Y939440D03*
X1633390Y952140D03*
X1633390Y964840D03*
X1633390Y977540D03*
X1633390Y990240D03*
X1633390Y1002940D03*
X1633390Y1015640D03*
D33*
X1731080Y942220D03*
X1712630Y960430D03*
X1730930Y960430D03*
X1749230Y960430D03*
X1749230Y942130D03*
X1712530Y942430D03*
X1712630Y923830D03*
X1730930Y923730D03*
X1749230Y923830D03*
D34*
X-26238Y1140765D03*
X2082368Y1140765D03*
D35*
X-35293Y63500D02*
X-35290Y63722D01*
X-35282Y63944D01*
X-35268Y64166D01*
X-35249Y64388D01*
X-35225Y64608D01*
X-35195Y64829D01*
X-35160Y65048D01*
X-35119Y65267D01*
X-35073Y65484D01*
X-35022Y65700D01*
X-34965Y65915D01*
X-34903Y66129D01*
X-34836Y66340D01*
X-34764Y66551D01*
X-34686Y66759D01*
X-34604Y66965D01*
X-34516Y67169D01*
X-34424Y67372D01*
X-34326Y67571D01*
X-34224Y67768D01*
X-34117Y67963D01*
X-34005Y68155D01*
X-33888Y68344D01*
X-33767Y68531D01*
X-33641Y68714D01*
X-33511Y68894D01*
X-33376Y69071D01*
X-33238Y69244D01*
X-33095Y69414D01*
X-32947Y69581D01*
X-32796Y69744D01*
X-32641Y69903D01*
X-32482Y70058D01*
X-32319Y70209D01*
X-32152Y70357D01*
X-31982Y70500D01*
X-31809Y70638D01*
X-31632Y70773D01*
X-31452Y70903D01*
X-31269Y71029D01*
X-31082Y71150D01*
X-30893Y71267D01*
X-30701Y71379D01*
X-30506Y71486D01*
X-30309Y71588D01*
X-30110Y71686D01*
X-29907Y71778D01*
X-29703Y71866D01*
X-29497Y71948D01*
X-29289Y72026D01*
X-29078Y72098D01*
X-28867Y72165D01*
X-28653Y72227D01*
X-28438Y72284D01*
X-28222Y72335D01*
X-28005Y72381D01*
X-27786Y72422D01*
X-27567Y72457D01*
X-27346Y72487D01*
X-27126Y72511D01*
X-26904Y72530D01*
X-26682Y72544D01*
X-26460Y72552D01*
X-26238Y72555D01*
X-26016Y72552D01*
X-25794Y72544D01*
X-25572Y72530D01*
X-25350Y72511D01*
X-25130Y72487D01*
X-24909Y72457D01*
X-24690Y72422D01*
X-24471Y72381D01*
X-24254Y72335D01*
X-24038Y72284D01*
X-23823Y72227D01*
X-23609Y72165D01*
X-23398Y72098D01*
X-23187Y72026D01*
X-22979Y71948D01*
X-22773Y71866D01*
X-22569Y71778D01*
X-22366Y71686D01*
X-22167Y71588D01*
X-21970Y71486D01*
X-21775Y71379D01*
X-21583Y71267D01*
X-21394Y71150D01*
X-21207Y71029D01*
X-21024Y70903D01*
X-20844Y70773D01*
X-20667Y70638D01*
X-20494Y70500D01*
X-20324Y70357D01*
X-20157Y70209D01*
X-19994Y70058D01*
X-19835Y69903D01*
X-19680Y69744D01*
X-19529Y69581D01*
X-19381Y69414D01*
X-19238Y69244D01*
X-19100Y69071D01*
X-18965Y68894D01*
X-18835Y68714D01*
X-18709Y68531D01*
X-18588Y68344D01*
X-18471Y68155D01*
X-18359Y67963D01*
X-18252Y67768D01*
X-18150Y67571D01*
X-18052Y67372D01*
X-17960Y67169D01*
X-17872Y66965D01*
X-17790Y66759D01*
X-17712Y66551D01*
X-17640Y66340D01*
X-17573Y66129D01*
X-17511Y65915D01*
X-17454Y65700D01*
X-17403Y65484D01*
X-17357Y65267D01*
X-17316Y65048D01*
X-17281Y64829D01*
X-17251Y64608D01*
X-17227Y64388D01*
X-17208Y64166D01*
X-17194Y63944D01*
X-17186Y63722D01*
X-17183Y63500D01*
X-17186Y63278D01*
X-17194Y63056D01*
X-17208Y62834D01*
X-17227Y62612D01*
X-17251Y62392D01*
X-17281Y62171D01*
X-17316Y61952D01*
X-17357Y61733D01*
X-17403Y61516D01*
X-17454Y61300D01*
X-17511Y61085D01*
X-17573Y60871D01*
X-17640Y60660D01*
X-17712Y60449D01*
X-17790Y60241D01*
X-17872Y60035D01*
X-17960Y59831D01*
X-18052Y59628D01*
X-18150Y59429D01*
X-18252Y59232D01*
X-18359Y59037D01*
X-18471Y58845D01*
X-18588Y58656D01*
X-18709Y58469D01*
X-18835Y58286D01*
X-18965Y58106D01*
X-19100Y57929D01*
X-19238Y57756D01*
X-19381Y57586D01*
X-19529Y57419D01*
X-19680Y57256D01*
X-19835Y57097D01*
X-19994Y56942D01*
X-20157Y56791D01*
X-20324Y56643D01*
X-20494Y56500D01*
X-20667Y56362D01*
X-20844Y56227D01*
X-21024Y56097D01*
X-21207Y55971D01*
X-21394Y55850D01*
X-21583Y55733D01*
X-21775Y55621D01*
X-21970Y55514D01*
X-22167Y55412D01*
X-22366Y55314D01*
X-22569Y55222D01*
X-22773Y55134D01*
X-22979Y55052D01*
X-23187Y54974D01*
X-23398Y54902D01*
X-23609Y54835D01*
X-23823Y54773D01*
X-24038Y54716D01*
X-24254Y54665D01*
X-24471Y54619D01*
X-24690Y54578D01*
X-24909Y54543D01*
X-25130Y54513D01*
X-25350Y54489D01*
X-25572Y54470D01*
X-25794Y54456D01*
X-26016Y54448D01*
X-26238Y54445D01*
X-26460Y54448D01*
X-26682Y54456D01*
X-26904Y54470D01*
X-27126Y54489D01*
X-27346Y54513D01*
X-27567Y54543D01*
X-27786Y54578D01*
X-28005Y54619D01*
X-28222Y54665D01*
X-28438Y54716D01*
X-28653Y54773D01*
X-28867Y54835D01*
X-29078Y54902D01*
X-29289Y54974D01*
X-29497Y55052D01*
X-29703Y55134D01*
X-29907Y55222D01*
X-30110Y55314D01*
X-30309Y55412D01*
X-30506Y55514D01*
X-30701Y55621D01*
X-30893Y55733D01*
X-31082Y55850D01*
X-31269Y55971D01*
X-31452Y56097D01*
X-31632Y56227D01*
X-31809Y56362D01*
X-31982Y56500D01*
X-32152Y56643D01*
X-32319Y56791D01*
X-32482Y56942D01*
X-32641Y57097D01*
X-32796Y57256D01*
X-32947Y57419D01*
X-33095Y57586D01*
X-33238Y57756D01*
X-33376Y57929D01*
X-33511Y58106D01*
X-33641Y58286D01*
X-33767Y58469D01*
X-33888Y58656D01*
X-34005Y58845D01*
X-34117Y59037D01*
X-34224Y59232D01*
X-34326Y59429D01*
X-34424Y59628D01*
X-34516Y59831D01*
X-34604Y60035D01*
X-34686Y60241D01*
X-34764Y60449D01*
X-34836Y60660D01*
X-34903Y60871D01*
X-34965Y61085D01*
X-35022Y61300D01*
X-35073Y61516D01*
X-35119Y61733D01*
X-35160Y61952D01*
X-35195Y62171D01*
X-35225Y62392D01*
X-35249Y62612D01*
X-35268Y62834D01*
X-35282Y63056D01*
X-35290Y63278D01*
X-35293Y63500D01*
D36*
X-26238Y63500D03*
M02*
